{
  "header": {
    "name": "",
    "ppq": 480,
    "meta": [
      {
        "type": "keySignature",
        "ticks": 0
      },
      {
        "type": "portPrefix",
        "ticks": 0
      }
    ],
    "tempos": [
      {
        "ticks": 0,
        "bpm": 120
      }
    ],
    "timeSignatures": [
      {
        "ticks": 0,
        "timeSignature": [
          4,
          4
        ],
        "measures": 0
      }
    ]
  },
  "tracks": [
    {
      "name": "Piccolo",
      "channel": 0,
      "instrument": {
        "number": 72,
        "name": "piccolo",
        "family": "pipe"
      },
      "notes": [
        {
          "time": 0,
          "midi": 83,
          "name": "B5",
          "velocity": 0.6299212598425197,
          "duration": 0.49895833333333334,
          "ticks": 0,
          "durationTicks": 479
        },
        {
          "time": 0.5,
          "midi": 83,
          "name": "B5",
          "velocity": 0.6299212598425197,
          "duration": 0.4989583333333333,
          "ticks": 480,
          "durationTicks": 479
        },
        {
          "time": 1,
          "midi": 84,
          "name": "C6",
          "velocity": 0.6299212598425197,
          "duration": 0.4989583333333334,
          "ticks": 960,
          "durationTicks": 479
        },
        {
          "time": 1.5,
          "midi": 86,
          "name": "D6",
          "velocity": 0.6299212598425197,
          "duration": 0.4989583333333334,
          "ticks": 1440,
          "durationTicks": 479
        },
        {
          "time": 2,
          "midi": 86,
          "name": "D6",
          "velocity": 0.6299212598425197,
          "duration": 0.4989583333333334,
          "ticks": 1920,
          "durationTicks": 479
        },
        {
          "time": 2.5,
          "midi": 84,
          "name": "C6",
          "velocity": 0.6299212598425197,
          "duration": 0.4989583333333334,
          "ticks": 2400,
          "durationTicks": 479
        },
        {
          "time": 3,
          "midi": 83,
          "name": "B5",
          "velocity": 0.6299212598425197,
          "duration": 0.4989583333333334,
          "ticks": 2880,
          "durationTicks": 479
        },
        {
          "time": 3.5,
          "midi": 81,
          "name": "A5",
          "velocity": 0.6299212598425197,
          "duration": 0.4989583333333334,
          "ticks": 3360,
          "durationTicks": 479
        },
        {
          "time": 4,
          "midi": 79,
          "name": "G5",
          "velocity": 0.6299212598425197,
          "duration": 0.4989583333333334,
          "ticks": 3840,
          "durationTicks": 479
        },
        {
          "time": 4.5,
          "midi": 79,
          "name": "G5",
          "velocity": 0.6299212598425197,
          "duration": 0.4989583333333334,
          "ticks": 4320,
          "durationTicks": 479
        },
        {
          "time": 5,
          "midi": 81,
          "name": "A5",
          "velocity": 0.6299212598425197,
          "duration": 0.4989583333333334,
          "ticks": 4800,
          "durationTicks": 479
        },
        {
          "time": 5.5,
          "midi": 83,
          "name": "B5",
          "velocity": 0.6299212598425197,
          "duration": 0.4989583333333334,
          "ticks": 5280,
          "durationTicks": 479
        },
        {
          "time": 6,
          "midi": 83,
          "name": "B5",
          "velocity": 0.6299212598425197,
          "duration": 0.7489583333333334,
          "ticks": 5760,
          "durationTicks": 719
        },
        {
          "time": 6.75,
          "midi": 81,
          "name": "A5",
          "velocity": 0.6299212598425197,
          "duration": 0.2489583333333334,
          "ticks": 6480,
          "durationTicks": 239
        },
        {
          "time": 7,
          "midi": 81,
          "name": "A5",
          "velocity": 0.6299212598425197,
          "duration": 0.9989583333333334,
          "ticks": 6720,
          "durationTicks": 959
        },
        {
          "time": 8,
          "midi": 83,
          "name": "B5",
          "velocity": 0.6299212598425197,
          "duration": 0.4989583333333325,
          "ticks": 7680,
          "durationTicks": 479
        },
        {
          "time": 8.5,
          "midi": 83,
          "name": "B5",
          "velocity": 0.6299212598425197,
          "duration": 0.4989583333333325,
          "ticks": 8160,
          "durationTicks": 479
        },
        {
          "time": 9,
          "midi": 84,
          "name": "C6",
          "velocity": 0.6299212598425197,
          "duration": 0.4989583333333325,
          "ticks": 8640,
          "durationTicks": 479
        },
        {
          "time": 9.5,
          "midi": 86,
          "name": "D6",
          "velocity": 0.6299212598425197,
          "duration": 0.4989583333333325,
          "ticks": 9120,
          "durationTicks": 479
        },
        {
          "time": 10,
          "midi": 86,
          "name": "D6",
          "velocity": 0.6299212598425197,
          "duration": 0.4989583333333325,
          "ticks": 9600,
          "durationTicks": 479
        },
        {
          "time": 10.5,
          "midi": 84,
          "name": "C6",
          "velocity": 0.6299212598425197,
          "duration": 0.4989583333333325,
          "ticks": 10080,
          "durationTicks": 479
        },
        {
          "time": 11,
          "midi": 83,
          "name": "B5",
          "velocity": 0.6299212598425197,
          "duration": 0.4989583333333325,
          "ticks": 10560,
          "durationTicks": 479
        },
        {
          "time": 11.5,
          "midi": 84,
          "name": "C6",
          "velocity": 0.6299212598425197,
          "duration": 0.2489583333333325,
          "ticks": 11040,
          "durationTicks": 239
        },
        {
          "time": 11.75,
          "midi": 81,
          "name": "A5",
          "velocity": 0.6299212598425197,
          "duration": 0.2489583333333325,
          "ticks": 11280,
          "durationTicks": 239
        },
        {
          "time": 12,
          "midi": 79,
          "name": "G5",
          "velocity": 0.6299212598425197,
          "duration": 0.4989583333333325,
          "ticks": 11520,
          "durationTicks": 479
        },
        {
          "time": 12.5,
          "midi": 79,
          "name": "G5",
          "velocity": 0.6299212598425197,
          "duration": 0.4989583333333325,
          "ticks": 12000,
          "durationTicks": 479
        },
        {
          "time": 13,
          "midi": 81,
          "name": "A5",
          "velocity": 0.6299212598425197,
          "duration": 0.4989583333333325,
          "ticks": 12480,
          "durationTicks": 479
        },
        {
          "time": 13.5,
          "midi": 83,
          "name": "B5",
          "velocity": 0.6299212598425197,
          "duration": 0.4989583333333325,
          "ticks": 12960,
          "durationTicks": 479
        },
        {
          "time": 14,
          "midi": 81,
          "name": "A5",
          "velocity": 0.6299212598425197,
          "duration": 0.7489583333333325,
          "ticks": 13440,
          "durationTicks": 719
        },
        {
          "time": 14.75,
          "midi": 79,
          "name": "G5",
          "velocity": 0.6299212598425197,
          "duration": 0.2489583333333325,
          "ticks": 14160,
          "durationTicks": 239
        },
        {
          "time": 15,
          "midi": 79,
          "name": "G5",
          "velocity": 0.6299212598425197,
          "duration": 0.9989583333333325,
          "ticks": 14400,
          "durationTicks": 959
        },
        {
          "time": 16,
          "midi": 93,
          "name": "A6",
          "velocity": 0.7559055118110236,
          "duration": 0.24895833333333428,
          "ticks": 15360,
          "durationTicks": 239
        },
        {
          "time": 16.25,
          "midi": 93,
          "name": "A6",
          "velocity": 0.7559055118110236,
          "duration": 0.12395833333333428,
          "ticks": 15600,
          "durationTicks": 119
        },
        {
          "time": 16.375,
          "midi": 93,
          "name": "A6",
          "velocity": 0.7559055118110236,
          "duration": 0.12395833333333428,
          "ticks": 15720,
          "durationTicks": 119
        },
        {
          "time": 16.5,
          "midi": 93,
          "name": "A6",
          "velocity": 0.7559055118110236,
          "duration": 0.24895833333333428,
          "ticks": 15840,
          "durationTicks": 239
        },
        {
          "time": 16.75,
          "midi": 93,
          "name": "A6",
          "velocity": 0.7559055118110236,
          "duration": 0.24895833333333428,
          "ticks": 16080,
          "durationTicks": 239
        },
        {
          "time": 17,
          "midi": 95,
          "name": "B6",
          "velocity": 0.7559055118110236,
          "duration": 0.4989583333333343,
          "ticks": 16320,
          "durationTicks": 479
        },
        {
          "time": 17.5,
          "midi": 91,
          "name": "G6",
          "velocity": 0.7559055118110236,
          "duration": 0.4989583333333343,
          "ticks": 16800,
          "durationTicks": 479
        },
        {
          "time": 18,
          "midi": 93,
          "name": "A6",
          "velocity": 0.7559055118110236,
          "duration": 0.24895833333333428,
          "ticks": 17280,
          "durationTicks": 239
        },
        {
          "time": 18.25,
          "midi": 93,
          "name": "A6",
          "velocity": 0.7559055118110236,
          "duration": 0.12395833333333428,
          "ticks": 17520,
          "durationTicks": 119
        },
        {
          "time": 18.375,
          "midi": 93,
          "name": "A6",
          "velocity": 0.7559055118110236,
          "duration": 0.12395833333333428,
          "ticks": 17640,
          "durationTicks": 119
        },
        {
          "time": 18.5,
          "midi": 95,
          "name": "B6",
          "velocity": 0.7559055118110236,
          "duration": 0.24895833333333428,
          "ticks": 17760,
          "durationTicks": 239
        },
        {
          "time": 18.75,
          "midi": 96,
          "name": "C7",
          "velocity": 0.7559055118110236,
          "duration": 0.24895833333333428,
          "ticks": 18000,
          "durationTicks": 239
        },
        {
          "time": 19,
          "midi": 95,
          "name": "B6",
          "velocity": 0.7559055118110236,
          "duration": 0.4989583333333343,
          "ticks": 18240,
          "durationTicks": 479
        },
        {
          "time": 19.5,
          "midi": 91,
          "name": "G6",
          "velocity": 0.7559055118110236,
          "duration": 0.4989583333333343,
          "ticks": 18720,
          "durationTicks": 479
        },
        {
          "time": 20,
          "midi": 93,
          "name": "A6",
          "velocity": 0.7559055118110236,
          "duration": 0.24895833333333428,
          "ticks": 19200,
          "durationTicks": 239
        },
        {
          "time": 20.25,
          "midi": 93,
          "name": "A6",
          "velocity": 0.7559055118110236,
          "duration": 0.12395833333333428,
          "ticks": 19440,
          "durationTicks": 119
        },
        {
          "time": 20.375,
          "midi": 93,
          "name": "A6",
          "velocity": 0.7559055118110236,
          "duration": 0.12395833333333428,
          "ticks": 19560,
          "durationTicks": 119
        },
        {
          "time": 20.5,
          "midi": 95,
          "name": "B6",
          "velocity": 0.7559055118110236,
          "duration": 0.24895833333333428,
          "ticks": 19680,
          "durationTicks": 239
        },
        {
          "time": 20.75,
          "midi": 96,
          "name": "C7",
          "velocity": 0.7559055118110236,
          "duration": 0.24895833333333428,
          "ticks": 19920,
          "durationTicks": 239
        },
        {
          "time": 21,
          "midi": 95,
          "name": "B6",
          "velocity": 0.7559055118110236,
          "duration": 0.24895833333333428,
          "ticks": 20160,
          "durationTicks": 239
        },
        {
          "time": 21.25,
          "midi": 95,
          "name": "B6",
          "velocity": 0.7559055118110236,
          "duration": 0.12395833333333428,
          "ticks": 20400,
          "durationTicks": 119
        },
        {
          "time": 21.375,
          "midi": 95,
          "name": "B6",
          "velocity": 0.7559055118110236,
          "duration": 0.12395833333333428,
          "ticks": 20520,
          "durationTicks": 119
        },
        {
          "time": 21.5,
          "midi": 93,
          "name": "A6",
          "velocity": 0.7559055118110236,
          "duration": 0.24895833333333428,
          "ticks": 20640,
          "durationTicks": 239
        },
        {
          "time": 21.75,
          "midi": 93,
          "name": "A6",
          "velocity": 0.7559055118110236,
          "duration": 0.24895833333333428,
          "ticks": 20880,
          "durationTicks": 239
        },
        {
          "time": 22,
          "midi": 91,
          "name": "G6",
          "velocity": 0.7559055118110236,
          "duration": 0.24895833333333428,
          "ticks": 21120,
          "durationTicks": 239
        },
        {
          "time": 22.25,
          "midi": 91,
          "name": "G6",
          "velocity": 0.7559055118110236,
          "duration": 0.12395833333333428,
          "ticks": 21360,
          "durationTicks": 119
        },
        {
          "time": 22.375,
          "midi": 91,
          "name": "G6",
          "velocity": 0.7559055118110236,
          "duration": 0.12395833333333428,
          "ticks": 21480,
          "durationTicks": 119
        },
        {
          "time": 22.5,
          "midi": 97,
          "name": "C#7",
          "velocity": 0.7559055118110236,
          "duration": 0.24895833333333428,
          "ticks": 21600,
          "durationTicks": 239
        },
        {
          "time": 22.75,
          "midi": 97,
          "name": "C#7",
          "velocity": 0.7559055118110236,
          "duration": 0.24895833333333428,
          "ticks": 21840,
          "durationTicks": 239
        },
        {
          "time": 23,
          "midi": 98,
          "name": "D7",
          "velocity": 0.7559055118110236,
          "duration": 0.4989583333333343,
          "ticks": 22080,
          "durationTicks": 479
        },
        {
          "time": 24,
          "midi": 103,
          "name": "G7",
          "velocity": 0.7559055118110236,
          "duration": 0.24895833333333428,
          "ticks": 23040,
          "durationTicks": 239
        },
        {
          "time": 24.25,
          "midi": 102,
          "name": "F#7",
          "velocity": 0.7559055118110236,
          "duration": 0.24895833333333428,
          "ticks": 23280,
          "durationTicks": 239
        },
        {
          "time": 24.5,
          "midi": 100,
          "name": "E7",
          "velocity": 0.7559055118110236,
          "duration": 0.24895833333333428,
          "ticks": 23520,
          "durationTicks": 239
        },
        {
          "time": 24.75,
          "midi": 98,
          "name": "D7",
          "velocity": 0.7559055118110236,
          "duration": 0.24895833333333428,
          "ticks": 23760,
          "durationTicks": 239
        },
        {
          "time": 25,
          "midi": 96,
          "name": "C7",
          "velocity": 0.7559055118110236,
          "duration": 0.24895833333333428,
          "ticks": 24000,
          "durationTicks": 239
        },
        {
          "time": 25.25,
          "midi": 95,
          "name": "B6",
          "velocity": 0.7559055118110236,
          "duration": 0.24895833333333428,
          "ticks": 24240,
          "durationTicks": 239
        },
        {
          "time": 25.5,
          "midi": 93,
          "name": "A6",
          "velocity": 0.7559055118110236,
          "duration": 0.24895833333333428,
          "ticks": 24480,
          "durationTicks": 239
        },
        {
          "time": 25.75,
          "midi": 91,
          "name": "G6",
          "velocity": 0.7559055118110236,
          "duration": 0.24895833333333428,
          "ticks": 24720,
          "durationTicks": 239
        },
        {
          "time": 26,
          "midi": 102,
          "name": "F#7",
          "velocity": 0.7559055118110236,
          "duration": 0.24895833333333428,
          "ticks": 24960,
          "durationTicks": 239
        },
        {
          "time": 26.25,
          "midi": 100,
          "name": "E7",
          "velocity": 0.7559055118110236,
          "duration": 0.24895833333333428,
          "ticks": 25200,
          "durationTicks": 239
        },
        {
          "time": 26.5,
          "midi": 98,
          "name": "D7",
          "velocity": 0.7559055118110236,
          "duration": 0.24895833333333428,
          "ticks": 25440,
          "durationTicks": 239
        },
        {
          "time": 26.75,
          "midi": 96,
          "name": "C7",
          "velocity": 0.7559055118110236,
          "duration": 0.24895833333333428,
          "ticks": 25680,
          "durationTicks": 239
        },
        {
          "time": 27,
          "midi": 95,
          "name": "B6",
          "velocity": 0.7559055118110236,
          "duration": 0.24895833333333428,
          "ticks": 25920,
          "durationTicks": 239
        },
        {
          "time": 27.25,
          "midi": 93,
          "name": "A6",
          "velocity": 0.7559055118110236,
          "duration": 0.24895833333333428,
          "ticks": 26160,
          "durationTicks": 239
        },
        {
          "time": 27.5,
          "midi": 91,
          "name": "G6",
          "velocity": 0.7559055118110236,
          "duration": 0.24895833333333428,
          "ticks": 26400,
          "durationTicks": 239
        },
        {
          "time": 27.75,
          "midi": 90,
          "name": "F#6",
          "velocity": 0.7559055118110236,
          "duration": 0.24895833333333428,
          "ticks": 26640,
          "durationTicks": 239
        },
        {
          "time": 28,
          "midi": 91,
          "name": "G6",
          "velocity": 0.7559055118110236,
          "duration": 0.4989583333333343,
          "ticks": 26880,
          "durationTicks": 479
        },
        {
          "time": 28.5,
          "midi": 91,
          "name": "G6",
          "velocity": 0.7559055118110236,
          "duration": 0.4989583333333343,
          "ticks": 27360,
          "durationTicks": 479
        },
        {
          "time": 29,
          "midi": 93,
          "name": "A6",
          "velocity": 0.7559055118110236,
          "duration": 0.4989583333333343,
          "ticks": 27840,
          "durationTicks": 479
        },
        {
          "time": 29.5,
          "midi": 95,
          "name": "B6",
          "velocity": 0.7559055118110236,
          "duration": 0.4989583333333343,
          "ticks": 28320,
          "durationTicks": 479
        },
        {
          "time": 30,
          "midi": 93,
          "name": "A6",
          "velocity": 0.7559055118110236,
          "duration": 0.7489583333333343,
          "ticks": 28800,
          "durationTicks": 719
        },
        {
          "time": 30.75,
          "midi": 91,
          "name": "G6",
          "velocity": 0.7559055118110236,
          "duration": 0.24895833333333428,
          "ticks": 29520,
          "durationTicks": 239
        },
        {
          "time": 31,
          "midi": 91,
          "name": "G6",
          "velocity": 0.7559055118110236,
          "duration": 0.9989583333333343,
          "ticks": 29760,
          "durationTicks": 959
        },
        {
          "time": 48,
          "midi": 93,
          "name": "A6",
          "velocity": 0.7559055118110236,
          "duration": 0.24895833333333428,
          "ticks": 46080,
          "durationTicks": 239
        },
        {
          "time": 48.25,
          "midi": 93,
          "name": "A6",
          "velocity": 0.7559055118110236,
          "duration": 0.12395833333333428,
          "ticks": 46320,
          "durationTicks": 119
        },
        {
          "time": 48.375,
          "midi": 93,
          "name": "A6",
          "velocity": 0.7559055118110236,
          "duration": 0.12395833333333428,
          "ticks": 46440,
          "durationTicks": 119
        },
        {
          "time": 48.5,
          "midi": 93,
          "name": "A6",
          "velocity": 0.7559055118110236,
          "duration": 0.24895833333333428,
          "ticks": 46560,
          "durationTicks": 239
        },
        {
          "time": 48.75,
          "midi": 93,
          "name": "A6",
          "velocity": 0.7559055118110236,
          "duration": 0.24895833333333428,
          "ticks": 46800,
          "durationTicks": 239
        },
        {
          "time": 49,
          "midi": 95,
          "name": "B6",
          "velocity": 0.7559055118110236,
          "duration": 0.4989583333333343,
          "ticks": 47040,
          "durationTicks": 479
        },
        {
          "time": 49.5,
          "midi": 91,
          "name": "G6",
          "velocity": 0.7559055118110236,
          "duration": 0.4989583333333343,
          "ticks": 47520,
          "durationTicks": 479
        },
        {
          "time": 50,
          "midi": 93,
          "name": "A6",
          "velocity": 0.7559055118110236,
          "duration": 0.24895833333333428,
          "ticks": 48000,
          "durationTicks": 239
        },
        {
          "time": 50.25,
          "midi": 93,
          "name": "A6",
          "velocity": 0.7559055118110236,
          "duration": 0.12395833333333428,
          "ticks": 48240,
          "durationTicks": 119
        },
        {
          "time": 50.375,
          "midi": 93,
          "name": "A6",
          "velocity": 0.7559055118110236,
          "duration": 0.12395833333333428,
          "ticks": 48360,
          "durationTicks": 119
        },
        {
          "time": 50.5,
          "midi": 95,
          "name": "B6",
          "velocity": 0.7559055118110236,
          "duration": 0.24895833333333428,
          "ticks": 48480,
          "durationTicks": 239
        },
        {
          "time": 50.75,
          "midi": 96,
          "name": "C7",
          "velocity": 0.7559055118110236,
          "duration": 0.24895833333333428,
          "ticks": 48720,
          "durationTicks": 239
        },
        {
          "time": 51,
          "midi": 95,
          "name": "B6",
          "velocity": 0.7559055118110236,
          "duration": 0.4989583333333343,
          "ticks": 48960,
          "durationTicks": 479
        },
        {
          "time": 51.5,
          "midi": 91,
          "name": "G6",
          "velocity": 0.7559055118110236,
          "duration": 0.4989583333333343,
          "ticks": 49440,
          "durationTicks": 479
        },
        {
          "time": 52,
          "midi": 93,
          "name": "A6",
          "velocity": 0.7559055118110236,
          "duration": 0.24895833333333428,
          "ticks": 49920,
          "durationTicks": 239
        },
        {
          "time": 52.25,
          "midi": 93,
          "name": "A6",
          "velocity": 0.7559055118110236,
          "duration": 0.12395833333333428,
          "ticks": 50160,
          "durationTicks": 119
        },
        {
          "time": 52.375,
          "midi": 93,
          "name": "A6",
          "velocity": 0.7559055118110236,
          "duration": 0.12395833333333428,
          "ticks": 50280,
          "durationTicks": 119
        },
        {
          "time": 52.5,
          "midi": 95,
          "name": "B6",
          "velocity": 0.7559055118110236,
          "duration": 0.24895833333333428,
          "ticks": 50400,
          "durationTicks": 239
        },
        {
          "time": 52.75,
          "midi": 96,
          "name": "C7",
          "velocity": 0.7559055118110236,
          "duration": 0.24895833333333428,
          "ticks": 50640,
          "durationTicks": 239
        },
        {
          "time": 53,
          "midi": 95,
          "name": "B6",
          "velocity": 0.7559055118110236,
          "duration": 0.24895833333333428,
          "ticks": 50880,
          "durationTicks": 239
        },
        {
          "time": 53.25,
          "midi": 95,
          "name": "B6",
          "velocity": 0.7559055118110236,
          "duration": 0.12395833333333428,
          "ticks": 51120,
          "durationTicks": 119
        },
        {
          "time": 53.375,
          "midi": 95,
          "name": "B6",
          "velocity": 0.7559055118110236,
          "duration": 0.12395833333333428,
          "ticks": 51240,
          "durationTicks": 119
        },
        {
          "time": 53.5,
          "midi": 93,
          "name": "A6",
          "velocity": 0.7559055118110236,
          "duration": 0.24895833333333428,
          "ticks": 51360,
          "durationTicks": 239
        },
        {
          "time": 53.75,
          "midi": 93,
          "name": "A6",
          "velocity": 0.7559055118110236,
          "duration": 0.24895833333333428,
          "ticks": 51600,
          "durationTicks": 239
        },
        {
          "time": 54,
          "midi": 91,
          "name": "G6",
          "velocity": 0.7559055118110236,
          "duration": 0.24895833333333428,
          "ticks": 51840,
          "durationTicks": 239
        },
        {
          "time": 54.25,
          "midi": 91,
          "name": "G6",
          "velocity": 0.7559055118110236,
          "duration": 0.12395833333333428,
          "ticks": 52080,
          "durationTicks": 119
        },
        {
          "time": 54.375,
          "midi": 91,
          "name": "G6",
          "velocity": 0.7559055118110236,
          "duration": 0.12395833333333428,
          "ticks": 52200,
          "durationTicks": 119
        },
        {
          "time": 54.5,
          "midi": 97,
          "name": "C#7",
          "velocity": 0.7559055118110236,
          "duration": 0.24895833333333428,
          "ticks": 52320,
          "durationTicks": 239
        },
        {
          "time": 54.75,
          "midi": 97,
          "name": "C#7",
          "velocity": 0.7559055118110236,
          "duration": 0.24895833333333428,
          "ticks": 52560,
          "durationTicks": 239
        },
        {
          "time": 55,
          "midi": 98,
          "name": "D7",
          "velocity": 0.7559055118110236,
          "duration": 0.4989583333333343,
          "ticks": 52800,
          "durationTicks": 479
        },
        {
          "time": 56,
          "midi": 103,
          "name": "G7",
          "velocity": 0.7559055118110236,
          "duration": 0.24895833333333428,
          "ticks": 53760,
          "durationTicks": 239
        },
        {
          "time": 56.25,
          "midi": 102,
          "name": "F#7",
          "velocity": 0.7559055118110236,
          "duration": 0.24895833333333428,
          "ticks": 54000,
          "durationTicks": 239
        },
        {
          "time": 56.5,
          "midi": 100,
          "name": "E7",
          "velocity": 0.7559055118110236,
          "duration": 0.24895833333333428,
          "ticks": 54240,
          "durationTicks": 239
        },
        {
          "time": 56.75,
          "midi": 98,
          "name": "D7",
          "velocity": 0.7559055118110236,
          "duration": 0.24895833333333428,
          "ticks": 54480,
          "durationTicks": 239
        },
        {
          "time": 57,
          "midi": 96,
          "name": "C7",
          "velocity": 0.7559055118110236,
          "duration": 0.24895833333333428,
          "ticks": 54720,
          "durationTicks": 239
        },
        {
          "time": 57.25,
          "midi": 95,
          "name": "B6",
          "velocity": 0.7559055118110236,
          "duration": 0.24895833333333428,
          "ticks": 54960,
          "durationTicks": 239
        },
        {
          "time": 57.5,
          "midi": 93,
          "name": "A6",
          "velocity": 0.7559055118110236,
          "duration": 0.24895833333333428,
          "ticks": 55200,
          "durationTicks": 239
        },
        {
          "time": 57.75,
          "midi": 91,
          "name": "G6",
          "velocity": 0.7559055118110236,
          "duration": 0.24895833333333428,
          "ticks": 55440,
          "durationTicks": 239
        },
        {
          "time": 58,
          "midi": 102,
          "name": "F#7",
          "velocity": 0.7559055118110236,
          "duration": 0.24895833333333428,
          "ticks": 55680,
          "durationTicks": 239
        },
        {
          "time": 58.25,
          "midi": 100,
          "name": "E7",
          "velocity": 0.7559055118110236,
          "duration": 0.24895833333333428,
          "ticks": 55920,
          "durationTicks": 239
        },
        {
          "time": 58.5,
          "midi": 98,
          "name": "D7",
          "velocity": 0.7559055118110236,
          "duration": 0.24895833333333428,
          "ticks": 56160,
          "durationTicks": 239
        },
        {
          "time": 58.75,
          "midi": 96,
          "name": "C7",
          "velocity": 0.7559055118110236,
          "duration": 0.24895833333333428,
          "ticks": 56400,
          "durationTicks": 239
        },
        {
          "time": 59,
          "midi": 95,
          "name": "B6",
          "velocity": 0.7559055118110236,
          "duration": 0.24895833333333428,
          "ticks": 56640,
          "durationTicks": 239
        },
        {
          "time": 59.25,
          "midi": 93,
          "name": "A6",
          "velocity": 0.7559055118110236,
          "duration": 0.24895833333333428,
          "ticks": 56880,
          "durationTicks": 239
        },
        {
          "time": 59.5,
          "midi": 91,
          "name": "G6",
          "velocity": 0.7559055118110236,
          "duration": 0.24895833333333428,
          "ticks": 57120,
          "durationTicks": 239
        },
        {
          "time": 59.75,
          "midi": 90,
          "name": "F#6",
          "velocity": 0.7559055118110236,
          "duration": 0.24895833333333428,
          "ticks": 57360,
          "durationTicks": 239
        },
        {
          "time": 60,
          "midi": 91,
          "name": "G6",
          "velocity": 0.7559055118110236,
          "duration": 0.4989583333333343,
          "ticks": 57600,
          "durationTicks": 479
        },
        {
          "time": 60.5,
          "midi": 91,
          "name": "G6",
          "velocity": 0.7559055118110236,
          "duration": 0.4989583333333343,
          "ticks": 58080,
          "durationTicks": 479
        },
        {
          "time": 61,
          "midi": 93,
          "name": "A6",
          "velocity": 0.7559055118110236,
          "duration": 0.4989583333333343,
          "ticks": 58560,
          "durationTicks": 479
        },
        {
          "time": 61.5,
          "midi": 95,
          "name": "B6",
          "velocity": 0.7559055118110236,
          "duration": 0.4989583333333343,
          "ticks": 59040,
          "durationTicks": 479
        },
        {
          "time": 62,
          "midi": 93,
          "name": "A6",
          "velocity": 0.7559055118110236,
          "duration": 0.7489583333333343,
          "ticks": 59520,
          "durationTicks": 719
        },
        {
          "time": 62.75,
          "midi": 91,
          "name": "G6",
          "velocity": 0.7559055118110236,
          "duration": 0.24895833333333428,
          "ticks": 60240,
          "durationTicks": 239
        },
        {
          "time": 63,
          "midi": 91,
          "name": "G6",
          "velocity": 0.7559055118110236,
          "duration": 0.9989583333333343,
          "ticks": 60480,
          "durationTicks": 959
        },
        {
          "time": 80,
          "midi": 93,
          "name": "A6",
          "velocity": 0.7559055118110236,
          "duration": 0.24895833333333428,
          "ticks": 76800,
          "durationTicks": 239
        },
        {
          "time": 80.25,
          "midi": 93,
          "name": "A6",
          "velocity": 0.7559055118110236,
          "duration": 0.12395833333333428,
          "ticks": 77040,
          "durationTicks": 119
        },
        {
          "time": 80.375,
          "midi": 93,
          "name": "A6",
          "velocity": 0.7559055118110236,
          "duration": 0.12395833333333428,
          "ticks": 77160,
          "durationTicks": 119
        },
        {
          "time": 80.5,
          "midi": 93,
          "name": "A6",
          "velocity": 0.7559055118110236,
          "duration": 0.24895833333333428,
          "ticks": 77280,
          "durationTicks": 239
        },
        {
          "time": 80.75,
          "midi": 93,
          "name": "A6",
          "velocity": 0.7559055118110236,
          "duration": 0.24895833333333428,
          "ticks": 77520,
          "durationTicks": 239
        },
        {
          "time": 81,
          "midi": 95,
          "name": "B6",
          "velocity": 0.7559055118110236,
          "duration": 0.4989583333333343,
          "ticks": 77760,
          "durationTicks": 479
        },
        {
          "time": 81.5,
          "midi": 91,
          "name": "G6",
          "velocity": 0.7559055118110236,
          "duration": 0.4989583333333343,
          "ticks": 78240,
          "durationTicks": 479
        },
        {
          "time": 82,
          "midi": 93,
          "name": "A6",
          "velocity": 0.7559055118110236,
          "duration": 0.24895833333333428,
          "ticks": 78720,
          "durationTicks": 239
        },
        {
          "time": 82.25,
          "midi": 93,
          "name": "A6",
          "velocity": 0.7559055118110236,
          "duration": 0.12395833333333428,
          "ticks": 78960,
          "durationTicks": 119
        },
        {
          "time": 82.375,
          "midi": 93,
          "name": "A6",
          "velocity": 0.7559055118110236,
          "duration": 0.12395833333333428,
          "ticks": 79080,
          "durationTicks": 119
        },
        {
          "time": 82.5,
          "midi": 95,
          "name": "B6",
          "velocity": 0.7559055118110236,
          "duration": 0.24895833333333428,
          "ticks": 79200,
          "durationTicks": 239
        },
        {
          "time": 82.75,
          "midi": 96,
          "name": "C7",
          "velocity": 0.7559055118110236,
          "duration": 0.24895833333333428,
          "ticks": 79440,
          "durationTicks": 239
        },
        {
          "time": 83,
          "midi": 95,
          "name": "B6",
          "velocity": 0.7559055118110236,
          "duration": 0.4989583333333343,
          "ticks": 79680,
          "durationTicks": 479
        },
        {
          "time": 83.5,
          "midi": 91,
          "name": "G6",
          "velocity": 0.7559055118110236,
          "duration": 0.4989583333333343,
          "ticks": 80160,
          "durationTicks": 479
        },
        {
          "time": 84,
          "midi": 93,
          "name": "A6",
          "velocity": 0.7559055118110236,
          "duration": 0.24895833333333428,
          "ticks": 80640,
          "durationTicks": 239
        },
        {
          "time": 84.25,
          "midi": 93,
          "name": "A6",
          "velocity": 0.7559055118110236,
          "duration": 0.12395833333333428,
          "ticks": 80880,
          "durationTicks": 119
        },
        {
          "time": 84.375,
          "midi": 93,
          "name": "A6",
          "velocity": 0.7559055118110236,
          "duration": 0.12395833333333428,
          "ticks": 81000,
          "durationTicks": 119
        },
        {
          "time": 84.5,
          "midi": 95,
          "name": "B6",
          "velocity": 0.7559055118110236,
          "duration": 0.24895833333333428,
          "ticks": 81120,
          "durationTicks": 239
        },
        {
          "time": 84.75,
          "midi": 96,
          "name": "C7",
          "velocity": 0.7559055118110236,
          "duration": 0.24895833333333428,
          "ticks": 81360,
          "durationTicks": 239
        },
        {
          "time": 85,
          "midi": 95,
          "name": "B6",
          "velocity": 0.7559055118110236,
          "duration": 0.24895833333333428,
          "ticks": 81600,
          "durationTicks": 239
        },
        {
          "time": 85.25,
          "midi": 95,
          "name": "B6",
          "velocity": 0.7559055118110236,
          "duration": 0.12395833333333428,
          "ticks": 81840,
          "durationTicks": 119
        },
        {
          "time": 85.375,
          "midi": 95,
          "name": "B6",
          "velocity": 0.7559055118110236,
          "duration": 0.12395833333333428,
          "ticks": 81960,
          "durationTicks": 119
        },
        {
          "time": 85.5,
          "midi": 93,
          "name": "A6",
          "velocity": 0.7559055118110236,
          "duration": 0.24895833333333428,
          "ticks": 82080,
          "durationTicks": 239
        },
        {
          "time": 85.75,
          "midi": 93,
          "name": "A6",
          "velocity": 0.7559055118110236,
          "duration": 0.24895833333333428,
          "ticks": 82320,
          "durationTicks": 239
        },
        {
          "time": 86,
          "midi": 91,
          "name": "G6",
          "velocity": 0.7559055118110236,
          "duration": 0.24895833333333428,
          "ticks": 82560,
          "durationTicks": 239
        },
        {
          "time": 86.25,
          "midi": 91,
          "name": "G6",
          "velocity": 0.7559055118110236,
          "duration": 0.12395833333333428,
          "ticks": 82800,
          "durationTicks": 119
        },
        {
          "time": 86.375,
          "midi": 91,
          "name": "G6",
          "velocity": 0.7559055118110236,
          "duration": 0.12395833333333428,
          "ticks": 82920,
          "durationTicks": 119
        },
        {
          "time": 86.5,
          "midi": 97,
          "name": "C#7",
          "velocity": 0.7559055118110236,
          "duration": 0.24895833333333428,
          "ticks": 83040,
          "durationTicks": 239
        },
        {
          "time": 86.75,
          "midi": 97,
          "name": "C#7",
          "velocity": 0.7559055118110236,
          "duration": 0.24895833333333428,
          "ticks": 83280,
          "durationTicks": 239
        },
        {
          "time": 87,
          "midi": 98,
          "name": "D7",
          "velocity": 0.7559055118110236,
          "duration": 0.4989583333333343,
          "ticks": 83520,
          "durationTicks": 479
        },
        {
          "time": 88,
          "midi": 103,
          "name": "G7",
          "velocity": 0.7559055118110236,
          "duration": 0.24895833333333428,
          "ticks": 84480,
          "durationTicks": 239
        },
        {
          "time": 88.25,
          "midi": 102,
          "name": "F#7",
          "velocity": 0.7559055118110236,
          "duration": 0.24895833333333428,
          "ticks": 84720,
          "durationTicks": 239
        },
        {
          "time": 88.5,
          "midi": 100,
          "name": "E7",
          "velocity": 0.7559055118110236,
          "duration": 0.24895833333333428,
          "ticks": 84960,
          "durationTicks": 239
        },
        {
          "time": 88.75,
          "midi": 98,
          "name": "D7",
          "velocity": 0.7559055118110236,
          "duration": 0.24895833333333428,
          "ticks": 85200,
          "durationTicks": 239
        },
        {
          "time": 89,
          "midi": 96,
          "name": "C7",
          "velocity": 0.7559055118110236,
          "duration": 0.24895833333333428,
          "ticks": 85440,
          "durationTicks": 239
        },
        {
          "time": 89.25,
          "midi": 95,
          "name": "B6",
          "velocity": 0.7559055118110236,
          "duration": 0.24895833333333428,
          "ticks": 85680,
          "durationTicks": 239
        },
        {
          "time": 89.5,
          "midi": 93,
          "name": "A6",
          "velocity": 0.7559055118110236,
          "duration": 0.24895833333333428,
          "ticks": 85920,
          "durationTicks": 239
        },
        {
          "time": 89.75,
          "midi": 91,
          "name": "G6",
          "velocity": 0.7559055118110236,
          "duration": 0.24895833333333428,
          "ticks": 86160,
          "durationTicks": 239
        },
        {
          "time": 90,
          "midi": 102,
          "name": "F#7",
          "velocity": 0.7559055118110236,
          "duration": 0.24895833333333428,
          "ticks": 86400,
          "durationTicks": 239
        },
        {
          "time": 90.25,
          "midi": 100,
          "name": "E7",
          "velocity": 0.7559055118110236,
          "duration": 0.24895833333333428,
          "ticks": 86640,
          "durationTicks": 239
        },
        {
          "time": 90.5,
          "midi": 98,
          "name": "D7",
          "velocity": 0.7559055118110236,
          "duration": 0.24895833333333428,
          "ticks": 86880,
          "durationTicks": 239
        },
        {
          "time": 90.75,
          "midi": 96,
          "name": "C7",
          "velocity": 0.7559055118110236,
          "duration": 0.24895833333333428,
          "ticks": 87120,
          "durationTicks": 239
        },
        {
          "time": 91,
          "midi": 95,
          "name": "B6",
          "velocity": 0.7559055118110236,
          "duration": 0.24895833333333428,
          "ticks": 87360,
          "durationTicks": 239
        },
        {
          "time": 91.25,
          "midi": 93,
          "name": "A6",
          "velocity": 0.7559055118110236,
          "duration": 0.24895833333333428,
          "ticks": 87600,
          "durationTicks": 239
        },
        {
          "time": 91.5,
          "midi": 91,
          "name": "G6",
          "velocity": 0.7559055118110236,
          "duration": 0.24895833333333428,
          "ticks": 87840,
          "durationTicks": 239
        },
        {
          "time": 91.75,
          "midi": 90,
          "name": "F#6",
          "velocity": 0.7559055118110236,
          "duration": 0.24895833333333428,
          "ticks": 88080,
          "durationTicks": 239
        },
        {
          "time": 92,
          "midi": 91,
          "name": "G6",
          "velocity": 0.7559055118110236,
          "duration": 0.4989583333333343,
          "ticks": 88320,
          "durationTicks": 479
        },
        {
          "time": 92.5,
          "midi": 91,
          "name": "G6",
          "velocity": 0.7559055118110236,
          "duration": 0.4989583333333343,
          "ticks": 88800,
          "durationTicks": 479
        },
        {
          "time": 93,
          "midi": 93,
          "name": "A6",
          "velocity": 0.7559055118110236,
          "duration": 0.4989583333333343,
          "ticks": 89280,
          "durationTicks": 479
        },
        {
          "time": 93.5,
          "midi": 95,
          "name": "B6",
          "velocity": 0.7559055118110236,
          "duration": 0.4989583333333343,
          "ticks": 89760,
          "durationTicks": 479
        },
        {
          "time": 94,
          "midi": 93,
          "name": "A6",
          "velocity": 0.7559055118110236,
          "duration": 0.7489583333333343,
          "ticks": 90240,
          "durationTicks": 719
        },
        {
          "time": 94.75,
          "midi": 91,
          "name": "G6",
          "velocity": 0.7559055118110236,
          "duration": 0.24895833333333428,
          "ticks": 90960,
          "durationTicks": 239
        },
        {
          "time": 95,
          "midi": 91,
          "name": "G6",
          "velocity": 0.7559055118110236,
          "duration": 0.9989583333333343,
          "ticks": 91200,
          "durationTicks": 959
        },
        {
          "time": 96,
          "midi": 98,
          "name": "D7",
          "velocity": 0.5039370078740157,
          "duration": 0.4989583333333343,
          "ticks": 92160,
          "durationTicks": 479
        },
        {
          "time": 96.5,
          "midi": 95,
          "name": "B6",
          "velocity": 0.5039370078740157,
          "duration": 0.4989583333333343,
          "ticks": 92640,
          "durationTicks": 479
        },
        {
          "time": 97,
          "midi": 93,
          "name": "A6",
          "velocity": 0.5039370078740157,
          "duration": 0.4989583333333343,
          "ticks": 93120,
          "durationTicks": 479
        },
        {
          "time": 97.5,
          "midi": 91,
          "name": "G6",
          "velocity": 0.5039370078740157,
          "duration": 0.4989583333333343,
          "ticks": 93600,
          "durationTicks": 479
        },
        {
          "time": 100,
          "midi": 91,
          "name": "G6",
          "velocity": 0.5039370078740157,
          "duration": 0.4989583333333343,
          "ticks": 96000,
          "durationTicks": 479
        },
        {
          "time": 100.5,
          "midi": 91,
          "name": "G6",
          "velocity": 0.5039370078740157,
          "duration": 0.4989583333333343,
          "ticks": 96480,
          "durationTicks": 479
        },
        {
          "time": 101,
          "midi": 93,
          "name": "A6",
          "velocity": 0.5039370078740157,
          "duration": 0.4989583333333343,
          "ticks": 96960,
          "durationTicks": 479
        },
        {
          "time": 101.5,
          "midi": 95,
          "name": "B6",
          "velocity": 0.5039370078740157,
          "duration": 0.4989583333333343,
          "ticks": 97440,
          "durationTicks": 479
        },
        {
          "time": 102,
          "midi": 93,
          "name": "A6",
          "velocity": 0.5039370078740157,
          "duration": 0.7489583333333343,
          "ticks": 97920,
          "durationTicks": 719
        },
        {
          "time": 102.75,
          "midi": 91,
          "name": "G6",
          "velocity": 0.5039370078740157,
          "duration": 0.24895833333333428,
          "ticks": 98640,
          "durationTicks": 239
        },
        {
          "time": 103,
          "midi": 91,
          "name": "G6",
          "velocity": 0.5039370078740157,
          "duration": 0.9989583333333343,
          "ticks": 98880,
          "durationTicks": 959
        }
      ],
      "controlChanges": {
        "7": [
          {
            "number": 7,
            "value": 0.7874015748031497,
            "time": 0,
            "ticks": 0
          }
        ],
        "10": [
          {
            "number": 10,
            "value": 0.5039370078740157,
            "time": 0,
            "ticks": 0
          }
        ],
        "91": [
          {
            "number": 91,
            "value": 0,
            "time": 0,
            "ticks": 0
          }
        ],
        "93": [
          {
            "number": 93,
            "value": 0,
            "time": 0,
            "ticks": 0
          }
        ],
        "121": [
          {
            "number": 121,
            "value": 0,
            "time": 0,
            "ticks": 0
          }
        ]
      }
    },
    {
      "name": "Flute",
      "channel": 0,
      "instrument": {
        "number": 73,
        "name": "flute",
        "family": "pipe"
      },
      "notes": [
        {
          "time": 0,
          "midi": 71,
          "name": "B4",
          "velocity": 0.6299212598425197,
          "duration": 0.4739583333333333,
          "ticks": 0,
          "durationTicks": 455
        },
        {
          "time": 0.5,
          "midi": 71,
          "name": "B4",
          "velocity": 0.6299212598425197,
          "duration": 0.47395833333333337,
          "ticks": 480,
          "durationTicks": 455
        },
        {
          "time": 1,
          "midi": 72,
          "name": "C5",
          "velocity": 0.6299212598425197,
          "duration": 0.47395833333333326,
          "ticks": 960,
          "durationTicks": 455
        },
        {
          "time": 1.5,
          "midi": 74,
          "name": "D5",
          "velocity": 0.6299212598425197,
          "duration": 0.47395833333333326,
          "ticks": 1440,
          "durationTicks": 455
        },
        {
          "time": 2,
          "midi": 74,
          "name": "D5",
          "velocity": 0.6299212598425197,
          "duration": 0.4739583333333335,
          "ticks": 1920,
          "durationTicks": 455
        },
        {
          "time": 2.5,
          "midi": 72,
          "name": "C5",
          "velocity": 0.6299212598425197,
          "duration": 0.4739583333333335,
          "ticks": 2400,
          "durationTicks": 455
        },
        {
          "time": 3,
          "midi": 71,
          "name": "B4",
          "velocity": 0.6299212598425197,
          "duration": 0.4739583333333335,
          "ticks": 2880,
          "durationTicks": 455
        },
        {
          "time": 3.5,
          "midi": 69,
          "name": "A4",
          "velocity": 0.6299212598425197,
          "duration": 0.4739583333333335,
          "ticks": 3360,
          "durationTicks": 455
        },
        {
          "time": 4,
          "midi": 67,
          "name": "G4",
          "velocity": 0.6299212598425197,
          "duration": 0.47395833333333304,
          "ticks": 3840,
          "durationTicks": 455
        },
        {
          "time": 4.5,
          "midi": 67,
          "name": "G4",
          "velocity": 0.6299212598425197,
          "duration": 0.47395833333333304,
          "ticks": 4320,
          "durationTicks": 455
        },
        {
          "time": 5,
          "midi": 69,
          "name": "A4",
          "velocity": 0.6299212598425197,
          "duration": 0.47395833333333304,
          "ticks": 4800,
          "durationTicks": 455
        },
        {
          "time": 5.5,
          "midi": 71,
          "name": "B4",
          "velocity": 0.6299212598425197,
          "duration": 0.47395833333333304,
          "ticks": 5280,
          "durationTicks": 455
        },
        {
          "time": 6,
          "midi": 71,
          "name": "B4",
          "velocity": 0.6299212598425197,
          "duration": 0.7114583333333337,
          "ticks": 5760,
          "durationTicks": 683
        },
        {
          "time": 6.75,
          "midi": 69,
          "name": "A4",
          "velocity": 0.6299212598425197,
          "duration": 0.23645833333333321,
          "ticks": 6480,
          "durationTicks": 227
        },
        {
          "time": 7,
          "midi": 69,
          "name": "A4",
          "velocity": 0.6299212598425197,
          "duration": 0.9489583333333336,
          "ticks": 6720,
          "durationTicks": 911
        },
        {
          "time": 8,
          "midi": 71,
          "name": "B4",
          "velocity": 0.6299212598425197,
          "duration": 0.4739583333333339,
          "ticks": 7680,
          "durationTicks": 455
        },
        {
          "time": 8.5,
          "midi": 71,
          "name": "B4",
          "velocity": 0.6299212598425197,
          "duration": 0.4739583333333339,
          "ticks": 8160,
          "durationTicks": 455
        },
        {
          "time": 9,
          "midi": 72,
          "name": "C5",
          "velocity": 0.6299212598425197,
          "duration": 0.4739583333333339,
          "ticks": 8640,
          "durationTicks": 455
        },
        {
          "time": 9.5,
          "midi": 74,
          "name": "D5",
          "velocity": 0.6299212598425197,
          "duration": 0.4739583333333339,
          "ticks": 9120,
          "durationTicks": 455
        },
        {
          "time": 10,
          "midi": 74,
          "name": "D5",
          "velocity": 0.6299212598425197,
          "duration": 0.4739583333333339,
          "ticks": 9600,
          "durationTicks": 455
        },
        {
          "time": 10.5,
          "midi": 72,
          "name": "C5",
          "velocity": 0.6299212598425197,
          "duration": 0.4739583333333339,
          "ticks": 10080,
          "durationTicks": 455
        },
        {
          "time": 11,
          "midi": 71,
          "name": "B4",
          "velocity": 0.6299212598425197,
          "duration": 0.4739583333333339,
          "ticks": 10560,
          "durationTicks": 455
        },
        {
          "time": 11.5,
          "midi": 72,
          "name": "C5",
          "velocity": 0.6299212598425197,
          "duration": 0.2489583333333325,
          "ticks": 11040,
          "durationTicks": 239
        },
        {
          "time": 11.75,
          "midi": 69,
          "name": "A4",
          "velocity": 0.6299212598425197,
          "duration": 0.23645833333333321,
          "ticks": 11280,
          "durationTicks": 227
        },
        {
          "time": 12,
          "midi": 67,
          "name": "G4",
          "velocity": 0.6299212598425197,
          "duration": 0.4739583333333339,
          "ticks": 11520,
          "durationTicks": 455
        },
        {
          "time": 12.5,
          "midi": 67,
          "name": "G4",
          "velocity": 0.6299212598425197,
          "duration": 0.4739583333333339,
          "ticks": 12000,
          "durationTicks": 455
        },
        {
          "time": 13,
          "midi": 69,
          "name": "A4",
          "velocity": 0.6299212598425197,
          "duration": 0.4739583333333339,
          "ticks": 12480,
          "durationTicks": 455
        },
        {
          "time": 13.5,
          "midi": 71,
          "name": "B4",
          "velocity": 0.6299212598425197,
          "duration": 0.4739583333333339,
          "ticks": 12960,
          "durationTicks": 455
        },
        {
          "time": 14,
          "midi": 69,
          "name": "A4",
          "velocity": 0.6299212598425197,
          "duration": 0.7114583333333329,
          "ticks": 13440,
          "durationTicks": 683
        },
        {
          "time": 14.75,
          "midi": 67,
          "name": "G4",
          "velocity": 0.6299212598425197,
          "duration": 0.23645833333333321,
          "ticks": 14160,
          "durationTicks": 227
        },
        {
          "time": 15,
          "midi": 67,
          "name": "G4",
          "velocity": 0.6299212598425197,
          "duration": 0.9489583333333336,
          "ticks": 14400,
          "durationTicks": 911
        },
        {
          "time": 16,
          "midi": 81,
          "name": "A5",
          "velocity": 0.7559055118110236,
          "duration": 0.236458333333335,
          "ticks": 15360,
          "durationTicks": 227
        },
        {
          "time": 16.25,
          "midi": 81,
          "name": "A5",
          "velocity": 0.7559055118110236,
          "duration": 0.11770833333333286,
          "ticks": 15600,
          "durationTicks": 113
        },
        {
          "time": 16.375,
          "midi": 81,
          "name": "A5",
          "velocity": 0.7559055118110236,
          "duration": 0.11770833333333286,
          "ticks": 15720,
          "durationTicks": 113
        },
        {
          "time": 16.5,
          "midi": 81,
          "name": "A5",
          "velocity": 0.7559055118110236,
          "duration": 0.236458333333335,
          "ticks": 15840,
          "durationTicks": 227
        },
        {
          "time": 16.75,
          "midi": 81,
          "name": "A5",
          "velocity": 0.7559055118110236,
          "duration": 0.236458333333335,
          "ticks": 16080,
          "durationTicks": 227
        },
        {
          "time": 17,
          "midi": 83,
          "name": "B5",
          "velocity": 0.7559055118110236,
          "duration": 0.47395833333333215,
          "ticks": 16320,
          "durationTicks": 455
        },
        {
          "time": 17.5,
          "midi": 79,
          "name": "G5",
          "velocity": 0.7559055118110236,
          "duration": 0.47395833333333215,
          "ticks": 16800,
          "durationTicks": 455
        },
        {
          "time": 18,
          "midi": 81,
          "name": "A5",
          "velocity": 0.7559055118110236,
          "duration": 0.236458333333335,
          "ticks": 17280,
          "durationTicks": 227
        },
        {
          "time": 18.25,
          "midi": 81,
          "name": "A5",
          "velocity": 0.7559055118110236,
          "duration": 0.11770833333333286,
          "ticks": 17520,
          "durationTicks": 113
        },
        {
          "time": 18.375,
          "midi": 81,
          "name": "A5",
          "velocity": 0.7559055118110236,
          "duration": 0.11770833333333286,
          "ticks": 17640,
          "durationTicks": 113
        },
        {
          "time": 18.5,
          "midi": 83,
          "name": "B5",
          "velocity": 0.7559055118110236,
          "duration": 0.236458333333335,
          "ticks": 17760,
          "durationTicks": 227
        },
        {
          "time": 18.75,
          "midi": 84,
          "name": "C6",
          "velocity": 0.7559055118110236,
          "duration": 0.236458333333335,
          "ticks": 18000,
          "durationTicks": 227
        },
        {
          "time": 19,
          "midi": 83,
          "name": "B5",
          "velocity": 0.7559055118110236,
          "duration": 0.47395833333333215,
          "ticks": 18240,
          "durationTicks": 455
        },
        {
          "time": 19.5,
          "midi": 79,
          "name": "G5",
          "velocity": 0.7559055118110236,
          "duration": 0.47395833333333215,
          "ticks": 18720,
          "durationTicks": 455
        },
        {
          "time": 20,
          "midi": 81,
          "name": "A5",
          "velocity": 0.7559055118110236,
          "duration": 0.236458333333335,
          "ticks": 19200,
          "durationTicks": 227
        },
        {
          "time": 20.25,
          "midi": 81,
          "name": "A5",
          "velocity": 0.7559055118110236,
          "duration": 0.11770833333333286,
          "ticks": 19440,
          "durationTicks": 113
        },
        {
          "time": 20.375,
          "midi": 81,
          "name": "A5",
          "velocity": 0.7559055118110236,
          "duration": 0.11770833333333286,
          "ticks": 19560,
          "durationTicks": 113
        },
        {
          "time": 20.5,
          "midi": 83,
          "name": "B5",
          "velocity": 0.7559055118110236,
          "duration": 0.236458333333335,
          "ticks": 19680,
          "durationTicks": 227
        },
        {
          "time": 20.75,
          "midi": 84,
          "name": "C6",
          "velocity": 0.7559055118110236,
          "duration": 0.236458333333335,
          "ticks": 19920,
          "durationTicks": 227
        },
        {
          "time": 21,
          "midi": 83,
          "name": "B5",
          "velocity": 0.7559055118110236,
          "duration": 0.236458333333335,
          "ticks": 20160,
          "durationTicks": 227
        },
        {
          "time": 21.25,
          "midi": 83,
          "name": "B5",
          "velocity": 0.7559055118110236,
          "duration": 0.11770833333333286,
          "ticks": 20400,
          "durationTicks": 113
        },
        {
          "time": 21.375,
          "midi": 83,
          "name": "B5",
          "velocity": 0.7559055118110236,
          "duration": 0.11770833333333286,
          "ticks": 20520,
          "durationTicks": 113
        },
        {
          "time": 21.5,
          "midi": 81,
          "name": "A5",
          "velocity": 0.7559055118110236,
          "duration": 0.236458333333335,
          "ticks": 20640,
          "durationTicks": 227
        },
        {
          "time": 21.75,
          "midi": 81,
          "name": "A5",
          "velocity": 0.7559055118110236,
          "duration": 0.236458333333335,
          "ticks": 20880,
          "durationTicks": 227
        },
        {
          "time": 22,
          "midi": 79,
          "name": "G5",
          "velocity": 0.7559055118110236,
          "duration": 0.236458333333335,
          "ticks": 21120,
          "durationTicks": 227
        },
        {
          "time": 22.25,
          "midi": 79,
          "name": "G5",
          "velocity": 0.7559055118110236,
          "duration": 0.11770833333333286,
          "ticks": 21360,
          "durationTicks": 113
        },
        {
          "time": 22.375,
          "midi": 79,
          "name": "G5",
          "velocity": 0.7559055118110236,
          "duration": 0.11770833333333286,
          "ticks": 21480,
          "durationTicks": 113
        },
        {
          "time": 22.5,
          "midi": 85,
          "name": "C#6",
          "velocity": 0.7559055118110236,
          "duration": 0.236458333333335,
          "ticks": 21600,
          "durationTicks": 227
        },
        {
          "time": 22.75,
          "midi": 85,
          "name": "C#6",
          "velocity": 0.7559055118110236,
          "duration": 0.236458333333335,
          "ticks": 21840,
          "durationTicks": 227
        },
        {
          "time": 23,
          "midi": 86,
          "name": "D6",
          "velocity": 0.7559055118110236,
          "duration": 0.47395833333333215,
          "ticks": 22080,
          "durationTicks": 455
        },
        {
          "time": 24,
          "midi": 91,
          "name": "G6",
          "velocity": 0.7559055118110236,
          "duration": 0.24895833333333428,
          "ticks": 23040,
          "durationTicks": 239
        },
        {
          "time": 24.25,
          "midi": 90,
          "name": "F#6",
          "velocity": 0.7559055118110236,
          "duration": 0.24895833333333428,
          "ticks": 23280,
          "durationTicks": 239
        },
        {
          "time": 24.5,
          "midi": 88,
          "name": "E6",
          "velocity": 0.7559055118110236,
          "duration": 0.24895833333333428,
          "ticks": 23520,
          "durationTicks": 239
        },
        {
          "time": 24.75,
          "midi": 86,
          "name": "D6",
          "velocity": 0.7559055118110236,
          "duration": 0.24895833333333428,
          "ticks": 23760,
          "durationTicks": 239
        },
        {
          "time": 25,
          "midi": 84,
          "name": "C6",
          "velocity": 0.7559055118110236,
          "duration": 0.24895833333333428,
          "ticks": 24000,
          "durationTicks": 239
        },
        {
          "time": 25.25,
          "midi": 83,
          "name": "B5",
          "velocity": 0.7559055118110236,
          "duration": 0.24895833333333428,
          "ticks": 24240,
          "durationTicks": 239
        },
        {
          "time": 25.5,
          "midi": 81,
          "name": "A5",
          "velocity": 0.7559055118110236,
          "duration": 0.24895833333333428,
          "ticks": 24480,
          "durationTicks": 239
        },
        {
          "time": 25.75,
          "midi": 79,
          "name": "G5",
          "velocity": 0.7559055118110236,
          "duration": 0.236458333333335,
          "ticks": 24720,
          "durationTicks": 227
        },
        {
          "time": 26,
          "midi": 90,
          "name": "F#6",
          "velocity": 0.7559055118110236,
          "duration": 0.24895833333333428,
          "ticks": 24960,
          "durationTicks": 239
        },
        {
          "time": 26.25,
          "midi": 88,
          "name": "E6",
          "velocity": 0.7559055118110236,
          "duration": 0.24895833333333428,
          "ticks": 25200,
          "durationTicks": 239
        },
        {
          "time": 26.5,
          "midi": 86,
          "name": "D6",
          "velocity": 0.7559055118110236,
          "duration": 0.24895833333333428,
          "ticks": 25440,
          "durationTicks": 239
        },
        {
          "time": 26.75,
          "midi": 84,
          "name": "C6",
          "velocity": 0.7559055118110236,
          "duration": 0.24895833333333428,
          "ticks": 25680,
          "durationTicks": 239
        },
        {
          "time": 27,
          "midi": 83,
          "name": "B5",
          "velocity": 0.7559055118110236,
          "duration": 0.24895833333333428,
          "ticks": 25920,
          "durationTicks": 239
        },
        {
          "time": 27.25,
          "midi": 81,
          "name": "A5",
          "velocity": 0.7559055118110236,
          "duration": 0.24895833333333428,
          "ticks": 26160,
          "durationTicks": 239
        },
        {
          "time": 27.5,
          "midi": 79,
          "name": "G5",
          "velocity": 0.7559055118110236,
          "duration": 0.24895833333333428,
          "ticks": 26400,
          "durationTicks": 239
        },
        {
          "time": 27.75,
          "midi": 78,
          "name": "F#5",
          "velocity": 0.7559055118110236,
          "duration": 0.236458333333335,
          "ticks": 26640,
          "durationTicks": 227
        },
        {
          "time": 28,
          "midi": 79,
          "name": "G5",
          "velocity": 0.7559055118110236,
          "duration": 0.47395833333333215,
          "ticks": 26880,
          "durationTicks": 455
        },
        {
          "time": 28.5,
          "midi": 79,
          "name": "G5",
          "velocity": 0.7559055118110236,
          "duration": 0.47395833333333215,
          "ticks": 27360,
          "durationTicks": 455
        },
        {
          "time": 29,
          "midi": 81,
          "name": "A5",
          "velocity": 0.7559055118110236,
          "duration": 0.47395833333333215,
          "ticks": 27840,
          "durationTicks": 455
        },
        {
          "time": 29.5,
          "midi": 83,
          "name": "B5",
          "velocity": 0.7559055118110236,
          "duration": 0.47395833333333215,
          "ticks": 28320,
          "durationTicks": 455
        },
        {
          "time": 30,
          "midi": 81,
          "name": "A5",
          "velocity": 0.7559055118110236,
          "duration": 0.7114583333333329,
          "ticks": 28800,
          "durationTicks": 683
        },
        {
          "time": 30.75,
          "midi": 79,
          "name": "G5",
          "velocity": 0.7559055118110236,
          "duration": 0.236458333333335,
          "ticks": 29520,
          "durationTicks": 227
        },
        {
          "time": 31,
          "midi": 79,
          "name": "G5",
          "velocity": 0.7559055118110236,
          "duration": 0.9489583333333336,
          "ticks": 29760,
          "durationTicks": 911
        },
        {
          "time": 48,
          "midi": 81,
          "name": "A5",
          "velocity": 0.7559055118110236,
          "duration": 0.23645833333333144,
          "ticks": 46080,
          "durationTicks": 227
        },
        {
          "time": 48.25,
          "midi": 81,
          "name": "A5",
          "velocity": 0.7559055118110236,
          "duration": 0.11770833333333286,
          "ticks": 46320,
          "durationTicks": 113
        },
        {
          "time": 48.375,
          "midi": 81,
          "name": "A5",
          "velocity": 0.7559055118110236,
          "duration": 0.11770833333333286,
          "ticks": 46440,
          "durationTicks": 113
        },
        {
          "time": 48.5,
          "midi": 81,
          "name": "A5",
          "velocity": 0.7559055118110236,
          "duration": 0.23645833333333144,
          "ticks": 46560,
          "durationTicks": 227
        },
        {
          "time": 48.75,
          "midi": 81,
          "name": "A5",
          "velocity": 0.7559055118110236,
          "duration": 0.23645833333333144,
          "ticks": 46800,
          "durationTicks": 227
        },
        {
          "time": 49,
          "midi": 83,
          "name": "B5",
          "velocity": 0.7559055118110236,
          "duration": 0.4739583333333357,
          "ticks": 47040,
          "durationTicks": 455
        },
        {
          "time": 49.5,
          "midi": 79,
          "name": "G5",
          "velocity": 0.7559055118110236,
          "duration": 0.4739583333333357,
          "ticks": 47520,
          "durationTicks": 455
        },
        {
          "time": 50,
          "midi": 81,
          "name": "A5",
          "velocity": 0.7559055118110236,
          "duration": 0.23645833333333144,
          "ticks": 48000,
          "durationTicks": 227
        },
        {
          "time": 50.25,
          "midi": 81,
          "name": "A5",
          "velocity": 0.7559055118110236,
          "duration": 0.11770833333333286,
          "ticks": 48240,
          "durationTicks": 113
        },
        {
          "time": 50.375,
          "midi": 81,
          "name": "A5",
          "velocity": 0.7559055118110236,
          "duration": 0.11770833333333286,
          "ticks": 48360,
          "durationTicks": 113
        },
        {
          "time": 50.5,
          "midi": 83,
          "name": "B5",
          "velocity": 0.7559055118110236,
          "duration": 0.23645833333333144,
          "ticks": 48480,
          "durationTicks": 227
        },
        {
          "time": 50.75,
          "midi": 84,
          "name": "C6",
          "velocity": 0.7559055118110236,
          "duration": 0.23645833333333144,
          "ticks": 48720,
          "durationTicks": 227
        },
        {
          "time": 51,
          "midi": 83,
          "name": "B5",
          "velocity": 0.7559055118110236,
          "duration": 0.4739583333333357,
          "ticks": 48960,
          "durationTicks": 455
        },
        {
          "time": 51.5,
          "midi": 79,
          "name": "G5",
          "velocity": 0.7559055118110236,
          "duration": 0.4739583333333357,
          "ticks": 49440,
          "durationTicks": 455
        },
        {
          "time": 52,
          "midi": 81,
          "name": "A5",
          "velocity": 0.7559055118110236,
          "duration": 0.23645833333333144,
          "ticks": 49920,
          "durationTicks": 227
        },
        {
          "time": 52.25,
          "midi": 81,
          "name": "A5",
          "velocity": 0.7559055118110236,
          "duration": 0.11770833333333286,
          "ticks": 50160,
          "durationTicks": 113
        },
        {
          "time": 52.375,
          "midi": 81,
          "name": "A5",
          "velocity": 0.7559055118110236,
          "duration": 0.11770833333333286,
          "ticks": 50280,
          "durationTicks": 113
        },
        {
          "time": 52.5,
          "midi": 83,
          "name": "B5",
          "velocity": 0.7559055118110236,
          "duration": 0.23645833333333144,
          "ticks": 50400,
          "durationTicks": 227
        },
        {
          "time": 52.75,
          "midi": 84,
          "name": "C6",
          "velocity": 0.7559055118110236,
          "duration": 0.23645833333333144,
          "ticks": 50640,
          "durationTicks": 227
        },
        {
          "time": 53,
          "midi": 83,
          "name": "B5",
          "velocity": 0.7559055118110236,
          "duration": 0.23645833333333144,
          "ticks": 50880,
          "durationTicks": 227
        },
        {
          "time": 53.25,
          "midi": 83,
          "name": "B5",
          "velocity": 0.7559055118110236,
          "duration": 0.11770833333333286,
          "ticks": 51120,
          "durationTicks": 113
        },
        {
          "time": 53.375,
          "midi": 83,
          "name": "B5",
          "velocity": 0.7559055118110236,
          "duration": 0.11770833333333286,
          "ticks": 51240,
          "durationTicks": 113
        },
        {
          "time": 53.5,
          "midi": 81,
          "name": "A5",
          "velocity": 0.7559055118110236,
          "duration": 0.23645833333333144,
          "ticks": 51360,
          "durationTicks": 227
        },
        {
          "time": 53.75,
          "midi": 81,
          "name": "A5",
          "velocity": 0.7559055118110236,
          "duration": 0.23645833333333144,
          "ticks": 51600,
          "durationTicks": 227
        },
        {
          "time": 54,
          "midi": 79,
          "name": "G5",
          "velocity": 0.7559055118110236,
          "duration": 0.23645833333333144,
          "ticks": 51840,
          "durationTicks": 227
        },
        {
          "time": 54.25,
          "midi": 79,
          "name": "G5",
          "velocity": 0.7559055118110236,
          "duration": 0.11770833333333286,
          "ticks": 52080,
          "durationTicks": 113
        },
        {
          "time": 54.375,
          "midi": 79,
          "name": "G5",
          "velocity": 0.7559055118110236,
          "duration": 0.11770833333333286,
          "ticks": 52200,
          "durationTicks": 113
        },
        {
          "time": 54.5,
          "midi": 85,
          "name": "C#6",
          "velocity": 0.7559055118110236,
          "duration": 0.23645833333333144,
          "ticks": 52320,
          "durationTicks": 227
        },
        {
          "time": 54.75,
          "midi": 85,
          "name": "C#6",
          "velocity": 0.7559055118110236,
          "duration": 0.23645833333333144,
          "ticks": 52560,
          "durationTicks": 227
        },
        {
          "time": 55,
          "midi": 86,
          "name": "D6",
          "velocity": 0.7559055118110236,
          "duration": 0.4739583333333357,
          "ticks": 52800,
          "durationTicks": 455
        },
        {
          "time": 56,
          "midi": 91,
          "name": "G6",
          "velocity": 0.7559055118110236,
          "duration": 0.24895833333333428,
          "ticks": 53760,
          "durationTicks": 239
        },
        {
          "time": 56.25,
          "midi": 90,
          "name": "F#6",
          "velocity": 0.7559055118110236,
          "duration": 0.24895833333333428,
          "ticks": 54000,
          "durationTicks": 239
        },
        {
          "time": 56.5,
          "midi": 88,
          "name": "E6",
          "velocity": 0.7559055118110236,
          "duration": 0.24895833333333428,
          "ticks": 54240,
          "durationTicks": 239
        },
        {
          "time": 56.75,
          "midi": 86,
          "name": "D6",
          "velocity": 0.7559055118110236,
          "duration": 0.24895833333333428,
          "ticks": 54480,
          "durationTicks": 239
        },
        {
          "time": 57,
          "midi": 84,
          "name": "C6",
          "velocity": 0.7559055118110236,
          "duration": 0.24895833333333428,
          "ticks": 54720,
          "durationTicks": 239
        },
        {
          "time": 57.25,
          "midi": 83,
          "name": "B5",
          "velocity": 0.7559055118110236,
          "duration": 0.24895833333333428,
          "ticks": 54960,
          "durationTicks": 239
        },
        {
          "time": 57.5,
          "midi": 81,
          "name": "A5",
          "velocity": 0.7559055118110236,
          "duration": 0.24895833333333428,
          "ticks": 55200,
          "durationTicks": 239
        },
        {
          "time": 57.75,
          "midi": 79,
          "name": "G5",
          "velocity": 0.7559055118110236,
          "duration": 0.23645833333333144,
          "ticks": 55440,
          "durationTicks": 227
        },
        {
          "time": 58,
          "midi": 90,
          "name": "F#6",
          "velocity": 0.7559055118110236,
          "duration": 0.24895833333333428,
          "ticks": 55680,
          "durationTicks": 239
        },
        {
          "time": 58.25,
          "midi": 88,
          "name": "E6",
          "velocity": 0.7559055118110236,
          "duration": 0.24895833333333428,
          "ticks": 55920,
          "durationTicks": 239
        },
        {
          "time": 58.5,
          "midi": 86,
          "name": "D6",
          "velocity": 0.7559055118110236,
          "duration": 0.24895833333333428,
          "ticks": 56160,
          "durationTicks": 239
        },
        {
          "time": 58.75,
          "midi": 84,
          "name": "C6",
          "velocity": 0.7559055118110236,
          "duration": 0.24895833333333428,
          "ticks": 56400,
          "durationTicks": 239
        },
        {
          "time": 59,
          "midi": 83,
          "name": "B5",
          "velocity": 0.7559055118110236,
          "duration": 0.24895833333333428,
          "ticks": 56640,
          "durationTicks": 239
        },
        {
          "time": 59.25,
          "midi": 81,
          "name": "A5",
          "velocity": 0.7559055118110236,
          "duration": 0.24895833333333428,
          "ticks": 56880,
          "durationTicks": 239
        },
        {
          "time": 59.5,
          "midi": 79,
          "name": "G5",
          "velocity": 0.7559055118110236,
          "duration": 0.24895833333333428,
          "ticks": 57120,
          "durationTicks": 239
        },
        {
          "time": 59.75,
          "midi": 78,
          "name": "F#5",
          "velocity": 0.7559055118110236,
          "duration": 0.23645833333333144,
          "ticks": 57360,
          "durationTicks": 227
        },
        {
          "time": 60,
          "midi": 79,
          "name": "G5",
          "velocity": 0.7559055118110236,
          "duration": 0.4739583333333357,
          "ticks": 57600,
          "durationTicks": 455
        },
        {
          "time": 60.5,
          "midi": 79,
          "name": "G5",
          "velocity": 0.7559055118110236,
          "duration": 0.4739583333333357,
          "ticks": 58080,
          "durationTicks": 455
        },
        {
          "time": 61,
          "midi": 81,
          "name": "A5",
          "velocity": 0.7559055118110236,
          "duration": 0.4739583333333357,
          "ticks": 58560,
          "durationTicks": 455
        },
        {
          "time": 61.5,
          "midi": 83,
          "name": "B5",
          "velocity": 0.7559055118110236,
          "duration": 0.4739583333333357,
          "ticks": 59040,
          "durationTicks": 455
        },
        {
          "time": 62,
          "midi": 81,
          "name": "A5",
          "velocity": 0.7559055118110236,
          "duration": 0.7114583333333329,
          "ticks": 59520,
          "durationTicks": 683
        },
        {
          "time": 62.75,
          "midi": 79,
          "name": "G5",
          "velocity": 0.7559055118110236,
          "duration": 0.23645833333333144,
          "ticks": 60240,
          "durationTicks": 227
        },
        {
          "time": 63,
          "midi": 79,
          "name": "G5",
          "velocity": 0.7559055118110236,
          "duration": 0.94895833333333,
          "ticks": 60480,
          "durationTicks": 911
        },
        {
          "time": 80,
          "midi": 81,
          "name": "A5",
          "velocity": 0.7559055118110236,
          "duration": 0.23645833333333144,
          "ticks": 76800,
          "durationTicks": 227
        },
        {
          "time": 80.25,
          "midi": 81,
          "name": "A5",
          "velocity": 0.7559055118110236,
          "duration": 0.11770833333333997,
          "ticks": 77040,
          "durationTicks": 113
        },
        {
          "time": 80.375,
          "midi": 81,
          "name": "A5",
          "velocity": 0.7559055118110236,
          "duration": 0.11770833333333997,
          "ticks": 77160,
          "durationTicks": 113
        },
        {
          "time": 80.5,
          "midi": 81,
          "name": "A5",
          "velocity": 0.7559055118110236,
          "duration": 0.23645833333333144,
          "ticks": 77280,
          "durationTicks": 227
        },
        {
          "time": 80.75,
          "midi": 81,
          "name": "A5",
          "velocity": 0.7559055118110236,
          "duration": 0.23645833333333144,
          "ticks": 77520,
          "durationTicks": 227
        },
        {
          "time": 81,
          "midi": 83,
          "name": "B5",
          "velocity": 0.7559055118110236,
          "duration": 0.4739583333333286,
          "ticks": 77760,
          "durationTicks": 455
        },
        {
          "time": 81.5,
          "midi": 79,
          "name": "G5",
          "velocity": 0.7559055118110236,
          "duration": 0.4739583333333286,
          "ticks": 78240,
          "durationTicks": 455
        },
        {
          "time": 82,
          "midi": 81,
          "name": "A5",
          "velocity": 0.7559055118110236,
          "duration": 0.23645833333333144,
          "ticks": 78720,
          "durationTicks": 227
        },
        {
          "time": 82.25,
          "midi": 81,
          "name": "A5",
          "velocity": 0.7559055118110236,
          "duration": 0.11770833333333997,
          "ticks": 78960,
          "durationTicks": 113
        },
        {
          "time": 82.375,
          "midi": 81,
          "name": "A5",
          "velocity": 0.7559055118110236,
          "duration": 0.11770833333333997,
          "ticks": 79080,
          "durationTicks": 113
        },
        {
          "time": 82.5,
          "midi": 83,
          "name": "B5",
          "velocity": 0.7559055118110236,
          "duration": 0.23645833333333144,
          "ticks": 79200,
          "durationTicks": 227
        },
        {
          "time": 82.75,
          "midi": 84,
          "name": "C6",
          "velocity": 0.7559055118110236,
          "duration": 0.23645833333333144,
          "ticks": 79440,
          "durationTicks": 227
        },
        {
          "time": 83,
          "midi": 83,
          "name": "B5",
          "velocity": 0.7559055118110236,
          "duration": 0.4739583333333286,
          "ticks": 79680,
          "durationTicks": 455
        },
        {
          "time": 83.5,
          "midi": 79,
          "name": "G5",
          "velocity": 0.7559055118110236,
          "duration": 0.4739583333333286,
          "ticks": 80160,
          "durationTicks": 455
        },
        {
          "time": 84,
          "midi": 81,
          "name": "A5",
          "velocity": 0.7559055118110236,
          "duration": 0.23645833333333144,
          "ticks": 80640,
          "durationTicks": 227
        },
        {
          "time": 84.25,
          "midi": 81,
          "name": "A5",
          "velocity": 0.7559055118110236,
          "duration": 0.11770833333333997,
          "ticks": 80880,
          "durationTicks": 113
        },
        {
          "time": 84.375,
          "midi": 81,
          "name": "A5",
          "velocity": 0.7559055118110236,
          "duration": 0.11770833333333997,
          "ticks": 81000,
          "durationTicks": 113
        },
        {
          "time": 84.5,
          "midi": 83,
          "name": "B5",
          "velocity": 0.7559055118110236,
          "duration": 0.23645833333333144,
          "ticks": 81120,
          "durationTicks": 227
        },
        {
          "time": 84.75,
          "midi": 84,
          "name": "C6",
          "velocity": 0.7559055118110236,
          "duration": 0.23645833333333144,
          "ticks": 81360,
          "durationTicks": 227
        },
        {
          "time": 85,
          "midi": 83,
          "name": "B5",
          "velocity": 0.7559055118110236,
          "duration": 0.23645833333333144,
          "ticks": 81600,
          "durationTicks": 227
        },
        {
          "time": 85.25,
          "midi": 83,
          "name": "B5",
          "velocity": 0.7559055118110236,
          "duration": 0.11770833333333997,
          "ticks": 81840,
          "durationTicks": 113
        },
        {
          "time": 85.375,
          "midi": 83,
          "name": "B5",
          "velocity": 0.7559055118110236,
          "duration": 0.11770833333333997,
          "ticks": 81960,
          "durationTicks": 113
        },
        {
          "time": 85.5,
          "midi": 81,
          "name": "A5",
          "velocity": 0.7559055118110236,
          "duration": 0.23645833333333144,
          "ticks": 82080,
          "durationTicks": 227
        },
        {
          "time": 85.75,
          "midi": 81,
          "name": "A5",
          "velocity": 0.7559055118110236,
          "duration": 0.23645833333333144,
          "ticks": 82320,
          "durationTicks": 227
        },
        {
          "time": 86,
          "midi": 79,
          "name": "G5",
          "velocity": 0.7559055118110236,
          "duration": 0.23645833333333144,
          "ticks": 82560,
          "durationTicks": 227
        },
        {
          "time": 86.25,
          "midi": 79,
          "name": "G5",
          "velocity": 0.7559055118110236,
          "duration": 0.11770833333333997,
          "ticks": 82800,
          "durationTicks": 113
        },
        {
          "time": 86.375,
          "midi": 79,
          "name": "G5",
          "velocity": 0.7559055118110236,
          "duration": 0.11770833333333997,
          "ticks": 82920,
          "durationTicks": 113
        },
        {
          "time": 86.5,
          "midi": 85,
          "name": "C#6",
          "velocity": 0.7559055118110236,
          "duration": 0.23645833333333144,
          "ticks": 83040,
          "durationTicks": 227
        },
        {
          "time": 86.75,
          "midi": 85,
          "name": "C#6",
          "velocity": 0.7559055118110236,
          "duration": 0.23645833333333144,
          "ticks": 83280,
          "durationTicks": 227
        },
        {
          "time": 87,
          "midi": 86,
          "name": "D6",
          "velocity": 0.7559055118110236,
          "duration": 0.4739583333333286,
          "ticks": 83520,
          "durationTicks": 455
        },
        {
          "time": 88,
          "midi": 91,
          "name": "G6",
          "velocity": 0.7559055118110236,
          "duration": 0.24895833333333428,
          "ticks": 84480,
          "durationTicks": 239
        },
        {
          "time": 88.25,
          "midi": 90,
          "name": "F#6",
          "velocity": 0.7559055118110236,
          "duration": 0.24895833333333428,
          "ticks": 84720,
          "durationTicks": 239
        },
        {
          "time": 88.5,
          "midi": 88,
          "name": "E6",
          "velocity": 0.7559055118110236,
          "duration": 0.24895833333333428,
          "ticks": 84960,
          "durationTicks": 239
        },
        {
          "time": 88.75,
          "midi": 86,
          "name": "D6",
          "velocity": 0.7559055118110236,
          "duration": 0.24895833333333428,
          "ticks": 85200,
          "durationTicks": 239
        },
        {
          "time": 89,
          "midi": 84,
          "name": "C6",
          "velocity": 0.7559055118110236,
          "duration": 0.24895833333333428,
          "ticks": 85440,
          "durationTicks": 239
        },
        {
          "time": 89.25,
          "midi": 83,
          "name": "B5",
          "velocity": 0.7559055118110236,
          "duration": 0.24895833333333428,
          "ticks": 85680,
          "durationTicks": 239
        },
        {
          "time": 89.5,
          "midi": 81,
          "name": "A5",
          "velocity": 0.7559055118110236,
          "duration": 0.24895833333333428,
          "ticks": 85920,
          "durationTicks": 239
        },
        {
          "time": 89.75,
          "midi": 79,
          "name": "G5",
          "velocity": 0.7559055118110236,
          "duration": 0.23645833333333144,
          "ticks": 86160,
          "durationTicks": 227
        },
        {
          "time": 90,
          "midi": 90,
          "name": "F#6",
          "velocity": 0.7559055118110236,
          "duration": 0.24895833333333428,
          "ticks": 86400,
          "durationTicks": 239
        },
        {
          "time": 90.25,
          "midi": 88,
          "name": "E6",
          "velocity": 0.7559055118110236,
          "duration": 0.24895833333333428,
          "ticks": 86640,
          "durationTicks": 239
        },
        {
          "time": 90.5,
          "midi": 86,
          "name": "D6",
          "velocity": 0.7559055118110236,
          "duration": 0.24895833333333428,
          "ticks": 86880,
          "durationTicks": 239
        },
        {
          "time": 90.75,
          "midi": 84,
          "name": "C6",
          "velocity": 0.7559055118110236,
          "duration": 0.24895833333333428,
          "ticks": 87120,
          "durationTicks": 239
        },
        {
          "time": 91,
          "midi": 83,
          "name": "B5",
          "velocity": 0.7559055118110236,
          "duration": 0.24895833333333428,
          "ticks": 87360,
          "durationTicks": 239
        },
        {
          "time": 91.25,
          "midi": 81,
          "name": "A5",
          "velocity": 0.7559055118110236,
          "duration": 0.24895833333333428,
          "ticks": 87600,
          "durationTicks": 239
        },
        {
          "time": 91.5,
          "midi": 79,
          "name": "G5",
          "velocity": 0.7559055118110236,
          "duration": 0.24895833333333428,
          "ticks": 87840,
          "durationTicks": 239
        },
        {
          "time": 91.75,
          "midi": 78,
          "name": "F#5",
          "velocity": 0.7559055118110236,
          "duration": 0.23645833333333144,
          "ticks": 88080,
          "durationTicks": 227
        },
        {
          "time": 92,
          "midi": 79,
          "name": "G5",
          "velocity": 0.7559055118110236,
          "duration": 0.4739583333333286,
          "ticks": 88320,
          "durationTicks": 455
        },
        {
          "time": 92.5,
          "midi": 79,
          "name": "G5",
          "velocity": 0.7559055118110236,
          "duration": 0.4739583333333286,
          "ticks": 88800,
          "durationTicks": 455
        },
        {
          "time": 93,
          "midi": 81,
          "name": "A5",
          "velocity": 0.7559055118110236,
          "duration": 0.4739583333333286,
          "ticks": 89280,
          "durationTicks": 455
        },
        {
          "time": 93.5,
          "midi": 83,
          "name": "B5",
          "velocity": 0.7559055118110236,
          "duration": 0.4739583333333286,
          "ticks": 89760,
          "durationTicks": 455
        },
        {
          "time": 94,
          "midi": 81,
          "name": "A5",
          "velocity": 0.7559055118110236,
          "duration": 0.71145833333334,
          "ticks": 90240,
          "durationTicks": 683
        },
        {
          "time": 94.75,
          "midi": 79,
          "name": "G5",
          "velocity": 0.7559055118110236,
          "duration": 0.23645833333333144,
          "ticks": 90960,
          "durationTicks": 227
        },
        {
          "time": 95,
          "midi": 79,
          "name": "G5",
          "velocity": 0.7559055118110236,
          "duration": 0.9489583333333371,
          "ticks": 91200,
          "durationTicks": 911
        },
        {
          "time": 96,
          "midi": 86,
          "name": "D6",
          "velocity": 0.5039370078740157,
          "duration": 0.4739583333333286,
          "ticks": 92160,
          "durationTicks": 455
        },
        {
          "time": 96.5,
          "midi": 83,
          "name": "B5",
          "velocity": 0.5039370078740157,
          "duration": 0.4739583333333286,
          "ticks": 92640,
          "durationTicks": 455
        },
        {
          "time": 97,
          "midi": 81,
          "name": "A5",
          "velocity": 0.5039370078740157,
          "duration": 0.4739583333333286,
          "ticks": 93120,
          "durationTicks": 455
        },
        {
          "time": 97.5,
          "midi": 79,
          "name": "G5",
          "velocity": 0.5039370078740157,
          "duration": 0.4739583333333286,
          "ticks": 93600,
          "durationTicks": 455
        },
        {
          "time": 100,
          "midi": 79,
          "name": "G5",
          "velocity": 0.5039370078740157,
          "duration": 0.4739583333333286,
          "ticks": 96000,
          "durationTicks": 455
        },
        {
          "time": 100.5,
          "midi": 79,
          "name": "G5",
          "velocity": 0.5039370078740157,
          "duration": 0.4739583333333286,
          "ticks": 96480,
          "durationTicks": 455
        },
        {
          "time": 101,
          "midi": 81,
          "name": "A5",
          "velocity": 0.5039370078740157,
          "duration": 0.4739583333333286,
          "ticks": 96960,
          "durationTicks": 455
        },
        {
          "time": 101.5,
          "midi": 83,
          "name": "B5",
          "velocity": 0.5039370078740157,
          "duration": 0.4739583333333286,
          "ticks": 97440,
          "durationTicks": 455
        },
        {
          "time": 102,
          "midi": 81,
          "name": "A5",
          "velocity": 0.5039370078740157,
          "duration": 0.71145833333334,
          "ticks": 97920,
          "durationTicks": 683
        },
        {
          "time": 102.75,
          "midi": 79,
          "name": "G5",
          "velocity": 0.5039370078740157,
          "duration": 0.23645833333333144,
          "ticks": 98640,
          "durationTicks": 227
        },
        {
          "time": 103,
          "midi": 79,
          "name": "G5",
          "velocity": 0.5039370078740157,
          "duration": 0.9489583333333371,
          "ticks": 98880,
          "durationTicks": 911
        }
      ],
      "controlChanges": {
        "7": [
          {
            "number": 7,
            "value": 0.7874015748031497,
            "time": 0,
            "ticks": 0
          }
        ],
        "10": [
          {
            "number": 10,
            "value": 0.5039370078740157,
            "time": 0,
            "ticks": 0
          }
        ],
        "91": [
          {
            "number": 91,
            "value": 0,
            "time": 0,
            "ticks": 0
          }
        ],
        "93": [
          {
            "number": 93,
            "value": 0,
            "time": 0,
            "ticks": 0
          }
        ],
        "121": [
          {
            "number": 121,
            "value": 0,
            "time": 0,
            "ticks": 0
          }
        ]
      }
    },
    {
      "name": "Oboe",
      "channel": 0,
      "instrument": {
        "number": 68,
        "name": "oboe",
        "family": "reed"
      },
      "notes": [
        {
          "time": 0,
          "midi": 71,
          "name": "B4",
          "velocity": 0.6299212598425197,
          "duration": 0.49895833333333334,
          "ticks": 0,
          "durationTicks": 479
        },
        {
          "time": 0.5,
          "midi": 71,
          "name": "B4",
          "velocity": 0.6299212598425197,
          "duration": 0.24895833333333328,
          "ticks": 480,
          "durationTicks": 239
        },
        {
          "time": 0.75,
          "midi": 71,
          "name": "B4",
          "velocity": 0.6299212598425197,
          "duration": 0.24895833333333328,
          "ticks": 720,
          "durationTicks": 239
        },
        {
          "time": 1,
          "midi": 72,
          "name": "C5",
          "velocity": 0.6299212598425197,
          "duration": 0.4989583333333334,
          "ticks": 960,
          "durationTicks": 479
        },
        {
          "time": 1.5,
          "midi": 74,
          "name": "D5",
          "velocity": 0.6299212598425197,
          "duration": 0.4989583333333334,
          "ticks": 1440,
          "durationTicks": 479
        },
        {
          "time": 2,
          "midi": 74,
          "name": "D5",
          "velocity": 0.6299212598425197,
          "duration": 0.2489583333333334,
          "ticks": 1920,
          "durationTicks": 239
        },
        {
          "time": 2.25,
          "midi": 74,
          "name": "D5",
          "velocity": 0.6299212598425197,
          "duration": 0.2489583333333334,
          "ticks": 2160,
          "durationTicks": 239
        },
        {
          "time": 2.5,
          "midi": 72,
          "name": "C5",
          "velocity": 0.6299212598425197,
          "duration": 0.4989583333333334,
          "ticks": 2400,
          "durationTicks": 479
        },
        {
          "time": 3,
          "midi": 71,
          "name": "B4",
          "velocity": 0.6299212598425197,
          "duration": 0.4989583333333334,
          "ticks": 2880,
          "durationTicks": 479
        },
        {
          "time": 3.5,
          "midi": 69,
          "name": "A4",
          "velocity": 0.6299212598425197,
          "duration": 0.2489583333333334,
          "ticks": 3360,
          "durationTicks": 239
        },
        {
          "time": 3.75,
          "midi": 69,
          "name": "A4",
          "velocity": 0.6299212598425197,
          "duration": 0.2489583333333334,
          "ticks": 3600,
          "durationTicks": 239
        },
        {
          "time": 4,
          "midi": 67,
          "name": "G4",
          "velocity": 0.6299212598425197,
          "duration": 0.4989583333333334,
          "ticks": 3840,
          "durationTicks": 479
        },
        {
          "time": 4.5,
          "midi": 67,
          "name": "G4",
          "velocity": 0.6299212598425197,
          "duration": 0.2489583333333334,
          "ticks": 4320,
          "durationTicks": 239
        },
        {
          "time": 4.75,
          "midi": 67,
          "name": "G4",
          "velocity": 0.6299212598425197,
          "duration": 0.2489583333333334,
          "ticks": 4560,
          "durationTicks": 239
        },
        {
          "time": 5,
          "midi": 69,
          "name": "A4",
          "velocity": 0.6299212598425197,
          "duration": 0.4989583333333334,
          "ticks": 4800,
          "durationTicks": 479
        },
        {
          "time": 5.5,
          "midi": 71,
          "name": "B4",
          "velocity": 0.6299212598425197,
          "duration": 0.4989583333333334,
          "ticks": 5280,
          "durationTicks": 479
        },
        {
          "time": 6,
          "midi": 71,
          "name": "B4",
          "velocity": 0.6299212598425197,
          "duration": 0.7489583333333334,
          "ticks": 5760,
          "durationTicks": 719
        },
        {
          "time": 6.75,
          "midi": 69,
          "name": "A4",
          "velocity": 0.6299212598425197,
          "duration": 0.2489583333333334,
          "ticks": 6480,
          "durationTicks": 239
        },
        {
          "time": 7,
          "midi": 69,
          "name": "A4",
          "velocity": 0.6299212598425197,
          "duration": 0.9989583333333334,
          "ticks": 6720,
          "durationTicks": 959
        },
        {
          "time": 8,
          "midi": 71,
          "name": "B4",
          "velocity": 0.6299212598425197,
          "duration": 0.4989583333333325,
          "ticks": 7680,
          "durationTicks": 479
        },
        {
          "time": 8.5,
          "midi": 71,
          "name": "B4",
          "velocity": 0.6299212598425197,
          "duration": 0.2489583333333325,
          "ticks": 8160,
          "durationTicks": 239
        },
        {
          "time": 8.75,
          "midi": 71,
          "name": "B4",
          "velocity": 0.6299212598425197,
          "duration": 0.2489583333333325,
          "ticks": 8400,
          "durationTicks": 239
        },
        {
          "time": 9,
          "midi": 72,
          "name": "C5",
          "velocity": 0.6299212598425197,
          "duration": 0.4989583333333325,
          "ticks": 8640,
          "durationTicks": 479
        },
        {
          "time": 9.5,
          "midi": 74,
          "name": "D5",
          "velocity": 0.6299212598425197,
          "duration": 0.4989583333333325,
          "ticks": 9120,
          "durationTicks": 479
        },
        {
          "time": 10,
          "midi": 74,
          "name": "D5",
          "velocity": 0.6299212598425197,
          "duration": 0.2489583333333325,
          "ticks": 9600,
          "durationTicks": 239
        },
        {
          "time": 10.25,
          "midi": 74,
          "name": "D5",
          "velocity": 0.6299212598425197,
          "duration": 0.2489583333333325,
          "ticks": 9840,
          "durationTicks": 239
        },
        {
          "time": 10.5,
          "midi": 72,
          "name": "C5",
          "velocity": 0.6299212598425197,
          "duration": 0.4989583333333325,
          "ticks": 10080,
          "durationTicks": 479
        },
        {
          "time": 11,
          "midi": 71,
          "name": "B4",
          "velocity": 0.6299212598425197,
          "duration": 0.4989583333333325,
          "ticks": 10560,
          "durationTicks": 479
        },
        {
          "time": 11.5,
          "midi": 72,
          "name": "C5",
          "velocity": 0.6299212598425197,
          "duration": 0.2489583333333325,
          "ticks": 11040,
          "durationTicks": 239
        },
        {
          "time": 11.75,
          "midi": 69,
          "name": "A4",
          "velocity": 0.6299212598425197,
          "duration": 0.2489583333333325,
          "ticks": 11280,
          "durationTicks": 239
        },
        {
          "time": 12,
          "midi": 67,
          "name": "G4",
          "velocity": 0.6299212598425197,
          "duration": 0.4989583333333325,
          "ticks": 11520,
          "durationTicks": 479
        },
        {
          "time": 12.5,
          "midi": 67,
          "name": "G4",
          "velocity": 0.6299212598425197,
          "duration": 0.2489583333333325,
          "ticks": 12000,
          "durationTicks": 239
        },
        {
          "time": 12.75,
          "midi": 67,
          "name": "G4",
          "velocity": 0.6299212598425197,
          "duration": 0.2489583333333325,
          "ticks": 12240,
          "durationTicks": 239
        },
        {
          "time": 13,
          "midi": 69,
          "name": "A4",
          "velocity": 0.6299212598425197,
          "duration": 0.4989583333333325,
          "ticks": 12480,
          "durationTicks": 479
        },
        {
          "time": 13.5,
          "midi": 71,
          "name": "B4",
          "velocity": 0.6299212598425197,
          "duration": 0.4989583333333325,
          "ticks": 12960,
          "durationTicks": 479
        },
        {
          "time": 14,
          "midi": 69,
          "name": "A4",
          "velocity": 0.6299212598425197,
          "duration": 0.7489583333333325,
          "ticks": 13440,
          "durationTicks": 719
        },
        {
          "time": 14.75,
          "midi": 67,
          "name": "G4",
          "velocity": 0.6299212598425197,
          "duration": 0.2489583333333325,
          "ticks": 14160,
          "durationTicks": 239
        },
        {
          "time": 15,
          "midi": 67,
          "name": "G4",
          "velocity": 0.6299212598425197,
          "duration": 0.9989583333333325,
          "ticks": 14400,
          "durationTicks": 959
        },
        {
          "time": 16,
          "midi": 69,
          "name": "A4",
          "velocity": 0.7559055118110236,
          "duration": 0.24895833333333428,
          "ticks": 15360,
          "durationTicks": 239
        },
        {
          "time": 16.25,
          "midi": 69,
          "name": "A4",
          "velocity": 0.7559055118110236,
          "duration": 0.12395833333333428,
          "ticks": 15600,
          "durationTicks": 119
        },
        {
          "time": 16.375,
          "midi": 69,
          "name": "A4",
          "velocity": 0.7559055118110236,
          "duration": 0.12395833333333428,
          "ticks": 15720,
          "durationTicks": 119
        },
        {
          "time": 16.5,
          "midi": 69,
          "name": "A4",
          "velocity": 0.7559055118110236,
          "duration": 0.24895833333333428,
          "ticks": 15840,
          "durationTicks": 239
        },
        {
          "time": 16.75,
          "midi": 69,
          "name": "A4",
          "velocity": 0.7559055118110236,
          "duration": 0.24895833333333428,
          "ticks": 16080,
          "durationTicks": 239
        },
        {
          "time": 17,
          "midi": 71,
          "name": "B4",
          "velocity": 0.7559055118110236,
          "duration": 0.4989583333333343,
          "ticks": 16320,
          "durationTicks": 479
        },
        {
          "time": 17.5,
          "midi": 67,
          "name": "G4",
          "velocity": 0.7559055118110236,
          "duration": 0.4989583333333343,
          "ticks": 16800,
          "durationTicks": 479
        },
        {
          "time": 18,
          "midi": 69,
          "name": "A4",
          "velocity": 0.7559055118110236,
          "duration": 0.24895833333333428,
          "ticks": 17280,
          "durationTicks": 239
        },
        {
          "time": 18.25,
          "midi": 69,
          "name": "A4",
          "velocity": 0.7559055118110236,
          "duration": 0.12395833333333428,
          "ticks": 17520,
          "durationTicks": 119
        },
        {
          "time": 18.375,
          "midi": 69,
          "name": "A4",
          "velocity": 0.7559055118110236,
          "duration": 0.12395833333333428,
          "ticks": 17640,
          "durationTicks": 119
        },
        {
          "time": 18.5,
          "midi": 71,
          "name": "B4",
          "velocity": 0.7559055118110236,
          "duration": 0.24895833333333428,
          "ticks": 17760,
          "durationTicks": 239
        },
        {
          "time": 18.75,
          "midi": 72,
          "name": "C5",
          "velocity": 0.7559055118110236,
          "duration": 0.24895833333333428,
          "ticks": 18000,
          "durationTicks": 239
        },
        {
          "time": 19,
          "midi": 71,
          "name": "B4",
          "velocity": 0.7559055118110236,
          "duration": 0.4989583333333343,
          "ticks": 18240,
          "durationTicks": 479
        },
        {
          "time": 19.5,
          "midi": 67,
          "name": "G4",
          "velocity": 0.7559055118110236,
          "duration": 0.4989583333333343,
          "ticks": 18720,
          "durationTicks": 479
        },
        {
          "time": 20,
          "midi": 69,
          "name": "A4",
          "velocity": 0.7559055118110236,
          "duration": 0.24895833333333428,
          "ticks": 19200,
          "durationTicks": 239
        },
        {
          "time": 20.25,
          "midi": 69,
          "name": "A4",
          "velocity": 0.7559055118110236,
          "duration": 0.12395833333333428,
          "ticks": 19440,
          "durationTicks": 119
        },
        {
          "time": 20.375,
          "midi": 69,
          "name": "A4",
          "velocity": 0.7559055118110236,
          "duration": 0.12395833333333428,
          "ticks": 19560,
          "durationTicks": 119
        },
        {
          "time": 20.5,
          "midi": 71,
          "name": "B4",
          "velocity": 0.7559055118110236,
          "duration": 0.24895833333333428,
          "ticks": 19680,
          "durationTicks": 239
        },
        {
          "time": 20.75,
          "midi": 72,
          "name": "C5",
          "velocity": 0.7559055118110236,
          "duration": 0.24895833333333428,
          "ticks": 19920,
          "durationTicks": 239
        },
        {
          "time": 21,
          "midi": 71,
          "name": "B4",
          "velocity": 0.7559055118110236,
          "duration": 0.24895833333333428,
          "ticks": 20160,
          "durationTicks": 239
        },
        {
          "time": 21.25,
          "midi": 71,
          "name": "B4",
          "velocity": 0.7559055118110236,
          "duration": 0.12395833333333428,
          "ticks": 20400,
          "durationTicks": 119
        },
        {
          "time": 21.375,
          "midi": 71,
          "name": "B4",
          "velocity": 0.7559055118110236,
          "duration": 0.12395833333333428,
          "ticks": 20520,
          "durationTicks": 119
        },
        {
          "time": 21.5,
          "midi": 69,
          "name": "A4",
          "velocity": 0.7559055118110236,
          "duration": 0.24895833333333428,
          "ticks": 20640,
          "durationTicks": 239
        },
        {
          "time": 21.75,
          "midi": 69,
          "name": "A4",
          "velocity": 0.7559055118110236,
          "duration": 0.24895833333333428,
          "ticks": 20880,
          "durationTicks": 239
        },
        {
          "time": 22,
          "midi": 67,
          "name": "G4",
          "velocity": 0.7559055118110236,
          "duration": 0.24895833333333428,
          "ticks": 21120,
          "durationTicks": 239
        },
        {
          "time": 22.25,
          "midi": 67,
          "name": "G4",
          "velocity": 0.7559055118110236,
          "duration": 0.12395833333333428,
          "ticks": 21360,
          "durationTicks": 119
        },
        {
          "time": 22.375,
          "midi": 67,
          "name": "G4",
          "velocity": 0.7559055118110236,
          "duration": 0.12395833333333428,
          "ticks": 21480,
          "durationTicks": 119
        },
        {
          "time": 22.5,
          "midi": 73,
          "name": "C#5",
          "velocity": 0.7559055118110236,
          "duration": 0.24895833333333428,
          "ticks": 21600,
          "durationTicks": 239
        },
        {
          "time": 22.75,
          "midi": 73,
          "name": "C#5",
          "velocity": 0.7559055118110236,
          "duration": 0.24895833333333428,
          "ticks": 21840,
          "durationTicks": 239
        },
        {
          "time": 23,
          "midi": 74,
          "name": "D5",
          "velocity": 0.7559055118110236,
          "duration": 0.4989583333333343,
          "ticks": 22080,
          "durationTicks": 479
        },
        {
          "time": 24,
          "midi": 71,
          "name": "B4",
          "velocity": 0.7559055118110236,
          "duration": 0.4989583333333343,
          "ticks": 23040,
          "durationTicks": 479
        },
        {
          "time": 24.5,
          "midi": 71,
          "name": "B4",
          "velocity": 0.7559055118110236,
          "duration": 0.4989583333333343,
          "ticks": 23520,
          "durationTicks": 479
        },
        {
          "time": 25,
          "midi": 72,
          "name": "C5",
          "velocity": 0.7559055118110236,
          "duration": 0.4989583333333343,
          "ticks": 24000,
          "durationTicks": 479
        },
        {
          "time": 25.5,
          "midi": 74,
          "name": "D5",
          "velocity": 0.7559055118110236,
          "duration": 0.4989583333333343,
          "ticks": 24480,
          "durationTicks": 479
        },
        {
          "time": 26,
          "midi": 74,
          "name": "D5",
          "velocity": 0.7559055118110236,
          "duration": 0.4989583333333343,
          "ticks": 24960,
          "durationTicks": 479
        },
        {
          "time": 26.5,
          "midi": 72,
          "name": "C5",
          "velocity": 0.7559055118110236,
          "duration": 0.4989583333333343,
          "ticks": 25440,
          "durationTicks": 479
        },
        {
          "time": 27,
          "midi": 71,
          "name": "B4",
          "velocity": 0.7559055118110236,
          "duration": 0.4989583333333343,
          "ticks": 25920,
          "durationTicks": 479
        },
        {
          "time": 27.5,
          "midi": 69,
          "name": "A4",
          "velocity": 0.7559055118110236,
          "duration": 0.4989583333333343,
          "ticks": 26400,
          "durationTicks": 479
        },
        {
          "time": 28,
          "midi": 67,
          "name": "G4",
          "velocity": 0.7559055118110236,
          "duration": 0.4989583333333343,
          "ticks": 26880,
          "durationTicks": 479
        },
        {
          "time": 28.5,
          "midi": 67,
          "name": "G4",
          "velocity": 0.7559055118110236,
          "duration": 0.4989583333333343,
          "ticks": 27360,
          "durationTicks": 479
        },
        {
          "time": 29,
          "midi": 69,
          "name": "A4",
          "velocity": 0.7559055118110236,
          "duration": 0.4989583333333343,
          "ticks": 27840,
          "durationTicks": 479
        },
        {
          "time": 29.5,
          "midi": 71,
          "name": "B4",
          "velocity": 0.7559055118110236,
          "duration": 0.4989583333333343,
          "ticks": 28320,
          "durationTicks": 479
        },
        {
          "time": 30,
          "midi": 69,
          "name": "A4",
          "velocity": 0.7559055118110236,
          "duration": 0.7489583333333343,
          "ticks": 28800,
          "durationTicks": 719
        },
        {
          "time": 30.75,
          "midi": 67,
          "name": "G4",
          "velocity": 0.7559055118110236,
          "duration": 0.24895833333333428,
          "ticks": 29520,
          "durationTicks": 239
        },
        {
          "time": 31,
          "midi": 67,
          "name": "G4",
          "velocity": 0.7559055118110236,
          "duration": 0.9989583333333343,
          "ticks": 29760,
          "durationTicks": 959
        },
        {
          "time": 48,
          "midi": 69,
          "name": "A4",
          "velocity": 0.7559055118110236,
          "duration": 0.24895833333333428,
          "ticks": 46080,
          "durationTicks": 239
        },
        {
          "time": 48.25,
          "midi": 69,
          "name": "A4",
          "velocity": 0.7559055118110236,
          "duration": 0.12395833333333428,
          "ticks": 46320,
          "durationTicks": 119
        },
        {
          "time": 48.375,
          "midi": 69,
          "name": "A4",
          "velocity": 0.7559055118110236,
          "duration": 0.12395833333333428,
          "ticks": 46440,
          "durationTicks": 119
        },
        {
          "time": 48.5,
          "midi": 69,
          "name": "A4",
          "velocity": 0.7559055118110236,
          "duration": 0.24895833333333428,
          "ticks": 46560,
          "durationTicks": 239
        },
        {
          "time": 48.75,
          "midi": 69,
          "name": "A4",
          "velocity": 0.7559055118110236,
          "duration": 0.24895833333333428,
          "ticks": 46800,
          "durationTicks": 239
        },
        {
          "time": 49,
          "midi": 71,
          "name": "B4",
          "velocity": 0.7559055118110236,
          "duration": 0.4989583333333343,
          "ticks": 47040,
          "durationTicks": 479
        },
        {
          "time": 49.5,
          "midi": 67,
          "name": "G4",
          "velocity": 0.7559055118110236,
          "duration": 0.4989583333333343,
          "ticks": 47520,
          "durationTicks": 479
        },
        {
          "time": 50,
          "midi": 69,
          "name": "A4",
          "velocity": 0.7559055118110236,
          "duration": 0.24895833333333428,
          "ticks": 48000,
          "durationTicks": 239
        },
        {
          "time": 50.25,
          "midi": 69,
          "name": "A4",
          "velocity": 0.7559055118110236,
          "duration": 0.12395833333333428,
          "ticks": 48240,
          "durationTicks": 119
        },
        {
          "time": 50.375,
          "midi": 69,
          "name": "A4",
          "velocity": 0.7559055118110236,
          "duration": 0.12395833333333428,
          "ticks": 48360,
          "durationTicks": 119
        },
        {
          "time": 50.5,
          "midi": 71,
          "name": "B4",
          "velocity": 0.7559055118110236,
          "duration": 0.24895833333333428,
          "ticks": 48480,
          "durationTicks": 239
        },
        {
          "time": 50.75,
          "midi": 72,
          "name": "C5",
          "velocity": 0.7559055118110236,
          "duration": 0.24895833333333428,
          "ticks": 48720,
          "durationTicks": 239
        },
        {
          "time": 51,
          "midi": 71,
          "name": "B4",
          "velocity": 0.7559055118110236,
          "duration": 0.4989583333333343,
          "ticks": 48960,
          "durationTicks": 479
        },
        {
          "time": 51.5,
          "midi": 67,
          "name": "G4",
          "velocity": 0.7559055118110236,
          "duration": 0.4989583333333343,
          "ticks": 49440,
          "durationTicks": 479
        },
        {
          "time": 52,
          "midi": 69,
          "name": "A4",
          "velocity": 0.7559055118110236,
          "duration": 0.24895833333333428,
          "ticks": 49920,
          "durationTicks": 239
        },
        {
          "time": 52.25,
          "midi": 69,
          "name": "A4",
          "velocity": 0.7559055118110236,
          "duration": 0.12395833333333428,
          "ticks": 50160,
          "durationTicks": 119
        },
        {
          "time": 52.375,
          "midi": 69,
          "name": "A4",
          "velocity": 0.7559055118110236,
          "duration": 0.12395833333333428,
          "ticks": 50280,
          "durationTicks": 119
        },
        {
          "time": 52.5,
          "midi": 71,
          "name": "B4",
          "velocity": 0.7559055118110236,
          "duration": 0.24895833333333428,
          "ticks": 50400,
          "durationTicks": 239
        },
        {
          "time": 52.75,
          "midi": 72,
          "name": "C5",
          "velocity": 0.7559055118110236,
          "duration": 0.24895833333333428,
          "ticks": 50640,
          "durationTicks": 239
        },
        {
          "time": 53,
          "midi": 71,
          "name": "B4",
          "velocity": 0.7559055118110236,
          "duration": 0.24895833333333428,
          "ticks": 50880,
          "durationTicks": 239
        },
        {
          "time": 53.25,
          "midi": 71,
          "name": "B4",
          "velocity": 0.7559055118110236,
          "duration": 0.12395833333333428,
          "ticks": 51120,
          "durationTicks": 119
        },
        {
          "time": 53.375,
          "midi": 71,
          "name": "B4",
          "velocity": 0.7559055118110236,
          "duration": 0.12395833333333428,
          "ticks": 51240,
          "durationTicks": 119
        },
        {
          "time": 53.5,
          "midi": 69,
          "name": "A4",
          "velocity": 0.7559055118110236,
          "duration": 0.24895833333333428,
          "ticks": 51360,
          "durationTicks": 239
        },
        {
          "time": 53.75,
          "midi": 69,
          "name": "A4",
          "velocity": 0.7559055118110236,
          "duration": 0.24895833333333428,
          "ticks": 51600,
          "durationTicks": 239
        },
        {
          "time": 54,
          "midi": 67,
          "name": "G4",
          "velocity": 0.7559055118110236,
          "duration": 0.24895833333333428,
          "ticks": 51840,
          "durationTicks": 239
        },
        {
          "time": 54.25,
          "midi": 67,
          "name": "G4",
          "velocity": 0.7559055118110236,
          "duration": 0.12395833333333428,
          "ticks": 52080,
          "durationTicks": 119
        },
        {
          "time": 54.375,
          "midi": 67,
          "name": "G4",
          "velocity": 0.7559055118110236,
          "duration": 0.12395833333333428,
          "ticks": 52200,
          "durationTicks": 119
        },
        {
          "time": 54.5,
          "midi": 73,
          "name": "C#5",
          "velocity": 0.7559055118110236,
          "duration": 0.24895833333333428,
          "ticks": 52320,
          "durationTicks": 239
        },
        {
          "time": 54.75,
          "midi": 73,
          "name": "C#5",
          "velocity": 0.7559055118110236,
          "duration": 0.24895833333333428,
          "ticks": 52560,
          "durationTicks": 239
        },
        {
          "time": 55,
          "midi": 74,
          "name": "D5",
          "velocity": 0.7559055118110236,
          "duration": 0.4989583333333343,
          "ticks": 52800,
          "durationTicks": 479
        },
        {
          "time": 56,
          "midi": 71,
          "name": "B4",
          "velocity": 0.7559055118110236,
          "duration": 0.4989583333333343,
          "ticks": 53760,
          "durationTicks": 479
        },
        {
          "time": 56.5,
          "midi": 71,
          "name": "B4",
          "velocity": 0.7559055118110236,
          "duration": 0.4989583333333343,
          "ticks": 54240,
          "durationTicks": 479
        },
        {
          "time": 57,
          "midi": 72,
          "name": "C5",
          "velocity": 0.7559055118110236,
          "duration": 0.4989583333333343,
          "ticks": 54720,
          "durationTicks": 479
        },
        {
          "time": 57.5,
          "midi": 74,
          "name": "D5",
          "velocity": 0.7559055118110236,
          "duration": 0.4989583333333343,
          "ticks": 55200,
          "durationTicks": 479
        },
        {
          "time": 58,
          "midi": 74,
          "name": "D5",
          "velocity": 0.7559055118110236,
          "duration": 0.4989583333333343,
          "ticks": 55680,
          "durationTicks": 479
        },
        {
          "time": 58.5,
          "midi": 72,
          "name": "C5",
          "velocity": 0.7559055118110236,
          "duration": 0.4989583333333343,
          "ticks": 56160,
          "durationTicks": 479
        },
        {
          "time": 59,
          "midi": 71,
          "name": "B4",
          "velocity": 0.7559055118110236,
          "duration": 0.4989583333333343,
          "ticks": 56640,
          "durationTicks": 479
        },
        {
          "time": 59.5,
          "midi": 69,
          "name": "A4",
          "velocity": 0.7559055118110236,
          "duration": 0.4989583333333343,
          "ticks": 57120,
          "durationTicks": 479
        },
        {
          "time": 60,
          "midi": 67,
          "name": "G4",
          "velocity": 0.7559055118110236,
          "duration": 0.4989583333333343,
          "ticks": 57600,
          "durationTicks": 479
        },
        {
          "time": 60.5,
          "midi": 67,
          "name": "G4",
          "velocity": 0.7559055118110236,
          "duration": 0.4989583333333343,
          "ticks": 58080,
          "durationTicks": 479
        },
        {
          "time": 61,
          "midi": 69,
          "name": "A4",
          "velocity": 0.7559055118110236,
          "duration": 0.4989583333333343,
          "ticks": 58560,
          "durationTicks": 479
        },
        {
          "time": 61.5,
          "midi": 71,
          "name": "B4",
          "velocity": 0.7559055118110236,
          "duration": 0.4989583333333343,
          "ticks": 59040,
          "durationTicks": 479
        },
        {
          "time": 62,
          "midi": 69,
          "name": "A4",
          "velocity": 0.7559055118110236,
          "duration": 0.7489583333333343,
          "ticks": 59520,
          "durationTicks": 719
        },
        {
          "time": 62.75,
          "midi": 67,
          "name": "G4",
          "velocity": 0.7559055118110236,
          "duration": 0.24895833333333428,
          "ticks": 60240,
          "durationTicks": 239
        },
        {
          "time": 63,
          "midi": 67,
          "name": "G4",
          "velocity": 0.7559055118110236,
          "duration": 0.9989583333333343,
          "ticks": 60480,
          "durationTicks": 959
        },
        {
          "time": 80,
          "midi": 69,
          "name": "A4",
          "velocity": 0.7559055118110236,
          "duration": 0.24895833333333428,
          "ticks": 76800,
          "durationTicks": 239
        },
        {
          "time": 80.25,
          "midi": 69,
          "name": "A4",
          "velocity": 0.7559055118110236,
          "duration": 0.12395833333333428,
          "ticks": 77040,
          "durationTicks": 119
        },
        {
          "time": 80.375,
          "midi": 69,
          "name": "A4",
          "velocity": 0.7559055118110236,
          "duration": 0.12395833333333428,
          "ticks": 77160,
          "durationTicks": 119
        },
        {
          "time": 80.5,
          "midi": 69,
          "name": "A4",
          "velocity": 0.7559055118110236,
          "duration": 0.24895833333333428,
          "ticks": 77280,
          "durationTicks": 239
        },
        {
          "time": 80.75,
          "midi": 69,
          "name": "A4",
          "velocity": 0.7559055118110236,
          "duration": 0.24895833333333428,
          "ticks": 77520,
          "durationTicks": 239
        },
        {
          "time": 81,
          "midi": 71,
          "name": "B4",
          "velocity": 0.7559055118110236,
          "duration": 0.4989583333333343,
          "ticks": 77760,
          "durationTicks": 479
        },
        {
          "time": 81.5,
          "midi": 67,
          "name": "G4",
          "velocity": 0.7559055118110236,
          "duration": 0.4989583333333343,
          "ticks": 78240,
          "durationTicks": 479
        },
        {
          "time": 82,
          "midi": 69,
          "name": "A4",
          "velocity": 0.7559055118110236,
          "duration": 0.24895833333333428,
          "ticks": 78720,
          "durationTicks": 239
        },
        {
          "time": 82.25,
          "midi": 69,
          "name": "A4",
          "velocity": 0.7559055118110236,
          "duration": 0.12395833333333428,
          "ticks": 78960,
          "durationTicks": 119
        },
        {
          "time": 82.375,
          "midi": 69,
          "name": "A4",
          "velocity": 0.7559055118110236,
          "duration": 0.12395833333333428,
          "ticks": 79080,
          "durationTicks": 119
        },
        {
          "time": 82.5,
          "midi": 71,
          "name": "B4",
          "velocity": 0.7559055118110236,
          "duration": 0.24895833333333428,
          "ticks": 79200,
          "durationTicks": 239
        },
        {
          "time": 82.75,
          "midi": 72,
          "name": "C5",
          "velocity": 0.7559055118110236,
          "duration": 0.24895833333333428,
          "ticks": 79440,
          "durationTicks": 239
        },
        {
          "time": 83,
          "midi": 71,
          "name": "B4",
          "velocity": 0.7559055118110236,
          "duration": 0.4989583333333343,
          "ticks": 79680,
          "durationTicks": 479
        },
        {
          "time": 83.5,
          "midi": 67,
          "name": "G4",
          "velocity": 0.7559055118110236,
          "duration": 0.4989583333333343,
          "ticks": 80160,
          "durationTicks": 479
        },
        {
          "time": 84,
          "midi": 69,
          "name": "A4",
          "velocity": 0.7559055118110236,
          "duration": 0.24895833333333428,
          "ticks": 80640,
          "durationTicks": 239
        },
        {
          "time": 84.25,
          "midi": 69,
          "name": "A4",
          "velocity": 0.7559055118110236,
          "duration": 0.12395833333333428,
          "ticks": 80880,
          "durationTicks": 119
        },
        {
          "time": 84.375,
          "midi": 69,
          "name": "A4",
          "velocity": 0.7559055118110236,
          "duration": 0.12395833333333428,
          "ticks": 81000,
          "durationTicks": 119
        },
        {
          "time": 84.5,
          "midi": 71,
          "name": "B4",
          "velocity": 0.7559055118110236,
          "duration": 0.24895833333333428,
          "ticks": 81120,
          "durationTicks": 239
        },
        {
          "time": 84.75,
          "midi": 72,
          "name": "C5",
          "velocity": 0.7559055118110236,
          "duration": 0.24895833333333428,
          "ticks": 81360,
          "durationTicks": 239
        },
        {
          "time": 85,
          "midi": 71,
          "name": "B4",
          "velocity": 0.7559055118110236,
          "duration": 0.24895833333333428,
          "ticks": 81600,
          "durationTicks": 239
        },
        {
          "time": 85.25,
          "midi": 71,
          "name": "B4",
          "velocity": 0.7559055118110236,
          "duration": 0.12395833333333428,
          "ticks": 81840,
          "durationTicks": 119
        },
        {
          "time": 85.375,
          "midi": 71,
          "name": "B4",
          "velocity": 0.7559055118110236,
          "duration": 0.12395833333333428,
          "ticks": 81960,
          "durationTicks": 119
        },
        {
          "time": 85.5,
          "midi": 69,
          "name": "A4",
          "velocity": 0.7559055118110236,
          "duration": 0.24895833333333428,
          "ticks": 82080,
          "durationTicks": 239
        },
        {
          "time": 85.75,
          "midi": 69,
          "name": "A4",
          "velocity": 0.7559055118110236,
          "duration": 0.24895833333333428,
          "ticks": 82320,
          "durationTicks": 239
        },
        {
          "time": 86,
          "midi": 67,
          "name": "G4",
          "velocity": 0.7559055118110236,
          "duration": 0.24895833333333428,
          "ticks": 82560,
          "durationTicks": 239
        },
        {
          "time": 86.25,
          "midi": 67,
          "name": "G4",
          "velocity": 0.7559055118110236,
          "duration": 0.12395833333333428,
          "ticks": 82800,
          "durationTicks": 119
        },
        {
          "time": 86.375,
          "midi": 67,
          "name": "G4",
          "velocity": 0.7559055118110236,
          "duration": 0.12395833333333428,
          "ticks": 82920,
          "durationTicks": 119
        },
        {
          "time": 86.5,
          "midi": 73,
          "name": "C#5",
          "velocity": 0.7559055118110236,
          "duration": 0.24895833333333428,
          "ticks": 83040,
          "durationTicks": 239
        },
        {
          "time": 86.75,
          "midi": 73,
          "name": "C#5",
          "velocity": 0.7559055118110236,
          "duration": 0.24895833333333428,
          "ticks": 83280,
          "durationTicks": 239
        },
        {
          "time": 87,
          "midi": 74,
          "name": "D5",
          "velocity": 0.7559055118110236,
          "duration": 0.4989583333333343,
          "ticks": 83520,
          "durationTicks": 479
        },
        {
          "time": 88,
          "midi": 71,
          "name": "B4",
          "velocity": 0.7559055118110236,
          "duration": 0.4989583333333343,
          "ticks": 84480,
          "durationTicks": 479
        },
        {
          "time": 88.5,
          "midi": 71,
          "name": "B4",
          "velocity": 0.7559055118110236,
          "duration": 0.4989583333333343,
          "ticks": 84960,
          "durationTicks": 479
        },
        {
          "time": 89,
          "midi": 72,
          "name": "C5",
          "velocity": 0.7559055118110236,
          "duration": 0.4989583333333343,
          "ticks": 85440,
          "durationTicks": 479
        },
        {
          "time": 89.5,
          "midi": 74,
          "name": "D5",
          "velocity": 0.7559055118110236,
          "duration": 0.4989583333333343,
          "ticks": 85920,
          "durationTicks": 479
        },
        {
          "time": 90,
          "midi": 74,
          "name": "D5",
          "velocity": 0.7559055118110236,
          "duration": 0.4989583333333343,
          "ticks": 86400,
          "durationTicks": 479
        },
        {
          "time": 90.5,
          "midi": 72,
          "name": "C5",
          "velocity": 0.7559055118110236,
          "duration": 0.4989583333333343,
          "ticks": 86880,
          "durationTicks": 479
        },
        {
          "time": 91,
          "midi": 71,
          "name": "B4",
          "velocity": 0.7559055118110236,
          "duration": 0.4989583333333343,
          "ticks": 87360,
          "durationTicks": 479
        },
        {
          "time": 91.5,
          "midi": 69,
          "name": "A4",
          "velocity": 0.7559055118110236,
          "duration": 0.4989583333333343,
          "ticks": 87840,
          "durationTicks": 479
        },
        {
          "time": 92,
          "midi": 67,
          "name": "G4",
          "velocity": 0.7559055118110236,
          "duration": 0.4989583333333343,
          "ticks": 88320,
          "durationTicks": 479
        },
        {
          "time": 92.5,
          "midi": 67,
          "name": "G4",
          "velocity": 0.7559055118110236,
          "duration": 0.4989583333333343,
          "ticks": 88800,
          "durationTicks": 479
        },
        {
          "time": 93,
          "midi": 69,
          "name": "A4",
          "velocity": 0.7559055118110236,
          "duration": 0.4989583333333343,
          "ticks": 89280,
          "durationTicks": 479
        },
        {
          "time": 93.5,
          "midi": 71,
          "name": "B4",
          "velocity": 0.7559055118110236,
          "duration": 0.4989583333333343,
          "ticks": 89760,
          "durationTicks": 479
        },
        {
          "time": 94,
          "midi": 69,
          "name": "A4",
          "velocity": 0.7559055118110236,
          "duration": 0.7489583333333343,
          "ticks": 90240,
          "durationTicks": 719
        },
        {
          "time": 94.75,
          "midi": 67,
          "name": "G4",
          "velocity": 0.7559055118110236,
          "duration": 0.24895833333333428,
          "ticks": 90960,
          "durationTicks": 239
        },
        {
          "time": 95,
          "midi": 67,
          "name": "G4",
          "velocity": 0.7559055118110236,
          "duration": 0.9989583333333343,
          "ticks": 91200,
          "durationTicks": 959
        },
        {
          "time": 96,
          "midi": 74,
          "name": "D5",
          "velocity": 0.5039370078740157,
          "duration": 0.4989583333333343,
          "ticks": 92160,
          "durationTicks": 479
        },
        {
          "time": 96.5,
          "midi": 71,
          "name": "B4",
          "velocity": 0.5039370078740157,
          "duration": 0.4989583333333343,
          "ticks": 92640,
          "durationTicks": 479
        },
        {
          "time": 97,
          "midi": 69,
          "name": "A4",
          "velocity": 0.5039370078740157,
          "duration": 0.4989583333333343,
          "ticks": 93120,
          "durationTicks": 479
        },
        {
          "time": 97.5,
          "midi": 67,
          "name": "G4",
          "velocity": 0.5039370078740157,
          "duration": 0.4989583333333343,
          "ticks": 93600,
          "durationTicks": 479
        },
        {
          "time": 100,
          "midi": 67,
          "name": "G4",
          "velocity": 0.5039370078740157,
          "duration": 0.4989583333333343,
          "ticks": 96000,
          "durationTicks": 479
        },
        {
          "time": 100.5,
          "midi": 67,
          "name": "G4",
          "velocity": 0.5039370078740157,
          "duration": 0.4989583333333343,
          "ticks": 96480,
          "durationTicks": 479
        },
        {
          "time": 101,
          "midi": 69,
          "name": "A4",
          "velocity": 0.5039370078740157,
          "duration": 0.4989583333333343,
          "ticks": 96960,
          "durationTicks": 479
        },
        {
          "time": 101.5,
          "midi": 71,
          "name": "B4",
          "velocity": 0.5039370078740157,
          "duration": 0.4989583333333343,
          "ticks": 97440,
          "durationTicks": 479
        },
        {
          "time": 102,
          "midi": 69,
          "name": "A4",
          "velocity": 0.5039370078740157,
          "duration": 0.7489583333333343,
          "ticks": 97920,
          "durationTicks": 719
        },
        {
          "time": 102.75,
          "midi": 67,
          "name": "G4",
          "velocity": 0.5039370078740157,
          "duration": 0.24895833333333428,
          "ticks": 98640,
          "durationTicks": 239
        },
        {
          "time": 103,
          "midi": 67,
          "name": "G4",
          "velocity": 0.5039370078740157,
          "duration": 0.9989583333333343,
          "ticks": 98880,
          "durationTicks": 959
        }
      ],
      "controlChanges": {
        "7": [
          {
            "number": 7,
            "value": 0.7874015748031497,
            "time": 0,
            "ticks": 0
          }
        ],
        "10": [
          {
            "number": 10,
            "value": 0.5039370078740157,
            "time": 0,
            "ticks": 0
          }
        ],
        "91": [
          {
            "number": 91,
            "value": 0,
            "time": 0,
            "ticks": 0
          }
        ],
        "93": [
          {
            "number": 93,
            "value": 0,
            "time": 0,
            "ticks": 0
          }
        ],
        "121": [
          {
            "number": 121,
            "value": 0,
            "time": 0,
            "ticks": 0
          }
        ]
      }
    },
    {
      "name": "Bassoon",
      "channel": 0,
      "instrument": {
        "number": 70,
        "name": "bassoon",
        "family": "reed"
      },
      "notes": [
        {
          "time": 0,
          "midi": 43,
          "name": "G2",
          "velocity": 0.6299212598425197,
          "duration": 1.9989583333333334,
          "ticks": 0,
          "durationTicks": 1919
        },
        {
          "time": 2,
          "midi": 38,
          "name": "D2",
          "velocity": 0.6299212598425197,
          "duration": 1.9989583333333334,
          "ticks": 1920,
          "durationTicks": 1919
        },
        {
          "time": 4,
          "midi": 43,
          "name": "G2",
          "velocity": 0.6299212598425197,
          "duration": 1.9989583333333334,
          "ticks": 3840,
          "durationTicks": 1919
        },
        {
          "time": 6,
          "midi": 38,
          "name": "D2",
          "velocity": 0.6299212598425197,
          "duration": 1.9989583333333334,
          "ticks": 5760,
          "durationTicks": 1919
        },
        {
          "time": 8,
          "midi": 43,
          "name": "G2",
          "velocity": 0.6299212598425197,
          "duration": 1.9989583333333325,
          "ticks": 7680,
          "durationTicks": 1919
        },
        {
          "time": 10,
          "midi": 36,
          "name": "C2",
          "velocity": 0.6299212598425197,
          "duration": 1.9989583333333325,
          "ticks": 9600,
          "durationTicks": 1919
        },
        {
          "time": 12,
          "midi": 38,
          "name": "D2",
          "velocity": 0.6299212598425197,
          "duration": 1.9989583333333325,
          "ticks": 11520,
          "durationTicks": 1919
        },
        {
          "time": 14,
          "midi": 38,
          "name": "D2",
          "velocity": 0.6299212598425197,
          "duration": 0.9989583333333325,
          "ticks": 13440,
          "durationTicks": 959
        },
        {
          "time": 15,
          "midi": 43,
          "name": "G2",
          "velocity": 0.6299212598425197,
          "duration": 0.9989583333333325,
          "ticks": 14400,
          "durationTicks": 959
        },
        {
          "time": 16,
          "midi": 38,
          "name": "D2",
          "velocity": 0.6299212598425197,
          "duration": 0.9989583333333343,
          "ticks": 15360,
          "durationTicks": 959
        },
        {
          "time": 17,
          "midi": 38,
          "name": "D2",
          "velocity": 0.6299212598425197,
          "duration": 0.9989583333333343,
          "ticks": 16320,
          "durationTicks": 959
        },
        {
          "time": 18,
          "midi": 38,
          "name": "D2",
          "velocity": 0.6299212598425197,
          "duration": 0.9989583333333343,
          "ticks": 17280,
          "durationTicks": 959
        },
        {
          "time": 19,
          "midi": 38,
          "name": "D2",
          "velocity": 0.6299212598425197,
          "duration": 0.9989583333333343,
          "ticks": 18240,
          "durationTicks": 959
        },
        {
          "time": 20,
          "midi": 38,
          "name": "D2",
          "velocity": 0.6299212598425197,
          "duration": 0.9989583333333343,
          "ticks": 19200,
          "durationTicks": 959
        },
        {
          "time": 21,
          "midi": 39,
          "name": "D#2",
          "velocity": 0.6299212598425197,
          "duration": 0.9989583333333343,
          "ticks": 20160,
          "durationTicks": 959
        },
        {
          "time": 22,
          "midi": 40,
          "name": "E2",
          "velocity": 0.6299212598425197,
          "duration": 0.4989583333333343,
          "ticks": 21120,
          "durationTicks": 479
        },
        {
          "time": 22.5,
          "midi": 45,
          "name": "A2",
          "velocity": 0.6299212598425197,
          "duration": 0.4989583333333343,
          "ticks": 21600,
          "durationTicks": 479
        },
        {
          "time": 23,
          "midi": 38,
          "name": "D2",
          "velocity": 0.6299212598425197,
          "duration": 0.9989583333333343,
          "ticks": 22080,
          "durationTicks": 959
        },
        {
          "time": 24,
          "midi": 43,
          "name": "G2",
          "velocity": 0.6299212598425197,
          "duration": 1.9989583333333343,
          "ticks": 23040,
          "durationTicks": 1919
        },
        {
          "time": 26,
          "midi": 36,
          "name": "C2",
          "velocity": 0.6299212598425197,
          "duration": 1.9989583333333343,
          "ticks": 24960,
          "durationTicks": 1919
        },
        {
          "time": 28,
          "midi": 38,
          "name": "D2",
          "velocity": 0.6299212598425197,
          "duration": 1.9989583333333343,
          "ticks": 26880,
          "durationTicks": 1919
        },
        {
          "time": 30,
          "midi": 38,
          "name": "D2",
          "velocity": 0.6299212598425197,
          "duration": 0.9989583333333343,
          "ticks": 28800,
          "durationTicks": 959
        },
        {
          "time": 31,
          "midi": 43,
          "name": "G2",
          "velocity": 0.6299212598425197,
          "duration": 0.9989583333333343,
          "ticks": 29760,
          "durationTicks": 959
        },
        {
          "time": 32,
          "midi": 43,
          "name": "G2",
          "velocity": 0.6299212598425197,
          "duration": 1.9989583333333343,
          "ticks": 30720,
          "durationTicks": 1919
        },
        {
          "time": 34,
          "midi": 38,
          "name": "D2",
          "velocity": 0.6299212598425197,
          "duration": 1.9989583333333343,
          "ticks": 32640,
          "durationTicks": 1919
        },
        {
          "time": 36,
          "midi": 43,
          "name": "G2",
          "velocity": 0.6299212598425197,
          "duration": 1.9989583333333343,
          "ticks": 34560,
          "durationTicks": 1919
        },
        {
          "time": 38,
          "midi": 38,
          "name": "D2",
          "velocity": 0.6299212598425197,
          "duration": 1.9989583333333343,
          "ticks": 36480,
          "durationTicks": 1919
        },
        {
          "time": 40,
          "midi": 43,
          "name": "G2",
          "velocity": 0.6299212598425197,
          "duration": 1.9989583333333343,
          "ticks": 38400,
          "durationTicks": 1919
        },
        {
          "time": 42,
          "midi": 36,
          "name": "C2",
          "velocity": 0.6299212598425197,
          "duration": 1.9989583333333343,
          "ticks": 40320,
          "durationTicks": 1919
        },
        {
          "time": 44,
          "midi": 38,
          "name": "D2",
          "velocity": 0.6299212598425197,
          "duration": 1.9989583333333343,
          "ticks": 42240,
          "durationTicks": 1919
        },
        {
          "time": 46,
          "midi": 38,
          "name": "D2",
          "velocity": 0.6299212598425197,
          "duration": 0.9989583333333343,
          "ticks": 44160,
          "durationTicks": 959
        },
        {
          "time": 47,
          "midi": 43,
          "name": "G2",
          "velocity": 0.6299212598425197,
          "duration": 0.9989583333333343,
          "ticks": 45120,
          "durationTicks": 959
        },
        {
          "time": 48,
          "midi": 38,
          "name": "D2",
          "velocity": 0.6299212598425197,
          "duration": 0.9989583333333343,
          "ticks": 46080,
          "durationTicks": 959
        },
        {
          "time": 49,
          "midi": 38,
          "name": "D2",
          "velocity": 0.6299212598425197,
          "duration": 0.9989583333333343,
          "ticks": 47040,
          "durationTicks": 959
        },
        {
          "time": 50,
          "midi": 38,
          "name": "D2",
          "velocity": 0.6299212598425197,
          "duration": 0.9989583333333343,
          "ticks": 48000,
          "durationTicks": 959
        },
        {
          "time": 51,
          "midi": 38,
          "name": "D2",
          "velocity": 0.6299212598425197,
          "duration": 0.9989583333333343,
          "ticks": 48960,
          "durationTicks": 959
        },
        {
          "time": 52,
          "midi": 38,
          "name": "D2",
          "velocity": 0.6299212598425197,
          "duration": 0.9989583333333343,
          "ticks": 49920,
          "durationTicks": 959
        },
        {
          "time": 53,
          "midi": 39,
          "name": "D#2",
          "velocity": 0.6299212598425197,
          "duration": 0.9989583333333343,
          "ticks": 50880,
          "durationTicks": 959
        },
        {
          "time": 54,
          "midi": 40,
          "name": "E2",
          "velocity": 0.6299212598425197,
          "duration": 0.4989583333333343,
          "ticks": 51840,
          "durationTicks": 479
        },
        {
          "time": 54.5,
          "midi": 45,
          "name": "A2",
          "velocity": 0.6299212598425197,
          "duration": 0.4989583333333343,
          "ticks": 52320,
          "durationTicks": 479
        },
        {
          "time": 55,
          "midi": 38,
          "name": "D2",
          "velocity": 0.6299212598425197,
          "duration": 0.9989583333333343,
          "ticks": 52800,
          "durationTicks": 959
        },
        {
          "time": 56,
          "midi": 43,
          "name": "G2",
          "velocity": 0.6299212598425197,
          "duration": 1.9989583333333343,
          "ticks": 53760,
          "durationTicks": 1919
        },
        {
          "time": 58,
          "midi": 36,
          "name": "C2",
          "velocity": 0.6299212598425197,
          "duration": 1.9989583333333343,
          "ticks": 55680,
          "durationTicks": 1919
        },
        {
          "time": 60,
          "midi": 38,
          "name": "D2",
          "velocity": 0.6299212598425197,
          "duration": 1.9989583333333343,
          "ticks": 57600,
          "durationTicks": 1919
        },
        {
          "time": 62,
          "midi": 38,
          "name": "D2",
          "velocity": 0.6299212598425197,
          "duration": 0.9989583333333343,
          "ticks": 59520,
          "durationTicks": 959
        },
        {
          "time": 63,
          "midi": 43,
          "name": "G2",
          "velocity": 0.6299212598425197,
          "duration": 0.9989583333333343,
          "ticks": 60480,
          "durationTicks": 959
        },
        {
          "time": 80,
          "midi": 38,
          "name": "D2",
          "velocity": 0.6299212598425197,
          "duration": 0.9989583333333343,
          "ticks": 76800,
          "durationTicks": 959
        },
        {
          "time": 81,
          "midi": 38,
          "name": "D2",
          "velocity": 0.6299212598425197,
          "duration": 0.9989583333333343,
          "ticks": 77760,
          "durationTicks": 959
        },
        {
          "time": 82,
          "midi": 38,
          "name": "D2",
          "velocity": 0.6299212598425197,
          "duration": 0.9989583333333343,
          "ticks": 78720,
          "durationTicks": 959
        },
        {
          "time": 83,
          "midi": 38,
          "name": "D2",
          "velocity": 0.6299212598425197,
          "duration": 0.9989583333333343,
          "ticks": 79680,
          "durationTicks": 959
        },
        {
          "time": 84,
          "midi": 38,
          "name": "D2",
          "velocity": 0.6299212598425197,
          "duration": 0.9989583333333343,
          "ticks": 80640,
          "durationTicks": 959
        },
        {
          "time": 85,
          "midi": 39,
          "name": "D#2",
          "velocity": 0.6299212598425197,
          "duration": 0.9989583333333343,
          "ticks": 81600,
          "durationTicks": 959
        },
        {
          "time": 86,
          "midi": 40,
          "name": "E2",
          "velocity": 0.6299212598425197,
          "duration": 0.4989583333333343,
          "ticks": 82560,
          "durationTicks": 479
        },
        {
          "time": 86.5,
          "midi": 45,
          "name": "A2",
          "velocity": 0.6299212598425197,
          "duration": 0.4989583333333343,
          "ticks": 83040,
          "durationTicks": 479
        },
        {
          "time": 87,
          "midi": 38,
          "name": "D2",
          "velocity": 0.6299212598425197,
          "duration": 0.9989583333333343,
          "ticks": 83520,
          "durationTicks": 959
        },
        {
          "time": 88,
          "midi": 43,
          "name": "G2",
          "velocity": 0.6299212598425197,
          "duration": 1.9989583333333343,
          "ticks": 84480,
          "durationTicks": 1919
        },
        {
          "time": 90,
          "midi": 36,
          "name": "C2",
          "velocity": 0.6299212598425197,
          "duration": 1.9989583333333343,
          "ticks": 86400,
          "durationTicks": 1919
        },
        {
          "time": 92,
          "midi": 38,
          "name": "D2",
          "velocity": 0.6299212598425197,
          "duration": 1.9989583333333343,
          "ticks": 88320,
          "durationTicks": 1919
        },
        {
          "time": 94,
          "midi": 38,
          "name": "D2",
          "velocity": 0.6299212598425197,
          "duration": 0.9989583333333343,
          "ticks": 90240,
          "durationTicks": 959
        },
        {
          "time": 95,
          "midi": 43,
          "name": "G2",
          "velocity": 0.6299212598425197,
          "duration": 0.9989583333333343,
          "ticks": 91200,
          "durationTicks": 959
        },
        {
          "time": 96,
          "midi": 62,
          "name": "D4",
          "velocity": 0.5039370078740157,
          "duration": 0.4989583333333343,
          "ticks": 92160,
          "durationTicks": 479
        },
        {
          "time": 96.5,
          "midi": 59,
          "name": "B3",
          "velocity": 0.5039370078740157,
          "duration": 0.4989583333333343,
          "ticks": 92640,
          "durationTicks": 479
        },
        {
          "time": 97,
          "midi": 57,
          "name": "A3",
          "velocity": 0.5039370078740157,
          "duration": 0.4989583333333343,
          "ticks": 93120,
          "durationTicks": 479
        },
        {
          "time": 97.5,
          "midi": 55,
          "name": "G3",
          "velocity": 0.5039370078740157,
          "duration": 0.4989583333333343,
          "ticks": 93600,
          "durationTicks": 479
        },
        {
          "time": 100,
          "midi": 38,
          "name": "D2",
          "velocity": 0.5039370078740157,
          "duration": 1.9989583333333343,
          "ticks": 96000,
          "durationTicks": 1919
        },
        {
          "time": 102,
          "midi": 38,
          "name": "D2",
          "velocity": 0.5039370078740157,
          "duration": 0.9989583333333343,
          "ticks": 97920,
          "durationTicks": 959
        },
        {
          "time": 103,
          "midi": 43,
          "name": "G2",
          "velocity": 0.5039370078740157,
          "duration": 0.9989583333333343,
          "ticks": 98880,
          "durationTicks": 959
        }
      ],
      "controlChanges": {
        "7": [
          {
            "number": 7,
            "value": 0.7874015748031497,
            "time": 0,
            "ticks": 0
          }
        ],
        "10": [
          {
            "number": 10,
            "value": 0.5039370078740157,
            "time": 0,
            "ticks": 0
          }
        ],
        "91": [
          {
            "number": 91,
            "value": 0,
            "time": 0,
            "ticks": 0
          }
        ],
        "93": [
          {
            "number": 93,
            "value": 0,
            "time": 0,
            "ticks": 0
          }
        ],
        "121": [
          {
            "number": 121,
            "value": 0,
            "time": 0,
            "ticks": 0
          }
        ]
      }
    },
    {
      "name": "Trumpet",
      "channel": 0,
      "instrument": {
        "number": 56,
        "name": "trumpet",
        "family": "brass"
      },
      "notes": [
        {
          "time": 16,
          "midi": 69,
          "name": "A4",
          "velocity": 0.7559055118110236,
          "duration": 0.24895833333333428,
          "ticks": 15360,
          "durationTicks": 239
        },
        {
          "time": 16.25,
          "midi": 69,
          "name": "A4",
          "velocity": 0.7559055118110236,
          "duration": 0.12395833333333428,
          "ticks": 15600,
          "durationTicks": 119
        },
        {
          "time": 16.375,
          "midi": 69,
          "name": "A4",
          "velocity": 0.7559055118110236,
          "duration": 0.12395833333333428,
          "ticks": 15720,
          "durationTicks": 119
        },
        {
          "time": 16.5,
          "midi": 69,
          "name": "A4",
          "velocity": 0.7559055118110236,
          "duration": 0.24895833333333428,
          "ticks": 15840,
          "durationTicks": 239
        },
        {
          "time": 16.75,
          "midi": 69,
          "name": "A4",
          "velocity": 0.7559055118110236,
          "duration": 0.24895833333333428,
          "ticks": 16080,
          "durationTicks": 239
        },
        {
          "time": 17,
          "midi": 71,
          "name": "B4",
          "velocity": 0.7559055118110236,
          "duration": 0.4989583333333343,
          "ticks": 16320,
          "durationTicks": 479
        },
        {
          "time": 17.5,
          "midi": 67,
          "name": "G4",
          "velocity": 0.7559055118110236,
          "duration": 0.4989583333333343,
          "ticks": 16800,
          "durationTicks": 479
        },
        {
          "time": 18,
          "midi": 69,
          "name": "A4",
          "velocity": 0.7559055118110236,
          "duration": 0.24895833333333428,
          "ticks": 17280,
          "durationTicks": 239
        },
        {
          "time": 18.25,
          "midi": 69,
          "name": "A4",
          "velocity": 0.7559055118110236,
          "duration": 0.12395833333333428,
          "ticks": 17520,
          "durationTicks": 119
        },
        {
          "time": 18.375,
          "midi": 69,
          "name": "A4",
          "velocity": 0.7559055118110236,
          "duration": 0.12395833333333428,
          "ticks": 17640,
          "durationTicks": 119
        },
        {
          "time": 18.5,
          "midi": 71,
          "name": "B4",
          "velocity": 0.7559055118110236,
          "duration": 0.24895833333333428,
          "ticks": 17760,
          "durationTicks": 239
        },
        {
          "time": 18.75,
          "midi": 72,
          "name": "C5",
          "velocity": 0.7559055118110236,
          "duration": 0.24895833333333428,
          "ticks": 18000,
          "durationTicks": 239
        },
        {
          "time": 19,
          "midi": 71,
          "name": "B4",
          "velocity": 0.7559055118110236,
          "duration": 0.4989583333333343,
          "ticks": 18240,
          "durationTicks": 479
        },
        {
          "time": 19.5,
          "midi": 67,
          "name": "G4",
          "velocity": 0.7559055118110236,
          "duration": 0.4989583333333343,
          "ticks": 18720,
          "durationTicks": 479
        },
        {
          "time": 20,
          "midi": 69,
          "name": "A4",
          "velocity": 0.7559055118110236,
          "duration": 0.24895833333333428,
          "ticks": 19200,
          "durationTicks": 239
        },
        {
          "time": 20.25,
          "midi": 69,
          "name": "A4",
          "velocity": 0.7559055118110236,
          "duration": 0.12395833333333428,
          "ticks": 19440,
          "durationTicks": 119
        },
        {
          "time": 20.375,
          "midi": 69,
          "name": "A4",
          "velocity": 0.7559055118110236,
          "duration": 0.12395833333333428,
          "ticks": 19560,
          "durationTicks": 119
        },
        {
          "time": 20.5,
          "midi": 71,
          "name": "B4",
          "velocity": 0.7559055118110236,
          "duration": 0.24895833333333428,
          "ticks": 19680,
          "durationTicks": 239
        },
        {
          "time": 20.75,
          "midi": 72,
          "name": "C5",
          "velocity": 0.7559055118110236,
          "duration": 0.24895833333333428,
          "ticks": 19920,
          "durationTicks": 239
        },
        {
          "time": 21,
          "midi": 71,
          "name": "B4",
          "velocity": 0.7559055118110236,
          "duration": 0.24895833333333428,
          "ticks": 20160,
          "durationTicks": 239
        },
        {
          "time": 21.25,
          "midi": 71,
          "name": "B4",
          "velocity": 0.7559055118110236,
          "duration": 0.12395833333333428,
          "ticks": 20400,
          "durationTicks": 119
        },
        {
          "time": 21.375,
          "midi": 71,
          "name": "B4",
          "velocity": 0.7559055118110236,
          "duration": 0.12395833333333428,
          "ticks": 20520,
          "durationTicks": 119
        },
        {
          "time": 21.5,
          "midi": 69,
          "name": "A4",
          "velocity": 0.7559055118110236,
          "duration": 0.24895833333333428,
          "ticks": 20640,
          "durationTicks": 239
        },
        {
          "time": 21.75,
          "midi": 69,
          "name": "A4",
          "velocity": 0.7559055118110236,
          "duration": 0.24895833333333428,
          "ticks": 20880,
          "durationTicks": 239
        },
        {
          "time": 22,
          "midi": 67,
          "name": "G4",
          "velocity": 0.7559055118110236,
          "duration": 0.24895833333333428,
          "ticks": 21120,
          "durationTicks": 239
        },
        {
          "time": 22.25,
          "midi": 67,
          "name": "G4",
          "velocity": 0.7559055118110236,
          "duration": 0.12395833333333428,
          "ticks": 21360,
          "durationTicks": 119
        },
        {
          "time": 22.375,
          "midi": 67,
          "name": "G4",
          "velocity": 0.7559055118110236,
          "duration": 0.12395833333333428,
          "ticks": 21480,
          "durationTicks": 119
        },
        {
          "time": 22.5,
          "midi": 73,
          "name": "C#5",
          "velocity": 0.7559055118110236,
          "duration": 0.24895833333333428,
          "ticks": 21600,
          "durationTicks": 239
        },
        {
          "time": 22.75,
          "midi": 73,
          "name": "C#5",
          "velocity": 0.7559055118110236,
          "duration": 0.24895833333333428,
          "ticks": 21840,
          "durationTicks": 239
        },
        {
          "time": 23,
          "midi": 74,
          "name": "D5",
          "velocity": 0.7559055118110236,
          "duration": 0.4989583333333343,
          "ticks": 22080,
          "durationTicks": 479
        },
        {
          "time": 32,
          "midi": 71,
          "name": "B4",
          "velocity": 0.6299212598425197,
          "duration": 0.4989583333333343,
          "ticks": 30720,
          "durationTicks": 479
        },
        {
          "time": 32.5,
          "midi": 71,
          "name": "B4",
          "velocity": 0.6299212598425197,
          "duration": 0.4989583333333343,
          "ticks": 31200,
          "durationTicks": 479
        },
        {
          "time": 33,
          "midi": 72,
          "name": "C5",
          "velocity": 0.6299212598425197,
          "duration": 0.4989583333333343,
          "ticks": 31680,
          "durationTicks": 479
        },
        {
          "time": 33.5,
          "midi": 74,
          "name": "D5",
          "velocity": 0.6299212598425197,
          "duration": 0.4989583333333343,
          "ticks": 32160,
          "durationTicks": 479
        },
        {
          "time": 34,
          "midi": 74,
          "name": "D5",
          "velocity": 0.6299212598425197,
          "duration": 0.4989583333333343,
          "ticks": 32640,
          "durationTicks": 479
        },
        {
          "time": 34.5,
          "midi": 72,
          "name": "C5",
          "velocity": 0.6299212598425197,
          "duration": 0.4989583333333343,
          "ticks": 33120,
          "durationTicks": 479
        },
        {
          "time": 35,
          "midi": 71,
          "name": "B4",
          "velocity": 0.6299212598425197,
          "duration": 0.4989583333333343,
          "ticks": 33600,
          "durationTicks": 479
        },
        {
          "time": 35.5,
          "midi": 69,
          "name": "A4",
          "velocity": 0.6299212598425197,
          "duration": 0.4989583333333343,
          "ticks": 34080,
          "durationTicks": 479
        },
        {
          "time": 36,
          "midi": 67,
          "name": "G4",
          "velocity": 0.6299212598425197,
          "duration": 0.4989583333333343,
          "ticks": 34560,
          "durationTicks": 479
        },
        {
          "time": 36.5,
          "midi": 67,
          "name": "G4",
          "velocity": 0.6299212598425197,
          "duration": 0.4989583333333343,
          "ticks": 35040,
          "durationTicks": 479
        },
        {
          "time": 37,
          "midi": 69,
          "name": "A4",
          "velocity": 0.6299212598425197,
          "duration": 0.4989583333333343,
          "ticks": 35520,
          "durationTicks": 479
        },
        {
          "time": 37.5,
          "midi": 71,
          "name": "B4",
          "velocity": 0.6299212598425197,
          "duration": 0.4989583333333343,
          "ticks": 36000,
          "durationTicks": 479
        },
        {
          "time": 38,
          "midi": 71,
          "name": "B4",
          "velocity": 0.6299212598425197,
          "duration": 0.7489583333333343,
          "ticks": 36480,
          "durationTicks": 719
        },
        {
          "time": 38.75,
          "midi": 69,
          "name": "A4",
          "velocity": 0.6299212598425197,
          "duration": 0.24895833333333428,
          "ticks": 37200,
          "durationTicks": 239
        },
        {
          "time": 39,
          "midi": 69,
          "name": "A4",
          "velocity": 0.6299212598425197,
          "duration": 0.9989583333333343,
          "ticks": 37440,
          "durationTicks": 959
        },
        {
          "time": 40,
          "midi": 71,
          "name": "B4",
          "velocity": 0.6299212598425197,
          "duration": 0.4989583333333343,
          "ticks": 38400,
          "durationTicks": 479
        },
        {
          "time": 40.5,
          "midi": 71,
          "name": "B4",
          "velocity": 0.6299212598425197,
          "duration": 0.4989583333333343,
          "ticks": 38880,
          "durationTicks": 479
        },
        {
          "time": 41,
          "midi": 72,
          "name": "C5",
          "velocity": 0.6299212598425197,
          "duration": 0.4989583333333343,
          "ticks": 39360,
          "durationTicks": 479
        },
        {
          "time": 41.5,
          "midi": 74,
          "name": "D5",
          "velocity": 0.6299212598425197,
          "duration": 0.4989583333333343,
          "ticks": 39840,
          "durationTicks": 479
        },
        {
          "time": 42,
          "midi": 74,
          "name": "D5",
          "velocity": 0.6299212598425197,
          "duration": 0.4989583333333343,
          "ticks": 40320,
          "durationTicks": 479
        },
        {
          "time": 42.5,
          "midi": 72,
          "name": "C5",
          "velocity": 0.6299212598425197,
          "duration": 0.4989583333333343,
          "ticks": 40800,
          "durationTicks": 479
        },
        {
          "time": 43,
          "midi": 71,
          "name": "B4",
          "velocity": 0.6299212598425197,
          "duration": 0.4989583333333343,
          "ticks": 41280,
          "durationTicks": 479
        },
        {
          "time": 43.5,
          "midi": 72,
          "name": "C5",
          "velocity": 0.6299212598425197,
          "duration": 0.24895833333333428,
          "ticks": 41760,
          "durationTicks": 239
        },
        {
          "time": 43.75,
          "midi": 69,
          "name": "A4",
          "velocity": 0.6299212598425197,
          "duration": 0.24895833333333428,
          "ticks": 42000,
          "durationTicks": 239
        },
        {
          "time": 44,
          "midi": 67,
          "name": "G4",
          "velocity": 0.6299212598425197,
          "duration": 0.4989583333333343,
          "ticks": 42240,
          "durationTicks": 479
        },
        {
          "time": 44.5,
          "midi": 67,
          "name": "G4",
          "velocity": 0.6299212598425197,
          "duration": 0.4989583333333343,
          "ticks": 42720,
          "durationTicks": 479
        },
        {
          "time": 45,
          "midi": 69,
          "name": "A4",
          "velocity": 0.6299212598425197,
          "duration": 0.4989583333333343,
          "ticks": 43200,
          "durationTicks": 479
        },
        {
          "time": 45.5,
          "midi": 71,
          "name": "B4",
          "velocity": 0.6299212598425197,
          "duration": 0.4989583333333343,
          "ticks": 43680,
          "durationTicks": 479
        },
        {
          "time": 46,
          "midi": 69,
          "name": "A4",
          "velocity": 0.6299212598425197,
          "duration": 0.7489583333333343,
          "ticks": 44160,
          "durationTicks": 719
        },
        {
          "time": 46.75,
          "midi": 67,
          "name": "G4",
          "velocity": 0.6299212598425197,
          "duration": 0.24895833333333428,
          "ticks": 44880,
          "durationTicks": 239
        },
        {
          "time": 47,
          "midi": 67,
          "name": "G4",
          "velocity": 0.6299212598425197,
          "duration": 0.9989583333333343,
          "ticks": 45120,
          "durationTicks": 959
        },
        {
          "time": 48,
          "midi": 69,
          "name": "A4",
          "velocity": 0.7559055118110236,
          "duration": 0.24895833333333428,
          "ticks": 46080,
          "durationTicks": 239
        },
        {
          "time": 48.25,
          "midi": 69,
          "name": "A4",
          "velocity": 0.7559055118110236,
          "duration": 0.12395833333333428,
          "ticks": 46320,
          "durationTicks": 119
        },
        {
          "time": 48.375,
          "midi": 69,
          "name": "A4",
          "velocity": 0.7559055118110236,
          "duration": 0.12395833333333428,
          "ticks": 46440,
          "durationTicks": 119
        },
        {
          "time": 48.5,
          "midi": 69,
          "name": "A4",
          "velocity": 0.7559055118110236,
          "duration": 0.24895833333333428,
          "ticks": 46560,
          "durationTicks": 239
        },
        {
          "time": 48.75,
          "midi": 69,
          "name": "A4",
          "velocity": 0.7559055118110236,
          "duration": 0.24895833333333428,
          "ticks": 46800,
          "durationTicks": 239
        },
        {
          "time": 49,
          "midi": 71,
          "name": "B4",
          "velocity": 0.7559055118110236,
          "duration": 0.4989583333333343,
          "ticks": 47040,
          "durationTicks": 479
        },
        {
          "time": 49.5,
          "midi": 67,
          "name": "G4",
          "velocity": 0.7559055118110236,
          "duration": 0.4989583333333343,
          "ticks": 47520,
          "durationTicks": 479
        },
        {
          "time": 50,
          "midi": 69,
          "name": "A4",
          "velocity": 0.7559055118110236,
          "duration": 0.24895833333333428,
          "ticks": 48000,
          "durationTicks": 239
        },
        {
          "time": 50.25,
          "midi": 69,
          "name": "A4",
          "velocity": 0.7559055118110236,
          "duration": 0.12395833333333428,
          "ticks": 48240,
          "durationTicks": 119
        },
        {
          "time": 50.375,
          "midi": 69,
          "name": "A4",
          "velocity": 0.7559055118110236,
          "duration": 0.12395833333333428,
          "ticks": 48360,
          "durationTicks": 119
        },
        {
          "time": 50.5,
          "midi": 71,
          "name": "B4",
          "velocity": 0.7559055118110236,
          "duration": 0.24895833333333428,
          "ticks": 48480,
          "durationTicks": 239
        },
        {
          "time": 50.75,
          "midi": 72,
          "name": "C5",
          "velocity": 0.7559055118110236,
          "duration": 0.24895833333333428,
          "ticks": 48720,
          "durationTicks": 239
        },
        {
          "time": 51,
          "midi": 71,
          "name": "B4",
          "velocity": 0.7559055118110236,
          "duration": 0.4989583333333343,
          "ticks": 48960,
          "durationTicks": 479
        },
        {
          "time": 51.5,
          "midi": 67,
          "name": "G4",
          "velocity": 0.7559055118110236,
          "duration": 0.4989583333333343,
          "ticks": 49440,
          "durationTicks": 479
        },
        {
          "time": 52,
          "midi": 69,
          "name": "A4",
          "velocity": 0.7559055118110236,
          "duration": 0.24895833333333428,
          "ticks": 49920,
          "durationTicks": 239
        },
        {
          "time": 52.25,
          "midi": 69,
          "name": "A4",
          "velocity": 0.7559055118110236,
          "duration": 0.12395833333333428,
          "ticks": 50160,
          "durationTicks": 119
        },
        {
          "time": 52.375,
          "midi": 69,
          "name": "A4",
          "velocity": 0.7559055118110236,
          "duration": 0.12395833333333428,
          "ticks": 50280,
          "durationTicks": 119
        },
        {
          "time": 52.5,
          "midi": 71,
          "name": "B4",
          "velocity": 0.7559055118110236,
          "duration": 0.24895833333333428,
          "ticks": 50400,
          "durationTicks": 239
        },
        {
          "time": 52.75,
          "midi": 72,
          "name": "C5",
          "velocity": 0.7559055118110236,
          "duration": 0.24895833333333428,
          "ticks": 50640,
          "durationTicks": 239
        },
        {
          "time": 53,
          "midi": 71,
          "name": "B4",
          "velocity": 0.7559055118110236,
          "duration": 0.24895833333333428,
          "ticks": 50880,
          "durationTicks": 239
        },
        {
          "time": 53.25,
          "midi": 71,
          "name": "B4",
          "velocity": 0.7559055118110236,
          "duration": 0.12395833333333428,
          "ticks": 51120,
          "durationTicks": 119
        },
        {
          "time": 53.375,
          "midi": 71,
          "name": "B4",
          "velocity": 0.7559055118110236,
          "duration": 0.12395833333333428,
          "ticks": 51240,
          "durationTicks": 119
        },
        {
          "time": 53.5,
          "midi": 69,
          "name": "A4",
          "velocity": 0.7559055118110236,
          "duration": 0.24895833333333428,
          "ticks": 51360,
          "durationTicks": 239
        },
        {
          "time": 53.75,
          "midi": 69,
          "name": "A4",
          "velocity": 0.7559055118110236,
          "duration": 0.24895833333333428,
          "ticks": 51600,
          "durationTicks": 239
        },
        {
          "time": 54,
          "midi": 67,
          "name": "G4",
          "velocity": 0.7559055118110236,
          "duration": 0.24895833333333428,
          "ticks": 51840,
          "durationTicks": 239
        },
        {
          "time": 54.25,
          "midi": 67,
          "name": "G4",
          "velocity": 0.7559055118110236,
          "duration": 0.12395833333333428,
          "ticks": 52080,
          "durationTicks": 119
        },
        {
          "time": 54.375,
          "midi": 67,
          "name": "G4",
          "velocity": 0.7559055118110236,
          "duration": 0.12395833333333428,
          "ticks": 52200,
          "durationTicks": 119
        },
        {
          "time": 54.5,
          "midi": 73,
          "name": "C#5",
          "velocity": 0.7559055118110236,
          "duration": 0.24895833333333428,
          "ticks": 52320,
          "durationTicks": 239
        },
        {
          "time": 54.75,
          "midi": 73,
          "name": "C#5",
          "velocity": 0.7559055118110236,
          "duration": 0.24895833333333428,
          "ticks": 52560,
          "durationTicks": 239
        },
        {
          "time": 55,
          "midi": 74,
          "name": "D5",
          "velocity": 0.7559055118110236,
          "duration": 0.4989583333333343,
          "ticks": 52800,
          "durationTicks": 479
        },
        {
          "time": 80,
          "midi": 69,
          "name": "A4",
          "velocity": 0.7559055118110236,
          "duration": 0.24895833333333428,
          "ticks": 76800,
          "durationTicks": 239
        },
        {
          "time": 80.25,
          "midi": 69,
          "name": "A4",
          "velocity": 0.7559055118110236,
          "duration": 0.12395833333333428,
          "ticks": 77040,
          "durationTicks": 119
        },
        {
          "time": 80.375,
          "midi": 69,
          "name": "A4",
          "velocity": 0.7559055118110236,
          "duration": 0.12395833333333428,
          "ticks": 77160,
          "durationTicks": 119
        },
        {
          "time": 80.5,
          "midi": 69,
          "name": "A4",
          "velocity": 0.7559055118110236,
          "duration": 0.24895833333333428,
          "ticks": 77280,
          "durationTicks": 239
        },
        {
          "time": 80.75,
          "midi": 69,
          "name": "A4",
          "velocity": 0.7559055118110236,
          "duration": 0.24895833333333428,
          "ticks": 77520,
          "durationTicks": 239
        },
        {
          "time": 81,
          "midi": 71,
          "name": "B4",
          "velocity": 0.7559055118110236,
          "duration": 0.4989583333333343,
          "ticks": 77760,
          "durationTicks": 479
        },
        {
          "time": 81.5,
          "midi": 67,
          "name": "G4",
          "velocity": 0.7559055118110236,
          "duration": 0.4989583333333343,
          "ticks": 78240,
          "durationTicks": 479
        },
        {
          "time": 82,
          "midi": 69,
          "name": "A4",
          "velocity": 0.7559055118110236,
          "duration": 0.24895833333333428,
          "ticks": 78720,
          "durationTicks": 239
        },
        {
          "time": 82.25,
          "midi": 69,
          "name": "A4",
          "velocity": 0.7559055118110236,
          "duration": 0.12395833333333428,
          "ticks": 78960,
          "durationTicks": 119
        },
        {
          "time": 82.375,
          "midi": 69,
          "name": "A4",
          "velocity": 0.7559055118110236,
          "duration": 0.12395833333333428,
          "ticks": 79080,
          "durationTicks": 119
        },
        {
          "time": 82.5,
          "midi": 71,
          "name": "B4",
          "velocity": 0.7559055118110236,
          "duration": 0.24895833333333428,
          "ticks": 79200,
          "durationTicks": 239
        },
        {
          "time": 82.75,
          "midi": 72,
          "name": "C5",
          "velocity": 0.7559055118110236,
          "duration": 0.24895833333333428,
          "ticks": 79440,
          "durationTicks": 239
        },
        {
          "time": 83,
          "midi": 71,
          "name": "B4",
          "velocity": 0.7559055118110236,
          "duration": 0.4989583333333343,
          "ticks": 79680,
          "durationTicks": 479
        },
        {
          "time": 83.5,
          "midi": 67,
          "name": "G4",
          "velocity": 0.7559055118110236,
          "duration": 0.4989583333333343,
          "ticks": 80160,
          "durationTicks": 479
        },
        {
          "time": 84,
          "midi": 69,
          "name": "A4",
          "velocity": 0.7559055118110236,
          "duration": 0.24895833333333428,
          "ticks": 80640,
          "durationTicks": 239
        },
        {
          "time": 84.25,
          "midi": 69,
          "name": "A4",
          "velocity": 0.7559055118110236,
          "duration": 0.12395833333333428,
          "ticks": 80880,
          "durationTicks": 119
        },
        {
          "time": 84.375,
          "midi": 69,
          "name": "A4",
          "velocity": 0.7559055118110236,
          "duration": 0.12395833333333428,
          "ticks": 81000,
          "durationTicks": 119
        },
        {
          "time": 84.5,
          "midi": 71,
          "name": "B4",
          "velocity": 0.7559055118110236,
          "duration": 0.24895833333333428,
          "ticks": 81120,
          "durationTicks": 239
        },
        {
          "time": 84.75,
          "midi": 72,
          "name": "C5",
          "velocity": 0.7559055118110236,
          "duration": 0.24895833333333428,
          "ticks": 81360,
          "durationTicks": 239
        },
        {
          "time": 85,
          "midi": 71,
          "name": "B4",
          "velocity": 0.7559055118110236,
          "duration": 0.24895833333333428,
          "ticks": 81600,
          "durationTicks": 239
        },
        {
          "time": 85.25,
          "midi": 71,
          "name": "B4",
          "velocity": 0.7559055118110236,
          "duration": 0.12395833333333428,
          "ticks": 81840,
          "durationTicks": 119
        },
        {
          "time": 85.375,
          "midi": 71,
          "name": "B4",
          "velocity": 0.7559055118110236,
          "duration": 0.12395833333333428,
          "ticks": 81960,
          "durationTicks": 119
        },
        {
          "time": 85.5,
          "midi": 69,
          "name": "A4",
          "velocity": 0.7559055118110236,
          "duration": 0.24895833333333428,
          "ticks": 82080,
          "durationTicks": 239
        },
        {
          "time": 85.75,
          "midi": 69,
          "name": "A4",
          "velocity": 0.7559055118110236,
          "duration": 0.24895833333333428,
          "ticks": 82320,
          "durationTicks": 239
        },
        {
          "time": 86,
          "midi": 67,
          "name": "G4",
          "velocity": 0.7559055118110236,
          "duration": 0.24895833333333428,
          "ticks": 82560,
          "durationTicks": 239
        },
        {
          "time": 86.25,
          "midi": 67,
          "name": "G4",
          "velocity": 0.7559055118110236,
          "duration": 0.12395833333333428,
          "ticks": 82800,
          "durationTicks": 119
        },
        {
          "time": 86.375,
          "midi": 67,
          "name": "G4",
          "velocity": 0.7559055118110236,
          "duration": 0.12395833333333428,
          "ticks": 82920,
          "durationTicks": 119
        },
        {
          "time": 86.5,
          "midi": 73,
          "name": "C#5",
          "velocity": 0.7559055118110236,
          "duration": 0.24895833333333428,
          "ticks": 83040,
          "durationTicks": 239
        },
        {
          "time": 86.75,
          "midi": 73,
          "name": "C#5",
          "velocity": 0.7559055118110236,
          "duration": 0.24895833333333428,
          "ticks": 83280,
          "durationTicks": 239
        },
        {
          "time": 87,
          "midi": 74,
          "name": "D5",
          "velocity": 0.7559055118110236,
          "duration": 0.4989583333333343,
          "ticks": 83520,
          "durationTicks": 479
        },
        {
          "time": 96,
          "midi": 74,
          "name": "D5",
          "velocity": 0.5039370078740157,
          "duration": 0.4989583333333343,
          "ticks": 92160,
          "durationTicks": 479
        },
        {
          "time": 96.5,
          "midi": 71,
          "name": "B4",
          "velocity": 0.5039370078740157,
          "duration": 0.4989583333333343,
          "ticks": 92640,
          "durationTicks": 479
        },
        {
          "time": 97,
          "midi": 69,
          "name": "A4",
          "velocity": 0.5039370078740157,
          "duration": 0.4989583333333343,
          "ticks": 93120,
          "durationTicks": 479
        },
        {
          "time": 97.5,
          "midi": 67,
          "name": "G4",
          "velocity": 0.5039370078740157,
          "duration": 0.4989583333333343,
          "ticks": 93600,
          "durationTicks": 479
        },
        {
          "time": 100,
          "midi": 67,
          "name": "G4",
          "velocity": 0.5039370078740157,
          "duration": 0.4989583333333343,
          "ticks": 96000,
          "durationTicks": 479
        },
        {
          "time": 100.5,
          "midi": 67,
          "name": "G4",
          "velocity": 0.5039370078740157,
          "duration": 0.4989583333333343,
          "ticks": 96480,
          "durationTicks": 479
        },
        {
          "time": 101,
          "midi": 69,
          "name": "A4",
          "velocity": 0.5039370078740157,
          "duration": 0.4989583333333343,
          "ticks": 96960,
          "durationTicks": 479
        },
        {
          "time": 101.5,
          "midi": 71,
          "name": "B4",
          "velocity": 0.5039370078740157,
          "duration": 0.4989583333333343,
          "ticks": 97440,
          "durationTicks": 479
        },
        {
          "time": 102,
          "midi": 69,
          "name": "A4",
          "velocity": 0.5039370078740157,
          "duration": 0.7489583333333343,
          "ticks": 97920,
          "durationTicks": 719
        },
        {
          "time": 102.75,
          "midi": 67,
          "name": "G4",
          "velocity": 0.5039370078740157,
          "duration": 0.24895833333333428,
          "ticks": 98640,
          "durationTicks": 239
        },
        {
          "time": 103,
          "midi": 67,
          "name": "G4",
          "velocity": 0.5039370078740157,
          "duration": 0.9989583333333343,
          "ticks": 98880,
          "durationTicks": 959
        }
      ],
      "controlChanges": {
        "7": [
          {
            "number": 7,
            "value": 0.7874015748031497,
            "time": 0,
            "ticks": 0
          },
          {
            "number": 7,
            "value": 0.7874015748031497,
            "time": 0,
            "ticks": 0
          }
        ],
        "10": [
          {
            "number": 10,
            "value": 0.5039370078740157,
            "time": 0,
            "ticks": 0
          },
          {
            "number": 10,
            "value": 0.5039370078740157,
            "time": 0,
            "ticks": 0
          }
        ],
        "91": [
          {
            "number": 91,
            "value": 0,
            "time": 0,
            "ticks": 0
          },
          {
            "number": 91,
            "value": 0,
            "time": 0,
            "ticks": 0
          }
        ],
        "93": [
          {
            "number": 93,
            "value": 0,
            "time": 0,
            "ticks": 0
          },
          {
            "number": 93,
            "value": 0,
            "time": 0,
            "ticks": 0
          }
        ],
        "121": [
          {
            "number": 121,
            "value": 0,
            "time": 0,
            "ticks": 0
          },
          {
            "number": 121,
            "value": 0,
            "time": 0,
            "ticks": 0
          }
        ]
      }
    },
    {
      "name": "Trombone",
      "channel": 0,
      "instrument": {
        "number": 57,
        "name": "trombone",
        "family": "brass"
      },
      "notes": [
        {
          "time": 0,
          "midi": 43,
          "name": "G2",
          "velocity": 0.6299212598425197,
          "duration": 1.9989583333333334,
          "ticks": 0,
          "durationTicks": 1919
        },
        {
          "time": 2,
          "midi": 38,
          "name": "D2",
          "velocity": 0.6299212598425197,
          "duration": 1.9989583333333334,
          "ticks": 1920,
          "durationTicks": 1919
        },
        {
          "time": 4,
          "midi": 43,
          "name": "G2",
          "velocity": 0.6299212598425197,
          "duration": 1.9989583333333334,
          "ticks": 3840,
          "durationTicks": 1919
        },
        {
          "time": 6,
          "midi": 38,
          "name": "D2",
          "velocity": 0.6299212598425197,
          "duration": 1.9989583333333334,
          "ticks": 5760,
          "durationTicks": 1919
        },
        {
          "time": 8,
          "midi": 43,
          "name": "G2",
          "velocity": 0.6299212598425197,
          "duration": 1.9989583333333325,
          "ticks": 7680,
          "durationTicks": 1919
        },
        {
          "time": 10,
          "midi": 36,
          "name": "C2",
          "velocity": 0.6299212598425197,
          "duration": 1.9989583333333325,
          "ticks": 9600,
          "durationTicks": 1919
        },
        {
          "time": 12,
          "midi": 38,
          "name": "D2",
          "velocity": 0.6299212598425197,
          "duration": 1.9989583333333325,
          "ticks": 11520,
          "durationTicks": 1919
        },
        {
          "time": 14,
          "midi": 38,
          "name": "D2",
          "velocity": 0.6299212598425197,
          "duration": 0.9989583333333325,
          "ticks": 13440,
          "durationTicks": 959
        },
        {
          "time": 15,
          "midi": 43,
          "name": "G2",
          "velocity": 0.6299212598425197,
          "duration": 0.9989583333333325,
          "ticks": 14400,
          "durationTicks": 959
        },
        {
          "time": 16,
          "midi": 57,
          "name": "A3",
          "velocity": 0.7559055118110236,
          "duration": 0.24895833333333428,
          "ticks": 15360,
          "durationTicks": 239
        },
        {
          "time": 16.25,
          "midi": 57,
          "name": "A3",
          "velocity": 0.7559055118110236,
          "duration": 0.12395833333333428,
          "ticks": 15600,
          "durationTicks": 119
        },
        {
          "time": 16.375,
          "midi": 57,
          "name": "A3",
          "velocity": 0.7559055118110236,
          "duration": 0.12395833333333428,
          "ticks": 15720,
          "durationTicks": 119
        },
        {
          "time": 16.5,
          "midi": 57,
          "name": "A3",
          "velocity": 0.7559055118110236,
          "duration": 0.24895833333333428,
          "ticks": 15840,
          "durationTicks": 239
        },
        {
          "time": 16.75,
          "midi": 57,
          "name": "A3",
          "velocity": 0.7559055118110236,
          "duration": 0.24895833333333428,
          "ticks": 16080,
          "durationTicks": 239
        },
        {
          "time": 17,
          "midi": 59,
          "name": "B3",
          "velocity": 0.7559055118110236,
          "duration": 0.4989583333333343,
          "ticks": 16320,
          "durationTicks": 479
        },
        {
          "time": 17.5,
          "midi": 55,
          "name": "G3",
          "velocity": 0.7559055118110236,
          "duration": 0.4989583333333343,
          "ticks": 16800,
          "durationTicks": 479
        },
        {
          "time": 18,
          "midi": 57,
          "name": "A3",
          "velocity": 0.7559055118110236,
          "duration": 0.24895833333333428,
          "ticks": 17280,
          "durationTicks": 239
        },
        {
          "time": 18.25,
          "midi": 57,
          "name": "A3",
          "velocity": 0.7559055118110236,
          "duration": 0.12395833333333428,
          "ticks": 17520,
          "durationTicks": 119
        },
        {
          "time": 18.375,
          "midi": 57,
          "name": "A3",
          "velocity": 0.7559055118110236,
          "duration": 0.12395833333333428,
          "ticks": 17640,
          "durationTicks": 119
        },
        {
          "time": 18.5,
          "midi": 59,
          "name": "B3",
          "velocity": 0.7559055118110236,
          "duration": 0.24895833333333428,
          "ticks": 17760,
          "durationTicks": 239
        },
        {
          "time": 18.75,
          "midi": 60,
          "name": "C4",
          "velocity": 0.7559055118110236,
          "duration": 0.24895833333333428,
          "ticks": 18000,
          "durationTicks": 239
        },
        {
          "time": 19,
          "midi": 59,
          "name": "B3",
          "velocity": 0.7559055118110236,
          "duration": 0.4989583333333343,
          "ticks": 18240,
          "durationTicks": 479
        },
        {
          "time": 19.5,
          "midi": 55,
          "name": "G3",
          "velocity": 0.7559055118110236,
          "duration": 0.4989583333333343,
          "ticks": 18720,
          "durationTicks": 479
        },
        {
          "time": 20,
          "midi": 57,
          "name": "A3",
          "velocity": 0.7559055118110236,
          "duration": 0.24895833333333428,
          "ticks": 19200,
          "durationTicks": 239
        },
        {
          "time": 20.25,
          "midi": 57,
          "name": "A3",
          "velocity": 0.7559055118110236,
          "duration": 0.12395833333333428,
          "ticks": 19440,
          "durationTicks": 119
        },
        {
          "time": 20.375,
          "midi": 57,
          "name": "A3",
          "velocity": 0.7559055118110236,
          "duration": 0.12395833333333428,
          "ticks": 19560,
          "durationTicks": 119
        },
        {
          "time": 20.5,
          "midi": 59,
          "name": "B3",
          "velocity": 0.7559055118110236,
          "duration": 0.24895833333333428,
          "ticks": 19680,
          "durationTicks": 239
        },
        {
          "time": 20.75,
          "midi": 60,
          "name": "C4",
          "velocity": 0.7559055118110236,
          "duration": 0.24895833333333428,
          "ticks": 19920,
          "durationTicks": 239
        },
        {
          "time": 21,
          "midi": 59,
          "name": "B3",
          "velocity": 0.7559055118110236,
          "duration": 0.24895833333333428,
          "ticks": 20160,
          "durationTicks": 239
        },
        {
          "time": 21.25,
          "midi": 59,
          "name": "B3",
          "velocity": 0.7559055118110236,
          "duration": 0.12395833333333428,
          "ticks": 20400,
          "durationTicks": 119
        },
        {
          "time": 21.375,
          "midi": 59,
          "name": "B3",
          "velocity": 0.7559055118110236,
          "duration": 0.12395833333333428,
          "ticks": 20520,
          "durationTicks": 119
        },
        {
          "time": 21.5,
          "midi": 57,
          "name": "A3",
          "velocity": 0.7559055118110236,
          "duration": 0.24895833333333428,
          "ticks": 20640,
          "durationTicks": 239
        },
        {
          "time": 21.75,
          "midi": 57,
          "name": "A3",
          "velocity": 0.7559055118110236,
          "duration": 0.24895833333333428,
          "ticks": 20880,
          "durationTicks": 239
        },
        {
          "time": 22,
          "midi": 55,
          "name": "G3",
          "velocity": 0.7559055118110236,
          "duration": 0.24895833333333428,
          "ticks": 21120,
          "durationTicks": 239
        },
        {
          "time": 22.25,
          "midi": 55,
          "name": "G3",
          "velocity": 0.7559055118110236,
          "duration": 0.12395833333333428,
          "ticks": 21360,
          "durationTicks": 119
        },
        {
          "time": 22.375,
          "midi": 55,
          "name": "G3",
          "velocity": 0.7559055118110236,
          "duration": 0.12395833333333428,
          "ticks": 21480,
          "durationTicks": 119
        },
        {
          "time": 22.5,
          "midi": 61,
          "name": "C#4",
          "velocity": 0.7559055118110236,
          "duration": 0.24895833333333428,
          "ticks": 21600,
          "durationTicks": 239
        },
        {
          "time": 22.75,
          "midi": 61,
          "name": "C#4",
          "velocity": 0.7559055118110236,
          "duration": 0.24895833333333428,
          "ticks": 21840,
          "durationTicks": 239
        },
        {
          "time": 23,
          "midi": 62,
          "name": "D4",
          "velocity": 0.7559055118110236,
          "duration": 0.4989583333333343,
          "ticks": 22080,
          "durationTicks": 479
        },
        {
          "time": 24,
          "midi": 43,
          "name": "G2",
          "velocity": 0.7559055118110236,
          "duration": 1.9989583333333343,
          "ticks": 23040,
          "durationTicks": 1919
        },
        {
          "time": 26,
          "midi": 36,
          "name": "C2",
          "velocity": 0.7559055118110236,
          "duration": 1.9989583333333343,
          "ticks": 24960,
          "durationTicks": 1919
        },
        {
          "time": 28,
          "midi": 38,
          "name": "D2",
          "velocity": 0.7559055118110236,
          "duration": 1.9989583333333343,
          "ticks": 26880,
          "durationTicks": 1919
        },
        {
          "time": 30,
          "midi": 38,
          "name": "D2",
          "velocity": 0.7559055118110236,
          "duration": 0.9989583333333343,
          "ticks": 28800,
          "durationTicks": 959
        },
        {
          "time": 31,
          "midi": 43,
          "name": "G2",
          "velocity": 0.7559055118110236,
          "duration": 0.9989583333333343,
          "ticks": 29760,
          "durationTicks": 959
        },
        {
          "time": 32,
          "midi": 59,
          "name": "B3",
          "velocity": 0.7559055118110236,
          "duration": 0.4989583333333343,
          "ticks": 30720,
          "durationTicks": 479
        },
        {
          "time": 32.5,
          "midi": 59,
          "name": "B3",
          "velocity": 0.7559055118110236,
          "duration": 0.4989583333333343,
          "ticks": 31200,
          "durationTicks": 479
        },
        {
          "time": 33,
          "midi": 60,
          "name": "C4",
          "velocity": 0.7559055118110236,
          "duration": 0.4989583333333343,
          "ticks": 31680,
          "durationTicks": 479
        },
        {
          "time": 33.5,
          "midi": 62,
          "name": "D4",
          "velocity": 0.7559055118110236,
          "duration": 0.4989583333333343,
          "ticks": 32160,
          "durationTicks": 479
        },
        {
          "time": 34,
          "midi": 62,
          "name": "D4",
          "velocity": 0.7559055118110236,
          "duration": 0.4989583333333343,
          "ticks": 32640,
          "durationTicks": 479
        },
        {
          "time": 34.5,
          "midi": 60,
          "name": "C4",
          "velocity": 0.7559055118110236,
          "duration": 0.4989583333333343,
          "ticks": 33120,
          "durationTicks": 479
        },
        {
          "time": 35,
          "midi": 59,
          "name": "B3",
          "velocity": 0.7559055118110236,
          "duration": 0.4989583333333343,
          "ticks": 33600,
          "durationTicks": 479
        },
        {
          "time": 35.5,
          "midi": 57,
          "name": "A3",
          "velocity": 0.7559055118110236,
          "duration": 0.4989583333333343,
          "ticks": 34080,
          "durationTicks": 479
        },
        {
          "time": 36,
          "midi": 55,
          "name": "G3",
          "velocity": 0.7559055118110236,
          "duration": 0.4989583333333343,
          "ticks": 34560,
          "durationTicks": 479
        },
        {
          "time": 36.5,
          "midi": 55,
          "name": "G3",
          "velocity": 0.7559055118110236,
          "duration": 0.4989583333333343,
          "ticks": 35040,
          "durationTicks": 479
        },
        {
          "time": 37,
          "midi": 57,
          "name": "A3",
          "velocity": 0.7559055118110236,
          "duration": 0.4989583333333343,
          "ticks": 35520,
          "durationTicks": 479
        },
        {
          "time": 37.5,
          "midi": 59,
          "name": "B3",
          "velocity": 0.7559055118110236,
          "duration": 0.4989583333333343,
          "ticks": 36000,
          "durationTicks": 479
        },
        {
          "time": 38,
          "midi": 59,
          "name": "B3",
          "velocity": 0.7559055118110236,
          "duration": 0.7489583333333343,
          "ticks": 36480,
          "durationTicks": 719
        },
        {
          "time": 38.75,
          "midi": 57,
          "name": "A3",
          "velocity": 0.7559055118110236,
          "duration": 0.24895833333333428,
          "ticks": 37200,
          "durationTicks": 239
        },
        {
          "time": 39,
          "midi": 57,
          "name": "A3",
          "velocity": 0.7559055118110236,
          "duration": 0.9989583333333343,
          "ticks": 37440,
          "durationTicks": 959
        },
        {
          "time": 40,
          "midi": 59,
          "name": "B3",
          "velocity": 0.7559055118110236,
          "duration": 0.4989583333333343,
          "ticks": 38400,
          "durationTicks": 479
        },
        {
          "time": 40.5,
          "midi": 59,
          "name": "B3",
          "velocity": 0.7559055118110236,
          "duration": 0.4989583333333343,
          "ticks": 38880,
          "durationTicks": 479
        },
        {
          "time": 41,
          "midi": 60,
          "name": "C4",
          "velocity": 0.7559055118110236,
          "duration": 0.4989583333333343,
          "ticks": 39360,
          "durationTicks": 479
        },
        {
          "time": 41.5,
          "midi": 62,
          "name": "D4",
          "velocity": 0.7559055118110236,
          "duration": 0.4989583333333343,
          "ticks": 39840,
          "durationTicks": 479
        },
        {
          "time": 42,
          "midi": 62,
          "name": "D4",
          "velocity": 0.7559055118110236,
          "duration": 0.4989583333333343,
          "ticks": 40320,
          "durationTicks": 479
        },
        {
          "time": 42.5,
          "midi": 60,
          "name": "C4",
          "velocity": 0.7559055118110236,
          "duration": 0.4989583333333343,
          "ticks": 40800,
          "durationTicks": 479
        },
        {
          "time": 43,
          "midi": 59,
          "name": "B3",
          "velocity": 0.7559055118110236,
          "duration": 0.4989583333333343,
          "ticks": 41280,
          "durationTicks": 479
        },
        {
          "time": 43.5,
          "midi": 60,
          "name": "C4",
          "velocity": 0.7559055118110236,
          "duration": 0.24895833333333428,
          "ticks": 41760,
          "durationTicks": 239
        },
        {
          "time": 43.75,
          "midi": 57,
          "name": "A3",
          "velocity": 0.7559055118110236,
          "duration": 0.24895833333333428,
          "ticks": 42000,
          "durationTicks": 239
        },
        {
          "time": 44,
          "midi": 55,
          "name": "G3",
          "velocity": 0.7559055118110236,
          "duration": 0.4989583333333343,
          "ticks": 42240,
          "durationTicks": 479
        },
        {
          "time": 44.5,
          "midi": 55,
          "name": "G3",
          "velocity": 0.7559055118110236,
          "duration": 0.4989583333333343,
          "ticks": 42720,
          "durationTicks": 479
        },
        {
          "time": 45,
          "midi": 57,
          "name": "A3",
          "velocity": 0.7559055118110236,
          "duration": 0.4989583333333343,
          "ticks": 43200,
          "durationTicks": 479
        },
        {
          "time": 45.5,
          "midi": 59,
          "name": "B3",
          "velocity": 0.7559055118110236,
          "duration": 0.4989583333333343,
          "ticks": 43680,
          "durationTicks": 479
        },
        {
          "time": 46,
          "midi": 57,
          "name": "A3",
          "velocity": 0.7559055118110236,
          "duration": 0.7489583333333343,
          "ticks": 44160,
          "durationTicks": 719
        },
        {
          "time": 46.75,
          "midi": 55,
          "name": "G3",
          "velocity": 0.7559055118110236,
          "duration": 0.24895833333333428,
          "ticks": 44880,
          "durationTicks": 239
        },
        {
          "time": 47,
          "midi": 55,
          "name": "G3",
          "velocity": 0.7559055118110236,
          "duration": 0.9989583333333343,
          "ticks": 45120,
          "durationTicks": 959
        },
        {
          "time": 48,
          "midi": 57,
          "name": "A3",
          "velocity": 0.7559055118110236,
          "duration": 0.24895833333333428,
          "ticks": 46080,
          "durationTicks": 239
        },
        {
          "time": 48.25,
          "midi": 57,
          "name": "A3",
          "velocity": 0.7559055118110236,
          "duration": 0.12395833333333428,
          "ticks": 46320,
          "durationTicks": 119
        },
        {
          "time": 48.375,
          "midi": 57,
          "name": "A3",
          "velocity": 0.7559055118110236,
          "duration": 0.12395833333333428,
          "ticks": 46440,
          "durationTicks": 119
        },
        {
          "time": 48.5,
          "midi": 57,
          "name": "A3",
          "velocity": 0.7559055118110236,
          "duration": 0.24895833333333428,
          "ticks": 46560,
          "durationTicks": 239
        },
        {
          "time": 48.75,
          "midi": 57,
          "name": "A3",
          "velocity": 0.7559055118110236,
          "duration": 0.24895833333333428,
          "ticks": 46800,
          "durationTicks": 239
        },
        {
          "time": 49,
          "midi": 59,
          "name": "B3",
          "velocity": 0.7559055118110236,
          "duration": 0.4989583333333343,
          "ticks": 47040,
          "durationTicks": 479
        },
        {
          "time": 49.5,
          "midi": 55,
          "name": "G3",
          "velocity": 0.7559055118110236,
          "duration": 0.4989583333333343,
          "ticks": 47520,
          "durationTicks": 479
        },
        {
          "time": 50,
          "midi": 57,
          "name": "A3",
          "velocity": 0.7559055118110236,
          "duration": 0.24895833333333428,
          "ticks": 48000,
          "durationTicks": 239
        },
        {
          "time": 50.25,
          "midi": 57,
          "name": "A3",
          "velocity": 0.7559055118110236,
          "duration": 0.12395833333333428,
          "ticks": 48240,
          "durationTicks": 119
        },
        {
          "time": 50.375,
          "midi": 57,
          "name": "A3",
          "velocity": 0.7559055118110236,
          "duration": 0.12395833333333428,
          "ticks": 48360,
          "durationTicks": 119
        },
        {
          "time": 50.5,
          "midi": 59,
          "name": "B3",
          "velocity": 0.7559055118110236,
          "duration": 0.24895833333333428,
          "ticks": 48480,
          "durationTicks": 239
        },
        {
          "time": 50.75,
          "midi": 60,
          "name": "C4",
          "velocity": 0.7559055118110236,
          "duration": 0.24895833333333428,
          "ticks": 48720,
          "durationTicks": 239
        },
        {
          "time": 51,
          "midi": 59,
          "name": "B3",
          "velocity": 0.7559055118110236,
          "duration": 0.4989583333333343,
          "ticks": 48960,
          "durationTicks": 479
        },
        {
          "time": 51.5,
          "midi": 55,
          "name": "G3",
          "velocity": 0.7559055118110236,
          "duration": 0.4989583333333343,
          "ticks": 49440,
          "durationTicks": 479
        },
        {
          "time": 52,
          "midi": 57,
          "name": "A3",
          "velocity": 0.7559055118110236,
          "duration": 0.24895833333333428,
          "ticks": 49920,
          "durationTicks": 239
        },
        {
          "time": 52.25,
          "midi": 57,
          "name": "A3",
          "velocity": 0.7559055118110236,
          "duration": 0.12395833333333428,
          "ticks": 50160,
          "durationTicks": 119
        },
        {
          "time": 52.375,
          "midi": 57,
          "name": "A3",
          "velocity": 0.7559055118110236,
          "duration": 0.12395833333333428,
          "ticks": 50280,
          "durationTicks": 119
        },
        {
          "time": 52.5,
          "midi": 59,
          "name": "B3",
          "velocity": 0.7559055118110236,
          "duration": 0.24895833333333428,
          "ticks": 50400,
          "durationTicks": 239
        },
        {
          "time": 52.75,
          "midi": 60,
          "name": "C4",
          "velocity": 0.7559055118110236,
          "duration": 0.24895833333333428,
          "ticks": 50640,
          "durationTicks": 239
        },
        {
          "time": 53,
          "midi": 59,
          "name": "B3",
          "velocity": 0.7559055118110236,
          "duration": 0.24895833333333428,
          "ticks": 50880,
          "durationTicks": 239
        },
        {
          "time": 53.25,
          "midi": 59,
          "name": "B3",
          "velocity": 0.7559055118110236,
          "duration": 0.12395833333333428,
          "ticks": 51120,
          "durationTicks": 119
        },
        {
          "time": 53.375,
          "midi": 59,
          "name": "B3",
          "velocity": 0.7559055118110236,
          "duration": 0.12395833333333428,
          "ticks": 51240,
          "durationTicks": 119
        },
        {
          "time": 53.5,
          "midi": 57,
          "name": "A3",
          "velocity": 0.7559055118110236,
          "duration": 0.24895833333333428,
          "ticks": 51360,
          "durationTicks": 239
        },
        {
          "time": 53.75,
          "midi": 57,
          "name": "A3",
          "velocity": 0.7559055118110236,
          "duration": 0.24895833333333428,
          "ticks": 51600,
          "durationTicks": 239
        },
        {
          "time": 54,
          "midi": 55,
          "name": "G3",
          "velocity": 0.7559055118110236,
          "duration": 0.24895833333333428,
          "ticks": 51840,
          "durationTicks": 239
        },
        {
          "time": 54.25,
          "midi": 55,
          "name": "G3",
          "velocity": 0.7559055118110236,
          "duration": 0.12395833333333428,
          "ticks": 52080,
          "durationTicks": 119
        },
        {
          "time": 54.375,
          "midi": 55,
          "name": "G3",
          "velocity": 0.7559055118110236,
          "duration": 0.12395833333333428,
          "ticks": 52200,
          "durationTicks": 119
        },
        {
          "time": 54.5,
          "midi": 61,
          "name": "C#4",
          "velocity": 0.7559055118110236,
          "duration": 0.24895833333333428,
          "ticks": 52320,
          "durationTicks": 239
        },
        {
          "time": 54.75,
          "midi": 61,
          "name": "C#4",
          "velocity": 0.7559055118110236,
          "duration": 0.24895833333333428,
          "ticks": 52560,
          "durationTicks": 239
        },
        {
          "time": 55,
          "midi": 62,
          "name": "D4",
          "velocity": 0.7559055118110236,
          "duration": 0.4989583333333343,
          "ticks": 52800,
          "durationTicks": 479
        },
        {
          "time": 56,
          "midi": 43,
          "name": "G2",
          "velocity": 0.7559055118110236,
          "duration": 1.9989583333333343,
          "ticks": 53760,
          "durationTicks": 1919
        },
        {
          "time": 58,
          "midi": 36,
          "name": "C2",
          "velocity": 0.7559055118110236,
          "duration": 1.9989583333333343,
          "ticks": 55680,
          "durationTicks": 1919
        },
        {
          "time": 60,
          "midi": 38,
          "name": "D2",
          "velocity": 0.7559055118110236,
          "duration": 1.9989583333333343,
          "ticks": 57600,
          "durationTicks": 1919
        },
        {
          "time": 62,
          "midi": 38,
          "name": "D2",
          "velocity": 0.7559055118110236,
          "duration": 0.9989583333333343,
          "ticks": 59520,
          "durationTicks": 959
        },
        {
          "time": 63,
          "midi": 43,
          "name": "G2",
          "velocity": 0.7559055118110236,
          "duration": 0.9989583333333343,
          "ticks": 60480,
          "durationTicks": 959
        },
        {
          "time": 80,
          "midi": 57,
          "name": "A3",
          "velocity": 0.7559055118110236,
          "duration": 0.24895833333333428,
          "ticks": 76800,
          "durationTicks": 239
        },
        {
          "time": 80.25,
          "midi": 57,
          "name": "A3",
          "velocity": 0.7559055118110236,
          "duration": 0.12395833333333428,
          "ticks": 77040,
          "durationTicks": 119
        },
        {
          "time": 80.375,
          "midi": 57,
          "name": "A3",
          "velocity": 0.7559055118110236,
          "duration": 0.12395833333333428,
          "ticks": 77160,
          "durationTicks": 119
        },
        {
          "time": 80.5,
          "midi": 57,
          "name": "A3",
          "velocity": 0.7559055118110236,
          "duration": 0.24895833333333428,
          "ticks": 77280,
          "durationTicks": 239
        },
        {
          "time": 80.75,
          "midi": 57,
          "name": "A3",
          "velocity": 0.7559055118110236,
          "duration": 0.24895833333333428,
          "ticks": 77520,
          "durationTicks": 239
        },
        {
          "time": 81,
          "midi": 59,
          "name": "B3",
          "velocity": 0.7559055118110236,
          "duration": 0.4989583333333343,
          "ticks": 77760,
          "durationTicks": 479
        },
        {
          "time": 81.5,
          "midi": 55,
          "name": "G3",
          "velocity": 0.7559055118110236,
          "duration": 0.4989583333333343,
          "ticks": 78240,
          "durationTicks": 479
        },
        {
          "time": 82,
          "midi": 57,
          "name": "A3",
          "velocity": 0.7559055118110236,
          "duration": 0.24895833333333428,
          "ticks": 78720,
          "durationTicks": 239
        },
        {
          "time": 82.25,
          "midi": 57,
          "name": "A3",
          "velocity": 0.7559055118110236,
          "duration": 0.12395833333333428,
          "ticks": 78960,
          "durationTicks": 119
        },
        {
          "time": 82.375,
          "midi": 57,
          "name": "A3",
          "velocity": 0.7559055118110236,
          "duration": 0.12395833333333428,
          "ticks": 79080,
          "durationTicks": 119
        },
        {
          "time": 82.5,
          "midi": 59,
          "name": "B3",
          "velocity": 0.7559055118110236,
          "duration": 0.24895833333333428,
          "ticks": 79200,
          "durationTicks": 239
        },
        {
          "time": 82.75,
          "midi": 60,
          "name": "C4",
          "velocity": 0.7559055118110236,
          "duration": 0.24895833333333428,
          "ticks": 79440,
          "durationTicks": 239
        },
        {
          "time": 83,
          "midi": 59,
          "name": "B3",
          "velocity": 0.7559055118110236,
          "duration": 0.4989583333333343,
          "ticks": 79680,
          "durationTicks": 479
        },
        {
          "time": 83.5,
          "midi": 55,
          "name": "G3",
          "velocity": 0.7559055118110236,
          "duration": 0.4989583333333343,
          "ticks": 80160,
          "durationTicks": 479
        },
        {
          "time": 84,
          "midi": 57,
          "name": "A3",
          "velocity": 0.7559055118110236,
          "duration": 0.24895833333333428,
          "ticks": 80640,
          "durationTicks": 239
        },
        {
          "time": 84.25,
          "midi": 57,
          "name": "A3",
          "velocity": 0.7559055118110236,
          "duration": 0.12395833333333428,
          "ticks": 80880,
          "durationTicks": 119
        },
        {
          "time": 84.375,
          "midi": 57,
          "name": "A3",
          "velocity": 0.7559055118110236,
          "duration": 0.12395833333333428,
          "ticks": 81000,
          "durationTicks": 119
        },
        {
          "time": 84.5,
          "midi": 59,
          "name": "B3",
          "velocity": 0.7559055118110236,
          "duration": 0.24895833333333428,
          "ticks": 81120,
          "durationTicks": 239
        },
        {
          "time": 84.75,
          "midi": 60,
          "name": "C4",
          "velocity": 0.7559055118110236,
          "duration": 0.24895833333333428,
          "ticks": 81360,
          "durationTicks": 239
        },
        {
          "time": 85,
          "midi": 59,
          "name": "B3",
          "velocity": 0.7559055118110236,
          "duration": 0.24895833333333428,
          "ticks": 81600,
          "durationTicks": 239
        },
        {
          "time": 85.25,
          "midi": 59,
          "name": "B3",
          "velocity": 0.7559055118110236,
          "duration": 0.12395833333333428,
          "ticks": 81840,
          "durationTicks": 119
        },
        {
          "time": 85.375,
          "midi": 59,
          "name": "B3",
          "velocity": 0.7559055118110236,
          "duration": 0.12395833333333428,
          "ticks": 81960,
          "durationTicks": 119
        },
        {
          "time": 85.5,
          "midi": 57,
          "name": "A3",
          "velocity": 0.7559055118110236,
          "duration": 0.24895833333333428,
          "ticks": 82080,
          "durationTicks": 239
        },
        {
          "time": 85.75,
          "midi": 57,
          "name": "A3",
          "velocity": 0.7559055118110236,
          "duration": 0.24895833333333428,
          "ticks": 82320,
          "durationTicks": 239
        },
        {
          "time": 86,
          "midi": 55,
          "name": "G3",
          "velocity": 0.7559055118110236,
          "duration": 0.24895833333333428,
          "ticks": 82560,
          "durationTicks": 239
        },
        {
          "time": 86.25,
          "midi": 55,
          "name": "G3",
          "velocity": 0.7559055118110236,
          "duration": 0.12395833333333428,
          "ticks": 82800,
          "durationTicks": 119
        },
        {
          "time": 86.375,
          "midi": 55,
          "name": "G3",
          "velocity": 0.7559055118110236,
          "duration": 0.12395833333333428,
          "ticks": 82920,
          "durationTicks": 119
        },
        {
          "time": 86.5,
          "midi": 61,
          "name": "C#4",
          "velocity": 0.7559055118110236,
          "duration": 0.24895833333333428,
          "ticks": 83040,
          "durationTicks": 239
        },
        {
          "time": 86.75,
          "midi": 61,
          "name": "C#4",
          "velocity": 0.7559055118110236,
          "duration": 0.24895833333333428,
          "ticks": 83280,
          "durationTicks": 239
        },
        {
          "time": 87,
          "midi": 62,
          "name": "D4",
          "velocity": 0.7559055118110236,
          "duration": 0.4989583333333343,
          "ticks": 83520,
          "durationTicks": 479
        },
        {
          "time": 88,
          "midi": 43,
          "name": "G2",
          "velocity": 0.7559055118110236,
          "duration": 1.9989583333333343,
          "ticks": 84480,
          "durationTicks": 1919
        },
        {
          "time": 90,
          "midi": 36,
          "name": "C2",
          "velocity": 0.7559055118110236,
          "duration": 1.9989583333333343,
          "ticks": 86400,
          "durationTicks": 1919
        },
        {
          "time": 92,
          "midi": 38,
          "name": "D2",
          "velocity": 0.7559055118110236,
          "duration": 1.9989583333333343,
          "ticks": 88320,
          "durationTicks": 1919
        },
        {
          "time": 94,
          "midi": 38,
          "name": "D2",
          "velocity": 0.7559055118110236,
          "duration": 0.9989583333333343,
          "ticks": 90240,
          "durationTicks": 959
        },
        {
          "time": 95,
          "midi": 43,
          "name": "G2",
          "velocity": 0.7559055118110236,
          "duration": 0.9989583333333343,
          "ticks": 91200,
          "durationTicks": 959
        },
        {
          "time": 96,
          "midi": 62,
          "name": "D4",
          "velocity": 0.5039370078740157,
          "duration": 0.4989583333333343,
          "ticks": 92160,
          "durationTicks": 479
        },
        {
          "time": 96.5,
          "midi": 59,
          "name": "B3",
          "velocity": 0.5039370078740157,
          "duration": 0.4989583333333343,
          "ticks": 92640,
          "durationTicks": 479
        },
        {
          "time": 97,
          "midi": 57,
          "name": "A3",
          "velocity": 0.5039370078740157,
          "duration": 0.4989583333333343,
          "ticks": 93120,
          "durationTicks": 479
        },
        {
          "time": 97.5,
          "midi": 55,
          "name": "G3",
          "velocity": 0.5039370078740157,
          "duration": 0.4989583333333343,
          "ticks": 93600,
          "durationTicks": 479
        },
        {
          "time": 100,
          "midi": 38,
          "name": "D2",
          "velocity": 0.5039370078740157,
          "duration": 1.9989583333333343,
          "ticks": 96000,
          "durationTicks": 1919
        },
        {
          "time": 102,
          "midi": 38,
          "name": "D2",
          "velocity": 0.5039370078740157,
          "duration": 0.9989583333333343,
          "ticks": 97920,
          "durationTicks": 959
        },
        {
          "time": 103,
          "midi": 43,
          "name": "G2",
          "velocity": 0.5039370078740157,
          "duration": 0.9989583333333343,
          "ticks": 98880,
          "durationTicks": 959
        }
      ],
      "controlChanges": {
        "7": [
          {
            "number": 7,
            "value": 0.7874015748031497,
            "time": 0,
            "ticks": 0
          }
        ],
        "10": [
          {
            "number": 10,
            "value": 0.5039370078740157,
            "time": 0,
            "ticks": 0
          }
        ],
        "91": [
          {
            "number": 91,
            "value": 0,
            "time": 0,
            "ticks": 0
          }
        ],
        "93": [
          {
            "number": 93,
            "value": 0,
            "time": 0,
            "ticks": 0
          }
        ],
        "121": [
          {
            "number": 121,
            "value": 0,
            "time": 0,
            "ticks": 0
          }
        ]
      }
    },
    {
      "name": "Tuba",
      "channel": 0,
      "instrument": {
        "number": 58,
        "name": "tuba",
        "family": "brass"
      },
      "notes": [
        {
          "time": 0,
          "midi": 43,
          "name": "G2",
          "velocity": 0.6299212598425197,
          "duration": 1.9989583333333334,
          "ticks": 0,
          "durationTicks": 1919
        },
        {
          "time": 2,
          "midi": 38,
          "name": "D2",
          "velocity": 0.6299212598425197,
          "duration": 1.9989583333333334,
          "ticks": 1920,
          "durationTicks": 1919
        },
        {
          "time": 4,
          "midi": 43,
          "name": "G2",
          "velocity": 0.6299212598425197,
          "duration": 1.9989583333333334,
          "ticks": 3840,
          "durationTicks": 1919
        },
        {
          "time": 6,
          "midi": 38,
          "name": "D2",
          "velocity": 0.6299212598425197,
          "duration": 1.9989583333333334,
          "ticks": 5760,
          "durationTicks": 1919
        },
        {
          "time": 8,
          "midi": 43,
          "name": "G2",
          "velocity": 0.6299212598425197,
          "duration": 1.9989583333333325,
          "ticks": 7680,
          "durationTicks": 1919
        },
        {
          "time": 10,
          "midi": 36,
          "name": "C2",
          "velocity": 0.6299212598425197,
          "duration": 1.9989583333333325,
          "ticks": 9600,
          "durationTicks": 1919
        },
        {
          "time": 12,
          "midi": 38,
          "name": "D2",
          "velocity": 0.6299212598425197,
          "duration": 1.9989583333333325,
          "ticks": 11520,
          "durationTicks": 1919
        },
        {
          "time": 14,
          "midi": 38,
          "name": "D2",
          "velocity": 0.6299212598425197,
          "duration": 0.9989583333333325,
          "ticks": 13440,
          "durationTicks": 959
        },
        {
          "time": 15,
          "midi": 43,
          "name": "G2",
          "velocity": 0.6299212598425197,
          "duration": 0.9989583333333325,
          "ticks": 14400,
          "durationTicks": 959
        },
        {
          "time": 16,
          "midi": 38,
          "name": "D2",
          "velocity": 0.7559055118110236,
          "duration": 0.9989583333333343,
          "ticks": 15360,
          "durationTicks": 959
        },
        {
          "time": 17,
          "midi": 38,
          "name": "D2",
          "velocity": 0.7559055118110236,
          "duration": 0.9989583333333343,
          "ticks": 16320,
          "durationTicks": 959
        },
        {
          "time": 18,
          "midi": 38,
          "name": "D2",
          "velocity": 0.7559055118110236,
          "duration": 0.9989583333333343,
          "ticks": 17280,
          "durationTicks": 959
        },
        {
          "time": 19,
          "midi": 38,
          "name": "D2",
          "velocity": 0.7559055118110236,
          "duration": 0.9989583333333343,
          "ticks": 18240,
          "durationTicks": 959
        },
        {
          "time": 20,
          "midi": 38,
          "name": "D2",
          "velocity": 0.7559055118110236,
          "duration": 0.9989583333333343,
          "ticks": 19200,
          "durationTicks": 959
        },
        {
          "time": 21,
          "midi": 39,
          "name": "D#2",
          "velocity": 0.7559055118110236,
          "duration": 0.9989583333333343,
          "ticks": 20160,
          "durationTicks": 959
        },
        {
          "time": 22,
          "midi": 40,
          "name": "E2",
          "velocity": 0.7559055118110236,
          "duration": 0.4989583333333343,
          "ticks": 21120,
          "durationTicks": 479
        },
        {
          "time": 22.5,
          "midi": 45,
          "name": "A2",
          "velocity": 0.7559055118110236,
          "duration": 0.4989583333333343,
          "ticks": 21600,
          "durationTicks": 479
        },
        {
          "time": 23,
          "midi": 38,
          "name": "D2",
          "velocity": 0.7559055118110236,
          "duration": 0.9989583333333343,
          "ticks": 22080,
          "durationTicks": 959
        },
        {
          "time": 24,
          "midi": 43,
          "name": "G2",
          "velocity": 0.7559055118110236,
          "duration": 1.9989583333333343,
          "ticks": 23040,
          "durationTicks": 1919
        },
        {
          "time": 26,
          "midi": 36,
          "name": "C2",
          "velocity": 0.7559055118110236,
          "duration": 1.9989583333333343,
          "ticks": 24960,
          "durationTicks": 1919
        },
        {
          "time": 28,
          "midi": 38,
          "name": "D2",
          "velocity": 0.7559055118110236,
          "duration": 1.9989583333333343,
          "ticks": 26880,
          "durationTicks": 1919
        },
        {
          "time": 30,
          "midi": 38,
          "name": "D2",
          "velocity": 0.7559055118110236,
          "duration": 0.9989583333333343,
          "ticks": 28800,
          "durationTicks": 959
        },
        {
          "time": 31,
          "midi": 43,
          "name": "G2",
          "velocity": 0.7559055118110236,
          "duration": 0.9989583333333343,
          "ticks": 29760,
          "durationTicks": 959
        },
        {
          "time": 32,
          "midi": 59,
          "name": "B3",
          "velocity": 0.7559055118110236,
          "duration": 0.4989583333333343,
          "ticks": 30720,
          "durationTicks": 479
        },
        {
          "time": 32.5,
          "midi": 59,
          "name": "B3",
          "velocity": 0.7559055118110236,
          "duration": 0.4989583333333343,
          "ticks": 31200,
          "durationTicks": 479
        },
        {
          "time": 33,
          "midi": 60,
          "name": "C4",
          "velocity": 0.7559055118110236,
          "duration": 0.4989583333333343,
          "ticks": 31680,
          "durationTicks": 479
        },
        {
          "time": 33.5,
          "midi": 62,
          "name": "D4",
          "velocity": 0.7559055118110236,
          "duration": 0.4989583333333343,
          "ticks": 32160,
          "durationTicks": 479
        },
        {
          "time": 34,
          "midi": 62,
          "name": "D4",
          "velocity": 0.7559055118110236,
          "duration": 0.4989583333333343,
          "ticks": 32640,
          "durationTicks": 479
        },
        {
          "time": 34.5,
          "midi": 60,
          "name": "C4",
          "velocity": 0.7559055118110236,
          "duration": 0.4989583333333343,
          "ticks": 33120,
          "durationTicks": 479
        },
        {
          "time": 35,
          "midi": 59,
          "name": "B3",
          "velocity": 0.7559055118110236,
          "duration": 0.4989583333333343,
          "ticks": 33600,
          "durationTicks": 479
        },
        {
          "time": 35.5,
          "midi": 57,
          "name": "A3",
          "velocity": 0.7559055118110236,
          "duration": 0.4989583333333343,
          "ticks": 34080,
          "durationTicks": 479
        },
        {
          "time": 36,
          "midi": 55,
          "name": "G3",
          "velocity": 0.7559055118110236,
          "duration": 0.4989583333333343,
          "ticks": 34560,
          "durationTicks": 479
        },
        {
          "time": 36.5,
          "midi": 55,
          "name": "G3",
          "velocity": 0.7559055118110236,
          "duration": 0.4989583333333343,
          "ticks": 35040,
          "durationTicks": 479
        },
        {
          "time": 37,
          "midi": 57,
          "name": "A3",
          "velocity": 0.7559055118110236,
          "duration": 0.4989583333333343,
          "ticks": 35520,
          "durationTicks": 479
        },
        {
          "time": 37.5,
          "midi": 59,
          "name": "B3",
          "velocity": 0.7559055118110236,
          "duration": 0.4989583333333343,
          "ticks": 36000,
          "durationTicks": 479
        },
        {
          "time": 38,
          "midi": 59,
          "name": "B3",
          "velocity": 0.7559055118110236,
          "duration": 0.7489583333333343,
          "ticks": 36480,
          "durationTicks": 719
        },
        {
          "time": 38.75,
          "midi": 57,
          "name": "A3",
          "velocity": 0.7559055118110236,
          "duration": 0.24895833333333428,
          "ticks": 37200,
          "durationTicks": 239
        },
        {
          "time": 39,
          "midi": 57,
          "name": "A3",
          "velocity": 0.7559055118110236,
          "duration": 0.9989583333333343,
          "ticks": 37440,
          "durationTicks": 959
        },
        {
          "time": 40,
          "midi": 59,
          "name": "B3",
          "velocity": 0.7559055118110236,
          "duration": 0.4989583333333343,
          "ticks": 38400,
          "durationTicks": 479
        },
        {
          "time": 40.5,
          "midi": 59,
          "name": "B3",
          "velocity": 0.7559055118110236,
          "duration": 0.4989583333333343,
          "ticks": 38880,
          "durationTicks": 479
        },
        {
          "time": 41,
          "midi": 60,
          "name": "C4",
          "velocity": 0.7559055118110236,
          "duration": 0.4989583333333343,
          "ticks": 39360,
          "durationTicks": 479
        },
        {
          "time": 41.5,
          "midi": 62,
          "name": "D4",
          "velocity": 0.7559055118110236,
          "duration": 0.4989583333333343,
          "ticks": 39840,
          "durationTicks": 479
        },
        {
          "time": 42,
          "midi": 62,
          "name": "D4",
          "velocity": 0.7559055118110236,
          "duration": 0.4989583333333343,
          "ticks": 40320,
          "durationTicks": 479
        },
        {
          "time": 42.5,
          "midi": 60,
          "name": "C4",
          "velocity": 0.7559055118110236,
          "duration": 0.4989583333333343,
          "ticks": 40800,
          "durationTicks": 479
        },
        {
          "time": 43,
          "midi": 59,
          "name": "B3",
          "velocity": 0.7559055118110236,
          "duration": 0.4989583333333343,
          "ticks": 41280,
          "durationTicks": 479
        },
        {
          "time": 43.5,
          "midi": 60,
          "name": "C4",
          "velocity": 0.7559055118110236,
          "duration": 0.24895833333333428,
          "ticks": 41760,
          "durationTicks": 239
        },
        {
          "time": 43.75,
          "midi": 57,
          "name": "A3",
          "velocity": 0.7559055118110236,
          "duration": 0.24895833333333428,
          "ticks": 42000,
          "durationTicks": 239
        },
        {
          "time": 44,
          "midi": 55,
          "name": "G3",
          "velocity": 0.7559055118110236,
          "duration": 0.4989583333333343,
          "ticks": 42240,
          "durationTicks": 479
        },
        {
          "time": 44.5,
          "midi": 55,
          "name": "G3",
          "velocity": 0.7559055118110236,
          "duration": 0.4989583333333343,
          "ticks": 42720,
          "durationTicks": 479
        },
        {
          "time": 45,
          "midi": 57,
          "name": "A3",
          "velocity": 0.7559055118110236,
          "duration": 0.4989583333333343,
          "ticks": 43200,
          "durationTicks": 479
        },
        {
          "time": 45.5,
          "midi": 59,
          "name": "B3",
          "velocity": 0.7559055118110236,
          "duration": 0.4989583333333343,
          "ticks": 43680,
          "durationTicks": 479
        },
        {
          "time": 46,
          "midi": 57,
          "name": "A3",
          "velocity": 0.7559055118110236,
          "duration": 0.7489583333333343,
          "ticks": 44160,
          "durationTicks": 719
        },
        {
          "time": 46.75,
          "midi": 55,
          "name": "G3",
          "velocity": 0.7559055118110236,
          "duration": 0.24895833333333428,
          "ticks": 44880,
          "durationTicks": 239
        },
        {
          "time": 47,
          "midi": 55,
          "name": "G3",
          "velocity": 0.7559055118110236,
          "duration": 0.9989583333333343,
          "ticks": 45120,
          "durationTicks": 959
        },
        {
          "time": 48,
          "midi": 38,
          "name": "D2",
          "velocity": 0.7559055118110236,
          "duration": 0.9989583333333343,
          "ticks": 46080,
          "durationTicks": 959
        },
        {
          "time": 49,
          "midi": 38,
          "name": "D2",
          "velocity": 0.7559055118110236,
          "duration": 0.9989583333333343,
          "ticks": 47040,
          "durationTicks": 959
        },
        {
          "time": 50,
          "midi": 38,
          "name": "D2",
          "velocity": 0.7559055118110236,
          "duration": 0.9989583333333343,
          "ticks": 48000,
          "durationTicks": 959
        },
        {
          "time": 51,
          "midi": 38,
          "name": "D2",
          "velocity": 0.7559055118110236,
          "duration": 0.9989583333333343,
          "ticks": 48960,
          "durationTicks": 959
        },
        {
          "time": 52,
          "midi": 38,
          "name": "D2",
          "velocity": 0.7559055118110236,
          "duration": 0.9989583333333343,
          "ticks": 49920,
          "durationTicks": 959
        },
        {
          "time": 53,
          "midi": 39,
          "name": "D#2",
          "velocity": 0.7559055118110236,
          "duration": 0.9989583333333343,
          "ticks": 50880,
          "durationTicks": 959
        },
        {
          "time": 54,
          "midi": 40,
          "name": "E2",
          "velocity": 0.7559055118110236,
          "duration": 0.4989583333333343,
          "ticks": 51840,
          "durationTicks": 479
        },
        {
          "time": 54.5,
          "midi": 45,
          "name": "A2",
          "velocity": 0.7559055118110236,
          "duration": 0.4989583333333343,
          "ticks": 52320,
          "durationTicks": 479
        },
        {
          "time": 55,
          "midi": 38,
          "name": "D2",
          "velocity": 0.7559055118110236,
          "duration": 0.9989583333333343,
          "ticks": 52800,
          "durationTicks": 959
        },
        {
          "time": 56,
          "midi": 43,
          "name": "G2",
          "velocity": 0.7559055118110236,
          "duration": 1.9989583333333343,
          "ticks": 53760,
          "durationTicks": 1919
        },
        {
          "time": 58,
          "midi": 36,
          "name": "C2",
          "velocity": 0.7559055118110236,
          "duration": 1.9989583333333343,
          "ticks": 55680,
          "durationTicks": 1919
        },
        {
          "time": 60,
          "midi": 38,
          "name": "D2",
          "velocity": 0.7559055118110236,
          "duration": 1.9989583333333343,
          "ticks": 57600,
          "durationTicks": 1919
        },
        {
          "time": 62,
          "midi": 38,
          "name": "D2",
          "velocity": 0.7559055118110236,
          "duration": 0.9989583333333343,
          "ticks": 59520,
          "durationTicks": 959
        },
        {
          "time": 63,
          "midi": 43,
          "name": "G2",
          "velocity": 0.7559055118110236,
          "duration": 0.9989583333333343,
          "ticks": 60480,
          "durationTicks": 959
        },
        {
          "time": 80,
          "midi": 38,
          "name": "D2",
          "velocity": 0.7559055118110236,
          "duration": 0.9989583333333343,
          "ticks": 76800,
          "durationTicks": 959
        },
        {
          "time": 81,
          "midi": 38,
          "name": "D2",
          "velocity": 0.7559055118110236,
          "duration": 0.9989583333333343,
          "ticks": 77760,
          "durationTicks": 959
        },
        {
          "time": 82,
          "midi": 38,
          "name": "D2",
          "velocity": 0.7559055118110236,
          "duration": 0.9989583333333343,
          "ticks": 78720,
          "durationTicks": 959
        },
        {
          "time": 83,
          "midi": 38,
          "name": "D2",
          "velocity": 0.7559055118110236,
          "duration": 0.9989583333333343,
          "ticks": 79680,
          "durationTicks": 959
        },
        {
          "time": 84,
          "midi": 38,
          "name": "D2",
          "velocity": 0.7559055118110236,
          "duration": 0.9989583333333343,
          "ticks": 80640,
          "durationTicks": 959
        },
        {
          "time": 85,
          "midi": 39,
          "name": "D#2",
          "velocity": 0.7559055118110236,
          "duration": 0.9989583333333343,
          "ticks": 81600,
          "durationTicks": 959
        },
        {
          "time": 86,
          "midi": 40,
          "name": "E2",
          "velocity": 0.7559055118110236,
          "duration": 0.4989583333333343,
          "ticks": 82560,
          "durationTicks": 479
        },
        {
          "time": 86.5,
          "midi": 45,
          "name": "A2",
          "velocity": 0.7559055118110236,
          "duration": 0.4989583333333343,
          "ticks": 83040,
          "durationTicks": 479
        },
        {
          "time": 87,
          "midi": 38,
          "name": "D2",
          "velocity": 0.7559055118110236,
          "duration": 0.9989583333333343,
          "ticks": 83520,
          "durationTicks": 959
        },
        {
          "time": 88,
          "midi": 43,
          "name": "G2",
          "velocity": 0.7559055118110236,
          "duration": 1.9989583333333343,
          "ticks": 84480,
          "durationTicks": 1919
        },
        {
          "time": 90,
          "midi": 36,
          "name": "C2",
          "velocity": 0.7559055118110236,
          "duration": 1.9989583333333343,
          "ticks": 86400,
          "durationTicks": 1919
        },
        {
          "time": 92,
          "midi": 38,
          "name": "D2",
          "velocity": 0.7559055118110236,
          "duration": 1.9989583333333343,
          "ticks": 88320,
          "durationTicks": 1919
        },
        {
          "time": 94,
          "midi": 38,
          "name": "D2",
          "velocity": 0.7559055118110236,
          "duration": 0.9989583333333343,
          "ticks": 90240,
          "durationTicks": 959
        },
        {
          "time": 95,
          "midi": 43,
          "name": "G2",
          "velocity": 0.7559055118110236,
          "duration": 0.9989583333333343,
          "ticks": 91200,
          "durationTicks": 959
        },
        {
          "time": 96,
          "midi": 50,
          "name": "D3",
          "velocity": 0.5039370078740157,
          "duration": 0.4989583333333343,
          "ticks": 92160,
          "durationTicks": 479
        },
        {
          "time": 96.5,
          "midi": 47,
          "name": "B2",
          "velocity": 0.5039370078740157,
          "duration": 0.4989583333333343,
          "ticks": 92640,
          "durationTicks": 479
        },
        {
          "time": 97,
          "midi": 45,
          "name": "A2",
          "velocity": 0.5039370078740157,
          "duration": 0.4989583333333343,
          "ticks": 93120,
          "durationTicks": 479
        },
        {
          "time": 97.5,
          "midi": 43,
          "name": "G2",
          "velocity": 0.5039370078740157,
          "duration": 0.4989583333333343,
          "ticks": 93600,
          "durationTicks": 479
        },
        {
          "time": 100,
          "midi": 38,
          "name": "D2",
          "velocity": 0.5039370078740157,
          "duration": 1.9989583333333343,
          "ticks": 96000,
          "durationTicks": 1919
        },
        {
          "time": 102,
          "midi": 38,
          "name": "D2",
          "velocity": 0.5039370078740157,
          "duration": 0.9989583333333343,
          "ticks": 97920,
          "durationTicks": 959
        },
        {
          "time": 103,
          "midi": 43,
          "name": "G2",
          "velocity": 0.5039370078740157,
          "duration": 0.9989583333333343,
          "ticks": 98880,
          "durationTicks": 959
        }
      ],
      "controlChanges": {
        "7": [
          {
            "number": 7,
            "value": 0.7874015748031497,
            "time": 0,
            "ticks": 0
          }
        ],
        "10": [
          {
            "number": 10,
            "value": 0.5039370078740157,
            "time": 0,
            "ticks": 0
          }
        ],
        "91": [
          {
            "number": 91,
            "value": 0,
            "time": 0,
            "ticks": 0
          }
        ],
        "93": [
          {
            "number": 93,
            "value": 0,
            "time": 0,
            "ticks": 0
          }
        ],
        "121": [
          {
            "number": 121,
            "value": 0,
            "time": 0,
            "ticks": 0
          }
        ]
      }
    },
    {
      "name": "Piano 2",
      "channel": 0,
      "instrument": {
        "number": 48,
        "name": "string ensemble 1",
        "family": "ensemble"
      },
      "notes": [
        {
          "time": 23.5,
          "midi": 57,
          "name": "A3",
          "velocity": 1,
          "duration": 0.4989583333333343,
          "ticks": 22560,
          "durationTicks": 479
        },
        {
          "time": 55.5,
          "midi": 57,
          "name": "A3",
          "velocity": 1,
          "duration": 0.4989583333333343,
          "ticks": 53280,
          "durationTicks": 479
        },
        {
          "time": 87.5,
          "midi": 57,
          "name": "A3",
          "velocity": 1,
          "duration": 0.4989583333333343,
          "ticks": 84000,
          "durationTicks": 479
        }
      ],
      "controlChanges": {
        "7": [
          {
            "number": 7,
            "value": 0.7874015748031497,
            "time": 0,
            "ticks": 0
          }
        ],
        "10": [
          {
            "number": 10,
            "value": 0.47244094488188976,
            "time": 0,
            "ticks": 0
          }
        ],
        "91": [
          {
            "number": 91,
            "value": 0,
            "time": 0,
            "ticks": 0
          }
        ],
        "93": [
          {
            "number": 93,
            "value": 0,
            "time": 0,
            "ticks": 0
          }
        ],
        "121": [
          {
            "number": 121,
            "value": 0,
            "time": 0,
            "ticks": 0
          }
        ]
      }
    },
    {
      "name": "Piano 3",
      "channel": 0,
      "instrument": {
        "number": 0,
        "name": "acoustic grand piano",
        "family": "piano"
      },
      "notes": [
        {
          "time": 0,
          "midi": 67,
          "name": "G4",
          "velocity": 0.6299212598425197,
          "duration": 0.4739583333333333,
          "ticks": 0,
          "durationTicks": 455
        },
        {
          "time": 0,
          "midi": 71,
          "name": "B4",
          "velocity": 0.6299212598425197,
          "duration": 0.4739583333333333,
          "ticks": 0,
          "durationTicks": 455
        },
        {
          "time": 0.5,
          "midi": 67,
          "name": "G4",
          "velocity": 0.6299212598425197,
          "duration": 0.47395833333333337,
          "ticks": 480,
          "durationTicks": 455
        },
        {
          "time": 0.5,
          "midi": 71,
          "name": "B4",
          "velocity": 0.6299212598425197,
          "duration": 0.47395833333333337,
          "ticks": 480,
          "durationTicks": 455
        },
        {
          "time": 1,
          "midi": 69,
          "name": "A4",
          "velocity": 0.6299212598425197,
          "duration": 0.47395833333333326,
          "ticks": 960,
          "durationTicks": 455
        },
        {
          "time": 1,
          "midi": 72,
          "name": "C5",
          "velocity": 0.6299212598425197,
          "duration": 0.47395833333333326,
          "ticks": 960,
          "durationTicks": 455
        },
        {
          "time": 1.5,
          "midi": 71,
          "name": "B4",
          "velocity": 0.6299212598425197,
          "duration": 0.47395833333333326,
          "ticks": 1440,
          "durationTicks": 455
        },
        {
          "time": 1.5,
          "midi": 74,
          "name": "D5",
          "velocity": 0.6299212598425197,
          "duration": 0.47395833333333326,
          "ticks": 1440,
          "durationTicks": 455
        },
        {
          "time": 2,
          "midi": 71,
          "name": "B4",
          "velocity": 0.6299212598425197,
          "duration": 0.4739583333333335,
          "ticks": 1920,
          "durationTicks": 455
        },
        {
          "time": 2,
          "midi": 74,
          "name": "D5",
          "velocity": 0.6299212598425197,
          "duration": 0.4739583333333335,
          "ticks": 1920,
          "durationTicks": 455
        },
        {
          "time": 2.5,
          "midi": 69,
          "name": "A4",
          "velocity": 0.6299212598425197,
          "duration": 0.4739583333333335,
          "ticks": 2400,
          "durationTicks": 455
        },
        {
          "time": 2.5,
          "midi": 72,
          "name": "C5",
          "velocity": 0.6299212598425197,
          "duration": 0.4739583333333335,
          "ticks": 2400,
          "durationTicks": 455
        },
        {
          "time": 3,
          "midi": 67,
          "name": "G4",
          "velocity": 0.6299212598425197,
          "duration": 0.4739583333333335,
          "ticks": 2880,
          "durationTicks": 455
        },
        {
          "time": 3,
          "midi": 71,
          "name": "B4",
          "velocity": 0.6299212598425197,
          "duration": 0.4739583333333335,
          "ticks": 2880,
          "durationTicks": 455
        },
        {
          "time": 3.5,
          "midi": 66,
          "name": "F#4",
          "velocity": 0.6299212598425197,
          "duration": 0.4739583333333335,
          "ticks": 3360,
          "durationTicks": 455
        },
        {
          "time": 3.5,
          "midi": 69,
          "name": "A4",
          "velocity": 0.6299212598425197,
          "duration": 0.4739583333333335,
          "ticks": 3360,
          "durationTicks": 455
        },
        {
          "time": 4,
          "midi": 62,
          "name": "D4",
          "velocity": 0.6299212598425197,
          "duration": 0.47395833333333304,
          "ticks": 3840,
          "durationTicks": 455
        },
        {
          "time": 4,
          "midi": 67,
          "name": "G4",
          "velocity": 0.6299212598425197,
          "duration": 0.47395833333333304,
          "ticks": 3840,
          "durationTicks": 455
        },
        {
          "time": 4.5,
          "midi": 62,
          "name": "D4",
          "velocity": 0.6299212598425197,
          "duration": 0.47395833333333304,
          "ticks": 4320,
          "durationTicks": 455
        },
        {
          "time": 4.5,
          "midi": 67,
          "name": "G4",
          "velocity": 0.6299212598425197,
          "duration": 0.47395833333333304,
          "ticks": 4320,
          "durationTicks": 455
        },
        {
          "time": 5,
          "midi": 66,
          "name": "F#4",
          "velocity": 0.6299212598425197,
          "duration": 0.47395833333333304,
          "ticks": 4800,
          "durationTicks": 455
        },
        {
          "time": 5,
          "midi": 69,
          "name": "A4",
          "velocity": 0.6299212598425197,
          "duration": 0.47395833333333304,
          "ticks": 4800,
          "durationTicks": 455
        },
        {
          "time": 5.5,
          "midi": 67,
          "name": "G4",
          "velocity": 0.6299212598425197,
          "duration": 0.47395833333333304,
          "ticks": 5280,
          "durationTicks": 455
        },
        {
          "time": 5.5,
          "midi": 71,
          "name": "B4",
          "velocity": 0.6299212598425197,
          "duration": 0.47395833333333304,
          "ticks": 5280,
          "durationTicks": 455
        },
        {
          "time": 6,
          "midi": 67,
          "name": "G4",
          "velocity": 0.6299212598425197,
          "duration": 0.7114583333333337,
          "ticks": 5760,
          "durationTicks": 683
        },
        {
          "time": 6,
          "midi": 71,
          "name": "B4",
          "velocity": 0.6299212598425197,
          "duration": 0.7114583333333337,
          "ticks": 5760,
          "durationTicks": 683
        },
        {
          "time": 6.75,
          "midi": 62,
          "name": "D4",
          "velocity": 0.6299212598425197,
          "duration": 0.23645833333333321,
          "ticks": 6480,
          "durationTicks": 227
        },
        {
          "time": 6.75,
          "midi": 69,
          "name": "A4",
          "velocity": 0.6299212598425197,
          "duration": 0.23645833333333321,
          "ticks": 6480,
          "durationTicks": 227
        },
        {
          "time": 7,
          "midi": 62,
          "name": "D4",
          "velocity": 0.6299212598425197,
          "duration": 0.9489583333333336,
          "ticks": 6720,
          "durationTicks": 911
        },
        {
          "time": 7,
          "midi": 69,
          "name": "A4",
          "velocity": 0.6299212598425197,
          "duration": 0.9489583333333336,
          "ticks": 6720,
          "durationTicks": 911
        },
        {
          "time": 8,
          "midi": 67,
          "name": "G4",
          "velocity": 0.6299212598425197,
          "duration": 0.4739583333333339,
          "ticks": 7680,
          "durationTicks": 455
        },
        {
          "time": 8,
          "midi": 71,
          "name": "B4",
          "velocity": 0.6299212598425197,
          "duration": 0.4739583333333339,
          "ticks": 7680,
          "durationTicks": 455
        },
        {
          "time": 8.5,
          "midi": 67,
          "name": "G4",
          "velocity": 0.6299212598425197,
          "duration": 0.4739583333333339,
          "ticks": 8160,
          "durationTicks": 455
        },
        {
          "time": 8.5,
          "midi": 71,
          "name": "B4",
          "velocity": 0.6299212598425197,
          "duration": 0.4739583333333339,
          "ticks": 8160,
          "durationTicks": 455
        },
        {
          "time": 9,
          "midi": 69,
          "name": "A4",
          "velocity": 0.6299212598425197,
          "duration": 0.4739583333333339,
          "ticks": 8640,
          "durationTicks": 455
        },
        {
          "time": 9,
          "midi": 72,
          "name": "C5",
          "velocity": 0.6299212598425197,
          "duration": 0.4739583333333339,
          "ticks": 8640,
          "durationTicks": 455
        },
        {
          "time": 9.5,
          "midi": 71,
          "name": "B4",
          "velocity": 0.6299212598425197,
          "duration": 0.4739583333333339,
          "ticks": 9120,
          "durationTicks": 455
        },
        {
          "time": 9.5,
          "midi": 74,
          "name": "D5",
          "velocity": 0.6299212598425197,
          "duration": 0.4739583333333339,
          "ticks": 9120,
          "durationTicks": 455
        },
        {
          "time": 10,
          "midi": 71,
          "name": "B4",
          "velocity": 0.6299212598425197,
          "duration": 0.4739583333333339,
          "ticks": 9600,
          "durationTicks": 455
        },
        {
          "time": 10,
          "midi": 74,
          "name": "D5",
          "velocity": 0.6299212598425197,
          "duration": 0.4739583333333339,
          "ticks": 9600,
          "durationTicks": 455
        },
        {
          "time": 10.5,
          "midi": 69,
          "name": "A4",
          "velocity": 0.6299212598425197,
          "duration": 0.4739583333333339,
          "ticks": 10080,
          "durationTicks": 455
        },
        {
          "time": 10.5,
          "midi": 72,
          "name": "C5",
          "velocity": 0.6299212598425197,
          "duration": 0.4739583333333339,
          "ticks": 10080,
          "durationTicks": 455
        },
        {
          "time": 11,
          "midi": 67,
          "name": "G4",
          "velocity": 0.6299212598425197,
          "duration": 0.4739583333333339,
          "ticks": 10560,
          "durationTicks": 455
        },
        {
          "time": 11,
          "midi": 71,
          "name": "B4",
          "velocity": 0.6299212598425197,
          "duration": 0.4739583333333339,
          "ticks": 10560,
          "durationTicks": 455
        },
        {
          "time": 11.5,
          "midi": 62,
          "name": "D4",
          "velocity": 0.6299212598425197,
          "duration": 0.4739583333333339,
          "ticks": 11040,
          "durationTicks": 455
        },
        {
          "time": 11.5,
          "midi": 69,
          "name": "A4",
          "velocity": 0.6299212598425197,
          "duration": 0.4739583333333339,
          "ticks": 11040,
          "durationTicks": 455
        },
        {
          "time": 12,
          "midi": 62,
          "name": "D4",
          "velocity": 0.6299212598425197,
          "duration": 0.4739583333333339,
          "ticks": 11520,
          "durationTicks": 455
        },
        {
          "time": 12,
          "midi": 67,
          "name": "G4",
          "velocity": 0.6299212598425197,
          "duration": 0.4739583333333339,
          "ticks": 11520,
          "durationTicks": 455
        },
        {
          "time": 12.5,
          "midi": 62,
          "name": "D4",
          "velocity": 0.6299212598425197,
          "duration": 0.4739583333333339,
          "ticks": 12000,
          "durationTicks": 455
        },
        {
          "time": 12.5,
          "midi": 67,
          "name": "G4",
          "velocity": 0.6299212598425197,
          "duration": 0.4739583333333339,
          "ticks": 12000,
          "durationTicks": 455
        },
        {
          "time": 13,
          "midi": 66,
          "name": "F#4",
          "velocity": 0.6299212598425197,
          "duration": 0.4739583333333339,
          "ticks": 12480,
          "durationTicks": 455
        },
        {
          "time": 13,
          "midi": 69,
          "name": "A4",
          "velocity": 0.6299212598425197,
          "duration": 0.4739583333333339,
          "ticks": 12480,
          "durationTicks": 455
        },
        {
          "time": 13.5,
          "midi": 67,
          "name": "G4",
          "velocity": 0.6299212598425197,
          "duration": 0.4739583333333339,
          "ticks": 12960,
          "durationTicks": 455
        },
        {
          "time": 13.5,
          "midi": 71,
          "name": "B4",
          "velocity": 0.6299212598425197,
          "duration": 0.4739583333333339,
          "ticks": 12960,
          "durationTicks": 455
        },
        {
          "time": 14,
          "midi": 66,
          "name": "F#4",
          "velocity": 0.6299212598425197,
          "duration": 0.7114583333333329,
          "ticks": 13440,
          "durationTicks": 683
        },
        {
          "time": 14,
          "midi": 69,
          "name": "A4",
          "velocity": 0.6299212598425197,
          "duration": 0.7114583333333329,
          "ticks": 13440,
          "durationTicks": 683
        },
        {
          "time": 14.75,
          "midi": 62,
          "name": "D4",
          "velocity": 0.6299212598425197,
          "duration": 0.23645833333333321,
          "ticks": 14160,
          "durationTicks": 227
        },
        {
          "time": 14.75,
          "midi": 67,
          "name": "G4",
          "velocity": 0.6299212598425197,
          "duration": 0.23645833333333321,
          "ticks": 14160,
          "durationTicks": 227
        },
        {
          "time": 15,
          "midi": 62,
          "name": "D4",
          "velocity": 0.6299212598425197,
          "duration": 0.9489583333333336,
          "ticks": 14400,
          "durationTicks": 911
        },
        {
          "time": 15,
          "midi": 67,
          "name": "G4",
          "velocity": 0.6299212598425197,
          "duration": 0.9489583333333336,
          "ticks": 14400,
          "durationTicks": 911
        },
        {
          "time": 16,
          "midi": 66,
          "name": "F#4",
          "velocity": 0.7559055118110236,
          "duration": 0.236458333333335,
          "ticks": 15360,
          "durationTicks": 227
        },
        {
          "time": 16,
          "midi": 69,
          "name": "A4",
          "velocity": 0.7559055118110236,
          "duration": 0.236458333333335,
          "ticks": 15360,
          "durationTicks": 227
        },
        {
          "time": 16.25,
          "midi": 66,
          "name": "F#4",
          "velocity": 0.7559055118110236,
          "duration": 0.11770833333333286,
          "ticks": 15600,
          "durationTicks": 113
        },
        {
          "time": 16.25,
          "midi": 69,
          "name": "A4",
          "velocity": 0.7559055118110236,
          "duration": 0.11770833333333286,
          "ticks": 15600,
          "durationTicks": 113
        },
        {
          "time": 16.375,
          "midi": 66,
          "name": "F#4",
          "velocity": 0.7559055118110236,
          "duration": 0.11770833333333286,
          "ticks": 15720,
          "durationTicks": 113
        },
        {
          "time": 16.375,
          "midi": 69,
          "name": "A4",
          "velocity": 0.7559055118110236,
          "duration": 0.11770833333333286,
          "ticks": 15720,
          "durationTicks": 113
        },
        {
          "time": 16.5,
          "midi": 66,
          "name": "F#4",
          "velocity": 0.7559055118110236,
          "duration": 0.236458333333335,
          "ticks": 15840,
          "durationTicks": 227
        },
        {
          "time": 16.5,
          "midi": 69,
          "name": "A4",
          "velocity": 0.7559055118110236,
          "duration": 0.236458333333335,
          "ticks": 15840,
          "durationTicks": 227
        },
        {
          "time": 16.75,
          "midi": 66,
          "name": "F#4",
          "velocity": 0.7559055118110236,
          "duration": 0.236458333333335,
          "ticks": 16080,
          "durationTicks": 227
        },
        {
          "time": 16.75,
          "midi": 69,
          "name": "A4",
          "velocity": 0.7559055118110236,
          "duration": 0.236458333333335,
          "ticks": 16080,
          "durationTicks": 227
        },
        {
          "time": 17,
          "midi": 67,
          "name": "G4",
          "velocity": 0.7559055118110236,
          "duration": 0.47395833333333215,
          "ticks": 16320,
          "durationTicks": 455
        },
        {
          "time": 17,
          "midi": 71,
          "name": "B4",
          "velocity": 0.7559055118110236,
          "duration": 0.47395833333333215,
          "ticks": 16320,
          "durationTicks": 455
        },
        {
          "time": 17.5,
          "midi": 62,
          "name": "D4",
          "velocity": 0.7559055118110236,
          "duration": 0.47395833333333215,
          "ticks": 16800,
          "durationTicks": 455
        },
        {
          "time": 17.5,
          "midi": 67,
          "name": "G4",
          "velocity": 0.7559055118110236,
          "duration": 0.47395833333333215,
          "ticks": 16800,
          "durationTicks": 455
        },
        {
          "time": 18,
          "midi": 66,
          "name": "F#4",
          "velocity": 0.7559055118110236,
          "duration": 0.236458333333335,
          "ticks": 17280,
          "durationTicks": 227
        },
        {
          "time": 18,
          "midi": 69,
          "name": "A4",
          "velocity": 0.7559055118110236,
          "duration": 0.236458333333335,
          "ticks": 17280,
          "durationTicks": 227
        },
        {
          "time": 18.25,
          "midi": 66,
          "name": "F#4",
          "velocity": 0.7559055118110236,
          "duration": 0.11770833333333286,
          "ticks": 17520,
          "durationTicks": 113
        },
        {
          "time": 18.25,
          "midi": 69,
          "name": "A4",
          "velocity": 0.7559055118110236,
          "duration": 0.11770833333333286,
          "ticks": 17520,
          "durationTicks": 113
        },
        {
          "time": 18.375,
          "midi": 66,
          "name": "F#4",
          "velocity": 0.7559055118110236,
          "duration": 0.11770833333333286,
          "ticks": 17640,
          "durationTicks": 113
        },
        {
          "time": 18.375,
          "midi": 69,
          "name": "A4",
          "velocity": 0.7559055118110236,
          "duration": 0.11770833333333286,
          "ticks": 17640,
          "durationTicks": 113
        },
        {
          "time": 18.5,
          "midi": 67,
          "name": "G4",
          "velocity": 0.7559055118110236,
          "duration": 0.236458333333335,
          "ticks": 17760,
          "durationTicks": 227
        },
        {
          "time": 18.5,
          "midi": 71,
          "name": "B4",
          "velocity": 0.7559055118110236,
          "duration": 0.236458333333335,
          "ticks": 17760,
          "durationTicks": 227
        },
        {
          "time": 18.75,
          "midi": 69,
          "name": "A4",
          "velocity": 0.7559055118110236,
          "duration": 0.236458333333335,
          "ticks": 18000,
          "durationTicks": 227
        },
        {
          "time": 18.75,
          "midi": 72,
          "name": "C5",
          "velocity": 0.7559055118110236,
          "duration": 0.236458333333335,
          "ticks": 18000,
          "durationTicks": 227
        },
        {
          "time": 19,
          "midi": 67,
          "name": "G4",
          "velocity": 0.7559055118110236,
          "duration": 0.47395833333333215,
          "ticks": 18240,
          "durationTicks": 455
        },
        {
          "time": 19,
          "midi": 71,
          "name": "B4",
          "velocity": 0.7559055118110236,
          "duration": 0.47395833333333215,
          "ticks": 18240,
          "durationTicks": 455
        },
        {
          "time": 19.5,
          "midi": 62,
          "name": "D4",
          "velocity": 0.7559055118110236,
          "duration": 0.47395833333333215,
          "ticks": 18720,
          "durationTicks": 455
        },
        {
          "time": 19.5,
          "midi": 67,
          "name": "G4",
          "velocity": 0.7559055118110236,
          "duration": 0.47395833333333215,
          "ticks": 18720,
          "durationTicks": 455
        },
        {
          "time": 20,
          "midi": 66,
          "name": "F#4",
          "velocity": 0.7559055118110236,
          "duration": 0.236458333333335,
          "ticks": 19200,
          "durationTicks": 227
        },
        {
          "time": 20,
          "midi": 69,
          "name": "A4",
          "velocity": 0.7559055118110236,
          "duration": 0.236458333333335,
          "ticks": 19200,
          "durationTicks": 227
        },
        {
          "time": 20.25,
          "midi": 66,
          "name": "F#4",
          "velocity": 0.7559055118110236,
          "duration": 0.11770833333333286,
          "ticks": 19440,
          "durationTicks": 113
        },
        {
          "time": 20.25,
          "midi": 69,
          "name": "A4",
          "velocity": 0.7559055118110236,
          "duration": 0.11770833333333286,
          "ticks": 19440,
          "durationTicks": 113
        },
        {
          "time": 20.375,
          "midi": 66,
          "name": "F#4",
          "velocity": 0.7559055118110236,
          "duration": 0.11770833333333286,
          "ticks": 19560,
          "durationTicks": 113
        },
        {
          "time": 20.375,
          "midi": 69,
          "name": "A4",
          "velocity": 0.7559055118110236,
          "duration": 0.11770833333333286,
          "ticks": 19560,
          "durationTicks": 113
        },
        {
          "time": 20.5,
          "midi": 67,
          "name": "G4",
          "velocity": 0.7559055118110236,
          "duration": 0.236458333333335,
          "ticks": 19680,
          "durationTicks": 227
        },
        {
          "time": 20.5,
          "midi": 71,
          "name": "B4",
          "velocity": 0.7559055118110236,
          "duration": 0.236458333333335,
          "ticks": 19680,
          "durationTicks": 227
        },
        {
          "time": 20.75,
          "midi": 69,
          "name": "A4",
          "velocity": 0.7559055118110236,
          "duration": 0.236458333333335,
          "ticks": 19920,
          "durationTicks": 227
        },
        {
          "time": 20.75,
          "midi": 72,
          "name": "C5",
          "velocity": 0.7559055118110236,
          "duration": 0.236458333333335,
          "ticks": 19920,
          "durationTicks": 227
        },
        {
          "time": 21,
          "midi": 67,
          "name": "G4",
          "velocity": 0.7559055118110236,
          "duration": 0.236458333333335,
          "ticks": 20160,
          "durationTicks": 227
        },
        {
          "time": 21,
          "midi": 71,
          "name": "B4",
          "velocity": 0.7559055118110236,
          "duration": 0.236458333333335,
          "ticks": 20160,
          "durationTicks": 227
        },
        {
          "time": 21.25,
          "midi": 67,
          "name": "G4",
          "velocity": 0.7559055118110236,
          "duration": 0.11770833333333286,
          "ticks": 20400,
          "durationTicks": 113
        },
        {
          "time": 21.25,
          "midi": 71,
          "name": "B4",
          "velocity": 0.7559055118110236,
          "duration": 0.11770833333333286,
          "ticks": 20400,
          "durationTicks": 113
        },
        {
          "time": 21.375,
          "midi": 67,
          "name": "G4",
          "velocity": 0.7559055118110236,
          "duration": 0.11770833333333286,
          "ticks": 20520,
          "durationTicks": 113
        },
        {
          "time": 21.375,
          "midi": 71,
          "name": "B4",
          "velocity": 0.7559055118110236,
          "duration": 0.11770833333333286,
          "ticks": 20520,
          "durationTicks": 113
        },
        {
          "time": 21.5,
          "midi": 66,
          "name": "F#4",
          "velocity": 0.7559055118110236,
          "duration": 0.236458333333335,
          "ticks": 20640,
          "durationTicks": 227
        },
        {
          "time": 21.5,
          "midi": 69,
          "name": "A4",
          "velocity": 0.7559055118110236,
          "duration": 0.236458333333335,
          "ticks": 20640,
          "durationTicks": 227
        },
        {
          "time": 21.75,
          "midi": 66,
          "name": "F#4",
          "velocity": 0.7559055118110236,
          "duration": 0.236458333333335,
          "ticks": 20880,
          "durationTicks": 227
        },
        {
          "time": 21.75,
          "midi": 69,
          "name": "A4",
          "velocity": 0.7559055118110236,
          "duration": 0.236458333333335,
          "ticks": 20880,
          "durationTicks": 227
        },
        {
          "time": 22,
          "midi": 64,
          "name": "E4",
          "velocity": 0.7559055118110236,
          "duration": 0.236458333333335,
          "ticks": 21120,
          "durationTicks": 227
        },
        {
          "time": 22,
          "midi": 67,
          "name": "G4",
          "velocity": 0.7559055118110236,
          "duration": 0.236458333333335,
          "ticks": 21120,
          "durationTicks": 227
        },
        {
          "time": 22.25,
          "midi": 64,
          "name": "E4",
          "velocity": 0.7559055118110236,
          "duration": 0.11770833333333286,
          "ticks": 21360,
          "durationTicks": 113
        },
        {
          "time": 22.25,
          "midi": 67,
          "name": "G4",
          "velocity": 0.7559055118110236,
          "duration": 0.11770833333333286,
          "ticks": 21360,
          "durationTicks": 113
        },
        {
          "time": 22.375,
          "midi": 64,
          "name": "E4",
          "velocity": 0.7559055118110236,
          "duration": 0.11770833333333286,
          "ticks": 21480,
          "durationTicks": 113
        },
        {
          "time": 22.375,
          "midi": 67,
          "name": "G4",
          "velocity": 0.7559055118110236,
          "duration": 0.11770833333333286,
          "ticks": 21480,
          "durationTicks": 113
        },
        {
          "time": 22.5,
          "midi": 64,
          "name": "E4",
          "velocity": 0.7559055118110236,
          "duration": 0.236458333333335,
          "ticks": 21600,
          "durationTicks": 227
        },
        {
          "time": 22.5,
          "midi": 73,
          "name": "C#5",
          "velocity": 0.7559055118110236,
          "duration": 0.236458333333335,
          "ticks": 21600,
          "durationTicks": 227
        },
        {
          "time": 22.75,
          "midi": 64,
          "name": "E4",
          "velocity": 0.7559055118110236,
          "duration": 0.236458333333335,
          "ticks": 21840,
          "durationTicks": 227
        },
        {
          "time": 22.75,
          "midi": 73,
          "name": "C#5",
          "velocity": 0.7559055118110236,
          "duration": 0.236458333333335,
          "ticks": 21840,
          "durationTicks": 227
        },
        {
          "time": 23,
          "midi": 66,
          "name": "F#4",
          "velocity": 0.7559055118110236,
          "duration": 0.47395833333333215,
          "ticks": 22080,
          "durationTicks": 455
        },
        {
          "time": 23,
          "midi": 74,
          "name": "D5",
          "velocity": 0.7559055118110236,
          "duration": 0.47395833333333215,
          "ticks": 22080,
          "durationTicks": 455
        },
        {
          "time": 24,
          "midi": 67,
          "name": "G4",
          "velocity": 0.9921259842519685,
          "duration": 0.47395833333333215,
          "ticks": 23040,
          "durationTicks": 455
        },
        {
          "time": 24,
          "midi": 71,
          "name": "B4",
          "velocity": 0.9921259842519685,
          "duration": 0.47395833333333215,
          "ticks": 23040,
          "durationTicks": 455
        },
        {
          "time": 24.5,
          "midi": 67,
          "name": "G4",
          "velocity": 0.9921259842519685,
          "duration": 0.47395833333333215,
          "ticks": 23520,
          "durationTicks": 455
        },
        {
          "time": 24.5,
          "midi": 71,
          "name": "B4",
          "velocity": 0.9921259842519685,
          "duration": 0.47395833333333215,
          "ticks": 23520,
          "durationTicks": 455
        },
        {
          "time": 25,
          "midi": 69,
          "name": "A4",
          "velocity": 0.9921259842519685,
          "duration": 0.47395833333333215,
          "ticks": 24000,
          "durationTicks": 455
        },
        {
          "time": 25,
          "midi": 72,
          "name": "C5",
          "velocity": 0.9921259842519685,
          "duration": 0.47395833333333215,
          "ticks": 24000,
          "durationTicks": 455
        },
        {
          "time": 25.5,
          "midi": 71,
          "name": "B4",
          "velocity": 0.9921259842519685,
          "duration": 0.47395833333333215,
          "ticks": 24480,
          "durationTicks": 455
        },
        {
          "time": 25.5,
          "midi": 74,
          "name": "D5",
          "velocity": 0.9921259842519685,
          "duration": 0.47395833333333215,
          "ticks": 24480,
          "durationTicks": 455
        },
        {
          "time": 26,
          "midi": 71,
          "name": "B4",
          "velocity": 0.9921259842519685,
          "duration": 0.47395833333333215,
          "ticks": 24960,
          "durationTicks": 455
        },
        {
          "time": 26,
          "midi": 74,
          "name": "D5",
          "velocity": 0.9921259842519685,
          "duration": 0.47395833333333215,
          "ticks": 24960,
          "durationTicks": 455
        },
        {
          "time": 26.5,
          "midi": 69,
          "name": "A4",
          "velocity": 0.9921259842519685,
          "duration": 0.47395833333333215,
          "ticks": 25440,
          "durationTicks": 455
        },
        {
          "time": 26.5,
          "midi": 72,
          "name": "C5",
          "velocity": 0.9921259842519685,
          "duration": 0.47395833333333215,
          "ticks": 25440,
          "durationTicks": 455
        },
        {
          "time": 27,
          "midi": 67,
          "name": "G4",
          "velocity": 0.9921259842519685,
          "duration": 0.47395833333333215,
          "ticks": 25920,
          "durationTicks": 455
        },
        {
          "time": 27,
          "midi": 71,
          "name": "B4",
          "velocity": 0.9921259842519685,
          "duration": 0.47395833333333215,
          "ticks": 25920,
          "durationTicks": 455
        },
        {
          "time": 27.5,
          "midi": 66,
          "name": "F#4",
          "velocity": 0.9921259842519685,
          "duration": 0.47395833333333215,
          "ticks": 26400,
          "durationTicks": 455
        },
        {
          "time": 27.5,
          "midi": 69,
          "name": "A4",
          "velocity": 0.9921259842519685,
          "duration": 0.47395833333333215,
          "ticks": 26400,
          "durationTicks": 455
        },
        {
          "time": 28,
          "midi": 62,
          "name": "D4",
          "velocity": 0.9921259842519685,
          "duration": 0.47395833333333215,
          "ticks": 26880,
          "durationTicks": 455
        },
        {
          "time": 28,
          "midi": 67,
          "name": "G4",
          "velocity": 0.9921259842519685,
          "duration": 0.47395833333333215,
          "ticks": 26880,
          "durationTicks": 455
        },
        {
          "time": 28.5,
          "midi": 62,
          "name": "D4",
          "velocity": 0.9921259842519685,
          "duration": 0.47395833333333215,
          "ticks": 27360,
          "durationTicks": 455
        },
        {
          "time": 28.5,
          "midi": 67,
          "name": "G4",
          "velocity": 0.9921259842519685,
          "duration": 0.47395833333333215,
          "ticks": 27360,
          "durationTicks": 455
        },
        {
          "time": 29,
          "midi": 66,
          "name": "F#4",
          "velocity": 0.9921259842519685,
          "duration": 0.47395833333333215,
          "ticks": 27840,
          "durationTicks": 455
        },
        {
          "time": 29,
          "midi": 69,
          "name": "A4",
          "velocity": 0.9921259842519685,
          "duration": 0.47395833333333215,
          "ticks": 27840,
          "durationTicks": 455
        },
        {
          "time": 29.5,
          "midi": 67,
          "name": "G4",
          "velocity": 0.9921259842519685,
          "duration": 0.47395833333333215,
          "ticks": 28320,
          "durationTicks": 455
        },
        {
          "time": 29.5,
          "midi": 71,
          "name": "B4",
          "velocity": 0.9921259842519685,
          "duration": 0.47395833333333215,
          "ticks": 28320,
          "durationTicks": 455
        },
        {
          "time": 30,
          "midi": 66,
          "name": "F#4",
          "velocity": 0.9921259842519685,
          "duration": 0.7114583333333329,
          "ticks": 28800,
          "durationTicks": 683
        },
        {
          "time": 30,
          "midi": 69,
          "name": "A4",
          "velocity": 0.9921259842519685,
          "duration": 0.7114583333333329,
          "ticks": 28800,
          "durationTicks": 683
        },
        {
          "time": 30.75,
          "midi": 62,
          "name": "D4",
          "velocity": 0.9921259842519685,
          "duration": 0.236458333333335,
          "ticks": 29520,
          "durationTicks": 227
        },
        {
          "time": 30.75,
          "midi": 67,
          "name": "G4",
          "velocity": 0.9921259842519685,
          "duration": 0.236458333333335,
          "ticks": 29520,
          "durationTicks": 227
        },
        {
          "time": 31,
          "midi": 62,
          "name": "D4",
          "velocity": 0.9921259842519685,
          "duration": 0.9489583333333336,
          "ticks": 29760,
          "durationTicks": 911
        },
        {
          "time": 31,
          "midi": 67,
          "name": "G4",
          "velocity": 0.9921259842519685,
          "duration": 0.9489583333333336,
          "ticks": 29760,
          "durationTicks": 911
        },
        {
          "time": 48,
          "midi": 66,
          "name": "F#4",
          "velocity": 0.7559055118110236,
          "duration": 0.23645833333333144,
          "ticks": 46080,
          "durationTicks": 227
        },
        {
          "time": 48,
          "midi": 69,
          "name": "A4",
          "velocity": 0.7559055118110236,
          "duration": 0.23645833333333144,
          "ticks": 46080,
          "durationTicks": 227
        },
        {
          "time": 48.25,
          "midi": 66,
          "name": "F#4",
          "velocity": 0.7559055118110236,
          "duration": 0.11770833333333286,
          "ticks": 46320,
          "durationTicks": 113
        },
        {
          "time": 48.25,
          "midi": 69,
          "name": "A4",
          "velocity": 0.7559055118110236,
          "duration": 0.11770833333333286,
          "ticks": 46320,
          "durationTicks": 113
        },
        {
          "time": 48.375,
          "midi": 66,
          "name": "F#4",
          "velocity": 0.7559055118110236,
          "duration": 0.11770833333333286,
          "ticks": 46440,
          "durationTicks": 113
        },
        {
          "time": 48.375,
          "midi": 69,
          "name": "A4",
          "velocity": 0.7559055118110236,
          "duration": 0.11770833333333286,
          "ticks": 46440,
          "durationTicks": 113
        },
        {
          "time": 48.5,
          "midi": 66,
          "name": "F#4",
          "velocity": 0.7559055118110236,
          "duration": 0.23645833333333144,
          "ticks": 46560,
          "durationTicks": 227
        },
        {
          "time": 48.5,
          "midi": 69,
          "name": "A4",
          "velocity": 0.7559055118110236,
          "duration": 0.23645833333333144,
          "ticks": 46560,
          "durationTicks": 227
        },
        {
          "time": 48.75,
          "midi": 66,
          "name": "F#4",
          "velocity": 0.7559055118110236,
          "duration": 0.23645833333333144,
          "ticks": 46800,
          "durationTicks": 227
        },
        {
          "time": 48.75,
          "midi": 69,
          "name": "A4",
          "velocity": 0.7559055118110236,
          "duration": 0.23645833333333144,
          "ticks": 46800,
          "durationTicks": 227
        },
        {
          "time": 49,
          "midi": 67,
          "name": "G4",
          "velocity": 0.7559055118110236,
          "duration": 0.4739583333333357,
          "ticks": 47040,
          "durationTicks": 455
        },
        {
          "time": 49,
          "midi": 71,
          "name": "B4",
          "velocity": 0.7559055118110236,
          "duration": 0.4739583333333357,
          "ticks": 47040,
          "durationTicks": 455
        },
        {
          "time": 49.5,
          "midi": 62,
          "name": "D4",
          "velocity": 0.7559055118110236,
          "duration": 0.4739583333333357,
          "ticks": 47520,
          "durationTicks": 455
        },
        {
          "time": 49.5,
          "midi": 67,
          "name": "G4",
          "velocity": 0.7559055118110236,
          "duration": 0.4739583333333357,
          "ticks": 47520,
          "durationTicks": 455
        },
        {
          "time": 50,
          "midi": 66,
          "name": "F#4",
          "velocity": 0.7559055118110236,
          "duration": 0.23645833333333144,
          "ticks": 48000,
          "durationTicks": 227
        },
        {
          "time": 50,
          "midi": 69,
          "name": "A4",
          "velocity": 0.7559055118110236,
          "duration": 0.23645833333333144,
          "ticks": 48000,
          "durationTicks": 227
        },
        {
          "time": 50.25,
          "midi": 66,
          "name": "F#4",
          "velocity": 0.7559055118110236,
          "duration": 0.11770833333333286,
          "ticks": 48240,
          "durationTicks": 113
        },
        {
          "time": 50.25,
          "midi": 69,
          "name": "A4",
          "velocity": 0.7559055118110236,
          "duration": 0.11770833333333286,
          "ticks": 48240,
          "durationTicks": 113
        },
        {
          "time": 50.375,
          "midi": 66,
          "name": "F#4",
          "velocity": 0.7559055118110236,
          "duration": 0.11770833333333286,
          "ticks": 48360,
          "durationTicks": 113
        },
        {
          "time": 50.375,
          "midi": 69,
          "name": "A4",
          "velocity": 0.7559055118110236,
          "duration": 0.11770833333333286,
          "ticks": 48360,
          "durationTicks": 113
        },
        {
          "time": 50.5,
          "midi": 67,
          "name": "G4",
          "velocity": 0.7559055118110236,
          "duration": 0.23645833333333144,
          "ticks": 48480,
          "durationTicks": 227
        },
        {
          "time": 50.5,
          "midi": 71,
          "name": "B4",
          "velocity": 0.7559055118110236,
          "duration": 0.23645833333333144,
          "ticks": 48480,
          "durationTicks": 227
        },
        {
          "time": 50.75,
          "midi": 69,
          "name": "A4",
          "velocity": 0.7559055118110236,
          "duration": 0.23645833333333144,
          "ticks": 48720,
          "durationTicks": 227
        },
        {
          "time": 50.75,
          "midi": 72,
          "name": "C5",
          "velocity": 0.7559055118110236,
          "duration": 0.23645833333333144,
          "ticks": 48720,
          "durationTicks": 227
        },
        {
          "time": 51,
          "midi": 67,
          "name": "G4",
          "velocity": 0.7559055118110236,
          "duration": 0.4739583333333357,
          "ticks": 48960,
          "durationTicks": 455
        },
        {
          "time": 51,
          "midi": 71,
          "name": "B4",
          "velocity": 0.7559055118110236,
          "duration": 0.4739583333333357,
          "ticks": 48960,
          "durationTicks": 455
        },
        {
          "time": 51.5,
          "midi": 62,
          "name": "D4",
          "velocity": 0.7559055118110236,
          "duration": 0.4739583333333357,
          "ticks": 49440,
          "durationTicks": 455
        },
        {
          "time": 51.5,
          "midi": 67,
          "name": "G4",
          "velocity": 0.7559055118110236,
          "duration": 0.4739583333333357,
          "ticks": 49440,
          "durationTicks": 455
        },
        {
          "time": 52,
          "midi": 66,
          "name": "F#4",
          "velocity": 0.7559055118110236,
          "duration": 0.23645833333333144,
          "ticks": 49920,
          "durationTicks": 227
        },
        {
          "time": 52,
          "midi": 69,
          "name": "A4",
          "velocity": 0.7559055118110236,
          "duration": 0.23645833333333144,
          "ticks": 49920,
          "durationTicks": 227
        },
        {
          "time": 52.25,
          "midi": 66,
          "name": "F#4",
          "velocity": 0.7559055118110236,
          "duration": 0.11770833333333286,
          "ticks": 50160,
          "durationTicks": 113
        },
        {
          "time": 52.25,
          "midi": 69,
          "name": "A4",
          "velocity": 0.7559055118110236,
          "duration": 0.11770833333333286,
          "ticks": 50160,
          "durationTicks": 113
        },
        {
          "time": 52.375,
          "midi": 66,
          "name": "F#4",
          "velocity": 0.7559055118110236,
          "duration": 0.11770833333333286,
          "ticks": 50280,
          "durationTicks": 113
        },
        {
          "time": 52.375,
          "midi": 69,
          "name": "A4",
          "velocity": 0.7559055118110236,
          "duration": 0.11770833333333286,
          "ticks": 50280,
          "durationTicks": 113
        },
        {
          "time": 52.5,
          "midi": 67,
          "name": "G4",
          "velocity": 0.7559055118110236,
          "duration": 0.23645833333333144,
          "ticks": 50400,
          "durationTicks": 227
        },
        {
          "time": 52.5,
          "midi": 71,
          "name": "B4",
          "velocity": 0.7559055118110236,
          "duration": 0.23645833333333144,
          "ticks": 50400,
          "durationTicks": 227
        },
        {
          "time": 52.75,
          "midi": 69,
          "name": "A4",
          "velocity": 0.7559055118110236,
          "duration": 0.23645833333333144,
          "ticks": 50640,
          "durationTicks": 227
        },
        {
          "time": 52.75,
          "midi": 72,
          "name": "C5",
          "velocity": 0.7559055118110236,
          "duration": 0.23645833333333144,
          "ticks": 50640,
          "durationTicks": 227
        },
        {
          "time": 53,
          "midi": 67,
          "name": "G4",
          "velocity": 0.7559055118110236,
          "duration": 0.23645833333333144,
          "ticks": 50880,
          "durationTicks": 227
        },
        {
          "time": 53,
          "midi": 71,
          "name": "B4",
          "velocity": 0.7559055118110236,
          "duration": 0.23645833333333144,
          "ticks": 50880,
          "durationTicks": 227
        },
        {
          "time": 53.25,
          "midi": 67,
          "name": "G4",
          "velocity": 0.7559055118110236,
          "duration": 0.11770833333333286,
          "ticks": 51120,
          "durationTicks": 113
        },
        {
          "time": 53.25,
          "midi": 71,
          "name": "B4",
          "velocity": 0.7559055118110236,
          "duration": 0.11770833333333286,
          "ticks": 51120,
          "durationTicks": 113
        },
        {
          "time": 53.375,
          "midi": 67,
          "name": "G4",
          "velocity": 0.7559055118110236,
          "duration": 0.11770833333333286,
          "ticks": 51240,
          "durationTicks": 113
        },
        {
          "time": 53.375,
          "midi": 71,
          "name": "B4",
          "velocity": 0.7559055118110236,
          "duration": 0.11770833333333286,
          "ticks": 51240,
          "durationTicks": 113
        },
        {
          "time": 53.5,
          "midi": 66,
          "name": "F#4",
          "velocity": 0.7559055118110236,
          "duration": 0.23645833333333144,
          "ticks": 51360,
          "durationTicks": 227
        },
        {
          "time": 53.5,
          "midi": 69,
          "name": "A4",
          "velocity": 0.7559055118110236,
          "duration": 0.23645833333333144,
          "ticks": 51360,
          "durationTicks": 227
        },
        {
          "time": 53.75,
          "midi": 66,
          "name": "F#4",
          "velocity": 0.7559055118110236,
          "duration": 0.23645833333333144,
          "ticks": 51600,
          "durationTicks": 227
        },
        {
          "time": 53.75,
          "midi": 69,
          "name": "A4",
          "velocity": 0.7559055118110236,
          "duration": 0.23645833333333144,
          "ticks": 51600,
          "durationTicks": 227
        },
        {
          "time": 54,
          "midi": 64,
          "name": "E4",
          "velocity": 0.7559055118110236,
          "duration": 0.23645833333333144,
          "ticks": 51840,
          "durationTicks": 227
        },
        {
          "time": 54,
          "midi": 67,
          "name": "G4",
          "velocity": 0.7559055118110236,
          "duration": 0.23645833333333144,
          "ticks": 51840,
          "durationTicks": 227
        },
        {
          "time": 54.25,
          "midi": 64,
          "name": "E4",
          "velocity": 0.7559055118110236,
          "duration": 0.11770833333333286,
          "ticks": 52080,
          "durationTicks": 113
        },
        {
          "time": 54.25,
          "midi": 67,
          "name": "G4",
          "velocity": 0.7559055118110236,
          "duration": 0.11770833333333286,
          "ticks": 52080,
          "durationTicks": 113
        },
        {
          "time": 54.375,
          "midi": 64,
          "name": "E4",
          "velocity": 0.7559055118110236,
          "duration": 0.11770833333333286,
          "ticks": 52200,
          "durationTicks": 113
        },
        {
          "time": 54.375,
          "midi": 67,
          "name": "G4",
          "velocity": 0.7559055118110236,
          "duration": 0.11770833333333286,
          "ticks": 52200,
          "durationTicks": 113
        },
        {
          "time": 54.5,
          "midi": 64,
          "name": "E4",
          "velocity": 0.7559055118110236,
          "duration": 0.23645833333333144,
          "ticks": 52320,
          "durationTicks": 227
        },
        {
          "time": 54.5,
          "midi": 73,
          "name": "C#5",
          "velocity": 0.7559055118110236,
          "duration": 0.23645833333333144,
          "ticks": 52320,
          "durationTicks": 227
        },
        {
          "time": 54.75,
          "midi": 64,
          "name": "E4",
          "velocity": 0.7559055118110236,
          "duration": 0.23645833333333144,
          "ticks": 52560,
          "durationTicks": 227
        },
        {
          "time": 54.75,
          "midi": 73,
          "name": "C#5",
          "velocity": 0.7559055118110236,
          "duration": 0.23645833333333144,
          "ticks": 52560,
          "durationTicks": 227
        },
        {
          "time": 55,
          "midi": 66,
          "name": "F#4",
          "velocity": 0.7559055118110236,
          "duration": 0.4739583333333357,
          "ticks": 52800,
          "durationTicks": 455
        },
        {
          "time": 55,
          "midi": 74,
          "name": "D5",
          "velocity": 0.7559055118110236,
          "duration": 0.4739583333333357,
          "ticks": 52800,
          "durationTicks": 455
        },
        {
          "time": 56,
          "midi": 67,
          "name": "G4",
          "velocity": 0.9921259842519685,
          "duration": 0.4739583333333357,
          "ticks": 53760,
          "durationTicks": 455
        },
        {
          "time": 56,
          "midi": 71,
          "name": "B4",
          "velocity": 0.9921259842519685,
          "duration": 0.4739583333333357,
          "ticks": 53760,
          "durationTicks": 455
        },
        {
          "time": 56.5,
          "midi": 67,
          "name": "G4",
          "velocity": 0.9921259842519685,
          "duration": 0.4739583333333357,
          "ticks": 54240,
          "durationTicks": 455
        },
        {
          "time": 56.5,
          "midi": 71,
          "name": "B4",
          "velocity": 0.9921259842519685,
          "duration": 0.4739583333333357,
          "ticks": 54240,
          "durationTicks": 455
        },
        {
          "time": 57,
          "midi": 69,
          "name": "A4",
          "velocity": 0.9921259842519685,
          "duration": 0.4739583333333357,
          "ticks": 54720,
          "durationTicks": 455
        },
        {
          "time": 57,
          "midi": 72,
          "name": "C5",
          "velocity": 0.9921259842519685,
          "duration": 0.4739583333333357,
          "ticks": 54720,
          "durationTicks": 455
        },
        {
          "time": 57.5,
          "midi": 71,
          "name": "B4",
          "velocity": 0.9921259842519685,
          "duration": 0.4739583333333357,
          "ticks": 55200,
          "durationTicks": 455
        },
        {
          "time": 57.5,
          "midi": 74,
          "name": "D5",
          "velocity": 0.9921259842519685,
          "duration": 0.4739583333333357,
          "ticks": 55200,
          "durationTicks": 455
        },
        {
          "time": 58,
          "midi": 71,
          "name": "B4",
          "velocity": 0.9921259842519685,
          "duration": 0.4739583333333357,
          "ticks": 55680,
          "durationTicks": 455
        },
        {
          "time": 58,
          "midi": 74,
          "name": "D5",
          "velocity": 0.9921259842519685,
          "duration": 0.4739583333333357,
          "ticks": 55680,
          "durationTicks": 455
        },
        {
          "time": 58.5,
          "midi": 69,
          "name": "A4",
          "velocity": 0.9921259842519685,
          "duration": 0.4739583333333357,
          "ticks": 56160,
          "durationTicks": 455
        },
        {
          "time": 58.5,
          "midi": 72,
          "name": "C5",
          "velocity": 0.9921259842519685,
          "duration": 0.4739583333333357,
          "ticks": 56160,
          "durationTicks": 455
        },
        {
          "time": 59,
          "midi": 67,
          "name": "G4",
          "velocity": 0.9921259842519685,
          "duration": 0.4739583333333357,
          "ticks": 56640,
          "durationTicks": 455
        },
        {
          "time": 59,
          "midi": 71,
          "name": "B4",
          "velocity": 0.9921259842519685,
          "duration": 0.4739583333333357,
          "ticks": 56640,
          "durationTicks": 455
        },
        {
          "time": 59.5,
          "midi": 66,
          "name": "F#4",
          "velocity": 0.9921259842519685,
          "duration": 0.4739583333333357,
          "ticks": 57120,
          "durationTicks": 455
        },
        {
          "time": 59.5,
          "midi": 69,
          "name": "A4",
          "velocity": 0.9921259842519685,
          "duration": 0.4739583333333357,
          "ticks": 57120,
          "durationTicks": 455
        },
        {
          "time": 60,
          "midi": 62,
          "name": "D4",
          "velocity": 0.9921259842519685,
          "duration": 0.4739583333333357,
          "ticks": 57600,
          "durationTicks": 455
        },
        {
          "time": 60,
          "midi": 67,
          "name": "G4",
          "velocity": 0.9921259842519685,
          "duration": 0.4739583333333357,
          "ticks": 57600,
          "durationTicks": 455
        },
        {
          "time": 60.5,
          "midi": 62,
          "name": "D4",
          "velocity": 0.9921259842519685,
          "duration": 0.4739583333333357,
          "ticks": 58080,
          "durationTicks": 455
        },
        {
          "time": 60.5,
          "midi": 67,
          "name": "G4",
          "velocity": 0.9921259842519685,
          "duration": 0.4739583333333357,
          "ticks": 58080,
          "durationTicks": 455
        },
        {
          "time": 61,
          "midi": 66,
          "name": "F#4",
          "velocity": 0.9921259842519685,
          "duration": 0.4739583333333357,
          "ticks": 58560,
          "durationTicks": 455
        },
        {
          "time": 61,
          "midi": 69,
          "name": "A4",
          "velocity": 0.9921259842519685,
          "duration": 0.4739583333333357,
          "ticks": 58560,
          "durationTicks": 455
        },
        {
          "time": 61.5,
          "midi": 67,
          "name": "G4",
          "velocity": 0.9921259842519685,
          "duration": 0.4739583333333357,
          "ticks": 59040,
          "durationTicks": 455
        },
        {
          "time": 61.5,
          "midi": 71,
          "name": "B4",
          "velocity": 0.9921259842519685,
          "duration": 0.4739583333333357,
          "ticks": 59040,
          "durationTicks": 455
        },
        {
          "time": 62,
          "midi": 66,
          "name": "F#4",
          "velocity": 0.9921259842519685,
          "duration": 0.7114583333333329,
          "ticks": 59520,
          "durationTicks": 683
        },
        {
          "time": 62,
          "midi": 69,
          "name": "A4",
          "velocity": 0.9921259842519685,
          "duration": 0.7114583333333329,
          "ticks": 59520,
          "durationTicks": 683
        },
        {
          "time": 62.75,
          "midi": 62,
          "name": "D4",
          "velocity": 0.9921259842519685,
          "duration": 0.23645833333333144,
          "ticks": 60240,
          "durationTicks": 227
        },
        {
          "time": 62.75,
          "midi": 67,
          "name": "G4",
          "velocity": 0.9921259842519685,
          "duration": 0.23645833333333144,
          "ticks": 60240,
          "durationTicks": 227
        },
        {
          "time": 63,
          "midi": 62,
          "name": "D4",
          "velocity": 0.9921259842519685,
          "duration": 0.94895833333333,
          "ticks": 60480,
          "durationTicks": 911
        },
        {
          "time": 63,
          "midi": 67,
          "name": "G4",
          "velocity": 0.9921259842519685,
          "duration": 0.94895833333333,
          "ticks": 60480,
          "durationTicks": 911
        },
        {
          "time": 64.5,
          "midi": 67,
          "name": "G4",
          "velocity": 0.6299212598425197,
          "duration": 0.11770833333333997,
          "ticks": 61920,
          "durationTicks": 113
        },
        {
          "time": 64.625,
          "midi": 71,
          "name": "B4",
          "velocity": 0.6299212598425197,
          "duration": 0.11770833333333997,
          "ticks": 62040,
          "durationTicks": 113
        },
        {
          "time": 64.75,
          "midi": 74,
          "name": "D5",
          "velocity": 0.6299212598425197,
          "duration": 0.11770833333333997,
          "ticks": 62160,
          "durationTicks": 113
        },
        {
          "time": 64.875,
          "midi": 79,
          "name": "G5",
          "velocity": 0.6299212598425197,
          "duration": 0.11770833333333997,
          "ticks": 62280,
          "durationTicks": 113
        },
        {
          "time": 65,
          "midi": 79,
          "name": "G5",
          "velocity": 0.6299212598425197,
          "duration": 0.11770833333333997,
          "ticks": 62400,
          "durationTicks": 113
        },
        {
          "time": 65.125,
          "midi": 74,
          "name": "D5",
          "velocity": 0.6299212598425197,
          "duration": 0.11770833333333997,
          "ticks": 62520,
          "durationTicks": 113
        },
        {
          "time": 65.25,
          "midi": 71,
          "name": "B4",
          "velocity": 0.6299212598425197,
          "duration": 0.11770833333333997,
          "ticks": 62640,
          "durationTicks": 113
        },
        {
          "time": 65.375,
          "midi": 67,
          "name": "G4",
          "velocity": 0.6299212598425197,
          "duration": 0.11770833333333997,
          "ticks": 62760,
          "durationTicks": 113
        },
        {
          "time": 66.5,
          "midi": 62,
          "name": "D4",
          "velocity": 0.6299212598425197,
          "duration": 0.11770833333333997,
          "ticks": 63840,
          "durationTicks": 113
        },
        {
          "time": 66.625,
          "midi": 66,
          "name": "F#4",
          "velocity": 0.6299212598425197,
          "duration": 0.11770833333333997,
          "ticks": 63960,
          "durationTicks": 113
        },
        {
          "time": 66.75,
          "midi": 69,
          "name": "A4",
          "velocity": 0.6299212598425197,
          "duration": 0.11770833333333997,
          "ticks": 64080,
          "durationTicks": 113
        },
        {
          "time": 66.875,
          "midi": 74,
          "name": "D5",
          "velocity": 0.6299212598425197,
          "duration": 0.11770833333333997,
          "ticks": 64200,
          "durationTicks": 113
        },
        {
          "time": 67,
          "midi": 74,
          "name": "D5",
          "velocity": 0.6299212598425197,
          "duration": 0.11770833333333997,
          "ticks": 64320,
          "durationTicks": 113
        },
        {
          "time": 67.125,
          "midi": 71,
          "name": "B4",
          "velocity": 0.6299212598425197,
          "duration": 0.11770833333333997,
          "ticks": 64440,
          "durationTicks": 113
        },
        {
          "time": 67.25,
          "midi": 67,
          "name": "G4",
          "velocity": 0.6299212598425197,
          "duration": 0.11770833333333997,
          "ticks": 64560,
          "durationTicks": 113
        },
        {
          "time": 67.375,
          "midi": 62,
          "name": "D4",
          "velocity": 0.6299212598425197,
          "duration": 0.11770833333333997,
          "ticks": 64680,
          "durationTicks": 113
        },
        {
          "time": 68.5,
          "midi": 67,
          "name": "G4",
          "velocity": 0.6299212598425197,
          "duration": 0.11770833333333997,
          "ticks": 65760,
          "durationTicks": 113
        },
        {
          "time": 68.625,
          "midi": 71,
          "name": "B4",
          "velocity": 0.6299212598425197,
          "duration": 0.11770833333333997,
          "ticks": 65880,
          "durationTicks": 113
        },
        {
          "time": 68.75,
          "midi": 74,
          "name": "D5",
          "velocity": 0.6299212598425197,
          "duration": 0.11770833333333997,
          "ticks": 66000,
          "durationTicks": 113
        },
        {
          "time": 68.875,
          "midi": 79,
          "name": "G5",
          "velocity": 0.6299212598425197,
          "duration": 0.11770833333333997,
          "ticks": 66120,
          "durationTicks": 113
        },
        {
          "time": 69,
          "midi": 79,
          "name": "G5",
          "velocity": 0.6299212598425197,
          "duration": 0.11770833333333997,
          "ticks": 66240,
          "durationTicks": 113
        },
        {
          "time": 69.125,
          "midi": 74,
          "name": "D5",
          "velocity": 0.6299212598425197,
          "duration": 0.11770833333333997,
          "ticks": 66360,
          "durationTicks": 113
        },
        {
          "time": 69.25,
          "midi": 71,
          "name": "B4",
          "velocity": 0.6299212598425197,
          "duration": 0.11770833333333997,
          "ticks": 66480,
          "durationTicks": 113
        },
        {
          "time": 69.375,
          "midi": 67,
          "name": "G4",
          "velocity": 0.6299212598425197,
          "duration": 0.11770833333333997,
          "ticks": 66600,
          "durationTicks": 113
        },
        {
          "time": 70.5,
          "midi": 62,
          "name": "D4",
          "velocity": 0.6299212598425197,
          "duration": 0.11770833333333997,
          "ticks": 67680,
          "durationTicks": 113
        },
        {
          "time": 70.625,
          "midi": 66,
          "name": "F#4",
          "velocity": 0.6299212598425197,
          "duration": 0.11770833333333997,
          "ticks": 67800,
          "durationTicks": 113
        },
        {
          "time": 70.75,
          "midi": 69,
          "name": "A4",
          "velocity": 0.6299212598425197,
          "duration": 0.11770833333333997,
          "ticks": 67920,
          "durationTicks": 113
        },
        {
          "time": 70.875,
          "midi": 74,
          "name": "D5",
          "velocity": 0.6299212598425197,
          "duration": 0.11770833333333997,
          "ticks": 68040,
          "durationTicks": 113
        },
        {
          "time": 71,
          "midi": 74,
          "name": "D5",
          "velocity": 0.6299212598425197,
          "duration": 0.11770833333333997,
          "ticks": 68160,
          "durationTicks": 113
        },
        {
          "time": 71.125,
          "midi": 71,
          "name": "B4",
          "velocity": 0.6299212598425197,
          "duration": 0.11770833333333997,
          "ticks": 68280,
          "durationTicks": 113
        },
        {
          "time": 71.25,
          "midi": 67,
          "name": "G4",
          "velocity": 0.6299212598425197,
          "duration": 0.11770833333333997,
          "ticks": 68400,
          "durationTicks": 113
        },
        {
          "time": 71.375,
          "midi": 62,
          "name": "D4",
          "velocity": 0.6299212598425197,
          "duration": 0.11770833333333997,
          "ticks": 68520,
          "durationTicks": 113
        },
        {
          "time": 72.5,
          "midi": 67,
          "name": "G4",
          "velocity": 0.6299212598425197,
          "duration": 0.11770833333333997,
          "ticks": 69600,
          "durationTicks": 113
        },
        {
          "time": 72.625,
          "midi": 71,
          "name": "B4",
          "velocity": 0.6299212598425197,
          "duration": 0.11770833333333997,
          "ticks": 69720,
          "durationTicks": 113
        },
        {
          "time": 72.75,
          "midi": 74,
          "name": "D5",
          "velocity": 0.6299212598425197,
          "duration": 0.11770833333333997,
          "ticks": 69840,
          "durationTicks": 113
        },
        {
          "time": 72.875,
          "midi": 79,
          "name": "G5",
          "velocity": 0.6299212598425197,
          "duration": 0.11770833333333997,
          "ticks": 69960,
          "durationTicks": 113
        },
        {
          "time": 73,
          "midi": 79,
          "name": "G5",
          "velocity": 0.6299212598425197,
          "duration": 0.11770833333333997,
          "ticks": 70080,
          "durationTicks": 113
        },
        {
          "time": 73.125,
          "midi": 74,
          "name": "D5",
          "velocity": 0.6299212598425197,
          "duration": 0.11770833333333997,
          "ticks": 70200,
          "durationTicks": 113
        },
        {
          "time": 73.25,
          "midi": 71,
          "name": "B4",
          "velocity": 0.6299212598425197,
          "duration": 0.11770833333333997,
          "ticks": 70320,
          "durationTicks": 113
        },
        {
          "time": 73.375,
          "midi": 67,
          "name": "G4",
          "velocity": 0.6299212598425197,
          "duration": 0.11770833333333997,
          "ticks": 70440,
          "durationTicks": 113
        },
        {
          "time": 74.5,
          "midi": 60,
          "name": "C4",
          "velocity": 0.6299212598425197,
          "duration": 0.11770833333333997,
          "ticks": 71520,
          "durationTicks": 113
        },
        {
          "time": 74.625,
          "midi": 64,
          "name": "E4",
          "velocity": 0.6299212598425197,
          "duration": 0.11770833333333997,
          "ticks": 71640,
          "durationTicks": 113
        },
        {
          "time": 74.75,
          "midi": 67,
          "name": "G4",
          "velocity": 0.6299212598425197,
          "duration": 0.11770833333333997,
          "ticks": 71760,
          "durationTicks": 113
        },
        {
          "time": 74.875,
          "midi": 72,
          "name": "C5",
          "velocity": 0.6299212598425197,
          "duration": 0.11770833333333997,
          "ticks": 71880,
          "durationTicks": 113
        },
        {
          "time": 75,
          "midi": 72,
          "name": "C5",
          "velocity": 0.6299212598425197,
          "duration": 0.11770833333333997,
          "ticks": 72000,
          "durationTicks": 113
        },
        {
          "time": 75.125,
          "midi": 67,
          "name": "G4",
          "velocity": 0.6299212598425197,
          "duration": 0.11770833333333997,
          "ticks": 72120,
          "durationTicks": 113
        },
        {
          "time": 75.25,
          "midi": 64,
          "name": "E4",
          "velocity": 0.6299212598425197,
          "duration": 0.11770833333333997,
          "ticks": 72240,
          "durationTicks": 113
        },
        {
          "time": 75.375,
          "midi": 60,
          "name": "C4",
          "velocity": 0.6299212598425197,
          "duration": 0.11770833333333997,
          "ticks": 72360,
          "durationTicks": 113
        },
        {
          "time": 76.5,
          "midi": 62,
          "name": "D4",
          "velocity": 0.6299212598425197,
          "duration": 0.11770833333333997,
          "ticks": 73440,
          "durationTicks": 113
        },
        {
          "time": 76.625,
          "midi": 66,
          "name": "F#4",
          "velocity": 0.6299212598425197,
          "duration": 0.11770833333333997,
          "ticks": 73560,
          "durationTicks": 113
        },
        {
          "time": 76.75,
          "midi": 69,
          "name": "A4",
          "velocity": 0.6299212598425197,
          "duration": 0.11770833333333997,
          "ticks": 73680,
          "durationTicks": 113
        },
        {
          "time": 76.875,
          "midi": 74,
          "name": "D5",
          "velocity": 0.6299212598425197,
          "duration": 0.11770833333333997,
          "ticks": 73800,
          "durationTicks": 113
        },
        {
          "time": 77,
          "midi": 74,
          "name": "D5",
          "velocity": 0.6299212598425197,
          "duration": 0.11770833333333997,
          "ticks": 73920,
          "durationTicks": 113
        },
        {
          "time": 77.125,
          "midi": 71,
          "name": "B4",
          "velocity": 0.6299212598425197,
          "duration": 0.11770833333333997,
          "ticks": 74040,
          "durationTicks": 113
        },
        {
          "time": 77.25,
          "midi": 67,
          "name": "G4",
          "velocity": 0.6299212598425197,
          "duration": 0.11770833333333997,
          "ticks": 74160,
          "durationTicks": 113
        },
        {
          "time": 77.375,
          "midi": 62,
          "name": "D4",
          "velocity": 0.6299212598425197,
          "duration": 0.11770833333333997,
          "ticks": 74280,
          "durationTicks": 113
        },
        {
          "time": 78.5,
          "midi": 62,
          "name": "D4",
          "velocity": 0.6299212598425197,
          "duration": 0.11770833333333997,
          "ticks": 75360,
          "durationTicks": 113
        },
        {
          "time": 78.625,
          "midi": 66,
          "name": "F#4",
          "velocity": 0.6299212598425197,
          "duration": 0.11770833333333997,
          "ticks": 75480,
          "durationTicks": 113
        },
        {
          "time": 78.75,
          "midi": 67,
          "name": "G4",
          "velocity": 0.6299212598425197,
          "duration": 0.11770833333333997,
          "ticks": 75600,
          "durationTicks": 113
        },
        {
          "time": 78.875,
          "midi": 67,
          "name": "G4",
          "velocity": 0.6299212598425197,
          "duration": 0.11770833333333997,
          "ticks": 75720,
          "durationTicks": 113
        },
        {
          "time": 79,
          "midi": 67,
          "name": "G4",
          "velocity": 0.6299212598425197,
          "duration": 0.9489583333333371,
          "ticks": 75840,
          "durationTicks": 911
        },
        {
          "time": 79,
          "midi": 71,
          "name": "B4",
          "velocity": 0.6299212598425197,
          "duration": 0.9489583333333371,
          "ticks": 75840,
          "durationTicks": 911
        },
        {
          "time": 79,
          "midi": 74,
          "name": "D5",
          "velocity": 0.6299212598425197,
          "duration": 0.9489583333333371,
          "ticks": 75840,
          "durationTicks": 911
        },
        {
          "time": 79,
          "midi": 79,
          "name": "G5",
          "velocity": 0.6299212598425197,
          "duration": 0.9489583333333371,
          "ticks": 75840,
          "durationTicks": 911
        },
        {
          "time": 80,
          "midi": 66,
          "name": "F#4",
          "velocity": 0.7559055118110236,
          "duration": 0.23645833333333144,
          "ticks": 76800,
          "durationTicks": 227
        },
        {
          "time": 80,
          "midi": 69,
          "name": "A4",
          "velocity": 0.7559055118110236,
          "duration": 0.23645833333333144,
          "ticks": 76800,
          "durationTicks": 227
        },
        {
          "time": 80.25,
          "midi": 66,
          "name": "F#4",
          "velocity": 0.7559055118110236,
          "duration": 0.11770833333333997,
          "ticks": 77040,
          "durationTicks": 113
        },
        {
          "time": 80.25,
          "midi": 69,
          "name": "A4",
          "velocity": 0.7559055118110236,
          "duration": 0.11770833333333997,
          "ticks": 77040,
          "durationTicks": 113
        },
        {
          "time": 80.375,
          "midi": 66,
          "name": "F#4",
          "velocity": 0.7559055118110236,
          "duration": 0.11770833333333997,
          "ticks": 77160,
          "durationTicks": 113
        },
        {
          "time": 80.375,
          "midi": 69,
          "name": "A4",
          "velocity": 0.7559055118110236,
          "duration": 0.11770833333333997,
          "ticks": 77160,
          "durationTicks": 113
        },
        {
          "time": 80.5,
          "midi": 66,
          "name": "F#4",
          "velocity": 0.7559055118110236,
          "duration": 0.23645833333333144,
          "ticks": 77280,
          "durationTicks": 227
        },
        {
          "time": 80.5,
          "midi": 69,
          "name": "A4",
          "velocity": 0.7559055118110236,
          "duration": 0.23645833333333144,
          "ticks": 77280,
          "durationTicks": 227
        },
        {
          "time": 80.75,
          "midi": 66,
          "name": "F#4",
          "velocity": 0.7559055118110236,
          "duration": 0.23645833333333144,
          "ticks": 77520,
          "durationTicks": 227
        },
        {
          "time": 80.75,
          "midi": 69,
          "name": "A4",
          "velocity": 0.7559055118110236,
          "duration": 0.23645833333333144,
          "ticks": 77520,
          "durationTicks": 227
        },
        {
          "time": 81,
          "midi": 67,
          "name": "G4",
          "velocity": 0.7559055118110236,
          "duration": 0.4739583333333286,
          "ticks": 77760,
          "durationTicks": 455
        },
        {
          "time": 81,
          "midi": 71,
          "name": "B4",
          "velocity": 0.7559055118110236,
          "duration": 0.4739583333333286,
          "ticks": 77760,
          "durationTicks": 455
        },
        {
          "time": 81.5,
          "midi": 62,
          "name": "D4",
          "velocity": 0.7559055118110236,
          "duration": 0.4739583333333286,
          "ticks": 78240,
          "durationTicks": 455
        },
        {
          "time": 81.5,
          "midi": 67,
          "name": "G4",
          "velocity": 0.7559055118110236,
          "duration": 0.4739583333333286,
          "ticks": 78240,
          "durationTicks": 455
        },
        {
          "time": 82,
          "midi": 66,
          "name": "F#4",
          "velocity": 0.7559055118110236,
          "duration": 0.23645833333333144,
          "ticks": 78720,
          "durationTicks": 227
        },
        {
          "time": 82,
          "midi": 69,
          "name": "A4",
          "velocity": 0.7559055118110236,
          "duration": 0.23645833333333144,
          "ticks": 78720,
          "durationTicks": 227
        },
        {
          "time": 82.25,
          "midi": 66,
          "name": "F#4",
          "velocity": 0.7559055118110236,
          "duration": 0.11770833333333997,
          "ticks": 78960,
          "durationTicks": 113
        },
        {
          "time": 82.25,
          "midi": 69,
          "name": "A4",
          "velocity": 0.7559055118110236,
          "duration": 0.11770833333333997,
          "ticks": 78960,
          "durationTicks": 113
        },
        {
          "time": 82.375,
          "midi": 66,
          "name": "F#4",
          "velocity": 0.7559055118110236,
          "duration": 0.11770833333333997,
          "ticks": 79080,
          "durationTicks": 113
        },
        {
          "time": 82.375,
          "midi": 69,
          "name": "A4",
          "velocity": 0.7559055118110236,
          "duration": 0.11770833333333997,
          "ticks": 79080,
          "durationTicks": 113
        },
        {
          "time": 82.5,
          "midi": 67,
          "name": "G4",
          "velocity": 0.7559055118110236,
          "duration": 0.23645833333333144,
          "ticks": 79200,
          "durationTicks": 227
        },
        {
          "time": 82.5,
          "midi": 71,
          "name": "B4",
          "velocity": 0.7559055118110236,
          "duration": 0.23645833333333144,
          "ticks": 79200,
          "durationTicks": 227
        },
        {
          "time": 82.75,
          "midi": 69,
          "name": "A4",
          "velocity": 0.7559055118110236,
          "duration": 0.23645833333333144,
          "ticks": 79440,
          "durationTicks": 227
        },
        {
          "time": 82.75,
          "midi": 72,
          "name": "C5",
          "velocity": 0.7559055118110236,
          "duration": 0.23645833333333144,
          "ticks": 79440,
          "durationTicks": 227
        },
        {
          "time": 83,
          "midi": 67,
          "name": "G4",
          "velocity": 0.7559055118110236,
          "duration": 0.4739583333333286,
          "ticks": 79680,
          "durationTicks": 455
        },
        {
          "time": 83,
          "midi": 71,
          "name": "B4",
          "velocity": 0.7559055118110236,
          "duration": 0.4739583333333286,
          "ticks": 79680,
          "durationTicks": 455
        },
        {
          "time": 83.5,
          "midi": 62,
          "name": "D4",
          "velocity": 0.7559055118110236,
          "duration": 0.4739583333333286,
          "ticks": 80160,
          "durationTicks": 455
        },
        {
          "time": 83.5,
          "midi": 67,
          "name": "G4",
          "velocity": 0.7559055118110236,
          "duration": 0.4739583333333286,
          "ticks": 80160,
          "durationTicks": 455
        },
        {
          "time": 84,
          "midi": 66,
          "name": "F#4",
          "velocity": 0.7559055118110236,
          "duration": 0.23645833333333144,
          "ticks": 80640,
          "durationTicks": 227
        },
        {
          "time": 84,
          "midi": 69,
          "name": "A4",
          "velocity": 0.7559055118110236,
          "duration": 0.23645833333333144,
          "ticks": 80640,
          "durationTicks": 227
        },
        {
          "time": 84.25,
          "midi": 66,
          "name": "F#4",
          "velocity": 0.7559055118110236,
          "duration": 0.11770833333333997,
          "ticks": 80880,
          "durationTicks": 113
        },
        {
          "time": 84.25,
          "midi": 69,
          "name": "A4",
          "velocity": 0.7559055118110236,
          "duration": 0.11770833333333997,
          "ticks": 80880,
          "durationTicks": 113
        },
        {
          "time": 84.375,
          "midi": 66,
          "name": "F#4",
          "velocity": 0.7559055118110236,
          "duration": 0.11770833333333997,
          "ticks": 81000,
          "durationTicks": 113
        },
        {
          "time": 84.375,
          "midi": 69,
          "name": "A4",
          "velocity": 0.7559055118110236,
          "duration": 0.11770833333333997,
          "ticks": 81000,
          "durationTicks": 113
        },
        {
          "time": 84.5,
          "midi": 67,
          "name": "G4",
          "velocity": 0.7559055118110236,
          "duration": 0.23645833333333144,
          "ticks": 81120,
          "durationTicks": 227
        },
        {
          "time": 84.5,
          "midi": 71,
          "name": "B4",
          "velocity": 0.7559055118110236,
          "duration": 0.23645833333333144,
          "ticks": 81120,
          "durationTicks": 227
        },
        {
          "time": 84.75,
          "midi": 69,
          "name": "A4",
          "velocity": 0.7559055118110236,
          "duration": 0.23645833333333144,
          "ticks": 81360,
          "durationTicks": 227
        },
        {
          "time": 84.75,
          "midi": 72,
          "name": "C5",
          "velocity": 0.7559055118110236,
          "duration": 0.23645833333333144,
          "ticks": 81360,
          "durationTicks": 227
        },
        {
          "time": 85,
          "midi": 67,
          "name": "G4",
          "velocity": 0.7559055118110236,
          "duration": 0.23645833333333144,
          "ticks": 81600,
          "durationTicks": 227
        },
        {
          "time": 85,
          "midi": 71,
          "name": "B4",
          "velocity": 0.7559055118110236,
          "duration": 0.23645833333333144,
          "ticks": 81600,
          "durationTicks": 227
        },
        {
          "time": 85.25,
          "midi": 67,
          "name": "G4",
          "velocity": 0.7559055118110236,
          "duration": 0.11770833333333997,
          "ticks": 81840,
          "durationTicks": 113
        },
        {
          "time": 85.25,
          "midi": 71,
          "name": "B4",
          "velocity": 0.7559055118110236,
          "duration": 0.11770833333333997,
          "ticks": 81840,
          "durationTicks": 113
        },
        {
          "time": 85.375,
          "midi": 67,
          "name": "G4",
          "velocity": 0.7559055118110236,
          "duration": 0.11770833333333997,
          "ticks": 81960,
          "durationTicks": 113
        },
        {
          "time": 85.375,
          "midi": 71,
          "name": "B4",
          "velocity": 0.7559055118110236,
          "duration": 0.11770833333333997,
          "ticks": 81960,
          "durationTicks": 113
        },
        {
          "time": 85.5,
          "midi": 66,
          "name": "F#4",
          "velocity": 0.7559055118110236,
          "duration": 0.23645833333333144,
          "ticks": 82080,
          "durationTicks": 227
        },
        {
          "time": 85.5,
          "midi": 69,
          "name": "A4",
          "velocity": 0.7559055118110236,
          "duration": 0.23645833333333144,
          "ticks": 82080,
          "durationTicks": 227
        },
        {
          "time": 85.75,
          "midi": 66,
          "name": "F#4",
          "velocity": 0.7559055118110236,
          "duration": 0.23645833333333144,
          "ticks": 82320,
          "durationTicks": 227
        },
        {
          "time": 85.75,
          "midi": 69,
          "name": "A4",
          "velocity": 0.7559055118110236,
          "duration": 0.23645833333333144,
          "ticks": 82320,
          "durationTicks": 227
        },
        {
          "time": 86,
          "midi": 64,
          "name": "E4",
          "velocity": 0.7559055118110236,
          "duration": 0.23645833333333144,
          "ticks": 82560,
          "durationTicks": 227
        },
        {
          "time": 86,
          "midi": 67,
          "name": "G4",
          "velocity": 0.7559055118110236,
          "duration": 0.23645833333333144,
          "ticks": 82560,
          "durationTicks": 227
        },
        {
          "time": 86.25,
          "midi": 64,
          "name": "E4",
          "velocity": 0.7559055118110236,
          "duration": 0.11770833333333997,
          "ticks": 82800,
          "durationTicks": 113
        },
        {
          "time": 86.25,
          "midi": 67,
          "name": "G4",
          "velocity": 0.7559055118110236,
          "duration": 0.11770833333333997,
          "ticks": 82800,
          "durationTicks": 113
        },
        {
          "time": 86.375,
          "midi": 64,
          "name": "E4",
          "velocity": 0.7559055118110236,
          "duration": 0.11770833333333997,
          "ticks": 82920,
          "durationTicks": 113
        },
        {
          "time": 86.375,
          "midi": 67,
          "name": "G4",
          "velocity": 0.7559055118110236,
          "duration": 0.11770833333333997,
          "ticks": 82920,
          "durationTicks": 113
        },
        {
          "time": 86.5,
          "midi": 64,
          "name": "E4",
          "velocity": 0.7559055118110236,
          "duration": 0.23645833333333144,
          "ticks": 83040,
          "durationTicks": 227
        },
        {
          "time": 86.5,
          "midi": 73,
          "name": "C#5",
          "velocity": 0.7559055118110236,
          "duration": 0.23645833333333144,
          "ticks": 83040,
          "durationTicks": 227
        },
        {
          "time": 86.75,
          "midi": 64,
          "name": "E4",
          "velocity": 0.7559055118110236,
          "duration": 0.23645833333333144,
          "ticks": 83280,
          "durationTicks": 227
        },
        {
          "time": 86.75,
          "midi": 73,
          "name": "C#5",
          "velocity": 0.7559055118110236,
          "duration": 0.23645833333333144,
          "ticks": 83280,
          "durationTicks": 227
        },
        {
          "time": 87,
          "midi": 66,
          "name": "F#4",
          "velocity": 0.7559055118110236,
          "duration": 0.4739583333333286,
          "ticks": 83520,
          "durationTicks": 455
        },
        {
          "time": 87,
          "midi": 74,
          "name": "D5",
          "velocity": 0.7559055118110236,
          "duration": 0.4739583333333286,
          "ticks": 83520,
          "durationTicks": 455
        },
        {
          "time": 88,
          "midi": 67,
          "name": "G4",
          "velocity": 0.9921259842519685,
          "duration": 0.4739583333333286,
          "ticks": 84480,
          "durationTicks": 455
        },
        {
          "time": 88,
          "midi": 71,
          "name": "B4",
          "velocity": 0.9921259842519685,
          "duration": 0.4739583333333286,
          "ticks": 84480,
          "durationTicks": 455
        },
        {
          "time": 88.5,
          "midi": 67,
          "name": "G4",
          "velocity": 0.9921259842519685,
          "duration": 0.4739583333333286,
          "ticks": 84960,
          "durationTicks": 455
        },
        {
          "time": 88.5,
          "midi": 71,
          "name": "B4",
          "velocity": 0.9921259842519685,
          "duration": 0.4739583333333286,
          "ticks": 84960,
          "durationTicks": 455
        },
        {
          "time": 89,
          "midi": 69,
          "name": "A4",
          "velocity": 0.9921259842519685,
          "duration": 0.4739583333333286,
          "ticks": 85440,
          "durationTicks": 455
        },
        {
          "time": 89,
          "midi": 72,
          "name": "C5",
          "velocity": 0.9921259842519685,
          "duration": 0.4739583333333286,
          "ticks": 85440,
          "durationTicks": 455
        },
        {
          "time": 89.5,
          "midi": 71,
          "name": "B4",
          "velocity": 0.9921259842519685,
          "duration": 0.4739583333333286,
          "ticks": 85920,
          "durationTicks": 455
        },
        {
          "time": 89.5,
          "midi": 74,
          "name": "D5",
          "velocity": 0.9921259842519685,
          "duration": 0.4739583333333286,
          "ticks": 85920,
          "durationTicks": 455
        },
        {
          "time": 90,
          "midi": 71,
          "name": "B4",
          "velocity": 0.9921259842519685,
          "duration": 0.4739583333333286,
          "ticks": 86400,
          "durationTicks": 455
        },
        {
          "time": 90,
          "midi": 74,
          "name": "D5",
          "velocity": 0.9921259842519685,
          "duration": 0.4739583333333286,
          "ticks": 86400,
          "durationTicks": 455
        },
        {
          "time": 90.5,
          "midi": 69,
          "name": "A4",
          "velocity": 0.9921259842519685,
          "duration": 0.4739583333333286,
          "ticks": 86880,
          "durationTicks": 455
        },
        {
          "time": 90.5,
          "midi": 72,
          "name": "C5",
          "velocity": 0.9921259842519685,
          "duration": 0.4739583333333286,
          "ticks": 86880,
          "durationTicks": 455
        },
        {
          "time": 91,
          "midi": 67,
          "name": "G4",
          "velocity": 0.9921259842519685,
          "duration": 0.4739583333333286,
          "ticks": 87360,
          "durationTicks": 455
        },
        {
          "time": 91,
          "midi": 71,
          "name": "B4",
          "velocity": 0.9921259842519685,
          "duration": 0.4739583333333286,
          "ticks": 87360,
          "durationTicks": 455
        },
        {
          "time": 91.5,
          "midi": 66,
          "name": "F#4",
          "velocity": 0.9921259842519685,
          "duration": 0.4739583333333286,
          "ticks": 87840,
          "durationTicks": 455
        },
        {
          "time": 91.5,
          "midi": 69,
          "name": "A4",
          "velocity": 0.9921259842519685,
          "duration": 0.4739583333333286,
          "ticks": 87840,
          "durationTicks": 455
        },
        {
          "time": 92,
          "midi": 62,
          "name": "D4",
          "velocity": 0.9921259842519685,
          "duration": 0.4739583333333286,
          "ticks": 88320,
          "durationTicks": 455
        },
        {
          "time": 92,
          "midi": 67,
          "name": "G4",
          "velocity": 0.9921259842519685,
          "duration": 0.4739583333333286,
          "ticks": 88320,
          "durationTicks": 455
        },
        {
          "time": 92.5,
          "midi": 62,
          "name": "D4",
          "velocity": 0.9921259842519685,
          "duration": 0.4739583333333286,
          "ticks": 88800,
          "durationTicks": 455
        },
        {
          "time": 92.5,
          "midi": 67,
          "name": "G4",
          "velocity": 0.9921259842519685,
          "duration": 0.4739583333333286,
          "ticks": 88800,
          "durationTicks": 455
        },
        {
          "time": 93,
          "midi": 66,
          "name": "F#4",
          "velocity": 0.9921259842519685,
          "duration": 0.4739583333333286,
          "ticks": 89280,
          "durationTicks": 455
        },
        {
          "time": 93,
          "midi": 69,
          "name": "A4",
          "velocity": 0.9921259842519685,
          "duration": 0.4739583333333286,
          "ticks": 89280,
          "durationTicks": 455
        },
        {
          "time": 93.5,
          "midi": 67,
          "name": "G4",
          "velocity": 0.9921259842519685,
          "duration": 0.4739583333333286,
          "ticks": 89760,
          "durationTicks": 455
        },
        {
          "time": 93.5,
          "midi": 71,
          "name": "B4",
          "velocity": 0.9921259842519685,
          "duration": 0.4739583333333286,
          "ticks": 89760,
          "durationTicks": 455
        },
        {
          "time": 94,
          "midi": 66,
          "name": "F#4",
          "velocity": 0.9921259842519685,
          "duration": 0.71145833333334,
          "ticks": 90240,
          "durationTicks": 683
        },
        {
          "time": 94,
          "midi": 69,
          "name": "A4",
          "velocity": 0.9921259842519685,
          "duration": 0.71145833333334,
          "ticks": 90240,
          "durationTicks": 683
        },
        {
          "time": 94.75,
          "midi": 62,
          "name": "D4",
          "velocity": 0.9921259842519685,
          "duration": 0.23645833333333144,
          "ticks": 90960,
          "durationTicks": 227
        },
        {
          "time": 94.75,
          "midi": 67,
          "name": "G4",
          "velocity": 0.9921259842519685,
          "duration": 0.23645833333333144,
          "ticks": 90960,
          "durationTicks": 227
        },
        {
          "time": 95,
          "midi": 62,
          "name": "D4",
          "velocity": 0.9921259842519685,
          "duration": 0.9489583333333371,
          "ticks": 91200,
          "durationTicks": 911
        },
        {
          "time": 95,
          "midi": 67,
          "name": "G4",
          "velocity": 0.9921259842519685,
          "duration": 0.9489583333333371,
          "ticks": 91200,
          "durationTicks": 911
        },
        {
          "time": 96,
          "midi": 74,
          "name": "D5",
          "velocity": 0.9921259842519685,
          "duration": 0.4739583333333286,
          "ticks": 92160,
          "durationTicks": 455
        },
        {
          "time": 96.5,
          "midi": 71,
          "name": "B4",
          "velocity": 0.9921259842519685,
          "duration": 0.4739583333333286,
          "ticks": 92640,
          "durationTicks": 455
        },
        {
          "time": 97,
          "midi": 69,
          "name": "A4",
          "velocity": 0.9921259842519685,
          "duration": 0.4739583333333286,
          "ticks": 93120,
          "durationTicks": 455
        },
        {
          "time": 97.5,
          "midi": 67,
          "name": "G4",
          "velocity": 0.9921259842519685,
          "duration": 0.4739583333333286,
          "ticks": 93600,
          "durationTicks": 455
        },
        {
          "time": 100,
          "midi": 67,
          "name": "G4",
          "velocity": 0.9921259842519685,
          "duration": 0.4739583333333286,
          "ticks": 96000,
          "durationTicks": 455
        },
        {
          "time": 100.5,
          "midi": 67,
          "name": "G4",
          "velocity": 0.9921259842519685,
          "duration": 0.4739583333333286,
          "ticks": 96480,
          "durationTicks": 455
        },
        {
          "time": 101,
          "midi": 69,
          "name": "A4",
          "velocity": 0.9921259842519685,
          "duration": 0.4739583333333286,
          "ticks": 96960,
          "durationTicks": 455
        },
        {
          "time": 101.5,
          "midi": 71,
          "name": "B4",
          "velocity": 0.9921259842519685,
          "duration": 0.4739583333333286,
          "ticks": 97440,
          "durationTicks": 455
        },
        {
          "time": 102,
          "midi": 69,
          "name": "A4",
          "velocity": 0.9921259842519685,
          "duration": 0.71145833333334,
          "ticks": 97920,
          "durationTicks": 683
        },
        {
          "time": 102.75,
          "midi": 67,
          "name": "G4",
          "velocity": 0.9921259842519685,
          "duration": 0.23645833333333144,
          "ticks": 98640,
          "durationTicks": 227
        },
        {
          "time": 103,
          "midi": 67,
          "name": "G4",
          "velocity": 0.9921259842519685,
          "duration": 0.9489583333333371,
          "ticks": 98880,
          "durationTicks": 911
        }
      ],
      "controlChanges": {
        "7": [
          {
            "number": 7,
            "value": 0.7874015748031497,
            "time": 0,
            "ticks": 0
          }
        ],
        "10": [
          {
            "number": 10,
            "value": 0.5039370078740157,
            "time": 0,
            "ticks": 0
          }
        ],
        "91": [
          {
            "number": 91,
            "value": 0,
            "time": 0,
            "ticks": 0
          }
        ],
        "93": [
          {
            "number": 93,
            "value": 0,
            "time": 0,
            "ticks": 0
          }
        ],
        "121": [
          {
            "number": 121,
            "value": 0,
            "time": 0,
            "ticks": 0
          }
        ]
      }
    },
    {
      "name": "Piano 4",
      "channel": 0,
      "instrument": {
        "number": 0,
        "name": "acoustic grand piano",
        "family": "piano"
      },
      "notes": [
        {
          "time": 0,
          "midi": 43,
          "name": "G2",
          "velocity": 0.6299212598425197,
          "duration": 1.8989583333333333,
          "ticks": 0,
          "durationTicks": 1823
        },
        {
          "time": 0,
          "midi": 47,
          "name": "B2",
          "velocity": 0.6299212598425197,
          "duration": 1.8989583333333333,
          "ticks": 0,
          "durationTicks": 1823
        },
        {
          "time": 0,
          "midi": 50,
          "name": "D3",
          "velocity": 0.6299212598425197,
          "duration": 1.8989583333333333,
          "ticks": 0,
          "durationTicks": 1823
        },
        {
          "time": 2,
          "midi": 38,
          "name": "D2",
          "velocity": 0.6299212598425197,
          "duration": 1.8989583333333333,
          "ticks": 1920,
          "durationTicks": 1823
        },
        {
          "time": 2,
          "midi": 42,
          "name": "F#2",
          "velocity": 0.6299212598425197,
          "duration": 1.8989583333333333,
          "ticks": 1920,
          "durationTicks": 1823
        },
        {
          "time": 2,
          "midi": 45,
          "name": "A2",
          "velocity": 0.6299212598425197,
          "duration": 1.8989583333333333,
          "ticks": 1920,
          "durationTicks": 1823
        },
        {
          "time": 4,
          "midi": 43,
          "name": "G2",
          "velocity": 0.6299212598425197,
          "duration": 1.8989583333333337,
          "ticks": 3840,
          "durationTicks": 1823
        },
        {
          "time": 4,
          "midi": 47,
          "name": "B2",
          "velocity": 0.6299212598425197,
          "duration": 1.8989583333333337,
          "ticks": 3840,
          "durationTicks": 1823
        },
        {
          "time": 4,
          "midi": 50,
          "name": "D3",
          "velocity": 0.6299212598425197,
          "duration": 1.8989583333333337,
          "ticks": 3840,
          "durationTicks": 1823
        },
        {
          "time": 6,
          "midi": 38,
          "name": "D2",
          "velocity": 0.6299212598425197,
          "duration": 1.8989583333333337,
          "ticks": 5760,
          "durationTicks": 1823
        },
        {
          "time": 6,
          "midi": 42,
          "name": "F#2",
          "velocity": 0.6299212598425197,
          "duration": 1.8989583333333337,
          "ticks": 5760,
          "durationTicks": 1823
        },
        {
          "time": 6,
          "midi": 45,
          "name": "A2",
          "velocity": 0.6299212598425197,
          "duration": 1.8989583333333337,
          "ticks": 5760,
          "durationTicks": 1823
        },
        {
          "time": 8,
          "midi": 43,
          "name": "G2",
          "velocity": 0.6299212598425197,
          "duration": 1.8989583333333329,
          "ticks": 7680,
          "durationTicks": 1823
        },
        {
          "time": 8,
          "midi": 47,
          "name": "B2",
          "velocity": 0.6299212598425197,
          "duration": 1.8989583333333329,
          "ticks": 7680,
          "durationTicks": 1823
        },
        {
          "time": 8,
          "midi": 50,
          "name": "D3",
          "velocity": 0.6299212598425197,
          "duration": 1.8989583333333329,
          "ticks": 7680,
          "durationTicks": 1823
        },
        {
          "time": 10,
          "midi": 36,
          "name": "C2",
          "velocity": 0.6299212598425197,
          "duration": 1.8989583333333329,
          "ticks": 9600,
          "durationTicks": 1823
        },
        {
          "time": 10,
          "midi": 40,
          "name": "E2",
          "velocity": 0.6299212598425197,
          "duration": 1.8989583333333329,
          "ticks": 9600,
          "durationTicks": 1823
        },
        {
          "time": 10,
          "midi": 43,
          "name": "G2",
          "velocity": 0.6299212598425197,
          "duration": 1.8989583333333329,
          "ticks": 9600,
          "durationTicks": 1823
        },
        {
          "time": 12,
          "midi": 38,
          "name": "D2",
          "velocity": 0.6299212598425197,
          "duration": 1.8989583333333329,
          "ticks": 11520,
          "durationTicks": 1823
        },
        {
          "time": 12,
          "midi": 43,
          "name": "G2",
          "velocity": 0.6299212598425197,
          "duration": 1.8989583333333329,
          "ticks": 11520,
          "durationTicks": 1823
        },
        {
          "time": 12,
          "midi": 47,
          "name": "B2",
          "velocity": 0.6299212598425197,
          "duration": 1.8989583333333329,
          "ticks": 11520,
          "durationTicks": 1823
        },
        {
          "time": 14,
          "midi": 38,
          "name": "D2",
          "velocity": 0.6299212598425197,
          "duration": 0.9489583333333336,
          "ticks": 13440,
          "durationTicks": 911
        },
        {
          "time": 14,
          "midi": 42,
          "name": "F#2",
          "velocity": 0.6299212598425197,
          "duration": 0.9489583333333336,
          "ticks": 13440,
          "durationTicks": 911
        },
        {
          "time": 14,
          "midi": 45,
          "name": "A2",
          "velocity": 0.6299212598425197,
          "duration": 0.9489583333333336,
          "ticks": 13440,
          "durationTicks": 911
        },
        {
          "time": 15,
          "midi": 43,
          "name": "G2",
          "velocity": 0.6299212598425197,
          "duration": 0.9489583333333336,
          "ticks": 14400,
          "durationTicks": 911
        },
        {
          "time": 15,
          "midi": 47,
          "name": "B2",
          "velocity": 0.6299212598425197,
          "duration": 0.9489583333333336,
          "ticks": 14400,
          "durationTicks": 911
        },
        {
          "time": 15,
          "midi": 50,
          "name": "D3",
          "velocity": 0.6299212598425197,
          "duration": 0.9489583333333336,
          "ticks": 14400,
          "durationTicks": 911
        },
        {
          "time": 16,
          "midi": 38,
          "name": "D2",
          "velocity": 0.7559055118110236,
          "duration": 0.9489583333333336,
          "ticks": 15360,
          "durationTicks": 911
        },
        {
          "time": 16,
          "midi": 42,
          "name": "F#2",
          "velocity": 0.7559055118110236,
          "duration": 0.9489583333333336,
          "ticks": 15360,
          "durationTicks": 911
        },
        {
          "time": 16,
          "midi": 45,
          "name": "A2",
          "velocity": 0.7559055118110236,
          "duration": 0.9489583333333336,
          "ticks": 15360,
          "durationTicks": 911
        },
        {
          "time": 17,
          "midi": 38,
          "name": "D2",
          "velocity": 0.7559055118110236,
          "duration": 0.9489583333333336,
          "ticks": 16320,
          "durationTicks": 911
        },
        {
          "time": 17,
          "midi": 43,
          "name": "G2",
          "velocity": 0.7559055118110236,
          "duration": 0.9489583333333336,
          "ticks": 16320,
          "durationTicks": 911
        },
        {
          "time": 17,
          "midi": 47,
          "name": "B2",
          "velocity": 0.7559055118110236,
          "duration": 0.9489583333333336,
          "ticks": 16320,
          "durationTicks": 911
        },
        {
          "time": 18,
          "midi": 38,
          "name": "D2",
          "velocity": 0.7559055118110236,
          "duration": 0.9489583333333336,
          "ticks": 17280,
          "durationTicks": 911
        },
        {
          "time": 18,
          "midi": 42,
          "name": "F#2",
          "velocity": 0.7559055118110236,
          "duration": 0.9489583333333336,
          "ticks": 17280,
          "durationTicks": 911
        },
        {
          "time": 18,
          "midi": 45,
          "name": "A2",
          "velocity": 0.7559055118110236,
          "duration": 0.9489583333333336,
          "ticks": 17280,
          "durationTicks": 911
        },
        {
          "time": 19,
          "midi": 38,
          "name": "D2",
          "velocity": 0.7559055118110236,
          "duration": 0.9489583333333336,
          "ticks": 18240,
          "durationTicks": 911
        },
        {
          "time": 19,
          "midi": 43,
          "name": "G2",
          "velocity": 0.7559055118110236,
          "duration": 0.9489583333333336,
          "ticks": 18240,
          "durationTicks": 911
        },
        {
          "time": 19,
          "midi": 47,
          "name": "B2",
          "velocity": 0.7559055118110236,
          "duration": 0.9489583333333336,
          "ticks": 18240,
          "durationTicks": 911
        },
        {
          "time": 20,
          "midi": 38,
          "name": "D2",
          "velocity": 0.7559055118110236,
          "duration": 0.9489583333333336,
          "ticks": 19200,
          "durationTicks": 911
        },
        {
          "time": 20,
          "midi": 43,
          "name": "G2",
          "velocity": 0.7559055118110236,
          "duration": 0.9489583333333336,
          "ticks": 19200,
          "durationTicks": 911
        },
        {
          "time": 20,
          "midi": 47,
          "name": "B2",
          "velocity": 0.7559055118110236,
          "duration": 0.9489583333333336,
          "ticks": 19200,
          "durationTicks": 911
        },
        {
          "time": 21,
          "midi": 39,
          "name": "D#2",
          "velocity": 0.7559055118110236,
          "duration": 0.9489583333333336,
          "ticks": 20160,
          "durationTicks": 911
        },
        {
          "time": 22,
          "midi": 40,
          "name": "E2",
          "velocity": 0.7559055118110236,
          "duration": 0.47395833333333215,
          "ticks": 21120,
          "durationTicks": 455
        },
        {
          "time": 22.5,
          "midi": 45,
          "name": "A2",
          "velocity": 0.7559055118110236,
          "duration": 0.47395833333333215,
          "ticks": 21600,
          "durationTicks": 455
        },
        {
          "time": 23,
          "midi": 38,
          "name": "D2",
          "velocity": 0.7559055118110236,
          "duration": 0.9489583333333336,
          "ticks": 22080,
          "durationTicks": 911
        },
        {
          "time": 24,
          "midi": 43,
          "name": "G2",
          "velocity": 0.9921259842519685,
          "duration": 1.8989583333333329,
          "ticks": 23040,
          "durationTicks": 1823
        },
        {
          "time": 24,
          "midi": 47,
          "name": "B2",
          "velocity": 0.9921259842519685,
          "duration": 1.8989583333333329,
          "ticks": 23040,
          "durationTicks": 1823
        },
        {
          "time": 24,
          "midi": 50,
          "name": "D3",
          "velocity": 0.9921259842519685,
          "duration": 1.8989583333333329,
          "ticks": 23040,
          "durationTicks": 1823
        },
        {
          "time": 26,
          "midi": 36,
          "name": "C2",
          "velocity": 0.9921259842519685,
          "duration": 1.8989583333333329,
          "ticks": 24960,
          "durationTicks": 1823
        },
        {
          "time": 26,
          "midi": 40,
          "name": "E2",
          "velocity": 0.9921259842519685,
          "duration": 1.8989583333333329,
          "ticks": 24960,
          "durationTicks": 1823
        },
        {
          "time": 26,
          "midi": 43,
          "name": "G2",
          "velocity": 0.9921259842519685,
          "duration": 1.8989583333333329,
          "ticks": 24960,
          "durationTicks": 1823
        },
        {
          "time": 28,
          "midi": 38,
          "name": "D2",
          "velocity": 0.9921259842519685,
          "duration": 1.8989583333333329,
          "ticks": 26880,
          "durationTicks": 1823
        },
        {
          "time": 28,
          "midi": 43,
          "name": "G2",
          "velocity": 0.9921259842519685,
          "duration": 1.8989583333333329,
          "ticks": 26880,
          "durationTicks": 1823
        },
        {
          "time": 28,
          "midi": 47,
          "name": "B2",
          "velocity": 0.9921259842519685,
          "duration": 1.8989583333333329,
          "ticks": 26880,
          "durationTicks": 1823
        },
        {
          "time": 30,
          "midi": 38,
          "name": "D2",
          "velocity": 0.9921259842519685,
          "duration": 0.9489583333333336,
          "ticks": 28800,
          "durationTicks": 911
        },
        {
          "time": 30,
          "midi": 42,
          "name": "F#2",
          "velocity": 0.9921259842519685,
          "duration": 0.9489583333333336,
          "ticks": 28800,
          "durationTicks": 911
        },
        {
          "time": 30,
          "midi": 45,
          "name": "A2",
          "velocity": 0.9921259842519685,
          "duration": 0.9489583333333336,
          "ticks": 28800,
          "durationTicks": 911
        },
        {
          "time": 31,
          "midi": 43,
          "name": "G2",
          "velocity": 0.9921259842519685,
          "duration": 0.9489583333333336,
          "ticks": 29760,
          "durationTicks": 911
        },
        {
          "time": 31,
          "midi": 47,
          "name": "B2",
          "velocity": 0.9921259842519685,
          "duration": 0.9489583333333336,
          "ticks": 29760,
          "durationTicks": 911
        },
        {
          "time": 31,
          "midi": 50,
          "name": "D3",
          "velocity": 0.9921259842519685,
          "duration": 0.9489583333333336,
          "ticks": 29760,
          "durationTicks": 911
        },
        {
          "time": 48,
          "midi": 38,
          "name": "D2",
          "velocity": 0.7559055118110236,
          "duration": 0.94895833333333,
          "ticks": 46080,
          "durationTicks": 911
        },
        {
          "time": 48,
          "midi": 42,
          "name": "F#2",
          "velocity": 0.7559055118110236,
          "duration": 0.94895833333333,
          "ticks": 46080,
          "durationTicks": 911
        },
        {
          "time": 48,
          "midi": 45,
          "name": "A2",
          "velocity": 0.7559055118110236,
          "duration": 0.94895833333333,
          "ticks": 46080,
          "durationTicks": 911
        },
        {
          "time": 49,
          "midi": 38,
          "name": "D2",
          "velocity": 0.7559055118110236,
          "duration": 0.94895833333333,
          "ticks": 47040,
          "durationTicks": 911
        },
        {
          "time": 49,
          "midi": 43,
          "name": "G2",
          "velocity": 0.7559055118110236,
          "duration": 0.94895833333333,
          "ticks": 47040,
          "durationTicks": 911
        },
        {
          "time": 49,
          "midi": 47,
          "name": "B2",
          "velocity": 0.7559055118110236,
          "duration": 0.94895833333333,
          "ticks": 47040,
          "durationTicks": 911
        },
        {
          "time": 50,
          "midi": 38,
          "name": "D2",
          "velocity": 0.7559055118110236,
          "duration": 0.94895833333333,
          "ticks": 48000,
          "durationTicks": 911
        },
        {
          "time": 50,
          "midi": 42,
          "name": "F#2",
          "velocity": 0.7559055118110236,
          "duration": 0.94895833333333,
          "ticks": 48000,
          "durationTicks": 911
        },
        {
          "time": 50,
          "midi": 45,
          "name": "A2",
          "velocity": 0.7559055118110236,
          "duration": 0.94895833333333,
          "ticks": 48000,
          "durationTicks": 911
        },
        {
          "time": 51,
          "midi": 38,
          "name": "D2",
          "velocity": 0.7559055118110236,
          "duration": 0.94895833333333,
          "ticks": 48960,
          "durationTicks": 911
        },
        {
          "time": 51,
          "midi": 43,
          "name": "G2",
          "velocity": 0.7559055118110236,
          "duration": 0.94895833333333,
          "ticks": 48960,
          "durationTicks": 911
        },
        {
          "time": 51,
          "midi": 47,
          "name": "B2",
          "velocity": 0.7559055118110236,
          "duration": 0.94895833333333,
          "ticks": 48960,
          "durationTicks": 911
        },
        {
          "time": 52,
          "midi": 38,
          "name": "D2",
          "velocity": 0.7559055118110236,
          "duration": 0.94895833333333,
          "ticks": 49920,
          "durationTicks": 911
        },
        {
          "time": 52,
          "midi": 43,
          "name": "G2",
          "velocity": 0.7559055118110236,
          "duration": 0.94895833333333,
          "ticks": 49920,
          "durationTicks": 911
        },
        {
          "time": 52,
          "midi": 47,
          "name": "B2",
          "velocity": 0.7559055118110236,
          "duration": 0.94895833333333,
          "ticks": 49920,
          "durationTicks": 911
        },
        {
          "time": 53,
          "midi": 39,
          "name": "D#2",
          "velocity": 0.7559055118110236,
          "duration": 0.94895833333333,
          "ticks": 50880,
          "durationTicks": 911
        },
        {
          "time": 54,
          "midi": 40,
          "name": "E2",
          "velocity": 0.7559055118110236,
          "duration": 0.4739583333333357,
          "ticks": 51840,
          "durationTicks": 455
        },
        {
          "time": 54.5,
          "midi": 45,
          "name": "A2",
          "velocity": 0.7559055118110236,
          "duration": 0.4739583333333357,
          "ticks": 52320,
          "durationTicks": 455
        },
        {
          "time": 55,
          "midi": 38,
          "name": "D2",
          "velocity": 0.7559055118110236,
          "duration": 0.94895833333333,
          "ticks": 52800,
          "durationTicks": 911
        },
        {
          "time": 56,
          "midi": 43,
          "name": "G2",
          "velocity": 0.9921259842519685,
          "duration": 1.8989583333333329,
          "ticks": 53760,
          "durationTicks": 1823
        },
        {
          "time": 56,
          "midi": 47,
          "name": "B2",
          "velocity": 0.9921259842519685,
          "duration": 1.8989583333333329,
          "ticks": 53760,
          "durationTicks": 1823
        },
        {
          "time": 56,
          "midi": 50,
          "name": "D3",
          "velocity": 0.9921259842519685,
          "duration": 1.8989583333333329,
          "ticks": 53760,
          "durationTicks": 1823
        },
        {
          "time": 58,
          "midi": 36,
          "name": "C2",
          "velocity": 0.9921259842519685,
          "duration": 1.8989583333333329,
          "ticks": 55680,
          "durationTicks": 1823
        },
        {
          "time": 58,
          "midi": 40,
          "name": "E2",
          "velocity": 0.9921259842519685,
          "duration": 1.8989583333333329,
          "ticks": 55680,
          "durationTicks": 1823
        },
        {
          "time": 58,
          "midi": 43,
          "name": "G2",
          "velocity": 0.9921259842519685,
          "duration": 1.8989583333333329,
          "ticks": 55680,
          "durationTicks": 1823
        },
        {
          "time": 60,
          "midi": 38,
          "name": "D2",
          "velocity": 0.9921259842519685,
          "duration": 1.8989583333333329,
          "ticks": 57600,
          "durationTicks": 1823
        },
        {
          "time": 60,
          "midi": 43,
          "name": "G2",
          "velocity": 0.9921259842519685,
          "duration": 1.8989583333333329,
          "ticks": 57600,
          "durationTicks": 1823
        },
        {
          "time": 60,
          "midi": 47,
          "name": "B2",
          "velocity": 0.9921259842519685,
          "duration": 1.8989583333333329,
          "ticks": 57600,
          "durationTicks": 1823
        },
        {
          "time": 62,
          "midi": 38,
          "name": "D2",
          "velocity": 0.9921259842519685,
          "duration": 0.94895833333333,
          "ticks": 59520,
          "durationTicks": 911
        },
        {
          "time": 62,
          "midi": 42,
          "name": "F#2",
          "velocity": 0.9921259842519685,
          "duration": 0.94895833333333,
          "ticks": 59520,
          "durationTicks": 911
        },
        {
          "time": 62,
          "midi": 45,
          "name": "A2",
          "velocity": 0.9921259842519685,
          "duration": 0.94895833333333,
          "ticks": 59520,
          "durationTicks": 911
        },
        {
          "time": 63,
          "midi": 43,
          "name": "G2",
          "velocity": 0.9921259842519685,
          "duration": 0.94895833333333,
          "ticks": 60480,
          "durationTicks": 911
        },
        {
          "time": 63,
          "midi": 47,
          "name": "B2",
          "velocity": 0.9921259842519685,
          "duration": 0.94895833333333,
          "ticks": 60480,
          "durationTicks": 911
        },
        {
          "time": 63,
          "midi": 50,
          "name": "D3",
          "velocity": 0.9921259842519685,
          "duration": 0.94895833333333,
          "ticks": 60480,
          "durationTicks": 911
        },
        {
          "time": 64,
          "midi": 43,
          "name": "G2",
          "velocity": 0.6299212598425197,
          "duration": 0.11770833333333997,
          "ticks": 61440,
          "durationTicks": 113
        },
        {
          "time": 64.125,
          "midi": 47,
          "name": "B2",
          "velocity": 0.6299212598425197,
          "duration": 0.11770833333333997,
          "ticks": 61560,
          "durationTicks": 113
        },
        {
          "time": 64.25,
          "midi": 50,
          "name": "D3",
          "velocity": 0.6299212598425197,
          "duration": 0.11770833333333997,
          "ticks": 61680,
          "durationTicks": 113
        },
        {
          "time": 64.375,
          "midi": 55,
          "name": "G3",
          "velocity": 0.6299212598425197,
          "duration": 0.11770833333333997,
          "ticks": 61800,
          "durationTicks": 113
        },
        {
          "time": 65.5,
          "midi": 50,
          "name": "D3",
          "velocity": 0.6299212598425197,
          "duration": 0.11770833333333997,
          "ticks": 62880,
          "durationTicks": 113
        },
        {
          "time": 65.625,
          "midi": 47,
          "name": "B2",
          "velocity": 0.6299212598425197,
          "duration": 0.11770833333333997,
          "ticks": 63000,
          "durationTicks": 113
        },
        {
          "time": 65.75,
          "midi": 43,
          "name": "G2",
          "velocity": 0.6299212598425197,
          "duration": 0.23645833333333144,
          "ticks": 63120,
          "durationTicks": 227
        },
        {
          "time": 66,
          "midi": 38,
          "name": "D2",
          "velocity": 0.6299212598425197,
          "duration": 0.11770833333333997,
          "ticks": 63360,
          "durationTicks": 113
        },
        {
          "time": 66.125,
          "midi": 42,
          "name": "F#2",
          "velocity": 0.6299212598425197,
          "duration": 0.11770833333333997,
          "ticks": 63480,
          "durationTicks": 113
        },
        {
          "time": 66.25,
          "midi": 45,
          "name": "A2",
          "velocity": 0.6299212598425197,
          "duration": 0.11770833333333997,
          "ticks": 63600,
          "durationTicks": 113
        },
        {
          "time": 66.375,
          "midi": 50,
          "name": "D3",
          "velocity": 0.6299212598425197,
          "duration": 0.11770833333333997,
          "ticks": 63720,
          "durationTicks": 113
        },
        {
          "time": 67.5,
          "midi": 45,
          "name": "A2",
          "velocity": 0.6299212598425197,
          "duration": 0.11770833333333997,
          "ticks": 64800,
          "durationTicks": 113
        },
        {
          "time": 67.625,
          "midi": 42,
          "name": "F#2",
          "velocity": 0.6299212598425197,
          "duration": 0.11770833333333997,
          "ticks": 64920,
          "durationTicks": 113
        },
        {
          "time": 67.75,
          "midi": 38,
          "name": "D2",
          "velocity": 0.6299212598425197,
          "duration": 0.23645833333333144,
          "ticks": 65040,
          "durationTicks": 227
        },
        {
          "time": 68,
          "midi": 43,
          "name": "G2",
          "velocity": 0.6299212598425197,
          "duration": 0.11770833333333997,
          "ticks": 65280,
          "durationTicks": 113
        },
        {
          "time": 68.125,
          "midi": 47,
          "name": "B2",
          "velocity": 0.6299212598425197,
          "duration": 0.11770833333333997,
          "ticks": 65400,
          "durationTicks": 113
        },
        {
          "time": 68.25,
          "midi": 50,
          "name": "D3",
          "velocity": 0.6299212598425197,
          "duration": 0.11770833333333997,
          "ticks": 65520,
          "durationTicks": 113
        },
        {
          "time": 68.375,
          "midi": 55,
          "name": "G3",
          "velocity": 0.6299212598425197,
          "duration": 0.11770833333333997,
          "ticks": 65640,
          "durationTicks": 113
        },
        {
          "time": 69.5,
          "midi": 50,
          "name": "D3",
          "velocity": 0.6299212598425197,
          "duration": 0.11770833333333997,
          "ticks": 66720,
          "durationTicks": 113
        },
        {
          "time": 69.625,
          "midi": 47,
          "name": "B2",
          "velocity": 0.6299212598425197,
          "duration": 0.11770833333333997,
          "ticks": 66840,
          "durationTicks": 113
        },
        {
          "time": 69.75,
          "midi": 43,
          "name": "G2",
          "velocity": 0.6299212598425197,
          "duration": 0.23645833333333144,
          "ticks": 66960,
          "durationTicks": 227
        },
        {
          "time": 70,
          "midi": 38,
          "name": "D2",
          "velocity": 0.6299212598425197,
          "duration": 0.11770833333333997,
          "ticks": 67200,
          "durationTicks": 113
        },
        {
          "time": 70.125,
          "midi": 42,
          "name": "F#2",
          "velocity": 0.6299212598425197,
          "duration": 0.11770833333333997,
          "ticks": 67320,
          "durationTicks": 113
        },
        {
          "time": 70.25,
          "midi": 45,
          "name": "A2",
          "velocity": 0.6299212598425197,
          "duration": 0.11770833333333997,
          "ticks": 67440,
          "durationTicks": 113
        },
        {
          "time": 70.375,
          "midi": 50,
          "name": "D3",
          "velocity": 0.6299212598425197,
          "duration": 0.11770833333333997,
          "ticks": 67560,
          "durationTicks": 113
        },
        {
          "time": 71.5,
          "midi": 45,
          "name": "A2",
          "velocity": 0.6299212598425197,
          "duration": 0.11770833333333997,
          "ticks": 68640,
          "durationTicks": 113
        },
        {
          "time": 71.625,
          "midi": 42,
          "name": "F#2",
          "velocity": 0.6299212598425197,
          "duration": 0.11770833333333997,
          "ticks": 68760,
          "durationTicks": 113
        },
        {
          "time": 71.75,
          "midi": 38,
          "name": "D2",
          "velocity": 0.6299212598425197,
          "duration": 0.23645833333333144,
          "ticks": 68880,
          "durationTicks": 227
        },
        {
          "time": 72,
          "midi": 43,
          "name": "G2",
          "velocity": 0.6299212598425197,
          "duration": 0.11770833333333997,
          "ticks": 69120,
          "durationTicks": 113
        },
        {
          "time": 72.125,
          "midi": 47,
          "name": "B2",
          "velocity": 0.6299212598425197,
          "duration": 0.11770833333333997,
          "ticks": 69240,
          "durationTicks": 113
        },
        {
          "time": 72.25,
          "midi": 50,
          "name": "D3",
          "velocity": 0.6299212598425197,
          "duration": 0.11770833333333997,
          "ticks": 69360,
          "durationTicks": 113
        },
        {
          "time": 72.375,
          "midi": 55,
          "name": "G3",
          "velocity": 0.6299212598425197,
          "duration": 0.11770833333333997,
          "ticks": 69480,
          "durationTicks": 113
        },
        {
          "time": 73.5,
          "midi": 50,
          "name": "D3",
          "velocity": 0.6299212598425197,
          "duration": 0.11770833333333997,
          "ticks": 70560,
          "durationTicks": 113
        },
        {
          "time": 73.625,
          "midi": 47,
          "name": "B2",
          "velocity": 0.6299212598425197,
          "duration": 0.11770833333333997,
          "ticks": 70680,
          "durationTicks": 113
        },
        {
          "time": 73.75,
          "midi": 43,
          "name": "G2",
          "velocity": 0.6299212598425197,
          "duration": 0.23645833333333144,
          "ticks": 70800,
          "durationTicks": 227
        },
        {
          "time": 74,
          "midi": 36,
          "name": "C2",
          "velocity": 0.6299212598425197,
          "duration": 0.11770833333333997,
          "ticks": 71040,
          "durationTicks": 113
        },
        {
          "time": 74.125,
          "midi": 40,
          "name": "E2",
          "velocity": 0.6299212598425197,
          "duration": 0.11770833333333997,
          "ticks": 71160,
          "durationTicks": 113
        },
        {
          "time": 74.25,
          "midi": 43,
          "name": "G2",
          "velocity": 0.6299212598425197,
          "duration": 0.11770833333333997,
          "ticks": 71280,
          "durationTicks": 113
        },
        {
          "time": 74.375,
          "midi": 48,
          "name": "C3",
          "velocity": 0.6299212598425197,
          "duration": 0.11770833333333997,
          "ticks": 71400,
          "durationTicks": 113
        },
        {
          "time": 75.5,
          "midi": 43,
          "name": "G2",
          "velocity": 0.6299212598425197,
          "duration": 0.11770833333333997,
          "ticks": 72480,
          "durationTicks": 113
        },
        {
          "time": 75.625,
          "midi": 40,
          "name": "E2",
          "velocity": 0.6299212598425197,
          "duration": 0.11770833333333997,
          "ticks": 72600,
          "durationTicks": 113
        },
        {
          "time": 75.75,
          "midi": 36,
          "name": "C2",
          "velocity": 0.6299212598425197,
          "duration": 0.23645833333333144,
          "ticks": 72720,
          "durationTicks": 227
        },
        {
          "time": 76,
          "midi": 38,
          "name": "D2",
          "velocity": 0.6299212598425197,
          "duration": 0.11770833333333997,
          "ticks": 72960,
          "durationTicks": 113
        },
        {
          "time": 76.125,
          "midi": 42,
          "name": "F#2",
          "velocity": 0.6299212598425197,
          "duration": 0.11770833333333997,
          "ticks": 73080,
          "durationTicks": 113
        },
        {
          "time": 76.25,
          "midi": 45,
          "name": "A2",
          "velocity": 0.6299212598425197,
          "duration": 0.11770833333333997,
          "ticks": 73200,
          "durationTicks": 113
        },
        {
          "time": 76.375,
          "midi": 50,
          "name": "D3",
          "velocity": 0.6299212598425197,
          "duration": 0.11770833333333997,
          "ticks": 73320,
          "durationTicks": 113
        },
        {
          "time": 77.5,
          "midi": 45,
          "name": "A2",
          "velocity": 0.6299212598425197,
          "duration": 0.11770833333333997,
          "ticks": 74400,
          "durationTicks": 113
        },
        {
          "time": 77.625,
          "midi": 42,
          "name": "F#2",
          "velocity": 0.6299212598425197,
          "duration": 0.11770833333333997,
          "ticks": 74520,
          "durationTicks": 113
        },
        {
          "time": 77.75,
          "midi": 38,
          "name": "D2",
          "velocity": 0.6299212598425197,
          "duration": 0.23645833333333144,
          "ticks": 74640,
          "durationTicks": 227
        },
        {
          "time": 78,
          "midi": 38,
          "name": "D2",
          "velocity": 0.6299212598425197,
          "duration": 0.11770833333333997,
          "ticks": 74880,
          "durationTicks": 113
        },
        {
          "time": 78.125,
          "midi": 42,
          "name": "F#2",
          "velocity": 0.6299212598425197,
          "duration": 0.11770833333333997,
          "ticks": 75000,
          "durationTicks": 113
        },
        {
          "time": 78.25,
          "midi": 45,
          "name": "A2",
          "velocity": 0.6299212598425197,
          "duration": 0.11770833333333997,
          "ticks": 75120,
          "durationTicks": 113
        },
        {
          "time": 78.375,
          "midi": 50,
          "name": "D3",
          "velocity": 0.6299212598425197,
          "duration": 0.11770833333333997,
          "ticks": 75240,
          "durationTicks": 113
        },
        {
          "time": 79,
          "midi": 43,
          "name": "G2",
          "velocity": 0.6299212598425197,
          "duration": 0.9489583333333371,
          "ticks": 75840,
          "durationTicks": 911
        },
        {
          "time": 79,
          "midi": 47,
          "name": "B2",
          "velocity": 0.6299212598425197,
          "duration": 0.9489583333333371,
          "ticks": 75840,
          "durationTicks": 911
        },
        {
          "time": 79,
          "midi": 50,
          "name": "D3",
          "velocity": 0.6299212598425197,
          "duration": 0.9489583333333371,
          "ticks": 75840,
          "durationTicks": 911
        },
        {
          "time": 79,
          "midi": 55,
          "name": "G3",
          "velocity": 0.6299212598425197,
          "duration": 0.9489583333333371,
          "ticks": 75840,
          "durationTicks": 911
        },
        {
          "time": 80,
          "midi": 38,
          "name": "D2",
          "velocity": 0.7559055118110236,
          "duration": 0.9489583333333371,
          "ticks": 76800,
          "durationTicks": 911
        },
        {
          "time": 80,
          "midi": 42,
          "name": "F#2",
          "velocity": 0.7559055118110236,
          "duration": 0.9489583333333371,
          "ticks": 76800,
          "durationTicks": 911
        },
        {
          "time": 80,
          "midi": 45,
          "name": "A2",
          "velocity": 0.7559055118110236,
          "duration": 0.9489583333333371,
          "ticks": 76800,
          "durationTicks": 911
        },
        {
          "time": 81,
          "midi": 38,
          "name": "D2",
          "velocity": 0.7559055118110236,
          "duration": 0.9489583333333371,
          "ticks": 77760,
          "durationTicks": 911
        },
        {
          "time": 81,
          "midi": 43,
          "name": "G2",
          "velocity": 0.7559055118110236,
          "duration": 0.9489583333333371,
          "ticks": 77760,
          "durationTicks": 911
        },
        {
          "time": 81,
          "midi": 47,
          "name": "B2",
          "velocity": 0.7559055118110236,
          "duration": 0.9489583333333371,
          "ticks": 77760,
          "durationTicks": 911
        },
        {
          "time": 82,
          "midi": 38,
          "name": "D2",
          "velocity": 0.7559055118110236,
          "duration": 0.9489583333333371,
          "ticks": 78720,
          "durationTicks": 911
        },
        {
          "time": 82,
          "midi": 42,
          "name": "F#2",
          "velocity": 0.7559055118110236,
          "duration": 0.9489583333333371,
          "ticks": 78720,
          "durationTicks": 911
        },
        {
          "time": 82,
          "midi": 45,
          "name": "A2",
          "velocity": 0.7559055118110236,
          "duration": 0.9489583333333371,
          "ticks": 78720,
          "durationTicks": 911
        },
        {
          "time": 83,
          "midi": 38,
          "name": "D2",
          "velocity": 0.7559055118110236,
          "duration": 0.9489583333333371,
          "ticks": 79680,
          "durationTicks": 911
        },
        {
          "time": 83,
          "midi": 43,
          "name": "G2",
          "velocity": 0.7559055118110236,
          "duration": 0.9489583333333371,
          "ticks": 79680,
          "durationTicks": 911
        },
        {
          "time": 83,
          "midi": 47,
          "name": "B2",
          "velocity": 0.7559055118110236,
          "duration": 0.9489583333333371,
          "ticks": 79680,
          "durationTicks": 911
        },
        {
          "time": 84,
          "midi": 38,
          "name": "D2",
          "velocity": 0.7559055118110236,
          "duration": 0.9489583333333371,
          "ticks": 80640,
          "durationTicks": 911
        },
        {
          "time": 84,
          "midi": 43,
          "name": "G2",
          "velocity": 0.7559055118110236,
          "duration": 0.9489583333333371,
          "ticks": 80640,
          "durationTicks": 911
        },
        {
          "time": 84,
          "midi": 47,
          "name": "B2",
          "velocity": 0.7559055118110236,
          "duration": 0.9489583333333371,
          "ticks": 80640,
          "durationTicks": 911
        },
        {
          "time": 85,
          "midi": 39,
          "name": "D#2",
          "velocity": 0.7559055118110236,
          "duration": 0.9489583333333371,
          "ticks": 81600,
          "durationTicks": 911
        },
        {
          "time": 86,
          "midi": 40,
          "name": "E2",
          "velocity": 0.7559055118110236,
          "duration": 0.4739583333333286,
          "ticks": 82560,
          "durationTicks": 455
        },
        {
          "time": 86.5,
          "midi": 45,
          "name": "A2",
          "velocity": 0.7559055118110236,
          "duration": 0.4739583333333286,
          "ticks": 83040,
          "durationTicks": 455
        },
        {
          "time": 87,
          "midi": 38,
          "name": "D2",
          "velocity": 0.7559055118110236,
          "duration": 0.9489583333333371,
          "ticks": 83520,
          "durationTicks": 911
        },
        {
          "time": 88,
          "midi": 43,
          "name": "G2",
          "velocity": 0.9921259842519685,
          "duration": 1.89895833333334,
          "ticks": 84480,
          "durationTicks": 1823
        },
        {
          "time": 88,
          "midi": 47,
          "name": "B2",
          "velocity": 0.9921259842519685,
          "duration": 1.89895833333334,
          "ticks": 84480,
          "durationTicks": 1823
        },
        {
          "time": 88,
          "midi": 50,
          "name": "D3",
          "velocity": 0.9921259842519685,
          "duration": 1.89895833333334,
          "ticks": 84480,
          "durationTicks": 1823
        },
        {
          "time": 90,
          "midi": 36,
          "name": "C2",
          "velocity": 0.9921259842519685,
          "duration": 1.89895833333334,
          "ticks": 86400,
          "durationTicks": 1823
        },
        {
          "time": 90,
          "midi": 40,
          "name": "E2",
          "velocity": 0.9921259842519685,
          "duration": 1.89895833333334,
          "ticks": 86400,
          "durationTicks": 1823
        },
        {
          "time": 90,
          "midi": 43,
          "name": "G2",
          "velocity": 0.9921259842519685,
          "duration": 1.89895833333334,
          "ticks": 86400,
          "durationTicks": 1823
        },
        {
          "time": 92,
          "midi": 38,
          "name": "D2",
          "velocity": 0.9921259842519685,
          "duration": 1.89895833333334,
          "ticks": 88320,
          "durationTicks": 1823
        },
        {
          "time": 92,
          "midi": 43,
          "name": "G2",
          "velocity": 0.9921259842519685,
          "duration": 1.89895833333334,
          "ticks": 88320,
          "durationTicks": 1823
        },
        {
          "time": 92,
          "midi": 47,
          "name": "B2",
          "velocity": 0.9921259842519685,
          "duration": 1.89895833333334,
          "ticks": 88320,
          "durationTicks": 1823
        },
        {
          "time": 94,
          "midi": 38,
          "name": "D2",
          "velocity": 0.9921259842519685,
          "duration": 0.9489583333333371,
          "ticks": 90240,
          "durationTicks": 911
        },
        {
          "time": 94,
          "midi": 42,
          "name": "F#2",
          "velocity": 0.9921259842519685,
          "duration": 0.9489583333333371,
          "ticks": 90240,
          "durationTicks": 911
        },
        {
          "time": 94,
          "midi": 45,
          "name": "A2",
          "velocity": 0.9921259842519685,
          "duration": 0.9489583333333371,
          "ticks": 90240,
          "durationTicks": 911
        },
        {
          "time": 95,
          "midi": 43,
          "name": "G2",
          "velocity": 0.9921259842519685,
          "duration": 0.9489583333333371,
          "ticks": 91200,
          "durationTicks": 911
        },
        {
          "time": 95,
          "midi": 47,
          "name": "B2",
          "velocity": 0.9921259842519685,
          "duration": 0.9489583333333371,
          "ticks": 91200,
          "durationTicks": 911
        },
        {
          "time": 95,
          "midi": 50,
          "name": "D3",
          "velocity": 0.9921259842519685,
          "duration": 0.9489583333333371,
          "ticks": 91200,
          "durationTicks": 911
        },
        {
          "time": 96,
          "midi": 43,
          "name": "G2",
          "velocity": 0.9921259842519685,
          "duration": 1.89895833333334,
          "ticks": 92160,
          "durationTicks": 1823
        },
        {
          "time": 96,
          "midi": 47,
          "name": "B2",
          "velocity": 0.9921259842519685,
          "duration": 1.89895833333334,
          "ticks": 92160,
          "durationTicks": 1823
        },
        {
          "time": 96,
          "midi": 50,
          "name": "D3",
          "velocity": 0.9921259842519685,
          "duration": 1.89895833333334,
          "ticks": 92160,
          "durationTicks": 1823
        },
        {
          "time": 100,
          "midi": 50,
          "name": "D3",
          "velocity": 0.9921259842519685,
          "duration": 1.89895833333334,
          "ticks": 96000,
          "durationTicks": 1823
        },
        {
          "time": 102,
          "midi": 50,
          "name": "D3",
          "velocity": 0.9921259842519685,
          "duration": 0.9489583333333371,
          "ticks": 97920,
          "durationTicks": 911
        },
        {
          "time": 103,
          "midi": 43,
          "name": "G2",
          "velocity": 0.9921259842519685,
          "duration": 0.9489583333333371,
          "ticks": 98880,
          "durationTicks": 911
        },
        {
          "time": 103,
          "midi": 47,
          "name": "B2",
          "velocity": 0.9921259842519685,
          "duration": 0.9489583333333371,
          "ticks": 98880,
          "durationTicks": 911
        }
      ],
      "controlChanges": {}
    },
    {
      "name": "Violin",
      "channel": 0,
      "instrument": {
        "number": 40,
        "name": "violin",
        "family": "strings"
      },
      "notes": [
        {
          "time": 0,
          "midi": 71,
          "name": "B4",
          "velocity": 0.6299212598425197,
          "duration": 0.49895833333333334,
          "ticks": 0,
          "durationTicks": 479
        },
        {
          "time": 0.5,
          "midi": 71,
          "name": "B4",
          "velocity": 0.6299212598425197,
          "duration": 0.4989583333333333,
          "ticks": 480,
          "durationTicks": 479
        },
        {
          "time": 1,
          "midi": 72,
          "name": "C5",
          "velocity": 0.6299212598425197,
          "duration": 0.4989583333333334,
          "ticks": 960,
          "durationTicks": 479
        },
        {
          "time": 1.5,
          "midi": 74,
          "name": "D5",
          "velocity": 0.6299212598425197,
          "duration": 0.4989583333333334,
          "ticks": 1440,
          "durationTicks": 479
        },
        {
          "time": 2,
          "midi": 74,
          "name": "D5",
          "velocity": 0.6299212598425197,
          "duration": 0.4989583333333334,
          "ticks": 1920,
          "durationTicks": 479
        },
        {
          "time": 2.5,
          "midi": 72,
          "name": "C5",
          "velocity": 0.6299212598425197,
          "duration": 0.4989583333333334,
          "ticks": 2400,
          "durationTicks": 479
        },
        {
          "time": 3,
          "midi": 71,
          "name": "B4",
          "velocity": 0.6299212598425197,
          "duration": 0.4989583333333334,
          "ticks": 2880,
          "durationTicks": 479
        },
        {
          "time": 3.5,
          "midi": 69,
          "name": "A4",
          "velocity": 0.6299212598425197,
          "duration": 0.4989583333333334,
          "ticks": 3360,
          "durationTicks": 479
        },
        {
          "time": 4,
          "midi": 67,
          "name": "G4",
          "velocity": 0.6299212598425197,
          "duration": 0.4989583333333334,
          "ticks": 3840,
          "durationTicks": 479
        },
        {
          "time": 4.5,
          "midi": 67,
          "name": "G4",
          "velocity": 0.6299212598425197,
          "duration": 0.4989583333333334,
          "ticks": 4320,
          "durationTicks": 479
        },
        {
          "time": 5,
          "midi": 69,
          "name": "A4",
          "velocity": 0.6299212598425197,
          "duration": 0.4989583333333334,
          "ticks": 4800,
          "durationTicks": 479
        },
        {
          "time": 5.5,
          "midi": 71,
          "name": "B4",
          "velocity": 0.6299212598425197,
          "duration": 0.4989583333333334,
          "ticks": 5280,
          "durationTicks": 479
        },
        {
          "time": 6,
          "midi": 71,
          "name": "B4",
          "velocity": 0.6299212598425197,
          "duration": 0.7489583333333334,
          "ticks": 5760,
          "durationTicks": 719
        },
        {
          "time": 6.75,
          "midi": 69,
          "name": "A4",
          "velocity": 0.6299212598425197,
          "duration": 0.2489583333333334,
          "ticks": 6480,
          "durationTicks": 239
        },
        {
          "time": 7,
          "midi": 69,
          "name": "A4",
          "velocity": 0.6299212598425197,
          "duration": 0.9989583333333334,
          "ticks": 6720,
          "durationTicks": 959
        },
        {
          "time": 8,
          "midi": 71,
          "name": "B4",
          "velocity": 0.6299212598425197,
          "duration": 0.4989583333333325,
          "ticks": 7680,
          "durationTicks": 479
        },
        {
          "time": 8.5,
          "midi": 71,
          "name": "B4",
          "velocity": 0.6299212598425197,
          "duration": 0.4989583333333325,
          "ticks": 8160,
          "durationTicks": 479
        },
        {
          "time": 9,
          "midi": 72,
          "name": "C5",
          "velocity": 0.6299212598425197,
          "duration": 0.4989583333333325,
          "ticks": 8640,
          "durationTicks": 479
        },
        {
          "time": 9.5,
          "midi": 74,
          "name": "D5",
          "velocity": 0.6299212598425197,
          "duration": 0.4989583333333325,
          "ticks": 9120,
          "durationTicks": 479
        },
        {
          "time": 10,
          "midi": 74,
          "name": "D5",
          "velocity": 0.6299212598425197,
          "duration": 0.4989583333333325,
          "ticks": 9600,
          "durationTicks": 479
        },
        {
          "time": 10.5,
          "midi": 72,
          "name": "C5",
          "velocity": 0.6299212598425197,
          "duration": 0.4989583333333325,
          "ticks": 10080,
          "durationTicks": 479
        },
        {
          "time": 11,
          "midi": 71,
          "name": "B4",
          "velocity": 0.6299212598425197,
          "duration": 0.4989583333333325,
          "ticks": 10560,
          "durationTicks": 479
        },
        {
          "time": 11.5,
          "midi": 72,
          "name": "C5",
          "velocity": 0.6299212598425197,
          "duration": 0.2489583333333325,
          "ticks": 11040,
          "durationTicks": 239
        },
        {
          "time": 11.75,
          "midi": 69,
          "name": "A4",
          "velocity": 0.6299212598425197,
          "duration": 0.2489583333333325,
          "ticks": 11280,
          "durationTicks": 239
        },
        {
          "time": 12,
          "midi": 67,
          "name": "G4",
          "velocity": 0.6299212598425197,
          "duration": 0.4989583333333325,
          "ticks": 11520,
          "durationTicks": 479
        },
        {
          "time": 12.5,
          "midi": 67,
          "name": "G4",
          "velocity": 0.6299212598425197,
          "duration": 0.4989583333333325,
          "ticks": 12000,
          "durationTicks": 479
        },
        {
          "time": 13,
          "midi": 69,
          "name": "A4",
          "velocity": 0.6299212598425197,
          "duration": 0.4989583333333325,
          "ticks": 12480,
          "durationTicks": 479
        },
        {
          "time": 13.5,
          "midi": 71,
          "name": "B4",
          "velocity": 0.6299212598425197,
          "duration": 0.4989583333333325,
          "ticks": 12960,
          "durationTicks": 479
        },
        {
          "time": 14,
          "midi": 69,
          "name": "A4",
          "velocity": 0.6299212598425197,
          "duration": 0.7489583333333325,
          "ticks": 13440,
          "durationTicks": 719
        },
        {
          "time": 14.75,
          "midi": 67,
          "name": "G4",
          "velocity": 0.6299212598425197,
          "duration": 0.2489583333333325,
          "ticks": 14160,
          "durationTicks": 239
        },
        {
          "time": 15,
          "midi": 67,
          "name": "G4",
          "velocity": 0.6299212598425197,
          "duration": 0.9989583333333325,
          "ticks": 14400,
          "durationTicks": 959
        },
        {
          "time": 16,
          "midi": 69,
          "name": "A4",
          "velocity": 0.6299212598425197,
          "duration": 0.4989583333333343,
          "ticks": 15360,
          "durationTicks": 479
        },
        {
          "time": 16.5,
          "midi": 69,
          "name": "A4",
          "velocity": 0.6299212598425197,
          "duration": 0.4989583333333343,
          "ticks": 15840,
          "durationTicks": 479
        },
        {
          "time": 17,
          "midi": 71,
          "name": "B4",
          "velocity": 0.6299212598425197,
          "duration": 0.4989583333333343,
          "ticks": 16320,
          "durationTicks": 479
        },
        {
          "time": 17.5,
          "midi": 67,
          "name": "G4",
          "velocity": 0.6299212598425197,
          "duration": 0.4989583333333343,
          "ticks": 16800,
          "durationTicks": 479
        },
        {
          "time": 18,
          "midi": 69,
          "name": "A4",
          "velocity": 0.6299212598425197,
          "duration": 0.4989583333333343,
          "ticks": 17280,
          "durationTicks": 479
        },
        {
          "time": 18.5,
          "midi": 71,
          "name": "B4",
          "velocity": 0.6299212598425197,
          "duration": 0.24895833333333428,
          "ticks": 17760,
          "durationTicks": 239
        },
        {
          "time": 18.75,
          "midi": 72,
          "name": "C5",
          "velocity": 0.6299212598425197,
          "duration": 0.24895833333333428,
          "ticks": 18000,
          "durationTicks": 239
        },
        {
          "time": 19,
          "midi": 71,
          "name": "B4",
          "velocity": 0.6299212598425197,
          "duration": 0.4989583333333343,
          "ticks": 18240,
          "durationTicks": 479
        },
        {
          "time": 19.5,
          "midi": 67,
          "name": "G4",
          "velocity": 0.6299212598425197,
          "duration": 0.4989583333333343,
          "ticks": 18720,
          "durationTicks": 479
        },
        {
          "time": 20,
          "midi": 69,
          "name": "A4",
          "velocity": 0.6299212598425197,
          "duration": 0.4989583333333343,
          "ticks": 19200,
          "durationTicks": 479
        },
        {
          "time": 20.5,
          "midi": 71,
          "name": "B4",
          "velocity": 0.6299212598425197,
          "duration": 0.24895833333333428,
          "ticks": 19680,
          "durationTicks": 239
        },
        {
          "time": 20.75,
          "midi": 72,
          "name": "C5",
          "velocity": 0.6299212598425197,
          "duration": 0.24895833333333428,
          "ticks": 19920,
          "durationTicks": 239
        },
        {
          "time": 21,
          "midi": 71,
          "name": "B4",
          "velocity": 0.6299212598425197,
          "duration": 0.4989583333333343,
          "ticks": 20160,
          "durationTicks": 479
        },
        {
          "time": 21.5,
          "midi": 69,
          "name": "A4",
          "velocity": 0.6299212598425197,
          "duration": 0.4989583333333343,
          "ticks": 20640,
          "durationTicks": 479
        },
        {
          "time": 22,
          "midi": 67,
          "name": "G4",
          "velocity": 0.6299212598425197,
          "duration": 0.4989583333333343,
          "ticks": 21120,
          "durationTicks": 479
        },
        {
          "time": 22.5,
          "midi": 69,
          "name": "A4",
          "velocity": 0.6299212598425197,
          "duration": 0.4989583333333343,
          "ticks": 21600,
          "durationTicks": 479
        },
        {
          "time": 23,
          "midi": 62,
          "name": "D4",
          "velocity": 0.6299212598425197,
          "duration": 0.9989583333333343,
          "ticks": 22080,
          "durationTicks": 959
        },
        {
          "time": 24,
          "midi": 71,
          "name": "B4",
          "velocity": 0.6299212598425197,
          "duration": 0.4989583333333343,
          "ticks": 23040,
          "durationTicks": 479
        },
        {
          "time": 24.5,
          "midi": 71,
          "name": "B4",
          "velocity": 0.6299212598425197,
          "duration": 0.4989583333333343,
          "ticks": 23520,
          "durationTicks": 479
        },
        {
          "time": 25,
          "midi": 72,
          "name": "C5",
          "velocity": 0.6299212598425197,
          "duration": 0.4989583333333343,
          "ticks": 24000,
          "durationTicks": 479
        },
        {
          "time": 25.5,
          "midi": 74,
          "name": "D5",
          "velocity": 0.6299212598425197,
          "duration": 0.4989583333333343,
          "ticks": 24480,
          "durationTicks": 479
        },
        {
          "time": 26,
          "midi": 74,
          "name": "D5",
          "velocity": 0.6299212598425197,
          "duration": 0.4989583333333343,
          "ticks": 24960,
          "durationTicks": 479
        },
        {
          "time": 26.5,
          "midi": 72,
          "name": "C5",
          "velocity": 0.6299212598425197,
          "duration": 0.4989583333333343,
          "ticks": 25440,
          "durationTicks": 479
        },
        {
          "time": 27,
          "midi": 71,
          "name": "B4",
          "velocity": 0.6299212598425197,
          "duration": 0.4989583333333343,
          "ticks": 25920,
          "durationTicks": 479
        },
        {
          "time": 27.5,
          "midi": 69,
          "name": "A4",
          "velocity": 0.6299212598425197,
          "duration": 0.4989583333333343,
          "ticks": 26400,
          "durationTicks": 479
        },
        {
          "time": 28,
          "midi": 67,
          "name": "G4",
          "velocity": 0.6299212598425197,
          "duration": 0.4989583333333343,
          "ticks": 26880,
          "durationTicks": 479
        },
        {
          "time": 28.5,
          "midi": 67,
          "name": "G4",
          "velocity": 0.6299212598425197,
          "duration": 0.4989583333333343,
          "ticks": 27360,
          "durationTicks": 479
        },
        {
          "time": 29,
          "midi": 69,
          "name": "A4",
          "velocity": 0.6299212598425197,
          "duration": 0.4989583333333343,
          "ticks": 27840,
          "durationTicks": 479
        },
        {
          "time": 29.5,
          "midi": 71,
          "name": "B4",
          "velocity": 0.6299212598425197,
          "duration": 0.4989583333333343,
          "ticks": 28320,
          "durationTicks": 479
        },
        {
          "time": 30,
          "midi": 69,
          "name": "A4",
          "velocity": 0.6299212598425197,
          "duration": 0.7489583333333343,
          "ticks": 28800,
          "durationTicks": 719
        },
        {
          "time": 30.75,
          "midi": 67,
          "name": "G4",
          "velocity": 0.6299212598425197,
          "duration": 0.24895833333333428,
          "ticks": 29520,
          "durationTicks": 239
        },
        {
          "time": 31,
          "midi": 67,
          "name": "G4",
          "velocity": 0.6299212598425197,
          "duration": 0.9989583333333343,
          "ticks": 29760,
          "durationTicks": 959
        },
        {
          "time": 48,
          "midi": 69,
          "name": "A4",
          "velocity": 0.6299212598425197,
          "duration": 0.4989583333333343,
          "ticks": 46080,
          "durationTicks": 479
        },
        {
          "time": 48.5,
          "midi": 69,
          "name": "A4",
          "velocity": 0.6299212598425197,
          "duration": 0.4989583333333343,
          "ticks": 46560,
          "durationTicks": 479
        },
        {
          "time": 49,
          "midi": 71,
          "name": "B4",
          "velocity": 0.6299212598425197,
          "duration": 0.4989583333333343,
          "ticks": 47040,
          "durationTicks": 479
        },
        {
          "time": 49.5,
          "midi": 67,
          "name": "G4",
          "velocity": 0.6299212598425197,
          "duration": 0.4989583333333343,
          "ticks": 47520,
          "durationTicks": 479
        },
        {
          "time": 50,
          "midi": 69,
          "name": "A4",
          "velocity": 0.6299212598425197,
          "duration": 0.4989583333333343,
          "ticks": 48000,
          "durationTicks": 479
        },
        {
          "time": 50.5,
          "midi": 71,
          "name": "B4",
          "velocity": 0.6299212598425197,
          "duration": 0.24895833333333428,
          "ticks": 48480,
          "durationTicks": 239
        },
        {
          "time": 50.75,
          "midi": 72,
          "name": "C5",
          "velocity": 0.6299212598425197,
          "duration": 0.24895833333333428,
          "ticks": 48720,
          "durationTicks": 239
        },
        {
          "time": 51,
          "midi": 71,
          "name": "B4",
          "velocity": 0.6299212598425197,
          "duration": 0.4989583333333343,
          "ticks": 48960,
          "durationTicks": 479
        },
        {
          "time": 51.5,
          "midi": 67,
          "name": "G4",
          "velocity": 0.6299212598425197,
          "duration": 0.4989583333333343,
          "ticks": 49440,
          "durationTicks": 479
        },
        {
          "time": 52,
          "midi": 69,
          "name": "A4",
          "velocity": 0.6299212598425197,
          "duration": 0.4989583333333343,
          "ticks": 49920,
          "durationTicks": 479
        },
        {
          "time": 52.5,
          "midi": 71,
          "name": "B4",
          "velocity": 0.6299212598425197,
          "duration": 0.24895833333333428,
          "ticks": 50400,
          "durationTicks": 239
        },
        {
          "time": 52.75,
          "midi": 72,
          "name": "C5",
          "velocity": 0.6299212598425197,
          "duration": 0.24895833333333428,
          "ticks": 50640,
          "durationTicks": 239
        },
        {
          "time": 53,
          "midi": 71,
          "name": "B4",
          "velocity": 0.6299212598425197,
          "duration": 0.4989583333333343,
          "ticks": 50880,
          "durationTicks": 479
        },
        {
          "time": 53.5,
          "midi": 69,
          "name": "A4",
          "velocity": 0.6299212598425197,
          "duration": 0.4989583333333343,
          "ticks": 51360,
          "durationTicks": 479
        },
        {
          "time": 54,
          "midi": 67,
          "name": "G4",
          "velocity": 0.6299212598425197,
          "duration": 0.4989583333333343,
          "ticks": 51840,
          "durationTicks": 479
        },
        {
          "time": 54.5,
          "midi": 69,
          "name": "A4",
          "velocity": 0.6299212598425197,
          "duration": 0.4989583333333343,
          "ticks": 52320,
          "durationTicks": 479
        },
        {
          "time": 55,
          "midi": 62,
          "name": "D4",
          "velocity": 0.6299212598425197,
          "duration": 0.9989583333333343,
          "ticks": 52800,
          "durationTicks": 959
        },
        {
          "time": 56,
          "midi": 71,
          "name": "B4",
          "velocity": 0.6299212598425197,
          "duration": 0.4989583333333343,
          "ticks": 53760,
          "durationTicks": 479
        },
        {
          "time": 56.5,
          "midi": 71,
          "name": "B4",
          "velocity": 0.6299212598425197,
          "duration": 0.4989583333333343,
          "ticks": 54240,
          "durationTicks": 479
        },
        {
          "time": 57,
          "midi": 72,
          "name": "C5",
          "velocity": 0.6299212598425197,
          "duration": 0.4989583333333343,
          "ticks": 54720,
          "durationTicks": 479
        },
        {
          "time": 57.5,
          "midi": 74,
          "name": "D5",
          "velocity": 0.6299212598425197,
          "duration": 0.4989583333333343,
          "ticks": 55200,
          "durationTicks": 479
        },
        {
          "time": 58,
          "midi": 74,
          "name": "D5",
          "velocity": 0.6299212598425197,
          "duration": 0.4989583333333343,
          "ticks": 55680,
          "durationTicks": 479
        },
        {
          "time": 58.5,
          "midi": 72,
          "name": "C5",
          "velocity": 0.6299212598425197,
          "duration": 0.4989583333333343,
          "ticks": 56160,
          "durationTicks": 479
        },
        {
          "time": 59,
          "midi": 71,
          "name": "B4",
          "velocity": 0.6299212598425197,
          "duration": 0.4989583333333343,
          "ticks": 56640,
          "durationTicks": 479
        },
        {
          "time": 59.5,
          "midi": 69,
          "name": "A4",
          "velocity": 0.6299212598425197,
          "duration": 0.4989583333333343,
          "ticks": 57120,
          "durationTicks": 479
        },
        {
          "time": 60,
          "midi": 67,
          "name": "G4",
          "velocity": 0.6299212598425197,
          "duration": 0.4989583333333343,
          "ticks": 57600,
          "durationTicks": 479
        },
        {
          "time": 60.5,
          "midi": 67,
          "name": "G4",
          "velocity": 0.6299212598425197,
          "duration": 0.4989583333333343,
          "ticks": 58080,
          "durationTicks": 479
        },
        {
          "time": 61,
          "midi": 69,
          "name": "A4",
          "velocity": 0.6299212598425197,
          "duration": 0.4989583333333343,
          "ticks": 58560,
          "durationTicks": 479
        },
        {
          "time": 61.5,
          "midi": 71,
          "name": "B4",
          "velocity": 0.6299212598425197,
          "duration": 0.4989583333333343,
          "ticks": 59040,
          "durationTicks": 479
        },
        {
          "time": 62,
          "midi": 69,
          "name": "A4",
          "velocity": 0.6299212598425197,
          "duration": 0.7489583333333343,
          "ticks": 59520,
          "durationTicks": 719
        },
        {
          "time": 62.75,
          "midi": 67,
          "name": "G4",
          "velocity": 0.6299212598425197,
          "duration": 0.24895833333333428,
          "ticks": 60240,
          "durationTicks": 239
        },
        {
          "time": 63,
          "midi": 67,
          "name": "G4",
          "velocity": 0.6299212598425197,
          "duration": 0.9989583333333343,
          "ticks": 60480,
          "durationTicks": 959
        },
        {
          "time": 80,
          "midi": 69,
          "name": "A4",
          "velocity": 0.6299212598425197,
          "duration": 0.4989583333333343,
          "ticks": 76800,
          "durationTicks": 479
        },
        {
          "time": 80.5,
          "midi": 69,
          "name": "A4",
          "velocity": 0.6299212598425197,
          "duration": 0.4989583333333343,
          "ticks": 77280,
          "durationTicks": 479
        },
        {
          "time": 81,
          "midi": 71,
          "name": "B4",
          "velocity": 0.6299212598425197,
          "duration": 0.4989583333333343,
          "ticks": 77760,
          "durationTicks": 479
        },
        {
          "time": 81.5,
          "midi": 67,
          "name": "G4",
          "velocity": 0.6299212598425197,
          "duration": 0.4989583333333343,
          "ticks": 78240,
          "durationTicks": 479
        },
        {
          "time": 82,
          "midi": 69,
          "name": "A4",
          "velocity": 0.6299212598425197,
          "duration": 0.4989583333333343,
          "ticks": 78720,
          "durationTicks": 479
        },
        {
          "time": 82.5,
          "midi": 71,
          "name": "B4",
          "velocity": 0.6299212598425197,
          "duration": 0.24895833333333428,
          "ticks": 79200,
          "durationTicks": 239
        },
        {
          "time": 82.75,
          "midi": 72,
          "name": "C5",
          "velocity": 0.6299212598425197,
          "duration": 0.24895833333333428,
          "ticks": 79440,
          "durationTicks": 239
        },
        {
          "time": 83,
          "midi": 71,
          "name": "B4",
          "velocity": 0.6299212598425197,
          "duration": 0.4989583333333343,
          "ticks": 79680,
          "durationTicks": 479
        },
        {
          "time": 83.5,
          "midi": 67,
          "name": "G4",
          "velocity": 0.6299212598425197,
          "duration": 0.4989583333333343,
          "ticks": 80160,
          "durationTicks": 479
        },
        {
          "time": 84,
          "midi": 69,
          "name": "A4",
          "velocity": 0.6299212598425197,
          "duration": 0.4989583333333343,
          "ticks": 80640,
          "durationTicks": 479
        },
        {
          "time": 84.5,
          "midi": 71,
          "name": "B4",
          "velocity": 0.6299212598425197,
          "duration": 0.24895833333333428,
          "ticks": 81120,
          "durationTicks": 239
        },
        {
          "time": 84.75,
          "midi": 72,
          "name": "C5",
          "velocity": 0.6299212598425197,
          "duration": 0.24895833333333428,
          "ticks": 81360,
          "durationTicks": 239
        },
        {
          "time": 85,
          "midi": 71,
          "name": "B4",
          "velocity": 0.6299212598425197,
          "duration": 0.4989583333333343,
          "ticks": 81600,
          "durationTicks": 479
        },
        {
          "time": 85.5,
          "midi": 69,
          "name": "A4",
          "velocity": 0.6299212598425197,
          "duration": 0.4989583333333343,
          "ticks": 82080,
          "durationTicks": 479
        },
        {
          "time": 86,
          "midi": 67,
          "name": "G4",
          "velocity": 0.6299212598425197,
          "duration": 0.4989583333333343,
          "ticks": 82560,
          "durationTicks": 479
        },
        {
          "time": 86.5,
          "midi": 69,
          "name": "A4",
          "velocity": 0.6299212598425197,
          "duration": 0.4989583333333343,
          "ticks": 83040,
          "durationTicks": 479
        },
        {
          "time": 87,
          "midi": 62,
          "name": "D4",
          "velocity": 0.6299212598425197,
          "duration": 0.9989583333333343,
          "ticks": 83520,
          "durationTicks": 959
        },
        {
          "time": 88,
          "midi": 71,
          "name": "B4",
          "velocity": 0.6299212598425197,
          "duration": 0.4989583333333343,
          "ticks": 84480,
          "durationTicks": 479
        },
        {
          "time": 88.5,
          "midi": 71,
          "name": "B4",
          "velocity": 0.6299212598425197,
          "duration": 0.4989583333333343,
          "ticks": 84960,
          "durationTicks": 479
        },
        {
          "time": 89,
          "midi": 72,
          "name": "C5",
          "velocity": 0.6299212598425197,
          "duration": 0.4989583333333343,
          "ticks": 85440,
          "durationTicks": 479
        },
        {
          "time": 89.5,
          "midi": 74,
          "name": "D5",
          "velocity": 0.6299212598425197,
          "duration": 0.4989583333333343,
          "ticks": 85920,
          "durationTicks": 479
        },
        {
          "time": 90,
          "midi": 74,
          "name": "D5",
          "velocity": 0.6299212598425197,
          "duration": 0.4989583333333343,
          "ticks": 86400,
          "durationTicks": 479
        },
        {
          "time": 90.5,
          "midi": 72,
          "name": "C5",
          "velocity": 0.6299212598425197,
          "duration": 0.4989583333333343,
          "ticks": 86880,
          "durationTicks": 479
        },
        {
          "time": 91,
          "midi": 71,
          "name": "B4",
          "velocity": 0.6299212598425197,
          "duration": 0.4989583333333343,
          "ticks": 87360,
          "durationTicks": 479
        },
        {
          "time": 91.5,
          "midi": 69,
          "name": "A4",
          "velocity": 0.6299212598425197,
          "duration": 0.4989583333333343,
          "ticks": 87840,
          "durationTicks": 479
        },
        {
          "time": 92,
          "midi": 67,
          "name": "G4",
          "velocity": 0.6299212598425197,
          "duration": 0.4989583333333343,
          "ticks": 88320,
          "durationTicks": 479
        },
        {
          "time": 92.5,
          "midi": 67,
          "name": "G4",
          "velocity": 0.6299212598425197,
          "duration": 0.4989583333333343,
          "ticks": 88800,
          "durationTicks": 479
        },
        {
          "time": 93,
          "midi": 69,
          "name": "A4",
          "velocity": 0.6299212598425197,
          "duration": 0.4989583333333343,
          "ticks": 89280,
          "durationTicks": 479
        },
        {
          "time": 93.5,
          "midi": 71,
          "name": "B4",
          "velocity": 0.6299212598425197,
          "duration": 0.4989583333333343,
          "ticks": 89760,
          "durationTicks": 479
        },
        {
          "time": 94,
          "midi": 69,
          "name": "A4",
          "velocity": 0.6299212598425197,
          "duration": 0.7489583333333343,
          "ticks": 90240,
          "durationTicks": 719
        },
        {
          "time": 94.75,
          "midi": 67,
          "name": "G4",
          "velocity": 0.6299212598425197,
          "duration": 0.24895833333333428,
          "ticks": 90960,
          "durationTicks": 239
        },
        {
          "time": 95,
          "midi": 67,
          "name": "G4",
          "velocity": 0.6299212598425197,
          "duration": 0.9989583333333343,
          "ticks": 91200,
          "durationTicks": 959
        },
        {
          "time": 98,
          "midi": 62,
          "name": "D4",
          "velocity": 0.6299212598425197,
          "duration": 0.4989583333333343,
          "ticks": 94080,
          "durationTicks": 479
        },
        {
          "time": 98.5,
          "midi": 59,
          "name": "B3",
          "velocity": 0.6299212598425197,
          "duration": 0.4989583333333343,
          "ticks": 94560,
          "durationTicks": 479
        },
        {
          "time": 99,
          "midi": 57,
          "name": "A3",
          "velocity": 0.6299212598425197,
          "duration": 0.4989583333333343,
          "ticks": 95040,
          "durationTicks": 479
        },
        {
          "time": 99.5,
          "midi": 55,
          "name": "G3",
          "velocity": 0.6299212598425197,
          "duration": 0.4989583333333343,
          "ticks": 95520,
          "durationTicks": 479
        },
        {
          "time": 100,
          "midi": 67,
          "name": "G4",
          "velocity": 0.6299212598425197,
          "duration": 0.4989583333333343,
          "ticks": 96000,
          "durationTicks": 479
        },
        {
          "time": 100.5,
          "midi": 67,
          "name": "G4",
          "velocity": 0.6299212598425197,
          "duration": 0.4989583333333343,
          "ticks": 96480,
          "durationTicks": 479
        },
        {
          "time": 101,
          "midi": 69,
          "name": "A4",
          "velocity": 0.6299212598425197,
          "duration": 0.4989583333333343,
          "ticks": 96960,
          "durationTicks": 479
        },
        {
          "time": 101.5,
          "midi": 71,
          "name": "B4",
          "velocity": 0.6299212598425197,
          "duration": 0.4989583333333343,
          "ticks": 97440,
          "durationTicks": 479
        },
        {
          "time": 102,
          "midi": 69,
          "name": "A4",
          "velocity": 0.6299212598425197,
          "duration": 0.7489583333333343,
          "ticks": 97920,
          "durationTicks": 719
        },
        {
          "time": 102.75,
          "midi": 67,
          "name": "G4",
          "velocity": 0.6299212598425197,
          "duration": 0.24895833333333428,
          "ticks": 98640,
          "durationTicks": 239
        },
        {
          "time": 103,
          "midi": 67,
          "name": "G4",
          "velocity": 0.6299212598425197,
          "duration": 0.9989583333333343,
          "ticks": 98880,
          "durationTicks": 959
        }
      ],
      "controlChanges": {
        "7": [
          {
            "number": 7,
            "value": 0.7874015748031497,
            "time": 0,
            "ticks": 0
          },
          {
            "number": 7,
            "value": 0.7874015748031497,
            "time": 0,
            "ticks": 0
          },
          {
            "number": 7,
            "value": 0.7874015748031497,
            "time": 0,
            "ticks": 0
          }
        ],
        "10": [
          {
            "number": 10,
            "value": 0.5039370078740157,
            "time": 0,
            "ticks": 0
          },
          {
            "number": 10,
            "value": 0.5039370078740157,
            "time": 0,
            "ticks": 0
          },
          {
            "number": 10,
            "value": 0.5039370078740157,
            "time": 0,
            "ticks": 0
          }
        ],
        "91": [
          {
            "number": 91,
            "value": 0,
            "time": 0,
            "ticks": 0
          },
          {
            "number": 91,
            "value": 0,
            "time": 0,
            "ticks": 0
          },
          {
            "number": 91,
            "value": 0,
            "time": 0,
            "ticks": 0
          }
        ],
        "93": [
          {
            "number": 93,
            "value": 0,
            "time": 0,
            "ticks": 0
          },
          {
            "number": 93,
            "value": 0,
            "time": 0,
            "ticks": 0
          },
          {
            "number": 93,
            "value": 0,
            "time": 0,
            "ticks": 0
          }
        ],
        "121": [
          {
            "number": 121,
            "value": 0,
            "time": 0,
            "ticks": 0
          },
          {
            "number": 121,
            "value": 0,
            "time": 0,
            "ticks": 0
          },
          {
            "number": 121,
            "value": 0,
            "time": 0,
            "ticks": 0
          }
        ]
      }
    },
    {
      "name": "Viola",
      "channel": 0,
      "instrument": {
        "number": 41,
        "name": "viola",
        "family": "strings"
      },
      "notes": [
        {
          "time": 0,
          "midi": 67,
          "name": "G4",
          "velocity": 0.6299212598425197,
          "duration": 0.49895833333333334,
          "ticks": 0,
          "durationTicks": 479
        },
        {
          "time": 0.5,
          "midi": 67,
          "name": "G4",
          "velocity": 0.6299212598425197,
          "duration": 0.4989583333333333,
          "ticks": 480,
          "durationTicks": 479
        },
        {
          "time": 1,
          "midi": 69,
          "name": "A4",
          "velocity": 0.6299212598425197,
          "duration": 0.4989583333333334,
          "ticks": 960,
          "durationTicks": 479
        },
        {
          "time": 1.5,
          "midi": 71,
          "name": "B4",
          "velocity": 0.6299212598425197,
          "duration": 0.4989583333333334,
          "ticks": 1440,
          "durationTicks": 479
        },
        {
          "time": 2,
          "midi": 71,
          "name": "B4",
          "velocity": 0.6299212598425197,
          "duration": 0.4989583333333334,
          "ticks": 1920,
          "durationTicks": 479
        },
        {
          "time": 2.5,
          "midi": 69,
          "name": "A4",
          "velocity": 0.6299212598425197,
          "duration": 0.4989583333333334,
          "ticks": 2400,
          "durationTicks": 479
        },
        {
          "time": 3,
          "midi": 67,
          "name": "G4",
          "velocity": 0.6299212598425197,
          "duration": 0.4989583333333334,
          "ticks": 2880,
          "durationTicks": 479
        },
        {
          "time": 3.5,
          "midi": 66,
          "name": "F#4",
          "velocity": 0.6299212598425197,
          "duration": 0.4989583333333334,
          "ticks": 3360,
          "durationTicks": 479
        },
        {
          "time": 4,
          "midi": 62,
          "name": "D4",
          "velocity": 0.6299212598425197,
          "duration": 0.4989583333333334,
          "ticks": 3840,
          "durationTicks": 479
        },
        {
          "time": 4.5,
          "midi": 62,
          "name": "D4",
          "velocity": 0.6299212598425197,
          "duration": 0.4989583333333334,
          "ticks": 4320,
          "durationTicks": 479
        },
        {
          "time": 5,
          "midi": 66,
          "name": "F#4",
          "velocity": 0.6299212598425197,
          "duration": 0.4989583333333334,
          "ticks": 4800,
          "durationTicks": 479
        },
        {
          "time": 5.5,
          "midi": 67,
          "name": "G4",
          "velocity": 0.6299212598425197,
          "duration": 0.4989583333333334,
          "ticks": 5280,
          "durationTicks": 479
        },
        {
          "time": 6,
          "midi": 67,
          "name": "G4",
          "velocity": 0.6299212598425197,
          "duration": 0.7489583333333334,
          "ticks": 5760,
          "durationTicks": 719
        },
        {
          "time": 6.75,
          "midi": 66,
          "name": "F#4",
          "velocity": 0.6299212598425197,
          "duration": 0.2489583333333334,
          "ticks": 6480,
          "durationTicks": 239
        },
        {
          "time": 7,
          "midi": 66,
          "name": "F#4",
          "velocity": 0.6299212598425197,
          "duration": 0.9989583333333334,
          "ticks": 6720,
          "durationTicks": 959
        },
        {
          "time": 8,
          "midi": 67,
          "name": "G4",
          "velocity": 0.6299212598425197,
          "duration": 0.4989583333333325,
          "ticks": 7680,
          "durationTicks": 479
        },
        {
          "time": 8.5,
          "midi": 67,
          "name": "G4",
          "velocity": 0.6299212598425197,
          "duration": 0.4989583333333325,
          "ticks": 8160,
          "durationTicks": 479
        },
        {
          "time": 9,
          "midi": 69,
          "name": "A4",
          "velocity": 0.6299212598425197,
          "duration": 0.4989583333333325,
          "ticks": 8640,
          "durationTicks": 479
        },
        {
          "time": 9.5,
          "midi": 71,
          "name": "B4",
          "velocity": 0.6299212598425197,
          "duration": 0.4989583333333325,
          "ticks": 9120,
          "durationTicks": 479
        },
        {
          "time": 10,
          "midi": 71,
          "name": "B4",
          "velocity": 0.6299212598425197,
          "duration": 0.4989583333333325,
          "ticks": 9600,
          "durationTicks": 479
        },
        {
          "time": 10.5,
          "midi": 69,
          "name": "A4",
          "velocity": 0.6299212598425197,
          "duration": 0.4989583333333325,
          "ticks": 10080,
          "durationTicks": 479
        },
        {
          "time": 11,
          "midi": 67,
          "name": "G4",
          "velocity": 0.6299212598425197,
          "duration": 0.4989583333333325,
          "ticks": 10560,
          "durationTicks": 479
        },
        {
          "time": 11.5,
          "midi": 69,
          "name": "A4",
          "velocity": 0.6299212598425197,
          "duration": 0.2489583333333325,
          "ticks": 11040,
          "durationTicks": 239
        },
        {
          "time": 11.75,
          "midi": 66,
          "name": "F#4",
          "velocity": 0.6299212598425197,
          "duration": 0.2489583333333325,
          "ticks": 11280,
          "durationTicks": 239
        },
        {
          "time": 12,
          "midi": 62,
          "name": "D4",
          "velocity": 0.6299212598425197,
          "duration": 0.4989583333333325,
          "ticks": 11520,
          "durationTicks": 479
        },
        {
          "time": 12.5,
          "midi": 62,
          "name": "D4",
          "velocity": 0.6299212598425197,
          "duration": 0.4989583333333325,
          "ticks": 12000,
          "durationTicks": 479
        },
        {
          "time": 13,
          "midi": 66,
          "name": "F#4",
          "velocity": 0.6299212598425197,
          "duration": 0.4989583333333325,
          "ticks": 12480,
          "durationTicks": 479
        },
        {
          "time": 13.5,
          "midi": 67,
          "name": "G4",
          "velocity": 0.6299212598425197,
          "duration": 0.4989583333333325,
          "ticks": 12960,
          "durationTicks": 479
        },
        {
          "time": 14,
          "midi": 66,
          "name": "F#4",
          "velocity": 0.6299212598425197,
          "duration": 0.7489583333333325,
          "ticks": 13440,
          "durationTicks": 719
        },
        {
          "time": 14.75,
          "midi": 67,
          "name": "G4",
          "velocity": 0.6299212598425197,
          "duration": 0.2489583333333325,
          "ticks": 14160,
          "durationTicks": 239
        },
        {
          "time": 15,
          "midi": 67,
          "name": "G4",
          "velocity": 0.6299212598425197,
          "duration": 0.9989583333333325,
          "ticks": 14400,
          "durationTicks": 959
        },
        {
          "time": 16,
          "midi": 66,
          "name": "F#4",
          "velocity": 0.6299212598425197,
          "duration": 0.4989583333333343,
          "ticks": 15360,
          "durationTicks": 479
        },
        {
          "time": 16.5,
          "midi": 66,
          "name": "F#4",
          "velocity": 0.6299212598425197,
          "duration": 0.4989583333333343,
          "ticks": 15840,
          "durationTicks": 479
        },
        {
          "time": 17,
          "midi": 67,
          "name": "G4",
          "velocity": 0.6299212598425197,
          "duration": 0.4989583333333343,
          "ticks": 16320,
          "durationTicks": 479
        },
        {
          "time": 17.5,
          "midi": 62,
          "name": "D4",
          "velocity": 0.6299212598425197,
          "duration": 0.4989583333333343,
          "ticks": 16800,
          "durationTicks": 479
        },
        {
          "time": 18,
          "midi": 66,
          "name": "F#4",
          "velocity": 0.6299212598425197,
          "duration": 0.4989583333333343,
          "ticks": 17280,
          "durationTicks": 479
        },
        {
          "time": 18.5,
          "midi": 67,
          "name": "G4",
          "velocity": 0.6299212598425197,
          "duration": 0.24895833333333428,
          "ticks": 17760,
          "durationTicks": 239
        },
        {
          "time": 18.75,
          "midi": 69,
          "name": "A4",
          "velocity": 0.6299212598425197,
          "duration": 0.24895833333333428,
          "ticks": 18000,
          "durationTicks": 239
        },
        {
          "time": 19,
          "midi": 67,
          "name": "G4",
          "velocity": 0.6299212598425197,
          "duration": 0.4989583333333343,
          "ticks": 18240,
          "durationTicks": 479
        },
        {
          "time": 19.5,
          "midi": 62,
          "name": "D4",
          "velocity": 0.6299212598425197,
          "duration": 0.4989583333333343,
          "ticks": 18720,
          "durationTicks": 479
        },
        {
          "time": 20,
          "midi": 66,
          "name": "F#4",
          "velocity": 0.6299212598425197,
          "duration": 0.4989583333333343,
          "ticks": 19200,
          "durationTicks": 479
        },
        {
          "time": 20.5,
          "midi": 67,
          "name": "G4",
          "velocity": 0.6299212598425197,
          "duration": 0.24895833333333428,
          "ticks": 19680,
          "durationTicks": 239
        },
        {
          "time": 20.75,
          "midi": 69,
          "name": "A4",
          "velocity": 0.6299212598425197,
          "duration": 0.24895833333333428,
          "ticks": 19920,
          "durationTicks": 239
        },
        {
          "time": 21,
          "midi": 67,
          "name": "G4",
          "velocity": 0.6299212598425197,
          "duration": 0.4989583333333343,
          "ticks": 20160,
          "durationTicks": 479
        },
        {
          "time": 21.5,
          "midi": 66,
          "name": "F#4",
          "velocity": 0.6299212598425197,
          "duration": 0.4989583333333343,
          "ticks": 20640,
          "durationTicks": 479
        },
        {
          "time": 22,
          "midi": 64,
          "name": "E4",
          "velocity": 0.6299212598425197,
          "duration": 0.4989583333333343,
          "ticks": 21120,
          "durationTicks": 479
        },
        {
          "time": 22.5,
          "midi": 61,
          "name": "C#4",
          "velocity": 0.6299212598425197,
          "duration": 0.4989583333333343,
          "ticks": 21600,
          "durationTicks": 479
        },
        {
          "time": 23,
          "midi": 62,
          "name": "D4",
          "velocity": 0.6299212598425197,
          "duration": 0.9989583333333343,
          "ticks": 22080,
          "durationTicks": 959
        },
        {
          "time": 24,
          "midi": 67,
          "name": "G4",
          "velocity": 0.6299212598425197,
          "duration": 0.4989583333333343,
          "ticks": 23040,
          "durationTicks": 479
        },
        {
          "time": 24.5,
          "midi": 67,
          "name": "G4",
          "velocity": 0.6299212598425197,
          "duration": 0.4989583333333343,
          "ticks": 23520,
          "durationTicks": 479
        },
        {
          "time": 25,
          "midi": 69,
          "name": "A4",
          "velocity": 0.6299212598425197,
          "duration": 0.4989583333333343,
          "ticks": 24000,
          "durationTicks": 479
        },
        {
          "time": 25.5,
          "midi": 71,
          "name": "B4",
          "velocity": 0.6299212598425197,
          "duration": 0.4989583333333343,
          "ticks": 24480,
          "durationTicks": 479
        },
        {
          "time": 26,
          "midi": 71,
          "name": "B4",
          "velocity": 0.6299212598425197,
          "duration": 0.4989583333333343,
          "ticks": 24960,
          "durationTicks": 479
        },
        {
          "time": 26.5,
          "midi": 69,
          "name": "A4",
          "velocity": 0.6299212598425197,
          "duration": 0.4989583333333343,
          "ticks": 25440,
          "durationTicks": 479
        },
        {
          "time": 27,
          "midi": 67,
          "name": "G4",
          "velocity": 0.6299212598425197,
          "duration": 0.4989583333333343,
          "ticks": 25920,
          "durationTicks": 479
        },
        {
          "time": 27.5,
          "midi": 69,
          "name": "A4",
          "velocity": 0.6299212598425197,
          "duration": 0.24895833333333428,
          "ticks": 26400,
          "durationTicks": 239
        },
        {
          "time": 27.75,
          "midi": 66,
          "name": "F#4",
          "velocity": 0.6299212598425197,
          "duration": 0.24895833333333428,
          "ticks": 26640,
          "durationTicks": 239
        },
        {
          "time": 28,
          "midi": 62,
          "name": "D4",
          "velocity": 0.6299212598425197,
          "duration": 0.4989583333333343,
          "ticks": 26880,
          "durationTicks": 479
        },
        {
          "time": 28.5,
          "midi": 62,
          "name": "D4",
          "velocity": 0.6299212598425197,
          "duration": 0.4989583333333343,
          "ticks": 27360,
          "durationTicks": 479
        },
        {
          "time": 29,
          "midi": 66,
          "name": "F#4",
          "velocity": 0.6299212598425197,
          "duration": 0.4989583333333343,
          "ticks": 27840,
          "durationTicks": 479
        },
        {
          "time": 29.5,
          "midi": 67,
          "name": "G4",
          "velocity": 0.6299212598425197,
          "duration": 0.4989583333333343,
          "ticks": 28320,
          "durationTicks": 479
        },
        {
          "time": 30,
          "midi": 66,
          "name": "F#4",
          "velocity": 0.6299212598425197,
          "duration": 0.7489583333333343,
          "ticks": 28800,
          "durationTicks": 719
        },
        {
          "time": 30.75,
          "midi": 67,
          "name": "G4",
          "velocity": 0.6299212598425197,
          "duration": 0.24895833333333428,
          "ticks": 29520,
          "durationTicks": 239
        },
        {
          "time": 31,
          "midi": 67,
          "name": "G4",
          "velocity": 0.6299212598425197,
          "duration": 0.9989583333333343,
          "ticks": 29760,
          "durationTicks": 959
        },
        {
          "time": 48,
          "midi": 66,
          "name": "F#4",
          "velocity": 0.6299212598425197,
          "duration": 0.4989583333333343,
          "ticks": 46080,
          "durationTicks": 479
        },
        {
          "time": 48.5,
          "midi": 66,
          "name": "F#4",
          "velocity": 0.6299212598425197,
          "duration": 0.4989583333333343,
          "ticks": 46560,
          "durationTicks": 479
        },
        {
          "time": 49,
          "midi": 67,
          "name": "G4",
          "velocity": 0.6299212598425197,
          "duration": 0.4989583333333343,
          "ticks": 47040,
          "durationTicks": 479
        },
        {
          "time": 49.5,
          "midi": 62,
          "name": "D4",
          "velocity": 0.6299212598425197,
          "duration": 0.4989583333333343,
          "ticks": 47520,
          "durationTicks": 479
        },
        {
          "time": 50,
          "midi": 66,
          "name": "F#4",
          "velocity": 0.6299212598425197,
          "duration": 0.4989583333333343,
          "ticks": 48000,
          "durationTicks": 479
        },
        {
          "time": 50.5,
          "midi": 67,
          "name": "G4",
          "velocity": 0.6299212598425197,
          "duration": 0.24895833333333428,
          "ticks": 48480,
          "durationTicks": 239
        },
        {
          "time": 50.75,
          "midi": 69,
          "name": "A4",
          "velocity": 0.6299212598425197,
          "duration": 0.24895833333333428,
          "ticks": 48720,
          "durationTicks": 239
        },
        {
          "time": 51,
          "midi": 67,
          "name": "G4",
          "velocity": 0.6299212598425197,
          "duration": 0.4989583333333343,
          "ticks": 48960,
          "durationTicks": 479
        },
        {
          "time": 51.5,
          "midi": 62,
          "name": "D4",
          "velocity": 0.6299212598425197,
          "duration": 0.4989583333333343,
          "ticks": 49440,
          "durationTicks": 479
        },
        {
          "time": 52,
          "midi": 66,
          "name": "F#4",
          "velocity": 0.6299212598425197,
          "duration": 0.4989583333333343,
          "ticks": 49920,
          "durationTicks": 479
        },
        {
          "time": 52.5,
          "midi": 67,
          "name": "G4",
          "velocity": 0.6299212598425197,
          "duration": 0.24895833333333428,
          "ticks": 50400,
          "durationTicks": 239
        },
        {
          "time": 52.75,
          "midi": 69,
          "name": "A4",
          "velocity": 0.6299212598425197,
          "duration": 0.24895833333333428,
          "ticks": 50640,
          "durationTicks": 239
        },
        {
          "time": 53,
          "midi": 67,
          "name": "G4",
          "velocity": 0.6299212598425197,
          "duration": 0.4989583333333343,
          "ticks": 50880,
          "durationTicks": 479
        },
        {
          "time": 53.5,
          "midi": 66,
          "name": "F#4",
          "velocity": 0.6299212598425197,
          "duration": 0.4989583333333343,
          "ticks": 51360,
          "durationTicks": 479
        },
        {
          "time": 54,
          "midi": 64,
          "name": "E4",
          "velocity": 0.6299212598425197,
          "duration": 0.4989583333333343,
          "ticks": 51840,
          "durationTicks": 479
        },
        {
          "time": 54.5,
          "midi": 61,
          "name": "C#4",
          "velocity": 0.6299212598425197,
          "duration": 0.4989583333333343,
          "ticks": 52320,
          "durationTicks": 479
        },
        {
          "time": 55,
          "midi": 62,
          "name": "D4",
          "velocity": 0.6299212598425197,
          "duration": 0.9989583333333343,
          "ticks": 52800,
          "durationTicks": 959
        },
        {
          "time": 56,
          "midi": 67,
          "name": "G4",
          "velocity": 0.6299212598425197,
          "duration": 0.4989583333333343,
          "ticks": 53760,
          "durationTicks": 479
        },
        {
          "time": 56.5,
          "midi": 67,
          "name": "G4",
          "velocity": 0.6299212598425197,
          "duration": 0.4989583333333343,
          "ticks": 54240,
          "durationTicks": 479
        },
        {
          "time": 57,
          "midi": 69,
          "name": "A4",
          "velocity": 0.6299212598425197,
          "duration": 0.4989583333333343,
          "ticks": 54720,
          "durationTicks": 479
        },
        {
          "time": 57.5,
          "midi": 71,
          "name": "B4",
          "velocity": 0.6299212598425197,
          "duration": 0.4989583333333343,
          "ticks": 55200,
          "durationTicks": 479
        },
        {
          "time": 58,
          "midi": 71,
          "name": "B4",
          "velocity": 0.6299212598425197,
          "duration": 0.4989583333333343,
          "ticks": 55680,
          "durationTicks": 479
        },
        {
          "time": 58.5,
          "midi": 69,
          "name": "A4",
          "velocity": 0.6299212598425197,
          "duration": 0.4989583333333343,
          "ticks": 56160,
          "durationTicks": 479
        },
        {
          "time": 59,
          "midi": 67,
          "name": "G4",
          "velocity": 0.6299212598425197,
          "duration": 0.4989583333333343,
          "ticks": 56640,
          "durationTicks": 479
        },
        {
          "time": 59.5,
          "midi": 69,
          "name": "A4",
          "velocity": 0.6299212598425197,
          "duration": 0.24895833333333428,
          "ticks": 57120,
          "durationTicks": 239
        },
        {
          "time": 59.75,
          "midi": 66,
          "name": "F#4",
          "velocity": 0.6299212598425197,
          "duration": 0.24895833333333428,
          "ticks": 57360,
          "durationTicks": 239
        },
        {
          "time": 60,
          "midi": 62,
          "name": "D4",
          "velocity": 0.6299212598425197,
          "duration": 0.4989583333333343,
          "ticks": 57600,
          "durationTicks": 479
        },
        {
          "time": 60.5,
          "midi": 62,
          "name": "D4",
          "velocity": 0.6299212598425197,
          "duration": 0.4989583333333343,
          "ticks": 58080,
          "durationTicks": 479
        },
        {
          "time": 61,
          "midi": 66,
          "name": "F#4",
          "velocity": 0.6299212598425197,
          "duration": 0.4989583333333343,
          "ticks": 58560,
          "durationTicks": 479
        },
        {
          "time": 61.5,
          "midi": 67,
          "name": "G4",
          "velocity": 0.6299212598425197,
          "duration": 0.4989583333333343,
          "ticks": 59040,
          "durationTicks": 479
        },
        {
          "time": 62,
          "midi": 66,
          "name": "F#4",
          "velocity": 0.6299212598425197,
          "duration": 0.7489583333333343,
          "ticks": 59520,
          "durationTicks": 719
        },
        {
          "time": 62.75,
          "midi": 67,
          "name": "G4",
          "velocity": 0.6299212598425197,
          "duration": 0.24895833333333428,
          "ticks": 60240,
          "durationTicks": 239
        },
        {
          "time": 63,
          "midi": 67,
          "name": "G4",
          "velocity": 0.6299212598425197,
          "duration": 0.9989583333333343,
          "ticks": 60480,
          "durationTicks": 959
        },
        {
          "time": 80,
          "midi": 66,
          "name": "F#4",
          "velocity": 0.6299212598425197,
          "duration": 0.4989583333333343,
          "ticks": 76800,
          "durationTicks": 479
        },
        {
          "time": 80.5,
          "midi": 66,
          "name": "F#4",
          "velocity": 0.6299212598425197,
          "duration": 0.4989583333333343,
          "ticks": 77280,
          "durationTicks": 479
        },
        {
          "time": 81,
          "midi": 67,
          "name": "G4",
          "velocity": 0.6299212598425197,
          "duration": 0.4989583333333343,
          "ticks": 77760,
          "durationTicks": 479
        },
        {
          "time": 81.5,
          "midi": 62,
          "name": "D4",
          "velocity": 0.6299212598425197,
          "duration": 0.4989583333333343,
          "ticks": 78240,
          "durationTicks": 479
        },
        {
          "time": 82,
          "midi": 66,
          "name": "F#4",
          "velocity": 0.6299212598425197,
          "duration": 0.4989583333333343,
          "ticks": 78720,
          "durationTicks": 479
        },
        {
          "time": 82.5,
          "midi": 67,
          "name": "G4",
          "velocity": 0.6299212598425197,
          "duration": 0.24895833333333428,
          "ticks": 79200,
          "durationTicks": 239
        },
        {
          "time": 82.75,
          "midi": 69,
          "name": "A4",
          "velocity": 0.6299212598425197,
          "duration": 0.24895833333333428,
          "ticks": 79440,
          "durationTicks": 239
        },
        {
          "time": 83,
          "midi": 67,
          "name": "G4",
          "velocity": 0.6299212598425197,
          "duration": 0.4989583333333343,
          "ticks": 79680,
          "durationTicks": 479
        },
        {
          "time": 83.5,
          "midi": 62,
          "name": "D4",
          "velocity": 0.6299212598425197,
          "duration": 0.4989583333333343,
          "ticks": 80160,
          "durationTicks": 479
        },
        {
          "time": 84,
          "midi": 66,
          "name": "F#4",
          "velocity": 0.6299212598425197,
          "duration": 0.4989583333333343,
          "ticks": 80640,
          "durationTicks": 479
        },
        {
          "time": 84.5,
          "midi": 67,
          "name": "G4",
          "velocity": 0.6299212598425197,
          "duration": 0.24895833333333428,
          "ticks": 81120,
          "durationTicks": 239
        },
        {
          "time": 84.75,
          "midi": 69,
          "name": "A4",
          "velocity": 0.6299212598425197,
          "duration": 0.24895833333333428,
          "ticks": 81360,
          "durationTicks": 239
        },
        {
          "time": 85,
          "midi": 67,
          "name": "G4",
          "velocity": 0.6299212598425197,
          "duration": 0.4989583333333343,
          "ticks": 81600,
          "durationTicks": 479
        },
        {
          "time": 85.5,
          "midi": 66,
          "name": "F#4",
          "velocity": 0.6299212598425197,
          "duration": 0.4989583333333343,
          "ticks": 82080,
          "durationTicks": 479
        },
        {
          "time": 86,
          "midi": 64,
          "name": "E4",
          "velocity": 0.6299212598425197,
          "duration": 0.4989583333333343,
          "ticks": 82560,
          "durationTicks": 479
        },
        {
          "time": 86.5,
          "midi": 61,
          "name": "C#4",
          "velocity": 0.6299212598425197,
          "duration": 0.4989583333333343,
          "ticks": 83040,
          "durationTicks": 479
        },
        {
          "time": 87,
          "midi": 62,
          "name": "D4",
          "velocity": 0.6299212598425197,
          "duration": 0.9989583333333343,
          "ticks": 83520,
          "durationTicks": 959
        },
        {
          "time": 88,
          "midi": 67,
          "name": "G4",
          "velocity": 0.6299212598425197,
          "duration": 0.4989583333333343,
          "ticks": 84480,
          "durationTicks": 479
        },
        {
          "time": 88.5,
          "midi": 67,
          "name": "G4",
          "velocity": 0.6299212598425197,
          "duration": 0.4989583333333343,
          "ticks": 84960,
          "durationTicks": 479
        },
        {
          "time": 89,
          "midi": 69,
          "name": "A4",
          "velocity": 0.6299212598425197,
          "duration": 0.4989583333333343,
          "ticks": 85440,
          "durationTicks": 479
        },
        {
          "time": 89.5,
          "midi": 71,
          "name": "B4",
          "velocity": 0.6299212598425197,
          "duration": 0.4989583333333343,
          "ticks": 85920,
          "durationTicks": 479
        },
        {
          "time": 90,
          "midi": 71,
          "name": "B4",
          "velocity": 0.6299212598425197,
          "duration": 0.4989583333333343,
          "ticks": 86400,
          "durationTicks": 479
        },
        {
          "time": 90.5,
          "midi": 69,
          "name": "A4",
          "velocity": 0.6299212598425197,
          "duration": 0.4989583333333343,
          "ticks": 86880,
          "durationTicks": 479
        },
        {
          "time": 91,
          "midi": 67,
          "name": "G4",
          "velocity": 0.6299212598425197,
          "duration": 0.4989583333333343,
          "ticks": 87360,
          "durationTicks": 479
        },
        {
          "time": 91.5,
          "midi": 69,
          "name": "A4",
          "velocity": 0.6299212598425197,
          "duration": 0.24895833333333428,
          "ticks": 87840,
          "durationTicks": 239
        },
        {
          "time": 91.75,
          "midi": 66,
          "name": "F#4",
          "velocity": 0.6299212598425197,
          "duration": 0.24895833333333428,
          "ticks": 88080,
          "durationTicks": 239
        },
        {
          "time": 92,
          "midi": 62,
          "name": "D4",
          "velocity": 0.6299212598425197,
          "duration": 0.4989583333333343,
          "ticks": 88320,
          "durationTicks": 479
        },
        {
          "time": 92.5,
          "midi": 62,
          "name": "D4",
          "velocity": 0.6299212598425197,
          "duration": 0.4989583333333343,
          "ticks": 88800,
          "durationTicks": 479
        },
        {
          "time": 93,
          "midi": 66,
          "name": "F#4",
          "velocity": 0.6299212598425197,
          "duration": 0.4989583333333343,
          "ticks": 89280,
          "durationTicks": 479
        },
        {
          "time": 93.5,
          "midi": 67,
          "name": "G4",
          "velocity": 0.6299212598425197,
          "duration": 0.4989583333333343,
          "ticks": 89760,
          "durationTicks": 479
        },
        {
          "time": 94,
          "midi": 66,
          "name": "F#4",
          "velocity": 0.6299212598425197,
          "duration": 0.7489583333333343,
          "ticks": 90240,
          "durationTicks": 719
        },
        {
          "time": 94.75,
          "midi": 67,
          "name": "G4",
          "velocity": 0.6299212598425197,
          "duration": 0.24895833333333428,
          "ticks": 90960,
          "durationTicks": 239
        },
        {
          "time": 95,
          "midi": 67,
          "name": "G4",
          "velocity": 0.6299212598425197,
          "duration": 0.9989583333333343,
          "ticks": 91200,
          "durationTicks": 959
        },
        {
          "time": 98,
          "midi": 62,
          "name": "D4",
          "velocity": 0.6299212598425197,
          "duration": 0.4989583333333343,
          "ticks": 94080,
          "durationTicks": 479
        },
        {
          "time": 98.5,
          "midi": 59,
          "name": "B3",
          "velocity": 0.6299212598425197,
          "duration": 0.4989583333333343,
          "ticks": 94560,
          "durationTicks": 479
        },
        {
          "time": 99,
          "midi": 57,
          "name": "A3",
          "velocity": 0.6299212598425197,
          "duration": 0.4989583333333343,
          "ticks": 95040,
          "durationTicks": 479
        },
        {
          "time": 99.5,
          "midi": 55,
          "name": "G3",
          "velocity": 0.6299212598425197,
          "duration": 0.4989583333333343,
          "ticks": 95520,
          "durationTicks": 479
        },
        {
          "time": 100,
          "midi": 67,
          "name": "G4",
          "velocity": 0.6299212598425197,
          "duration": 0.4989583333333343,
          "ticks": 96000,
          "durationTicks": 479
        },
        {
          "time": 100.5,
          "midi": 67,
          "name": "G4",
          "velocity": 0.6299212598425197,
          "duration": 0.4989583333333343,
          "ticks": 96480,
          "durationTicks": 479
        },
        {
          "time": 101,
          "midi": 69,
          "name": "A4",
          "velocity": 0.6299212598425197,
          "duration": 0.4989583333333343,
          "ticks": 96960,
          "durationTicks": 479
        },
        {
          "time": 101.5,
          "midi": 71,
          "name": "B4",
          "velocity": 0.6299212598425197,
          "duration": 0.4989583333333343,
          "ticks": 97440,
          "durationTicks": 479
        },
        {
          "time": 102,
          "midi": 69,
          "name": "A4",
          "velocity": 0.6299212598425197,
          "duration": 0.7489583333333343,
          "ticks": 97920,
          "durationTicks": 719
        },
        {
          "time": 102.75,
          "midi": 67,
          "name": "G4",
          "velocity": 0.6299212598425197,
          "duration": 0.24895833333333428,
          "ticks": 98640,
          "durationTicks": 239
        },
        {
          "time": 103,
          "midi": 67,
          "name": "G4",
          "velocity": 0.6299212598425197,
          "duration": 0.9989583333333343,
          "ticks": 98880,
          "durationTicks": 959
        }
      ],
      "controlChanges": {
        "7": [
          {
            "number": 7,
            "value": 0.7874015748031497,
            "time": 0,
            "ticks": 0
          },
          {
            "number": 7,
            "value": 0.7874015748031497,
            "time": 0,
            "ticks": 0
          },
          {
            "number": 7,
            "value": 0.7874015748031497,
            "time": 0,
            "ticks": 0
          }
        ],
        "10": [
          {
            "number": 10,
            "value": 0.5039370078740157,
            "time": 0,
            "ticks": 0
          },
          {
            "number": 10,
            "value": 0.5039370078740157,
            "time": 0,
            "ticks": 0
          },
          {
            "number": 10,
            "value": 0.5039370078740157,
            "time": 0,
            "ticks": 0
          }
        ],
        "91": [
          {
            "number": 91,
            "value": 0,
            "time": 0,
            "ticks": 0
          },
          {
            "number": 91,
            "value": 0,
            "time": 0,
            "ticks": 0
          },
          {
            "number": 91,
            "value": 0,
            "time": 0,
            "ticks": 0
          }
        ],
        "93": [
          {
            "number": 93,
            "value": 0,
            "time": 0,
            "ticks": 0
          },
          {
            "number": 93,
            "value": 0,
            "time": 0,
            "ticks": 0
          },
          {
            "number": 93,
            "value": 0,
            "time": 0,
            "ticks": 0
          }
        ],
        "121": [
          {
            "number": 121,
            "value": 0,
            "time": 0,
            "ticks": 0
          },
          {
            "number": 121,
            "value": 0,
            "time": 0,
            "ticks": 0
          },
          {
            "number": 121,
            "value": 0,
            "time": 0,
            "ticks": 0
          }
        ]
      }
    },
    {
      "name": "Cello",
      "channel": 0,
      "instrument": {
        "number": 42,
        "name": "cello",
        "family": "strings"
      },
      "notes": [
        {
          "time": 0,
          "midi": 43,
          "name": "G2",
          "velocity": 0.6299212598425197,
          "duration": 1.9989583333333334,
          "ticks": 0,
          "durationTicks": 1919
        },
        {
          "time": 2,
          "midi": 38,
          "name": "D2",
          "velocity": 0.6299212598425197,
          "duration": 1.9989583333333334,
          "ticks": 1920,
          "durationTicks": 1919
        },
        {
          "time": 4,
          "midi": 43,
          "name": "G2",
          "velocity": 0.6299212598425197,
          "duration": 1.9989583333333334,
          "ticks": 3840,
          "durationTicks": 1919
        },
        {
          "time": 6,
          "midi": 38,
          "name": "D2",
          "velocity": 0.6299212598425197,
          "duration": 1.9989583333333334,
          "ticks": 5760,
          "durationTicks": 1919
        },
        {
          "time": 8,
          "midi": 43,
          "name": "G2",
          "velocity": 0.6299212598425197,
          "duration": 1.9989583333333325,
          "ticks": 7680,
          "durationTicks": 1919
        },
        {
          "time": 10,
          "midi": 36,
          "name": "C2",
          "velocity": 0.6299212598425197,
          "duration": 1.9989583333333325,
          "ticks": 9600,
          "durationTicks": 1919
        },
        {
          "time": 12,
          "midi": 38,
          "name": "D2",
          "velocity": 0.6299212598425197,
          "duration": 1.9989583333333325,
          "ticks": 11520,
          "durationTicks": 1919
        },
        {
          "time": 14,
          "midi": 38,
          "name": "D2",
          "velocity": 0.6299212598425197,
          "duration": 0.9989583333333325,
          "ticks": 13440,
          "durationTicks": 959
        },
        {
          "time": 15,
          "midi": 43,
          "name": "G2",
          "velocity": 0.6299212598425197,
          "duration": 0.9989583333333325,
          "ticks": 14400,
          "durationTicks": 959
        },
        {
          "time": 16,
          "midi": 38,
          "name": "D2",
          "velocity": 0.6299212598425197,
          "duration": 0.9989583333333343,
          "ticks": 15360,
          "durationTicks": 959
        },
        {
          "time": 17,
          "midi": 38,
          "name": "D2",
          "velocity": 0.6299212598425197,
          "duration": 0.9989583333333343,
          "ticks": 16320,
          "durationTicks": 959
        },
        {
          "time": 18,
          "midi": 38,
          "name": "D2",
          "velocity": 0.6299212598425197,
          "duration": 0.9989583333333343,
          "ticks": 17280,
          "durationTicks": 959
        },
        {
          "time": 19,
          "midi": 38,
          "name": "D2",
          "velocity": 0.6299212598425197,
          "duration": 0.9989583333333343,
          "ticks": 18240,
          "durationTicks": 959
        },
        {
          "time": 20,
          "midi": 38,
          "name": "D2",
          "velocity": 0.6299212598425197,
          "duration": 0.9989583333333343,
          "ticks": 19200,
          "durationTicks": 959
        },
        {
          "time": 21,
          "midi": 39,
          "name": "D#2",
          "velocity": 0.6299212598425197,
          "duration": 0.9989583333333343,
          "ticks": 20160,
          "durationTicks": 959
        },
        {
          "time": 22,
          "midi": 40,
          "name": "E2",
          "velocity": 0.6299212598425197,
          "duration": 0.4989583333333343,
          "ticks": 21120,
          "durationTicks": 479
        },
        {
          "time": 22.5,
          "midi": 45,
          "name": "A2",
          "velocity": 0.6299212598425197,
          "duration": 0.4989583333333343,
          "ticks": 21600,
          "durationTicks": 479
        },
        {
          "time": 23,
          "midi": 38,
          "name": "D2",
          "velocity": 0.6299212598425197,
          "duration": 0.9989583333333343,
          "ticks": 22080,
          "durationTicks": 959
        },
        {
          "time": 24,
          "midi": 43,
          "name": "G2",
          "velocity": 0.6299212598425197,
          "duration": 1.9989583333333343,
          "ticks": 23040,
          "durationTicks": 1919
        },
        {
          "time": 26,
          "midi": 36,
          "name": "C2",
          "velocity": 0.6299212598425197,
          "duration": 1.9989583333333343,
          "ticks": 24960,
          "durationTicks": 1919
        },
        {
          "time": 28,
          "midi": 38,
          "name": "D2",
          "velocity": 0.6299212598425197,
          "duration": 1.9989583333333343,
          "ticks": 26880,
          "durationTicks": 1919
        },
        {
          "time": 30,
          "midi": 38,
          "name": "D2",
          "velocity": 0.6299212598425197,
          "duration": 0.9989583333333343,
          "ticks": 28800,
          "durationTicks": 959
        },
        {
          "time": 31,
          "midi": 43,
          "name": "G2",
          "velocity": 0.6299212598425197,
          "duration": 0.9989583333333343,
          "ticks": 29760,
          "durationTicks": 959
        },
        {
          "time": 32,
          "midi": 43,
          "name": "G2",
          "velocity": 0.6299212598425197,
          "duration": 1.9989583333333343,
          "ticks": 30720,
          "durationTicks": 1919
        },
        {
          "time": 34,
          "midi": 38,
          "name": "D2",
          "velocity": 0.6299212598425197,
          "duration": 1.9989583333333343,
          "ticks": 32640,
          "durationTicks": 1919
        },
        {
          "time": 36,
          "midi": 43,
          "name": "G2",
          "velocity": 0.6299212598425197,
          "duration": 1.9989583333333343,
          "ticks": 34560,
          "durationTicks": 1919
        },
        {
          "time": 38,
          "midi": 38,
          "name": "D2",
          "velocity": 0.6299212598425197,
          "duration": 1.9989583333333343,
          "ticks": 36480,
          "durationTicks": 1919
        },
        {
          "time": 40,
          "midi": 43,
          "name": "G2",
          "velocity": 0.6299212598425197,
          "duration": 1.9989583333333343,
          "ticks": 38400,
          "durationTicks": 1919
        },
        {
          "time": 42,
          "midi": 36,
          "name": "C2",
          "velocity": 0.6299212598425197,
          "duration": 1.9989583333333343,
          "ticks": 40320,
          "durationTicks": 1919
        },
        {
          "time": 44,
          "midi": 38,
          "name": "D2",
          "velocity": 0.6299212598425197,
          "duration": 1.9989583333333343,
          "ticks": 42240,
          "durationTicks": 1919
        },
        {
          "time": 46,
          "midi": 38,
          "name": "D2",
          "velocity": 0.6299212598425197,
          "duration": 0.9989583333333343,
          "ticks": 44160,
          "durationTicks": 959
        },
        {
          "time": 47,
          "midi": 43,
          "name": "G2",
          "velocity": 0.6299212598425197,
          "duration": 0.9989583333333343,
          "ticks": 45120,
          "durationTicks": 959
        },
        {
          "time": 48,
          "midi": 38,
          "name": "D2",
          "velocity": 0.6299212598425197,
          "duration": 0.9989583333333343,
          "ticks": 46080,
          "durationTicks": 959
        },
        {
          "time": 49,
          "midi": 38,
          "name": "D2",
          "velocity": 0.6299212598425197,
          "duration": 0.9989583333333343,
          "ticks": 47040,
          "durationTicks": 959
        },
        {
          "time": 50,
          "midi": 38,
          "name": "D2",
          "velocity": 0.6299212598425197,
          "duration": 0.9989583333333343,
          "ticks": 48000,
          "durationTicks": 959
        },
        {
          "time": 51,
          "midi": 38,
          "name": "D2",
          "velocity": 0.6299212598425197,
          "duration": 0.9989583333333343,
          "ticks": 48960,
          "durationTicks": 959
        },
        {
          "time": 52,
          "midi": 38,
          "name": "D2",
          "velocity": 0.6299212598425197,
          "duration": 0.9989583333333343,
          "ticks": 49920,
          "durationTicks": 959
        },
        {
          "time": 53,
          "midi": 39,
          "name": "D#2",
          "velocity": 0.6299212598425197,
          "duration": 0.9989583333333343,
          "ticks": 50880,
          "durationTicks": 959
        },
        {
          "time": 54,
          "midi": 40,
          "name": "E2",
          "velocity": 0.6299212598425197,
          "duration": 0.4989583333333343,
          "ticks": 51840,
          "durationTicks": 479
        },
        {
          "time": 54.5,
          "midi": 45,
          "name": "A2",
          "velocity": 0.6299212598425197,
          "duration": 0.4989583333333343,
          "ticks": 52320,
          "durationTicks": 479
        },
        {
          "time": 55,
          "midi": 38,
          "name": "D2",
          "velocity": 0.6299212598425197,
          "duration": 0.9989583333333343,
          "ticks": 52800,
          "durationTicks": 959
        },
        {
          "time": 56,
          "midi": 43,
          "name": "G2",
          "velocity": 0.6299212598425197,
          "duration": 1.9989583333333343,
          "ticks": 53760,
          "durationTicks": 1919
        },
        {
          "time": 58,
          "midi": 36,
          "name": "C2",
          "velocity": 0.6299212598425197,
          "duration": 1.9989583333333343,
          "ticks": 55680,
          "durationTicks": 1919
        },
        {
          "time": 60,
          "midi": 38,
          "name": "D2",
          "velocity": 0.6299212598425197,
          "duration": 1.9989583333333343,
          "ticks": 57600,
          "durationTicks": 1919
        },
        {
          "time": 62,
          "midi": 38,
          "name": "D2",
          "velocity": 0.6299212598425197,
          "duration": 0.9989583333333343,
          "ticks": 59520,
          "durationTicks": 959
        },
        {
          "time": 63,
          "midi": 43,
          "name": "G2",
          "velocity": 0.6299212598425197,
          "duration": 0.9989583333333343,
          "ticks": 60480,
          "durationTicks": 959
        },
        {
          "time": 64,
          "midi": 59,
          "name": "B3",
          "velocity": 0.8818897637795275,
          "duration": 0.4989583333333343,
          "ticks": 61440,
          "durationTicks": 479
        },
        {
          "time": 64.5,
          "midi": 59,
          "name": "B3",
          "velocity": 0.8818897637795275,
          "duration": 0.4989583333333343,
          "ticks": 61920,
          "durationTicks": 479
        },
        {
          "time": 65,
          "midi": 60,
          "name": "C4",
          "velocity": 0.8818897637795275,
          "duration": 0.4989583333333343,
          "ticks": 62400,
          "durationTicks": 479
        },
        {
          "time": 65.5,
          "midi": 62,
          "name": "D4",
          "velocity": 0.8818897637795275,
          "duration": 0.4989583333333343,
          "ticks": 62880,
          "durationTicks": 479
        },
        {
          "time": 66,
          "midi": 62,
          "name": "D4",
          "velocity": 0.8818897637795275,
          "duration": 0.4989583333333343,
          "ticks": 63360,
          "durationTicks": 479
        },
        {
          "time": 66.5,
          "midi": 60,
          "name": "C4",
          "velocity": 0.8818897637795275,
          "duration": 0.4989583333333343,
          "ticks": 63840,
          "durationTicks": 479
        },
        {
          "time": 67,
          "midi": 59,
          "name": "B3",
          "velocity": 0.8818897637795275,
          "duration": 0.4989583333333343,
          "ticks": 64320,
          "durationTicks": 479
        },
        {
          "time": 67.5,
          "midi": 57,
          "name": "A3",
          "velocity": 0.8818897637795275,
          "duration": 0.4989583333333343,
          "ticks": 64800,
          "durationTicks": 479
        },
        {
          "time": 68,
          "midi": 55,
          "name": "G3",
          "velocity": 0.8818897637795275,
          "duration": 0.4989583333333343,
          "ticks": 65280,
          "durationTicks": 479
        },
        {
          "time": 68.5,
          "midi": 55,
          "name": "G3",
          "velocity": 0.8818897637795275,
          "duration": 0.4989583333333343,
          "ticks": 65760,
          "durationTicks": 479
        },
        {
          "time": 69,
          "midi": 57,
          "name": "A3",
          "velocity": 0.8818897637795275,
          "duration": 0.4989583333333343,
          "ticks": 66240,
          "durationTicks": 479
        },
        {
          "time": 69.5,
          "midi": 59,
          "name": "B3",
          "velocity": 0.8818897637795275,
          "duration": 0.4989583333333343,
          "ticks": 66720,
          "durationTicks": 479
        },
        {
          "time": 70,
          "midi": 59,
          "name": "B3",
          "velocity": 0.8818897637795275,
          "duration": 0.7489583333333343,
          "ticks": 67200,
          "durationTicks": 719
        },
        {
          "time": 70.75,
          "midi": 57,
          "name": "A3",
          "velocity": 0.8818897637795275,
          "duration": 0.24895833333333428,
          "ticks": 67920,
          "durationTicks": 239
        },
        {
          "time": 71,
          "midi": 57,
          "name": "A3",
          "velocity": 0.8818897637795275,
          "duration": 0.9989583333333343,
          "ticks": 68160,
          "durationTicks": 959
        },
        {
          "time": 72,
          "midi": 59,
          "name": "B3",
          "velocity": 0.8818897637795275,
          "duration": 0.4989583333333343,
          "ticks": 69120,
          "durationTicks": 479
        },
        {
          "time": 72.5,
          "midi": 59,
          "name": "B3",
          "velocity": 0.8818897637795275,
          "duration": 0.4989583333333343,
          "ticks": 69600,
          "durationTicks": 479
        },
        {
          "time": 73,
          "midi": 60,
          "name": "C4",
          "velocity": 0.8818897637795275,
          "duration": 0.4989583333333343,
          "ticks": 70080,
          "durationTicks": 479
        },
        {
          "time": 73.5,
          "midi": 62,
          "name": "D4",
          "velocity": 0.8818897637795275,
          "duration": 0.4989583333333343,
          "ticks": 70560,
          "durationTicks": 479
        },
        {
          "time": 74,
          "midi": 62,
          "name": "D4",
          "velocity": 0.8818897637795275,
          "duration": 0.4989583333333343,
          "ticks": 71040,
          "durationTicks": 479
        },
        {
          "time": 74.5,
          "midi": 60,
          "name": "C4",
          "velocity": 0.8818897637795275,
          "duration": 0.4989583333333343,
          "ticks": 71520,
          "durationTicks": 479
        },
        {
          "time": 75,
          "midi": 59,
          "name": "B3",
          "velocity": 0.8818897637795275,
          "duration": 0.4989583333333343,
          "ticks": 72000,
          "durationTicks": 479
        },
        {
          "time": 75.5,
          "midi": 60,
          "name": "C4",
          "velocity": 0.8818897637795275,
          "duration": 0.24895833333333428,
          "ticks": 72480,
          "durationTicks": 239
        },
        {
          "time": 75.75,
          "midi": 57,
          "name": "A3",
          "velocity": 0.8818897637795275,
          "duration": 0.24895833333333428,
          "ticks": 72720,
          "durationTicks": 239
        },
        {
          "time": 76,
          "midi": 55,
          "name": "G3",
          "velocity": 0.8818897637795275,
          "duration": 0.4989583333333343,
          "ticks": 72960,
          "durationTicks": 479
        },
        {
          "time": 76.5,
          "midi": 55,
          "name": "G3",
          "velocity": 0.8818897637795275,
          "duration": 0.4989583333333343,
          "ticks": 73440,
          "durationTicks": 479
        },
        {
          "time": 77,
          "midi": 57,
          "name": "A3",
          "velocity": 0.8818897637795275,
          "duration": 0.4989583333333343,
          "ticks": 73920,
          "durationTicks": 479
        },
        {
          "time": 77.5,
          "midi": 59,
          "name": "B3",
          "velocity": 0.8818897637795275,
          "duration": 0.4989583333333343,
          "ticks": 74400,
          "durationTicks": 479
        },
        {
          "time": 78,
          "midi": 57,
          "name": "A3",
          "velocity": 0.8818897637795275,
          "duration": 0.7489583333333343,
          "ticks": 74880,
          "durationTicks": 719
        },
        {
          "time": 78.75,
          "midi": 55,
          "name": "G3",
          "velocity": 0.8818897637795275,
          "duration": 0.24895833333333428,
          "ticks": 75600,
          "durationTicks": 239
        },
        {
          "time": 79,
          "midi": 55,
          "name": "G3",
          "velocity": 0.8818897637795275,
          "duration": 0.9989583333333343,
          "ticks": 75840,
          "durationTicks": 959
        },
        {
          "time": 80,
          "midi": 38,
          "name": "D2",
          "velocity": 0.8818897637795275,
          "duration": 0.9989583333333343,
          "ticks": 76800,
          "durationTicks": 959
        },
        {
          "time": 81,
          "midi": 38,
          "name": "D2",
          "velocity": 0.8818897637795275,
          "duration": 0.9989583333333343,
          "ticks": 77760,
          "durationTicks": 959
        },
        {
          "time": 82,
          "midi": 38,
          "name": "D2",
          "velocity": 0.8818897637795275,
          "duration": 0.9989583333333343,
          "ticks": 78720,
          "durationTicks": 959
        },
        {
          "time": 83,
          "midi": 38,
          "name": "D2",
          "velocity": 0.8818897637795275,
          "duration": 0.9989583333333343,
          "ticks": 79680,
          "durationTicks": 959
        },
        {
          "time": 84,
          "midi": 38,
          "name": "D2",
          "velocity": 0.8818897637795275,
          "duration": 0.9989583333333343,
          "ticks": 80640,
          "durationTicks": 959
        },
        {
          "time": 85,
          "midi": 39,
          "name": "D#2",
          "velocity": 0.8818897637795275,
          "duration": 0.9989583333333343,
          "ticks": 81600,
          "durationTicks": 959
        },
        {
          "time": 86,
          "midi": 40,
          "name": "E2",
          "velocity": 0.8818897637795275,
          "duration": 0.4989583333333343,
          "ticks": 82560,
          "durationTicks": 479
        },
        {
          "time": 86.5,
          "midi": 45,
          "name": "A2",
          "velocity": 0.8818897637795275,
          "duration": 0.4989583333333343,
          "ticks": 83040,
          "durationTicks": 479
        },
        {
          "time": 87,
          "midi": 38,
          "name": "D2",
          "velocity": 0.8818897637795275,
          "duration": 0.9989583333333343,
          "ticks": 83520,
          "durationTicks": 959
        },
        {
          "time": 88,
          "midi": 43,
          "name": "G2",
          "velocity": 0.8818897637795275,
          "duration": 1.9989583333333343,
          "ticks": 84480,
          "durationTicks": 1919
        },
        {
          "time": 90,
          "midi": 36,
          "name": "C2",
          "velocity": 0.8818897637795275,
          "duration": 1.9989583333333343,
          "ticks": 86400,
          "durationTicks": 1919
        },
        {
          "time": 92,
          "midi": 38,
          "name": "D2",
          "velocity": 0.8818897637795275,
          "duration": 1.9989583333333343,
          "ticks": 88320,
          "durationTicks": 1919
        },
        {
          "time": 94,
          "midi": 38,
          "name": "D2",
          "velocity": 0.8818897637795275,
          "duration": 0.9989583333333343,
          "ticks": 90240,
          "durationTicks": 959
        },
        {
          "time": 95,
          "midi": 43,
          "name": "G2",
          "velocity": 0.8818897637795275,
          "duration": 0.9989583333333343,
          "ticks": 91200,
          "durationTicks": 959
        },
        {
          "time": 98,
          "midi": 50,
          "name": "D3",
          "velocity": 0.8818897637795275,
          "duration": 0.4989583333333343,
          "ticks": 94080,
          "durationTicks": 479
        },
        {
          "time": 98.5,
          "midi": 47,
          "name": "B2",
          "velocity": 0.8818897637795275,
          "duration": 0.4989583333333343,
          "ticks": 94560,
          "durationTicks": 479
        },
        {
          "time": 99,
          "midi": 45,
          "name": "A2",
          "velocity": 0.8818897637795275,
          "duration": 0.4989583333333343,
          "ticks": 95040,
          "durationTicks": 479
        },
        {
          "time": 99.5,
          "midi": 43,
          "name": "G2",
          "velocity": 0.8818897637795275,
          "duration": 0.4989583333333343,
          "ticks": 95520,
          "durationTicks": 479
        },
        {
          "time": 100,
          "midi": 38,
          "name": "D2",
          "velocity": 0.8818897637795275,
          "duration": 1.9989583333333343,
          "ticks": 96000,
          "durationTicks": 1919
        },
        {
          "time": 102,
          "midi": 38,
          "name": "D2",
          "velocity": 0.8818897637795275,
          "duration": 0.9989583333333343,
          "ticks": 97920,
          "durationTicks": 959
        },
        {
          "time": 103,
          "midi": 43,
          "name": "G2",
          "velocity": 0.8818897637795275,
          "duration": 0.9989583333333343,
          "ticks": 98880,
          "durationTicks": 959
        }
      ],
      "controlChanges": {
        "7": [
          {
            "number": 7,
            "value": 0.7874015748031497,
            "time": 0,
            "ticks": 0
          },
          {
            "number": 7,
            "value": 0.7874015748031497,
            "time": 0,
            "ticks": 0
          },
          {
            "number": 7,
            "value": 0.7874015748031497,
            "time": 0,
            "ticks": 0
          }
        ],
        "10": [
          {
            "number": 10,
            "value": 0.5039370078740157,
            "time": 0,
            "ticks": 0
          },
          {
            "number": 10,
            "value": 0.5039370078740157,
            "time": 0,
            "ticks": 0
          },
          {
            "number": 10,
            "value": 0.5039370078740157,
            "time": 0,
            "ticks": 0
          }
        ],
        "91": [
          {
            "number": 91,
            "value": 0,
            "time": 0,
            "ticks": 0
          },
          {
            "number": 91,
            "value": 0,
            "time": 0,
            "ticks": 0
          },
          {
            "number": 91,
            "value": 0,
            "time": 0,
            "ticks": 0
          }
        ],
        "93": [
          {
            "number": 93,
            "value": 0,
            "time": 0,
            "ticks": 0
          },
          {
            "number": 93,
            "value": 0,
            "time": 0,
            "ticks": 0
          },
          {
            "number": 93,
            "value": 0,
            "time": 0,
            "ticks": 0
          }
        ],
        "121": [
          {
            "number": 121,
            "value": 0,
            "time": 0,
            "ticks": 0
          },
          {
            "number": 121,
            "value": 0,
            "time": 0,
            "ticks": 0
          },
          {
            "number": 121,
            "value": 0,
            "time": 0,
            "ticks": 0
          }
        ]
      }
    },
    {
      "name": "Double Bass",
      "channel": 0,
      "instrument": {
        "number": 43,
        "name": "contrabass",
        "family": "strings"
      },
      "notes": [
        {
          "time": 0,
          "midi": 55,
          "name": "G3",
          "velocity": 0.6299212598425197,
          "duration": 1.9989583333333334,
          "ticks": 0,
          "durationTicks": 1919
        },
        {
          "time": 2,
          "midi": 50,
          "name": "D3",
          "velocity": 0.6299212598425197,
          "duration": 1.9989583333333334,
          "ticks": 1920,
          "durationTicks": 1919
        },
        {
          "time": 4,
          "midi": 55,
          "name": "G3",
          "velocity": 0.6299212598425197,
          "duration": 1.9989583333333334,
          "ticks": 3840,
          "durationTicks": 1919
        },
        {
          "time": 6,
          "midi": 50,
          "name": "D3",
          "velocity": 0.6299212598425197,
          "duration": 1.9989583333333334,
          "ticks": 5760,
          "durationTicks": 1919
        },
        {
          "time": 8,
          "midi": 55,
          "name": "G3",
          "velocity": 0.6299212598425197,
          "duration": 1.9989583333333325,
          "ticks": 7680,
          "durationTicks": 1919
        },
        {
          "time": 10,
          "midi": 48,
          "name": "C3",
          "velocity": 0.6299212598425197,
          "duration": 1.9989583333333325,
          "ticks": 9600,
          "durationTicks": 1919
        },
        {
          "time": 12,
          "midi": 50,
          "name": "D3",
          "velocity": 0.6299212598425197,
          "duration": 1.9989583333333325,
          "ticks": 11520,
          "durationTicks": 1919
        },
        {
          "time": 14,
          "midi": 50,
          "name": "D3",
          "velocity": 0.6299212598425197,
          "duration": 0.9989583333333325,
          "ticks": 13440,
          "durationTicks": 959
        },
        {
          "time": 15,
          "midi": 55,
          "name": "G3",
          "velocity": 0.6299212598425197,
          "duration": 0.9989583333333325,
          "ticks": 14400,
          "durationTicks": 959
        },
        {
          "time": 16,
          "midi": 50,
          "name": "D3",
          "velocity": 0.6299212598425197,
          "duration": 0.9989583333333343,
          "ticks": 15360,
          "durationTicks": 959
        },
        {
          "time": 17,
          "midi": 50,
          "name": "D3",
          "velocity": 0.6299212598425197,
          "duration": 0.9989583333333343,
          "ticks": 16320,
          "durationTicks": 959
        },
        {
          "time": 18,
          "midi": 50,
          "name": "D3",
          "velocity": 0.6299212598425197,
          "duration": 0.9989583333333343,
          "ticks": 17280,
          "durationTicks": 959
        },
        {
          "time": 19,
          "midi": 50,
          "name": "D3",
          "velocity": 0.6299212598425197,
          "duration": 0.9989583333333343,
          "ticks": 18240,
          "durationTicks": 959
        },
        {
          "time": 20,
          "midi": 50,
          "name": "D3",
          "velocity": 0.6299212598425197,
          "duration": 0.9989583333333343,
          "ticks": 19200,
          "durationTicks": 959
        },
        {
          "time": 21,
          "midi": 51,
          "name": "D#3",
          "velocity": 0.6299212598425197,
          "duration": 0.9989583333333343,
          "ticks": 20160,
          "durationTicks": 959
        },
        {
          "time": 22,
          "midi": 52,
          "name": "E3",
          "velocity": 0.6299212598425197,
          "duration": 0.4989583333333343,
          "ticks": 21120,
          "durationTicks": 479
        },
        {
          "time": 22.5,
          "midi": 57,
          "name": "A3",
          "velocity": 0.6299212598425197,
          "duration": 0.4989583333333343,
          "ticks": 21600,
          "durationTicks": 479
        },
        {
          "time": 23,
          "midi": 50,
          "name": "D3",
          "velocity": 0.6299212598425197,
          "duration": 0.9989583333333343,
          "ticks": 22080,
          "durationTicks": 959
        },
        {
          "time": 24,
          "midi": 55,
          "name": "G3",
          "velocity": 0.6299212598425197,
          "duration": 1.9989583333333343,
          "ticks": 23040,
          "durationTicks": 1919
        },
        {
          "time": 26,
          "midi": 48,
          "name": "C3",
          "velocity": 0.6299212598425197,
          "duration": 1.9989583333333343,
          "ticks": 24960,
          "durationTicks": 1919
        },
        {
          "time": 28,
          "midi": 50,
          "name": "D3",
          "velocity": 0.6299212598425197,
          "duration": 1.9989583333333343,
          "ticks": 26880,
          "durationTicks": 1919
        },
        {
          "time": 30,
          "midi": 50,
          "name": "D3",
          "velocity": 0.6299212598425197,
          "duration": 0.9989583333333343,
          "ticks": 28800,
          "durationTicks": 959
        },
        {
          "time": 31,
          "midi": 55,
          "name": "G3",
          "velocity": 0.6299212598425197,
          "duration": 0.9989583333333343,
          "ticks": 29760,
          "durationTicks": 959
        },
        {
          "time": 32,
          "midi": 55,
          "name": "G3",
          "velocity": 0.6299212598425197,
          "duration": 1.9989583333333343,
          "ticks": 30720,
          "durationTicks": 1919
        },
        {
          "time": 34,
          "midi": 50,
          "name": "D3",
          "velocity": 0.6299212598425197,
          "duration": 1.9989583333333343,
          "ticks": 32640,
          "durationTicks": 1919
        },
        {
          "time": 36,
          "midi": 55,
          "name": "G3",
          "velocity": 0.6299212598425197,
          "duration": 1.9989583333333343,
          "ticks": 34560,
          "durationTicks": 1919
        },
        {
          "time": 38,
          "midi": 50,
          "name": "D3",
          "velocity": 0.6299212598425197,
          "duration": 1.9989583333333343,
          "ticks": 36480,
          "durationTicks": 1919
        },
        {
          "time": 40,
          "midi": 55,
          "name": "G3",
          "velocity": 0.6299212598425197,
          "duration": 1.9989583333333343,
          "ticks": 38400,
          "durationTicks": 1919
        },
        {
          "time": 42,
          "midi": 48,
          "name": "C3",
          "velocity": 0.6299212598425197,
          "duration": 1.9989583333333343,
          "ticks": 40320,
          "durationTicks": 1919
        },
        {
          "time": 44,
          "midi": 50,
          "name": "D3",
          "velocity": 0.6299212598425197,
          "duration": 1.9989583333333343,
          "ticks": 42240,
          "durationTicks": 1919
        },
        {
          "time": 46,
          "midi": 50,
          "name": "D3",
          "velocity": 0.6299212598425197,
          "duration": 0.9989583333333343,
          "ticks": 44160,
          "durationTicks": 959
        },
        {
          "time": 47,
          "midi": 55,
          "name": "G3",
          "velocity": 0.6299212598425197,
          "duration": 0.9989583333333343,
          "ticks": 45120,
          "durationTicks": 959
        },
        {
          "time": 48,
          "midi": 50,
          "name": "D3",
          "velocity": 0.6299212598425197,
          "duration": 0.9989583333333343,
          "ticks": 46080,
          "durationTicks": 959
        },
        {
          "time": 49,
          "midi": 50,
          "name": "D3",
          "velocity": 0.6299212598425197,
          "duration": 0.9989583333333343,
          "ticks": 47040,
          "durationTicks": 959
        },
        {
          "time": 50,
          "midi": 50,
          "name": "D3",
          "velocity": 0.6299212598425197,
          "duration": 0.9989583333333343,
          "ticks": 48000,
          "durationTicks": 959
        },
        {
          "time": 51,
          "midi": 50,
          "name": "D3",
          "velocity": 0.6299212598425197,
          "duration": 0.9989583333333343,
          "ticks": 48960,
          "durationTicks": 959
        },
        {
          "time": 52,
          "midi": 50,
          "name": "D3",
          "velocity": 0.6299212598425197,
          "duration": 0.9989583333333343,
          "ticks": 49920,
          "durationTicks": 959
        },
        {
          "time": 53,
          "midi": 51,
          "name": "D#3",
          "velocity": 0.6299212598425197,
          "duration": 0.9989583333333343,
          "ticks": 50880,
          "durationTicks": 959
        },
        {
          "time": 54,
          "midi": 52,
          "name": "E3",
          "velocity": 0.6299212598425197,
          "duration": 0.4989583333333343,
          "ticks": 51840,
          "durationTicks": 479
        },
        {
          "time": 54.5,
          "midi": 57,
          "name": "A3",
          "velocity": 0.6299212598425197,
          "duration": 0.4989583333333343,
          "ticks": 52320,
          "durationTicks": 479
        },
        {
          "time": 55,
          "midi": 50,
          "name": "D3",
          "velocity": 0.6299212598425197,
          "duration": 0.9989583333333343,
          "ticks": 52800,
          "durationTicks": 959
        },
        {
          "time": 56,
          "midi": 55,
          "name": "G3",
          "velocity": 0.6299212598425197,
          "duration": 1.9989583333333343,
          "ticks": 53760,
          "durationTicks": 1919
        },
        {
          "time": 58,
          "midi": 48,
          "name": "C3",
          "velocity": 0.6299212598425197,
          "duration": 1.9989583333333343,
          "ticks": 55680,
          "durationTicks": 1919
        },
        {
          "time": 60,
          "midi": 50,
          "name": "D3",
          "velocity": 0.6299212598425197,
          "duration": 1.9989583333333343,
          "ticks": 57600,
          "durationTicks": 1919
        },
        {
          "time": 62,
          "midi": 50,
          "name": "D3",
          "velocity": 0.6299212598425197,
          "duration": 0.9989583333333343,
          "ticks": 59520,
          "durationTicks": 959
        },
        {
          "time": 63,
          "midi": 55,
          "name": "G3",
          "velocity": 0.6299212598425197,
          "duration": 0.9989583333333343,
          "ticks": 60480,
          "durationTicks": 959
        },
        {
          "time": 80,
          "midi": 50,
          "name": "D3",
          "velocity": 0.6299212598425197,
          "duration": 0.9989583333333343,
          "ticks": 76800,
          "durationTicks": 959
        },
        {
          "time": 81,
          "midi": 50,
          "name": "D3",
          "velocity": 0.6299212598425197,
          "duration": 0.9989583333333343,
          "ticks": 77760,
          "durationTicks": 959
        },
        {
          "time": 82,
          "midi": 50,
          "name": "D3",
          "velocity": 0.6299212598425197,
          "duration": 0.9989583333333343,
          "ticks": 78720,
          "durationTicks": 959
        },
        {
          "time": 83,
          "midi": 50,
          "name": "D3",
          "velocity": 0.6299212598425197,
          "duration": 0.9989583333333343,
          "ticks": 79680,
          "durationTicks": 959
        },
        {
          "time": 84,
          "midi": 50,
          "name": "D3",
          "velocity": 0.6299212598425197,
          "duration": 0.9989583333333343,
          "ticks": 80640,
          "durationTicks": 959
        },
        {
          "time": 85,
          "midi": 51,
          "name": "D#3",
          "velocity": 0.6299212598425197,
          "duration": 0.9989583333333343,
          "ticks": 81600,
          "durationTicks": 959
        },
        {
          "time": 86,
          "midi": 52,
          "name": "E3",
          "velocity": 0.6299212598425197,
          "duration": 0.4989583333333343,
          "ticks": 82560,
          "durationTicks": 479
        },
        {
          "time": 86.5,
          "midi": 57,
          "name": "A3",
          "velocity": 0.6299212598425197,
          "duration": 0.4989583333333343,
          "ticks": 83040,
          "durationTicks": 479
        },
        {
          "time": 87,
          "midi": 50,
          "name": "D3",
          "velocity": 0.6299212598425197,
          "duration": 0.9989583333333343,
          "ticks": 83520,
          "durationTicks": 959
        },
        {
          "time": 88,
          "midi": 55,
          "name": "G3",
          "velocity": 0.6299212598425197,
          "duration": 1.9989583333333343,
          "ticks": 84480,
          "durationTicks": 1919
        },
        {
          "time": 90,
          "midi": 48,
          "name": "C3",
          "velocity": 0.6299212598425197,
          "duration": 1.9989583333333343,
          "ticks": 86400,
          "durationTicks": 1919
        },
        {
          "time": 92,
          "midi": 50,
          "name": "D3",
          "velocity": 0.6299212598425197,
          "duration": 1.9989583333333343,
          "ticks": 88320,
          "durationTicks": 1919
        },
        {
          "time": 94,
          "midi": 50,
          "name": "D3",
          "velocity": 0.6299212598425197,
          "duration": 0.9989583333333343,
          "ticks": 90240,
          "durationTicks": 959
        },
        {
          "time": 95,
          "midi": 55,
          "name": "G3",
          "velocity": 0.6299212598425197,
          "duration": 0.9989583333333343,
          "ticks": 91200,
          "durationTicks": 959
        },
        {
          "time": 98,
          "midi": 62,
          "name": "D4",
          "velocity": 0.6299212598425197,
          "duration": 0.4989583333333343,
          "ticks": 94080,
          "durationTicks": 479
        },
        {
          "time": 98.5,
          "midi": 59,
          "name": "B3",
          "velocity": 0.6299212598425197,
          "duration": 0.4989583333333343,
          "ticks": 94560,
          "durationTicks": 479
        },
        {
          "time": 99,
          "midi": 57,
          "name": "A3",
          "velocity": 0.6299212598425197,
          "duration": 0.4989583333333343,
          "ticks": 95040,
          "durationTicks": 479
        },
        {
          "time": 99.5,
          "midi": 55,
          "name": "G3",
          "velocity": 0.6299212598425197,
          "duration": 0.4989583333333343,
          "ticks": 95520,
          "durationTicks": 479
        },
        {
          "time": 100,
          "midi": 50,
          "name": "D3",
          "velocity": 0.6299212598425197,
          "duration": 1.9989583333333343,
          "ticks": 96000,
          "durationTicks": 1919
        },
        {
          "time": 102,
          "midi": 50,
          "name": "D3",
          "velocity": 0.6299212598425197,
          "duration": 0.9989583333333343,
          "ticks": 97920,
          "durationTicks": 959
        },
        {
          "time": 103,
          "midi": 55,
          "name": "G3",
          "velocity": 0.6299212598425197,
          "duration": 0.9989583333333343,
          "ticks": 98880,
          "durationTicks": 959
        }
      ],
      "controlChanges": {
        "7": [
          {
            "number": 7,
            "value": 0.7874015748031497,
            "time": 0,
            "ticks": 0
          },
          {
            "number": 7,
            "value": 0.7874015748031497,
            "time": 0,
            "ticks": 0
          },
          {
            "number": 7,
            "value": 0.7874015748031497,
            "time": 0,
            "ticks": 0
          }
        ],
        "10": [
          {
            "number": 10,
            "value": 0.5039370078740157,
            "time": 0,
            "ticks": 0
          },
          {
            "number": 10,
            "value": 0.5039370078740157,
            "time": 0,
            "ticks": 0
          },
          {
            "number": 10,
            "value": 0.5039370078740157,
            "time": 0,
            "ticks": 0
          }
        ],
        "91": [
          {
            "number": 91,
            "value": 0,
            "time": 0,
            "ticks": 0
          },
          {
            "number": 91,
            "value": 0,
            "time": 0,
            "ticks": 0
          },
          {
            "number": 91,
            "value": 0,
            "time": 0,
            "ticks": 0
          }
        ],
        "93": [
          {
            "number": 93,
            "value": 0,
            "time": 0,
            "ticks": 0
          },
          {
            "number": 93,
            "value": 0,
            "time": 0,
            "ticks": 0
          },
          {
            "number": 93,
            "value": 0,
            "time": 0,
            "ticks": 0
          }
        ],
        "121": [
          {
            "number": 121,
            "value": 0,
            "time": 0,
            "ticks": 0
          },
          {
            "number": 121,
            "value": 0,
            "time": 0,
            "ticks": 0
          },
          {
            "number": 121,
            "value": 0,
            "time": 0,
            "ticks": 0
          }
        ]
      }
    }
  ]
}
