{
  "header": {
    "name": "",
    "ppq": 120,
    "meta": [
      {
        "type": "keySignature",
        "ticks": 0
      },
      {
        "type": "keySignature",
        "ticks": 56160
      },
      {
        "type": "marker",
        "text": "Presto compas 208 original",
        "ticks": 56160
      },
      {
        "type": "marker",
        "text": "Recitativo, compas 216",
        "ticks": 59040
      },
      {
        "type": "keySignature",
        "ticks": 64080
      },
      {
        "type": "marker",
        "text": "Compas 250",
        "ticks": 72840
      },
      {
        "type": "marker",
        "text": "Compas 269 original",
        "ticks": 81960
      },
      {
        "type": "marker",
        "text": "Compas 295",
        "ticks": 94440
      },
      {
        "type": "marker",
        "text": "Compas 311",
        "ticks": 102120
      },
      {
        "type": "keySignature",
        "ticks": 111720
      },
      {
        "type": "marker",
        "text": "Allegro Assai Vivace Compas 331",
        "ticks": 111720
      }
    ],
    "tempos": [
      {
        "ticks": 0,
        "bpm": 160
      },
      {
        "ticks": 53760,
        "bpm": 80
      },
      {
        "ticks": 54720,
        "bpm": 80
      },
      {
        "ticks": 55200,
        "bpm": 160
      },
      {
        "ticks": 59040,
        "bpm": 140.00014000014
      },
      {
        "ticks": 65520,
        "bpm": 80
      },
      {
        "ticks": 66600,
        "bpm": 160
      },
      {
        "ticks": 111200,
        "bpm": 160
      },
      {
        "ticks": 111260,
        "bpm": 159.0002067002687
      },
      {
        "ticks": 111320,
        "bpm": 157.999931533363
      },
      {
        "ticks": 111380,
        "bpm": 156.9998377668343
      },
      {
        "ticks": 111430,
        "bpm": 156.000156000156
      },
      {
        "ticks": 111490,
        "bpm": 154.99990958338608
      },
      {
        "ticks": 111550,
        "bpm": 154.000154000154
      },
      {
        "ticks": 111600,
        "bpm": 152.99994645001874
      },
      {
        "ticks": 111660,
        "bpm": 151.99993920002433
      },
      {
        "ticks": 111720,
        "bpm": 150.99999748333337
      },
      {
        "ticks": 111770,
        "bpm": 150
      },
      {
        "ticks": 111790,
        "bpm": 150
      }
    ],
    "timeSignatures": [
      {
        "ticks": 0,
        "timeSignature": [
          4,
          4
        ],
        "measures": 0
      },
      {
        "ticks": 56160,
        "timeSignature": [
          3,
          4
        ],
        "measures": 117
      },
      {
        "ticks": 66600,
        "timeSignature": [
          4,
          4
        ],
        "measures": 146
      },
      {
        "ticks": 111720,
        "timeSignature": [
          6,
          8
        ],
        "measures": 240
      }
    ]
  },
  "tracks": [
    {
      "name": "Piccolo",
      "channel": 0,
      "instrument": {
        "number": 72,
        "name": "piccolo",
        "family": "pipe"
      },
      "notes": [],
      "controlChanges": {
        "7": [
          {
            "number": 7,
            "value": 0.7874015748031497,
            "time": 0,
            "ticks": 0
          }
        ],
        "10": [
          {
            "number": 10,
            "value": 0.4409448818897638,
            "time": 0,
            "ticks": 0
          }
        ]
      }
    },
    {
      "name": "Flutes",
      "channel": 0,
      "instrument": {
        "number": 73,
        "name": "flute",
        "family": "pipe"
      },
      "notes": [
        {
          "time": 109.5,
          "midi": 86,
          "name": "D6",
          "velocity": 0.6141732283464567,
          "duration": 0.7468750000000028,
          "ticks": 35040,
          "durationTicks": 239
        },
        {
          "time": 109.5,
          "midi": 90,
          "name": "F#6",
          "velocity": 0.937007874015748,
          "duration": 0.7468750000000028,
          "ticks": 35040,
          "durationTicks": 239
        },
        {
          "time": 110.25,
          "midi": 88,
          "name": "E6",
          "velocity": 0.8582677165354331,
          "duration": 0.37187500000000284,
          "ticks": 35280,
          "durationTicks": 119
        },
        {
          "time": 110.25,
          "midi": 91,
          "name": "G6",
          "velocity": 0.8582677165354331,
          "duration": 0.37187500000000284,
          "ticks": 35280,
          "durationTicks": 119
        },
        {
          "time": 110.625,
          "midi": 93,
          "name": "A6",
          "velocity": 0.8661417322834646,
          "duration": 0.37187500000000284,
          "ticks": 35400,
          "durationTicks": 119
        },
        {
          "time": 110.625,
          "midi": 90,
          "name": "F#6",
          "velocity": 0.8661417322834646,
          "duration": 0.37187500000000284,
          "ticks": 35400,
          "durationTicks": 119
        },
        {
          "time": 111,
          "midi": 90,
          "name": "F#6",
          "velocity": 0.8661417322834646,
          "duration": 0.37187500000000284,
          "ticks": 35520,
          "durationTicks": 119
        },
        {
          "time": 111,
          "midi": 93,
          "name": "A6",
          "velocity": 0.8661417322834646,
          "duration": 0.37187500000000284,
          "ticks": 35520,
          "durationTicks": 119
        },
        {
          "time": 111.375,
          "midi": 88,
          "name": "E6",
          "velocity": 0.8740157480314961,
          "duration": 0.37187500000000284,
          "ticks": 35640,
          "durationTicks": 119
        },
        {
          "time": 111.375,
          "midi": 91,
          "name": "G6",
          "velocity": 0.8740157480314961,
          "duration": 0.37187500000000284,
          "ticks": 35640,
          "durationTicks": 119
        },
        {
          "time": 111.75,
          "midi": 86,
          "name": "D6",
          "velocity": 0.8740157480314961,
          "duration": 0.18437500000000284,
          "ticks": 35760,
          "durationTicks": 59
        },
        {
          "time": 111.75,
          "midi": 90,
          "name": "F#6",
          "velocity": 0.8740157480314961,
          "duration": 0.18437500000000284,
          "ticks": 35760,
          "durationTicks": 59
        },
        {
          "time": 112.125,
          "midi": 81,
          "name": "A5",
          "velocity": 0.8740157480314961,
          "duration": 0.18437500000000284,
          "ticks": 35880,
          "durationTicks": 59
        },
        {
          "time": 112.125,
          "midi": 88,
          "name": "E6",
          "velocity": 0.8740157480314961,
          "duration": 0.18437500000000284,
          "ticks": 35880,
          "durationTicks": 59
        },
        {
          "time": 112.5,
          "midi": 86,
          "name": "D6",
          "velocity": 0.8740157480314961,
          "duration": 0.37187500000000284,
          "ticks": 36000,
          "durationTicks": 119
        },
        {
          "time": 112.5,
          "midi": 78,
          "name": "F#5",
          "velocity": 0.8740157480314961,
          "duration": 0.37187500000000284,
          "ticks": 36000,
          "durationTicks": 119
        },
        {
          "time": 112.875,
          "midi": 78,
          "name": "F#5",
          "velocity": 0.8740157480314961,
          "duration": 0.37187500000000284,
          "ticks": 36120,
          "durationTicks": 119
        },
        {
          "time": 112.875,
          "midi": 86,
          "name": "D6",
          "velocity": 0.8740157480314961,
          "duration": 0.37187500000000284,
          "ticks": 36120,
          "durationTicks": 119
        },
        {
          "time": 113.25,
          "midi": 81,
          "name": "A5",
          "velocity": 0.8740157480314961,
          "duration": 0.37187500000000284,
          "ticks": 36240,
          "durationTicks": 119
        },
        {
          "time": 113.25,
          "midi": 88,
          "name": "E6",
          "velocity": 0.8740157480314961,
          "duration": 0.37187500000000284,
          "ticks": 36240,
          "durationTicks": 119
        },
        {
          "time": 113.625,
          "midi": 90,
          "name": "F#6",
          "velocity": 0.8818897637795275,
          "duration": 0.37187500000000284,
          "ticks": 36360,
          "durationTicks": 119
        },
        {
          "time": 113.625,
          "midi": 86,
          "name": "D6",
          "velocity": 0.8818897637795275,
          "duration": 0.37187500000000284,
          "ticks": 36360,
          "durationTicks": 119
        },
        {
          "time": 114,
          "midi": 86,
          "name": "D6",
          "velocity": 0.8818897637795275,
          "duration": 0.5593750000000028,
          "ticks": 36480,
          "durationTicks": 179
        },
        {
          "time": 114,
          "midi": 90,
          "name": "F#6",
          "velocity": 0.8818897637795275,
          "duration": 0.5593750000000028,
          "ticks": 36480,
          "durationTicks": 179
        },
        {
          "time": 114.5625,
          "midi": 85,
          "name": "C#6",
          "velocity": 0.8818897637795275,
          "duration": 0.18437500000000284,
          "ticks": 36660,
          "durationTicks": 59
        },
        {
          "time": 114.5625,
          "midi": 88,
          "name": "E6",
          "velocity": 0.8818897637795275,
          "duration": 0.18437500000000284,
          "ticks": 36660,
          "durationTicks": 59
        },
        {
          "time": 114.75,
          "midi": 85,
          "name": "C#6",
          "velocity": 0.8582677165354331,
          "duration": 0.7468750000000028,
          "ticks": 36720,
          "durationTicks": 239
        },
        {
          "time": 114.75,
          "midi": 88,
          "name": "E6",
          "velocity": 0.8582677165354331,
          "duration": 0.7468750000000028,
          "ticks": 36720,
          "durationTicks": 239
        },
        {
          "time": 115.5,
          "midi": 86,
          "name": "D6",
          "velocity": 0.8740157480314961,
          "duration": 0.7468750000000028,
          "ticks": 36960,
          "durationTicks": 239
        },
        {
          "time": 115.5,
          "midi": 90,
          "name": "F#6",
          "velocity": 0.8740157480314961,
          "duration": 0.7468750000000028,
          "ticks": 36960,
          "durationTicks": 239
        },
        {
          "time": 116.25,
          "midi": 91,
          "name": "G6",
          "velocity": 0.8818897637795275,
          "duration": 0.37187500000000284,
          "ticks": 37200,
          "durationTicks": 119
        },
        {
          "time": 116.25,
          "midi": 88,
          "name": "E6",
          "velocity": 0.8818897637795275,
          "duration": 0.37187500000000284,
          "ticks": 37200,
          "durationTicks": 119
        },
        {
          "time": 116.625,
          "midi": 90,
          "name": "F#6",
          "velocity": 0.889763779527559,
          "duration": 0.37187500000000284,
          "ticks": 37320,
          "durationTicks": 119
        },
        {
          "time": 116.625,
          "midi": 93,
          "name": "A6",
          "velocity": 0.889763779527559,
          "duration": 0.37187500000000284,
          "ticks": 37320,
          "durationTicks": 119
        },
        {
          "time": 117,
          "midi": 90,
          "name": "F#6",
          "velocity": 0.889763779527559,
          "duration": 0.37187500000000284,
          "ticks": 37440,
          "durationTicks": 119
        },
        {
          "time": 117,
          "midi": 93,
          "name": "A6",
          "velocity": 0.889763779527559,
          "duration": 0.37187500000000284,
          "ticks": 37440,
          "durationTicks": 119
        },
        {
          "time": 117.375,
          "midi": 88,
          "name": "E6",
          "velocity": 0.889763779527559,
          "duration": 0.37187500000000284,
          "ticks": 37560,
          "durationTicks": 119
        },
        {
          "time": 117.375,
          "midi": 91,
          "name": "G6",
          "velocity": 0.889763779527559,
          "duration": 0.37187500000000284,
          "ticks": 37560,
          "durationTicks": 119
        },
        {
          "time": 117.75,
          "midi": 86,
          "name": "D6",
          "velocity": 0.8976377952755905,
          "duration": 0.18437500000000284,
          "ticks": 37680,
          "durationTicks": 59
        },
        {
          "time": 117.75,
          "midi": 90,
          "name": "F#6",
          "velocity": 0.8976377952755905,
          "duration": 0.18437500000000284,
          "ticks": 37680,
          "durationTicks": 59
        },
        {
          "time": 118.125,
          "midi": 81,
          "name": "A5",
          "velocity": 0.8976377952755905,
          "duration": 0.18437500000000284,
          "ticks": 37800,
          "durationTicks": 59
        },
        {
          "time": 118.125,
          "midi": 88,
          "name": "E6",
          "velocity": 0.8976377952755905,
          "duration": 0.18437500000000284,
          "ticks": 37800,
          "durationTicks": 59
        },
        {
          "time": 118.5,
          "midi": 78,
          "name": "F#5",
          "velocity": 0.8976377952755905,
          "duration": 0.18437500000000284,
          "ticks": 37920,
          "durationTicks": 59
        },
        {
          "time": 118.5,
          "midi": 86,
          "name": "D6",
          "velocity": 0.8976377952755905,
          "duration": 0.18437500000000284,
          "ticks": 37920,
          "durationTicks": 59
        },
        {
          "time": 118.875,
          "midi": 78,
          "name": "F#5",
          "velocity": 0.8976377952755905,
          "duration": 0.18437500000000284,
          "ticks": 38040,
          "durationTicks": 59
        },
        {
          "time": 118.875,
          "midi": 86,
          "name": "D6",
          "velocity": 0.8976377952755905,
          "duration": 0.18437500000000284,
          "ticks": 38040,
          "durationTicks": 59
        },
        {
          "time": 119.25,
          "midi": 81,
          "name": "A5",
          "velocity": 0.8818897637795275,
          "duration": 0.18437500000000284,
          "ticks": 38160,
          "durationTicks": 59
        },
        {
          "time": 119.25,
          "midi": 88,
          "name": "E6",
          "velocity": 0.8818897637795275,
          "duration": 0.18437500000000284,
          "ticks": 38160,
          "durationTicks": 59
        },
        {
          "time": 119.625,
          "midi": 86,
          "name": "D6",
          "velocity": 0.8818897637795275,
          "duration": 0.18437500000000284,
          "ticks": 38280,
          "durationTicks": 59
        },
        {
          "time": 119.625,
          "midi": 90,
          "name": "F#6",
          "velocity": 0.8818897637795275,
          "duration": 0.18437500000000284,
          "ticks": 38280,
          "durationTicks": 59
        },
        {
          "time": 120,
          "midi": 88,
          "name": "E6",
          "velocity": 0.8818897637795275,
          "duration": 0.5593750000000028,
          "ticks": 38400,
          "durationTicks": 179
        },
        {
          "time": 120,
          "midi": 81,
          "name": "A5",
          "velocity": 0.8818897637795275,
          "duration": 0.5593750000000028,
          "ticks": 38400,
          "durationTicks": 179
        },
        {
          "time": 120.5625,
          "midi": 86,
          "name": "D6",
          "velocity": 0.8740157480314961,
          "duration": 0.18437500000000284,
          "ticks": 38580,
          "durationTicks": 59
        },
        {
          "time": 120.5625,
          "midi": 78,
          "name": "F#5",
          "velocity": 0.8740157480314961,
          "duration": 0.18437500000000284,
          "ticks": 38580,
          "durationTicks": 59
        },
        {
          "time": 120.75,
          "midi": 78,
          "name": "F#5",
          "velocity": 0.8740157480314961,
          "duration": 0.7468750000000028,
          "ticks": 38640,
          "durationTicks": 239
        },
        {
          "time": 120.75,
          "midi": 86,
          "name": "D6",
          "velocity": 0.8740157480314961,
          "duration": 0.7468750000000028,
          "ticks": 38640,
          "durationTicks": 239
        },
        {
          "time": 121.5,
          "midi": 85,
          "name": "C#6",
          "velocity": 0.8740157480314961,
          "duration": 0.7468750000000028,
          "ticks": 38880,
          "durationTicks": 239
        },
        {
          "time": 121.5,
          "midi": 88,
          "name": "E6",
          "velocity": 0.8740157480314961,
          "duration": 0.7468750000000028,
          "ticks": 38880,
          "durationTicks": 239
        },
        {
          "time": 122.25,
          "midi": 90,
          "name": "F#6",
          "velocity": 0.8740157480314961,
          "duration": 0.37187500000000284,
          "ticks": 39120,
          "durationTicks": 119
        },
        {
          "time": 122.25,
          "midi": 86,
          "name": "D6",
          "velocity": 0.8740157480314961,
          "duration": 0.37187500000000284,
          "ticks": 39120,
          "durationTicks": 119
        },
        {
          "time": 122.625,
          "midi": 86,
          "name": "D6",
          "velocity": 0.8661417322834646,
          "duration": 0.37187500000000284,
          "ticks": 39240,
          "durationTicks": 119
        },
        {
          "time": 122.625,
          "midi": 86,
          "name": "D6",
          "velocity": 0.8661417322834646,
          "duration": 0.37187500000000284,
          "ticks": 39240,
          "durationTicks": 119
        },
        {
          "time": 123,
          "midi": 85,
          "name": "C#6",
          "velocity": 0.8661417322834646,
          "duration": 0.37187500000000284,
          "ticks": 39360,
          "durationTicks": 119
        },
        {
          "time": 123,
          "midi": 88,
          "name": "E6",
          "velocity": 0.8661417322834646,
          "duration": 0.37187500000000284,
          "ticks": 39360,
          "durationTicks": 119
        },
        {
          "time": 123.375,
          "midi": 86,
          "name": "D6",
          "velocity": 0.8661417322834646,
          "duration": 0.18437500000000284,
          "ticks": 39480,
          "durationTicks": 59
        },
        {
          "time": 123.375,
          "midi": 90,
          "name": "F#6",
          "velocity": 0.8661417322834646,
          "duration": 0.18437500000000284,
          "ticks": 39480,
          "durationTicks": 59
        },
        {
          "time": 123.5625,
          "midi": 88,
          "name": "E6",
          "velocity": 0.8661417322834646,
          "duration": 0.18437500000000284,
          "ticks": 39540,
          "durationTicks": 59
        },
        {
          "time": 123.5625,
          "midi": 91,
          "name": "G6",
          "velocity": 0.8661417322834646,
          "duration": 0.18437500000000284,
          "ticks": 39540,
          "durationTicks": 59
        },
        {
          "time": 123.75,
          "midi": 86,
          "name": "D6",
          "velocity": 0.8818897637795275,
          "duration": 0.37187500000000284,
          "ticks": 39600,
          "durationTicks": 119
        },
        {
          "time": 123.75,
          "midi": 90,
          "name": "F#6",
          "velocity": 0.8818897637795275,
          "duration": 0.37187500000000284,
          "ticks": 39600,
          "durationTicks": 119
        },
        {
          "time": 124.125,
          "midi": 86,
          "name": "D6",
          "velocity": 0.8818897637795275,
          "duration": 0.37187500000000284,
          "ticks": 39720,
          "durationTicks": 119
        },
        {
          "time": 124.125,
          "midi": 86,
          "name": "D6",
          "velocity": 0.8818897637795275,
          "duration": 0.37187500000000284,
          "ticks": 39720,
          "durationTicks": 119
        },
        {
          "time": 124.5,
          "midi": 85,
          "name": "C#6",
          "velocity": 0.8818897637795275,
          "duration": 0.37187500000000284,
          "ticks": 39840,
          "durationTicks": 119
        },
        {
          "time": 124.5,
          "midi": 88,
          "name": "E6",
          "velocity": 0.8818897637795275,
          "duration": 0.37187500000000284,
          "ticks": 39840,
          "durationTicks": 119
        },
        {
          "time": 124.875,
          "midi": 90,
          "name": "F#6",
          "velocity": 0.8818897637795275,
          "duration": 0.18437500000000284,
          "ticks": 39960,
          "durationTicks": 59
        },
        {
          "time": 124.875,
          "midi": 86,
          "name": "D6",
          "velocity": 0.8818897637795275,
          "duration": 0.18437500000000284,
          "ticks": 39960,
          "durationTicks": 59
        },
        {
          "time": 125.0625,
          "midi": 88,
          "name": "E6",
          "velocity": 0.8818897637795275,
          "duration": 0.18437500000000284,
          "ticks": 40020,
          "durationTicks": 59
        },
        {
          "time": 125.0625,
          "midi": 91,
          "name": "G6",
          "velocity": 0.8818897637795275,
          "duration": 0.18437500000000284,
          "ticks": 40020,
          "durationTicks": 59
        },
        {
          "time": 125.25,
          "midi": 85,
          "name": "C#6",
          "velocity": 0.8818897637795275,
          "duration": 0.37187500000000284,
          "ticks": 40080,
          "durationTicks": 119
        },
        {
          "time": 125.25,
          "midi": 90,
          "name": "F#6",
          "velocity": 0.8818897637795275,
          "duration": 0.37187500000000284,
          "ticks": 40080,
          "durationTicks": 119
        },
        {
          "time": 125.625,
          "midi": 85,
          "name": "C#6",
          "velocity": 0.8818897637795275,
          "duration": 0.37187500000000284,
          "ticks": 40200,
          "durationTicks": 119
        },
        {
          "time": 125.625,
          "midi": 88,
          "name": "E6",
          "velocity": 0.8818897637795275,
          "duration": 0.37187500000000284,
          "ticks": 40200,
          "durationTicks": 119
        },
        {
          "time": 126,
          "midi": 83,
          "name": "B5",
          "velocity": 0.8818897637795275,
          "duration": 0.18437500000000284,
          "ticks": 40320,
          "durationTicks": 59
        },
        {
          "time": 126,
          "midi": 86,
          "name": "D6",
          "velocity": 0.8818897637795275,
          "duration": 0.18437500000000284,
          "ticks": 40320,
          "durationTicks": 59
        },
        {
          "time": 126.375,
          "midi": 88,
          "name": "E6",
          "velocity": 0.8818897637795275,
          "duration": 0.18437500000000284,
          "ticks": 40440,
          "durationTicks": 59
        },
        {
          "time": 126.375,
          "midi": 80,
          "name": "G#5",
          "velocity": 0.8818897637795275,
          "duration": 0.18437500000000284,
          "ticks": 40440,
          "durationTicks": 59
        },
        {
          "time": 126.75,
          "midi": 81,
          "name": "A5",
          "velocity": 0.8818897637795275,
          "duration": 0.18437500000000284,
          "ticks": 40560,
          "durationTicks": 59
        },
        {
          "time": 126.75,
          "midi": 81,
          "name": "A5",
          "velocity": 0.8818897637795275,
          "duration": 0.18437500000000284,
          "ticks": 40560,
          "durationTicks": 59
        },
        {
          "time": 127.125,
          "midi": 86,
          "name": "D6",
          "velocity": 0.889763779527559,
          "duration": 0.7468750000000028,
          "ticks": 40680,
          "durationTicks": 239
        },
        {
          "time": 127.125,
          "midi": 90,
          "name": "F#6",
          "velocity": 0.889763779527559,
          "duration": 0.7468750000000028,
          "ticks": 40680,
          "durationTicks": 239
        },
        {
          "time": 127.875,
          "midi": 86,
          "name": "D6",
          "velocity": 0.889763779527559,
          "duration": 0.18437499999998863,
          "ticks": 40920,
          "durationTicks": 59
        },
        {
          "time": 127.875,
          "midi": 90,
          "name": "F#6",
          "velocity": 0.889763779527559,
          "duration": 0.18437499999998863,
          "ticks": 40920,
          "durationTicks": 59
        },
        {
          "time": 128.25,
          "midi": 88,
          "name": "E6",
          "velocity": 0.8976377952755905,
          "duration": 0.18437499999998863,
          "ticks": 41040,
          "durationTicks": 59
        },
        {
          "time": 128.25,
          "midi": 91,
          "name": "G6",
          "velocity": 0.8976377952755905,
          "duration": 0.18437499999998863,
          "ticks": 41040,
          "durationTicks": 59
        },
        {
          "time": 128.625,
          "midi": 90,
          "name": "F#6",
          "velocity": 0.8976377952755905,
          "duration": 0.18437499999998863,
          "ticks": 41160,
          "durationTicks": 59
        },
        {
          "time": 128.625,
          "midi": 93,
          "name": "A6",
          "velocity": 0.8976377952755905,
          "duration": 0.18437499999998863,
          "ticks": 41160,
          "durationTicks": 59
        },
        {
          "time": 129,
          "midi": 93,
          "name": "A6",
          "velocity": 1,
          "duration": 0.37187499999998863,
          "ticks": 41280,
          "durationTicks": 119
        },
        {
          "time": 129,
          "midi": 90,
          "name": "F#6",
          "velocity": 1,
          "duration": 0.37187499999998863,
          "ticks": 41280,
          "durationTicks": 119
        },
        {
          "time": 129.375,
          "midi": 88,
          "name": "E6",
          "velocity": 0.9763779527559056,
          "duration": 0.37187499999998863,
          "ticks": 41400,
          "durationTicks": 119
        },
        {
          "time": 129.375,
          "midi": 91,
          "name": "G6",
          "velocity": 1,
          "duration": 0.37187499999998863,
          "ticks": 41400,
          "durationTicks": 119
        },
        {
          "time": 129.75,
          "midi": 86,
          "name": "D6",
          "velocity": 1,
          "duration": 0.18437499999998863,
          "ticks": 41520,
          "durationTicks": 59
        },
        {
          "time": 129.75,
          "midi": 90,
          "name": "F#6",
          "velocity": 1,
          "duration": 0.18437499999998863,
          "ticks": 41520,
          "durationTicks": 59
        },
        {
          "time": 130.125,
          "midi": 81,
          "name": "A5",
          "velocity": 1,
          "duration": 0.18437499999998863,
          "ticks": 41640,
          "durationTicks": 59
        },
        {
          "time": 130.125,
          "midi": 88,
          "name": "E6",
          "velocity": 1,
          "duration": 0.18437499999998863,
          "ticks": 41640,
          "durationTicks": 59
        },
        {
          "time": 130.5,
          "midi": 78,
          "name": "F#5",
          "velocity": 0.6535433070866141,
          "duration": 0.18437499999998863,
          "ticks": 41760,
          "durationTicks": 59
        },
        {
          "time": 130.5,
          "midi": 86,
          "name": "D6",
          "velocity": 0.7795275590551181,
          "duration": 0.18437499999998863,
          "ticks": 41760,
          "durationTicks": 59
        },
        {
          "time": 130.875,
          "midi": 78,
          "name": "F#5",
          "velocity": 0.937007874015748,
          "duration": 0.18437499999998863,
          "ticks": 41880,
          "durationTicks": 59
        },
        {
          "time": 130.875,
          "midi": 86,
          "name": "D6",
          "velocity": 1,
          "duration": 0.18437499999998863,
          "ticks": 41880,
          "durationTicks": 59
        },
        {
          "time": 131.25,
          "midi": 81,
          "name": "A5",
          "velocity": 0.937007874015748,
          "duration": 0.18437499999998863,
          "ticks": 42000,
          "durationTicks": 59
        },
        {
          "time": 131.25,
          "midi": 88,
          "name": "E6",
          "velocity": 1,
          "duration": 0.18437499999998863,
          "ticks": 42000,
          "durationTicks": 59
        },
        {
          "time": 131.625,
          "midi": 86,
          "name": "D6",
          "velocity": 1,
          "duration": 0.18437499999998863,
          "ticks": 42120,
          "durationTicks": 59
        },
        {
          "time": 131.625,
          "midi": 90,
          "name": "F#6",
          "velocity": 1,
          "duration": 0.18437499999998863,
          "ticks": 42120,
          "durationTicks": 59
        },
        {
          "time": 132,
          "midi": 81,
          "name": "A5",
          "velocity": 1,
          "duration": 0.5593749999999886,
          "ticks": 42240,
          "durationTicks": 179
        },
        {
          "time": 132,
          "midi": 88,
          "name": "E6",
          "velocity": 1,
          "duration": 0.5593749999999886,
          "ticks": 42240,
          "durationTicks": 179
        },
        {
          "time": 132.5625,
          "midi": 78,
          "name": "F#5",
          "velocity": 0.9763779527559056,
          "duration": 0.18437499999998863,
          "ticks": 42420,
          "durationTicks": 59
        },
        {
          "time": 132.5625,
          "midi": 86,
          "name": "D6",
          "velocity": 1,
          "duration": 0.18437499999998863,
          "ticks": 42420,
          "durationTicks": 59
        },
        {
          "time": 132.75,
          "midi": 86,
          "name": "D6",
          "velocity": 1,
          "duration": 0.09062499999998863,
          "ticks": 42480,
          "durationTicks": 29
        },
        {
          "time": 132.75,
          "midi": 78,
          "name": "F#5",
          "velocity": 1,
          "duration": 0.09062499999998863,
          "ticks": 42480,
          "durationTicks": 29
        },
        {
          "time": 132.9375,
          "midi": 93,
          "name": "A6",
          "velocity": 1,
          "duration": 0.18437499999998863,
          "ticks": 42540,
          "durationTicks": 59
        },
        {
          "time": 132.9375,
          "midi": 90,
          "name": "F#6",
          "velocity": 1,
          "duration": 0.18437499999998863,
          "ticks": 42540,
          "durationTicks": 59
        },
        {
          "time": 133.125,
          "midi": 88,
          "name": "E6",
          "velocity": 1,
          "duration": 0.18437499999998863,
          "ticks": 42600,
          "durationTicks": 59
        },
        {
          "time": 133.125,
          "midi": 91,
          "name": "G6",
          "velocity": 1,
          "duration": 0.18437499999998863,
          "ticks": 42600,
          "durationTicks": 59
        },
        {
          "time": 133.3125,
          "midi": 86,
          "name": "D6",
          "velocity": 1,
          "duration": 0.18437499999998863,
          "ticks": 42660,
          "durationTicks": 59
        },
        {
          "time": 133.3125,
          "midi": 90,
          "name": "F#6",
          "velocity": 1,
          "duration": 0.18437499999998863,
          "ticks": 42660,
          "durationTicks": 59
        },
        {
          "time": 133.5,
          "midi": 88,
          "name": "E6",
          "velocity": 1,
          "duration": 0.7468749999999886,
          "ticks": 42720,
          "durationTicks": 239
        },
        {
          "time": 133.5,
          "midi": 85,
          "name": "C#6",
          "velocity": 1,
          "duration": 0.7468749999999886,
          "ticks": 42720,
          "durationTicks": 239
        },
        {
          "time": 134.25,
          "midi": 86,
          "name": "D6",
          "velocity": 1,
          "duration": 0.37187499999998863,
          "ticks": 42960,
          "durationTicks": 119
        },
        {
          "time": 134.25,
          "midi": 90,
          "name": "F#6",
          "velocity": 1,
          "duration": 0.37187499999998863,
          "ticks": 42960,
          "durationTicks": 119
        },
        {
          "time": 134.625,
          "midi": 78,
          "name": "F#5",
          "velocity": 1,
          "duration": 0.37187499999998863,
          "ticks": 43080,
          "durationTicks": 119
        },
        {
          "time": 134.625,
          "midi": 86,
          "name": "D6",
          "velocity": 1,
          "duration": 0.37187499999998863,
          "ticks": 43080,
          "durationTicks": 119
        },
        {
          "time": 135,
          "midi": 88,
          "name": "E6",
          "velocity": 1,
          "duration": 0.37187499999998863,
          "ticks": 43200,
          "durationTicks": 119
        },
        {
          "time": 135,
          "midi": 85,
          "name": "C#6",
          "velocity": 1,
          "duration": 0.37187499999998863,
          "ticks": 43200,
          "durationTicks": 119
        },
        {
          "time": 135.375,
          "midi": 86,
          "name": "D6",
          "velocity": 0.937007874015748,
          "duration": 0.18437499999998863,
          "ticks": 43320,
          "durationTicks": 59
        },
        {
          "time": 135.375,
          "midi": 90,
          "name": "F#6",
          "velocity": 1,
          "duration": 0.18437499999998863,
          "ticks": 43320,
          "durationTicks": 59
        },
        {
          "time": 135.5625,
          "midi": 88,
          "name": "E6",
          "velocity": 1,
          "duration": 0.18437499999998863,
          "ticks": 43380,
          "durationTicks": 59
        },
        {
          "time": 135.5625,
          "midi": 91,
          "name": "G6",
          "velocity": 1,
          "duration": 0.18437499999998863,
          "ticks": 43380,
          "durationTicks": 59
        },
        {
          "time": 135.75,
          "midi": 86,
          "name": "D6",
          "velocity": 1,
          "duration": 0.37187499999998863,
          "ticks": 43440,
          "durationTicks": 119
        },
        {
          "time": 135.75,
          "midi": 90,
          "name": "F#6",
          "velocity": 1,
          "duration": 0.37187499999998863,
          "ticks": 43440,
          "durationTicks": 119
        },
        {
          "time": 136.125,
          "midi": 86,
          "name": "D6",
          "velocity": 1,
          "duration": 0.18437499999998863,
          "ticks": 43560,
          "durationTicks": 59
        },
        {
          "time": 136.125,
          "midi": 86,
          "name": "D6",
          "velocity": 1,
          "duration": 0.18437499999998863,
          "ticks": 43560,
          "durationTicks": 59
        },
        {
          "time": 136.5,
          "midi": 85,
          "name": "C#6",
          "velocity": 1,
          "duration": 0.37187499999998863,
          "ticks": 43680,
          "durationTicks": 119
        },
        {
          "time": 136.5,
          "midi": 88,
          "name": "E6",
          "velocity": 1,
          "duration": 0.37187499999998863,
          "ticks": 43680,
          "durationTicks": 119
        },
        {
          "time": 136.875,
          "midi": 86,
          "name": "D6",
          "velocity": 0.905511811023622,
          "duration": 0.18437499999998863,
          "ticks": 43800,
          "durationTicks": 59
        },
        {
          "time": 136.875,
          "midi": 90,
          "name": "F#6",
          "velocity": 1,
          "duration": 0.18437499999998863,
          "ticks": 43800,
          "durationTicks": 59
        },
        {
          "time": 137.0625,
          "midi": 88,
          "name": "E6",
          "velocity": 1,
          "duration": 0.18437499999998863,
          "ticks": 43860,
          "durationTicks": 59
        },
        {
          "time": 137.0625,
          "midi": 91,
          "name": "G6",
          "velocity": 1,
          "duration": 0.18437499999998863,
          "ticks": 43860,
          "durationTicks": 59
        },
        {
          "time": 137.25,
          "midi": 85,
          "name": "C#6",
          "velocity": 1,
          "duration": 0.37187499999998863,
          "ticks": 43920,
          "durationTicks": 119
        },
        {
          "time": 137.25,
          "midi": 90,
          "name": "F#6",
          "velocity": 1,
          "duration": 0.37187499999998863,
          "ticks": 43920,
          "durationTicks": 119
        },
        {
          "time": 137.625,
          "midi": 88,
          "name": "E6",
          "velocity": 1,
          "duration": 0.37187499999998863,
          "ticks": 44040,
          "durationTicks": 119
        },
        {
          "time": 137.625,
          "midi": 85,
          "name": "C#6",
          "velocity": 1,
          "duration": 0.37187499999998863,
          "ticks": 44040,
          "durationTicks": 119
        },
        {
          "time": 138,
          "midi": 83,
          "name": "B5",
          "velocity": 1,
          "duration": 0.18437499999998863,
          "ticks": 44160,
          "durationTicks": 59
        },
        {
          "time": 138,
          "midi": 86,
          "name": "D6",
          "velocity": 1,
          "duration": 0.18437499999998863,
          "ticks": 44160,
          "durationTicks": 59
        },
        {
          "time": 138.375,
          "midi": 88,
          "name": "E6",
          "velocity": 0.937007874015748,
          "duration": 0.18437499999998863,
          "ticks": 44280,
          "durationTicks": 59
        },
        {
          "time": 138.375,
          "midi": 80,
          "name": "G#5",
          "velocity": 1,
          "duration": 0.18437499999998863,
          "ticks": 44280,
          "durationTicks": 59
        },
        {
          "time": 138.75,
          "midi": 81,
          "name": "A5",
          "velocity": 1,
          "duration": 0.18437499999998863,
          "ticks": 44400,
          "durationTicks": 59
        },
        {
          "time": 138.75,
          "midi": 81,
          "name": "A5",
          "velocity": 1,
          "duration": 0.18437499999998863,
          "ticks": 44400,
          "durationTicks": 59
        },
        {
          "time": 139.125,
          "midi": 86,
          "name": "D6",
          "velocity": 0.9763779527559056,
          "duration": 0.7468749999999886,
          "ticks": 44520,
          "durationTicks": 239
        },
        {
          "time": 139.125,
          "midi": 90,
          "name": "F#6",
          "velocity": 1,
          "duration": 0.7468749999999886,
          "ticks": 44520,
          "durationTicks": 239
        },
        {
          "time": 139.875,
          "midi": 86,
          "name": "D6",
          "velocity": 1,
          "duration": 0.18437499999998863,
          "ticks": 44760,
          "durationTicks": 59
        },
        {
          "time": 139.875,
          "midi": 90,
          "name": "F#6",
          "velocity": 1,
          "duration": 0.18437499999998863,
          "ticks": 44760,
          "durationTicks": 59
        },
        {
          "time": 140.25,
          "midi": 91,
          "name": "G6",
          "velocity": 1,
          "duration": 0.18437499999998863,
          "ticks": 44880,
          "durationTicks": 59
        },
        {
          "time": 140.25,
          "midi": 88,
          "name": "E6",
          "velocity": 1,
          "duration": 0.18437499999998863,
          "ticks": 44880,
          "durationTicks": 59
        },
        {
          "time": 140.625,
          "midi": 93,
          "name": "A6",
          "velocity": 1,
          "duration": 0.18437499999998863,
          "ticks": 45000,
          "durationTicks": 59
        },
        {
          "time": 140.625,
          "midi": 90,
          "name": "F#6",
          "velocity": 1,
          "duration": 0.18437499999998863,
          "ticks": 45000,
          "durationTicks": 59
        },
        {
          "time": 141,
          "midi": 93,
          "name": "A6",
          "velocity": 1,
          "duration": 0.37187499999998863,
          "ticks": 45120,
          "durationTicks": 119
        },
        {
          "time": 141,
          "midi": 90,
          "name": "F#6",
          "velocity": 1,
          "duration": 0.37187499999998863,
          "ticks": 45120,
          "durationTicks": 119
        },
        {
          "time": 141.375,
          "midi": 88,
          "name": "E6",
          "velocity": 1,
          "duration": 0.37187499999998863,
          "ticks": 45240,
          "durationTicks": 119
        },
        {
          "time": 141.375,
          "midi": 91,
          "name": "G6",
          "velocity": 1,
          "duration": 0.37187499999998863,
          "ticks": 45240,
          "durationTicks": 119
        },
        {
          "time": 141.75,
          "midi": 86,
          "name": "D6",
          "velocity": 1,
          "duration": 0.18437499999998863,
          "ticks": 45360,
          "durationTicks": 59
        },
        {
          "time": 141.75,
          "midi": 90,
          "name": "F#6",
          "velocity": 1,
          "duration": 0.18437499999998863,
          "ticks": 45360,
          "durationTicks": 59
        },
        {
          "time": 142.125,
          "midi": 81,
          "name": "A5",
          "velocity": 0.937007874015748,
          "duration": 0.18437499999998863,
          "ticks": 45480,
          "durationTicks": 59
        },
        {
          "time": 142.125,
          "midi": 88,
          "name": "E6",
          "velocity": 1,
          "duration": 0.18437499999998863,
          "ticks": 45480,
          "durationTicks": 59
        },
        {
          "time": 142.5,
          "midi": 86,
          "name": "D6",
          "velocity": 1,
          "duration": 0.37187499999998863,
          "ticks": 45600,
          "durationTicks": 119
        },
        {
          "time": 142.5,
          "midi": 78,
          "name": "F#5",
          "velocity": 1,
          "duration": 0.37187499999998863,
          "ticks": 45600,
          "durationTicks": 119
        },
        {
          "time": 142.875,
          "midi": 86,
          "name": "D6",
          "velocity": 1,
          "duration": 0.18437499999998863,
          "ticks": 45720,
          "durationTicks": 59
        },
        {
          "time": 142.875,
          "midi": 78,
          "name": "F#5",
          "velocity": 1,
          "duration": 0.18437499999998863,
          "ticks": 45720,
          "durationTicks": 59
        },
        {
          "time": 143.25,
          "midi": 81,
          "name": "A5",
          "velocity": 1,
          "duration": 0.18437499999998863,
          "ticks": 45840,
          "durationTicks": 59
        },
        {
          "time": 143.25,
          "midi": 88,
          "name": "E6",
          "velocity": 1,
          "duration": 0.18437499999998863,
          "ticks": 45840,
          "durationTicks": 59
        },
        {
          "time": 143.625,
          "midi": 86,
          "name": "D6",
          "velocity": 1,
          "duration": 0.18437499999998863,
          "ticks": 45960,
          "durationTicks": 59
        },
        {
          "time": 143.625,
          "midi": 90,
          "name": "F#6",
          "velocity": 1,
          "duration": 0.18437499999998863,
          "ticks": 45960,
          "durationTicks": 59
        },
        {
          "time": 144,
          "midi": 81,
          "name": "A5",
          "velocity": 0.9763779527559056,
          "duration": 0.5593749999999886,
          "ticks": 46080,
          "durationTicks": 179
        },
        {
          "time": 144,
          "midi": 88,
          "name": "E6",
          "velocity": 1,
          "duration": 0.5593749999999886,
          "ticks": 46080,
          "durationTicks": 179
        },
        {
          "time": 144.5625,
          "midi": 86,
          "name": "D6",
          "velocity": 1,
          "duration": 0.18437499999998863,
          "ticks": 46260,
          "durationTicks": 59
        },
        {
          "time": 144.5625,
          "midi": 78,
          "name": "F#5",
          "velocity": 1,
          "duration": 0.18437499999998863,
          "ticks": 46260,
          "durationTicks": 59
        },
        {
          "time": 144.75,
          "midi": 86,
          "name": "D6",
          "velocity": 1,
          "duration": 0.37187499999998863,
          "ticks": 46320,
          "durationTicks": 119
        },
        {
          "time": 144.75,
          "midi": 78,
          "name": "F#5",
          "velocity": 1,
          "duration": 0.37187499999998863,
          "ticks": 46320,
          "durationTicks": 119
        },
        {
          "time": 145.125,
          "midi": 93,
          "name": "A6",
          "velocity": 1,
          "duration": 0.37187499999998863,
          "ticks": 46440,
          "durationTicks": 119
        },
        {
          "time": 145.125,
          "midi": 90,
          "name": "F#6",
          "velocity": 1,
          "duration": 0.37187499999998863,
          "ticks": 46440,
          "durationTicks": 119
        },
        {
          "time": 145.5,
          "midi": 88,
          "name": "E6",
          "velocity": 0.6141732283464567,
          "duration": 0.5593749999999886,
          "ticks": 46560,
          "durationTicks": 179
        },
        {
          "time": 145.5,
          "midi": 91,
          "name": "G6",
          "velocity": 0.8503937007874016,
          "duration": 0.5593749999999886,
          "ticks": 46560,
          "durationTicks": 179
        },
        {
          "time": 146.0625,
          "midi": 86,
          "name": "D6",
          "velocity": 0.5905511811023622,
          "duration": 0.18437499999998863,
          "ticks": 46740,
          "durationTicks": 59
        },
        {
          "time": 146.0625,
          "midi": 90,
          "name": "F#6",
          "velocity": 0.7401574803149606,
          "duration": 0.18437499999998863,
          "ticks": 46740,
          "durationTicks": 59
        },
        {
          "time": 146.25,
          "midi": 86,
          "name": "D6",
          "velocity": 0.5511811023622047,
          "duration": 0.37187499999998863,
          "ticks": 46800,
          "durationTicks": 119
        },
        {
          "time": 146.25,
          "midi": 90,
          "name": "F#6",
          "velocity": 0.7401574803149606,
          "duration": 0.37187499999998863,
          "ticks": 46800,
          "durationTicks": 119
        },
        {
          "time": 146.625,
          "midi": 86,
          "name": "D6",
          "velocity": 0.905511811023622,
          "duration": 0.37187499999998863,
          "ticks": 46920,
          "durationTicks": 119
        },
        {
          "time": 146.625,
          "midi": 86,
          "name": "D6",
          "velocity": 0.7637795275590551,
          "duration": 0.37187499999998863,
          "ticks": 46920,
          "durationTicks": 119
        },
        {
          "time": 147,
          "midi": 90,
          "name": "F#6",
          "velocity": 0.8503937007874016,
          "duration": 0.5593749999999886,
          "ticks": 47040,
          "durationTicks": 179
        },
        {
          "time": 147,
          "midi": 86,
          "name": "D6",
          "velocity": 0.6141732283464567,
          "duration": 0.5593749999999886,
          "ticks": 47040,
          "durationTicks": 179
        },
        {
          "time": 147.5625,
          "midi": 91,
          "name": "G6",
          "velocity": 0.7401574803149606,
          "duration": 0.18437499999998863,
          "ticks": 47220,
          "durationTicks": 59
        },
        {
          "time": 147.5625,
          "midi": 86,
          "name": "D6",
          "velocity": 0.5905511811023622,
          "duration": 0.18437499999998863,
          "ticks": 47220,
          "durationTicks": 59
        },
        {
          "time": 147.75,
          "midi": 91,
          "name": "G6",
          "velocity": 0.7401574803149606,
          "duration": 0.37187499999998863,
          "ticks": 47280,
          "durationTicks": 119
        },
        {
          "time": 147.75,
          "midi": 86,
          "name": "D6",
          "velocity": 0.5511811023622047,
          "duration": 0.37187499999998863,
          "ticks": 47280,
          "durationTicks": 119
        },
        {
          "time": 148.125,
          "midi": 91,
          "name": "G6",
          "velocity": 0.7637795275590551,
          "duration": 0.37187499999998863,
          "ticks": 47400,
          "durationTicks": 119
        },
        {
          "time": 148.125,
          "midi": 83,
          "name": "B5",
          "velocity": 0.905511811023622,
          "duration": 0.37187499999998863,
          "ticks": 47400,
          "durationTicks": 119
        },
        {
          "time": 148.5,
          "midi": 83,
          "name": "B5",
          "velocity": 0.7795275590551181,
          "duration": 0.7468749999999886,
          "ticks": 47520,
          "durationTicks": 239
        },
        {
          "time": 148.5,
          "midi": 90,
          "name": "F#6",
          "velocity": 1,
          "duration": 0.5593749999999886,
          "ticks": 47520,
          "durationTicks": 179
        },
        {
          "time": 149.0625,
          "midi": 88,
          "name": "E6",
          "velocity": 1,
          "duration": 0.18437499999998863,
          "ticks": 47700,
          "durationTicks": 59
        },
        {
          "time": 149.25,
          "midi": 85,
          "name": "C#6",
          "velocity": 0.8267716535433071,
          "duration": 0.37187499999998863,
          "ticks": 47760,
          "durationTicks": 119
        },
        {
          "time": 149.25,
          "midi": 88,
          "name": "E6",
          "velocity": 1,
          "duration": 0.37187499999998863,
          "ticks": 47760,
          "durationTicks": 119
        },
        {
          "time": 149.625,
          "midi": 88,
          "name": "E6",
          "velocity": 1,
          "duration": 0.18437499999998863,
          "ticks": 47880,
          "durationTicks": 59
        },
        {
          "time": 149.625,
          "midi": 79,
          "name": "G5",
          "velocity": 0.7637795275590551,
          "duration": 0.18437499999998863,
          "ticks": 47880,
          "durationTicks": 59
        },
        {
          "time": 149.8125,
          "midi": 90,
          "name": "F#6",
          "velocity": 1,
          "duration": 0.18437499999998863,
          "ticks": 47940,
          "durationTicks": 59
        },
        {
          "time": 149.8125,
          "midi": 81,
          "name": "A5",
          "velocity": 0.7637795275590551,
          "duration": 0.18437499999998863,
          "ticks": 47940,
          "durationTicks": 59
        },
        {
          "time": 150,
          "midi": 79,
          "name": "G5",
          "velocity": 0.7401574803149606,
          "duration": 0.5593749999999886,
          "ticks": 48000,
          "durationTicks": 179
        },
        {
          "time": 150,
          "midi": 88,
          "name": "E6",
          "velocity": 0.937007874015748,
          "duration": 0.5593749999999886,
          "ticks": 48000,
          "durationTicks": 179
        },
        {
          "time": 150.5625,
          "midi": 78,
          "name": "F#5",
          "velocity": 0.8503937007874016,
          "duration": 0.18437499999998863,
          "ticks": 48180,
          "durationTicks": 59
        },
        {
          "time": 150.5625,
          "midi": 86,
          "name": "D6",
          "velocity": 0.8267716535433071,
          "duration": 0.18437499999998863,
          "ticks": 48180,
          "durationTicks": 59
        },
        {
          "time": 150.75,
          "midi": 81,
          "name": "A5",
          "velocity": 0.937007874015748,
          "duration": 0.37187499999998863,
          "ticks": 48240,
          "durationTicks": 119
        },
        {
          "time": 150.75,
          "midi": 86,
          "name": "D6",
          "velocity": 1,
          "duration": 0.18437499999998863,
          "ticks": 48240,
          "durationTicks": 59
        },
        {
          "time": 150.9375,
          "midi": 81,
          "name": "A5",
          "velocity": 0.905511811023622,
          "duration": 0.18437499999998863,
          "ticks": 48300,
          "durationTicks": 59
        },
        {
          "time": 151.125,
          "midi": 93,
          "name": "A6",
          "velocity": 0.7637795275590551,
          "duration": 0.18437499999998863,
          "ticks": 48360,
          "durationTicks": 59
        },
        {
          "time": 151.125,
          "midi": 86,
          "name": "D6",
          "velocity": 1,
          "duration": 0.37187499999998863,
          "ticks": 48360,
          "durationTicks": 119
        },
        {
          "time": 151.3125,
          "midi": 90,
          "name": "F#6",
          "velocity": 1,
          "duration": 0.18437499999998863,
          "ticks": 48420,
          "durationTicks": 59
        },
        {
          "time": 151.5,
          "midi": 86,
          "name": "D6",
          "velocity": 0.9763779527559056,
          "duration": 1.1218749999999886,
          "ticks": 48480,
          "durationTicks": 359
        },
        {
          "time": 151.5,
          "midi": 90,
          "name": "F#6",
          "velocity": 1,
          "duration": 0.37187499999998863,
          "ticks": 48480,
          "durationTicks": 119
        },
        {
          "time": 151.875,
          "midi": 88,
          "name": "E6",
          "velocity": 0.7244094488188977,
          "duration": 0.18437499999998863,
          "ticks": 48600,
          "durationTicks": 59
        },
        {
          "time": 152.25,
          "midi": 88,
          "name": "E6",
          "velocity": 0.937007874015748,
          "duration": 0.37187499999998863,
          "ticks": 48720,
          "durationTicks": 119
        },
        {
          "time": 152.25,
          "midi": 85,
          "name": "C#6",
          "velocity": 1,
          "duration": 1.125,
          "ticks": 48720,
          "durationTicks": 360
        },
        {
          "time": 152.625,
          "midi": 88,
          "name": "E6",
          "velocity": 1,
          "duration": 0.37187499999998863,
          "ticks": 48840,
          "durationTicks": 119
        },
        {
          "time": 153,
          "midi": 91,
          "name": "G6",
          "velocity": 1,
          "duration": 0.5593749999999886,
          "ticks": 48960,
          "durationTicks": 179
        },
        {
          "time": 153.5625,
          "midi": 90,
          "name": "F#6",
          "velocity": 1,
          "duration": 0.18437499999998863,
          "ticks": 49140,
          "durationTicks": 59
        },
        {
          "time": 153.75,
          "midi": 90,
          "name": "F#6",
          "velocity": 1,
          "duration": 0.37187499999998863,
          "ticks": 49200,
          "durationTicks": 119
        },
        {
          "time": 153.75,
          "midi": 86,
          "name": "D6",
          "velocity": 1,
          "duration": 0.7468749999999886,
          "ticks": 49200,
          "durationTicks": 239
        },
        {
          "time": 154.125,
          "midi": 90,
          "name": "F#6",
          "velocity": 1,
          "duration": 0.37187499999998863,
          "ticks": 49320,
          "durationTicks": 119
        },
        {
          "time": 154.5,
          "midi": 87,
          "name": "D#6",
          "velocity": 1,
          "duration": 0.37187499999998863,
          "ticks": 49440,
          "durationTicks": 119
        },
        {
          "time": 154.5,
          "midi": 93,
          "name": "A6",
          "velocity": 0.8503937007874016,
          "duration": 0.5593749999999886,
          "ticks": 49440,
          "durationTicks": 179
        },
        {
          "time": 154.875,
          "midi": 90,
          "name": "F#6",
          "velocity": 1,
          "duration": 0.37187499999998863,
          "ticks": 49560,
          "durationTicks": 119
        },
        {
          "time": 155.0625,
          "midi": 92,
          "name": "G#6",
          "velocity": 1,
          "duration": 0.18437499999998863,
          "ticks": 49620,
          "durationTicks": 59
        },
        {
          "time": 155.25,
          "midi": 89,
          "name": "F6",
          "velocity": 1,
          "duration": 0.37187499999998863,
          "ticks": 49680,
          "durationTicks": 119
        },
        {
          "time": 155.25,
          "midi": 92,
          "name": "G#6",
          "velocity": 1,
          "duration": 0.37187499999998863,
          "ticks": 49680,
          "durationTicks": 119
        },
        {
          "time": 155.625,
          "midi": 89,
          "name": "F6",
          "velocity": 1,
          "duration": 0.37187499999998863,
          "ticks": 49800,
          "durationTicks": 119
        },
        {
          "time": 155.625,
          "midi": 92,
          "name": "G#6",
          "velocity": 1,
          "duration": 0.37187499999998863,
          "ticks": 49800,
          "durationTicks": 119
        },
        {
          "time": 156,
          "midi": 91,
          "name": "G6",
          "velocity": 0.8503937007874016,
          "duration": 0.5593749999999886,
          "ticks": 49920,
          "durationTicks": 179
        },
        {
          "time": 156,
          "midi": 88,
          "name": "E6",
          "velocity": 1,
          "duration": 0.37187499999998863,
          "ticks": 49920,
          "durationTicks": 119
        },
        {
          "time": 156.375,
          "midi": 76,
          "name": "E5",
          "velocity": 1,
          "duration": 0.37187499999998863,
          "ticks": 50040,
          "durationTicks": 119
        },
        {
          "time": 156.5625,
          "midi": 82,
          "name": "A#5",
          "velocity": 1,
          "duration": 0.18437499999998863,
          "ticks": 50100,
          "durationTicks": 59
        },
        {
          "time": 156.75,
          "midi": 85,
          "name": "C#6",
          "velocity": 1,
          "duration": 0.5593749999999886,
          "ticks": 50160,
          "durationTicks": 179
        },
        {
          "time": 157.125,
          "midi": 78,
          "name": "F#5",
          "velocity": 1,
          "duration": 0.18437499999998863,
          "ticks": 50280,
          "durationTicks": 59
        },
        {
          "time": 157.3125,
          "midi": 83,
          "name": "B5",
          "velocity": 0.9763779527559056,
          "duration": 0.18437499999998863,
          "ticks": 50340,
          "durationTicks": 59
        },
        {
          "time": 157.3125,
          "midi": 83,
          "name": "B5",
          "velocity": 0.8818897637795275,
          "duration": 0.18437499999998863,
          "ticks": 50340,
          "durationTicks": 59
        },
        {
          "time": 157.5,
          "midi": 86,
          "name": "D6",
          "velocity": 1,
          "duration": 0.5593749999999886,
          "ticks": 50400,
          "durationTicks": 179
        },
        {
          "time": 157.5,
          "midi": 83,
          "name": "B5",
          "velocity": 1,
          "duration": 0.37187499999998863,
          "ticks": 50400,
          "durationTicks": 119
        },
        {
          "time": 157.875,
          "midi": 80,
          "name": "G#5",
          "velocity": 1,
          "duration": 0.37187499999998863,
          "ticks": 50520,
          "durationTicks": 119
        },
        {
          "time": 158.0625,
          "midi": 85,
          "name": "C#6",
          "velocity": 1,
          "duration": 0.18437499999998863,
          "ticks": 50580,
          "durationTicks": 59
        },
        {
          "time": 158.25,
          "midi": 88,
          "name": "E6",
          "velocity": 1,
          "duration": 0.5593749999999886,
          "ticks": 50640,
          "durationTicks": 179
        },
        {
          "time": 158.25,
          "midi": 85,
          "name": "C#6",
          "velocity": 1,
          "duration": 0.37187499999998863,
          "ticks": 50640,
          "durationTicks": 119
        },
        {
          "time": 158.625,
          "midi": 81,
          "name": "A5",
          "velocity": 1,
          "duration": 0.37187499999998863,
          "ticks": 50760,
          "durationTicks": 119
        },
        {
          "time": 158.8125,
          "midi": 86,
          "name": "D6",
          "velocity": 1,
          "duration": 0.18437499999998863,
          "ticks": 50820,
          "durationTicks": 59
        },
        {
          "time": 159,
          "midi": 90,
          "name": "F#6",
          "velocity": 1,
          "duration": 0.5593749999999886,
          "ticks": 50880,
          "durationTicks": 179
        },
        {
          "time": 159,
          "midi": 86,
          "name": "D6",
          "velocity": 1,
          "duration": 0.37187499999998863,
          "ticks": 50880,
          "durationTicks": 119
        },
        {
          "time": 159.375,
          "midi": 83,
          "name": "B5",
          "velocity": 1,
          "duration": 0.7468749999999886,
          "ticks": 51000,
          "durationTicks": 239
        },
        {
          "time": 159.5625,
          "midi": 88,
          "name": "E6",
          "velocity": 1,
          "duration": 0.18437499999998863,
          "ticks": 51060,
          "durationTicks": 59
        },
        {
          "time": 159.75,
          "midi": 88,
          "name": "E6",
          "velocity": 1,
          "duration": 0.5593749999999886,
          "ticks": 51120,
          "durationTicks": 179
        },
        {
          "time": 160.125,
          "midi": 83,
          "name": "B5",
          "velocity": 1,
          "duration": 0.7468749999999886,
          "ticks": 51240,
          "durationTicks": 239
        },
        {
          "time": 160.3125,
          "midi": 86,
          "name": "D6",
          "velocity": 1,
          "duration": 0.18437499999998863,
          "ticks": 51300,
          "durationTicks": 59
        },
        {
          "time": 160.5,
          "midi": 90,
          "name": "F#6",
          "velocity": 1,
          "duration": 0.5593749999999886,
          "ticks": 51360,
          "durationTicks": 179
        },
        {
          "time": 160.875,
          "midi": 83,
          "name": "B5",
          "velocity": 1,
          "duration": 0.5593749999999886,
          "ticks": 51480,
          "durationTicks": 179
        },
        {
          "time": 161.0625,
          "midi": 88,
          "name": "E6",
          "velocity": 1,
          "duration": 0.18437499999998863,
          "ticks": 51540,
          "durationTicks": 59
        },
        {
          "time": 161.25,
          "midi": 88,
          "name": "E6",
          "velocity": 0.8503937007874016,
          "duration": 0.18437499999998863,
          "ticks": 51600,
          "durationTicks": 59
        },
        {
          "time": 161.4375,
          "midi": 86,
          "name": "D6",
          "velocity": 1,
          "duration": 0.18437499999998863,
          "ticks": 51660,
          "durationTicks": 59
        },
        {
          "time": 161.4375,
          "midi": 86,
          "name": "D6",
          "velocity": 1,
          "duration": 0.18437499999998863,
          "ticks": 51660,
          "durationTicks": 59
        },
        {
          "time": 161.625,
          "midi": 83,
          "name": "B5",
          "velocity": 1,
          "duration": 0.18437499999998863,
          "ticks": 51720,
          "durationTicks": 59
        },
        {
          "time": 161.625,
          "midi": 83,
          "name": "B5",
          "velocity": 0.9763779527559056,
          "duration": 0.18437499999998863,
          "ticks": 51720,
          "durationTicks": 59
        },
        {
          "time": 161.8125,
          "midi": 88,
          "name": "E6",
          "velocity": 1,
          "duration": 0.5625,
          "ticks": 51780,
          "durationTicks": 180
        },
        {
          "time": 161.8125,
          "midi": 88,
          "name": "E6",
          "velocity": 1,
          "duration": 0.5625,
          "ticks": 51780,
          "durationTicks": 180
        },
        {
          "time": 162.375,
          "midi": 85,
          "name": "C#6",
          "velocity": 1,
          "duration": 0.37187499999998863,
          "ticks": 51960,
          "durationTicks": 119
        },
        {
          "time": 162.375,
          "midi": 85,
          "name": "C#6",
          "velocity": 1,
          "duration": 0.37187499999998863,
          "ticks": 51960,
          "durationTicks": 119
        },
        {
          "time": 162.75,
          "midi": 81,
          "name": "A5",
          "velocity": 0.937007874015748,
          "duration": 0.37187499999998863,
          "ticks": 52080,
          "durationTicks": 119
        },
        {
          "time": 162.75,
          "midi": 81,
          "name": "A5",
          "velocity": 0.937007874015748,
          "duration": 0.37187499999998863,
          "ticks": 52080,
          "durationTicks": 119
        },
        {
          "time": 163.125,
          "midi": 90,
          "name": "F#6",
          "velocity": 1,
          "duration": 0.37187499999998863,
          "ticks": 52200,
          "durationTicks": 119
        },
        {
          "time": 163.125,
          "midi": 90,
          "name": "F#6",
          "velocity": 1,
          "duration": 0.37187499999998863,
          "ticks": 52200,
          "durationTicks": 119
        },
        {
          "time": 163.5,
          "midi": 88,
          "name": "E6",
          "velocity": 1,
          "duration": 0.37187499999998863,
          "ticks": 52320,
          "durationTicks": 119
        },
        {
          "time": 163.5,
          "midi": 88,
          "name": "E6",
          "velocity": 1,
          "duration": 0.37187499999998863,
          "ticks": 52320,
          "durationTicks": 119
        },
        {
          "time": 163.875,
          "midi": 81,
          "name": "A5",
          "velocity": 1,
          "duration": 0.7468749999999886,
          "ticks": 52440,
          "durationTicks": 239
        },
        {
          "time": 163.875,
          "midi": 93,
          "name": "A6",
          "velocity": 1,
          "duration": 0.7468749999999886,
          "ticks": 52440,
          "durationTicks": 239
        },
        {
          "time": 164.625,
          "midi": 92,
          "name": "G#6",
          "velocity": 1,
          "duration": 0.37187499999998863,
          "ticks": 52680,
          "durationTicks": 119
        },
        {
          "time": 164.625,
          "midi": 80,
          "name": "G#5",
          "velocity": 1,
          "duration": 0.37187499999998863,
          "ticks": 52680,
          "durationTicks": 119
        },
        {
          "time": 165,
          "midi": 81,
          "name": "A5",
          "velocity": 1,
          "duration": 0.09062499999998863,
          "ticks": 52800,
          "durationTicks": 29
        },
        {
          "time": 165,
          "midi": 93,
          "name": "A6",
          "velocity": 1,
          "duration": 0.09062499999998863,
          "ticks": 52800,
          "durationTicks": 29
        },
        {
          "time": 165.1875,
          "midi": 69,
          "name": "A4",
          "velocity": 1,
          "duration": 0.09062499999998863,
          "ticks": 52860,
          "durationTicks": 29
        },
        {
          "time": 165.1875,
          "midi": 81,
          "name": "A5",
          "velocity": 1,
          "duration": 0.09062499999998863,
          "ticks": 52860,
          "durationTicks": 29
        },
        {
          "time": 165.28125,
          "midi": 71,
          "name": "B4",
          "velocity": 1,
          "duration": 0.09062499999998863,
          "ticks": 52890,
          "durationTicks": 29
        },
        {
          "time": 165.28125,
          "midi": 83,
          "name": "B5",
          "velocity": 1,
          "duration": 0.09062499999998863,
          "ticks": 52890,
          "durationTicks": 29
        },
        {
          "time": 165.375,
          "midi": 73,
          "name": "C#5",
          "velocity": 1,
          "duration": 0.09062499999998863,
          "ticks": 52920,
          "durationTicks": 29
        },
        {
          "time": 165.375,
          "midi": 85,
          "name": "C#6",
          "velocity": 1,
          "duration": 0.09062499999998863,
          "ticks": 52920,
          "durationTicks": 29
        },
        {
          "time": 165.5625,
          "midi": 73,
          "name": "C#5",
          "velocity": 1,
          "duration": 0.09062499999998863,
          "ticks": 52980,
          "durationTicks": 29
        },
        {
          "time": 165.5625,
          "midi": 85,
          "name": "C#6",
          "velocity": 1,
          "duration": 0.09062499999998863,
          "ticks": 52980,
          "durationTicks": 29
        },
        {
          "time": 165.65625,
          "midi": 74,
          "name": "D5",
          "velocity": 1,
          "duration": 0.09062499999998863,
          "ticks": 53010,
          "durationTicks": 29
        },
        {
          "time": 165.65625,
          "midi": 86,
          "name": "D6",
          "velocity": 1,
          "duration": 0.09062499999998863,
          "ticks": 53010,
          "durationTicks": 29
        },
        {
          "time": 165.75,
          "midi": 76,
          "name": "E5",
          "velocity": 1,
          "duration": 0.09062499999998863,
          "ticks": 53040,
          "durationTicks": 29
        },
        {
          "time": 165.75,
          "midi": 88,
          "name": "E6",
          "velocity": 1,
          "duration": 0.09062499999998863,
          "ticks": 53040,
          "durationTicks": 29
        },
        {
          "time": 165.9375,
          "midi": 76,
          "name": "E5",
          "velocity": 0.8267716535433071,
          "duration": 0.09062499999998863,
          "ticks": 53100,
          "durationTicks": 29
        },
        {
          "time": 165.9375,
          "midi": 88,
          "name": "E6",
          "velocity": 0.8267716535433071,
          "duration": 0.09062499999998863,
          "ticks": 53100,
          "durationTicks": 29
        },
        {
          "time": 166.03125,
          "midi": 78,
          "name": "F#5",
          "velocity": 1,
          "duration": 0.09062499999998863,
          "ticks": 53130,
          "durationTicks": 29
        },
        {
          "time": 166.03125,
          "midi": 90,
          "name": "F#6",
          "velocity": 1,
          "duration": 0.09062499999998863,
          "ticks": 53130,
          "durationTicks": 29
        },
        {
          "time": 166.125,
          "midi": 92,
          "name": "G#6",
          "velocity": 1,
          "duration": 0.09062499999998863,
          "ticks": 53160,
          "durationTicks": 29
        },
        {
          "time": 166.125,
          "midi": 80,
          "name": "G#5",
          "velocity": 1,
          "duration": 0.09062499999998863,
          "ticks": 53160,
          "durationTicks": 29
        },
        {
          "time": 166.3125,
          "midi": 88,
          "name": "E6",
          "velocity": 1,
          "duration": 0.05937500000001705,
          "ticks": 53220,
          "durationTicks": 19
        },
        {
          "time": 166.3125,
          "midi": 76,
          "name": "E5",
          "velocity": 1,
          "duration": 0.05937500000001705,
          "ticks": 53220,
          "durationTicks": 19
        },
        {
          "time": 166.375,
          "midi": 90,
          "name": "F#6",
          "velocity": 1,
          "duration": 0.05937499999998863,
          "ticks": 53240,
          "durationTicks": 19
        },
        {
          "time": 166.375,
          "midi": 78,
          "name": "F#5",
          "velocity": 1,
          "duration": 0.05937499999998863,
          "ticks": 53240,
          "durationTicks": 19
        },
        {
          "time": 166.4375,
          "midi": 92,
          "name": "G#6",
          "velocity": 1,
          "duration": 0.05937499999998863,
          "ticks": 53260,
          "durationTicks": 19
        },
        {
          "time": 166.4375,
          "midi": 80,
          "name": "G#5",
          "velocity": 1,
          "duration": 0.05937499999998863,
          "ticks": 53260,
          "durationTicks": 19
        },
        {
          "time": 166.5,
          "midi": 81,
          "name": "A5",
          "velocity": 1,
          "duration": 0.7468749999999886,
          "ticks": 53280,
          "durationTicks": 239
        },
        {
          "time": 166.5,
          "midi": 93,
          "name": "A6",
          "velocity": 1,
          "duration": 0.7468749999999886,
          "ticks": 53280,
          "durationTicks": 239
        },
        {
          "time": 167.25,
          "midi": 76,
          "name": "E5",
          "velocity": 1,
          "duration": 0.18437499999998863,
          "ticks": 53520,
          "durationTicks": 59
        },
        {
          "time": 167.25,
          "midi": 88,
          "name": "E6",
          "velocity": 1,
          "duration": 0.18437499999998863,
          "ticks": 53520,
          "durationTicks": 59
        },
        {
          "time": 167.625,
          "midi": 76,
          "name": "E5",
          "velocity": 1,
          "duration": 0.18437499999998863,
          "ticks": 53640,
          "durationTicks": 59
        },
        {
          "time": 167.625,
          "midi": 88,
          "name": "E6",
          "velocity": 1,
          "duration": 0.18437499999998863,
          "ticks": 53640,
          "durationTicks": 59
        },
        {
          "time": 168,
          "midi": 88,
          "name": "E6",
          "velocity": 1,
          "duration": 0.3687500000000057,
          "ticks": 53760,
          "durationTicks": 59
        },
        {
          "time": 168.375,
          "midi": 85,
          "name": "C#6",
          "velocity": 1,
          "duration": 0.3687500000000057,
          "ticks": 53820,
          "durationTicks": 59
        },
        {
          "time": 168.75,
          "midi": 81,
          "name": "A5",
          "velocity": 1,
          "duration": 0.18125000000000568,
          "ticks": 53880,
          "durationTicks": 29
        },
        {
          "time": 169.125,
          "midi": 83,
          "name": "B5",
          "velocity": 1,
          "duration": 0.18125000000000568,
          "ticks": 53940,
          "durationTicks": 29
        },
        {
          "time": 169.5,
          "midi": 85,
          "name": "C#6",
          "velocity": 1,
          "duration": 0.7437500000000057,
          "ticks": 54000,
          "durationTicks": 119
        },
        {
          "time": 170.25,
          "midi": 83,
          "name": "B5",
          "velocity": 1,
          "duration": 0.7437500000000057,
          "ticks": 54120,
          "durationTicks": 119
        },
        {
          "time": 171,
          "midi": 90,
          "name": "F#6",
          "velocity": 1,
          "duration": 0.3687500000000057,
          "ticks": 54240,
          "durationTicks": 59
        },
        {
          "time": 171.375,
          "midi": 86,
          "name": "D6",
          "velocity": 1,
          "duration": 0.3687500000000057,
          "ticks": 54300,
          "durationTicks": 59
        },
        {
          "time": 171.75,
          "midi": 83,
          "name": "B5",
          "velocity": 1,
          "duration": 0.18125000000000568,
          "ticks": 54360,
          "durationTicks": 29
        },
        {
          "time": 172.125,
          "midi": 85,
          "name": "C#6",
          "velocity": 1,
          "duration": 0.18125000000000568,
          "ticks": 54420,
          "durationTicks": 29
        },
        {
          "time": 172.5,
          "midi": 86,
          "name": "D6",
          "velocity": 1,
          "duration": 0.7437500000000057,
          "ticks": 54480,
          "durationTicks": 119
        },
        {
          "time": 173.25,
          "midi": 85,
          "name": "C#6",
          "velocity": 1,
          "duration": 0.7437500000000057,
          "ticks": 54600,
          "durationTicks": 119
        },
        {
          "time": 176.625,
          "midi": 88,
          "name": "E6",
          "velocity": 1,
          "duration": 0.5593749999999886,
          "ticks": 55140,
          "durationTicks": 119
        },
        {
          "time": 177.1875,
          "midi": 85,
          "name": "C#6",
          "velocity": 1,
          "duration": 0.18437499999998863,
          "ticks": 55260,
          "durationTicks": 59
        },
        {
          "time": 177.375,
          "midi": 81,
          "name": "A5",
          "velocity": 1,
          "duration": 0.09062499999998863,
          "ticks": 55320,
          "durationTicks": 29
        },
        {
          "time": 177.375,
          "midi": 81,
          "name": "A5",
          "velocity": 1,
          "duration": 0.09062499999998863,
          "ticks": 55320,
          "durationTicks": 29
        },
        {
          "time": 177.5625,
          "midi": 83,
          "name": "B5",
          "velocity": 1,
          "duration": 0.09062499999998863,
          "ticks": 55380,
          "durationTicks": 29
        },
        {
          "time": 177.5625,
          "midi": 83,
          "name": "B5",
          "velocity": 1,
          "duration": 0.09062499999998863,
          "ticks": 55380,
          "durationTicks": 29
        },
        {
          "time": 177.75,
          "midi": 81,
          "name": "A5",
          "velocity": 0.8503937007874016,
          "duration": 0.37187499999998863,
          "ticks": 55440,
          "durationTicks": 119
        },
        {
          "time": 177.75,
          "midi": 85,
          "name": "C#6",
          "velocity": 1,
          "duration": 0.37187499999998863,
          "ticks": 55440,
          "durationTicks": 119
        },
        {
          "time": 178.125,
          "midi": 83,
          "name": "B5",
          "velocity": 1,
          "duration": 0.37187499999998863,
          "ticks": 55560,
          "durationTicks": 119
        },
        {
          "time": 178.125,
          "midi": 80,
          "name": "G#5",
          "velocity": 1,
          "duration": 0.37187499999998863,
          "ticks": 55560,
          "durationTicks": 119
        },
        {
          "time": 178.875,
          "midi": 88,
          "name": "E6",
          "velocity": 0.8503937007874016,
          "duration": 0.18437499999998863,
          "ticks": 55800,
          "durationTicks": 59
        },
        {
          "time": 178.875,
          "midi": 92,
          "name": "G#6",
          "velocity": 1,
          "duration": 0.18437499999998863,
          "ticks": 55800,
          "durationTicks": 59
        },
        {
          "time": 179.625,
          "midi": 88,
          "name": "E6",
          "velocity": 0.8503937007874016,
          "duration": 0.18437499999998863,
          "ticks": 56040,
          "durationTicks": 59
        },
        {
          "time": 179.625,
          "midi": 93,
          "name": "A6",
          "velocity": 1,
          "duration": 0.18437499999998863,
          "ticks": 56040,
          "durationTicks": 59
        },
        {
          "time": 180.75,
          "midi": 82,
          "name": "A#5",
          "velocity": 1,
          "duration": 0.9375,
          "ticks": 56400,
          "durationTicks": 300
        },
        {
          "time": 181.6875,
          "midi": 81,
          "name": "A5",
          "velocity": 1,
          "duration": 0.09062499999998863,
          "ticks": 56700,
          "durationTicks": 29
        },
        {
          "time": 181.875,
          "midi": 81,
          "name": "A5",
          "velocity": 1,
          "duration": 0.09062499999998863,
          "ticks": 56760,
          "durationTicks": 29
        },
        {
          "time": 182.0625,
          "midi": 86,
          "name": "D6",
          "velocity": 1,
          "duration": 0.09062499999998863,
          "ticks": 56820,
          "durationTicks": 29
        },
        {
          "time": 182.25,
          "midi": 86,
          "name": "D6",
          "velocity": 1,
          "duration": 0.09062499999998863,
          "ticks": 56880,
          "durationTicks": 29
        },
        {
          "time": 182.4375,
          "midi": 77,
          "name": "F5",
          "velocity": 0.8818897637795275,
          "duration": 0.09062499999998863,
          "ticks": 56940,
          "durationTicks": 29
        },
        {
          "time": 182.4375,
          "midi": 89,
          "name": "F6",
          "velocity": 0.937007874015748,
          "duration": 0.09062499999998863,
          "ticks": 56940,
          "durationTicks": 29
        },
        {
          "time": 182.625,
          "midi": 77,
          "name": "F5",
          "velocity": 0.937007874015748,
          "duration": 0.09062499999998863,
          "ticks": 57000,
          "durationTicks": 29
        },
        {
          "time": 182.625,
          "midi": 89,
          "name": "F6",
          "velocity": 1,
          "duration": 0.09062499999998863,
          "ticks": 57000,
          "durationTicks": 29
        },
        {
          "time": 182.8125,
          "midi": 93,
          "name": "A6",
          "velocity": 0.9763779527559056,
          "duration": 0.09062499999998863,
          "ticks": 57060,
          "durationTicks": 29
        },
        {
          "time": 182.8125,
          "midi": 81,
          "name": "A5",
          "velocity": 0.937007874015748,
          "duration": 0.09062499999998863,
          "ticks": 57060,
          "durationTicks": 29
        },
        {
          "time": 183,
          "midi": 81,
          "name": "A5",
          "velocity": 0.8818897637795275,
          "duration": 0.09062499999998863,
          "ticks": 57120,
          "durationTicks": 29
        },
        {
          "time": 183,
          "midi": 93,
          "name": "A6",
          "velocity": 0.9763779527559056,
          "duration": 0.09062499999998863,
          "ticks": 57120,
          "durationTicks": 29
        },
        {
          "time": 183.1875,
          "midi": 86,
          "name": "D6",
          "velocity": 0.905511811023622,
          "duration": 0.09062499999998863,
          "ticks": 57180,
          "durationTicks": 29
        },
        {
          "time": 183.1875,
          "midi": 74,
          "name": "D5",
          "velocity": 0.8818897637795275,
          "duration": 0.09062499999998863,
          "ticks": 57180,
          "durationTicks": 29
        },
        {
          "time": 183.375,
          "midi": 74,
          "name": "D5",
          "velocity": 0.8818897637795275,
          "duration": 0.18437499999998863,
          "ticks": 57240,
          "durationTicks": 59
        },
        {
          "time": 183.375,
          "midi": 86,
          "name": "D6",
          "velocity": 1,
          "duration": 0.18437499999998863,
          "ticks": 57240,
          "durationTicks": 59
        },
        {
          "time": 183.5625,
          "midi": 89,
          "name": "F6",
          "velocity": 1,
          "duration": 0.18437499999998863,
          "ticks": 57300,
          "durationTicks": 59
        },
        {
          "time": 183.75,
          "midi": 89,
          "name": "F6",
          "velocity": 1,
          "duration": 0.18437499999998863,
          "ticks": 57360,
          "durationTicks": 59
        },
        {
          "time": 183.9375,
          "midi": 81,
          "name": "A5",
          "velocity": 1,
          "duration": 0.18437499999998863,
          "ticks": 57420,
          "durationTicks": 59
        },
        {
          "time": 184.125,
          "midi": 81,
          "name": "A5",
          "velocity": 1,
          "duration": 0.18437499999998863,
          "ticks": 57480,
          "durationTicks": 59
        },
        {
          "time": 184.3125,
          "midi": 86,
          "name": "D6",
          "velocity": 1,
          "duration": 0.18437499999998863,
          "ticks": 57540,
          "durationTicks": 59
        },
        {
          "time": 184.5,
          "midi": 86,
          "name": "D6",
          "velocity": 1,
          "duration": 0.18437499999998863,
          "ticks": 57600,
          "durationTicks": 59
        },
        {
          "time": 184.6875,
          "midi": 77,
          "name": "F5",
          "velocity": 1,
          "duration": 0.18437499999998863,
          "ticks": 57660,
          "durationTicks": 59
        },
        {
          "time": 184.875,
          "midi": 77,
          "name": "F5",
          "velocity": 1,
          "duration": 0.18437499999998863,
          "ticks": 57720,
          "durationTicks": 59
        },
        {
          "time": 185.0625,
          "midi": 81,
          "name": "A5",
          "velocity": 1,
          "duration": 0.18437499999998863,
          "ticks": 57780,
          "durationTicks": 59
        },
        {
          "time": 185.25,
          "midi": 81,
          "name": "A5",
          "velocity": 1,
          "duration": 0.18437499999998863,
          "ticks": 57840,
          "durationTicks": 59
        },
        {
          "time": 185.4375,
          "midi": 74,
          "name": "D5",
          "velocity": 1,
          "duration": 0.18437499999998863,
          "ticks": 57900,
          "durationTicks": 59
        },
        {
          "time": 185.625,
          "midi": 74,
          "name": "D5",
          "velocity": 1,
          "duration": 0.18437499999998863,
          "ticks": 57960,
          "durationTicks": 59
        },
        {
          "time": 185.625,
          "midi": 74,
          "name": "D5",
          "velocity": 1,
          "duration": 0.18437499999998863,
          "ticks": 57960,
          "durationTicks": 59
        },
        {
          "time": 185.8125,
          "midi": 86,
          "name": "D6",
          "velocity": 0.8818897637795275,
          "duration": 0.18437499999998863,
          "ticks": 58020,
          "durationTicks": 59
        },
        {
          "time": 185.8125,
          "midi": 89,
          "name": "F6",
          "velocity": 0.905511811023622,
          "duration": 0.18437499999998863,
          "ticks": 58020,
          "durationTicks": 59
        },
        {
          "time": 186,
          "midi": 89,
          "name": "F6",
          "velocity": 0.905511811023622,
          "duration": 0.18437499999998863,
          "ticks": 58080,
          "durationTicks": 59
        },
        {
          "time": 186,
          "midi": 86,
          "name": "D6",
          "velocity": 0.937007874015748,
          "duration": 0.18437499999998863,
          "ticks": 58080,
          "durationTicks": 59
        },
        {
          "time": 186.1875,
          "midi": 86,
          "name": "D6",
          "velocity": 0.7401574803149606,
          "duration": 0.18437499999998863,
          "ticks": 58140,
          "durationTicks": 59
        },
        {
          "time": 186.1875,
          "midi": 90,
          "name": "F#6",
          "velocity": 1,
          "duration": 0.18437499999998863,
          "ticks": 58140,
          "durationTicks": 59
        },
        {
          "time": 186.375,
          "midi": 86,
          "name": "D6",
          "velocity": 0.8267716535433071,
          "duration": 0.18437499999998863,
          "ticks": 58200,
          "durationTicks": 59
        },
        {
          "time": 186.375,
          "midi": 90,
          "name": "F#6",
          "velocity": 1,
          "duration": 0.18437499999998863,
          "ticks": 58200,
          "durationTicks": 59
        },
        {
          "time": 186.5625,
          "midi": 86,
          "name": "D6",
          "velocity": 0.905511811023622,
          "duration": 0.18437499999998863,
          "ticks": 58260,
          "durationTicks": 59
        },
        {
          "time": 186.5625,
          "midi": 91,
          "name": "G6",
          "velocity": 1,
          "duration": 0.18437499999998863,
          "ticks": 58260,
          "durationTicks": 59
        },
        {
          "time": 186.75,
          "midi": 86,
          "name": "D6",
          "velocity": 0.8031496062992126,
          "duration": 0.18437499999998863,
          "ticks": 58320,
          "durationTicks": 59
        },
        {
          "time": 186.75,
          "midi": 91,
          "name": "G6",
          "velocity": 0.9763779527559056,
          "duration": 0.18437499999998863,
          "ticks": 58320,
          "durationTicks": 59
        },
        {
          "time": 186.9375,
          "midi": 86,
          "name": "D6",
          "velocity": 0.8031496062992126,
          "duration": 0.18437499999998863,
          "ticks": 58380,
          "durationTicks": 59
        },
        {
          "time": 186.9375,
          "midi": 92,
          "name": "G#6",
          "velocity": 1,
          "duration": 0.18437499999998863,
          "ticks": 58380,
          "durationTicks": 59
        },
        {
          "time": 187.125,
          "midi": 86,
          "name": "D6",
          "velocity": 0.8267716535433071,
          "duration": 0.18437499999998863,
          "ticks": 58440,
          "durationTicks": 59
        },
        {
          "time": 187.125,
          "midi": 92,
          "name": "G#6",
          "velocity": 1,
          "duration": 0.18437499999998863,
          "ticks": 58440,
          "durationTicks": 59
        },
        {
          "time": 187.3125,
          "midi": 86,
          "name": "D6",
          "velocity": 1,
          "duration": 0.18437499999998863,
          "ticks": 58500,
          "durationTicks": 59
        },
        {
          "time": 187.3125,
          "midi": 86,
          "name": "D6",
          "velocity": 1,
          "duration": 0.18437499999998863,
          "ticks": 58500,
          "durationTicks": 59
        },
        {
          "time": 187.5,
          "midi": 86,
          "name": "D6",
          "velocity": 1,
          "duration": 0.18437499999998863,
          "ticks": 58560,
          "durationTicks": 59
        },
        {
          "time": 187.5,
          "midi": 86,
          "name": "D6",
          "velocity": 1,
          "duration": 0.18437499999998863,
          "ticks": 58560,
          "durationTicks": 59
        },
        {
          "time": 187.6875,
          "midi": 86,
          "name": "D6",
          "velocity": 1,
          "duration": 0.18437499999998863,
          "ticks": 58620,
          "durationTicks": 59
        },
        {
          "time": 187.6875,
          "midi": 89,
          "name": "F6",
          "velocity": 1,
          "duration": 0.18437499999998863,
          "ticks": 58620,
          "durationTicks": 59
        },
        {
          "time": 187.875,
          "midi": 86,
          "name": "D6",
          "velocity": 1,
          "duration": 0.18437499999998863,
          "ticks": 58680,
          "durationTicks": 59
        },
        {
          "time": 187.875,
          "midi": 89,
          "name": "F6",
          "velocity": 1,
          "duration": 0.18437499999998863,
          "ticks": 58680,
          "durationTicks": 59
        },
        {
          "time": 188.25,
          "midi": 81,
          "name": "A5",
          "velocity": 0.8818897637795275,
          "duration": 0.18437499999998863,
          "ticks": 58800,
          "durationTicks": 59
        },
        {
          "time": 188.25,
          "midi": 93,
          "name": "A6",
          "velocity": 1,
          "duration": 0.18437499999998863,
          "ticks": 58800,
          "durationTicks": 59
        },
        {
          "time": 206.571411,
          "midi": 88,
          "name": "E6",
          "velocity": 1,
          "duration": 0.2107140749999985,
          "ticks": 63960,
          "durationTicks": 59
        },
        {
          "time": 206.571411,
          "midi": 85,
          "name": "C#6",
          "velocity": 1,
          "duration": 0.2107140749999985,
          "ticks": 63960,
          "durationTicks": 59
        },
        {
          "time": 206.999982,
          "midi": 86,
          "name": "D6",
          "velocity": 0.8818897637795275,
          "duration": 0.2107140749999985,
          "ticks": 64080,
          "durationTicks": 59
        },
        {
          "time": 206.999982,
          "midi": 93,
          "name": "A6",
          "velocity": 1,
          "duration": 0.2107140749999985,
          "ticks": 64080,
          "durationTicks": 59
        },
        {
          "time": 207.2142675,
          "midi": 86,
          "name": "D6",
          "velocity": 0.9763779527559056,
          "duration": 0.2107140749999985,
          "ticks": 64140,
          "durationTicks": 59
        },
        {
          "time": 207.2142675,
          "midi": 93,
          "name": "A6",
          "velocity": 1,
          "duration": 0.2107140749999985,
          "ticks": 64140,
          "durationTicks": 59
        },
        {
          "time": 207.428553,
          "midi": 86,
          "name": "D6",
          "velocity": 1,
          "duration": 0.4249995750000153,
          "ticks": 64200,
          "durationTicks": 119
        },
        {
          "time": 207.428553,
          "midi": 81,
          "name": "A5",
          "velocity": 1,
          "duration": 0.4249995750000153,
          "ticks": 64200,
          "durationTicks": 119
        },
        {
          "time": 212.892834,
          "midi": 83,
          "name": "B5",
          "velocity": 1,
          "duration": 0.3687500000000057,
          "ticks": 65640,
          "durationTicks": 59
        },
        {
          "time": 212.892834,
          "midi": 86,
          "name": "D6",
          "velocity": 1,
          "duration": 0.3687500000000057,
          "ticks": 65640,
          "durationTicks": 59
        },
        {
          "time": 213.642834,
          "midi": 86,
          "name": "D6",
          "velocity": 1,
          "duration": 0.3687500000000057,
          "ticks": 65760,
          "durationTicks": 59
        },
        {
          "time": 213.642834,
          "midi": 91,
          "name": "G6",
          "velocity": 1,
          "duration": 0.3687500000000057,
          "ticks": 65760,
          "durationTicks": 59
        },
        {
          "time": 218.142834,
          "midi": 85,
          "name": "C#6",
          "velocity": 1,
          "duration": 0.3687500000000057,
          "ticks": 66480,
          "durationTicks": 59
        },
        {
          "time": 218.142834,
          "midi": 85,
          "name": "C#6",
          "velocity": 1,
          "duration": 0.3687500000000057,
          "ticks": 66480,
          "durationTicks": 59
        },
        {
          "time": 248.330334,
          "midi": 86,
          "name": "D6",
          "velocity": 0.6929133858267716,
          "duration": 0.18437499999998863,
          "ticks": 76020,
          "durationTicks": 59
        },
        {
          "time": 248.330334,
          "midi": 78,
          "name": "F#5",
          "velocity": 0.7086614173228346,
          "duration": 0.18437499999998863,
          "ticks": 76020,
          "durationTicks": 59
        },
        {
          "time": 248.517834,
          "midi": 79,
          "name": "G5",
          "velocity": 0.8818897637795275,
          "duration": 0.18437499999998863,
          "ticks": 76080,
          "durationTicks": 59
        },
        {
          "time": 248.517834,
          "midi": 88,
          "name": "E6",
          "velocity": 1,
          "duration": 0.18437499999998863,
          "ticks": 76080,
          "durationTicks": 59
        },
        {
          "time": 248.705334,
          "midi": 81,
          "name": "A5",
          "velocity": 0.8503937007874016,
          "duration": 0.18437499999998863,
          "ticks": 76140,
          "durationTicks": 59
        },
        {
          "time": 248.705334,
          "midi": 90,
          "name": "F#6",
          "velocity": 1,
          "duration": 0.18437499999998863,
          "ticks": 76140,
          "durationTicks": 59
        },
        {
          "time": 248.892834,
          "midi": 81,
          "name": "A5",
          "velocity": 1,
          "duration": 0.37187499999998863,
          "ticks": 76200,
          "durationTicks": 119
        },
        {
          "time": 248.892834,
          "midi": 91,
          "name": "G6",
          "velocity": 0.9763779527559056,
          "duration": 0.37187499999998863,
          "ticks": 76200,
          "durationTicks": 119
        },
        {
          "time": 249.267834,
          "midi": 85,
          "name": "C#6",
          "velocity": 1,
          "duration": 0.37187499999998863,
          "ticks": 76320,
          "durationTicks": 119
        },
        {
          "time": 249.455334,
          "midi": 81,
          "name": "A5",
          "velocity": 1,
          "duration": 0.18437499999998863,
          "ticks": 76380,
          "durationTicks": 59
        },
        {
          "time": 249.642834,
          "midi": 81,
          "name": "A5",
          "velocity": 0.9763779527559056,
          "duration": 0.37187499999998863,
          "ticks": 76440,
          "durationTicks": 119
        },
        {
          "time": 249.642834,
          "midi": 86,
          "name": "D6",
          "velocity": 0.9763779527559056,
          "duration": 0.37187499999998863,
          "ticks": 76440,
          "durationTicks": 119
        },
        {
          "time": 250.017834,
          "midi": 88,
          "name": "E6",
          "velocity": 0.937007874015748,
          "duration": 0.18437499999998863,
          "ticks": 76560,
          "durationTicks": 59
        },
        {
          "time": 250.205334,
          "midi": 81,
          "name": "A5",
          "velocity": 0.8503937007874016,
          "duration": 0.18437499999998863,
          "ticks": 76620,
          "durationTicks": 59
        },
        {
          "time": 250.205334,
          "midi": 90,
          "name": "F#6",
          "velocity": 1,
          "duration": 0.18437499999998863,
          "ticks": 76620,
          "durationTicks": 59
        },
        {
          "time": 250.392834,
          "midi": 81,
          "name": "A5",
          "velocity": 1,
          "duration": 0.37187499999998863,
          "ticks": 76680,
          "durationTicks": 119
        },
        {
          "time": 250.392834,
          "midi": 91,
          "name": "G6",
          "velocity": 0.8818897637795275,
          "duration": 0.18437499999998863,
          "ticks": 76680,
          "durationTicks": 59
        },
        {
          "time": 250.580334,
          "midi": 85,
          "name": "C#6",
          "velocity": 0.937007874015748,
          "duration": 0.18437499999998863,
          "ticks": 76740,
          "durationTicks": 59
        },
        {
          "time": 250.767834,
          "midi": 86,
          "name": "D6",
          "velocity": 0.905511811023622,
          "duration": 0.18437499999998863,
          "ticks": 76800,
          "durationTicks": 59
        },
        {
          "time": 250.955334,
          "midi": 81,
          "name": "A5",
          "velocity": 1,
          "duration": 0.18437499999998863,
          "ticks": 76860,
          "durationTicks": 59
        },
        {
          "time": 250.955334,
          "midi": 88,
          "name": "E6",
          "velocity": 0.905511811023622,
          "duration": 0.18437499999998863,
          "ticks": 76860,
          "durationTicks": 59
        },
        {
          "time": 251.142834,
          "midi": 81,
          "name": "A5",
          "velocity": 0.9763779527559056,
          "duration": 0.37187499999998863,
          "ticks": 76920,
          "durationTicks": 119
        },
        {
          "time": 251.142834,
          "midi": 86,
          "name": "D6",
          "velocity": 0.8503937007874016,
          "duration": 0.37187499999998863,
          "ticks": 76920,
          "durationTicks": 119
        },
        {
          "time": 251.517834,
          "midi": 88,
          "name": "E6",
          "velocity": 0.9763779527559056,
          "duration": 0.18437499999998863,
          "ticks": 77040,
          "durationTicks": 59
        },
        {
          "time": 251.705334,
          "midi": 81,
          "name": "A5",
          "velocity": 0.8503937007874016,
          "duration": 0.18437499999998863,
          "ticks": 77100,
          "durationTicks": 59
        },
        {
          "time": 251.705334,
          "midi": 90,
          "name": "F#6",
          "velocity": 1,
          "duration": 0.18437499999998863,
          "ticks": 77100,
          "durationTicks": 59
        },
        {
          "time": 251.892834,
          "midi": 81,
          "name": "A5",
          "velocity": 1,
          "duration": 0.37187499999998863,
          "ticks": 77160,
          "durationTicks": 119
        },
        {
          "time": 251.892834,
          "midi": 91,
          "name": "G6",
          "velocity": 0.6929133858267716,
          "duration": 0.18437499999998863,
          "ticks": 77160,
          "durationTicks": 59
        },
        {
          "time": 252.080334,
          "midi": 85,
          "name": "C#6",
          "velocity": 1,
          "duration": 0.18437499999998863,
          "ticks": 77220,
          "durationTicks": 59
        },
        {
          "time": 252.267834,
          "midi": 86,
          "name": "D6",
          "velocity": 0.9763779527559056,
          "duration": 0.18437499999998863,
          "ticks": 77280,
          "durationTicks": 59
        },
        {
          "time": 252.455334,
          "midi": 81,
          "name": "A5",
          "velocity": 1,
          "duration": 0.18437499999998863,
          "ticks": 77340,
          "durationTicks": 59
        },
        {
          "time": 252.455334,
          "midi": 88,
          "name": "E6",
          "velocity": 0.937007874015748,
          "duration": 0.18437499999998863,
          "ticks": 77340,
          "durationTicks": 59
        },
        {
          "time": 252.642834,
          "midi": 81,
          "name": "A5",
          "velocity": 0.9763779527559056,
          "duration": 0.37187499999998863,
          "ticks": 77400,
          "durationTicks": 119
        },
        {
          "time": 252.642834,
          "midi": 86,
          "name": "D6",
          "velocity": 0.7244094488188977,
          "duration": 0.18437499999998863,
          "ticks": 77400,
          "durationTicks": 59
        },
        {
          "time": 252.830334,
          "midi": 88,
          "name": "E6",
          "velocity": 1,
          "duration": 0.18437499999998863,
          "ticks": 77460,
          "durationTicks": 59
        },
        {
          "time": 253.017834,
          "midi": 90,
          "name": "F#6",
          "velocity": 1,
          "duration": 0.18437499999998863,
          "ticks": 77520,
          "durationTicks": 59
        },
        {
          "time": 253.205334,
          "midi": 79,
          "name": "G5",
          "velocity": 0.905511811023622,
          "duration": 0.37187499999998863,
          "ticks": 77580,
          "durationTicks": 119
        },
        {
          "time": 253.205334,
          "midi": 91,
          "name": "G6",
          "velocity": 0.8267716535433071,
          "duration": 0.37187499999998863,
          "ticks": 77580,
          "durationTicks": 119
        },
        {
          "time": 253.580334,
          "midi": 78,
          "name": "F#5",
          "velocity": 0.8818897637795275,
          "duration": 0.18437499999998863,
          "ticks": 77700,
          "durationTicks": 59
        },
        {
          "time": 253.580334,
          "midi": 90,
          "name": "F#6",
          "velocity": 1,
          "duration": 0.18437499999998863,
          "ticks": 77700,
          "durationTicks": 59
        },
        {
          "time": 253.767834,
          "midi": 79,
          "name": "G5",
          "velocity": 0.8503937007874016,
          "duration": 0.18437499999998863,
          "ticks": 77760,
          "durationTicks": 59
        },
        {
          "time": 253.767834,
          "midi": 91,
          "name": "G6",
          "velocity": 0.905511811023622,
          "duration": 0.18437499999998863,
          "ticks": 77760,
          "durationTicks": 59
        },
        {
          "time": 253.955334,
          "midi": 76,
          "name": "E5",
          "velocity": 0.7795275590551181,
          "duration": 0.18437499999998863,
          "ticks": 77820,
          "durationTicks": 59
        },
        {
          "time": 253.955334,
          "midi": 88,
          "name": "E6",
          "velocity": 0.937007874015748,
          "duration": 0.18437499999998863,
          "ticks": 77820,
          "durationTicks": 59
        },
        {
          "time": 254.142834,
          "midi": 74,
          "name": "D5",
          "velocity": 0.937007874015748,
          "duration": 0.18437499999998863,
          "ticks": 77880,
          "durationTicks": 59
        },
        {
          "time": 254.142834,
          "midi": 86,
          "name": "D6",
          "velocity": 0.8031496062992126,
          "duration": 0.18437499999998863,
          "ticks": 77880,
          "durationTicks": 59
        },
        {
          "time": 254.330334,
          "midi": 73,
          "name": "C#5",
          "velocity": 1,
          "duration": 0.18437499999998863,
          "ticks": 77940,
          "durationTicks": 59
        },
        {
          "time": 254.330334,
          "midi": 85,
          "name": "C#6",
          "velocity": 1,
          "duration": 0.18437499999998863,
          "ticks": 77940,
          "durationTicks": 59
        },
        {
          "time": 254.517834,
          "midi": 76,
          "name": "E5",
          "velocity": 0.905511811023622,
          "duration": 0.18437499999998863,
          "ticks": 78000,
          "durationTicks": 59
        },
        {
          "time": 254.517834,
          "midi": 88,
          "name": "E6",
          "velocity": 0.905511811023622,
          "duration": 0.18437499999998863,
          "ticks": 78000,
          "durationTicks": 59
        },
        {
          "time": 254.705334,
          "midi": 74,
          "name": "D5",
          "velocity": 0.9763779527559056,
          "duration": 0.18437499999998863,
          "ticks": 78060,
          "durationTicks": 59
        },
        {
          "time": 254.705334,
          "midi": 86,
          "name": "D6",
          "velocity": 0.9763779527559056,
          "duration": 0.18437499999998863,
          "ticks": 78060,
          "durationTicks": 59
        },
        {
          "time": 254.892834,
          "midi": 86,
          "name": "D6",
          "velocity": 1,
          "duration": 0.37187499999998863,
          "ticks": 78120,
          "durationTicks": 119
        },
        {
          "time": 254.892834,
          "midi": 93,
          "name": "A6",
          "velocity": 0.905511811023622,
          "duration": 0.18437499999998863,
          "ticks": 78120,
          "durationTicks": 59
        },
        {
          "time": 255.267834,
          "midi": 87,
          "name": "D#6",
          "velocity": 1,
          "duration": 0.37187499999998863,
          "ticks": 78240,
          "durationTicks": 119
        },
        {
          "time": 255.455334,
          "midi": 93,
          "name": "A6",
          "velocity": 0.9763779527559056,
          "duration": 0.09062499999998863,
          "ticks": 78300,
          "durationTicks": 29
        },
        {
          "time": 255.642834,
          "midi": 88,
          "name": "E6",
          "velocity": 0.905511811023622,
          "duration": 0.37187499999998863,
          "ticks": 78360,
          "durationTicks": 119
        },
        {
          "time": 255.642834,
          "midi": 93,
          "name": "A6",
          "velocity": 0.937007874015748,
          "duration": 0.18437499999998863,
          "ticks": 78360,
          "durationTicks": 59
        },
        {
          "time": 256.017834,
          "midi": 90,
          "name": "F#6",
          "velocity": 1,
          "duration": 0.37187499999998863,
          "ticks": 78480,
          "durationTicks": 119
        },
        {
          "time": 256.205334,
          "midi": 93,
          "name": "A6",
          "velocity": 1,
          "duration": 0.09062499999998863,
          "ticks": 78540,
          "durationTicks": 29
        },
        {
          "time": 256.392834,
          "midi": 83,
          "name": "B5",
          "velocity": 1,
          "duration": 0.37187499999998863,
          "ticks": 78600,
          "durationTicks": 119
        },
        {
          "time": 256.392834,
          "midi": 83,
          "name": "B5",
          "velocity": 1,
          "duration": 0.37187499999998863,
          "ticks": 78600,
          "durationTicks": 119
        },
        {
          "time": 256.955334,
          "midi": 83,
          "name": "B5",
          "velocity": 1,
          "duration": 0.18437499999998863,
          "ticks": 78780,
          "durationTicks": 59
        },
        {
          "time": 256.955334,
          "midi": 83,
          "name": "B5",
          "velocity": 1,
          "duration": 0.18437499999998863,
          "ticks": 78780,
          "durationTicks": 59
        },
        {
          "time": 257.142834,
          "midi": 83,
          "name": "B5",
          "velocity": 0.9763779527559056,
          "duration": 0.37187499999998863,
          "ticks": 78840,
          "durationTicks": 119
        },
        {
          "time": 257.142834,
          "midi": 83,
          "name": "B5",
          "velocity": 0.9763779527559056,
          "duration": 0.37187499999998863,
          "ticks": 78840,
          "durationTicks": 119
        },
        {
          "time": 257.705334,
          "midi": 85,
          "name": "C#6",
          "velocity": 0.8503937007874016,
          "duration": 0.18437499999998863,
          "ticks": 79020,
          "durationTicks": 59
        },
        {
          "time": 257.705334,
          "midi": 85,
          "name": "C#6",
          "velocity": 0.8503937007874016,
          "duration": 0.18437499999998863,
          "ticks": 79020,
          "durationTicks": 59
        },
        {
          "time": 257.892834,
          "midi": 86,
          "name": "D6",
          "velocity": 0.8503937007874016,
          "duration": 0.18437499999998863,
          "ticks": 79080,
          "durationTicks": 59
        },
        {
          "time": 257.892834,
          "midi": 86,
          "name": "D6",
          "velocity": 1,
          "duration": 0.18437499999998863,
          "ticks": 79080,
          "durationTicks": 59
        },
        {
          "time": 258.080334,
          "midi": 81,
          "name": "A5",
          "velocity": 0.8818897637795275,
          "duration": 0.18437499999998863,
          "ticks": 79140,
          "durationTicks": 59
        },
        {
          "time": 258.080334,
          "midi": 81,
          "name": "A5",
          "velocity": 0.9763779527559056,
          "duration": 0.18437499999998863,
          "ticks": 79140,
          "durationTicks": 59
        },
        {
          "time": 258.267834,
          "midi": 83,
          "name": "B5",
          "velocity": 1,
          "duration": 0.18437499999998863,
          "ticks": 79200,
          "durationTicks": 59
        },
        {
          "time": 258.267834,
          "midi": 83,
          "name": "B5",
          "velocity": 1,
          "duration": 0.18437499999998863,
          "ticks": 79200,
          "durationTicks": 59
        },
        {
          "time": 258.455334,
          "midi": 78,
          "name": "F#5",
          "velocity": 1,
          "duration": 0.18437499999998863,
          "ticks": 79260,
          "durationTicks": 59
        },
        {
          "time": 258.455334,
          "midi": 93,
          "name": "A6",
          "velocity": 0.937007874015748,
          "duration": 0.18437499999998863,
          "ticks": 79260,
          "durationTicks": 59
        },
        {
          "time": 258.642834,
          "midi": 79,
          "name": "G5",
          "velocity": 0.8503937007874016,
          "duration": 0.37187499999998863,
          "ticks": 79320,
          "durationTicks": 119
        },
        {
          "time": 258.642834,
          "midi": 91,
          "name": "G6",
          "velocity": 0.8818897637795275,
          "duration": 0.18437499999998863,
          "ticks": 79320,
          "durationTicks": 59
        },
        {
          "time": 258.830334,
          "midi": 90,
          "name": "F#6",
          "velocity": 1,
          "duration": 0.18437499999998863,
          "ticks": 79380,
          "durationTicks": 59
        },
        {
          "time": 259.017834,
          "midi": 81,
          "name": "A5",
          "velocity": 0.8818897637795275,
          "duration": 0.18437499999998863,
          "ticks": 79440,
          "durationTicks": 59
        },
        {
          "time": 259.017834,
          "midi": 88,
          "name": "E6",
          "velocity": 1,
          "duration": 0.18437499999998863,
          "ticks": 79440,
          "durationTicks": 59
        },
        {
          "time": 259.205334,
          "midi": 74,
          "name": "D5",
          "velocity": 0.8818897637795275,
          "duration": 0.18437499999998863,
          "ticks": 79500,
          "durationTicks": 59
        },
        {
          "time": 259.205334,
          "midi": 86,
          "name": "D6",
          "velocity": 1,
          "duration": 0.18437499999998863,
          "ticks": 79500,
          "durationTicks": 59
        },
        {
          "time": 259.392834,
          "midi": 73,
          "name": "C#5",
          "velocity": 1,
          "duration": 0.37187499999998863,
          "ticks": 79560,
          "durationTicks": 119
        },
        {
          "time": 259.392834,
          "midi": 91,
          "name": "G6",
          "velocity": 0.8031496062992126,
          "duration": 0.5593749999999886,
          "ticks": 79560,
          "durationTicks": 179
        },
        {
          "time": 259.767834,
          "midi": 85,
          "name": "C#6",
          "velocity": 1,
          "duration": 0.18437499999998863,
          "ticks": 79680,
          "durationTicks": 59
        },
        {
          "time": 259.955334,
          "midi": 86,
          "name": "D6",
          "velocity": 0.937007874015748,
          "duration": 0.18437499999998863,
          "ticks": 79740,
          "durationTicks": 59
        },
        {
          "time": 259.955334,
          "midi": 90,
          "name": "F#6",
          "velocity": 1,
          "duration": 0.18437499999998863,
          "ticks": 79740,
          "durationTicks": 59
        },
        {
          "time": 260.142834,
          "midi": 86,
          "name": "D6",
          "velocity": 0.905511811023622,
          "duration": 0.37187499999998863,
          "ticks": 79800,
          "durationTicks": 119
        },
        {
          "time": 260.142834,
          "midi": 90,
          "name": "F#6",
          "velocity": 1,
          "duration": 0.37187499999998863,
          "ticks": 79800,
          "durationTicks": 119
        },
        {
          "time": 260.705334,
          "midi": 86,
          "name": "D6",
          "velocity": 0.8503937007874016,
          "duration": 0.18437499999998863,
          "ticks": 79980,
          "durationTicks": 59
        },
        {
          "time": 260.705334,
          "midi": 90,
          "name": "F#6",
          "velocity": 1,
          "duration": 0.18437499999998863,
          "ticks": 79980,
          "durationTicks": 59
        },
        {
          "time": 260.892834,
          "midi": 93,
          "name": "A6",
          "velocity": 1,
          "duration": 0.37187499999998863,
          "ticks": 80040,
          "durationTicks": 119
        },
        {
          "time": 260.892834,
          "midi": 88,
          "name": "E6",
          "velocity": 1,
          "duration": 0.37187499999998863,
          "ticks": 80040,
          "durationTicks": 119
        },
        {
          "time": 261.455334,
          "midi": 93,
          "name": "A6",
          "velocity": 1,
          "duration": 0.18437499999998863,
          "ticks": 80220,
          "durationTicks": 59
        },
        {
          "time": 261.455334,
          "midi": 86,
          "name": "D6",
          "velocity": 1,
          "duration": 0.18437499999998863,
          "ticks": 80220,
          "durationTicks": 59
        },
        {
          "time": 261.642834,
          "midi": 93,
          "name": "A6",
          "velocity": 0.9763779527559056,
          "duration": 0.37187499999998863,
          "ticks": 80280,
          "durationTicks": 119
        },
        {
          "time": 261.642834,
          "midi": 86,
          "name": "D6",
          "velocity": 0.9763779527559056,
          "duration": 0.37187499999998863,
          "ticks": 80280,
          "durationTicks": 119
        },
        {
          "time": 262.205334,
          "midi": 90,
          "name": "F#6",
          "velocity": 0.8503937007874016,
          "duration": 0.18437499999998863,
          "ticks": 80460,
          "durationTicks": 59
        },
        {
          "time": 262.205334,
          "midi": 86,
          "name": "D6",
          "velocity": 0.8503937007874016,
          "duration": 0.18437499999998863,
          "ticks": 80460,
          "durationTicks": 59
        },
        {
          "time": 262.392834,
          "midi": 90,
          "name": "F#6",
          "velocity": 1,
          "duration": 0.37187499999998863,
          "ticks": 80520,
          "durationTicks": 119
        },
        {
          "time": 262.392834,
          "midi": 86,
          "name": "D6",
          "velocity": 1,
          "duration": 0.37187499999998863,
          "ticks": 80520,
          "durationTicks": 119
        },
        {
          "time": 262.955334,
          "midi": 91,
          "name": "G6",
          "velocity": 1,
          "duration": 0.18437499999998863,
          "ticks": 80700,
          "durationTicks": 59
        },
        {
          "time": 262.955334,
          "midi": 86,
          "name": "D6",
          "velocity": 1,
          "duration": 0.18437499999998863,
          "ticks": 80700,
          "durationTicks": 59
        },
        {
          "time": 263.142834,
          "midi": 91,
          "name": "G6",
          "velocity": 0.9763779527559056,
          "duration": 0.37187499999998863,
          "ticks": 80760,
          "durationTicks": 119
        },
        {
          "time": 263.142834,
          "midi": 86,
          "name": "D6",
          "velocity": 0.9763779527559056,
          "duration": 0.37187499999998863,
          "ticks": 80760,
          "durationTicks": 119
        },
        {
          "time": 263.705334,
          "midi": 88,
          "name": "E6",
          "velocity": 0.8503937007874016,
          "duration": 0.18437499999998863,
          "ticks": 80940,
          "durationTicks": 59
        },
        {
          "time": 263.705334,
          "midi": 91,
          "name": "G6",
          "velocity": 0.8503937007874016,
          "duration": 0.18437499999998863,
          "ticks": 80940,
          "durationTicks": 59
        },
        {
          "time": 263.892834,
          "midi": 91,
          "name": "G6",
          "velocity": 1,
          "duration": 0.37187499999998863,
          "ticks": 81000,
          "durationTicks": 119
        },
        {
          "time": 263.892834,
          "midi": 88,
          "name": "E6",
          "velocity": 1,
          "duration": 0.37187499999998863,
          "ticks": 81000,
          "durationTicks": 119
        },
        {
          "time": 264.455334,
          "midi": 91,
          "name": "G6",
          "velocity": 1,
          "duration": 0.18437499999998863,
          "ticks": 81180,
          "durationTicks": 59
        },
        {
          "time": 264.455334,
          "midi": 88,
          "name": "E6",
          "velocity": 1,
          "duration": 0.18437499999998863,
          "ticks": 81180,
          "durationTicks": 59
        },
        {
          "time": 264.642834,
          "midi": 91,
          "name": "G6",
          "velocity": 0.9763779527559056,
          "duration": 0.37187499999998863,
          "ticks": 81240,
          "durationTicks": 119
        },
        {
          "time": 264.642834,
          "midi": 88,
          "name": "E6",
          "velocity": 0.9763779527559056,
          "duration": 0.37187499999998863,
          "ticks": 81240,
          "durationTicks": 119
        },
        {
          "time": 265.205334,
          "midi": 88,
          "name": "E6",
          "velocity": 0.8503937007874016,
          "duration": 0.18437499999998863,
          "ticks": 81420,
          "durationTicks": 59
        },
        {
          "time": 265.205334,
          "midi": 91,
          "name": "G6",
          "velocity": 0.8503937007874016,
          "duration": 0.18437499999998863,
          "ticks": 81420,
          "durationTicks": 59
        },
        {
          "time": 265.392834,
          "midi": 90,
          "name": "F#6",
          "velocity": 1,
          "duration": 0.37187499999998863,
          "ticks": 81480,
          "durationTicks": 119
        },
        {
          "time": 265.392834,
          "midi": 86,
          "name": "D6",
          "velocity": 1,
          "duration": 0.37187499999998863,
          "ticks": 81480,
          "durationTicks": 119
        },
        {
          "time": 265.955334,
          "midi": 81,
          "name": "A5",
          "velocity": 1,
          "duration": 0.18437499999998863,
          "ticks": 81660,
          "durationTicks": 59
        },
        {
          "time": 265.955334,
          "midi": 93,
          "name": "A6",
          "velocity": 1,
          "duration": 0.18437499999998863,
          "ticks": 81660,
          "durationTicks": 59
        },
        {
          "time": 266.142834,
          "midi": 74,
          "name": "D5",
          "velocity": 0.9763779527559056,
          "duration": 0.37187499999998863,
          "ticks": 81720,
          "durationTicks": 119
        },
        {
          "time": 266.142834,
          "midi": 86,
          "name": "D6",
          "velocity": 0.9763779527559056,
          "duration": 0.37187499999998863,
          "ticks": 81720,
          "durationTicks": 119
        },
        {
          "time": 269.892834,
          "midi": 86,
          "name": "D6",
          "velocity": 1,
          "duration": 1.1218749999999886,
          "ticks": 82920,
          "durationTicks": 359
        },
        {
          "time": 271.017834,
          "midi": 85,
          "name": "C#6",
          "velocity": 1,
          "duration": 0.18437499999998863,
          "ticks": 83280,
          "durationTicks": 59
        },
        {
          "time": 271.205334,
          "midi": 83,
          "name": "B5",
          "velocity": 1,
          "duration": 0.18437499999998863,
          "ticks": 83340,
          "durationTicks": 59
        },
        {
          "time": 271.392834,
          "midi": 81,
          "name": "A5",
          "velocity": 1,
          "duration": 0.18437499999998863,
          "ticks": 83400,
          "durationTicks": 59
        },
        {
          "time": 271.580334,
          "midi": 86,
          "name": "D6",
          "velocity": 1,
          "duration": 0.18437499999998863,
          "ticks": 83460,
          "durationTicks": 59
        },
        {
          "time": 271.767834,
          "midi": 90,
          "name": "F#6",
          "velocity": 1,
          "duration": 0.18437499999998863,
          "ticks": 83520,
          "durationTicks": 59
        },
        {
          "time": 271.955334,
          "midi": 88,
          "name": "E6",
          "velocity": 1,
          "duration": 0.18437499999998863,
          "ticks": 83580,
          "durationTicks": 59
        },
        {
          "time": 272.142834,
          "midi": 88,
          "name": "E6",
          "velocity": 0.8818897637795275,
          "duration": 0.18437499999998863,
          "ticks": 83640,
          "durationTicks": 59
        },
        {
          "time": 272.330334,
          "midi": 91,
          "name": "G6",
          "velocity": 1,
          "duration": 0.18437499999998863,
          "ticks": 83700,
          "durationTicks": 59
        },
        {
          "time": 272.517834,
          "midi": 90,
          "name": "F#6",
          "velocity": 1,
          "duration": 0.18437499999998863,
          "ticks": 83760,
          "durationTicks": 59
        },
        {
          "time": 272.705334,
          "midi": 88,
          "name": "E6",
          "velocity": 1,
          "duration": 0.18437499999998863,
          "ticks": 83820,
          "durationTicks": 59
        },
        {
          "time": 272.892834,
          "midi": 86,
          "name": "D6",
          "velocity": 1,
          "duration": 0.37187499999998863,
          "ticks": 83880,
          "durationTicks": 119
        },
        {
          "time": 275.892834,
          "midi": 86,
          "name": "D6",
          "velocity": 0.8503937007874016,
          "duration": 1.1218749999999886,
          "ticks": 84840,
          "durationTicks": 359
        },
        {
          "time": 277.017834,
          "midi": 85,
          "name": "C#6",
          "velocity": 1,
          "duration": 0.18437499999998863,
          "ticks": 85200,
          "durationTicks": 59
        },
        {
          "time": 277.205334,
          "midi": 83,
          "name": "B5",
          "velocity": 0.6771653543307087,
          "duration": 0.18437499999998863,
          "ticks": 85260,
          "durationTicks": 59
        },
        {
          "time": 277.392834,
          "midi": 85,
          "name": "C#6",
          "velocity": 1,
          "duration": 0.18437499999998863,
          "ticks": 85320,
          "durationTicks": 59
        },
        {
          "time": 277.580334,
          "midi": 88,
          "name": "E6",
          "velocity": 0.8818897637795275,
          "duration": 0.18437499999998863,
          "ticks": 85380,
          "durationTicks": 59
        },
        {
          "time": 277.767834,
          "midi": 91,
          "name": "G6",
          "velocity": 0.8503937007874016,
          "duration": 0.18437499999998863,
          "ticks": 85440,
          "durationTicks": 59
        },
        {
          "time": 277.955334,
          "midi": 90,
          "name": "F#6",
          "velocity": 1,
          "duration": 0.18437499999998863,
          "ticks": 85500,
          "durationTicks": 59
        },
        {
          "time": 278.142834,
          "midi": 90,
          "name": "F#6",
          "velocity": 1,
          "duration": 0.18437499999998863,
          "ticks": 85560,
          "durationTicks": 59
        },
        {
          "time": 278.330334,
          "midi": 86,
          "name": "D6",
          "velocity": 0.8818897637795275,
          "duration": 0.18437499999998863,
          "ticks": 85620,
          "durationTicks": 59
        },
        {
          "time": 278.517834,
          "midi": 85,
          "name": "C#6",
          "velocity": 1,
          "duration": 0.18437499999998863,
          "ticks": 85680,
          "durationTicks": 59
        },
        {
          "time": 278.705334,
          "midi": 86,
          "name": "D6",
          "velocity": 0.937007874015748,
          "duration": 0.18437499999998863,
          "ticks": 85740,
          "durationTicks": 59
        },
        {
          "time": 278.892834,
          "midi": 88,
          "name": "E6",
          "velocity": 0.9763779527559056,
          "duration": 0.37187499999998863,
          "ticks": 85800,
          "durationTicks": 119
        },
        {
          "time": 279.830334,
          "midi": 81,
          "name": "A5",
          "velocity": 1,
          "duration": 0.18437499999998863,
          "ticks": 86100,
          "durationTicks": 59
        },
        {
          "time": 280.017834,
          "midi": 90,
          "name": "F#6",
          "velocity": 1,
          "duration": 0.18437499999998863,
          "ticks": 86160,
          "durationTicks": 59
        },
        {
          "time": 280.205334,
          "midi": 86,
          "name": "D6",
          "velocity": 0.6771653543307087,
          "duration": 0.18437499999998863,
          "ticks": 86220,
          "durationTicks": 59
        },
        {
          "time": 280.392834,
          "midi": 91,
          "name": "G6",
          "velocity": 1,
          "duration": 0.37187499999998863,
          "ticks": 86280,
          "durationTicks": 119
        },
        {
          "time": 281.330334,
          "midi": 81,
          "name": "A5",
          "velocity": 1,
          "duration": 0.18437499999998863,
          "ticks": 86580,
          "durationTicks": 59
        },
        {
          "time": 281.517834,
          "midi": 90,
          "name": "F#6",
          "velocity": 1,
          "duration": 0.18437499999998863,
          "ticks": 86640,
          "durationTicks": 59
        },
        {
          "time": 281.705334,
          "midi": 86,
          "name": "D6",
          "velocity": 0.6771653543307087,
          "duration": 0.18437499999998863,
          "ticks": 86700,
          "durationTicks": 59
        },
        {
          "time": 281.892834,
          "midi": 91,
          "name": "G6",
          "velocity": 1,
          "duration": 0.37187499999998863,
          "ticks": 86760,
          "durationTicks": 119
        },
        {
          "time": 282.455334,
          "midi": 85,
          "name": "C#6",
          "velocity": 1,
          "duration": 0.18437499999998863,
          "ticks": 86940,
          "durationTicks": 59
        },
        {
          "time": 282.642834,
          "midi": 90,
          "name": "F#6",
          "velocity": 1,
          "duration": 0.37187499999998863,
          "ticks": 87000,
          "durationTicks": 119
        },
        {
          "time": 283.205334,
          "midi": 78,
          "name": "F#5",
          "velocity": 0.8503937007874016,
          "duration": 0.18437499999998863,
          "ticks": 87180,
          "durationTicks": 59
        },
        {
          "time": 283.392834,
          "midi": 86,
          "name": "D6",
          "velocity": 0.8503937007874016,
          "duration": 0.37187499999998863,
          "ticks": 87240,
          "durationTicks": 119
        },
        {
          "time": 283.955334,
          "midi": 88,
          "name": "E6",
          "velocity": 1,
          "duration": 0.18437499999998863,
          "ticks": 87420,
          "durationTicks": 59
        },
        {
          "time": 284.142834,
          "midi": 81,
          "name": "A5",
          "velocity": 1,
          "duration": 0.37187499999998863,
          "ticks": 87480,
          "durationTicks": 119
        },
        {
          "time": 287.892834,
          "midi": 86,
          "name": "D6",
          "velocity": 0.9763779527559056,
          "duration": 1.1218749999999886,
          "ticks": 88680,
          "durationTicks": 359
        },
        {
          "time": 289.017834,
          "midi": 85,
          "name": "C#6",
          "velocity": 1,
          "duration": 0.18437499999998863,
          "ticks": 89040,
          "durationTicks": 59
        },
        {
          "time": 289.205334,
          "midi": 83,
          "name": "B5",
          "velocity": 1,
          "duration": 0.18437499999998863,
          "ticks": 89100,
          "durationTicks": 59
        },
        {
          "time": 289.392834,
          "midi": 85,
          "name": "C#6",
          "velocity": 1,
          "duration": 0.18437499999998863,
          "ticks": 89160,
          "durationTicks": 59
        },
        {
          "time": 289.580334,
          "midi": 88,
          "name": "E6",
          "velocity": 1,
          "duration": 0.18437499999998863,
          "ticks": 89220,
          "durationTicks": 59
        },
        {
          "time": 289.767834,
          "midi": 91,
          "name": "G6",
          "velocity": 0.8503937007874016,
          "duration": 0.18437499999998863,
          "ticks": 89280,
          "durationTicks": 59
        },
        {
          "time": 289.955334,
          "midi": 90,
          "name": "F#6",
          "velocity": 1,
          "duration": 0.18437499999998863,
          "ticks": 89340,
          "durationTicks": 59
        },
        {
          "time": 290.142834,
          "midi": 90,
          "name": "F#6",
          "velocity": 1,
          "duration": 0.18437499999998863,
          "ticks": 89400,
          "durationTicks": 59
        },
        {
          "time": 290.330334,
          "midi": 86,
          "name": "D6",
          "velocity": 0.8267716535433071,
          "duration": 0.18437499999998863,
          "ticks": 89460,
          "durationTicks": 59
        },
        {
          "time": 290.517834,
          "midi": 85,
          "name": "C#6",
          "velocity": 0.9763779527559056,
          "duration": 0.18437499999998863,
          "ticks": 89520,
          "durationTicks": 59
        },
        {
          "time": 290.705334,
          "midi": 86,
          "name": "D6",
          "velocity": 0.9763779527559056,
          "duration": 0.18437499999998863,
          "ticks": 89580,
          "durationTicks": 59
        },
        {
          "time": 290.892834,
          "midi": 88,
          "name": "E6",
          "velocity": 0.7401574803149606,
          "duration": 0.37187499999998863,
          "ticks": 89640,
          "durationTicks": 119
        },
        {
          "time": 290.892834,
          "midi": 85,
          "name": "C#6",
          "velocity": 0.7795275590551181,
          "duration": 0.37187499999998863,
          "ticks": 89640,
          "durationTicks": 119
        },
        {
          "time": 291.830334,
          "midi": 81,
          "name": "A5",
          "velocity": 0.968503937007874,
          "duration": 0.18437499999998863,
          "ticks": 89940,
          "durationTicks": 59
        },
        {
          "time": 291.830334,
          "midi": 81,
          "name": "A5",
          "velocity": 0.968503937007874,
          "duration": 0.18437499999998863,
          "ticks": 89940,
          "durationTicks": 59
        },
        {
          "time": 292.017834,
          "midi": 90,
          "name": "F#6",
          "velocity": 0.984251968503937,
          "duration": 0.18437499999998863,
          "ticks": 90000,
          "durationTicks": 59
        },
        {
          "time": 292.017834,
          "midi": 90,
          "name": "F#6",
          "velocity": 0.984251968503937,
          "duration": 0.18437499999998863,
          "ticks": 90000,
          "durationTicks": 59
        },
        {
          "time": 292.205334,
          "midi": 86,
          "name": "D6",
          "velocity": 1,
          "duration": 0.18437499999998863,
          "ticks": 90060,
          "durationTicks": 59
        },
        {
          "time": 292.205334,
          "midi": 86,
          "name": "D6",
          "velocity": 1,
          "duration": 0.18437499999998863,
          "ticks": 90060,
          "durationTicks": 59
        },
        {
          "time": 292.392834,
          "midi": 91,
          "name": "G6",
          "velocity": 1,
          "duration": 0.18437499999998863,
          "ticks": 90120,
          "durationTicks": 59
        },
        {
          "time": 292.392834,
          "midi": 91,
          "name": "G6",
          "velocity": 1,
          "duration": 0.18437499999998863,
          "ticks": 90120,
          "durationTicks": 59
        },
        {
          "time": 293.330334,
          "midi": 81,
          "name": "A5",
          "velocity": 1,
          "duration": 0.18437499999998863,
          "ticks": 90420,
          "durationTicks": 59
        },
        {
          "time": 293.330334,
          "midi": 81,
          "name": "A5",
          "velocity": 1,
          "duration": 0.18437499999998863,
          "ticks": 90420,
          "durationTicks": 59
        },
        {
          "time": 293.517834,
          "midi": 88,
          "name": "E6",
          "velocity": 1,
          "duration": 0.18437499999998863,
          "ticks": 90480,
          "durationTicks": 59
        },
        {
          "time": 293.517834,
          "midi": 88,
          "name": "E6",
          "velocity": 1,
          "duration": 0.18437499999998863,
          "ticks": 90480,
          "durationTicks": 59
        },
        {
          "time": 293.705334,
          "midi": 90,
          "name": "F#6",
          "velocity": 1,
          "duration": 0.18437499999998863,
          "ticks": 90540,
          "durationTicks": 59
        },
        {
          "time": 293.705334,
          "midi": 90,
          "name": "F#6",
          "velocity": 1,
          "duration": 0.18437499999998863,
          "ticks": 90540,
          "durationTicks": 59
        },
        {
          "time": 293.892834,
          "midi": 91,
          "name": "G6",
          "velocity": 1,
          "duration": 0.37187499999998863,
          "ticks": 90600,
          "durationTicks": 119
        },
        {
          "time": 293.892834,
          "midi": 91,
          "name": "G6",
          "velocity": 1,
          "duration": 0.37187499999998863,
          "ticks": 90600,
          "durationTicks": 119
        },
        {
          "time": 294.455334,
          "midi": 85,
          "name": "C#6",
          "velocity": 0.984251968503937,
          "duration": 0.18437499999998863,
          "ticks": 90780,
          "durationTicks": 59
        },
        {
          "time": 294.455334,
          "midi": 85,
          "name": "C#6",
          "velocity": 0.984251968503937,
          "duration": 0.18437499999998863,
          "ticks": 90780,
          "durationTicks": 59
        },
        {
          "time": 294.642834,
          "midi": 90,
          "name": "F#6",
          "velocity": 0.9763779527559056,
          "duration": 0.37187499999998863,
          "ticks": 90840,
          "durationTicks": 119
        },
        {
          "time": 294.642834,
          "midi": 90,
          "name": "F#6",
          "velocity": 0.9763779527559056,
          "duration": 0.37187499999998863,
          "ticks": 90840,
          "durationTicks": 119
        },
        {
          "time": 295.205334,
          "midi": 78,
          "name": "F#5",
          "velocity": 0.9606299212598425,
          "duration": 0.18437499999998863,
          "ticks": 91020,
          "durationTicks": 59
        },
        {
          "time": 295.205334,
          "midi": 78,
          "name": "F#5",
          "velocity": 0.9606299212598425,
          "duration": 0.18437499999998863,
          "ticks": 91020,
          "durationTicks": 59
        },
        {
          "time": 295.392834,
          "midi": 86,
          "name": "D6",
          "velocity": 0.952755905511811,
          "duration": 0.37187499999998863,
          "ticks": 91080,
          "durationTicks": 119
        },
        {
          "time": 295.392834,
          "midi": 86,
          "name": "D6",
          "velocity": 0.952755905511811,
          "duration": 0.37187499999998863,
          "ticks": 91080,
          "durationTicks": 119
        },
        {
          "time": 295.955334,
          "midi": 88,
          "name": "E6",
          "velocity": 0.9606299212598425,
          "duration": 0.18437499999998863,
          "ticks": 91260,
          "durationTicks": 59
        },
        {
          "time": 295.955334,
          "midi": 88,
          "name": "E6",
          "velocity": 0.9606299212598425,
          "duration": 0.18437499999998863,
          "ticks": 91260,
          "durationTicks": 59
        },
        {
          "time": 296.142834,
          "midi": 81,
          "name": "A5",
          "velocity": 0.968503937007874,
          "duration": 0.37187499999998863,
          "ticks": 91320,
          "durationTicks": 119
        },
        {
          "time": 296.142834,
          "midi": 81,
          "name": "A5",
          "velocity": 0.968503937007874,
          "duration": 0.37187499999998863,
          "ticks": 91320,
          "durationTicks": 119
        },
        {
          "time": 296.705334,
          "midi": 81,
          "name": "A5",
          "velocity": 0.9921259842519685,
          "duration": 0.18437499999998863,
          "ticks": 91500,
          "durationTicks": 59
        },
        {
          "time": 296.705334,
          "midi": 81,
          "name": "A5",
          "velocity": 0.9921259842519685,
          "duration": 0.18437499999998863,
          "ticks": 91500,
          "durationTicks": 59
        },
        {
          "time": 296.892834,
          "midi": 90,
          "name": "F#6",
          "velocity": 1,
          "duration": 0.18437499999998863,
          "ticks": 91560,
          "durationTicks": 59
        },
        {
          "time": 296.892834,
          "midi": 90,
          "name": "F#6",
          "velocity": 1,
          "duration": 0.18437499999998863,
          "ticks": 91560,
          "durationTicks": 59
        },
        {
          "time": 297.080334,
          "midi": 81,
          "name": "A5",
          "velocity": 1,
          "duration": 0.18437499999998863,
          "ticks": 91620,
          "durationTicks": 59
        },
        {
          "time": 297.080334,
          "midi": 81,
          "name": "A5",
          "velocity": 1,
          "duration": 0.18437499999998863,
          "ticks": 91620,
          "durationTicks": 59
        },
        {
          "time": 297.267834,
          "midi": 90,
          "name": "F#6",
          "velocity": 1,
          "duration": 0.37187499999998863,
          "ticks": 91680,
          "durationTicks": 119
        },
        {
          "time": 297.267834,
          "midi": 90,
          "name": "F#6",
          "velocity": 1,
          "duration": 0.37187499999998863,
          "ticks": 91680,
          "durationTicks": 119
        },
        {
          "time": 297.830334,
          "midi": 81,
          "name": "A5",
          "velocity": 0.9921259842519685,
          "duration": 0.18437499999998863,
          "ticks": 91860,
          "durationTicks": 59
        },
        {
          "time": 297.830334,
          "midi": 81,
          "name": "A5",
          "velocity": 0.9921259842519685,
          "duration": 0.18437499999998863,
          "ticks": 91860,
          "durationTicks": 59
        },
        {
          "time": 298.017834,
          "midi": 93,
          "name": "A6",
          "velocity": 0.984251968503937,
          "duration": 0.37187499999998863,
          "ticks": 91920,
          "durationTicks": 119
        },
        {
          "time": 298.017834,
          "midi": 93,
          "name": "A6",
          "velocity": 0.984251968503937,
          "duration": 0.37187499999998863,
          "ticks": 91920,
          "durationTicks": 119
        },
        {
          "time": 298.580334,
          "midi": 81,
          "name": "A5",
          "velocity": 0.9133858267716536,
          "duration": 0.18437499999998863,
          "ticks": 92100,
          "durationTicks": 59
        },
        {
          "time": 298.580334,
          "midi": 81,
          "name": "A5",
          "velocity": 0.9133858267716536,
          "duration": 0.18437499999998863,
          "ticks": 92100,
          "durationTicks": 59
        },
        {
          "time": 298.767834,
          "midi": 91,
          "name": "G6",
          "velocity": 0.8976377952755905,
          "duration": 0.37187499999998863,
          "ticks": 92160,
          "durationTicks": 119
        },
        {
          "time": 298.767834,
          "midi": 91,
          "name": "G6",
          "velocity": 0.8976377952755905,
          "duration": 0.37187499999998863,
          "ticks": 92160,
          "durationTicks": 119
        },
        {
          "time": 299.330334,
          "midi": 81,
          "name": "A5",
          "velocity": 0.8346456692913385,
          "duration": 0.18437499999998863,
          "ticks": 92340,
          "durationTicks": 59
        },
        {
          "time": 299.330334,
          "midi": 81,
          "name": "A5",
          "velocity": 0.8346456692913385,
          "duration": 0.18437499999998863,
          "ticks": 92340,
          "durationTicks": 59
        },
        {
          "time": 299.517834,
          "midi": 88,
          "name": "E6",
          "velocity": 0.8110236220472441,
          "duration": 0.37187499999998863,
          "ticks": 92400,
          "durationTicks": 119
        },
        {
          "time": 299.517834,
          "midi": 88,
          "name": "E6",
          "velocity": 0.8110236220472441,
          "duration": 0.37187499999998863,
          "ticks": 92400,
          "durationTicks": 119
        },
        {
          "time": 300.080334,
          "midi": 81,
          "name": "A5",
          "velocity": 0.7637795275590551,
          "duration": 0.18437499999998863,
          "ticks": 92580,
          "durationTicks": 59
        },
        {
          "time": 300.080334,
          "midi": 81,
          "name": "A5",
          "velocity": 0.7637795275590551,
          "duration": 0.18437499999998863,
          "ticks": 92580,
          "durationTicks": 59
        },
        {
          "time": 300.267834,
          "midi": 86,
          "name": "D6",
          "velocity": 0.7559055118110236,
          "duration": 0.37187499999998863,
          "ticks": 92640,
          "durationTicks": 119
        },
        {
          "time": 300.267834,
          "midi": 86,
          "name": "D6",
          "velocity": 0.7559055118110236,
          "duration": 0.37187499999998863,
          "ticks": 92640,
          "durationTicks": 119
        },
        {
          "time": 300.830334,
          "midi": 81,
          "name": "A5",
          "velocity": 0.7165354330708661,
          "duration": 0.18437499999998863,
          "ticks": 92820,
          "durationTicks": 59
        },
        {
          "time": 300.830334,
          "midi": 81,
          "name": "A5",
          "velocity": 0.7165354330708661,
          "duration": 0.18437499999998863,
          "ticks": 92820,
          "durationTicks": 59
        },
        {
          "time": 301.017834,
          "midi": 90,
          "name": "F#6",
          "velocity": 0.7086614173228346,
          "duration": 0.37187499999998863,
          "ticks": 92880,
          "durationTicks": 119
        },
        {
          "time": 301.017834,
          "midi": 90,
          "name": "F#6",
          "velocity": 0.7086614173228346,
          "duration": 0.37187499999998863,
          "ticks": 92880,
          "durationTicks": 119
        },
        {
          "time": 301.580334,
          "midi": 81,
          "name": "A5",
          "velocity": 0.6535433070866141,
          "duration": 0.18437499999998863,
          "ticks": 93060,
          "durationTicks": 59
        },
        {
          "time": 301.580334,
          "midi": 81,
          "name": "A5",
          "velocity": 0.6535433070866141,
          "duration": 0.18437499999998863,
          "ticks": 93060,
          "durationTicks": 59
        },
        {
          "time": 301.767834,
          "midi": 88,
          "name": "E6",
          "velocity": 0.6456692913385826,
          "duration": 0.18437499999998863,
          "ticks": 93120,
          "durationTicks": 59
        },
        {
          "time": 301.767834,
          "midi": 88,
          "name": "E6",
          "velocity": 0.6456692913385826,
          "duration": 0.18437499999998863,
          "ticks": 93120,
          "durationTicks": 59
        },
        {
          "time": 302.330334,
          "midi": 81,
          "name": "A5",
          "velocity": 0.6141732283464567,
          "duration": 0.18437499999998863,
          "ticks": 93300,
          "durationTicks": 59
        },
        {
          "time": 302.330334,
          "midi": 81,
          "name": "A5",
          "velocity": 0.6141732283464567,
          "duration": 0.18437499999998863,
          "ticks": 93300,
          "durationTicks": 59
        },
        {
          "time": 302.517834,
          "midi": 90,
          "name": "F#6",
          "velocity": 0.5984251968503937,
          "duration": 0.18437499999998863,
          "ticks": 93360,
          "durationTicks": 59
        },
        {
          "time": 302.517834,
          "midi": 86,
          "name": "D6",
          "velocity": 0.5984251968503937,
          "duration": 0.18437499999998863,
          "ticks": 93360,
          "durationTicks": 59
        },
        {
          "time": 302.892834,
          "midi": 91,
          "name": "G6",
          "velocity": 0.5984251968503937,
          "duration": 0.5593749999999886,
          "ticks": 93480,
          "durationTicks": 179
        },
        {
          "time": 302.892834,
          "midi": 88,
          "name": "E6",
          "velocity": 0.5984251968503937,
          "duration": 0.5593749999999886,
          "ticks": 93480,
          "durationTicks": 179
        },
        {
          "time": 303.455334,
          "midi": 90,
          "name": "F#6",
          "velocity": 0.5905511811023622,
          "duration": 0.18437499999998863,
          "ticks": 93660,
          "durationTicks": 59
        },
        {
          "time": 303.455334,
          "midi": 86,
          "name": "D6",
          "velocity": 0.5905511811023622,
          "duration": 0.18437499999998863,
          "ticks": 93660,
          "durationTicks": 59
        },
        {
          "time": 303.642834,
          "midi": 90,
          "name": "F#6",
          "velocity": 0.5905511811023622,
          "duration": 0.37187499999998863,
          "ticks": 93720,
          "durationTicks": 119
        },
        {
          "time": 303.642834,
          "midi": 86,
          "name": "D6",
          "velocity": 0.5905511811023622,
          "duration": 0.37187499999998863,
          "ticks": 93720,
          "durationTicks": 119
        },
        {
          "time": 304.017834,
          "midi": 86,
          "name": "D6",
          "velocity": 0.5905511811023622,
          "duration": 0.37187499999998863,
          "ticks": 93840,
          "durationTicks": 119
        },
        {
          "time": 304.017834,
          "midi": 74,
          "name": "D5",
          "velocity": 0.5905511811023622,
          "duration": 0.37187499999998863,
          "ticks": 93840,
          "durationTicks": 119
        },
        {
          "time": 304.392834,
          "midi": 90,
          "name": "F#6",
          "velocity": 0.6929133858267716,
          "duration": 0.5593749999999886,
          "ticks": 93960,
          "durationTicks": 179
        },
        {
          "time": 304.392834,
          "midi": 78,
          "name": "F#5",
          "velocity": 0.6535433070866141,
          "duration": 0.5593749999999886,
          "ticks": 93960,
          "durationTicks": 179
        },
        {
          "time": 304.955334,
          "midi": 79,
          "name": "G5",
          "velocity": 0.5433070866141733,
          "duration": 0.18437499999998863,
          "ticks": 94140,
          "durationTicks": 59
        },
        {
          "time": 304.955334,
          "midi": 91,
          "name": "G6",
          "velocity": 0.6929133858267716,
          "duration": 0.18437499999998863,
          "ticks": 94140,
          "durationTicks": 59
        },
        {
          "time": 305.142834,
          "midi": 91,
          "name": "G6",
          "velocity": 0.7401574803149606,
          "duration": 0.37187499999998863,
          "ticks": 94200,
          "durationTicks": 119
        },
        {
          "time": 305.142834,
          "midi": 79,
          "name": "G5",
          "velocity": 0.6771653543307087,
          "duration": 0.37187499999998863,
          "ticks": 94200,
          "durationTicks": 119
        },
        {
          "time": 305.517834,
          "midi": 91,
          "name": "G6",
          "velocity": 0.5905511811023622,
          "duration": 0.18437499999998863,
          "ticks": 94320,
          "durationTicks": 59
        },
        {
          "time": 305.517834,
          "midi": 83,
          "name": "B5",
          "velocity": 0.6062992125984252,
          "duration": 0.18437499999998863,
          "ticks": 94320,
          "durationTicks": 59
        },
        {
          "time": 305.705334,
          "midi": 88,
          "name": "E6",
          "velocity": 0.6614173228346457,
          "duration": 0.18437499999998863,
          "ticks": 94380,
          "durationTicks": 59
        },
        {
          "time": 305.705334,
          "midi": 79,
          "name": "G5",
          "velocity": 0.6220472440944882,
          "duration": 0.18437499999998863,
          "ticks": 94380,
          "durationTicks": 59
        },
        {
          "time": 305.892834,
          "midi": 78,
          "name": "F#5",
          "velocity": 0.8818897637795275,
          "duration": 0.18437499999998863,
          "ticks": 94440,
          "durationTicks": 59
        },
        {
          "time": 305.892834,
          "midi": 86,
          "name": "D6",
          "velocity": 0.8031496062992126,
          "duration": 0.18437499999998863,
          "ticks": 94440,
          "durationTicks": 59
        },
        {
          "time": 306.080334,
          "midi": 76,
          "name": "E5",
          "velocity": 0.5354330708661418,
          "duration": 0.18437499999998863,
          "ticks": 94500,
          "durationTicks": 59
        },
        {
          "time": 306.080334,
          "midi": 85,
          "name": "C#6",
          "velocity": 0.7086614173228346,
          "duration": 0.18437499999998863,
          "ticks": 94500,
          "durationTicks": 59
        },
        {
          "time": 306.267834,
          "midi": 79,
          "name": "G5",
          "velocity": 0.6614173228346457,
          "duration": 0.18437499999998863,
          "ticks": 94560,
          "durationTicks": 59
        },
        {
          "time": 306.267834,
          "midi": 88,
          "name": "E6",
          "velocity": 0.48031496062992124,
          "duration": 0.18437499999998863,
          "ticks": 94560,
          "durationTicks": 59
        },
        {
          "time": 306.455334,
          "midi": 76,
          "name": "E5",
          "velocity": 0.5196850393700787,
          "duration": 0.18437499999998863,
          "ticks": 94620,
          "durationTicks": 59
        },
        {
          "time": 306.455334,
          "midi": 85,
          "name": "C#6",
          "velocity": 0.905511811023622,
          "duration": 0.18437499999998863,
          "ticks": 94620,
          "durationTicks": 59
        },
        {
          "time": 306.642834,
          "midi": 74,
          "name": "D5",
          "velocity": 0.5748031496062992,
          "duration": 0.18437499999998863,
          "ticks": 94680,
          "durationTicks": 59
        },
        {
          "time": 306.642834,
          "midi": 83,
          "name": "B5",
          "velocity": 0.5511811023622047,
          "duration": 0.18437499999998863,
          "ticks": 94680,
          "durationTicks": 59
        },
        {
          "time": 306.830334,
          "midi": 73,
          "name": "C#5",
          "velocity": 0.6062992125984252,
          "duration": 0.18437499999998863,
          "ticks": 94740,
          "durationTicks": 59
        },
        {
          "time": 306.830334,
          "midi": 81,
          "name": "A5",
          "velocity": 0.6141732283464567,
          "duration": 0.18437499999998863,
          "ticks": 94740,
          "durationTicks": 59
        },
        {
          "time": 307.017834,
          "midi": 83,
          "name": "B5",
          "velocity": 0.5905511811023622,
          "duration": 0.18437499999998863,
          "ticks": 94800,
          "durationTicks": 59
        },
        {
          "time": 307.017834,
          "midi": 74,
          "name": "D5",
          "velocity": 0.7637795275590551,
          "duration": 0.18437499999998863,
          "ticks": 94800,
          "durationTicks": 59
        },
        {
          "time": 307.205334,
          "midi": 76,
          "name": "E5",
          "velocity": 0.5826771653543307,
          "duration": 0.18437499999998863,
          "ticks": 94860,
          "durationTicks": 59
        },
        {
          "time": 307.205334,
          "midi": 85,
          "name": "C#6",
          "velocity": 0.6377952755905512,
          "duration": 0.18437499999998863,
          "ticks": 94860,
          "durationTicks": 59
        },
        {
          "time": 307.392834,
          "midi": 78,
          "name": "F#5",
          "velocity": 0.5905511811023622,
          "duration": 0.18437499999998863,
          "ticks": 94920,
          "durationTicks": 59
        },
        {
          "time": 307.392834,
          "midi": 86,
          "name": "D6",
          "velocity": 0.5826771653543307,
          "duration": 0.18437499999998863,
          "ticks": 94920,
          "durationTicks": 59
        },
        {
          "time": 307.580334,
          "midi": 81,
          "name": "A5",
          "velocity": 0.4409448818897638,
          "duration": 0.18437499999998863,
          "ticks": 94980,
          "durationTicks": 59
        },
        {
          "time": 307.580334,
          "midi": 90,
          "name": "F#6",
          "velocity": 0.5748031496062992,
          "duration": 0.18437499999998863,
          "ticks": 94980,
          "durationTicks": 59
        },
        {
          "time": 307.767834,
          "midi": 79,
          "name": "G5",
          "velocity": 0.5275590551181102,
          "duration": 0.18437499999998863,
          "ticks": 95040,
          "durationTicks": 59
        },
        {
          "time": 307.767834,
          "midi": 88,
          "name": "E6",
          "velocity": 0.5433070866141733,
          "duration": 0.18437499999998863,
          "ticks": 95040,
          "durationTicks": 59
        },
        {
          "time": 307.955334,
          "midi": 76,
          "name": "E5",
          "velocity": 0.5669291338582677,
          "duration": 0.18437499999998863,
          "ticks": 95100,
          "durationTicks": 59
        },
        {
          "time": 307.955334,
          "midi": 85,
          "name": "C#6",
          "velocity": 0.7637795275590551,
          "duration": 0.18437499999998863,
          "ticks": 95100,
          "durationTicks": 59
        },
        {
          "time": 308.142834,
          "midi": 78,
          "name": "F#5",
          "velocity": 0.7401574803149606,
          "duration": 0.37187499999998863,
          "ticks": 95160,
          "durationTicks": 119
        },
        {
          "time": 308.142834,
          "midi": 86,
          "name": "D6",
          "velocity": 0.6535433070866141,
          "duration": 0.37187499999998863,
          "ticks": 95160,
          "durationTicks": 119
        },
        {
          "time": 317.892834,
          "midi": 74,
          "name": "D5",
          "velocity": 1,
          "duration": 0.18437499999998863,
          "ticks": 98280,
          "durationTicks": 59
        },
        {
          "time": 318.080334,
          "midi": 76,
          "name": "E5",
          "velocity": 1,
          "duration": 0.18437499999998863,
          "ticks": 98340,
          "durationTicks": 59
        },
        {
          "time": 318.267834,
          "midi": 78,
          "name": "F#5",
          "velocity": 1,
          "duration": 0.18437499999998863,
          "ticks": 98400,
          "durationTicks": 59
        },
        {
          "time": 318.455334,
          "midi": 79,
          "name": "G5",
          "velocity": 1,
          "duration": 0.18437499999998863,
          "ticks": 98460,
          "durationTicks": 59
        },
        {
          "time": 318.642834,
          "midi": 81,
          "name": "A5",
          "velocity": 1,
          "duration": 0.18437499999998863,
          "ticks": 98520,
          "durationTicks": 59
        },
        {
          "time": 318.830334,
          "midi": 83,
          "name": "B5",
          "velocity": 1,
          "duration": 0.18437499999998863,
          "ticks": 98580,
          "durationTicks": 59
        },
        {
          "time": 319.017834,
          "midi": 85,
          "name": "C#6",
          "velocity": 1,
          "duration": 0.18437499999998863,
          "ticks": 98640,
          "durationTicks": 59
        },
        {
          "time": 319.205334,
          "midi": 86,
          "name": "D6",
          "velocity": 0.9763779527559056,
          "duration": 0.18437499999998863,
          "ticks": 98700,
          "durationTicks": 59
        },
        {
          "time": 319.392834,
          "midi": 86,
          "name": "D6",
          "velocity": 0.9763779527559056,
          "duration": 0.18437499999998863,
          "ticks": 98760,
          "durationTicks": 59
        },
        {
          "time": 319.580334,
          "midi": 85,
          "name": "C#6",
          "velocity": 1,
          "duration": 0.18437499999998863,
          "ticks": 98820,
          "durationTicks": 59
        },
        {
          "time": 319.767834,
          "midi": 83,
          "name": "B5",
          "velocity": 1,
          "duration": 0.18437499999998863,
          "ticks": 98880,
          "durationTicks": 59
        },
        {
          "time": 319.955334,
          "midi": 85,
          "name": "C#6",
          "velocity": 1,
          "duration": 0.18437499999998863,
          "ticks": 98940,
          "durationTicks": 59
        },
        {
          "time": 320.142834,
          "midi": 86,
          "name": "D6",
          "velocity": 1,
          "duration": 0.18437499999998863,
          "ticks": 99000,
          "durationTicks": 59
        },
        {
          "time": 320.330334,
          "midi": 81,
          "name": "A5",
          "velocity": 1,
          "duration": 0.18437499999998863,
          "ticks": 99060,
          "durationTicks": 59
        },
        {
          "time": 320.517834,
          "midi": 85,
          "name": "C#6",
          "velocity": 1,
          "duration": 0.18437499999998863,
          "ticks": 99120,
          "durationTicks": 59
        },
        {
          "time": 320.705334,
          "midi": 86,
          "name": "D6",
          "velocity": 1,
          "duration": 0.18437499999998863,
          "ticks": 99180,
          "durationTicks": 59
        },
        {
          "time": 320.892834,
          "midi": 90,
          "name": "F#6",
          "velocity": 1,
          "duration": 0.18437499999998863,
          "ticks": 99240,
          "durationTicks": 59
        },
        {
          "time": 321.080334,
          "midi": 88,
          "name": "E6",
          "velocity": 0.937007874015748,
          "duration": 0.18437499999998863,
          "ticks": 99300,
          "durationTicks": 59
        },
        {
          "time": 321.267834,
          "midi": 86,
          "name": "D6",
          "velocity": 1,
          "duration": 0.18437499999998863,
          "ticks": 99360,
          "durationTicks": 59
        },
        {
          "time": 321.455334,
          "midi": 88,
          "name": "E6",
          "velocity": 1,
          "duration": 0.18437499999998863,
          "ticks": 99420,
          "durationTicks": 59
        },
        {
          "time": 322.392834,
          "midi": 90,
          "name": "F#6",
          "velocity": 1,
          "duration": 0.18437499999998863,
          "ticks": 99720,
          "durationTicks": 59
        },
        {
          "time": 322.580334,
          "midi": 88,
          "name": "E6",
          "velocity": 1,
          "duration": 0.18437499999998863,
          "ticks": 99780,
          "durationTicks": 59
        },
        {
          "time": 322.767834,
          "midi": 86,
          "name": "D6",
          "velocity": 1,
          "duration": 0.18437499999998863,
          "ticks": 99840,
          "durationTicks": 59
        },
        {
          "time": 322.955334,
          "midi": 88,
          "name": "E6",
          "velocity": 1,
          "duration": 0.18437499999998863,
          "ticks": 99900,
          "durationTicks": 59
        },
        {
          "time": 324.267834,
          "midi": 86,
          "name": "D6",
          "velocity": 0.937007874015748,
          "duration": 0.18437499999998863,
          "ticks": 100320,
          "durationTicks": 59
        },
        {
          "time": 324.455334,
          "midi": 88,
          "name": "E6",
          "velocity": 1,
          "duration": 0.18437499999998863,
          "ticks": 100380,
          "durationTicks": 59
        },
        {
          "time": 325.017834,
          "midi": 90,
          "name": "F#6",
          "velocity": 0.9763779527559056,
          "duration": 0.18437499999998863,
          "ticks": 100560,
          "durationTicks": 59
        },
        {
          "time": 325.205334,
          "midi": 88,
          "name": "E6",
          "velocity": 0.9763779527559056,
          "duration": 0.18437499999998863,
          "ticks": 100620,
          "durationTicks": 59
        },
        {
          "time": 325.767834,
          "midi": 86,
          "name": "D6",
          "velocity": 0.9763779527559056,
          "duration": 0.18437499999998863,
          "ticks": 100800,
          "durationTicks": 59
        },
        {
          "time": 325.955334,
          "midi": 88,
          "name": "E6",
          "velocity": 0.9763779527559056,
          "duration": 0.18437499999998863,
          "ticks": 100860,
          "durationTicks": 59
        },
        {
          "time": 326.517834,
          "midi": 81,
          "name": "A5",
          "velocity": 0.905511811023622,
          "duration": 0.18437499999998863,
          "ticks": 101040,
          "durationTicks": 59
        },
        {
          "time": 326.705334,
          "midi": 90,
          "name": "F#6",
          "velocity": 1,
          "duration": 0.18437499999998863,
          "ticks": 101100,
          "durationTicks": 59
        },
        {
          "time": 326.892834,
          "midi": 90,
          "name": "F#6",
          "velocity": 1,
          "duration": 0.37187499999998863,
          "ticks": 101160,
          "durationTicks": 119
        },
        {
          "time": 327.267834,
          "midi": 88,
          "name": "E6",
          "velocity": 0.905511811023622,
          "duration": 0.18437499999998863,
          "ticks": 101280,
          "durationTicks": 59
        },
        {
          "time": 327.455334,
          "midi": 90,
          "name": "F#6",
          "velocity": 1,
          "duration": 0.18437499999998863,
          "ticks": 101340,
          "durationTicks": 59
        },
        {
          "time": 328.017834,
          "midi": 86,
          "name": "D6",
          "velocity": 0.7795275590551181,
          "duration": 0.37187499999998863,
          "ticks": 101520,
          "durationTicks": 119
        },
        {
          "time": 328.767834,
          "midi": 86,
          "name": "D6",
          "velocity": 0.8818897637795275,
          "duration": 0.37187499999998863,
          "ticks": 101760,
          "durationTicks": 119
        },
        {
          "time": 329.517834,
          "midi": 91,
          "name": "G6",
          "velocity": 0.8503937007874016,
          "duration": 0.18437499999998863,
          "ticks": 102000,
          "durationTicks": 59
        },
        {
          "time": 329.705334,
          "midi": 88,
          "name": "E6",
          "velocity": 0.9763779527559056,
          "duration": 0.18437499999998863,
          "ticks": 102060,
          "durationTicks": 59
        },
        {
          "time": 330.267834,
          "midi": 85,
          "name": "C#6",
          "velocity": 1,
          "duration": 0.18437499999998863,
          "ticks": 102240,
          "durationTicks": 59
        },
        {
          "time": 330.455334,
          "midi": 86,
          "name": "D6",
          "velocity": 1,
          "duration": 0.18437499999998863,
          "ticks": 102300,
          "durationTicks": 59
        },
        {
          "time": 332.517834,
          "midi": 88,
          "name": "E6",
          "velocity": 1,
          "duration": 0.18437499999998863,
          "ticks": 102960,
          "durationTicks": 59
        },
        {
          "time": 332.517834,
          "midi": 91,
          "name": "G6",
          "velocity": 1,
          "duration": 0.18437499999998863,
          "ticks": 102960,
          "durationTicks": 59
        },
        {
          "time": 332.705334,
          "midi": 86,
          "name": "D6",
          "velocity": 0.8818897637795275,
          "duration": 0.18437499999998863,
          "ticks": 103020,
          "durationTicks": 59
        },
        {
          "time": 332.705334,
          "midi": 90,
          "name": "F#6",
          "velocity": 1,
          "duration": 0.18437499999998863,
          "ticks": 103020,
          "durationTicks": 59
        },
        {
          "time": 332.892834,
          "midi": 86,
          "name": "D6",
          "velocity": 0.937007874015748,
          "duration": 0.18437499999998863,
          "ticks": 103080,
          "durationTicks": 59
        },
        {
          "time": 332.892834,
          "midi": 90,
          "name": "F#6",
          "velocity": 1,
          "duration": 0.18437499999998863,
          "ticks": 103080,
          "durationTicks": 59
        },
        {
          "time": 333.080334,
          "midi": 88,
          "name": "E6",
          "velocity": 0.9763779527559056,
          "duration": 0.18437499999998863,
          "ticks": 103140,
          "durationTicks": 59
        },
        {
          "time": 333.080334,
          "midi": 85,
          "name": "C#6",
          "velocity": 1,
          "duration": 0.18437499999998863,
          "ticks": 103140,
          "durationTicks": 59
        },
        {
          "time": 333.267834,
          "midi": 83,
          "name": "B5",
          "velocity": 0.8267716535433071,
          "duration": 0.18437499999998863,
          "ticks": 103200,
          "durationTicks": 59
        },
        {
          "time": 333.267834,
          "midi": 86,
          "name": "D6",
          "velocity": 0.9763779527559056,
          "duration": 0.18437499999998863,
          "ticks": 103200,
          "durationTicks": 59
        },
        {
          "time": 333.455334,
          "midi": 85,
          "name": "C#6",
          "velocity": 1,
          "duration": 0.18437499999998863,
          "ticks": 103260,
          "durationTicks": 59
        },
        {
          "time": 333.455334,
          "midi": 88,
          "name": "E6",
          "velocity": 1,
          "duration": 0.18437499999998863,
          "ticks": 103260,
          "durationTicks": 59
        },
        {
          "time": 333.642834,
          "midi": 91,
          "name": "G6",
          "velocity": 0.7795275590551181,
          "duration": 0.18437499999998863,
          "ticks": 103320,
          "durationTicks": 59
        },
        {
          "time": 333.642834,
          "midi": 88,
          "name": "E6",
          "velocity": 0.8031496062992126,
          "duration": 0.18437499999998863,
          "ticks": 103320,
          "durationTicks": 59
        },
        {
          "time": 333.830334,
          "midi": 86,
          "name": "D6",
          "velocity": 0.8818897637795275,
          "duration": 0.18437499999998863,
          "ticks": 103380,
          "durationTicks": 59
        },
        {
          "time": 333.830334,
          "midi": 90,
          "name": "F#6",
          "velocity": 0.937007874015748,
          "duration": 0.18437499999998863,
          "ticks": 103380,
          "durationTicks": 59
        },
        {
          "time": 334.017834,
          "midi": 79,
          "name": "G5",
          "velocity": 0.7795275590551181,
          "duration": 0.18437499999998863,
          "ticks": 103440,
          "durationTicks": 59
        },
        {
          "time": 334.017834,
          "midi": 88,
          "name": "E6",
          "velocity": 0.6771653543307087,
          "duration": 0.18437499999998863,
          "ticks": 103440,
          "durationTicks": 59
        },
        {
          "time": 334.205334,
          "midi": 78,
          "name": "F#5",
          "velocity": 1,
          "duration": 0.18437499999998863,
          "ticks": 103500,
          "durationTicks": 59
        },
        {
          "time": 334.205334,
          "midi": 86,
          "name": "D6",
          "velocity": 1,
          "duration": 0.18437499999998863,
          "ticks": 103500,
          "durationTicks": 59
        },
        {
          "time": 334.392834,
          "midi": 86,
          "name": "D6",
          "velocity": 0.7637795275590551,
          "duration": 0.18437499999998863,
          "ticks": 103560,
          "durationTicks": 59
        },
        {
          "time": 334.392834,
          "midi": 90,
          "name": "F#6",
          "velocity": 1,
          "duration": 0.18437499999998863,
          "ticks": 103560,
          "durationTicks": 59
        },
        {
          "time": 334.580334,
          "midi": 88,
          "name": "E6",
          "velocity": 0.937007874015748,
          "duration": 0.18437499999998863,
          "ticks": 103620,
          "durationTicks": 59
        },
        {
          "time": 334.580334,
          "midi": 85,
          "name": "C#6",
          "velocity": 1,
          "duration": 0.18437499999998863,
          "ticks": 103620,
          "durationTicks": 59
        },
        {
          "time": 334.767834,
          "midi": 83,
          "name": "B5",
          "velocity": 0.6771653543307087,
          "duration": 0.18437499999998863,
          "ticks": 103680,
          "durationTicks": 59
        },
        {
          "time": 334.767834,
          "midi": 86,
          "name": "D6",
          "velocity": 0.9763779527559056,
          "duration": 0.18437499999998863,
          "ticks": 103680,
          "durationTicks": 59
        },
        {
          "time": 334.955334,
          "midi": 88,
          "name": "E6",
          "velocity": 0.8818897637795275,
          "duration": 0.18437499999998863,
          "ticks": 103740,
          "durationTicks": 59
        },
        {
          "time": 334.955334,
          "midi": 85,
          "name": "C#6",
          "velocity": 0.8818897637795275,
          "duration": 0.18437499999998863,
          "ticks": 103740,
          "durationTicks": 59
        },
        {
          "time": 335.142834,
          "midi": 91,
          "name": "G6",
          "velocity": 0.7086614173228346,
          "duration": 0.18437499999998863,
          "ticks": 103800,
          "durationTicks": 59
        },
        {
          "time": 335.142834,
          "midi": 88,
          "name": "E6",
          "velocity": 0.7795275590551181,
          "duration": 0.18437499999998863,
          "ticks": 103800,
          "durationTicks": 59
        },
        {
          "time": 335.330334,
          "midi": 86,
          "name": "D6",
          "velocity": 0.9763779527559056,
          "duration": 0.18437499999998863,
          "ticks": 103860,
          "durationTicks": 59
        },
        {
          "time": 335.330334,
          "midi": 90,
          "name": "F#6",
          "velocity": 1,
          "duration": 0.18437499999998863,
          "ticks": 103860,
          "durationTicks": 59
        },
        {
          "time": 335.517834,
          "midi": 79,
          "name": "G5",
          "velocity": 0.7086614173228346,
          "duration": 0.18437499999998863,
          "ticks": 103920,
          "durationTicks": 59
        },
        {
          "time": 335.517834,
          "midi": 88,
          "name": "E6",
          "velocity": 0.8503937007874016,
          "duration": 0.18437499999998863,
          "ticks": 103920,
          "durationTicks": 59
        },
        {
          "time": 335.705334,
          "midi": 78,
          "name": "F#5",
          "velocity": 0.937007874015748,
          "duration": 0.18437499999998863,
          "ticks": 103980,
          "durationTicks": 59
        },
        {
          "time": 335.705334,
          "midi": 86,
          "name": "D6",
          "velocity": 1,
          "duration": 0.18437499999998863,
          "ticks": 103980,
          "durationTicks": 59
        },
        {
          "time": 335.892834,
          "midi": 86,
          "name": "D6",
          "velocity": 0.8267716535433071,
          "duration": 0.18437499999998863,
          "ticks": 104040,
          "durationTicks": 59
        },
        {
          "time": 335.892834,
          "midi": 90,
          "name": "F#6",
          "velocity": 0.8818897637795275,
          "duration": 0.18437499999998863,
          "ticks": 104040,
          "durationTicks": 59
        },
        {
          "time": 336.080334,
          "midi": 85,
          "name": "C#6",
          "velocity": 0.9763779527559056,
          "duration": 0.18437499999998863,
          "ticks": 104100,
          "durationTicks": 59
        },
        {
          "time": 336.080334,
          "midi": 88,
          "name": "E6",
          "velocity": 0.8267716535433071,
          "duration": 0.18437499999998863,
          "ticks": 104100,
          "durationTicks": 59
        },
        {
          "time": 336.267834,
          "midi": 83,
          "name": "B5",
          "velocity": 0.6614173228346457,
          "duration": 0.18437499999998863,
          "ticks": 104160,
          "durationTicks": 59
        },
        {
          "time": 336.267834,
          "midi": 86,
          "name": "D6",
          "velocity": 0.8818897637795275,
          "duration": 0.18437499999998863,
          "ticks": 104160,
          "durationTicks": 59
        },
        {
          "time": 336.455334,
          "midi": 88,
          "name": "E6",
          "velocity": 0.905511811023622,
          "duration": 0.18437499999998863,
          "ticks": 104220,
          "durationTicks": 59
        },
        {
          "time": 336.455334,
          "midi": 85,
          "name": "C#6",
          "velocity": 1,
          "duration": 0.18437499999998863,
          "ticks": 104220,
          "durationTicks": 59
        },
        {
          "time": 336.642834,
          "midi": 91,
          "name": "G6",
          "velocity": 0.7795275590551181,
          "duration": 0.18437499999998863,
          "ticks": 104280,
          "durationTicks": 59
        },
        {
          "time": 336.642834,
          "midi": 88,
          "name": "E6",
          "velocity": 0.9763779527559056,
          "duration": 0.18437499999998863,
          "ticks": 104280,
          "durationTicks": 59
        },
        {
          "time": 336.830334,
          "midi": 86,
          "name": "D6",
          "velocity": 0.8818897637795275,
          "duration": 0.18437499999998863,
          "ticks": 104340,
          "durationTicks": 59
        },
        {
          "time": 336.830334,
          "midi": 90,
          "name": "F#6",
          "velocity": 0.9763779527559056,
          "duration": 0.18437499999998863,
          "ticks": 104340,
          "durationTicks": 59
        },
        {
          "time": 337.017834,
          "midi": 86,
          "name": "D6",
          "velocity": 0.9763779527559056,
          "duration": 0.18437499999998863,
          "ticks": 104400,
          "durationTicks": 59
        },
        {
          "time": 337.017834,
          "midi": 90,
          "name": "F#6",
          "velocity": 1,
          "duration": 0.18437499999998863,
          "ticks": 104400,
          "durationTicks": 59
        },
        {
          "time": 337.205334,
          "midi": 85,
          "name": "C#6",
          "velocity": 1,
          "duration": 0.18437499999998863,
          "ticks": 104460,
          "durationTicks": 59
        },
        {
          "time": 337.205334,
          "midi": 88,
          "name": "E6",
          "velocity": 0.9763779527559056,
          "duration": 0.18437499999998863,
          "ticks": 104460,
          "durationTicks": 59
        },
        {
          "time": 337.392834,
          "midi": 88,
          "name": "E6",
          "velocity": 0.7637795275590551,
          "duration": 0.18437499999998863,
          "ticks": 104520,
          "durationTicks": 59
        },
        {
          "time": 337.392834,
          "midi": 85,
          "name": "C#6",
          "velocity": 1,
          "duration": 0.18437499999998863,
          "ticks": 104520,
          "durationTicks": 59
        },
        {
          "time": 337.580334,
          "midi": 83,
          "name": "B5",
          "velocity": 0.8503937007874016,
          "duration": 0.18437499999998863,
          "ticks": 104580,
          "durationTicks": 59
        },
        {
          "time": 337.580334,
          "midi": 86,
          "name": "D6",
          "velocity": 1,
          "duration": 0.18437499999998863,
          "ticks": 104580,
          "durationTicks": 59
        },
        {
          "time": 337.767834,
          "midi": 83,
          "name": "B5",
          "velocity": 0.8267716535433071,
          "duration": 0.18437499999998863,
          "ticks": 104640,
          "durationTicks": 59
        },
        {
          "time": 337.767834,
          "midi": 86,
          "name": "D6",
          "velocity": 1,
          "duration": 0.18437499999998863,
          "ticks": 104640,
          "durationTicks": 59
        },
        {
          "time": 337.955334,
          "midi": 88,
          "name": "E6",
          "velocity": 0.7637795275590551,
          "duration": 0.18437499999998863,
          "ticks": 104700,
          "durationTicks": 59
        },
        {
          "time": 337.955334,
          "midi": 80,
          "name": "G#5",
          "velocity": 0.8267716535433071,
          "duration": 0.18437499999998863,
          "ticks": 104700,
          "durationTicks": 59
        },
        {
          "time": 338.142834,
          "midi": 81,
          "name": "A5",
          "velocity": 1,
          "duration": 0.37187499999998863,
          "ticks": 104760,
          "durationTicks": 119
        },
        {
          "time": 338.142834,
          "midi": 81,
          "name": "A5",
          "velocity": 1,
          "duration": 0.37187499999998863,
          "ticks": 104760,
          "durationTicks": 119
        },
        {
          "time": 338.517834,
          "midi": 86,
          "name": "D6",
          "velocity": 0.7401574803149606,
          "duration": 0.5593749999999886,
          "ticks": 104880,
          "durationTicks": 179
        },
        {
          "time": 338.517834,
          "midi": 90,
          "name": "F#6",
          "velocity": 1,
          "duration": 0.5593749999999886,
          "ticks": 104880,
          "durationTicks": 179
        },
        {
          "time": 339.080334,
          "midi": 88,
          "name": "E6",
          "velocity": 0.7637795275590551,
          "duration": 0.18437499999998863,
          "ticks": 105060,
          "durationTicks": 59
        },
        {
          "time": 339.080334,
          "midi": 91,
          "name": "G6",
          "velocity": 0.8503937007874016,
          "duration": 0.18437499999998863,
          "ticks": 105060,
          "durationTicks": 59
        },
        {
          "time": 339.267834,
          "midi": 88,
          "name": "E6",
          "velocity": 0.7401574803149606,
          "duration": 0.18437499999998863,
          "ticks": 105120,
          "durationTicks": 59
        },
        {
          "time": 339.267834,
          "midi": 85,
          "name": "C#6",
          "velocity": 0.8818897637795275,
          "duration": 0.18437499999998863,
          "ticks": 105120,
          "durationTicks": 59
        },
        {
          "time": 339.455334,
          "midi": 86,
          "name": "D6",
          "velocity": 0.6614173228346457,
          "duration": 0.18437499999998863,
          "ticks": 105180,
          "durationTicks": 59
        },
        {
          "time": 339.455334,
          "midi": 90,
          "name": "F#6",
          "velocity": 1,
          "duration": 0.18437499999998863,
          "ticks": 105180,
          "durationTicks": 59
        },
        {
          "time": 339.642834,
          "midi": 88,
          "name": "E6",
          "velocity": 0.7637795275590551,
          "duration": 0.18437499999998863,
          "ticks": 105240,
          "durationTicks": 59
        },
        {
          "time": 339.642834,
          "midi": 91,
          "name": "G6",
          "velocity": 0.8031496062992126,
          "duration": 0.18437499999998863,
          "ticks": 105240,
          "durationTicks": 59
        },
        {
          "time": 339.830334,
          "midi": 90,
          "name": "F#6",
          "velocity": 0.9763779527559056,
          "duration": 0.18437499999998863,
          "ticks": 105300,
          "durationTicks": 59
        },
        {
          "time": 339.830334,
          "midi": 93,
          "name": "A6",
          "velocity": 0.7086614173228346,
          "duration": 0.18437499999998863,
          "ticks": 105300,
          "durationTicks": 59
        },
        {
          "time": 340.017834,
          "midi": 83,
          "name": "B5",
          "velocity": 0.8031496062992126,
          "duration": 0.18437499999998863,
          "ticks": 105360,
          "durationTicks": 59
        },
        {
          "time": 340.017834,
          "midi": 91,
          "name": "G6",
          "velocity": 0.9763779527559056,
          "duration": 0.18437499999998863,
          "ticks": 105360,
          "durationTicks": 59
        },
        {
          "time": 340.205334,
          "midi": 81,
          "name": "A5",
          "velocity": 0.6377952755905512,
          "duration": 0.18437499999998863,
          "ticks": 105420,
          "durationTicks": 59
        },
        {
          "time": 340.205334,
          "midi": 90,
          "name": "F#6",
          "velocity": 1,
          "duration": 0.18437499999998863,
          "ticks": 105420,
          "durationTicks": 59
        },
        {
          "time": 340.40533400000004,
          "midi": 81,
          "name": "A5",
          "velocity": 0.8267716535433071,
          "duration": 0.1843749999999318,
          "ticks": 105484,
          "durationTicks": 59
        },
        {
          "time": 340.40533400000004,
          "midi": 84,
          "name": "C6",
          "velocity": 0.8818897637795275,
          "duration": 0.1843749999999318,
          "ticks": 105484,
          "durationTicks": 59
        },
        {
          "time": 340.59283400000004,
          "midi": 79,
          "name": "G5",
          "velocity": 0.8818897637795275,
          "duration": 0.1843749999999318,
          "ticks": 105544,
          "durationTicks": 59
        },
        {
          "time": 340.59283400000004,
          "midi": 83,
          "name": "B5",
          "velocity": 1,
          "duration": 0.1843749999999318,
          "ticks": 105544,
          "durationTicks": 59
        },
        {
          "time": 340.78033400000004,
          "midi": 83,
          "name": "B5",
          "velocity": 0.937007874015748,
          "duration": 0.1843749999999318,
          "ticks": 105604,
          "durationTicks": 59
        },
        {
          "time": 340.78033400000004,
          "midi": 86,
          "name": "D6",
          "velocity": 0.8031496062992126,
          "duration": 0.1843749999999318,
          "ticks": 105604,
          "durationTicks": 59
        },
        {
          "time": 340.96783400000004,
          "midi": 79,
          "name": "G5",
          "velocity": 0.905511811023622,
          "duration": 0.1843749999999318,
          "ticks": 105664,
          "durationTicks": 59
        },
        {
          "time": 340.96783400000004,
          "midi": 83,
          "name": "B5",
          "velocity": 1,
          "duration": 0.1843749999999318,
          "ticks": 105664,
          "durationTicks": 59
        },
        {
          "time": 341.15533400000004,
          "midi": 86,
          "name": "D6",
          "velocity": 0.937007874015748,
          "duration": 0.1843749999999318,
          "ticks": 105724,
          "durationTicks": 59
        },
        {
          "time": 341.15533400000004,
          "midi": 90,
          "name": "F#6",
          "velocity": 1,
          "duration": 0.1843749999999318,
          "ticks": 105724,
          "durationTicks": 59
        },
        {
          "time": 341.34283400000004,
          "midi": 88,
          "name": "E6",
          "velocity": 0.9763779527559056,
          "duration": 0.1843749999999318,
          "ticks": 105784,
          "durationTicks": 59
        },
        {
          "time": 341.34283400000004,
          "midi": 85,
          "name": "C#6",
          "velocity": 1,
          "duration": 0.1843749999999318,
          "ticks": 105784,
          "durationTicks": 59
        },
        {
          "time": 341.53033400000004,
          "midi": 88,
          "name": "E6",
          "velocity": 0.8818897637795275,
          "duration": 0.1843749999999318,
          "ticks": 105844,
          "durationTicks": 59
        },
        {
          "time": 341.53033400000004,
          "midi": 91,
          "name": "G6",
          "velocity": 0.905511811023622,
          "duration": 0.1843749999999318,
          "ticks": 105844,
          "durationTicks": 59
        },
        {
          "time": 341.71783400000004,
          "midi": 85,
          "name": "C#6",
          "velocity": 1,
          "duration": 0.1843749999999318,
          "ticks": 105904,
          "durationTicks": 59
        },
        {
          "time": 341.71783400000004,
          "midi": 88,
          "name": "E6",
          "velocity": 1,
          "duration": 0.1843749999999318,
          "ticks": 105904,
          "durationTicks": 59
        },
        {
          "time": 341.90533400000004,
          "midi": 79,
          "name": "G5",
          "velocity": 0.8503937007874016,
          "duration": 0.1843749999999318,
          "ticks": 105964,
          "durationTicks": 59
        },
        {
          "time": 341.90533400000004,
          "midi": 88,
          "name": "E6",
          "velocity": 0.8503937007874016,
          "duration": 0.1843749999999318,
          "ticks": 105964,
          "durationTicks": 59
        },
        {
          "time": 342.09283400000004,
          "midi": 78,
          "name": "F#5",
          "velocity": 1,
          "duration": 0.1843749999999318,
          "ticks": 106024,
          "durationTicks": 59
        },
        {
          "time": 342.09283400000004,
          "midi": 86,
          "name": "D6",
          "velocity": 0.8818897637795275,
          "duration": 0.1843749999999318,
          "ticks": 106024,
          "durationTicks": 59
        },
        {
          "time": 342.28033400000004,
          "midi": 76,
          "name": "E5",
          "velocity": 0.7795275590551181,
          "duration": 0.1843749999999318,
          "ticks": 106084,
          "durationTicks": 59
        },
        {
          "time": 342.28033400000004,
          "midi": 85,
          "name": "C#6",
          "velocity": 1,
          "duration": 0.1843749999999318,
          "ticks": 106084,
          "durationTicks": 59
        },
        {
          "time": 342.46783400000004,
          "midi": 78,
          "name": "F#5",
          "velocity": 0.905511811023622,
          "duration": 0.1843749999999318,
          "ticks": 106144,
          "durationTicks": 59
        },
        {
          "time": 342.46783400000004,
          "midi": 86,
          "name": "D6",
          "velocity": 0.9763779527559056,
          "duration": 0.1843749999999318,
          "ticks": 106144,
          "durationTicks": 59
        },
        {
          "time": 342.65533400000004,
          "midi": 86,
          "name": "D6",
          "velocity": 0.8031496062992126,
          "duration": 0.1843749999999318,
          "ticks": 106204,
          "durationTicks": 59
        },
        {
          "time": 342.65533400000004,
          "midi": 90,
          "name": "F#6",
          "velocity": 0.937007874015748,
          "duration": 0.1843749999999318,
          "ticks": 106204,
          "durationTicks": 59
        },
        {
          "time": 342.84283400000004,
          "midi": 85,
          "name": "C#6",
          "velocity": 0.9763779527559056,
          "duration": 0.1843749999999318,
          "ticks": 106264,
          "durationTicks": 59
        },
        {
          "time": 342.84283400000004,
          "midi": 88,
          "name": "E6",
          "velocity": 1,
          "duration": 0.1843749999999318,
          "ticks": 106264,
          "durationTicks": 59
        },
        {
          "time": 343.03033400000004,
          "midi": 88,
          "name": "E6",
          "velocity": 0.8818897637795275,
          "duration": 0.1843749999999318,
          "ticks": 106324,
          "durationTicks": 59
        },
        {
          "time": 343.03033400000004,
          "midi": 91,
          "name": "G6",
          "velocity": 0.8031496062992126,
          "duration": 0.1843749999999318,
          "ticks": 106324,
          "durationTicks": 59
        },
        {
          "time": 343.21783400000004,
          "midi": 86,
          "name": "D6",
          "velocity": 0.8503937007874016,
          "duration": 0.1843749999999318,
          "ticks": 106384,
          "durationTicks": 59
        },
        {
          "time": 343.21783400000004,
          "midi": 90,
          "name": "F#6",
          "velocity": 1,
          "duration": 0.1843749999999318,
          "ticks": 106384,
          "durationTicks": 59
        },
        {
          "time": 343.392834,
          "midi": 86,
          "name": "D6",
          "velocity": 0.8818897637795275,
          "duration": 0.18437499999998863,
          "ticks": 106440,
          "durationTicks": 59
        },
        {
          "time": 343.392834,
          "midi": 90,
          "name": "F#6",
          "velocity": 1,
          "duration": 0.18437499999998863,
          "ticks": 106440,
          "durationTicks": 59
        },
        {
          "time": 343.580334,
          "midi": 88,
          "name": "E6",
          "velocity": 0.937007874015748,
          "duration": 0.37187499999998863,
          "ticks": 106500,
          "durationTicks": 119
        },
        {
          "time": 343.580334,
          "midi": 85,
          "name": "C#6",
          "velocity": 1,
          "duration": 0.37187499999998863,
          "ticks": 106500,
          "durationTicks": 119
        },
        {
          "time": 343.955334,
          "midi": 81,
          "name": "A5",
          "velocity": 1,
          "duration": 0.18437499999998863,
          "ticks": 106620,
          "durationTicks": 59
        },
        {
          "time": 343.955334,
          "midi": 81,
          "name": "A5",
          "velocity": 1,
          "duration": 0.18437499999998863,
          "ticks": 106620,
          "durationTicks": 59
        },
        {
          "time": 344.142834,
          "midi": 86,
          "name": "D6",
          "velocity": 1,
          "duration": 0.37187499999998863,
          "ticks": 106680,
          "durationTicks": 119
        },
        {
          "time": 344.142834,
          "midi": 86,
          "name": "D6",
          "velocity": 1,
          "duration": 0.37187499999998863,
          "ticks": 106680,
          "durationTicks": 119
        },
        {
          "time": 344.517834,
          "midi": 90,
          "name": "F#6",
          "velocity": 0.9763779527559056,
          "duration": 0.37187499999998863,
          "ticks": 106800,
          "durationTicks": 119
        },
        {
          "time": 344.517834,
          "midi": 93,
          "name": "A6",
          "velocity": 0.8267716535433071,
          "duration": 0.37187499999998863,
          "ticks": 106800,
          "durationTicks": 119
        },
        {
          "time": 344.892834,
          "midi": 91,
          "name": "G6",
          "velocity": 1,
          "duration": 0.5593749999999886,
          "ticks": 106920,
          "durationTicks": 179
        },
        {
          "time": 344.892834,
          "midi": 88,
          "name": "E6",
          "velocity": 1,
          "duration": 0.5593749999999886,
          "ticks": 106920,
          "durationTicks": 179
        },
        {
          "time": 345.455334,
          "midi": 86,
          "name": "D6",
          "velocity": 1,
          "duration": 0.18437499999998863,
          "ticks": 107100,
          "durationTicks": 59
        },
        {
          "time": 345.455334,
          "midi": 90,
          "name": "F#6",
          "velocity": 1,
          "duration": 0.18437499999998863,
          "ticks": 107100,
          "durationTicks": 59
        },
        {
          "time": 345.642834,
          "midi": 86,
          "name": "D6",
          "velocity": 1,
          "duration": 0.37187499999998863,
          "ticks": 107160,
          "durationTicks": 119
        },
        {
          "time": 345.642834,
          "midi": 90,
          "name": "F#6",
          "velocity": 1,
          "duration": 0.37187499999998863,
          "ticks": 107160,
          "durationTicks": 119
        },
        {
          "time": 346.017834,
          "midi": 86,
          "name": "D6",
          "velocity": 1,
          "duration": 0.5593749999999886,
          "ticks": 107280,
          "durationTicks": 179
        },
        {
          "time": 346.017834,
          "midi": 86,
          "name": "D6",
          "velocity": 1,
          "duration": 0.7468749999999886,
          "ticks": 107280,
          "durationTicks": 239
        },
        {
          "time": 346.767834,
          "midi": 84,
          "name": "C6",
          "velocity": 0.8267716535433071,
          "duration": 0.18437499999998863,
          "ticks": 107520,
          "durationTicks": 59
        },
        {
          "time": 346.767834,
          "midi": 90,
          "name": "F#6",
          "velocity": 1,
          "duration": 0.18437499999998863,
          "ticks": 107520,
          "durationTicks": 59
        },
        {
          "time": 346.955334,
          "midi": 83,
          "name": "B5",
          "velocity": 0.905511811023622,
          "duration": 0.18437499999998863,
          "ticks": 107580,
          "durationTicks": 59
        },
        {
          "time": 346.955334,
          "midi": 91,
          "name": "G6",
          "velocity": 1,
          "duration": 0.18437499999998863,
          "ticks": 107580,
          "durationTicks": 59
        },
        {
          "time": 347.142834,
          "midi": 83,
          "name": "B5",
          "velocity": 0.937007874015748,
          "duration": 0.37187499999998863,
          "ticks": 107640,
          "durationTicks": 119
        },
        {
          "time": 347.142834,
          "midi": 91,
          "name": "G6",
          "velocity": 1,
          "duration": 0.37187499999998863,
          "ticks": 107640,
          "durationTicks": 119
        },
        {
          "time": 347.517834,
          "midi": 91,
          "name": "G6",
          "velocity": 0.937007874015748,
          "duration": 0.18437499999998863,
          "ticks": 107760,
          "durationTicks": 59
        },
        {
          "time": 347.517834,
          "midi": 91,
          "name": "G6",
          "velocity": 0.937007874015748,
          "duration": 0.18437499999998863,
          "ticks": 107760,
          "durationTicks": 59
        },
        {
          "time": 347.705334,
          "midi": 88,
          "name": "E6",
          "velocity": 0.937007874015748,
          "duration": 0.18437499999998863,
          "ticks": 107820,
          "durationTicks": 59
        },
        {
          "time": 347.705334,
          "midi": 88,
          "name": "E6",
          "velocity": 0.937007874015748,
          "duration": 0.18437499999998863,
          "ticks": 107820,
          "durationTicks": 59
        },
        {
          "time": 347.892834,
          "midi": 86,
          "name": "D6",
          "velocity": 1,
          "duration": 0.18437499999998863,
          "ticks": 107880,
          "durationTicks": 59
        },
        {
          "time": 347.892834,
          "midi": 86,
          "name": "D6",
          "velocity": 1,
          "duration": 0.18437499999998863,
          "ticks": 107880,
          "durationTicks": 59
        },
        {
          "time": 348.080334,
          "midi": 85,
          "name": "C#6",
          "velocity": 1,
          "duration": 0.18437499999998863,
          "ticks": 107940,
          "durationTicks": 59
        },
        {
          "time": 348.080334,
          "midi": 85,
          "name": "C#6",
          "velocity": 1,
          "duration": 0.18437499999998863,
          "ticks": 107940,
          "durationTicks": 59
        },
        {
          "time": 348.267834,
          "midi": 88,
          "name": "E6",
          "velocity": 0.9763779527559056,
          "duration": 0.18437499999998863,
          "ticks": 108000,
          "durationTicks": 59
        },
        {
          "time": 348.267834,
          "midi": 88,
          "name": "E6",
          "velocity": 0.9763779527559056,
          "duration": 0.18437499999998863,
          "ticks": 108000,
          "durationTicks": 59
        },
        {
          "time": 348.455334,
          "midi": 85,
          "name": "C#6",
          "velocity": 1,
          "duration": 0.18437499999998863,
          "ticks": 108060,
          "durationTicks": 59
        },
        {
          "time": 348.455334,
          "midi": 85,
          "name": "C#6",
          "velocity": 1,
          "duration": 0.18437499999998863,
          "ticks": 108060,
          "durationTicks": 59
        },
        {
          "time": 348.642834,
          "midi": 83,
          "name": "B5",
          "velocity": 1,
          "duration": 0.18437499999998863,
          "ticks": 108120,
          "durationTicks": 59
        },
        {
          "time": 348.642834,
          "midi": 83,
          "name": "B5",
          "velocity": 1,
          "duration": 0.18437499999998863,
          "ticks": 108120,
          "durationTicks": 59
        },
        {
          "time": 348.830334,
          "midi": 81,
          "name": "A5",
          "velocity": 1,
          "duration": 0.18437499999998863,
          "ticks": 108180,
          "durationTicks": 59
        },
        {
          "time": 348.830334,
          "midi": 81,
          "name": "A5",
          "velocity": 1,
          "duration": 0.18437499999998863,
          "ticks": 108180,
          "durationTicks": 59
        },
        {
          "time": 349.017834,
          "midi": 83,
          "name": "B5",
          "velocity": 1,
          "duration": 0.18437499999998863,
          "ticks": 108240,
          "durationTicks": 59
        },
        {
          "time": 349.017834,
          "midi": 83,
          "name": "B5",
          "velocity": 1,
          "duration": 0.18437499999998863,
          "ticks": 108240,
          "durationTicks": 59
        },
        {
          "time": 349.205334,
          "midi": 85,
          "name": "C#6",
          "velocity": 1,
          "duration": 0.18437499999998863,
          "ticks": 108300,
          "durationTicks": 59
        },
        {
          "time": 349.205334,
          "midi": 85,
          "name": "C#6",
          "velocity": 1,
          "duration": 0.18437499999998863,
          "ticks": 108300,
          "durationTicks": 59
        },
        {
          "time": 349.392834,
          "midi": 88,
          "name": "E6",
          "velocity": 0.937007874015748,
          "duration": 0.18437499999998863,
          "ticks": 108360,
          "durationTicks": 59
        },
        {
          "time": 349.392834,
          "midi": 88,
          "name": "E6",
          "velocity": 0.937007874015748,
          "duration": 0.18437499999998863,
          "ticks": 108360,
          "durationTicks": 59
        },
        {
          "time": 349.580334,
          "midi": 86,
          "name": "D6",
          "velocity": 0.937007874015748,
          "duration": 0.18437499999998863,
          "ticks": 108420,
          "durationTicks": 59
        },
        {
          "time": 349.580334,
          "midi": 86,
          "name": "D6",
          "velocity": 0.937007874015748,
          "duration": 0.18437499999998863,
          "ticks": 108420,
          "durationTicks": 59
        },
        {
          "time": 349.767834,
          "midi": 90,
          "name": "F#6",
          "velocity": 1,
          "duration": 0.18437499999998863,
          "ticks": 108480,
          "durationTicks": 59
        },
        {
          "time": 349.767834,
          "midi": 90,
          "name": "F#6",
          "velocity": 1,
          "duration": 0.18437499999998863,
          "ticks": 108480,
          "durationTicks": 59
        },
        {
          "time": 349.955334,
          "midi": 86,
          "name": "D6",
          "velocity": 0.905511811023622,
          "duration": 0.18437499999998863,
          "ticks": 108540,
          "durationTicks": 59
        },
        {
          "time": 349.955334,
          "midi": 86,
          "name": "D6",
          "velocity": 0.905511811023622,
          "duration": 0.18437499999998863,
          "ticks": 108540,
          "durationTicks": 59
        },
        {
          "time": 350.142834,
          "midi": 85,
          "name": "C#6",
          "velocity": 1,
          "duration": 0.18437499999998863,
          "ticks": 108600,
          "durationTicks": 59
        },
        {
          "time": 350.142834,
          "midi": 85,
          "name": "C#6",
          "velocity": 1,
          "duration": 0.18437499999998863,
          "ticks": 108600,
          "durationTicks": 59
        },
        {
          "time": 350.330334,
          "midi": 83,
          "name": "B5",
          "velocity": 0.9763779527559056,
          "duration": 0.18437499999998863,
          "ticks": 108660,
          "durationTicks": 59
        },
        {
          "time": 350.330334,
          "midi": 83,
          "name": "B5",
          "velocity": 0.9763779527559056,
          "duration": 0.18437499999998863,
          "ticks": 108660,
          "durationTicks": 59
        },
        {
          "time": 350.517834,
          "midi": 86,
          "name": "D6",
          "velocity": 0.905511811023622,
          "duration": 0.18437499999998863,
          "ticks": 108720,
          "durationTicks": 59
        },
        {
          "time": 350.517834,
          "midi": 86,
          "name": "D6",
          "velocity": 0.905511811023622,
          "duration": 0.18437499999998863,
          "ticks": 108720,
          "durationTicks": 59
        },
        {
          "time": 350.705334,
          "midi": 83,
          "name": "B5",
          "velocity": 1,
          "duration": 0.18437499999998863,
          "ticks": 108780,
          "durationTicks": 59
        },
        {
          "time": 350.705334,
          "midi": 83,
          "name": "B5",
          "velocity": 1,
          "duration": 0.18437499999998863,
          "ticks": 108780,
          "durationTicks": 59
        },
        {
          "time": 350.892834,
          "midi": 81,
          "name": "A5",
          "velocity": 0.8503937007874016,
          "duration": 0.18437499999998863,
          "ticks": 108840,
          "durationTicks": 59
        },
        {
          "time": 350.892834,
          "midi": 81,
          "name": "A5",
          "velocity": 0.8503937007874016,
          "duration": 0.18437499999998863,
          "ticks": 108840,
          "durationTicks": 59
        },
        {
          "time": 351.080334,
          "midi": 80,
          "name": "G#5",
          "velocity": 1,
          "duration": 0.18437499999998863,
          "ticks": 108900,
          "durationTicks": 59
        },
        {
          "time": 351.080334,
          "midi": 80,
          "name": "G#5",
          "velocity": 1,
          "duration": 0.18437499999998863,
          "ticks": 108900,
          "durationTicks": 59
        },
        {
          "time": 351.267834,
          "midi": 83,
          "name": "B5",
          "velocity": 1,
          "duration": 0.18437499999998863,
          "ticks": 108960,
          "durationTicks": 59
        },
        {
          "time": 351.267834,
          "midi": 83,
          "name": "B5",
          "velocity": 1,
          "duration": 0.18437499999998863,
          "ticks": 108960,
          "durationTicks": 59
        },
        {
          "time": 351.455334,
          "midi": 92,
          "name": "G#6",
          "velocity": 0.937007874015748,
          "duration": 0.18437499999998863,
          "ticks": 109020,
          "durationTicks": 59
        },
        {
          "time": 351.455334,
          "midi": 80,
          "name": "G#5",
          "velocity": 1,
          "duration": 0.18437499999998863,
          "ticks": 109020,
          "durationTicks": 59
        },
        {
          "time": 351.642834,
          "midi": 78,
          "name": "F#5",
          "velocity": 1,
          "duration": 0.18437499999998863,
          "ticks": 109080,
          "durationTicks": 59
        },
        {
          "time": 351.642834,
          "midi": 90,
          "name": "F#6",
          "velocity": 1,
          "duration": 0.18437499999998863,
          "ticks": 109080,
          "durationTicks": 59
        },
        {
          "time": 351.830334,
          "midi": 76,
          "name": "E5",
          "velocity": 0.937007874015748,
          "duration": 0.18437499999998863,
          "ticks": 109140,
          "durationTicks": 59
        },
        {
          "time": 351.830334,
          "midi": 88,
          "name": "E6",
          "velocity": 0.937007874015748,
          "duration": 0.18437499999998863,
          "ticks": 109140,
          "durationTicks": 59
        },
        {
          "time": 352.017834,
          "midi": 90,
          "name": "F#6",
          "velocity": 0.937007874015748,
          "duration": 0.18437499999998863,
          "ticks": 109200,
          "durationTicks": 59
        },
        {
          "time": 352.017834,
          "midi": 78,
          "name": "F#5",
          "velocity": 1,
          "duration": 0.18437499999998863,
          "ticks": 109200,
          "durationTicks": 59
        },
        {
          "time": 352.205334,
          "midi": 80,
          "name": "G#5",
          "velocity": 1,
          "duration": 0.18437499999998863,
          "ticks": 109260,
          "durationTicks": 59
        },
        {
          "time": 352.205334,
          "midi": 92,
          "name": "G#6",
          "velocity": 1,
          "duration": 0.18437499999998863,
          "ticks": 109260,
          "durationTicks": 59
        },
        {
          "time": 352.392834,
          "midi": 93,
          "name": "A6",
          "velocity": 1,
          "duration": 1.6875,
          "ticks": 109320,
          "durationTicks": 540
        },
        {
          "time": 352.392834,
          "midi": 81,
          "name": "A5",
          "velocity": 0.8818897637795275,
          "duration": 1.6875,
          "ticks": 109320,
          "durationTicks": 540
        },
        {
          "time": 354.080334,
          "midi": 80,
          "name": "G#5",
          "velocity": 1,
          "duration": 0.18437499999998863,
          "ticks": 109860,
          "durationTicks": 59
        },
        {
          "time": 354.080334,
          "midi": 92,
          "name": "G#6",
          "velocity": 1,
          "duration": 0.18437499999998863,
          "ticks": 109860,
          "durationTicks": 59
        },
        {
          "time": 354.267834,
          "midi": 83,
          "name": "B5",
          "velocity": 1,
          "duration": 0.18437499999998863,
          "ticks": 109920,
          "durationTicks": 59
        },
        {
          "time": 354.267834,
          "midi": 83,
          "name": "B5",
          "velocity": 1,
          "duration": 0.18437499999998863,
          "ticks": 109920,
          "durationTicks": 59
        },
        {
          "time": 354.455334,
          "midi": 92,
          "name": "G#6",
          "velocity": 0.9763779527559056,
          "duration": 0.18437499999998863,
          "ticks": 109980,
          "durationTicks": 59
        },
        {
          "time": 354.455334,
          "midi": 80,
          "name": "G#5",
          "velocity": 0.9763779527559056,
          "duration": 0.18437499999998863,
          "ticks": 109980,
          "durationTicks": 59
        },
        {
          "time": 354.642834,
          "midi": 90,
          "name": "F#6",
          "velocity": 0.9763779527559056,
          "duration": 0.18437499999998863,
          "ticks": 110040,
          "durationTicks": 59
        },
        {
          "time": 354.642834,
          "midi": 78,
          "name": "F#5",
          "velocity": 1,
          "duration": 0.18437499999998863,
          "ticks": 110040,
          "durationTicks": 59
        },
        {
          "time": 354.830334,
          "midi": 76,
          "name": "E5",
          "velocity": 0.905511811023622,
          "duration": 0.18437499999998863,
          "ticks": 110100,
          "durationTicks": 59
        },
        {
          "time": 354.830334,
          "midi": 88,
          "name": "E6",
          "velocity": 1,
          "duration": 0.18437499999998863,
          "ticks": 110100,
          "durationTicks": 59
        },
        {
          "time": 355.017834,
          "midi": 90,
          "name": "F#6",
          "velocity": 0.8818897637795275,
          "duration": 0.18437499999998863,
          "ticks": 110160,
          "durationTicks": 59
        },
        {
          "time": 355.017834,
          "midi": 78,
          "name": "F#5",
          "velocity": 0.9763779527559056,
          "duration": 0.18437499999998863,
          "ticks": 110160,
          "durationTicks": 59
        },
        {
          "time": 355.205334,
          "midi": 92,
          "name": "G#6",
          "velocity": 1,
          "duration": 0.18437499999998863,
          "ticks": 110220,
          "durationTicks": 59
        },
        {
          "time": 355.205334,
          "midi": 80,
          "name": "G#5",
          "velocity": 1,
          "duration": 0.18437499999998863,
          "ticks": 110220,
          "durationTicks": 59
        },
        {
          "time": 355.392834,
          "midi": 93,
          "name": "A6",
          "velocity": 1,
          "duration": 1.4968749999999886,
          "ticks": 110280,
          "durationTicks": 479
        },
        {
          "time": 355.392834,
          "midi": 81,
          "name": "A5",
          "velocity": 0.905511811023622,
          "duration": 1.4968749999999886,
          "ticks": 110280,
          "durationTicks": 479
        },
        {
          "time": 356.892834,
          "midi": 93,
          "name": "A6",
          "velocity": 1,
          "duration": 0.37187499999998863,
          "ticks": 110760,
          "durationTicks": 119
        },
        {
          "time": 356.892834,
          "midi": 81,
          "name": "A5",
          "velocity": 0.8503937007874016,
          "duration": 0.37187499999998863,
          "ticks": 110760,
          "durationTicks": 119
        },
        {
          "time": 357.642834,
          "midi": 93,
          "name": "A6",
          "velocity": 1,
          "duration": 0.37187499999998863,
          "ticks": 111000,
          "durationTicks": 119
        },
        {
          "time": 357.642834,
          "midi": 81,
          "name": "A5",
          "velocity": 0.9763779527559056,
          "duration": 0.37187499999998863,
          "ticks": 111000,
          "durationTicks": 119
        },
        {
          "time": 358.392834,
          "midi": 93,
          "name": "A6",
          "velocity": 1,
          "duration": 1.5386393583333415,
          "ticks": 111240,
          "durationTicks": 479
        },
        {
          "time": 358.392834,
          "midi": 81,
          "name": "A5",
          "velocity": 0.8818897637795275,
          "duration": 1.5386393583333415,
          "ticks": 111240,
          "durationTicks": 479
        }
      ],
      "controlChanges": {
        "7": [
          {
            "number": 7,
            "value": 0.7874015748031497,
            "time": 0,
            "ticks": 0
          }
        ],
        "10": [
          {
            "number": 10,
            "value": 0.47244094488188976,
            "time": 0,
            "ticks": 0
          }
        ]
      }
    },
    {
      "name": "Oboes",
      "channel": 0,
      "instrument": {
        "number": 68,
        "name": "oboe",
        "family": "reed"
      },
      "notes": [
        {
          "time": 109.5,
          "midi": 74,
          "name": "D5",
          "velocity": 0.6141732283464567,
          "duration": 0.7468750000000028,
          "ticks": 35040,
          "durationTicks": 239
        },
        {
          "time": 109.5,
          "midi": 78,
          "name": "F#5",
          "velocity": 0.937007874015748,
          "duration": 0.7468750000000028,
          "ticks": 35040,
          "durationTicks": 239
        },
        {
          "time": 110.25,
          "midi": 76,
          "name": "E5",
          "velocity": 0.8818897637795275,
          "duration": 0.37187500000000284,
          "ticks": 35280,
          "durationTicks": 119
        },
        {
          "time": 110.25,
          "midi": 79,
          "name": "G5",
          "velocity": 0.8818897637795275,
          "duration": 0.37187500000000284,
          "ticks": 35280,
          "durationTicks": 119
        },
        {
          "time": 110.625,
          "midi": 81,
          "name": "A5",
          "velocity": 0.8818897637795275,
          "duration": 0.37187500000000284,
          "ticks": 35400,
          "durationTicks": 119
        },
        {
          "time": 110.625,
          "midi": 78,
          "name": "F#5",
          "velocity": 0.8818897637795275,
          "duration": 0.37187500000000284,
          "ticks": 35400,
          "durationTicks": 119
        },
        {
          "time": 111,
          "midi": 78,
          "name": "F#5",
          "velocity": 0.8818897637795275,
          "duration": 0.37187500000000284,
          "ticks": 35520,
          "durationTicks": 119
        },
        {
          "time": 111,
          "midi": 81,
          "name": "A5",
          "velocity": 0.8818897637795275,
          "duration": 0.37187500000000284,
          "ticks": 35520,
          "durationTicks": 119
        },
        {
          "time": 111.375,
          "midi": 76,
          "name": "E5",
          "velocity": 0.8818897637795275,
          "duration": 0.37187500000000284,
          "ticks": 35640,
          "durationTicks": 119
        },
        {
          "time": 111.375,
          "midi": 79,
          "name": "G5",
          "velocity": 0.8818897637795275,
          "duration": 0.37187500000000284,
          "ticks": 35640,
          "durationTicks": 119
        },
        {
          "time": 111.75,
          "midi": 74,
          "name": "D5",
          "velocity": 0.8818897637795275,
          "duration": 0.18437500000000284,
          "ticks": 35760,
          "durationTicks": 59
        },
        {
          "time": 111.75,
          "midi": 78,
          "name": "F#5",
          "velocity": 0.8818897637795275,
          "duration": 0.18437500000000284,
          "ticks": 35760,
          "durationTicks": 59
        },
        {
          "time": 112.125,
          "midi": 69,
          "name": "A4",
          "velocity": 0.8818897637795275,
          "duration": 0.18437500000000284,
          "ticks": 35880,
          "durationTicks": 59
        },
        {
          "time": 112.125,
          "midi": 76,
          "name": "E5",
          "velocity": 0.8818897637795275,
          "duration": 0.18437500000000284,
          "ticks": 35880,
          "durationTicks": 59
        },
        {
          "time": 112.5,
          "midi": 74,
          "name": "D5",
          "velocity": 0.8818897637795275,
          "duration": 0.37187500000000284,
          "ticks": 36000,
          "durationTicks": 119
        },
        {
          "time": 112.5,
          "midi": 66,
          "name": "F#4",
          "velocity": 0.8818897637795275,
          "duration": 0.37187500000000284,
          "ticks": 36000,
          "durationTicks": 119
        },
        {
          "time": 112.875,
          "midi": 66,
          "name": "F#4",
          "velocity": 0.8818897637795275,
          "duration": 0.37187500000000284,
          "ticks": 36120,
          "durationTicks": 119
        },
        {
          "time": 112.875,
          "midi": 74,
          "name": "D5",
          "velocity": 0.8818897637795275,
          "duration": 0.37187500000000284,
          "ticks": 36120,
          "durationTicks": 119
        },
        {
          "time": 113.25,
          "midi": 69,
          "name": "A4",
          "velocity": 0.8818897637795275,
          "duration": 0.37187500000000284,
          "ticks": 36240,
          "durationTicks": 119
        },
        {
          "time": 113.25,
          "midi": 76,
          "name": "E5",
          "velocity": 0.8818897637795275,
          "duration": 0.37187500000000284,
          "ticks": 36240,
          "durationTicks": 119
        },
        {
          "time": 113.625,
          "midi": 78,
          "name": "F#5",
          "velocity": 0.8818897637795275,
          "duration": 0.37187500000000284,
          "ticks": 36360,
          "durationTicks": 119
        },
        {
          "time": 113.625,
          "midi": 74,
          "name": "D5",
          "velocity": 0.8818897637795275,
          "duration": 0.37187500000000284,
          "ticks": 36360,
          "durationTicks": 119
        },
        {
          "time": 114,
          "midi": 74,
          "name": "D5",
          "velocity": 0.8818897637795275,
          "duration": 0.5593750000000028,
          "ticks": 36480,
          "durationTicks": 179
        },
        {
          "time": 114,
          "midi": 78,
          "name": "F#5",
          "velocity": 0.8818897637795275,
          "duration": 0.5593750000000028,
          "ticks": 36480,
          "durationTicks": 179
        },
        {
          "time": 114.5625,
          "midi": 73,
          "name": "C#5",
          "velocity": 0.8818897637795275,
          "duration": 0.18437500000000284,
          "ticks": 36660,
          "durationTicks": 59
        },
        {
          "time": 114.5625,
          "midi": 76,
          "name": "E5",
          "velocity": 0.8818897637795275,
          "duration": 0.18437500000000284,
          "ticks": 36660,
          "durationTicks": 59
        },
        {
          "time": 114.75,
          "midi": 73,
          "name": "C#5",
          "velocity": 0.8818897637795275,
          "duration": 0.7468750000000028,
          "ticks": 36720,
          "durationTicks": 239
        },
        {
          "time": 114.75,
          "midi": 76,
          "name": "E5",
          "velocity": 0.8818897637795275,
          "duration": 0.7468750000000028,
          "ticks": 36720,
          "durationTicks": 239
        },
        {
          "time": 115.5,
          "midi": 74,
          "name": "D5",
          "velocity": 0.8818897637795275,
          "duration": 0.7468750000000028,
          "ticks": 36960,
          "durationTicks": 239
        },
        {
          "time": 115.5,
          "midi": 78,
          "name": "F#5",
          "velocity": 0.8818897637795275,
          "duration": 0.7468750000000028,
          "ticks": 36960,
          "durationTicks": 239
        },
        {
          "time": 116.25,
          "midi": 79,
          "name": "G5",
          "velocity": 0.8818897637795275,
          "duration": 0.37187500000000284,
          "ticks": 37200,
          "durationTicks": 119
        },
        {
          "time": 116.25,
          "midi": 76,
          "name": "E5",
          "velocity": 0.8818897637795275,
          "duration": 0.37187500000000284,
          "ticks": 37200,
          "durationTicks": 119
        },
        {
          "time": 116.625,
          "midi": 78,
          "name": "F#5",
          "velocity": 0.8740157480314961,
          "duration": 0.37187500000000284,
          "ticks": 37320,
          "durationTicks": 119
        },
        {
          "time": 116.625,
          "midi": 81,
          "name": "A5",
          "velocity": 0.8740157480314961,
          "duration": 0.37187500000000284,
          "ticks": 37320,
          "durationTicks": 119
        },
        {
          "time": 117,
          "midi": 78,
          "name": "F#5",
          "velocity": 0.8740157480314961,
          "duration": 0.37187500000000284,
          "ticks": 37440,
          "durationTicks": 119
        },
        {
          "time": 117,
          "midi": 81,
          "name": "A5",
          "velocity": 0.8740157480314961,
          "duration": 0.37187500000000284,
          "ticks": 37440,
          "durationTicks": 119
        },
        {
          "time": 117.375,
          "midi": 76,
          "name": "E5",
          "velocity": 0.8740157480314961,
          "duration": 0.37187500000000284,
          "ticks": 37560,
          "durationTicks": 119
        },
        {
          "time": 117.375,
          "midi": 79,
          "name": "G5",
          "velocity": 0.8740157480314961,
          "duration": 0.37187500000000284,
          "ticks": 37560,
          "durationTicks": 119
        },
        {
          "time": 117.75,
          "midi": 74,
          "name": "D5",
          "velocity": 0.8740157480314961,
          "duration": 0.18437500000000284,
          "ticks": 37680,
          "durationTicks": 59
        },
        {
          "time": 117.75,
          "midi": 78,
          "name": "F#5",
          "velocity": 0.8740157480314961,
          "duration": 0.18437500000000284,
          "ticks": 37680,
          "durationTicks": 59
        },
        {
          "time": 118.125,
          "midi": 69,
          "name": "A4",
          "velocity": 0.8661417322834646,
          "duration": 0.18437500000000284,
          "ticks": 37800,
          "durationTicks": 59
        },
        {
          "time": 118.125,
          "midi": 76,
          "name": "E5",
          "velocity": 0.8661417322834646,
          "duration": 0.18437500000000284,
          "ticks": 37800,
          "durationTicks": 59
        },
        {
          "time": 118.5,
          "midi": 66,
          "name": "F#4",
          "velocity": 0.8661417322834646,
          "duration": 0.18437500000000284,
          "ticks": 37920,
          "durationTicks": 59
        },
        {
          "time": 118.5,
          "midi": 74,
          "name": "D5",
          "velocity": 0.8661417322834646,
          "duration": 0.18437500000000284,
          "ticks": 37920,
          "durationTicks": 59
        },
        {
          "time": 118.875,
          "midi": 66,
          "name": "F#4",
          "velocity": 0.8661417322834646,
          "duration": 0.18437500000000284,
          "ticks": 38040,
          "durationTicks": 59
        },
        {
          "time": 118.875,
          "midi": 74,
          "name": "D5",
          "velocity": 0.8661417322834646,
          "duration": 0.18437500000000284,
          "ticks": 38040,
          "durationTicks": 59
        },
        {
          "time": 119.25,
          "midi": 69,
          "name": "A4",
          "velocity": 0.8661417322834646,
          "duration": 0.18437500000000284,
          "ticks": 38160,
          "durationTicks": 59
        },
        {
          "time": 119.25,
          "midi": 76,
          "name": "E5",
          "velocity": 0.8661417322834646,
          "duration": 0.18437500000000284,
          "ticks": 38160,
          "durationTicks": 59
        },
        {
          "time": 119.625,
          "midi": 74,
          "name": "D5",
          "velocity": 0.8661417322834646,
          "duration": 0.18437500000000284,
          "ticks": 38280,
          "durationTicks": 59
        },
        {
          "time": 119.625,
          "midi": 78,
          "name": "F#5",
          "velocity": 0.8661417322834646,
          "duration": 0.18437500000000284,
          "ticks": 38280,
          "durationTicks": 59
        },
        {
          "time": 120,
          "midi": 76,
          "name": "E5",
          "velocity": 0.8661417322834646,
          "duration": 0.5593750000000028,
          "ticks": 38400,
          "durationTicks": 179
        },
        {
          "time": 120,
          "midi": 69,
          "name": "A4",
          "velocity": 0.8661417322834646,
          "duration": 0.5593750000000028,
          "ticks": 38400,
          "durationTicks": 179
        },
        {
          "time": 120.5625,
          "midi": 74,
          "name": "D5",
          "velocity": 0.8740157480314961,
          "duration": 0.18437500000000284,
          "ticks": 38580,
          "durationTicks": 59
        },
        {
          "time": 120.5625,
          "midi": 66,
          "name": "F#4",
          "velocity": 0.8740157480314961,
          "duration": 0.18437500000000284,
          "ticks": 38580,
          "durationTicks": 59
        },
        {
          "time": 120.75,
          "midi": 66,
          "name": "F#4",
          "velocity": 0.8740157480314961,
          "duration": 0.7468750000000028,
          "ticks": 38640,
          "durationTicks": 239
        },
        {
          "time": 120.75,
          "midi": 74,
          "name": "D5",
          "velocity": 0.8740157480314961,
          "duration": 0.7468750000000028,
          "ticks": 38640,
          "durationTicks": 239
        },
        {
          "time": 121.5,
          "midi": 73,
          "name": "C#5",
          "velocity": 0.8740157480314961,
          "duration": 0.7468750000000028,
          "ticks": 38880,
          "durationTicks": 239
        },
        {
          "time": 121.5,
          "midi": 76,
          "name": "E5",
          "velocity": 0.8740157480314961,
          "duration": 0.7468750000000028,
          "ticks": 38880,
          "durationTicks": 239
        },
        {
          "time": 122.25,
          "midi": 78,
          "name": "F#5",
          "velocity": 0.8818897637795275,
          "duration": 0.37187500000000284,
          "ticks": 39120,
          "durationTicks": 119
        },
        {
          "time": 122.25,
          "midi": 74,
          "name": "D5",
          "velocity": 0.8818897637795275,
          "duration": 0.37187500000000284,
          "ticks": 39120,
          "durationTicks": 119
        },
        {
          "time": 122.625,
          "midi": 74,
          "name": "D5",
          "velocity": 0.8818897637795275,
          "duration": 0.37187500000000284,
          "ticks": 39240,
          "durationTicks": 119
        },
        {
          "time": 122.625,
          "midi": 74,
          "name": "D5",
          "velocity": 0.8818897637795275,
          "duration": 0.37187500000000284,
          "ticks": 39240,
          "durationTicks": 119
        },
        {
          "time": 123,
          "midi": 73,
          "name": "C#5",
          "velocity": 0.8818897637795275,
          "duration": 0.37187500000000284,
          "ticks": 39360,
          "durationTicks": 119
        },
        {
          "time": 123,
          "midi": 76,
          "name": "E5",
          "velocity": 0.8818897637795275,
          "duration": 0.37187500000000284,
          "ticks": 39360,
          "durationTicks": 119
        },
        {
          "time": 123.375,
          "midi": 74,
          "name": "D5",
          "velocity": 0.8818897637795275,
          "duration": 0.18437500000000284,
          "ticks": 39480,
          "durationTicks": 59
        },
        {
          "time": 123.375,
          "midi": 78,
          "name": "F#5",
          "velocity": 0.8818897637795275,
          "duration": 0.18437500000000284,
          "ticks": 39480,
          "durationTicks": 59
        },
        {
          "time": 123.5625,
          "midi": 76,
          "name": "E5",
          "velocity": 0.8818897637795275,
          "duration": 0.18437500000000284,
          "ticks": 39540,
          "durationTicks": 59
        },
        {
          "time": 123.5625,
          "midi": 79,
          "name": "G5",
          "velocity": 0.8818897637795275,
          "duration": 0.18437500000000284,
          "ticks": 39540,
          "durationTicks": 59
        },
        {
          "time": 123.75,
          "midi": 74,
          "name": "D5",
          "velocity": 0.8818897637795275,
          "duration": 0.37187500000000284,
          "ticks": 39600,
          "durationTicks": 119
        },
        {
          "time": 123.75,
          "midi": 78,
          "name": "F#5",
          "velocity": 0.8818897637795275,
          "duration": 0.37187500000000284,
          "ticks": 39600,
          "durationTicks": 119
        },
        {
          "time": 124.125,
          "midi": 74,
          "name": "D5",
          "velocity": 0.889763779527559,
          "duration": 0.37187500000000284,
          "ticks": 39720,
          "durationTicks": 119
        },
        {
          "time": 124.125,
          "midi": 74,
          "name": "D5",
          "velocity": 0.889763779527559,
          "duration": 0.37187500000000284,
          "ticks": 39720,
          "durationTicks": 119
        },
        {
          "time": 124.5,
          "midi": 73,
          "name": "C#5",
          "velocity": 0.889763779527559,
          "duration": 0.37187500000000284,
          "ticks": 39840,
          "durationTicks": 119
        },
        {
          "time": 124.5,
          "midi": 76,
          "name": "E5",
          "velocity": 0.889763779527559,
          "duration": 0.37187500000000284,
          "ticks": 39840,
          "durationTicks": 119
        },
        {
          "time": 124.875,
          "midi": 78,
          "name": "F#5",
          "velocity": 0.889763779527559,
          "duration": 0.18437500000000284,
          "ticks": 39960,
          "durationTicks": 59
        },
        {
          "time": 124.875,
          "midi": 74,
          "name": "D5",
          "velocity": 0.889763779527559,
          "duration": 0.18437500000000284,
          "ticks": 39960,
          "durationTicks": 59
        },
        {
          "time": 125.0625,
          "midi": 76,
          "name": "E5",
          "velocity": 0.889763779527559,
          "duration": 0.18437500000000284,
          "ticks": 40020,
          "durationTicks": 59
        },
        {
          "time": 125.0625,
          "midi": 79,
          "name": "G5",
          "velocity": 0.889763779527559,
          "duration": 0.18437500000000284,
          "ticks": 40020,
          "durationTicks": 59
        },
        {
          "time": 125.25,
          "midi": 73,
          "name": "C#5",
          "velocity": 0.889763779527559,
          "duration": 0.37187500000000284,
          "ticks": 40080,
          "durationTicks": 119
        },
        {
          "time": 125.25,
          "midi": 78,
          "name": "F#5",
          "velocity": 0.889763779527559,
          "duration": 0.37187500000000284,
          "ticks": 40080,
          "durationTicks": 119
        },
        {
          "time": 125.625,
          "midi": 73,
          "name": "C#5",
          "velocity": 0.889763779527559,
          "duration": 0.37187500000000284,
          "ticks": 40200,
          "durationTicks": 119
        },
        {
          "time": 125.625,
          "midi": 76,
          "name": "E5",
          "velocity": 0.889763779527559,
          "duration": 0.37187500000000284,
          "ticks": 40200,
          "durationTicks": 119
        },
        {
          "time": 126,
          "midi": 71,
          "name": "B4",
          "velocity": 0.889763779527559,
          "duration": 0.18437500000000284,
          "ticks": 40320,
          "durationTicks": 59
        },
        {
          "time": 126,
          "midi": 74,
          "name": "D5",
          "velocity": 0.889763779527559,
          "duration": 0.18437500000000284,
          "ticks": 40320,
          "durationTicks": 59
        },
        {
          "time": 126.375,
          "midi": 76,
          "name": "E5",
          "velocity": 0.889763779527559,
          "duration": 0.18437500000000284,
          "ticks": 40440,
          "durationTicks": 59
        },
        {
          "time": 126.375,
          "midi": 68,
          "name": "G#4",
          "velocity": 0.889763779527559,
          "duration": 0.18437500000000284,
          "ticks": 40440,
          "durationTicks": 59
        },
        {
          "time": 126.75,
          "midi": 69,
          "name": "A4",
          "velocity": 0.889763779527559,
          "duration": 0.18437500000000284,
          "ticks": 40560,
          "durationTicks": 59
        },
        {
          "time": 126.75,
          "midi": 69,
          "name": "A4",
          "velocity": 0.889763779527559,
          "duration": 0.18437500000000284,
          "ticks": 40560,
          "durationTicks": 59
        },
        {
          "time": 127.125,
          "midi": 74,
          "name": "D5",
          "velocity": 0.8976377952755905,
          "duration": 0.7468750000000028,
          "ticks": 40680,
          "durationTicks": 239
        },
        {
          "time": 127.125,
          "midi": 78,
          "name": "F#5",
          "velocity": 0.8976377952755905,
          "duration": 0.7468750000000028,
          "ticks": 40680,
          "durationTicks": 239
        },
        {
          "time": 127.875,
          "midi": 74,
          "name": "D5",
          "velocity": 0.905511811023622,
          "duration": 0.18437499999998863,
          "ticks": 40920,
          "durationTicks": 59
        },
        {
          "time": 127.875,
          "midi": 78,
          "name": "F#5",
          "velocity": 0.905511811023622,
          "duration": 0.18437499999998863,
          "ticks": 40920,
          "durationTicks": 59
        },
        {
          "time": 128.25,
          "midi": 76,
          "name": "E5",
          "velocity": 0.905511811023622,
          "duration": 0.18437499999998863,
          "ticks": 41040,
          "durationTicks": 59
        },
        {
          "time": 128.25,
          "midi": 79,
          "name": "G5",
          "velocity": 0.905511811023622,
          "duration": 0.18437499999998863,
          "ticks": 41040,
          "durationTicks": 59
        },
        {
          "time": 128.625,
          "midi": 78,
          "name": "F#5",
          "velocity": 0.905511811023622,
          "duration": 0.18437499999998863,
          "ticks": 41160,
          "durationTicks": 59
        },
        {
          "time": 128.625,
          "midi": 81,
          "name": "A5",
          "velocity": 0.905511811023622,
          "duration": 0.18437499999998863,
          "ticks": 41160,
          "durationTicks": 59
        },
        {
          "time": 129,
          "midi": 81,
          "name": "A5",
          "velocity": 1,
          "duration": 0.37187499999998863,
          "ticks": 41280,
          "durationTicks": 119
        },
        {
          "time": 129,
          "midi": 78,
          "name": "F#5",
          "velocity": 1,
          "duration": 0.37187499999998863,
          "ticks": 41280,
          "durationTicks": 119
        },
        {
          "time": 129.375,
          "midi": 76,
          "name": "E5",
          "velocity": 0.9763779527559056,
          "duration": 0.37187499999998863,
          "ticks": 41400,
          "durationTicks": 119
        },
        {
          "time": 129.375,
          "midi": 79,
          "name": "G5",
          "velocity": 1,
          "duration": 0.37187499999998863,
          "ticks": 41400,
          "durationTicks": 119
        },
        {
          "time": 129.75,
          "midi": 74,
          "name": "D5",
          "velocity": 1,
          "duration": 0.18437499999998863,
          "ticks": 41520,
          "durationTicks": 59
        },
        {
          "time": 129.75,
          "midi": 78,
          "name": "F#5",
          "velocity": 1,
          "duration": 0.18437499999998863,
          "ticks": 41520,
          "durationTicks": 59
        },
        {
          "time": 130.125,
          "midi": 69,
          "name": "A4",
          "velocity": 1,
          "duration": 0.18437499999998863,
          "ticks": 41640,
          "durationTicks": 59
        },
        {
          "time": 130.125,
          "midi": 76,
          "name": "E5",
          "velocity": 1,
          "duration": 0.18437499999998863,
          "ticks": 41640,
          "durationTicks": 59
        },
        {
          "time": 130.5,
          "midi": 66,
          "name": "F#4",
          "velocity": 0.6535433070866141,
          "duration": 0.18437499999998863,
          "ticks": 41760,
          "durationTicks": 59
        },
        {
          "time": 130.5,
          "midi": 74,
          "name": "D5",
          "velocity": 0.7795275590551181,
          "duration": 0.18437499999998863,
          "ticks": 41760,
          "durationTicks": 59
        },
        {
          "time": 130.875,
          "midi": 66,
          "name": "F#4",
          "velocity": 0.937007874015748,
          "duration": 0.18437499999998863,
          "ticks": 41880,
          "durationTicks": 59
        },
        {
          "time": 130.875,
          "midi": 74,
          "name": "D5",
          "velocity": 1,
          "duration": 0.18437499999998863,
          "ticks": 41880,
          "durationTicks": 59
        },
        {
          "time": 131.25,
          "midi": 69,
          "name": "A4",
          "velocity": 0.937007874015748,
          "duration": 0.18437499999998863,
          "ticks": 42000,
          "durationTicks": 59
        },
        {
          "time": 131.25,
          "midi": 76,
          "name": "E5",
          "velocity": 1,
          "duration": 0.18437499999998863,
          "ticks": 42000,
          "durationTicks": 59
        },
        {
          "time": 131.625,
          "midi": 74,
          "name": "D5",
          "velocity": 1,
          "duration": 0.18437499999998863,
          "ticks": 42120,
          "durationTicks": 59
        },
        {
          "time": 131.625,
          "midi": 78,
          "name": "F#5",
          "velocity": 1,
          "duration": 0.18437499999998863,
          "ticks": 42120,
          "durationTicks": 59
        },
        {
          "time": 132,
          "midi": 69,
          "name": "A4",
          "velocity": 1,
          "duration": 0.5593749999999886,
          "ticks": 42240,
          "durationTicks": 179
        },
        {
          "time": 132,
          "midi": 76,
          "name": "E5",
          "velocity": 1,
          "duration": 0.5593749999999886,
          "ticks": 42240,
          "durationTicks": 179
        },
        {
          "time": 132.5625,
          "midi": 66,
          "name": "F#4",
          "velocity": 0.9763779527559056,
          "duration": 0.18437499999998863,
          "ticks": 42420,
          "durationTicks": 59
        },
        {
          "time": 132.5625,
          "midi": 74,
          "name": "D5",
          "velocity": 1,
          "duration": 0.18437499999998863,
          "ticks": 42420,
          "durationTicks": 59
        },
        {
          "time": 132.75,
          "midi": 74,
          "name": "D5",
          "velocity": 1,
          "duration": 0.09062499999998863,
          "ticks": 42480,
          "durationTicks": 29
        },
        {
          "time": 132.75,
          "midi": 66,
          "name": "F#4",
          "velocity": 1,
          "duration": 0.09062499999998863,
          "ticks": 42480,
          "durationTicks": 29
        },
        {
          "time": 132.9375,
          "midi": 81,
          "name": "A5",
          "velocity": 1,
          "duration": 0.18437499999998863,
          "ticks": 42540,
          "durationTicks": 59
        },
        {
          "time": 132.9375,
          "midi": 78,
          "name": "F#5",
          "velocity": 1,
          "duration": 0.18437499999998863,
          "ticks": 42540,
          "durationTicks": 59
        },
        {
          "time": 133.125,
          "midi": 76,
          "name": "E5",
          "velocity": 1,
          "duration": 0.18437499999998863,
          "ticks": 42600,
          "durationTicks": 59
        },
        {
          "time": 133.125,
          "midi": 79,
          "name": "G5",
          "velocity": 1,
          "duration": 0.18437499999998863,
          "ticks": 42600,
          "durationTicks": 59
        },
        {
          "time": 133.3125,
          "midi": 74,
          "name": "D5",
          "velocity": 1,
          "duration": 0.18437499999998863,
          "ticks": 42660,
          "durationTicks": 59
        },
        {
          "time": 133.3125,
          "midi": 78,
          "name": "F#5",
          "velocity": 1,
          "duration": 0.18437499999998863,
          "ticks": 42660,
          "durationTicks": 59
        },
        {
          "time": 133.5,
          "midi": 76,
          "name": "E5",
          "velocity": 1,
          "duration": 0.7468749999999886,
          "ticks": 42720,
          "durationTicks": 239
        },
        {
          "time": 133.5,
          "midi": 73,
          "name": "C#5",
          "velocity": 1,
          "duration": 0.7468749999999886,
          "ticks": 42720,
          "durationTicks": 239
        },
        {
          "time": 134.25,
          "midi": 74,
          "name": "D5",
          "velocity": 1,
          "duration": 0.37187499999998863,
          "ticks": 42960,
          "durationTicks": 119
        },
        {
          "time": 134.25,
          "midi": 78,
          "name": "F#5",
          "velocity": 1,
          "duration": 0.37187499999998863,
          "ticks": 42960,
          "durationTicks": 119
        },
        {
          "time": 134.625,
          "midi": 66,
          "name": "F#4",
          "velocity": 1,
          "duration": 0.37187499999998863,
          "ticks": 43080,
          "durationTicks": 119
        },
        {
          "time": 134.625,
          "midi": 74,
          "name": "D5",
          "velocity": 1,
          "duration": 0.37187499999998863,
          "ticks": 43080,
          "durationTicks": 119
        },
        {
          "time": 135,
          "midi": 76,
          "name": "E5",
          "velocity": 1,
          "duration": 0.37187499999998863,
          "ticks": 43200,
          "durationTicks": 119
        },
        {
          "time": 135,
          "midi": 73,
          "name": "C#5",
          "velocity": 1,
          "duration": 0.37187499999998863,
          "ticks": 43200,
          "durationTicks": 119
        },
        {
          "time": 135.375,
          "midi": 74,
          "name": "D5",
          "velocity": 0.937007874015748,
          "duration": 0.18437499999998863,
          "ticks": 43320,
          "durationTicks": 59
        },
        {
          "time": 135.375,
          "midi": 78,
          "name": "F#5",
          "velocity": 1,
          "duration": 0.18437499999998863,
          "ticks": 43320,
          "durationTicks": 59
        },
        {
          "time": 135.5625,
          "midi": 76,
          "name": "E5",
          "velocity": 1,
          "duration": 0.18437499999998863,
          "ticks": 43380,
          "durationTicks": 59
        },
        {
          "time": 135.5625,
          "midi": 79,
          "name": "G5",
          "velocity": 1,
          "duration": 0.18437499999998863,
          "ticks": 43380,
          "durationTicks": 59
        },
        {
          "time": 135.75,
          "midi": 74,
          "name": "D5",
          "velocity": 1,
          "duration": 0.37187499999998863,
          "ticks": 43440,
          "durationTicks": 119
        },
        {
          "time": 135.75,
          "midi": 78,
          "name": "F#5",
          "velocity": 1,
          "duration": 0.37187499999998863,
          "ticks": 43440,
          "durationTicks": 119
        },
        {
          "time": 136.125,
          "midi": 74,
          "name": "D5",
          "velocity": 1,
          "duration": 0.18437499999998863,
          "ticks": 43560,
          "durationTicks": 59
        },
        {
          "time": 136.125,
          "midi": 74,
          "name": "D5",
          "velocity": 1,
          "duration": 0.18437499999998863,
          "ticks": 43560,
          "durationTicks": 59
        },
        {
          "time": 136.5,
          "midi": 73,
          "name": "C#5",
          "velocity": 1,
          "duration": 0.37187499999998863,
          "ticks": 43680,
          "durationTicks": 119
        },
        {
          "time": 136.5,
          "midi": 76,
          "name": "E5",
          "velocity": 1,
          "duration": 0.37187499999998863,
          "ticks": 43680,
          "durationTicks": 119
        },
        {
          "time": 136.875,
          "midi": 74,
          "name": "D5",
          "velocity": 0.905511811023622,
          "duration": 0.18437499999998863,
          "ticks": 43800,
          "durationTicks": 59
        },
        {
          "time": 136.875,
          "midi": 78,
          "name": "F#5",
          "velocity": 1,
          "duration": 0.18437499999998863,
          "ticks": 43800,
          "durationTicks": 59
        },
        {
          "time": 137.0625,
          "midi": 76,
          "name": "E5",
          "velocity": 1,
          "duration": 0.18437499999998863,
          "ticks": 43860,
          "durationTicks": 59
        },
        {
          "time": 137.0625,
          "midi": 79,
          "name": "G5",
          "velocity": 1,
          "duration": 0.18437499999998863,
          "ticks": 43860,
          "durationTicks": 59
        },
        {
          "time": 137.25,
          "midi": 73,
          "name": "C#5",
          "velocity": 1,
          "duration": 0.37187499999998863,
          "ticks": 43920,
          "durationTicks": 119
        },
        {
          "time": 137.25,
          "midi": 78,
          "name": "F#5",
          "velocity": 1,
          "duration": 0.37187499999998863,
          "ticks": 43920,
          "durationTicks": 119
        },
        {
          "time": 137.625,
          "midi": 76,
          "name": "E5",
          "velocity": 1,
          "duration": 0.37187499999998863,
          "ticks": 44040,
          "durationTicks": 119
        },
        {
          "time": 137.625,
          "midi": 73,
          "name": "C#5",
          "velocity": 1,
          "duration": 0.37187499999998863,
          "ticks": 44040,
          "durationTicks": 119
        },
        {
          "time": 138,
          "midi": 71,
          "name": "B4",
          "velocity": 1,
          "duration": 0.18437499999998863,
          "ticks": 44160,
          "durationTicks": 59
        },
        {
          "time": 138,
          "midi": 74,
          "name": "D5",
          "velocity": 1,
          "duration": 0.18437499999998863,
          "ticks": 44160,
          "durationTicks": 59
        },
        {
          "time": 138.375,
          "midi": 76,
          "name": "E5",
          "velocity": 0.937007874015748,
          "duration": 0.18437499999998863,
          "ticks": 44280,
          "durationTicks": 59
        },
        {
          "time": 138.375,
          "midi": 68,
          "name": "G#4",
          "velocity": 1,
          "duration": 0.18437499999998863,
          "ticks": 44280,
          "durationTicks": 59
        },
        {
          "time": 138.75,
          "midi": 69,
          "name": "A4",
          "velocity": 1,
          "duration": 0.18437499999998863,
          "ticks": 44400,
          "durationTicks": 59
        },
        {
          "time": 138.75,
          "midi": 69,
          "name": "A4",
          "velocity": 1,
          "duration": 0.18437499999998863,
          "ticks": 44400,
          "durationTicks": 59
        },
        {
          "time": 139.125,
          "midi": 74,
          "name": "D5",
          "velocity": 0.9763779527559056,
          "duration": 0.7468749999999886,
          "ticks": 44520,
          "durationTicks": 239
        },
        {
          "time": 139.125,
          "midi": 78,
          "name": "F#5",
          "velocity": 1,
          "duration": 0.7468749999999886,
          "ticks": 44520,
          "durationTicks": 239
        },
        {
          "time": 139.875,
          "midi": 74,
          "name": "D5",
          "velocity": 1,
          "duration": 0.18437499999998863,
          "ticks": 44760,
          "durationTicks": 59
        },
        {
          "time": 139.875,
          "midi": 78,
          "name": "F#5",
          "velocity": 1,
          "duration": 0.18437499999998863,
          "ticks": 44760,
          "durationTicks": 59
        },
        {
          "time": 140.25,
          "midi": 79,
          "name": "G5",
          "velocity": 1,
          "duration": 0.18437499999998863,
          "ticks": 44880,
          "durationTicks": 59
        },
        {
          "time": 140.25,
          "midi": 76,
          "name": "E5",
          "velocity": 1,
          "duration": 0.18437499999998863,
          "ticks": 44880,
          "durationTicks": 59
        },
        {
          "time": 140.625,
          "midi": 81,
          "name": "A5",
          "velocity": 1,
          "duration": 0.18437499999998863,
          "ticks": 45000,
          "durationTicks": 59
        },
        {
          "time": 140.625,
          "midi": 78,
          "name": "F#5",
          "velocity": 1,
          "duration": 0.18437499999998863,
          "ticks": 45000,
          "durationTicks": 59
        },
        {
          "time": 141,
          "midi": 81,
          "name": "A5",
          "velocity": 1,
          "duration": 0.37187499999998863,
          "ticks": 45120,
          "durationTicks": 119
        },
        {
          "time": 141,
          "midi": 78,
          "name": "F#5",
          "velocity": 1,
          "duration": 0.37187499999998863,
          "ticks": 45120,
          "durationTicks": 119
        },
        {
          "time": 141.375,
          "midi": 76,
          "name": "E5",
          "velocity": 1,
          "duration": 0.37187499999998863,
          "ticks": 45240,
          "durationTicks": 119
        },
        {
          "time": 141.375,
          "midi": 79,
          "name": "G5",
          "velocity": 1,
          "duration": 0.37187499999998863,
          "ticks": 45240,
          "durationTicks": 119
        },
        {
          "time": 141.75,
          "midi": 74,
          "name": "D5",
          "velocity": 1,
          "duration": 0.18437499999998863,
          "ticks": 45360,
          "durationTicks": 59
        },
        {
          "time": 141.75,
          "midi": 78,
          "name": "F#5",
          "velocity": 1,
          "duration": 0.18437499999998863,
          "ticks": 45360,
          "durationTicks": 59
        },
        {
          "time": 142.125,
          "midi": 69,
          "name": "A4",
          "velocity": 0.937007874015748,
          "duration": 0.18437499999998863,
          "ticks": 45480,
          "durationTicks": 59
        },
        {
          "time": 142.125,
          "midi": 76,
          "name": "E5",
          "velocity": 1,
          "duration": 0.18437499999998863,
          "ticks": 45480,
          "durationTicks": 59
        },
        {
          "time": 142.5,
          "midi": 74,
          "name": "D5",
          "velocity": 1,
          "duration": 0.37187499999998863,
          "ticks": 45600,
          "durationTicks": 119
        },
        {
          "time": 142.5,
          "midi": 66,
          "name": "F#4",
          "velocity": 1,
          "duration": 0.37187499999998863,
          "ticks": 45600,
          "durationTicks": 119
        },
        {
          "time": 142.875,
          "midi": 74,
          "name": "D5",
          "velocity": 1,
          "duration": 0.18437499999998863,
          "ticks": 45720,
          "durationTicks": 59
        },
        {
          "time": 142.875,
          "midi": 66,
          "name": "F#4",
          "velocity": 1,
          "duration": 0.18437499999998863,
          "ticks": 45720,
          "durationTicks": 59
        },
        {
          "time": 143.25,
          "midi": 69,
          "name": "A4",
          "velocity": 1,
          "duration": 0.18437499999998863,
          "ticks": 45840,
          "durationTicks": 59
        },
        {
          "time": 143.25,
          "midi": 76,
          "name": "E5",
          "velocity": 1,
          "duration": 0.18437499999998863,
          "ticks": 45840,
          "durationTicks": 59
        },
        {
          "time": 143.625,
          "midi": 74,
          "name": "D5",
          "velocity": 1,
          "duration": 0.18437499999998863,
          "ticks": 45960,
          "durationTicks": 59
        },
        {
          "time": 143.625,
          "midi": 78,
          "name": "F#5",
          "velocity": 1,
          "duration": 0.18437499999998863,
          "ticks": 45960,
          "durationTicks": 59
        },
        {
          "time": 144,
          "midi": 69,
          "name": "A4",
          "velocity": 0.9763779527559056,
          "duration": 0.5593749999999886,
          "ticks": 46080,
          "durationTicks": 179
        },
        {
          "time": 144,
          "midi": 76,
          "name": "E5",
          "velocity": 1,
          "duration": 0.5593749999999886,
          "ticks": 46080,
          "durationTicks": 179
        },
        {
          "time": 144.5625,
          "midi": 74,
          "name": "D5",
          "velocity": 1,
          "duration": 0.18437499999998863,
          "ticks": 46260,
          "durationTicks": 59
        },
        {
          "time": 144.5625,
          "midi": 66,
          "name": "F#4",
          "velocity": 1,
          "duration": 0.18437499999998863,
          "ticks": 46260,
          "durationTicks": 59
        },
        {
          "time": 144.75,
          "midi": 74,
          "name": "D5",
          "velocity": 1,
          "duration": 0.37187499999998863,
          "ticks": 46320,
          "durationTicks": 119
        },
        {
          "time": 144.75,
          "midi": 66,
          "name": "F#4",
          "velocity": 1,
          "duration": 0.37187499999998863,
          "ticks": 46320,
          "durationTicks": 119
        },
        {
          "time": 145.125,
          "midi": 81,
          "name": "A5",
          "velocity": 1,
          "duration": 0.37187499999998863,
          "ticks": 46440,
          "durationTicks": 119
        },
        {
          "time": 145.125,
          "midi": 78,
          "name": "F#5",
          "velocity": 1,
          "duration": 0.37187499999998863,
          "ticks": 46440,
          "durationTicks": 119
        },
        {
          "time": 145.5,
          "midi": 76,
          "name": "E5",
          "velocity": 0.6141732283464567,
          "duration": 0.5593749999999886,
          "ticks": 46560,
          "durationTicks": 179
        },
        {
          "time": 145.5,
          "midi": 79,
          "name": "G5",
          "velocity": 0.8503937007874016,
          "duration": 0.5593749999999886,
          "ticks": 46560,
          "durationTicks": 179
        },
        {
          "time": 146.0625,
          "midi": 74,
          "name": "D5",
          "velocity": 0.5905511811023622,
          "duration": 0.18437499999998863,
          "ticks": 46740,
          "durationTicks": 59
        },
        {
          "time": 146.0625,
          "midi": 78,
          "name": "F#5",
          "velocity": 0.7401574803149606,
          "duration": 0.18437499999998863,
          "ticks": 46740,
          "durationTicks": 59
        },
        {
          "time": 146.25,
          "midi": 74,
          "name": "D5",
          "velocity": 0.5511811023622047,
          "duration": 0.37187499999998863,
          "ticks": 46800,
          "durationTicks": 119
        },
        {
          "time": 146.25,
          "midi": 78,
          "name": "F#5",
          "velocity": 0.7401574803149606,
          "duration": 0.37187499999998863,
          "ticks": 46800,
          "durationTicks": 119
        },
        {
          "time": 146.625,
          "midi": 86,
          "name": "D6",
          "velocity": 0.7637795275590551,
          "duration": 0.37187499999998863,
          "ticks": 46920,
          "durationTicks": 119
        },
        {
          "time": 146.625,
          "midi": 83,
          "name": "B5",
          "velocity": 0.905511811023622,
          "duration": 0.37187499999998863,
          "ticks": 46920,
          "durationTicks": 119
        },
        {
          "time": 147,
          "midi": 81,
          "name": "A5",
          "velocity": 0.6141732283464567,
          "duration": 0.5593749999999886,
          "ticks": 47040,
          "durationTicks": 179
        },
        {
          "time": 147,
          "midi": 84,
          "name": "C6",
          "velocity": 1,
          "duration": 0.5593749999999886,
          "ticks": 47040,
          "durationTicks": 179
        },
        {
          "time": 147.5625,
          "midi": 83,
          "name": "B5",
          "velocity": 0.5905511811023622,
          "duration": 0.18437499999998863,
          "ticks": 47220,
          "durationTicks": 59
        },
        {
          "time": 147.5625,
          "midi": 79,
          "name": "G5",
          "velocity": 0.7401574803149606,
          "duration": 0.18437499999998863,
          "ticks": 47220,
          "durationTicks": 59
        },
        {
          "time": 147.75,
          "midi": 83,
          "name": "B5",
          "velocity": 0.5511811023622047,
          "duration": 0.37187499999998863,
          "ticks": 47280,
          "durationTicks": 119
        },
        {
          "time": 147.75,
          "midi": 79,
          "name": "G5",
          "velocity": 0.7401574803149606,
          "duration": 0.37187499999998863,
          "ticks": 47280,
          "durationTicks": 119
        },
        {
          "time": 148.125,
          "midi": 79,
          "name": "G5",
          "velocity": 0.7637795275590551,
          "duration": 0.37187499999998863,
          "ticks": 47400,
          "durationTicks": 119
        },
        {
          "time": 148.125,
          "midi": 71,
          "name": "B4",
          "velocity": 0.905511811023622,
          "duration": 0.37187499999998863,
          "ticks": 47400,
          "durationTicks": 119
        },
        {
          "time": 148.5,
          "midi": 71,
          "name": "B4",
          "velocity": 0.7795275590551181,
          "duration": 0.7468749999999886,
          "ticks": 47520,
          "durationTicks": 239
        },
        {
          "time": 148.5,
          "midi": 78,
          "name": "F#5",
          "velocity": 1,
          "duration": 0.5593749999999886,
          "ticks": 47520,
          "durationTicks": 179
        },
        {
          "time": 149.0625,
          "midi": 76,
          "name": "E5",
          "velocity": 1,
          "duration": 0.18437499999998863,
          "ticks": 47700,
          "durationTicks": 59
        },
        {
          "time": 149.25,
          "midi": 73,
          "name": "C#5",
          "velocity": 0.8267716535433071,
          "duration": 0.37187499999998863,
          "ticks": 47760,
          "durationTicks": 119
        },
        {
          "time": 149.25,
          "midi": 76,
          "name": "E5",
          "velocity": 1,
          "duration": 0.37187499999998863,
          "ticks": 47760,
          "durationTicks": 119
        },
        {
          "time": 149.625,
          "midi": 76,
          "name": "E5",
          "velocity": 1,
          "duration": 0.18437499999998863,
          "ticks": 47880,
          "durationTicks": 59
        },
        {
          "time": 149.625,
          "midi": 67,
          "name": "G4",
          "velocity": 0.7637795275590551,
          "duration": 0.18437499999998863,
          "ticks": 47880,
          "durationTicks": 59
        },
        {
          "time": 149.8125,
          "midi": 78,
          "name": "F#5",
          "velocity": 1,
          "duration": 0.18437499999998863,
          "ticks": 47940,
          "durationTicks": 59
        },
        {
          "time": 149.8125,
          "midi": 69,
          "name": "A4",
          "velocity": 0.7637795275590551,
          "duration": 0.18437499999998863,
          "ticks": 47940,
          "durationTicks": 59
        },
        {
          "time": 150,
          "midi": 67,
          "name": "G4",
          "velocity": 0.7401574803149606,
          "duration": 0.5593749999999886,
          "ticks": 48000,
          "durationTicks": 179
        },
        {
          "time": 150,
          "midi": 76,
          "name": "E5",
          "velocity": 0.937007874015748,
          "duration": 0.5593749999999886,
          "ticks": 48000,
          "durationTicks": 179
        },
        {
          "time": 150.5625,
          "midi": 66,
          "name": "F#4",
          "velocity": 0.8503937007874016,
          "duration": 0.18437499999998863,
          "ticks": 48180,
          "durationTicks": 59
        },
        {
          "time": 150.5625,
          "midi": 74,
          "name": "D5",
          "velocity": 0.8267716535433071,
          "duration": 0.18437499999998863,
          "ticks": 48180,
          "durationTicks": 59
        },
        {
          "time": 150.75,
          "midi": 66,
          "name": "F#4",
          "velocity": 0.937007874015748,
          "duration": 0.37187499999998863,
          "ticks": 48240,
          "durationTicks": 119
        },
        {
          "time": 150.75,
          "midi": 74,
          "name": "D5",
          "velocity": 1,
          "duration": 0.18437499999998863,
          "ticks": 48240,
          "durationTicks": 59
        },
        {
          "time": 150.9375,
          "midi": 69,
          "name": "A4",
          "velocity": 0.905511811023622,
          "duration": 0.18437499999998863,
          "ticks": 48300,
          "durationTicks": 59
        },
        {
          "time": 151.125,
          "midi": 81,
          "name": "A5",
          "velocity": 0.7637795275590551,
          "duration": 0.18437499999998863,
          "ticks": 48360,
          "durationTicks": 59
        },
        {
          "time": 151.125,
          "midi": 74,
          "name": "D5",
          "velocity": 1,
          "duration": 0.37187499999998863,
          "ticks": 48360,
          "durationTicks": 119
        },
        {
          "time": 151.3125,
          "midi": 78,
          "name": "F#5",
          "velocity": 1,
          "duration": 0.18437499999998863,
          "ticks": 48420,
          "durationTicks": 59
        },
        {
          "time": 151.5,
          "midi": 74,
          "name": "D5",
          "velocity": 0.9763779527559056,
          "duration": 1.1218749999999886,
          "ticks": 48480,
          "durationTicks": 359
        },
        {
          "time": 151.5,
          "midi": 78,
          "name": "F#5",
          "velocity": 1,
          "duration": 0.37187499999998863,
          "ticks": 48480,
          "durationTicks": 119
        },
        {
          "time": 151.875,
          "midi": 76,
          "name": "E5",
          "velocity": 0.7244094488188977,
          "duration": 0.18437499999998863,
          "ticks": 48600,
          "durationTicks": 59
        },
        {
          "time": 152.25,
          "midi": 76,
          "name": "E5",
          "velocity": 0.937007874015748,
          "duration": 0.37187499999998863,
          "ticks": 48720,
          "durationTicks": 119
        },
        {
          "time": 152.25,
          "midi": 73,
          "name": "C#5",
          "velocity": 1,
          "duration": 1.125,
          "ticks": 48720,
          "durationTicks": 360
        },
        {
          "time": 152.625,
          "midi": 76,
          "name": "E5",
          "velocity": 1,
          "duration": 0.37187499999998863,
          "ticks": 48840,
          "durationTicks": 119
        },
        {
          "time": 153,
          "midi": 79,
          "name": "G5",
          "velocity": 1,
          "duration": 0.5593749999999886,
          "ticks": 48960,
          "durationTicks": 179
        },
        {
          "time": 153.5625,
          "midi": 78,
          "name": "F#5",
          "velocity": 1,
          "duration": 0.18437499999998863,
          "ticks": 49140,
          "durationTicks": 59
        },
        {
          "time": 153.75,
          "midi": 78,
          "name": "F#5",
          "velocity": 1,
          "duration": 0.37187499999998863,
          "ticks": 49200,
          "durationTicks": 119
        },
        {
          "time": 153.75,
          "midi": 74,
          "name": "D5",
          "velocity": 1,
          "duration": 0.7468749999999886,
          "ticks": 49200,
          "durationTicks": 239
        },
        {
          "time": 154.125,
          "midi": 66,
          "name": "F#4",
          "velocity": 0.937007874015748,
          "duration": 0.37187499999998863,
          "ticks": 49320,
          "durationTicks": 119
        },
        {
          "time": 154.125,
          "midi": 78,
          "name": "F#5",
          "velocity": 1,
          "duration": 0.37187499999998863,
          "ticks": 49320,
          "durationTicks": 119
        },
        {
          "time": 154.5,
          "midi": 69,
          "name": "A4",
          "velocity": 0.8267716535433071,
          "duration": 0.5593749999999886,
          "ticks": 49440,
          "durationTicks": 179
        },
        {
          "time": 154.5,
          "midi": 81,
          "name": "A5",
          "velocity": 1,
          "duration": 0.5593749999999886,
          "ticks": 49440,
          "durationTicks": 179
        },
        {
          "time": 155.0625,
          "midi": 68,
          "name": "G#4",
          "velocity": 0.8503937007874016,
          "duration": 0.18437499999998863,
          "ticks": 49620,
          "durationTicks": 59
        },
        {
          "time": 155.0625,
          "midi": 80,
          "name": "G#5",
          "velocity": 1,
          "duration": 0.18437499999998863,
          "ticks": 49620,
          "durationTicks": 59
        },
        {
          "time": 155.25,
          "midi": 68,
          "name": "G#4",
          "velocity": 0.7637795275590551,
          "duration": 0.37187499999998863,
          "ticks": 49680,
          "durationTicks": 119
        },
        {
          "time": 155.25,
          "midi": 80,
          "name": "G#5",
          "velocity": 1,
          "duration": 0.37187499999998863,
          "ticks": 49680,
          "durationTicks": 119
        },
        {
          "time": 155.625,
          "midi": 80,
          "name": "G#5",
          "velocity": 1,
          "duration": 0.37187499999998863,
          "ticks": 49800,
          "durationTicks": 119
        },
        {
          "time": 155.625,
          "midi": 68,
          "name": "G#4",
          "velocity": 0.905511811023622,
          "duration": 0.37187499999998863,
          "ticks": 49800,
          "durationTicks": 119
        },
        {
          "time": 156,
          "midi": 83,
          "name": "B5",
          "velocity": 0.937007874015748,
          "duration": 0.5593749999999886,
          "ticks": 49920,
          "durationTicks": 179
        },
        {
          "time": 156,
          "midi": 71,
          "name": "B4",
          "velocity": 0.6929133858267716,
          "duration": 0.5593749999999886,
          "ticks": 49920,
          "durationTicks": 179
        },
        {
          "time": 156.5625,
          "midi": 82,
          "name": "A#5",
          "velocity": 0.8503937007874016,
          "duration": 0.18437499999998863,
          "ticks": 50100,
          "durationTicks": 59
        },
        {
          "time": 156.5625,
          "midi": 70,
          "name": "A#4",
          "velocity": 0.8031496062992126,
          "duration": 0.18437499999998863,
          "ticks": 50100,
          "durationTicks": 59
        },
        {
          "time": 156.75,
          "midi": 73,
          "name": "C#5",
          "velocity": 0.9763779527559056,
          "duration": 0.5593749999999886,
          "ticks": 50160,
          "durationTicks": 179
        },
        {
          "time": 156.75,
          "midi": 85,
          "name": "C#6",
          "velocity": 1,
          "duration": 0.5593749999999886,
          "ticks": 50160,
          "durationTicks": 179
        },
        {
          "time": 157.3125,
          "midi": 83,
          "name": "B5",
          "velocity": 0.8818897637795275,
          "duration": 0.18437499999998863,
          "ticks": 50340,
          "durationTicks": 59
        },
        {
          "time": 157.3125,
          "midi": 71,
          "name": "B4",
          "velocity": 0.7086614173228346,
          "duration": 0.18437499999998863,
          "ticks": 50340,
          "durationTicks": 59
        },
        {
          "time": 157.5,
          "midi": 74,
          "name": "D5",
          "velocity": 0.9763779527559056,
          "duration": 0.5593749999999886,
          "ticks": 50400,
          "durationTicks": 179
        },
        {
          "time": 157.5,
          "midi": 86,
          "name": "D6",
          "velocity": 1,
          "duration": 0.5593749999999886,
          "ticks": 50400,
          "durationTicks": 179
        },
        {
          "time": 158.0625,
          "midi": 73,
          "name": "C#5",
          "velocity": 1,
          "duration": 0.18437499999998863,
          "ticks": 50580,
          "durationTicks": 59
        },
        {
          "time": 158.0625,
          "midi": 85,
          "name": "C#6",
          "velocity": 1,
          "duration": 0.18437499999998863,
          "ticks": 50580,
          "durationTicks": 59
        },
        {
          "time": 158.25,
          "midi": 76,
          "name": "E5",
          "velocity": 1,
          "duration": 0.5593749999999886,
          "ticks": 50640,
          "durationTicks": 179
        },
        {
          "time": 158.25,
          "midi": 76,
          "name": "E5",
          "velocity": 1,
          "duration": 0.5593749999999886,
          "ticks": 50640,
          "durationTicks": 179
        },
        {
          "time": 158.8125,
          "midi": 74,
          "name": "D5",
          "velocity": 1,
          "duration": 0.18437499999998863,
          "ticks": 50820,
          "durationTicks": 59
        },
        {
          "time": 158.8125,
          "midi": 74,
          "name": "D5",
          "velocity": 1,
          "duration": 0.18437499999998863,
          "ticks": 50820,
          "durationTicks": 59
        },
        {
          "time": 159,
          "midi": 78,
          "name": "F#5",
          "velocity": 1,
          "duration": 0.5593749999999886,
          "ticks": 50880,
          "durationTicks": 179
        },
        {
          "time": 159,
          "midi": 74,
          "name": "D5",
          "velocity": 1,
          "duration": 0.37187499999998863,
          "ticks": 50880,
          "durationTicks": 119
        },
        {
          "time": 159.375,
          "midi": 71,
          "name": "B4",
          "velocity": 1,
          "duration": 0.7468749999999886,
          "ticks": 51000,
          "durationTicks": 239
        },
        {
          "time": 159.5625,
          "midi": 76,
          "name": "E5",
          "velocity": 1,
          "duration": 0.18437499999998863,
          "ticks": 51060,
          "durationTicks": 59
        },
        {
          "time": 159.75,
          "midi": 76,
          "name": "E5",
          "velocity": 1,
          "duration": 0.5593749999999886,
          "ticks": 51120,
          "durationTicks": 179
        },
        {
          "time": 160.125,
          "midi": 71,
          "name": "B4",
          "velocity": 1,
          "duration": 0.7468749999999886,
          "ticks": 51240,
          "durationTicks": 239
        },
        {
          "time": 160.3125,
          "midi": 74,
          "name": "D5",
          "velocity": 1,
          "duration": 0.18437499999998863,
          "ticks": 51300,
          "durationTicks": 59
        },
        {
          "time": 160.5,
          "midi": 78,
          "name": "F#5",
          "velocity": 1,
          "duration": 0.5593749999999886,
          "ticks": 51360,
          "durationTicks": 179
        },
        {
          "time": 160.875,
          "midi": 71,
          "name": "B4",
          "velocity": 1,
          "duration": 0.5593749999999886,
          "ticks": 51480,
          "durationTicks": 179
        },
        {
          "time": 161.0625,
          "midi": 76,
          "name": "E5",
          "velocity": 1,
          "duration": 0.18437499999998863,
          "ticks": 51540,
          "durationTicks": 59
        },
        {
          "time": 161.25,
          "midi": 76,
          "name": "E5",
          "velocity": 0.8503937007874016,
          "duration": 0.18437499999998863,
          "ticks": 51600,
          "durationTicks": 59
        },
        {
          "time": 161.4375,
          "midi": 74,
          "name": "D5",
          "velocity": 1,
          "duration": 0.18437499999998863,
          "ticks": 51660,
          "durationTicks": 59
        },
        {
          "time": 161.4375,
          "midi": 74,
          "name": "D5",
          "velocity": 1,
          "duration": 0.18437499999998863,
          "ticks": 51660,
          "durationTicks": 59
        },
        {
          "time": 161.625,
          "midi": 71,
          "name": "B4",
          "velocity": 1,
          "duration": 0.18437499999998863,
          "ticks": 51720,
          "durationTicks": 59
        },
        {
          "time": 161.625,
          "midi": 71,
          "name": "B4",
          "velocity": 0.9763779527559056,
          "duration": 0.18437499999998863,
          "ticks": 51720,
          "durationTicks": 59
        },
        {
          "time": 161.8125,
          "midi": 76,
          "name": "E5",
          "velocity": 1,
          "duration": 0.5625,
          "ticks": 51780,
          "durationTicks": 180
        },
        {
          "time": 161.8125,
          "midi": 76,
          "name": "E5",
          "velocity": 1,
          "duration": 0.5625,
          "ticks": 51780,
          "durationTicks": 180
        },
        {
          "time": 162.375,
          "midi": 73,
          "name": "C#5",
          "velocity": 1,
          "duration": 0.37187499999998863,
          "ticks": 51960,
          "durationTicks": 119
        },
        {
          "time": 162.375,
          "midi": 73,
          "name": "C#5",
          "velocity": 1,
          "duration": 0.37187499999998863,
          "ticks": 51960,
          "durationTicks": 119
        },
        {
          "time": 162.75,
          "midi": 69,
          "name": "A4",
          "velocity": 0.937007874015748,
          "duration": 0.37187499999998863,
          "ticks": 52080,
          "durationTicks": 119
        },
        {
          "time": 162.75,
          "midi": 69,
          "name": "A4",
          "velocity": 0.937007874015748,
          "duration": 0.37187499999998863,
          "ticks": 52080,
          "durationTicks": 119
        },
        {
          "time": 163.125,
          "midi": 78,
          "name": "F#5",
          "velocity": 1,
          "duration": 0.37187499999998863,
          "ticks": 52200,
          "durationTicks": 119
        },
        {
          "time": 163.125,
          "midi": 78,
          "name": "F#5",
          "velocity": 1,
          "duration": 0.37187499999998863,
          "ticks": 52200,
          "durationTicks": 119
        },
        {
          "time": 163.5,
          "midi": 76,
          "name": "E5",
          "velocity": 1,
          "duration": 0.37187499999998863,
          "ticks": 52320,
          "durationTicks": 119
        },
        {
          "time": 163.5,
          "midi": 76,
          "name": "E5",
          "velocity": 1,
          "duration": 0.37187499999998863,
          "ticks": 52320,
          "durationTicks": 119
        },
        {
          "time": 163.875,
          "midi": 69,
          "name": "A4",
          "velocity": 1,
          "duration": 0.7468749999999886,
          "ticks": 52440,
          "durationTicks": 239
        },
        {
          "time": 163.875,
          "midi": 81,
          "name": "A5",
          "velocity": 1,
          "duration": 0.7468749999999886,
          "ticks": 52440,
          "durationTicks": 239
        },
        {
          "time": 164.625,
          "midi": 80,
          "name": "G#5",
          "velocity": 1,
          "duration": 0.37187499999998863,
          "ticks": 52680,
          "durationTicks": 119
        },
        {
          "time": 164.625,
          "midi": 68,
          "name": "G#4",
          "velocity": 1,
          "duration": 0.37187499999998863,
          "ticks": 52680,
          "durationTicks": 119
        },
        {
          "time": 165,
          "midi": 69,
          "name": "A4",
          "velocity": 1,
          "duration": 0.09062499999998863,
          "ticks": 52800,
          "durationTicks": 29
        },
        {
          "time": 165,
          "midi": 81,
          "name": "A5",
          "velocity": 1,
          "duration": 0.09062499999998863,
          "ticks": 52800,
          "durationTicks": 29
        },
        {
          "time": 165.1875,
          "midi": 69,
          "name": "A4",
          "velocity": 1,
          "duration": 0.09062499999998863,
          "ticks": 52860,
          "durationTicks": 29
        },
        {
          "time": 165.1875,
          "midi": 81,
          "name": "A5",
          "velocity": 1,
          "duration": 0.09062499999998863,
          "ticks": 52860,
          "durationTicks": 29
        },
        {
          "time": 165.28125,
          "midi": 71,
          "name": "B4",
          "velocity": 1,
          "duration": 0.09062499999998863,
          "ticks": 52890,
          "durationTicks": 29
        },
        {
          "time": 165.28125,
          "midi": 83,
          "name": "B5",
          "velocity": 1,
          "duration": 0.09062499999998863,
          "ticks": 52890,
          "durationTicks": 29
        },
        {
          "time": 165.375,
          "midi": 73,
          "name": "C#5",
          "velocity": 1,
          "duration": 0.09062499999998863,
          "ticks": 52920,
          "durationTicks": 29
        },
        {
          "time": 165.375,
          "midi": 85,
          "name": "C#6",
          "velocity": 1,
          "duration": 0.09062499999998863,
          "ticks": 52920,
          "durationTicks": 29
        },
        {
          "time": 165.5625,
          "midi": 73,
          "name": "C#5",
          "velocity": 1,
          "duration": 0.09062499999998863,
          "ticks": 52980,
          "durationTicks": 29
        },
        {
          "time": 165.5625,
          "midi": 85,
          "name": "C#6",
          "velocity": 1,
          "duration": 0.09062499999998863,
          "ticks": 52980,
          "durationTicks": 29
        },
        {
          "time": 165.65625,
          "midi": 74,
          "name": "D5",
          "velocity": 1,
          "duration": 0.09062499999998863,
          "ticks": 53010,
          "durationTicks": 29
        },
        {
          "time": 165.65625,
          "midi": 86,
          "name": "D6",
          "velocity": 1,
          "duration": 0.09062499999998863,
          "ticks": 53010,
          "durationTicks": 29
        },
        {
          "time": 165.75,
          "midi": 64,
          "name": "E4",
          "velocity": 1,
          "duration": 0.09062499999998863,
          "ticks": 53040,
          "durationTicks": 29
        },
        {
          "time": 165.75,
          "midi": 76,
          "name": "E5",
          "velocity": 1,
          "duration": 0.09062499999998863,
          "ticks": 53040,
          "durationTicks": 29
        },
        {
          "time": 165.9375,
          "midi": 64,
          "name": "E4",
          "velocity": 0.8267716535433071,
          "duration": 0.09062499999998863,
          "ticks": 53100,
          "durationTicks": 29
        },
        {
          "time": 165.9375,
          "midi": 76,
          "name": "E5",
          "velocity": 0.8267716535433071,
          "duration": 0.09062499999998863,
          "ticks": 53100,
          "durationTicks": 29
        },
        {
          "time": 166.03125,
          "midi": 66,
          "name": "F#4",
          "velocity": 1,
          "duration": 0.09062499999998863,
          "ticks": 53130,
          "durationTicks": 29
        },
        {
          "time": 166.03125,
          "midi": 78,
          "name": "F#5",
          "velocity": 1,
          "duration": 0.09062499999998863,
          "ticks": 53130,
          "durationTicks": 29
        },
        {
          "time": 166.125,
          "midi": 80,
          "name": "G#5",
          "velocity": 1,
          "duration": 0.09062499999998863,
          "ticks": 53160,
          "durationTicks": 29
        },
        {
          "time": 166.125,
          "midi": 68,
          "name": "G#4",
          "velocity": 1,
          "duration": 0.09062499999998863,
          "ticks": 53160,
          "durationTicks": 29
        },
        {
          "time": 166.3125,
          "midi": 76,
          "name": "E5",
          "velocity": 1,
          "duration": 0.05937500000001705,
          "ticks": 53220,
          "durationTicks": 19
        },
        {
          "time": 166.3125,
          "midi": 64,
          "name": "E4",
          "velocity": 1,
          "duration": 0.05937500000001705,
          "ticks": 53220,
          "durationTicks": 19
        },
        {
          "time": 166.375,
          "midi": 78,
          "name": "F#5",
          "velocity": 1,
          "duration": 0.05937499999998863,
          "ticks": 53240,
          "durationTicks": 19
        },
        {
          "time": 166.375,
          "midi": 66,
          "name": "F#4",
          "velocity": 1,
          "duration": 0.05937499999998863,
          "ticks": 53240,
          "durationTicks": 19
        },
        {
          "time": 166.4375,
          "midi": 80,
          "name": "G#5",
          "velocity": 1,
          "duration": 0.05937499999998863,
          "ticks": 53260,
          "durationTicks": 19
        },
        {
          "time": 166.4375,
          "midi": 68,
          "name": "G#4",
          "velocity": 1,
          "duration": 0.05937499999998863,
          "ticks": 53260,
          "durationTicks": 19
        },
        {
          "time": 166.5,
          "midi": 69,
          "name": "A4",
          "velocity": 1,
          "duration": 0.7468749999999886,
          "ticks": 53280,
          "durationTicks": 239
        },
        {
          "time": 166.5,
          "midi": 81,
          "name": "A5",
          "velocity": 1,
          "duration": 0.7468749999999886,
          "ticks": 53280,
          "durationTicks": 239
        },
        {
          "time": 167.25,
          "midi": 64,
          "name": "E4",
          "velocity": 1,
          "duration": 0.18437499999998863,
          "ticks": 53520,
          "durationTicks": 59
        },
        {
          "time": 167.25,
          "midi": 76,
          "name": "E5",
          "velocity": 1,
          "duration": 0.18437499999998863,
          "ticks": 53520,
          "durationTicks": 59
        },
        {
          "time": 167.625,
          "midi": 64,
          "name": "E4",
          "velocity": 1,
          "duration": 0.18437499999998863,
          "ticks": 53640,
          "durationTicks": 59
        },
        {
          "time": 167.625,
          "midi": 76,
          "name": "E5",
          "velocity": 1,
          "duration": 0.18437499999998863,
          "ticks": 53640,
          "durationTicks": 59
        },
        {
          "time": 173.625,
          "midi": 82,
          "name": "A#5",
          "velocity": 1,
          "duration": 0.7437500000000057,
          "ticks": 54660,
          "durationTicks": 119
        },
        {
          "time": 174.375,
          "midi": 78,
          "name": "F#5",
          "velocity": 1,
          "duration": 0.3687500000000057,
          "ticks": 54780,
          "durationTicks": 59
        },
        {
          "time": 174.75,
          "midi": 75,
          "name": "D#5",
          "velocity": 1,
          "duration": 0.18125000000000568,
          "ticks": 54840,
          "durationTicks": 29
        },
        {
          "time": 175.125,
          "midi": 77,
          "name": "F5",
          "velocity": 1,
          "duration": 0.18125000000000568,
          "ticks": 54900,
          "durationTicks": 29
        },
        {
          "time": 175.5,
          "midi": 78,
          "name": "F#5",
          "velocity": 1,
          "duration": 0.7437500000000057,
          "ticks": 54960,
          "durationTicks": 119
        },
        {
          "time": 176.25,
          "midi": 77,
          "name": "F5",
          "velocity": 1,
          "duration": 0.3687500000000057,
          "ticks": 55080,
          "durationTicks": 59
        },
        {
          "time": 176.625,
          "midi": 76,
          "name": "E5",
          "velocity": 1,
          "duration": 0.5593749999999886,
          "ticks": 55140,
          "durationTicks": 119
        },
        {
          "time": 176.625,
          "midi": 76,
          "name": "E5",
          "velocity": 1,
          "duration": 0.5593749999999886,
          "ticks": 55140,
          "durationTicks": 119
        },
        {
          "time": 177.1875,
          "midi": 73,
          "name": "C#5",
          "velocity": 0.9763779527559056,
          "duration": 0.18437499999998863,
          "ticks": 55260,
          "durationTicks": 59
        },
        {
          "time": 177.1875,
          "midi": 85,
          "name": "C#6",
          "velocity": 1,
          "duration": 0.18437499999998863,
          "ticks": 55260,
          "durationTicks": 59
        },
        {
          "time": 177.375,
          "midi": 69,
          "name": "A4",
          "velocity": 0.7637795275590551,
          "duration": 0.09062499999998863,
          "ticks": 55320,
          "durationTicks": 29
        },
        {
          "time": 177.375,
          "midi": 81,
          "name": "A5",
          "velocity": 0.905511811023622,
          "duration": 0.09062499999998863,
          "ticks": 55320,
          "durationTicks": 29
        },
        {
          "time": 177.5625,
          "midi": 83,
          "name": "B5",
          "velocity": 1,
          "duration": 0.09062499999998863,
          "ticks": 55380,
          "durationTicks": 29
        },
        {
          "time": 177.5625,
          "midi": 71,
          "name": "B4",
          "velocity": 1,
          "duration": 0.09062499999998863,
          "ticks": 55380,
          "durationTicks": 29
        },
        {
          "time": 177.75,
          "midi": 73,
          "name": "C#5",
          "velocity": 0.937007874015748,
          "duration": 0.37187499999998863,
          "ticks": 55440,
          "durationTicks": 119
        },
        {
          "time": 177.75,
          "midi": 85,
          "name": "C#6",
          "velocity": 1,
          "duration": 0.37187499999998863,
          "ticks": 55440,
          "durationTicks": 119
        },
        {
          "time": 178.125,
          "midi": 83,
          "name": "B5",
          "velocity": 0.905511811023622,
          "duration": 0.37187499999998863,
          "ticks": 55560,
          "durationTicks": 119
        },
        {
          "time": 178.125,
          "midi": 71,
          "name": "B4",
          "velocity": 1,
          "duration": 0.37187499999998863,
          "ticks": 55560,
          "durationTicks": 119
        },
        {
          "time": 178.875,
          "midi": 83,
          "name": "B5",
          "velocity": 1,
          "duration": 0.18437499999998863,
          "ticks": 55800,
          "durationTicks": 59
        },
        {
          "time": 178.875,
          "midi": 86,
          "name": "D6",
          "velocity": 0.9763779527559056,
          "duration": 0.18437499999998863,
          "ticks": 55800,
          "durationTicks": 59
        },
        {
          "time": 179.625,
          "midi": 81,
          "name": "A5",
          "velocity": 1,
          "duration": 0.18437499999998863,
          "ticks": 56040,
          "durationTicks": 59
        },
        {
          "time": 179.625,
          "midi": 85,
          "name": "C#6",
          "velocity": 1,
          "duration": 0.18437499999998863,
          "ticks": 56040,
          "durationTicks": 59
        },
        {
          "time": 180.75,
          "midi": 70,
          "name": "A#4",
          "velocity": 1,
          "duration": 0.9375,
          "ticks": 56400,
          "durationTicks": 300
        },
        {
          "time": 181.6875,
          "midi": 69,
          "name": "A4",
          "velocity": 1,
          "duration": 0.09062499999998863,
          "ticks": 56700,
          "durationTicks": 29
        },
        {
          "time": 181.875,
          "midi": 69,
          "name": "A4",
          "velocity": 1,
          "duration": 0.09062499999998863,
          "ticks": 56760,
          "durationTicks": 29
        },
        {
          "time": 182.0625,
          "midi": 74,
          "name": "D5",
          "velocity": 1,
          "duration": 0.09062499999998863,
          "ticks": 56820,
          "durationTicks": 29
        },
        {
          "time": 182.25,
          "midi": 74,
          "name": "D5",
          "velocity": 1,
          "duration": 0.09062499999998863,
          "ticks": 56880,
          "durationTicks": 29
        },
        {
          "time": 182.4375,
          "midi": 77,
          "name": "F5",
          "velocity": 1,
          "duration": 0.09062499999998863,
          "ticks": 56940,
          "durationTicks": 29
        },
        {
          "time": 182.625,
          "midi": 77,
          "name": "F5",
          "velocity": 1,
          "duration": 0.09062499999998863,
          "ticks": 57000,
          "durationTicks": 29
        },
        {
          "time": 182.8125,
          "midi": 81,
          "name": "A5",
          "velocity": 1,
          "duration": 0.09062499999998863,
          "ticks": 57060,
          "durationTicks": 29
        },
        {
          "time": 183,
          "midi": 81,
          "name": "A5",
          "velocity": 1,
          "duration": 0.09062499999998863,
          "ticks": 57120,
          "durationTicks": 29
        },
        {
          "time": 183.1875,
          "midi": 74,
          "name": "D5",
          "velocity": 1,
          "duration": 0.09062499999998863,
          "ticks": 57180,
          "durationTicks": 29
        },
        {
          "time": 183.375,
          "midi": 74,
          "name": "D5",
          "velocity": 1,
          "duration": 0.18437499999998863,
          "ticks": 57240,
          "durationTicks": 59
        },
        {
          "time": 183.5625,
          "midi": 77,
          "name": "F5",
          "velocity": 1,
          "duration": 0.18437499999998863,
          "ticks": 57300,
          "durationTicks": 59
        },
        {
          "time": 183.75,
          "midi": 77,
          "name": "F5",
          "velocity": 1,
          "duration": 0.18437499999998863,
          "ticks": 57360,
          "durationTicks": 59
        },
        {
          "time": 183.9375,
          "midi": 69,
          "name": "A4",
          "velocity": 1,
          "duration": 0.18437499999998863,
          "ticks": 57420,
          "durationTicks": 59
        },
        {
          "time": 184.125,
          "midi": 69,
          "name": "A4",
          "velocity": 1,
          "duration": 0.18437499999998863,
          "ticks": 57480,
          "durationTicks": 59
        },
        {
          "time": 184.3125,
          "midi": 74,
          "name": "D5",
          "velocity": 1,
          "duration": 0.18437499999998863,
          "ticks": 57540,
          "durationTicks": 59
        },
        {
          "time": 184.5,
          "midi": 74,
          "name": "D5",
          "velocity": 1,
          "duration": 0.18437499999998863,
          "ticks": 57600,
          "durationTicks": 59
        },
        {
          "time": 184.6875,
          "midi": 65,
          "name": "F4",
          "velocity": 1,
          "duration": 0.18437499999998863,
          "ticks": 57660,
          "durationTicks": 59
        },
        {
          "time": 184.875,
          "midi": 65,
          "name": "F4",
          "velocity": 1,
          "duration": 0.18437499999998863,
          "ticks": 57720,
          "durationTicks": 59
        },
        {
          "time": 185.0625,
          "midi": 69,
          "name": "A4",
          "velocity": 1,
          "duration": 0.18437499999998863,
          "ticks": 57780,
          "durationTicks": 59
        },
        {
          "time": 185.25,
          "midi": 69,
          "name": "A4",
          "velocity": 1,
          "duration": 0.18437499999998863,
          "ticks": 57840,
          "durationTicks": 59
        },
        {
          "time": 185.4375,
          "midi": 62,
          "name": "D4",
          "velocity": 1,
          "duration": 0.18437499999998863,
          "ticks": 57900,
          "durationTicks": 59
        },
        {
          "time": 185.625,
          "midi": 62,
          "name": "D4",
          "velocity": 1,
          "duration": 0.18437499999998863,
          "ticks": 57960,
          "durationTicks": 59
        },
        {
          "time": 185.625,
          "midi": 62,
          "name": "D4",
          "velocity": 1,
          "duration": 0.18437499999998863,
          "ticks": 57960,
          "durationTicks": 59
        },
        {
          "time": 185.8125,
          "midi": 77,
          "name": "F5",
          "velocity": 1,
          "duration": 0.18437499999998863,
          "ticks": 58020,
          "durationTicks": 59
        },
        {
          "time": 185.8125,
          "midi": 65,
          "name": "F4",
          "velocity": 1,
          "duration": 0.18437499999998863,
          "ticks": 58020,
          "durationTicks": 59
        },
        {
          "time": 186,
          "midi": 65,
          "name": "F4",
          "velocity": 0.9763779527559056,
          "duration": 0.18437499999998863,
          "ticks": 58080,
          "durationTicks": 59
        },
        {
          "time": 186,
          "midi": 77,
          "name": "F5",
          "velocity": 1,
          "duration": 0.18437499999998863,
          "ticks": 58080,
          "durationTicks": 59
        },
        {
          "time": 186.1875,
          "midi": 66,
          "name": "F#4",
          "velocity": 1,
          "duration": 0.18437499999998863,
          "ticks": 58140,
          "durationTicks": 59
        },
        {
          "time": 186.1875,
          "midi": 78,
          "name": "F#5",
          "velocity": 1,
          "duration": 0.18437499999998863,
          "ticks": 58140,
          "durationTicks": 59
        },
        {
          "time": 186.375,
          "midi": 66,
          "name": "F#4",
          "velocity": 1,
          "duration": 0.18437499999998863,
          "ticks": 58200,
          "durationTicks": 59
        },
        {
          "time": 186.375,
          "midi": 78,
          "name": "F#5",
          "velocity": 1,
          "duration": 0.18437499999998863,
          "ticks": 58200,
          "durationTicks": 59
        },
        {
          "time": 186.5625,
          "midi": 67,
          "name": "G4",
          "velocity": 0.937007874015748,
          "duration": 0.18437499999998863,
          "ticks": 58260,
          "durationTicks": 59
        },
        {
          "time": 186.5625,
          "midi": 79,
          "name": "G5",
          "velocity": 1,
          "duration": 0.18437499999998863,
          "ticks": 58260,
          "durationTicks": 59
        },
        {
          "time": 186.75,
          "midi": 67,
          "name": "G4",
          "velocity": 0.937007874015748,
          "duration": 0.18437499999998863,
          "ticks": 58320,
          "durationTicks": 59
        },
        {
          "time": 186.75,
          "midi": 79,
          "name": "G5",
          "velocity": 1,
          "duration": 0.18437499999998863,
          "ticks": 58320,
          "durationTicks": 59
        },
        {
          "time": 186.9375,
          "midi": 68,
          "name": "G#4",
          "velocity": 1,
          "duration": 0.18437499999998863,
          "ticks": 58380,
          "durationTicks": 59
        },
        {
          "time": 186.9375,
          "midi": 80,
          "name": "G#5",
          "velocity": 1,
          "duration": 0.18437499999998863,
          "ticks": 58380,
          "durationTicks": 59
        },
        {
          "time": 187.125,
          "midi": 68,
          "name": "G#4",
          "velocity": 1,
          "duration": 0.18437499999998863,
          "ticks": 58440,
          "durationTicks": 59
        },
        {
          "time": 187.125,
          "midi": 80,
          "name": "G#5",
          "velocity": 1,
          "duration": 0.18437499999998863,
          "ticks": 58440,
          "durationTicks": 59
        },
        {
          "time": 187.3125,
          "midi": 80,
          "name": "G#5",
          "velocity": 1,
          "duration": 0.18437499999998863,
          "ticks": 58500,
          "durationTicks": 59
        },
        {
          "time": 187.3125,
          "midi": 80,
          "name": "G#5",
          "velocity": 1,
          "duration": 0.18437499999998863,
          "ticks": 58500,
          "durationTicks": 59
        },
        {
          "time": 187.5,
          "midi": 74,
          "name": "D5",
          "velocity": 0.9763779527559056,
          "duration": 0.18437499999998863,
          "ticks": 58560,
          "durationTicks": 59
        },
        {
          "time": 187.5,
          "midi": 80,
          "name": "G#5",
          "velocity": 1,
          "duration": 0.18437499999998863,
          "ticks": 58560,
          "durationTicks": 59
        },
        {
          "time": 187.6875,
          "midi": 74,
          "name": "D5",
          "velocity": 0.9763779527559056,
          "duration": 0.18437499999998863,
          "ticks": 58620,
          "durationTicks": 59
        },
        {
          "time": 187.6875,
          "midi": 77,
          "name": "F5",
          "velocity": 1,
          "duration": 0.18437499999998863,
          "ticks": 58620,
          "durationTicks": 59
        },
        {
          "time": 187.875,
          "midi": 74,
          "name": "D5",
          "velocity": 1,
          "duration": 0.18437499999998863,
          "ticks": 58680,
          "durationTicks": 59
        },
        {
          "time": 187.875,
          "midi": 77,
          "name": "F5",
          "velocity": 1,
          "duration": 0.18437499999998863,
          "ticks": 58680,
          "durationTicks": 59
        },
        {
          "time": 188.25,
          "midi": 69,
          "name": "A4",
          "velocity": 1,
          "duration": 0.18437499999998863,
          "ticks": 58800,
          "durationTicks": 59
        },
        {
          "time": 188.25,
          "midi": 81,
          "name": "A5",
          "velocity": 1,
          "duration": 0.18437499999998863,
          "ticks": 58800,
          "durationTicks": 59
        },
        {
          "time": 206.571411,
          "midi": 79,
          "name": "G5",
          "velocity": 0.8818897637795275,
          "duration": 0.2107140749999985,
          "ticks": 63960,
          "durationTicks": 59
        },
        {
          "time": 206.571411,
          "midi": 85,
          "name": "C#6",
          "velocity": 1,
          "duration": 0.2107140749999985,
          "ticks": 63960,
          "durationTicks": 59
        },
        {
          "time": 206.999982,
          "midi": 74,
          "name": "D5",
          "velocity": 1,
          "duration": 0.2107140749999985,
          "ticks": 64080,
          "durationTicks": 59
        },
        {
          "time": 206.999982,
          "midi": 81,
          "name": "A5",
          "velocity": 1,
          "duration": 0.2107140749999985,
          "ticks": 64080,
          "durationTicks": 59
        },
        {
          "time": 207.2142675,
          "midi": 74,
          "name": "D5",
          "velocity": 0.9763779527559056,
          "duration": 0.2107140749999985,
          "ticks": 64140,
          "durationTicks": 59
        },
        {
          "time": 207.2142675,
          "midi": 81,
          "name": "A5",
          "velocity": 1,
          "duration": 0.2107140749999985,
          "ticks": 64140,
          "durationTicks": 59
        },
        {
          "time": 207.428553,
          "midi": 81,
          "name": "A5",
          "velocity": 1,
          "duration": 0.2107140749999985,
          "ticks": 64200,
          "durationTicks": 59
        },
        {
          "time": 207.428553,
          "midi": 86,
          "name": "D6",
          "velocity": 1,
          "duration": 0.2107140749999985,
          "ticks": 64200,
          "durationTicks": 59
        },
        {
          "time": 212.892834,
          "midi": 71,
          "name": "B4",
          "velocity": 0.9763779527559056,
          "duration": 0.3687500000000057,
          "ticks": 65640,
          "durationTicks": 59
        },
        {
          "time": 212.892834,
          "midi": 79,
          "name": "G5",
          "velocity": 1,
          "duration": 0.3687500000000057,
          "ticks": 65640,
          "durationTicks": 59
        },
        {
          "time": 213.642834,
          "midi": 79,
          "name": "G5",
          "velocity": 1,
          "duration": 0.3687500000000057,
          "ticks": 65760,
          "durationTicks": 59
        },
        {
          "time": 213.642834,
          "midi": 83,
          "name": "B5",
          "velocity": 1,
          "duration": 0.3687500000000057,
          "ticks": 65760,
          "durationTicks": 59
        },
        {
          "time": 218.142834,
          "midi": 76,
          "name": "E5",
          "velocity": 1,
          "duration": 0.3687500000000057,
          "ticks": 66480,
          "durationTicks": 59
        },
        {
          "time": 218.142834,
          "midi": 85,
          "name": "C#6",
          "velocity": 1,
          "duration": 0.3687500000000057,
          "ticks": 66480,
          "durationTicks": 59
        },
        {
          "time": 218.892834,
          "midi": 73,
          "name": "C#5",
          "velocity": 0.937007874015748,
          "duration": 0.37187499999998863,
          "ticks": 66600,
          "durationTicks": 119
        },
        {
          "time": 219.267834,
          "midi": 73,
          "name": "C#5",
          "velocity": 1,
          "duration": 0.37187499999998863,
          "ticks": 66720,
          "durationTicks": 119
        },
        {
          "time": 219.642834,
          "midi": 74,
          "name": "D5",
          "velocity": 0.8818897637795275,
          "duration": 0.37187499999998863,
          "ticks": 66840,
          "durationTicks": 119
        },
        {
          "time": 220.017834,
          "midi": 76,
          "name": "E5",
          "velocity": 0.8818897637795275,
          "duration": 0.37187499999998863,
          "ticks": 66960,
          "durationTicks": 119
        },
        {
          "time": 220.392834,
          "midi": 76,
          "name": "E5",
          "velocity": 0.9763779527559056,
          "duration": 0.37187499999998863,
          "ticks": 67080,
          "durationTicks": 119
        },
        {
          "time": 220.767834,
          "midi": 74,
          "name": "D5",
          "velocity": 0.8267716535433071,
          "duration": 0.37187499999998863,
          "ticks": 67200,
          "durationTicks": 119
        },
        {
          "time": 221.142834,
          "midi": 73,
          "name": "C#5",
          "velocity": 1,
          "duration": 0.37187499999998863,
          "ticks": 67320,
          "durationTicks": 119
        },
        {
          "time": 221.517834,
          "midi": 71,
          "name": "B4",
          "velocity": 1,
          "duration": 0.37187499999998863,
          "ticks": 67440,
          "durationTicks": 119
        },
        {
          "time": 221.892834,
          "midi": 76,
          "name": "E5",
          "velocity": 1,
          "duration": 0.37187499999998863,
          "ticks": 67560,
          "durationTicks": 119
        },
        {
          "time": 222.267834,
          "midi": 76,
          "name": "E5",
          "velocity": 1,
          "duration": 0.37187499999998863,
          "ticks": 67680,
          "durationTicks": 119
        },
        {
          "time": 222.642834,
          "midi": 78,
          "name": "F#5",
          "velocity": 1,
          "duration": 0.37187499999998863,
          "ticks": 67800,
          "durationTicks": 119
        },
        {
          "time": 223.017834,
          "midi": 79,
          "name": "G5",
          "velocity": 0.9763779527559056,
          "duration": 0.37187499999998863,
          "ticks": 67920,
          "durationTicks": 119
        },
        {
          "time": 223.392834,
          "midi": 79,
          "name": "G5",
          "velocity": 0.9763779527559056,
          "duration": 0.37187499999998863,
          "ticks": 68040,
          "durationTicks": 119
        },
        {
          "time": 223.767834,
          "midi": 78,
          "name": "F#5",
          "velocity": 1,
          "duration": 0.37187499999998863,
          "ticks": 68160,
          "durationTicks": 119
        },
        {
          "time": 224.142834,
          "midi": 76,
          "name": "E5",
          "velocity": 0.7795275590551181,
          "duration": 0.37187499999998863,
          "ticks": 68280,
          "durationTicks": 119
        },
        {
          "time": 224.517834,
          "midi": 74,
          "name": "D5",
          "velocity": 1,
          "duration": 0.37187499999998863,
          "ticks": 68400,
          "durationTicks": 119
        },
        {
          "time": 224.892834,
          "midi": 74,
          "name": "D5",
          "velocity": 0.44881889763779526,
          "duration": 0.18437499999998863,
          "ticks": 68520,
          "durationTicks": 59
        },
        {
          "time": 225.455334,
          "midi": 74,
          "name": "D5",
          "velocity": 0.6535433070866141,
          "duration": 0.18437499999998863,
          "ticks": 68700,
          "durationTicks": 59
        },
        {
          "time": 225.642834,
          "midi": 69,
          "name": "A4",
          "velocity": 0.8503937007874016,
          "duration": 0.18437499999998863,
          "ticks": 68760,
          "durationTicks": 59
        },
        {
          "time": 226.205334,
          "midi": 69,
          "name": "A4",
          "velocity": 0.7244094488188977,
          "duration": 0.18437499999998863,
          "ticks": 68940,
          "durationTicks": 59
        },
        {
          "time": 226.392834,
          "midi": 71,
          "name": "B4",
          "velocity": 1,
          "duration": 0.18437499999998863,
          "ticks": 69000,
          "durationTicks": 59
        },
        {
          "time": 226.955334,
          "midi": 71,
          "name": "B4",
          "velocity": 1,
          "duration": 0.09062499999998863,
          "ticks": 69180,
          "durationTicks": 29
        },
        {
          "time": 227.142834,
          "midi": 73,
          "name": "C#5",
          "velocity": 1,
          "duration": 0.18437499999998863,
          "ticks": 69240,
          "durationTicks": 59
        },
        {
          "time": 227.705334,
          "midi": 73,
          "name": "C#5",
          "velocity": 1,
          "duration": 0.09062499999998863,
          "ticks": 69420,
          "durationTicks": 29
        },
        {
          "time": 227.892834,
          "midi": 74,
          "name": "D5",
          "velocity": 1,
          "duration": 0.18437499999998863,
          "ticks": 69480,
          "durationTicks": 59
        },
        {
          "time": 228.455334,
          "midi": 74,
          "name": "D5",
          "velocity": 1,
          "duration": 0.09062499999998863,
          "ticks": 69660,
          "durationTicks": 29
        },
        {
          "time": 228.642834,
          "midi": 74,
          "name": "D5",
          "velocity": 1,
          "duration": 0.18437499999998863,
          "ticks": 69720,
          "durationTicks": 59
        },
        {
          "time": 229.205334,
          "midi": 74,
          "name": "D5",
          "velocity": 1,
          "duration": 0.09062499999998863,
          "ticks": 69900,
          "durationTicks": 29
        },
        {
          "time": 229.392834,
          "midi": 74,
          "name": "D5",
          "velocity": 1,
          "duration": 0.18437499999998863,
          "ticks": 69960,
          "durationTicks": 59
        },
        {
          "time": 229.955334,
          "midi": 74,
          "name": "D5",
          "velocity": 1,
          "duration": 0.09062499999998863,
          "ticks": 70140,
          "durationTicks": 29
        },
        {
          "time": 230.142834,
          "midi": 73,
          "name": "C#5",
          "velocity": 1,
          "duration": 0.18437499999998863,
          "ticks": 70200,
          "durationTicks": 59
        },
        {
          "time": 231.642834,
          "midi": 81,
          "name": "A5",
          "velocity": 0.905511811023622,
          "duration": 1.875,
          "ticks": 70680,
          "durationTicks": 600
        },
        {
          "time": 233.517834,
          "midi": 79,
          "name": "G5",
          "velocity": 0.905511811023622,
          "duration": 0.37187499999998863,
          "ticks": 71280,
          "durationTicks": 119
        },
        {
          "time": 233.892834,
          "midi": 78,
          "name": "F#5",
          "velocity": 0.905511811023622,
          "duration": 0.7468749999999886,
          "ticks": 71400,
          "durationTicks": 239
        },
        {
          "time": 234.642834,
          "midi": 76,
          "name": "E5",
          "velocity": 0.8740157480314961,
          "duration": 0.37187499999998863,
          "ticks": 71640,
          "durationTicks": 119
        },
        {
          "time": 235.017834,
          "midi": 74,
          "name": "D5",
          "velocity": 0.889763779527559,
          "duration": 0.37187499999998863,
          "ticks": 71760,
          "durationTicks": 119
        },
        {
          "time": 235.392834,
          "midi": 73,
          "name": "C#5",
          "velocity": 0.8976377952755905,
          "duration": 0.5593749999999886,
          "ticks": 71880,
          "durationTicks": 179
        },
        {
          "time": 235.955334,
          "midi": 74,
          "name": "D5",
          "velocity": 0.889763779527559,
          "duration": 0.18437499999998863,
          "ticks": 72060,
          "durationTicks": 59
        },
        {
          "time": 236.142834,
          "midi": 74,
          "name": "D5",
          "velocity": 0.84251968503937,
          "duration": 0.18437499999998863,
          "ticks": 72120,
          "durationTicks": 59
        },
        {
          "time": 236.330334,
          "midi": 74,
          "name": "D5",
          "velocity": 0.84251968503937,
          "duration": 0.18437499999998863,
          "ticks": 72180,
          "durationTicks": 59
        },
        {
          "time": 236.517834,
          "midi": 76,
          "name": "E5",
          "velocity": 0.8503937007874016,
          "duration": 0.18437499999998863,
          "ticks": 72240,
          "durationTicks": 59
        },
        {
          "time": 236.705334,
          "midi": 78,
          "name": "F#5",
          "velocity": 0.8503937007874016,
          "duration": 0.18437499999998863,
          "ticks": 72300,
          "durationTicks": 59
        },
        {
          "time": 236.892834,
          "midi": 79,
          "name": "G5",
          "velocity": 0.8503937007874016,
          "duration": 0.37187499999998863,
          "ticks": 72360,
          "durationTicks": 119
        },
        {
          "time": 237.267834,
          "midi": 73,
          "name": "C#5",
          "velocity": 0.8582677165354331,
          "duration": 0.37187499999998863,
          "ticks": 72480,
          "durationTicks": 119
        },
        {
          "time": 237.642834,
          "midi": 74,
          "name": "D5",
          "velocity": 0.8661417322834646,
          "duration": 0.37187499999998863,
          "ticks": 72600,
          "durationTicks": 119
        },
        {
          "time": 238.017834,
          "midi": 78,
          "name": "F#5",
          "velocity": 0.8661417322834646,
          "duration": 0.37187499999998863,
          "ticks": 72720,
          "durationTicks": 119
        },
        {
          "time": 238.392834,
          "midi": 79,
          "name": "G5",
          "velocity": 0.8661417322834646,
          "duration": 0.18437499999998863,
          "ticks": 72840,
          "durationTicks": 59
        },
        {
          "time": 238.580334,
          "midi": 73,
          "name": "C#5",
          "velocity": 0.8661417322834646,
          "duration": 0.18437499999998863,
          "ticks": 72900,
          "durationTicks": 59
        },
        {
          "time": 238.767834,
          "midi": 74,
          "name": "D5",
          "velocity": 0.8740157480314961,
          "duration": 0.18437499999998863,
          "ticks": 72960,
          "durationTicks": 59
        },
        {
          "time": 238.955334,
          "midi": 76,
          "name": "E5",
          "velocity": 0.8740157480314961,
          "duration": 0.18437499999998863,
          "ticks": 73020,
          "durationTicks": 59
        },
        {
          "time": 239.142834,
          "midi": 74,
          "name": "D5",
          "velocity": 0.8740157480314961,
          "duration": 0.37187499999998863,
          "ticks": 73080,
          "durationTicks": 119
        },
        {
          "time": 239.517834,
          "midi": 76,
          "name": "E5",
          "velocity": 0.8740157480314961,
          "duration": 0.18437499999998863,
          "ticks": 73200,
          "durationTicks": 59
        },
        {
          "time": 239.705334,
          "midi": 78,
          "name": "F#5",
          "velocity": 0.8740157480314961,
          "duration": 0.18437499999998863,
          "ticks": 73260,
          "durationTicks": 59
        },
        {
          "time": 239.892834,
          "midi": 79,
          "name": "G5",
          "velocity": 0.8740157480314961,
          "duration": 0.18437499999998863,
          "ticks": 73320,
          "durationTicks": 59
        },
        {
          "time": 240.080334,
          "midi": 73,
          "name": "C#5",
          "velocity": 0.8740157480314961,
          "duration": 0.18437499999998863,
          "ticks": 73380,
          "durationTicks": 59
        },
        {
          "time": 240.267834,
          "midi": 74,
          "name": "D5",
          "velocity": 0.8740157480314961,
          "duration": 0.18437499999998863,
          "ticks": 73440,
          "durationTicks": 59
        },
        {
          "time": 240.455334,
          "midi": 76,
          "name": "E5",
          "velocity": 0.8740157480314961,
          "duration": 0.18437499999998863,
          "ticks": 73500,
          "durationTicks": 59
        },
        {
          "time": 240.642834,
          "midi": 74,
          "name": "D5",
          "velocity": 0.8740157480314961,
          "duration": 0.37187499999998863,
          "ticks": 73560,
          "durationTicks": 119
        },
        {
          "time": 241.017834,
          "midi": 79,
          "name": "G5",
          "velocity": 0.8818897637795275,
          "duration": 0.5593749999999886,
          "ticks": 73680,
          "durationTicks": 179
        },
        {
          "time": 241.580334,
          "midi": 78,
          "name": "F#5",
          "velocity": 0.8818897637795275,
          "duration": 0.18437499999998863,
          "ticks": 73860,
          "durationTicks": 59
        },
        {
          "time": 241.767834,
          "midi": 79,
          "name": "G5",
          "velocity": 0.8818897637795275,
          "duration": 0.18437499999998863,
          "ticks": 73920,
          "durationTicks": 59
        },
        {
          "time": 241.955334,
          "midi": 76,
          "name": "E5",
          "velocity": 0.889763779527559,
          "duration": 0.18437499999998863,
          "ticks": 73980,
          "durationTicks": 59
        },
        {
          "time": 242.142834,
          "midi": 74,
          "name": "D5",
          "velocity": 0.889763779527559,
          "duration": 0.18437499999998863,
          "ticks": 74040,
          "durationTicks": 59
        },
        {
          "time": 242.330334,
          "midi": 73,
          "name": "C#5",
          "velocity": 0.8976377952755905,
          "duration": 0.18437499999998863,
          "ticks": 74100,
          "durationTicks": 59
        },
        {
          "time": 242.517834,
          "midi": 76,
          "name": "E5",
          "velocity": 0.8976377952755905,
          "duration": 0.18437499999998863,
          "ticks": 74160,
          "durationTicks": 59
        },
        {
          "time": 242.705334,
          "midi": 74,
          "name": "D5",
          "velocity": 0.8582677165354331,
          "duration": 0.18437499999998863,
          "ticks": 74220,
          "durationTicks": 59
        },
        {
          "time": 242.892834,
          "midi": 81,
          "name": "A5",
          "velocity": 0.8582677165354331,
          "duration": 0.37187499999998863,
          "ticks": 74280,
          "durationTicks": 119
        },
        {
          "time": 243.455334,
          "midi": 81,
          "name": "A5",
          "velocity": 0.8582677165354331,
          "duration": 0.18437499999998863,
          "ticks": 74460,
          "durationTicks": 59
        },
        {
          "time": 243.642834,
          "midi": 81,
          "name": "A5",
          "velocity": 0.8582677165354331,
          "duration": 0.37187499999998863,
          "ticks": 74520,
          "durationTicks": 119
        },
        {
          "time": 244.205334,
          "midi": 81,
          "name": "A5",
          "velocity": 0.8661417322834646,
          "duration": 0.18437499999998863,
          "ticks": 74700,
          "durationTicks": 59
        },
        {
          "time": 244.392834,
          "midi": 83,
          "name": "B5",
          "velocity": 0.8661417322834646,
          "duration": 0.37187499999998863,
          "ticks": 74760,
          "durationTicks": 119
        },
        {
          "time": 244.955334,
          "midi": 83,
          "name": "B5",
          "velocity": 0.8740157480314961,
          "duration": 0.18437499999998863,
          "ticks": 74940,
          "durationTicks": 59
        },
        {
          "time": 245.142834,
          "midi": 83,
          "name": "B5",
          "velocity": 0.8740157480314961,
          "duration": 0.37187499999998863,
          "ticks": 75000,
          "durationTicks": 119
        },
        {
          "time": 245.705334,
          "midi": 85,
          "name": "C#6",
          "velocity": 0.8818897637795275,
          "duration": 0.18437499999998863,
          "ticks": 75180,
          "durationTicks": 59
        },
        {
          "time": 245.892834,
          "midi": 86,
          "name": "D6",
          "velocity": 0.8818897637795275,
          "duration": 0.18437499999998863,
          "ticks": 75240,
          "durationTicks": 59
        },
        {
          "time": 246.080334,
          "midi": 81,
          "name": "A5",
          "velocity": 0.8818897637795275,
          "duration": 0.18437499999998863,
          "ticks": 75300,
          "durationTicks": 59
        },
        {
          "time": 246.267834,
          "midi": 83,
          "name": "B5",
          "velocity": 0.8740157480314961,
          "duration": 0.18437499999998863,
          "ticks": 75360,
          "durationTicks": 59
        },
        {
          "time": 246.455334,
          "midi": 81,
          "name": "A5",
          "velocity": 0.8267716535433071,
          "duration": 0.18437499999998863,
          "ticks": 75420,
          "durationTicks": 59
        },
        {
          "time": 246.642834,
          "midi": 79,
          "name": "G5",
          "velocity": 0.8031496062992126,
          "duration": 0.18437499999998863,
          "ticks": 75480,
          "durationTicks": 59
        },
        {
          "time": 246.830334,
          "midi": 78,
          "name": "F#5",
          "velocity": 0.8031496062992126,
          "duration": 0.18437499999998863,
          "ticks": 75540,
          "durationTicks": 59
        },
        {
          "time": 247.017834,
          "midi": 76,
          "name": "E5",
          "velocity": 0.7874015748031497,
          "duration": 0.18437499999998863,
          "ticks": 75600,
          "durationTicks": 59
        },
        {
          "time": 247.205334,
          "midi": 74,
          "name": "D5",
          "velocity": 0.7795275590551181,
          "duration": 0.18437499999998863,
          "ticks": 75660,
          "durationTicks": 59
        },
        {
          "time": 247.392834,
          "midi": 79,
          "name": "G5",
          "velocity": 0.7795275590551181,
          "duration": 0.5593749999999886,
          "ticks": 75720,
          "durationTicks": 179
        },
        {
          "time": 247.955334,
          "midi": 78,
          "name": "F#5",
          "velocity": 0.8031496062992126,
          "duration": 0.18437499999998863,
          "ticks": 75900,
          "durationTicks": 59
        },
        {
          "time": 248.142834,
          "midi": 78,
          "name": "F#5",
          "velocity": 0.84251968503937,
          "duration": 0.18437499999998863,
          "ticks": 75960,
          "durationTicks": 59
        },
        {
          "time": 248.330334,
          "midi": 74,
          "name": "D5",
          "velocity": 0.889763779527559,
          "duration": 0.18437499999998863,
          "ticks": 76020,
          "durationTicks": 59
        },
        {
          "time": 248.330334,
          "midi": 66,
          "name": "F#4",
          "velocity": 0.889763779527559,
          "duration": 0.18437499999998863,
          "ticks": 76020,
          "durationTicks": 59
        },
        {
          "time": 248.517834,
          "midi": 67,
          "name": "G4",
          "velocity": 0.952755905511811,
          "duration": 0.18437499999998863,
          "ticks": 76080,
          "durationTicks": 59
        },
        {
          "time": 248.517834,
          "midi": 76,
          "name": "E5",
          "velocity": 0.952755905511811,
          "duration": 0.18437499999998863,
          "ticks": 76080,
          "durationTicks": 59
        },
        {
          "time": 248.705334,
          "midi": 78,
          "name": "F#5",
          "velocity": 1,
          "duration": 0.18437499999998863,
          "ticks": 76140,
          "durationTicks": 59
        },
        {
          "time": 248.705334,
          "midi": 69,
          "name": "A4",
          "velocity": 1,
          "duration": 0.18437499999998863,
          "ticks": 76140,
          "durationTicks": 59
        },
        {
          "time": 248.892834,
          "midi": 69,
          "name": "A4",
          "velocity": 0.8503937007874016,
          "duration": 0.37187499999998863,
          "ticks": 76200,
          "durationTicks": 119
        },
        {
          "time": 248.892834,
          "midi": 79,
          "name": "G5",
          "velocity": 1,
          "duration": 0.37187499999998863,
          "ticks": 76200,
          "durationTicks": 119
        },
        {
          "time": 249.267834,
          "midi": 73,
          "name": "C#5",
          "velocity": 1,
          "duration": 0.37187499999998863,
          "ticks": 76320,
          "durationTicks": 119
        },
        {
          "time": 249.455334,
          "midi": 69,
          "name": "A4",
          "velocity": 1,
          "duration": 0.18437499999998863,
          "ticks": 76380,
          "durationTicks": 59
        },
        {
          "time": 249.642834,
          "midi": 69,
          "name": "A4",
          "velocity": 0.905511811023622,
          "duration": 0.37187499999998863,
          "ticks": 76440,
          "durationTicks": 119
        },
        {
          "time": 249.642834,
          "midi": 74,
          "name": "D5",
          "velocity": 0.9763779527559056,
          "duration": 0.37187499999998863,
          "ticks": 76440,
          "durationTicks": 119
        },
        {
          "time": 250.017834,
          "midi": 76,
          "name": "E5",
          "velocity": 0.9763779527559056,
          "duration": 0.18437499999998863,
          "ticks": 76560,
          "durationTicks": 59
        },
        {
          "time": 250.205334,
          "midi": 69,
          "name": "A4",
          "velocity": 0.8031496062992126,
          "duration": 0.18437499999998863,
          "ticks": 76620,
          "durationTicks": 59
        },
        {
          "time": 250.205334,
          "midi": 78,
          "name": "F#5",
          "velocity": 1,
          "duration": 0.18437499999998863,
          "ticks": 76620,
          "durationTicks": 59
        },
        {
          "time": 250.392834,
          "midi": 69,
          "name": "A4",
          "velocity": 0.8503937007874016,
          "duration": 0.37187499999998863,
          "ticks": 76680,
          "durationTicks": 119
        },
        {
          "time": 250.392834,
          "midi": 79,
          "name": "G5",
          "velocity": 0.8503937007874016,
          "duration": 0.18437499999998863,
          "ticks": 76680,
          "durationTicks": 59
        },
        {
          "time": 250.580334,
          "midi": 73,
          "name": "C#5",
          "velocity": 0.9763779527559056,
          "duration": 0.18437499999998863,
          "ticks": 76740,
          "durationTicks": 59
        },
        {
          "time": 250.767834,
          "midi": 74,
          "name": "D5",
          "velocity": 0.8267716535433071,
          "duration": 0.18437499999998863,
          "ticks": 76800,
          "durationTicks": 59
        },
        {
          "time": 250.955334,
          "midi": 69,
          "name": "A4",
          "velocity": 1,
          "duration": 0.18437499999998863,
          "ticks": 76860,
          "durationTicks": 59
        },
        {
          "time": 250.955334,
          "midi": 76,
          "name": "E5",
          "velocity": 0.8503937007874016,
          "duration": 0.18437499999998863,
          "ticks": 76860,
          "durationTicks": 59
        },
        {
          "time": 251.142834,
          "midi": 69,
          "name": "A4",
          "velocity": 0.905511811023622,
          "duration": 0.37187499999998863,
          "ticks": 76920,
          "durationTicks": 119
        },
        {
          "time": 251.142834,
          "midi": 74,
          "name": "D5",
          "velocity": 0.9763779527559056,
          "duration": 0.37187499999998863,
          "ticks": 76920,
          "durationTicks": 119
        },
        {
          "time": 251.517834,
          "midi": 76,
          "name": "E5",
          "velocity": 1,
          "duration": 0.18437499999998863,
          "ticks": 77040,
          "durationTicks": 59
        },
        {
          "time": 251.705334,
          "midi": 69,
          "name": "A4",
          "velocity": 0.8031496062992126,
          "duration": 0.18437499999998863,
          "ticks": 77100,
          "durationTicks": 59
        },
        {
          "time": 251.705334,
          "midi": 78,
          "name": "F#5",
          "velocity": 1,
          "duration": 0.18437499999998863,
          "ticks": 77100,
          "durationTicks": 59
        },
        {
          "time": 251.892834,
          "midi": 69,
          "name": "A4",
          "velocity": 0.8503937007874016,
          "duration": 0.37187499999998863,
          "ticks": 77160,
          "durationTicks": 119
        },
        {
          "time": 251.892834,
          "midi": 79,
          "name": "G5",
          "velocity": 0.8818897637795275,
          "duration": 0.18437499999998863,
          "ticks": 77160,
          "durationTicks": 59
        },
        {
          "time": 252.080334,
          "midi": 73,
          "name": "C#5",
          "velocity": 0.905511811023622,
          "duration": 0.18437499999998863,
          "ticks": 77220,
          "durationTicks": 59
        },
        {
          "time": 252.267834,
          "midi": 74,
          "name": "D5",
          "velocity": 0.8818897637795275,
          "duration": 0.18437499999998863,
          "ticks": 77280,
          "durationTicks": 59
        },
        {
          "time": 252.455334,
          "midi": 69,
          "name": "A4",
          "velocity": 1,
          "duration": 0.18437499999998863,
          "ticks": 77340,
          "durationTicks": 59
        },
        {
          "time": 252.455334,
          "midi": 76,
          "name": "E5",
          "velocity": 0.8503937007874016,
          "duration": 0.18437499999998863,
          "ticks": 77340,
          "durationTicks": 59
        },
        {
          "time": 252.642834,
          "midi": 69,
          "name": "A4",
          "velocity": 0.905511811023622,
          "duration": 0.37187499999998863,
          "ticks": 77400,
          "durationTicks": 119
        },
        {
          "time": 252.642834,
          "midi": 74,
          "name": "D5",
          "velocity": 0.905511811023622,
          "duration": 0.18437499999998863,
          "ticks": 77400,
          "durationTicks": 59
        },
        {
          "time": 252.830334,
          "midi": 76,
          "name": "E5",
          "velocity": 1,
          "duration": 0.18437499999998863,
          "ticks": 77460,
          "durationTicks": 59
        },
        {
          "time": 253.017834,
          "midi": 78,
          "name": "F#5",
          "velocity": 0.937007874015748,
          "duration": 0.18437499999998863,
          "ticks": 77520,
          "durationTicks": 59
        },
        {
          "time": 253.205334,
          "midi": 79,
          "name": "G5",
          "velocity": 0.905511811023622,
          "duration": 0.37187499999998863,
          "ticks": 77580,
          "durationTicks": 119
        },
        {
          "time": 253.205334,
          "midi": 67,
          "name": "G4",
          "velocity": 1,
          "duration": 0.37187499999998863,
          "ticks": 77580,
          "durationTicks": 119
        },
        {
          "time": 253.580334,
          "midi": 78,
          "name": "F#5",
          "velocity": 1,
          "duration": 0.18437499999998863,
          "ticks": 77700,
          "durationTicks": 59
        },
        {
          "time": 253.580334,
          "midi": 66,
          "name": "F#4",
          "velocity": 0.7401574803149606,
          "duration": 0.18437499999998863,
          "ticks": 77700,
          "durationTicks": 59
        },
        {
          "time": 253.767834,
          "midi": 79,
          "name": "G5",
          "velocity": 0.8818897637795275,
          "duration": 0.18437499999998863,
          "ticks": 77760,
          "durationTicks": 59
        },
        {
          "time": 253.767834,
          "midi": 67,
          "name": "G4",
          "velocity": 0.6771653543307087,
          "duration": 0.18437499999998863,
          "ticks": 77760,
          "durationTicks": 59
        },
        {
          "time": 253.955334,
          "midi": 76,
          "name": "E5",
          "velocity": 0.905511811023622,
          "duration": 0.18437499999998863,
          "ticks": 77820,
          "durationTicks": 59
        },
        {
          "time": 253.955334,
          "midi": 64,
          "name": "E4",
          "velocity": 0.8503937007874016,
          "duration": 0.18437499999998863,
          "ticks": 77820,
          "durationTicks": 59
        },
        {
          "time": 254.142834,
          "midi": 74,
          "name": "D5",
          "velocity": 0.937007874015748,
          "duration": 0.18437499999998863,
          "ticks": 77880,
          "durationTicks": 59
        },
        {
          "time": 254.142834,
          "midi": 62,
          "name": "D4",
          "velocity": 0.7637795275590551,
          "duration": 0.18437499999998863,
          "ticks": 77880,
          "durationTicks": 59
        },
        {
          "time": 254.330334,
          "midi": 73,
          "name": "C#5",
          "velocity": 1,
          "duration": 0.18437499999998863,
          "ticks": 77940,
          "durationTicks": 59
        },
        {
          "time": 254.330334,
          "midi": 73,
          "name": "C#5",
          "velocity": 1,
          "duration": 0.18437499999998863,
          "ticks": 77940,
          "durationTicks": 59
        },
        {
          "time": 254.517834,
          "midi": 76,
          "name": "E5",
          "velocity": 0.8503937007874016,
          "duration": 0.18437499999998863,
          "ticks": 78000,
          "durationTicks": 59
        },
        {
          "time": 254.517834,
          "midi": 76,
          "name": "E5",
          "velocity": 0.7401574803149606,
          "duration": 0.18437499999998863,
          "ticks": 78000,
          "durationTicks": 59
        },
        {
          "time": 254.705334,
          "midi": 74,
          "name": "D5",
          "velocity": 0.8503937007874016,
          "duration": 0.18437499999998863,
          "ticks": 78060,
          "durationTicks": 59
        },
        {
          "time": 254.705334,
          "midi": 74,
          "name": "D5",
          "velocity": 0.8031496062992126,
          "duration": 0.18437499999998863,
          "ticks": 78060,
          "durationTicks": 59
        },
        {
          "time": 254.892834,
          "midi": 81,
          "name": "A5",
          "velocity": 0.8503937007874016,
          "duration": 0.37187499999998863,
          "ticks": 78120,
          "durationTicks": 119
        },
        {
          "time": 254.892834,
          "midi": 74,
          "name": "D5",
          "velocity": 1,
          "duration": 0.37187499999998863,
          "ticks": 78120,
          "durationTicks": 119
        },
        {
          "time": 255.267834,
          "midi": 75,
          "name": "D#5",
          "velocity": 1,
          "duration": 0.37187499999998863,
          "ticks": 78240,
          "durationTicks": 119
        },
        {
          "time": 255.455334,
          "midi": 81,
          "name": "A5",
          "velocity": 1,
          "duration": 0.18437499999998863,
          "ticks": 78300,
          "durationTicks": 59
        },
        {
          "time": 255.642834,
          "midi": 81,
          "name": "A5",
          "velocity": 0.905511811023622,
          "duration": 0.37187499999998863,
          "ticks": 78360,
          "durationTicks": 119
        },
        {
          "time": 255.642834,
          "midi": 76,
          "name": "E5",
          "velocity": 1,
          "duration": 0.37187499999998863,
          "ticks": 78360,
          "durationTicks": 119
        },
        {
          "time": 256.017834,
          "midi": 78,
          "name": "F#5",
          "velocity": 1,
          "duration": 0.37187499999998863,
          "ticks": 78480,
          "durationTicks": 119
        },
        {
          "time": 256.205334,
          "midi": 81,
          "name": "A5",
          "velocity": 0.8031496062992126,
          "duration": 0.18437499999998863,
          "ticks": 78540,
          "durationTicks": 59
        },
        {
          "time": 256.392834,
          "midi": 83,
          "name": "B5",
          "velocity": 0.8503937007874016,
          "duration": 0.37187499999998863,
          "ticks": 78600,
          "durationTicks": 119
        },
        {
          "time": 256.392834,
          "midi": 78,
          "name": "F#5",
          "velocity": 1,
          "duration": 0.37187499999998863,
          "ticks": 78600,
          "durationTicks": 119
        },
        {
          "time": 256.767834,
          "midi": 76,
          "name": "E5",
          "velocity": 1,
          "duration": 0.37187499999998863,
          "ticks": 78720,
          "durationTicks": 119
        },
        {
          "time": 256.955334,
          "midi": 83,
          "name": "B5",
          "velocity": 1,
          "duration": 0.18437499999998863,
          "ticks": 78780,
          "durationTicks": 59
        },
        {
          "time": 257.142834,
          "midi": 83,
          "name": "B5",
          "velocity": 0.905511811023622,
          "duration": 0.37187499999998863,
          "ticks": 78840,
          "durationTicks": 119
        },
        {
          "time": 257.142834,
          "midi": 69,
          "name": "A4",
          "velocity": 0.937007874015748,
          "duration": 0.37187499999998863,
          "ticks": 78840,
          "durationTicks": 119
        },
        {
          "time": 257.517834,
          "midi": 71,
          "name": "B4",
          "velocity": 0.905511811023622,
          "duration": 0.18437499999998863,
          "ticks": 78960,
          "durationTicks": 59
        },
        {
          "time": 257.705334,
          "midi": 85,
          "name": "C#6",
          "velocity": 0.8031496062992126,
          "duration": 0.18437499999998863,
          "ticks": 79020,
          "durationTicks": 59
        },
        {
          "time": 257.705334,
          "midi": 67,
          "name": "G4",
          "velocity": 0.9763779527559056,
          "duration": 0.18437499999998863,
          "ticks": 79020,
          "durationTicks": 59
        },
        {
          "time": 257.892834,
          "midi": 86,
          "name": "D6",
          "velocity": 0.7637795275590551,
          "duration": 0.18437499999998863,
          "ticks": 79080,
          "durationTicks": 59
        },
        {
          "time": 257.892834,
          "midi": 66,
          "name": "F#4",
          "velocity": 1,
          "duration": 0.37187499999998863,
          "ticks": 79080,
          "durationTicks": 119
        },
        {
          "time": 258.080334,
          "midi": 81,
          "name": "A5",
          "velocity": 0.6929133858267716,
          "duration": 0.18437499999998863,
          "ticks": 79140,
          "durationTicks": 59
        },
        {
          "time": 258.267834,
          "midi": 83,
          "name": "B5",
          "velocity": 0.937007874015748,
          "duration": 0.18437499999998863,
          "ticks": 79200,
          "durationTicks": 59
        },
        {
          "time": 258.455334,
          "midi": 81,
          "name": "A5",
          "velocity": 0.7637795275590551,
          "duration": 0.18437499999998863,
          "ticks": 79260,
          "durationTicks": 59
        },
        {
          "time": 258.455334,
          "midi": 66,
          "name": "F#4",
          "velocity": 1,
          "duration": 0.18437499999998863,
          "ticks": 79260,
          "durationTicks": 59
        },
        {
          "time": 258.642834,
          "midi": 79,
          "name": "G5",
          "velocity": 0.7637795275590551,
          "duration": 0.18437499999998863,
          "ticks": 79320,
          "durationTicks": 59
        },
        {
          "time": 258.642834,
          "midi": 67,
          "name": "G4",
          "velocity": 0.9763779527559056,
          "duration": 0.37187499999998863,
          "ticks": 79320,
          "durationTicks": 119
        },
        {
          "time": 258.830334,
          "midi": 78,
          "name": "F#5",
          "velocity": 0.9763779527559056,
          "duration": 0.18437499999998863,
          "ticks": 79380,
          "durationTicks": 59
        },
        {
          "time": 259.017834,
          "midi": 76,
          "name": "E5",
          "velocity": 0.7244094488188977,
          "duration": 0.18437499999998863,
          "ticks": 79440,
          "durationTicks": 59
        },
        {
          "time": 259.017834,
          "midi": 69,
          "name": "A4",
          "velocity": 0.8818897637795275,
          "duration": 0.18437499999998863,
          "ticks": 79440,
          "durationTicks": 59
        },
        {
          "time": 259.205334,
          "midi": 74,
          "name": "D5",
          "velocity": 0.8503937007874016,
          "duration": 0.18437499999998863,
          "ticks": 79500,
          "durationTicks": 59
        },
        {
          "time": 259.205334,
          "midi": 62,
          "name": "D4",
          "velocity": 0.9763779527559056,
          "duration": 0.18437499999998863,
          "ticks": 79500,
          "durationTicks": 59
        },
        {
          "time": 259.392834,
          "midi": 79,
          "name": "G5",
          "velocity": 0.8031496062992126,
          "duration": 0.5593749999999886,
          "ticks": 79560,
          "durationTicks": 179
        },
        {
          "time": 259.392834,
          "midi": 67,
          "name": "G4",
          "velocity": 0.905511811023622,
          "duration": 0.37187499999998863,
          "ticks": 79560,
          "durationTicks": 119
        },
        {
          "time": 259.767834,
          "midi": 73,
          "name": "C#5",
          "velocity": 1,
          "duration": 0.18437499999998863,
          "ticks": 79680,
          "durationTicks": 59
        },
        {
          "time": 259.955334,
          "midi": 78,
          "name": "F#5",
          "velocity": 1,
          "duration": 0.18437499999998863,
          "ticks": 79740,
          "durationTicks": 59
        },
        {
          "time": 259.955334,
          "midi": 74,
          "name": "D5",
          "velocity": 0.8503937007874016,
          "duration": 0.18437499999998863,
          "ticks": 79740,
          "durationTicks": 59
        },
        {
          "time": 260.142834,
          "midi": 78,
          "name": "F#5",
          "velocity": 1,
          "duration": 0.37187499999998863,
          "ticks": 79800,
          "durationTicks": 119
        },
        {
          "time": 260.142834,
          "midi": 74,
          "name": "D5",
          "velocity": 0.905511811023622,
          "duration": 0.37187499999998863,
          "ticks": 79800,
          "durationTicks": 119
        },
        {
          "time": 260.705334,
          "midi": 78,
          "name": "F#5",
          "velocity": 1,
          "duration": 0.18437499999998863,
          "ticks": 79980,
          "durationTicks": 59
        },
        {
          "time": 260.705334,
          "midi": 74,
          "name": "D5",
          "velocity": 1,
          "duration": 0.18437499999998863,
          "ticks": 79980,
          "durationTicks": 59
        },
        {
          "time": 260.892834,
          "midi": 76,
          "name": "E5",
          "velocity": 0.8503937007874016,
          "duration": 0.37187499999998863,
          "ticks": 80040,
          "durationTicks": 119
        },
        {
          "time": 260.892834,
          "midi": 85,
          "name": "C#6",
          "velocity": 0.8503937007874016,
          "duration": 0.37187499999998863,
          "ticks": 80040,
          "durationTicks": 119
        },
        {
          "time": 261.455334,
          "midi": 78,
          "name": "F#5",
          "velocity": 1,
          "duration": 0.18437499999998863,
          "ticks": 80220,
          "durationTicks": 59
        },
        {
          "time": 261.455334,
          "midi": 86,
          "name": "D6",
          "velocity": 1,
          "duration": 0.18437499999998863,
          "ticks": 80220,
          "durationTicks": 59
        },
        {
          "time": 261.642834,
          "midi": 78,
          "name": "F#5",
          "velocity": 0.905511811023622,
          "duration": 0.37187499999998863,
          "ticks": 80280,
          "durationTicks": 119
        },
        {
          "time": 261.642834,
          "midi": 86,
          "name": "D6",
          "velocity": 0.905511811023622,
          "duration": 0.37187499999998863,
          "ticks": 80280,
          "durationTicks": 119
        },
        {
          "time": 262.205334,
          "midi": 74,
          "name": "D5",
          "velocity": 0.8031496062992126,
          "duration": 0.18437499999998863,
          "ticks": 80460,
          "durationTicks": 59
        },
        {
          "time": 262.205334,
          "midi": 78,
          "name": "F#5",
          "velocity": 0.8031496062992126,
          "duration": 0.18437499999998863,
          "ticks": 80460,
          "durationTicks": 59
        },
        {
          "time": 262.392834,
          "midi": 78,
          "name": "F#5",
          "velocity": 0.8503937007874016,
          "duration": 0.37187499999998863,
          "ticks": 80520,
          "durationTicks": 119
        },
        {
          "time": 262.392834,
          "midi": 74,
          "name": "D5",
          "velocity": 0.8503937007874016,
          "duration": 0.37187499999998863,
          "ticks": 80520,
          "durationTicks": 119
        },
        {
          "time": 262.955334,
          "midi": 79,
          "name": "G5",
          "velocity": 1,
          "duration": 0.18437499999998863,
          "ticks": 80700,
          "durationTicks": 59
        },
        {
          "time": 262.955334,
          "midi": 74,
          "name": "D5",
          "velocity": 1,
          "duration": 0.18437499999998863,
          "ticks": 80700,
          "durationTicks": 59
        },
        {
          "time": 263.142834,
          "midi": 79,
          "name": "G5",
          "velocity": 0.905511811023622,
          "duration": 0.37187499999998863,
          "ticks": 80760,
          "durationTicks": 119
        },
        {
          "time": 263.142834,
          "midi": 74,
          "name": "D5",
          "velocity": 0.905511811023622,
          "duration": 0.37187499999998863,
          "ticks": 80760,
          "durationTicks": 119
        },
        {
          "time": 263.705334,
          "midi": 76,
          "name": "E5",
          "velocity": 0.8031496062992126,
          "duration": 0.18437499999998863,
          "ticks": 80940,
          "durationTicks": 59
        },
        {
          "time": 263.705334,
          "midi": 79,
          "name": "G5",
          "velocity": 0.8031496062992126,
          "duration": 0.18437499999998863,
          "ticks": 80940,
          "durationTicks": 59
        },
        {
          "time": 263.892834,
          "midi": 79,
          "name": "G5",
          "velocity": 0.8503937007874016,
          "duration": 0.37187499999998863,
          "ticks": 81000,
          "durationTicks": 119
        },
        {
          "time": 263.892834,
          "midi": 76,
          "name": "E5",
          "velocity": 0.8503937007874016,
          "duration": 0.37187499999998863,
          "ticks": 81000,
          "durationTicks": 119
        },
        {
          "time": 264.455334,
          "midi": 79,
          "name": "G5",
          "velocity": 1,
          "duration": 0.18437499999998863,
          "ticks": 81180,
          "durationTicks": 59
        },
        {
          "time": 264.455334,
          "midi": 76,
          "name": "E5",
          "velocity": 1,
          "duration": 0.18437499999998863,
          "ticks": 81180,
          "durationTicks": 59
        },
        {
          "time": 264.642834,
          "midi": 79,
          "name": "G5",
          "velocity": 0.905511811023622,
          "duration": 0.37187499999998863,
          "ticks": 81240,
          "durationTicks": 119
        },
        {
          "time": 264.642834,
          "midi": 76,
          "name": "E5",
          "velocity": 0.905511811023622,
          "duration": 0.37187499999998863,
          "ticks": 81240,
          "durationTicks": 119
        },
        {
          "time": 265.205334,
          "midi": 76,
          "name": "E5",
          "velocity": 0.8031496062992126,
          "duration": 0.18437499999998863,
          "ticks": 81420,
          "durationTicks": 59
        },
        {
          "time": 265.205334,
          "midi": 79,
          "name": "G5",
          "velocity": 0.8031496062992126,
          "duration": 0.18437499999998863,
          "ticks": 81420,
          "durationTicks": 59
        },
        {
          "time": 265.392834,
          "midi": 78,
          "name": "F#5",
          "velocity": 0.8503937007874016,
          "duration": 0.37187499999998863,
          "ticks": 81480,
          "durationTicks": 119
        },
        {
          "time": 265.392834,
          "midi": 74,
          "name": "D5",
          "velocity": 0.8503937007874016,
          "duration": 0.37187499999998863,
          "ticks": 81480,
          "durationTicks": 119
        },
        {
          "time": 265.955334,
          "midi": 69,
          "name": "A4",
          "velocity": 1,
          "duration": 0.18437499999998863,
          "ticks": 81660,
          "durationTicks": 59
        },
        {
          "time": 265.955334,
          "midi": 81,
          "name": "A5",
          "velocity": 1,
          "duration": 0.18437499999998863,
          "ticks": 81660,
          "durationTicks": 59
        },
        {
          "time": 266.142834,
          "midi": 74,
          "name": "D5",
          "velocity": 0.905511811023622,
          "duration": 0.37187499999998863,
          "ticks": 81720,
          "durationTicks": 119
        },
        {
          "time": 266.142834,
          "midi": 62,
          "name": "D4",
          "velocity": 0.905511811023622,
          "duration": 0.37187499999998863,
          "ticks": 81720,
          "durationTicks": 119
        },
        {
          "time": 290.892834,
          "midi": 76,
          "name": "E5",
          "velocity": 0.937007874015748,
          "duration": 0.37187499999998863,
          "ticks": 89640,
          "durationTicks": 119
        },
        {
          "time": 290.892834,
          "midi": 73,
          "name": "C#5",
          "velocity": 1,
          "duration": 0.37187499999998863,
          "ticks": 89640,
          "durationTicks": 119
        },
        {
          "time": 291.267834,
          "midi": 76,
          "name": "E5",
          "velocity": 0.937007874015748,
          "duration": 0.37187499999998863,
          "ticks": 89760,
          "durationTicks": 119
        },
        {
          "time": 291.267834,
          "midi": 73,
          "name": "C#5",
          "velocity": 1,
          "duration": 0.37187499999998863,
          "ticks": 89760,
          "durationTicks": 119
        },
        {
          "time": 291.642834,
          "midi": 74,
          "name": "D5",
          "velocity": 0.8031496062992126,
          "duration": 0.37187499999998863,
          "ticks": 89880,
          "durationTicks": 119
        },
        {
          "time": 291.642834,
          "midi": 78,
          "name": "F#5",
          "velocity": 0.905511811023622,
          "duration": 0.37187499999998863,
          "ticks": 89880,
          "durationTicks": 119
        },
        {
          "time": 292.017834,
          "midi": 74,
          "name": "D5",
          "velocity": 0.905511811023622,
          "duration": 0.37187499999998863,
          "ticks": 90000,
          "durationTicks": 119
        },
        {
          "time": 292.017834,
          "midi": 66,
          "name": "F#4",
          "velocity": 0.905511811023622,
          "duration": 0.37187499999998863,
          "ticks": 90000,
          "durationTicks": 119
        },
        {
          "time": 292.392834,
          "midi": 76,
          "name": "E5",
          "velocity": 0.937007874015748,
          "duration": 0.37187499999998863,
          "ticks": 90120,
          "durationTicks": 119
        },
        {
          "time": 292.392834,
          "midi": 73,
          "name": "C#5",
          "velocity": 1,
          "duration": 0.37187499999998863,
          "ticks": 90120,
          "durationTicks": 119
        },
        {
          "time": 292.767834,
          "midi": 78,
          "name": "F#5",
          "velocity": 0.937007874015748,
          "duration": 0.18437499999998863,
          "ticks": 90240,
          "durationTicks": 59
        },
        {
          "time": 292.767834,
          "midi": 74,
          "name": "D5",
          "velocity": 0.8503937007874016,
          "duration": 0.18437499999998863,
          "ticks": 90240,
          "durationTicks": 59
        },
        {
          "time": 292.955334,
          "midi": 76,
          "name": "E5",
          "velocity": 0.8503937007874016,
          "duration": 0.18437499999998863,
          "ticks": 90300,
          "durationTicks": 59
        },
        {
          "time": 292.955334,
          "midi": 79,
          "name": "G5",
          "velocity": 0.937007874015748,
          "duration": 0.18437499999998863,
          "ticks": 90300,
          "durationTicks": 59
        },
        {
          "time": 293.142834,
          "midi": 74,
          "name": "D5",
          "velocity": 0.7401574803149606,
          "duration": 0.37187499999998863,
          "ticks": 90360,
          "durationTicks": 119
        },
        {
          "time": 293.142834,
          "midi": 78,
          "name": "F#5",
          "velocity": 0.7637795275590551,
          "duration": 0.37187499999998863,
          "ticks": 90360,
          "durationTicks": 119
        },
        {
          "time": 293.517834,
          "midi": 69,
          "name": "A4",
          "velocity": 0.8031496062992126,
          "duration": 0.37187499999998863,
          "ticks": 90480,
          "durationTicks": 119
        },
        {
          "time": 293.517834,
          "midi": 74,
          "name": "D5",
          "velocity": 1,
          "duration": 0.37187499999998863,
          "ticks": 90480,
          "durationTicks": 119
        },
        {
          "time": 293.892834,
          "midi": 76,
          "name": "E5",
          "velocity": 0.9763779527559056,
          "duration": 0.37187499999998863,
          "ticks": 90600,
          "durationTicks": 119
        },
        {
          "time": 293.892834,
          "midi": 73,
          "name": "C#5",
          "velocity": 1,
          "duration": 0.37187499999998863,
          "ticks": 90600,
          "durationTicks": 119
        },
        {
          "time": 294.267834,
          "midi": 74,
          "name": "D5",
          "velocity": 0.8503937007874016,
          "duration": 0.18437499999998863,
          "ticks": 90720,
          "durationTicks": 59
        },
        {
          "time": 294.267834,
          "midi": 78,
          "name": "F#5",
          "velocity": 1,
          "duration": 0.18437499999998863,
          "ticks": 90720,
          "durationTicks": 59
        },
        {
          "time": 294.455334,
          "midi": 76,
          "name": "E5",
          "velocity": 0.905511811023622,
          "duration": 0.18437499999998863,
          "ticks": 90780,
          "durationTicks": 59
        },
        {
          "time": 294.455334,
          "midi": 79,
          "name": "G5",
          "velocity": 0.8267716535433071,
          "duration": 0.18437499999998863,
          "ticks": 90780,
          "durationTicks": 59
        },
        {
          "time": 294.642834,
          "midi": 73,
          "name": "C#5",
          "velocity": 0.905511811023622,
          "duration": 0.37187499999998863,
          "ticks": 90840,
          "durationTicks": 119
        },
        {
          "time": 294.642834,
          "midi": 78,
          "name": "F#5",
          "velocity": 0.937007874015748,
          "duration": 0.37187499999998863,
          "ticks": 90840,
          "durationTicks": 119
        },
        {
          "time": 295.017834,
          "midi": 76,
          "name": "E5",
          "velocity": 0.8818897637795275,
          "duration": 0.37187499999998863,
          "ticks": 90960,
          "durationTicks": 119
        },
        {
          "time": 295.017834,
          "midi": 73,
          "name": "C#5",
          "velocity": 0.8818897637795275,
          "duration": 0.37187499999998863,
          "ticks": 90960,
          "durationTicks": 119
        },
        {
          "time": 295.392834,
          "midi": 71,
          "name": "B4",
          "velocity": 0.8267716535433071,
          "duration": 0.37187499999998863,
          "ticks": 91080,
          "durationTicks": 119
        },
        {
          "time": 295.392834,
          "midi": 74,
          "name": "D5",
          "velocity": 1,
          "duration": 0.37187499999998863,
          "ticks": 91080,
          "durationTicks": 119
        },
        {
          "time": 295.767834,
          "midi": 68,
          "name": "G#4",
          "velocity": 0.9763779527559056,
          "duration": 0.37187499999998863,
          "ticks": 91200,
          "durationTicks": 119
        },
        {
          "time": 295.767834,
          "midi": 76,
          "name": "E5",
          "velocity": 0.8503937007874016,
          "duration": 0.37187499999998863,
          "ticks": 91200,
          "durationTicks": 119
        },
        {
          "time": 296.142834,
          "midi": 69,
          "name": "A4",
          "velocity": 1,
          "duration": 0.37187499999998863,
          "ticks": 91320,
          "durationTicks": 119
        },
        {
          "time": 296.142834,
          "midi": 69,
          "name": "A4",
          "velocity": 1,
          "duration": 0.37187499999998863,
          "ticks": 91320,
          "durationTicks": 119
        },
        {
          "time": 296.517834,
          "midi": 74,
          "name": "D5",
          "velocity": 0.6535433070866141,
          "duration": 0.7468749999999886,
          "ticks": 91440,
          "durationTicks": 239
        },
        {
          "time": 296.517834,
          "midi": 78,
          "name": "F#5",
          "velocity": 0.9763779527559056,
          "duration": 0.7468749999999886,
          "ticks": 91440,
          "durationTicks": 239
        },
        {
          "time": 297.267834,
          "midi": 74,
          "name": "D5",
          "velocity": 0.8267716535433071,
          "duration": 0.37187499999998863,
          "ticks": 91680,
          "durationTicks": 119
        },
        {
          "time": 297.267834,
          "midi": 78,
          "name": "F#5",
          "velocity": 0.9763779527559056,
          "duration": 0.37187499999998863,
          "ticks": 91680,
          "durationTicks": 119
        },
        {
          "time": 297.642834,
          "midi": 76,
          "name": "E5",
          "velocity": 0.8818897637795275,
          "duration": 0.37187499999998863,
          "ticks": 91800,
          "durationTicks": 119
        },
        {
          "time": 297.642834,
          "midi": 79,
          "name": "G5",
          "velocity": 0.8818897637795275,
          "duration": 0.37187499999998863,
          "ticks": 91800,
          "durationTicks": 119
        },
        {
          "time": 298.017834,
          "midi": 81,
          "name": "A5",
          "velocity": 0.889763779527559,
          "duration": 0.37187499999998863,
          "ticks": 91920,
          "durationTicks": 119
        },
        {
          "time": 298.017834,
          "midi": 78,
          "name": "F#5",
          "velocity": 0.889763779527559,
          "duration": 0.37187499999998863,
          "ticks": 91920,
          "durationTicks": 119
        },
        {
          "time": 298.392834,
          "midi": 78,
          "name": "F#5",
          "velocity": 0.905511811023622,
          "duration": 0.37187499999998863,
          "ticks": 92040,
          "durationTicks": 119
        },
        {
          "time": 298.392834,
          "midi": 81,
          "name": "A5",
          "velocity": 0.905511811023622,
          "duration": 0.37187499999998863,
          "ticks": 92040,
          "durationTicks": 119
        },
        {
          "time": 298.767834,
          "midi": 76,
          "name": "E5",
          "velocity": 0.9448818897637795,
          "duration": 0.37187499999998863,
          "ticks": 92160,
          "durationTicks": 119
        },
        {
          "time": 298.767834,
          "midi": 79,
          "name": "G5",
          "velocity": 0.9448818897637795,
          "duration": 0.37187499999998863,
          "ticks": 92160,
          "durationTicks": 119
        },
        {
          "time": 299.142834,
          "midi": 74,
          "name": "D5",
          "velocity": 1,
          "duration": 0.37187499999998863,
          "ticks": 92280,
          "durationTicks": 119
        },
        {
          "time": 299.142834,
          "midi": 78,
          "name": "F#5",
          "velocity": 1,
          "duration": 0.37187499999998863,
          "ticks": 92280,
          "durationTicks": 119
        },
        {
          "time": 299.517834,
          "midi": 73,
          "name": "C#5",
          "velocity": 1,
          "duration": 0.37187499999998863,
          "ticks": 92400,
          "durationTicks": 119
        },
        {
          "time": 299.517834,
          "midi": 76,
          "name": "E5",
          "velocity": 1,
          "duration": 0.37187499999998863,
          "ticks": 92400,
          "durationTicks": 119
        },
        {
          "time": 299.892834,
          "midi": 69,
          "name": "A4",
          "velocity": 0.9921259842519685,
          "duration": 0.37187499999998863,
          "ticks": 92520,
          "durationTicks": 119
        },
        {
          "time": 299.892834,
          "midi": 74,
          "name": "D5",
          "velocity": 0.9921259842519685,
          "duration": 0.37187499999998863,
          "ticks": 92520,
          "durationTicks": 119
        },
        {
          "time": 300.267834,
          "midi": 69,
          "name": "A4",
          "velocity": 0.9291338582677166,
          "duration": 0.37187499999998863,
          "ticks": 92640,
          "durationTicks": 119
        },
        {
          "time": 300.267834,
          "midi": 74,
          "name": "D5",
          "velocity": 0.9291338582677166,
          "duration": 0.37187499999998863,
          "ticks": 92640,
          "durationTicks": 119
        },
        {
          "time": 300.642834,
          "midi": 76,
          "name": "E5",
          "velocity": 0.8503937007874016,
          "duration": 0.37187499999998863,
          "ticks": 92760,
          "durationTicks": 119
        },
        {
          "time": 300.642834,
          "midi": 67,
          "name": "G4",
          "velocity": 0.8503937007874016,
          "duration": 0.18437499999998863,
          "ticks": 92760,
          "durationTicks": 59
        },
        {
          "time": 300.830334,
          "midi": 73,
          "name": "C#5",
          "velocity": 0.8031496062992126,
          "duration": 0.18437499999998863,
          "ticks": 92820,
          "durationTicks": 59
        },
        {
          "time": 301.017834,
          "midi": 74,
          "name": "D5",
          "velocity": 0.7716535433070866,
          "duration": 0.37187499999998863,
          "ticks": 92880,
          "durationTicks": 119
        },
        {
          "time": 301.017834,
          "midi": 78,
          "name": "F#5",
          "velocity": 0.7716535433070866,
          "duration": 0.37187499999998863,
          "ticks": 92880,
          "durationTicks": 119
        },
        {
          "time": 301.392834,
          "midi": 76,
          "name": "E5",
          "velocity": 0.7244094488188977,
          "duration": 0.5593749999999886,
          "ticks": 93000,
          "durationTicks": 179
        },
        {
          "time": 301.392834,
          "midi": 73,
          "name": "C#5",
          "velocity": 0.7244094488188977,
          "duration": 0.37187499999998863,
          "ticks": 93000,
          "durationTicks": 119
        },
        {
          "time": 301.767834,
          "midi": 67,
          "name": "G4",
          "velocity": 0.7165354330708661,
          "duration": 0.18437499999998863,
          "ticks": 93120,
          "durationTicks": 59
        },
        {
          "time": 301.955334,
          "midi": 74,
          "name": "D5",
          "velocity": 0.7165354330708661,
          "duration": 0.18437499999998863,
          "ticks": 93180,
          "durationTicks": 59
        },
        {
          "time": 301.955334,
          "midi": 66,
          "name": "F#4",
          "velocity": 0.7165354330708661,
          "duration": 0.18437499999998863,
          "ticks": 93180,
          "durationTicks": 59
        },
        {
          "time": 302.142834,
          "midi": 66,
          "name": "F#4",
          "velocity": 0.7165354330708661,
          "duration": 0.37187499999998863,
          "ticks": 93240,
          "durationTicks": 119
        },
        {
          "time": 302.142834,
          "midi": 74,
          "name": "D5",
          "velocity": 0.7165354330708661,
          "duration": 0.37187499999998863,
          "ticks": 93240,
          "durationTicks": 119
        },
        {
          "time": 302.517834,
          "midi": 78,
          "name": "F#5",
          "velocity": 0.7165354330708661,
          "duration": 0.37187499999998863,
          "ticks": 93360,
          "durationTicks": 119
        },
        {
          "time": 302.517834,
          "midi": 81,
          "name": "A5",
          "velocity": 0.7165354330708661,
          "duration": 0.37187499999998863,
          "ticks": 93360,
          "durationTicks": 119
        },
        {
          "time": 302.892834,
          "midi": 76,
          "name": "E5",
          "velocity": 0.7086614173228346,
          "duration": 0.5593749999999886,
          "ticks": 93480,
          "durationTicks": 179
        },
        {
          "time": 302.892834,
          "midi": 79,
          "name": "G5",
          "velocity": 0.7086614173228346,
          "duration": 0.5593749999999886,
          "ticks": 93480,
          "durationTicks": 179
        },
        {
          "time": 303.455334,
          "midi": 78,
          "name": "F#5",
          "velocity": 0.6929133858267716,
          "duration": 0.18437499999998863,
          "ticks": 93660,
          "durationTicks": 59
        },
        {
          "time": 303.455334,
          "midi": 74,
          "name": "D5",
          "velocity": 0.6929133858267716,
          "duration": 0.18437499999998863,
          "ticks": 93660,
          "durationTicks": 59
        },
        {
          "time": 303.642834,
          "midi": 74,
          "name": "D5",
          "velocity": 0.6929133858267716,
          "duration": 0.37187499999998863,
          "ticks": 93720,
          "durationTicks": 119
        },
        {
          "time": 303.642834,
          "midi": 78,
          "name": "F#5",
          "velocity": 0.6929133858267716,
          "duration": 0.37187499999998863,
          "ticks": 93720,
          "durationTicks": 119
        },
        {
          "time": 304.017834,
          "midi": 86,
          "name": "D6",
          "velocity": 0.6771653543307087,
          "duration": 0.37187499999998863,
          "ticks": 93840,
          "durationTicks": 119
        },
        {
          "time": 304.017834,
          "midi": 83,
          "name": "B5",
          "velocity": 0.6771653543307087,
          "duration": 0.37187499999998863,
          "ticks": 93840,
          "durationTicks": 119
        },
        {
          "time": 304.392834,
          "midi": 84,
          "name": "C6",
          "velocity": 0.7086614173228346,
          "duration": 0.5593749999999886,
          "ticks": 93960,
          "durationTicks": 179
        },
        {
          "time": 304.392834,
          "midi": 81,
          "name": "A5",
          "velocity": 0.6929133858267716,
          "duration": 0.5593749999999886,
          "ticks": 93960,
          "durationTicks": 179
        },
        {
          "time": 304.955334,
          "midi": 79,
          "name": "G5",
          "velocity": 0.8267716535433071,
          "duration": 0.18437499999998863,
          "ticks": 94140,
          "durationTicks": 59
        },
        {
          "time": 304.955334,
          "midi": 83,
          "name": "B5",
          "velocity": 0.5905511811023622,
          "duration": 0.18437499999998863,
          "ticks": 94140,
          "durationTicks": 59
        },
        {
          "time": 305.142834,
          "midi": 83,
          "name": "B5",
          "velocity": 0.6771653543307087,
          "duration": 0.37187499999998863,
          "ticks": 94200,
          "durationTicks": 119
        },
        {
          "time": 305.142834,
          "midi": 79,
          "name": "G5",
          "velocity": 0.6929133858267716,
          "duration": 0.37187499999998863,
          "ticks": 94200,
          "durationTicks": 119
        },
        {
          "time": 305.517834,
          "midi": 71,
          "name": "B4",
          "velocity": 0.5669291338582677,
          "duration": 0.18437499999998863,
          "ticks": 94320,
          "durationTicks": 59
        },
        {
          "time": 305.517834,
          "midi": 79,
          "name": "G5",
          "velocity": 0.6771653543307087,
          "duration": 0.18437499999998863,
          "ticks": 94320,
          "durationTicks": 59
        },
        {
          "time": 305.705334,
          "midi": 67,
          "name": "G4",
          "velocity": 0.5669291338582677,
          "duration": 0.18437499999998863,
          "ticks": 94380,
          "durationTicks": 59
        },
        {
          "time": 305.705334,
          "midi": 76,
          "name": "E5",
          "velocity": 0.6929133858267716,
          "duration": 0.18437499999998863,
          "ticks": 94380,
          "durationTicks": 59
        },
        {
          "time": 305.892834,
          "midi": 66,
          "name": "F#4",
          "velocity": 0.7086614173228346,
          "duration": 0.18437499999998863,
          "ticks": 94440,
          "durationTicks": 59
        },
        {
          "time": 305.892834,
          "midi": 74,
          "name": "D5",
          "velocity": 0.5511811023622047,
          "duration": 0.18437499999998863,
          "ticks": 94440,
          "durationTicks": 59
        },
        {
          "time": 306.080334,
          "midi": 64,
          "name": "E4",
          "velocity": 0.5275590551181102,
          "duration": 0.18437499999998863,
          "ticks": 94500,
          "durationTicks": 59
        },
        {
          "time": 306.080334,
          "midi": 73,
          "name": "C#5",
          "velocity": 0.7401574803149606,
          "duration": 0.18437499999998863,
          "ticks": 94500,
          "durationTicks": 59
        },
        {
          "time": 306.267834,
          "midi": 67,
          "name": "G4",
          "velocity": 0.6141732283464567,
          "duration": 0.18437499999998863,
          "ticks": 94560,
          "durationTicks": 59
        },
        {
          "time": 306.267834,
          "midi": 76,
          "name": "E5",
          "velocity": 0.7244094488188977,
          "duration": 0.18437499999998863,
          "ticks": 94560,
          "durationTicks": 59
        },
        {
          "time": 306.455334,
          "midi": 73,
          "name": "C#5",
          "velocity": 0.6377952755905512,
          "duration": 0.18437499999998863,
          "ticks": 94620,
          "durationTicks": 59
        },
        {
          "time": 306.455334,
          "midi": 64,
          "name": "E4",
          "velocity": 0.4881889763779528,
          "duration": 0.18437499999998863,
          "ticks": 94620,
          "durationTicks": 59
        },
        {
          "time": 306.642834,
          "midi": 62,
          "name": "D4",
          "velocity": 0.6141732283464567,
          "duration": 0.18437499999998863,
          "ticks": 94680,
          "durationTicks": 59
        },
        {
          "time": 306.642834,
          "midi": 71,
          "name": "B4",
          "velocity": 0.6535433070866141,
          "duration": 0.18437499999998863,
          "ticks": 94680,
          "durationTicks": 59
        },
        {
          "time": 306.830334,
          "midi": 61,
          "name": "C#4",
          "velocity": 0.8503937007874016,
          "duration": 0.18437499999998863,
          "ticks": 94740,
          "durationTicks": 59
        },
        {
          "time": 306.830334,
          "midi": 69,
          "name": "A4",
          "velocity": 0.6771653543307087,
          "duration": 0.18437499999998863,
          "ticks": 94740,
          "durationTicks": 59
        },
        {
          "time": 307.017834,
          "midi": 62,
          "name": "D4",
          "velocity": 0.6220472440944882,
          "duration": 0.18437499999998863,
          "ticks": 94800,
          "durationTicks": 59
        },
        {
          "time": 307.017834,
          "midi": 71,
          "name": "B4",
          "velocity": 0.5196850393700787,
          "duration": 0.18437499999998863,
          "ticks": 94800,
          "durationTicks": 59
        },
        {
          "time": 307.205334,
          "midi": 64,
          "name": "E4",
          "velocity": 0.6929133858267716,
          "duration": 0.18437499999998863,
          "ticks": 94860,
          "durationTicks": 59
        },
        {
          "time": 307.205334,
          "midi": 73,
          "name": "C#5",
          "velocity": 0.8818897637795275,
          "duration": 0.18437499999998863,
          "ticks": 94860,
          "durationTicks": 59
        },
        {
          "time": 307.392834,
          "midi": 74,
          "name": "D5",
          "velocity": 0.7244094488188977,
          "duration": 0.18437499999998863,
          "ticks": 94920,
          "durationTicks": 59
        },
        {
          "time": 307.392834,
          "midi": 66,
          "name": "F#4",
          "velocity": 0.6929133858267716,
          "duration": 0.18437499999998863,
          "ticks": 94920,
          "durationTicks": 59
        },
        {
          "time": 307.580334,
          "midi": 78,
          "name": "F#5",
          "velocity": 0.6535433070866141,
          "duration": 0.18437499999998863,
          "ticks": 94980,
          "durationTicks": 59
        },
        {
          "time": 307.580334,
          "midi": 69,
          "name": "A4",
          "velocity": 0.47244094488188976,
          "duration": 0.18437499999998863,
          "ticks": 94980,
          "durationTicks": 59
        },
        {
          "time": 307.767834,
          "midi": 76,
          "name": "E5",
          "velocity": 0.5826771653543307,
          "duration": 0.18437499999998863,
          "ticks": 95040,
          "durationTicks": 59
        },
        {
          "time": 307.767834,
          "midi": 67,
          "name": "G4",
          "velocity": 0.5669291338582677,
          "duration": 0.18437499999998863,
          "ticks": 95040,
          "durationTicks": 59
        },
        {
          "time": 307.955334,
          "midi": 64,
          "name": "E4",
          "velocity": 0.48031496062992124,
          "duration": 0.18437499999998863,
          "ticks": 95100,
          "durationTicks": 59
        },
        {
          "time": 307.955334,
          "midi": 73,
          "name": "C#5",
          "velocity": 0.6929133858267716,
          "duration": 0.18437499999998863,
          "ticks": 95100,
          "durationTicks": 59
        },
        {
          "time": 308.142834,
          "midi": 66,
          "name": "F#4",
          "velocity": 0.6220472440944882,
          "duration": 0.18437499999998863,
          "ticks": 95160,
          "durationTicks": 59
        },
        {
          "time": 308.142834,
          "midi": 74,
          "name": "D5",
          "velocity": 0.6771653543307087,
          "duration": 0.18437499999998863,
          "ticks": 95160,
          "durationTicks": 59
        },
        {
          "time": 308.330334,
          "midi": 69,
          "name": "A4",
          "velocity": 0.7637795275590551,
          "duration": 0.18437499999998863,
          "ticks": 95220,
          "durationTicks": 59
        },
        {
          "time": 308.517834,
          "midi": 71,
          "name": "B4",
          "velocity": 0.8503937007874016,
          "duration": 0.18437499999998863,
          "ticks": 95280,
          "durationTicks": 59
        },
        {
          "time": 308.705334,
          "midi": 73,
          "name": "C#5",
          "velocity": 0.937007874015748,
          "duration": 0.18437499999998863,
          "ticks": 95340,
          "durationTicks": 59
        },
        {
          "time": 308.892834,
          "midi": 74,
          "name": "D5",
          "velocity": 0.7637795275590551,
          "duration": 0.18437499999998863,
          "ticks": 95400,
          "durationTicks": 59
        },
        {
          "time": 309.080334,
          "midi": 76,
          "name": "E5",
          "velocity": 0.8031496062992126,
          "duration": 0.18437499999998863,
          "ticks": 95460,
          "durationTicks": 59
        },
        {
          "time": 309.267834,
          "midi": 73,
          "name": "C#5",
          "velocity": 0.937007874015748,
          "duration": 0.18437499999998863,
          "ticks": 95520,
          "durationTicks": 59
        },
        {
          "time": 309.455334,
          "midi": 74,
          "name": "D5",
          "velocity": 0.7401574803149606,
          "duration": 0.18437499999998863,
          "ticks": 95580,
          "durationTicks": 59
        },
        {
          "time": 309.642834,
          "midi": 76,
          "name": "E5",
          "velocity": 0.6535433070866141,
          "duration": 0.18437499999998863,
          "ticks": 95640,
          "durationTicks": 59
        },
        {
          "time": 309.830334,
          "midi": 78,
          "name": "F#5",
          "velocity": 0.7401574803149606,
          "duration": 0.18437499999998863,
          "ticks": 95700,
          "durationTicks": 59
        },
        {
          "time": 310.017834,
          "midi": 79,
          "name": "G5",
          "velocity": 0.6220472440944882,
          "duration": 0.18437499999998863,
          "ticks": 95760,
          "durationTicks": 59
        },
        {
          "time": 310.205334,
          "midi": 78,
          "name": "F#5",
          "velocity": 0.8818897637795275,
          "duration": 0.18437499999998863,
          "ticks": 95820,
          "durationTicks": 59
        },
        {
          "time": 310.392834,
          "midi": 78,
          "name": "F#5",
          "velocity": 0.8818897637795275,
          "duration": 0.18437499999998863,
          "ticks": 95880,
          "durationTicks": 59
        },
        {
          "time": 310.580334,
          "midi": 76,
          "name": "E5",
          "velocity": 0.8031496062992126,
          "duration": 0.18437499999998863,
          "ticks": 95940,
          "durationTicks": 59
        },
        {
          "time": 310.767834,
          "midi": 79,
          "name": "G5",
          "velocity": 0.6141732283464567,
          "duration": 0.18437499999998863,
          "ticks": 96000,
          "durationTicks": 59
        },
        {
          "time": 310.955334,
          "midi": 76,
          "name": "E5",
          "velocity": 0.7795275590551181,
          "duration": 0.18437499999998863,
          "ticks": 96060,
          "durationTicks": 59
        },
        {
          "time": 311.142834,
          "midi": 74,
          "name": "D5",
          "velocity": 0.7637795275590551,
          "duration": 0.18437499999998863,
          "ticks": 96120,
          "durationTicks": 59
        },
        {
          "time": 311.330334,
          "midi": 73,
          "name": "C#5",
          "velocity": 1,
          "duration": 0.18437499999998863,
          "ticks": 96180,
          "durationTicks": 59
        },
        {
          "time": 311.517834,
          "midi": 76,
          "name": "E5",
          "velocity": 0.7086614173228346,
          "duration": 0.18437499999998863,
          "ticks": 96240,
          "durationTicks": 59
        },
        {
          "time": 311.705334,
          "midi": 67,
          "name": "G4",
          "velocity": 0.8031496062992126,
          "duration": 0.18437499999998863,
          "ticks": 96300,
          "durationTicks": 59
        },
        {
          "time": 311.892834,
          "midi": 66,
          "name": "F#4",
          "velocity": 1,
          "duration": 0.37187499999998863,
          "ticks": 96360,
          "durationTicks": 119
        },
        {
          "time": 314.142834,
          "midi": 79,
          "name": "G5",
          "velocity": 0.937007874015748,
          "duration": 0.18437499999998863,
          "ticks": 97080,
          "durationTicks": 59
        },
        {
          "time": 314.330334,
          "midi": 78,
          "name": "F#5",
          "velocity": 1,
          "duration": 0.18437499999998863,
          "ticks": 97140,
          "durationTicks": 59
        },
        {
          "time": 314.517834,
          "midi": 81,
          "name": "A5",
          "velocity": 1,
          "duration": 0.18437499999998863,
          "ticks": 97200,
          "durationTicks": 59
        },
        {
          "time": 314.705334,
          "midi": 79,
          "name": "G5",
          "velocity": 0.9763779527559056,
          "duration": 0.18437499999998863,
          "ticks": 97260,
          "durationTicks": 59
        },
        {
          "time": 314.892834,
          "midi": 78,
          "name": "F#5",
          "velocity": 1,
          "duration": 0.18437499999998863,
          "ticks": 97320,
          "durationTicks": 59
        },
        {
          "time": 315.080334,
          "midi": 79,
          "name": "G5",
          "velocity": 0.9763779527559056,
          "duration": 0.18437499999998863,
          "ticks": 97380,
          "durationTicks": 59
        },
        {
          "time": 315.267834,
          "midi": 80,
          "name": "G#5",
          "velocity": 1,
          "duration": 0.18437499999998863,
          "ticks": 97440,
          "durationTicks": 59
        },
        {
          "time": 315.455334,
          "midi": 81,
          "name": "A5",
          "velocity": 1,
          "duration": 0.18437499999998863,
          "ticks": 97500,
          "durationTicks": 59
        },
        {
          "time": 315.642834,
          "midi": 80,
          "name": "G#5",
          "velocity": 1,
          "duration": 0.18437499999998863,
          "ticks": 97560,
          "durationTicks": 59
        },
        {
          "time": 315.830334,
          "midi": 81,
          "name": "A5",
          "velocity": 1,
          "duration": 0.18437499999998863,
          "ticks": 97620,
          "durationTicks": 59
        },
        {
          "time": 316.017834,
          "midi": 83,
          "name": "B5",
          "velocity": 1,
          "duration": 0.18437499999998863,
          "ticks": 97680,
          "durationTicks": 59
        },
        {
          "time": 316.205334,
          "midi": 81,
          "name": "A5",
          "velocity": 1,
          "duration": 0.18437499999998863,
          "ticks": 97740,
          "durationTicks": 59
        },
        {
          "time": 316.392834,
          "midi": 81,
          "name": "A5",
          "velocity": 1,
          "duration": 0.18437499999998863,
          "ticks": 97800,
          "durationTicks": 59
        },
        {
          "time": 316.580334,
          "midi": 79,
          "name": "G5",
          "velocity": 0.937007874015748,
          "duration": 0.18437499999998863,
          "ticks": 97860,
          "durationTicks": 59
        },
        {
          "time": 316.767834,
          "midi": 83,
          "name": "B5",
          "velocity": 1,
          "duration": 0.18437499999998863,
          "ticks": 97920,
          "durationTicks": 59
        },
        {
          "time": 316.955334,
          "midi": 79,
          "name": "G5",
          "velocity": 1,
          "duration": 0.18437499999998863,
          "ticks": 97980,
          "durationTicks": 59
        },
        {
          "time": 317.142834,
          "midi": 78,
          "name": "F#5",
          "velocity": 1,
          "duration": 0.18437499999998863,
          "ticks": 98040,
          "durationTicks": 59
        },
        {
          "time": 317.330334,
          "midi": 76,
          "name": "E5",
          "velocity": 1,
          "duration": 0.18437499999998863,
          "ticks": 98100,
          "durationTicks": 59
        },
        {
          "time": 317.517834,
          "midi": 79,
          "name": "G5",
          "velocity": 1,
          "duration": 0.18437499999998863,
          "ticks": 98160,
          "durationTicks": 59
        },
        {
          "time": 317.705334,
          "midi": 76,
          "name": "E5",
          "velocity": 1,
          "duration": 0.18437499999998863,
          "ticks": 98220,
          "durationTicks": 59
        },
        {
          "time": 317.892834,
          "midi": 66,
          "name": "F#4",
          "velocity": 1,
          "duration": 0.18437499999998863,
          "ticks": 98280,
          "durationTicks": 59
        },
        {
          "time": 318.080334,
          "midi": 67,
          "name": "G4",
          "velocity": 1,
          "duration": 0.18437499999998863,
          "ticks": 98340,
          "durationTicks": 59
        },
        {
          "time": 318.267834,
          "midi": 69,
          "name": "A4",
          "velocity": 1,
          "duration": 0.18437499999998863,
          "ticks": 98400,
          "durationTicks": 59
        },
        {
          "time": 318.455334,
          "midi": 71,
          "name": "B4",
          "velocity": 1,
          "duration": 0.18437499999998863,
          "ticks": 98460,
          "durationTicks": 59
        },
        {
          "time": 318.642834,
          "midi": 73,
          "name": "C#5",
          "velocity": 1,
          "duration": 0.18437499999998863,
          "ticks": 98520,
          "durationTicks": 59
        },
        {
          "time": 318.830334,
          "midi": 74,
          "name": "D5",
          "velocity": 0.9763779527559056,
          "duration": 0.18437499999998863,
          "ticks": 98580,
          "durationTicks": 59
        },
        {
          "time": 319.017834,
          "midi": 76,
          "name": "E5",
          "velocity": 1,
          "duration": 0.18437499999998863,
          "ticks": 98640,
          "durationTicks": 59
        },
        {
          "time": 319.205334,
          "midi": 78,
          "name": "F#5",
          "velocity": 1,
          "duration": 0.18437499999998863,
          "ticks": 98700,
          "durationTicks": 59
        },
        {
          "time": 319.392834,
          "midi": 74,
          "name": "D5",
          "velocity": 1,
          "duration": 0.18437499999998863,
          "ticks": 98760,
          "durationTicks": 59
        },
        {
          "time": 319.580334,
          "midi": 73,
          "name": "C#5",
          "velocity": 1,
          "duration": 0.18437499999998863,
          "ticks": 98820,
          "durationTicks": 59
        },
        {
          "time": 319.767834,
          "midi": 71,
          "name": "B4",
          "velocity": 1,
          "duration": 0.18437499999998863,
          "ticks": 98880,
          "durationTicks": 59
        },
        {
          "time": 319.955334,
          "midi": 73,
          "name": "C#5",
          "velocity": 1,
          "duration": 0.18437499999998863,
          "ticks": 98940,
          "durationTicks": 59
        },
        {
          "time": 320.142834,
          "midi": 74,
          "name": "D5",
          "velocity": 1,
          "duration": 0.18437499999998863,
          "ticks": 99000,
          "durationTicks": 59
        },
        {
          "time": 320.330334,
          "midi": 69,
          "name": "A4",
          "velocity": 1,
          "duration": 0.18437499999998863,
          "ticks": 99060,
          "durationTicks": 59
        },
        {
          "time": 320.517834,
          "midi": 79,
          "name": "G5",
          "velocity": 1,
          "duration": 0.18437499999998863,
          "ticks": 99120,
          "durationTicks": 59
        },
        {
          "time": 320.705334,
          "midi": 78,
          "name": "F#5",
          "velocity": 1,
          "duration": 0.18437499999998863,
          "ticks": 99180,
          "durationTicks": 59
        },
        {
          "time": 320.892834,
          "midi": 74,
          "name": "D5",
          "velocity": 1,
          "duration": 0.18437499999998863,
          "ticks": 99240,
          "durationTicks": 59
        },
        {
          "time": 321.080334,
          "midi": 73,
          "name": "C#5",
          "velocity": 1,
          "duration": 0.18437499999998863,
          "ticks": 99300,
          "durationTicks": 59
        },
        {
          "time": 321.267834,
          "midi": 71,
          "name": "B4",
          "velocity": 1,
          "duration": 0.18437499999998863,
          "ticks": 99360,
          "durationTicks": 59
        },
        {
          "time": 321.455334,
          "midi": 73,
          "name": "C#5",
          "velocity": 1,
          "duration": 0.18437499999998863,
          "ticks": 99420,
          "durationTicks": 59
        },
        {
          "time": 322.392834,
          "midi": 74,
          "name": "D5",
          "velocity": 1,
          "duration": 0.18437499999998863,
          "ticks": 99720,
          "durationTicks": 59
        },
        {
          "time": 322.580334,
          "midi": 73,
          "name": "C#5",
          "velocity": 1,
          "duration": 0.18437499999998863,
          "ticks": 99780,
          "durationTicks": 59
        },
        {
          "time": 322.767834,
          "midi": 71,
          "name": "B4",
          "velocity": 1,
          "duration": 0.18437499999998863,
          "ticks": 99840,
          "durationTicks": 59
        },
        {
          "time": 322.955334,
          "midi": 73,
          "name": "C#5",
          "velocity": 1,
          "duration": 0.18437499999998863,
          "ticks": 99900,
          "durationTicks": 59
        },
        {
          "time": 324.267834,
          "midi": 74,
          "name": "D5",
          "velocity": 0.937007874015748,
          "duration": 0.18437499999998863,
          "ticks": 100320,
          "durationTicks": 59
        },
        {
          "time": 324.455334,
          "midi": 76,
          "name": "E5",
          "velocity": 1,
          "duration": 0.18437499999998863,
          "ticks": 100380,
          "durationTicks": 59
        },
        {
          "time": 325.017834,
          "midi": 78,
          "name": "F#5",
          "velocity": 0.9763779527559056,
          "duration": 0.18437499999998863,
          "ticks": 100560,
          "durationTicks": 59
        },
        {
          "time": 325.205334,
          "midi": 76,
          "name": "E5",
          "velocity": 0.9763779527559056,
          "duration": 0.18437499999998863,
          "ticks": 100620,
          "durationTicks": 59
        },
        {
          "time": 325.767834,
          "midi": 74,
          "name": "D5",
          "velocity": 0.905511811023622,
          "duration": 0.18437499999998863,
          "ticks": 100800,
          "durationTicks": 59
        },
        {
          "time": 325.955334,
          "midi": 76,
          "name": "E5",
          "velocity": 1,
          "duration": 0.18437499999998863,
          "ticks": 100860,
          "durationTicks": 59
        },
        {
          "time": 326.142834,
          "midi": 67,
          "name": "G4",
          "velocity": 0.937007874015748,
          "duration": 0.18437499999998863,
          "ticks": 100920,
          "durationTicks": 59
        },
        {
          "time": 326.330334,
          "midi": 64,
          "name": "E4",
          "velocity": 1,
          "duration": 0.18437499999998863,
          "ticks": 100980,
          "durationTicks": 59
        },
        {
          "time": 326.517834,
          "midi": 62,
          "name": "D4",
          "velocity": 0.9763779527559056,
          "duration": 0.18437499999998863,
          "ticks": 101040,
          "durationTicks": 59
        },
        {
          "time": 326.705334,
          "midi": 78,
          "name": "F#5",
          "velocity": 1,
          "duration": 0.18437499999998863,
          "ticks": 101100,
          "durationTicks": 59
        },
        {
          "time": 326.892834,
          "midi": 78,
          "name": "F#5",
          "velocity": 1,
          "duration": 0.37187499999998863,
          "ticks": 101160,
          "durationTicks": 119
        },
        {
          "time": 327.267834,
          "midi": 76,
          "name": "E5",
          "velocity": 1,
          "duration": 0.18437499999998863,
          "ticks": 101280,
          "durationTicks": 59
        },
        {
          "time": 327.455334,
          "midi": 78,
          "name": "F#5",
          "velocity": 1,
          "duration": 0.18437499999998863,
          "ticks": 101340,
          "durationTicks": 59
        },
        {
          "time": 328.017834,
          "midi": 83,
          "name": "B5",
          "velocity": 1,
          "duration": 0.18437499999998863,
          "ticks": 101520,
          "durationTicks": 59
        },
        {
          "time": 328.205334,
          "midi": 81,
          "name": "A5",
          "velocity": 1,
          "duration": 0.18437499999998863,
          "ticks": 101580,
          "durationTicks": 59
        },
        {
          "time": 328.767834,
          "midi": 83,
          "name": "B5",
          "velocity": 0.9763779527559056,
          "duration": 0.18437499999998863,
          "ticks": 101760,
          "durationTicks": 59
        },
        {
          "time": 328.955334,
          "midi": 79,
          "name": "G5",
          "velocity": 1,
          "duration": 0.18437499999998863,
          "ticks": 101820,
          "durationTicks": 59
        },
        {
          "time": 329.517834,
          "midi": 79,
          "name": "G5",
          "velocity": 0.937007874015748,
          "duration": 0.18437499999998863,
          "ticks": 102000,
          "durationTicks": 59
        },
        {
          "time": 329.705334,
          "midi": 76,
          "name": "E5",
          "velocity": 1,
          "duration": 0.18437499999998863,
          "ticks": 102060,
          "durationTicks": 59
        },
        {
          "time": 330.267834,
          "midi": 73,
          "name": "C#5",
          "velocity": 1,
          "duration": 0.18437499999998863,
          "ticks": 102240,
          "durationTicks": 59
        },
        {
          "time": 330.455334,
          "midi": 74,
          "name": "D5",
          "velocity": 0.9763779527559056,
          "duration": 0.18437499999998863,
          "ticks": 102300,
          "durationTicks": 59
        },
        {
          "time": 332.517834,
          "midi": 79,
          "name": "G5",
          "velocity": 1,
          "duration": 0.18437499999998863,
          "ticks": 102960,
          "durationTicks": 59
        },
        {
          "time": 332.517834,
          "midi": 76,
          "name": "E5",
          "velocity": 1,
          "duration": 0.18437499999998863,
          "ticks": 102960,
          "durationTicks": 59
        },
        {
          "time": 332.705334,
          "midi": 74,
          "name": "D5",
          "velocity": 1,
          "duration": 0.18437499999998863,
          "ticks": 103020,
          "durationTicks": 59
        },
        {
          "time": 332.705334,
          "midi": 78,
          "name": "F#5",
          "velocity": 1,
          "duration": 0.18437499999998863,
          "ticks": 103020,
          "durationTicks": 59
        },
        {
          "time": 332.892834,
          "midi": 74,
          "name": "D5",
          "velocity": 0.905511811023622,
          "duration": 0.18437499999998863,
          "ticks": 103080,
          "durationTicks": 59
        },
        {
          "time": 332.892834,
          "midi": 78,
          "name": "F#5",
          "velocity": 1,
          "duration": 0.18437499999998863,
          "ticks": 103080,
          "durationTicks": 59
        },
        {
          "time": 333.080334,
          "midi": 73,
          "name": "C#5",
          "velocity": 1,
          "duration": 0.18437499999998863,
          "ticks": 103140,
          "durationTicks": 59
        },
        {
          "time": 333.080334,
          "midi": 76,
          "name": "E5",
          "velocity": 1,
          "duration": 0.18437499999998863,
          "ticks": 103140,
          "durationTicks": 59
        },
        {
          "time": 333.267834,
          "midi": 71,
          "name": "B4",
          "velocity": 0.9763779527559056,
          "duration": 0.18437499999998863,
          "ticks": 103200,
          "durationTicks": 59
        },
        {
          "time": 333.267834,
          "midi": 74,
          "name": "D5",
          "velocity": 1,
          "duration": 0.18437499999998863,
          "ticks": 103200,
          "durationTicks": 59
        },
        {
          "time": 333.455334,
          "midi": 76,
          "name": "E5",
          "velocity": 1,
          "duration": 0.18437499999998863,
          "ticks": 103260,
          "durationTicks": 59
        },
        {
          "time": 333.455334,
          "midi": 73,
          "name": "C#5",
          "velocity": 1,
          "duration": 0.18437499999998863,
          "ticks": 103260,
          "durationTicks": 59
        },
        {
          "time": 333.642834,
          "midi": 79,
          "name": "G5",
          "velocity": 1,
          "duration": 0.18437499999998863,
          "ticks": 103320,
          "durationTicks": 59
        },
        {
          "time": 333.642834,
          "midi": 76,
          "name": "E5",
          "velocity": 1,
          "duration": 0.18437499999998863,
          "ticks": 103320,
          "durationTicks": 59
        },
        {
          "time": 333.830334,
          "midi": 74,
          "name": "D5",
          "velocity": 1,
          "duration": 0.18437499999998863,
          "ticks": 103380,
          "durationTicks": 59
        },
        {
          "time": 333.830334,
          "midi": 78,
          "name": "F#5",
          "velocity": 1,
          "duration": 0.18437499999998863,
          "ticks": 103380,
          "durationTicks": 59
        },
        {
          "time": 334.017834,
          "midi": 67,
          "name": "G4",
          "velocity": 0.8818897637795275,
          "duration": 0.18437499999998863,
          "ticks": 103440,
          "durationTicks": 59
        },
        {
          "time": 334.017834,
          "midi": 76,
          "name": "E5",
          "velocity": 1,
          "duration": 0.18437499999998863,
          "ticks": 103440,
          "durationTicks": 59
        },
        {
          "time": 334.205334,
          "midi": 74,
          "name": "D5",
          "velocity": 1,
          "duration": 0.18437499999998863,
          "ticks": 103500,
          "durationTicks": 59
        },
        {
          "time": 334.205334,
          "midi": 66,
          "name": "F#4",
          "velocity": 1,
          "duration": 0.18437499999998863,
          "ticks": 103500,
          "durationTicks": 59
        },
        {
          "time": 334.392834,
          "midi": 74,
          "name": "D5",
          "velocity": 1,
          "duration": 0.18437499999998863,
          "ticks": 103560,
          "durationTicks": 59
        },
        {
          "time": 334.392834,
          "midi": 78,
          "name": "F#5",
          "velocity": 1,
          "duration": 0.18437499999998863,
          "ticks": 103560,
          "durationTicks": 59
        },
        {
          "time": 334.580334,
          "midi": 73,
          "name": "C#5",
          "velocity": 1,
          "duration": 0.18437499999998863,
          "ticks": 103620,
          "durationTicks": 59
        },
        {
          "time": 334.580334,
          "midi": 76,
          "name": "E5",
          "velocity": 0.8818897637795275,
          "duration": 0.18437499999998863,
          "ticks": 103620,
          "durationTicks": 59
        },
        {
          "time": 334.767834,
          "midi": 71,
          "name": "B4",
          "velocity": 0.9763779527559056,
          "duration": 0.18437499999998863,
          "ticks": 103680,
          "durationTicks": 59
        },
        {
          "time": 334.767834,
          "midi": 74,
          "name": "D5",
          "velocity": 1,
          "duration": 0.18437499999998863,
          "ticks": 103680,
          "durationTicks": 59
        },
        {
          "time": 334.955334,
          "midi": 76,
          "name": "E5",
          "velocity": 1,
          "duration": 0.18437499999998863,
          "ticks": 103740,
          "durationTicks": 59
        },
        {
          "time": 334.955334,
          "midi": 73,
          "name": "C#5",
          "velocity": 1,
          "duration": 0.18437499999998863,
          "ticks": 103740,
          "durationTicks": 59
        },
        {
          "time": 335.142834,
          "midi": 79,
          "name": "G5",
          "velocity": 1,
          "duration": 0.18437499999998863,
          "ticks": 103800,
          "durationTicks": 59
        },
        {
          "time": 335.142834,
          "midi": 76,
          "name": "E5",
          "velocity": 1,
          "duration": 0.18437499999998863,
          "ticks": 103800,
          "durationTicks": 59
        },
        {
          "time": 335.330334,
          "midi": 74,
          "name": "D5",
          "velocity": 1,
          "duration": 0.18437499999998863,
          "ticks": 103860,
          "durationTicks": 59
        },
        {
          "time": 335.330334,
          "midi": 78,
          "name": "F#5",
          "velocity": 1,
          "duration": 0.18437499999998863,
          "ticks": 103860,
          "durationTicks": 59
        },
        {
          "time": 335.517834,
          "midi": 67,
          "name": "G4",
          "velocity": 1,
          "duration": 0.18437499999998863,
          "ticks": 103920,
          "durationTicks": 59
        },
        {
          "time": 335.517834,
          "midi": 76,
          "name": "E5",
          "velocity": 1,
          "duration": 0.18437499999998863,
          "ticks": 103920,
          "durationTicks": 59
        },
        {
          "time": 335.705334,
          "midi": 74,
          "name": "D5",
          "velocity": 0.9763779527559056,
          "duration": 0.18437499999998863,
          "ticks": 103980,
          "durationTicks": 59
        },
        {
          "time": 335.705334,
          "midi": 66,
          "name": "F#4",
          "velocity": 1,
          "duration": 0.18437499999998863,
          "ticks": 103980,
          "durationTicks": 59
        },
        {
          "time": 335.892834,
          "midi": 74,
          "name": "D5",
          "velocity": 0.9763779527559056,
          "duration": 0.18437499999998863,
          "ticks": 104040,
          "durationTicks": 59
        },
        {
          "time": 335.892834,
          "midi": 78,
          "name": "F#5",
          "velocity": 1,
          "duration": 0.18437499999998863,
          "ticks": 104040,
          "durationTicks": 59
        },
        {
          "time": 336.080334,
          "midi": 76,
          "name": "E5",
          "velocity": 1,
          "duration": 0.18437499999998863,
          "ticks": 104100,
          "durationTicks": 59
        },
        {
          "time": 336.080334,
          "midi": 73,
          "name": "C#5",
          "velocity": 1,
          "duration": 0.18437499999998863,
          "ticks": 104100,
          "durationTicks": 59
        },
        {
          "time": 336.267834,
          "midi": 71,
          "name": "B4",
          "velocity": 0.937007874015748,
          "duration": 0.18437499999998863,
          "ticks": 104160,
          "durationTicks": 59
        },
        {
          "time": 336.267834,
          "midi": 74,
          "name": "D5",
          "velocity": 1,
          "duration": 0.18437499999998863,
          "ticks": 104160,
          "durationTicks": 59
        },
        {
          "time": 336.455334,
          "midi": 76,
          "name": "E5",
          "velocity": 1,
          "duration": 0.18437499999998863,
          "ticks": 104220,
          "durationTicks": 59
        },
        {
          "time": 336.455334,
          "midi": 73,
          "name": "C#5",
          "velocity": 1,
          "duration": 0.18437499999998863,
          "ticks": 104220,
          "durationTicks": 59
        },
        {
          "time": 336.642834,
          "midi": 76,
          "name": "E5",
          "velocity": 1,
          "duration": 0.18437499999998863,
          "ticks": 104280,
          "durationTicks": 59
        },
        {
          "time": 336.642834,
          "midi": 79,
          "name": "G5",
          "velocity": 1,
          "duration": 0.18437499999998863,
          "ticks": 104280,
          "durationTicks": 59
        },
        {
          "time": 336.830334,
          "midi": 74,
          "name": "D5",
          "velocity": 0.937007874015748,
          "duration": 0.18437499999998863,
          "ticks": 104340,
          "durationTicks": 59
        },
        {
          "time": 336.830334,
          "midi": 78,
          "name": "F#5",
          "velocity": 1,
          "duration": 0.18437499999998863,
          "ticks": 104340,
          "durationTicks": 59
        },
        {
          "time": 337.017834,
          "midi": 74,
          "name": "D5",
          "velocity": 0.8503937007874016,
          "duration": 0.18437499999998863,
          "ticks": 104400,
          "durationTicks": 59
        },
        {
          "time": 337.017834,
          "midi": 78,
          "name": "F#5",
          "velocity": 1,
          "duration": 0.18437499999998863,
          "ticks": 104400,
          "durationTicks": 59
        },
        {
          "time": 337.205334,
          "midi": 76,
          "name": "E5",
          "velocity": 1,
          "duration": 0.18437499999998863,
          "ticks": 104460,
          "durationTicks": 59
        },
        {
          "time": 337.205334,
          "midi": 73,
          "name": "C#5",
          "velocity": 1,
          "duration": 0.18437499999998863,
          "ticks": 104460,
          "durationTicks": 59
        },
        {
          "time": 337.392834,
          "midi": 76,
          "name": "E5",
          "velocity": 1,
          "duration": 0.18437499999998863,
          "ticks": 104520,
          "durationTicks": 59
        },
        {
          "time": 337.392834,
          "midi": 73,
          "name": "C#5",
          "velocity": 1,
          "duration": 0.18437499999998863,
          "ticks": 104520,
          "durationTicks": 59
        },
        {
          "time": 337.580334,
          "midi": 71,
          "name": "B4",
          "velocity": 0.937007874015748,
          "duration": 0.18437499999998863,
          "ticks": 104580,
          "durationTicks": 59
        },
        {
          "time": 337.580334,
          "midi": 74,
          "name": "D5",
          "velocity": 1,
          "duration": 0.18437499999998863,
          "ticks": 104580,
          "durationTicks": 59
        },
        {
          "time": 337.767834,
          "midi": 71,
          "name": "B4",
          "velocity": 0.905511811023622,
          "duration": 0.18437499999998863,
          "ticks": 104640,
          "durationTicks": 59
        },
        {
          "time": 337.767834,
          "midi": 74,
          "name": "D5",
          "velocity": 1,
          "duration": 0.18437499999998863,
          "ticks": 104640,
          "durationTicks": 59
        },
        {
          "time": 337.955334,
          "midi": 76,
          "name": "E5",
          "velocity": 1,
          "duration": 0.18437499999998863,
          "ticks": 104700,
          "durationTicks": 59
        },
        {
          "time": 337.955334,
          "midi": 68,
          "name": "G#4",
          "velocity": 1,
          "duration": 0.18437499999998863,
          "ticks": 104700,
          "durationTicks": 59
        },
        {
          "time": 338.142834,
          "midi": 69,
          "name": "A4",
          "velocity": 1,
          "duration": 0.18437499999998863,
          "ticks": 104760,
          "durationTicks": 59
        },
        {
          "time": 338.142834,
          "midi": 69,
          "name": "A4",
          "velocity": 1,
          "duration": 0.18437499999998863,
          "ticks": 104760,
          "durationTicks": 59
        },
        {
          "time": 338.330334,
          "midi": 76,
          "name": "E5",
          "velocity": 1,
          "duration": 0.18437499999998863,
          "ticks": 104820,
          "durationTicks": 59
        },
        {
          "time": 338.330334,
          "midi": 79,
          "name": "G5",
          "velocity": 1,
          "duration": 0.18437499999998863,
          "ticks": 104820,
          "durationTicks": 59
        },
        {
          "time": 338.517834,
          "midi": 74,
          "name": "D5",
          "velocity": 0.9763779527559056,
          "duration": 0.18437499999998863,
          "ticks": 104880,
          "durationTicks": 59
        },
        {
          "time": 338.517834,
          "midi": 78,
          "name": "F#5",
          "velocity": 1,
          "duration": 0.18437499999998863,
          "ticks": 104880,
          "durationTicks": 59
        },
        {
          "time": 338.705334,
          "midi": 73,
          "name": "C#5",
          "velocity": 1,
          "duration": 0.18437499999998863,
          "ticks": 104940,
          "durationTicks": 59
        },
        {
          "time": 338.705334,
          "midi": 76,
          "name": "E5",
          "velocity": 1,
          "duration": 0.18437499999998863,
          "ticks": 104940,
          "durationTicks": 59
        },
        {
          "time": 338.892834,
          "midi": 74,
          "name": "D5",
          "velocity": 0.9763779527559056,
          "duration": 0.18437499999998863,
          "ticks": 105000,
          "durationTicks": 59
        },
        {
          "time": 338.892834,
          "midi": 78,
          "name": "F#5",
          "velocity": 1,
          "duration": 0.18437499999998863,
          "ticks": 105000,
          "durationTicks": 59
        },
        {
          "time": 339.080334,
          "midi": 79,
          "name": "G5",
          "velocity": 0.9763779527559056,
          "duration": 0.18437499999998863,
          "ticks": 105060,
          "durationTicks": 59
        },
        {
          "time": 339.080334,
          "midi": 76,
          "name": "E5",
          "velocity": 0.9763779527559056,
          "duration": 0.18437499999998863,
          "ticks": 105060,
          "durationTicks": 59
        },
        {
          "time": 339.267834,
          "midi": 76,
          "name": "E5",
          "velocity": 1,
          "duration": 0.18437499999998863,
          "ticks": 105120,
          "durationTicks": 59
        },
        {
          "time": 339.267834,
          "midi": 73,
          "name": "C#5",
          "velocity": 1,
          "duration": 0.18437499999998863,
          "ticks": 105120,
          "durationTicks": 59
        },
        {
          "time": 339.455334,
          "midi": 74,
          "name": "D5",
          "velocity": 0.9763779527559056,
          "duration": 0.18437499999998863,
          "ticks": 105180,
          "durationTicks": 59
        },
        {
          "time": 339.455334,
          "midi": 78,
          "name": "F#5",
          "velocity": 1,
          "duration": 0.18437499999998863,
          "ticks": 105180,
          "durationTicks": 59
        },
        {
          "time": 339.642834,
          "midi": 76,
          "name": "E5",
          "velocity": 1,
          "duration": 0.18437499999998863,
          "ticks": 105240,
          "durationTicks": 59
        },
        {
          "time": 339.642834,
          "midi": 79,
          "name": "G5",
          "velocity": 1,
          "duration": 0.18437499999998863,
          "ticks": 105240,
          "durationTicks": 59
        },
        {
          "time": 339.830334,
          "midi": 78,
          "name": "F#5",
          "velocity": 1,
          "duration": 0.18437499999998863,
          "ticks": 105300,
          "durationTicks": 59
        },
        {
          "time": 339.830334,
          "midi": 81,
          "name": "A5",
          "velocity": 1,
          "duration": 0.18437499999998863,
          "ticks": 105300,
          "durationTicks": 59
        },
        {
          "time": 340.017834,
          "midi": 83,
          "name": "B5",
          "velocity": 1,
          "duration": 0.18437499999998863,
          "ticks": 105360,
          "durationTicks": 59
        },
        {
          "time": 340.017834,
          "midi": 79,
          "name": "G5",
          "velocity": 1,
          "duration": 0.18437499999998863,
          "ticks": 105360,
          "durationTicks": 59
        },
        {
          "time": 340.205334,
          "midi": 81,
          "name": "A5",
          "velocity": 1,
          "duration": 0.18437499999998863,
          "ticks": 105420,
          "durationTicks": 59
        },
        {
          "time": 340.205334,
          "midi": 78,
          "name": "F#5",
          "velocity": 1,
          "duration": 0.18437499999998863,
          "ticks": 105420,
          "durationTicks": 59
        },
        {
          "time": 340.392834,
          "midi": 72,
          "name": "C5",
          "velocity": 1,
          "duration": 0.18437499999998863,
          "ticks": 105480,
          "durationTicks": 59
        },
        {
          "time": 340.392834,
          "midi": 81,
          "name": "A5",
          "velocity": 1,
          "duration": 0.18437499999998863,
          "ticks": 105480,
          "durationTicks": 59
        },
        {
          "time": 340.580334,
          "midi": 79,
          "name": "G5",
          "velocity": 1,
          "duration": 0.18437499999998863,
          "ticks": 105540,
          "durationTicks": 59
        },
        {
          "time": 340.580334,
          "midi": 71,
          "name": "B4",
          "velocity": 1,
          "duration": 0.18437499999998863,
          "ticks": 105540,
          "durationTicks": 59
        },
        {
          "time": 340.767834,
          "midi": 74,
          "name": "D5",
          "velocity": 1,
          "duration": 0.18437499999998863,
          "ticks": 105600,
          "durationTicks": 59
        },
        {
          "time": 340.767834,
          "midi": 83,
          "name": "B5",
          "velocity": 0.9763779527559056,
          "duration": 0.18437499999998863,
          "ticks": 105600,
          "durationTicks": 59
        },
        {
          "time": 340.955334,
          "midi": 71,
          "name": "B4",
          "velocity": 0.937007874015748,
          "duration": 0.18437499999998863,
          "ticks": 105660,
          "durationTicks": 59
        },
        {
          "time": 340.955334,
          "midi": 79,
          "name": "G5",
          "velocity": 0.905511811023622,
          "duration": 0.18437499999998863,
          "ticks": 105660,
          "durationTicks": 59
        },
        {
          "time": 341.142834,
          "midi": 74,
          "name": "D5",
          "velocity": 0.9763779527559056,
          "duration": 0.18437499999998863,
          "ticks": 105720,
          "durationTicks": 59
        },
        {
          "time": 341.142834,
          "midi": 78,
          "name": "F#5",
          "velocity": 1,
          "duration": 0.18437499999998863,
          "ticks": 105720,
          "durationTicks": 59
        },
        {
          "time": 341.330334,
          "midi": 76,
          "name": "E5",
          "velocity": 1,
          "duration": 0.18437499999998863,
          "ticks": 105780,
          "durationTicks": 59
        },
        {
          "time": 341.330334,
          "midi": 73,
          "name": "C#5",
          "velocity": 1,
          "duration": 0.18437499999998863,
          "ticks": 105780,
          "durationTicks": 59
        },
        {
          "time": 341.517834,
          "midi": 79,
          "name": "G5",
          "velocity": 1,
          "duration": 0.18437499999998863,
          "ticks": 105840,
          "durationTicks": 59
        },
        {
          "time": 341.517834,
          "midi": 76,
          "name": "E5",
          "velocity": 1,
          "duration": 0.18437499999998863,
          "ticks": 105840,
          "durationTicks": 59
        },
        {
          "time": 341.705334,
          "midi": 73,
          "name": "C#5",
          "velocity": 1,
          "duration": 0.18437499999998863,
          "ticks": 105900,
          "durationTicks": 59
        },
        {
          "time": 341.705334,
          "midi": 76,
          "name": "E5",
          "velocity": 0.905511811023622,
          "duration": 0.18437499999998863,
          "ticks": 105900,
          "durationTicks": 59
        },
        {
          "time": 341.892834,
          "midi": 67,
          "name": "G4",
          "velocity": 0.905511811023622,
          "duration": 0.18437499999998863,
          "ticks": 105960,
          "durationTicks": 59
        },
        {
          "time": 341.892834,
          "midi": 76,
          "name": "E5",
          "velocity": 1,
          "duration": 0.18437499999998863,
          "ticks": 105960,
          "durationTicks": 59
        },
        {
          "time": 342.080334,
          "midi": 74,
          "name": "D5",
          "velocity": 1,
          "duration": 0.18437499999998863,
          "ticks": 106020,
          "durationTicks": 59
        },
        {
          "time": 342.080334,
          "midi": 66,
          "name": "F#4",
          "velocity": 1,
          "duration": 0.18437499999998863,
          "ticks": 106020,
          "durationTicks": 59
        },
        {
          "time": 342.267834,
          "midi": 64,
          "name": "E4",
          "velocity": 0.905511811023622,
          "duration": 0.18437499999998863,
          "ticks": 106080,
          "durationTicks": 59
        },
        {
          "time": 342.267834,
          "midi": 73,
          "name": "C#5",
          "velocity": 1,
          "duration": 0.18437499999998863,
          "ticks": 106080,
          "durationTicks": 59
        },
        {
          "time": 342.455334,
          "midi": 74,
          "name": "D5",
          "velocity": 1,
          "duration": 0.18437499999998863,
          "ticks": 106140,
          "durationTicks": 59
        },
        {
          "time": 342.455334,
          "midi": 66,
          "name": "F#4",
          "velocity": 1,
          "duration": 0.18437499999998863,
          "ticks": 106140,
          "durationTicks": 59
        },
        {
          "time": 342.642834,
          "midi": 74,
          "name": "D5",
          "velocity": 1,
          "duration": 0.18437499999998863,
          "ticks": 106200,
          "durationTicks": 59
        },
        {
          "time": 342.642834,
          "midi": 78,
          "name": "F#5",
          "velocity": 1,
          "duration": 0.18437499999998863,
          "ticks": 106200,
          "durationTicks": 59
        },
        {
          "time": 342.830334,
          "midi": 76,
          "name": "E5",
          "velocity": 1,
          "duration": 0.18437499999998863,
          "ticks": 106260,
          "durationTicks": 59
        },
        {
          "time": 342.830334,
          "midi": 73,
          "name": "C#5",
          "velocity": 1,
          "duration": 0.18437499999998863,
          "ticks": 106260,
          "durationTicks": 59
        },
        {
          "time": 343.017834,
          "midi": 76,
          "name": "E5",
          "velocity": 1,
          "duration": 0.18437499999998863,
          "ticks": 106320,
          "durationTicks": 59
        },
        {
          "time": 343.017834,
          "midi": 79,
          "name": "G5",
          "velocity": 1,
          "duration": 0.18437499999998863,
          "ticks": 106320,
          "durationTicks": 59
        },
        {
          "time": 343.205334,
          "midi": 74,
          "name": "D5",
          "velocity": 1,
          "duration": 0.18437499999998863,
          "ticks": 106380,
          "durationTicks": 59
        },
        {
          "time": 343.205334,
          "midi": 78,
          "name": "F#5",
          "velocity": 1,
          "duration": 0.18437499999998863,
          "ticks": 106380,
          "durationTicks": 59
        },
        {
          "time": 343.392834,
          "midi": 74,
          "name": "D5",
          "velocity": 1,
          "duration": 0.18437499999998863,
          "ticks": 106440,
          "durationTicks": 59
        },
        {
          "time": 343.392834,
          "midi": 78,
          "name": "F#5",
          "velocity": 1,
          "duration": 0.18437499999998863,
          "ticks": 106440,
          "durationTicks": 59
        },
        {
          "time": 343.580334,
          "midi": 76,
          "name": "E5",
          "velocity": 1,
          "duration": 0.37187499999998863,
          "ticks": 106500,
          "durationTicks": 119
        },
        {
          "time": 343.580334,
          "midi": 73,
          "name": "C#5",
          "velocity": 1,
          "duration": 0.37187499999998863,
          "ticks": 106500,
          "durationTicks": 119
        },
        {
          "time": 343.955334,
          "midi": 69,
          "name": "A4",
          "velocity": 0.7244094488188977,
          "duration": 0.18437499999998863,
          "ticks": 106620,
          "durationTicks": 59
        },
        {
          "time": 343.955334,
          "midi": 74,
          "name": "D5",
          "velocity": 1,
          "duration": 0.18437499999998863,
          "ticks": 106620,
          "durationTicks": 59
        },
        {
          "time": 344.142834,
          "midi": 74,
          "name": "D5",
          "velocity": 1,
          "duration": 0.37187499999998863,
          "ticks": 106680,
          "durationTicks": 119
        },
        {
          "time": 344.142834,
          "midi": 74,
          "name": "D5",
          "velocity": 1,
          "duration": 0.37187499999998863,
          "ticks": 106680,
          "durationTicks": 119
        },
        {
          "time": 344.517834,
          "midi": 81,
          "name": "A5",
          "velocity": 1,
          "duration": 0.37187499999998863,
          "ticks": 106800,
          "durationTicks": 119
        },
        {
          "time": 344.517834,
          "midi": 78,
          "name": "F#5",
          "velocity": 1,
          "duration": 0.37187499999998863,
          "ticks": 106800,
          "durationTicks": 119
        },
        {
          "time": 344.892834,
          "midi": 76,
          "name": "E5",
          "velocity": 1,
          "duration": 0.5593749999999886,
          "ticks": 106920,
          "durationTicks": 179
        },
        {
          "time": 344.892834,
          "midi": 79,
          "name": "G5",
          "velocity": 1,
          "duration": 0.5593749999999886,
          "ticks": 106920,
          "durationTicks": 179
        },
        {
          "time": 345.455334,
          "midi": 74,
          "name": "D5",
          "velocity": 1,
          "duration": 0.18437499999998863,
          "ticks": 107100,
          "durationTicks": 59
        },
        {
          "time": 345.455334,
          "midi": 78,
          "name": "F#5",
          "velocity": 1,
          "duration": 0.18437499999998863,
          "ticks": 107100,
          "durationTicks": 59
        },
        {
          "time": 345.642834,
          "midi": 74,
          "name": "D5",
          "velocity": 1,
          "duration": 0.37187499999998863,
          "ticks": 107160,
          "durationTicks": 119
        },
        {
          "time": 345.642834,
          "midi": 78,
          "name": "F#5",
          "velocity": 1,
          "duration": 0.37187499999998863,
          "ticks": 107160,
          "durationTicks": 119
        },
        {
          "time": 346.017834,
          "midi": 86,
          "name": "D6",
          "velocity": 0.9763779527559056,
          "duration": 0.37187499999998863,
          "ticks": 107280,
          "durationTicks": 119
        },
        {
          "time": 346.017834,
          "midi": 74,
          "name": "D5",
          "velocity": 0.937007874015748,
          "duration": 0.37187499999998863,
          "ticks": 107280,
          "durationTicks": 119
        },
        {
          "time": 346.392834,
          "midi": 81,
          "name": "A5",
          "velocity": 1,
          "duration": 0.5593749999999886,
          "ticks": 107400,
          "durationTicks": 179
        },
        {
          "time": 346.392834,
          "midi": 84,
          "name": "C6",
          "velocity": 1,
          "duration": 0.5593749999999886,
          "ticks": 107400,
          "durationTicks": 179
        },
        {
          "time": 346.955334,
          "midi": 83,
          "name": "B5",
          "velocity": 1,
          "duration": 0.18437499999998863,
          "ticks": 107580,
          "durationTicks": 59
        },
        {
          "time": 346.955334,
          "midi": 79,
          "name": "G5",
          "velocity": 1,
          "duration": 0.18437499999998863,
          "ticks": 107580,
          "durationTicks": 59
        },
        {
          "time": 347.142834,
          "midi": 79,
          "name": "G5",
          "velocity": 1,
          "duration": 0.37187499999998863,
          "ticks": 107640,
          "durationTicks": 119
        },
        {
          "time": 347.142834,
          "midi": 83,
          "name": "B5",
          "velocity": 1,
          "duration": 0.37187499999998863,
          "ticks": 107640,
          "durationTicks": 119
        },
        {
          "time": 347.517834,
          "midi": 79,
          "name": "G5",
          "velocity": 1,
          "duration": 0.18437499999998863,
          "ticks": 107760,
          "durationTicks": 59
        },
        {
          "time": 347.517834,
          "midi": 79,
          "name": "G5",
          "velocity": 1,
          "duration": 0.18437499999998863,
          "ticks": 107760,
          "durationTicks": 59
        },
        {
          "time": 347.705334,
          "midi": 76,
          "name": "E5",
          "velocity": 1,
          "duration": 0.18437499999998863,
          "ticks": 107820,
          "durationTicks": 59
        },
        {
          "time": 347.705334,
          "midi": 76,
          "name": "E5",
          "velocity": 1,
          "duration": 0.18437499999998863,
          "ticks": 107820,
          "durationTicks": 59
        },
        {
          "time": 347.892834,
          "midi": 74,
          "name": "D5",
          "velocity": 1,
          "duration": 0.18437499999998863,
          "ticks": 107880,
          "durationTicks": 59
        },
        {
          "time": 347.892834,
          "midi": 74,
          "name": "D5",
          "velocity": 1,
          "duration": 0.18437499999998863,
          "ticks": 107880,
          "durationTicks": 59
        },
        {
          "time": 348.080334,
          "midi": 73,
          "name": "C#5",
          "velocity": 1,
          "duration": 0.18437499999998863,
          "ticks": 107940,
          "durationTicks": 59
        },
        {
          "time": 348.080334,
          "midi": 73,
          "name": "C#5",
          "velocity": 1,
          "duration": 0.18437499999998863,
          "ticks": 107940,
          "durationTicks": 59
        },
        {
          "time": 348.267834,
          "midi": 76,
          "name": "E5",
          "velocity": 1,
          "duration": 0.18437499999998863,
          "ticks": 108000,
          "durationTicks": 59
        },
        {
          "time": 348.267834,
          "midi": 76,
          "name": "E5",
          "velocity": 1,
          "duration": 0.18437499999998863,
          "ticks": 108000,
          "durationTicks": 59
        },
        {
          "time": 348.455334,
          "midi": 73,
          "name": "C#5",
          "velocity": 1,
          "duration": 0.18437499999998863,
          "ticks": 108060,
          "durationTicks": 59
        },
        {
          "time": 348.455334,
          "midi": 73,
          "name": "C#5",
          "velocity": 1,
          "duration": 0.18437499999998863,
          "ticks": 108060,
          "durationTicks": 59
        },
        {
          "time": 348.642834,
          "midi": 71,
          "name": "B4",
          "velocity": 1,
          "duration": 0.18437499999998863,
          "ticks": 108120,
          "durationTicks": 59
        },
        {
          "time": 348.642834,
          "midi": 71,
          "name": "B4",
          "velocity": 1,
          "duration": 0.18437499999998863,
          "ticks": 108120,
          "durationTicks": 59
        },
        {
          "time": 348.830334,
          "midi": 69,
          "name": "A4",
          "velocity": 1,
          "duration": 0.18437499999998863,
          "ticks": 108180,
          "durationTicks": 59
        },
        {
          "time": 348.830334,
          "midi": 69,
          "name": "A4",
          "velocity": 1,
          "duration": 0.18437499999998863,
          "ticks": 108180,
          "durationTicks": 59
        },
        {
          "time": 349.017834,
          "midi": 71,
          "name": "B4",
          "velocity": 1,
          "duration": 0.18437499999998863,
          "ticks": 108240,
          "durationTicks": 59
        },
        {
          "time": 349.017834,
          "midi": 71,
          "name": "B4",
          "velocity": 1,
          "duration": 0.18437499999998863,
          "ticks": 108240,
          "durationTicks": 59
        },
        {
          "time": 349.205334,
          "midi": 73,
          "name": "C#5",
          "velocity": 1,
          "duration": 0.18437499999998863,
          "ticks": 108300,
          "durationTicks": 59
        },
        {
          "time": 349.205334,
          "midi": 73,
          "name": "C#5",
          "velocity": 1,
          "duration": 0.18437499999998863,
          "ticks": 108300,
          "durationTicks": 59
        },
        {
          "time": 349.392834,
          "midi": 76,
          "name": "E5",
          "velocity": 1,
          "duration": 0.18437499999998863,
          "ticks": 108360,
          "durationTicks": 59
        },
        {
          "time": 349.392834,
          "midi": 76,
          "name": "E5",
          "velocity": 1,
          "duration": 0.18437499999998863,
          "ticks": 108360,
          "durationTicks": 59
        },
        {
          "time": 349.580334,
          "midi": 74,
          "name": "D5",
          "velocity": 1,
          "duration": 0.18437499999998863,
          "ticks": 108420,
          "durationTicks": 59
        },
        {
          "time": 349.580334,
          "midi": 74,
          "name": "D5",
          "velocity": 1,
          "duration": 0.18437499999998863,
          "ticks": 108420,
          "durationTicks": 59
        },
        {
          "time": 349.767834,
          "midi": 78,
          "name": "F#5",
          "velocity": 1,
          "duration": 0.18437499999998863,
          "ticks": 108480,
          "durationTicks": 59
        },
        {
          "time": 349.767834,
          "midi": 78,
          "name": "F#5",
          "velocity": 1,
          "duration": 0.18437499999998863,
          "ticks": 108480,
          "durationTicks": 59
        },
        {
          "time": 349.955334,
          "midi": 86,
          "name": "D6",
          "velocity": 1,
          "duration": 0.18437499999998863,
          "ticks": 108540,
          "durationTicks": 59
        },
        {
          "time": 349.955334,
          "midi": 74,
          "name": "D5",
          "velocity": 1,
          "duration": 0.18437499999998863,
          "ticks": 108540,
          "durationTicks": 59
        },
        {
          "time": 350.142834,
          "midi": 85,
          "name": "C#6",
          "velocity": 1,
          "duration": 0.18437499999998863,
          "ticks": 108600,
          "durationTicks": 59
        },
        {
          "time": 350.142834,
          "midi": 73,
          "name": "C#5",
          "velocity": 1,
          "duration": 0.18437499999998863,
          "ticks": 108600,
          "durationTicks": 59
        },
        {
          "time": 350.330334,
          "midi": 83,
          "name": "B5",
          "velocity": 1,
          "duration": 0.18437499999998863,
          "ticks": 108660,
          "durationTicks": 59
        },
        {
          "time": 350.330334,
          "midi": 71,
          "name": "B4",
          "velocity": 1,
          "duration": 0.18437499999998863,
          "ticks": 108660,
          "durationTicks": 59
        },
        {
          "time": 350.517834,
          "midi": 86,
          "name": "D6",
          "velocity": 1,
          "duration": 0.18437499999998863,
          "ticks": 108720,
          "durationTicks": 59
        },
        {
          "time": 350.517834,
          "midi": 74,
          "name": "D5",
          "velocity": 1,
          "duration": 0.18437499999998863,
          "ticks": 108720,
          "durationTicks": 59
        },
        {
          "time": 350.705334,
          "midi": 83,
          "name": "B5",
          "velocity": 1,
          "duration": 0.18437499999998863,
          "ticks": 108780,
          "durationTicks": 59
        },
        {
          "time": 350.705334,
          "midi": 71,
          "name": "B4",
          "velocity": 1,
          "duration": 0.18437499999998863,
          "ticks": 108780,
          "durationTicks": 59
        },
        {
          "time": 350.892834,
          "midi": 81,
          "name": "A5",
          "velocity": 1,
          "duration": 0.18437499999998863,
          "ticks": 108840,
          "durationTicks": 59
        },
        {
          "time": 350.892834,
          "midi": 69,
          "name": "A4",
          "velocity": 1,
          "duration": 0.18437499999998863,
          "ticks": 108840,
          "durationTicks": 59
        },
        {
          "time": 351.080334,
          "midi": 80,
          "name": "G#5",
          "velocity": 1,
          "duration": 0.18437499999998863,
          "ticks": 108900,
          "durationTicks": 59
        },
        {
          "time": 351.080334,
          "midi": 68,
          "name": "G#4",
          "velocity": 1,
          "duration": 0.18437499999998863,
          "ticks": 108900,
          "durationTicks": 59
        },
        {
          "time": 351.267834,
          "midi": 83,
          "name": "B5",
          "velocity": 1,
          "duration": 0.18437499999998863,
          "ticks": 108960,
          "durationTicks": 59
        },
        {
          "time": 351.267834,
          "midi": 71,
          "name": "B4",
          "velocity": 1,
          "duration": 0.18437499999998863,
          "ticks": 108960,
          "durationTicks": 59
        },
        {
          "time": 351.455334,
          "midi": 80,
          "name": "G#5",
          "velocity": 1,
          "duration": 0.18437499999998863,
          "ticks": 109020,
          "durationTicks": 59
        },
        {
          "time": 351.455334,
          "midi": 68,
          "name": "G#4",
          "velocity": 1,
          "duration": 0.18437499999998863,
          "ticks": 109020,
          "durationTicks": 59
        },
        {
          "time": 351.642834,
          "midi": 78,
          "name": "F#5",
          "velocity": 1,
          "duration": 0.18437499999998863,
          "ticks": 109080,
          "durationTicks": 59
        },
        {
          "time": 351.642834,
          "midi": 66,
          "name": "F#4",
          "velocity": 1,
          "duration": 0.18437499999998863,
          "ticks": 109080,
          "durationTicks": 59
        },
        {
          "time": 351.830334,
          "midi": 76,
          "name": "E5",
          "velocity": 1,
          "duration": 0.18437499999998863,
          "ticks": 109140,
          "durationTicks": 59
        },
        {
          "time": 351.830334,
          "midi": 64,
          "name": "E4",
          "velocity": 1,
          "duration": 0.18437499999998863,
          "ticks": 109140,
          "durationTicks": 59
        },
        {
          "time": 352.017834,
          "midi": 78,
          "name": "F#5",
          "velocity": 1,
          "duration": 0.18437499999998863,
          "ticks": 109200,
          "durationTicks": 59
        },
        {
          "time": 352.017834,
          "midi": 66,
          "name": "F#4",
          "velocity": 1,
          "duration": 0.18437499999998863,
          "ticks": 109200,
          "durationTicks": 59
        },
        {
          "time": 352.205334,
          "midi": 80,
          "name": "G#5",
          "velocity": 1,
          "duration": 0.18437499999998863,
          "ticks": 109260,
          "durationTicks": 59
        },
        {
          "time": 352.205334,
          "midi": 68,
          "name": "G#4",
          "velocity": 1,
          "duration": 0.18437499999998863,
          "ticks": 109260,
          "durationTicks": 59
        },
        {
          "time": 352.392834,
          "midi": 81,
          "name": "A5",
          "velocity": 1,
          "duration": 1.6875,
          "ticks": 109320,
          "durationTicks": 540
        },
        {
          "time": 352.392834,
          "midi": 69,
          "name": "A4",
          "velocity": 1,
          "duration": 1.6875,
          "ticks": 109320,
          "durationTicks": 540
        },
        {
          "time": 354.080334,
          "midi": 80,
          "name": "G#5",
          "velocity": 1,
          "duration": 0.18437499999998863,
          "ticks": 109860,
          "durationTicks": 59
        },
        {
          "time": 354.080334,
          "midi": 68,
          "name": "G#4",
          "velocity": 1,
          "duration": 0.18437499999998863,
          "ticks": 109860,
          "durationTicks": 59
        },
        {
          "time": 354.267834,
          "midi": 83,
          "name": "B5",
          "velocity": 1,
          "duration": 0.18437499999998863,
          "ticks": 109920,
          "durationTicks": 59
        },
        {
          "time": 354.267834,
          "midi": 71,
          "name": "B4",
          "velocity": 1,
          "duration": 0.18437499999998863,
          "ticks": 109920,
          "durationTicks": 59
        },
        {
          "time": 354.455334,
          "midi": 80,
          "name": "G#5",
          "velocity": 1,
          "duration": 0.18437499999998863,
          "ticks": 109980,
          "durationTicks": 59
        },
        {
          "time": 354.455334,
          "midi": 68,
          "name": "G#4",
          "velocity": 1,
          "duration": 0.18437499999998863,
          "ticks": 109980,
          "durationTicks": 59
        },
        {
          "time": 354.642834,
          "midi": 78,
          "name": "F#5",
          "velocity": 1,
          "duration": 0.18437499999998863,
          "ticks": 110040,
          "durationTicks": 59
        },
        {
          "time": 354.642834,
          "midi": 66,
          "name": "F#4",
          "velocity": 1,
          "duration": 0.18437499999998863,
          "ticks": 110040,
          "durationTicks": 59
        },
        {
          "time": 354.830334,
          "midi": 76,
          "name": "E5",
          "velocity": 1,
          "duration": 0.18437499999998863,
          "ticks": 110100,
          "durationTicks": 59
        },
        {
          "time": 354.830334,
          "midi": 64,
          "name": "E4",
          "velocity": 1,
          "duration": 0.18437499999998863,
          "ticks": 110100,
          "durationTicks": 59
        },
        {
          "time": 355.017834,
          "midi": 78,
          "name": "F#5",
          "velocity": 1,
          "duration": 0.18437499999998863,
          "ticks": 110160,
          "durationTicks": 59
        },
        {
          "time": 355.017834,
          "midi": 66,
          "name": "F#4",
          "velocity": 1,
          "duration": 0.18437499999998863,
          "ticks": 110160,
          "durationTicks": 59
        },
        {
          "time": 355.205334,
          "midi": 80,
          "name": "G#5",
          "velocity": 1,
          "duration": 0.18437499999998863,
          "ticks": 110220,
          "durationTicks": 59
        },
        {
          "time": 355.205334,
          "midi": 68,
          "name": "G#4",
          "velocity": 1,
          "duration": 0.18437499999998863,
          "ticks": 110220,
          "durationTicks": 59
        },
        {
          "time": 355.392834,
          "midi": 81,
          "name": "A5",
          "velocity": 1,
          "duration": 1.4968749999999886,
          "ticks": 110280,
          "durationTicks": 479
        },
        {
          "time": 355.392834,
          "midi": 69,
          "name": "A4",
          "velocity": 1,
          "duration": 1.4968749999999886,
          "ticks": 110280,
          "durationTicks": 479
        },
        {
          "time": 356.892834,
          "midi": 81,
          "name": "A5",
          "velocity": 1,
          "duration": 0.37187499999998863,
          "ticks": 110760,
          "durationTicks": 119
        },
        {
          "time": 356.892834,
          "midi": 69,
          "name": "A4",
          "velocity": 1,
          "duration": 0.37187499999998863,
          "ticks": 110760,
          "durationTicks": 119
        },
        {
          "time": 357.642834,
          "midi": 81,
          "name": "A5",
          "velocity": 1,
          "duration": 0.37187499999998863,
          "ticks": 111000,
          "durationTicks": 119
        },
        {
          "time": 357.642834,
          "midi": 69,
          "name": "A4",
          "velocity": 1,
          "duration": 0.37187499999998863,
          "ticks": 111000,
          "durationTicks": 119
        },
        {
          "time": 358.392834,
          "midi": 81,
          "name": "A5",
          "velocity": 1,
          "duration": 1.5386393583333415,
          "ticks": 111240,
          "durationTicks": 479
        },
        {
          "time": 358.392834,
          "midi": 69,
          "name": "A4",
          "velocity": 1,
          "duration": 1.5386393583333415,
          "ticks": 111240,
          "durationTicks": 479
        }
      ],
      "controlChanges": {
        "7": [
          {
            "number": 7,
            "value": 0.6299212598425197,
            "time": 0,
            "ticks": 0
          }
        ],
        "10": [
          {
            "number": 10,
            "value": 0.5354330708661418,
            "time": 0,
            "ticks": 0
          }
        ]
      }
    },
    {
      "name": "English Horn",
      "channel": 0,
      "instrument": {
        "number": 69,
        "name": "english horn",
        "family": "reed"
      },
      "notes": [],
      "controlChanges": {
        "7": [
          {
            "number": 7,
            "value": 0.6299212598425197,
            "time": 0,
            "ticks": 0
          }
        ],
        "10": [
          {
            "number": 10,
            "value": 0.5669291338582677,
            "time": 0,
            "ticks": 0
          }
        ]
      }
    },
    {
      "name": "B-flat Clarinets",
      "channel": 0,
      "instrument": {
        "number": 71,
        "name": "clarinet",
        "family": "reed"
      },
      "notes": [],
      "controlChanges": {
        "7": [
          {
            "number": 7,
            "value": 0.6299212598425197,
            "time": 0,
            "ticks": 0
          }
        ],
        "10": [
          {
            "number": 10,
            "value": 0.4566929133858268,
            "time": 0,
            "ticks": 0
          }
        ]
      }
    },
    {
      "name": "A Clarinets",
      "channel": 0,
      "instrument": {
        "number": 71,
        "name": "clarinet",
        "family": "reed"
      },
      "notes": [
        {
          "time": 109.5,
          "midi": 74,
          "name": "D5",
          "velocity": 0.6141732283464567,
          "duration": 0.7468750000000028,
          "ticks": 35040,
          "durationTicks": 239
        },
        {
          "time": 109.5,
          "midi": 78,
          "name": "F#5",
          "velocity": 0.937007874015748,
          "duration": 0.7468750000000028,
          "ticks": 35040,
          "durationTicks": 239
        },
        {
          "time": 110.25,
          "midi": 76,
          "name": "E5",
          "velocity": 0.8818897637795275,
          "duration": 0.37187500000000284,
          "ticks": 35280,
          "durationTicks": 119
        },
        {
          "time": 110.25,
          "midi": 79,
          "name": "G5",
          "velocity": 0.8818897637795275,
          "duration": 0.37187500000000284,
          "ticks": 35280,
          "durationTicks": 119
        },
        {
          "time": 110.625,
          "midi": 81,
          "name": "A5",
          "velocity": 0.8818897637795275,
          "duration": 0.37187500000000284,
          "ticks": 35400,
          "durationTicks": 119
        },
        {
          "time": 110.625,
          "midi": 78,
          "name": "F#5",
          "velocity": 0.8818897637795275,
          "duration": 0.37187500000000284,
          "ticks": 35400,
          "durationTicks": 119
        },
        {
          "time": 111,
          "midi": 78,
          "name": "F#5",
          "velocity": 0.8818897637795275,
          "duration": 0.37187500000000284,
          "ticks": 35520,
          "durationTicks": 119
        },
        {
          "time": 111,
          "midi": 81,
          "name": "A5",
          "velocity": 0.8818897637795275,
          "duration": 0.37187500000000284,
          "ticks": 35520,
          "durationTicks": 119
        },
        {
          "time": 111.375,
          "midi": 76,
          "name": "E5",
          "velocity": 0.8818897637795275,
          "duration": 0.37187500000000284,
          "ticks": 35640,
          "durationTicks": 119
        },
        {
          "time": 111.375,
          "midi": 79,
          "name": "G5",
          "velocity": 0.8818897637795275,
          "duration": 0.37187500000000284,
          "ticks": 35640,
          "durationTicks": 119
        },
        {
          "time": 111.75,
          "midi": 74,
          "name": "D5",
          "velocity": 0.8818897637795275,
          "duration": 0.18437500000000284,
          "ticks": 35760,
          "durationTicks": 59
        },
        {
          "time": 111.75,
          "midi": 78,
          "name": "F#5",
          "velocity": 0.8818897637795275,
          "duration": 0.18437500000000284,
          "ticks": 35760,
          "durationTicks": 59
        },
        {
          "time": 112.125,
          "midi": 69,
          "name": "A4",
          "velocity": 0.8818897637795275,
          "duration": 0.18437500000000284,
          "ticks": 35880,
          "durationTicks": 59
        },
        {
          "time": 112.125,
          "midi": 76,
          "name": "E5",
          "velocity": 0.8818897637795275,
          "duration": 0.18437500000000284,
          "ticks": 35880,
          "durationTicks": 59
        },
        {
          "time": 112.5,
          "midi": 74,
          "name": "D5",
          "velocity": 0.8818897637795275,
          "duration": 0.37187500000000284,
          "ticks": 36000,
          "durationTicks": 119
        },
        {
          "time": 112.5,
          "midi": 66,
          "name": "F#4",
          "velocity": 0.8818897637795275,
          "duration": 0.37187500000000284,
          "ticks": 36000,
          "durationTicks": 119
        },
        {
          "time": 112.875,
          "midi": 66,
          "name": "F#4",
          "velocity": 0.8818897637795275,
          "duration": 0.37187500000000284,
          "ticks": 36120,
          "durationTicks": 119
        },
        {
          "time": 112.875,
          "midi": 74,
          "name": "D5",
          "velocity": 0.8818897637795275,
          "duration": 0.37187500000000284,
          "ticks": 36120,
          "durationTicks": 119
        },
        {
          "time": 113.25,
          "midi": 69,
          "name": "A4",
          "velocity": 0.8818897637795275,
          "duration": 0.37187500000000284,
          "ticks": 36240,
          "durationTicks": 119
        },
        {
          "time": 113.25,
          "midi": 76,
          "name": "E5",
          "velocity": 0.8818897637795275,
          "duration": 0.37187500000000284,
          "ticks": 36240,
          "durationTicks": 119
        },
        {
          "time": 113.625,
          "midi": 78,
          "name": "F#5",
          "velocity": 0.8818897637795275,
          "duration": 0.37187500000000284,
          "ticks": 36360,
          "durationTicks": 119
        },
        {
          "time": 113.625,
          "midi": 74,
          "name": "D5",
          "velocity": 0.8818897637795275,
          "duration": 0.37187500000000284,
          "ticks": 36360,
          "durationTicks": 119
        },
        {
          "time": 114,
          "midi": 74,
          "name": "D5",
          "velocity": 0.8818897637795275,
          "duration": 0.5593750000000028,
          "ticks": 36480,
          "durationTicks": 179
        },
        {
          "time": 114,
          "midi": 78,
          "name": "F#5",
          "velocity": 0.8818897637795275,
          "duration": 0.5593750000000028,
          "ticks": 36480,
          "durationTicks": 179
        },
        {
          "time": 114.5625,
          "midi": 69,
          "name": "A4",
          "velocity": 0.8818897637795275,
          "duration": 0.18437500000000284,
          "ticks": 36660,
          "durationTicks": 59
        },
        {
          "time": 114.5625,
          "midi": 76,
          "name": "E5",
          "velocity": 0.8818897637795275,
          "duration": 0.18437500000000284,
          "ticks": 36660,
          "durationTicks": 59
        },
        {
          "time": 114.75,
          "midi": 69,
          "name": "A4",
          "velocity": 0.8818897637795275,
          "duration": 0.7468750000000028,
          "ticks": 36720,
          "durationTicks": 239
        },
        {
          "time": 114.75,
          "midi": 76,
          "name": "E5",
          "velocity": 0.8818897637795275,
          "duration": 0.7468750000000028,
          "ticks": 36720,
          "durationTicks": 239
        },
        {
          "time": 115.5,
          "midi": 74,
          "name": "D5",
          "velocity": 0.8818897637795275,
          "duration": 0.7468750000000028,
          "ticks": 36960,
          "durationTicks": 239
        },
        {
          "time": 115.5,
          "midi": 78,
          "name": "F#5",
          "velocity": 0.8818897637795275,
          "duration": 0.7468750000000028,
          "ticks": 36960,
          "durationTicks": 239
        },
        {
          "time": 116.25,
          "midi": 79,
          "name": "G5",
          "velocity": 0.8818897637795275,
          "duration": 0.37187500000000284,
          "ticks": 37200,
          "durationTicks": 119
        },
        {
          "time": 116.25,
          "midi": 76,
          "name": "E5",
          "velocity": 0.8818897637795275,
          "duration": 0.37187500000000284,
          "ticks": 37200,
          "durationTicks": 119
        },
        {
          "time": 116.625,
          "midi": 78,
          "name": "F#5",
          "velocity": 0.8740157480314961,
          "duration": 0.37187500000000284,
          "ticks": 37320,
          "durationTicks": 119
        },
        {
          "time": 116.625,
          "midi": 81,
          "name": "A5",
          "velocity": 0.8740157480314961,
          "duration": 0.37187500000000284,
          "ticks": 37320,
          "durationTicks": 119
        },
        {
          "time": 117,
          "midi": 78,
          "name": "F#5",
          "velocity": 0.8740157480314961,
          "duration": 0.37187500000000284,
          "ticks": 37440,
          "durationTicks": 119
        },
        {
          "time": 117,
          "midi": 81,
          "name": "A5",
          "velocity": 0.8740157480314961,
          "duration": 0.37187500000000284,
          "ticks": 37440,
          "durationTicks": 119
        },
        {
          "time": 117.375,
          "midi": 76,
          "name": "E5",
          "velocity": 0.8740157480314961,
          "duration": 0.37187500000000284,
          "ticks": 37560,
          "durationTicks": 119
        },
        {
          "time": 117.375,
          "midi": 79,
          "name": "G5",
          "velocity": 0.8740157480314961,
          "duration": 0.37187500000000284,
          "ticks": 37560,
          "durationTicks": 119
        },
        {
          "time": 117.75,
          "midi": 74,
          "name": "D5",
          "velocity": 0.8740157480314961,
          "duration": 0.18437500000000284,
          "ticks": 37680,
          "durationTicks": 59
        },
        {
          "time": 117.75,
          "midi": 78,
          "name": "F#5",
          "velocity": 0.8740157480314961,
          "duration": 0.18437500000000284,
          "ticks": 37680,
          "durationTicks": 59
        },
        {
          "time": 118.125,
          "midi": 69,
          "name": "A4",
          "velocity": 0.8661417322834646,
          "duration": 0.18437500000000284,
          "ticks": 37800,
          "durationTicks": 59
        },
        {
          "time": 118.125,
          "midi": 76,
          "name": "E5",
          "velocity": 0.8661417322834646,
          "duration": 0.18437500000000284,
          "ticks": 37800,
          "durationTicks": 59
        },
        {
          "time": 118.5,
          "midi": 66,
          "name": "F#4",
          "velocity": 0.8661417322834646,
          "duration": 0.18437500000000284,
          "ticks": 37920,
          "durationTicks": 59
        },
        {
          "time": 118.5,
          "midi": 74,
          "name": "D5",
          "velocity": 0.8661417322834646,
          "duration": 0.18437500000000284,
          "ticks": 37920,
          "durationTicks": 59
        },
        {
          "time": 118.875,
          "midi": 66,
          "name": "F#4",
          "velocity": 0.8661417322834646,
          "duration": 0.18437500000000284,
          "ticks": 38040,
          "durationTicks": 59
        },
        {
          "time": 118.875,
          "midi": 74,
          "name": "D5",
          "velocity": 0.8661417322834646,
          "duration": 0.18437500000000284,
          "ticks": 38040,
          "durationTicks": 59
        },
        {
          "time": 119.25,
          "midi": 69,
          "name": "A4",
          "velocity": 0.8661417322834646,
          "duration": 0.18437500000000284,
          "ticks": 38160,
          "durationTicks": 59
        },
        {
          "time": 119.25,
          "midi": 76,
          "name": "E5",
          "velocity": 0.8661417322834646,
          "duration": 0.18437500000000284,
          "ticks": 38160,
          "durationTicks": 59
        },
        {
          "time": 119.625,
          "midi": 74,
          "name": "D5",
          "velocity": 0.8661417322834646,
          "duration": 0.18437500000000284,
          "ticks": 38280,
          "durationTicks": 59
        },
        {
          "time": 119.625,
          "midi": 78,
          "name": "F#5",
          "velocity": 0.8661417322834646,
          "duration": 0.18437500000000284,
          "ticks": 38280,
          "durationTicks": 59
        },
        {
          "time": 120,
          "midi": 76,
          "name": "E5",
          "velocity": 0.8661417322834646,
          "duration": 0.5593750000000028,
          "ticks": 38400,
          "durationTicks": 179
        },
        {
          "time": 120,
          "midi": 69,
          "name": "A4",
          "velocity": 0.8661417322834646,
          "duration": 0.5593750000000028,
          "ticks": 38400,
          "durationTicks": 179
        },
        {
          "time": 120.5625,
          "midi": 74,
          "name": "D5",
          "velocity": 0.8740157480314961,
          "duration": 0.18437500000000284,
          "ticks": 38580,
          "durationTicks": 59
        },
        {
          "time": 120.5625,
          "midi": 66,
          "name": "F#4",
          "velocity": 0.8740157480314961,
          "duration": 0.18437500000000284,
          "ticks": 38580,
          "durationTicks": 59
        },
        {
          "time": 120.75,
          "midi": 66,
          "name": "F#4",
          "velocity": 0.8740157480314961,
          "duration": 0.7468750000000028,
          "ticks": 38640,
          "durationTicks": 239
        },
        {
          "time": 120.75,
          "midi": 74,
          "name": "D5",
          "velocity": 0.8740157480314961,
          "duration": 0.7468750000000028,
          "ticks": 38640,
          "durationTicks": 239
        },
        {
          "time": 121.5,
          "midi": 73,
          "name": "C#5",
          "velocity": 0.8740157480314961,
          "duration": 0.7468750000000028,
          "ticks": 38880,
          "durationTicks": 239
        },
        {
          "time": 121.5,
          "midi": 76,
          "name": "E5",
          "velocity": 0.8740157480314961,
          "duration": 0.7468750000000028,
          "ticks": 38880,
          "durationTicks": 239
        },
        {
          "time": 122.25,
          "midi": 78,
          "name": "F#5",
          "velocity": 0.8818897637795275,
          "duration": 0.37187500000000284,
          "ticks": 39120,
          "durationTicks": 119
        },
        {
          "time": 122.25,
          "midi": 74,
          "name": "D5",
          "velocity": 0.8818897637795275,
          "duration": 0.37187500000000284,
          "ticks": 39120,
          "durationTicks": 119
        },
        {
          "time": 122.625,
          "midi": 66,
          "name": "F#4",
          "velocity": 0.8818897637795275,
          "duration": 0.37187500000000284,
          "ticks": 39240,
          "durationTicks": 119
        },
        {
          "time": 122.625,
          "midi": 74,
          "name": "D5",
          "velocity": 0.8818897637795275,
          "duration": 0.37187500000000284,
          "ticks": 39240,
          "durationTicks": 119
        },
        {
          "time": 123,
          "midi": 73,
          "name": "C#5",
          "velocity": 0.8818897637795275,
          "duration": 0.37187500000000284,
          "ticks": 39360,
          "durationTicks": 119
        },
        {
          "time": 123,
          "midi": 76,
          "name": "E5",
          "velocity": 0.8818897637795275,
          "duration": 0.37187500000000284,
          "ticks": 39360,
          "durationTicks": 119
        },
        {
          "time": 123.375,
          "midi": 74,
          "name": "D5",
          "velocity": 0.8818897637795275,
          "duration": 0.18437500000000284,
          "ticks": 39480,
          "durationTicks": 59
        },
        {
          "time": 123.375,
          "midi": 78,
          "name": "F#5",
          "velocity": 0.8818897637795275,
          "duration": 0.18437500000000284,
          "ticks": 39480,
          "durationTicks": 59
        },
        {
          "time": 123.5625,
          "midi": 76,
          "name": "E5",
          "velocity": 0.8818897637795275,
          "duration": 0.18437500000000284,
          "ticks": 39540,
          "durationTicks": 59
        },
        {
          "time": 123.5625,
          "midi": 79,
          "name": "G5",
          "velocity": 0.8818897637795275,
          "duration": 0.18437500000000284,
          "ticks": 39540,
          "durationTicks": 59
        },
        {
          "time": 123.75,
          "midi": 74,
          "name": "D5",
          "velocity": 0.8818897637795275,
          "duration": 0.37187500000000284,
          "ticks": 39600,
          "durationTicks": 119
        },
        {
          "time": 123.75,
          "midi": 78,
          "name": "F#5",
          "velocity": 0.8818897637795275,
          "duration": 0.37187500000000284,
          "ticks": 39600,
          "durationTicks": 119
        },
        {
          "time": 124.125,
          "midi": 66,
          "name": "F#4",
          "velocity": 0.889763779527559,
          "duration": 0.37187500000000284,
          "ticks": 39720,
          "durationTicks": 119
        },
        {
          "time": 124.125,
          "midi": 74,
          "name": "D5",
          "velocity": 0.889763779527559,
          "duration": 0.37187500000000284,
          "ticks": 39720,
          "durationTicks": 119
        },
        {
          "time": 124.5,
          "midi": 73,
          "name": "C#5",
          "velocity": 0.889763779527559,
          "duration": 0.37187500000000284,
          "ticks": 39840,
          "durationTicks": 119
        },
        {
          "time": 124.5,
          "midi": 76,
          "name": "E5",
          "velocity": 0.889763779527559,
          "duration": 0.37187500000000284,
          "ticks": 39840,
          "durationTicks": 119
        },
        {
          "time": 124.875,
          "midi": 78,
          "name": "F#5",
          "velocity": 0.889763779527559,
          "duration": 0.18437500000000284,
          "ticks": 39960,
          "durationTicks": 59
        },
        {
          "time": 124.875,
          "midi": 74,
          "name": "D5",
          "velocity": 0.889763779527559,
          "duration": 0.18437500000000284,
          "ticks": 39960,
          "durationTicks": 59
        },
        {
          "time": 125.0625,
          "midi": 76,
          "name": "E5",
          "velocity": 0.889763779527559,
          "duration": 0.18437500000000284,
          "ticks": 40020,
          "durationTicks": 59
        },
        {
          "time": 125.0625,
          "midi": 79,
          "name": "G5",
          "velocity": 0.889763779527559,
          "duration": 0.18437500000000284,
          "ticks": 40020,
          "durationTicks": 59
        },
        {
          "time": 125.25,
          "midi": 73,
          "name": "C#5",
          "velocity": 0.889763779527559,
          "duration": 0.37187500000000284,
          "ticks": 40080,
          "durationTicks": 119
        },
        {
          "time": 125.25,
          "midi": 78,
          "name": "F#5",
          "velocity": 0.889763779527559,
          "duration": 0.37187500000000284,
          "ticks": 40080,
          "durationTicks": 119
        },
        {
          "time": 125.625,
          "midi": 73,
          "name": "C#5",
          "velocity": 0.889763779527559,
          "duration": 0.37187500000000284,
          "ticks": 40200,
          "durationTicks": 119
        },
        {
          "time": 125.625,
          "midi": 76,
          "name": "E5",
          "velocity": 0.889763779527559,
          "duration": 0.37187500000000284,
          "ticks": 40200,
          "durationTicks": 119
        },
        {
          "time": 126,
          "midi": 71,
          "name": "B4",
          "velocity": 0.889763779527559,
          "duration": 0.18437500000000284,
          "ticks": 40320,
          "durationTicks": 59
        },
        {
          "time": 126,
          "midi": 74,
          "name": "D5",
          "velocity": 0.889763779527559,
          "duration": 0.18437500000000284,
          "ticks": 40320,
          "durationTicks": 59
        },
        {
          "time": 126.375,
          "midi": 76,
          "name": "E5",
          "velocity": 0.889763779527559,
          "duration": 0.18437500000000284,
          "ticks": 40440,
          "durationTicks": 59
        },
        {
          "time": 126.375,
          "midi": 68,
          "name": "G#4",
          "velocity": 0.889763779527559,
          "duration": 0.18437500000000284,
          "ticks": 40440,
          "durationTicks": 59
        },
        {
          "time": 126.75,
          "midi": 69,
          "name": "A4",
          "velocity": 0.889763779527559,
          "duration": 0.18437500000000284,
          "ticks": 40560,
          "durationTicks": 59
        },
        {
          "time": 126.75,
          "midi": 69,
          "name": "A4",
          "velocity": 0.889763779527559,
          "duration": 0.18437500000000284,
          "ticks": 40560,
          "durationTicks": 59
        },
        {
          "time": 127.125,
          "midi": 74,
          "name": "D5",
          "velocity": 0.8976377952755905,
          "duration": 0.7468750000000028,
          "ticks": 40680,
          "durationTicks": 239
        },
        {
          "time": 127.125,
          "midi": 78,
          "name": "F#5",
          "velocity": 0.8976377952755905,
          "duration": 0.7468750000000028,
          "ticks": 40680,
          "durationTicks": 239
        },
        {
          "time": 127.875,
          "midi": 74,
          "name": "D5",
          "velocity": 0.905511811023622,
          "duration": 0.18437499999998863,
          "ticks": 40920,
          "durationTicks": 59
        },
        {
          "time": 127.875,
          "midi": 78,
          "name": "F#5",
          "velocity": 0.905511811023622,
          "duration": 0.18437499999998863,
          "ticks": 40920,
          "durationTicks": 59
        },
        {
          "time": 128.25,
          "midi": 76,
          "name": "E5",
          "velocity": 0.905511811023622,
          "duration": 0.18437499999998863,
          "ticks": 41040,
          "durationTicks": 59
        },
        {
          "time": 128.25,
          "midi": 79,
          "name": "G5",
          "velocity": 0.905511811023622,
          "duration": 0.18437499999998863,
          "ticks": 41040,
          "durationTicks": 59
        },
        {
          "time": 128.625,
          "midi": 78,
          "name": "F#5",
          "velocity": 0.905511811023622,
          "duration": 0.18437499999998863,
          "ticks": 41160,
          "durationTicks": 59
        },
        {
          "time": 128.625,
          "midi": 81,
          "name": "A5",
          "velocity": 0.905511811023622,
          "duration": 0.18437499999998863,
          "ticks": 41160,
          "durationTicks": 59
        },
        {
          "time": 129,
          "midi": 81,
          "name": "A5",
          "velocity": 1,
          "duration": 0.37187499999998863,
          "ticks": 41280,
          "durationTicks": 119
        },
        {
          "time": 129,
          "midi": 78,
          "name": "F#5",
          "velocity": 1,
          "duration": 0.37187499999998863,
          "ticks": 41280,
          "durationTicks": 119
        },
        {
          "time": 129.375,
          "midi": 76,
          "name": "E5",
          "velocity": 0.9763779527559056,
          "duration": 0.37187499999998863,
          "ticks": 41400,
          "durationTicks": 119
        },
        {
          "time": 129.375,
          "midi": 79,
          "name": "G5",
          "velocity": 1,
          "duration": 0.37187499999998863,
          "ticks": 41400,
          "durationTicks": 119
        },
        {
          "time": 129.75,
          "midi": 74,
          "name": "D5",
          "velocity": 1,
          "duration": 0.18437499999998863,
          "ticks": 41520,
          "durationTicks": 59
        },
        {
          "time": 129.75,
          "midi": 78,
          "name": "F#5",
          "velocity": 1,
          "duration": 0.18437499999998863,
          "ticks": 41520,
          "durationTicks": 59
        },
        {
          "time": 130.125,
          "midi": 69,
          "name": "A4",
          "velocity": 1,
          "duration": 0.18437499999998863,
          "ticks": 41640,
          "durationTicks": 59
        },
        {
          "time": 130.125,
          "midi": 76,
          "name": "E5",
          "velocity": 1,
          "duration": 0.18437499999998863,
          "ticks": 41640,
          "durationTicks": 59
        },
        {
          "time": 130.5,
          "midi": 66,
          "name": "F#4",
          "velocity": 0.6535433070866141,
          "duration": 0.18437499999998863,
          "ticks": 41760,
          "durationTicks": 59
        },
        {
          "time": 130.5,
          "midi": 74,
          "name": "D5",
          "velocity": 0.7795275590551181,
          "duration": 0.18437499999998863,
          "ticks": 41760,
          "durationTicks": 59
        },
        {
          "time": 130.875,
          "midi": 66,
          "name": "F#4",
          "velocity": 0.937007874015748,
          "duration": 0.18437499999998863,
          "ticks": 41880,
          "durationTicks": 59
        },
        {
          "time": 130.875,
          "midi": 74,
          "name": "D5",
          "velocity": 1,
          "duration": 0.18437499999998863,
          "ticks": 41880,
          "durationTicks": 59
        },
        {
          "time": 131.25,
          "midi": 69,
          "name": "A4",
          "velocity": 0.937007874015748,
          "duration": 0.18437499999998863,
          "ticks": 42000,
          "durationTicks": 59
        },
        {
          "time": 131.25,
          "midi": 76,
          "name": "E5",
          "velocity": 1,
          "duration": 0.18437499999998863,
          "ticks": 42000,
          "durationTicks": 59
        },
        {
          "time": 131.625,
          "midi": 74,
          "name": "D5",
          "velocity": 1,
          "duration": 0.18437499999998863,
          "ticks": 42120,
          "durationTicks": 59
        },
        {
          "time": 131.625,
          "midi": 78,
          "name": "F#5",
          "velocity": 1,
          "duration": 0.18437499999998863,
          "ticks": 42120,
          "durationTicks": 59
        },
        {
          "time": 132,
          "midi": 69,
          "name": "A4",
          "velocity": 1,
          "duration": 0.5593749999999886,
          "ticks": 42240,
          "durationTicks": 179
        },
        {
          "time": 132,
          "midi": 76,
          "name": "E5",
          "velocity": 1,
          "duration": 0.5593749999999886,
          "ticks": 42240,
          "durationTicks": 179
        },
        {
          "time": 132.5625,
          "midi": 66,
          "name": "F#4",
          "velocity": 0.9763779527559056,
          "duration": 0.18437499999998863,
          "ticks": 42420,
          "durationTicks": 59
        },
        {
          "time": 132.5625,
          "midi": 74,
          "name": "D5",
          "velocity": 1,
          "duration": 0.18437499999998863,
          "ticks": 42420,
          "durationTicks": 59
        },
        {
          "time": 132.75,
          "midi": 74,
          "name": "D5",
          "velocity": 1,
          "duration": 0.09062499999998863,
          "ticks": 42480,
          "durationTicks": 29
        },
        {
          "time": 132.75,
          "midi": 66,
          "name": "F#4",
          "velocity": 1,
          "duration": 0.09062499999998863,
          "ticks": 42480,
          "durationTicks": 29
        },
        {
          "time": 132.9375,
          "midi": 69,
          "name": "A4",
          "velocity": 1,
          "duration": 0.18437499999998863,
          "ticks": 42540,
          "durationTicks": 59
        },
        {
          "time": 132.9375,
          "midi": 81,
          "name": "A5",
          "velocity": 1,
          "duration": 0.18437499999998863,
          "ticks": 42540,
          "durationTicks": 59
        },
        {
          "time": 133.125,
          "midi": 67,
          "name": "G4",
          "velocity": 1,
          "duration": 0.18437499999998863,
          "ticks": 42600,
          "durationTicks": 59
        },
        {
          "time": 133.125,
          "midi": 79,
          "name": "G5",
          "velocity": 1,
          "duration": 0.18437499999998863,
          "ticks": 42600,
          "durationTicks": 59
        },
        {
          "time": 133.3125,
          "midi": 66,
          "name": "F#4",
          "velocity": 1,
          "duration": 0.18437499999998863,
          "ticks": 42660,
          "durationTicks": 59
        },
        {
          "time": 133.3125,
          "midi": 78,
          "name": "F#5",
          "velocity": 1,
          "duration": 0.18437499999998863,
          "ticks": 42660,
          "durationTicks": 59
        },
        {
          "time": 133.5,
          "midi": 76,
          "name": "E5",
          "velocity": 1,
          "duration": 0.7468749999999886,
          "ticks": 42720,
          "durationTicks": 239
        },
        {
          "time": 133.5,
          "midi": 73,
          "name": "C#5",
          "velocity": 1,
          "duration": 0.7468749999999886,
          "ticks": 42720,
          "durationTicks": 239
        },
        {
          "time": 134.25,
          "midi": 74,
          "name": "D5",
          "velocity": 1,
          "duration": 0.37187499999998863,
          "ticks": 42960,
          "durationTicks": 119
        },
        {
          "time": 134.25,
          "midi": 78,
          "name": "F#5",
          "velocity": 1,
          "duration": 0.37187499999998863,
          "ticks": 42960,
          "durationTicks": 119
        },
        {
          "time": 134.625,
          "midi": 66,
          "name": "F#4",
          "velocity": 1,
          "duration": 0.37187499999998863,
          "ticks": 43080,
          "durationTicks": 119
        },
        {
          "time": 134.625,
          "midi": 74,
          "name": "D5",
          "velocity": 1,
          "duration": 0.37187499999998863,
          "ticks": 43080,
          "durationTicks": 119
        },
        {
          "time": 135,
          "midi": 76,
          "name": "E5",
          "velocity": 1,
          "duration": 0.37187499999998863,
          "ticks": 43200,
          "durationTicks": 119
        },
        {
          "time": 135,
          "midi": 73,
          "name": "C#5",
          "velocity": 1,
          "duration": 0.37187499999998863,
          "ticks": 43200,
          "durationTicks": 119
        },
        {
          "time": 135.375,
          "midi": 74,
          "name": "D5",
          "velocity": 0.937007874015748,
          "duration": 0.18437499999998863,
          "ticks": 43320,
          "durationTicks": 59
        },
        {
          "time": 135.375,
          "midi": 78,
          "name": "F#5",
          "velocity": 1,
          "duration": 0.18437499999998863,
          "ticks": 43320,
          "durationTicks": 59
        },
        {
          "time": 135.5625,
          "midi": 76,
          "name": "E5",
          "velocity": 1,
          "duration": 0.18437499999998863,
          "ticks": 43380,
          "durationTicks": 59
        },
        {
          "time": 135.5625,
          "midi": 79,
          "name": "G5",
          "velocity": 1,
          "duration": 0.18437499999998863,
          "ticks": 43380,
          "durationTicks": 59
        },
        {
          "time": 135.75,
          "midi": 74,
          "name": "D5",
          "velocity": 1,
          "duration": 0.37187499999998863,
          "ticks": 43440,
          "durationTicks": 119
        },
        {
          "time": 135.75,
          "midi": 78,
          "name": "F#5",
          "velocity": 1,
          "duration": 0.37187499999998863,
          "ticks": 43440,
          "durationTicks": 119
        },
        {
          "time": 136.125,
          "midi": 66,
          "name": "F#4",
          "velocity": 1,
          "duration": 0.18437499999998863,
          "ticks": 43560,
          "durationTicks": 59
        },
        {
          "time": 136.125,
          "midi": 74,
          "name": "D5",
          "velocity": 1,
          "duration": 0.18437499999998863,
          "ticks": 43560,
          "durationTicks": 59
        },
        {
          "time": 136.5,
          "midi": 73,
          "name": "C#5",
          "velocity": 1,
          "duration": 0.37187499999998863,
          "ticks": 43680,
          "durationTicks": 119
        },
        {
          "time": 136.5,
          "midi": 76,
          "name": "E5",
          "velocity": 1,
          "duration": 0.37187499999998863,
          "ticks": 43680,
          "durationTicks": 119
        },
        {
          "time": 136.875,
          "midi": 74,
          "name": "D5",
          "velocity": 0.905511811023622,
          "duration": 0.18437499999998863,
          "ticks": 43800,
          "durationTicks": 59
        },
        {
          "time": 136.875,
          "midi": 78,
          "name": "F#5",
          "velocity": 1,
          "duration": 0.18437499999998863,
          "ticks": 43800,
          "durationTicks": 59
        },
        {
          "time": 137.0625,
          "midi": 76,
          "name": "E5",
          "velocity": 1,
          "duration": 0.18437499999998863,
          "ticks": 43860,
          "durationTicks": 59
        },
        {
          "time": 137.0625,
          "midi": 79,
          "name": "G5",
          "velocity": 1,
          "duration": 0.18437499999998863,
          "ticks": 43860,
          "durationTicks": 59
        },
        {
          "time": 137.25,
          "midi": 73,
          "name": "C#5",
          "velocity": 1,
          "duration": 0.37187499999998863,
          "ticks": 43920,
          "durationTicks": 119
        },
        {
          "time": 137.25,
          "midi": 78,
          "name": "F#5",
          "velocity": 1,
          "duration": 0.37187499999998863,
          "ticks": 43920,
          "durationTicks": 119
        },
        {
          "time": 137.625,
          "midi": 76,
          "name": "E5",
          "velocity": 1,
          "duration": 0.37187499999998863,
          "ticks": 44040,
          "durationTicks": 119
        },
        {
          "time": 137.625,
          "midi": 73,
          "name": "C#5",
          "velocity": 1,
          "duration": 0.37187499999998863,
          "ticks": 44040,
          "durationTicks": 119
        },
        {
          "time": 138,
          "midi": 71,
          "name": "B4",
          "velocity": 1,
          "duration": 0.18437499999998863,
          "ticks": 44160,
          "durationTicks": 59
        },
        {
          "time": 138,
          "midi": 74,
          "name": "D5",
          "velocity": 1,
          "duration": 0.18437499999998863,
          "ticks": 44160,
          "durationTicks": 59
        },
        {
          "time": 138.375,
          "midi": 76,
          "name": "E5",
          "velocity": 0.937007874015748,
          "duration": 0.18437499999998863,
          "ticks": 44280,
          "durationTicks": 59
        },
        {
          "time": 138.375,
          "midi": 68,
          "name": "G#4",
          "velocity": 1,
          "duration": 0.18437499999998863,
          "ticks": 44280,
          "durationTicks": 59
        },
        {
          "time": 138.75,
          "midi": 69,
          "name": "A4",
          "velocity": 1,
          "duration": 0.18437499999998863,
          "ticks": 44400,
          "durationTicks": 59
        },
        {
          "time": 138.75,
          "midi": 69,
          "name": "A4",
          "velocity": 1,
          "duration": 0.18437499999998863,
          "ticks": 44400,
          "durationTicks": 59
        },
        {
          "time": 139.125,
          "midi": 74,
          "name": "D5",
          "velocity": 0.9763779527559056,
          "duration": 0.7468749999999886,
          "ticks": 44520,
          "durationTicks": 239
        },
        {
          "time": 139.125,
          "midi": 78,
          "name": "F#5",
          "velocity": 1,
          "duration": 0.7468749999999886,
          "ticks": 44520,
          "durationTicks": 239
        },
        {
          "time": 139.875,
          "midi": 74,
          "name": "D5",
          "velocity": 1,
          "duration": 0.18437499999998863,
          "ticks": 44760,
          "durationTicks": 59
        },
        {
          "time": 139.875,
          "midi": 78,
          "name": "F#5",
          "velocity": 1,
          "duration": 0.18437499999998863,
          "ticks": 44760,
          "durationTicks": 59
        },
        {
          "time": 140.25,
          "midi": 79,
          "name": "G5",
          "velocity": 1,
          "duration": 0.18437499999998863,
          "ticks": 44880,
          "durationTicks": 59
        },
        {
          "time": 140.25,
          "midi": 76,
          "name": "E5",
          "velocity": 1,
          "duration": 0.18437499999998863,
          "ticks": 44880,
          "durationTicks": 59
        },
        {
          "time": 140.625,
          "midi": 81,
          "name": "A5",
          "velocity": 1,
          "duration": 0.18437499999998863,
          "ticks": 45000,
          "durationTicks": 59
        },
        {
          "time": 140.625,
          "midi": 78,
          "name": "F#5",
          "velocity": 1,
          "duration": 0.18437499999998863,
          "ticks": 45000,
          "durationTicks": 59
        },
        {
          "time": 141,
          "midi": 81,
          "name": "A5",
          "velocity": 1,
          "duration": 0.37187499999998863,
          "ticks": 45120,
          "durationTicks": 119
        },
        {
          "time": 141,
          "midi": 78,
          "name": "F#5",
          "velocity": 1,
          "duration": 0.37187499999998863,
          "ticks": 45120,
          "durationTicks": 119
        },
        {
          "time": 141.375,
          "midi": 76,
          "name": "E5",
          "velocity": 1,
          "duration": 0.37187499999998863,
          "ticks": 45240,
          "durationTicks": 119
        },
        {
          "time": 141.375,
          "midi": 79,
          "name": "G5",
          "velocity": 1,
          "duration": 0.37187499999998863,
          "ticks": 45240,
          "durationTicks": 119
        },
        {
          "time": 141.75,
          "midi": 74,
          "name": "D5",
          "velocity": 1,
          "duration": 0.18437499999998863,
          "ticks": 45360,
          "durationTicks": 59
        },
        {
          "time": 141.75,
          "midi": 78,
          "name": "F#5",
          "velocity": 1,
          "duration": 0.18437499999998863,
          "ticks": 45360,
          "durationTicks": 59
        },
        {
          "time": 142.125,
          "midi": 69,
          "name": "A4",
          "velocity": 0.937007874015748,
          "duration": 0.18437499999998863,
          "ticks": 45480,
          "durationTicks": 59
        },
        {
          "time": 142.125,
          "midi": 76,
          "name": "E5",
          "velocity": 1,
          "duration": 0.18437499999998863,
          "ticks": 45480,
          "durationTicks": 59
        },
        {
          "time": 142.5,
          "midi": 74,
          "name": "D5",
          "velocity": 1,
          "duration": 0.37187499999998863,
          "ticks": 45600,
          "durationTicks": 119
        },
        {
          "time": 142.5,
          "midi": 66,
          "name": "F#4",
          "velocity": 1,
          "duration": 0.37187499999998863,
          "ticks": 45600,
          "durationTicks": 119
        },
        {
          "time": 142.875,
          "midi": 74,
          "name": "D5",
          "velocity": 1,
          "duration": 0.18437499999998863,
          "ticks": 45720,
          "durationTicks": 59
        },
        {
          "time": 142.875,
          "midi": 66,
          "name": "F#4",
          "velocity": 1,
          "duration": 0.18437499999998863,
          "ticks": 45720,
          "durationTicks": 59
        },
        {
          "time": 143.25,
          "midi": 69,
          "name": "A4",
          "velocity": 1,
          "duration": 0.18437499999998863,
          "ticks": 45840,
          "durationTicks": 59
        },
        {
          "time": 143.25,
          "midi": 76,
          "name": "E5",
          "velocity": 1,
          "duration": 0.18437499999998863,
          "ticks": 45840,
          "durationTicks": 59
        },
        {
          "time": 143.625,
          "midi": 74,
          "name": "D5",
          "velocity": 1,
          "duration": 0.18437499999998863,
          "ticks": 45960,
          "durationTicks": 59
        },
        {
          "time": 143.625,
          "midi": 78,
          "name": "F#5",
          "velocity": 1,
          "duration": 0.18437499999998863,
          "ticks": 45960,
          "durationTicks": 59
        },
        {
          "time": 144,
          "midi": 69,
          "name": "A4",
          "velocity": 0.9763779527559056,
          "duration": 0.5593749999999886,
          "ticks": 46080,
          "durationTicks": 179
        },
        {
          "time": 144,
          "midi": 76,
          "name": "E5",
          "velocity": 1,
          "duration": 0.5593749999999886,
          "ticks": 46080,
          "durationTicks": 179
        },
        {
          "time": 144.5625,
          "midi": 74,
          "name": "D5",
          "velocity": 1,
          "duration": 0.18437499999998863,
          "ticks": 46260,
          "durationTicks": 59
        },
        {
          "time": 144.5625,
          "midi": 66,
          "name": "F#4",
          "velocity": 1,
          "duration": 0.18437499999998863,
          "ticks": 46260,
          "durationTicks": 59
        },
        {
          "time": 144.75,
          "midi": 74,
          "name": "D5",
          "velocity": 1,
          "duration": 0.37187499999998863,
          "ticks": 46320,
          "durationTicks": 119
        },
        {
          "time": 144.75,
          "midi": 66,
          "name": "F#4",
          "velocity": 1,
          "duration": 0.37187499999998863,
          "ticks": 46320,
          "durationTicks": 119
        },
        {
          "time": 145.125,
          "midi": 78,
          "name": "F#5",
          "velocity": 1,
          "duration": 0.37187499999998863,
          "ticks": 46440,
          "durationTicks": 119
        },
        {
          "time": 145.125,
          "midi": 69,
          "name": "A4",
          "velocity": 1,
          "duration": 0.37187499999998863,
          "ticks": 46440,
          "durationTicks": 119
        },
        {
          "time": 145.5,
          "midi": 76,
          "name": "E5",
          "velocity": 0.8818897637795275,
          "duration": 0.5593749999999886,
          "ticks": 46560,
          "durationTicks": 179
        },
        {
          "time": 145.5,
          "midi": 67,
          "name": "G4",
          "velocity": 0.7086614173228346,
          "duration": 0.5593749999999886,
          "ticks": 46560,
          "durationTicks": 179
        },
        {
          "time": 146.0625,
          "midi": 66,
          "name": "F#4",
          "velocity": 0.8818897637795275,
          "duration": 0.18437499999998863,
          "ticks": 46740,
          "durationTicks": 59
        },
        {
          "time": 146.0625,
          "midi": 74,
          "name": "D5",
          "velocity": 1,
          "duration": 0.18437499999998863,
          "ticks": 46740,
          "durationTicks": 59
        },
        {
          "time": 146.25,
          "midi": 66,
          "name": "F#4",
          "velocity": 0.8031496062992126,
          "duration": 0.37187499999998863,
          "ticks": 46800,
          "durationTicks": 119
        },
        {
          "time": 146.25,
          "midi": 74,
          "name": "D5",
          "velocity": 1,
          "duration": 0.37187499999998863,
          "ticks": 46800,
          "durationTicks": 119
        },
        {
          "time": 146.625,
          "midi": 74,
          "name": "D5",
          "velocity": 1,
          "duration": 0.37187499999998863,
          "ticks": 46920,
          "durationTicks": 119
        },
        {
          "time": 146.625,
          "midi": 71,
          "name": "B4",
          "velocity": 1,
          "duration": 0.37187499999998863,
          "ticks": 46920,
          "durationTicks": 119
        },
        {
          "time": 147,
          "midi": 69,
          "name": "A4",
          "velocity": 1,
          "duration": 0.5593749999999886,
          "ticks": 47040,
          "durationTicks": 179
        },
        {
          "time": 147,
          "midi": 72,
          "name": "C5",
          "velocity": 1,
          "duration": 0.5593749999999886,
          "ticks": 47040,
          "durationTicks": 179
        },
        {
          "time": 147.5625,
          "midi": 71,
          "name": "B4",
          "velocity": 1,
          "duration": 0.18437499999998863,
          "ticks": 47220,
          "durationTicks": 59
        },
        {
          "time": 147.5625,
          "midi": 67,
          "name": "G4",
          "velocity": 1,
          "duration": 0.18437499999998863,
          "ticks": 47220,
          "durationTicks": 59
        },
        {
          "time": 147.75,
          "midi": 67,
          "name": "G4",
          "velocity": 0.937007874015748,
          "duration": 0.37187499999998863,
          "ticks": 47280,
          "durationTicks": 119
        },
        {
          "time": 147.75,
          "midi": 71,
          "name": "B4",
          "velocity": 0.7637795275590551,
          "duration": 0.37187499999998863,
          "ticks": 47280,
          "durationTicks": 119
        },
        {
          "time": 148.125,
          "midi": 67,
          "name": "G4",
          "velocity": 0.9763779527559056,
          "duration": 0.37187499999998863,
          "ticks": 47400,
          "durationTicks": 119
        },
        {
          "time": 148.125,
          "midi": 79,
          "name": "G5",
          "velocity": 1,
          "duration": 0.37187499999998863,
          "ticks": 47400,
          "durationTicks": 119
        },
        {
          "time": 148.5,
          "midi": 66,
          "name": "F#4",
          "velocity": 0.7086614173228346,
          "duration": 0.5593749999999886,
          "ticks": 47520,
          "durationTicks": 179
        },
        {
          "time": 148.5,
          "midi": 78,
          "name": "F#5",
          "velocity": 0.905511811023622,
          "duration": 0.5593749999999886,
          "ticks": 47520,
          "durationTicks": 179
        },
        {
          "time": 149.0625,
          "midi": 64,
          "name": "E4",
          "velocity": 0.937007874015748,
          "duration": 0.18437499999998863,
          "ticks": 47700,
          "durationTicks": 59
        },
        {
          "time": 149.0625,
          "midi": 76,
          "name": "E5",
          "velocity": 0.9763779527559056,
          "duration": 0.18437499999998863,
          "ticks": 47700,
          "durationTicks": 59
        },
        {
          "time": 149.25,
          "midi": 76,
          "name": "E5",
          "velocity": 0.937007874015748,
          "duration": 0.37187499999998863,
          "ticks": 47760,
          "durationTicks": 119
        },
        {
          "time": 149.25,
          "midi": 64,
          "name": "E4",
          "velocity": 0.8503937007874016,
          "duration": 0.37187499999998863,
          "ticks": 47760,
          "durationTicks": 119
        },
        {
          "time": 149.625,
          "midi": 76,
          "name": "E5",
          "velocity": 0.937007874015748,
          "duration": 0.18437499999998863,
          "ticks": 47880,
          "durationTicks": 59
        },
        {
          "time": 149.625,
          "midi": 64,
          "name": "E4",
          "velocity": 0.8503937007874016,
          "duration": 0.18437499999998863,
          "ticks": 47880,
          "durationTicks": 59
        },
        {
          "time": 149.8125,
          "midi": 78,
          "name": "F#5",
          "velocity": 0.9763779527559056,
          "duration": 0.18437499999998863,
          "ticks": 47940,
          "durationTicks": 59
        },
        {
          "time": 149.8125,
          "midi": 66,
          "name": "F#4",
          "velocity": 0.905511811023622,
          "duration": 0.18437499999998863,
          "ticks": 47940,
          "durationTicks": 59
        },
        {
          "time": 150,
          "midi": 64,
          "name": "E4",
          "velocity": 0.8503937007874016,
          "duration": 0.5593749999999886,
          "ticks": 48000,
          "durationTicks": 179
        },
        {
          "time": 150,
          "midi": 76,
          "name": "E5",
          "velocity": 0.9763779527559056,
          "duration": 0.5593749999999886,
          "ticks": 48000,
          "durationTicks": 179
        },
        {
          "time": 150.5625,
          "midi": 62,
          "name": "D4",
          "velocity": 0.8503937007874016,
          "duration": 0.18437499999998863,
          "ticks": 48180,
          "durationTicks": 59
        },
        {
          "time": 150.5625,
          "midi": 74,
          "name": "D5",
          "velocity": 1,
          "duration": 0.18437499999998863,
          "ticks": 48180,
          "durationTicks": 59
        },
        {
          "time": 150.75,
          "midi": 74,
          "name": "D5",
          "velocity": 1,
          "duration": 0.37187499999998863,
          "ticks": 48240,
          "durationTicks": 119
        },
        {
          "time": 150.75,
          "midi": 62,
          "name": "D4",
          "velocity": 0.937007874015748,
          "duration": 0.37187499999998863,
          "ticks": 48240,
          "durationTicks": 119
        },
        {
          "time": 151.125,
          "midi": 81,
          "name": "A5",
          "velocity": 0.937007874015748,
          "duration": 0.18437499999998863,
          "ticks": 48360,
          "durationTicks": 59
        },
        {
          "time": 151.125,
          "midi": 69,
          "name": "A4",
          "velocity": 0.7401574803149606,
          "duration": 0.18437499999998863,
          "ticks": 48360,
          "durationTicks": 59
        },
        {
          "time": 151.3125,
          "midi": 78,
          "name": "F#5",
          "velocity": 0.937007874015748,
          "duration": 0.18437499999998863,
          "ticks": 48420,
          "durationTicks": 59
        },
        {
          "time": 151.3125,
          "midi": 66,
          "name": "F#4",
          "velocity": 0.8031496062992126,
          "duration": 0.18437499999998863,
          "ticks": 48420,
          "durationTicks": 59
        },
        {
          "time": 151.5,
          "midi": 71,
          "name": "B4",
          "velocity": 1,
          "duration": 0.7468749999999886,
          "ticks": 48480,
          "durationTicks": 239
        },
        {
          "time": 151.5,
          "midi": 78,
          "name": "F#5",
          "velocity": 1,
          "duration": 0.5593749999999886,
          "ticks": 48480,
          "durationTicks": 179
        },
        {
          "time": 152.0625,
          "midi": 76,
          "name": "E5",
          "velocity": 1,
          "duration": 0.18437499999998863,
          "ticks": 48660,
          "durationTicks": 59
        },
        {
          "time": 152.25,
          "midi": 73,
          "name": "C#5",
          "velocity": 1,
          "duration": 1.4968749999999886,
          "ticks": 48720,
          "durationTicks": 479
        },
        {
          "time": 152.25,
          "midi": 76,
          "name": "E5",
          "velocity": 1,
          "duration": 0.37187499999998863,
          "ticks": 48720,
          "durationTicks": 119
        },
        {
          "time": 152.625,
          "midi": 76,
          "name": "E5",
          "velocity": 1,
          "duration": 0.37187499999998863,
          "ticks": 48840,
          "durationTicks": 119
        },
        {
          "time": 153,
          "midi": 79,
          "name": "G5",
          "velocity": 1,
          "duration": 0.5593749999999886,
          "ticks": 48960,
          "durationTicks": 179
        },
        {
          "time": 153.5625,
          "midi": 78,
          "name": "F#5",
          "velocity": 1,
          "duration": 0.18437499999998863,
          "ticks": 49140,
          "durationTicks": 59
        },
        {
          "time": 153.75,
          "midi": 74,
          "name": "D5",
          "velocity": 1,
          "duration": 0.7468749999999886,
          "ticks": 49200,
          "durationTicks": 239
        },
        {
          "time": 153.75,
          "midi": 78,
          "name": "F#5",
          "velocity": 1,
          "duration": 0.37187499999998863,
          "ticks": 49200,
          "durationTicks": 119
        },
        {
          "time": 154.125,
          "midi": 78,
          "name": "F#5",
          "velocity": 1,
          "duration": 0.37187499999998863,
          "ticks": 49320,
          "durationTicks": 119
        },
        {
          "time": 154.5,
          "midi": 75,
          "name": "D#5",
          "velocity": 1,
          "duration": 0.37187499999998863,
          "ticks": 49440,
          "durationTicks": 119
        },
        {
          "time": 154.5,
          "midi": 78,
          "name": "F#5",
          "velocity": 1,
          "duration": 0.37187499999998863,
          "ticks": 49440,
          "durationTicks": 119
        },
        {
          "time": 154.875,
          "midi": 66,
          "name": "F#4",
          "velocity": 1,
          "duration": 0.37187499999998863,
          "ticks": 49560,
          "durationTicks": 119
        },
        {
          "time": 154.875,
          "midi": 69,
          "name": "A4",
          "velocity": 0.9763779527559056,
          "duration": 0.18437499999998863,
          "ticks": 49560,
          "durationTicks": 59
        },
        {
          "time": 155.0625,
          "midi": 68,
          "name": "G#4",
          "velocity": 1,
          "duration": 0.18437499999998863,
          "ticks": 49620,
          "durationTicks": 59
        },
        {
          "time": 155.25,
          "midi": 65,
          "name": "F4",
          "velocity": 1,
          "duration": 0.7468749999999886,
          "ticks": 49680,
          "durationTicks": 239
        },
        {
          "time": 155.25,
          "midi": 68,
          "name": "G#4",
          "velocity": 1,
          "duration": 0.37187499999998863,
          "ticks": 49680,
          "durationTicks": 119
        },
        {
          "time": 155.625,
          "midi": 68,
          "name": "G#4",
          "velocity": 1,
          "duration": 0.37187499999998863,
          "ticks": 49800,
          "durationTicks": 119
        },
        {
          "time": 156,
          "midi": 67,
          "name": "G4",
          "velocity": 1,
          "duration": 0.7468749999999886,
          "ticks": 49920,
          "durationTicks": 239
        },
        {
          "time": 156,
          "midi": 71,
          "name": "B4",
          "velocity": 1,
          "duration": 0.5593749999999886,
          "ticks": 49920,
          "durationTicks": 179
        },
        {
          "time": 156.5625,
          "midi": 70,
          "name": "A#4",
          "velocity": 1,
          "duration": 0.18437499999998863,
          "ticks": 50100,
          "durationTicks": 59
        },
        {
          "time": 156.75,
          "midi": 66,
          "name": "F#4",
          "velocity": 1,
          "duration": 0.37187499999998863,
          "ticks": 50160,
          "durationTicks": 119
        },
        {
          "time": 156.75,
          "midi": 73,
          "name": "C#5",
          "velocity": 0.9763779527559056,
          "duration": 0.5593749999999886,
          "ticks": 50160,
          "durationTicks": 179
        },
        {
          "time": 157.125,
          "midi": 59,
          "name": "B3",
          "velocity": 1,
          "duration": 0.7468749999999886,
          "ticks": 50280,
          "durationTicks": 239
        },
        {
          "time": 157.3125,
          "midi": 71,
          "name": "B4",
          "velocity": 1,
          "duration": 0.18437499999998863,
          "ticks": 50340,
          "durationTicks": 59
        },
        {
          "time": 157.5,
          "midi": 74,
          "name": "D5",
          "velocity": 1,
          "duration": 0.5593749999999886,
          "ticks": 50400,
          "durationTicks": 179
        },
        {
          "time": 157.875,
          "midi": 68,
          "name": "G#4",
          "velocity": 1,
          "duration": 0.18437499999998863,
          "ticks": 50520,
          "durationTicks": 59
        },
        {
          "time": 158.0625,
          "midi": 61,
          "name": "C#4",
          "velocity": 1,
          "duration": 0.18437499999998863,
          "ticks": 50580,
          "durationTicks": 59
        },
        {
          "time": 158.0625,
          "midi": 73,
          "name": "C#5",
          "velocity": 1,
          "duration": 0.18437499999998863,
          "ticks": 50580,
          "durationTicks": 59
        },
        {
          "time": 158.25,
          "midi": 69,
          "name": "A4",
          "velocity": 1,
          "duration": 0.7468749999999886,
          "ticks": 50640,
          "durationTicks": 239
        },
        {
          "time": 158.25,
          "midi": 76,
          "name": "E5",
          "velocity": 1,
          "duration": 0.5593749999999886,
          "ticks": 50640,
          "durationTicks": 179
        },
        {
          "time": 158.8125,
          "midi": 74,
          "name": "D5",
          "velocity": 1,
          "duration": 0.18437499999998863,
          "ticks": 50820,
          "durationTicks": 59
        },
        {
          "time": 159,
          "midi": 71,
          "name": "B4",
          "velocity": 1,
          "duration": 1.125,
          "ticks": 50880,
          "durationTicks": 360
        },
        {
          "time": 159,
          "midi": 78,
          "name": "F#5",
          "velocity": 1,
          "duration": 0.5593749999999886,
          "ticks": 50880,
          "durationTicks": 179
        },
        {
          "time": 159.5625,
          "midi": 76,
          "name": "E5",
          "velocity": 1,
          "duration": 0.18437499999998863,
          "ticks": 51060,
          "durationTicks": 59
        },
        {
          "time": 159.75,
          "midi": 76,
          "name": "E5",
          "velocity": 0.9763779527559056,
          "duration": 0.5593749999999886,
          "ticks": 51120,
          "durationTicks": 179
        },
        {
          "time": 160.125,
          "midi": 71,
          "name": "B4",
          "velocity": 1,
          "duration": 0.7468749999999886,
          "ticks": 51240,
          "durationTicks": 239
        },
        {
          "time": 160.3125,
          "midi": 74,
          "name": "D5",
          "velocity": 1,
          "duration": 0.18437499999998863,
          "ticks": 51300,
          "durationTicks": 59
        },
        {
          "time": 160.5,
          "midi": 78,
          "name": "F#5",
          "velocity": 0.937007874015748,
          "duration": 0.5593749999999886,
          "ticks": 51360,
          "durationTicks": 179
        },
        {
          "time": 160.875,
          "midi": 71,
          "name": "B4",
          "velocity": 1,
          "duration": 0.18437499999998863,
          "ticks": 51480,
          "durationTicks": 59
        },
        {
          "time": 161.0625,
          "midi": 71,
          "name": "B4",
          "velocity": 0.8503937007874016,
          "duration": 0.37187499999998863,
          "ticks": 51540,
          "durationTicks": 119
        },
        {
          "time": 161.0625,
          "midi": 76,
          "name": "E5",
          "velocity": 1,
          "duration": 0.37187499999998863,
          "ticks": 51540,
          "durationTicks": 119
        },
        {
          "time": 161.4375,
          "midi": 64,
          "name": "E4",
          "velocity": 0.9763779527559056,
          "duration": 0.18437499999998863,
          "ticks": 51660,
          "durationTicks": 59
        },
        {
          "time": 161.4375,
          "midi": 74,
          "name": "D5",
          "velocity": 0.937007874015748,
          "duration": 0.18437499999998863,
          "ticks": 51660,
          "durationTicks": 59
        },
        {
          "time": 161.625,
          "midi": 71,
          "name": "B4",
          "velocity": 1,
          "duration": 0.18437499999998863,
          "ticks": 51720,
          "durationTicks": 59
        },
        {
          "time": 161.625,
          "midi": 71,
          "name": "B4",
          "velocity": 1,
          "duration": 0.18437499999998863,
          "ticks": 51720,
          "durationTicks": 59
        },
        {
          "time": 161.8125,
          "midi": 64,
          "name": "E4",
          "velocity": 1,
          "duration": 0.5625,
          "ticks": 51780,
          "durationTicks": 180
        },
        {
          "time": 161.8125,
          "midi": 76,
          "name": "E5",
          "velocity": 1,
          "duration": 0.5625,
          "ticks": 51780,
          "durationTicks": 180
        },
        {
          "time": 162.375,
          "midi": 61,
          "name": "C#4",
          "velocity": 1,
          "duration": 0.37187499999998863,
          "ticks": 51960,
          "durationTicks": 119
        },
        {
          "time": 162.375,
          "midi": 73,
          "name": "C#5",
          "velocity": 1,
          "duration": 0.37187499999998863,
          "ticks": 51960,
          "durationTicks": 119
        },
        {
          "time": 162.75,
          "midi": 57,
          "name": "A3",
          "velocity": 1,
          "duration": 0.37187499999998863,
          "ticks": 52080,
          "durationTicks": 119
        },
        {
          "time": 162.75,
          "midi": 69,
          "name": "A4",
          "velocity": 1,
          "duration": 0.37187499999998863,
          "ticks": 52080,
          "durationTicks": 119
        },
        {
          "time": 163.125,
          "midi": 66,
          "name": "F#4",
          "velocity": 0.9763779527559056,
          "duration": 0.37187499999998863,
          "ticks": 52200,
          "durationTicks": 119
        },
        {
          "time": 163.125,
          "midi": 78,
          "name": "F#5",
          "velocity": 1,
          "duration": 0.37187499999998863,
          "ticks": 52200,
          "durationTicks": 119
        },
        {
          "time": 163.5,
          "midi": 64,
          "name": "E4",
          "velocity": 1,
          "duration": 0.37187499999998863,
          "ticks": 52320,
          "durationTicks": 119
        },
        {
          "time": 163.5,
          "midi": 76,
          "name": "E5",
          "velocity": 1,
          "duration": 0.37187499999998863,
          "ticks": 52320,
          "durationTicks": 119
        },
        {
          "time": 163.875,
          "midi": 69,
          "name": "A4",
          "velocity": 1,
          "duration": 0.7468749999999886,
          "ticks": 52440,
          "durationTicks": 239
        },
        {
          "time": 163.875,
          "midi": 81,
          "name": "A5",
          "velocity": 1,
          "duration": 0.7468749999999886,
          "ticks": 52440,
          "durationTicks": 239
        },
        {
          "time": 164.625,
          "midi": 68,
          "name": "G#4",
          "velocity": 1,
          "duration": 0.37187499999998863,
          "ticks": 52680,
          "durationTicks": 119
        },
        {
          "time": 164.625,
          "midi": 80,
          "name": "G#5",
          "velocity": 1,
          "duration": 0.37187499999998863,
          "ticks": 52680,
          "durationTicks": 119
        },
        {
          "time": 165,
          "midi": 81,
          "name": "A5",
          "velocity": 1,
          "duration": 0.09062499999998863,
          "ticks": 52800,
          "durationTicks": 29
        },
        {
          "time": 165,
          "midi": 69,
          "name": "A4",
          "velocity": 1,
          "duration": 0.09062499999998863,
          "ticks": 52800,
          "durationTicks": 29
        },
        {
          "time": 165.1875,
          "midi": 69,
          "name": "A4",
          "velocity": 1,
          "duration": 0.09062499999998863,
          "ticks": 52860,
          "durationTicks": 29
        },
        {
          "time": 165.1875,
          "midi": 57,
          "name": "A3",
          "velocity": 1,
          "duration": 0.09062499999998863,
          "ticks": 52860,
          "durationTicks": 29
        },
        {
          "time": 165.28125,
          "midi": 71,
          "name": "B4",
          "velocity": 1,
          "duration": 0.09062499999998863,
          "ticks": 52890,
          "durationTicks": 29
        },
        {
          "time": 165.28125,
          "midi": 59,
          "name": "B3",
          "velocity": 1,
          "duration": 0.09062499999998863,
          "ticks": 52890,
          "durationTicks": 29
        },
        {
          "time": 165.375,
          "midi": 73,
          "name": "C#5",
          "velocity": 1,
          "duration": 0.09062499999998863,
          "ticks": 52920,
          "durationTicks": 29
        },
        {
          "time": 165.375,
          "midi": 61,
          "name": "C#4",
          "velocity": 1,
          "duration": 0.09062499999998863,
          "ticks": 52920,
          "durationTicks": 29
        },
        {
          "time": 165.5625,
          "midi": 73,
          "name": "C#5",
          "velocity": 1,
          "duration": 0.09062499999998863,
          "ticks": 52980,
          "durationTicks": 29
        },
        {
          "time": 165.5625,
          "midi": 61,
          "name": "C#4",
          "velocity": 1,
          "duration": 0.09062499999998863,
          "ticks": 52980,
          "durationTicks": 29
        },
        {
          "time": 165.65625,
          "midi": 74,
          "name": "D5",
          "velocity": 1,
          "duration": 0.09062499999998863,
          "ticks": 53010,
          "durationTicks": 29
        },
        {
          "time": 165.65625,
          "midi": 62,
          "name": "D4",
          "velocity": 1,
          "duration": 0.09062499999998863,
          "ticks": 53010,
          "durationTicks": 29
        },
        {
          "time": 165.75,
          "midi": 76,
          "name": "E5",
          "velocity": 1,
          "duration": 0.09062499999998863,
          "ticks": 53040,
          "durationTicks": 29
        },
        {
          "time": 165.75,
          "midi": 64,
          "name": "E4",
          "velocity": 1,
          "duration": 0.09062499999998863,
          "ticks": 53040,
          "durationTicks": 29
        },
        {
          "time": 165.9375,
          "midi": 76,
          "name": "E5",
          "velocity": 1,
          "duration": 0.09062499999998863,
          "ticks": 53100,
          "durationTicks": 29
        },
        {
          "time": 165.9375,
          "midi": 64,
          "name": "E4",
          "velocity": 1,
          "duration": 0.09062499999998863,
          "ticks": 53100,
          "durationTicks": 29
        },
        {
          "time": 166.03125,
          "midi": 78,
          "name": "F#5",
          "velocity": 1,
          "duration": 0.09062499999998863,
          "ticks": 53130,
          "durationTicks": 29
        },
        {
          "time": 166.03125,
          "midi": 66,
          "name": "F#4",
          "velocity": 1,
          "duration": 0.09062499999998863,
          "ticks": 53130,
          "durationTicks": 29
        },
        {
          "time": 166.125,
          "midi": 80,
          "name": "G#5",
          "velocity": 1,
          "duration": 0.09062499999998863,
          "ticks": 53160,
          "durationTicks": 29
        },
        {
          "time": 166.125,
          "midi": 68,
          "name": "G#4",
          "velocity": 1,
          "duration": 0.09062499999998863,
          "ticks": 53160,
          "durationTicks": 29
        },
        {
          "time": 166.3125,
          "midi": 76,
          "name": "E5",
          "velocity": 1,
          "duration": 0.05937500000001705,
          "ticks": 53220,
          "durationTicks": 19
        },
        {
          "time": 166.3125,
          "midi": 64,
          "name": "E4",
          "velocity": 1,
          "duration": 0.05937500000001705,
          "ticks": 53220,
          "durationTicks": 19
        },
        {
          "time": 166.375,
          "midi": 78,
          "name": "F#5",
          "velocity": 1,
          "duration": 0.05937499999998863,
          "ticks": 53240,
          "durationTicks": 19
        },
        {
          "time": 166.375,
          "midi": 66,
          "name": "F#4",
          "velocity": 1,
          "duration": 0.05937499999998863,
          "ticks": 53240,
          "durationTicks": 19
        },
        {
          "time": 166.4375,
          "midi": 80,
          "name": "G#5",
          "velocity": 1,
          "duration": 0.05937499999998863,
          "ticks": 53260,
          "durationTicks": 19
        },
        {
          "time": 166.4375,
          "midi": 68,
          "name": "G#4",
          "velocity": 1,
          "duration": 0.05937499999998863,
          "ticks": 53260,
          "durationTicks": 19
        },
        {
          "time": 166.5,
          "midi": 69,
          "name": "A4",
          "velocity": 0.8818897637795275,
          "duration": 0.7468749999999886,
          "ticks": 53280,
          "durationTicks": 239
        },
        {
          "time": 166.5,
          "midi": 81,
          "name": "A5",
          "velocity": 1,
          "duration": 0.7468749999999886,
          "ticks": 53280,
          "durationTicks": 239
        },
        {
          "time": 167.25,
          "midi": 76,
          "name": "E5",
          "velocity": 0.937007874015748,
          "duration": 0.18437499999998863,
          "ticks": 53520,
          "durationTicks": 59
        },
        {
          "time": 167.25,
          "midi": 64,
          "name": "E4",
          "velocity": 0.7795275590551181,
          "duration": 0.18437499999998863,
          "ticks": 53520,
          "durationTicks": 59
        },
        {
          "time": 167.625,
          "midi": 64,
          "name": "E4",
          "velocity": 0.8503937007874016,
          "duration": 0.18437499999998863,
          "ticks": 53640,
          "durationTicks": 59
        },
        {
          "time": 167.625,
          "midi": 76,
          "name": "E5",
          "velocity": 1,
          "duration": 0.18437499999998863,
          "ticks": 53640,
          "durationTicks": 59
        },
        {
          "time": 176.625,
          "midi": 76,
          "name": "E5",
          "velocity": 1,
          "duration": 0.5593749999999886,
          "ticks": 55140,
          "durationTicks": 119
        },
        {
          "time": 176.625,
          "midi": 64,
          "name": "E4",
          "velocity": 1,
          "duration": 0.5593749999999886,
          "ticks": 55140,
          "durationTicks": 119
        },
        {
          "time": 177.1875,
          "midi": 73,
          "name": "C#5",
          "velocity": 1,
          "duration": 0.18437499999998863,
          "ticks": 55260,
          "durationTicks": 59
        },
        {
          "time": 177.1875,
          "midi": 61,
          "name": "C#4",
          "velocity": 0.937007874015748,
          "duration": 0.18437499999998863,
          "ticks": 55260,
          "durationTicks": 59
        },
        {
          "time": 177.375,
          "midi": 57,
          "name": "A3",
          "velocity": 0.9763779527559056,
          "duration": 0.09062499999998863,
          "ticks": 55320,
          "durationTicks": 29
        },
        {
          "time": 177.375,
          "midi": 69,
          "name": "A4",
          "velocity": 1,
          "duration": 0.09062499999998863,
          "ticks": 55320,
          "durationTicks": 29
        },
        {
          "time": 177.5625,
          "midi": 59,
          "name": "B3",
          "velocity": 0.9763779527559056,
          "duration": 0.09062499999998863,
          "ticks": 55380,
          "durationTicks": 29
        },
        {
          "time": 177.5625,
          "midi": 71,
          "name": "B4",
          "velocity": 1,
          "duration": 0.09062499999998863,
          "ticks": 55380,
          "durationTicks": 29
        },
        {
          "time": 177.75,
          "midi": 73,
          "name": "C#5",
          "velocity": 1,
          "duration": 0.37187499999998863,
          "ticks": 55440,
          "durationTicks": 119
        },
        {
          "time": 177.75,
          "midi": 69,
          "name": "A4",
          "velocity": 1,
          "duration": 0.37187499999998863,
          "ticks": 55440,
          "durationTicks": 119
        },
        {
          "time": 178.125,
          "midi": 71,
          "name": "B4",
          "velocity": 1,
          "duration": 0.37187499999998863,
          "ticks": 55560,
          "durationTicks": 119
        },
        {
          "time": 178.125,
          "midi": 68,
          "name": "G#4",
          "velocity": 1,
          "duration": 0.37187499999998863,
          "ticks": 55560,
          "durationTicks": 119
        },
        {
          "time": 178.875,
          "midi": 71,
          "name": "B4",
          "velocity": 0.8267716535433071,
          "duration": 0.18437499999998863,
          "ticks": 55800,
          "durationTicks": 59
        },
        {
          "time": 178.875,
          "midi": 80,
          "name": "G#5",
          "velocity": 0.937007874015748,
          "duration": 0.18437499999998863,
          "ticks": 55800,
          "durationTicks": 59
        },
        {
          "time": 179.625,
          "midi": 73,
          "name": "C#5",
          "velocity": 0.9763779527559056,
          "duration": 0.18437499999998863,
          "ticks": 56040,
          "durationTicks": 59
        },
        {
          "time": 179.625,
          "midi": 81,
          "name": "A5",
          "velocity": 1,
          "duration": 0.18437499999998863,
          "ticks": 56040,
          "durationTicks": 59
        },
        {
          "time": 180.75,
          "midi": 70,
          "name": "A#4",
          "velocity": 1,
          "duration": 0.9375,
          "ticks": 56400,
          "durationTicks": 300
        },
        {
          "time": 181.6875,
          "midi": 69,
          "name": "A4",
          "velocity": 1,
          "duration": 0.09062499999998863,
          "ticks": 56700,
          "durationTicks": 29
        },
        {
          "time": 181.875,
          "midi": 69,
          "name": "A4",
          "velocity": 1,
          "duration": 0.09062499999998863,
          "ticks": 56760,
          "durationTicks": 29
        },
        {
          "time": 182.0625,
          "midi": 74,
          "name": "D5",
          "velocity": 1,
          "duration": 0.09062499999998863,
          "ticks": 56820,
          "durationTicks": 29
        },
        {
          "time": 182.25,
          "midi": 74,
          "name": "D5",
          "velocity": 1,
          "duration": 0.09062499999998863,
          "ticks": 56880,
          "durationTicks": 29
        },
        {
          "time": 182.4375,
          "midi": 65,
          "name": "F4",
          "velocity": 1,
          "duration": 0.09062499999998863,
          "ticks": 56940,
          "durationTicks": 29
        },
        {
          "time": 182.4375,
          "midi": 77,
          "name": "F5",
          "velocity": 1,
          "duration": 0.09062499999998863,
          "ticks": 56940,
          "durationTicks": 29
        },
        {
          "time": 182.625,
          "midi": 65,
          "name": "F4",
          "velocity": 0.937007874015748,
          "duration": 0.09062499999998863,
          "ticks": 57000,
          "durationTicks": 29
        },
        {
          "time": 182.625,
          "midi": 77,
          "name": "F5",
          "velocity": 1,
          "duration": 0.09062499999998863,
          "ticks": 57000,
          "durationTicks": 29
        },
        {
          "time": 182.8125,
          "midi": 69,
          "name": "A4",
          "velocity": 0.905511811023622,
          "duration": 0.09062499999998863,
          "ticks": 57060,
          "durationTicks": 29
        },
        {
          "time": 182.8125,
          "midi": 81,
          "name": "A5",
          "velocity": 0.9763779527559056,
          "duration": 0.09062499999998863,
          "ticks": 57060,
          "durationTicks": 29
        },
        {
          "time": 183,
          "midi": 69,
          "name": "A4",
          "velocity": 0.937007874015748,
          "duration": 0.09062499999998863,
          "ticks": 57120,
          "durationTicks": 29
        },
        {
          "time": 183,
          "midi": 81,
          "name": "A5",
          "velocity": 0.905511811023622,
          "duration": 0.09062499999998863,
          "ticks": 57120,
          "durationTicks": 29
        },
        {
          "time": 183.1875,
          "midi": 62,
          "name": "D4",
          "velocity": 1,
          "duration": 0.09062499999998863,
          "ticks": 57180,
          "durationTicks": 29
        },
        {
          "time": 183.1875,
          "midi": 74,
          "name": "D5",
          "velocity": 1,
          "duration": 0.09062499999998863,
          "ticks": 57180,
          "durationTicks": 29
        },
        {
          "time": 183.375,
          "midi": 74,
          "name": "D5",
          "velocity": 1,
          "duration": 0.18437499999998863,
          "ticks": 57240,
          "durationTicks": 59
        },
        {
          "time": 183.375,
          "midi": 62,
          "name": "D4",
          "velocity": 1,
          "duration": 0.18437499999998863,
          "ticks": 57240,
          "durationTicks": 59
        },
        {
          "time": 183.5625,
          "midi": 77,
          "name": "F5",
          "velocity": 1,
          "duration": 0.18437499999998863,
          "ticks": 57300,
          "durationTicks": 59
        },
        {
          "time": 183.75,
          "midi": 77,
          "name": "F5",
          "velocity": 1,
          "duration": 0.18437499999998863,
          "ticks": 57360,
          "durationTicks": 59
        },
        {
          "time": 183.9375,
          "midi": 69,
          "name": "A4",
          "velocity": 1,
          "duration": 0.18437499999998863,
          "ticks": 57420,
          "durationTicks": 59
        },
        {
          "time": 184.125,
          "midi": 69,
          "name": "A4",
          "velocity": 1,
          "duration": 0.18437499999998863,
          "ticks": 57480,
          "durationTicks": 59
        },
        {
          "time": 184.3125,
          "midi": 74,
          "name": "D5",
          "velocity": 1,
          "duration": 0.18437499999998863,
          "ticks": 57540,
          "durationTicks": 59
        },
        {
          "time": 184.5,
          "midi": 74,
          "name": "D5",
          "velocity": 1,
          "duration": 0.18437499999998863,
          "ticks": 57600,
          "durationTicks": 59
        },
        {
          "time": 184.6875,
          "midi": 65,
          "name": "F4",
          "velocity": 1,
          "duration": 0.18437499999998863,
          "ticks": 57660,
          "durationTicks": 59
        },
        {
          "time": 184.875,
          "midi": 65,
          "name": "F4",
          "velocity": 1,
          "duration": 0.18437499999998863,
          "ticks": 57720,
          "durationTicks": 59
        },
        {
          "time": 185.0625,
          "midi": 69,
          "name": "A4",
          "velocity": 1,
          "duration": 0.18437499999998863,
          "ticks": 57780,
          "durationTicks": 59
        },
        {
          "time": 185.25,
          "midi": 69,
          "name": "A4",
          "velocity": 1,
          "duration": 0.18437499999998863,
          "ticks": 57840,
          "durationTicks": 59
        },
        {
          "time": 185.4375,
          "midi": 62,
          "name": "D4",
          "velocity": 1,
          "duration": 0.18437499999998863,
          "ticks": 57900,
          "durationTicks": 59
        },
        {
          "time": 185.625,
          "midi": 62,
          "name": "D4",
          "velocity": 1,
          "duration": 0.18437499999998863,
          "ticks": 57960,
          "durationTicks": 59
        },
        {
          "time": 185.8125,
          "midi": 65,
          "name": "F4",
          "velocity": 1,
          "duration": 0.18437499999998863,
          "ticks": 58020,
          "durationTicks": 59
        },
        {
          "time": 185.8125,
          "midi": 77,
          "name": "F5",
          "velocity": 1,
          "duration": 0.18437499999998863,
          "ticks": 58020,
          "durationTicks": 59
        },
        {
          "time": 186,
          "midi": 65,
          "name": "F4",
          "velocity": 1,
          "duration": 0.18437499999998863,
          "ticks": 58080,
          "durationTicks": 59
        },
        {
          "time": 186,
          "midi": 77,
          "name": "F5",
          "velocity": 1,
          "duration": 0.18437499999998863,
          "ticks": 58080,
          "durationTicks": 59
        },
        {
          "time": 186.1875,
          "midi": 66,
          "name": "F#4",
          "velocity": 0.905511811023622,
          "duration": 0.18437499999998863,
          "ticks": 58140,
          "durationTicks": 59
        },
        {
          "time": 186.1875,
          "midi": 78,
          "name": "F#5",
          "velocity": 0.937007874015748,
          "duration": 0.18437499999998863,
          "ticks": 58140,
          "durationTicks": 59
        },
        {
          "time": 186.375,
          "midi": 66,
          "name": "F#4",
          "velocity": 1,
          "duration": 0.18437499999998863,
          "ticks": 58200,
          "durationTicks": 59
        },
        {
          "time": 186.375,
          "midi": 78,
          "name": "F#5",
          "velocity": 1,
          "duration": 0.18437499999998863,
          "ticks": 58200,
          "durationTicks": 59
        },
        {
          "time": 186.5625,
          "midi": 67,
          "name": "G4",
          "velocity": 1,
          "duration": 0.18437499999998863,
          "ticks": 58260,
          "durationTicks": 59
        },
        {
          "time": 186.5625,
          "midi": 79,
          "name": "G5",
          "velocity": 1,
          "duration": 0.18437499999998863,
          "ticks": 58260,
          "durationTicks": 59
        },
        {
          "time": 186.75,
          "midi": 67,
          "name": "G4",
          "velocity": 1,
          "duration": 0.18437499999998863,
          "ticks": 58320,
          "durationTicks": 59
        },
        {
          "time": 186.75,
          "midi": 79,
          "name": "G5",
          "velocity": 1,
          "duration": 0.18437499999998863,
          "ticks": 58320,
          "durationTicks": 59
        },
        {
          "time": 186.9375,
          "midi": 68,
          "name": "G#4",
          "velocity": 0.905511811023622,
          "duration": 0.18437499999998863,
          "ticks": 58380,
          "durationTicks": 59
        },
        {
          "time": 186.9375,
          "midi": 80,
          "name": "G#5",
          "velocity": 1,
          "duration": 0.18437499999998863,
          "ticks": 58380,
          "durationTicks": 59
        },
        {
          "time": 187.125,
          "midi": 80,
          "name": "G#5",
          "velocity": 1,
          "duration": 0.18437499999998863,
          "ticks": 58440,
          "durationTicks": 59
        },
        {
          "time": 187.125,
          "midi": 68,
          "name": "G#4",
          "velocity": 0.9763779527559056,
          "duration": 0.18437499999998863,
          "ticks": 58440,
          "durationTicks": 59
        },
        {
          "time": 187.3125,
          "midi": 62,
          "name": "D4",
          "velocity": 0.9763779527559056,
          "duration": 0.18437499999998863,
          "ticks": 58500,
          "durationTicks": 59
        },
        {
          "time": 187.3125,
          "midi": 74,
          "name": "D5",
          "velocity": 0.937007874015748,
          "duration": 0.18437499999998863,
          "ticks": 58500,
          "durationTicks": 59
        },
        {
          "time": 187.5,
          "midi": 62,
          "name": "D4",
          "velocity": 0.9763779527559056,
          "duration": 0.18437499999998863,
          "ticks": 58560,
          "durationTicks": 59
        },
        {
          "time": 187.5,
          "midi": 74,
          "name": "D5",
          "velocity": 1,
          "duration": 0.18437499999998863,
          "ticks": 58560,
          "durationTicks": 59
        },
        {
          "time": 187.6875,
          "midi": 65,
          "name": "F4",
          "velocity": 1,
          "duration": 0.18437499999998863,
          "ticks": 58620,
          "durationTicks": 59
        },
        {
          "time": 187.6875,
          "midi": 77,
          "name": "F5",
          "velocity": 1,
          "duration": 0.18437499999998863,
          "ticks": 58620,
          "durationTicks": 59
        },
        {
          "time": 187.875,
          "midi": 74,
          "name": "D5",
          "velocity": 1,
          "duration": 0.18437499999998863,
          "ticks": 58680,
          "durationTicks": 59
        },
        {
          "time": 187.875,
          "midi": 77,
          "name": "F5",
          "velocity": 1,
          "duration": 0.18437499999998863,
          "ticks": 58680,
          "durationTicks": 59
        },
        {
          "time": 188.25,
          "midi": 81,
          "name": "A5",
          "velocity": 1,
          "duration": 0.18437499999998863,
          "ticks": 58800,
          "durationTicks": 59
        },
        {
          "time": 188.25,
          "midi": 69,
          "name": "A4",
          "velocity": 0.9763779527559056,
          "duration": 0.18437499999998863,
          "ticks": 58800,
          "durationTicks": 59
        },
        {
          "time": 206.571411,
          "midi": 69,
          "name": "A4",
          "velocity": 1,
          "duration": 0.2107140749999985,
          "ticks": 63960,
          "durationTicks": 59
        },
        {
          "time": 206.571411,
          "midi": 73,
          "name": "C#5",
          "velocity": 1,
          "duration": 0.2107140749999985,
          "ticks": 63960,
          "durationTicks": 59
        },
        {
          "time": 206.999982,
          "midi": 74,
          "name": "D5",
          "velocity": 1,
          "duration": 0.2107140749999985,
          "ticks": 64080,
          "durationTicks": 59
        },
        {
          "time": 206.999982,
          "midi": 69,
          "name": "A4",
          "velocity": 1,
          "duration": 0.2107140749999985,
          "ticks": 64080,
          "durationTicks": 59
        },
        {
          "time": 207.2142675,
          "midi": 74,
          "name": "D5",
          "velocity": 1,
          "duration": 0.2107140749999985,
          "ticks": 64140,
          "durationTicks": 59
        },
        {
          "time": 207.2142675,
          "midi": 78,
          "name": "F#5",
          "velocity": 1,
          "duration": 0.2107140749999985,
          "ticks": 64140,
          "durationTicks": 59
        },
        {
          "time": 207.428553,
          "midi": 74,
          "name": "D5",
          "velocity": 1,
          "duration": 0.4249995750000153,
          "ticks": 64200,
          "durationTicks": 119
        },
        {
          "time": 207.428553,
          "midi": 81,
          "name": "A5",
          "velocity": 1,
          "duration": 0.4249995750000153,
          "ticks": 64200,
          "durationTicks": 119
        },
        {
          "time": 212.892834,
          "midi": 71,
          "name": "B4",
          "velocity": 1,
          "duration": 0.3687500000000057,
          "ticks": 65640,
          "durationTicks": 59
        },
        {
          "time": 212.892834,
          "midi": 67,
          "name": "G4",
          "velocity": 1,
          "duration": 0.3687500000000057,
          "ticks": 65640,
          "durationTicks": 59
        },
        {
          "time": 213.642834,
          "midi": 71,
          "name": "B4",
          "velocity": 1,
          "duration": 0.3687500000000057,
          "ticks": 65760,
          "durationTicks": 59
        },
        {
          "time": 213.642834,
          "midi": 74,
          "name": "D5",
          "velocity": 1,
          "duration": 0.3687500000000057,
          "ticks": 65760,
          "durationTicks": 59
        },
        {
          "time": 218.142834,
          "midi": 73,
          "name": "C#5",
          "velocity": 1,
          "duration": 0.3687500000000057,
          "ticks": 66480,
          "durationTicks": 59
        },
        {
          "time": 218.142834,
          "midi": 64,
          "name": "E4",
          "velocity": 0.937007874015748,
          "duration": 0.3687500000000057,
          "ticks": 66480,
          "durationTicks": 59
        },
        {
          "time": 218.892834,
          "midi": 64,
          "name": "E4",
          "velocity": 0.7244094488188977,
          "duration": 0.37187499999998863,
          "ticks": 66600,
          "durationTicks": 119
        },
        {
          "time": 219.267834,
          "midi": 64,
          "name": "E4",
          "velocity": 0.8031496062992126,
          "duration": 0.37187499999998863,
          "ticks": 66720,
          "durationTicks": 119
        },
        {
          "time": 219.642834,
          "midi": 66,
          "name": "F#4",
          "velocity": 0.7795275590551181,
          "duration": 0.37187499999998863,
          "ticks": 66840,
          "durationTicks": 119
        },
        {
          "time": 220.017834,
          "midi": 67,
          "name": "G4",
          "velocity": 1,
          "duration": 0.37187499999998863,
          "ticks": 66960,
          "durationTicks": 119
        },
        {
          "time": 220.392834,
          "midi": 67,
          "name": "G4",
          "velocity": 1,
          "duration": 0.37187499999998863,
          "ticks": 67080,
          "durationTicks": 119
        },
        {
          "time": 220.767834,
          "midi": 66,
          "name": "F#4",
          "velocity": 0.905511811023622,
          "duration": 0.37187499999998863,
          "ticks": 67200,
          "durationTicks": 119
        },
        {
          "time": 221.142834,
          "midi": 64,
          "name": "E4",
          "velocity": 0.7795275590551181,
          "duration": 0.37187499999998863,
          "ticks": 67320,
          "durationTicks": 119
        },
        {
          "time": 221.517834,
          "midi": 62,
          "name": "D4",
          "velocity": 0.9763779527559056,
          "duration": 0.37187499999998863,
          "ticks": 67440,
          "durationTicks": 119
        },
        {
          "time": 221.892834,
          "midi": 73,
          "name": "C#5",
          "velocity": 0.8267716535433071,
          "duration": 0.37187499999998863,
          "ticks": 67560,
          "durationTicks": 119
        },
        {
          "time": 222.267834,
          "midi": 73,
          "name": "C#5",
          "velocity": 0.7401574803149606,
          "duration": 0.37187499999998863,
          "ticks": 67680,
          "durationTicks": 119
        },
        {
          "time": 222.642834,
          "midi": 74,
          "name": "D5",
          "velocity": 0.7086614173228346,
          "duration": 0.37187499999998863,
          "ticks": 67800,
          "durationTicks": 119
        },
        {
          "time": 223.017834,
          "midi": 76,
          "name": "E5",
          "velocity": 0.8818897637795275,
          "duration": 0.37187499999998863,
          "ticks": 67920,
          "durationTicks": 119
        },
        {
          "time": 223.392834,
          "midi": 76,
          "name": "E5",
          "velocity": 0.8818897637795275,
          "duration": 0.37187499999998863,
          "ticks": 68040,
          "durationTicks": 119
        },
        {
          "time": 223.767834,
          "midi": 74,
          "name": "D5",
          "velocity": 0.905511811023622,
          "duration": 0.37187499999998863,
          "ticks": 68160,
          "durationTicks": 119
        },
        {
          "time": 224.142834,
          "midi": 67,
          "name": "G4",
          "velocity": 1,
          "duration": 0.37187499999998863,
          "ticks": 68280,
          "durationTicks": 119
        },
        {
          "time": 224.517834,
          "midi": 66,
          "name": "F#4",
          "velocity": 0.9763779527559056,
          "duration": 0.37187499999998863,
          "ticks": 68400,
          "durationTicks": 119
        },
        {
          "time": 225.642834,
          "midi": 69,
          "name": "A4",
          "velocity": 0.5039370078740157,
          "duration": 1.875,
          "ticks": 68760,
          "durationTicks": 600
        },
        {
          "time": 227.517834,
          "midi": 67,
          "name": "G4",
          "velocity": 0.905511811023622,
          "duration": 0.37187499999998863,
          "ticks": 69360,
          "durationTicks": 119
        },
        {
          "time": 227.892834,
          "midi": 66,
          "name": "F#4",
          "velocity": 0.6771653543307087,
          "duration": 0.37187499999998863,
          "ticks": 69480,
          "durationTicks": 119
        },
        {
          "time": 228.267834,
          "midi": 66,
          "name": "F#4",
          "velocity": 0.7637795275590551,
          "duration": 0.37187499999998863,
          "ticks": 69600,
          "durationTicks": 119
        },
        {
          "time": 228.642834,
          "midi": 67,
          "name": "G4",
          "velocity": 0.9763779527559056,
          "duration": 0.37187499999998863,
          "ticks": 69720,
          "durationTicks": 119
        },
        {
          "time": 229.017834,
          "midi": 69,
          "name": "A4",
          "velocity": 0.7401574803149606,
          "duration": 0.37187499999998863,
          "ticks": 69840,
          "durationTicks": 119
        },
        {
          "time": 229.392834,
          "midi": 69,
          "name": "A4",
          "velocity": 0.7401574803149606,
          "duration": 0.5593749999999886,
          "ticks": 69960,
          "durationTicks": 179
        },
        {
          "time": 229.955334,
          "midi": 67,
          "name": "G4",
          "velocity": 0.905511811023622,
          "duration": 0.18437499999998863,
          "ticks": 70140,
          "durationTicks": 59
        },
        {
          "time": 230.142834,
          "midi": 67,
          "name": "G4",
          "velocity": 0.7795275590551181,
          "duration": 0.37187499999998863,
          "ticks": 70200,
          "durationTicks": 119
        },
        {
          "time": 230.517834,
          "midi": 79,
          "name": "G5",
          "velocity": 0.7244094488188977,
          "duration": 0.18437499999998863,
          "ticks": 70320,
          "durationTicks": 59
        },
        {
          "time": 230.705334,
          "midi": 73,
          "name": "C#5",
          "velocity": 0.6377952755905512,
          "duration": 0.18437499999998863,
          "ticks": 70380,
          "durationTicks": 59
        },
        {
          "time": 230.892834,
          "midi": 74,
          "name": "D5",
          "velocity": 0.7637795275590551,
          "duration": 0.37187499999998863,
          "ticks": 70440,
          "durationTicks": 119
        },
        {
          "time": 231.455334,
          "midi": 74,
          "name": "D5",
          "velocity": 0.7637795275590551,
          "duration": 0.18437499999998863,
          "ticks": 70620,
          "durationTicks": 59
        },
        {
          "time": 231.642834,
          "midi": 69,
          "name": "A4",
          "velocity": 0.7637795275590551,
          "duration": 0.37187499999998863,
          "ticks": 70680,
          "durationTicks": 119
        },
        {
          "time": 232.205334,
          "midi": 69,
          "name": "A4",
          "velocity": 0.6377952755905512,
          "duration": 0.18437499999998863,
          "ticks": 70860,
          "durationTicks": 59
        },
        {
          "time": 232.392834,
          "midi": 71,
          "name": "B4",
          "velocity": 0.7637795275590551,
          "duration": 0.37187499999998863,
          "ticks": 70920,
          "durationTicks": 119
        },
        {
          "time": 232.955334,
          "midi": 71,
          "name": "B4",
          "velocity": 0.7637795275590551,
          "duration": 0.18437499999998863,
          "ticks": 71100,
          "durationTicks": 59
        },
        {
          "time": 233.142834,
          "midi": 71,
          "name": "B4",
          "velocity": 0.7637795275590551,
          "duration": 0.37187499999998863,
          "ticks": 71160,
          "durationTicks": 119
        },
        {
          "time": 233.705334,
          "midi": 73,
          "name": "C#5",
          "velocity": 0.6377952755905512,
          "duration": 0.18437499999998863,
          "ticks": 71340,
          "durationTicks": 59
        },
        {
          "time": 233.892834,
          "midi": 74,
          "name": "D5",
          "velocity": 0.7637795275590551,
          "duration": 0.37187499999998863,
          "ticks": 71400,
          "durationTicks": 119
        },
        {
          "time": 234.455334,
          "midi": 66,
          "name": "F#4",
          "velocity": 0.7637795275590551,
          "duration": 0.18437499999998863,
          "ticks": 71580,
          "durationTicks": 59
        },
        {
          "time": 234.642834,
          "midi": 67,
          "name": "G4",
          "velocity": 0.7637795275590551,
          "duration": 0.37187499999998863,
          "ticks": 71640,
          "durationTicks": 119
        },
        {
          "time": 235.205334,
          "midi": 69,
          "name": "A4",
          "velocity": 0.6377952755905512,
          "duration": 0.18437499999998863,
          "ticks": 71820,
          "durationTicks": 59
        },
        {
          "time": 235.392834,
          "midi": 67,
          "name": "G4",
          "velocity": 0.7244094488188977,
          "duration": 0.37187499999998863,
          "ticks": 71880,
          "durationTicks": 119
        },
        {
          "time": 235.955334,
          "midi": 66,
          "name": "F#4",
          "velocity": 0.7086614173228346,
          "duration": 0.18437499999998863,
          "ticks": 72060,
          "durationTicks": 59
        },
        {
          "time": 236.142834,
          "midi": 66,
          "name": "F#4",
          "velocity": 0.7637795275590551,
          "duration": 0.18437499999998863,
          "ticks": 72120,
          "durationTicks": 59
        },
        {
          "time": 236.330334,
          "midi": 66,
          "name": "F#4",
          "velocity": 0.7244094488188977,
          "duration": 0.18437499999998863,
          "ticks": 72180,
          "durationTicks": 59
        },
        {
          "time": 236.517834,
          "midi": 64,
          "name": "E4",
          "velocity": 0.7086614173228346,
          "duration": 0.18437499999998863,
          "ticks": 72240,
          "durationTicks": 59
        },
        {
          "time": 236.705334,
          "midi": 62,
          "name": "D4",
          "velocity": 0.8503937007874016,
          "duration": 0.18437499999998863,
          "ticks": 72300,
          "durationTicks": 59
        },
        {
          "time": 236.892834,
          "midi": 61,
          "name": "C#4",
          "velocity": 0.7637795275590551,
          "duration": 0.37187499999998863,
          "ticks": 72360,
          "durationTicks": 119
        },
        {
          "time": 237.455334,
          "midi": 69,
          "name": "A4",
          "velocity": 0.7637795275590551,
          "duration": 0.18437499999998863,
          "ticks": 72540,
          "durationTicks": 59
        },
        {
          "time": 237.642834,
          "midi": 69,
          "name": "A4",
          "velocity": 0.7637795275590551,
          "duration": 0.37187499999998863,
          "ticks": 72600,
          "durationTicks": 119
        },
        {
          "time": 238.205334,
          "midi": 69,
          "name": "A4",
          "velocity": 0.6377952755905512,
          "duration": 0.18437499999998863,
          "ticks": 72780,
          "durationTicks": 59
        },
        {
          "time": 238.392834,
          "midi": 69,
          "name": "A4",
          "velocity": 0.7637795275590551,
          "duration": 0.37187499999998863,
          "ticks": 72840,
          "durationTicks": 119
        },
        {
          "time": 238.955334,
          "midi": 69,
          "name": "A4",
          "velocity": 0.7637795275590551,
          "duration": 0.18437499999998863,
          "ticks": 73020,
          "durationTicks": 59
        },
        {
          "time": 239.142834,
          "midi": 69,
          "name": "A4",
          "velocity": 0.7637795275590551,
          "duration": 0.37187499999998863,
          "ticks": 73080,
          "durationTicks": 119
        },
        {
          "time": 239.705334,
          "midi": 69,
          "name": "A4",
          "velocity": 0.6377952755905512,
          "duration": 0.18437499999998863,
          "ticks": 73260,
          "durationTicks": 59
        },
        {
          "time": 239.892834,
          "midi": 69,
          "name": "A4",
          "velocity": 0.7637795275590551,
          "duration": 0.37187499999998863,
          "ticks": 73320,
          "durationTicks": 119
        },
        {
          "time": 240.455334,
          "midi": 69,
          "name": "A4",
          "velocity": 0.7637795275590551,
          "duration": 0.18437499999998863,
          "ticks": 73500,
          "durationTicks": 59
        },
        {
          "time": 240.642834,
          "midi": 69,
          "name": "A4",
          "velocity": 0.7637795275590551,
          "duration": 0.37187499999998863,
          "ticks": 73560,
          "durationTicks": 119
        },
        {
          "time": 241.205334,
          "midi": 67,
          "name": "G4",
          "velocity": 0.8031496062992126,
          "duration": 0.37187499999998863,
          "ticks": 73740,
          "durationTicks": 119
        },
        {
          "time": 241.580334,
          "midi": 66,
          "name": "F#4",
          "velocity": 0.6771653543307087,
          "duration": 0.18437499999998863,
          "ticks": 73860,
          "durationTicks": 59
        },
        {
          "time": 241.767834,
          "midi": 67,
          "name": "G4",
          "velocity": 0.8503937007874016,
          "duration": 0.18437499999998863,
          "ticks": 73920,
          "durationTicks": 59
        },
        {
          "time": 241.955334,
          "midi": 64,
          "name": "E4",
          "velocity": 0.6771653543307087,
          "duration": 0.18437499999998863,
          "ticks": 73980,
          "durationTicks": 59
        },
        {
          "time": 242.142834,
          "midi": 62,
          "name": "D4",
          "velocity": 0.7795275590551181,
          "duration": 0.18437499999998863,
          "ticks": 74040,
          "durationTicks": 59
        },
        {
          "time": 242.330334,
          "midi": 61,
          "name": "C#4",
          "velocity": 0.7401574803149606,
          "duration": 0.18437499999998863,
          "ticks": 74100,
          "durationTicks": 59
        },
        {
          "time": 242.517834,
          "midi": 64,
          "name": "E4",
          "velocity": 0.7795275590551181,
          "duration": 0.18437499999998863,
          "ticks": 74160,
          "durationTicks": 59
        },
        {
          "time": 242.705334,
          "midi": 62,
          "name": "D4",
          "velocity": 0.7795275590551181,
          "duration": 0.18437499999998863,
          "ticks": 74220,
          "durationTicks": 59
        },
        {
          "time": 242.892834,
          "midi": 74,
          "name": "D5",
          "velocity": 0.905511811023622,
          "duration": 0.37187499999998863,
          "ticks": 74280,
          "durationTicks": 119
        },
        {
          "time": 243.267834,
          "midi": 75,
          "name": "D#5",
          "velocity": 1,
          "duration": 0.37187499999998863,
          "ticks": 74400,
          "durationTicks": 119
        },
        {
          "time": 243.642834,
          "midi": 76,
          "name": "E5",
          "velocity": 0.8503937007874016,
          "duration": 0.37187499999998863,
          "ticks": 74520,
          "durationTicks": 119
        },
        {
          "time": 244.017834,
          "midi": 78,
          "name": "F#5",
          "velocity": 0.8818897637795275,
          "duration": 0.37187499999998863,
          "ticks": 74640,
          "durationTicks": 119
        },
        {
          "time": 244.392834,
          "midi": 78,
          "name": "F#5",
          "velocity": 0.7244094488188977,
          "duration": 0.37187499999998863,
          "ticks": 74760,
          "durationTicks": 119
        },
        {
          "time": 244.767834,
          "midi": 76,
          "name": "E5",
          "velocity": 0.905511811023622,
          "duration": 0.37187499999998863,
          "ticks": 74880,
          "durationTicks": 119
        },
        {
          "time": 245.142834,
          "midi": 69,
          "name": "A4",
          "velocity": 0.7637795275590551,
          "duration": 0.37187499999998863,
          "ticks": 75000,
          "durationTicks": 119
        },
        {
          "time": 245.517834,
          "midi": 71,
          "name": "B4",
          "velocity": 0.905511811023622,
          "duration": 0.18437499999998863,
          "ticks": 75120,
          "durationTicks": 59
        },
        {
          "time": 245.705334,
          "midi": 67,
          "name": "G4",
          "velocity": 1,
          "duration": 0.18437499999998863,
          "ticks": 75180,
          "durationTicks": 59
        },
        {
          "time": 245.892834,
          "midi": 66,
          "name": "F#4",
          "velocity": 0.937007874015748,
          "duration": 0.37187499999998863,
          "ticks": 75240,
          "durationTicks": 119
        },
        {
          "time": 246.455334,
          "midi": 66,
          "name": "F#4",
          "velocity": 0.8267716535433071,
          "duration": 0.18437499999998863,
          "ticks": 75420,
          "durationTicks": 59
        },
        {
          "time": 246.642834,
          "midi": 67,
          "name": "G4",
          "velocity": 0.8818897637795275,
          "duration": 0.18437499999998863,
          "ticks": 75480,
          "durationTicks": 59
        },
        {
          "time": 247.017834,
          "midi": 69,
          "name": "A4",
          "velocity": 0.6929133858267716,
          "duration": 0.18437499999998863,
          "ticks": 75600,
          "durationTicks": 59
        },
        {
          "time": 247.205334,
          "midi": 62,
          "name": "D4",
          "velocity": 0.7637795275590551,
          "duration": 0.18437499999998863,
          "ticks": 75660,
          "durationTicks": 59
        },
        {
          "time": 247.392834,
          "midi": 61,
          "name": "C#4",
          "velocity": 0.937007874015748,
          "duration": 0.37187499999998863,
          "ticks": 75720,
          "durationTicks": 119
        },
        {
          "time": 247.767834,
          "midi": 73,
          "name": "C#5",
          "velocity": 0.6929133858267716,
          "duration": 0.18437499999998863,
          "ticks": 75840,
          "durationTicks": 59
        },
        {
          "time": 247.955334,
          "midi": 74,
          "name": "D5",
          "velocity": 1,
          "duration": 0.18437499999998863,
          "ticks": 75900,
          "durationTicks": 59
        },
        {
          "time": 248.142834,
          "midi": 74,
          "name": "D5",
          "velocity": 0.905511811023622,
          "duration": 0.18437499999998863,
          "ticks": 75960,
          "durationTicks": 59
        },
        {
          "time": 248.330334,
          "midi": 62,
          "name": "D4",
          "velocity": 0.8503937007874016,
          "duration": 0.18437499999998863,
          "ticks": 76020,
          "durationTicks": 59
        },
        {
          "time": 248.330334,
          "midi": 74,
          "name": "D5",
          "velocity": 0.8818897637795275,
          "duration": 0.18437499999998863,
          "ticks": 76020,
          "durationTicks": 59
        },
        {
          "time": 248.517834,
          "midi": 64,
          "name": "E4",
          "velocity": 0.905511811023622,
          "duration": 0.18437499999998863,
          "ticks": 76080,
          "durationTicks": 59
        },
        {
          "time": 248.517834,
          "midi": 76,
          "name": "E5",
          "velocity": 0.905511811023622,
          "duration": 0.18437499999998863,
          "ticks": 76080,
          "durationTicks": 59
        },
        {
          "time": 248.705334,
          "midi": 66,
          "name": "F#4",
          "velocity": 0.905511811023622,
          "duration": 0.18437499999998863,
          "ticks": 76140,
          "durationTicks": 59
        },
        {
          "time": 248.705334,
          "midi": 78,
          "name": "F#5",
          "velocity": 0.937007874015748,
          "duration": 0.18437499999998863,
          "ticks": 76140,
          "durationTicks": 59
        },
        {
          "time": 248.892834,
          "midi": 79,
          "name": "G5",
          "velocity": 0.7637795275590551,
          "duration": 0.37187499999998863,
          "ticks": 76200,
          "durationTicks": 119
        },
        {
          "time": 248.892834,
          "midi": 67,
          "name": "G4",
          "velocity": 0.905511811023622,
          "duration": 0.37187499999998863,
          "ticks": 76200,
          "durationTicks": 119
        },
        {
          "time": 249.267834,
          "midi": 61,
          "name": "C#4",
          "velocity": 0.8503937007874016,
          "duration": 0.37187499999998863,
          "ticks": 76320,
          "durationTicks": 119
        },
        {
          "time": 249.267834,
          "midi": 73,
          "name": "C#5",
          "velocity": 0.937007874015748,
          "duration": 0.37187499999998863,
          "ticks": 76320,
          "durationTicks": 119
        },
        {
          "time": 249.642834,
          "midi": 62,
          "name": "D4",
          "velocity": 0.905511811023622,
          "duration": 0.37187499999998863,
          "ticks": 76440,
          "durationTicks": 119
        },
        {
          "time": 249.642834,
          "midi": 74,
          "name": "D5",
          "velocity": 0.905511811023622,
          "duration": 0.37187499999998863,
          "ticks": 76440,
          "durationTicks": 119
        },
        {
          "time": 250.017834,
          "midi": 76,
          "name": "E5",
          "velocity": 0.937007874015748,
          "duration": 0.18437499999998863,
          "ticks": 76560,
          "durationTicks": 59
        },
        {
          "time": 250.017834,
          "midi": 64,
          "name": "E4",
          "velocity": 0.8818897637795275,
          "duration": 0.18437499999998863,
          "ticks": 76560,
          "durationTicks": 59
        },
        {
          "time": 250.205334,
          "midi": 66,
          "name": "F#4",
          "velocity": 0.8818897637795275,
          "duration": 0.18437499999998863,
          "ticks": 76620,
          "durationTicks": 59
        },
        {
          "time": 250.205334,
          "midi": 78,
          "name": "F#5",
          "velocity": 0.905511811023622,
          "duration": 0.18437499999998863,
          "ticks": 76620,
          "durationTicks": 59
        },
        {
          "time": 250.392834,
          "midi": 67,
          "name": "G4",
          "velocity": 0.905511811023622,
          "duration": 0.37187499999998863,
          "ticks": 76680,
          "durationTicks": 119
        },
        {
          "time": 250.392834,
          "midi": 79,
          "name": "G5",
          "velocity": 1,
          "duration": 0.37187499999998863,
          "ticks": 76680,
          "durationTicks": 119
        },
        {
          "time": 250.767834,
          "midi": 73,
          "name": "C#5",
          "velocity": 0.937007874015748,
          "duration": 0.37187499999998863,
          "ticks": 76800,
          "durationTicks": 119
        },
        {
          "time": 250.767834,
          "midi": 61,
          "name": "C#4",
          "velocity": 0.8267716535433071,
          "duration": 0.37187499999998863,
          "ticks": 76800,
          "durationTicks": 119
        },
        {
          "time": 251.142834,
          "midi": 74,
          "name": "D5",
          "velocity": 0.8267716535433071,
          "duration": 0.37187499999998863,
          "ticks": 76920,
          "durationTicks": 119
        },
        {
          "time": 251.142834,
          "midi": 62,
          "name": "D4",
          "velocity": 0.8267716535433071,
          "duration": 0.37187499999998863,
          "ticks": 76920,
          "durationTicks": 119
        },
        {
          "time": 251.517834,
          "midi": 76,
          "name": "E5",
          "velocity": 0.937007874015748,
          "duration": 0.18437499999998863,
          "ticks": 77040,
          "durationTicks": 59
        },
        {
          "time": 251.517834,
          "midi": 64,
          "name": "E4",
          "velocity": 0.8267716535433071,
          "duration": 0.18437499999998863,
          "ticks": 77040,
          "durationTicks": 59
        },
        {
          "time": 251.705334,
          "midi": 78,
          "name": "F#5",
          "velocity": 0.9763779527559056,
          "duration": 0.18437499999998863,
          "ticks": 77100,
          "durationTicks": 59
        },
        {
          "time": 251.705334,
          "midi": 66,
          "name": "F#4",
          "velocity": 0.8818897637795275,
          "duration": 0.18437499999998863,
          "ticks": 77100,
          "durationTicks": 59
        },
        {
          "time": 251.892834,
          "midi": 67,
          "name": "G4",
          "velocity": 0.8818897637795275,
          "duration": 0.18437499999998863,
          "ticks": 77160,
          "durationTicks": 59
        },
        {
          "time": 251.892834,
          "midi": 79,
          "name": "G5",
          "velocity": 1,
          "duration": 0.18437499999998863,
          "ticks": 77160,
          "durationTicks": 59
        },
        {
          "time": 252.080334,
          "midi": 73,
          "name": "C#5",
          "velocity": 0.905511811023622,
          "duration": 0.18437499999998863,
          "ticks": 77220,
          "durationTicks": 59
        },
        {
          "time": 252.080334,
          "midi": 61,
          "name": "C#4",
          "velocity": 0.905511811023622,
          "duration": 0.18437499999998863,
          "ticks": 77220,
          "durationTicks": 59
        },
        {
          "time": 252.267834,
          "midi": 62,
          "name": "D4",
          "velocity": 0.8031496062992126,
          "duration": 0.18437499999998863,
          "ticks": 77280,
          "durationTicks": 59
        },
        {
          "time": 252.267834,
          "midi": 74,
          "name": "D5",
          "velocity": 0.8818897637795275,
          "duration": 0.18437499999998863,
          "ticks": 77280,
          "durationTicks": 59
        },
        {
          "time": 252.455334,
          "midi": 76,
          "name": "E5",
          "velocity": 0.8267716535433071,
          "duration": 0.18437499999998863,
          "ticks": 77340,
          "durationTicks": 59
        },
        {
          "time": 252.455334,
          "midi": 64,
          "name": "E4",
          "velocity": 0.8267716535433071,
          "duration": 0.18437499999998863,
          "ticks": 77340,
          "durationTicks": 59
        },
        {
          "time": 252.642834,
          "midi": 74,
          "name": "D5",
          "velocity": 0.937007874015748,
          "duration": 0.18437499999998863,
          "ticks": 77400,
          "durationTicks": 59
        },
        {
          "time": 252.642834,
          "midi": 62,
          "name": "D4",
          "velocity": 0.8267716535433071,
          "duration": 0.18437499999998863,
          "ticks": 77400,
          "durationTicks": 59
        },
        {
          "time": 252.830334,
          "midi": 64,
          "name": "E4",
          "velocity": 0.7795275590551181,
          "duration": 0.18437499999998863,
          "ticks": 77460,
          "durationTicks": 59
        },
        {
          "time": 252.830334,
          "midi": 76,
          "name": "E5",
          "velocity": 0.8818897637795275,
          "duration": 0.18437499999998863,
          "ticks": 77460,
          "durationTicks": 59
        },
        {
          "time": 253.017834,
          "midi": 66,
          "name": "F#4",
          "velocity": 0.8031496062992126,
          "duration": 0.18437499999998863,
          "ticks": 77520,
          "durationTicks": 59
        },
        {
          "time": 253.017834,
          "midi": 78,
          "name": "F#5",
          "velocity": 0.8818897637795275,
          "duration": 0.18437499999998863,
          "ticks": 77520,
          "durationTicks": 59
        },
        {
          "time": 253.205334,
          "midi": 67,
          "name": "G4",
          "velocity": 0.8818897637795275,
          "duration": 0.37187499999998863,
          "ticks": 77580,
          "durationTicks": 119
        },
        {
          "time": 253.205334,
          "midi": 79,
          "name": "G5",
          "velocity": 1,
          "duration": 0.37187499999998863,
          "ticks": 77580,
          "durationTicks": 119
        },
        {
          "time": 253.580334,
          "midi": 78,
          "name": "F#5",
          "velocity": 0.8818897637795275,
          "duration": 0.18437499999998863,
          "ticks": 77700,
          "durationTicks": 59
        },
        {
          "time": 253.580334,
          "midi": 66,
          "name": "F#4",
          "velocity": 0.8818897637795275,
          "duration": 0.18437499999998863,
          "ticks": 77700,
          "durationTicks": 59
        },
        {
          "time": 253.767834,
          "midi": 79,
          "name": "G5",
          "velocity": 1,
          "duration": 0.18437499999998863,
          "ticks": 77760,
          "durationTicks": 59
        },
        {
          "time": 253.767834,
          "midi": 67,
          "name": "G4",
          "velocity": 0.937007874015748,
          "duration": 0.18437499999998863,
          "ticks": 77760,
          "durationTicks": 59
        },
        {
          "time": 253.955334,
          "midi": 76,
          "name": "E5",
          "velocity": 0.8818897637795275,
          "duration": 0.18437499999998863,
          "ticks": 77820,
          "durationTicks": 59
        },
        {
          "time": 253.955334,
          "midi": 64,
          "name": "E4",
          "velocity": 0.8267716535433071,
          "duration": 0.18437499999998863,
          "ticks": 77820,
          "durationTicks": 59
        },
        {
          "time": 254.142834,
          "midi": 74,
          "name": "D5",
          "velocity": 0.8503937007874016,
          "duration": 0.18437499999998863,
          "ticks": 77880,
          "durationTicks": 59
        },
        {
          "time": 254.142834,
          "midi": 62,
          "name": "D4",
          "velocity": 0.8818897637795275,
          "duration": 0.18437499999998863,
          "ticks": 77880,
          "durationTicks": 59
        },
        {
          "time": 254.330334,
          "midi": 61,
          "name": "C#4",
          "velocity": 0.8031496062992126,
          "duration": 0.18437499999998863,
          "ticks": 77940,
          "durationTicks": 59
        },
        {
          "time": 254.330334,
          "midi": 73,
          "name": "C#5",
          "velocity": 0.8818897637795275,
          "duration": 0.18437499999998863,
          "ticks": 77940,
          "durationTicks": 59
        },
        {
          "time": 254.517834,
          "midi": 76,
          "name": "E5",
          "velocity": 0.8818897637795275,
          "duration": 0.18437499999998863,
          "ticks": 78000,
          "durationTicks": 59
        },
        {
          "time": 254.517834,
          "midi": 64,
          "name": "E4",
          "velocity": 0.905511811023622,
          "duration": 0.18437499999998863,
          "ticks": 78000,
          "durationTicks": 59
        },
        {
          "time": 254.705334,
          "midi": 74,
          "name": "D5",
          "velocity": 0.8818897637795275,
          "duration": 0.18437499999998863,
          "ticks": 78060,
          "durationTicks": 59
        },
        {
          "time": 254.705334,
          "midi": 62,
          "name": "D4",
          "velocity": 0.8818897637795275,
          "duration": 0.18437499999998863,
          "ticks": 78060,
          "durationTicks": 59
        },
        {
          "time": 254.892834,
          "midi": 74,
          "name": "D5",
          "velocity": 0.9763779527559056,
          "duration": 0.37187499999998863,
          "ticks": 78120,
          "durationTicks": 119
        },
        {
          "time": 254.892834,
          "midi": 62,
          "name": "D4",
          "velocity": 1,
          "duration": 0.37187499999998863,
          "ticks": 78120,
          "durationTicks": 119
        },
        {
          "time": 255.267834,
          "midi": 63,
          "name": "D#4",
          "velocity": 0.9763779527559056,
          "duration": 0.37187499999998863,
          "ticks": 78240,
          "durationTicks": 119
        },
        {
          "time": 255.267834,
          "midi": 75,
          "name": "D#5",
          "velocity": 0.9763779527559056,
          "duration": 0.37187499999998863,
          "ticks": 78240,
          "durationTicks": 119
        },
        {
          "time": 255.642834,
          "midi": 76,
          "name": "E5",
          "velocity": 0.9763779527559056,
          "duration": 0.37187499999998863,
          "ticks": 78360,
          "durationTicks": 119
        },
        {
          "time": 255.642834,
          "midi": 64,
          "name": "E4",
          "velocity": 0.905511811023622,
          "duration": 0.37187499999998863,
          "ticks": 78360,
          "durationTicks": 119
        },
        {
          "time": 256.017834,
          "midi": 78,
          "name": "F#5",
          "velocity": 0.9763779527559056,
          "duration": 0.37187499999998863,
          "ticks": 78480,
          "durationTicks": 119
        },
        {
          "time": 256.017834,
          "midi": 66,
          "name": "F#4",
          "velocity": 0.905511811023622,
          "duration": 0.37187499999998863,
          "ticks": 78480,
          "durationTicks": 119
        },
        {
          "time": 256.392834,
          "midi": 66,
          "name": "F#4",
          "velocity": 0.7401574803149606,
          "duration": 0.37187499999998863,
          "ticks": 78600,
          "durationTicks": 119
        },
        {
          "time": 256.392834,
          "midi": 78,
          "name": "F#5",
          "velocity": 0.8503937007874016,
          "duration": 0.37187499999998863,
          "ticks": 78600,
          "durationTicks": 119
        },
        {
          "time": 256.767834,
          "midi": 76,
          "name": "E5",
          "velocity": 0.8267716535433071,
          "duration": 0.37187499999998863,
          "ticks": 78720,
          "durationTicks": 119
        },
        {
          "time": 256.767834,
          "midi": 64,
          "name": "E4",
          "velocity": 0.8818897637795275,
          "duration": 0.37187499999998863,
          "ticks": 78720,
          "durationTicks": 119
        },
        {
          "time": 257.142834,
          "midi": 81,
          "name": "A5",
          "velocity": 0.937007874015748,
          "duration": 0.18437499999998863,
          "ticks": 78840,
          "durationTicks": 59
        },
        {
          "time": 257.142834,
          "midi": 69,
          "name": "A4",
          "velocity": 0.7637795275590551,
          "duration": 0.18437499999998863,
          "ticks": 78840,
          "durationTicks": 59
        },
        {
          "time": 257.330334,
          "midi": 69,
          "name": "A4",
          "velocity": 0.905511811023622,
          "duration": 0.18437499999998863,
          "ticks": 78900,
          "durationTicks": 59
        },
        {
          "time": 257.330334,
          "midi": 57,
          "name": "A3",
          "velocity": 0.8818897637795275,
          "duration": 0.18437499999998863,
          "ticks": 78900,
          "durationTicks": 59
        },
        {
          "time": 257.517834,
          "midi": 71,
          "name": "B4",
          "velocity": 0.905511811023622,
          "duration": 0.18437499999998863,
          "ticks": 78960,
          "durationTicks": 59
        },
        {
          "time": 257.517834,
          "midi": 59,
          "name": "B3",
          "velocity": 0.937007874015748,
          "duration": 0.18437499999998863,
          "ticks": 78960,
          "durationTicks": 59
        },
        {
          "time": 257.705334,
          "midi": 67,
          "name": "G4",
          "velocity": 0.905511811023622,
          "duration": 0.18437499999998863,
          "ticks": 79020,
          "durationTicks": 59
        },
        {
          "time": 257.705334,
          "midi": 55,
          "name": "G3",
          "velocity": 0.937007874015748,
          "duration": 0.18437499999998863,
          "ticks": 79020,
          "durationTicks": 59
        },
        {
          "time": 257.892834,
          "midi": 66,
          "name": "F#4",
          "velocity": 0.7795275590551181,
          "duration": 0.18437499999998863,
          "ticks": 79080,
          "durationTicks": 59
        },
        {
          "time": 257.892834,
          "midi": 54,
          "name": "F#3",
          "velocity": 0.905511811023622,
          "duration": 0.18437499999998863,
          "ticks": 79080,
          "durationTicks": 59
        },
        {
          "time": 258.080334,
          "midi": 69,
          "name": "A4",
          "velocity": 0.7795275590551181,
          "duration": 0.18437499999998863,
          "ticks": 79140,
          "durationTicks": 59
        },
        {
          "time": 258.080334,
          "midi": 81,
          "name": "A5",
          "velocity": 0.8503937007874016,
          "duration": 0.18437499999998863,
          "ticks": 79140,
          "durationTicks": 59
        },
        {
          "time": 258.267834,
          "midi": 71,
          "name": "B4",
          "velocity": 0.7795275590551181,
          "duration": 0.18437499999998863,
          "ticks": 79200,
          "durationTicks": 59
        },
        {
          "time": 258.267834,
          "midi": 83,
          "name": "B5",
          "velocity": 0.937007874015748,
          "duration": 0.18437499999998863,
          "ticks": 79200,
          "durationTicks": 59
        },
        {
          "time": 258.455334,
          "midi": 81,
          "name": "A5",
          "velocity": 0.937007874015748,
          "duration": 0.18437499999998863,
          "ticks": 79260,
          "durationTicks": 59
        },
        {
          "time": 258.455334,
          "midi": 69,
          "name": "A4",
          "velocity": 0.8503937007874016,
          "duration": 0.18437499999998863,
          "ticks": 79260,
          "durationTicks": 59
        },
        {
          "time": 258.642834,
          "midi": 67,
          "name": "G4",
          "velocity": 0.905511811023622,
          "duration": 0.18437499999998863,
          "ticks": 79320,
          "durationTicks": 59
        },
        {
          "time": 258.642834,
          "midi": 79,
          "name": "G5",
          "velocity": 0.8818897637795275,
          "duration": 0.18437499999998863,
          "ticks": 79320,
          "durationTicks": 59
        },
        {
          "time": 258.830334,
          "midi": 78,
          "name": "F#5",
          "velocity": 0.8503937007874016,
          "duration": 0.18437499999998863,
          "ticks": 79380,
          "durationTicks": 59
        },
        {
          "time": 258.830334,
          "midi": 66,
          "name": "F#4",
          "velocity": 0.8031496062992126,
          "duration": 0.18437499999998863,
          "ticks": 79380,
          "durationTicks": 59
        },
        {
          "time": 259.017834,
          "midi": 64,
          "name": "E4",
          "velocity": 0.8503937007874016,
          "duration": 0.18437499999998863,
          "ticks": 79440,
          "durationTicks": 59
        },
        {
          "time": 259.017834,
          "midi": 76,
          "name": "E5",
          "velocity": 0.937007874015748,
          "duration": 0.18437499999998863,
          "ticks": 79440,
          "durationTicks": 59
        },
        {
          "time": 259.205334,
          "midi": 74,
          "name": "D5",
          "velocity": 0.937007874015748,
          "duration": 0.18437499999998863,
          "ticks": 79500,
          "durationTicks": 59
        },
        {
          "time": 259.205334,
          "midi": 62,
          "name": "D4",
          "velocity": 0.937007874015748,
          "duration": 0.18437499999998863,
          "ticks": 79500,
          "durationTicks": 59
        },
        {
          "time": 259.392834,
          "midi": 67,
          "name": "G4",
          "velocity": 0.8267716535433071,
          "duration": 0.37187499999998863,
          "ticks": 79560,
          "durationTicks": 119
        },
        {
          "time": 259.392834,
          "midi": 79,
          "name": "G5",
          "velocity": 0.9763779527559056,
          "duration": 0.37187499999998863,
          "ticks": 79560,
          "durationTicks": 119
        },
        {
          "time": 259.767834,
          "midi": 61,
          "name": "C#4",
          "velocity": 0.7244094488188977,
          "duration": 0.18437499999998863,
          "ticks": 79680,
          "durationTicks": 59
        },
        {
          "time": 259.767834,
          "midi": 67,
          "name": "G4",
          "velocity": 1,
          "duration": 0.18437499999998863,
          "ticks": 79680,
          "durationTicks": 59
        },
        {
          "time": 259.955334,
          "midi": 66,
          "name": "F#4",
          "velocity": 0.937007874015748,
          "duration": 0.18437499999998863,
          "ticks": 79740,
          "durationTicks": 59
        },
        {
          "time": 259.955334,
          "midi": 62,
          "name": "D4",
          "velocity": 0.905511811023622,
          "duration": 0.18437499999998863,
          "ticks": 79740,
          "durationTicks": 59
        },
        {
          "time": 260.142834,
          "midi": 66,
          "name": "F#4",
          "velocity": 1,
          "duration": 0.37187499999998863,
          "ticks": 79800,
          "durationTicks": 119
        },
        {
          "time": 260.142834,
          "midi": 62,
          "name": "D4",
          "velocity": 0.9763779527559056,
          "duration": 0.37187499999998863,
          "ticks": 79800,
          "durationTicks": 119
        },
        {
          "time": 260.705334,
          "midi": 66,
          "name": "F#4",
          "velocity": 0.9763779527559056,
          "duration": 0.18437499999998863,
          "ticks": 79980,
          "durationTicks": 59
        },
        {
          "time": 260.705334,
          "midi": 62,
          "name": "D4",
          "velocity": 0.9763779527559056,
          "duration": 0.18437499999998863,
          "ticks": 79980,
          "durationTicks": 59
        },
        {
          "time": 260.892834,
          "midi": 64,
          "name": "E4",
          "velocity": 0.7637795275590551,
          "duration": 0.37187499999998863,
          "ticks": 80040,
          "durationTicks": 119
        },
        {
          "time": 260.892834,
          "midi": 73,
          "name": "C#5",
          "velocity": 0.9763779527559056,
          "duration": 0.37187499999998863,
          "ticks": 80040,
          "durationTicks": 119
        },
        {
          "time": 261.455334,
          "midi": 66,
          "name": "F#4",
          "velocity": 0.7637795275590551,
          "duration": 0.18437499999998863,
          "ticks": 80220,
          "durationTicks": 59
        },
        {
          "time": 261.455334,
          "midi": 74,
          "name": "D5",
          "velocity": 1,
          "duration": 0.18437499999998863,
          "ticks": 80220,
          "durationTicks": 59
        },
        {
          "time": 261.642834,
          "midi": 66,
          "name": "F#4",
          "velocity": 0.905511811023622,
          "duration": 0.37187499999998863,
          "ticks": 80280,
          "durationTicks": 119
        },
        {
          "time": 261.642834,
          "midi": 74,
          "name": "D5",
          "velocity": 1,
          "duration": 0.37187499999998863,
          "ticks": 80280,
          "durationTicks": 119
        },
        {
          "time": 262.205334,
          "midi": 62,
          "name": "D4",
          "velocity": 0.9763779527559056,
          "duration": 0.18437499999998863,
          "ticks": 80460,
          "durationTicks": 59
        },
        {
          "time": 262.205334,
          "midi": 66,
          "name": "F#4",
          "velocity": 1,
          "duration": 0.18437499999998863,
          "ticks": 80460,
          "durationTicks": 59
        },
        {
          "time": 262.392834,
          "midi": 66,
          "name": "F#4",
          "velocity": 0.9763779527559056,
          "duration": 0.37187499999998863,
          "ticks": 80520,
          "durationTicks": 119
        },
        {
          "time": 262.392834,
          "midi": 62,
          "name": "D4",
          "velocity": 0.7637795275590551,
          "duration": 0.37187499999998863,
          "ticks": 80520,
          "durationTicks": 119
        },
        {
          "time": 262.955334,
          "midi": 67,
          "name": "G4",
          "velocity": 1,
          "duration": 0.18437499999998863,
          "ticks": 80700,
          "durationTicks": 59
        },
        {
          "time": 262.955334,
          "midi": 62,
          "name": "D4",
          "velocity": 0.7637795275590551,
          "duration": 0.18437499999998863,
          "ticks": 80700,
          "durationTicks": 59
        },
        {
          "time": 263.142834,
          "midi": 67,
          "name": "G4",
          "velocity": 1,
          "duration": 0.37187499999998863,
          "ticks": 80760,
          "durationTicks": 119
        },
        {
          "time": 263.142834,
          "midi": 62,
          "name": "D4",
          "velocity": 0.905511811023622,
          "duration": 0.37187499999998863,
          "ticks": 80760,
          "durationTicks": 119
        },
        {
          "time": 263.705334,
          "midi": 64,
          "name": "E4",
          "velocity": 0.9763779527559056,
          "duration": 0.18437499999998863,
          "ticks": 80940,
          "durationTicks": 59
        },
        {
          "time": 263.705334,
          "midi": 67,
          "name": "G4",
          "velocity": 1,
          "duration": 0.18437499999998863,
          "ticks": 80940,
          "durationTicks": 59
        },
        {
          "time": 263.892834,
          "midi": 67,
          "name": "G4",
          "velocity": 0.9763779527559056,
          "duration": 0.37187499999998863,
          "ticks": 81000,
          "durationTicks": 119
        },
        {
          "time": 263.892834,
          "midi": 64,
          "name": "E4",
          "velocity": 0.7637795275590551,
          "duration": 0.37187499999998863,
          "ticks": 81000,
          "durationTicks": 119
        },
        {
          "time": 264.455334,
          "midi": 67,
          "name": "G4",
          "velocity": 1,
          "duration": 0.18437499999998863,
          "ticks": 81180,
          "durationTicks": 59
        },
        {
          "time": 264.455334,
          "midi": 64,
          "name": "E4",
          "velocity": 0.7637795275590551,
          "duration": 0.18437499999998863,
          "ticks": 81180,
          "durationTicks": 59
        },
        {
          "time": 264.642834,
          "midi": 67,
          "name": "G4",
          "velocity": 1,
          "duration": 0.37187499999998863,
          "ticks": 81240,
          "durationTicks": 119
        },
        {
          "time": 264.642834,
          "midi": 64,
          "name": "E4",
          "velocity": 0.905511811023622,
          "duration": 0.37187499999998863,
          "ticks": 81240,
          "durationTicks": 119
        },
        {
          "time": 265.205334,
          "midi": 64,
          "name": "E4",
          "velocity": 0.9763779527559056,
          "duration": 0.18437499999998863,
          "ticks": 81420,
          "durationTicks": 59
        },
        {
          "time": 265.205334,
          "midi": 67,
          "name": "G4",
          "velocity": 1,
          "duration": 0.18437499999998863,
          "ticks": 81420,
          "durationTicks": 59
        },
        {
          "time": 265.392834,
          "midi": 66,
          "name": "F#4",
          "velocity": 1,
          "duration": 0.37187499999998863,
          "ticks": 81480,
          "durationTicks": 119
        },
        {
          "time": 265.392834,
          "midi": 62,
          "name": "D4",
          "velocity": 1,
          "duration": 0.37187499999998863,
          "ticks": 81480,
          "durationTicks": 119
        },
        {
          "time": 265.955334,
          "midi": 81,
          "name": "A5",
          "velocity": 1,
          "duration": 0.18437499999998863,
          "ticks": 81660,
          "durationTicks": 59
        },
        {
          "time": 265.955334,
          "midi": 69,
          "name": "A4",
          "velocity": 0.905511811023622,
          "duration": 0.18437499999998863,
          "ticks": 81660,
          "durationTicks": 59
        },
        {
          "time": 266.142834,
          "midi": 62,
          "name": "D4",
          "velocity": 0.937007874015748,
          "duration": 0.37187499999998863,
          "ticks": 81720,
          "durationTicks": 119
        },
        {
          "time": 266.142834,
          "midi": 74,
          "name": "D5",
          "velocity": 1,
          "duration": 0.37187499999998863,
          "ticks": 81720,
          "durationTicks": 119
        },
        {
          "time": 290.892834,
          "midi": 73,
          "name": "C#5",
          "velocity": 0.8503937007874016,
          "duration": 0.37187499999998863,
          "ticks": 89640,
          "durationTicks": 119
        },
        {
          "time": 290.892834,
          "midi": 76,
          "name": "E5",
          "velocity": 0.9763779527559056,
          "duration": 0.37187499999998863,
          "ticks": 89640,
          "durationTicks": 119
        },
        {
          "time": 291.267834,
          "midi": 73,
          "name": "C#5",
          "velocity": 0.8818897637795275,
          "duration": 0.37187499999998863,
          "ticks": 89760,
          "durationTicks": 119
        },
        {
          "time": 291.267834,
          "midi": 76,
          "name": "E5",
          "velocity": 1,
          "duration": 0.37187499999998863,
          "ticks": 89760,
          "durationTicks": 119
        },
        {
          "time": 291.642834,
          "midi": 78,
          "name": "F#5",
          "velocity": 0.889763779527559,
          "duration": 0.37187499999998863,
          "ticks": 89880,
          "durationTicks": 119
        },
        {
          "time": 291.642834,
          "midi": 74,
          "name": "D5",
          "velocity": 0.889763779527559,
          "duration": 0.37187499999998863,
          "ticks": 89880,
          "durationTicks": 119
        },
        {
          "time": 292.017834,
          "midi": 66,
          "name": "F#4",
          "velocity": 0.905511811023622,
          "duration": 0.37187499999998863,
          "ticks": 90000,
          "durationTicks": 119
        },
        {
          "time": 292.017834,
          "midi": 74,
          "name": "D5",
          "velocity": 0.905511811023622,
          "duration": 0.37187499999998863,
          "ticks": 90000,
          "durationTicks": 119
        },
        {
          "time": 292.392834,
          "midi": 73,
          "name": "C#5",
          "velocity": 0.9133858267716536,
          "duration": 0.37187499999998863,
          "ticks": 90120,
          "durationTicks": 119
        },
        {
          "time": 292.392834,
          "midi": 76,
          "name": "E5",
          "velocity": 0.9133858267716536,
          "duration": 0.37187499999998863,
          "ticks": 90120,
          "durationTicks": 119
        },
        {
          "time": 292.767834,
          "midi": 78,
          "name": "F#5",
          "velocity": 0.905511811023622,
          "duration": 0.18437499999998863,
          "ticks": 90240,
          "durationTicks": 59
        },
        {
          "time": 292.767834,
          "midi": 74,
          "name": "D5",
          "velocity": 0.905511811023622,
          "duration": 0.18437499999998863,
          "ticks": 90240,
          "durationTicks": 59
        },
        {
          "time": 292.955334,
          "midi": 76,
          "name": "E5",
          "velocity": 0.905511811023622,
          "duration": 0.18437499999998863,
          "ticks": 90300,
          "durationTicks": 59
        },
        {
          "time": 292.955334,
          "midi": 79,
          "name": "G5",
          "velocity": 0.905511811023622,
          "duration": 0.18437499999998863,
          "ticks": 90300,
          "durationTicks": 59
        },
        {
          "time": 293.142834,
          "midi": 78,
          "name": "F#5",
          "velocity": 0.8976377952755905,
          "duration": 0.18437499999998863,
          "ticks": 90360,
          "durationTicks": 59
        },
        {
          "time": 293.142834,
          "midi": 74,
          "name": "D5",
          "velocity": 0.8976377952755905,
          "duration": 0.18437499999998863,
          "ticks": 90360,
          "durationTicks": 59
        },
        {
          "time": 293.330334,
          "midi": 66,
          "name": "F#4",
          "velocity": 0.8976377952755905,
          "duration": 0.18437499999998863,
          "ticks": 90420,
          "durationTicks": 59
        },
        {
          "time": 293.330334,
          "midi": 69,
          "name": "A4",
          "velocity": 0.8976377952755905,
          "duration": 0.18437499999998863,
          "ticks": 90420,
          "durationTicks": 59
        },
        {
          "time": 293.517834,
          "midi": 64,
          "name": "E4",
          "velocity": 0.8976377952755905,
          "duration": 0.18437499999998863,
          "ticks": 90480,
          "durationTicks": 59
        },
        {
          "time": 293.517834,
          "midi": 67,
          "name": "G4",
          "velocity": 0.8976377952755905,
          "duration": 0.18437499999998863,
          "ticks": 90480,
          "durationTicks": 59
        },
        {
          "time": 293.705334,
          "midi": 66,
          "name": "F#4",
          "velocity": 0.8976377952755905,
          "duration": 0.18437499999998863,
          "ticks": 90540,
          "durationTicks": 59
        },
        {
          "time": 293.705334,
          "midi": 62,
          "name": "D4",
          "velocity": 0.8976377952755905,
          "duration": 0.18437499999998863,
          "ticks": 90540,
          "durationTicks": 59
        },
        {
          "time": 293.892834,
          "midi": 61,
          "name": "C#4",
          "velocity": 0.8976377952755905,
          "duration": 0.18437499999998863,
          "ticks": 90600,
          "durationTicks": 59
        },
        {
          "time": 293.892834,
          "midi": 64,
          "name": "E4",
          "velocity": 0.8976377952755905,
          "duration": 0.18437499999998863,
          "ticks": 90600,
          "durationTicks": 59
        },
        {
          "time": 294.080334,
          "midi": 73,
          "name": "C#5",
          "velocity": 0.8976377952755905,
          "duration": 0.18437499999998863,
          "ticks": 90660,
          "durationTicks": 59
        },
        {
          "time": 294.080334,
          "midi": 76,
          "name": "E5",
          "velocity": 0.8976377952755905,
          "duration": 0.18437499999998863,
          "ticks": 90660,
          "durationTicks": 59
        },
        {
          "time": 294.267834,
          "midi": 78,
          "name": "F#5",
          "velocity": 0.8976377952755905,
          "duration": 0.18437499999998863,
          "ticks": 90720,
          "durationTicks": 59
        },
        {
          "time": 294.267834,
          "midi": 74,
          "name": "D5",
          "velocity": 0.8976377952755905,
          "duration": 0.18437499999998863,
          "ticks": 90720,
          "durationTicks": 59
        },
        {
          "time": 294.455334,
          "midi": 76,
          "name": "E5",
          "velocity": 0.905511811023622,
          "duration": 0.18437499999998863,
          "ticks": 90780,
          "durationTicks": 59
        },
        {
          "time": 294.455334,
          "midi": 79,
          "name": "G5",
          "velocity": 0.905511811023622,
          "duration": 0.18437499999998863,
          "ticks": 90780,
          "durationTicks": 59
        },
        {
          "time": 294.642834,
          "midi": 73,
          "name": "C#5",
          "velocity": 0.9133858267716536,
          "duration": 0.37187499999998863,
          "ticks": 90840,
          "durationTicks": 119
        },
        {
          "time": 294.642834,
          "midi": 78,
          "name": "F#5",
          "velocity": 0.9133858267716536,
          "duration": 0.37187499999998863,
          "ticks": 90840,
          "durationTicks": 119
        },
        {
          "time": 295.017834,
          "midi": 76,
          "name": "E5",
          "velocity": 0.9133858267716536,
          "duration": 0.37187499999998863,
          "ticks": 90960,
          "durationTicks": 119
        },
        {
          "time": 295.017834,
          "midi": 73,
          "name": "C#5",
          "velocity": 0.9133858267716536,
          "duration": 0.37187499999998863,
          "ticks": 90960,
          "durationTicks": 119
        },
        {
          "time": 295.392834,
          "midi": 74,
          "name": "D5",
          "velocity": 0.9133858267716536,
          "duration": 0.37187499999998863,
          "ticks": 91080,
          "durationTicks": 119
        },
        {
          "time": 295.392834,
          "midi": 71,
          "name": "B4",
          "velocity": 0.9133858267716536,
          "duration": 0.37187499999998863,
          "ticks": 91080,
          "durationTicks": 119
        },
        {
          "time": 295.767834,
          "midi": 68,
          "name": "G#4",
          "velocity": 0.9133858267716536,
          "duration": 0.37187499999998863,
          "ticks": 91200,
          "durationTicks": 119
        },
        {
          "time": 295.767834,
          "midi": 76,
          "name": "E5",
          "velocity": 0.9133858267716536,
          "duration": 0.37187499999998863,
          "ticks": 91200,
          "durationTicks": 119
        },
        {
          "time": 296.142834,
          "midi": 69,
          "name": "A4",
          "velocity": 0.937007874015748,
          "duration": 0.37187499999998863,
          "ticks": 91320,
          "durationTicks": 119
        },
        {
          "time": 296.142834,
          "midi": 69,
          "name": "A4",
          "velocity": 0.937007874015748,
          "duration": 0.37187499999998863,
          "ticks": 91320,
          "durationTicks": 119
        },
        {
          "time": 296.517834,
          "midi": 74,
          "name": "D5",
          "velocity": 0.952755905511811,
          "duration": 0.7468749999999886,
          "ticks": 91440,
          "durationTicks": 239
        },
        {
          "time": 296.517834,
          "midi": 78,
          "name": "F#5",
          "velocity": 0.952755905511811,
          "duration": 0.7468749999999886,
          "ticks": 91440,
          "durationTicks": 239
        },
        {
          "time": 297.267834,
          "midi": 74,
          "name": "D5",
          "velocity": 0.984251968503937,
          "duration": 0.37187499999998863,
          "ticks": 91680,
          "durationTicks": 119
        },
        {
          "time": 297.267834,
          "midi": 78,
          "name": "F#5",
          "velocity": 0.984251968503937,
          "duration": 0.37187499999998863,
          "ticks": 91680,
          "durationTicks": 119
        },
        {
          "time": 297.642834,
          "midi": 79,
          "name": "G5",
          "velocity": 1,
          "duration": 0.37187499999998863,
          "ticks": 91800,
          "durationTicks": 119
        },
        {
          "time": 297.642834,
          "midi": 76,
          "name": "E5",
          "velocity": 1,
          "duration": 0.37187499999998863,
          "ticks": 91800,
          "durationTicks": 119
        },
        {
          "time": 298.017834,
          "midi": 78,
          "name": "F#5",
          "velocity": 1,
          "duration": 0.37187499999998863,
          "ticks": 91920,
          "durationTicks": 119
        },
        {
          "time": 298.017834,
          "midi": 81,
          "name": "A5",
          "velocity": 1,
          "duration": 0.37187499999998863,
          "ticks": 91920,
          "durationTicks": 119
        },
        {
          "time": 298.392834,
          "midi": 78,
          "name": "F#5",
          "velocity": 1,
          "duration": 0.37187499999998863,
          "ticks": 92040,
          "durationTicks": 119
        },
        {
          "time": 298.392834,
          "midi": 81,
          "name": "A5",
          "velocity": 1,
          "duration": 0.37187499999998863,
          "ticks": 92040,
          "durationTicks": 119
        },
        {
          "time": 298.767834,
          "midi": 79,
          "name": "G5",
          "velocity": 0.968503937007874,
          "duration": 0.37187499999998863,
          "ticks": 92160,
          "durationTicks": 119
        },
        {
          "time": 298.767834,
          "midi": 76,
          "name": "E5",
          "velocity": 0.968503937007874,
          "duration": 0.37187499999998863,
          "ticks": 92160,
          "durationTicks": 119
        },
        {
          "time": 299.142834,
          "midi": 74,
          "name": "D5",
          "velocity": 0.8976377952755905,
          "duration": 0.37187499999998863,
          "ticks": 92280,
          "durationTicks": 119
        },
        {
          "time": 299.142834,
          "midi": 78,
          "name": "F#5",
          "velocity": 0.8976377952755905,
          "duration": 0.37187499999998863,
          "ticks": 92280,
          "durationTicks": 119
        },
        {
          "time": 299.517834,
          "midi": 73,
          "name": "C#5",
          "velocity": 0.8346456692913385,
          "duration": 0.37187499999998863,
          "ticks": 92400,
          "durationTicks": 119
        },
        {
          "time": 299.517834,
          "midi": 76,
          "name": "E5",
          "velocity": 0.8346456692913385,
          "duration": 0.37187499999998863,
          "ticks": 92400,
          "durationTicks": 119
        },
        {
          "time": 299.892834,
          "midi": 69,
          "name": "A4",
          "velocity": 0.7637795275590551,
          "duration": 0.37187499999998863,
          "ticks": 92520,
          "durationTicks": 119
        },
        {
          "time": 299.892834,
          "midi": 74,
          "name": "D5",
          "velocity": 0.7637795275590551,
          "duration": 0.37187499999998863,
          "ticks": 92520,
          "durationTicks": 119
        },
        {
          "time": 300.267834,
          "midi": 69,
          "name": "A4",
          "velocity": 0.7244094488188977,
          "duration": 0.37187499999998863,
          "ticks": 92640,
          "durationTicks": 119
        },
        {
          "time": 300.267834,
          "midi": 74,
          "name": "D5",
          "velocity": 0.7244094488188977,
          "duration": 0.37187499999998863,
          "ticks": 92640,
          "durationTicks": 119
        },
        {
          "time": 300.642834,
          "midi": 76,
          "name": "E5",
          "velocity": 0.6771653543307087,
          "duration": 0.37187499999998863,
          "ticks": 92760,
          "durationTicks": 119
        },
        {
          "time": 300.642834,
          "midi": 67,
          "name": "G4",
          "velocity": 0.6771653543307087,
          "duration": 0.18437499999998863,
          "ticks": 92760,
          "durationTicks": 59
        },
        {
          "time": 300.830334,
          "midi": 73,
          "name": "C#5",
          "velocity": 0.6692913385826772,
          "duration": 0.18437499999998863,
          "ticks": 92820,
          "durationTicks": 59
        },
        {
          "time": 301.017834,
          "midi": 74,
          "name": "D5",
          "velocity": 0.6535433070866141,
          "duration": 0.37187499999998863,
          "ticks": 92880,
          "durationTicks": 119
        },
        {
          "time": 301.017834,
          "midi": 78,
          "name": "F#5",
          "velocity": 0.6535433070866141,
          "duration": 0.37187499999998863,
          "ticks": 92880,
          "durationTicks": 119
        },
        {
          "time": 301.392834,
          "midi": 73,
          "name": "C#5",
          "velocity": 0.6299212598425197,
          "duration": 0.18437499999998863,
          "ticks": 93000,
          "durationTicks": 59
        },
        {
          "time": 301.392834,
          "midi": 76,
          "name": "E5",
          "velocity": 0.6299212598425197,
          "duration": 0.18437499999998863,
          "ticks": 93000,
          "durationTicks": 59
        },
        {
          "time": 301.580334,
          "midi": 64,
          "name": "E4",
          "velocity": 0.6299212598425197,
          "duration": 0.18437499999998863,
          "ticks": 93060,
          "durationTicks": 59
        },
        {
          "time": 301.580334,
          "midi": 67,
          "name": "G4",
          "velocity": 0.6299212598425197,
          "duration": 0.18437499999998863,
          "ticks": 93060,
          "durationTicks": 59
        },
        {
          "time": 301.767834,
          "midi": 73,
          "name": "C#5",
          "velocity": 0.6220472440944882,
          "duration": 0.18437499999998863,
          "ticks": 93120,
          "durationTicks": 59
        },
        {
          "time": 301.767834,
          "midi": 61,
          "name": "C#4",
          "velocity": 0.6220472440944882,
          "duration": 0.18437499999998863,
          "ticks": 93120,
          "durationTicks": 59
        },
        {
          "time": 301.955334,
          "midi": 74,
          "name": "D5",
          "velocity": 0.6220472440944882,
          "duration": 0.18437499999998863,
          "ticks": 93180,
          "durationTicks": 59
        },
        {
          "time": 301.955334,
          "midi": 62,
          "name": "D4",
          "velocity": 0.6220472440944882,
          "duration": 0.18437499999998863,
          "ticks": 93180,
          "durationTicks": 59
        },
        {
          "time": 302.142834,
          "midi": 62,
          "name": "D4",
          "velocity": 0.6220472440944882,
          "duration": 0.37187499999998863,
          "ticks": 93240,
          "durationTicks": 119
        },
        {
          "time": 302.142834,
          "midi": 74,
          "name": "D5",
          "velocity": 0.6220472440944882,
          "duration": 0.37187499999998863,
          "ticks": 93240,
          "durationTicks": 119
        },
        {
          "time": 302.517834,
          "midi": 66,
          "name": "F#4",
          "velocity": 0.6220472440944882,
          "duration": 0.37187499999998863,
          "ticks": 93360,
          "durationTicks": 119
        },
        {
          "time": 302.517834,
          "midi": 69,
          "name": "A4",
          "velocity": 0.6220472440944882,
          "duration": 0.37187499999998863,
          "ticks": 93360,
          "durationTicks": 119
        },
        {
          "time": 302.892834,
          "midi": 64,
          "name": "E4",
          "velocity": 0.6141732283464567,
          "duration": 0.5593749999999886,
          "ticks": 93480,
          "durationTicks": 179
        },
        {
          "time": 302.892834,
          "midi": 67,
          "name": "G4",
          "velocity": 0.6141732283464567,
          "duration": 0.5593749999999886,
          "ticks": 93480,
          "durationTicks": 179
        },
        {
          "time": 303.455334,
          "midi": 62,
          "name": "D4",
          "velocity": 0.6062992125984252,
          "duration": 0.18437499999998863,
          "ticks": 93660,
          "durationTicks": 59
        },
        {
          "time": 303.455334,
          "midi": 66,
          "name": "F#4",
          "velocity": 0.6062992125984252,
          "duration": 0.18437499999998863,
          "ticks": 93660,
          "durationTicks": 59
        },
        {
          "time": 303.642834,
          "midi": 62,
          "name": "D4",
          "velocity": 0.6062992125984252,
          "duration": 0.37187499999998863,
          "ticks": 93720,
          "durationTicks": 119
        },
        {
          "time": 303.642834,
          "midi": 66,
          "name": "F#4",
          "velocity": 0.6062992125984252,
          "duration": 0.37187499999998863,
          "ticks": 93720,
          "durationTicks": 119
        },
        {
          "time": 304.017834,
          "midi": 71,
          "name": "B4",
          "velocity": 0.6062992125984252,
          "duration": 0.37187499999998863,
          "ticks": 93840,
          "durationTicks": 119
        },
        {
          "time": 304.017834,
          "midi": 74,
          "name": "D5",
          "velocity": 0.6062992125984252,
          "duration": 0.37187499999998863,
          "ticks": 93840,
          "durationTicks": 119
        },
        {
          "time": 304.392834,
          "midi": 69,
          "name": "A4",
          "velocity": 0.8267716535433071,
          "duration": 0.5593749999999886,
          "ticks": 93960,
          "durationTicks": 179
        },
        {
          "time": 304.392834,
          "midi": 72,
          "name": "C5",
          "velocity": 0.8267716535433071,
          "duration": 0.5593749999999886,
          "ticks": 93960,
          "durationTicks": 179
        },
        {
          "time": 304.955334,
          "midi": 67,
          "name": "G4",
          "velocity": 0.7795275590551181,
          "duration": 0.18437499999998863,
          "ticks": 94140,
          "durationTicks": 59
        },
        {
          "time": 304.955334,
          "midi": 71,
          "name": "B4",
          "velocity": 0.8031496062992126,
          "duration": 0.18437499999998863,
          "ticks": 94140,
          "durationTicks": 59
        },
        {
          "time": 305.142834,
          "midi": 67,
          "name": "G4",
          "velocity": 0.7244094488188977,
          "duration": 0.37187499999998863,
          "ticks": 94200,
          "durationTicks": 119
        },
        {
          "time": 305.142834,
          "midi": 71,
          "name": "B4",
          "velocity": 0.7244094488188977,
          "duration": 0.37187499999998863,
          "ticks": 94200,
          "durationTicks": 119
        },
        {
          "time": 305.517834,
          "midi": 79,
          "name": "G5",
          "velocity": 0.6614173228346457,
          "duration": 0.18437499999998863,
          "ticks": 94320,
          "durationTicks": 59
        },
        {
          "time": 305.517834,
          "midi": 71,
          "name": "B4",
          "velocity": 0.6771653543307087,
          "duration": 0.18437499999998863,
          "ticks": 94320,
          "durationTicks": 59
        },
        {
          "time": 305.705334,
          "midi": 67,
          "name": "G4",
          "velocity": 0.6535433070866141,
          "duration": 0.18437499999998863,
          "ticks": 94380,
          "durationTicks": 59
        },
        {
          "time": 305.705334,
          "midi": 76,
          "name": "E5",
          "velocity": 0.6535433070866141,
          "duration": 0.18437499999998863,
          "ticks": 94380,
          "durationTicks": 59
        },
        {
          "time": 305.892834,
          "midi": 66,
          "name": "F#4",
          "velocity": 0.8031496062992126,
          "duration": 0.18437499999998863,
          "ticks": 94440,
          "durationTicks": 59
        },
        {
          "time": 305.892834,
          "midi": 74,
          "name": "D5",
          "velocity": 0.6929133858267716,
          "duration": 0.18437499999998863,
          "ticks": 94440,
          "durationTicks": 59
        },
        {
          "time": 306.080334,
          "midi": 64,
          "name": "E4",
          "velocity": 0.6771653543307087,
          "duration": 0.18437499999998863,
          "ticks": 94500,
          "durationTicks": 59
        },
        {
          "time": 306.080334,
          "midi": 73,
          "name": "C#5",
          "velocity": 0.8267716535433071,
          "duration": 0.18437499999998863,
          "ticks": 94500,
          "durationTicks": 59
        },
        {
          "time": 306.267834,
          "midi": 76,
          "name": "E5",
          "velocity": 0.7637795275590551,
          "duration": 0.18437499999998863,
          "ticks": 94560,
          "durationTicks": 59
        },
        {
          "time": 306.267834,
          "midi": 67,
          "name": "G4",
          "velocity": 0.7637795275590551,
          "duration": 0.18437499999998863,
          "ticks": 94560,
          "durationTicks": 59
        },
        {
          "time": 306.455334,
          "midi": 64,
          "name": "E4",
          "velocity": 0.5433070866141733,
          "duration": 0.18437499999998863,
          "ticks": 94620,
          "durationTicks": 59
        },
        {
          "time": 306.455334,
          "midi": 73,
          "name": "C#5",
          "velocity": 0.7795275590551181,
          "duration": 0.18437499999998863,
          "ticks": 94620,
          "durationTicks": 59
        },
        {
          "time": 306.642834,
          "midi": 62,
          "name": "D4",
          "velocity": 0.6771653543307087,
          "duration": 0.18437499999998863,
          "ticks": 94680,
          "durationTicks": 59
        },
        {
          "time": 306.642834,
          "midi": 71,
          "name": "B4",
          "velocity": 0.6771653543307087,
          "duration": 0.18437499999998863,
          "ticks": 94680,
          "durationTicks": 59
        },
        {
          "time": 306.830334,
          "midi": 69,
          "name": "A4",
          "velocity": 0.7244094488188977,
          "duration": 0.18437499999998863,
          "ticks": 94740,
          "durationTicks": 59
        },
        {
          "time": 306.830334,
          "midi": 61,
          "name": "C#4",
          "velocity": 0.7244094488188977,
          "duration": 0.18437499999998863,
          "ticks": 94740,
          "durationTicks": 59
        },
        {
          "time": 307.017834,
          "midi": 62,
          "name": "D4",
          "velocity": 0.6771653543307087,
          "duration": 0.18437499999998863,
          "ticks": 94800,
          "durationTicks": 59
        },
        {
          "time": 307.017834,
          "midi": 71,
          "name": "B4",
          "velocity": 0.6929133858267716,
          "duration": 0.18437499999998863,
          "ticks": 94800,
          "durationTicks": 59
        },
        {
          "time": 307.205334,
          "midi": 64,
          "name": "E4",
          "velocity": 0.6535433070866141,
          "duration": 0.18437499999998863,
          "ticks": 94860,
          "durationTicks": 59
        },
        {
          "time": 307.205334,
          "midi": 73,
          "name": "C#5",
          "velocity": 0.5905511811023622,
          "duration": 0.18437499999998863,
          "ticks": 94860,
          "durationTicks": 59
        },
        {
          "time": 307.392834,
          "midi": 74,
          "name": "D5",
          "velocity": 0.8031496062992126,
          "duration": 0.18437499999998863,
          "ticks": 94920,
          "durationTicks": 59
        },
        {
          "time": 307.392834,
          "midi": 66,
          "name": "F#4",
          "velocity": 0.7637795275590551,
          "duration": 0.18437499999998863,
          "ticks": 94920,
          "durationTicks": 59
        },
        {
          "time": 307.580334,
          "midi": 69,
          "name": "A4",
          "velocity": 0.7795275590551181,
          "duration": 0.18437499999998863,
          "ticks": 94980,
          "durationTicks": 59
        },
        {
          "time": 307.580334,
          "midi": 78,
          "name": "F#5",
          "velocity": 0.7244094488188977,
          "duration": 0.18437499999998863,
          "ticks": 94980,
          "durationTicks": 59
        },
        {
          "time": 307.767834,
          "midi": 76,
          "name": "E5",
          "velocity": 0.905511811023622,
          "duration": 0.18437499999998863,
          "ticks": 95040,
          "durationTicks": 59
        },
        {
          "time": 307.767834,
          "midi": 67,
          "name": "G4",
          "velocity": 0.7244094488188977,
          "duration": 0.18437499999998863,
          "ticks": 95040,
          "durationTicks": 59
        },
        {
          "time": 307.955334,
          "midi": 73,
          "name": "C#5",
          "velocity": 0.905511811023622,
          "duration": 0.18437499999998863,
          "ticks": 95100,
          "durationTicks": 59
        },
        {
          "time": 307.955334,
          "midi": 64,
          "name": "E4",
          "velocity": 0.7244094488188977,
          "duration": 0.18437499999998863,
          "ticks": 95100,
          "durationTicks": 59
        },
        {
          "time": 308.142834,
          "midi": 74,
          "name": "D5",
          "velocity": 0.8818897637795275,
          "duration": 0.18437499999998863,
          "ticks": 95160,
          "durationTicks": 59
        },
        {
          "time": 308.142834,
          "midi": 66,
          "name": "F#4",
          "velocity": 0.8031496062992126,
          "duration": 0.18437499999998863,
          "ticks": 95160,
          "durationTicks": 59
        },
        {
          "time": 308.330334,
          "midi": 66,
          "name": "F#4",
          "velocity": 0.5669291338582677,
          "duration": 0.18437499999998863,
          "ticks": 95220,
          "durationTicks": 59
        },
        {
          "time": 308.517834,
          "midi": 67,
          "name": "G4",
          "velocity": 0.7244094488188977,
          "duration": 0.18437499999998863,
          "ticks": 95280,
          "durationTicks": 59
        },
        {
          "time": 308.705334,
          "midi": 64,
          "name": "E4",
          "velocity": 0.6535433070866141,
          "duration": 0.18437499999998863,
          "ticks": 95340,
          "durationTicks": 59
        },
        {
          "time": 308.892834,
          "midi": 66,
          "name": "F#4",
          "velocity": 0.7401574803149606,
          "duration": 0.18437499999998863,
          "ticks": 95400,
          "durationTicks": 59
        },
        {
          "time": 309.080334,
          "midi": 67,
          "name": "G4",
          "velocity": 0.7086614173228346,
          "duration": 0.18437499999998863,
          "ticks": 95460,
          "durationTicks": 59
        },
        {
          "time": 309.267834,
          "midi": 64,
          "name": "E4",
          "velocity": 0.7637795275590551,
          "duration": 0.18437499999998863,
          "ticks": 95520,
          "durationTicks": 59
        },
        {
          "time": 309.455334,
          "midi": 66,
          "name": "F#4",
          "velocity": 0.7637795275590551,
          "duration": 0.18437499999998863,
          "ticks": 95580,
          "durationTicks": 59
        },
        {
          "time": 309.642834,
          "midi": 67,
          "name": "G4",
          "velocity": 0.6929133858267716,
          "duration": 0.18437499999998863,
          "ticks": 95640,
          "durationTicks": 59
        },
        {
          "time": 309.830334,
          "midi": 69,
          "name": "A4",
          "velocity": 0.6141732283464567,
          "duration": 0.18437499999998863,
          "ticks": 95700,
          "durationTicks": 59
        },
        {
          "time": 310.017834,
          "midi": 71,
          "name": "B4",
          "velocity": 0.6614173228346457,
          "duration": 0.18437499999998863,
          "ticks": 95760,
          "durationTicks": 59
        },
        {
          "time": 310.205334,
          "midi": 69,
          "name": "A4",
          "velocity": 0.7086614173228346,
          "duration": 0.18437499999998863,
          "ticks": 95820,
          "durationTicks": 59
        },
        {
          "time": 310.392834,
          "midi": 69,
          "name": "A4",
          "velocity": 0.5905511811023622,
          "duration": 0.18437499999998863,
          "ticks": 95880,
          "durationTicks": 59
        },
        {
          "time": 310.580334,
          "midi": 67,
          "name": "G4",
          "velocity": 0.8031496062992126,
          "duration": 0.18437499999998863,
          "ticks": 95940,
          "durationTicks": 59
        },
        {
          "time": 310.767834,
          "midi": 71,
          "name": "B4",
          "velocity": 0.6220472440944882,
          "duration": 0.18437499999998863,
          "ticks": 96000,
          "durationTicks": 59
        },
        {
          "time": 310.955334,
          "midi": 67,
          "name": "G4",
          "velocity": 0.6929133858267716,
          "duration": 0.18437499999998863,
          "ticks": 96060,
          "durationTicks": 59
        },
        {
          "time": 311.142834,
          "midi": 66,
          "name": "F#4",
          "velocity": 0.5905511811023622,
          "duration": 0.18437499999998863,
          "ticks": 96120,
          "durationTicks": 59
        },
        {
          "time": 311.330334,
          "midi": 64,
          "name": "E4",
          "velocity": 0.5039370078740157,
          "duration": 0.18437499999998863,
          "ticks": 96180,
          "durationTicks": 59
        },
        {
          "time": 311.517834,
          "midi": 67,
          "name": "G4",
          "velocity": 0.7244094488188977,
          "duration": 0.18437499999998863,
          "ticks": 96240,
          "durationTicks": 59
        },
        {
          "time": 311.705334,
          "midi": 64,
          "name": "E4",
          "velocity": 0.6771653543307087,
          "duration": 0.18437499999998863,
          "ticks": 96300,
          "durationTicks": 59
        },
        {
          "time": 311.892834,
          "midi": 62,
          "name": "D4",
          "velocity": 1,
          "duration": 0.37187499999998863,
          "ticks": 96360,
          "durationTicks": 119
        },
        {
          "time": 324.267834,
          "midi": 71,
          "name": "B4",
          "velocity": 1,
          "duration": 0.18437499999998863,
          "ticks": 100320,
          "durationTicks": 59
        },
        {
          "time": 324.455334,
          "midi": 73,
          "name": "C#5",
          "velocity": 1,
          "duration": 0.18437499999998863,
          "ticks": 100380,
          "durationTicks": 59
        },
        {
          "time": 325.017834,
          "midi": 74,
          "name": "D5",
          "velocity": 0.905511811023622,
          "duration": 0.18437499999998863,
          "ticks": 100560,
          "durationTicks": 59
        },
        {
          "time": 325.205334,
          "midi": 73,
          "name": "C#5",
          "velocity": 1,
          "duration": 0.18437499999998863,
          "ticks": 100620,
          "durationTicks": 59
        },
        {
          "time": 325.767834,
          "midi": 71,
          "name": "B4",
          "velocity": 1,
          "duration": 0.37187499999998863,
          "ticks": 100800,
          "durationTicks": 119
        },
        {
          "time": 326.517834,
          "midi": 69,
          "name": "A4",
          "velocity": 1,
          "duration": 0.18437499999998863,
          "ticks": 101040,
          "durationTicks": 59
        },
        {
          "time": 326.705334,
          "midi": 66,
          "name": "F#4",
          "velocity": 1,
          "duration": 0.18437499999998863,
          "ticks": 101100,
          "durationTicks": 59
        },
        {
          "time": 326.892834,
          "midi": 66,
          "name": "F#4",
          "velocity": 0.937007874015748,
          "duration": 0.37187499999998863,
          "ticks": 101160,
          "durationTicks": 119
        },
        {
          "time": 327.267834,
          "midi": 67,
          "name": "G4",
          "velocity": 0.937007874015748,
          "duration": 0.18437499999998863,
          "ticks": 101280,
          "durationTicks": 59
        },
        {
          "time": 327.455334,
          "midi": 66,
          "name": "F#4",
          "velocity": 0.9763779527559056,
          "duration": 0.18437499999998863,
          "ticks": 101340,
          "durationTicks": 59
        },
        {
          "time": 328.017834,
          "midi": 71,
          "name": "B4",
          "velocity": 0.905511811023622,
          "duration": 0.18437499999998863,
          "ticks": 101520,
          "durationTicks": 59
        },
        {
          "time": 328.205334,
          "midi": 69,
          "name": "A4",
          "velocity": 0.905511811023622,
          "duration": 0.18437499999998863,
          "ticks": 101580,
          "durationTicks": 59
        },
        {
          "time": 328.767834,
          "midi": 71,
          "name": "B4",
          "velocity": 0.8818897637795275,
          "duration": 0.18437499999998863,
          "ticks": 101760,
          "durationTicks": 59
        },
        {
          "time": 328.955334,
          "midi": 67,
          "name": "G4",
          "velocity": 1,
          "duration": 0.18437499999998863,
          "ticks": 101820,
          "durationTicks": 59
        },
        {
          "time": 329.517834,
          "midi": 67,
          "name": "G4",
          "velocity": 0.937007874015748,
          "duration": 0.18437499999998863,
          "ticks": 102000,
          "durationTicks": 59
        },
        {
          "time": 329.705334,
          "midi": 64,
          "name": "E4",
          "velocity": 0.905511811023622,
          "duration": 0.18437499999998863,
          "ticks": 102060,
          "durationTicks": 59
        },
        {
          "time": 330.267834,
          "midi": 67,
          "name": "G4",
          "velocity": 1,
          "duration": 0.18437499999998863,
          "ticks": 102240,
          "durationTicks": 59
        },
        {
          "time": 330.455334,
          "midi": 69,
          "name": "A4",
          "velocity": 1,
          "duration": 0.18437499999998863,
          "ticks": 102300,
          "durationTicks": 59
        },
        {
          "time": 332.517834,
          "midi": 76,
          "name": "E5",
          "velocity": 1,
          "duration": 0.18437499999998863,
          "ticks": 102960,
          "durationTicks": 59
        },
        {
          "time": 332.517834,
          "midi": 79,
          "name": "G5",
          "velocity": 1,
          "duration": 0.18437499999998863,
          "ticks": 102960,
          "durationTicks": 59
        },
        {
          "time": 332.705334,
          "midi": 74,
          "name": "D5",
          "velocity": 1,
          "duration": 0.18437499999998863,
          "ticks": 103020,
          "durationTicks": 59
        },
        {
          "time": 332.705334,
          "midi": 78,
          "name": "F#5",
          "velocity": 1,
          "duration": 0.18437499999998863,
          "ticks": 103020,
          "durationTicks": 59
        },
        {
          "time": 332.892834,
          "midi": 74,
          "name": "D5",
          "velocity": 1,
          "duration": 0.18437499999998863,
          "ticks": 103080,
          "durationTicks": 59
        },
        {
          "time": 332.892834,
          "midi": 78,
          "name": "F#5",
          "velocity": 1,
          "duration": 0.18437499999998863,
          "ticks": 103080,
          "durationTicks": 59
        },
        {
          "time": 333.080334,
          "midi": 73,
          "name": "C#5",
          "velocity": 0.905511811023622,
          "duration": 0.18437499999998863,
          "ticks": 103140,
          "durationTicks": 59
        },
        {
          "time": 333.080334,
          "midi": 76,
          "name": "E5",
          "velocity": 1,
          "duration": 0.18437499999998863,
          "ticks": 103140,
          "durationTicks": 59
        },
        {
          "time": 333.267834,
          "midi": 71,
          "name": "B4",
          "velocity": 0.905511811023622,
          "duration": 0.18437499999998863,
          "ticks": 103200,
          "durationTicks": 59
        },
        {
          "time": 333.267834,
          "midi": 74,
          "name": "D5",
          "velocity": 1,
          "duration": 0.18437499999998863,
          "ticks": 103200,
          "durationTicks": 59
        },
        {
          "time": 333.455334,
          "midi": 73,
          "name": "C#5",
          "velocity": 0.937007874015748,
          "duration": 0.18437499999998863,
          "ticks": 103260,
          "durationTicks": 59
        },
        {
          "time": 333.455334,
          "midi": 76,
          "name": "E5",
          "velocity": 1,
          "duration": 0.18437499999998863,
          "ticks": 103260,
          "durationTicks": 59
        },
        {
          "time": 333.642834,
          "midi": 76,
          "name": "E5",
          "velocity": 0.937007874015748,
          "duration": 0.18437499999998863,
          "ticks": 103320,
          "durationTicks": 59
        },
        {
          "time": 333.642834,
          "midi": 79,
          "name": "G5",
          "velocity": 1,
          "duration": 0.18437499999998863,
          "ticks": 103320,
          "durationTicks": 59
        },
        {
          "time": 333.830334,
          "midi": 74,
          "name": "D5",
          "velocity": 0.937007874015748,
          "duration": 0.18437499999998863,
          "ticks": 103380,
          "durationTicks": 59
        },
        {
          "time": 333.830334,
          "midi": 78,
          "name": "F#5",
          "velocity": 1,
          "duration": 0.18437499999998863,
          "ticks": 103380,
          "durationTicks": 59
        },
        {
          "time": 334.017834,
          "midi": 76,
          "name": "E5",
          "velocity": 1,
          "duration": 0.18437499999998863,
          "ticks": 103440,
          "durationTicks": 59
        },
        {
          "time": 334.017834,
          "midi": 67,
          "name": "G4",
          "velocity": 1,
          "duration": 0.18437499999998863,
          "ticks": 103440,
          "durationTicks": 59
        },
        {
          "time": 334.205334,
          "midi": 66,
          "name": "F#4",
          "velocity": 0.8818897637795275,
          "duration": 0.18437499999998863,
          "ticks": 103500,
          "durationTicks": 59
        },
        {
          "time": 334.205334,
          "midi": 74,
          "name": "D5",
          "velocity": 1,
          "duration": 0.18437499999998863,
          "ticks": 103500,
          "durationTicks": 59
        },
        {
          "time": 334.392834,
          "midi": 74,
          "name": "D5",
          "velocity": 1,
          "duration": 0.18437499999998863,
          "ticks": 103560,
          "durationTicks": 59
        },
        {
          "time": 334.392834,
          "midi": 78,
          "name": "F#5",
          "velocity": 1,
          "duration": 0.18437499999998863,
          "ticks": 103560,
          "durationTicks": 59
        },
        {
          "time": 334.580334,
          "midi": 73,
          "name": "C#5",
          "velocity": 0.937007874015748,
          "duration": 0.18437499999998863,
          "ticks": 103620,
          "durationTicks": 59
        },
        {
          "time": 334.580334,
          "midi": 76,
          "name": "E5",
          "velocity": 1,
          "duration": 0.18437499999998863,
          "ticks": 103620,
          "durationTicks": 59
        },
        {
          "time": 334.767834,
          "midi": 71,
          "name": "B4",
          "velocity": 0.937007874015748,
          "duration": 0.18437499999998863,
          "ticks": 103680,
          "durationTicks": 59
        },
        {
          "time": 334.767834,
          "midi": 74,
          "name": "D5",
          "velocity": 1,
          "duration": 0.18437499999998863,
          "ticks": 103680,
          "durationTicks": 59
        },
        {
          "time": 334.955334,
          "midi": 73,
          "name": "C#5",
          "velocity": 0.9763779527559056,
          "duration": 0.18437499999998863,
          "ticks": 103740,
          "durationTicks": 59
        },
        {
          "time": 334.955334,
          "midi": 76,
          "name": "E5",
          "velocity": 1,
          "duration": 0.18437499999998863,
          "ticks": 103740,
          "durationTicks": 59
        },
        {
          "time": 335.142834,
          "midi": 76,
          "name": "E5",
          "velocity": 0.937007874015748,
          "duration": 0.18437499999998863,
          "ticks": 103800,
          "durationTicks": 59
        },
        {
          "time": 335.142834,
          "midi": 79,
          "name": "G5",
          "velocity": 1,
          "duration": 0.18437499999998863,
          "ticks": 103800,
          "durationTicks": 59
        },
        {
          "time": 335.330334,
          "midi": 74,
          "name": "D5",
          "velocity": 1,
          "duration": 0.18437499999998863,
          "ticks": 103860,
          "durationTicks": 59
        },
        {
          "time": 335.330334,
          "midi": 78,
          "name": "F#5",
          "velocity": 1,
          "duration": 0.18437499999998863,
          "ticks": 103860,
          "durationTicks": 59
        },
        {
          "time": 335.517834,
          "midi": 67,
          "name": "G4",
          "velocity": 1,
          "duration": 0.18437499999998863,
          "ticks": 103920,
          "durationTicks": 59
        },
        {
          "time": 335.517834,
          "midi": 76,
          "name": "E5",
          "velocity": 0.937007874015748,
          "duration": 0.18437499999998863,
          "ticks": 103920,
          "durationTicks": 59
        },
        {
          "time": 335.705334,
          "midi": 74,
          "name": "D5",
          "velocity": 1,
          "duration": 0.18437499999998863,
          "ticks": 103980,
          "durationTicks": 59
        },
        {
          "time": 335.705334,
          "midi": 66,
          "name": "F#4",
          "velocity": 0.937007874015748,
          "duration": 0.18437499999998863,
          "ticks": 103980,
          "durationTicks": 59
        },
        {
          "time": 335.892834,
          "midi": 74,
          "name": "D5",
          "velocity": 1,
          "duration": 0.18437499999998863,
          "ticks": 104040,
          "durationTicks": 59
        },
        {
          "time": 335.892834,
          "midi": 78,
          "name": "F#5",
          "velocity": 1,
          "duration": 0.18437499999998863,
          "ticks": 104040,
          "durationTicks": 59
        },
        {
          "time": 336.080334,
          "midi": 73,
          "name": "C#5",
          "velocity": 0.9763779527559056,
          "duration": 0.18437499999998863,
          "ticks": 104100,
          "durationTicks": 59
        },
        {
          "time": 336.080334,
          "midi": 76,
          "name": "E5",
          "velocity": 1,
          "duration": 0.18437499999998863,
          "ticks": 104100,
          "durationTicks": 59
        },
        {
          "time": 336.267834,
          "midi": 71,
          "name": "B4",
          "velocity": 0.9763779527559056,
          "duration": 0.18437499999998863,
          "ticks": 104160,
          "durationTicks": 59
        },
        {
          "time": 336.267834,
          "midi": 74,
          "name": "D5",
          "velocity": 1,
          "duration": 0.18437499999998863,
          "ticks": 104160,
          "durationTicks": 59
        },
        {
          "time": 336.455334,
          "midi": 73,
          "name": "C#5",
          "velocity": 0.937007874015748,
          "duration": 0.18437499999998863,
          "ticks": 104220,
          "durationTicks": 59
        },
        {
          "time": 336.455334,
          "midi": 76,
          "name": "E5",
          "velocity": 1,
          "duration": 0.18437499999998863,
          "ticks": 104220,
          "durationTicks": 59
        },
        {
          "time": 336.642834,
          "midi": 76,
          "name": "E5",
          "velocity": 0.9763779527559056,
          "duration": 0.18437499999998863,
          "ticks": 104280,
          "durationTicks": 59
        },
        {
          "time": 336.642834,
          "midi": 79,
          "name": "G5",
          "velocity": 1,
          "duration": 0.18437499999998863,
          "ticks": 104280,
          "durationTicks": 59
        },
        {
          "time": 336.830334,
          "midi": 74,
          "name": "D5",
          "velocity": 1,
          "duration": 0.18437499999998863,
          "ticks": 104340,
          "durationTicks": 59
        },
        {
          "time": 336.830334,
          "midi": 78,
          "name": "F#5",
          "velocity": 1,
          "duration": 0.18437499999998863,
          "ticks": 104340,
          "durationTicks": 59
        },
        {
          "time": 337.017834,
          "midi": 74,
          "name": "D5",
          "velocity": 1,
          "duration": 0.18437499999998863,
          "ticks": 104400,
          "durationTicks": 59
        },
        {
          "time": 337.017834,
          "midi": 78,
          "name": "F#5",
          "velocity": 1,
          "duration": 0.18437499999998863,
          "ticks": 104400,
          "durationTicks": 59
        },
        {
          "time": 337.205334,
          "midi": 73,
          "name": "C#5",
          "velocity": 1,
          "duration": 0.18437499999998863,
          "ticks": 104460,
          "durationTicks": 59
        },
        {
          "time": 337.205334,
          "midi": 76,
          "name": "E5",
          "velocity": 1,
          "duration": 0.18437499999998863,
          "ticks": 104460,
          "durationTicks": 59
        },
        {
          "time": 337.392834,
          "midi": 73,
          "name": "C#5",
          "velocity": 1,
          "duration": 0.18437499999998863,
          "ticks": 104520,
          "durationTicks": 59
        },
        {
          "time": 337.392834,
          "midi": 76,
          "name": "E5",
          "velocity": 1,
          "duration": 0.18437499999998863,
          "ticks": 104520,
          "durationTicks": 59
        },
        {
          "time": 337.580334,
          "midi": 71,
          "name": "B4",
          "velocity": 1,
          "duration": 0.18437499999998863,
          "ticks": 104580,
          "durationTicks": 59
        },
        {
          "time": 337.580334,
          "midi": 74,
          "name": "D5",
          "velocity": 1,
          "duration": 0.18437499999998863,
          "ticks": 104580,
          "durationTicks": 59
        },
        {
          "time": 337.767834,
          "midi": 71,
          "name": "B4",
          "velocity": 1,
          "duration": 0.18437499999998863,
          "ticks": 104640,
          "durationTicks": 59
        },
        {
          "time": 337.767834,
          "midi": 74,
          "name": "D5",
          "velocity": 1,
          "duration": 0.18437499999998863,
          "ticks": 104640,
          "durationTicks": 59
        },
        {
          "time": 337.955334,
          "midi": 68,
          "name": "G#4",
          "velocity": 0.9763779527559056,
          "duration": 0.18437499999998863,
          "ticks": 104700,
          "durationTicks": 59
        },
        {
          "time": 337.955334,
          "midi": 76,
          "name": "E5",
          "velocity": 1,
          "duration": 0.18437499999998863,
          "ticks": 104700,
          "durationTicks": 59
        },
        {
          "time": 338.142834,
          "midi": 69,
          "name": "A4",
          "velocity": 1,
          "duration": 0.18437499999998863,
          "ticks": 104760,
          "durationTicks": 59
        },
        {
          "time": 338.142834,
          "midi": 69,
          "name": "A4",
          "velocity": 1,
          "duration": 0.18437499999998863,
          "ticks": 104760,
          "durationTicks": 59
        },
        {
          "time": 338.330334,
          "midi": 73,
          "name": "C#5",
          "velocity": 1,
          "duration": 0.18437499999998863,
          "ticks": 104820,
          "durationTicks": 59
        },
        {
          "time": 338.330334,
          "midi": 76,
          "name": "E5",
          "velocity": 1,
          "duration": 0.18437499999998863,
          "ticks": 104820,
          "durationTicks": 59
        },
        {
          "time": 338.517834,
          "midi": 74,
          "name": "D5",
          "velocity": 1,
          "duration": 0.5593749999999886,
          "ticks": 104880,
          "durationTicks": 179
        },
        {
          "time": 338.517834,
          "midi": 78,
          "name": "F#5",
          "velocity": 1,
          "duration": 0.5593749999999886,
          "ticks": 104880,
          "durationTicks": 179
        },
        {
          "time": 339.080334,
          "midi": 76,
          "name": "E5",
          "velocity": 0.937007874015748,
          "duration": 0.18437499999998863,
          "ticks": 105060,
          "durationTicks": 59
        },
        {
          "time": 339.080334,
          "midi": 79,
          "name": "G5",
          "velocity": 1,
          "duration": 0.18437499999998863,
          "ticks": 105060,
          "durationTicks": 59
        },
        {
          "time": 339.267834,
          "midi": 73,
          "name": "C#5",
          "velocity": 0.8503937007874016,
          "duration": 0.18437499999998863,
          "ticks": 105120,
          "durationTicks": 59
        },
        {
          "time": 339.267834,
          "midi": 76,
          "name": "E5",
          "velocity": 1,
          "duration": 0.18437499999998863,
          "ticks": 105120,
          "durationTicks": 59
        },
        {
          "time": 339.455334,
          "midi": 74,
          "name": "D5",
          "velocity": 0.8818897637795275,
          "duration": 0.18437499999998863,
          "ticks": 105180,
          "durationTicks": 59
        },
        {
          "time": 339.455334,
          "midi": 78,
          "name": "F#5",
          "velocity": 1,
          "duration": 0.18437499999998863,
          "ticks": 105180,
          "durationTicks": 59
        },
        {
          "time": 339.642834,
          "midi": 76,
          "name": "E5",
          "velocity": 0.937007874015748,
          "duration": 0.18437499999998863,
          "ticks": 105240,
          "durationTicks": 59
        },
        {
          "time": 339.642834,
          "midi": 79,
          "name": "G5",
          "velocity": 1,
          "duration": 0.18437499999998863,
          "ticks": 105240,
          "durationTicks": 59
        },
        {
          "time": 339.830334,
          "midi": 78,
          "name": "F#5",
          "velocity": 1,
          "duration": 0.18437499999998863,
          "ticks": 105300,
          "durationTicks": 59
        },
        {
          "time": 339.830334,
          "midi": 81,
          "name": "A5",
          "velocity": 1,
          "duration": 0.18437499999998863,
          "ticks": 105300,
          "durationTicks": 59
        },
        {
          "time": 340.017834,
          "midi": 79,
          "name": "G5",
          "velocity": 1,
          "duration": 0.18437499999998863,
          "ticks": 105360,
          "durationTicks": 59
        },
        {
          "time": 340.017834,
          "midi": 83,
          "name": "B5",
          "velocity": 1,
          "duration": 0.18437499999998863,
          "ticks": 105360,
          "durationTicks": 59
        },
        {
          "time": 340.205334,
          "midi": 78,
          "name": "F#5",
          "velocity": 1,
          "duration": 0.18437499999998863,
          "ticks": 105420,
          "durationTicks": 59
        },
        {
          "time": 340.205334,
          "midi": 81,
          "name": "A5",
          "velocity": 1,
          "duration": 0.18437499999998863,
          "ticks": 105420,
          "durationTicks": 59
        },
        {
          "time": 340.392834,
          "midi": 72,
          "name": "C5",
          "velocity": 0.8818897637795275,
          "duration": 0.18437499999998863,
          "ticks": 105480,
          "durationTicks": 59
        },
        {
          "time": 340.392834,
          "midi": 81,
          "name": "A5",
          "velocity": 0.8503937007874016,
          "duration": 0.18437499999998863,
          "ticks": 105480,
          "durationTicks": 59
        },
        {
          "time": 340.580334,
          "midi": 71,
          "name": "B4",
          "velocity": 0.905511811023622,
          "duration": 0.18437499999998863,
          "ticks": 105540,
          "durationTicks": 59
        },
        {
          "time": 340.580334,
          "midi": 79,
          "name": "G5",
          "velocity": 1,
          "duration": 0.18437499999998863,
          "ticks": 105540,
          "durationTicks": 59
        },
        {
          "time": 340.767834,
          "midi": 74,
          "name": "D5",
          "velocity": 0.905511811023622,
          "duration": 0.18437499999998863,
          "ticks": 105600,
          "durationTicks": 59
        },
        {
          "time": 340.767834,
          "midi": 83,
          "name": "B5",
          "velocity": 1,
          "duration": 0.18437499999998863,
          "ticks": 105600,
          "durationTicks": 59
        },
        {
          "time": 340.955334,
          "midi": 71,
          "name": "B4",
          "velocity": 0.8031496062992126,
          "duration": 0.18437499999998863,
          "ticks": 105660,
          "durationTicks": 59
        },
        {
          "time": 340.955334,
          "midi": 79,
          "name": "G5",
          "velocity": 1,
          "duration": 0.18437499999998863,
          "ticks": 105660,
          "durationTicks": 59
        },
        {
          "time": 341.142834,
          "midi": 74,
          "name": "D5",
          "velocity": 1,
          "duration": 0.18437499999998863,
          "ticks": 105720,
          "durationTicks": 59
        },
        {
          "time": 341.142834,
          "midi": 78,
          "name": "F#5",
          "velocity": 1,
          "duration": 0.18437499999998863,
          "ticks": 105720,
          "durationTicks": 59
        },
        {
          "time": 341.330334,
          "midi": 73,
          "name": "C#5",
          "velocity": 0.9763779527559056,
          "duration": 0.18437499999998863,
          "ticks": 105780,
          "durationTicks": 59
        },
        {
          "time": 341.330334,
          "midi": 76,
          "name": "E5",
          "velocity": 1,
          "duration": 0.18437499999998863,
          "ticks": 105780,
          "durationTicks": 59
        },
        {
          "time": 341.517834,
          "midi": 76,
          "name": "E5",
          "velocity": 1,
          "duration": 0.18437499999998863,
          "ticks": 105840,
          "durationTicks": 59
        },
        {
          "time": 341.517834,
          "midi": 79,
          "name": "G5",
          "velocity": 1,
          "duration": 0.18437499999998863,
          "ticks": 105840,
          "durationTicks": 59
        },
        {
          "time": 341.705334,
          "midi": 73,
          "name": "C#5",
          "velocity": 0.9763779527559056,
          "duration": 0.18437499999998863,
          "ticks": 105900,
          "durationTicks": 59
        },
        {
          "time": 341.705334,
          "midi": 76,
          "name": "E5",
          "velocity": 1,
          "duration": 0.18437499999998863,
          "ticks": 105900,
          "durationTicks": 59
        },
        {
          "time": 341.892834,
          "midi": 67,
          "name": "G4",
          "velocity": 1,
          "duration": 0.18437499999998863,
          "ticks": 105960,
          "durationTicks": 59
        },
        {
          "time": 341.892834,
          "midi": 76,
          "name": "E5",
          "velocity": 1,
          "duration": 0.18437499999998863,
          "ticks": 105960,
          "durationTicks": 59
        },
        {
          "time": 342.080334,
          "midi": 66,
          "name": "F#4",
          "velocity": 0.9763779527559056,
          "duration": 0.18437499999998863,
          "ticks": 106020,
          "durationTicks": 59
        },
        {
          "time": 342.080334,
          "midi": 74,
          "name": "D5",
          "velocity": 1,
          "duration": 0.18437499999998863,
          "ticks": 106020,
          "durationTicks": 59
        },
        {
          "time": 342.267834,
          "midi": 64,
          "name": "E4",
          "velocity": 0.905511811023622,
          "duration": 0.18437499999998863,
          "ticks": 106080,
          "durationTicks": 59
        },
        {
          "time": 342.267834,
          "midi": 73,
          "name": "C#5",
          "velocity": 1,
          "duration": 0.18437499999998863,
          "ticks": 106080,
          "durationTicks": 59
        },
        {
          "time": 342.455334,
          "midi": 66,
          "name": "F#4",
          "velocity": 0.9763779527559056,
          "duration": 0.18437499999998863,
          "ticks": 106140,
          "durationTicks": 59
        },
        {
          "time": 342.455334,
          "midi": 74,
          "name": "D5",
          "velocity": 1,
          "duration": 0.18437499999998863,
          "ticks": 106140,
          "durationTicks": 59
        },
        {
          "time": 342.642834,
          "midi": 74,
          "name": "D5",
          "velocity": 1,
          "duration": 0.18437499999998863,
          "ticks": 106200,
          "durationTicks": 59
        },
        {
          "time": 342.642834,
          "midi": 78,
          "name": "F#5",
          "velocity": 1,
          "duration": 0.18437499999998863,
          "ticks": 106200,
          "durationTicks": 59
        },
        {
          "time": 342.830334,
          "midi": 73,
          "name": "C#5",
          "velocity": 0.9763779527559056,
          "duration": 0.18437499999998863,
          "ticks": 106260,
          "durationTicks": 59
        },
        {
          "time": 342.830334,
          "midi": 76,
          "name": "E5",
          "velocity": 1,
          "duration": 0.18437499999998863,
          "ticks": 106260,
          "durationTicks": 59
        },
        {
          "time": 343.017834,
          "midi": 76,
          "name": "E5",
          "velocity": 1,
          "duration": 0.18437499999998863,
          "ticks": 106320,
          "durationTicks": 59
        },
        {
          "time": 343.017834,
          "midi": 79,
          "name": "G5",
          "velocity": 1,
          "duration": 0.18437499999998863,
          "ticks": 106320,
          "durationTicks": 59
        },
        {
          "time": 343.205334,
          "midi": 74,
          "name": "D5",
          "velocity": 0.9763779527559056,
          "duration": 0.18437499999998863,
          "ticks": 106380,
          "durationTicks": 59
        },
        {
          "time": 343.205334,
          "midi": 78,
          "name": "F#5",
          "velocity": 1,
          "duration": 0.18437499999998863,
          "ticks": 106380,
          "durationTicks": 59
        },
        {
          "time": 343.392834,
          "midi": 74,
          "name": "D5",
          "velocity": 1,
          "duration": 0.18437499999998863,
          "ticks": 106440,
          "durationTicks": 59
        },
        {
          "time": 343.392834,
          "midi": 78,
          "name": "F#5",
          "velocity": 1,
          "duration": 0.18437499999998863,
          "ticks": 106440,
          "durationTicks": 59
        },
        {
          "time": 343.580334,
          "midi": 73,
          "name": "C#5",
          "velocity": 1,
          "duration": 0.37187499999998863,
          "ticks": 106500,
          "durationTicks": 119
        },
        {
          "time": 343.580334,
          "midi": 76,
          "name": "E5",
          "velocity": 1,
          "duration": 0.37187499999998863,
          "ticks": 106500,
          "durationTicks": 119
        },
        {
          "time": 343.955334,
          "midi": 69,
          "name": "A4",
          "velocity": 0.9763779527559056,
          "duration": 0.18437499999998863,
          "ticks": 106620,
          "durationTicks": 59
        },
        {
          "time": 343.955334,
          "midi": 74,
          "name": "D5",
          "velocity": 1,
          "duration": 0.18437499999998863,
          "ticks": 106620,
          "durationTicks": 59
        },
        {
          "time": 344.142834,
          "midi": 74,
          "name": "D5",
          "velocity": 1,
          "duration": 0.37187499999998863,
          "ticks": 106680,
          "durationTicks": 119
        },
        {
          "time": 344.142834,
          "midi": 74,
          "name": "D5",
          "velocity": 1,
          "duration": 0.37187499999998863,
          "ticks": 106680,
          "durationTicks": 119
        }
      ],
      "controlChanges": {
        "7": [
          {
            "number": 7,
            "value": 0.6299212598425197,
            "time": 0,
            "ticks": 0
          }
        ],
        "10": [
          {
            "number": 10,
            "value": 0.4566929133858268,
            "time": 0,
            "ticks": 0
          }
        ]
      }
    },
    {
      "name": "Bass Clarinet",
      "channel": 0,
      "instrument": {
        "number": 71,
        "name": "clarinet",
        "family": "reed"
      },
      "notes": [],
      "controlChanges": {
        "7": [
          {
            "number": 7,
            "value": 0.6299212598425197,
            "time": 0,
            "ticks": 0
          }
        ],
        "10": [
          {
            "number": 10,
            "value": 0.4409448818897638,
            "time": 0,
            "ticks": 0
          }
        ]
      }
    },
    {
      "name": "Bassoons",
      "channel": 0,
      "instrument": {
        "number": 70,
        "name": "bassoon",
        "family": "reed"
      },
      "notes": [
        {
          "time": 38.625,
          "midi": 66,
          "name": "F#4",
          "velocity": 0.47244094488188976,
          "duration": 0.37187499999999574,
          "ticks": 12360,
          "durationTicks": 119
        },
        {
          "time": 39,
          "midi": 62,
          "name": "D4",
          "velocity": 0.47244094488188976,
          "duration": 0.5593749999999957,
          "ticks": 12480,
          "durationTicks": 179
        },
        {
          "time": 39.5625,
          "midi": 64,
          "name": "E4",
          "velocity": 0.47244094488188976,
          "duration": 0.18437499999999574,
          "ticks": 12660,
          "durationTicks": 59
        },
        {
          "time": 39.75,
          "midi": 66,
          "name": "F#4",
          "velocity": 0.47244094488188976,
          "duration": 0.37187499999999574,
          "ticks": 12720,
          "durationTicks": 119
        },
        {
          "time": 40.125,
          "midi": 59,
          "name": "B3",
          "velocity": 0.47244094488188976,
          "duration": 0.7468749999999957,
          "ticks": 12840,
          "durationTicks": 239
        },
        {
          "time": 40.875,
          "midi": 57,
          "name": "A3",
          "velocity": 0.4409448818897638,
          "duration": 0.37187499999999574,
          "ticks": 13080,
          "durationTicks": 119
        },
        {
          "time": 41.25,
          "midi": 55,
          "name": "G3",
          "velocity": 0.4409448818897638,
          "duration": 0.37187499999999574,
          "ticks": 13200,
          "durationTicks": 119
        },
        {
          "time": 41.625,
          "midi": 54,
          "name": "F#3",
          "velocity": 0.4409448818897638,
          "duration": 0.7468749999999957,
          "ticks": 13320,
          "durationTicks": 239
        },
        {
          "time": 42.375,
          "midi": 57,
          "name": "A3",
          "velocity": 0.44881889763779526,
          "duration": 0.37187499999999574,
          "ticks": 13560,
          "durationTicks": 119
        },
        {
          "time": 42.75,
          "midi": 62,
          "name": "D4",
          "velocity": 0.44881889763779526,
          "duration": 0.37187499999999574,
          "ticks": 13680,
          "durationTicks": 119
        },
        {
          "time": 43.125,
          "midi": 61,
          "name": "C#4",
          "velocity": 0.44881889763779526,
          "duration": 0.37187499999999574,
          "ticks": 13800,
          "durationTicks": 119
        },
        {
          "time": 43.875,
          "midi": 62,
          "name": "D4",
          "velocity": 0.44881889763779526,
          "duration": 0.7468749999999957,
          "ticks": 14040,
          "durationTicks": 239
        },
        {
          "time": 44.625,
          "midi": 64,
          "name": "E4",
          "velocity": 0.44881889763779526,
          "duration": 0.18437499999999574,
          "ticks": 14280,
          "durationTicks": 59
        },
        {
          "time": 44.8125,
          "midi": 66,
          "name": "F#4",
          "velocity": 0.44881889763779526,
          "duration": 0.18437499999999574,
          "ticks": 14340,
          "durationTicks": 59
        },
        {
          "time": 45,
          "midi": 62,
          "name": "D4",
          "velocity": 0.44881889763779526,
          "duration": 0.5593749999999957,
          "ticks": 14400,
          "durationTicks": 179
        },
        {
          "time": 45.5625,
          "midi": 64,
          "name": "E4",
          "velocity": 0.44881889763779526,
          "duration": 0.18437499999999574,
          "ticks": 14580,
          "durationTicks": 59
        },
        {
          "time": 45.75,
          "midi": 66,
          "name": "F#4",
          "velocity": 0.44881889763779526,
          "duration": 0.37187499999999574,
          "ticks": 14640,
          "durationTicks": 119
        },
        {
          "time": 46.125,
          "midi": 59,
          "name": "B3",
          "velocity": 0.44881889763779526,
          "duration": 0.7468749999999957,
          "ticks": 14760,
          "durationTicks": 239
        },
        {
          "time": 46.875,
          "midi": 57,
          "name": "A3",
          "velocity": 0.44881889763779526,
          "duration": 0.18437499999999574,
          "ticks": 15000,
          "durationTicks": 59
        },
        {
          "time": 47.0625,
          "midi": 55,
          "name": "G3",
          "velocity": 0.44881889763779526,
          "duration": 0.18437499999999574,
          "ticks": 15060,
          "durationTicks": 59
        },
        {
          "time": 47.25,
          "midi": 54,
          "name": "F#3",
          "velocity": 0.44881889763779526,
          "duration": 0.18437499999999574,
          "ticks": 15120,
          "durationTicks": 59
        },
        {
          "time": 47.4375,
          "midi": 64,
          "name": "E4",
          "velocity": 0.44881889763779526,
          "duration": 0.18437499999999574,
          "ticks": 15180,
          "durationTicks": 59
        },
        {
          "time": 47.625,
          "midi": 62,
          "name": "D4",
          "velocity": 0.44881889763779526,
          "duration": 0.18437499999999574,
          "ticks": 15240,
          "durationTicks": 59
        },
        {
          "time": 47.8125,
          "midi": 61,
          "name": "C#4",
          "velocity": 0.44881889763779526,
          "duration": 0.18437499999999574,
          "ticks": 15300,
          "durationTicks": 59
        },
        {
          "time": 48,
          "midi": 59,
          "name": "B3",
          "velocity": 0.44881889763779526,
          "duration": 0.37187500000000284,
          "ticks": 15360,
          "durationTicks": 119
        },
        {
          "time": 48.375,
          "midi": 61,
          "name": "C#4",
          "velocity": 0.44881889763779526,
          "duration": 0.37187500000000284,
          "ticks": 15480,
          "durationTicks": 119
        },
        {
          "time": 48.75,
          "midi": 62,
          "name": "D4",
          "velocity": 0.4566929133858268,
          "duration": 0.37187500000000284,
          "ticks": 15600,
          "durationTicks": 119
        },
        {
          "time": 51,
          "midi": 57,
          "name": "A3",
          "velocity": 0.47244094488188976,
          "duration": 1.1218750000000028,
          "ticks": 16320,
          "durationTicks": 359
        },
        {
          "time": 52.125,
          "midi": 55,
          "name": "G3",
          "velocity": 0.48031496062992124,
          "duration": 0.18437500000000284,
          "ticks": 16680,
          "durationTicks": 59
        },
        {
          "time": 52.3125,
          "midi": 57,
          "name": "A3",
          "velocity": 0.48031496062992124,
          "duration": 0.18437500000000284,
          "ticks": 16740,
          "durationTicks": 59
        },
        {
          "time": 52.5,
          "midi": 59,
          "name": "B3",
          "velocity": 0.48031496062992124,
          "duration": 0.7468750000000028,
          "ticks": 16800,
          "durationTicks": 239
        },
        {
          "time": 53.25,
          "midi": 61,
          "name": "C#4",
          "velocity": 0.4881889763779528,
          "duration": 0.7468750000000028,
          "ticks": 17040,
          "durationTicks": 239
        },
        {
          "time": 54,
          "midi": 62,
          "name": "D4",
          "velocity": 0.4881889763779528,
          "duration": 0.37187500000000284,
          "ticks": 17280,
          "durationTicks": 119
        },
        {
          "time": 54.375,
          "midi": 64,
          "name": "E4",
          "velocity": 0.4881889763779528,
          "duration": 0.7468750000000028,
          "ticks": 17400,
          "durationTicks": 239
        },
        {
          "time": 55.125,
          "midi": 62,
          "name": "D4",
          "velocity": 0.4881889763779528,
          "duration": 0.5625,
          "ticks": 17640,
          "durationTicks": 180
        },
        {
          "time": 55.6875,
          "midi": 57,
          "name": "A3",
          "velocity": 0.4881889763779528,
          "duration": 0.18437500000000284,
          "ticks": 17820,
          "durationTicks": 59
        },
        {
          "time": 55.875,
          "midi": 62,
          "name": "D4",
          "velocity": 0.4881889763779528,
          "duration": 0.5625,
          "ticks": 17880,
          "durationTicks": 180
        },
        {
          "time": 56.4375,
          "midi": 64,
          "name": "E4",
          "velocity": 0.4881889763779528,
          "duration": 0.18437500000000284,
          "ticks": 18060,
          "durationTicks": 59
        },
        {
          "time": 56.625,
          "midi": 66,
          "name": "F#4",
          "velocity": 0.4881889763779528,
          "duration": 0.5625,
          "ticks": 18120,
          "durationTicks": 180
        },
        {
          "time": 57.1875,
          "midi": 62,
          "name": "D4",
          "velocity": 0.4881889763779528,
          "duration": 0.18437500000000284,
          "ticks": 18300,
          "durationTicks": 59
        },
        {
          "time": 57.375,
          "midi": 64,
          "name": "E4",
          "velocity": 0.4881889763779528,
          "duration": 0.37187500000000284,
          "ticks": 18360,
          "durationTicks": 119
        },
        {
          "time": 57.75,
          "midi": 66,
          "name": "F#4",
          "velocity": 0.48031496062992124,
          "duration": 0.37187500000000284,
          "ticks": 18480,
          "durationTicks": 119
        },
        {
          "time": 58.125,
          "midi": 59,
          "name": "B3",
          "velocity": 0.48031496062992124,
          "duration": 0.7468750000000028,
          "ticks": 18600,
          "durationTicks": 239
        },
        {
          "time": 58.875,
          "midi": 57,
          "name": "A3",
          "velocity": 0.48031496062992124,
          "duration": 0.18437500000000284,
          "ticks": 18840,
          "durationTicks": 59
        },
        {
          "time": 59.0625,
          "midi": 55,
          "name": "G3",
          "velocity": 0.48031496062992124,
          "duration": 0.18437500000000284,
          "ticks": 18900,
          "durationTicks": 59
        },
        {
          "time": 59.25,
          "midi": 54,
          "name": "F#3",
          "velocity": 0.48031496062992124,
          "duration": 0.18437500000000284,
          "ticks": 18960,
          "durationTicks": 59
        },
        {
          "time": 59.4375,
          "midi": 64,
          "name": "E4",
          "velocity": 0.5118110236220472,
          "duration": 0.18437500000000284,
          "ticks": 19020,
          "durationTicks": 59
        },
        {
          "time": 59.625,
          "midi": 62,
          "name": "D4",
          "velocity": 0.5118110236220472,
          "duration": 0.18437500000000284,
          "ticks": 19080,
          "durationTicks": 59
        },
        {
          "time": 59.8125,
          "midi": 61,
          "name": "C#4",
          "velocity": 0.4645669291338583,
          "duration": 0.18437500000000284,
          "ticks": 19140,
          "durationTicks": 59
        },
        {
          "time": 60,
          "midi": 59,
          "name": "B3",
          "velocity": 0.4566929133858268,
          "duration": 0.37187500000000284,
          "ticks": 19200,
          "durationTicks": 119
        },
        {
          "time": 60.375,
          "midi": 61,
          "name": "C#4",
          "velocity": 0.4566929133858268,
          "duration": 0.37187500000000284,
          "ticks": 19320,
          "durationTicks": 119
        },
        {
          "time": 60.75,
          "midi": 62,
          "name": "D4",
          "velocity": 0.44881889763779526,
          "duration": 0.37187500000000284,
          "ticks": 19440,
          "durationTicks": 119
        },
        {
          "time": 63,
          "midi": 57,
          "name": "A3",
          "velocity": 0.4409448818897638,
          "duration": 0.9375,
          "ticks": 20160,
          "durationTicks": 300
        },
        {
          "time": 63.9375,
          "midi": 54,
          "name": "F#3",
          "velocity": 0.4409448818897638,
          "duration": 0.18437500000000284,
          "ticks": 20460,
          "durationTicks": 59
        },
        {
          "time": 64.125,
          "midi": 55,
          "name": "G3",
          "velocity": 0.4409448818897638,
          "duration": 0.18437500000000284,
          "ticks": 20520,
          "durationTicks": 59
        },
        {
          "time": 64.3125,
          "midi": 57,
          "name": "A3",
          "velocity": 0.4409448818897638,
          "duration": 0.18437500000000284,
          "ticks": 20580,
          "durationTicks": 59
        },
        {
          "time": 64.5,
          "midi": 59,
          "name": "B3",
          "velocity": 0.4409448818897638,
          "duration": 0.7468750000000028,
          "ticks": 20640,
          "durationTicks": 239
        },
        {
          "time": 65.25,
          "midi": 61,
          "name": "C#4",
          "velocity": 0.44881889763779526,
          "duration": 0.7468750000000028,
          "ticks": 20880,
          "durationTicks": 239
        },
        {
          "time": 66,
          "midi": 62,
          "name": "D4",
          "velocity": 0.44881889763779526,
          "duration": 0.37187500000000284,
          "ticks": 21120,
          "durationTicks": 119
        },
        {
          "time": 66.375,
          "midi": 64,
          "name": "E4",
          "velocity": 0.44881889763779526,
          "duration": 0.7468750000000028,
          "ticks": 21240,
          "durationTicks": 239
        },
        {
          "time": 67.125,
          "midi": 62,
          "name": "D4",
          "velocity": 0.4566929133858268,
          "duration": 0.5625,
          "ticks": 21480,
          "durationTicks": 180
        },
        {
          "time": 67.6875,
          "midi": 57,
          "name": "A3",
          "velocity": 0.4645669291338583,
          "duration": 0.18437500000000284,
          "ticks": 21660,
          "durationTicks": 59
        },
        {
          "time": 67.875,
          "midi": 62,
          "name": "D4",
          "velocity": 0.4645669291338583,
          "duration": 0.5625,
          "ticks": 21720,
          "durationTicks": 180
        },
        {
          "time": 68.4375,
          "midi": 64,
          "name": "E4",
          "velocity": 0.4645669291338583,
          "duration": 0.18437500000000284,
          "ticks": 21900,
          "durationTicks": 59
        },
        {
          "time": 68.625,
          "midi": 66,
          "name": "F#4",
          "velocity": 0.4645669291338583,
          "duration": 0.5625,
          "ticks": 21960,
          "durationTicks": 180
        },
        {
          "time": 69.1875,
          "midi": 62,
          "name": "D4",
          "velocity": 0.47244094488188976,
          "duration": 0.18437500000000284,
          "ticks": 22140,
          "durationTicks": 59
        },
        {
          "time": 69.375,
          "midi": 64,
          "name": "E4",
          "velocity": 0.47244094488188976,
          "duration": 0.37187500000000284,
          "ticks": 22200,
          "durationTicks": 119
        },
        {
          "time": 69.75,
          "midi": 66,
          "name": "F#4",
          "velocity": 0.48031496062992124,
          "duration": 0.18437500000000284,
          "ticks": 22320,
          "durationTicks": 59
        },
        {
          "time": 69.9375,
          "midi": 57,
          "name": "A3",
          "velocity": 0.4881889763779528,
          "duration": 0.18437500000000284,
          "ticks": 22380,
          "durationTicks": 59
        },
        {
          "time": 70.125,
          "midi": 59,
          "name": "B3",
          "velocity": 0.4881889763779528,
          "duration": 0.18437500000000284,
          "ticks": 22440,
          "durationTicks": 59
        },
        {
          "time": 70.3125,
          "midi": 61,
          "name": "C#4",
          "velocity": 0.4881889763779528,
          "duration": 0.18437500000000284,
          "ticks": 22500,
          "durationTicks": 59
        },
        {
          "time": 70.5,
          "midi": 62,
          "name": "D4",
          "velocity": 0.49606299212598426,
          "duration": 0.18437500000000284,
          "ticks": 22560,
          "durationTicks": 59
        },
        {
          "time": 70.6875,
          "midi": 59,
          "name": "B3",
          "velocity": 0.5118110236220472,
          "duration": 0.18437500000000284,
          "ticks": 22620,
          "durationTicks": 59
        },
        {
          "time": 70.875,
          "midi": 57,
          "name": "A3",
          "velocity": 0.5118110236220472,
          "duration": 0.18437500000000284,
          "ticks": 22680,
          "durationTicks": 59
        },
        {
          "time": 71.0625,
          "midi": 55,
          "name": "G3",
          "velocity": 0.5118110236220472,
          "duration": 0.18437500000000284,
          "ticks": 22740,
          "durationTicks": 59
        },
        {
          "time": 71.25,
          "midi": 54,
          "name": "F#3",
          "velocity": 0.5118110236220472,
          "duration": 0.18437500000000284,
          "ticks": 22800,
          "durationTicks": 59
        },
        {
          "time": 71.4375,
          "midi": 52,
          "name": "E3",
          "velocity": 0.5118110236220472,
          "duration": 0.18437500000000284,
          "ticks": 22860,
          "durationTicks": 59
        },
        {
          "time": 71.625,
          "midi": 50,
          "name": "D3",
          "velocity": 0.5275590551181102,
          "duration": 0.18437500000000284,
          "ticks": 22920,
          "durationTicks": 59
        },
        {
          "time": 71.8125,
          "midi": 49,
          "name": "C#3",
          "velocity": 0.5275590551181102,
          "duration": 0.18437500000000284,
          "ticks": 22980,
          "durationTicks": 59
        },
        {
          "time": 72,
          "midi": 47,
          "name": "B2",
          "velocity": 0.5354330708661418,
          "duration": 0.37187500000000284,
          "ticks": 23040,
          "durationTicks": 119
        },
        {
          "time": 72.375,
          "midi": 59,
          "name": "B3",
          "velocity": 0.5433070866141733,
          "duration": 0.18437500000000284,
          "ticks": 23160,
          "durationTicks": 59
        },
        {
          "time": 72.5625,
          "midi": 61,
          "name": "C#4",
          "velocity": 0.5511811023622047,
          "duration": 0.18437500000000284,
          "ticks": 23220,
          "durationTicks": 59
        },
        {
          "time": 72.75,
          "midi": 62,
          "name": "D4",
          "velocity": 0.5511811023622047,
          "duration": 0.09062500000000284,
          "ticks": 23280,
          "durationTicks": 29
        },
        {
          "time": 72.9375,
          "midi": 57,
          "name": "A3",
          "velocity": 0.5511811023622047,
          "duration": 0.18437500000000284,
          "ticks": 23340,
          "durationTicks": 59
        },
        {
          "time": 73.125,
          "midi": 59,
          "name": "B3",
          "velocity": 0.5511811023622047,
          "duration": 0.18437500000000284,
          "ticks": 23400,
          "durationTicks": 59
        },
        {
          "time": 73.3125,
          "midi": 61,
          "name": "C#4",
          "velocity": 0.5511811023622047,
          "duration": 0.18437500000000284,
          "ticks": 23460,
          "durationTicks": 59
        },
        {
          "time": 73.5,
          "midi": 62,
          "name": "D4",
          "velocity": 0.5511811023622047,
          "duration": 0.37187500000000284,
          "ticks": 23520,
          "durationTicks": 119
        },
        {
          "time": 76.5,
          "midi": 62,
          "name": "D4",
          "velocity": 0.5354330708661418,
          "duration": 0.7468750000000028,
          "ticks": 24480,
          "durationTicks": 239
        },
        {
          "time": 77.25,
          "midi": 64,
          "name": "E4",
          "velocity": 0.5275590551181102,
          "duration": 0.37187500000000284,
          "ticks": 24720,
          "durationTicks": 119
        },
        {
          "time": 77.625,
          "midi": 66,
          "name": "F#4",
          "velocity": 0.5275590551181102,
          "duration": 0.37187500000000284,
          "ticks": 24840,
          "durationTicks": 119
        },
        {
          "time": 78,
          "midi": 66,
          "name": "F#4",
          "velocity": 0.5275590551181102,
          "duration": 0.5593750000000028,
          "ticks": 24960,
          "durationTicks": 179
        },
        {
          "time": 78.5625,
          "midi": 64,
          "name": "E4",
          "velocity": 0.5354330708661418,
          "duration": 0.18437500000000284,
          "ticks": 25140,
          "durationTicks": 59
        },
        {
          "time": 78.75,
          "midi": 64,
          "name": "E4",
          "velocity": 0.5354330708661418,
          "duration": 0.7468750000000028,
          "ticks": 25200,
          "durationTicks": 239
        },
        {
          "time": 82.5,
          "midi": 62,
          "name": "D4",
          "velocity": 0.5511811023622047,
          "duration": 0.7468750000000028,
          "ticks": 26400,
          "durationTicks": 239
        },
        {
          "time": 83.25,
          "midi": 64,
          "name": "E4",
          "velocity": 0.5511811023622047,
          "duration": 0.37187500000000284,
          "ticks": 26640,
          "durationTicks": 119
        },
        {
          "time": 83.625,
          "midi": 66,
          "name": "F#4",
          "velocity": 0.5511811023622047,
          "duration": 0.37187500000000284,
          "ticks": 26760,
          "durationTicks": 119
        },
        {
          "time": 84,
          "midi": 64,
          "name": "E4",
          "velocity": 0.5433070866141733,
          "duration": 0.5593750000000028,
          "ticks": 26880,
          "durationTicks": 179
        },
        {
          "time": 84.5625,
          "midi": 62,
          "name": "D4",
          "velocity": 0.5433070866141733,
          "duration": 0.18437500000000284,
          "ticks": 27060,
          "durationTicks": 59
        },
        {
          "time": 84.75,
          "midi": 62,
          "name": "D4",
          "velocity": 0.5354330708661418,
          "duration": 0.7468750000000028,
          "ticks": 27120,
          "durationTicks": 239
        },
        {
          "time": 88.5,
          "midi": 64,
          "name": "E4",
          "velocity": 0.5196850393700787,
          "duration": 0.37187500000000284,
          "ticks": 28320,
          "durationTicks": 119
        },
        {
          "time": 88.875,
          "midi": 66,
          "name": "F#4",
          "velocity": 0.4881889763779528,
          "duration": 0.18437500000000284,
          "ticks": 28440,
          "durationTicks": 59
        },
        {
          "time": 89.0625,
          "midi": 67,
          "name": "G4",
          "velocity": 0.4881889763779528,
          "duration": 0.18437500000000284,
          "ticks": 28500,
          "durationTicks": 59
        },
        {
          "time": 89.25,
          "midi": 66,
          "name": "F#4",
          "velocity": 0.4881889763779528,
          "duration": 0.37187500000000284,
          "ticks": 28560,
          "durationTicks": 119
        },
        {
          "time": 89.625,
          "midi": 64,
          "name": "E4",
          "velocity": 0.4881889763779528,
          "duration": 0.37187500000000284,
          "ticks": 28680,
          "durationTicks": 119
        },
        {
          "time": 90,
          "midi": 62,
          "name": "D4",
          "velocity": 0.49606299212598426,
          "duration": 0.37187500000000284,
          "ticks": 28800,
          "durationTicks": 119
        },
        {
          "time": 90.375,
          "midi": 64,
          "name": "E4",
          "velocity": 0.49606299212598426,
          "duration": 0.37187500000000284,
          "ticks": 28920,
          "durationTicks": 119
        },
        {
          "time": 90.75,
          "midi": 57,
          "name": "A3",
          "velocity": 0.49606299212598426,
          "duration": 0.37187500000000284,
          "ticks": 29040,
          "durationTicks": 119
        },
        {
          "time": 91.125,
          "midi": 66,
          "name": "F#4",
          "velocity": 0.5118110236220472,
          "duration": 0.37187500000000284,
          "ticks": 29160,
          "durationTicks": 119
        },
        {
          "time": 94.5,
          "midi": 62,
          "name": "D4",
          "velocity": 0.6377952755905512,
          "duration": 0.7468750000000028,
          "ticks": 30240,
          "durationTicks": 239
        },
        {
          "time": 95.25,
          "midi": 64,
          "name": "E4",
          "velocity": 0.5196850393700787,
          "duration": 0.37187500000000284,
          "ticks": 30480,
          "durationTicks": 119
        },
        {
          "time": 95.625,
          "midi": 66,
          "name": "F#4",
          "velocity": 0.5354330708661418,
          "duration": 0.37187500000000284,
          "ticks": 30600,
          "durationTicks": 119
        },
        {
          "time": 96,
          "midi": 64,
          "name": "E4",
          "velocity": 0.5354330708661418,
          "duration": 0.5593750000000028,
          "ticks": 30720,
          "durationTicks": 179
        },
        {
          "time": 96.5625,
          "midi": 62,
          "name": "D4",
          "velocity": 0.5511811023622047,
          "duration": 0.18437500000000284,
          "ticks": 30900,
          "durationTicks": 59
        },
        {
          "time": 96.75,
          "midi": 62,
          "name": "D4",
          "velocity": 0.5511811023622047,
          "duration": 0.7468750000000028,
          "ticks": 30960,
          "durationTicks": 239
        },
        {
          "time": 100.5,
          "midi": 64,
          "name": "E4",
          "velocity": 0.5511811023622047,
          "duration": 0.37187500000000284,
          "ticks": 32160,
          "durationTicks": 119
        },
        {
          "time": 100.875,
          "midi": 66,
          "name": "F#4",
          "velocity": 0.5511811023622047,
          "duration": 0.18437500000000284,
          "ticks": 32280,
          "durationTicks": 59
        },
        {
          "time": 101.0625,
          "midi": 67,
          "name": "G4",
          "velocity": 0.5511811023622047,
          "duration": 0.18437500000000284,
          "ticks": 32340,
          "durationTicks": 59
        },
        {
          "time": 101.25,
          "midi": 66,
          "name": "F#4",
          "velocity": 0.5511811023622047,
          "duration": 0.37187500000000284,
          "ticks": 32400,
          "durationTicks": 119
        },
        {
          "time": 101.625,
          "midi": 64,
          "name": "E4",
          "velocity": 0.5511811023622047,
          "duration": 0.37187500000000284,
          "ticks": 32520,
          "durationTicks": 119
        },
        {
          "time": 102,
          "midi": 62,
          "name": "D4",
          "velocity": 0.5511811023622047,
          "duration": 0.37187500000000284,
          "ticks": 32640,
          "durationTicks": 119
        },
        {
          "time": 102.375,
          "midi": 64,
          "name": "E4",
          "velocity": 0.5511811023622047,
          "duration": 0.37187500000000284,
          "ticks": 32760,
          "durationTicks": 119
        },
        {
          "time": 102.75,
          "midi": 57,
          "name": "A3",
          "velocity": 0.5511811023622047,
          "duration": 0.37187500000000284,
          "ticks": 32880,
          "durationTicks": 119
        },
        {
          "time": 103.125,
          "midi": 66,
          "name": "F#4",
          "velocity": 0.5511811023622047,
          "duration": 0.37187500000000284,
          "ticks": 33000,
          "durationTicks": 119
        },
        {
          "time": 106.5,
          "midi": 62,
          "name": "D4",
          "velocity": 0.5590551181102362,
          "duration": 0.7468750000000028,
          "ticks": 34080,
          "durationTicks": 239
        },
        {
          "time": 107.25,
          "midi": 64,
          "name": "E4",
          "velocity": 0.5984251968503937,
          "duration": 0.37187500000000284,
          "ticks": 34320,
          "durationTicks": 119
        },
        {
          "time": 107.625,
          "midi": 66,
          "name": "F#4",
          "velocity": 0.6220472440944882,
          "duration": 0.37187500000000284,
          "ticks": 34440,
          "durationTicks": 119
        },
        {
          "time": 108,
          "midi": 64,
          "name": "E4",
          "velocity": 0.6220472440944882,
          "duration": 0.5593750000000028,
          "ticks": 34560,
          "durationTicks": 179
        },
        {
          "time": 108.5625,
          "midi": 62,
          "name": "D4",
          "velocity": 0.6377952755905512,
          "duration": 0.18437500000000284,
          "ticks": 34740,
          "durationTicks": 59
        },
        {
          "time": 108.75,
          "midi": 62,
          "name": "D4",
          "velocity": 0.6614173228346457,
          "duration": 0.7468750000000028,
          "ticks": 34800,
          "durationTicks": 239
        },
        {
          "time": 109.5,
          "midi": 50,
          "name": "D3",
          "velocity": 0.8661417322834646,
          "duration": 0.7468750000000028,
          "ticks": 35040,
          "durationTicks": 239
        },
        {
          "time": 109.5,
          "midi": 54,
          "name": "F#3",
          "velocity": 0.8661417322834646,
          "duration": 0.7468750000000028,
          "ticks": 35040,
          "durationTicks": 239
        },
        {
          "time": 110.25,
          "midi": 52,
          "name": "E3",
          "velocity": 0.8661417322834646,
          "duration": 0.37187500000000284,
          "ticks": 35280,
          "durationTicks": 119
        },
        {
          "time": 110.25,
          "midi": 55,
          "name": "G3",
          "velocity": 0.8661417322834646,
          "duration": 0.37187500000000284,
          "ticks": 35280,
          "durationTicks": 119
        },
        {
          "time": 110.625,
          "midi": 57,
          "name": "A3",
          "velocity": 0.8740157480314961,
          "duration": 0.37187500000000284,
          "ticks": 35400,
          "durationTicks": 119
        },
        {
          "time": 110.625,
          "midi": 54,
          "name": "F#3",
          "velocity": 0.8740157480314961,
          "duration": 0.37187500000000284,
          "ticks": 35400,
          "durationTicks": 119
        },
        {
          "time": 111,
          "midi": 57,
          "name": "A3",
          "velocity": 0.8740157480314961,
          "duration": 0.37187500000000284,
          "ticks": 35520,
          "durationTicks": 119
        },
        {
          "time": 111,
          "midi": 54,
          "name": "F#3",
          "velocity": 0.8740157480314961,
          "duration": 0.37187500000000284,
          "ticks": 35520,
          "durationTicks": 119
        },
        {
          "time": 111.375,
          "midi": 52,
          "name": "E3",
          "velocity": 0.8740157480314961,
          "duration": 0.37187500000000284,
          "ticks": 35640,
          "durationTicks": 119
        },
        {
          "time": 111.375,
          "midi": 55,
          "name": "G3",
          "velocity": 0.8740157480314961,
          "duration": 0.37187500000000284,
          "ticks": 35640,
          "durationTicks": 119
        },
        {
          "time": 111.75,
          "midi": 50,
          "name": "D3",
          "velocity": 0.8740157480314961,
          "duration": 0.18437500000000284,
          "ticks": 35760,
          "durationTicks": 59
        },
        {
          "time": 111.75,
          "midi": 54,
          "name": "F#3",
          "velocity": 0.8740157480314961,
          "duration": 0.18437500000000284,
          "ticks": 35760,
          "durationTicks": 59
        },
        {
          "time": 112.125,
          "midi": 45,
          "name": "A2",
          "velocity": 0.8740157480314961,
          "duration": 0.18437500000000284,
          "ticks": 35880,
          "durationTicks": 59
        },
        {
          "time": 112.125,
          "midi": 52,
          "name": "E3",
          "velocity": 0.8740157480314961,
          "duration": 0.18437500000000284,
          "ticks": 35880,
          "durationTicks": 59
        },
        {
          "time": 112.5,
          "midi": 50,
          "name": "D3",
          "velocity": 0.8740157480314961,
          "duration": 0.37187500000000284,
          "ticks": 36000,
          "durationTicks": 119
        },
        {
          "time": 112.5,
          "midi": 54,
          "name": "F#3",
          "velocity": 0.8740157480314961,
          "duration": 0.37187500000000284,
          "ticks": 36000,
          "durationTicks": 119
        },
        {
          "time": 112.875,
          "midi": 50,
          "name": "D3",
          "velocity": 0.8818897637795275,
          "duration": 0.37187500000000284,
          "ticks": 36120,
          "durationTicks": 119
        },
        {
          "time": 112.875,
          "midi": 54,
          "name": "F#3",
          "velocity": 0.8818897637795275,
          "duration": 0.37187500000000284,
          "ticks": 36120,
          "durationTicks": 119
        },
        {
          "time": 113.25,
          "midi": 49,
          "name": "C#3",
          "velocity": 0.8818897637795275,
          "duration": 0.37187500000000284,
          "ticks": 36240,
          "durationTicks": 119
        },
        {
          "time": 113.25,
          "midi": 52,
          "name": "E3",
          "velocity": 0.8818897637795275,
          "duration": 0.37187500000000284,
          "ticks": 36240,
          "durationTicks": 119
        },
        {
          "time": 113.625,
          "midi": 50,
          "name": "D3",
          "velocity": 0.8818897637795275,
          "duration": 0.37187500000000284,
          "ticks": 36360,
          "durationTicks": 119
        },
        {
          "time": 113.625,
          "midi": 54,
          "name": "F#3",
          "velocity": 0.8818897637795275,
          "duration": 0.37187500000000284,
          "ticks": 36360,
          "durationTicks": 119
        },
        {
          "time": 114,
          "midi": 50,
          "name": "D3",
          "velocity": 0.8818897637795275,
          "duration": 0.5593750000000028,
          "ticks": 36480,
          "durationTicks": 179
        },
        {
          "time": 114,
          "midi": 54,
          "name": "F#3",
          "velocity": 0.8818897637795275,
          "duration": 0.5593750000000028,
          "ticks": 36480,
          "durationTicks": 179
        },
        {
          "time": 114.5625,
          "midi": 45,
          "name": "A2",
          "velocity": 0.8818897637795275,
          "duration": 0.18437500000000284,
          "ticks": 36660,
          "durationTicks": 59
        },
        {
          "time": 114.5625,
          "midi": 52,
          "name": "E3",
          "velocity": 0.8818897637795275,
          "duration": 0.18437500000000284,
          "ticks": 36660,
          "durationTicks": 59
        },
        {
          "time": 114.75,
          "midi": 45,
          "name": "A2",
          "velocity": 0.8818897637795275,
          "duration": 0.7468750000000028,
          "ticks": 36720,
          "durationTicks": 239
        },
        {
          "time": 114.75,
          "midi": 52,
          "name": "E3",
          "velocity": 0.8818897637795275,
          "duration": 0.7468750000000028,
          "ticks": 36720,
          "durationTicks": 239
        },
        {
          "time": 115.5,
          "midi": 50,
          "name": "D3",
          "velocity": 0.8818897637795275,
          "duration": 0.7468750000000028,
          "ticks": 36960,
          "durationTicks": 239
        },
        {
          "time": 115.5,
          "midi": 54,
          "name": "F#3",
          "velocity": 0.8818897637795275,
          "duration": 0.7468750000000028,
          "ticks": 36960,
          "durationTicks": 239
        },
        {
          "time": 116.25,
          "midi": 52,
          "name": "E3",
          "velocity": 0.8740157480314961,
          "duration": 0.37187500000000284,
          "ticks": 37200,
          "durationTicks": 119
        },
        {
          "time": 116.25,
          "midi": 55,
          "name": "G3",
          "velocity": 0.8740157480314961,
          "duration": 0.37187500000000284,
          "ticks": 37200,
          "durationTicks": 119
        },
        {
          "time": 116.625,
          "midi": 57,
          "name": "A3",
          "velocity": 0.8661417322834646,
          "duration": 0.37187500000000284,
          "ticks": 37320,
          "durationTicks": 119
        },
        {
          "time": 116.625,
          "midi": 54,
          "name": "F#3",
          "velocity": 0.8661417322834646,
          "duration": 0.37187500000000284,
          "ticks": 37320,
          "durationTicks": 119
        },
        {
          "time": 117,
          "midi": 54,
          "name": "F#3",
          "velocity": 0.8661417322834646,
          "duration": 0.37187500000000284,
          "ticks": 37440,
          "durationTicks": 119
        },
        {
          "time": 117,
          "midi": 57,
          "name": "A3",
          "velocity": 0.8661417322834646,
          "duration": 0.37187500000000284,
          "ticks": 37440,
          "durationTicks": 119
        },
        {
          "time": 117.375,
          "midi": 52,
          "name": "E3",
          "velocity": 0.8661417322834646,
          "duration": 0.37187500000000284,
          "ticks": 37560,
          "durationTicks": 119
        },
        {
          "time": 117.375,
          "midi": 55,
          "name": "G3",
          "velocity": 0.8661417322834646,
          "duration": 0.37187500000000284,
          "ticks": 37560,
          "durationTicks": 119
        },
        {
          "time": 117.75,
          "midi": 50,
          "name": "D3",
          "velocity": 0.8582677165354331,
          "duration": 0.18437500000000284,
          "ticks": 37680,
          "durationTicks": 59
        },
        {
          "time": 117.75,
          "midi": 54,
          "name": "F#3",
          "velocity": 0.8582677165354331,
          "duration": 0.18437500000000284,
          "ticks": 37680,
          "durationTicks": 59
        },
        {
          "time": 118.125,
          "midi": 45,
          "name": "A2",
          "velocity": 0.8582677165354331,
          "duration": 0.18437500000000284,
          "ticks": 37800,
          "durationTicks": 59
        },
        {
          "time": 118.125,
          "midi": 52,
          "name": "E3",
          "velocity": 0.8582677165354331,
          "duration": 0.18437500000000284,
          "ticks": 37800,
          "durationTicks": 59
        },
        {
          "time": 118.5,
          "midi": 50,
          "name": "D3",
          "velocity": 0.8582677165354331,
          "duration": 0.18437500000000284,
          "ticks": 37920,
          "durationTicks": 59
        },
        {
          "time": 118.5,
          "midi": 54,
          "name": "F#3",
          "velocity": 0.8582677165354331,
          "duration": 0.18437500000000284,
          "ticks": 37920,
          "durationTicks": 59
        },
        {
          "time": 118.875,
          "midi": 50,
          "name": "D3",
          "velocity": 0.8582677165354331,
          "duration": 0.18437500000000284,
          "ticks": 38040,
          "durationTicks": 59
        },
        {
          "time": 118.875,
          "midi": 54,
          "name": "F#3",
          "velocity": 0.8582677165354331,
          "duration": 0.18437500000000284,
          "ticks": 38040,
          "durationTicks": 59
        },
        {
          "time": 119.25,
          "midi": 49,
          "name": "C#3",
          "velocity": 0.8503937007874016,
          "duration": 0.18437500000000284,
          "ticks": 38160,
          "durationTicks": 59
        },
        {
          "time": 119.25,
          "midi": 52,
          "name": "E3",
          "velocity": 0.8503937007874016,
          "duration": 0.18437500000000284,
          "ticks": 38160,
          "durationTicks": 59
        },
        {
          "time": 119.625,
          "midi": 50,
          "name": "D3",
          "velocity": 0.8503937007874016,
          "duration": 0.18437500000000284,
          "ticks": 38280,
          "durationTicks": 59
        },
        {
          "time": 119.625,
          "midi": 54,
          "name": "F#3",
          "velocity": 0.8503937007874016,
          "duration": 0.18437500000000284,
          "ticks": 38280,
          "durationTicks": 59
        },
        {
          "time": 120,
          "midi": 49,
          "name": "C#3",
          "velocity": 0.8503937007874016,
          "duration": 0.5593750000000028,
          "ticks": 38400,
          "durationTicks": 179
        },
        {
          "time": 120,
          "midi": 52,
          "name": "E3",
          "velocity": 0.8503937007874016,
          "duration": 0.5593750000000028,
          "ticks": 38400,
          "durationTicks": 179
        },
        {
          "time": 120.5625,
          "midi": 50,
          "name": "D3",
          "velocity": 0.8503937007874016,
          "duration": 0.18437500000000284,
          "ticks": 38580,
          "durationTicks": 59
        },
        {
          "time": 120.5625,
          "midi": 54,
          "name": "F#3",
          "velocity": 0.8503937007874016,
          "duration": 0.18437500000000284,
          "ticks": 38580,
          "durationTicks": 59
        },
        {
          "time": 120.75,
          "midi": 50,
          "name": "D3",
          "velocity": 0.8503937007874016,
          "duration": 0.7468750000000028,
          "ticks": 38640,
          "durationTicks": 239
        },
        {
          "time": 120.75,
          "midi": 54,
          "name": "F#3",
          "velocity": 0.8503937007874016,
          "duration": 0.7468750000000028,
          "ticks": 38640,
          "durationTicks": 239
        },
        {
          "time": 121.5,
          "midi": 52,
          "name": "E3",
          "velocity": 0.8503937007874016,
          "duration": 0.7468750000000028,
          "ticks": 38880,
          "durationTicks": 239
        },
        {
          "time": 121.5,
          "midi": 49,
          "name": "C#3",
          "velocity": 0.8503937007874016,
          "duration": 0.7468750000000028,
          "ticks": 38880,
          "durationTicks": 239
        },
        {
          "time": 122.25,
          "midi": 54,
          "name": "F#3",
          "velocity": 0.8503937007874016,
          "duration": 0.37187500000000284,
          "ticks": 39120,
          "durationTicks": 119
        },
        {
          "time": 122.25,
          "midi": 50,
          "name": "D3",
          "velocity": 0.8503937007874016,
          "duration": 0.37187500000000284,
          "ticks": 39120,
          "durationTicks": 119
        },
        {
          "time": 122.625,
          "midi": 50,
          "name": "D3",
          "velocity": 0.84251968503937,
          "duration": 0.37187500000000284,
          "ticks": 39240,
          "durationTicks": 119
        },
        {
          "time": 122.625,
          "midi": 50,
          "name": "D3",
          "velocity": 0.84251968503937,
          "duration": 0.37187500000000284,
          "ticks": 39240,
          "durationTicks": 119
        },
        {
          "time": 123,
          "midi": 52,
          "name": "E3",
          "velocity": 0.84251968503937,
          "duration": 0.37187500000000284,
          "ticks": 39360,
          "durationTicks": 119
        },
        {
          "time": 123,
          "midi": 49,
          "name": "C#3",
          "velocity": 0.84251968503937,
          "duration": 0.37187500000000284,
          "ticks": 39360,
          "durationTicks": 119
        },
        {
          "time": 123.375,
          "midi": 50,
          "name": "D3",
          "velocity": 0.84251968503937,
          "duration": 0.18437500000000284,
          "ticks": 39480,
          "durationTicks": 59
        },
        {
          "time": 123.375,
          "midi": 54,
          "name": "F#3",
          "velocity": 0.84251968503937,
          "duration": 0.18437500000000284,
          "ticks": 39480,
          "durationTicks": 59
        },
        {
          "time": 123.5625,
          "midi": 52,
          "name": "E3",
          "velocity": 0.84251968503937,
          "duration": 0.18437500000000284,
          "ticks": 39540,
          "durationTicks": 59
        },
        {
          "time": 123.5625,
          "midi": 55,
          "name": "G3",
          "velocity": 0.84251968503937,
          "duration": 0.18437500000000284,
          "ticks": 39540,
          "durationTicks": 59
        },
        {
          "time": 123.75,
          "midi": 50,
          "name": "D3",
          "velocity": 0.84251968503937,
          "duration": 0.37187500000000284,
          "ticks": 39600,
          "durationTicks": 119
        },
        {
          "time": 123.75,
          "midi": 54,
          "name": "F#3",
          "velocity": 0.84251968503937,
          "duration": 0.37187500000000284,
          "ticks": 39600,
          "durationTicks": 119
        },
        {
          "time": 124.125,
          "midi": 50,
          "name": "D3",
          "velocity": 0.84251968503937,
          "duration": 0.37187500000000284,
          "ticks": 39720,
          "durationTicks": 119
        },
        {
          "time": 124.125,
          "midi": 50,
          "name": "D3",
          "velocity": 0.84251968503937,
          "duration": 0.37187500000000284,
          "ticks": 39720,
          "durationTicks": 119
        },
        {
          "time": 124.5,
          "midi": 52,
          "name": "E3",
          "velocity": 0.84251968503937,
          "duration": 0.37187500000000284,
          "ticks": 39840,
          "durationTicks": 119
        },
        {
          "time": 124.5,
          "midi": 49,
          "name": "C#3",
          "velocity": 0.84251968503937,
          "duration": 0.37187500000000284,
          "ticks": 39840,
          "durationTicks": 119
        },
        {
          "time": 124.875,
          "midi": 50,
          "name": "D3",
          "velocity": 0.84251968503937,
          "duration": 0.18437500000000284,
          "ticks": 39960,
          "durationTicks": 59
        },
        {
          "time": 124.875,
          "midi": 54,
          "name": "F#3",
          "velocity": 0.84251968503937,
          "duration": 0.18437500000000284,
          "ticks": 39960,
          "durationTicks": 59
        },
        {
          "time": 125.0625,
          "midi": 52,
          "name": "E3",
          "velocity": 0.84251968503937,
          "duration": 0.18437500000000284,
          "ticks": 40020,
          "durationTicks": 59
        },
        {
          "time": 125.0625,
          "midi": 55,
          "name": "G3",
          "velocity": 0.84251968503937,
          "duration": 0.18437500000000284,
          "ticks": 40020,
          "durationTicks": 59
        },
        {
          "time": 125.25,
          "midi": 61,
          "name": "C#4",
          "velocity": 0.84251968503937,
          "duration": 0.37187500000000284,
          "ticks": 40080,
          "durationTicks": 119
        },
        {
          "time": 125.25,
          "midi": 66,
          "name": "F#4",
          "velocity": 0.84251968503937,
          "duration": 0.37187500000000284,
          "ticks": 40080,
          "durationTicks": 119
        },
        {
          "time": 125.625,
          "midi": 64,
          "name": "E4",
          "velocity": 0.84251968503937,
          "duration": 0.37187500000000284,
          "ticks": 40200,
          "durationTicks": 119
        },
        {
          "time": 125.625,
          "midi": 61,
          "name": "C#4",
          "velocity": 0.84251968503937,
          "duration": 0.37187500000000284,
          "ticks": 40200,
          "durationTicks": 119
        },
        {
          "time": 126,
          "midi": 59,
          "name": "B3",
          "velocity": 0.84251968503937,
          "duration": 0.18437500000000284,
          "ticks": 40320,
          "durationTicks": 59
        },
        {
          "time": 126,
          "midi": 62,
          "name": "D4",
          "velocity": 0.84251968503937,
          "duration": 0.18437500000000284,
          "ticks": 40320,
          "durationTicks": 59
        },
        {
          "time": 126.375,
          "midi": 56,
          "name": "G#3",
          "velocity": 0.84251968503937,
          "duration": 0.18437500000000284,
          "ticks": 40440,
          "durationTicks": 59
        },
        {
          "time": 126.375,
          "midi": 64,
          "name": "E4",
          "velocity": 0.84251968503937,
          "duration": 0.18437500000000284,
          "ticks": 40440,
          "durationTicks": 59
        },
        {
          "time": 126.75,
          "midi": 57,
          "name": "A3",
          "velocity": 0.84251968503937,
          "duration": 0.18437500000000284,
          "ticks": 40560,
          "durationTicks": 59
        },
        {
          "time": 126.75,
          "midi": 57,
          "name": "A3",
          "velocity": 0.84251968503937,
          "duration": 0.18437500000000284,
          "ticks": 40560,
          "durationTicks": 59
        },
        {
          "time": 127.125,
          "midi": 62,
          "name": "D4",
          "velocity": 0.84251968503937,
          "duration": 0.7468750000000028,
          "ticks": 40680,
          "durationTicks": 239
        },
        {
          "time": 127.125,
          "midi": 66,
          "name": "F#4",
          "velocity": 0.84251968503937,
          "duration": 0.7468750000000028,
          "ticks": 40680,
          "durationTicks": 239
        },
        {
          "time": 127.875,
          "midi": 50,
          "name": "D3",
          "velocity": 0.8503937007874016,
          "duration": 0.18437499999998863,
          "ticks": 40920,
          "durationTicks": 59
        },
        {
          "time": 127.875,
          "midi": 54,
          "name": "F#3",
          "velocity": 0.8503937007874016,
          "duration": 0.18437499999998863,
          "ticks": 40920,
          "durationTicks": 59
        },
        {
          "time": 128.25,
          "midi": 52,
          "name": "E3",
          "velocity": 0.8503937007874016,
          "duration": 0.18437499999998863,
          "ticks": 41040,
          "durationTicks": 59
        },
        {
          "time": 128.25,
          "midi": 55,
          "name": "G3",
          "velocity": 0.8503937007874016,
          "duration": 0.18437499999998863,
          "ticks": 41040,
          "durationTicks": 59
        },
        {
          "time": 128.625,
          "midi": 54,
          "name": "F#3",
          "velocity": 0.8582677165354331,
          "duration": 0.18437499999998863,
          "ticks": 41160,
          "durationTicks": 59
        },
        {
          "time": 128.625,
          "midi": 57,
          "name": "A3",
          "velocity": 0.8582677165354331,
          "duration": 0.18437499999998863,
          "ticks": 41160,
          "durationTicks": 59
        },
        {
          "time": 129,
          "midi": 57,
          "name": "A3",
          "velocity": 1,
          "duration": 0.37187499999998863,
          "ticks": 41280,
          "durationTicks": 119
        },
        {
          "time": 129,
          "midi": 54,
          "name": "F#3",
          "velocity": 1,
          "duration": 0.37187499999998863,
          "ticks": 41280,
          "durationTicks": 119
        },
        {
          "time": 129.375,
          "midi": 52,
          "name": "E3",
          "velocity": 0.9763779527559056,
          "duration": 0.37187499999998863,
          "ticks": 41400,
          "durationTicks": 119
        },
        {
          "time": 129.375,
          "midi": 55,
          "name": "G3",
          "velocity": 1,
          "duration": 0.37187499999998863,
          "ticks": 41400,
          "durationTicks": 119
        },
        {
          "time": 129.746875,
          "midi": 50,
          "name": "D3",
          "velocity": 1,
          "duration": 0.18437500000001705,
          "ticks": 41519,
          "durationTicks": 59
        },
        {
          "time": 129.746875,
          "midi": 54,
          "name": "F#3",
          "velocity": 1,
          "duration": 0.18437500000001705,
          "ticks": 41519,
          "durationTicks": 59
        },
        {
          "time": 130.121875,
          "midi": 52,
          "name": "E3",
          "velocity": 1,
          "duration": 0.18437500000001705,
          "ticks": 41639,
          "durationTicks": 59
        },
        {
          "time": 130.121875,
          "midi": 49,
          "name": "C#3",
          "velocity": 1,
          "duration": 0.18437500000001705,
          "ticks": 41639,
          "durationTicks": 59
        },
        {
          "time": 130.496875,
          "midi": 50,
          "name": "D3",
          "velocity": 1,
          "duration": 0.18437500000001705,
          "ticks": 41759,
          "durationTicks": 59
        },
        {
          "time": 130.496875,
          "midi": 54,
          "name": "F#3",
          "velocity": 1,
          "duration": 0.18437500000001705,
          "ticks": 41759,
          "durationTicks": 59
        },
        {
          "time": 130.871875,
          "midi": 50,
          "name": "D3",
          "velocity": 0.9763779527559056,
          "duration": 0.18437500000001705,
          "ticks": 41879,
          "durationTicks": 59
        },
        {
          "time": 130.871875,
          "midi": 54,
          "name": "F#3",
          "velocity": 1,
          "duration": 0.18437500000001705,
          "ticks": 41879,
          "durationTicks": 59
        },
        {
          "time": 131.246875,
          "midi": 52,
          "name": "E3",
          "velocity": 1,
          "duration": 0.18437500000001705,
          "ticks": 41999,
          "durationTicks": 59
        },
        {
          "time": 131.246875,
          "midi": 49,
          "name": "C#3",
          "velocity": 1,
          "duration": 0.18437500000001705,
          "ticks": 41999,
          "durationTicks": 59
        },
        {
          "time": 131.621875,
          "midi": 54,
          "name": "F#3",
          "velocity": 1,
          "duration": 0.18437500000001705,
          "ticks": 42119,
          "durationTicks": 59
        },
        {
          "time": 131.621875,
          "midi": 50,
          "name": "D3",
          "velocity": 1,
          "duration": 0.18437500000001705,
          "ticks": 42119,
          "durationTicks": 59
        },
        {
          "time": 131.996875,
          "midi": 52,
          "name": "E3",
          "velocity": 1,
          "duration": 0.559375000000017,
          "ticks": 42239,
          "durationTicks": 179
        },
        {
          "time": 131.996875,
          "midi": 49,
          "name": "C#3",
          "velocity": 1,
          "duration": 0.559375000000017,
          "ticks": 42239,
          "durationTicks": 179
        },
        {
          "time": 132.559375,
          "midi": 50,
          "name": "D3",
          "velocity": 0.905511811023622,
          "duration": 0.18437500000001705,
          "ticks": 42419,
          "durationTicks": 59
        },
        {
          "time": 132.559375,
          "midi": 54,
          "name": "F#3",
          "velocity": 1,
          "duration": 0.18437500000001705,
          "ticks": 42419,
          "durationTicks": 59
        },
        {
          "time": 132.746875,
          "midi": 50,
          "name": "D3",
          "velocity": 0.905511811023622,
          "duration": 0.09062500000001705,
          "ticks": 42479,
          "durationTicks": 29
        },
        {
          "time": 132.746875,
          "midi": 54,
          "name": "F#3",
          "velocity": 1,
          "duration": 0.09062500000001705,
          "ticks": 42479,
          "durationTicks": 29
        },
        {
          "time": 132.934375,
          "midi": 57,
          "name": "A3",
          "velocity": 0.937007874015748,
          "duration": 0.18437500000001705,
          "ticks": 42539,
          "durationTicks": 59
        },
        {
          "time": 132.934375,
          "midi": 54,
          "name": "F#3",
          "velocity": 1,
          "duration": 0.18437500000001705,
          "ticks": 42539,
          "durationTicks": 59
        },
        {
          "time": 133.121875,
          "midi": 52,
          "name": "E3",
          "velocity": 0.8267716535433071,
          "duration": 0.18437500000001705,
          "ticks": 42599,
          "durationTicks": 59
        },
        {
          "time": 133.121875,
          "midi": 55,
          "name": "G3",
          "velocity": 1,
          "duration": 0.18437500000001705,
          "ticks": 42599,
          "durationTicks": 59
        },
        {
          "time": 133.309375,
          "midi": 50,
          "name": "D3",
          "velocity": 1,
          "duration": 0.18437500000001705,
          "ticks": 42659,
          "durationTicks": 59
        },
        {
          "time": 133.309375,
          "midi": 54,
          "name": "F#3",
          "velocity": 1,
          "duration": 0.18437500000001705,
          "ticks": 42659,
          "durationTicks": 59
        },
        {
          "time": 133.496875,
          "midi": 52,
          "name": "E3",
          "velocity": 1,
          "duration": 0.746875000000017,
          "ticks": 42719,
          "durationTicks": 239
        },
        {
          "time": 133.496875,
          "midi": 49,
          "name": "C#3",
          "velocity": 1,
          "duration": 0.746875000000017,
          "ticks": 42719,
          "durationTicks": 239
        },
        {
          "time": 134.246875,
          "midi": 50,
          "name": "D3",
          "velocity": 0.905511811023622,
          "duration": 0.37187500000001705,
          "ticks": 42959,
          "durationTicks": 119
        },
        {
          "time": 134.246875,
          "midi": 54,
          "name": "F#3",
          "velocity": 1,
          "duration": 0.37187500000001705,
          "ticks": 42959,
          "durationTicks": 119
        },
        {
          "time": 134.621875,
          "midi": 50,
          "name": "D3",
          "velocity": 1,
          "duration": 0.37187500000001705,
          "ticks": 43079,
          "durationTicks": 119
        },
        {
          "time": 134.621875,
          "midi": 54,
          "name": "F#3",
          "velocity": 1,
          "duration": 0.37187500000001705,
          "ticks": 43079,
          "durationTicks": 119
        },
        {
          "time": 134.996875,
          "midi": 49,
          "name": "C#3",
          "velocity": 1,
          "duration": 0.37187500000001705,
          "ticks": 43199,
          "durationTicks": 119
        },
        {
          "time": 134.996875,
          "midi": 52,
          "name": "E3",
          "velocity": 1,
          "duration": 0.37187500000001705,
          "ticks": 43199,
          "durationTicks": 119
        },
        {
          "time": 135.375,
          "midi": 50,
          "name": "D3",
          "velocity": 0.7795275590551181,
          "duration": 0.18437499999998863,
          "ticks": 43320,
          "durationTicks": 59
        },
        {
          "time": 135.375,
          "midi": 54,
          "name": "F#3",
          "velocity": 1,
          "duration": 0.18437499999998863,
          "ticks": 43320,
          "durationTicks": 59
        },
        {
          "time": 135.5625,
          "midi": 52,
          "name": "E3",
          "velocity": 0.8503937007874016,
          "duration": 0.18437499999998863,
          "ticks": 43380,
          "durationTicks": 59
        },
        {
          "time": 135.5625,
          "midi": 55,
          "name": "G3",
          "velocity": 1,
          "duration": 0.18437499999998863,
          "ticks": 43380,
          "durationTicks": 59
        },
        {
          "time": 135.75,
          "midi": 50,
          "name": "D3",
          "velocity": 0.7244094488188977,
          "duration": 0.37187499999998863,
          "ticks": 43440,
          "durationTicks": 119
        },
        {
          "time": 135.75,
          "midi": 54,
          "name": "F#3",
          "velocity": 1,
          "duration": 0.37187499999998863,
          "ticks": 43440,
          "durationTicks": 119
        },
        {
          "time": 136.125,
          "midi": 50,
          "name": "D3",
          "velocity": 0.8818897637795275,
          "duration": 0.18437499999998863,
          "ticks": 43560,
          "durationTicks": 59
        },
        {
          "time": 136.125,
          "midi": 54,
          "name": "F#3",
          "velocity": 1,
          "duration": 0.18437499999998863,
          "ticks": 43560,
          "durationTicks": 59
        },
        {
          "time": 136.5,
          "midi": 49,
          "name": "C#3",
          "velocity": 1,
          "duration": 0.37187499999998863,
          "ticks": 43680,
          "durationTicks": 119
        },
        {
          "time": 136.5,
          "midi": 52,
          "name": "E3",
          "velocity": 1,
          "duration": 0.37187499999998863,
          "ticks": 43680,
          "durationTicks": 119
        },
        {
          "time": 136.875,
          "midi": 50,
          "name": "D3",
          "velocity": 0.8503937007874016,
          "duration": 0.18437499999998863,
          "ticks": 43800,
          "durationTicks": 59
        },
        {
          "time": 136.875,
          "midi": 54,
          "name": "F#3",
          "velocity": 1,
          "duration": 0.18437499999998863,
          "ticks": 43800,
          "durationTicks": 59
        },
        {
          "time": 137.0625,
          "midi": 52,
          "name": "E3",
          "velocity": 0.8267716535433071,
          "duration": 0.18437499999998863,
          "ticks": 43860,
          "durationTicks": 59
        },
        {
          "time": 137.0625,
          "midi": 55,
          "name": "G3",
          "velocity": 1,
          "duration": 0.18437499999998863,
          "ticks": 43860,
          "durationTicks": 59
        },
        {
          "time": 137.25,
          "midi": 66,
          "name": "F#4",
          "velocity": 1,
          "duration": 0.37187499999998863,
          "ticks": 43920,
          "durationTicks": 119
        },
        {
          "time": 137.25,
          "midi": 61,
          "name": "C#4",
          "velocity": 1,
          "duration": 0.37187499999998863,
          "ticks": 43920,
          "durationTicks": 119
        },
        {
          "time": 137.625,
          "midi": 64,
          "name": "E4",
          "velocity": 1,
          "duration": 0.37187499999998863,
          "ticks": 44040,
          "durationTicks": 119
        },
        {
          "time": 137.625,
          "midi": 61,
          "name": "C#4",
          "velocity": 1,
          "duration": 0.37187499999998863,
          "ticks": 44040,
          "durationTicks": 119
        },
        {
          "time": 137.996875,
          "midi": 59,
          "name": "B3",
          "velocity": 0.9763779527559056,
          "duration": 0.18437500000001705,
          "ticks": 44159,
          "durationTicks": 59
        },
        {
          "time": 137.996875,
          "midi": 62,
          "name": "D4",
          "velocity": 1,
          "duration": 0.18437500000001705,
          "ticks": 44159,
          "durationTicks": 59
        },
        {
          "time": 138.371875,
          "midi": 56,
          "name": "G#3",
          "velocity": 1,
          "duration": 0.18437500000001705,
          "ticks": 44279,
          "durationTicks": 59
        },
        {
          "time": 138.371875,
          "midi": 64,
          "name": "E4",
          "velocity": 1,
          "duration": 0.18437500000001705,
          "ticks": 44279,
          "durationTicks": 59
        },
        {
          "time": 138.746875,
          "midi": 57,
          "name": "A3",
          "velocity": 1,
          "duration": 0.18437500000001705,
          "ticks": 44399,
          "durationTicks": 59
        },
        {
          "time": 138.75,
          "midi": 57,
          "name": "A3",
          "velocity": 1,
          "duration": 0.18437499999998863,
          "ticks": 44400,
          "durationTicks": 59
        },
        {
          "time": 139.125,
          "midi": 62,
          "name": "D4",
          "velocity": 0.8818897637795275,
          "duration": 0.7468749999999886,
          "ticks": 44520,
          "durationTicks": 239
        },
        {
          "time": 139.125,
          "midi": 66,
          "name": "F#4",
          "velocity": 1,
          "duration": 0.7468749999999886,
          "ticks": 44520,
          "durationTicks": 239
        },
        {
          "time": 139.871875,
          "midi": 50,
          "name": "D3",
          "velocity": 0.7244094488188977,
          "duration": 0.18437500000001705,
          "ticks": 44759,
          "durationTicks": 59
        },
        {
          "time": 139.871875,
          "midi": 54,
          "name": "F#3",
          "velocity": 1,
          "duration": 0.18437500000001705,
          "ticks": 44759,
          "durationTicks": 59
        },
        {
          "time": 140.246875,
          "midi": 52,
          "name": "E3",
          "velocity": 0.937007874015748,
          "duration": 0.18437500000001705,
          "ticks": 44879,
          "durationTicks": 59
        },
        {
          "time": 140.246875,
          "midi": 55,
          "name": "G3",
          "velocity": 1,
          "duration": 0.18437500000001705,
          "ticks": 44879,
          "durationTicks": 59
        },
        {
          "time": 140.621875,
          "midi": 57,
          "name": "A3",
          "velocity": 1,
          "duration": 0.18437500000001705,
          "ticks": 44999,
          "durationTicks": 59
        },
        {
          "time": 140.621875,
          "midi": 54,
          "name": "F#3",
          "velocity": 1,
          "duration": 0.18437500000001705,
          "ticks": 44999,
          "durationTicks": 59
        },
        {
          "time": 140.996875,
          "midi": 57,
          "name": "A3",
          "velocity": 0.8818897637795275,
          "duration": 0.37187500000001705,
          "ticks": 45119,
          "durationTicks": 119
        },
        {
          "time": 140.996875,
          "midi": 54,
          "name": "F#3",
          "velocity": 1,
          "duration": 0.37187500000001705,
          "ticks": 45119,
          "durationTicks": 119
        },
        {
          "time": 141.371875,
          "midi": 52,
          "name": "E3",
          "velocity": 0.9763779527559056,
          "duration": 0.37187500000001705,
          "ticks": 45239,
          "durationTicks": 119
        },
        {
          "time": 141.371875,
          "midi": 55,
          "name": "G3",
          "velocity": 1,
          "duration": 0.37187500000001705,
          "ticks": 45239,
          "durationTicks": 119
        },
        {
          "time": 141.746875,
          "midi": 50,
          "name": "D3",
          "velocity": 0.905511811023622,
          "duration": 0.18437500000001705,
          "ticks": 45359,
          "durationTicks": 59
        },
        {
          "time": 141.746875,
          "midi": 54,
          "name": "F#3",
          "velocity": 1,
          "duration": 0.18437500000001705,
          "ticks": 45359,
          "durationTicks": 59
        },
        {
          "time": 142.121875,
          "midi": 52,
          "name": "E3",
          "velocity": 1,
          "duration": 0.18437500000001705,
          "ticks": 45479,
          "durationTicks": 59
        },
        {
          "time": 142.121875,
          "midi": 49,
          "name": "C#3",
          "velocity": 1,
          "duration": 0.18437500000001705,
          "ticks": 45479,
          "durationTicks": 59
        },
        {
          "time": 142.496875,
          "midi": 50,
          "name": "D3",
          "velocity": 0.905511811023622,
          "duration": 0.37187500000001705,
          "ticks": 45599,
          "durationTicks": 119
        },
        {
          "time": 142.496875,
          "midi": 54,
          "name": "F#3",
          "velocity": 1,
          "duration": 0.37187500000001705,
          "ticks": 45599,
          "durationTicks": 119
        },
        {
          "time": 142.871875,
          "midi": 50,
          "name": "D3",
          "velocity": 0.905511811023622,
          "duration": 0.18437500000001705,
          "ticks": 45719,
          "durationTicks": 59
        },
        {
          "time": 142.871875,
          "midi": 54,
          "name": "F#3",
          "velocity": 1,
          "duration": 0.18437500000001705,
          "ticks": 45719,
          "durationTicks": 59
        },
        {
          "time": 143.246875,
          "midi": 49,
          "name": "C#3",
          "velocity": 1,
          "duration": 0.18437500000001705,
          "ticks": 45839,
          "durationTicks": 59
        },
        {
          "time": 143.246875,
          "midi": 52,
          "name": "E3",
          "velocity": 1,
          "duration": 0.18437500000001705,
          "ticks": 45839,
          "durationTicks": 59
        },
        {
          "time": 143.621875,
          "midi": 50,
          "name": "D3",
          "velocity": 0.905511811023622,
          "duration": 0.18437500000001705,
          "ticks": 45959,
          "durationTicks": 59
        },
        {
          "time": 143.621875,
          "midi": 54,
          "name": "F#3",
          "velocity": 1,
          "duration": 0.18437500000001705,
          "ticks": 45959,
          "durationTicks": 59
        },
        {
          "time": 143.996875,
          "midi": 49,
          "name": "C#3",
          "velocity": 1,
          "duration": 0.559375000000017,
          "ticks": 46079,
          "durationTicks": 179
        },
        {
          "time": 143.996875,
          "midi": 52,
          "name": "E3",
          "velocity": 1,
          "duration": 0.559375000000017,
          "ticks": 46079,
          "durationTicks": 179
        },
        {
          "time": 144.559375,
          "midi": 50,
          "name": "D3",
          "velocity": 0.905511811023622,
          "duration": 0.18437500000001705,
          "ticks": 46259,
          "durationTicks": 59
        },
        {
          "time": 144.559375,
          "midi": 54,
          "name": "F#3",
          "velocity": 1,
          "duration": 0.18437500000001705,
          "ticks": 46259,
          "durationTicks": 59
        },
        {
          "time": 144.746875,
          "midi": 50,
          "name": "D3",
          "velocity": 0.9763779527559056,
          "duration": 0.37187500000001705,
          "ticks": 46319,
          "durationTicks": 119
        },
        {
          "time": 144.746875,
          "midi": 54,
          "name": "F#3",
          "velocity": 1,
          "duration": 0.37187500000001705,
          "ticks": 46319,
          "durationTicks": 119
        },
        {
          "time": 145.121875,
          "midi": 54,
          "name": "F#3",
          "velocity": 1,
          "duration": 0.37187500000001705,
          "ticks": 46439,
          "durationTicks": 119
        },
        {
          "time": 145.121875,
          "midi": 57,
          "name": "A3",
          "velocity": 1,
          "duration": 0.37187500000001705,
          "ticks": 46439,
          "durationTicks": 119
        },
        {
          "time": 145.5,
          "midi": 55,
          "name": "G3",
          "velocity": 0.9763779527559056,
          "duration": 0.5593749999999886,
          "ticks": 46560,
          "durationTicks": 179
        },
        {
          "time": 145.5,
          "midi": 52,
          "name": "E3",
          "velocity": 1,
          "duration": 0.5593749999999886,
          "ticks": 46560,
          "durationTicks": 179
        },
        {
          "time": 146.0625,
          "midi": 50,
          "name": "D3",
          "velocity": 1,
          "duration": 0.18437499999998863,
          "ticks": 46740,
          "durationTicks": 59
        },
        {
          "time": 146.0625,
          "midi": 54,
          "name": "F#3",
          "velocity": 1,
          "duration": 0.18437499999998863,
          "ticks": 46740,
          "durationTicks": 59
        },
        {
          "time": 146.25,
          "midi": 50,
          "name": "D3",
          "velocity": 1,
          "duration": 0.37187499999998863,
          "ticks": 46800,
          "durationTicks": 119
        },
        {
          "time": 146.25,
          "midi": 54,
          "name": "F#3",
          "velocity": 1,
          "duration": 0.37187499999998863,
          "ticks": 46800,
          "durationTicks": 119
        },
        {
          "time": 146.625,
          "midi": 62,
          "name": "D4",
          "velocity": 1,
          "duration": 0.37187499999998863,
          "ticks": 46920,
          "durationTicks": 119
        },
        {
          "time": 146.625,
          "midi": 59,
          "name": "B3",
          "velocity": 1,
          "duration": 0.37187499999998863,
          "ticks": 46920,
          "durationTicks": 119
        },
        {
          "time": 147,
          "midi": 60,
          "name": "C4",
          "velocity": 0.9763779527559056,
          "duration": 0.5593749999999886,
          "ticks": 47040,
          "durationTicks": 179
        },
        {
          "time": 147,
          "midi": 57,
          "name": "A3",
          "velocity": 1,
          "duration": 0.5593749999999886,
          "ticks": 47040,
          "durationTicks": 179
        },
        {
          "time": 147.5625,
          "midi": 59,
          "name": "B3",
          "velocity": 1,
          "duration": 0.18437499999998863,
          "ticks": 47220,
          "durationTicks": 59
        },
        {
          "time": 147.5625,
          "midi": 55,
          "name": "G3",
          "velocity": 1,
          "duration": 0.18437499999998863,
          "ticks": 47220,
          "durationTicks": 59
        },
        {
          "time": 147.75,
          "midi": 59,
          "name": "B3",
          "velocity": 1,
          "duration": 0.37187499999998863,
          "ticks": 47280,
          "durationTicks": 119
        },
        {
          "time": 147.75,
          "midi": 55,
          "name": "G3",
          "velocity": 1,
          "duration": 0.37187499999998863,
          "ticks": 47280,
          "durationTicks": 119
        },
        {
          "time": 148.125,
          "midi": 59,
          "name": "B3",
          "velocity": 0.7795275590551181,
          "duration": 0.37187499999998863,
          "ticks": 47400,
          "durationTicks": 119
        },
        {
          "time": 148.125,
          "midi": 67,
          "name": "G4",
          "velocity": 0.905511811023622,
          "duration": 0.37187499999998863,
          "ticks": 47400,
          "durationTicks": 119
        },
        {
          "time": 148.5,
          "midi": 59,
          "name": "B3",
          "velocity": 1,
          "duration": 0.7468749999999886,
          "ticks": 47520,
          "durationTicks": 239
        },
        {
          "time": 148.5,
          "midi": 66,
          "name": "F#4",
          "velocity": 1,
          "duration": 0.5593749999999886,
          "ticks": 47520,
          "durationTicks": 179
        },
        {
          "time": 149.0625,
          "midi": 64,
          "name": "E4",
          "velocity": 1,
          "duration": 0.18437499999998863,
          "ticks": 47700,
          "durationTicks": 59
        },
        {
          "time": 149.25,
          "midi": 61,
          "name": "C#4",
          "velocity": 1,
          "duration": 0.37187499999998863,
          "ticks": 47760,
          "durationTicks": 119
        },
        {
          "time": 149.25,
          "midi": 64,
          "name": "E4",
          "velocity": 1,
          "duration": 0.37187499999998863,
          "ticks": 47760,
          "durationTicks": 119
        },
        {
          "time": 149.625,
          "midi": 55,
          "name": "G3",
          "velocity": 0.937007874015748,
          "duration": 0.18437499999998863,
          "ticks": 47880,
          "durationTicks": 59
        },
        {
          "time": 149.625,
          "midi": 64,
          "name": "E4",
          "velocity": 1,
          "duration": 0.18437499999998863,
          "ticks": 47880,
          "durationTicks": 59
        },
        {
          "time": 149.8125,
          "midi": 57,
          "name": "A3",
          "velocity": 1,
          "duration": 0.18437499999998863,
          "ticks": 47940,
          "durationTicks": 59
        },
        {
          "time": 149.8125,
          "midi": 66,
          "name": "F#4",
          "velocity": 1,
          "duration": 0.18437499999998863,
          "ticks": 47940,
          "durationTicks": 59
        },
        {
          "time": 150,
          "midi": 55,
          "name": "G3",
          "velocity": 0.7795275590551181,
          "duration": 0.5593749999999886,
          "ticks": 48000,
          "durationTicks": 179
        },
        {
          "time": 150,
          "midi": 64,
          "name": "E4",
          "velocity": 1,
          "duration": 0.5593749999999886,
          "ticks": 48000,
          "durationTicks": 179
        },
        {
          "time": 150.5625,
          "midi": 54,
          "name": "F#3",
          "velocity": 0.6535433070866141,
          "duration": 0.18437499999998863,
          "ticks": 48180,
          "durationTicks": 59
        },
        {
          "time": 150.5625,
          "midi": 62,
          "name": "D4",
          "velocity": 0.7401574803149606,
          "duration": 0.18437499999998863,
          "ticks": 48180,
          "durationTicks": 59
        },
        {
          "time": 150.75,
          "midi": 54,
          "name": "F#3",
          "velocity": 1,
          "duration": 0.18437499999998863,
          "ticks": 48240,
          "durationTicks": 59
        },
        {
          "time": 150.75,
          "midi": 62,
          "name": "D4",
          "velocity": 1,
          "duration": 0.18437499999998863,
          "ticks": 48240,
          "durationTicks": 59
        },
        {
          "time": 150.9375,
          "midi": 57,
          "name": "A3",
          "velocity": 1,
          "duration": 0.18437499999998863,
          "ticks": 48300,
          "durationTicks": 59
        },
        {
          "time": 150.9375,
          "midi": 57,
          "name": "A3",
          "velocity": 1,
          "duration": 0.37187499999998863,
          "ticks": 48300,
          "durationTicks": 119
        },
        {
          "time": 151.125,
          "midi": 69,
          "name": "A4",
          "velocity": 1,
          "duration": 0.18437499999998863,
          "ticks": 48360,
          "durationTicks": 59
        },
        {
          "time": 151.3125,
          "midi": 66,
          "name": "F#4",
          "velocity": 1,
          "duration": 0.18437499999998863,
          "ticks": 48420,
          "durationTicks": 59
        },
        {
          "time": 151.3125,
          "midi": 62,
          "name": "D4",
          "velocity": 1,
          "duration": 0.18437499999998863,
          "ticks": 48420,
          "durationTicks": 59
        },
        {
          "time": 151.5,
          "midi": 59,
          "name": "B3",
          "velocity": 1,
          "duration": 0.7468749999999886,
          "ticks": 48480,
          "durationTicks": 239
        },
        {
          "time": 151.5,
          "midi": 66,
          "name": "F#4",
          "velocity": 1,
          "duration": 0.5593749999999886,
          "ticks": 48480,
          "durationTicks": 179
        },
        {
          "time": 152.0625,
          "midi": 64,
          "name": "E4",
          "velocity": 1,
          "duration": 0.18437499999998863,
          "ticks": 48660,
          "durationTicks": 59
        },
        {
          "time": 152.25,
          "midi": 61,
          "name": "C#4",
          "velocity": 1,
          "duration": 1.4968749999999886,
          "ticks": 48720,
          "durationTicks": 479
        },
        {
          "time": 152.25,
          "midi": 64,
          "name": "E4",
          "velocity": 1,
          "duration": 0.37187499999998863,
          "ticks": 48720,
          "durationTicks": 119
        },
        {
          "time": 152.625,
          "midi": 64,
          "name": "E4",
          "velocity": 1,
          "duration": 0.37187499999998863,
          "ticks": 48840,
          "durationTicks": 119
        },
        {
          "time": 153,
          "midi": 67,
          "name": "G4",
          "velocity": 1,
          "duration": 0.5593749999999886,
          "ticks": 48960,
          "durationTicks": 179
        },
        {
          "time": 153.5625,
          "midi": 66,
          "name": "F#4",
          "velocity": 1,
          "duration": 0.18437499999998863,
          "ticks": 49140,
          "durationTicks": 59
        },
        {
          "time": 153.75,
          "midi": 62,
          "name": "D4",
          "velocity": 0.5511811023622047,
          "duration": 0.7468749999999886,
          "ticks": 49200,
          "durationTicks": 239
        },
        {
          "time": 153.75,
          "midi": 66,
          "name": "F#4",
          "velocity": 1,
          "duration": 0.37187499999998863,
          "ticks": 49200,
          "durationTicks": 119
        },
        {
          "time": 154.125,
          "midi": 66,
          "name": "F#4",
          "velocity": 1,
          "duration": 0.37187499999998863,
          "ticks": 49320,
          "durationTicks": 119
        },
        {
          "time": 154.5,
          "midi": 54,
          "name": "F#3",
          "velocity": 1,
          "duration": 0.7468749999999886,
          "ticks": 49440,
          "durationTicks": 239
        },
        {
          "time": 154.5,
          "midi": 57,
          "name": "A3",
          "velocity": 1,
          "duration": 0.5593749999999886,
          "ticks": 49440,
          "durationTicks": 179
        },
        {
          "time": 155.0625,
          "midi": 56,
          "name": "G#3",
          "velocity": 1,
          "duration": 0.18437499999998863,
          "ticks": 49620,
          "durationTicks": 59
        },
        {
          "time": 155.25,
          "midi": 53,
          "name": "F3",
          "velocity": 1,
          "duration": 0.7468749999999886,
          "ticks": 49680,
          "durationTicks": 239
        },
        {
          "time": 155.25,
          "midi": 56,
          "name": "G#3",
          "velocity": 1,
          "duration": 0.37187499999998863,
          "ticks": 49680,
          "durationTicks": 119
        },
        {
          "time": 155.625,
          "midi": 56,
          "name": "G#3",
          "velocity": 1,
          "duration": 0.37187499999998863,
          "ticks": 49800,
          "durationTicks": 119
        },
        {
          "time": 156,
          "midi": 55,
          "name": "G3",
          "velocity": 1,
          "duration": 0.7468749999999886,
          "ticks": 49920,
          "durationTicks": 239
        },
        {
          "time": 156,
          "midi": 59,
          "name": "B3",
          "velocity": 1,
          "duration": 0.5593749999999886,
          "ticks": 49920,
          "durationTicks": 179
        },
        {
          "time": 156.5625,
          "midi": 58,
          "name": "A#3",
          "velocity": 1,
          "duration": 0.18437499999998863,
          "ticks": 50100,
          "durationTicks": 59
        },
        {
          "time": 156.75,
          "midi": 54,
          "name": "F#3",
          "velocity": 1,
          "duration": 0.7468749999999886,
          "ticks": 50160,
          "durationTicks": 239
        },
        {
          "time": 156.75,
          "midi": 61,
          "name": "C#4",
          "velocity": 1,
          "duration": 0.5593749999999886,
          "ticks": 50160,
          "durationTicks": 179
        },
        {
          "time": 157.3125,
          "midi": 59,
          "name": "B3",
          "velocity": 1,
          "duration": 0.18437499999998863,
          "ticks": 50340,
          "durationTicks": 59
        },
        {
          "time": 157.5,
          "midi": 56,
          "name": "G#3",
          "velocity": 1,
          "duration": 0.7468749999999886,
          "ticks": 50400,
          "durationTicks": 239
        },
        {
          "time": 157.5,
          "midi": 62,
          "name": "D4",
          "velocity": 1,
          "duration": 0.5593749999999886,
          "ticks": 50400,
          "durationTicks": 179
        },
        {
          "time": 158.0625,
          "midi": 61,
          "name": "C#4",
          "velocity": 1,
          "duration": 0.18437499999998863,
          "ticks": 50580,
          "durationTicks": 59
        },
        {
          "time": 158.25,
          "midi": 57,
          "name": "A3",
          "velocity": 1,
          "duration": 0.7468749999999886,
          "ticks": 50640,
          "durationTicks": 239
        },
        {
          "time": 158.25,
          "midi": 64,
          "name": "E4",
          "velocity": 1,
          "duration": 0.5593749999999886,
          "ticks": 50640,
          "durationTicks": 179
        },
        {
          "time": 158.8125,
          "midi": 62,
          "name": "D4",
          "velocity": 1,
          "duration": 0.18437499999998863,
          "ticks": 50820,
          "durationTicks": 59
        },
        {
          "time": 159,
          "midi": 59,
          "name": "B3",
          "velocity": 1,
          "duration": 0.7468749999999886,
          "ticks": 50880,
          "durationTicks": 239
        },
        {
          "time": 159,
          "midi": 66,
          "name": "F#4",
          "velocity": 1,
          "duration": 0.5593749999999886,
          "ticks": 50880,
          "durationTicks": 179
        },
        {
          "time": 159.5625,
          "midi": 64,
          "name": "E4",
          "velocity": 1,
          "duration": 0.18437499999998863,
          "ticks": 51060,
          "durationTicks": 59
        },
        {
          "time": 159.75,
          "midi": 59,
          "name": "B3",
          "velocity": 1,
          "duration": 0.7468749999999886,
          "ticks": 51120,
          "durationTicks": 239
        },
        {
          "time": 159.75,
          "midi": 64,
          "name": "E4",
          "velocity": 1,
          "duration": 0.5593749999999886,
          "ticks": 51120,
          "durationTicks": 179
        },
        {
          "time": 160.3125,
          "midi": 62,
          "name": "D4",
          "velocity": 1,
          "duration": 0.18437499999998863,
          "ticks": 51300,
          "durationTicks": 59
        },
        {
          "time": 160.5,
          "midi": 59,
          "name": "B3",
          "velocity": 1,
          "duration": 0.7468749999999886,
          "ticks": 51360,
          "durationTicks": 239
        },
        {
          "time": 160.5,
          "midi": 66,
          "name": "F#4",
          "velocity": 1,
          "duration": 0.5593749999999886,
          "ticks": 51360,
          "durationTicks": 179
        },
        {
          "time": 161.0625,
          "midi": 64,
          "name": "E4",
          "velocity": 1,
          "duration": 0.375,
          "ticks": 51540,
          "durationTicks": 120
        },
        {
          "time": 161.25,
          "midi": 59,
          "name": "B3",
          "velocity": 1,
          "duration": 0.18437499999998863,
          "ticks": 51600,
          "durationTicks": 59
        },
        {
          "time": 161.4375,
          "midi": 62,
          "name": "D4",
          "velocity": 1,
          "duration": 0.18437499999998863,
          "ticks": 51660,
          "durationTicks": 59
        },
        {
          "time": 161.4375,
          "midi": 62,
          "name": "D4",
          "velocity": 1,
          "duration": 0.18437499999998863,
          "ticks": 51660,
          "durationTicks": 59
        },
        {
          "time": 161.625,
          "midi": 59,
          "name": "B3",
          "velocity": 1,
          "duration": 0.18437499999998863,
          "ticks": 51720,
          "durationTicks": 59
        },
        {
          "time": 161.625,
          "midi": 59,
          "name": "B3",
          "velocity": 1,
          "duration": 0.18437499999998863,
          "ticks": 51720,
          "durationTicks": 59
        },
        {
          "time": 161.8125,
          "midi": 64,
          "name": "E4",
          "velocity": 1,
          "duration": 0.5625,
          "ticks": 51780,
          "durationTicks": 180
        },
        {
          "time": 161.8125,
          "midi": 64,
          "name": "E4",
          "velocity": 1,
          "duration": 0.5625,
          "ticks": 51780,
          "durationTicks": 180
        },
        {
          "time": 162.375,
          "midi": 61,
          "name": "C#4",
          "velocity": 1,
          "duration": 0.37187499999998863,
          "ticks": 51960,
          "durationTicks": 119
        },
        {
          "time": 162.375,
          "midi": 61,
          "name": "C#4",
          "velocity": 1,
          "duration": 0.37187499999998863,
          "ticks": 51960,
          "durationTicks": 119
        },
        {
          "time": 162.75,
          "midi": 57,
          "name": "A3",
          "velocity": 1,
          "duration": 0.37187499999998863,
          "ticks": 52080,
          "durationTicks": 119
        },
        {
          "time": 162.75,
          "midi": 57,
          "name": "A3",
          "velocity": 1,
          "duration": 0.37187499999998863,
          "ticks": 52080,
          "durationTicks": 119
        },
        {
          "time": 163.125,
          "midi": 66,
          "name": "F#4",
          "velocity": 1,
          "duration": 0.37187499999998863,
          "ticks": 52200,
          "durationTicks": 119
        },
        {
          "time": 163.125,
          "midi": 66,
          "name": "F#4",
          "velocity": 1,
          "duration": 0.37187499999998863,
          "ticks": 52200,
          "durationTicks": 119
        },
        {
          "time": 163.5,
          "midi": 64,
          "name": "E4",
          "velocity": 1,
          "duration": 0.37187499999998863,
          "ticks": 52320,
          "durationTicks": 119
        },
        {
          "time": 163.5,
          "midi": 64,
          "name": "E4",
          "velocity": 1,
          "duration": 0.37187499999998863,
          "ticks": 52320,
          "durationTicks": 119
        },
        {
          "time": 163.875,
          "midi": 57,
          "name": "A3",
          "velocity": 1,
          "duration": 0.7468749999999886,
          "ticks": 52440,
          "durationTicks": 239
        },
        {
          "time": 163.875,
          "midi": 57,
          "name": "A3",
          "velocity": 1,
          "duration": 0.7468749999999886,
          "ticks": 52440,
          "durationTicks": 239
        },
        {
          "time": 164.625,
          "midi": 56,
          "name": "G#3",
          "velocity": 1,
          "duration": 0.37187499999998863,
          "ticks": 52680,
          "durationTicks": 119
        },
        {
          "time": 164.625,
          "midi": 56,
          "name": "G#3",
          "velocity": 1,
          "duration": 0.37187499999998863,
          "ticks": 52680,
          "durationTicks": 119
        },
        {
          "time": 165,
          "midi": 57,
          "name": "A3",
          "velocity": 0.8267716535433071,
          "duration": 0.09062499999998863,
          "ticks": 52800,
          "durationTicks": 29
        },
        {
          "time": 165,
          "midi": 57,
          "name": "A3",
          "velocity": 0.8267716535433071,
          "duration": 0.09062499999998863,
          "ticks": 52800,
          "durationTicks": 29
        },
        {
          "time": 165.1875,
          "midi": 57,
          "name": "A3",
          "velocity": 1,
          "duration": 0.09062499999998863,
          "ticks": 52860,
          "durationTicks": 29
        },
        {
          "time": 165.1875,
          "midi": 57,
          "name": "A3",
          "velocity": 1,
          "duration": 0.09062499999998863,
          "ticks": 52860,
          "durationTicks": 29
        },
        {
          "time": 165.28125,
          "midi": 59,
          "name": "B3",
          "velocity": 1,
          "duration": 0.09062499999998863,
          "ticks": 52890,
          "durationTicks": 29
        },
        {
          "time": 165.28125,
          "midi": 59,
          "name": "B3",
          "velocity": 1,
          "duration": 0.09062499999998863,
          "ticks": 52890,
          "durationTicks": 29
        },
        {
          "time": 165.375,
          "midi": 61,
          "name": "C#4",
          "velocity": 1,
          "duration": 0.09062499999998863,
          "ticks": 52920,
          "durationTicks": 29
        },
        {
          "time": 165.375,
          "midi": 61,
          "name": "C#4",
          "velocity": 1,
          "duration": 0.09062499999998863,
          "ticks": 52920,
          "durationTicks": 29
        },
        {
          "time": 165.5625,
          "midi": 61,
          "name": "C#4",
          "velocity": 1,
          "duration": 0.09062499999998863,
          "ticks": 52980,
          "durationTicks": 29
        },
        {
          "time": 165.5625,
          "midi": 61,
          "name": "C#4",
          "velocity": 1,
          "duration": 0.09062499999998863,
          "ticks": 52980,
          "durationTicks": 29
        },
        {
          "time": 165.65625,
          "midi": 62,
          "name": "D4",
          "velocity": 1,
          "duration": 0.09062499999998863,
          "ticks": 53010,
          "durationTicks": 29
        },
        {
          "time": 165.65625,
          "midi": 62,
          "name": "D4",
          "velocity": 1,
          "duration": 0.09062499999998863,
          "ticks": 53010,
          "durationTicks": 29
        },
        {
          "time": 165.75,
          "midi": 64,
          "name": "E4",
          "velocity": 1,
          "duration": 0.09062499999998863,
          "ticks": 53040,
          "durationTicks": 29
        },
        {
          "time": 165.75,
          "midi": 64,
          "name": "E4",
          "velocity": 1,
          "duration": 0.09062499999998863,
          "ticks": 53040,
          "durationTicks": 29
        },
        {
          "time": 165.9375,
          "midi": 64,
          "name": "E4",
          "velocity": 1,
          "duration": 0.09062499999998863,
          "ticks": 53100,
          "durationTicks": 29
        },
        {
          "time": 165.9375,
          "midi": 64,
          "name": "E4",
          "velocity": 1,
          "duration": 0.09062499999998863,
          "ticks": 53100,
          "durationTicks": 29
        },
        {
          "time": 166.03125,
          "midi": 66,
          "name": "F#4",
          "velocity": 1,
          "duration": 0.09062499999998863,
          "ticks": 53130,
          "durationTicks": 29
        },
        {
          "time": 166.03125,
          "midi": 66,
          "name": "F#4",
          "velocity": 1,
          "duration": 0.09062499999998863,
          "ticks": 53130,
          "durationTicks": 29
        },
        {
          "time": 166.125,
          "midi": 68,
          "name": "G#4",
          "velocity": 1,
          "duration": 0.09062499999998863,
          "ticks": 53160,
          "durationTicks": 29
        },
        {
          "time": 166.125,
          "midi": 68,
          "name": "G#4",
          "velocity": 1,
          "duration": 0.09062499999998863,
          "ticks": 53160,
          "durationTicks": 29
        },
        {
          "time": 166.3125,
          "midi": 52,
          "name": "E3",
          "velocity": 1,
          "duration": 0.05937500000001705,
          "ticks": 53220,
          "durationTicks": 19
        },
        {
          "time": 166.3125,
          "midi": 52,
          "name": "E3",
          "velocity": 1,
          "duration": 0.05937500000001705,
          "ticks": 53220,
          "durationTicks": 19
        },
        {
          "time": 166.375,
          "midi": 54,
          "name": "F#3",
          "velocity": 1,
          "duration": 0.05937499999998863,
          "ticks": 53240,
          "durationTicks": 19
        },
        {
          "time": 166.375,
          "midi": 54,
          "name": "F#3",
          "velocity": 1,
          "duration": 0.05937499999998863,
          "ticks": 53240,
          "durationTicks": 19
        },
        {
          "time": 166.4375,
          "midi": 56,
          "name": "G#3",
          "velocity": 1,
          "duration": 0.05937499999998863,
          "ticks": 53260,
          "durationTicks": 19
        },
        {
          "time": 166.4375,
          "midi": 56,
          "name": "G#3",
          "velocity": 1,
          "duration": 0.05937499999998863,
          "ticks": 53260,
          "durationTicks": 19
        },
        {
          "time": 166.5,
          "midi": 57,
          "name": "A3",
          "velocity": 1,
          "duration": 0.7468749999999886,
          "ticks": 53280,
          "durationTicks": 239
        },
        {
          "time": 166.5,
          "midi": 57,
          "name": "A3",
          "velocity": 1,
          "duration": 0.7468749999999886,
          "ticks": 53280,
          "durationTicks": 239
        },
        {
          "time": 167.25,
          "midi": 52,
          "name": "E3",
          "velocity": 1,
          "duration": 0.18437499999998863,
          "ticks": 53520,
          "durationTicks": 59
        },
        {
          "time": 167.25,
          "midi": 52,
          "name": "E3",
          "velocity": 1,
          "duration": 0.18437499999998863,
          "ticks": 53520,
          "durationTicks": 59
        },
        {
          "time": 167.625,
          "midi": 52,
          "name": "E3",
          "velocity": 1,
          "duration": 0.18437499999998863,
          "ticks": 53640,
          "durationTicks": 59
        },
        {
          "time": 167.625,
          "midi": 52,
          "name": "E3",
          "velocity": 1,
          "duration": 0.18437499999998863,
          "ticks": 53640,
          "durationTicks": 59
        },
        {
          "time": 176.25,
          "midi": 56,
          "name": "G#3",
          "velocity": 1,
          "duration": 0.3687500000000057,
          "ticks": 55080,
          "durationTicks": 59
        },
        {
          "time": 176.25,
          "midi": 44,
          "name": "G#2",
          "velocity": 1,
          "duration": 0.3687500000000057,
          "ticks": 55080,
          "durationTicks": 59
        },
        {
          "time": 176.625,
          "midi": 64,
          "name": "E4",
          "velocity": 1,
          "duration": 0.3687500000000057,
          "ticks": 55140,
          "durationTicks": 59
        },
        {
          "time": 176.625,
          "midi": 56,
          "name": "G#3",
          "velocity": 1,
          "duration": 0.3687500000000057,
          "ticks": 55140,
          "durationTicks": 59
        },
        {
          "time": 177,
          "midi": 64,
          "name": "E4",
          "velocity": 1,
          "duration": 0.18437499999998863,
          "ticks": 55200,
          "durationTicks": 59
        },
        {
          "time": 177,
          "midi": 57,
          "name": "A3",
          "velocity": 1,
          "duration": 0.18437499999998863,
          "ticks": 55200,
          "durationTicks": 59
        },
        {
          "time": 177.1875,
          "midi": 61,
          "name": "C#4",
          "velocity": 1,
          "duration": 0.18437499999998863,
          "ticks": 55260,
          "durationTicks": 59
        },
        {
          "time": 177.1875,
          "midi": 61,
          "name": "C#4",
          "velocity": 1,
          "duration": 0.18437499999998863,
          "ticks": 55260,
          "durationTicks": 59
        },
        {
          "time": 177.375,
          "midi": 57,
          "name": "A3",
          "velocity": 1,
          "duration": 0.09062499999998863,
          "ticks": 55320,
          "durationTicks": 29
        },
        {
          "time": 177.375,
          "midi": 57,
          "name": "A3",
          "velocity": 1,
          "duration": 0.09062499999998863,
          "ticks": 55320,
          "durationTicks": 29
        },
        {
          "time": 177.5625,
          "midi": 59,
          "name": "B3",
          "velocity": 1,
          "duration": 0.09062499999998863,
          "ticks": 55380,
          "durationTicks": 29
        },
        {
          "time": 177.5625,
          "midi": 57,
          "name": "A3",
          "velocity": 1,
          "duration": 0.09062499999998863,
          "ticks": 55380,
          "durationTicks": 29
        },
        {
          "time": 177.75,
          "midi": 61,
          "name": "C#4",
          "velocity": 1,
          "duration": 0.37187499999998863,
          "ticks": 55440,
          "durationTicks": 119
        },
        {
          "time": 177.75,
          "midi": 57,
          "name": "A3",
          "velocity": 1,
          "duration": 0.37187499999998863,
          "ticks": 55440,
          "durationTicks": 119
        },
        {
          "time": 178.125,
          "midi": 59,
          "name": "B3",
          "velocity": 1,
          "duration": 0.37187499999998863,
          "ticks": 55560,
          "durationTicks": 119
        },
        {
          "time": 178.125,
          "midi": 56,
          "name": "G#3",
          "velocity": 1,
          "duration": 0.37187499999998863,
          "ticks": 55560,
          "durationTicks": 119
        },
        {
          "time": 178.875,
          "midi": 62,
          "name": "D4",
          "velocity": 1,
          "duration": 0.18437499999998863,
          "ticks": 55800,
          "durationTicks": 59
        },
        {
          "time": 178.875,
          "midi": 59,
          "name": "B3",
          "velocity": 1,
          "duration": 0.18437499999998863,
          "ticks": 55800,
          "durationTicks": 59
        },
        {
          "time": 179.625,
          "midi": 61,
          "name": "C#4",
          "velocity": 1,
          "duration": 0.18437499999998863,
          "ticks": 56040,
          "durationTicks": 59
        },
        {
          "time": 179.625,
          "midi": 57,
          "name": "A3",
          "velocity": 1,
          "duration": 0.18437499999998863,
          "ticks": 56040,
          "durationTicks": 59
        },
        {
          "time": 180.75,
          "midi": 41,
          "name": "F2",
          "velocity": 1,
          "duration": 0.9375,
          "ticks": 56400,
          "durationTicks": 300
        },
        {
          "time": 180.75,
          "midi": 58,
          "name": "A#3",
          "velocity": 1,
          "duration": 0.9375,
          "ticks": 56400,
          "durationTicks": 300
        },
        {
          "time": 181.6875,
          "midi": 57,
          "name": "A3",
          "velocity": 1,
          "duration": 0.09062499999998863,
          "ticks": 56700,
          "durationTicks": 29
        },
        {
          "time": 181.6875,
          "midi": 45,
          "name": "A2",
          "velocity": 1,
          "duration": 0.09062499999998863,
          "ticks": 56700,
          "durationTicks": 29
        },
        {
          "time": 181.875,
          "midi": 45,
          "name": "A2",
          "velocity": 1,
          "duration": 0.09062499999998863,
          "ticks": 56760,
          "durationTicks": 29
        },
        {
          "time": 181.875,
          "midi": 57,
          "name": "A3",
          "velocity": 1,
          "duration": 0.09062499999998863,
          "ticks": 56760,
          "durationTicks": 29
        },
        {
          "time": 182.0625,
          "midi": 62,
          "name": "D4",
          "velocity": 1,
          "duration": 0.09062499999998863,
          "ticks": 56820,
          "durationTicks": 29
        },
        {
          "time": 182.0625,
          "midi": 50,
          "name": "D3",
          "velocity": 1,
          "duration": 0.09062499999998863,
          "ticks": 56820,
          "durationTicks": 29
        },
        {
          "time": 182.25,
          "midi": 50,
          "name": "D3",
          "velocity": 1,
          "duration": 0.09062499999998863,
          "ticks": 56880,
          "durationTicks": 29
        },
        {
          "time": 182.25,
          "midi": 62,
          "name": "D4",
          "velocity": 1,
          "duration": 0.09062499999998863,
          "ticks": 56880,
          "durationTicks": 29
        },
        {
          "time": 182.4375,
          "midi": 65,
          "name": "F4",
          "velocity": 1,
          "duration": 0.09062499999998863,
          "ticks": 56940,
          "durationTicks": 29
        },
        {
          "time": 182.4375,
          "midi": 53,
          "name": "F3",
          "velocity": 1,
          "duration": 0.09062499999998863,
          "ticks": 56940,
          "durationTicks": 29
        },
        {
          "time": 182.625,
          "midi": 53,
          "name": "F3",
          "velocity": 1,
          "duration": 0.09062499999998863,
          "ticks": 57000,
          "durationTicks": 29
        },
        {
          "time": 182.625,
          "midi": 65,
          "name": "F4",
          "velocity": 1,
          "duration": 0.09062499999998863,
          "ticks": 57000,
          "durationTicks": 29
        },
        {
          "time": 182.8125,
          "midi": 69,
          "name": "A4",
          "velocity": 1,
          "duration": 0.09062499999998863,
          "ticks": 57060,
          "durationTicks": 29
        },
        {
          "time": 182.8125,
          "midi": 57,
          "name": "A3",
          "velocity": 1,
          "duration": 0.09062499999998863,
          "ticks": 57060,
          "durationTicks": 29
        },
        {
          "time": 183,
          "midi": 69,
          "name": "A4",
          "velocity": 1,
          "duration": 0.09062499999998863,
          "ticks": 57120,
          "durationTicks": 29
        },
        {
          "time": 183,
          "midi": 57,
          "name": "A3",
          "velocity": 1,
          "duration": 0.09062499999998863,
          "ticks": 57120,
          "durationTicks": 29
        },
        {
          "time": 183.1875,
          "midi": 62,
          "name": "D4",
          "velocity": 1,
          "duration": 0.09062499999998863,
          "ticks": 57180,
          "durationTicks": 29
        },
        {
          "time": 183.1875,
          "midi": 50,
          "name": "D3",
          "velocity": 1,
          "duration": 0.09062499999998863,
          "ticks": 57180,
          "durationTicks": 29
        },
        {
          "time": 183.375,
          "midi": 50,
          "name": "D3",
          "velocity": 0.9763779527559056,
          "duration": 0.18437499999998863,
          "ticks": 57240,
          "durationTicks": 59
        },
        {
          "time": 183.375,
          "midi": 62,
          "name": "D4",
          "velocity": 1,
          "duration": 0.18437499999998863,
          "ticks": 57240,
          "durationTicks": 59
        },
        {
          "time": 183.5625,
          "midi": 65,
          "name": "F4",
          "velocity": 1,
          "duration": 0.18437499999998863,
          "ticks": 57300,
          "durationTicks": 59
        },
        {
          "time": 183.5625,
          "midi": 53,
          "name": "F3",
          "velocity": 1,
          "duration": 0.18437499999998863,
          "ticks": 57300,
          "durationTicks": 59
        },
        {
          "time": 183.75,
          "midi": 53,
          "name": "F3",
          "velocity": 1,
          "duration": 0.18437499999998863,
          "ticks": 57360,
          "durationTicks": 59
        },
        {
          "time": 183.75,
          "midi": 65,
          "name": "F4",
          "velocity": 1,
          "duration": 0.18437499999998863,
          "ticks": 57360,
          "durationTicks": 59
        },
        {
          "time": 183.9375,
          "midi": 57,
          "name": "A3",
          "velocity": 1,
          "duration": 0.18437499999998863,
          "ticks": 57420,
          "durationTicks": 59
        },
        {
          "time": 183.9375,
          "midi": 45,
          "name": "A2",
          "velocity": 1,
          "duration": 0.18437499999998863,
          "ticks": 57420,
          "durationTicks": 59
        },
        {
          "time": 184.125,
          "midi": 57,
          "name": "A3",
          "velocity": 1,
          "duration": 0.18437499999998863,
          "ticks": 57480,
          "durationTicks": 59
        },
        {
          "time": 184.125,
          "midi": 45,
          "name": "A2",
          "velocity": 1,
          "duration": 0.18437499999998863,
          "ticks": 57480,
          "durationTicks": 59
        },
        {
          "time": 184.3125,
          "midi": 62,
          "name": "D4",
          "velocity": 1,
          "duration": 0.18437499999998863,
          "ticks": 57540,
          "durationTicks": 59
        },
        {
          "time": 184.3125,
          "midi": 50,
          "name": "D3",
          "velocity": 1,
          "duration": 0.18437499999998863,
          "ticks": 57540,
          "durationTicks": 59
        },
        {
          "time": 184.5,
          "midi": 50,
          "name": "D3",
          "velocity": 1,
          "duration": 0.18437499999998863,
          "ticks": 57600,
          "durationTicks": 59
        },
        {
          "time": 184.5,
          "midi": 62,
          "name": "D4",
          "velocity": 1,
          "duration": 0.18437499999998863,
          "ticks": 57600,
          "durationTicks": 59
        },
        {
          "time": 184.6875,
          "midi": 53,
          "name": "F3",
          "velocity": 1,
          "duration": 0.18437499999998863,
          "ticks": 57660,
          "durationTicks": 59
        },
        {
          "time": 184.6875,
          "midi": 41,
          "name": "F2",
          "velocity": 0.9763779527559056,
          "duration": 0.18437499999998863,
          "ticks": 57660,
          "durationTicks": 59
        },
        {
          "time": 184.875,
          "midi": 41,
          "name": "F2",
          "velocity": 0.9763779527559056,
          "duration": 0.18437499999998863,
          "ticks": 57720,
          "durationTicks": 59
        },
        {
          "time": 184.875,
          "midi": 53,
          "name": "F3",
          "velocity": 1,
          "duration": 0.18437499999998863,
          "ticks": 57720,
          "durationTicks": 59
        },
        {
          "time": 185.0625,
          "midi": 57,
          "name": "A3",
          "velocity": 1,
          "duration": 0.18437499999998863,
          "ticks": 57780,
          "durationTicks": 59
        },
        {
          "time": 185.0625,
          "midi": 45,
          "name": "A2",
          "velocity": 0.9763779527559056,
          "duration": 0.18437499999998863,
          "ticks": 57780,
          "durationTicks": 59
        },
        {
          "time": 185.25,
          "midi": 45,
          "name": "A2",
          "velocity": 1,
          "duration": 0.18437499999998863,
          "ticks": 57840,
          "durationTicks": 59
        },
        {
          "time": 185.25,
          "midi": 57,
          "name": "A3",
          "velocity": 1,
          "duration": 0.18437499999998863,
          "ticks": 57840,
          "durationTicks": 59
        },
        {
          "time": 185.4375,
          "midi": 38,
          "name": "D2",
          "velocity": 1,
          "duration": 0.18437499999998863,
          "ticks": 57900,
          "durationTicks": 59
        },
        {
          "time": 185.4375,
          "midi": 50,
          "name": "D3",
          "velocity": 1,
          "duration": 0.18437499999998863,
          "ticks": 57900,
          "durationTicks": 59
        },
        {
          "time": 185.625,
          "midi": 38,
          "name": "D2",
          "velocity": 1,
          "duration": 0.18437499999998863,
          "ticks": 57960,
          "durationTicks": 59
        },
        {
          "time": 185.625,
          "midi": 50,
          "name": "D3",
          "velocity": 1,
          "duration": 0.18437499999998863,
          "ticks": 57960,
          "durationTicks": 59
        },
        {
          "time": 185.8125,
          "midi": 53,
          "name": "F3",
          "velocity": 1,
          "duration": 0.18437499999998863,
          "ticks": 58020,
          "durationTicks": 59
        },
        {
          "time": 185.8125,
          "midi": 50,
          "name": "D3",
          "velocity": 1,
          "duration": 0.18437499999998863,
          "ticks": 58020,
          "durationTicks": 59
        },
        {
          "time": 186,
          "midi": 53,
          "name": "F3",
          "velocity": 1,
          "duration": 0.18437499999998863,
          "ticks": 58080,
          "durationTicks": 59
        },
        {
          "time": 186,
          "midi": 50,
          "name": "D3",
          "velocity": 0.9763779527559056,
          "duration": 0.18437499999998863,
          "ticks": 58080,
          "durationTicks": 59
        },
        {
          "time": 186.1875,
          "midi": 48,
          "name": "C3",
          "velocity": 0.937007874015748,
          "duration": 0.18437499999998863,
          "ticks": 58140,
          "durationTicks": 59
        },
        {
          "time": 186.1875,
          "midi": 54,
          "name": "F#3",
          "velocity": 1,
          "duration": 0.18437499999998863,
          "ticks": 58140,
          "durationTicks": 59
        },
        {
          "time": 186.375,
          "midi": 48,
          "name": "C3",
          "velocity": 1,
          "duration": 0.18437499999998863,
          "ticks": 58200,
          "durationTicks": 59
        },
        {
          "time": 186.375,
          "midi": 54,
          "name": "F#3",
          "velocity": 1,
          "duration": 0.18437499999998863,
          "ticks": 58200,
          "durationTicks": 59
        },
        {
          "time": 186.5625,
          "midi": 47,
          "name": "B2",
          "velocity": 1,
          "duration": 0.18437499999998863,
          "ticks": 58260,
          "durationTicks": 59
        },
        {
          "time": 186.5625,
          "midi": 55,
          "name": "G3",
          "velocity": 1,
          "duration": 0.18437499999998863,
          "ticks": 58260,
          "durationTicks": 59
        },
        {
          "time": 186.75,
          "midi": 47,
          "name": "B2",
          "velocity": 1,
          "duration": 0.18437499999998863,
          "ticks": 58320,
          "durationTicks": 59
        },
        {
          "time": 186.75,
          "midi": 59,
          "name": "B3",
          "velocity": 1,
          "duration": 0.18437499999998863,
          "ticks": 58320,
          "durationTicks": 59
        },
        {
          "time": 186.9375,
          "midi": 46,
          "name": "A#2",
          "velocity": 1,
          "duration": 0.18437499999998863,
          "ticks": 58380,
          "durationTicks": 59
        },
        {
          "time": 186.9375,
          "midi": 58,
          "name": "A#3",
          "velocity": 1,
          "duration": 0.18437499999998863,
          "ticks": 58380,
          "durationTicks": 59
        },
        {
          "time": 187.125,
          "midi": 46,
          "name": "A#2",
          "velocity": 1,
          "duration": 0.18437499999998863,
          "ticks": 58440,
          "durationTicks": 59
        },
        {
          "time": 187.125,
          "midi": 58,
          "name": "A#3",
          "velocity": 1,
          "duration": 0.18437499999998863,
          "ticks": 58440,
          "durationTicks": 59
        },
        {
          "time": 187.3125,
          "midi": 62,
          "name": "D4",
          "velocity": 1,
          "duration": 0.18437499999998863,
          "ticks": 58500,
          "durationTicks": 59
        },
        {
          "time": 187.3125,
          "midi": 34,
          "name": "A#1",
          "velocity": 1,
          "duration": 0.18437499999998863,
          "ticks": 58500,
          "durationTicks": 59
        },
        {
          "time": 187.5,
          "midi": 62,
          "name": "D4",
          "velocity": 1,
          "duration": 0.18437499999998863,
          "ticks": 58560,
          "durationTicks": 59
        },
        {
          "time": 187.5,
          "midi": 34,
          "name": "A#1",
          "velocity": 1,
          "duration": 0.18437499999998863,
          "ticks": 58560,
          "durationTicks": 59
        },
        {
          "time": 187.6875,
          "midi": 65,
          "name": "F4",
          "velocity": 1,
          "duration": 0.18437499999998863,
          "ticks": 58620,
          "durationTicks": 59
        },
        {
          "time": 187.6875,
          "midi": 34,
          "name": "A#1",
          "velocity": 1,
          "duration": 0.18437499999998863,
          "ticks": 58620,
          "durationTicks": 59
        },
        {
          "time": 187.875,
          "midi": 53,
          "name": "F3",
          "velocity": 1,
          "duration": 0.18437499999998863,
          "ticks": 58680,
          "durationTicks": 59
        },
        {
          "time": 187.875,
          "midi": 46,
          "name": "A#2",
          "velocity": 1,
          "duration": 0.18437499999998863,
          "ticks": 58680,
          "durationTicks": 59
        },
        {
          "time": 188.25,
          "midi": 45,
          "name": "A2",
          "velocity": 1,
          "duration": 0.18437499999998863,
          "ticks": 58800,
          "durationTicks": 59
        },
        {
          "time": 188.25,
          "midi": 57,
          "name": "A3",
          "velocity": 1,
          "duration": 0.18437499999998863,
          "ticks": 58800,
          "durationTicks": 59
        },
        {
          "time": 206.571411,
          "midi": 64,
          "name": "E4",
          "velocity": 1,
          "duration": 0.2107140749999985,
          "ticks": 63960,
          "durationTicks": 59
        },
        {
          "time": 206.571411,
          "midi": 61,
          "name": "C#4",
          "velocity": 1,
          "duration": 0.2107140749999985,
          "ticks": 63960,
          "durationTicks": 59
        },
        {
          "time": 206.999982,
          "midi": 42,
          "name": "F#2",
          "velocity": 0.937007874015748,
          "duration": 0.2107140749999985,
          "ticks": 64080,
          "durationTicks": 59
        },
        {
          "time": 206.999982,
          "midi": 54,
          "name": "F#3",
          "velocity": 1,
          "duration": 0.2107140749999985,
          "ticks": 64080,
          "durationTicks": 59
        },
        {
          "time": 207.2142675,
          "midi": 42,
          "name": "F#2",
          "velocity": 0.9763779527559056,
          "duration": 0.2107140749999985,
          "ticks": 64140,
          "durationTicks": 59
        },
        {
          "time": 207.2142675,
          "midi": 54,
          "name": "F#3",
          "velocity": 1,
          "duration": 0.2107140749999985,
          "ticks": 64140,
          "durationTicks": 59
        },
        {
          "time": 207.428553,
          "midi": 66,
          "name": "F#4",
          "velocity": 1,
          "duration": 0.4249995750000153,
          "ticks": 64200,
          "durationTicks": 119
        },
        {
          "time": 207.428553,
          "midi": 54,
          "name": "F#3",
          "velocity": 1,
          "duration": 0.4249995750000153,
          "ticks": 64200,
          "durationTicks": 119
        },
        {
          "time": 212.892834,
          "midi": 55,
          "name": "G3",
          "velocity": 0.5826771653543307,
          "duration": 0.3687500000000057,
          "ticks": 65640,
          "durationTicks": 59
        },
        {
          "time": 212.892834,
          "midi": 55,
          "name": "G3",
          "velocity": 0.5826771653543307,
          "duration": 0.3687500000000057,
          "ticks": 65640,
          "durationTicks": 59
        },
        {
          "time": 213.642834,
          "midi": 67,
          "name": "G4",
          "velocity": 1,
          "duration": 0.3687500000000057,
          "ticks": 65760,
          "durationTicks": 59
        },
        {
          "time": 213.642834,
          "midi": 67,
          "name": "G4",
          "velocity": 1,
          "duration": 0.3687500000000057,
          "ticks": 65760,
          "durationTicks": 59
        },
        {
          "time": 218.142834,
          "midi": 61,
          "name": "C#4",
          "velocity": 1,
          "duration": 0.3687500000000057,
          "ticks": 66480,
          "durationTicks": 59
        },
        {
          "time": 218.142834,
          "midi": 52,
          "name": "E3",
          "velocity": 0.937007874015748,
          "duration": 0.3687500000000057,
          "ticks": 66480,
          "durationTicks": 59
        },
        {
          "time": 218.892834,
          "midi": 52,
          "name": "E3",
          "velocity": 0.7086614173228346,
          "duration": 0.37187499999998863,
          "ticks": 66600,
          "durationTicks": 119
        },
        {
          "time": 218.892834,
          "midi": 61,
          "name": "C#4",
          "velocity": 0.9763779527559056,
          "duration": 0.37187499999998863,
          "ticks": 66600,
          "durationTicks": 119
        },
        {
          "time": 219.267834,
          "midi": 52,
          "name": "E3",
          "velocity": 0.7795275590551181,
          "duration": 0.37187499999998863,
          "ticks": 66720,
          "durationTicks": 119
        },
        {
          "time": 219.267834,
          "midi": 61,
          "name": "C#4",
          "velocity": 0.905511811023622,
          "duration": 0.37187499999998863,
          "ticks": 66720,
          "durationTicks": 119
        },
        {
          "time": 219.642834,
          "midi": 62,
          "name": "D4",
          "velocity": 0.8818897637795275,
          "duration": 0.37187499999998863,
          "ticks": 66840,
          "durationTicks": 119
        },
        {
          "time": 219.642834,
          "midi": 54,
          "name": "F#3",
          "velocity": 0.8818897637795275,
          "duration": 0.37187499999998863,
          "ticks": 66840,
          "durationTicks": 119
        },
        {
          "time": 220.017834,
          "midi": 55,
          "name": "G3",
          "velocity": 0.7244094488188977,
          "duration": 0.37187499999998863,
          "ticks": 66960,
          "durationTicks": 119
        },
        {
          "time": 220.017834,
          "midi": 64,
          "name": "E4",
          "velocity": 0.7795275590551181,
          "duration": 0.37187499999998863,
          "ticks": 66960,
          "durationTicks": 119
        },
        {
          "time": 220.392834,
          "midi": 64,
          "name": "E4",
          "velocity": 0.8031496062992126,
          "duration": 0.37187499999998863,
          "ticks": 67080,
          "durationTicks": 119
        },
        {
          "time": 220.392834,
          "midi": 55,
          "name": "G3",
          "velocity": 0.8818897637795275,
          "duration": 0.37187499999998863,
          "ticks": 67080,
          "durationTicks": 119
        },
        {
          "time": 220.767834,
          "midi": 62,
          "name": "D4",
          "velocity": 0.905511811023622,
          "duration": 0.37187499999998863,
          "ticks": 67200,
          "durationTicks": 119
        },
        {
          "time": 220.767834,
          "midi": 54,
          "name": "F#3",
          "velocity": 0.905511811023622,
          "duration": 0.37187499999998863,
          "ticks": 67200,
          "durationTicks": 119
        },
        {
          "time": 221.142834,
          "midi": 61,
          "name": "C#4",
          "velocity": 0.8818897637795275,
          "duration": 0.37187499999998863,
          "ticks": 67320,
          "durationTicks": 119
        },
        {
          "time": 221.142834,
          "midi": 52,
          "name": "E3",
          "velocity": 0.8267716535433071,
          "duration": 0.37187499999998863,
          "ticks": 67320,
          "durationTicks": 119
        },
        {
          "time": 221.517834,
          "midi": 50,
          "name": "D3",
          "velocity": 0.5826771653543307,
          "duration": 0.37187499999998863,
          "ticks": 67440,
          "durationTicks": 119
        },
        {
          "time": 221.517834,
          "midi": 59,
          "name": "B3",
          "velocity": 0.8503937007874016,
          "duration": 0.37187499999998863,
          "ticks": 67440,
          "durationTicks": 119
        },
        {
          "time": 221.892834,
          "midi": 64,
          "name": "E4",
          "velocity": 0.905511811023622,
          "duration": 0.37187499999998863,
          "ticks": 67560,
          "durationTicks": 119
        },
        {
          "time": 221.892834,
          "midi": 61,
          "name": "C#4",
          "velocity": 1,
          "duration": 0.37187499999998863,
          "ticks": 67560,
          "durationTicks": 119
        },
        {
          "time": 222.267834,
          "midi": 64,
          "name": "E4",
          "velocity": 0.905511811023622,
          "duration": 0.37187499999998863,
          "ticks": 67680,
          "durationTicks": 119
        },
        {
          "time": 222.267834,
          "midi": 61,
          "name": "C#4",
          "velocity": 0.905511811023622,
          "duration": 0.37187499999998863,
          "ticks": 67680,
          "durationTicks": 119
        },
        {
          "time": 222.642834,
          "midi": 62,
          "name": "D4",
          "velocity": 0.8267716535433071,
          "duration": 0.37187499999998863,
          "ticks": 67800,
          "durationTicks": 119
        },
        {
          "time": 222.642834,
          "midi": 66,
          "name": "F#4",
          "velocity": 0.937007874015748,
          "duration": 0.37187499999998863,
          "ticks": 67800,
          "durationTicks": 119
        },
        {
          "time": 223.017834,
          "midi": 67,
          "name": "G4",
          "velocity": 0.905511811023622,
          "duration": 0.37187499999998863,
          "ticks": 67920,
          "durationTicks": 119
        },
        {
          "time": 223.017834,
          "midi": 64,
          "name": "E4",
          "velocity": 0.937007874015748,
          "duration": 0.37187499999998863,
          "ticks": 67920,
          "durationTicks": 119
        },
        {
          "time": 223.392834,
          "midi": 67,
          "name": "G4",
          "velocity": 0.8031496062992126,
          "duration": 0.37187499999998863,
          "ticks": 68040,
          "durationTicks": 119
        },
        {
          "time": 223.392834,
          "midi": 64,
          "name": "E4",
          "velocity": 0.8267716535433071,
          "duration": 0.37187499999998863,
          "ticks": 68040,
          "durationTicks": 119
        },
        {
          "time": 223.767834,
          "midi": 62,
          "name": "D4",
          "velocity": 0.8267716535433071,
          "duration": 0.37187499999998863,
          "ticks": 68160,
          "durationTicks": 119
        },
        {
          "time": 223.767834,
          "midi": 66,
          "name": "F#4",
          "velocity": 0.9763779527559056,
          "duration": 0.37187499999998863,
          "ticks": 68160,
          "durationTicks": 119
        },
        {
          "time": 224.142834,
          "midi": 64,
          "name": "E4",
          "velocity": 0.7637795275590551,
          "duration": 0.37187499999998863,
          "ticks": 68280,
          "durationTicks": 119
        },
        {
          "time": 224.142834,
          "midi": 55,
          "name": "G3",
          "velocity": 0.8503937007874016,
          "duration": 0.37187499999998863,
          "ticks": 68280,
          "durationTicks": 119
        },
        {
          "time": 224.517834,
          "midi": 62,
          "name": "D4",
          "velocity": 0.9763779527559056,
          "duration": 0.37187499999998863,
          "ticks": 68400,
          "durationTicks": 119
        },
        {
          "time": 224.517834,
          "midi": 54,
          "name": "F#3",
          "velocity": 0.905511811023622,
          "duration": 0.37187499999998863,
          "ticks": 68400,
          "durationTicks": 119
        },
        {
          "time": 248.330334,
          "midi": 50,
          "name": "D3",
          "velocity": 0.905511811023622,
          "duration": 0.18437499999998863,
          "ticks": 76020,
          "durationTicks": 59
        },
        {
          "time": 248.330334,
          "midi": 50,
          "name": "D3",
          "velocity": 0.905511811023622,
          "duration": 0.18437499999998863,
          "ticks": 76020,
          "durationTicks": 59
        },
        {
          "time": 248.517834,
          "midi": 52,
          "name": "E3",
          "velocity": 1,
          "duration": 0.18437499999998863,
          "ticks": 76080,
          "durationTicks": 59
        },
        {
          "time": 248.517834,
          "midi": 52,
          "name": "E3",
          "velocity": 1,
          "duration": 0.18437499999998863,
          "ticks": 76080,
          "durationTicks": 59
        },
        {
          "time": 248.705334,
          "midi": 54,
          "name": "F#3",
          "velocity": 1,
          "duration": 0.18437499999998863,
          "ticks": 76140,
          "durationTicks": 59
        },
        {
          "time": 248.705334,
          "midi": 54,
          "name": "F#3",
          "velocity": 1,
          "duration": 0.18437499999998863,
          "ticks": 76140,
          "durationTicks": 59
        },
        {
          "time": 248.892834,
          "midi": 52,
          "name": "E3",
          "velocity": 1,
          "duration": 0.09062499999998863,
          "ticks": 76200,
          "durationTicks": 29
        },
        {
          "time": 248.892834,
          "midi": 52,
          "name": "E3",
          "velocity": 1,
          "duration": 0.09062499999998863,
          "ticks": 76200,
          "durationTicks": 29
        },
        {
          "time": 249.080334,
          "midi": 57,
          "name": "A3",
          "velocity": 1,
          "duration": 0.09062499999998863,
          "ticks": 76260,
          "durationTicks": 29
        },
        {
          "time": 249.080334,
          "midi": 57,
          "name": "A3",
          "velocity": 1,
          "duration": 0.09062499999998863,
          "ticks": 76260,
          "durationTicks": 29
        },
        {
          "time": 249.267834,
          "midi": 52,
          "name": "E3",
          "velocity": 1,
          "duration": 0.09062499999998863,
          "ticks": 76320,
          "durationTicks": 29
        },
        {
          "time": 249.267834,
          "midi": 52,
          "name": "E3",
          "velocity": 1,
          "duration": 0.09062499999998863,
          "ticks": 76320,
          "durationTicks": 29
        },
        {
          "time": 249.455334,
          "midi": 57,
          "name": "A3",
          "velocity": 1,
          "duration": 0.09062499999998863,
          "ticks": 76380,
          "durationTicks": 29
        },
        {
          "time": 249.455334,
          "midi": 57,
          "name": "A3",
          "velocity": 1,
          "duration": 0.09062499999998863,
          "ticks": 76380,
          "durationTicks": 29
        },
        {
          "time": 249.642834,
          "midi": 54,
          "name": "F#3",
          "velocity": 1,
          "duration": 0.09062499999998863,
          "ticks": 76440,
          "durationTicks": 29
        },
        {
          "time": 249.642834,
          "midi": 54,
          "name": "F#3",
          "velocity": 1,
          "duration": 0.09062499999998863,
          "ticks": 76440,
          "durationTicks": 29
        },
        {
          "time": 249.830334,
          "midi": 57,
          "name": "A3",
          "velocity": 1,
          "duration": 0.09062499999998863,
          "ticks": 76500,
          "durationTicks": 29
        },
        {
          "time": 249.830334,
          "midi": 57,
          "name": "A3",
          "velocity": 1,
          "duration": 0.09062499999998863,
          "ticks": 76500,
          "durationTicks": 29
        },
        {
          "time": 250.017834,
          "midi": 50,
          "name": "D3",
          "velocity": 1,
          "duration": 0.09062499999998863,
          "ticks": 76560,
          "durationTicks": 29
        },
        {
          "time": 250.017834,
          "midi": 50,
          "name": "D3",
          "velocity": 1,
          "duration": 0.09062499999998863,
          "ticks": 76560,
          "durationTicks": 29
        },
        {
          "time": 250.205334,
          "midi": 57,
          "name": "A3",
          "velocity": 1,
          "duration": 0.09062499999998863,
          "ticks": 76620,
          "durationTicks": 29
        },
        {
          "time": 250.205334,
          "midi": 57,
          "name": "A3",
          "velocity": 1,
          "duration": 0.09062499999998863,
          "ticks": 76620,
          "durationTicks": 29
        },
        {
          "time": 250.392834,
          "midi": 52,
          "name": "E3",
          "velocity": 1,
          "duration": 0.09062499999998863,
          "ticks": 76680,
          "durationTicks": 29
        },
        {
          "time": 250.392834,
          "midi": 52,
          "name": "E3",
          "velocity": 1,
          "duration": 0.09062499999998863,
          "ticks": 76680,
          "durationTicks": 29
        },
        {
          "time": 250.580334,
          "midi": 57,
          "name": "A3",
          "velocity": 1,
          "duration": 0.09062499999998863,
          "ticks": 76740,
          "durationTicks": 29
        },
        {
          "time": 250.580334,
          "midi": 57,
          "name": "A3",
          "velocity": 1,
          "duration": 0.09062499999998863,
          "ticks": 76740,
          "durationTicks": 29
        },
        {
          "time": 250.767834,
          "midi": 54,
          "name": "F#3",
          "velocity": 1,
          "duration": 0.09062499999998863,
          "ticks": 76800,
          "durationTicks": 29
        },
        {
          "time": 250.767834,
          "midi": 54,
          "name": "F#3",
          "velocity": 1,
          "duration": 0.09062499999998863,
          "ticks": 76800,
          "durationTicks": 29
        },
        {
          "time": 250.955334,
          "midi": 55,
          "name": "G3",
          "velocity": 1,
          "duration": 0.09062499999998863,
          "ticks": 76860,
          "durationTicks": 29
        },
        {
          "time": 250.955334,
          "midi": 55,
          "name": "G3",
          "velocity": 1,
          "duration": 0.09062499999998863,
          "ticks": 76860,
          "durationTicks": 29
        },
        {
          "time": 251.142834,
          "midi": 54,
          "name": "F#3",
          "velocity": 1,
          "duration": 0.09062499999998863,
          "ticks": 76920,
          "durationTicks": 29
        },
        {
          "time": 251.142834,
          "midi": 54,
          "name": "F#3",
          "velocity": 1,
          "duration": 0.09062499999998863,
          "ticks": 76920,
          "durationTicks": 29
        },
        {
          "time": 251.330334,
          "midi": 57,
          "name": "A3",
          "velocity": 1,
          "duration": 0.09062499999998863,
          "ticks": 76980,
          "durationTicks": 29
        },
        {
          "time": 251.330334,
          "midi": 57,
          "name": "A3",
          "velocity": 1,
          "duration": 0.09062499999998863,
          "ticks": 76980,
          "durationTicks": 29
        },
        {
          "time": 251.517834,
          "midi": 50,
          "name": "D3",
          "velocity": 0.9763779527559056,
          "duration": 0.09062499999998863,
          "ticks": 77040,
          "durationTicks": 29
        },
        {
          "time": 251.517834,
          "midi": 50,
          "name": "D3",
          "velocity": 0.9763779527559056,
          "duration": 0.09062499999998863,
          "ticks": 77040,
          "durationTicks": 29
        },
        {
          "time": 251.705334,
          "midi": 57,
          "name": "A3",
          "velocity": 1,
          "duration": 0.09062499999998863,
          "ticks": 77100,
          "durationTicks": 29
        },
        {
          "time": 251.705334,
          "midi": 57,
          "name": "A3",
          "velocity": 1,
          "duration": 0.09062499999998863,
          "ticks": 77100,
          "durationTicks": 29
        },
        {
          "time": 251.892834,
          "midi": 52,
          "name": "E3",
          "velocity": 1,
          "duration": 0.18437499999998863,
          "ticks": 77160,
          "durationTicks": 59
        },
        {
          "time": 251.892834,
          "midi": 52,
          "name": "E3",
          "velocity": 1,
          "duration": 0.18437499999998863,
          "ticks": 77160,
          "durationTicks": 59
        },
        {
          "time": 252.080334,
          "midi": 57,
          "name": "A3",
          "velocity": 1,
          "duration": 0.18437499999998863,
          "ticks": 77220,
          "durationTicks": 59
        },
        {
          "time": 252.080334,
          "midi": 57,
          "name": "A3",
          "velocity": 1,
          "duration": 0.18437499999998863,
          "ticks": 77220,
          "durationTicks": 59
        },
        {
          "time": 252.267834,
          "midi": 54,
          "name": "F#3",
          "velocity": 1,
          "duration": 0.18437499999998863,
          "ticks": 77280,
          "durationTicks": 59
        },
        {
          "time": 252.267834,
          "midi": 54,
          "name": "F#3",
          "velocity": 1,
          "duration": 0.18437499999998863,
          "ticks": 77280,
          "durationTicks": 59
        },
        {
          "time": 252.455334,
          "midi": 55,
          "name": "G3",
          "velocity": 0.9763779527559056,
          "duration": 0.18437499999998863,
          "ticks": 77340,
          "durationTicks": 59
        },
        {
          "time": 252.455334,
          "midi": 55,
          "name": "G3",
          "velocity": 0.9763779527559056,
          "duration": 0.18437499999998863,
          "ticks": 77340,
          "durationTicks": 59
        },
        {
          "time": 252.642834,
          "midi": 54,
          "name": "F#3",
          "velocity": 1,
          "duration": 0.18437499999998863,
          "ticks": 77400,
          "durationTicks": 59
        },
        {
          "time": 252.642834,
          "midi": 54,
          "name": "F#3",
          "velocity": 1,
          "duration": 0.18437499999998863,
          "ticks": 77400,
          "durationTicks": 59
        },
        {
          "time": 252.830334,
          "midi": 57,
          "name": "A3",
          "velocity": 1,
          "duration": 0.18437499999998863,
          "ticks": 77460,
          "durationTicks": 59
        },
        {
          "time": 252.830334,
          "midi": 57,
          "name": "A3",
          "velocity": 1,
          "duration": 0.18437499999998863,
          "ticks": 77460,
          "durationTicks": 59
        },
        {
          "time": 253.017834,
          "midi": 52,
          "name": "E3",
          "velocity": 1,
          "duration": 0.18437499999998863,
          "ticks": 77520,
          "durationTicks": 59
        },
        {
          "time": 253.017834,
          "midi": 52,
          "name": "E3",
          "velocity": 1,
          "duration": 0.18437499999998863,
          "ticks": 77520,
          "durationTicks": 59
        },
        {
          "time": 253.205334,
          "midi": 57,
          "name": "A3",
          "velocity": 1,
          "duration": 0.18437499999998863,
          "ticks": 77580,
          "durationTicks": 59
        },
        {
          "time": 253.205334,
          "midi": 57,
          "name": "A3",
          "velocity": 1,
          "duration": 0.18437499999998863,
          "ticks": 77580,
          "durationTicks": 59
        },
        {
          "time": 253.392834,
          "midi": 50,
          "name": "D3",
          "velocity": 0.9763779527559056,
          "duration": 0.18437499999998863,
          "ticks": 77640,
          "durationTicks": 59
        },
        {
          "time": 253.392834,
          "midi": 50,
          "name": "D3",
          "velocity": 0.9763779527559056,
          "duration": 0.18437499999998863,
          "ticks": 77640,
          "durationTicks": 59
        },
        {
          "time": 253.580334,
          "midi": 57,
          "name": "A3",
          "velocity": 1,
          "duration": 0.18437499999998863,
          "ticks": 77700,
          "durationTicks": 59
        },
        {
          "time": 253.580334,
          "midi": 57,
          "name": "A3",
          "velocity": 1,
          "duration": 0.18437499999998863,
          "ticks": 77700,
          "durationTicks": 59
        },
        {
          "time": 253.767834,
          "midi": 52,
          "name": "E3",
          "velocity": 1,
          "duration": 0.18437499999998863,
          "ticks": 77760,
          "durationTicks": 59
        },
        {
          "time": 253.767834,
          "midi": 52,
          "name": "E3",
          "velocity": 1,
          "duration": 0.18437499999998863,
          "ticks": 77760,
          "durationTicks": 59
        },
        {
          "time": 253.955334,
          "midi": 57,
          "name": "A3",
          "velocity": 1,
          "duration": 0.18437499999998863,
          "ticks": 77820,
          "durationTicks": 59
        },
        {
          "time": 253.955334,
          "midi": 57,
          "name": "A3",
          "velocity": 1,
          "duration": 0.18437499999998863,
          "ticks": 77820,
          "durationTicks": 59
        },
        {
          "time": 254.142834,
          "midi": 45,
          "name": "A2",
          "velocity": 1,
          "duration": 0.18437499999998863,
          "ticks": 77880,
          "durationTicks": 59
        },
        {
          "time": 254.142834,
          "midi": 45,
          "name": "A2",
          "velocity": 1,
          "duration": 0.18437499999998863,
          "ticks": 77880,
          "durationTicks": 59
        },
        {
          "time": 254.330334,
          "midi": 57,
          "name": "A3",
          "velocity": 1,
          "duration": 0.18437499999998863,
          "ticks": 77940,
          "durationTicks": 59
        },
        {
          "time": 254.330334,
          "midi": 57,
          "name": "A3",
          "velocity": 1,
          "duration": 0.18437499999998863,
          "ticks": 77940,
          "durationTicks": 59
        },
        {
          "time": 254.517834,
          "midi": 54,
          "name": "F#3",
          "velocity": 1,
          "duration": 0.18437499999998863,
          "ticks": 78000,
          "durationTicks": 59
        },
        {
          "time": 254.517834,
          "midi": 54,
          "name": "F#3",
          "velocity": 1,
          "duration": 0.18437499999998863,
          "ticks": 78000,
          "durationTicks": 59
        },
        {
          "time": 254.705334,
          "midi": 57,
          "name": "A3",
          "velocity": 1,
          "duration": 0.18437499999998863,
          "ticks": 78060,
          "durationTicks": 59
        },
        {
          "time": 254.705334,
          "midi": 57,
          "name": "A3",
          "velocity": 1,
          "duration": 0.18437499999998863,
          "ticks": 78060,
          "durationTicks": 59
        },
        {
          "time": 254.892834,
          "midi": 42,
          "name": "F#2",
          "velocity": 1,
          "duration": 0.18437499999998863,
          "ticks": 78120,
          "durationTicks": 59
        },
        {
          "time": 254.892834,
          "midi": 42,
          "name": "F#2",
          "velocity": 1,
          "duration": 0.18437499999998863,
          "ticks": 78120,
          "durationTicks": 59
        },
        {
          "time": 255.080334,
          "midi": 54,
          "name": "F#3",
          "velocity": 1,
          "duration": 0.18437499999998863,
          "ticks": 78180,
          "durationTicks": 59
        },
        {
          "time": 255.080334,
          "midi": 54,
          "name": "F#3",
          "velocity": 1,
          "duration": 0.18437499999998863,
          "ticks": 78180,
          "durationTicks": 59
        },
        {
          "time": 255.267834,
          "midi": 42,
          "name": "F#2",
          "velocity": 1,
          "duration": 0.18437499999998863,
          "ticks": 78240,
          "durationTicks": 59
        },
        {
          "time": 255.267834,
          "midi": 42,
          "name": "F#2",
          "velocity": 1,
          "duration": 0.18437499999998863,
          "ticks": 78240,
          "durationTicks": 59
        },
        {
          "time": 255.455334,
          "midi": 54,
          "name": "F#3",
          "velocity": 1,
          "duration": 0.18437499999998863,
          "ticks": 78300,
          "durationTicks": 59
        },
        {
          "time": 255.455334,
          "midi": 54,
          "name": "F#3",
          "velocity": 1,
          "duration": 0.18437499999998863,
          "ticks": 78300,
          "durationTicks": 59
        },
        {
          "time": 255.642834,
          "midi": 43,
          "name": "G2",
          "velocity": 1,
          "duration": 0.18437499999998863,
          "ticks": 78360,
          "durationTicks": 59
        },
        {
          "time": 255.642834,
          "midi": 43,
          "name": "G2",
          "velocity": 1,
          "duration": 0.18437499999998863,
          "ticks": 78360,
          "durationTicks": 59
        },
        {
          "time": 255.830334,
          "midi": 55,
          "name": "G3",
          "velocity": 0.7637795275590551,
          "duration": 0.18437499999998863,
          "ticks": 78420,
          "durationTicks": 59
        },
        {
          "time": 255.830334,
          "midi": 55,
          "name": "G3",
          "velocity": 0.7637795275590551,
          "duration": 0.18437499999998863,
          "ticks": 78420,
          "durationTicks": 59
        },
        {
          "time": 256.017834,
          "midi": 45,
          "name": "A2",
          "velocity": 1,
          "duration": 0.18437499999998863,
          "ticks": 78480,
          "durationTicks": 59
        },
        {
          "time": 256.017834,
          "midi": 45,
          "name": "A2",
          "velocity": 1,
          "duration": 0.18437499999998863,
          "ticks": 78480,
          "durationTicks": 59
        },
        {
          "time": 256.205334,
          "midi": 57,
          "name": "A3",
          "velocity": 1,
          "duration": 0.18437499999998863,
          "ticks": 78540,
          "durationTicks": 59
        },
        {
          "time": 256.205334,
          "midi": 57,
          "name": "A3",
          "velocity": 1,
          "duration": 0.18437499999998863,
          "ticks": 78540,
          "durationTicks": 59
        },
        {
          "time": 256.392834,
          "midi": 45,
          "name": "A2",
          "velocity": 1,
          "duration": 0.18437499999998863,
          "ticks": 78600,
          "durationTicks": 59
        },
        {
          "time": 256.392834,
          "midi": 45,
          "name": "A2",
          "velocity": 1,
          "duration": 0.18437499999998863,
          "ticks": 78600,
          "durationTicks": 59
        },
        {
          "time": 256.580334,
          "midi": 57,
          "name": "A3",
          "velocity": 0.937007874015748,
          "duration": 0.18437499999998863,
          "ticks": 78660,
          "durationTicks": 59
        },
        {
          "time": 256.580334,
          "midi": 57,
          "name": "A3",
          "velocity": 0.937007874015748,
          "duration": 0.18437499999998863,
          "ticks": 78660,
          "durationTicks": 59
        },
        {
          "time": 256.767834,
          "midi": 43,
          "name": "G2",
          "velocity": 1,
          "duration": 0.18437499999998863,
          "ticks": 78720,
          "durationTicks": 59
        },
        {
          "time": 256.767834,
          "midi": 43,
          "name": "G2",
          "velocity": 1,
          "duration": 0.18437499999998863,
          "ticks": 78720,
          "durationTicks": 59
        },
        {
          "time": 256.955334,
          "midi": 55,
          "name": "G3",
          "velocity": 1,
          "duration": 0.18437499999998863,
          "ticks": 78780,
          "durationTicks": 59
        },
        {
          "time": 256.955334,
          "midi": 55,
          "name": "G3",
          "velocity": 1,
          "duration": 0.18437499999998863,
          "ticks": 78780,
          "durationTicks": 59
        },
        {
          "time": 257.142834,
          "midi": 42,
          "name": "F#2",
          "velocity": 1,
          "duration": 0.18437499999998863,
          "ticks": 78840,
          "durationTicks": 59
        },
        {
          "time": 257.142834,
          "midi": 42,
          "name": "F#2",
          "velocity": 1,
          "duration": 0.18437499999998863,
          "ticks": 78840,
          "durationTicks": 59
        },
        {
          "time": 257.330334,
          "midi": 54,
          "name": "F#3",
          "velocity": 1,
          "duration": 0.18437499999998863,
          "ticks": 78900,
          "durationTicks": 59
        },
        {
          "time": 257.330334,
          "midi": 54,
          "name": "F#3",
          "velocity": 1,
          "duration": 0.18437499999998863,
          "ticks": 78900,
          "durationTicks": 59
        },
        {
          "time": 257.517834,
          "midi": 55,
          "name": "G3",
          "velocity": 1,
          "duration": 0.18437499999998863,
          "ticks": 78960,
          "durationTicks": 59
        },
        {
          "time": 257.517834,
          "midi": 55,
          "name": "G3",
          "velocity": 1,
          "duration": 0.18437499999998863,
          "ticks": 78960,
          "durationTicks": 59
        },
        {
          "time": 257.705334,
          "midi": 52,
          "name": "E3",
          "velocity": 1,
          "duration": 0.18437499999998863,
          "ticks": 79020,
          "durationTicks": 59
        },
        {
          "time": 257.705334,
          "midi": 52,
          "name": "E3",
          "velocity": 1,
          "duration": 0.18437499999998863,
          "ticks": 79020,
          "durationTicks": 59
        },
        {
          "time": 257.892834,
          "midi": 38,
          "name": "D2",
          "velocity": 1,
          "duration": 0.18437499999998863,
          "ticks": 79080,
          "durationTicks": 59
        },
        {
          "time": 257.892834,
          "midi": 38,
          "name": "D2",
          "velocity": 1,
          "duration": 0.18437499999998863,
          "ticks": 79080,
          "durationTicks": 59
        },
        {
          "time": 258.080334,
          "midi": 50,
          "name": "D3",
          "velocity": 1,
          "duration": 0.18437499999998863,
          "ticks": 79140,
          "durationTicks": 59
        },
        {
          "time": 258.080334,
          "midi": 50,
          "name": "D3",
          "velocity": 1,
          "duration": 0.18437499999998863,
          "ticks": 79140,
          "durationTicks": 59
        },
        {
          "time": 258.267834,
          "midi": 38,
          "name": "D2",
          "velocity": 1,
          "duration": 0.18437499999998863,
          "ticks": 79200,
          "durationTicks": 59
        },
        {
          "time": 258.267834,
          "midi": 38,
          "name": "D2",
          "velocity": 1,
          "duration": 0.18437499999998863,
          "ticks": 79200,
          "durationTicks": 59
        },
        {
          "time": 258.455334,
          "midi": 50,
          "name": "D3",
          "velocity": 1,
          "duration": 0.18437499999998863,
          "ticks": 79260,
          "durationTicks": 59
        },
        {
          "time": 258.455334,
          "midi": 50,
          "name": "D3",
          "velocity": 1,
          "duration": 0.18437499999998863,
          "ticks": 79260,
          "durationTicks": 59
        },
        {
          "time": 258.642834,
          "midi": 40,
          "name": "E2",
          "velocity": 1,
          "duration": 0.18437499999998863,
          "ticks": 79320,
          "durationTicks": 59
        },
        {
          "time": 258.642834,
          "midi": 40,
          "name": "E2",
          "velocity": 1,
          "duration": 0.18437499999998863,
          "ticks": 79320,
          "durationTicks": 59
        },
        {
          "time": 258.830334,
          "midi": 52,
          "name": "E3",
          "velocity": 1,
          "duration": 0.18437499999998863,
          "ticks": 79380,
          "durationTicks": 59
        },
        {
          "time": 258.830334,
          "midi": 52,
          "name": "E3",
          "velocity": 1,
          "duration": 0.18437499999998863,
          "ticks": 79380,
          "durationTicks": 59
        },
        {
          "time": 259.017834,
          "midi": 42,
          "name": "F#2",
          "velocity": 1,
          "duration": 0.18437499999998863,
          "ticks": 79440,
          "durationTicks": 59
        },
        {
          "time": 259.017834,
          "midi": 42,
          "name": "F#2",
          "velocity": 1,
          "duration": 0.18437499999998863,
          "ticks": 79440,
          "durationTicks": 59
        },
        {
          "time": 259.205334,
          "midi": 54,
          "name": "F#3",
          "velocity": 1,
          "duration": 0.18437499999998863,
          "ticks": 79500,
          "durationTicks": 59
        },
        {
          "time": 259.205334,
          "midi": 54,
          "name": "F#3",
          "velocity": 1,
          "duration": 0.18437499999998863,
          "ticks": 79500,
          "durationTicks": 59
        },
        {
          "time": 259.392834,
          "midi": 40,
          "name": "E2",
          "velocity": 1,
          "duration": 0.18437499999998863,
          "ticks": 79560,
          "durationTicks": 59
        },
        {
          "time": 259.392834,
          "midi": 40,
          "name": "E2",
          "velocity": 1,
          "duration": 0.18437499999998863,
          "ticks": 79560,
          "durationTicks": 59
        },
        {
          "time": 259.580334,
          "midi": 52,
          "name": "E3",
          "velocity": 1,
          "duration": 0.18437499999998863,
          "ticks": 79620,
          "durationTicks": 59
        },
        {
          "time": 259.580334,
          "midi": 52,
          "name": "E3",
          "velocity": 1,
          "duration": 0.18437499999998863,
          "ticks": 79620,
          "durationTicks": 59
        },
        {
          "time": 259.767834,
          "midi": 40,
          "name": "E2",
          "velocity": 1,
          "duration": 0.18437499999998863,
          "ticks": 79680,
          "durationTicks": 59
        },
        {
          "time": 259.767834,
          "midi": 40,
          "name": "E2",
          "velocity": 1,
          "duration": 0.18437499999998863,
          "ticks": 79680,
          "durationTicks": 59
        },
        {
          "time": 259.955334,
          "midi": 50,
          "name": "D3",
          "velocity": 1,
          "duration": 0.18437499999998863,
          "ticks": 79740,
          "durationTicks": 59
        },
        {
          "time": 259.955334,
          "midi": 50,
          "name": "D3",
          "velocity": 1,
          "duration": 0.18437499999998863,
          "ticks": 79740,
          "durationTicks": 59
        },
        {
          "time": 260.142834,
          "midi": 38,
          "name": "D2",
          "velocity": 1,
          "duration": 0.18437499999998863,
          "ticks": 79800,
          "durationTicks": 59
        },
        {
          "time": 260.142834,
          "midi": 38,
          "name": "D2",
          "velocity": 1,
          "duration": 0.18437499999998863,
          "ticks": 79800,
          "durationTicks": 59
        },
        {
          "time": 260.330334,
          "midi": 50,
          "name": "D3",
          "velocity": 1,
          "duration": 0.18437499999998863,
          "ticks": 79860,
          "durationTicks": 59
        },
        {
          "time": 260.330334,
          "midi": 50,
          "name": "D3",
          "velocity": 1,
          "duration": 0.18437499999998863,
          "ticks": 79860,
          "durationTicks": 59
        },
        {
          "time": 260.517834,
          "midi": 45,
          "name": "A2",
          "velocity": 1,
          "duration": 0.18437499999998863,
          "ticks": 79920,
          "durationTicks": 59
        },
        {
          "time": 260.517834,
          "midi": 45,
          "name": "A2",
          "velocity": 1,
          "duration": 0.18437499999998863,
          "ticks": 79920,
          "durationTicks": 59
        },
        {
          "time": 260.705334,
          "midi": 57,
          "name": "A3",
          "velocity": 1,
          "duration": 0.18437499999998863,
          "ticks": 79980,
          "durationTicks": 59
        },
        {
          "time": 260.705334,
          "midi": 57,
          "name": "A3",
          "velocity": 1,
          "duration": 0.18437499999998863,
          "ticks": 79980,
          "durationTicks": 59
        },
        {
          "time": 260.892834,
          "midi": 43,
          "name": "G2",
          "velocity": 1,
          "duration": 0.18437499999998863,
          "ticks": 80040,
          "durationTicks": 59
        },
        {
          "time": 260.892834,
          "midi": 43,
          "name": "G2",
          "velocity": 1,
          "duration": 0.18437499999998863,
          "ticks": 80040,
          "durationTicks": 59
        },
        {
          "time": 261.080334,
          "midi": 55,
          "name": "G3",
          "velocity": 1,
          "duration": 0.18437499999998863,
          "ticks": 80100,
          "durationTicks": 59
        },
        {
          "time": 261.080334,
          "midi": 55,
          "name": "G3",
          "velocity": 1,
          "duration": 0.18437499999998863,
          "ticks": 80100,
          "durationTicks": 59
        },
        {
          "time": 261.267834,
          "midi": 42,
          "name": "F#2",
          "velocity": 1,
          "duration": 0.18437499999998863,
          "ticks": 80160,
          "durationTicks": 59
        },
        {
          "time": 261.267834,
          "midi": 42,
          "name": "F#2",
          "velocity": 1,
          "duration": 0.18437499999998863,
          "ticks": 80160,
          "durationTicks": 59
        },
        {
          "time": 261.455334,
          "midi": 54,
          "name": "F#3",
          "velocity": 0.9763779527559056,
          "duration": 0.18437499999998863,
          "ticks": 80220,
          "durationTicks": 59
        },
        {
          "time": 261.455334,
          "midi": 54,
          "name": "F#3",
          "velocity": 0.9763779527559056,
          "duration": 0.18437499999998863,
          "ticks": 80220,
          "durationTicks": 59
        },
        {
          "time": 261.642834,
          "midi": 42,
          "name": "F#2",
          "velocity": 1,
          "duration": 0.18437499999998863,
          "ticks": 80280,
          "durationTicks": 59
        },
        {
          "time": 261.642834,
          "midi": 42,
          "name": "F#2",
          "velocity": 1,
          "duration": 0.18437499999998863,
          "ticks": 80280,
          "durationTicks": 59
        },
        {
          "time": 261.830334,
          "midi": 54,
          "name": "F#3",
          "velocity": 1,
          "duration": 0.18437499999998863,
          "ticks": 80340,
          "durationTicks": 59
        },
        {
          "time": 261.830334,
          "midi": 54,
          "name": "F#3",
          "velocity": 1,
          "duration": 0.18437499999998863,
          "ticks": 80340,
          "durationTicks": 59
        },
        {
          "time": 262.017834,
          "midi": 50,
          "name": "D3",
          "velocity": 1,
          "duration": 0.18437499999998863,
          "ticks": 80400,
          "durationTicks": 59
        },
        {
          "time": 262.017834,
          "midi": 50,
          "name": "D3",
          "velocity": 1,
          "duration": 0.18437499999998863,
          "ticks": 80400,
          "durationTicks": 59
        },
        {
          "time": 262.205334,
          "midi": 62,
          "name": "D4",
          "velocity": 1,
          "duration": 0.18437499999998863,
          "ticks": 80460,
          "durationTicks": 59
        },
        {
          "time": 262.205334,
          "midi": 62,
          "name": "D4",
          "velocity": 1,
          "duration": 0.18437499999998863,
          "ticks": 80460,
          "durationTicks": 59
        },
        {
          "time": 262.392834,
          "midi": 48,
          "name": "C3",
          "velocity": 1,
          "duration": 0.18437499999998863,
          "ticks": 80520,
          "durationTicks": 59
        },
        {
          "time": 262.392834,
          "midi": 48,
          "name": "C3",
          "velocity": 1,
          "duration": 0.18437499999998863,
          "ticks": 80520,
          "durationTicks": 59
        },
        {
          "time": 262.580334,
          "midi": 60,
          "name": "C4",
          "velocity": 1,
          "duration": 0.18437499999998863,
          "ticks": 80580,
          "durationTicks": 59
        },
        {
          "time": 262.580334,
          "midi": 60,
          "name": "C4",
          "velocity": 1,
          "duration": 0.18437499999998863,
          "ticks": 80580,
          "durationTicks": 59
        },
        {
          "time": 262.767834,
          "midi": 48,
          "name": "C3",
          "velocity": 1,
          "duration": 0.18437499999998863,
          "ticks": 80640,
          "durationTicks": 59
        },
        {
          "time": 262.767834,
          "midi": 48,
          "name": "C3",
          "velocity": 1,
          "duration": 0.18437499999998863,
          "ticks": 80640,
          "durationTicks": 59
        },
        {
          "time": 262.955334,
          "midi": 47,
          "name": "B2",
          "velocity": 1,
          "duration": 0.18437499999998863,
          "ticks": 80700,
          "durationTicks": 59
        },
        {
          "time": 262.955334,
          "midi": 47,
          "name": "B2",
          "velocity": 1,
          "duration": 0.18437499999998863,
          "ticks": 80700,
          "durationTicks": 59
        },
        {
          "time": 263.142834,
          "midi": 47,
          "name": "B2",
          "velocity": 1,
          "duration": 0.18437499999998863,
          "ticks": 80760,
          "durationTicks": 59
        },
        {
          "time": 263.142834,
          "midi": 47,
          "name": "B2",
          "velocity": 1,
          "duration": 0.18437499999998863,
          "ticks": 80760,
          "durationTicks": 59
        },
        {
          "time": 263.330334,
          "midi": 59,
          "name": "B3",
          "velocity": 1,
          "duration": 0.18437499999998863,
          "ticks": 80820,
          "durationTicks": 59
        },
        {
          "time": 263.330334,
          "midi": 59,
          "name": "B3",
          "velocity": 1,
          "duration": 0.18437499999998863,
          "ticks": 80820,
          "durationTicks": 59
        },
        {
          "time": 263.517834,
          "midi": 67,
          "name": "G4",
          "velocity": 0.9763779527559056,
          "duration": 0.18437499999998863,
          "ticks": 80880,
          "durationTicks": 59
        },
        {
          "time": 263.517834,
          "midi": 67,
          "name": "G4",
          "velocity": 0.9763779527559056,
          "duration": 0.18437499999998863,
          "ticks": 80880,
          "durationTicks": 59
        },
        {
          "time": 263.517834,
          "midi": 55,
          "name": "G3",
          "velocity": 0.937007874015748,
          "duration": 0.18437499999998863,
          "ticks": 80880,
          "durationTicks": 59
        },
        {
          "time": 263.517834,
          "midi": 55,
          "name": "G3",
          "velocity": 0.937007874015748,
          "duration": 0.18437499999998863,
          "ticks": 80880,
          "durationTicks": 59
        },
        {
          "time": 263.705334,
          "midi": 64,
          "name": "E4",
          "velocity": 1,
          "duration": 0.18437499999998863,
          "ticks": 80940,
          "durationTicks": 59
        },
        {
          "time": 263.705334,
          "midi": 64,
          "name": "E4",
          "velocity": 1,
          "duration": 0.18437499999998863,
          "ticks": 80940,
          "durationTicks": 59
        },
        {
          "time": 263.705334,
          "midi": 52,
          "name": "E3",
          "velocity": 0.9763779527559056,
          "duration": 0.18437499999998863,
          "ticks": 80940,
          "durationTicks": 59
        },
        {
          "time": 263.705334,
          "midi": 52,
          "name": "E3",
          "velocity": 0.9763779527559056,
          "duration": 0.18437499999998863,
          "ticks": 80940,
          "durationTicks": 59
        },
        {
          "time": 263.892834,
          "midi": 62,
          "name": "D4",
          "velocity": 0.937007874015748,
          "duration": 0.18437499999998863,
          "ticks": 81000,
          "durationTicks": 59
        },
        {
          "time": 263.892834,
          "midi": 62,
          "name": "D4",
          "velocity": 0.937007874015748,
          "duration": 0.18437499999998863,
          "ticks": 81000,
          "durationTicks": 59
        },
        {
          "time": 263.892834,
          "midi": 50,
          "name": "D3",
          "velocity": 0.9763779527559056,
          "duration": 0.18437499999998863,
          "ticks": 81000,
          "durationTicks": 59
        },
        {
          "time": 263.892834,
          "midi": 50,
          "name": "D3",
          "velocity": 0.9763779527559056,
          "duration": 0.18437499999998863,
          "ticks": 81000,
          "durationTicks": 59
        },
        {
          "time": 264.080334,
          "midi": 61,
          "name": "C#4",
          "velocity": 0.9763779527559056,
          "duration": 0.18437499999998863,
          "ticks": 81060,
          "durationTicks": 59
        },
        {
          "time": 264.080334,
          "midi": 61,
          "name": "C#4",
          "velocity": 0.9763779527559056,
          "duration": 0.18437499999998863,
          "ticks": 81060,
          "durationTicks": 59
        },
        {
          "time": 264.080334,
          "midi": 49,
          "name": "C#3",
          "velocity": 0.937007874015748,
          "duration": 0.18437499999998863,
          "ticks": 81060,
          "durationTicks": 59
        },
        {
          "time": 264.080334,
          "midi": 49,
          "name": "C#3",
          "velocity": 0.937007874015748,
          "duration": 0.18437499999998863,
          "ticks": 81060,
          "durationTicks": 59
        },
        {
          "time": 264.267834,
          "midi": 64,
          "name": "E4",
          "velocity": 0.9763779527559056,
          "duration": 0.18437499999998863,
          "ticks": 81120,
          "durationTicks": 59
        },
        {
          "time": 264.267834,
          "midi": 64,
          "name": "E4",
          "velocity": 0.9763779527559056,
          "duration": 0.18437499999998863,
          "ticks": 81120,
          "durationTicks": 59
        },
        {
          "time": 264.267834,
          "midi": 52,
          "name": "E3",
          "velocity": 0.937007874015748,
          "duration": 0.18437499999998863,
          "ticks": 81120,
          "durationTicks": 59
        },
        {
          "time": 264.267834,
          "midi": 52,
          "name": "E3",
          "velocity": 0.937007874015748,
          "duration": 0.18437499999998863,
          "ticks": 81120,
          "durationTicks": 59
        },
        {
          "time": 264.455334,
          "midi": 61,
          "name": "C#4",
          "velocity": 0.937007874015748,
          "duration": 0.18437499999998863,
          "ticks": 81180,
          "durationTicks": 59
        },
        {
          "time": 264.455334,
          "midi": 61,
          "name": "C#4",
          "velocity": 0.937007874015748,
          "duration": 0.18437499999998863,
          "ticks": 81180,
          "durationTicks": 59
        },
        {
          "time": 264.455334,
          "midi": 49,
          "name": "C#3",
          "velocity": 1,
          "duration": 0.18437499999998863,
          "ticks": 81180,
          "durationTicks": 59
        },
        {
          "time": 264.455334,
          "midi": 49,
          "name": "C#3",
          "velocity": 1,
          "duration": 0.18437499999998863,
          "ticks": 81180,
          "durationTicks": 59
        },
        {
          "time": 264.642834,
          "midi": 59,
          "name": "B3",
          "velocity": 0.9763779527559056,
          "duration": 0.18437499999998863,
          "ticks": 81240,
          "durationTicks": 59
        },
        {
          "time": 264.642834,
          "midi": 59,
          "name": "B3",
          "velocity": 0.9763779527559056,
          "duration": 0.18437499999998863,
          "ticks": 81240,
          "durationTicks": 59
        },
        {
          "time": 264.642834,
          "midi": 47,
          "name": "B2",
          "velocity": 0.905511811023622,
          "duration": 0.18437499999998863,
          "ticks": 81240,
          "durationTicks": 59
        },
        {
          "time": 264.642834,
          "midi": 47,
          "name": "B2",
          "velocity": 0.905511811023622,
          "duration": 0.18437499999998863,
          "ticks": 81240,
          "durationTicks": 59
        },
        {
          "time": 264.830334,
          "midi": 45,
          "name": "A2",
          "velocity": 0.905511811023622,
          "duration": 0.18437499999998863,
          "ticks": 81300,
          "durationTicks": 59
        },
        {
          "time": 264.830334,
          "midi": 45,
          "name": "A2",
          "velocity": 0.905511811023622,
          "duration": 0.18437499999998863,
          "ticks": 81300,
          "durationTicks": 59
        },
        {
          "time": 264.830334,
          "midi": 57,
          "name": "A3",
          "velocity": 1,
          "duration": 0.18437499999998863,
          "ticks": 81300,
          "durationTicks": 59
        },
        {
          "time": 264.830334,
          "midi": 57,
          "name": "A3",
          "velocity": 1,
          "duration": 0.18437499999998863,
          "ticks": 81300,
          "durationTicks": 59
        },
        {
          "time": 265.017834,
          "midi": 47,
          "name": "B2",
          "velocity": 0.937007874015748,
          "duration": 0.18437499999998863,
          "ticks": 81360,
          "durationTicks": 59
        },
        {
          "time": 265.017834,
          "midi": 47,
          "name": "B2",
          "velocity": 0.937007874015748,
          "duration": 0.18437499999998863,
          "ticks": 81360,
          "durationTicks": 59
        },
        {
          "time": 265.017834,
          "midi": 59,
          "name": "B3",
          "velocity": 0.9763779527559056,
          "duration": 0.18437499999998863,
          "ticks": 81360,
          "durationTicks": 59
        },
        {
          "time": 265.017834,
          "midi": 59,
          "name": "B3",
          "velocity": 0.9763779527559056,
          "duration": 0.18437499999998863,
          "ticks": 81360,
          "durationTicks": 59
        },
        {
          "time": 265.205334,
          "midi": 49,
          "name": "C#3",
          "velocity": 1,
          "duration": 0.18437499999998863,
          "ticks": 81420,
          "durationTicks": 59
        },
        {
          "time": 265.205334,
          "midi": 49,
          "name": "C#3",
          "velocity": 1,
          "duration": 0.18437499999998863,
          "ticks": 81420,
          "durationTicks": 59
        },
        {
          "time": 265.205334,
          "midi": 61,
          "name": "C#4",
          "velocity": 1,
          "duration": 0.18437499999998863,
          "ticks": 81420,
          "durationTicks": 59
        },
        {
          "time": 265.205334,
          "midi": 61,
          "name": "C#4",
          "velocity": 1,
          "duration": 0.18437499999998863,
          "ticks": 81420,
          "durationTicks": 59
        },
        {
          "time": 265.392834,
          "midi": 50,
          "name": "D3",
          "velocity": 0.8503937007874016,
          "duration": 0.18437499999998863,
          "ticks": 81480,
          "durationTicks": 59
        },
        {
          "time": 265.392834,
          "midi": 50,
          "name": "D3",
          "velocity": 0.8503937007874016,
          "duration": 0.18437499999998863,
          "ticks": 81480,
          "durationTicks": 59
        },
        {
          "time": 265.392834,
          "midi": 62,
          "name": "D4",
          "velocity": 1,
          "duration": 0.18437499999998863,
          "ticks": 81480,
          "durationTicks": 59
        },
        {
          "time": 265.392834,
          "midi": 62,
          "name": "D4",
          "velocity": 1,
          "duration": 0.18437499999998863,
          "ticks": 81480,
          "durationTicks": 59
        },
        {
          "time": 265.580334,
          "midi": 54,
          "name": "F#3",
          "velocity": 0.937007874015748,
          "duration": 0.18437499999998863,
          "ticks": 81540,
          "durationTicks": 59
        },
        {
          "time": 265.580334,
          "midi": 54,
          "name": "F#3",
          "velocity": 0.937007874015748,
          "duration": 0.18437499999998863,
          "ticks": 81540,
          "durationTicks": 59
        },
        {
          "time": 265.580334,
          "midi": 66,
          "name": "F#4",
          "velocity": 0.937007874015748,
          "duration": 0.18437499999998863,
          "ticks": 81540,
          "durationTicks": 59
        },
        {
          "time": 265.580334,
          "midi": 66,
          "name": "F#4",
          "velocity": 0.937007874015748,
          "duration": 0.18437499999998863,
          "ticks": 81540,
          "durationTicks": 59
        },
        {
          "time": 265.767834,
          "midi": 64,
          "name": "E4",
          "velocity": 0.937007874015748,
          "duration": 0.18437499999998863,
          "ticks": 81600,
          "durationTicks": 59
        },
        {
          "time": 265.767834,
          "midi": 64,
          "name": "E4",
          "velocity": 0.937007874015748,
          "duration": 0.18437499999998863,
          "ticks": 81600,
          "durationTicks": 59
        },
        {
          "time": 265.767834,
          "midi": 52,
          "name": "E3",
          "velocity": 0.905511811023622,
          "duration": 0.18437499999998863,
          "ticks": 81600,
          "durationTicks": 59
        },
        {
          "time": 265.767834,
          "midi": 52,
          "name": "E3",
          "velocity": 0.905511811023622,
          "duration": 0.18437499999998863,
          "ticks": 81600,
          "durationTicks": 59
        },
        {
          "time": 265.955334,
          "midi": 61,
          "name": "C#4",
          "velocity": 1,
          "duration": 0.18437499999998863,
          "ticks": 81660,
          "durationTicks": 59
        },
        {
          "time": 265.955334,
          "midi": 61,
          "name": "C#4",
          "velocity": 1,
          "duration": 0.18437499999998863,
          "ticks": 81660,
          "durationTicks": 59
        },
        {
          "time": 265.955334,
          "midi": 49,
          "name": "C#3",
          "velocity": 1,
          "duration": 0.18437499999998863,
          "ticks": 81660,
          "durationTicks": 59
        },
        {
          "time": 265.955334,
          "midi": 49,
          "name": "C#3",
          "velocity": 1,
          "duration": 0.18437499999998863,
          "ticks": 81660,
          "durationTicks": 59
        },
        {
          "time": 266.142834,
          "midi": 62,
          "name": "D4",
          "velocity": 0.9763779527559056,
          "duration": 0.37187499999998863,
          "ticks": 81720,
          "durationTicks": 119
        },
        {
          "time": 266.142834,
          "midi": 62,
          "name": "D4",
          "velocity": 0.9763779527559056,
          "duration": 0.37187499999998863,
          "ticks": 81720,
          "durationTicks": 119
        },
        {
          "time": 266.142834,
          "midi": 50,
          "name": "D3",
          "velocity": 0.937007874015748,
          "duration": 0.37187499999998863,
          "ticks": 81720,
          "durationTicks": 119
        },
        {
          "time": 266.142834,
          "midi": 50,
          "name": "D3",
          "velocity": 0.937007874015748,
          "duration": 0.37187499999998863,
          "ticks": 81720,
          "durationTicks": 119
        },
        {
          "time": 269.892834,
          "midi": 62,
          "name": "D4",
          "velocity": 1,
          "duration": 1.1218749999999886,
          "ticks": 82920,
          "durationTicks": 359
        },
        {
          "time": 271.017834,
          "midi": 61,
          "name": "C#4",
          "velocity": 1,
          "duration": 0.18437499999998863,
          "ticks": 83280,
          "durationTicks": 59
        },
        {
          "time": 271.205334,
          "midi": 59,
          "name": "B3",
          "velocity": 1,
          "duration": 0.18437499999998863,
          "ticks": 83340,
          "durationTicks": 59
        },
        {
          "time": 271.392834,
          "midi": 57,
          "name": "A3",
          "velocity": 1,
          "duration": 0.18437499999998863,
          "ticks": 83400,
          "durationTicks": 59
        },
        {
          "time": 271.580334,
          "midi": 62,
          "name": "D4",
          "velocity": 1,
          "duration": 0.18437499999998863,
          "ticks": 83460,
          "durationTicks": 59
        },
        {
          "time": 271.767834,
          "midi": 66,
          "name": "F#4",
          "velocity": 1,
          "duration": 0.18437499999998863,
          "ticks": 83520,
          "durationTicks": 59
        },
        {
          "time": 271.955334,
          "midi": 64,
          "name": "E4",
          "velocity": 1,
          "duration": 0.18437499999998863,
          "ticks": 83580,
          "durationTicks": 59
        },
        {
          "time": 272.142834,
          "midi": 64,
          "name": "E4",
          "velocity": 0.8818897637795275,
          "duration": 0.18437499999998863,
          "ticks": 83640,
          "durationTicks": 59
        },
        {
          "time": 272.330334,
          "midi": 69,
          "name": "A4",
          "velocity": 1,
          "duration": 0.18437499999998863,
          "ticks": 83700,
          "durationTicks": 59
        },
        {
          "time": 272.517834,
          "midi": 67,
          "name": "G4",
          "velocity": 1,
          "duration": 0.18437499999998863,
          "ticks": 83760,
          "durationTicks": 59
        },
        {
          "time": 272.705334,
          "midi": 64,
          "name": "E4",
          "velocity": 1,
          "duration": 0.18437499999998863,
          "ticks": 83820,
          "durationTicks": 59
        },
        {
          "time": 272.892834,
          "midi": 62,
          "name": "D4",
          "velocity": 1,
          "duration": 0.37187499999998863,
          "ticks": 83880,
          "durationTicks": 119
        },
        {
          "time": 275.892834,
          "midi": 62,
          "name": "D4",
          "velocity": 0.8503937007874016,
          "duration": 1.1218749999999886,
          "ticks": 84840,
          "durationTicks": 359
        },
        {
          "time": 277.017834,
          "midi": 61,
          "name": "C#4",
          "velocity": 1,
          "duration": 0.18437499999998863,
          "ticks": 85200,
          "durationTicks": 59
        },
        {
          "time": 277.205334,
          "midi": 59,
          "name": "B3",
          "velocity": 0.6771653543307087,
          "duration": 0.18437499999998863,
          "ticks": 85260,
          "durationTicks": 59
        },
        {
          "time": 277.392834,
          "midi": 61,
          "name": "C#4",
          "velocity": 1,
          "duration": 0.18437499999998863,
          "ticks": 85320,
          "durationTicks": 59
        },
        {
          "time": 277.580334,
          "midi": 64,
          "name": "E4",
          "velocity": 0.8818897637795275,
          "duration": 0.18437499999998863,
          "ticks": 85380,
          "durationTicks": 59
        },
        {
          "time": 277.767834,
          "midi": 67,
          "name": "G4",
          "velocity": 0.8503937007874016,
          "duration": 0.18437499999998863,
          "ticks": 85440,
          "durationTicks": 59
        },
        {
          "time": 277.955334,
          "midi": 66,
          "name": "F#4",
          "velocity": 1,
          "duration": 0.18437499999998863,
          "ticks": 85500,
          "durationTicks": 59
        },
        {
          "time": 278.142834,
          "midi": 66,
          "name": "F#4",
          "velocity": 1,
          "duration": 0.18437499999998863,
          "ticks": 85560,
          "durationTicks": 59
        },
        {
          "time": 278.330334,
          "midi": 62,
          "name": "D4",
          "velocity": 0.8818897637795275,
          "duration": 0.18437499999998863,
          "ticks": 85620,
          "durationTicks": 59
        },
        {
          "time": 278.517834,
          "midi": 61,
          "name": "C#4",
          "velocity": 1,
          "duration": 0.18437499999998863,
          "ticks": 85680,
          "durationTicks": 59
        },
        {
          "time": 278.705334,
          "midi": 62,
          "name": "D4",
          "velocity": 0.937007874015748,
          "duration": 0.18437499999998863,
          "ticks": 85740,
          "durationTicks": 59
        },
        {
          "time": 278.892834,
          "midi": 64,
          "name": "E4",
          "velocity": 0.9763779527559056,
          "duration": 0.37187499999998863,
          "ticks": 85800,
          "durationTicks": 119
        },
        {
          "time": 279.830334,
          "midi": 57,
          "name": "A3",
          "velocity": 1,
          "duration": 0.18437499999998863,
          "ticks": 86100,
          "durationTicks": 59
        },
        {
          "time": 280.017834,
          "midi": 66,
          "name": "F#4",
          "velocity": 1,
          "duration": 0.18437499999998863,
          "ticks": 86160,
          "durationTicks": 59
        },
        {
          "time": 280.205334,
          "midi": 62,
          "name": "D4",
          "velocity": 0.6771653543307087,
          "duration": 0.18437499999998863,
          "ticks": 86220,
          "durationTicks": 59
        },
        {
          "time": 280.392834,
          "midi": 67,
          "name": "G4",
          "velocity": 1,
          "duration": 0.37187499999998863,
          "ticks": 86280,
          "durationTicks": 119
        },
        {
          "time": 281.330334,
          "midi": 57,
          "name": "A3",
          "velocity": 1,
          "duration": 0.18437499999998863,
          "ticks": 86580,
          "durationTicks": 59
        },
        {
          "time": 281.517834,
          "midi": 66,
          "name": "F#4",
          "velocity": 1,
          "duration": 0.18437499999998863,
          "ticks": 86640,
          "durationTicks": 59
        },
        {
          "time": 281.705334,
          "midi": 62,
          "name": "D4",
          "velocity": 0.6771653543307087,
          "duration": 0.18437499999998863,
          "ticks": 86700,
          "durationTicks": 59
        },
        {
          "time": 281.892834,
          "midi": 67,
          "name": "G4",
          "velocity": 1,
          "duration": 0.37187499999998863,
          "ticks": 86760,
          "durationTicks": 119
        },
        {
          "time": 282.455334,
          "midi": 61,
          "name": "C#4",
          "velocity": 1,
          "duration": 0.18437499999998863,
          "ticks": 86940,
          "durationTicks": 59
        },
        {
          "time": 282.642834,
          "midi": 66,
          "name": "F#4",
          "velocity": 1,
          "duration": 0.37187499999998863,
          "ticks": 87000,
          "durationTicks": 119
        },
        {
          "time": 283.205334,
          "midi": 54,
          "name": "F#3",
          "velocity": 0.8503937007874016,
          "duration": 0.18437499999998863,
          "ticks": 87180,
          "durationTicks": 59
        },
        {
          "time": 283.392834,
          "midi": 62,
          "name": "D4",
          "velocity": 0.8503937007874016,
          "duration": 0.37187499999998863,
          "ticks": 87240,
          "durationTicks": 119
        },
        {
          "time": 283.955334,
          "midi": 64,
          "name": "E4",
          "velocity": 1,
          "duration": 0.18437499999998863,
          "ticks": 87420,
          "durationTicks": 59
        },
        {
          "time": 284.142834,
          "midi": 57,
          "name": "A3",
          "velocity": 1,
          "duration": 0.37187499999998863,
          "ticks": 87480,
          "durationTicks": 119
        },
        {
          "time": 287.892834,
          "midi": 62,
          "name": "D4",
          "velocity": 0.9763779527559056,
          "duration": 1.1218749999999886,
          "ticks": 88680,
          "durationTicks": 359
        },
        {
          "time": 289.017834,
          "midi": 61,
          "name": "C#4",
          "velocity": 1,
          "duration": 0.18437499999998863,
          "ticks": 89040,
          "durationTicks": 59
        },
        {
          "time": 289.205334,
          "midi": 59,
          "name": "B3",
          "velocity": 1,
          "duration": 0.18437499999998863,
          "ticks": 89100,
          "durationTicks": 59
        },
        {
          "time": 289.392834,
          "midi": 61,
          "name": "C#4",
          "velocity": 1,
          "duration": 0.18437499999998863,
          "ticks": 89160,
          "durationTicks": 59
        },
        {
          "time": 289.580334,
          "midi": 64,
          "name": "E4",
          "velocity": 1,
          "duration": 0.18437499999998863,
          "ticks": 89220,
          "durationTicks": 59
        },
        {
          "time": 289.767834,
          "midi": 67,
          "name": "G4",
          "velocity": 0.8503937007874016,
          "duration": 0.18437499999998863,
          "ticks": 89280,
          "durationTicks": 59
        },
        {
          "time": 289.955334,
          "midi": 66,
          "name": "F#4",
          "velocity": 1,
          "duration": 0.18437499999998863,
          "ticks": 89340,
          "durationTicks": 59
        },
        {
          "time": 290.142834,
          "midi": 66,
          "name": "F#4",
          "velocity": 1,
          "duration": 0.18437499999998863,
          "ticks": 89400,
          "durationTicks": 59
        },
        {
          "time": 290.330334,
          "midi": 62,
          "name": "D4",
          "velocity": 0.8267716535433071,
          "duration": 0.18437499999998863,
          "ticks": 89460,
          "durationTicks": 59
        },
        {
          "time": 290.517834,
          "midi": 61,
          "name": "C#4",
          "velocity": 0.9763779527559056,
          "duration": 0.18437499999998863,
          "ticks": 89520,
          "durationTicks": 59
        },
        {
          "time": 290.705334,
          "midi": 62,
          "name": "D4",
          "velocity": 0.9763779527559056,
          "duration": 0.18437499999998863,
          "ticks": 89580,
          "durationTicks": 59
        },
        {
          "time": 290.892834,
          "midi": 64,
          "name": "E4",
          "velocity": 0.8818897637795275,
          "duration": 0.37187499999998863,
          "ticks": 89640,
          "durationTicks": 119
        },
        {
          "time": 290.892834,
          "midi": 64,
          "name": "E4",
          "velocity": 0.8818897637795275,
          "duration": 0.37187499999998863,
          "ticks": 89640,
          "durationTicks": 119
        },
        {
          "time": 291.830334,
          "midi": 57,
          "name": "A3",
          "velocity": 0.7795275590551181,
          "duration": 0.18437499999998863,
          "ticks": 89940,
          "durationTicks": 59
        },
        {
          "time": 291.830334,
          "midi": 57,
          "name": "A3",
          "velocity": 0.7795275590551181,
          "duration": 0.18437499999998863,
          "ticks": 89940,
          "durationTicks": 59
        },
        {
          "time": 292.017834,
          "midi": 66,
          "name": "F#4",
          "velocity": 0.7795275590551181,
          "duration": 0.18437499999998863,
          "ticks": 90000,
          "durationTicks": 59
        },
        {
          "time": 292.017834,
          "midi": 66,
          "name": "F#4",
          "velocity": 0.7795275590551181,
          "duration": 0.18437499999998863,
          "ticks": 90000,
          "durationTicks": 59
        },
        {
          "time": 292.205334,
          "midi": 62,
          "name": "D4",
          "velocity": 0.7795275590551181,
          "duration": 0.18437499999998863,
          "ticks": 90060,
          "durationTicks": 59
        },
        {
          "time": 292.205334,
          "midi": 62,
          "name": "D4",
          "velocity": 0.7795275590551181,
          "duration": 0.18437499999998863,
          "ticks": 90060,
          "durationTicks": 59
        },
        {
          "time": 292.392834,
          "midi": 67,
          "name": "G4",
          "velocity": 0.7795275590551181,
          "duration": 0.18437499999998863,
          "ticks": 90120,
          "durationTicks": 59
        },
        {
          "time": 292.392834,
          "midi": 67,
          "name": "G4",
          "velocity": 0.7795275590551181,
          "duration": 0.18437499999998863,
          "ticks": 90120,
          "durationTicks": 59
        },
        {
          "time": 293.330334,
          "midi": 57,
          "name": "A3",
          "velocity": 0.7795275590551181,
          "duration": 0.18437499999998863,
          "ticks": 90420,
          "durationTicks": 59
        },
        {
          "time": 293.330334,
          "midi": 57,
          "name": "A3",
          "velocity": 0.7795275590551181,
          "duration": 0.18437499999998863,
          "ticks": 90420,
          "durationTicks": 59
        },
        {
          "time": 293.517834,
          "midi": 64,
          "name": "E4",
          "velocity": 0.7716535433070866,
          "duration": 0.18437499999998863,
          "ticks": 90480,
          "durationTicks": 59
        },
        {
          "time": 293.517834,
          "midi": 64,
          "name": "E4",
          "velocity": 0.7716535433070866,
          "duration": 0.18437499999998863,
          "ticks": 90480,
          "durationTicks": 59
        },
        {
          "time": 293.705334,
          "midi": 66,
          "name": "F#4",
          "velocity": 0.7716535433070866,
          "duration": 0.18437499999998863,
          "ticks": 90540,
          "durationTicks": 59
        },
        {
          "time": 293.705334,
          "midi": 66,
          "name": "F#4",
          "velocity": 0.7716535433070866,
          "duration": 0.18437499999998863,
          "ticks": 90540,
          "durationTicks": 59
        },
        {
          "time": 293.892834,
          "midi": 67,
          "name": "G4",
          "velocity": 0.7716535433070866,
          "duration": 0.37187499999998863,
          "ticks": 90600,
          "durationTicks": 119
        },
        {
          "time": 293.892834,
          "midi": 67,
          "name": "G4",
          "velocity": 0.7716535433070866,
          "duration": 0.37187499999998863,
          "ticks": 90600,
          "durationTicks": 119
        },
        {
          "time": 294.455334,
          "midi": 61,
          "name": "C#4",
          "velocity": 0.7637795275590551,
          "duration": 0.18437499999998863,
          "ticks": 90780,
          "durationTicks": 59
        },
        {
          "time": 294.455334,
          "midi": 61,
          "name": "C#4",
          "velocity": 0.7637795275590551,
          "duration": 0.18437499999998863,
          "ticks": 90780,
          "durationTicks": 59
        },
        {
          "time": 294.642834,
          "midi": 66,
          "name": "F#4",
          "velocity": 0.7637795275590551,
          "duration": 0.37187499999998863,
          "ticks": 90840,
          "durationTicks": 119
        },
        {
          "time": 294.642834,
          "midi": 66,
          "name": "F#4",
          "velocity": 0.7637795275590551,
          "duration": 0.37187499999998863,
          "ticks": 90840,
          "durationTicks": 119
        },
        {
          "time": 295.205334,
          "midi": 54,
          "name": "F#3",
          "velocity": 0.7637795275590551,
          "duration": 0.18437499999998863,
          "ticks": 91020,
          "durationTicks": 59
        },
        {
          "time": 295.205334,
          "midi": 54,
          "name": "F#3",
          "velocity": 0.7637795275590551,
          "duration": 0.18437499999998863,
          "ticks": 91020,
          "durationTicks": 59
        },
        {
          "time": 295.392834,
          "midi": 62,
          "name": "D4",
          "velocity": 0.7559055118110236,
          "duration": 0.37187499999998863,
          "ticks": 91080,
          "durationTicks": 119
        },
        {
          "time": 295.392834,
          "midi": 62,
          "name": "D4",
          "velocity": 0.7559055118110236,
          "duration": 0.37187499999998863,
          "ticks": 91080,
          "durationTicks": 119
        },
        {
          "time": 295.955334,
          "midi": 64,
          "name": "E4",
          "velocity": 0.7559055118110236,
          "duration": 0.18437499999998863,
          "ticks": 91260,
          "durationTicks": 59
        },
        {
          "time": 295.955334,
          "midi": 64,
          "name": "E4",
          "velocity": 0.7559055118110236,
          "duration": 0.18437499999998863,
          "ticks": 91260,
          "durationTicks": 59
        },
        {
          "time": 296.142834,
          "midi": 57,
          "name": "A3",
          "velocity": 0.7637795275590551,
          "duration": 0.37187499999998863,
          "ticks": 91320,
          "durationTicks": 119
        },
        {
          "time": 296.142834,
          "midi": 57,
          "name": "A3",
          "velocity": 0.7637795275590551,
          "duration": 0.37187499999998863,
          "ticks": 91320,
          "durationTicks": 119
        },
        {
          "time": 296.705334,
          "midi": 57,
          "name": "A3",
          "velocity": 0.8110236220472441,
          "duration": 0.18437499999998863,
          "ticks": 91500,
          "durationTicks": 59
        },
        {
          "time": 296.705334,
          "midi": 57,
          "name": "A3",
          "velocity": 0.8110236220472441,
          "duration": 0.18437499999998863,
          "ticks": 91500,
          "durationTicks": 59
        },
        {
          "time": 296.892834,
          "midi": 66,
          "name": "F#4",
          "velocity": 0.84251968503937,
          "duration": 0.18437499999998863,
          "ticks": 91560,
          "durationTicks": 59
        },
        {
          "time": 296.892834,
          "midi": 66,
          "name": "F#4",
          "velocity": 0.84251968503937,
          "duration": 0.18437499999998863,
          "ticks": 91560,
          "durationTicks": 59
        },
        {
          "time": 297.080334,
          "midi": 57,
          "name": "A3",
          "velocity": 0.8740157480314961,
          "duration": 0.18437499999998863,
          "ticks": 91620,
          "durationTicks": 59
        },
        {
          "time": 297.080334,
          "midi": 57,
          "name": "A3",
          "velocity": 0.8740157480314961,
          "duration": 0.18437499999998863,
          "ticks": 91620,
          "durationTicks": 59
        },
        {
          "time": 297.267834,
          "midi": 66,
          "name": "F#4",
          "velocity": 0.9133858267716536,
          "duration": 0.18437499999998863,
          "ticks": 91680,
          "durationTicks": 59
        },
        {
          "time": 297.267834,
          "midi": 66,
          "name": "F#4",
          "velocity": 0.9133858267716536,
          "duration": 0.18437499999998863,
          "ticks": 91680,
          "durationTicks": 59
        },
        {
          "time": 297.830334,
          "midi": 45,
          "name": "A2",
          "velocity": 0.9212598425196851,
          "duration": 0.18437499999998863,
          "ticks": 91860,
          "durationTicks": 59
        },
        {
          "time": 297.830334,
          "midi": 45,
          "name": "A2",
          "velocity": 0.9212598425196851,
          "duration": 0.18437499999998863,
          "ticks": 91860,
          "durationTicks": 59
        },
        {
          "time": 298.017834,
          "midi": 57,
          "name": "A3",
          "velocity": 0.8976377952755905,
          "duration": 0.37187499999998863,
          "ticks": 91920,
          "durationTicks": 119
        },
        {
          "time": 298.017834,
          "midi": 57,
          "name": "A3",
          "velocity": 0.8976377952755905,
          "duration": 0.37187499999998863,
          "ticks": 91920,
          "durationTicks": 119
        },
        {
          "time": 298.580334,
          "midi": 57,
          "name": "A3",
          "velocity": 0.7086614173228346,
          "duration": 0.18437499999998863,
          "ticks": 92100,
          "durationTicks": 59
        },
        {
          "time": 298.580334,
          "midi": 57,
          "name": "A3",
          "velocity": 0.7086614173228346,
          "duration": 0.18437499999998863,
          "ticks": 92100,
          "durationTicks": 59
        },
        {
          "time": 298.767834,
          "midi": 67,
          "name": "G4",
          "velocity": 0.6929133858267716,
          "duration": 0.37187499999998863,
          "ticks": 92160,
          "durationTicks": 119
        },
        {
          "time": 298.767834,
          "midi": 67,
          "name": "G4",
          "velocity": 0.6929133858267716,
          "duration": 0.37187499999998863,
          "ticks": 92160,
          "durationTicks": 119
        },
        {
          "time": 299.330334,
          "midi": 57,
          "name": "A3",
          "velocity": 0.6220472440944882,
          "duration": 0.18437499999998863,
          "ticks": 92340,
          "durationTicks": 59
        },
        {
          "time": 299.330334,
          "midi": 57,
          "name": "A3",
          "velocity": 0.6220472440944882,
          "duration": 0.18437499999998863,
          "ticks": 92340,
          "durationTicks": 59
        },
        {
          "time": 299.517834,
          "midi": 64,
          "name": "E4",
          "velocity": 0.6220472440944882,
          "duration": 0.37187499999998863,
          "ticks": 92400,
          "durationTicks": 119
        },
        {
          "time": 299.517834,
          "midi": 64,
          "name": "E4",
          "velocity": 0.6220472440944882,
          "duration": 0.37187499999998863,
          "ticks": 92400,
          "durationTicks": 119
        },
        {
          "time": 300.080334,
          "midi": 57,
          "name": "A3",
          "velocity": 0.5748031496062992,
          "duration": 0.18437499999998863,
          "ticks": 92580,
          "durationTicks": 59
        },
        {
          "time": 300.080334,
          "midi": 57,
          "name": "A3",
          "velocity": 0.5748031496062992,
          "duration": 0.18437499999998863,
          "ticks": 92580,
          "durationTicks": 59
        },
        {
          "time": 300.267834,
          "midi": 62,
          "name": "D4",
          "velocity": 0.5433070866141733,
          "duration": 0.37187499999998863,
          "ticks": 92640,
          "durationTicks": 119
        },
        {
          "time": 300.267834,
          "midi": 62,
          "name": "D4",
          "velocity": 0.5433070866141733,
          "duration": 0.37187499999998863,
          "ticks": 92640,
          "durationTicks": 119
        },
        {
          "time": 300.830334,
          "midi": 57,
          "name": "A3",
          "velocity": 0.5039370078740157,
          "duration": 0.18437499999998863,
          "ticks": 92820,
          "durationTicks": 59
        },
        {
          "time": 300.830334,
          "midi": 57,
          "name": "A3",
          "velocity": 0.5039370078740157,
          "duration": 0.18437499999998863,
          "ticks": 92820,
          "durationTicks": 59
        },
        {
          "time": 301.017834,
          "midi": 66,
          "name": "F#4",
          "velocity": 0.49606299212598426,
          "duration": 0.37187499999998863,
          "ticks": 92880,
          "durationTicks": 119
        },
        {
          "time": 301.017834,
          "midi": 66,
          "name": "F#4",
          "velocity": 0.49606299212598426,
          "duration": 0.37187499999998863,
          "ticks": 92880,
          "durationTicks": 119
        },
        {
          "time": 301.580334,
          "midi": 57,
          "name": "A3",
          "velocity": 0.47244094488188976,
          "duration": 0.18437499999998863,
          "ticks": 93060,
          "durationTicks": 59
        },
        {
          "time": 301.580334,
          "midi": 57,
          "name": "A3",
          "velocity": 0.47244094488188976,
          "duration": 0.18437499999998863,
          "ticks": 93060,
          "durationTicks": 59
        },
        {
          "time": 301.767834,
          "midi": 64,
          "name": "E4",
          "velocity": 0.4645669291338583,
          "duration": 0.37187499999998863,
          "ticks": 93120,
          "durationTicks": 119
        },
        {
          "time": 301.767834,
          "midi": 64,
          "name": "E4",
          "velocity": 0.4645669291338583,
          "duration": 0.37187499999998863,
          "ticks": 93120,
          "durationTicks": 119
        },
        {
          "time": 302.330334,
          "midi": 57,
          "name": "A3",
          "velocity": 0.4645669291338583,
          "duration": 0.18437499999998863,
          "ticks": 93300,
          "durationTicks": 59
        },
        {
          "time": 302.330334,
          "midi": 57,
          "name": "A3",
          "velocity": 0.4645669291338583,
          "duration": 0.18437499999998863,
          "ticks": 93300,
          "durationTicks": 59
        },
        {
          "time": 302.517834,
          "midi": 62,
          "name": "D4",
          "velocity": 0.4645669291338583,
          "duration": 0.18437499999998863,
          "ticks": 93360,
          "durationTicks": 59
        },
        {
          "time": 302.705334,
          "midi": 54,
          "name": "F#3",
          "velocity": 0.4645669291338583,
          "duration": 0.18437499999998863,
          "ticks": 93420,
          "durationTicks": 59
        },
        {
          "time": 302.705334,
          "midi": 57,
          "name": "A3",
          "velocity": 0.4645669291338583,
          "duration": 0.18437499999998863,
          "ticks": 93420,
          "durationTicks": 59
        },
        {
          "time": 302.892834,
          "midi": 52,
          "name": "E3",
          "velocity": 0.4645669291338583,
          "duration": 0.5593749999999886,
          "ticks": 93480,
          "durationTicks": 179
        },
        {
          "time": 302.892834,
          "midi": 55,
          "name": "G3",
          "velocity": 0.4645669291338583,
          "duration": 0.5593749999999886,
          "ticks": 93480,
          "durationTicks": 179
        },
        {
          "time": 303.455334,
          "midi": 54,
          "name": "F#3",
          "velocity": 0.47244094488188976,
          "duration": 0.18437499999998863,
          "ticks": 93660,
          "durationTicks": 59
        },
        {
          "time": 303.455334,
          "midi": 50,
          "name": "D3",
          "velocity": 0.47244094488188976,
          "duration": 0.18437499999998863,
          "ticks": 93660,
          "durationTicks": 59
        },
        {
          "time": 303.642834,
          "midi": 54,
          "name": "F#3",
          "velocity": 0.47244094488188976,
          "duration": 0.37187499999998863,
          "ticks": 93720,
          "durationTicks": 119
        },
        {
          "time": 303.642834,
          "midi": 50,
          "name": "D3",
          "velocity": 0.47244094488188976,
          "duration": 0.37187499999998863,
          "ticks": 93720,
          "durationTicks": 119
        },
        {
          "time": 304.017834,
          "midi": 59,
          "name": "B3",
          "velocity": 0.48031496062992124,
          "duration": 0.37187499999998863,
          "ticks": 93840,
          "durationTicks": 119
        },
        {
          "time": 304.017834,
          "midi": 62,
          "name": "D4",
          "velocity": 0.48031496062992124,
          "duration": 0.37187499999998863,
          "ticks": 93840,
          "durationTicks": 119
        },
        {
          "time": 304.392834,
          "midi": 57,
          "name": "A3",
          "velocity": 0.8267716535433071,
          "duration": 0.5593749999999886,
          "ticks": 93960,
          "durationTicks": 179
        },
        {
          "time": 304.392834,
          "midi": 60,
          "name": "C4",
          "velocity": 0.8267716535433071,
          "duration": 0.5593749999999886,
          "ticks": 93960,
          "durationTicks": 179
        },
        {
          "time": 304.955334,
          "midi": 59,
          "name": "B3",
          "velocity": 0.7795275590551181,
          "duration": 0.18437499999998863,
          "ticks": 94140,
          "durationTicks": 59
        },
        {
          "time": 304.955334,
          "midi": 55,
          "name": "G3",
          "velocity": 0.8031496062992126,
          "duration": 0.18437499999998863,
          "ticks": 94140,
          "durationTicks": 59
        },
        {
          "time": 305.142834,
          "midi": 59,
          "name": "B3",
          "velocity": 0.7244094488188977,
          "duration": 0.37187499999998863,
          "ticks": 94200,
          "durationTicks": 119
        },
        {
          "time": 305.142834,
          "midi": 55,
          "name": "G3",
          "velocity": 0.7244094488188977,
          "duration": 0.37187499999998863,
          "ticks": 94200,
          "durationTicks": 119
        },
        {
          "time": 305.517834,
          "midi": 67,
          "name": "G4",
          "velocity": 0.6614173228346457,
          "duration": 0.18437499999998863,
          "ticks": 94320,
          "durationTicks": 59
        },
        {
          "time": 305.517834,
          "midi": 59,
          "name": "B3",
          "velocity": 0.6771653543307087,
          "duration": 0.18437499999998863,
          "ticks": 94320,
          "durationTicks": 59
        },
        {
          "time": 305.705334,
          "midi": 64,
          "name": "E4",
          "velocity": 0.6535433070866141,
          "duration": 0.18437499999998863,
          "ticks": 94380,
          "durationTicks": 59
        },
        {
          "time": 305.705334,
          "midi": 55,
          "name": "G3",
          "velocity": 0.6535433070866141,
          "duration": 0.18437499999998863,
          "ticks": 94380,
          "durationTicks": 59
        },
        {
          "time": 305.892834,
          "midi": 62,
          "name": "D4",
          "velocity": 0.6929133858267716,
          "duration": 0.18437499999998863,
          "ticks": 94440,
          "durationTicks": 59
        },
        {
          "time": 305.892834,
          "midi": 54,
          "name": "F#3",
          "velocity": 0.8031496062992126,
          "duration": 0.18437499999998863,
          "ticks": 94440,
          "durationTicks": 59
        },
        {
          "time": 306.080334,
          "midi": 52,
          "name": "E3",
          "velocity": 0.6771653543307087,
          "duration": 0.18437499999998863,
          "ticks": 94500,
          "durationTicks": 59
        },
        {
          "time": 306.080334,
          "midi": 61,
          "name": "C#4",
          "velocity": 0.8267716535433071,
          "duration": 0.18437499999998863,
          "ticks": 94500,
          "durationTicks": 59
        },
        {
          "time": 306.267834,
          "midi": 64,
          "name": "E4",
          "velocity": 0.7637795275590551,
          "duration": 0.18437499999998863,
          "ticks": 94560,
          "durationTicks": 59
        },
        {
          "time": 306.267834,
          "midi": 55,
          "name": "G3",
          "velocity": 0.7637795275590551,
          "duration": 0.18437499999998863,
          "ticks": 94560,
          "durationTicks": 59
        },
        {
          "time": 306.455334,
          "midi": 52,
          "name": "E3",
          "velocity": 0.5433070866141733,
          "duration": 0.18437499999998863,
          "ticks": 94620,
          "durationTicks": 59
        },
        {
          "time": 306.455334,
          "midi": 61,
          "name": "C#4",
          "velocity": 0.7795275590551181,
          "duration": 0.18437499999998863,
          "ticks": 94620,
          "durationTicks": 59
        },
        {
          "time": 306.642834,
          "midi": 50,
          "name": "D3",
          "velocity": 0.6771653543307087,
          "duration": 0.18437499999998863,
          "ticks": 94680,
          "durationTicks": 59
        },
        {
          "time": 306.642834,
          "midi": 59,
          "name": "B3",
          "velocity": 0.6771653543307087,
          "duration": 0.18437499999998863,
          "ticks": 94680,
          "durationTicks": 59
        },
        {
          "time": 306.830334,
          "midi": 49,
          "name": "C#3",
          "velocity": 0.7244094488188977,
          "duration": 0.18437499999998863,
          "ticks": 94740,
          "durationTicks": 59
        },
        {
          "time": 306.830334,
          "midi": 57,
          "name": "A3",
          "velocity": 0.7244094488188977,
          "duration": 0.18437499999998863,
          "ticks": 94740,
          "durationTicks": 59
        },
        {
          "time": 307.017834,
          "midi": 50,
          "name": "D3",
          "velocity": 0.6771653543307087,
          "duration": 0.18437499999998863,
          "ticks": 94800,
          "durationTicks": 59
        },
        {
          "time": 307.017834,
          "midi": 59,
          "name": "B3",
          "velocity": 0.6929133858267716,
          "duration": 0.18437499999998863,
          "ticks": 94800,
          "durationTicks": 59
        },
        {
          "time": 307.205334,
          "midi": 61,
          "name": "C#4",
          "velocity": 0.5905511811023622,
          "duration": 0.18437499999998863,
          "ticks": 94860,
          "durationTicks": 59
        },
        {
          "time": 307.205334,
          "midi": 52,
          "name": "E3",
          "velocity": 0.6535433070866141,
          "duration": 0.18437499999998863,
          "ticks": 94860,
          "durationTicks": 59
        },
        {
          "time": 307.392834,
          "midi": 62,
          "name": "D4",
          "velocity": 0.8031496062992126,
          "duration": 0.18437499999998863,
          "ticks": 94920,
          "durationTicks": 59
        },
        {
          "time": 307.392834,
          "midi": 54,
          "name": "F#3",
          "velocity": 0.7637795275590551,
          "duration": 0.18437499999998863,
          "ticks": 94920,
          "durationTicks": 59
        },
        {
          "time": 307.580334,
          "midi": 66,
          "name": "F#4",
          "velocity": 0.7244094488188977,
          "duration": 0.18437499999998863,
          "ticks": 94980,
          "durationTicks": 59
        },
        {
          "time": 307.580334,
          "midi": 57,
          "name": "A3",
          "velocity": 0.7795275590551181,
          "duration": 0.18437499999998863,
          "ticks": 94980,
          "durationTicks": 59
        },
        {
          "time": 307.767834,
          "midi": 55,
          "name": "G3",
          "velocity": 0.7244094488188977,
          "duration": 0.18437499999998863,
          "ticks": 95040,
          "durationTicks": 59
        },
        {
          "time": 307.767834,
          "midi": 64,
          "name": "E4",
          "velocity": 0.905511811023622,
          "duration": 0.18437499999998863,
          "ticks": 95040,
          "durationTicks": 59
        },
        {
          "time": 307.955334,
          "midi": 52,
          "name": "E3",
          "velocity": 0.7244094488188977,
          "duration": 0.18437499999998863,
          "ticks": 95100,
          "durationTicks": 59
        },
        {
          "time": 307.955334,
          "midi": 61,
          "name": "C#4",
          "velocity": 0.905511811023622,
          "duration": 0.18437499999998863,
          "ticks": 95100,
          "durationTicks": 59
        },
        {
          "time": 308.142834,
          "midi": 62,
          "name": "D4",
          "velocity": 0.8818897637795275,
          "duration": 0.18437499999998863,
          "ticks": 95160,
          "durationTicks": 59
        },
        {
          "time": 308.142834,
          "midi": 54,
          "name": "F#3",
          "velocity": 0.8031496062992126,
          "duration": 0.18437499999998863,
          "ticks": 95160,
          "durationTicks": 59
        },
        {
          "time": 314.892834,
          "midi": 62,
          "name": "D4",
          "velocity": 1,
          "duration": 1.4968749999999886,
          "ticks": 97320,
          "durationTicks": 479
        },
        {
          "time": 314.892834,
          "midi": 66,
          "name": "F#4",
          "velocity": 1,
          "duration": 1.4968749999999886,
          "ticks": 97320,
          "durationTicks": 479
        },
        {
          "time": 316.392834,
          "midi": 62,
          "name": "D4",
          "velocity": 1,
          "duration": 0.7468749999999886,
          "ticks": 97800,
          "durationTicks": 239
        },
        {
          "time": 316.392834,
          "midi": 59,
          "name": "B3",
          "velocity": 1,
          "duration": 0.7468749999999886,
          "ticks": 97800,
          "durationTicks": 239
        },
        {
          "time": 317.142834,
          "midi": 64,
          "name": "E4",
          "velocity": 1,
          "duration": 0.7468749999999886,
          "ticks": 98040,
          "durationTicks": 239
        },
        {
          "time": 317.142834,
          "midi": 61,
          "name": "C#4",
          "velocity": 1,
          "duration": 0.7468749999999886,
          "ticks": 98040,
          "durationTicks": 239
        },
        {
          "time": 317.892834,
          "midi": 62,
          "name": "D4",
          "velocity": 1,
          "duration": 0.18437499999998863,
          "ticks": 98280,
          "durationTicks": 59
        },
        {
          "time": 319.392834,
          "midi": 55,
          "name": "G3",
          "velocity": 1,
          "duration": 0.7468749999999886,
          "ticks": 98760,
          "durationTicks": 239
        },
        {
          "time": 319.392834,
          "midi": 52,
          "name": "E3",
          "velocity": 1,
          "duration": 0.7468749999999886,
          "ticks": 98760,
          "durationTicks": 239
        },
        {
          "time": 320.142834,
          "midi": 50,
          "name": "D3",
          "velocity": 0.937007874015748,
          "duration": 0.18437499999998863,
          "ticks": 99000,
          "durationTicks": 59
        },
        {
          "time": 320.142834,
          "midi": 54,
          "name": "F#3",
          "velocity": 1,
          "duration": 0.18437499999998863,
          "ticks": 99000,
          "durationTicks": 59
        },
        {
          "time": 320.330334,
          "midi": 57,
          "name": "A3",
          "velocity": 1,
          "duration": 0.18437499999998863,
          "ticks": 99060,
          "durationTicks": 59
        },
        {
          "time": 320.330334,
          "midi": 54,
          "name": "F#3",
          "velocity": 1,
          "duration": 0.18437499999998863,
          "ticks": 99060,
          "durationTicks": 59
        },
        {
          "time": 320.517834,
          "midi": 55,
          "name": "G3",
          "velocity": 1,
          "duration": 0.18437499999998863,
          "ticks": 99120,
          "durationTicks": 59
        },
        {
          "time": 320.517834,
          "midi": 52,
          "name": "E3",
          "velocity": 1,
          "duration": 0.18437499999998863,
          "ticks": 99120,
          "durationTicks": 59
        },
        {
          "time": 320.705334,
          "midi": 50,
          "name": "D3",
          "velocity": 0.937007874015748,
          "duration": 0.18437499999998863,
          "ticks": 99180,
          "durationTicks": 59
        },
        {
          "time": 320.705334,
          "midi": 54,
          "name": "F#3",
          "velocity": 1,
          "duration": 0.18437499999998863,
          "ticks": 99180,
          "durationTicks": 59
        },
        {
          "time": 320.892834,
          "midi": 45,
          "name": "A2",
          "velocity": 0.905511811023622,
          "duration": 0.18437499999998863,
          "ticks": 99240,
          "durationTicks": 59
        },
        {
          "time": 320.892834,
          "midi": 52,
          "name": "E3",
          "velocity": 1,
          "duration": 0.18437499999998863,
          "ticks": 99240,
          "durationTicks": 59
        },
        {
          "time": 324.267834,
          "midi": 54,
          "name": "F#3",
          "velocity": 1,
          "duration": 0.18437499999998863,
          "ticks": 100320,
          "durationTicks": 59
        },
        {
          "time": 324.455334,
          "midi": 55,
          "name": "G3",
          "velocity": 1,
          "duration": 0.18437499999998863,
          "ticks": 100380,
          "durationTicks": 59
        },
        {
          "time": 325.017834,
          "midi": 57,
          "name": "A3",
          "velocity": 1,
          "duration": 0.18437499999998863,
          "ticks": 100560,
          "durationTicks": 59
        },
        {
          "time": 325.205334,
          "midi": 58,
          "name": "A#3",
          "velocity": 1,
          "duration": 0.18437499999998863,
          "ticks": 100620,
          "durationTicks": 59
        },
        {
          "time": 325.767834,
          "midi": 59,
          "name": "B3",
          "velocity": 0.9763779527559056,
          "duration": 0.18437499999998863,
          "ticks": 100800,
          "durationTicks": 59
        },
        {
          "time": 325.955334,
          "midi": 56,
          "name": "G#3",
          "velocity": 1,
          "duration": 0.18437499999998863,
          "ticks": 100860,
          "durationTicks": 59
        },
        {
          "time": 326.142834,
          "midi": 55,
          "name": "G3",
          "velocity": 1,
          "duration": 0.18437499999998863,
          "ticks": 100920,
          "durationTicks": 59
        },
        {
          "time": 326.330334,
          "midi": 52,
          "name": "E3",
          "velocity": 1,
          "duration": 0.18437499999998863,
          "ticks": 100980,
          "durationTicks": 59
        },
        {
          "time": 326.517834,
          "midi": 54,
          "name": "F#3",
          "velocity": 1,
          "duration": 0.18437499999998863,
          "ticks": 101040,
          "durationTicks": 59
        },
        {
          "time": 326.705334,
          "midi": 62,
          "name": "D4",
          "velocity": 0.9763779527559056,
          "duration": 0.18437499999998863,
          "ticks": 101100,
          "durationTicks": 59
        },
        {
          "time": 326.892834,
          "midi": 62,
          "name": "D4",
          "velocity": 0.905511811023622,
          "duration": 0.37187499999998863,
          "ticks": 101160,
          "durationTicks": 119
        },
        {
          "time": 327.267834,
          "midi": 61,
          "name": "C#4",
          "velocity": 1,
          "duration": 0.18437499999998863,
          "ticks": 101280,
          "durationTicks": 59
        },
        {
          "time": 327.455334,
          "midi": 62,
          "name": "D4",
          "velocity": 0.8503937007874016,
          "duration": 0.18437499999998863,
          "ticks": 101340,
          "durationTicks": 59
        },
        {
          "time": 328.017834,
          "midi": 67,
          "name": "G4",
          "velocity": 0.937007874015748,
          "duration": 0.18437499999998863,
          "ticks": 101520,
          "durationTicks": 59
        },
        {
          "time": 328.205334,
          "midi": 66,
          "name": "F#4",
          "velocity": 1,
          "duration": 0.18437499999998863,
          "ticks": 101580,
          "durationTicks": 59
        },
        {
          "time": 328.767834,
          "midi": 67,
          "name": "G4",
          "velocity": 0.937007874015748,
          "duration": 0.18437499999998863,
          "ticks": 101760,
          "durationTicks": 59
        },
        {
          "time": 328.955334,
          "midi": 64,
          "name": "E4",
          "velocity": 1,
          "duration": 0.18437499999998863,
          "ticks": 101820,
          "durationTicks": 59
        },
        {
          "time": 329.517834,
          "midi": 64,
          "name": "E4",
          "velocity": 0.937007874015748,
          "duration": 0.18437499999998863,
          "ticks": 102000,
          "durationTicks": 59
        },
        {
          "time": 329.705334,
          "midi": 61,
          "name": "C#4",
          "velocity": 1,
          "duration": 0.18437499999998863,
          "ticks": 102060,
          "durationTicks": 59
        },
        {
          "time": 330.267834,
          "midi": 64,
          "name": "E4",
          "velocity": 1,
          "duration": 0.18437499999998863,
          "ticks": 102240,
          "durationTicks": 59
        },
        {
          "time": 330.455334,
          "midi": 66,
          "name": "F#4",
          "velocity": 1,
          "duration": 0.18437499999998863,
          "ticks": 102300,
          "durationTicks": 59
        },
        {
          "time": 332.517834,
          "midi": 64,
          "name": "E4",
          "velocity": 1,
          "duration": 0.18437499999998863,
          "ticks": 102960,
          "durationTicks": 59
        },
        {
          "time": 332.517834,
          "midi": 67,
          "name": "G4",
          "velocity": 1,
          "duration": 0.18437499999998863,
          "ticks": 102960,
          "durationTicks": 59
        },
        {
          "time": 332.705334,
          "midi": 62,
          "name": "D4",
          "velocity": 0.937007874015748,
          "duration": 0.18437499999998863,
          "ticks": 103020,
          "durationTicks": 59
        },
        {
          "time": 332.705334,
          "midi": 66,
          "name": "F#4",
          "velocity": 1,
          "duration": 0.18437499999998863,
          "ticks": 103020,
          "durationTicks": 59
        },
        {
          "time": 332.892834,
          "midi": 62,
          "name": "D4",
          "velocity": 1,
          "duration": 0.18437499999998863,
          "ticks": 103080,
          "durationTicks": 59
        },
        {
          "time": 332.892834,
          "midi": 66,
          "name": "F#4",
          "velocity": 1,
          "duration": 0.18437499999998863,
          "ticks": 103080,
          "durationTicks": 59
        },
        {
          "time": 333.080334,
          "midi": 61,
          "name": "C#4",
          "velocity": 1,
          "duration": 0.18437499999998863,
          "ticks": 103140,
          "durationTicks": 59
        },
        {
          "time": 333.080334,
          "midi": 64,
          "name": "E4",
          "velocity": 1,
          "duration": 0.18437499999998863,
          "ticks": 103140,
          "durationTicks": 59
        },
        {
          "time": 333.267834,
          "midi": 59,
          "name": "B3",
          "velocity": 0.9763779527559056,
          "duration": 0.18437499999998863,
          "ticks": 103200,
          "durationTicks": 59
        },
        {
          "time": 333.267834,
          "midi": 62,
          "name": "D4",
          "velocity": 1,
          "duration": 0.18437499999998863,
          "ticks": 103200,
          "durationTicks": 59
        },
        {
          "time": 333.455334,
          "midi": 61,
          "name": "C#4",
          "velocity": 1,
          "duration": 0.18437499999998863,
          "ticks": 103260,
          "durationTicks": 59
        },
        {
          "time": 333.455334,
          "midi": 64,
          "name": "E4",
          "velocity": 1,
          "duration": 0.18437499999998863,
          "ticks": 103260,
          "durationTicks": 59
        },
        {
          "time": 333.642834,
          "midi": 67,
          "name": "G4",
          "velocity": 1,
          "duration": 0.18437499999998863,
          "ticks": 103320,
          "durationTicks": 59
        },
        {
          "time": 333.642834,
          "midi": 64,
          "name": "E4",
          "velocity": 1,
          "duration": 0.18437499999998863,
          "ticks": 103320,
          "durationTicks": 59
        },
        {
          "time": 333.830334,
          "midi": 62,
          "name": "D4",
          "velocity": 1,
          "duration": 0.18437499999998863,
          "ticks": 103380,
          "durationTicks": 59
        },
        {
          "time": 333.830334,
          "midi": 66,
          "name": "F#4",
          "velocity": 1,
          "duration": 0.18437499999998863,
          "ticks": 103380,
          "durationTicks": 59
        },
        {
          "time": 334.017834,
          "midi": 55,
          "name": "G3",
          "velocity": 1,
          "duration": 0.18437499999998863,
          "ticks": 103440,
          "durationTicks": 59
        },
        {
          "time": 334.017834,
          "midi": 64,
          "name": "E4",
          "velocity": 1,
          "duration": 0.18437499999998863,
          "ticks": 103440,
          "durationTicks": 59
        },
        {
          "time": 334.205334,
          "midi": 62,
          "name": "D4",
          "velocity": 1,
          "duration": 0.18437499999998863,
          "ticks": 103500,
          "durationTicks": 59
        },
        {
          "time": 334.205334,
          "midi": 54,
          "name": "F#3",
          "velocity": 1,
          "duration": 0.18437499999998863,
          "ticks": 103500,
          "durationTicks": 59
        },
        {
          "time": 334.392834,
          "midi": 62,
          "name": "D4",
          "velocity": 1,
          "duration": 0.18437499999998863,
          "ticks": 103560,
          "durationTicks": 59
        },
        {
          "time": 334.392834,
          "midi": 66,
          "name": "F#4",
          "velocity": 1,
          "duration": 0.18437499999998863,
          "ticks": 103560,
          "durationTicks": 59
        },
        {
          "time": 334.580334,
          "midi": 64,
          "name": "E4",
          "velocity": 1,
          "duration": 0.18437499999998863,
          "ticks": 103620,
          "durationTicks": 59
        },
        {
          "time": 334.580334,
          "midi": 61,
          "name": "C#4",
          "velocity": 1,
          "duration": 0.18437499999998863,
          "ticks": 103620,
          "durationTicks": 59
        },
        {
          "time": 334.767834,
          "midi": 59,
          "name": "B3",
          "velocity": 0.9763779527559056,
          "duration": 0.18437499999998863,
          "ticks": 103680,
          "durationTicks": 59
        },
        {
          "time": 334.767834,
          "midi": 62,
          "name": "D4",
          "velocity": 1,
          "duration": 0.18437499999998863,
          "ticks": 103680,
          "durationTicks": 59
        },
        {
          "time": 334.955334,
          "midi": 64,
          "name": "E4",
          "velocity": 1,
          "duration": 0.18437499999998863,
          "ticks": 103740,
          "durationTicks": 59
        },
        {
          "time": 334.955334,
          "midi": 61,
          "name": "C#4",
          "velocity": 1,
          "duration": 0.18437499999998863,
          "ticks": 103740,
          "durationTicks": 59
        },
        {
          "time": 335.142834,
          "midi": 67,
          "name": "G4",
          "velocity": 1,
          "duration": 0.18437499999998863,
          "ticks": 103800,
          "durationTicks": 59
        },
        {
          "time": 335.142834,
          "midi": 64,
          "name": "E4",
          "velocity": 1,
          "duration": 0.18437499999998863,
          "ticks": 103800,
          "durationTicks": 59
        },
        {
          "time": 335.330334,
          "midi": 62,
          "name": "D4",
          "velocity": 0.9763779527559056,
          "duration": 0.18437499999998863,
          "ticks": 103860,
          "durationTicks": 59
        },
        {
          "time": 335.330334,
          "midi": 66,
          "name": "F#4",
          "velocity": 1,
          "duration": 0.18437499999998863,
          "ticks": 103860,
          "durationTicks": 59
        },
        {
          "time": 335.517834,
          "midi": 55,
          "name": "G3",
          "velocity": 0.937007874015748,
          "duration": 0.18437499999998863,
          "ticks": 103920,
          "durationTicks": 59
        },
        {
          "time": 335.517834,
          "midi": 64,
          "name": "E4",
          "velocity": 0.905511811023622,
          "duration": 0.18437499999998863,
          "ticks": 103920,
          "durationTicks": 59
        },
        {
          "time": 335.705334,
          "midi": 62,
          "name": "D4",
          "velocity": 1,
          "duration": 0.18437499999998863,
          "ticks": 103980,
          "durationTicks": 59
        },
        {
          "time": 335.705334,
          "midi": 54,
          "name": "F#3",
          "velocity": 1,
          "duration": 0.18437499999998863,
          "ticks": 103980,
          "durationTicks": 59
        },
        {
          "time": 335.892834,
          "midi": 62,
          "name": "D4",
          "velocity": 1,
          "duration": 0.18437499999998863,
          "ticks": 104040,
          "durationTicks": 59
        },
        {
          "time": 335.892834,
          "midi": 66,
          "name": "F#4",
          "velocity": 1,
          "duration": 0.18437499999998863,
          "ticks": 104040,
          "durationTicks": 59
        },
        {
          "time": 336.080334,
          "midi": 61,
          "name": "C#4",
          "velocity": 1,
          "duration": 0.18437499999998863,
          "ticks": 104100,
          "durationTicks": 59
        },
        {
          "time": 336.080334,
          "midi": 64,
          "name": "E4",
          "velocity": 0.937007874015748,
          "duration": 0.18437499999998863,
          "ticks": 104100,
          "durationTicks": 59
        },
        {
          "time": 336.267834,
          "midi": 59,
          "name": "B3",
          "velocity": 0.9763779527559056,
          "duration": 0.18437499999998863,
          "ticks": 104160,
          "durationTicks": 59
        },
        {
          "time": 336.267834,
          "midi": 62,
          "name": "D4",
          "velocity": 1,
          "duration": 0.18437499999998863,
          "ticks": 104160,
          "durationTicks": 59
        },
        {
          "time": 336.455334,
          "midi": 61,
          "name": "C#4",
          "velocity": 1,
          "duration": 0.18437499999998863,
          "ticks": 104220,
          "durationTicks": 59
        },
        {
          "time": 336.455334,
          "midi": 64,
          "name": "E4",
          "velocity": 1,
          "duration": 0.18437499999998863,
          "ticks": 104220,
          "durationTicks": 59
        },
        {
          "time": 336.642834,
          "midi": 61,
          "name": "C#4",
          "velocity": 1,
          "duration": 0.18437499999998863,
          "ticks": 104280,
          "durationTicks": 59
        },
        {
          "time": 336.642834,
          "midi": 64,
          "name": "E4",
          "velocity": 1,
          "duration": 0.18437499999998863,
          "ticks": 104280,
          "durationTicks": 59
        },
        {
          "time": 336.830334,
          "midi": 62,
          "name": "D4",
          "velocity": 1,
          "duration": 0.18437499999998863,
          "ticks": 104340,
          "durationTicks": 59
        },
        {
          "time": 336.830334,
          "midi": 66,
          "name": "F#4",
          "velocity": 1,
          "duration": 0.18437499999998863,
          "ticks": 104340,
          "durationTicks": 59
        },
        {
          "time": 337.017834,
          "midi": 62,
          "name": "D4",
          "velocity": 1,
          "duration": 0.18437499999998863,
          "ticks": 104400,
          "durationTicks": 59
        },
        {
          "time": 337.017834,
          "midi": 66,
          "name": "F#4",
          "velocity": 1,
          "duration": 0.18437499999998863,
          "ticks": 104400,
          "durationTicks": 59
        },
        {
          "time": 337.205334,
          "midi": 67,
          "name": "G4",
          "velocity": 1,
          "duration": 0.18437499999998863,
          "ticks": 104460,
          "durationTicks": 59
        },
        {
          "time": 337.205334,
          "midi": 64,
          "name": "E4",
          "velocity": 1,
          "duration": 0.18437499999998863,
          "ticks": 104460,
          "durationTicks": 59
        },
        {
          "time": 337.392834,
          "midi": 52,
          "name": "E3",
          "velocity": 0.9763779527559056,
          "duration": 0.18437499999998863,
          "ticks": 104520,
          "durationTicks": 59
        },
        {
          "time": 337.392834,
          "midi": 61,
          "name": "C#4",
          "velocity": 1,
          "duration": 0.18437499999998863,
          "ticks": 104520,
          "durationTicks": 59
        },
        {
          "time": 337.580334,
          "midi": 62,
          "name": "D4",
          "velocity": 1,
          "duration": 0.18437499999998863,
          "ticks": 104580,
          "durationTicks": 59
        },
        {
          "time": 337.580334,
          "midi": 54,
          "name": "F#3",
          "velocity": 1,
          "duration": 0.18437499999998863,
          "ticks": 104580,
          "durationTicks": 59
        },
        {
          "time": 337.767834,
          "midi": 54,
          "name": "F#3",
          "velocity": 1,
          "duration": 0.18437499999998863,
          "ticks": 104640,
          "durationTicks": 59
        },
        {
          "time": 337.767834,
          "midi": 62,
          "name": "D4",
          "velocity": 1,
          "duration": 0.18437499999998863,
          "ticks": 104640,
          "durationTicks": 59
        },
        {
          "time": 337.955334,
          "midi": 59,
          "name": "B3",
          "velocity": 1,
          "duration": 0.18437499999998863,
          "ticks": 104700,
          "durationTicks": 59
        },
        {
          "time": 337.955334,
          "midi": 56,
          "name": "G#3",
          "velocity": 1,
          "duration": 0.18437499999998863,
          "ticks": 104700,
          "durationTicks": 59
        },
        {
          "time": 338.142834,
          "midi": 57,
          "name": "A3",
          "velocity": 1,
          "duration": 0.18437499999998863,
          "ticks": 104760,
          "durationTicks": 59
        },
        {
          "time": 338.142834,
          "midi": 61,
          "name": "C#4",
          "velocity": 1,
          "duration": 0.18437499999998863,
          "ticks": 104760,
          "durationTicks": 59
        },
        {
          "time": 338.330334,
          "midi": 64,
          "name": "E4",
          "velocity": 1,
          "duration": 0.18437499999998863,
          "ticks": 104820,
          "durationTicks": 59
        },
        {
          "time": 338.330334,
          "midi": 67,
          "name": "G4",
          "velocity": 1,
          "duration": 0.18437499999998863,
          "ticks": 104820,
          "durationTicks": 59
        },
        {
          "time": 338.517834,
          "midi": 62,
          "name": "D4",
          "velocity": 0.905511811023622,
          "duration": 0.18437499999998863,
          "ticks": 104880,
          "durationTicks": 59
        },
        {
          "time": 338.517834,
          "midi": 66,
          "name": "F#4",
          "velocity": 1,
          "duration": 0.18437499999998863,
          "ticks": 104880,
          "durationTicks": 59
        },
        {
          "time": 338.705334,
          "midi": 61,
          "name": "C#4",
          "velocity": 1,
          "duration": 0.18437499999998863,
          "ticks": 104940,
          "durationTicks": 59
        },
        {
          "time": 338.705334,
          "midi": 64,
          "name": "E4",
          "velocity": 1,
          "duration": 0.18437499999998863,
          "ticks": 104940,
          "durationTicks": 59
        },
        {
          "time": 338.892834,
          "midi": 62,
          "name": "D4",
          "velocity": 0.9763779527559056,
          "duration": 0.18437499999998863,
          "ticks": 105000,
          "durationTicks": 59
        },
        {
          "time": 338.892834,
          "midi": 66,
          "name": "F#4",
          "velocity": 1,
          "duration": 0.18437499999998863,
          "ticks": 105000,
          "durationTicks": 59
        },
        {
          "time": 339.080334,
          "midi": 64,
          "name": "E4",
          "velocity": 1,
          "duration": 0.18437499999998863,
          "ticks": 105060,
          "durationTicks": 59
        },
        {
          "time": 339.080334,
          "midi": 67,
          "name": "G4",
          "velocity": 1,
          "duration": 0.18437499999998863,
          "ticks": 105060,
          "durationTicks": 59
        },
        {
          "time": 339.267834,
          "midi": 64,
          "name": "E4",
          "velocity": 1,
          "duration": 0.18437499999998863,
          "ticks": 105120,
          "durationTicks": 59
        },
        {
          "time": 339.267834,
          "midi": 61,
          "name": "C#4",
          "velocity": 1,
          "duration": 0.18437499999998863,
          "ticks": 105120,
          "durationTicks": 59
        },
        {
          "time": 339.455334,
          "midi": 66,
          "name": "F#4",
          "velocity": 1,
          "duration": 0.18437499999998863,
          "ticks": 105180,
          "durationTicks": 59
        },
        {
          "time": 339.455334,
          "midi": 62,
          "name": "D4",
          "velocity": 1,
          "duration": 0.18437499999998863,
          "ticks": 105180,
          "durationTicks": 59
        },
        {
          "time": 339.642834,
          "midi": 49,
          "name": "C#3",
          "velocity": 1,
          "duration": 0.18437499999998863,
          "ticks": 105240,
          "durationTicks": 59
        },
        {
          "time": 339.642834,
          "midi": 52,
          "name": "E3",
          "velocity": 1,
          "duration": 0.18437499999998863,
          "ticks": 105240,
          "durationTicks": 59
        },
        {
          "time": 339.830334,
          "midi": 54,
          "name": "F#3",
          "velocity": 1,
          "duration": 0.18437499999998863,
          "ticks": 105300,
          "durationTicks": 59
        },
        {
          "time": 339.830334,
          "midi": 50,
          "name": "D3",
          "velocity": 1,
          "duration": 0.18437499999998863,
          "ticks": 105300,
          "durationTicks": 59
        },
        {
          "time": 340.017834,
          "midi": 52,
          "name": "E3",
          "velocity": 1,
          "duration": 0.18437499999998863,
          "ticks": 105360,
          "durationTicks": 59
        },
        {
          "time": 340.017834,
          "midi": 55,
          "name": "G3",
          "velocity": 1,
          "duration": 0.18437499999998863,
          "ticks": 105360,
          "durationTicks": 59
        },
        {
          "time": 340.205334,
          "midi": 50,
          "name": "D3",
          "velocity": 1,
          "duration": 0.18437499999998863,
          "ticks": 105420,
          "durationTicks": 59
        },
        {
          "time": 340.205334,
          "midi": 54,
          "name": "F#3",
          "velocity": 1,
          "duration": 0.18437499999998863,
          "ticks": 105420,
          "durationTicks": 59
        },
        {
          "time": 340.392834,
          "midi": 57,
          "name": "A3",
          "velocity": 1,
          "duration": 0.18437499999998863,
          "ticks": 105480,
          "durationTicks": 59
        },
        {
          "time": 340.392834,
          "midi": 60,
          "name": "C4",
          "velocity": 1,
          "duration": 0.18437499999998863,
          "ticks": 105480,
          "durationTicks": 59
        },
        {
          "time": 340.580334,
          "midi": 55,
          "name": "G3",
          "velocity": 0.9763779527559056,
          "duration": 0.18437499999998863,
          "ticks": 105540,
          "durationTicks": 59
        },
        {
          "time": 340.580334,
          "midi": 59,
          "name": "B3",
          "velocity": 1,
          "duration": 0.18437499999998863,
          "ticks": 105540,
          "durationTicks": 59
        },
        {
          "time": 340.767834,
          "midi": 62,
          "name": "D4",
          "velocity": 1,
          "duration": 0.18437499999998863,
          "ticks": 105600,
          "durationTicks": 59
        },
        {
          "time": 340.767834,
          "midi": 59,
          "name": "B3",
          "velocity": 1,
          "duration": 0.18437499999998863,
          "ticks": 105600,
          "durationTicks": 59
        },
        {
          "time": 340.955334,
          "midi": 55,
          "name": "G3",
          "velocity": 0.937007874015748,
          "duration": 0.18437499999998863,
          "ticks": 105660,
          "durationTicks": 59
        },
        {
          "time": 340.955334,
          "midi": 59,
          "name": "B3",
          "velocity": 1,
          "duration": 0.18437499999998863,
          "ticks": 105660,
          "durationTicks": 59
        },
        {
          "time": 341.142834,
          "midi": 62,
          "name": "D4",
          "velocity": 1,
          "duration": 0.18437499999998863,
          "ticks": 105720,
          "durationTicks": 59
        },
        {
          "time": 341.142834,
          "midi": 66,
          "name": "F#4",
          "velocity": 1,
          "duration": 0.18437499999998863,
          "ticks": 105720,
          "durationTicks": 59
        },
        {
          "time": 341.330334,
          "midi": 64,
          "name": "E4",
          "velocity": 1,
          "duration": 0.18437499999998863,
          "ticks": 105780,
          "durationTicks": 59
        },
        {
          "time": 341.330334,
          "midi": 61,
          "name": "C#4",
          "velocity": 1,
          "duration": 0.18437499999998863,
          "ticks": 105780,
          "durationTicks": 59
        },
        {
          "time": 341.517834,
          "midi": 67,
          "name": "G4",
          "velocity": 0.905511811023622,
          "duration": 0.18437499999998863,
          "ticks": 105840,
          "durationTicks": 59
        },
        {
          "time": 341.517834,
          "midi": 64,
          "name": "E4",
          "velocity": 1,
          "duration": 0.18437499999998863,
          "ticks": 105840,
          "durationTicks": 59
        },
        {
          "time": 341.705334,
          "midi": 64,
          "name": "E4",
          "velocity": 1,
          "duration": 0.18437499999998863,
          "ticks": 105900,
          "durationTicks": 59
        },
        {
          "time": 341.705334,
          "midi": 61,
          "name": "C#4",
          "velocity": 1,
          "duration": 0.18437499999998863,
          "ticks": 105900,
          "durationTicks": 59
        },
        {
          "time": 341.892834,
          "midi": 55,
          "name": "G3",
          "velocity": 0.9763779527559056,
          "duration": 0.18437499999998863,
          "ticks": 105960,
          "durationTicks": 59
        },
        {
          "time": 341.892834,
          "midi": 64,
          "name": "E4",
          "velocity": 1,
          "duration": 0.18437499999998863,
          "ticks": 105960,
          "durationTicks": 59
        },
        {
          "time": 342.080334,
          "midi": 62,
          "name": "D4",
          "velocity": 1,
          "duration": 0.18437499999998863,
          "ticks": 106020,
          "durationTicks": 59
        },
        {
          "time": 342.080334,
          "midi": 54,
          "name": "F#3",
          "velocity": 1,
          "duration": 0.18437499999998863,
          "ticks": 106020,
          "durationTicks": 59
        },
        {
          "time": 342.267834,
          "midi": 52,
          "name": "E3",
          "velocity": 0.9763779527559056,
          "duration": 0.18437499999998863,
          "ticks": 106080,
          "durationTicks": 59
        },
        {
          "time": 342.267834,
          "midi": 61,
          "name": "C#4",
          "velocity": 1,
          "duration": 0.18437499999998863,
          "ticks": 106080,
          "durationTicks": 59
        },
        {
          "time": 342.455334,
          "midi": 62,
          "name": "D4",
          "velocity": 1,
          "duration": 0.18437499999998863,
          "ticks": 106140,
          "durationTicks": 59
        },
        {
          "time": 342.455334,
          "midi": 54,
          "name": "F#3",
          "velocity": 1,
          "duration": 0.18437499999998863,
          "ticks": 106140,
          "durationTicks": 59
        },
        {
          "time": 342.642834,
          "midi": 62,
          "name": "D4",
          "velocity": 0.9763779527559056,
          "duration": 0.18437499999998863,
          "ticks": 106200,
          "durationTicks": 59
        },
        {
          "time": 342.642834,
          "midi": 66,
          "name": "F#4",
          "velocity": 1,
          "duration": 0.18437499999998863,
          "ticks": 106200,
          "durationTicks": 59
        },
        {
          "time": 342.830334,
          "midi": 61,
          "name": "C#4",
          "velocity": 1,
          "duration": 0.18437499999998863,
          "ticks": 106260,
          "durationTicks": 59
        },
        {
          "time": 342.830334,
          "midi": 64,
          "name": "E4",
          "velocity": 1,
          "duration": 0.18437499999998863,
          "ticks": 106260,
          "durationTicks": 59
        },
        {
          "time": 343.017834,
          "midi": 67,
          "name": "G4",
          "velocity": 1,
          "duration": 0.18437499999998863,
          "ticks": 106320,
          "durationTicks": 59
        },
        {
          "time": 343.017834,
          "midi": 64,
          "name": "E4",
          "velocity": 1,
          "duration": 0.18437499999998863,
          "ticks": 106320,
          "durationTicks": 59
        },
        {
          "time": 343.205334,
          "midi": 62,
          "name": "D4",
          "velocity": 1,
          "duration": 0.18437499999998863,
          "ticks": 106380,
          "durationTicks": 59
        },
        {
          "time": 343.205334,
          "midi": 66,
          "name": "F#4",
          "velocity": 1,
          "duration": 0.18437499999998863,
          "ticks": 106380,
          "durationTicks": 59
        },
        {
          "time": 343.392834,
          "midi": 62,
          "name": "D4",
          "velocity": 1,
          "duration": 0.18437499999998863,
          "ticks": 106440,
          "durationTicks": 59
        },
        {
          "time": 343.392834,
          "midi": 66,
          "name": "F#4",
          "velocity": 1,
          "duration": 0.18437499999998863,
          "ticks": 106440,
          "durationTicks": 59
        },
        {
          "time": 343.580334,
          "midi": 64,
          "name": "E4",
          "velocity": 1,
          "duration": 0.37187499999998863,
          "ticks": 106500,
          "durationTicks": 119
        },
        {
          "time": 343.580334,
          "midi": 67,
          "name": "G4",
          "velocity": 1,
          "duration": 0.37187499999998863,
          "ticks": 106500,
          "durationTicks": 119
        },
        {
          "time": 343.955334,
          "midi": 57,
          "name": "A3",
          "velocity": 1,
          "duration": 0.18437499999998863,
          "ticks": 106620,
          "durationTicks": 59
        },
        {
          "time": 343.955334,
          "midi": 62,
          "name": "D4",
          "velocity": 1,
          "duration": 0.18437499999998863,
          "ticks": 106620,
          "durationTicks": 59
        },
        {
          "time": 344.142834,
          "midi": 62,
          "name": "D4",
          "velocity": 1,
          "duration": 0.37187499999998863,
          "ticks": 106680,
          "durationTicks": 119
        },
        {
          "time": 344.142834,
          "midi": 62,
          "name": "D4",
          "velocity": 1,
          "duration": 0.37187499999998863,
          "ticks": 106680,
          "durationTicks": 119
        },
        {
          "time": 344.517834,
          "midi": 57,
          "name": "A3",
          "velocity": 1,
          "duration": 0.37187499999998863,
          "ticks": 106800,
          "durationTicks": 119
        },
        {
          "time": 344.517834,
          "midi": 54,
          "name": "F#3",
          "velocity": 1,
          "duration": 0.37187499999998863,
          "ticks": 106800,
          "durationTicks": 119
        },
        {
          "time": 344.892834,
          "midi": 55,
          "name": "G3",
          "velocity": 1,
          "duration": 0.5593749999999886,
          "ticks": 106920,
          "durationTicks": 179
        },
        {
          "time": 344.892834,
          "midi": 52,
          "name": "E3",
          "velocity": 1,
          "duration": 0.5593749999999886,
          "ticks": 106920,
          "durationTicks": 179
        },
        {
          "time": 345.455334,
          "midi": 50,
          "name": "D3",
          "velocity": 1,
          "duration": 0.18437499999998863,
          "ticks": 107100,
          "durationTicks": 59
        },
        {
          "time": 345.455334,
          "midi": 54,
          "name": "F#3",
          "velocity": 1,
          "duration": 0.18437499999998863,
          "ticks": 107100,
          "durationTicks": 59
        },
        {
          "time": 345.642834,
          "midi": 50,
          "name": "D3",
          "velocity": 1,
          "duration": 0.37187499999998863,
          "ticks": 107160,
          "durationTicks": 119
        },
        {
          "time": 345.642834,
          "midi": 54,
          "name": "F#3",
          "velocity": 1,
          "duration": 0.37187499999998863,
          "ticks": 107160,
          "durationTicks": 119
        },
        {
          "time": 346.017834,
          "midi": 50,
          "name": "D3",
          "velocity": 0.8503937007874016,
          "duration": 0.37187499999998863,
          "ticks": 107280,
          "durationTicks": 119
        },
        {
          "time": 346.017834,
          "midi": 62,
          "name": "D4",
          "velocity": 0.9763779527559056,
          "duration": 0.37187499999998863,
          "ticks": 107280,
          "durationTicks": 119
        },
        {
          "time": 346.392834,
          "midi": 60,
          "name": "C4",
          "velocity": 1,
          "duration": 0.5593749999999886,
          "ticks": 107400,
          "durationTicks": 179
        },
        {
          "time": 346.392834,
          "midi": 57,
          "name": "A3",
          "velocity": 1,
          "duration": 0.5593749999999886,
          "ticks": 107400,
          "durationTicks": 179
        },
        {
          "time": 346.955334,
          "midi": 55,
          "name": "G3",
          "velocity": 0.9763779527559056,
          "duration": 0.18437499999998863,
          "ticks": 107580,
          "durationTicks": 59
        },
        {
          "time": 346.955334,
          "midi": 59,
          "name": "B3",
          "velocity": 1,
          "duration": 0.18437499999998863,
          "ticks": 107580,
          "durationTicks": 59
        },
        {
          "time": 347.142834,
          "midi": 59,
          "name": "B3",
          "velocity": 0.8267716535433071,
          "duration": 0.37187499999998863,
          "ticks": 107640,
          "durationTicks": 119
        },
        {
          "time": 347.142834,
          "midi": 55,
          "name": "G3",
          "velocity": 0.937007874015748,
          "duration": 0.37187499999998863,
          "ticks": 107640,
          "durationTicks": 119
        },
        {
          "time": 347.517834,
          "midi": 55,
          "name": "G3",
          "velocity": 0.8267716535433071,
          "duration": 0.18437499999998863,
          "ticks": 107760,
          "durationTicks": 59
        },
        {
          "time": 347.517834,
          "midi": 67,
          "name": "G4",
          "velocity": 0.9763779527559056,
          "duration": 0.18437499999998863,
          "ticks": 107760,
          "durationTicks": 59
        },
        {
          "time": 347.705334,
          "midi": 52,
          "name": "E3",
          "velocity": 0.937007874015748,
          "duration": 0.18437499999998863,
          "ticks": 107820,
          "durationTicks": 59
        },
        {
          "time": 347.705334,
          "midi": 64,
          "name": "E4",
          "velocity": 1,
          "duration": 0.18437499999998863,
          "ticks": 107820,
          "durationTicks": 59
        },
        {
          "time": 347.892834,
          "midi": 62,
          "name": "D4",
          "velocity": 1,
          "duration": 0.18437499999998863,
          "ticks": 107880,
          "durationTicks": 59
        },
        {
          "time": 347.892834,
          "midi": 62,
          "name": "D4",
          "velocity": 1,
          "duration": 0.18437499999998863,
          "ticks": 107880,
          "durationTicks": 59
        },
        {
          "time": 348.080334,
          "midi": 61,
          "name": "C#4",
          "velocity": 1,
          "duration": 0.18437499999998863,
          "ticks": 107940,
          "durationTicks": 59
        },
        {
          "time": 348.080334,
          "midi": 61,
          "name": "C#4",
          "velocity": 1,
          "duration": 0.18437499999998863,
          "ticks": 107940,
          "durationTicks": 59
        },
        {
          "time": 348.267834,
          "midi": 64,
          "name": "E4",
          "velocity": 1,
          "duration": 0.18437499999998863,
          "ticks": 108000,
          "durationTicks": 59
        },
        {
          "time": 348.267834,
          "midi": 64,
          "name": "E4",
          "velocity": 1,
          "duration": 0.18437499999998863,
          "ticks": 108000,
          "durationTicks": 59
        },
        {
          "time": 348.455334,
          "midi": 61,
          "name": "C#4",
          "velocity": 1,
          "duration": 0.18437499999998863,
          "ticks": 108060,
          "durationTicks": 59
        },
        {
          "time": 348.455334,
          "midi": 61,
          "name": "C#4",
          "velocity": 1,
          "duration": 0.18437499999998863,
          "ticks": 108060,
          "durationTicks": 59
        },
        {
          "time": 348.642834,
          "midi": 59,
          "name": "B3",
          "velocity": 1,
          "duration": 0.18437499999998863,
          "ticks": 108120,
          "durationTicks": 59
        },
        {
          "time": 348.642834,
          "midi": 59,
          "name": "B3",
          "velocity": 1,
          "duration": 0.18437499999998863,
          "ticks": 108120,
          "durationTicks": 59
        },
        {
          "time": 348.830334,
          "midi": 57,
          "name": "A3",
          "velocity": 1,
          "duration": 0.18437499999998863,
          "ticks": 108180,
          "durationTicks": 59
        },
        {
          "time": 348.830334,
          "midi": 57,
          "name": "A3",
          "velocity": 1,
          "duration": 0.18437499999998863,
          "ticks": 108180,
          "durationTicks": 59
        },
        {
          "time": 349.017834,
          "midi": 59,
          "name": "B3",
          "velocity": 1,
          "duration": 0.18437499999998863,
          "ticks": 108240,
          "durationTicks": 59
        },
        {
          "time": 349.017834,
          "midi": 59,
          "name": "B3",
          "velocity": 1,
          "duration": 0.18437499999998863,
          "ticks": 108240,
          "durationTicks": 59
        },
        {
          "time": 349.205334,
          "midi": 61,
          "name": "C#4",
          "velocity": 1,
          "duration": 0.18437499999998863,
          "ticks": 108300,
          "durationTicks": 59
        },
        {
          "time": 349.205334,
          "midi": 61,
          "name": "C#4",
          "velocity": 1,
          "duration": 0.18437499999998863,
          "ticks": 108300,
          "durationTicks": 59
        },
        {
          "time": 349.392834,
          "midi": 64,
          "name": "E4",
          "velocity": 1,
          "duration": 0.18437499999998863,
          "ticks": 108360,
          "durationTicks": 59
        },
        {
          "time": 349.392834,
          "midi": 64,
          "name": "E4",
          "velocity": 1,
          "duration": 0.18437499999998863,
          "ticks": 108360,
          "durationTicks": 59
        },
        {
          "time": 349.580334,
          "midi": 62,
          "name": "D4",
          "velocity": 1,
          "duration": 0.18437499999998863,
          "ticks": 108420,
          "durationTicks": 59
        },
        {
          "time": 349.580334,
          "midi": 62,
          "name": "D4",
          "velocity": 1,
          "duration": 0.18437499999998863,
          "ticks": 108420,
          "durationTicks": 59
        },
        {
          "time": 349.767834,
          "midi": 66,
          "name": "F#4",
          "velocity": 1,
          "duration": 0.18437499999998863,
          "ticks": 108480,
          "durationTicks": 59
        },
        {
          "time": 349.767834,
          "midi": 66,
          "name": "F#4",
          "velocity": 1,
          "duration": 0.18437499999998863,
          "ticks": 108480,
          "durationTicks": 59
        },
        {
          "time": 349.955334,
          "midi": 62,
          "name": "D4",
          "velocity": 1,
          "duration": 0.18437499999998863,
          "ticks": 108540,
          "durationTicks": 59
        },
        {
          "time": 349.955334,
          "midi": 62,
          "name": "D4",
          "velocity": 1,
          "duration": 0.18437499999998863,
          "ticks": 108540,
          "durationTicks": 59
        },
        {
          "time": 350.142834,
          "midi": 61,
          "name": "C#4",
          "velocity": 1,
          "duration": 0.18437499999998863,
          "ticks": 108600,
          "durationTicks": 59
        },
        {
          "time": 350.142834,
          "midi": 61,
          "name": "C#4",
          "velocity": 1,
          "duration": 0.18437499999998863,
          "ticks": 108600,
          "durationTicks": 59
        },
        {
          "time": 350.330334,
          "midi": 59,
          "name": "B3",
          "velocity": 1,
          "duration": 0.18437499999998863,
          "ticks": 108660,
          "durationTicks": 59
        },
        {
          "time": 350.330334,
          "midi": 59,
          "name": "B3",
          "velocity": 1,
          "duration": 0.18437499999998863,
          "ticks": 108660,
          "durationTicks": 59
        },
        {
          "time": 350.517834,
          "midi": 62,
          "name": "D4",
          "velocity": 1,
          "duration": 0.18437499999998863,
          "ticks": 108720,
          "durationTicks": 59
        },
        {
          "time": 350.517834,
          "midi": 62,
          "name": "D4",
          "velocity": 1,
          "duration": 0.18437499999998863,
          "ticks": 108720,
          "durationTicks": 59
        },
        {
          "time": 350.705334,
          "midi": 59,
          "name": "B3",
          "velocity": 1,
          "duration": 0.18437499999998863,
          "ticks": 108780,
          "durationTicks": 59
        },
        {
          "time": 350.705334,
          "midi": 59,
          "name": "B3",
          "velocity": 1,
          "duration": 0.18437499999998863,
          "ticks": 108780,
          "durationTicks": 59
        },
        {
          "time": 350.892834,
          "midi": 57,
          "name": "A3",
          "velocity": 1,
          "duration": 0.18437499999998863,
          "ticks": 108840,
          "durationTicks": 59
        },
        {
          "time": 350.892834,
          "midi": 57,
          "name": "A3",
          "velocity": 1,
          "duration": 0.18437499999998863,
          "ticks": 108840,
          "durationTicks": 59
        },
        {
          "time": 351.080334,
          "midi": 56,
          "name": "G#3",
          "velocity": 1,
          "duration": 0.18437499999998863,
          "ticks": 108900,
          "durationTicks": 59
        },
        {
          "time": 351.080334,
          "midi": 56,
          "name": "G#3",
          "velocity": 1,
          "duration": 0.18437499999998863,
          "ticks": 108900,
          "durationTicks": 59
        },
        {
          "time": 351.267834,
          "midi": 59,
          "name": "B3",
          "velocity": 1,
          "duration": 0.18437499999998863,
          "ticks": 108960,
          "durationTicks": 59
        },
        {
          "time": 351.267834,
          "midi": 59,
          "name": "B3",
          "velocity": 1,
          "duration": 0.18437499999998863,
          "ticks": 108960,
          "durationTicks": 59
        },
        {
          "time": 351.455334,
          "midi": 56,
          "name": "G#3",
          "velocity": 1,
          "duration": 0.18437499999998863,
          "ticks": 109020,
          "durationTicks": 59
        },
        {
          "time": 351.455334,
          "midi": 56,
          "name": "G#3",
          "velocity": 1,
          "duration": 0.18437499999998863,
          "ticks": 109020,
          "durationTicks": 59
        },
        {
          "time": 351.642834,
          "midi": 54,
          "name": "F#3",
          "velocity": 1,
          "duration": 0.18437499999998863,
          "ticks": 109080,
          "durationTicks": 59
        },
        {
          "time": 351.642834,
          "midi": 54,
          "name": "F#3",
          "velocity": 1,
          "duration": 0.18437499999998863,
          "ticks": 109080,
          "durationTicks": 59
        },
        {
          "time": 351.830334,
          "midi": 52,
          "name": "E3",
          "velocity": 1,
          "duration": 0.18437499999998863,
          "ticks": 109140,
          "durationTicks": 59
        },
        {
          "time": 351.830334,
          "midi": 52,
          "name": "E3",
          "velocity": 1,
          "duration": 0.18437499999998863,
          "ticks": 109140,
          "durationTicks": 59
        },
        {
          "time": 352.017834,
          "midi": 54,
          "name": "F#3",
          "velocity": 1,
          "duration": 0.18437499999998863,
          "ticks": 109200,
          "durationTicks": 59
        },
        {
          "time": 352.017834,
          "midi": 54,
          "name": "F#3",
          "velocity": 1,
          "duration": 0.18437499999998863,
          "ticks": 109200,
          "durationTicks": 59
        },
        {
          "time": 352.205334,
          "midi": 56,
          "name": "G#3",
          "velocity": 1,
          "duration": 0.18437499999998863,
          "ticks": 109260,
          "durationTicks": 59
        },
        {
          "time": 352.205334,
          "midi": 56,
          "name": "G#3",
          "velocity": 1,
          "duration": 0.18437499999998863,
          "ticks": 109260,
          "durationTicks": 59
        },
        {
          "time": 352.392834,
          "midi": 57,
          "name": "A3",
          "velocity": 1,
          "duration": 1.6875,
          "ticks": 109320,
          "durationTicks": 540
        },
        {
          "time": 352.392834,
          "midi": 57,
          "name": "A3",
          "velocity": 1,
          "duration": 1.6875,
          "ticks": 109320,
          "durationTicks": 540
        },
        {
          "time": 354.080334,
          "midi": 56,
          "name": "G#3",
          "velocity": 1,
          "duration": 0.18437499999998863,
          "ticks": 109860,
          "durationTicks": 59
        },
        {
          "time": 354.080334,
          "midi": 56,
          "name": "G#3",
          "velocity": 1,
          "duration": 0.18437499999998863,
          "ticks": 109860,
          "durationTicks": 59
        },
        {
          "time": 354.267834,
          "midi": 59,
          "name": "B3",
          "velocity": 1,
          "duration": 0.18437499999998863,
          "ticks": 109920,
          "durationTicks": 59
        },
        {
          "time": 354.267834,
          "midi": 59,
          "name": "B3",
          "velocity": 1,
          "duration": 0.18437499999998863,
          "ticks": 109920,
          "durationTicks": 59
        },
        {
          "time": 354.455334,
          "midi": 56,
          "name": "G#3",
          "velocity": 1,
          "duration": 0.18437499999998863,
          "ticks": 109980,
          "durationTicks": 59
        },
        {
          "time": 354.455334,
          "midi": 56,
          "name": "G#3",
          "velocity": 1,
          "duration": 0.18437499999998863,
          "ticks": 109980,
          "durationTicks": 59
        },
        {
          "time": 354.642834,
          "midi": 54,
          "name": "F#3",
          "velocity": 1,
          "duration": 0.18437499999998863,
          "ticks": 110040,
          "durationTicks": 59
        },
        {
          "time": 354.642834,
          "midi": 54,
          "name": "F#3",
          "velocity": 1,
          "duration": 0.18437499999998863,
          "ticks": 110040,
          "durationTicks": 59
        },
        {
          "time": 354.830334,
          "midi": 52,
          "name": "E3",
          "velocity": 1,
          "duration": 0.18437499999998863,
          "ticks": 110100,
          "durationTicks": 59
        },
        {
          "time": 354.830334,
          "midi": 52,
          "name": "E3",
          "velocity": 1,
          "duration": 0.18437499999998863,
          "ticks": 110100,
          "durationTicks": 59
        },
        {
          "time": 355.017834,
          "midi": 54,
          "name": "F#3",
          "velocity": 1,
          "duration": 0.18437499999998863,
          "ticks": 110160,
          "durationTicks": 59
        },
        {
          "time": 355.017834,
          "midi": 54,
          "name": "F#3",
          "velocity": 1,
          "duration": 0.18437499999998863,
          "ticks": 110160,
          "durationTicks": 59
        },
        {
          "time": 355.205334,
          "midi": 56,
          "name": "G#3",
          "velocity": 1,
          "duration": 0.18437499999998863,
          "ticks": 110220,
          "durationTicks": 59
        },
        {
          "time": 355.205334,
          "midi": 56,
          "name": "G#3",
          "velocity": 1,
          "duration": 0.18437499999998863,
          "ticks": 110220,
          "durationTicks": 59
        },
        {
          "time": 355.392834,
          "midi": 57,
          "name": "A3",
          "velocity": 1,
          "duration": 0.09062499999998863,
          "ticks": 110280,
          "durationTicks": 29
        },
        {
          "time": 355.392834,
          "midi": 57,
          "name": "A3",
          "velocity": 1,
          "duration": 0.09062499999998863,
          "ticks": 110280,
          "durationTicks": 29
        },
        {
          "time": 355.486584,
          "midi": 59,
          "name": "B3",
          "velocity": 1,
          "duration": 0.09062499999998863,
          "ticks": 110310,
          "durationTicks": 29
        },
        {
          "time": 355.486584,
          "midi": 59,
          "name": "B3",
          "velocity": 1,
          "duration": 0.09062499999998863,
          "ticks": 110310,
          "durationTicks": 29
        },
        {
          "time": 355.580334,
          "midi": 57,
          "name": "A3",
          "velocity": 1,
          "duration": 0.09062499999998863,
          "ticks": 110340,
          "durationTicks": 29
        },
        {
          "time": 355.580334,
          "midi": 57,
          "name": "A3",
          "velocity": 1,
          "duration": 0.09062499999998863,
          "ticks": 110340,
          "durationTicks": 29
        },
        {
          "time": 355.674084,
          "midi": 56,
          "name": "G#3",
          "velocity": 1,
          "duration": 0.09062499999998863,
          "ticks": 110370,
          "durationTicks": 29
        },
        {
          "time": 355.674084,
          "midi": 56,
          "name": "G#3",
          "velocity": 1,
          "duration": 0.09062499999998863,
          "ticks": 110370,
          "durationTicks": 29
        },
        {
          "time": 355.767834,
          "midi": 54,
          "name": "F#3",
          "velocity": 1,
          "duration": 0.09062499999998863,
          "ticks": 110400,
          "durationTicks": 29
        },
        {
          "time": 355.767834,
          "midi": 54,
          "name": "F#3",
          "velocity": 1,
          "duration": 0.09062499999998863,
          "ticks": 110400,
          "durationTicks": 29
        },
        {
          "time": 355.861584,
          "midi": 56,
          "name": "G#3",
          "velocity": 1,
          "duration": 0.09062499999998863,
          "ticks": 110430,
          "durationTicks": 29
        },
        {
          "time": 355.861584,
          "midi": 56,
          "name": "G#3",
          "velocity": 1,
          "duration": 0.09062499999998863,
          "ticks": 110430,
          "durationTicks": 29
        },
        {
          "time": 355.955334,
          "midi": 54,
          "name": "F#3",
          "velocity": 1,
          "duration": 0.09062499999998863,
          "ticks": 110460,
          "durationTicks": 29
        },
        {
          "time": 355.955334,
          "midi": 54,
          "name": "F#3",
          "velocity": 1,
          "duration": 0.09062499999998863,
          "ticks": 110460,
          "durationTicks": 29
        },
        {
          "time": 356.049084,
          "midi": 52,
          "name": "E3",
          "velocity": 1,
          "duration": 0.09062499999998863,
          "ticks": 110490,
          "durationTicks": 29
        },
        {
          "time": 356.049084,
          "midi": 52,
          "name": "E3",
          "velocity": 1,
          "duration": 0.09062499999998863,
          "ticks": 110490,
          "durationTicks": 29
        },
        {
          "time": 356.142834,
          "midi": 50,
          "name": "D3",
          "velocity": 1,
          "duration": 0.09062499999998863,
          "ticks": 110520,
          "durationTicks": 29
        },
        {
          "time": 356.142834,
          "midi": 50,
          "name": "D3",
          "velocity": 1,
          "duration": 0.09062499999998863,
          "ticks": 110520,
          "durationTicks": 29
        },
        {
          "time": 356.236584,
          "midi": 52,
          "name": "E3",
          "velocity": 1,
          "duration": 0.09062499999998863,
          "ticks": 110550,
          "durationTicks": 29
        },
        {
          "time": 356.236584,
          "midi": 52,
          "name": "E3",
          "velocity": 1,
          "duration": 0.09062499999998863,
          "ticks": 110550,
          "durationTicks": 29
        },
        {
          "time": 356.330334,
          "midi": 50,
          "name": "D3",
          "velocity": 1,
          "duration": 0.09062499999998863,
          "ticks": 110580,
          "durationTicks": 29
        },
        {
          "time": 356.330334,
          "midi": 50,
          "name": "D3",
          "velocity": 1,
          "duration": 0.09062499999998863,
          "ticks": 110580,
          "durationTicks": 29
        },
        {
          "time": 356.424084,
          "midi": 49,
          "name": "C#3",
          "velocity": 1,
          "duration": 0.09062499999998863,
          "ticks": 110610,
          "durationTicks": 29
        },
        {
          "time": 356.424084,
          "midi": 49,
          "name": "C#3",
          "velocity": 1,
          "duration": 0.09062499999998863,
          "ticks": 110610,
          "durationTicks": 29
        },
        {
          "time": 356.517834,
          "midi": 47,
          "name": "B2",
          "velocity": 1,
          "duration": 0.09062499999998863,
          "ticks": 110640,
          "durationTicks": 29
        },
        {
          "time": 356.517834,
          "midi": 47,
          "name": "B2",
          "velocity": 1,
          "duration": 0.09062499999998863,
          "ticks": 110640,
          "durationTicks": 29
        },
        {
          "time": 356.611584,
          "midi": 49,
          "name": "C#3",
          "velocity": 1,
          "duration": 0.09062499999998863,
          "ticks": 110670,
          "durationTicks": 29
        },
        {
          "time": 356.611584,
          "midi": 49,
          "name": "C#3",
          "velocity": 1,
          "duration": 0.09062499999998863,
          "ticks": 110670,
          "durationTicks": 29
        },
        {
          "time": 356.705334,
          "midi": 47,
          "name": "B2",
          "velocity": 1,
          "duration": 0.09062499999998863,
          "ticks": 110700,
          "durationTicks": 29
        },
        {
          "time": 356.705334,
          "midi": 47,
          "name": "B2",
          "velocity": 1,
          "duration": 0.09062499999998863,
          "ticks": 110700,
          "durationTicks": 29
        },
        {
          "time": 356.799084,
          "midi": 45,
          "name": "A2",
          "velocity": 1,
          "duration": 0.09062499999998863,
          "ticks": 110730,
          "durationTicks": 29
        },
        {
          "time": 356.799084,
          "midi": 45,
          "name": "A2",
          "velocity": 1,
          "duration": 0.09062499999998863,
          "ticks": 110730,
          "durationTicks": 29
        },
        {
          "time": 356.892834,
          "midi": 45,
          "name": "A2",
          "velocity": 1,
          "duration": 0.37187499999998863,
          "ticks": 110760,
          "durationTicks": 119
        },
        {
          "time": 356.892834,
          "midi": 45,
          "name": "A2",
          "velocity": 1,
          "duration": 0.37187499999998863,
          "ticks": 110760,
          "durationTicks": 119
        },
        {
          "time": 357.642834,
          "midi": 57,
          "name": "A3",
          "velocity": 1,
          "duration": 0.37187499999998863,
          "ticks": 111000,
          "durationTicks": 119
        },
        {
          "time": 357.642834,
          "midi": 57,
          "name": "A3",
          "velocity": 1,
          "duration": 0.37187499999998863,
          "ticks": 111000,
          "durationTicks": 119
        },
        {
          "time": 358.392834,
          "midi": 41,
          "name": "F2",
          "velocity": 1,
          "duration": 1.5386393583333415,
          "ticks": 111240,
          "durationTicks": 479
        },
        {
          "time": 358.392834,
          "midi": 41,
          "name": "F2",
          "velocity": 1,
          "duration": 1.5386393583333415,
          "ticks": 111240,
          "durationTicks": 479
        }
      ],
      "controlChanges": {
        "7": [
          {
            "number": 7,
            "value": 0.7874015748031497,
            "time": 0,
            "ticks": 0
          }
        ],
        "10": [
          {
            "number": 10,
            "value": 0.5511811023622047,
            "time": 0,
            "ticks": 0
          }
        ]
      }
    },
    {
      "name": "Contrabassoon",
      "channel": 0,
      "instrument": {
        "number": 70,
        "name": "bassoon",
        "family": "reed"
      },
      "notes": [
        {
          "time": 109.5,
          "midi": 50,
          "name": "D3",
          "velocity": 0.8267716535433071,
          "duration": 0.37187500000000284,
          "ticks": 35040,
          "durationTicks": 119
        },
        {
          "time": 110.0625,
          "midi": 42,
          "name": "F#2",
          "velocity": 0.8267716535433071,
          "duration": 0.18437500000000284,
          "ticks": 35220,
          "durationTicks": 59
        },
        {
          "time": 110.25,
          "midi": 50,
          "name": "D3",
          "velocity": 0.8267716535433071,
          "duration": 0.37187500000000284,
          "ticks": 35280,
          "durationTicks": 119
        },
        {
          "time": 110.8125,
          "midi": 38,
          "name": "D2",
          "velocity": 0.8267716535433071,
          "duration": 0.18437500000000284,
          "ticks": 35460,
          "durationTicks": 59
        },
        {
          "time": 111,
          "midi": 45,
          "name": "A2",
          "velocity": 0.8267716535433071,
          "duration": 0.37187500000000284,
          "ticks": 35520,
          "durationTicks": 119
        },
        {
          "time": 111.5625,
          "midi": 33,
          "name": "A1",
          "velocity": 0.8188976377952756,
          "duration": 0.18437500000000284,
          "ticks": 35700,
          "durationTicks": 59
        },
        {
          "time": 111.75,
          "midi": 45,
          "name": "A2",
          "velocity": 0.8188976377952756,
          "duration": 0.18437500000000284,
          "ticks": 35760,
          "durationTicks": 59
        },
        {
          "time": 112.3125,
          "midi": 33,
          "name": "A1",
          "velocity": 0.8188976377952756,
          "duration": 0.18437500000000284,
          "ticks": 35940,
          "durationTicks": 59
        },
        {
          "time": 112.5,
          "midi": 38,
          "name": "D2",
          "velocity": 0.8188976377952756,
          "duration": 0.37187500000000284,
          "ticks": 36000,
          "durationTicks": 119
        },
        {
          "time": 113.625,
          "midi": 38,
          "name": "D2",
          "velocity": 0.8188976377952756,
          "duration": 0.37187500000000284,
          "ticks": 36360,
          "durationTicks": 119
        },
        {
          "time": 114,
          "midi": 45,
          "name": "A2",
          "velocity": 0.8188976377952756,
          "duration": 0.37187500000000284,
          "ticks": 36480,
          "durationTicks": 119
        },
        {
          "time": 114.75,
          "midi": 33,
          "name": "A1",
          "velocity": 0.8188976377952756,
          "duration": 0.37187500000000284,
          "ticks": 36720,
          "durationTicks": 119
        },
        {
          "time": 115.5,
          "midi": 50,
          "name": "D3",
          "velocity": 0.8267716535433071,
          "duration": 0.37187500000000284,
          "ticks": 36960,
          "durationTicks": 119
        },
        {
          "time": 116.0625,
          "midi": 38,
          "name": "D2",
          "velocity": 0.8267716535433071,
          "duration": 0.18437500000000284,
          "ticks": 37140,
          "durationTicks": 59
        },
        {
          "time": 116.25,
          "midi": 50,
          "name": "D3",
          "velocity": 0.8346456692913385,
          "duration": 0.37187500000000284,
          "ticks": 37200,
          "durationTicks": 119
        },
        {
          "time": 116.8125,
          "midi": 38,
          "name": "D2",
          "velocity": 0.84251968503937,
          "duration": 0.18437500000000284,
          "ticks": 37380,
          "durationTicks": 59
        },
        {
          "time": 117,
          "midi": 45,
          "name": "A2",
          "velocity": 0.84251968503937,
          "duration": 0.37187500000000284,
          "ticks": 37440,
          "durationTicks": 119
        },
        {
          "time": 117.5625,
          "midi": 33,
          "name": "A1",
          "velocity": 0.84251968503937,
          "duration": 0.18437500000000284,
          "ticks": 37620,
          "durationTicks": 59
        },
        {
          "time": 117.75,
          "midi": 45,
          "name": "A2",
          "velocity": 0.84251968503937,
          "duration": 0.37187500000000284,
          "ticks": 37680,
          "durationTicks": 119
        },
        {
          "time": 118.3125,
          "midi": 33,
          "name": "A1",
          "velocity": 0.8503937007874016,
          "duration": 0.18437500000000284,
          "ticks": 37860,
          "durationTicks": 59
        },
        {
          "time": 118.5,
          "midi": 38,
          "name": "D2",
          "velocity": 0.8503937007874016,
          "duration": 0.37187500000000284,
          "ticks": 37920,
          "durationTicks": 119
        },
        {
          "time": 119.625,
          "midi": 38,
          "name": "D2",
          "velocity": 0.8740157480314961,
          "duration": 0.37187500000000284,
          "ticks": 38280,
          "durationTicks": 119
        },
        {
          "time": 119.996875,
          "midi": 33,
          "name": "A1",
          "velocity": 0.8740157480314961,
          "duration": 0.37187500000000284,
          "ticks": 38399,
          "durationTicks": 119
        },
        {
          "time": 120.746875,
          "midi": 38,
          "name": "D2",
          "velocity": 0.8740157480314961,
          "duration": 0.37187500000000284,
          "ticks": 38639,
          "durationTicks": 119
        },
        {
          "time": 121.496875,
          "midi": 33,
          "name": "A1",
          "velocity": 0.889763779527559,
          "duration": 0.37187500000000284,
          "ticks": 38879,
          "durationTicks": 119
        },
        {
          "time": 122.059375,
          "midi": 33,
          "name": "A1",
          "velocity": 0.889763779527559,
          "duration": 0.18437500000000284,
          "ticks": 39059,
          "durationTicks": 59
        },
        {
          "time": 122.246875,
          "midi": 45,
          "name": "A2",
          "velocity": 0.889763779527559,
          "duration": 0.37187500000000284,
          "ticks": 39119,
          "durationTicks": 119
        },
        {
          "time": 122.621875,
          "midi": 38,
          "name": "D2",
          "velocity": 0.889763779527559,
          "duration": 0.37187500000000284,
          "ticks": 39239,
          "durationTicks": 119
        },
        {
          "time": 123,
          "midi": 33,
          "name": "A1",
          "velocity": 0.889763779527559,
          "duration": 0.37187500000000284,
          "ticks": 39360,
          "durationTicks": 119
        },
        {
          "time": 123.5625,
          "midi": 33,
          "name": "A1",
          "velocity": 0.8818897637795275,
          "duration": 0.18437500000000284,
          "ticks": 39540,
          "durationTicks": 59
        },
        {
          "time": 123.75,
          "midi": 45,
          "name": "A2",
          "velocity": 0.8818897637795275,
          "duration": 0.37187500000000284,
          "ticks": 39600,
          "durationTicks": 119
        },
        {
          "time": 124.125,
          "midi": 38,
          "name": "D2",
          "velocity": 0.8740157480314961,
          "duration": 0.37187500000000284,
          "ticks": 39720,
          "durationTicks": 119
        },
        {
          "time": 124.5,
          "midi": 33,
          "name": "A1",
          "velocity": 0.8582677165354331,
          "duration": 0.37187500000000284,
          "ticks": 39840,
          "durationTicks": 119
        },
        {
          "time": 125.0625,
          "midi": 45,
          "name": "A2",
          "velocity": 0.8582677165354331,
          "duration": 0.18437500000000284,
          "ticks": 40020,
          "durationTicks": 59
        },
        {
          "time": 125.25,
          "midi": 46,
          "name": "A#2",
          "velocity": 0.8503937007874016,
          "duration": 0.18437500000000284,
          "ticks": 40080,
          "durationTicks": 59
        },
        {
          "time": 125.625,
          "midi": 42,
          "name": "F#2",
          "velocity": 0.8503937007874016,
          "duration": 0.18437500000000284,
          "ticks": 40200,
          "durationTicks": 59
        },
        {
          "time": 126,
          "midi": 47,
          "name": "B2",
          "velocity": 0.8503937007874016,
          "duration": 0.18437500000000284,
          "ticks": 40320,
          "durationTicks": 59
        },
        {
          "time": 126.375,
          "midi": 40,
          "name": "E2",
          "velocity": 0.84251968503937,
          "duration": 0.18437500000000284,
          "ticks": 40440,
          "durationTicks": 59
        },
        {
          "time": 126.75,
          "midi": 45,
          "name": "A2",
          "velocity": 0.84251968503937,
          "duration": 0.18437500000000284,
          "ticks": 40560,
          "durationTicks": 59
        },
        {
          "time": 127.125,
          "midi": 33,
          "name": "A1",
          "velocity": 0.84251968503937,
          "duration": 0.18437500000000284,
          "ticks": 40680,
          "durationTicks": 59
        },
        {
          "time": 127.5,
          "midi": 50,
          "name": "D3",
          "velocity": 0.84251968503937,
          "duration": 0.37187500000000284,
          "ticks": 40800,
          "durationTicks": 119
        },
        {
          "time": 128.0625,
          "midi": 38,
          "name": "D2",
          "velocity": 0.84251968503937,
          "duration": 0.18437499999998863,
          "ticks": 40980,
          "durationTicks": 59
        },
        {
          "time": 128.25,
          "midi": 50,
          "name": "D3",
          "velocity": 0.8503937007874016,
          "duration": 0.37187499999998863,
          "ticks": 41040,
          "durationTicks": 119
        },
        {
          "time": 128.8125,
          "midi": 38,
          "name": "D2",
          "velocity": 0.8582677165354331,
          "duration": 0.18437499999998863,
          "ticks": 41220,
          "durationTicks": 59
        },
        {
          "time": 129,
          "midi": 45,
          "name": "A2",
          "velocity": 1,
          "duration": 0.37187499999998863,
          "ticks": 41280,
          "durationTicks": 119
        },
        {
          "time": 129.5625,
          "midi": 33,
          "name": "A1",
          "velocity": 1,
          "duration": 0.18437499999998863,
          "ticks": 41460,
          "durationTicks": 59
        },
        {
          "time": 129.75,
          "midi": 45,
          "name": "A2",
          "velocity": 1,
          "duration": 0.37187499999998863,
          "ticks": 41520,
          "durationTicks": 119
        },
        {
          "time": 130.3125,
          "midi": 33,
          "name": "A1",
          "velocity": 0.9763779527559056,
          "duration": 0.18437499999998863,
          "ticks": 41700,
          "durationTicks": 59
        },
        {
          "time": 130.5,
          "midi": 38,
          "name": "D2",
          "velocity": 1,
          "duration": 0.37187499999998863,
          "ticks": 41760,
          "durationTicks": 119
        },
        {
          "time": 131.625,
          "midi": 38,
          "name": "D2",
          "velocity": 1,
          "duration": 0.37187499999998863,
          "ticks": 42120,
          "durationTicks": 119
        },
        {
          "time": 132,
          "midi": 33,
          "name": "A1",
          "velocity": 1,
          "duration": 0.37187499999998863,
          "ticks": 42240,
          "durationTicks": 119
        },
        {
          "time": 132.75,
          "midi": 38,
          "name": "D2",
          "velocity": 1,
          "duration": 0.37187499999998863,
          "ticks": 42480,
          "durationTicks": 119
        },
        {
          "time": 133.5,
          "midi": 33,
          "name": "A1",
          "velocity": 1,
          "duration": 0.37187499999998863,
          "ticks": 42720,
          "durationTicks": 119
        },
        {
          "time": 134.0625,
          "midi": 33,
          "name": "A1",
          "velocity": 1,
          "duration": 0.18437499999998863,
          "ticks": 42900,
          "durationTicks": 59
        },
        {
          "time": 134.25,
          "midi": 45,
          "name": "A2",
          "velocity": 1,
          "duration": 0.37187499999998863,
          "ticks": 42960,
          "durationTicks": 119
        },
        {
          "time": 134.625,
          "midi": 38,
          "name": "D2",
          "velocity": 1,
          "duration": 0.37187499999998863,
          "ticks": 43080,
          "durationTicks": 119
        },
        {
          "time": 135,
          "midi": 33,
          "name": "A1",
          "velocity": 1,
          "duration": 0.37187499999998863,
          "ticks": 43200,
          "durationTicks": 119
        },
        {
          "time": 135.5625,
          "midi": 33,
          "name": "A1",
          "velocity": 1,
          "duration": 0.18437499999998863,
          "ticks": 43380,
          "durationTicks": 59
        },
        {
          "time": 135.75,
          "midi": 45,
          "name": "A2",
          "velocity": 1,
          "duration": 0.37187499999998863,
          "ticks": 43440,
          "durationTicks": 119
        },
        {
          "time": 136.125,
          "midi": 38,
          "name": "D2",
          "velocity": 1,
          "duration": 0.37187499999998863,
          "ticks": 43560,
          "durationTicks": 119
        },
        {
          "time": 136.5,
          "midi": 33,
          "name": "A1",
          "velocity": 1,
          "duration": 0.37187499999998863,
          "ticks": 43680,
          "durationTicks": 119
        },
        {
          "time": 137.0625,
          "midi": 45,
          "name": "A2",
          "velocity": 1,
          "duration": 0.18437499999998863,
          "ticks": 43860,
          "durationTicks": 59
        },
        {
          "time": 137.25,
          "midi": 46,
          "name": "A#2",
          "velocity": 1,
          "duration": 0.18437499999998863,
          "ticks": 43920,
          "durationTicks": 59
        },
        {
          "time": 137.625,
          "midi": 42,
          "name": "F#2",
          "velocity": 1,
          "duration": 0.18437499999998863,
          "ticks": 44040,
          "durationTicks": 59
        },
        {
          "time": 138,
          "midi": 47,
          "name": "B2",
          "velocity": 1,
          "duration": 0.18437499999998863,
          "ticks": 44160,
          "durationTicks": 59
        },
        {
          "time": 138.375,
          "midi": 40,
          "name": "E2",
          "velocity": 1,
          "duration": 0.18437499999998863,
          "ticks": 44280,
          "durationTicks": 59
        },
        {
          "time": 138.75,
          "midi": 45,
          "name": "A2",
          "velocity": 1,
          "duration": 0.18437499999998863,
          "ticks": 44400,
          "durationTicks": 59
        },
        {
          "time": 139.125,
          "midi": 33,
          "name": "A1",
          "velocity": 1,
          "duration": 0.18437499999998863,
          "ticks": 44520,
          "durationTicks": 59
        },
        {
          "time": 139.5,
          "midi": 50,
          "name": "D3",
          "velocity": 1,
          "duration": 0.37187499999998863,
          "ticks": 44640,
          "durationTicks": 119
        },
        {
          "time": 140.0625,
          "midi": 38,
          "name": "D2",
          "velocity": 1,
          "duration": 0.18437499999998863,
          "ticks": 44820,
          "durationTicks": 59
        },
        {
          "time": 140.25,
          "midi": 50,
          "name": "D3",
          "velocity": 1,
          "duration": 0.37187499999998863,
          "ticks": 44880,
          "durationTicks": 119
        },
        {
          "time": 140.8125,
          "midi": 38,
          "name": "D2",
          "velocity": 1,
          "duration": 0.18437499999998863,
          "ticks": 45060,
          "durationTicks": 59
        },
        {
          "time": 141,
          "midi": 45,
          "name": "A2",
          "velocity": 1,
          "duration": 0.37187499999998863,
          "ticks": 45120,
          "durationTicks": 119
        },
        {
          "time": 141.5625,
          "midi": 33,
          "name": "A1",
          "velocity": 1,
          "duration": 0.18437499999998863,
          "ticks": 45300,
          "durationTicks": 59
        },
        {
          "time": 141.75,
          "midi": 45,
          "name": "A2",
          "velocity": 1,
          "duration": 0.37187499999998863,
          "ticks": 45360,
          "durationTicks": 119
        },
        {
          "time": 142.3125,
          "midi": 33,
          "name": "A1",
          "velocity": 1,
          "duration": 0.18437499999998863,
          "ticks": 45540,
          "durationTicks": 59
        },
        {
          "time": 142.5,
          "midi": 38,
          "name": "D2",
          "velocity": 1,
          "duration": 0.37187499999998863,
          "ticks": 45600,
          "durationTicks": 119
        },
        {
          "time": 143.625,
          "midi": 38,
          "name": "D2",
          "velocity": 1,
          "duration": 0.37187499999998863,
          "ticks": 45960,
          "durationTicks": 119
        },
        {
          "time": 144,
          "midi": 33,
          "name": "A1",
          "velocity": 1,
          "duration": 0.37187499999998863,
          "ticks": 46080,
          "durationTicks": 119
        },
        {
          "time": 144.75,
          "midi": 38,
          "name": "D2",
          "velocity": 1,
          "duration": 0.37187499999998863,
          "ticks": 46320,
          "durationTicks": 119
        },
        {
          "time": 145.3125,
          "midi": 38,
          "name": "D2",
          "velocity": 1,
          "duration": 0.18437499999998863,
          "ticks": 46500,
          "durationTicks": 59
        },
        {
          "time": 145.5,
          "midi": 50,
          "name": "D3",
          "velocity": 1,
          "duration": 0.37187499999998863,
          "ticks": 46560,
          "durationTicks": 119
        },
        {
          "time": 146.0625,
          "midi": 38,
          "name": "D2",
          "velocity": 0.937007874015748,
          "duration": 0.18437499999998863,
          "ticks": 46740,
          "durationTicks": 59
        },
        {
          "time": 146.25,
          "midi": 50,
          "name": "D3",
          "velocity": 1,
          "duration": 0.37187499999998863,
          "ticks": 46800,
          "durationTicks": 119
        },
        {
          "time": 146.8125,
          "midi": 38,
          "name": "D2",
          "velocity": 1,
          "duration": 0.18437499999998863,
          "ticks": 46980,
          "durationTicks": 59
        },
        {
          "time": 147,
          "midi": 43,
          "name": "G2",
          "velocity": 1,
          "duration": 0.37187499999998863,
          "ticks": 47040,
          "durationTicks": 119
        },
        {
          "time": 147.5625,
          "midi": 31,
          "name": "G1",
          "velocity": 0.937007874015748,
          "duration": 0.18437499999998863,
          "ticks": 47220,
          "durationTicks": 59
        },
        {
          "time": 147.75,
          "midi": 43,
          "name": "G2",
          "velocity": 1,
          "duration": 0.37187499999998863,
          "ticks": 47280,
          "durationTicks": 119
        },
        {
          "time": 148.3125,
          "midi": 31,
          "name": "G1",
          "velocity": 1,
          "duration": 0.18437499999998863,
          "ticks": 47460,
          "durationTicks": 59
        },
        {
          "time": 148.5,
          "midi": 43,
          "name": "G2",
          "velocity": 1,
          "duration": 0.37187499999998863,
          "ticks": 47520,
          "durationTicks": 119
        },
        {
          "time": 149.0625,
          "midi": 31,
          "name": "G1",
          "velocity": 0.937007874015748,
          "duration": 0.18437499999998863,
          "ticks": 47700,
          "durationTicks": 59
        },
        {
          "time": 149.25,
          "midi": 45,
          "name": "A2",
          "velocity": 1,
          "duration": 0.37187499999998863,
          "ticks": 47760,
          "durationTicks": 119
        },
        {
          "time": 149.8125,
          "midi": 33,
          "name": "A1",
          "velocity": 1,
          "duration": 0.18437499999998863,
          "ticks": 47940,
          "durationTicks": 59
        },
        {
          "time": 150,
          "midi": 50,
          "name": "D3",
          "velocity": 1,
          "duration": 0.37187499999998863,
          "ticks": 48000,
          "durationTicks": 119
        },
        {
          "time": 150.5625,
          "midi": 38,
          "name": "D2",
          "velocity": 0.937007874015748,
          "duration": 0.18437499999998863,
          "ticks": 48180,
          "durationTicks": 59
        },
        {
          "time": 150.75,
          "midi": 42,
          "name": "F#2",
          "velocity": 1,
          "duration": 0.37187499999998863,
          "ticks": 48240,
          "durationTicks": 119
        },
        {
          "time": 151.3125,
          "midi": 30,
          "name": "F#1",
          "velocity": 1,
          "duration": 0.18437499999998863,
          "ticks": 48420,
          "durationTicks": 59
        },
        {
          "time": 151.5,
          "midi": 43,
          "name": "G2",
          "velocity": 1,
          "duration": 0.37187499999998863,
          "ticks": 48480,
          "durationTicks": 119
        },
        {
          "time": 152.0625,
          "midi": 31,
          "name": "G1",
          "velocity": 0.937007874015748,
          "duration": 0.18437499999998863,
          "ticks": 48660,
          "durationTicks": 59
        },
        {
          "time": 152.25,
          "midi": 45,
          "name": "A2",
          "velocity": 1,
          "duration": 0.37187499999998863,
          "ticks": 48720,
          "durationTicks": 119
        },
        {
          "time": 152.8125,
          "midi": 45,
          "name": "A2",
          "velocity": 1,
          "duration": 0.18437499999998863,
          "ticks": 48900,
          "durationTicks": 59
        },
        {
          "time": 153,
          "midi": 46,
          "name": "A#2",
          "velocity": 1,
          "duration": 0.37187499999998863,
          "ticks": 48960,
          "durationTicks": 119
        },
        {
          "time": 153.5625,
          "midi": 34,
          "name": "A#1",
          "velocity": 0.937007874015748,
          "duration": 0.18437499999998863,
          "ticks": 49140,
          "durationTicks": 59
        },
        {
          "time": 153.75,
          "midi": 47,
          "name": "B2",
          "velocity": 1,
          "duration": 0.37187499999998863,
          "ticks": 49200,
          "durationTicks": 119
        },
        {
          "time": 154.3125,
          "midi": 35,
          "name": "B1",
          "velocity": 1,
          "duration": 0.18437499999998863,
          "ticks": 49380,
          "durationTicks": 59
        },
        {
          "time": 154.5,
          "midi": 48,
          "name": "C3",
          "velocity": 1,
          "duration": 0.37187499999998863,
          "ticks": 49440,
          "durationTicks": 119
        },
        {
          "time": 155.0625,
          "midi": 36,
          "name": "C2",
          "velocity": 0.937007874015748,
          "duration": 0.18437499999998863,
          "ticks": 49620,
          "durationTicks": 59
        },
        {
          "time": 155.25,
          "midi": 49,
          "name": "C#3",
          "velocity": 1,
          "duration": 0.37187499999998863,
          "ticks": 49680,
          "durationTicks": 119
        },
        {
          "time": 155.8125,
          "midi": 37,
          "name": "C#2",
          "velocity": 1,
          "duration": 0.18437499999998863,
          "ticks": 49860,
          "durationTicks": 59
        },
        {
          "time": 156,
          "midi": 49,
          "name": "C#3",
          "velocity": 1,
          "duration": 0.37187499999998863,
          "ticks": 49920,
          "durationTicks": 119
        },
        {
          "time": 156.5625,
          "midi": 37,
          "name": "C#2",
          "velocity": 0.937007874015748,
          "duration": 0.18437499999998863,
          "ticks": 50100,
          "durationTicks": 59
        },
        {
          "time": 156.75,
          "midi": 50,
          "name": "D3",
          "velocity": 1,
          "duration": 0.37187499999998863,
          "ticks": 50160,
          "durationTicks": 119
        },
        {
          "time": 157.3125,
          "midi": 51,
          "name": "D#3",
          "velocity": 1,
          "duration": 0.18437499999998863,
          "ticks": 50340,
          "durationTicks": 59
        },
        {
          "time": 157.5,
          "midi": 52,
          "name": "E3",
          "velocity": 0.905511811023622,
          "duration": 0.37187499999998863,
          "ticks": 50400,
          "durationTicks": 119
        },
        {
          "time": 158.0625,
          "midi": 53,
          "name": "F3",
          "velocity": 1,
          "duration": 0.18437499999998863,
          "ticks": 50580,
          "durationTicks": 59
        },
        {
          "time": 158.25,
          "midi": 54,
          "name": "F#3",
          "velocity": 1,
          "duration": 0.37187499999998863,
          "ticks": 50640,
          "durationTicks": 119
        },
        {
          "time": 158.8125,
          "midi": 54,
          "name": "F#3",
          "velocity": 1,
          "duration": 0.18437499999998863,
          "ticks": 50820,
          "durationTicks": 59
        },
        {
          "time": 159,
          "midi": 56,
          "name": "G#3",
          "velocity": 1,
          "duration": 0.37187499999998863,
          "ticks": 50880,
          "durationTicks": 119
        },
        {
          "time": 159.5625,
          "midi": 44,
          "name": "G#2",
          "velocity": 1,
          "duration": 0.18437499999998863,
          "ticks": 51060,
          "durationTicks": 59
        },
        {
          "time": 159.75,
          "midi": 56,
          "name": "G#3",
          "velocity": 1,
          "duration": 0.37187499999998863,
          "ticks": 51120,
          "durationTicks": 119
        },
        {
          "time": 160.3125,
          "midi": 44,
          "name": "G#2",
          "velocity": 1,
          "duration": 0.18437499999998863,
          "ticks": 51300,
          "durationTicks": 59
        },
        {
          "time": 160.5,
          "midi": 56,
          "name": "G#3",
          "velocity": 1,
          "duration": 0.37187499999998863,
          "ticks": 51360,
          "durationTicks": 119
        },
        {
          "time": 161.0625,
          "midi": 44,
          "name": "G#2",
          "velocity": 1,
          "duration": 0.18437499999998863,
          "ticks": 51540,
          "durationTicks": 59
        },
        {
          "time": 161.25,
          "midi": 56,
          "name": "G#3",
          "velocity": 1,
          "duration": 0.37187499999998863,
          "ticks": 51600,
          "durationTicks": 119
        },
        {
          "time": 161.8125,
          "midi": 44,
          "name": "G#2",
          "velocity": 1,
          "duration": 0.18437499999998863,
          "ticks": 51780,
          "durationTicks": 59
        },
        {
          "time": 162,
          "midi": 45,
          "name": "A2",
          "velocity": 1,
          "duration": 0.5625,
          "ticks": 51840,
          "durationTicks": 180
        },
        {
          "time": 162.5625,
          "midi": 47,
          "name": "B2",
          "velocity": 1,
          "duration": 0.09062499999998863,
          "ticks": 52020,
          "durationTicks": 29
        },
        {
          "time": 162.65625,
          "midi": 49,
          "name": "C#3",
          "velocity": 1,
          "duration": 0.09062499999998863,
          "ticks": 52050,
          "durationTicks": 29
        },
        {
          "time": 162.75,
          "midi": 50,
          "name": "D3",
          "velocity": 1,
          "duration": 0.5625,
          "ticks": 52080,
          "durationTicks": 180
        },
        {
          "time": 163.3125,
          "midi": 49,
          "name": "C#3",
          "velocity": 1,
          "duration": 0.09062499999998863,
          "ticks": 52260,
          "durationTicks": 29
        },
        {
          "time": 163.40625,
          "midi": 47,
          "name": "B2",
          "velocity": 1,
          "duration": 0.09062499999998863,
          "ticks": 52290,
          "durationTicks": 29
        },
        {
          "time": 163.5,
          "midi": 49,
          "name": "C#3",
          "velocity": 1,
          "duration": 0.18437499999998863,
          "ticks": 52320,
          "durationTicks": 59
        },
        {
          "time": 163.6875,
          "midi": 47,
          "name": "B2",
          "velocity": 1,
          "duration": 0.04374999999998863,
          "ticks": 52380,
          "durationTicks": 14
        },
        {
          "time": 163.78125,
          "midi": 45,
          "name": "A2",
          "velocity": 1,
          "duration": 0.09062499999998863,
          "ticks": 52410,
          "durationTicks": 29
        },
        {
          "time": 163.875,
          "midi": 43,
          "name": "G2",
          "velocity": 1,
          "duration": 0.09062499999998863,
          "ticks": 52440,
          "durationTicks": 29
        },
        {
          "time": 164.0625,
          "midi": 42,
          "name": "F#2",
          "velocity": 1,
          "duration": 0.09062499999998863,
          "ticks": 52500,
          "durationTicks": 29
        },
        {
          "time": 164.25,
          "midi": 42,
          "name": "F#2",
          "velocity": 1,
          "duration": 0.09062499999998863,
          "ticks": 52560,
          "durationTicks": 29
        },
        {
          "time": 164.4375,
          "midi": 41,
          "name": "F2",
          "velocity": 1,
          "duration": 0.09062499999998863,
          "ticks": 52620,
          "durationTicks": 29
        },
        {
          "time": 164.625,
          "midi": 40,
          "name": "E2",
          "velocity": 1,
          "duration": 0.09062499999998863,
          "ticks": 52680,
          "durationTicks": 29
        },
        {
          "time": 164.8125,
          "midi": 40,
          "name": "E2",
          "velocity": 1,
          "duration": 0.09062499999998863,
          "ticks": 52740,
          "durationTicks": 29
        },
        {
          "time": 165,
          "midi": 45,
          "name": "A2",
          "velocity": 1,
          "duration": 0.7468749999999886,
          "ticks": 52800,
          "durationTicks": 239
        },
        {
          "time": 165.75,
          "midi": 40,
          "name": "E2",
          "velocity": 1,
          "duration": 0.18437499999998863,
          "ticks": 53040,
          "durationTicks": 59
        },
        {
          "time": 166.125,
          "midi": 40,
          "name": "E2",
          "velocity": 1,
          "duration": 0.18437499999998863,
          "ticks": 53160,
          "durationTicks": 59
        },
        {
          "time": 166.5,
          "midi": 33,
          "name": "A1",
          "velocity": 1,
          "duration": 0.09062499999998863,
          "ticks": 53280,
          "durationTicks": 29
        },
        {
          "time": 166.6875,
          "midi": 33,
          "name": "A1",
          "velocity": 1,
          "duration": 0.09062499999998863,
          "ticks": 53340,
          "durationTicks": 29
        },
        {
          "time": 166.78125,
          "midi": 35,
          "name": "B1",
          "velocity": 1,
          "duration": 0.09062499999998863,
          "ticks": 53370,
          "durationTicks": 29
        },
        {
          "time": 166.875,
          "midi": 37,
          "name": "C#2",
          "velocity": 1,
          "duration": 0.09062499999998863,
          "ticks": 53400,
          "durationTicks": 29
        },
        {
          "time": 167.0625,
          "midi": 37,
          "name": "C#2",
          "velocity": 1,
          "duration": 0.09062499999998863,
          "ticks": 53460,
          "durationTicks": 29
        },
        {
          "time": 167.15625,
          "midi": 38,
          "name": "D2",
          "velocity": 1,
          "duration": 0.09062499999998863,
          "ticks": 53490,
          "durationTicks": 29
        },
        {
          "time": 167.25,
          "midi": 40,
          "name": "E2",
          "velocity": 1,
          "duration": 0.09062499999998863,
          "ticks": 53520,
          "durationTicks": 29
        },
        {
          "time": 167.4375,
          "midi": 40,
          "name": "E2",
          "velocity": 1,
          "duration": 0.09062499999998863,
          "ticks": 53580,
          "durationTicks": 29
        },
        {
          "time": 167.53125,
          "midi": 42,
          "name": "F#2",
          "velocity": 1,
          "duration": 0.09062499999998863,
          "ticks": 53610,
          "durationTicks": 29
        },
        {
          "time": 167.625,
          "midi": 44,
          "name": "G#2",
          "velocity": 1,
          "duration": 0.09062499999998863,
          "ticks": 53640,
          "durationTicks": 29
        },
        {
          "time": 167.8125,
          "midi": 40,
          "name": "E2",
          "velocity": 1,
          "duration": 0.05937500000001705,
          "ticks": 53700,
          "durationTicks": 19
        },
        {
          "time": 167.875,
          "midi": 42,
          "name": "F#2",
          "velocity": 1,
          "duration": 0.05937499999998863,
          "ticks": 53720,
          "durationTicks": 19
        },
        {
          "time": 167.9375,
          "midi": 44,
          "name": "G#2",
          "velocity": 1,
          "duration": 0.05937499999998863,
          "ticks": 53740,
          "durationTicks": 19
        },
        {
          "time": 176.25,
          "midi": 44,
          "name": "G#2",
          "velocity": 0.8818897637795275,
          "duration": 0.3687500000000057,
          "ticks": 55080,
          "durationTicks": 59
        },
        {
          "time": 176.625,
          "midi": 44,
          "name": "G#2",
          "velocity": 1,
          "duration": 0.3687500000000057,
          "ticks": 55140,
          "durationTicks": 59
        },
        {
          "time": 177,
          "midi": 45,
          "name": "A2",
          "velocity": 1,
          "duration": 0.18437499999998863,
          "ticks": 55200,
          "durationTicks": 59
        },
        {
          "time": 177.1875,
          "midi": 49,
          "name": "C#3",
          "velocity": 1,
          "duration": 0.18437499999998863,
          "ticks": 55260,
          "durationTicks": 59
        },
        {
          "time": 177.375,
          "midi": 54,
          "name": "F#3",
          "velocity": 1,
          "duration": 0.09062499999998863,
          "ticks": 55320,
          "durationTicks": 29
        },
        {
          "time": 177.5625,
          "midi": 51,
          "name": "D#3",
          "velocity": 1,
          "duration": 0.09062499999998863,
          "ticks": 55380,
          "durationTicks": 29
        },
        {
          "time": 177.75,
          "midi": 52,
          "name": "E3",
          "velocity": 1,
          "duration": 0.37187499999998863,
          "ticks": 55440,
          "durationTicks": 119
        },
        {
          "time": 178.125,
          "midi": 40,
          "name": "E2",
          "velocity": 1,
          "duration": 0.37187499999998863,
          "ticks": 55560,
          "durationTicks": 119
        },
        {
          "time": 178.875,
          "midi": 40,
          "name": "E2",
          "velocity": 1,
          "duration": 0.18437499999998863,
          "ticks": 55800,
          "durationTicks": 59
        },
        {
          "time": 179.625,
          "midi": 45,
          "name": "A2",
          "velocity": 1,
          "duration": 0.18437499999998863,
          "ticks": 56040,
          "durationTicks": 59
        },
        {
          "time": 180.75,
          "midi": 29,
          "name": "F1",
          "velocity": 1,
          "duration": 0.9375,
          "ticks": 56400,
          "durationTicks": 300
        },
        {
          "time": 181.6875,
          "midi": 45,
          "name": "A2",
          "velocity": 1,
          "duration": 0.09062499999998863,
          "ticks": 56700,
          "durationTicks": 29
        },
        {
          "time": 181.875,
          "midi": 45,
          "name": "A2",
          "velocity": 1,
          "duration": 0.09062499999998863,
          "ticks": 56760,
          "durationTicks": 29
        },
        {
          "time": 182.0625,
          "midi": 50,
          "name": "D3",
          "velocity": 1,
          "duration": 0.09062499999998863,
          "ticks": 56820,
          "durationTicks": 29
        },
        {
          "time": 182.25,
          "midi": 50,
          "name": "D3",
          "velocity": 1,
          "duration": 0.09062499999998863,
          "ticks": 56880,
          "durationTicks": 29
        },
        {
          "time": 182.4375,
          "midi": 41,
          "name": "F2",
          "velocity": 1,
          "duration": 0.09062499999998863,
          "ticks": 56940,
          "durationTicks": 29
        },
        {
          "time": 182.625,
          "midi": 41,
          "name": "F2",
          "velocity": 1,
          "duration": 0.09062499999998863,
          "ticks": 57000,
          "durationTicks": 29
        },
        {
          "time": 182.8125,
          "midi": 45,
          "name": "A2",
          "velocity": 1,
          "duration": 0.09062499999998863,
          "ticks": 57060,
          "durationTicks": 29
        },
        {
          "time": 183,
          "midi": 45,
          "name": "A2",
          "velocity": 1,
          "duration": 0.09062499999998863,
          "ticks": 57120,
          "durationTicks": 29
        },
        {
          "time": 183.1875,
          "midi": 38,
          "name": "D2",
          "velocity": 0.905511811023622,
          "duration": 0.09062499999998863,
          "ticks": 57180,
          "durationTicks": 29
        },
        {
          "time": 183.375,
          "midi": 38,
          "name": "D2",
          "velocity": 1,
          "duration": 0.18437499999998863,
          "ticks": 57240,
          "durationTicks": 59
        },
        {
          "time": 183.5625,
          "midi": 41,
          "name": "F2",
          "velocity": 1,
          "duration": 0.18437499999998863,
          "ticks": 57300,
          "durationTicks": 59
        },
        {
          "time": 183.75,
          "midi": 41,
          "name": "F2",
          "velocity": 0.937007874015748,
          "duration": 0.18437499999998863,
          "ticks": 57360,
          "durationTicks": 59
        },
        {
          "time": 183.9375,
          "midi": 33,
          "name": "A1",
          "velocity": 1,
          "duration": 0.18437499999998863,
          "ticks": 57420,
          "durationTicks": 59
        },
        {
          "time": 184.125,
          "midi": 33,
          "name": "A1",
          "velocity": 1,
          "duration": 0.18437499999998863,
          "ticks": 57480,
          "durationTicks": 59
        },
        {
          "time": 184.3125,
          "midi": 38,
          "name": "D2",
          "velocity": 0.937007874015748,
          "duration": 0.18437499999998863,
          "ticks": 57540,
          "durationTicks": 59
        },
        {
          "time": 184.5,
          "midi": 38,
          "name": "D2",
          "velocity": 0.9763779527559056,
          "duration": 0.18437499999998863,
          "ticks": 57600,
          "durationTicks": 59
        },
        {
          "time": 184.6875,
          "midi": 29,
          "name": "F1",
          "velocity": 0.905511811023622,
          "duration": 0.18437499999998863,
          "ticks": 57660,
          "durationTicks": 59
        },
        {
          "time": 184.875,
          "midi": 29,
          "name": "F1",
          "velocity": 0.9763779527559056,
          "duration": 0.18437499999998863,
          "ticks": 57720,
          "durationTicks": 59
        },
        {
          "time": 185.0625,
          "midi": 33,
          "name": "A1",
          "velocity": 1,
          "duration": 0.18437499999998863,
          "ticks": 57780,
          "durationTicks": 59
        },
        {
          "time": 185.25,
          "midi": 33,
          "name": "A1",
          "velocity": 1,
          "duration": 0.18437499999998863,
          "ticks": 57840,
          "durationTicks": 59
        },
        {
          "time": 185.4375,
          "midi": 26,
          "name": "D1",
          "velocity": 0.9763779527559056,
          "duration": 0.18437499999998863,
          "ticks": 57900,
          "durationTicks": 59
        },
        {
          "time": 185.625,
          "midi": 26,
          "name": "D1",
          "velocity": 0.9763779527559056,
          "duration": 0.18437499999998863,
          "ticks": 57960,
          "durationTicks": 59
        },
        {
          "time": 185.8125,
          "midi": 38,
          "name": "D2",
          "velocity": 0.8503937007874016,
          "duration": 0.18437499999998863,
          "ticks": 58020,
          "durationTicks": 59
        },
        {
          "time": 186,
          "midi": 38,
          "name": "D2",
          "velocity": 0.937007874015748,
          "duration": 0.18437499999998863,
          "ticks": 58080,
          "durationTicks": 59
        },
        {
          "time": 186.1875,
          "midi": 36,
          "name": "C2",
          "velocity": 0.9763779527559056,
          "duration": 0.18437499999998863,
          "ticks": 58140,
          "durationTicks": 59
        },
        {
          "time": 186.375,
          "midi": 36,
          "name": "C2",
          "velocity": 0.9763779527559056,
          "duration": 0.18437499999998863,
          "ticks": 58200,
          "durationTicks": 59
        },
        {
          "time": 186.5625,
          "midi": 35,
          "name": "B1",
          "velocity": 1,
          "duration": 0.18437499999998863,
          "ticks": 58260,
          "durationTicks": 59
        },
        {
          "time": 186.75,
          "midi": 35,
          "name": "B1",
          "velocity": 1,
          "duration": 0.18437499999998863,
          "ticks": 58320,
          "durationTicks": 59
        },
        {
          "time": 186.9375,
          "midi": 34,
          "name": "A#1",
          "velocity": 1,
          "duration": 0.18437499999998863,
          "ticks": 58380,
          "durationTicks": 59
        },
        {
          "time": 187.125,
          "midi": 34,
          "name": "A#1",
          "velocity": 1,
          "duration": 0.18437499999998863,
          "ticks": 58440,
          "durationTicks": 59
        },
        {
          "time": 187.3125,
          "midi": 34,
          "name": "A#1",
          "velocity": 1,
          "duration": 0.18437499999998863,
          "ticks": 58500,
          "durationTicks": 59
        },
        {
          "time": 187.5,
          "midi": 34,
          "name": "A#1",
          "velocity": 1,
          "duration": 0.18437499999998863,
          "ticks": 58560,
          "durationTicks": 59
        },
        {
          "time": 187.6875,
          "midi": 34,
          "name": "A#1",
          "velocity": 1,
          "duration": 0.18437499999998863,
          "ticks": 58620,
          "durationTicks": 59
        },
        {
          "time": 187.875,
          "midi": 34,
          "name": "A#1",
          "velocity": 1,
          "duration": 0.18437499999998863,
          "ticks": 58680,
          "durationTicks": 59
        },
        {
          "time": 188.25,
          "midi": 33,
          "name": "A1",
          "velocity": 1,
          "duration": 0.18437499999998863,
          "ticks": 58800,
          "durationTicks": 59
        },
        {
          "time": 206.571411,
          "midi": 31,
          "name": "G1",
          "velocity": 1,
          "duration": 0.2107140749999985,
          "ticks": 63960,
          "durationTicks": 59
        },
        {
          "time": 206.999982,
          "midi": 30,
          "name": "F#1",
          "velocity": 1,
          "duration": 0.2107140749999985,
          "ticks": 64080,
          "durationTicks": 59
        },
        {
          "time": 207.2142675,
          "midi": 30,
          "name": "F#1",
          "velocity": 1,
          "duration": 0.2107140749999985,
          "ticks": 64140,
          "durationTicks": 59
        },
        {
          "time": 207.428553,
          "midi": 42,
          "name": "F#2",
          "velocity": 1,
          "duration": 0.4249995750000153,
          "ticks": 64200,
          "durationTicks": 119
        },
        {
          "time": 212.892834,
          "midi": 31,
          "name": "G1",
          "velocity": 0.937007874015748,
          "duration": 0.3687500000000057,
          "ticks": 65640,
          "durationTicks": 59
        },
        {
          "time": 213.642834,
          "midi": 43,
          "name": "G2",
          "velocity": 1,
          "duration": 0.3687500000000057,
          "ticks": 65760,
          "durationTicks": 59
        },
        {
          "time": 218.142834,
          "midi": 33,
          "name": "A1",
          "velocity": 1,
          "duration": 0.3687500000000057,
          "ticks": 66480,
          "durationTicks": 59
        },
        {
          "time": 332.517834,
          "midi": 33,
          "name": "A1",
          "velocity": 0.937007874015748,
          "duration": 0.18437499999998863,
          "ticks": 102960,
          "durationTicks": 59
        },
        {
          "time": 332.705334,
          "midi": 45,
          "name": "A2",
          "velocity": 1,
          "duration": 0.18437499999998863,
          "ticks": 103020,
          "durationTicks": 59
        },
        {
          "time": 332.892834,
          "midi": 33,
          "name": "A1",
          "velocity": 1,
          "duration": 0.18437499999998863,
          "ticks": 103080,
          "durationTicks": 59
        },
        {
          "time": 333.080334,
          "midi": 45,
          "name": "A2",
          "velocity": 1,
          "duration": 0.18437499999998863,
          "ticks": 103140,
          "durationTicks": 59
        },
        {
          "time": 333.267834,
          "midi": 33,
          "name": "A1",
          "velocity": 0.905511811023622,
          "duration": 0.18437499999998863,
          "ticks": 103200,
          "durationTicks": 59
        },
        {
          "time": 333.455334,
          "midi": 45,
          "name": "A2",
          "velocity": 1,
          "duration": 0.18437499999998863,
          "ticks": 103260,
          "durationTicks": 59
        },
        {
          "time": 333.642834,
          "midi": 33,
          "name": "A1",
          "velocity": 0.9763779527559056,
          "duration": 0.18437499999998863,
          "ticks": 103320,
          "durationTicks": 59
        },
        {
          "time": 333.830334,
          "midi": 45,
          "name": "A2",
          "velocity": 1,
          "duration": 0.18437499999998863,
          "ticks": 103380,
          "durationTicks": 59
        },
        {
          "time": 334.017834,
          "midi": 33,
          "name": "A1",
          "velocity": 0.9763779527559056,
          "duration": 0.18437499999998863,
          "ticks": 103440,
          "durationTicks": 59
        },
        {
          "time": 334.205334,
          "midi": 45,
          "name": "A2",
          "velocity": 1,
          "duration": 0.18437499999998863,
          "ticks": 103500,
          "durationTicks": 59
        },
        {
          "time": 334.392834,
          "midi": 33,
          "name": "A1",
          "velocity": 0.937007874015748,
          "duration": 0.18437499999998863,
          "ticks": 103560,
          "durationTicks": 59
        },
        {
          "time": 334.580334,
          "midi": 45,
          "name": "A2",
          "velocity": 1,
          "duration": 0.18437499999998863,
          "ticks": 103620,
          "durationTicks": 59
        },
        {
          "time": 334.767834,
          "midi": 33,
          "name": "A1",
          "velocity": 0.9763779527559056,
          "duration": 0.18437499999998863,
          "ticks": 103680,
          "durationTicks": 59
        },
        {
          "time": 334.955334,
          "midi": 45,
          "name": "A2",
          "velocity": 1,
          "duration": 0.18437499999998863,
          "ticks": 103740,
          "durationTicks": 59
        },
        {
          "time": 335.142834,
          "midi": 33,
          "name": "A1",
          "velocity": 0.905511811023622,
          "duration": 0.18437499999998863,
          "ticks": 103800,
          "durationTicks": 59
        },
        {
          "time": 335.330334,
          "midi": 45,
          "name": "A2",
          "velocity": 1,
          "duration": 0.18437499999998863,
          "ticks": 103860,
          "durationTicks": 59
        },
        {
          "time": 335.517834,
          "midi": 33,
          "name": "A1",
          "velocity": 0.937007874015748,
          "duration": 0.18437499999998863,
          "ticks": 103920,
          "durationTicks": 59
        },
        {
          "time": 335.705334,
          "midi": 45,
          "name": "A2",
          "velocity": 1,
          "duration": 0.18437499999998863,
          "ticks": 103980,
          "durationTicks": 59
        },
        {
          "time": 335.892834,
          "midi": 33,
          "name": "A1",
          "velocity": 1,
          "duration": 0.18437499999998863,
          "ticks": 104040,
          "durationTicks": 59
        },
        {
          "time": 336.080334,
          "midi": 45,
          "name": "A2",
          "velocity": 1,
          "duration": 0.18437499999998863,
          "ticks": 104100,
          "durationTicks": 59
        },
        {
          "time": 336.267834,
          "midi": 33,
          "name": "A1",
          "velocity": 0.9763779527559056,
          "duration": 0.18437499999998863,
          "ticks": 104160,
          "durationTicks": 59
        },
        {
          "time": 336.455334,
          "midi": 45,
          "name": "A2",
          "velocity": 1,
          "duration": 0.18437499999998863,
          "ticks": 104220,
          "durationTicks": 59
        },
        {
          "time": 336.642834,
          "midi": 33,
          "name": "A1",
          "velocity": 0.937007874015748,
          "duration": 0.18437499999998863,
          "ticks": 104280,
          "durationTicks": 59
        },
        {
          "time": 336.830334,
          "midi": 45,
          "name": "A2",
          "velocity": 1,
          "duration": 0.18437499999998863,
          "ticks": 104340,
          "durationTicks": 59
        },
        {
          "time": 337.017834,
          "midi": 33,
          "name": "A1",
          "velocity": 0.9763779527559056,
          "duration": 0.18437499999998863,
          "ticks": 104400,
          "durationTicks": 59
        },
        {
          "time": 337.205334,
          "midi": 45,
          "name": "A2",
          "velocity": 1,
          "duration": 0.18437499999998863,
          "ticks": 104460,
          "durationTicks": 59
        },
        {
          "time": 337.392834,
          "midi": 33,
          "name": "A1",
          "velocity": 0.9763779527559056,
          "duration": 0.18437499999998863,
          "ticks": 104520,
          "durationTicks": 59
        },
        {
          "time": 337.580334,
          "midi": 45,
          "name": "A2",
          "velocity": 1,
          "duration": 0.18437499999998863,
          "ticks": 104580,
          "durationTicks": 59
        },
        {
          "time": 337.767834,
          "midi": 33,
          "name": "A1",
          "velocity": 0.937007874015748,
          "duration": 0.18437499999998863,
          "ticks": 104640,
          "durationTicks": 59
        },
        {
          "time": 337.955334,
          "midi": 45,
          "name": "A2",
          "velocity": 1,
          "duration": 0.18437499999998863,
          "ticks": 104700,
          "durationTicks": 59
        },
        {
          "time": 338.142834,
          "midi": 33,
          "name": "A1",
          "velocity": 0.937007874015748,
          "duration": 0.18437499999998863,
          "ticks": 104760,
          "durationTicks": 59
        },
        {
          "time": 338.330334,
          "midi": 45,
          "name": "A2",
          "velocity": 1,
          "duration": 0.18437499999998863,
          "ticks": 104820,
          "durationTicks": 59
        },
        {
          "time": 338.517834,
          "midi": 26,
          "name": "D1",
          "velocity": 0.937007874015748,
          "duration": 0.18437499999998863,
          "ticks": 104880,
          "durationTicks": 59
        },
        {
          "time": 338.705334,
          "midi": 33,
          "name": "A1",
          "velocity": 1,
          "duration": 0.18437499999998863,
          "ticks": 104940,
          "durationTicks": 59
        },
        {
          "time": 338.892834,
          "midi": 26,
          "name": "D1",
          "velocity": 1,
          "duration": 0.18437499999998863,
          "ticks": 105000,
          "durationTicks": 59
        },
        {
          "time": 339.080334,
          "midi": 33,
          "name": "A1",
          "velocity": 1,
          "duration": 0.18437499999998863,
          "ticks": 105060,
          "durationTicks": 59
        },
        {
          "time": 339.267834,
          "midi": 26,
          "name": "D1",
          "velocity": 1,
          "duration": 0.18437499999998863,
          "ticks": 105120,
          "durationTicks": 59
        },
        {
          "time": 339.455334,
          "midi": 33,
          "name": "A1",
          "velocity": 1,
          "duration": 0.18437499999998863,
          "ticks": 105180,
          "durationTicks": 59
        },
        {
          "time": 339.642834,
          "midi": 26,
          "name": "D1",
          "velocity": 1,
          "duration": 0.18437499999998863,
          "ticks": 105240,
          "durationTicks": 59
        },
        {
          "time": 339.830334,
          "midi": 33,
          "name": "A1",
          "velocity": 1,
          "duration": 0.18437499999998863,
          "ticks": 105300,
          "durationTicks": 59
        },
        {
          "time": 340.017834,
          "midi": 26,
          "name": "D1",
          "velocity": 1,
          "duration": 0.18437499999998863,
          "ticks": 105360,
          "durationTicks": 59
        },
        {
          "time": 340.205334,
          "midi": 33,
          "name": "A1",
          "velocity": 1,
          "duration": 0.18437499999998863,
          "ticks": 105420,
          "durationTicks": 59
        },
        {
          "time": 340.392834,
          "midi": 26,
          "name": "D1",
          "velocity": 1,
          "duration": 0.18437499999998863,
          "ticks": 105480,
          "durationTicks": 59
        },
        {
          "time": 340.580334,
          "midi": 33,
          "name": "A1",
          "velocity": 1,
          "duration": 0.18437499999998863,
          "ticks": 105540,
          "durationTicks": 59
        },
        {
          "time": 340.767834,
          "midi": 26,
          "name": "D1",
          "velocity": 1,
          "duration": 0.18437499999998863,
          "ticks": 105600,
          "durationTicks": 59
        },
        {
          "time": 340.955334,
          "midi": 33,
          "name": "A1",
          "velocity": 1,
          "duration": 0.18437499999998863,
          "ticks": 105660,
          "durationTicks": 59
        },
        {
          "time": 341.142834,
          "midi": 26,
          "name": "D1",
          "velocity": 1,
          "duration": 0.18437499999998863,
          "ticks": 105720,
          "durationTicks": 59
        },
        {
          "time": 341.330334,
          "midi": 33,
          "name": "A1",
          "velocity": 1,
          "duration": 0.18437499999998863,
          "ticks": 105780,
          "durationTicks": 59
        },
        {
          "time": 341.517834,
          "midi": 26,
          "name": "D1",
          "velocity": 1,
          "duration": 0.18437499999998863,
          "ticks": 105840,
          "durationTicks": 59
        },
        {
          "time": 341.705334,
          "midi": 33,
          "name": "A1",
          "velocity": 1,
          "duration": 0.18437499999998863,
          "ticks": 105900,
          "durationTicks": 59
        },
        {
          "time": 341.892834,
          "midi": 26,
          "name": "D1",
          "velocity": 1,
          "duration": 0.18437499999998863,
          "ticks": 105960,
          "durationTicks": 59
        },
        {
          "time": 342.080334,
          "midi": 33,
          "name": "A1",
          "velocity": 1,
          "duration": 0.18437499999998863,
          "ticks": 106020,
          "durationTicks": 59
        },
        {
          "time": 342.267834,
          "midi": 26,
          "name": "D1",
          "velocity": 1,
          "duration": 0.18437499999998863,
          "ticks": 106080,
          "durationTicks": 59
        },
        {
          "time": 342.455334,
          "midi": 33,
          "name": "A1",
          "velocity": 1,
          "duration": 0.18437499999998863,
          "ticks": 106140,
          "durationTicks": 59
        },
        {
          "time": 342.642834,
          "midi": 50,
          "name": "D3",
          "velocity": 1,
          "duration": 0.37187499999998863,
          "ticks": 106200,
          "durationTicks": 119
        },
        {
          "time": 343.392834,
          "midi": 50,
          "name": "D3",
          "velocity": 1,
          "duration": 0.37187499999998863,
          "ticks": 106440,
          "durationTicks": 119
        },
        {
          "time": 343.955334,
          "midi": 50,
          "name": "D3",
          "velocity": 1,
          "duration": 0.18437499999998863,
          "ticks": 106620,
          "durationTicks": 59
        },
        {
          "time": 344.142834,
          "midi": 50,
          "name": "D3",
          "velocity": 1,
          "duration": 0.37187499999998863,
          "ticks": 106680,
          "durationTicks": 119
        },
        {
          "time": 344.892834,
          "midi": 50,
          "name": "D3",
          "velocity": 1,
          "duration": 0.37187499999998863,
          "ticks": 106920,
          "durationTicks": 119
        },
        {
          "time": 345.642834,
          "midi": 50,
          "name": "D3",
          "velocity": 1,
          "duration": 0.37187499999998863,
          "ticks": 107160,
          "durationTicks": 119
        },
        {
          "time": 346.392834,
          "midi": 43,
          "name": "G2",
          "velocity": 1,
          "duration": 0.37187499999998863,
          "ticks": 107400,
          "durationTicks": 119
        },
        {
          "time": 347.142834,
          "midi": 43,
          "name": "G2",
          "velocity": 1,
          "duration": 0.37187499999998863,
          "ticks": 107640,
          "durationTicks": 119
        },
        {
          "time": 347.892834,
          "midi": 45,
          "name": "A2",
          "velocity": 1,
          "duration": 0.37187499999998863,
          "ticks": 107880,
          "durationTicks": 119
        },
        {
          "time": 348.642834,
          "midi": 45,
          "name": "A2",
          "velocity": 1,
          "duration": 0.37187499999998863,
          "ticks": 108120,
          "durationTicks": 119
        },
        {
          "time": 349.392834,
          "midi": 50,
          "name": "D3",
          "velocity": 1,
          "duration": 1.4968749999999886,
          "ticks": 108360,
          "durationTicks": 479
        },
        {
          "time": 350.892834,
          "midi": 40,
          "name": "E2",
          "velocity": 1,
          "duration": 0.37187499999998863,
          "ticks": 108840,
          "durationTicks": 119
        },
        {
          "time": 351.642834,
          "midi": 40,
          "name": "E2",
          "velocity": 1,
          "duration": 0.37187499999998863,
          "ticks": 109080,
          "durationTicks": 119
        },
        {
          "time": 352.392834,
          "midi": 45,
          "name": "A2",
          "velocity": 1,
          "duration": 0.09062499999998863,
          "ticks": 109320,
          "durationTicks": 29
        },
        {
          "time": 352.486584,
          "midi": 47,
          "name": "B2",
          "velocity": 1,
          "duration": 0.09062499999998863,
          "ticks": 109350,
          "durationTicks": 29
        },
        {
          "time": 352.580334,
          "midi": 45,
          "name": "A2",
          "velocity": 1,
          "duration": 0.09062499999998863,
          "ticks": 109380,
          "durationTicks": 29
        },
        {
          "time": 352.674084,
          "midi": 44,
          "name": "G#2",
          "velocity": 1,
          "duration": 0.09062499999998863,
          "ticks": 109410,
          "durationTicks": 29
        },
        {
          "time": 352.767834,
          "midi": 42,
          "name": "F#2",
          "velocity": 1,
          "duration": 0.09062499999998863,
          "ticks": 109440,
          "durationTicks": 29
        },
        {
          "time": 352.861584,
          "midi": 44,
          "name": "G#2",
          "velocity": 1,
          "duration": 0.09062499999998863,
          "ticks": 109470,
          "durationTicks": 29
        },
        {
          "time": 352.955334,
          "midi": 42,
          "name": "F#2",
          "velocity": 1,
          "duration": 0.09062499999998863,
          "ticks": 109500,
          "durationTicks": 29
        },
        {
          "time": 353.049084,
          "midi": 40,
          "name": "E2",
          "velocity": 1,
          "duration": 0.09062499999998863,
          "ticks": 109530,
          "durationTicks": 29
        },
        {
          "time": 353.142834,
          "midi": 38,
          "name": "D2",
          "velocity": 0.937007874015748,
          "duration": 0.09062499999998863,
          "ticks": 109560,
          "durationTicks": 29
        },
        {
          "time": 353.236584,
          "midi": 40,
          "name": "E2",
          "velocity": 1,
          "duration": 0.09062499999998863,
          "ticks": 109590,
          "durationTicks": 29
        },
        {
          "time": 353.330334,
          "midi": 38,
          "name": "D2",
          "velocity": 1,
          "duration": 0.09062499999998863,
          "ticks": 109620,
          "durationTicks": 29
        },
        {
          "time": 353.424084,
          "midi": 37,
          "name": "C#2",
          "velocity": 1,
          "duration": 0.09062499999998863,
          "ticks": 109650,
          "durationTicks": 29
        },
        {
          "time": 353.517834,
          "midi": 35,
          "name": "B1",
          "velocity": 1,
          "duration": 0.09062499999998863,
          "ticks": 109680,
          "durationTicks": 29
        },
        {
          "time": 353.611584,
          "midi": 37,
          "name": "C#2",
          "velocity": 1,
          "duration": 0.09062499999998863,
          "ticks": 109710,
          "durationTicks": 29
        },
        {
          "time": 353.705334,
          "midi": 35,
          "name": "B1",
          "velocity": 1,
          "duration": 0.09062499999998863,
          "ticks": 109740,
          "durationTicks": 29
        },
        {
          "time": 353.799084,
          "midi": 33,
          "name": "A1",
          "velocity": 1,
          "duration": 0.09062499999998863,
          "ticks": 109770,
          "durationTicks": 29
        },
        {
          "time": 353.892834,
          "midi": 40,
          "name": "E2",
          "velocity": 1,
          "duration": 0.37187499999998863,
          "ticks": 109800,
          "durationTicks": 119
        },
        {
          "time": 354.642834,
          "midi": 40,
          "name": "E2",
          "velocity": 1,
          "duration": 0.37187499999998863,
          "ticks": 110040,
          "durationTicks": 119
        },
        {
          "time": 355.392834,
          "midi": 45,
          "name": "A2",
          "velocity": 1,
          "duration": 0.09062499999998863,
          "ticks": 110280,
          "durationTicks": 29
        },
        {
          "time": 355.486584,
          "midi": 47,
          "name": "B2",
          "velocity": 1,
          "duration": 0.09062499999998863,
          "ticks": 110310,
          "durationTicks": 29
        },
        {
          "time": 355.580334,
          "midi": 45,
          "name": "A2",
          "velocity": 1,
          "duration": 0.09062499999998863,
          "ticks": 110340,
          "durationTicks": 29
        },
        {
          "time": 355.674084,
          "midi": 44,
          "name": "G#2",
          "velocity": 1,
          "duration": 0.09062499999998863,
          "ticks": 110370,
          "durationTicks": 29
        },
        {
          "time": 355.767834,
          "midi": 42,
          "name": "F#2",
          "velocity": 1,
          "duration": 0.09062499999998863,
          "ticks": 110400,
          "durationTicks": 29
        },
        {
          "time": 355.861584,
          "midi": 44,
          "name": "G#2",
          "velocity": 1,
          "duration": 0.09062499999998863,
          "ticks": 110430,
          "durationTicks": 29
        },
        {
          "time": 355.955334,
          "midi": 42,
          "name": "F#2",
          "velocity": 1,
          "duration": 0.09062499999998863,
          "ticks": 110460,
          "durationTicks": 29
        },
        {
          "time": 356.049084,
          "midi": 40,
          "name": "E2",
          "velocity": 1,
          "duration": 0.09062499999998863,
          "ticks": 110490,
          "durationTicks": 29
        },
        {
          "time": 356.142834,
          "midi": 38,
          "name": "D2",
          "velocity": 1,
          "duration": 0.09062499999998863,
          "ticks": 110520,
          "durationTicks": 29
        },
        {
          "time": 356.236584,
          "midi": 40,
          "name": "E2",
          "velocity": 1,
          "duration": 0.09062499999998863,
          "ticks": 110550,
          "durationTicks": 29
        },
        {
          "time": 356.330334,
          "midi": 38,
          "name": "D2",
          "velocity": 1,
          "duration": 0.09062499999998863,
          "ticks": 110580,
          "durationTicks": 29
        },
        {
          "time": 356.424084,
          "midi": 37,
          "name": "C#2",
          "velocity": 1,
          "duration": 0.09062499999998863,
          "ticks": 110610,
          "durationTicks": 29
        },
        {
          "time": 356.517834,
          "midi": 35,
          "name": "B1",
          "velocity": 1,
          "duration": 0.09062499999998863,
          "ticks": 110640,
          "durationTicks": 29
        },
        {
          "time": 356.611584,
          "midi": 37,
          "name": "C#2",
          "velocity": 1,
          "duration": 0.09062499999998863,
          "ticks": 110670,
          "durationTicks": 29
        },
        {
          "time": 356.705334,
          "midi": 35,
          "name": "B1",
          "velocity": 1,
          "duration": 0.09062499999998863,
          "ticks": 110700,
          "durationTicks": 29
        },
        {
          "time": 356.799084,
          "midi": 33,
          "name": "A1",
          "velocity": 1,
          "duration": 0.09062499999998863,
          "ticks": 110730,
          "durationTicks": 29
        },
        {
          "time": 356.892834,
          "midi": 33,
          "name": "A1",
          "velocity": 1,
          "duration": 0.37187499999998863,
          "ticks": 110760,
          "durationTicks": 119
        },
        {
          "time": 357.642834,
          "midi": 45,
          "name": "A2",
          "velocity": 1,
          "duration": 0.37187499999998863,
          "ticks": 111000,
          "durationTicks": 119
        },
        {
          "time": 358.392834,
          "midi": 29,
          "name": "F1",
          "velocity": 1,
          "duration": 1.5386393583333415,
          "ticks": 111240,
          "durationTicks": 479
        }
      ],
      "controlChanges": {
        "7": [
          {
            "number": 7,
            "value": 0.7874015748031497,
            "time": 0,
            "ticks": 0
          }
        ],
        "10": [
          {
            "number": 10,
            "value": 0.5669291338582677,
            "time": 0,
            "ticks": 0
          }
        ]
      }
    },
    {
      "name": "French Horns",
      "channel": 0,
      "instrument": {
        "number": 60,
        "name": "french horn",
        "family": "brass"
      },
      "notes": [
        {
          "time": 109.5,
          "midi": 74,
          "name": "D5",
          "velocity": 0.6141732283464567,
          "duration": 0.7468750000000028,
          "ticks": 35040,
          "durationTicks": 239
        },
        {
          "time": 109.5,
          "midi": 78,
          "name": "F#5",
          "velocity": 0.937007874015748,
          "duration": 0.7468750000000028,
          "ticks": 35040,
          "durationTicks": 239
        },
        {
          "time": 110.25,
          "midi": 76,
          "name": "E5",
          "velocity": 0.8740157480314961,
          "duration": 0.37187500000000284,
          "ticks": 35280,
          "durationTicks": 119
        },
        {
          "time": 110.25,
          "midi": 79,
          "name": "G5",
          "velocity": 0.8740157480314961,
          "duration": 0.37187500000000284,
          "ticks": 35280,
          "durationTicks": 119
        },
        {
          "time": 110.625,
          "midi": 81,
          "name": "A5",
          "velocity": 0.8740157480314961,
          "duration": 0.37187500000000284,
          "ticks": 35400,
          "durationTicks": 119
        },
        {
          "time": 110.625,
          "midi": 78,
          "name": "F#5",
          "velocity": 0.8740157480314961,
          "duration": 0.37187500000000284,
          "ticks": 35400,
          "durationTicks": 119
        },
        {
          "time": 111,
          "midi": 78,
          "name": "F#5",
          "velocity": 0.8740157480314961,
          "duration": 0.37187500000000284,
          "ticks": 35520,
          "durationTicks": 119
        },
        {
          "time": 111,
          "midi": 81,
          "name": "A5",
          "velocity": 0.8740157480314961,
          "duration": 0.37187500000000284,
          "ticks": 35520,
          "durationTicks": 119
        },
        {
          "time": 111.375,
          "midi": 76,
          "name": "E5",
          "velocity": 0.889763779527559,
          "duration": 0.37187500000000284,
          "ticks": 35640,
          "durationTicks": 119
        },
        {
          "time": 111.375,
          "midi": 79,
          "name": "G5",
          "velocity": 0.889763779527559,
          "duration": 0.37187500000000284,
          "ticks": 35640,
          "durationTicks": 119
        },
        {
          "time": 111.75,
          "midi": 74,
          "name": "D5",
          "velocity": 0.889763779527559,
          "duration": 0.18437500000000284,
          "ticks": 35760,
          "durationTicks": 59
        },
        {
          "time": 111.75,
          "midi": 78,
          "name": "F#5",
          "velocity": 0.889763779527559,
          "duration": 0.18437500000000284,
          "ticks": 35760,
          "durationTicks": 59
        },
        {
          "time": 112.125,
          "midi": 69,
          "name": "A4",
          "velocity": 0.8976377952755905,
          "duration": 0.18437500000000284,
          "ticks": 35880,
          "durationTicks": 59
        },
        {
          "time": 112.125,
          "midi": 76,
          "name": "E5",
          "velocity": 0.8976377952755905,
          "duration": 0.18437500000000284,
          "ticks": 35880,
          "durationTicks": 59
        },
        {
          "time": 112.5,
          "midi": 74,
          "name": "D5",
          "velocity": 0.8976377952755905,
          "duration": 0.37187500000000284,
          "ticks": 36000,
          "durationTicks": 119
        },
        {
          "time": 112.5,
          "midi": 66,
          "name": "F#4",
          "velocity": 0.8976377952755905,
          "duration": 0.37187500000000284,
          "ticks": 36000,
          "durationTicks": 119
        },
        {
          "time": 112.875,
          "midi": 66,
          "name": "F#4",
          "velocity": 0.8976377952755905,
          "duration": 0.37187500000000284,
          "ticks": 36120,
          "durationTicks": 119
        },
        {
          "time": 112.875,
          "midi": 74,
          "name": "D5",
          "velocity": 0.8976377952755905,
          "duration": 0.37187500000000284,
          "ticks": 36120,
          "durationTicks": 119
        },
        {
          "time": 113.25,
          "midi": 69,
          "name": "A4",
          "velocity": 0.8976377952755905,
          "duration": 0.37187500000000284,
          "ticks": 36240,
          "durationTicks": 119
        },
        {
          "time": 113.25,
          "midi": 76,
          "name": "E5",
          "velocity": 0.8976377952755905,
          "duration": 0.37187500000000284,
          "ticks": 36240,
          "durationTicks": 119
        },
        {
          "time": 113.625,
          "midi": 78,
          "name": "F#5",
          "velocity": 0.8976377952755905,
          "duration": 0.37187500000000284,
          "ticks": 36360,
          "durationTicks": 119
        },
        {
          "time": 113.625,
          "midi": 74,
          "name": "D5",
          "velocity": 0.8976377952755905,
          "duration": 0.37187500000000284,
          "ticks": 36360,
          "durationTicks": 119
        },
        {
          "time": 114,
          "midi": 74,
          "name": "D5",
          "velocity": 0.8976377952755905,
          "duration": 0.5593750000000028,
          "ticks": 36480,
          "durationTicks": 179
        },
        {
          "time": 114,
          "midi": 78,
          "name": "F#5",
          "velocity": 0.8976377952755905,
          "duration": 0.5593750000000028,
          "ticks": 36480,
          "durationTicks": 179
        },
        {
          "time": 114.5625,
          "midi": 69,
          "name": "A4",
          "velocity": 0.8976377952755905,
          "duration": 0.18437500000000284,
          "ticks": 36660,
          "durationTicks": 59
        },
        {
          "time": 114.5625,
          "midi": 76,
          "name": "E5",
          "velocity": 0.8976377952755905,
          "duration": 0.18437500000000284,
          "ticks": 36660,
          "durationTicks": 59
        },
        {
          "time": 114.75,
          "midi": 76,
          "name": "E5",
          "velocity": 0.8976377952755905,
          "duration": 0.7468750000000028,
          "ticks": 36720,
          "durationTicks": 239
        },
        {
          "time": 114.75,
          "midi": 69,
          "name": "A4",
          "velocity": 0.8976377952755905,
          "duration": 0.7468750000000028,
          "ticks": 36720,
          "durationTicks": 239
        },
        {
          "time": 115.5,
          "midi": 74,
          "name": "D5",
          "velocity": 0.8976377952755905,
          "duration": 0.7468750000000028,
          "ticks": 36960,
          "durationTicks": 239
        },
        {
          "time": 115.5,
          "midi": 78,
          "name": "F#5",
          "velocity": 0.8976377952755905,
          "duration": 0.7468750000000028,
          "ticks": 36960,
          "durationTicks": 239
        },
        {
          "time": 116.25,
          "midi": 79,
          "name": "G5",
          "velocity": 0.905511811023622,
          "duration": 0.37187500000000284,
          "ticks": 37200,
          "durationTicks": 119
        },
        {
          "time": 116.25,
          "midi": 76,
          "name": "E5",
          "velocity": 0.905511811023622,
          "duration": 0.37187500000000284,
          "ticks": 37200,
          "durationTicks": 119
        },
        {
          "time": 116.625,
          "midi": 78,
          "name": "F#5",
          "velocity": 0.905511811023622,
          "duration": 0.37187500000000284,
          "ticks": 37320,
          "durationTicks": 119
        },
        {
          "time": 116.625,
          "midi": 81,
          "name": "A5",
          "velocity": 0.905511811023622,
          "duration": 0.37187500000000284,
          "ticks": 37320,
          "durationTicks": 119
        },
        {
          "time": 117,
          "midi": 78,
          "name": "F#5",
          "velocity": 0.905511811023622,
          "duration": 0.37187500000000284,
          "ticks": 37440,
          "durationTicks": 119
        },
        {
          "time": 117,
          "midi": 81,
          "name": "A5",
          "velocity": 0.905511811023622,
          "duration": 0.37187500000000284,
          "ticks": 37440,
          "durationTicks": 119
        },
        {
          "time": 117.375,
          "midi": 76,
          "name": "E5",
          "velocity": 0.905511811023622,
          "duration": 0.37187500000000284,
          "ticks": 37560,
          "durationTicks": 119
        },
        {
          "time": 117.375,
          "midi": 79,
          "name": "G5",
          "velocity": 0.905511811023622,
          "duration": 0.37187500000000284,
          "ticks": 37560,
          "durationTicks": 119
        },
        {
          "time": 117.75,
          "midi": 74,
          "name": "D5",
          "velocity": 0.905511811023622,
          "duration": 0.18437500000000284,
          "ticks": 37680,
          "durationTicks": 59
        },
        {
          "time": 117.75,
          "midi": 78,
          "name": "F#5",
          "velocity": 0.905511811023622,
          "duration": 0.18437500000000284,
          "ticks": 37680,
          "durationTicks": 59
        },
        {
          "time": 118.125,
          "midi": 69,
          "name": "A4",
          "velocity": 0.905511811023622,
          "duration": 0.18437500000000284,
          "ticks": 37800,
          "durationTicks": 59
        },
        {
          "time": 118.125,
          "midi": 76,
          "name": "E5",
          "velocity": 0.905511811023622,
          "duration": 0.18437500000000284,
          "ticks": 37800,
          "durationTicks": 59
        },
        {
          "time": 118.5,
          "midi": 66,
          "name": "F#4",
          "velocity": 0.905511811023622,
          "duration": 0.18437500000000284,
          "ticks": 37920,
          "durationTicks": 59
        },
        {
          "time": 118.5,
          "midi": 74,
          "name": "D5",
          "velocity": 0.905511811023622,
          "duration": 0.18437500000000284,
          "ticks": 37920,
          "durationTicks": 59
        },
        {
          "time": 118.875,
          "midi": 66,
          "name": "F#4",
          "velocity": 0.905511811023622,
          "duration": 0.18437500000000284,
          "ticks": 38040,
          "durationTicks": 59
        },
        {
          "time": 118.875,
          "midi": 74,
          "name": "D5",
          "velocity": 0.905511811023622,
          "duration": 0.18437500000000284,
          "ticks": 38040,
          "durationTicks": 59
        },
        {
          "time": 119.25,
          "midi": 69,
          "name": "A4",
          "velocity": 0.905511811023622,
          "duration": 0.18437500000000284,
          "ticks": 38160,
          "durationTicks": 59
        },
        {
          "time": 119.25,
          "midi": 76,
          "name": "E5",
          "velocity": 0.905511811023622,
          "duration": 0.18437500000000284,
          "ticks": 38160,
          "durationTicks": 59
        },
        {
          "time": 119.625,
          "midi": 74,
          "name": "D5",
          "velocity": 0.905511811023622,
          "duration": 0.18437500000000284,
          "ticks": 38280,
          "durationTicks": 59
        },
        {
          "time": 119.625,
          "midi": 78,
          "name": "F#5",
          "velocity": 0.905511811023622,
          "duration": 0.18437500000000284,
          "ticks": 38280,
          "durationTicks": 59
        },
        {
          "time": 120,
          "midi": 76,
          "name": "E5",
          "velocity": 0.8976377952755905,
          "duration": 0.5593750000000028,
          "ticks": 38400,
          "durationTicks": 179
        },
        {
          "time": 120,
          "midi": 69,
          "name": "A4",
          "velocity": 0.8976377952755905,
          "duration": 0.5593750000000028,
          "ticks": 38400,
          "durationTicks": 179
        },
        {
          "time": 120.5625,
          "midi": 74,
          "name": "D5",
          "velocity": 0.889763779527559,
          "duration": 0.18437500000000284,
          "ticks": 38580,
          "durationTicks": 59
        },
        {
          "time": 120.5625,
          "midi": 66,
          "name": "F#4",
          "velocity": 0.889763779527559,
          "duration": 0.18437500000000284,
          "ticks": 38580,
          "durationTicks": 59
        },
        {
          "time": 120.75,
          "midi": 66,
          "name": "F#4",
          "velocity": 0.889763779527559,
          "duration": 0.7468750000000028,
          "ticks": 38640,
          "durationTicks": 239
        },
        {
          "time": 120.75,
          "midi": 74,
          "name": "D5",
          "velocity": 0.889763779527559,
          "duration": 0.7468750000000028,
          "ticks": 38640,
          "durationTicks": 239
        },
        {
          "time": 121.5,
          "midi": 69,
          "name": "A4",
          "velocity": 0.8818897637795275,
          "duration": 0.7468750000000028,
          "ticks": 38880,
          "durationTicks": 239
        },
        {
          "time": 121.5,
          "midi": 76,
          "name": "E5",
          "velocity": 0.8818897637795275,
          "duration": 0.7468750000000028,
          "ticks": 38880,
          "durationTicks": 239
        },
        {
          "time": 122.25,
          "midi": 78,
          "name": "F#5",
          "velocity": 0.8818897637795275,
          "duration": 0.37187500000000284,
          "ticks": 39120,
          "durationTicks": 119
        },
        {
          "time": 122.25,
          "midi": 74,
          "name": "D5",
          "velocity": 0.8818897637795275,
          "duration": 0.37187500000000284,
          "ticks": 39120,
          "durationTicks": 119
        },
        {
          "time": 122.625,
          "midi": 66,
          "name": "F#4",
          "velocity": 0.8818897637795275,
          "duration": 0.37187500000000284,
          "ticks": 39240,
          "durationTicks": 119
        },
        {
          "time": 122.625,
          "midi": 74,
          "name": "D5",
          "velocity": 0.8818897637795275,
          "duration": 0.37187500000000284,
          "ticks": 39240,
          "durationTicks": 119
        },
        {
          "time": 123,
          "midi": 69,
          "name": "A4",
          "velocity": 0.8818897637795275,
          "duration": 0.37187500000000284,
          "ticks": 39360,
          "durationTicks": 119
        },
        {
          "time": 123,
          "midi": 76,
          "name": "E5",
          "velocity": 0.8818897637795275,
          "duration": 0.37187500000000284,
          "ticks": 39360,
          "durationTicks": 119
        },
        {
          "time": 123.375,
          "midi": 74,
          "name": "D5",
          "velocity": 0.8818897637795275,
          "duration": 0.18437500000000284,
          "ticks": 39480,
          "durationTicks": 59
        },
        {
          "time": 123.375,
          "midi": 78,
          "name": "F#5",
          "velocity": 0.8818897637795275,
          "duration": 0.18437500000000284,
          "ticks": 39480,
          "durationTicks": 59
        },
        {
          "time": 123.5625,
          "midi": 76,
          "name": "E5",
          "velocity": 0.8818897637795275,
          "duration": 0.18437500000000284,
          "ticks": 39540,
          "durationTicks": 59
        },
        {
          "time": 123.5625,
          "midi": 79,
          "name": "G5",
          "velocity": 0.8818897637795275,
          "duration": 0.18437500000000284,
          "ticks": 39540,
          "durationTicks": 59
        },
        {
          "time": 123.75,
          "midi": 74,
          "name": "D5",
          "velocity": 0.8818897637795275,
          "duration": 0.37187500000000284,
          "ticks": 39600,
          "durationTicks": 119
        },
        {
          "time": 123.75,
          "midi": 78,
          "name": "F#5",
          "velocity": 0.8818897637795275,
          "duration": 0.37187500000000284,
          "ticks": 39600,
          "durationTicks": 119
        },
        {
          "time": 124.125,
          "midi": 66,
          "name": "F#4",
          "velocity": 0.8818897637795275,
          "duration": 0.37187500000000284,
          "ticks": 39720,
          "durationTicks": 119
        },
        {
          "time": 124.125,
          "midi": 74,
          "name": "D5",
          "velocity": 0.8818897637795275,
          "duration": 0.37187500000000284,
          "ticks": 39720,
          "durationTicks": 119
        },
        {
          "time": 124.5,
          "midi": 69,
          "name": "A4",
          "velocity": 0.889763779527559,
          "duration": 0.37187500000000284,
          "ticks": 39840,
          "durationTicks": 119
        },
        {
          "time": 124.5,
          "midi": 76,
          "name": "E5",
          "velocity": 0.889763779527559,
          "duration": 0.37187500000000284,
          "ticks": 39840,
          "durationTicks": 119
        },
        {
          "time": 124.875,
          "midi": 78,
          "name": "F#5",
          "velocity": 0.8976377952755905,
          "duration": 0.18437500000000284,
          "ticks": 39960,
          "durationTicks": 59
        },
        {
          "time": 124.875,
          "midi": 74,
          "name": "D5",
          "velocity": 0.8976377952755905,
          "duration": 0.18437500000000284,
          "ticks": 39960,
          "durationTicks": 59
        },
        {
          "time": 125.0625,
          "midi": 76,
          "name": "E5",
          "velocity": 0.8976377952755905,
          "duration": 0.18437500000000284,
          "ticks": 40020,
          "durationTicks": 59
        },
        {
          "time": 125.0625,
          "midi": 79,
          "name": "G5",
          "velocity": 0.8976377952755905,
          "duration": 0.18437500000000284,
          "ticks": 40020,
          "durationTicks": 59
        },
        {
          "time": 125.25,
          "midi": 78,
          "name": "F#5",
          "velocity": 0.905511811023622,
          "duration": 0.37187500000000284,
          "ticks": 40080,
          "durationTicks": 119
        },
        {
          "time": 125.25,
          "midi": 66,
          "name": "F#4",
          "velocity": 0.905511811023622,
          "duration": 0.37187500000000284,
          "ticks": 40080,
          "durationTicks": 119
        },
        {
          "time": 125.625,
          "midi": 66,
          "name": "F#4",
          "velocity": 0.9133858267716536,
          "duration": 0.37187500000000284,
          "ticks": 40200,
          "durationTicks": 119
        },
        {
          "time": 125.625,
          "midi": 66,
          "name": "F#4",
          "velocity": 0.9133858267716536,
          "duration": 0.37187500000000284,
          "ticks": 40200,
          "durationTicks": 119
        },
        {
          "time": 126,
          "midi": 62,
          "name": "D4",
          "velocity": 0.9212598425196851,
          "duration": 0.18437500000000284,
          "ticks": 40320,
          "durationTicks": 59
        },
        {
          "time": 126,
          "midi": 74,
          "name": "D5",
          "velocity": 0.9212598425196851,
          "duration": 0.18437500000000284,
          "ticks": 40320,
          "durationTicks": 59
        },
        {
          "time": 126.375,
          "midi": 76,
          "name": "E5",
          "velocity": 0.9291338582677166,
          "duration": 0.18437500000000284,
          "ticks": 40440,
          "durationTicks": 59
        },
        {
          "time": 126.375,
          "midi": 76,
          "name": "E5",
          "velocity": 0.9291338582677166,
          "duration": 0.18437500000000284,
          "ticks": 40440,
          "durationTicks": 59
        },
        {
          "time": 126.75,
          "midi": 69,
          "name": "A4",
          "velocity": 0.9448818897637795,
          "duration": 0.18437500000000284,
          "ticks": 40560,
          "durationTicks": 59
        },
        {
          "time": 126.75,
          "midi": 69,
          "name": "A4",
          "velocity": 0.9448818897637795,
          "duration": 0.18437500000000284,
          "ticks": 40560,
          "durationTicks": 59
        },
        {
          "time": 127.125,
          "midi": 74,
          "name": "D5",
          "velocity": 0.9448818897637795,
          "duration": 0.7468750000000028,
          "ticks": 40680,
          "durationTicks": 239
        },
        {
          "time": 127.125,
          "midi": 78,
          "name": "F#5",
          "velocity": 0.9448818897637795,
          "duration": 0.7468750000000028,
          "ticks": 40680,
          "durationTicks": 239
        },
        {
          "time": 127.875,
          "midi": 74,
          "name": "D5",
          "velocity": 0.952755905511811,
          "duration": 0.18437499999998863,
          "ticks": 40920,
          "durationTicks": 59
        },
        {
          "time": 127.875,
          "midi": 78,
          "name": "F#5",
          "velocity": 0.952755905511811,
          "duration": 0.18437499999998863,
          "ticks": 40920,
          "durationTicks": 59
        },
        {
          "time": 128.25,
          "midi": 76,
          "name": "E5",
          "velocity": 0.9448818897637795,
          "duration": 0.18437499999998863,
          "ticks": 41040,
          "durationTicks": 59
        },
        {
          "time": 128.25,
          "midi": 79,
          "name": "G5",
          "velocity": 0.9448818897637795,
          "duration": 0.18437499999998863,
          "ticks": 41040,
          "durationTicks": 59
        },
        {
          "time": 128.625,
          "midi": 78,
          "name": "F#5",
          "velocity": 0.9448818897637795,
          "duration": 0.18437499999998863,
          "ticks": 41160,
          "durationTicks": 59
        },
        {
          "time": 128.625,
          "midi": 81,
          "name": "A5",
          "velocity": 0.9448818897637795,
          "duration": 0.18437499999998863,
          "ticks": 41160,
          "durationTicks": 59
        },
        {
          "time": 129,
          "midi": 81,
          "name": "A5",
          "velocity": 1,
          "duration": 0.37187499999998863,
          "ticks": 41280,
          "durationTicks": 119
        },
        {
          "time": 129,
          "midi": 78,
          "name": "F#5",
          "velocity": 1,
          "duration": 0.37187499999998863,
          "ticks": 41280,
          "durationTicks": 119
        },
        {
          "time": 129.375,
          "midi": 76,
          "name": "E5",
          "velocity": 0.9763779527559056,
          "duration": 0.37187499999998863,
          "ticks": 41400,
          "durationTicks": 119
        },
        {
          "time": 129.375,
          "midi": 79,
          "name": "G5",
          "velocity": 1,
          "duration": 0.37187499999998863,
          "ticks": 41400,
          "durationTicks": 119
        },
        {
          "time": 129.75,
          "midi": 74,
          "name": "D5",
          "velocity": 1,
          "duration": 0.18437499999998863,
          "ticks": 41520,
          "durationTicks": 59
        },
        {
          "time": 129.75,
          "midi": 78,
          "name": "F#5",
          "velocity": 1,
          "duration": 0.18437499999998863,
          "ticks": 41520,
          "durationTicks": 59
        },
        {
          "time": 130.125,
          "midi": 69,
          "name": "A4",
          "velocity": 1,
          "duration": 0.18437499999998863,
          "ticks": 41640,
          "durationTicks": 59
        },
        {
          "time": 130.125,
          "midi": 76,
          "name": "E5",
          "velocity": 1,
          "duration": 0.18437499999998863,
          "ticks": 41640,
          "durationTicks": 59
        },
        {
          "time": 130.5,
          "midi": 66,
          "name": "F#4",
          "velocity": 0.6535433070866141,
          "duration": 0.18437499999998863,
          "ticks": 41760,
          "durationTicks": 59
        },
        {
          "time": 130.5,
          "midi": 74,
          "name": "D5",
          "velocity": 0.7795275590551181,
          "duration": 0.18437499999998863,
          "ticks": 41760,
          "durationTicks": 59
        },
        {
          "time": 130.875,
          "midi": 66,
          "name": "F#4",
          "velocity": 0.937007874015748,
          "duration": 0.18437499999998863,
          "ticks": 41880,
          "durationTicks": 59
        },
        {
          "time": 130.875,
          "midi": 74,
          "name": "D5",
          "velocity": 1,
          "duration": 0.18437499999998863,
          "ticks": 41880,
          "durationTicks": 59
        },
        {
          "time": 131.25,
          "midi": 69,
          "name": "A4",
          "velocity": 0.937007874015748,
          "duration": 0.18437499999998863,
          "ticks": 42000,
          "durationTicks": 59
        },
        {
          "time": 131.25,
          "midi": 76,
          "name": "E5",
          "velocity": 1,
          "duration": 0.18437499999998863,
          "ticks": 42000,
          "durationTicks": 59
        },
        {
          "time": 131.625,
          "midi": 74,
          "name": "D5",
          "velocity": 1,
          "duration": 0.18437499999998863,
          "ticks": 42120,
          "durationTicks": 59
        },
        {
          "time": 131.625,
          "midi": 78,
          "name": "F#5",
          "velocity": 1,
          "duration": 0.18437499999998863,
          "ticks": 42120,
          "durationTicks": 59
        },
        {
          "time": 132,
          "midi": 69,
          "name": "A4",
          "velocity": 1,
          "duration": 0.5593749999999886,
          "ticks": 42240,
          "durationTicks": 179
        },
        {
          "time": 132,
          "midi": 76,
          "name": "E5",
          "velocity": 1,
          "duration": 0.5593749999999886,
          "ticks": 42240,
          "durationTicks": 179
        },
        {
          "time": 132.5625,
          "midi": 66,
          "name": "F#4",
          "velocity": 0.9763779527559056,
          "duration": 0.18437499999998863,
          "ticks": 42420,
          "durationTicks": 59
        },
        {
          "time": 132.5625,
          "midi": 74,
          "name": "D5",
          "velocity": 1,
          "duration": 0.18437499999998863,
          "ticks": 42420,
          "durationTicks": 59
        },
        {
          "time": 132.75,
          "midi": 74,
          "name": "D5",
          "velocity": 1,
          "duration": 0.09062499999998863,
          "ticks": 42480,
          "durationTicks": 29
        },
        {
          "time": 132.75,
          "midi": 66,
          "name": "F#4",
          "velocity": 1,
          "duration": 0.09062499999998863,
          "ticks": 42480,
          "durationTicks": 29
        },
        {
          "time": 132.9375,
          "midi": 81,
          "name": "A5",
          "velocity": 1,
          "duration": 0.18437499999998863,
          "ticks": 42540,
          "durationTicks": 59
        },
        {
          "time": 132.9375,
          "midi": 78,
          "name": "F#5",
          "velocity": 1,
          "duration": 0.18437499999998863,
          "ticks": 42540,
          "durationTicks": 59
        },
        {
          "time": 133.125,
          "midi": 76,
          "name": "E5",
          "velocity": 1,
          "duration": 0.18437499999998863,
          "ticks": 42600,
          "durationTicks": 59
        },
        {
          "time": 133.125,
          "midi": 79,
          "name": "G5",
          "velocity": 1,
          "duration": 0.18437499999998863,
          "ticks": 42600,
          "durationTicks": 59
        },
        {
          "time": 133.3125,
          "midi": 74,
          "name": "D5",
          "velocity": 1,
          "duration": 0.18437499999998863,
          "ticks": 42660,
          "durationTicks": 59
        },
        {
          "time": 133.3125,
          "midi": 78,
          "name": "F#5",
          "velocity": 1,
          "duration": 0.18437499999998863,
          "ticks": 42660,
          "durationTicks": 59
        },
        {
          "time": 133.5,
          "midi": 69,
          "name": "A4",
          "velocity": 1,
          "duration": 0.7468749999999886,
          "ticks": 42720,
          "durationTicks": 239
        },
        {
          "time": 133.5,
          "midi": 76,
          "name": "E5",
          "velocity": 1,
          "duration": 0.7468749999999886,
          "ticks": 42720,
          "durationTicks": 239
        },
        {
          "time": 134.25,
          "midi": 74,
          "name": "D5",
          "velocity": 1,
          "duration": 0.37187499999998863,
          "ticks": 42960,
          "durationTicks": 119
        },
        {
          "time": 134.25,
          "midi": 78,
          "name": "F#5",
          "velocity": 1,
          "duration": 0.37187499999998863,
          "ticks": 42960,
          "durationTicks": 119
        },
        {
          "time": 134.625,
          "midi": 66,
          "name": "F#4",
          "velocity": 1,
          "duration": 0.37187499999998863,
          "ticks": 43080,
          "durationTicks": 119
        },
        {
          "time": 134.625,
          "midi": 74,
          "name": "D5",
          "velocity": 1,
          "duration": 0.37187499999998863,
          "ticks": 43080,
          "durationTicks": 119
        },
        {
          "time": 135,
          "midi": 69,
          "name": "A4",
          "velocity": 1,
          "duration": 0.37187499999998863,
          "ticks": 43200,
          "durationTicks": 119
        },
        {
          "time": 135,
          "midi": 76,
          "name": "E5",
          "velocity": 1,
          "duration": 0.37187499999998863,
          "ticks": 43200,
          "durationTicks": 119
        },
        {
          "time": 135.375,
          "midi": 74,
          "name": "D5",
          "velocity": 0.937007874015748,
          "duration": 0.18437499999998863,
          "ticks": 43320,
          "durationTicks": 59
        },
        {
          "time": 135.375,
          "midi": 78,
          "name": "F#5",
          "velocity": 1,
          "duration": 0.18437499999998863,
          "ticks": 43320,
          "durationTicks": 59
        },
        {
          "time": 135.5625,
          "midi": 76,
          "name": "E5",
          "velocity": 1,
          "duration": 0.18437499999998863,
          "ticks": 43380,
          "durationTicks": 59
        },
        {
          "time": 135.5625,
          "midi": 79,
          "name": "G5",
          "velocity": 1,
          "duration": 0.18437499999998863,
          "ticks": 43380,
          "durationTicks": 59
        },
        {
          "time": 135.75,
          "midi": 74,
          "name": "D5",
          "velocity": 1,
          "duration": 0.37187499999998863,
          "ticks": 43440,
          "durationTicks": 119
        },
        {
          "time": 135.75,
          "midi": 78,
          "name": "F#5",
          "velocity": 1,
          "duration": 0.37187499999998863,
          "ticks": 43440,
          "durationTicks": 119
        },
        {
          "time": 136.125,
          "midi": 66,
          "name": "F#4",
          "velocity": 1,
          "duration": 0.18437499999998863,
          "ticks": 43560,
          "durationTicks": 59
        },
        {
          "time": 136.125,
          "midi": 74,
          "name": "D5",
          "velocity": 1,
          "duration": 0.18437499999998863,
          "ticks": 43560,
          "durationTicks": 59
        },
        {
          "time": 136.5,
          "midi": 69,
          "name": "A4",
          "velocity": 1,
          "duration": 0.37187499999998863,
          "ticks": 43680,
          "durationTicks": 119
        },
        {
          "time": 136.5,
          "midi": 76,
          "name": "E5",
          "velocity": 1,
          "duration": 0.37187499999998863,
          "ticks": 43680,
          "durationTicks": 119
        },
        {
          "time": 136.875,
          "midi": 74,
          "name": "D5",
          "velocity": 0.905511811023622,
          "duration": 0.18437499999998863,
          "ticks": 43800,
          "durationTicks": 59
        },
        {
          "time": 136.875,
          "midi": 78,
          "name": "F#5",
          "velocity": 1,
          "duration": 0.18437499999998863,
          "ticks": 43800,
          "durationTicks": 59
        },
        {
          "time": 137.0625,
          "midi": 76,
          "name": "E5",
          "velocity": 1,
          "duration": 0.18437499999998863,
          "ticks": 43860,
          "durationTicks": 59
        },
        {
          "time": 137.0625,
          "midi": 79,
          "name": "G5",
          "velocity": 1,
          "duration": 0.18437499999998863,
          "ticks": 43860,
          "durationTicks": 59
        },
        {
          "time": 137.25,
          "midi": 66,
          "name": "F#4",
          "velocity": 1,
          "duration": 0.37187499999998863,
          "ticks": 43920,
          "durationTicks": 119
        },
        {
          "time": 137.25,
          "midi": 78,
          "name": "F#5",
          "velocity": 1,
          "duration": 0.37187499999998863,
          "ticks": 43920,
          "durationTicks": 119
        },
        {
          "time": 137.625,
          "midi": 66,
          "name": "F#4",
          "velocity": 1,
          "duration": 0.37187499999998863,
          "ticks": 44040,
          "durationTicks": 119
        },
        {
          "time": 137.625,
          "midi": 78,
          "name": "F#5",
          "velocity": 1,
          "duration": 0.37187499999998863,
          "ticks": 44040,
          "durationTicks": 119
        },
        {
          "time": 138,
          "midi": 66,
          "name": "F#4",
          "velocity": 1,
          "duration": 0.18437499999998863,
          "ticks": 44160,
          "durationTicks": 59
        },
        {
          "time": 138,
          "midi": 78,
          "name": "F#5",
          "velocity": 1,
          "duration": 0.18437499999998863,
          "ticks": 44160,
          "durationTicks": 59
        },
        {
          "time": 138.375,
          "midi": 76,
          "name": "E5",
          "velocity": 1,
          "duration": 0.18437499999998863,
          "ticks": 44280,
          "durationTicks": 59
        },
        {
          "time": 138.375,
          "midi": 76,
          "name": "E5",
          "velocity": 0.937007874015748,
          "duration": 0.18437499999998863,
          "ticks": 44280,
          "durationTicks": 59
        },
        {
          "time": 138.75,
          "midi": 69,
          "name": "A4",
          "velocity": 1,
          "duration": 0.18437499999998863,
          "ticks": 44400,
          "durationTicks": 59
        },
        {
          "time": 138.75,
          "midi": 69,
          "name": "A4",
          "velocity": 1,
          "duration": 0.18437499999998863,
          "ticks": 44400,
          "durationTicks": 59
        },
        {
          "time": 139.125,
          "midi": 74,
          "name": "D5",
          "velocity": 0.9763779527559056,
          "duration": 0.7468749999999886,
          "ticks": 44520,
          "durationTicks": 239
        },
        {
          "time": 139.125,
          "midi": 78,
          "name": "F#5",
          "velocity": 1,
          "duration": 0.7468749999999886,
          "ticks": 44520,
          "durationTicks": 239
        },
        {
          "time": 139.875,
          "midi": 74,
          "name": "D5",
          "velocity": 1,
          "duration": 0.18437499999998863,
          "ticks": 44760,
          "durationTicks": 59
        },
        {
          "time": 139.875,
          "midi": 78,
          "name": "F#5",
          "velocity": 1,
          "duration": 0.18437499999998863,
          "ticks": 44760,
          "durationTicks": 59
        },
        {
          "time": 140.25,
          "midi": 79,
          "name": "G5",
          "velocity": 1,
          "duration": 0.18437499999998863,
          "ticks": 44880,
          "durationTicks": 59
        },
        {
          "time": 140.25,
          "midi": 76,
          "name": "E5",
          "velocity": 1,
          "duration": 0.18437499999998863,
          "ticks": 44880,
          "durationTicks": 59
        },
        {
          "time": 140.625,
          "midi": 81,
          "name": "A5",
          "velocity": 1,
          "duration": 0.18437499999998863,
          "ticks": 45000,
          "durationTicks": 59
        },
        {
          "time": 140.625,
          "midi": 78,
          "name": "F#5",
          "velocity": 1,
          "duration": 0.18437499999998863,
          "ticks": 45000,
          "durationTicks": 59
        },
        {
          "time": 141,
          "midi": 81,
          "name": "A5",
          "velocity": 1,
          "duration": 0.37187499999998863,
          "ticks": 45120,
          "durationTicks": 119
        },
        {
          "time": 141,
          "midi": 78,
          "name": "F#5",
          "velocity": 1,
          "duration": 0.37187499999998863,
          "ticks": 45120,
          "durationTicks": 119
        },
        {
          "time": 141.375,
          "midi": 76,
          "name": "E5",
          "velocity": 1,
          "duration": 0.37187499999998863,
          "ticks": 45240,
          "durationTicks": 119
        },
        {
          "time": 141.375,
          "midi": 79,
          "name": "G5",
          "velocity": 1,
          "duration": 0.37187499999998863,
          "ticks": 45240,
          "durationTicks": 119
        },
        {
          "time": 141.75,
          "midi": 74,
          "name": "D5",
          "velocity": 1,
          "duration": 0.18437499999998863,
          "ticks": 45360,
          "durationTicks": 59
        },
        {
          "time": 141.75,
          "midi": 78,
          "name": "F#5",
          "velocity": 1,
          "duration": 0.18437499999998863,
          "ticks": 45360,
          "durationTicks": 59
        },
        {
          "time": 142.125,
          "midi": 69,
          "name": "A4",
          "velocity": 0.937007874015748,
          "duration": 0.18437499999998863,
          "ticks": 45480,
          "durationTicks": 59
        },
        {
          "time": 142.125,
          "midi": 76,
          "name": "E5",
          "velocity": 1,
          "duration": 0.18437499999998863,
          "ticks": 45480,
          "durationTicks": 59
        },
        {
          "time": 142.5,
          "midi": 74,
          "name": "D5",
          "velocity": 1,
          "duration": 0.37187499999998863,
          "ticks": 45600,
          "durationTicks": 119
        },
        {
          "time": 142.5,
          "midi": 66,
          "name": "F#4",
          "velocity": 1,
          "duration": 0.37187499999998863,
          "ticks": 45600,
          "durationTicks": 119
        },
        {
          "time": 142.875,
          "midi": 74,
          "name": "D5",
          "velocity": 1,
          "duration": 0.18437499999998863,
          "ticks": 45720,
          "durationTicks": 59
        },
        {
          "time": 142.875,
          "midi": 66,
          "name": "F#4",
          "velocity": 1,
          "duration": 0.18437499999998863,
          "ticks": 45720,
          "durationTicks": 59
        },
        {
          "time": 143.25,
          "midi": 69,
          "name": "A4",
          "velocity": 1,
          "duration": 0.18437499999998863,
          "ticks": 45840,
          "durationTicks": 59
        },
        {
          "time": 143.25,
          "midi": 76,
          "name": "E5",
          "velocity": 1,
          "duration": 0.18437499999998863,
          "ticks": 45840,
          "durationTicks": 59
        },
        {
          "time": 143.625,
          "midi": 74,
          "name": "D5",
          "velocity": 1,
          "duration": 0.18437499999998863,
          "ticks": 45960,
          "durationTicks": 59
        },
        {
          "time": 143.625,
          "midi": 78,
          "name": "F#5",
          "velocity": 1,
          "duration": 0.18437499999998863,
          "ticks": 45960,
          "durationTicks": 59
        },
        {
          "time": 144,
          "midi": 69,
          "name": "A4",
          "velocity": 0.9763779527559056,
          "duration": 0.5593749999999886,
          "ticks": 46080,
          "durationTicks": 179
        },
        {
          "time": 144,
          "midi": 76,
          "name": "E5",
          "velocity": 1,
          "duration": 0.5593749999999886,
          "ticks": 46080,
          "durationTicks": 179
        },
        {
          "time": 144.5625,
          "midi": 74,
          "name": "D5",
          "velocity": 1,
          "duration": 0.18437499999998863,
          "ticks": 46260,
          "durationTicks": 59
        },
        {
          "time": 144.5625,
          "midi": 66,
          "name": "F#4",
          "velocity": 1,
          "duration": 0.18437499999998863,
          "ticks": 46260,
          "durationTicks": 59
        },
        {
          "time": 144.75,
          "midi": 74,
          "name": "D5",
          "velocity": 1,
          "duration": 0.37187499999998863,
          "ticks": 46320,
          "durationTicks": 119
        },
        {
          "time": 144.75,
          "midi": 66,
          "name": "F#4",
          "velocity": 1,
          "duration": 0.37187499999998863,
          "ticks": 46320,
          "durationTicks": 119
        },
        {
          "time": 145.125,
          "midi": 81,
          "name": "A5",
          "velocity": 1,
          "duration": 0.37187499999998863,
          "ticks": 46440,
          "durationTicks": 119
        },
        {
          "time": 145.125,
          "midi": 78,
          "name": "F#5",
          "velocity": 1,
          "duration": 0.37187499999998863,
          "ticks": 46440,
          "durationTicks": 119
        },
        {
          "time": 145.5,
          "midi": 76,
          "name": "E5",
          "velocity": 1,
          "duration": 0.5593749999999886,
          "ticks": 46560,
          "durationTicks": 179
        },
        {
          "time": 145.5,
          "midi": 79,
          "name": "G5",
          "velocity": 1,
          "duration": 0.5593749999999886,
          "ticks": 46560,
          "durationTicks": 179
        },
        {
          "time": 146.0625,
          "midi": 78,
          "name": "F#5",
          "velocity": 0.7795275590551181,
          "duration": 0.18437499999998863,
          "ticks": 46740,
          "durationTicks": 59
        },
        {
          "time": 146.0625,
          "midi": 74,
          "name": "D5",
          "velocity": 0.9763779527559056,
          "duration": 0.18437499999998863,
          "ticks": 46740,
          "durationTicks": 59
        },
        {
          "time": 146.25,
          "midi": 74,
          "name": "D5",
          "velocity": 1,
          "duration": 0.37187499999998863,
          "ticks": 46800,
          "durationTicks": 119
        },
        {
          "time": 146.25,
          "midi": 78,
          "name": "F#5",
          "velocity": 0.9763779527559056,
          "duration": 0.37187499999998863,
          "ticks": 46800,
          "durationTicks": 119
        },
        {
          "time": 146.625,
          "midi": 62,
          "name": "D4",
          "velocity": 0.8031496062992126,
          "duration": 0.37187499999998863,
          "ticks": 46920,
          "durationTicks": 119
        },
        {
          "time": 146.625,
          "midi": 74,
          "name": "D5",
          "velocity": 1,
          "duration": 0.37187499999998863,
          "ticks": 46920,
          "durationTicks": 119
        },
        {
          "time": 147,
          "midi": 74,
          "name": "D5",
          "velocity": 1,
          "duration": 0.5593749999999886,
          "ticks": 47040,
          "durationTicks": 179
        },
        {
          "time": 147,
          "midi": 78,
          "name": "F#5",
          "velocity": 1,
          "duration": 0.5593749999999886,
          "ticks": 47040,
          "durationTicks": 179
        },
        {
          "time": 147.5625,
          "midi": 74,
          "name": "D5",
          "velocity": 0.8031496062992126,
          "duration": 0.18437499999998863,
          "ticks": 47220,
          "durationTicks": 59
        },
        {
          "time": 147.5625,
          "midi": 79,
          "name": "G5",
          "velocity": 1,
          "duration": 0.18437499999998863,
          "ticks": 47220,
          "durationTicks": 59
        },
        {
          "time": 147.75,
          "midi": 74,
          "name": "D5",
          "velocity": 0.7401574803149606,
          "duration": 0.37187499999998863,
          "ticks": 47280,
          "durationTicks": 119
        },
        {
          "time": 147.75,
          "midi": 79,
          "name": "G5",
          "velocity": 1,
          "duration": 0.37187499999998863,
          "ticks": 47280,
          "durationTicks": 119
        },
        {
          "time": 148.125,
          "midi": 74,
          "name": "D5",
          "velocity": 0.8267716535433071,
          "duration": 0.37187499999998863,
          "ticks": 47400,
          "durationTicks": 119
        },
        {
          "time": 148.125,
          "midi": 62,
          "name": "D4",
          "velocity": 0.8031496062992126,
          "duration": 0.37187499999998863,
          "ticks": 47400,
          "durationTicks": 119
        },
        {
          "time": 148.5,
          "midi": 74,
          "name": "D5",
          "velocity": 1,
          "duration": 0.5593749999999886,
          "ticks": 47520,
          "durationTicks": 179
        },
        {
          "time": 148.5,
          "midi": 62,
          "name": "D4",
          "velocity": 0.937007874015748,
          "duration": 0.5593749999999886,
          "ticks": 47520,
          "durationTicks": 179
        },
        {
          "time": 149.0625,
          "midi": 74,
          "name": "D5",
          "velocity": 0.6929133858267716,
          "duration": 0.18437499999998863,
          "ticks": 47700,
          "durationTicks": 59
        },
        {
          "time": 149.0625,
          "midi": 76,
          "name": "E5",
          "velocity": 0.7401574803149606,
          "duration": 0.18437499999998863,
          "ticks": 47700,
          "durationTicks": 59
        },
        {
          "time": 149.25,
          "midi": 69,
          "name": "A4",
          "velocity": 0.8267716535433071,
          "duration": 0.37187499999998863,
          "ticks": 47760,
          "durationTicks": 119
        },
        {
          "time": 149.25,
          "midi": 76,
          "name": "E5",
          "velocity": 1,
          "duration": 0.37187499999998863,
          "ticks": 47760,
          "durationTicks": 119
        },
        {
          "time": 149.625,
          "midi": 69,
          "name": "A4",
          "velocity": 1,
          "duration": 0.37187499999998863,
          "ticks": 47880,
          "durationTicks": 119
        },
        {
          "time": 149.625,
          "midi": 76,
          "name": "E5",
          "velocity": 1,
          "duration": 0.18437499999998863,
          "ticks": 47880,
          "durationTicks": 59
        },
        {
          "time": 149.8125,
          "midi": 78,
          "name": "F#5",
          "velocity": 1,
          "duration": 0.18437499999998863,
          "ticks": 47940,
          "durationTicks": 59
        },
        {
          "time": 150,
          "midi": 69,
          "name": "A4",
          "velocity": 0.8267716535433071,
          "duration": 0.5593749999999886,
          "ticks": 48000,
          "durationTicks": 179
        },
        {
          "time": 150,
          "midi": 76,
          "name": "E5",
          "velocity": 1,
          "duration": 0.5593749999999886,
          "ticks": 48000,
          "durationTicks": 179
        },
        {
          "time": 150.5625,
          "midi": 66,
          "name": "F#4",
          "velocity": 0.8818897637795275,
          "duration": 0.18437499999998863,
          "ticks": 48180,
          "durationTicks": 59
        },
        {
          "time": 150.5625,
          "midi": 74,
          "name": "D5",
          "velocity": 1,
          "duration": 0.18437499999998863,
          "ticks": 48180,
          "durationTicks": 59
        },
        {
          "time": 150.75,
          "midi": 66,
          "name": "F#4",
          "velocity": 0.7401574803149606,
          "duration": 0.18437499999998863,
          "ticks": 48240,
          "durationTicks": 59
        },
        {
          "time": 150.75,
          "midi": 74,
          "name": "D5",
          "velocity": 0.905511811023622,
          "duration": 0.18437499999998863,
          "ticks": 48240,
          "durationTicks": 59
        },
        {
          "time": 150.9375,
          "midi": 57,
          "name": "A3",
          "velocity": 0.7401574803149606,
          "duration": 0.18437499999998863,
          "ticks": 48300,
          "durationTicks": 59
        },
        {
          "time": 150.9375,
          "midi": 69,
          "name": "A4",
          "velocity": 0.9763779527559056,
          "duration": 0.18437499999998863,
          "ticks": 48300,
          "durationTicks": 59
        },
        {
          "time": 151.125,
          "midi": 69,
          "name": "A4",
          "velocity": 0.7637795275590551,
          "duration": 0.18437499999998863,
          "ticks": 48360,
          "durationTicks": 59
        },
        {
          "time": 151.125,
          "midi": 81,
          "name": "A5",
          "velocity": 1,
          "duration": 0.18437499999998863,
          "ticks": 48360,
          "durationTicks": 59
        },
        {
          "time": 151.3125,
          "midi": 78,
          "name": "F#5",
          "velocity": 1,
          "duration": 0.18437499999998863,
          "ticks": 48420,
          "durationTicks": 59
        },
        {
          "time": 151.3125,
          "midi": 66,
          "name": "F#4",
          "velocity": 0.937007874015748,
          "duration": 0.18437499999998863,
          "ticks": 48420,
          "durationTicks": 59
        },
        {
          "time": 151.5,
          "midi": 74,
          "name": "D5",
          "velocity": 1,
          "duration": 0.7468749999999886,
          "ticks": 48480,
          "durationTicks": 239
        },
        {
          "time": 151.5,
          "midi": 78,
          "name": "F#5",
          "velocity": 1,
          "duration": 0.5593749999999886,
          "ticks": 48480,
          "durationTicks": 179
        },
        {
          "time": 152.0625,
          "midi": 76,
          "name": "E5",
          "velocity": 1,
          "duration": 0.18437499999998863,
          "ticks": 48660,
          "durationTicks": 59
        },
        {
          "time": 152.25,
          "midi": 69,
          "name": "A4",
          "velocity": 1,
          "duration": 0.37187499999998863,
          "ticks": 48720,
          "durationTicks": 119
        },
        {
          "time": 152.25,
          "midi": 76,
          "name": "E5",
          "velocity": 1,
          "duration": 0.37187499999998863,
          "ticks": 48720,
          "durationTicks": 119
        },
        {
          "time": 152.625,
          "midi": 76,
          "name": "E5",
          "velocity": 1,
          "duration": 0.9375,
          "ticks": 48840,
          "durationTicks": 300
        },
        {
          "time": 152.625,
          "midi": 76,
          "name": "E5",
          "velocity": 0.8818897637795275,
          "duration": 0.9375,
          "ticks": 48840,
          "durationTicks": 300
        },
        {
          "time": 153.5625,
          "midi": 78,
          "name": "F#5",
          "velocity": 0.9763779527559056,
          "duration": 0.18437499999998863,
          "ticks": 49140,
          "durationTicks": 59
        },
        {
          "time": 153.5625,
          "midi": 66,
          "name": "F#4",
          "velocity": 0.9763779527559056,
          "duration": 0.18437499999998863,
          "ticks": 49140,
          "durationTicks": 59
        },
        {
          "time": 153.75,
          "midi": 66,
          "name": "F#4",
          "velocity": 0.905511811023622,
          "duration": 0.37187499999998863,
          "ticks": 49200,
          "durationTicks": 119
        },
        {
          "time": 153.75,
          "midi": 78,
          "name": "F#5",
          "velocity": 0.937007874015748,
          "duration": 0.37187499999998863,
          "ticks": 49200,
          "durationTicks": 119
        },
        {
          "time": 154.125,
          "midi": 78,
          "name": "F#5",
          "velocity": 1,
          "duration": 0.7468749999999886,
          "ticks": 49320,
          "durationTicks": 239
        },
        {
          "time": 154.125,
          "midi": 66,
          "name": "F#4",
          "velocity": 0.905511811023622,
          "duration": 0.7468749999999886,
          "ticks": 49320,
          "durationTicks": 239
        },
        {
          "time": 156,
          "midi": 76,
          "name": "E5",
          "velocity": 1,
          "duration": 0.37187499999998863,
          "ticks": 49920,
          "durationTicks": 119
        },
        {
          "time": 156,
          "midi": 79,
          "name": "G5",
          "velocity": 1,
          "duration": 0.37187499999998863,
          "ticks": 49920,
          "durationTicks": 119
        },
        {
          "time": 156.75,
          "midi": 78,
          "name": "F#5",
          "velocity": 1,
          "duration": 0.37187499999998863,
          "ticks": 50160,
          "durationTicks": 119
        },
        {
          "time": 156.75,
          "midi": 66,
          "name": "F#4",
          "velocity": 0.9763779527559056,
          "duration": 0.37187499999998863,
          "ticks": 50160,
          "durationTicks": 119
        },
        {
          "time": 158.25,
          "midi": 78,
          "name": "F#5",
          "velocity": 0.9763779527559056,
          "duration": 0.37187499999998863,
          "ticks": 50640,
          "durationTicks": 119
        },
        {
          "time": 158.25,
          "midi": 66,
          "name": "F#4",
          "velocity": 0.937007874015748,
          "duration": 0.37187499999998863,
          "ticks": 50640,
          "durationTicks": 119
        },
        {
          "time": 158.625,
          "midi": 78,
          "name": "F#5",
          "velocity": 0.9763779527559056,
          "duration": 0.37187499999998863,
          "ticks": 50760,
          "durationTicks": 119
        },
        {
          "time": 158.625,
          "midi": 66,
          "name": "F#4",
          "velocity": 0.8818897637795275,
          "duration": 0.37187499999998863,
          "ticks": 50760,
          "durationTicks": 119
        },
        {
          "time": 159,
          "midi": 76,
          "name": "E5",
          "velocity": 1,
          "duration": 0.5593749999999886,
          "ticks": 50880,
          "durationTicks": 179
        },
        {
          "time": 159.5625,
          "midi": 76,
          "name": "E5",
          "velocity": 1,
          "duration": 0.18437499999998863,
          "ticks": 51060,
          "durationTicks": 59
        },
        {
          "time": 159.75,
          "midi": 76,
          "name": "E5",
          "velocity": 1,
          "duration": 0.5593749999999886,
          "ticks": 51120,
          "durationTicks": 179
        },
        {
          "time": 160.3125,
          "midi": 76,
          "name": "E5",
          "velocity": 1,
          "duration": 0.18437499999998863,
          "ticks": 51300,
          "durationTicks": 59
        },
        {
          "time": 160.5,
          "midi": 76,
          "name": "E5",
          "velocity": 1,
          "duration": 0.5593749999999886,
          "ticks": 51360,
          "durationTicks": 179
        },
        {
          "time": 161.0625,
          "midi": 76,
          "name": "E5",
          "velocity": 1,
          "duration": 0.18437499999998863,
          "ticks": 51540,
          "durationTicks": 59
        },
        {
          "time": 161.25,
          "midi": 76,
          "name": "E5",
          "velocity": 1,
          "duration": 0.18437499999998863,
          "ticks": 51600,
          "durationTicks": 59
        },
        {
          "time": 161.4375,
          "midi": 76,
          "name": "E5",
          "velocity": 1,
          "duration": 0.18437499999998863,
          "ticks": 51660,
          "durationTicks": 59
        },
        {
          "time": 161.625,
          "midi": 76,
          "name": "E5",
          "velocity": 1,
          "duration": 0.18437499999998863,
          "ticks": 51720,
          "durationTicks": 59
        },
        {
          "time": 161.8125,
          "midi": 76,
          "name": "E5",
          "velocity": 1,
          "duration": 0.18437499999998863,
          "ticks": 51780,
          "durationTicks": 59
        },
        {
          "time": 162,
          "midi": 76,
          "name": "E5",
          "velocity": 1,
          "duration": 0.37187499999998863,
          "ticks": 51840,
          "durationTicks": 119
        },
        {
          "time": 162.375,
          "midi": 81,
          "name": "A5",
          "velocity": 1,
          "duration": 0.18437499999998863,
          "ticks": 51960,
          "durationTicks": 59
        },
        {
          "time": 162.375,
          "midi": 69,
          "name": "A4",
          "velocity": 0.9763779527559056,
          "duration": 0.18437499999998863,
          "ticks": 51960,
          "durationTicks": 59
        },
        {
          "time": 162.5625,
          "midi": 69,
          "name": "A4",
          "velocity": 0.6771653543307087,
          "duration": 0.18437499999998863,
          "ticks": 52020,
          "durationTicks": 59
        },
        {
          "time": 162.5625,
          "midi": 81,
          "name": "A5",
          "velocity": 1,
          "duration": 0.18437499999998863,
          "ticks": 52020,
          "durationTicks": 59
        },
        {
          "time": 162.75,
          "midi": 81,
          "name": "A5",
          "velocity": 1,
          "duration": 0.37187499999998863,
          "ticks": 52080,
          "durationTicks": 119
        },
        {
          "time": 162.75,
          "midi": 69,
          "name": "A4",
          "velocity": 1,
          "duration": 0.37187499999998863,
          "ticks": 52080,
          "durationTicks": 119
        },
        {
          "time": 163.125,
          "midi": 81,
          "name": "A5",
          "velocity": 1,
          "duration": 0.18437499999998863,
          "ticks": 52200,
          "durationTicks": 59
        },
        {
          "time": 163.125,
          "midi": 69,
          "name": "A4",
          "velocity": 0.7244094488188977,
          "duration": 0.18437499999998863,
          "ticks": 52200,
          "durationTicks": 59
        },
        {
          "time": 163.3125,
          "midi": 69,
          "name": "A4",
          "velocity": 0.937007874015748,
          "duration": 0.18437499999998863,
          "ticks": 52260,
          "durationTicks": 59
        },
        {
          "time": 163.3125,
          "midi": 81,
          "name": "A5",
          "velocity": 1,
          "duration": 0.18437499999998863,
          "ticks": 52260,
          "durationTicks": 59
        },
        {
          "time": 163.5,
          "midi": 81,
          "name": "A5",
          "velocity": 1,
          "duration": 0.18437499999998863,
          "ticks": 52320,
          "durationTicks": 59
        },
        {
          "time": 163.5,
          "midi": 69,
          "name": "A4",
          "velocity": 0.905511811023622,
          "duration": 0.18437499999998863,
          "ticks": 52320,
          "durationTicks": 59
        },
        {
          "time": 163.6875,
          "midi": 69,
          "name": "A4",
          "velocity": 0.8818897637795275,
          "duration": 0.18437499999998863,
          "ticks": 52380,
          "durationTicks": 59
        },
        {
          "time": 163.6875,
          "midi": 81,
          "name": "A5",
          "velocity": 1,
          "duration": 0.18437499999998863,
          "ticks": 52380,
          "durationTicks": 59
        },
        {
          "time": 163.875,
          "midi": 81,
          "name": "A5",
          "velocity": 1,
          "duration": 0.18437499999998863,
          "ticks": 52440,
          "durationTicks": 59
        },
        {
          "time": 163.875,
          "midi": 69,
          "name": "A4",
          "velocity": 0.9763779527559056,
          "duration": 0.18437499999998863,
          "ticks": 52440,
          "durationTicks": 59
        },
        {
          "time": 164.0625,
          "midi": 69,
          "name": "A4",
          "velocity": 0.905511811023622,
          "duration": 0.18437499999998863,
          "ticks": 52500,
          "durationTicks": 59
        },
        {
          "time": 164.0625,
          "midi": 81,
          "name": "A5",
          "velocity": 1,
          "duration": 0.18437499999998863,
          "ticks": 52500,
          "durationTicks": 59
        },
        {
          "time": 164.25,
          "midi": 81,
          "name": "A5",
          "velocity": 1,
          "duration": 0.18437499999998863,
          "ticks": 52560,
          "durationTicks": 59
        },
        {
          "time": 164.25,
          "midi": 69,
          "name": "A4",
          "velocity": 1,
          "duration": 0.18437499999998863,
          "ticks": 52560,
          "durationTicks": 59
        },
        {
          "time": 164.4375,
          "midi": 69,
          "name": "A4",
          "velocity": 1,
          "duration": 0.18437499999998863,
          "ticks": 52620,
          "durationTicks": 59
        },
        {
          "time": 164.4375,
          "midi": 81,
          "name": "A5",
          "velocity": 1,
          "duration": 0.18437499999998863,
          "ticks": 52620,
          "durationTicks": 59
        },
        {
          "time": 164.625,
          "midi": 76,
          "name": "E5",
          "velocity": 1,
          "duration": 0.18437499999998863,
          "ticks": 52680,
          "durationTicks": 59
        },
        {
          "time": 164.625,
          "midi": 76,
          "name": "E5",
          "velocity": 1,
          "duration": 0.18437499999998863,
          "ticks": 52680,
          "durationTicks": 59
        },
        {
          "time": 164.8125,
          "midi": 76,
          "name": "E5",
          "velocity": 1,
          "duration": 0.18437499999998863,
          "ticks": 52740,
          "durationTicks": 59
        },
        {
          "time": 164.8125,
          "midi": 76,
          "name": "E5",
          "velocity": 1,
          "duration": 0.18437499999998863,
          "ticks": 52740,
          "durationTicks": 59
        },
        {
          "time": 165,
          "midi": 81,
          "name": "A5",
          "velocity": 1,
          "duration": 0.7468749999999886,
          "ticks": 52800,
          "durationTicks": 239
        },
        {
          "time": 165,
          "midi": 69,
          "name": "A4",
          "velocity": 1,
          "duration": 0.7468749999999886,
          "ticks": 52800,
          "durationTicks": 239
        },
        {
          "time": 165.75,
          "midi": 76,
          "name": "E5",
          "velocity": 1,
          "duration": 0.18437499999998863,
          "ticks": 53040,
          "durationTicks": 59
        },
        {
          "time": 165.75,
          "midi": 76,
          "name": "E5",
          "velocity": 1,
          "duration": 0.18437499999998863,
          "ticks": 53040,
          "durationTicks": 59
        },
        {
          "time": 166.125,
          "midi": 76,
          "name": "E5",
          "velocity": 1,
          "duration": 0.18437499999998863,
          "ticks": 53160,
          "durationTicks": 59
        },
        {
          "time": 166.125,
          "midi": 76,
          "name": "E5",
          "velocity": 1,
          "duration": 0.18437499999998863,
          "ticks": 53160,
          "durationTicks": 59
        },
        {
          "time": 166.5,
          "midi": 81,
          "name": "A5",
          "velocity": 1,
          "duration": 0.7468749999999886,
          "ticks": 53280,
          "durationTicks": 239
        },
        {
          "time": 166.5,
          "midi": 69,
          "name": "A4",
          "velocity": 1,
          "duration": 0.7468749999999886,
          "ticks": 53280,
          "durationTicks": 239
        },
        {
          "time": 167.25,
          "midi": 76,
          "name": "E5",
          "velocity": 1,
          "duration": 0.18437499999998863,
          "ticks": 53520,
          "durationTicks": 59
        },
        {
          "time": 167.25,
          "midi": 76,
          "name": "E5",
          "velocity": 1,
          "duration": 0.18437499999998863,
          "ticks": 53520,
          "durationTicks": 59
        },
        {
          "time": 167.625,
          "midi": 76,
          "name": "E5",
          "velocity": 1,
          "duration": 0.18437499999998863,
          "ticks": 53640,
          "durationTicks": 59
        },
        {
          "time": 167.625,
          "midi": 76,
          "name": "E5",
          "velocity": 1,
          "duration": 0.18437499999998863,
          "ticks": 53640,
          "durationTicks": 59
        },
        {
          "time": 176.625,
          "midi": 76,
          "name": "E5",
          "velocity": 1,
          "duration": 0.3687500000000057,
          "ticks": 55140,
          "durationTicks": 59
        },
        {
          "time": 176.625,
          "midi": 76,
          "name": "E5",
          "velocity": 1,
          "duration": 0.3687500000000057,
          "ticks": 55140,
          "durationTicks": 59
        },
        {
          "time": 177,
          "midi": 76,
          "name": "E5",
          "velocity": 1,
          "duration": 0.18437499999998863,
          "ticks": 55200,
          "durationTicks": 59
        },
        {
          "time": 177,
          "midi": 76,
          "name": "E5",
          "velocity": 1,
          "duration": 0.18437499999998863,
          "ticks": 55200,
          "durationTicks": 59
        },
        {
          "time": 177.1875,
          "midi": 81,
          "name": "A5",
          "velocity": 1,
          "duration": 0.18437499999998863,
          "ticks": 55260,
          "durationTicks": 59
        },
        {
          "time": 177.1875,
          "midi": 69,
          "name": "A4",
          "velocity": 1,
          "duration": 0.18437499999998863,
          "ticks": 55260,
          "durationTicks": 59
        },
        {
          "time": 177.375,
          "midi": 81,
          "name": "A5",
          "velocity": 1,
          "duration": 0.09062499999998863,
          "ticks": 55320,
          "durationTicks": 29
        },
        {
          "time": 177.375,
          "midi": 69,
          "name": "A4",
          "velocity": 1,
          "duration": 0.09062499999998863,
          "ticks": 55320,
          "durationTicks": 29
        },
        {
          "time": 177.5625,
          "midi": 78,
          "name": "F#5",
          "velocity": 1,
          "duration": 0.09062499999998863,
          "ticks": 55380,
          "durationTicks": 29
        },
        {
          "time": 177.5625,
          "midi": 81,
          "name": "A5",
          "velocity": 1,
          "duration": 0.09062499999998863,
          "ticks": 55380,
          "durationTicks": 29
        },
        {
          "time": 177.75,
          "midi": 81,
          "name": "A5",
          "velocity": 1,
          "duration": 0.37187499999998863,
          "ticks": 55440,
          "durationTicks": 119
        },
        {
          "time": 177.75,
          "midi": 76,
          "name": "E5",
          "velocity": 1,
          "duration": 0.37187499999998863,
          "ticks": 55440,
          "durationTicks": 119
        },
        {
          "time": 178.125,
          "midi": 76,
          "name": "E5",
          "velocity": 1,
          "duration": 0.37187499999998863,
          "ticks": 55560,
          "durationTicks": 119
        },
        {
          "time": 178.125,
          "midi": 76,
          "name": "E5",
          "velocity": 1,
          "duration": 0.37187499999998863,
          "ticks": 55560,
          "durationTicks": 119
        },
        {
          "time": 178.875,
          "midi": 76,
          "name": "E5",
          "velocity": 1,
          "duration": 0.37187499999998863,
          "ticks": 55800,
          "durationTicks": 119
        },
        {
          "time": 178.875,
          "midi": 76,
          "name": "E5",
          "velocity": 1,
          "duration": 0.37187499999998863,
          "ticks": 55800,
          "durationTicks": 119
        },
        {
          "time": 179.625,
          "midi": 81,
          "name": "A5",
          "velocity": 1,
          "duration": 0.37187499999998863,
          "ticks": 56040,
          "durationTicks": 119
        },
        {
          "time": 179.625,
          "midi": 69,
          "name": "A4",
          "velocity": 1,
          "duration": 0.37187499999998863,
          "ticks": 56040,
          "durationTicks": 119
        },
        {
          "time": 180.75,
          "midi": 77,
          "name": "F5",
          "velocity": 1,
          "duration": 3,
          "ticks": 56400,
          "durationTicks": 960
        },
        {
          "time": 180.75,
          "midi": 74,
          "name": "D5",
          "velocity": 0.905511811023622,
          "duration": 3,
          "ticks": 56400,
          "durationTicks": 960
        },
        {
          "time": 183.75,
          "midi": 74,
          "name": "D5",
          "velocity": 0.8818897637795275,
          "duration": 0.37187499999998863,
          "ticks": 57360,
          "durationTicks": 119
        },
        {
          "time": 183.75,
          "midi": 77,
          "name": "F5",
          "velocity": 1,
          "duration": 0.37187499999998863,
          "ticks": 57360,
          "durationTicks": 119
        },
        {
          "time": 184.125,
          "midi": 77,
          "name": "F5",
          "velocity": 0.8818897637795275,
          "duration": 0.37187499999998863,
          "ticks": 57480,
          "durationTicks": 119
        },
        {
          "time": 184.125,
          "midi": 74,
          "name": "D5",
          "velocity": 0.8503937007874016,
          "duration": 0.37187499999998863,
          "ticks": 57480,
          "durationTicks": 119
        },
        {
          "time": 184.5,
          "midi": 77,
          "name": "F5",
          "velocity": 0.8031496062992126,
          "duration": 0.37187499999998863,
          "ticks": 57600,
          "durationTicks": 119
        },
        {
          "time": 184.5,
          "midi": 74,
          "name": "D5",
          "velocity": 0.7401574803149606,
          "duration": 0.37187499999998863,
          "ticks": 57600,
          "durationTicks": 119
        },
        {
          "time": 184.875,
          "midi": 77,
          "name": "F5",
          "velocity": 0.8503937007874016,
          "duration": 0.37187499999998863,
          "ticks": 57720,
          "durationTicks": 119
        },
        {
          "time": 184.875,
          "midi": 74,
          "name": "D5",
          "velocity": 0.8267716535433071,
          "duration": 0.37187499999998863,
          "ticks": 57720,
          "durationTicks": 119
        },
        {
          "time": 185.25,
          "midi": 77,
          "name": "F5",
          "velocity": 1,
          "duration": 0.37187499999998863,
          "ticks": 57840,
          "durationTicks": 119
        },
        {
          "time": 185.25,
          "midi": 74,
          "name": "D5",
          "velocity": 0.937007874015748,
          "duration": 0.37187499999998863,
          "ticks": 57840,
          "durationTicks": 119
        },
        {
          "time": 185.625,
          "midi": 74,
          "name": "D5",
          "velocity": 1,
          "duration": 0.18437499999998863,
          "ticks": 57960,
          "durationTicks": 59
        },
        {
          "time": 185.625,
          "midi": 77,
          "name": "F5",
          "velocity": 1,
          "duration": 0.18437499999998863,
          "ticks": 57960,
          "durationTicks": 59
        },
        {
          "time": 185.8125,
          "midi": 62,
          "name": "D4",
          "velocity": 0.8267716535433071,
          "duration": 0.18437499999998863,
          "ticks": 58020,
          "durationTicks": 59
        },
        {
          "time": 185.8125,
          "midi": 74,
          "name": "D5",
          "velocity": 0.8818897637795275,
          "duration": 0.18437499999998863,
          "ticks": 58020,
          "durationTicks": 59
        },
        {
          "time": 186,
          "midi": 62,
          "name": "D4",
          "velocity": 0.8267716535433071,
          "duration": 0.18437499999998863,
          "ticks": 58080,
          "durationTicks": 59
        },
        {
          "time": 186,
          "midi": 74,
          "name": "D5",
          "velocity": 0.8503937007874016,
          "duration": 0.18437499999998863,
          "ticks": 58080,
          "durationTicks": 59
        },
        {
          "time": 186.1875,
          "midi": 62,
          "name": "D4",
          "velocity": 0.8267716535433071,
          "duration": 0.18437499999998863,
          "ticks": 58140,
          "durationTicks": 59
        },
        {
          "time": 186.1875,
          "midi": 74,
          "name": "D5",
          "velocity": 0.8818897637795275,
          "duration": 0.18437499999998863,
          "ticks": 58140,
          "durationTicks": 59
        },
        {
          "time": 186.375,
          "midi": 62,
          "name": "D4",
          "velocity": 0.8503937007874016,
          "duration": 0.18437499999998863,
          "ticks": 58200,
          "durationTicks": 59
        },
        {
          "time": 186.375,
          "midi": 74,
          "name": "D5",
          "velocity": 0.8818897637795275,
          "duration": 0.18437499999998863,
          "ticks": 58200,
          "durationTicks": 59
        },
        {
          "time": 186.5625,
          "midi": 62,
          "name": "D4",
          "velocity": 0.8503937007874016,
          "duration": 0.18437499999998863,
          "ticks": 58260,
          "durationTicks": 59
        },
        {
          "time": 186.5625,
          "midi": 74,
          "name": "D5",
          "velocity": 0.9763779527559056,
          "duration": 0.18437499999998863,
          "ticks": 58260,
          "durationTicks": 59
        },
        {
          "time": 186.75,
          "midi": 62,
          "name": "D4",
          "velocity": 0.6771653543307087,
          "duration": 0.18437499999998863,
          "ticks": 58320,
          "durationTicks": 59
        },
        {
          "time": 186.75,
          "midi": 74,
          "name": "D5",
          "velocity": 0.7795275590551181,
          "duration": 0.18437499999998863,
          "ticks": 58320,
          "durationTicks": 59
        },
        {
          "time": 186.9375,
          "midi": 62,
          "name": "D4",
          "velocity": 0.7637795275590551,
          "duration": 0.18437499999998863,
          "ticks": 58380,
          "durationTicks": 59
        },
        {
          "time": 186.9375,
          "midi": 74,
          "name": "D5",
          "velocity": 0.8503937007874016,
          "duration": 0.18437499999998863,
          "ticks": 58380,
          "durationTicks": 59
        },
        {
          "time": 187.125,
          "midi": 74,
          "name": "D5",
          "velocity": 0.8267716535433071,
          "duration": 0.18437499999998863,
          "ticks": 58440,
          "durationTicks": 59
        },
        {
          "time": 187.125,
          "midi": 62,
          "name": "D4",
          "velocity": 0.8267716535433071,
          "duration": 0.18437499999998863,
          "ticks": 58440,
          "durationTicks": 59
        },
        {
          "time": 187.3125,
          "midi": 62,
          "name": "D4",
          "velocity": 0.7401574803149606,
          "duration": 0.18437499999998863,
          "ticks": 58500,
          "durationTicks": 59
        },
        {
          "time": 187.3125,
          "midi": 74,
          "name": "D5",
          "velocity": 0.7637795275590551,
          "duration": 0.18437499999998863,
          "ticks": 58500,
          "durationTicks": 59
        },
        {
          "time": 187.5,
          "midi": 62,
          "name": "D4",
          "velocity": 0.8031496062992126,
          "duration": 0.18437499999998863,
          "ticks": 58560,
          "durationTicks": 59
        },
        {
          "time": 187.5,
          "midi": 74,
          "name": "D5",
          "velocity": 0.905511811023622,
          "duration": 0.18437499999998863,
          "ticks": 58560,
          "durationTicks": 59
        },
        {
          "time": 187.6875,
          "midi": 74,
          "name": "D5",
          "velocity": 0.8503937007874016,
          "duration": 0.18437499999998863,
          "ticks": 58620,
          "durationTicks": 59
        },
        {
          "time": 187.6875,
          "midi": 62,
          "name": "D4",
          "velocity": 0.8267716535433071,
          "duration": 0.18437499999998863,
          "ticks": 58620,
          "durationTicks": 59
        },
        {
          "time": 187.875,
          "midi": 74,
          "name": "D5",
          "velocity": 0.8818897637795275,
          "duration": 0.18437499999998863,
          "ticks": 58680,
          "durationTicks": 59
        },
        {
          "time": 187.875,
          "midi": 62,
          "name": "D4",
          "velocity": 0.8818897637795275,
          "duration": 0.18437499999998863,
          "ticks": 58680,
          "durationTicks": 59
        },
        {
          "time": 188.25,
          "midi": 69,
          "name": "A4",
          "velocity": 0.905511811023622,
          "duration": 0.18437499999998863,
          "ticks": 58800,
          "durationTicks": 59
        },
        {
          "time": 188.25,
          "midi": 81,
          "name": "A5",
          "velocity": 0.9763779527559056,
          "duration": 0.18437499999998863,
          "ticks": 58800,
          "durationTicks": 59
        },
        {
          "time": 206.571411,
          "midi": 69,
          "name": "A4",
          "velocity": 0.937007874015748,
          "duration": 0.2107140749999985,
          "ticks": 63960,
          "durationTicks": 59
        },
        {
          "time": 206.571411,
          "midi": 76,
          "name": "E5",
          "velocity": 1,
          "duration": 0.2107140749999985,
          "ticks": 63960,
          "durationTicks": 59
        },
        {
          "time": 206.999982,
          "midi": 69,
          "name": "A4",
          "velocity": 0.8503937007874016,
          "duration": 0.2107140749999985,
          "ticks": 64080,
          "durationTicks": 59
        },
        {
          "time": 206.999982,
          "midi": 81,
          "name": "A5",
          "velocity": 1,
          "duration": 0.2107140749999985,
          "ticks": 64080,
          "durationTicks": 59
        },
        {
          "time": 207.2142675,
          "midi": 69,
          "name": "A4",
          "velocity": 0.8818897637795275,
          "duration": 0.2107140749999985,
          "ticks": 64140,
          "durationTicks": 59
        },
        {
          "time": 207.2142675,
          "midi": 81,
          "name": "A5",
          "velocity": 0.905511811023622,
          "duration": 0.2107140749999985,
          "ticks": 64140,
          "durationTicks": 59
        },
        {
          "time": 207.428553,
          "midi": 78,
          "name": "F#5",
          "velocity": 1,
          "duration": 0.4249995750000153,
          "ticks": 64200,
          "durationTicks": 119
        },
        {
          "time": 207.428553,
          "midi": 81,
          "name": "A5",
          "velocity": 1,
          "duration": 0.4249995750000153,
          "ticks": 64200,
          "durationTicks": 119
        },
        {
          "time": 212.892834,
          "midi": 79,
          "name": "G5",
          "velocity": 0.9763779527559056,
          "duration": 0.3687500000000057,
          "ticks": 65640,
          "durationTicks": 59
        },
        {
          "time": 212.892834,
          "midi": 79,
          "name": "G5",
          "velocity": 0.9763779527559056,
          "duration": 0.3687500000000057,
          "ticks": 65640,
          "durationTicks": 59
        },
        {
          "time": 213.642834,
          "midi": 79,
          "name": "G5",
          "velocity": 1,
          "duration": 0.3687500000000057,
          "ticks": 65760,
          "durationTicks": 59
        },
        {
          "time": 213.642834,
          "midi": 79,
          "name": "G5",
          "velocity": 1,
          "duration": 0.3687500000000057,
          "ticks": 65760,
          "durationTicks": 59
        },
        {
          "time": 218.142834,
          "midi": 69,
          "name": "A4",
          "velocity": 0.9763779527559056,
          "duration": 0.3687500000000057,
          "ticks": 66480,
          "durationTicks": 59
        },
        {
          "time": 218.142834,
          "midi": 76,
          "name": "E5",
          "velocity": 1,
          "duration": 0.3687500000000057,
          "ticks": 66480,
          "durationTicks": 59
        },
        {
          "time": 218.892834,
          "midi": 69,
          "name": "A4",
          "velocity": 0.8267716535433071,
          "duration": 6,
          "ticks": 66600,
          "durationTicks": 1920
        },
        {
          "time": 218.892834,
          "midi": 57,
          "name": "A3",
          "velocity": 0.7401574803149606,
          "duration": 6,
          "ticks": 66600,
          "durationTicks": 1920
        },
        {
          "time": 224.892834,
          "midi": 62,
          "name": "D4",
          "velocity": 0.6771653543307087,
          "duration": 0.37187499999998863,
          "ticks": 68520,
          "durationTicks": 119
        },
        {
          "time": 224.892834,
          "midi": 69,
          "name": "A4",
          "velocity": 0.9763779527559056,
          "duration": 0.37187499999998863,
          "ticks": 68520,
          "durationTicks": 119
        },
        {
          "time": 248.892834,
          "midi": 69,
          "name": "A4",
          "velocity": 1,
          "duration": 4.875,
          "ticks": 76200,
          "durationTicks": 1560
        },
        {
          "time": 248.892834,
          "midi": 81,
          "name": "A5",
          "velocity": 1,
          "duration": 4.875,
          "ticks": 76200,
          "durationTicks": 1560
        },
        {
          "time": 253.767834,
          "midi": 79,
          "name": "G5",
          "velocity": 1,
          "duration": 0.37187499999998863,
          "ticks": 77760,
          "durationTicks": 119
        },
        {
          "time": 253.767834,
          "midi": 79,
          "name": "G5",
          "velocity": 1,
          "duration": 0.5625,
          "ticks": 77760,
          "durationTicks": 180
        },
        {
          "time": 254.142834,
          "midi": 76,
          "name": "E5",
          "velocity": 1,
          "duration": 0.18437499999998863,
          "ticks": 77880,
          "durationTicks": 59
        },
        {
          "time": 254.330334,
          "midi": 76,
          "name": "E5",
          "velocity": 1,
          "duration": 0.18437499999998863,
          "ticks": 77940,
          "durationTicks": 59
        },
        {
          "time": 254.330334,
          "midi": 69,
          "name": "A4",
          "velocity": 1,
          "duration": 0.18437499999998863,
          "ticks": 77940,
          "durationTicks": 59
        },
        {
          "time": 254.517834,
          "midi": 74,
          "name": "D5",
          "velocity": 1,
          "duration": 0.18437499999998863,
          "ticks": 78000,
          "durationTicks": 59
        },
        {
          "time": 254.517834,
          "midi": 69,
          "name": "A4",
          "velocity": 1,
          "duration": 0.18437499999998863,
          "ticks": 78000,
          "durationTicks": 59
        },
        {
          "time": 254.705334,
          "midi": 69,
          "name": "A4",
          "velocity": 1,
          "duration": 0.5625,
          "ticks": 78060,
          "durationTicks": 180
        },
        {
          "time": 254.705334,
          "midi": 57,
          "name": "A3",
          "velocity": 1,
          "duration": 0.5625,
          "ticks": 78060,
          "durationTicks": 180
        },
        {
          "time": 255.267834,
          "midi": 69,
          "name": "A4",
          "velocity": 0.8818897637795275,
          "duration": 0.7468749999999886,
          "ticks": 78240,
          "durationTicks": 239
        },
        {
          "time": 255.267834,
          "midi": 81,
          "name": "A5",
          "velocity": 0.9763779527559056,
          "duration": 0.7468749999999886,
          "ticks": 78240,
          "durationTicks": 239
        },
        {
          "time": 256.017834,
          "midi": 69,
          "name": "A4",
          "velocity": 0.937007874015748,
          "duration": 0.7468749999999886,
          "ticks": 78480,
          "durationTicks": 239
        },
        {
          "time": 256.017834,
          "midi": 81,
          "name": "A5",
          "velocity": 1,
          "duration": 0.7468749999999886,
          "ticks": 78480,
          "durationTicks": 239
        },
        {
          "time": 256.767834,
          "midi": 81,
          "name": "A5",
          "velocity": 1,
          "duration": 0.7468749999999886,
          "ticks": 78720,
          "durationTicks": 239
        },
        {
          "time": 256.767834,
          "midi": 69,
          "name": "A4",
          "velocity": 1,
          "duration": 0.37187499999998863,
          "ticks": 78720,
          "durationTicks": 119
        },
        {
          "time": 257.142834,
          "midi": 74,
          "name": "D5",
          "velocity": 1,
          "duration": 0.37187499999998863,
          "ticks": 78840,
          "durationTicks": 119
        },
        {
          "time": 257.517834,
          "midi": 76,
          "name": "E5",
          "velocity": 1,
          "duration": 0.18437499999998863,
          "ticks": 78960,
          "durationTicks": 59
        },
        {
          "time": 257.517834,
          "midi": 79,
          "name": "G5",
          "velocity": 1,
          "duration": 0.18437499999998863,
          "ticks": 78960,
          "durationTicks": 59
        },
        {
          "time": 257.705334,
          "midi": 81,
          "name": "A5",
          "velocity": 1,
          "duration": 0.5625,
          "ticks": 79020,
          "durationTicks": 180
        },
        {
          "time": 257.705334,
          "midi": 69,
          "name": "A4",
          "velocity": 1,
          "duration": 0.5625,
          "ticks": 79020,
          "durationTicks": 180
        },
        {
          "time": 258.267834,
          "midi": 81,
          "name": "A5",
          "velocity": 1,
          "duration": 0.7468749999999886,
          "ticks": 79200,
          "durationTicks": 239
        },
        {
          "time": 258.267834,
          "midi": 69,
          "name": "A4",
          "velocity": 1,
          "duration": 0.7468749999999886,
          "ticks": 79200,
          "durationTicks": 239
        },
        {
          "time": 259.017834,
          "midi": 81,
          "name": "A5",
          "velocity": 1,
          "duration": 0.75,
          "ticks": 79440,
          "durationTicks": 240
        },
        {
          "time": 259.017834,
          "midi": 69,
          "name": "A4",
          "velocity": 0.937007874015748,
          "duration": 0.75,
          "ticks": 79440,
          "durationTicks": 240
        },
        {
          "time": 259.955334,
          "midi": 74,
          "name": "D5",
          "velocity": 1,
          "duration": 0.18437499999998863,
          "ticks": 79740,
          "durationTicks": 59
        },
        {
          "time": 259.955334,
          "midi": 62,
          "name": "D4",
          "velocity": 0.9763779527559056,
          "duration": 0.18437499999998863,
          "ticks": 79740,
          "durationTicks": 59
        },
        {
          "time": 260.142834,
          "midi": 74,
          "name": "D5",
          "velocity": 1,
          "duration": 0.37187499999998863,
          "ticks": 79800,
          "durationTicks": 119
        },
        {
          "time": 260.142834,
          "midi": 62,
          "name": "D4",
          "velocity": 1,
          "duration": 0.37187499999998863,
          "ticks": 79800,
          "durationTicks": 119
        },
        {
          "time": 260.517834,
          "midi": 81,
          "name": "A5",
          "velocity": 1,
          "duration": 0.37187499999998863,
          "ticks": 79920,
          "durationTicks": 119
        },
        {
          "time": 260.517834,
          "midi": 81,
          "name": "A5",
          "velocity": 1,
          "duration": 0.37187499999998863,
          "ticks": 79920,
          "durationTicks": 119
        },
        {
          "time": 260.892834,
          "midi": 79,
          "name": "G5",
          "velocity": 1,
          "duration": 0.5593749999999886,
          "ticks": 80040,
          "durationTicks": 179
        },
        {
          "time": 260.892834,
          "midi": 79,
          "name": "G5",
          "velocity": 1,
          "duration": 0.5593749999999886,
          "ticks": 80040,
          "durationTicks": 179
        },
        {
          "time": 261.455334,
          "midi": 78,
          "name": "F#5",
          "velocity": 1,
          "duration": 0.18437499999998863,
          "ticks": 80220,
          "durationTicks": 59
        },
        {
          "time": 261.455334,
          "midi": 78,
          "name": "F#5",
          "velocity": 1,
          "duration": 0.18437499999998863,
          "ticks": 80220,
          "durationTicks": 59
        },
        {
          "time": 261.642834,
          "midi": 78,
          "name": "F#5",
          "velocity": 1,
          "duration": 0.37187499999998863,
          "ticks": 80280,
          "durationTicks": 119
        },
        {
          "time": 261.642834,
          "midi": 78,
          "name": "F#5",
          "velocity": 1,
          "duration": 0.37187499999998863,
          "ticks": 80280,
          "durationTicks": 119
        },
        {
          "time": 262.017834,
          "midi": 78,
          "name": "F#5",
          "velocity": 1,
          "duration": 0.37187499999998863,
          "ticks": 80400,
          "durationTicks": 119
        },
        {
          "time": 262.017834,
          "midi": 74,
          "name": "D5",
          "velocity": 1,
          "duration": 0.37187499999998863,
          "ticks": 80400,
          "durationTicks": 119
        },
        {
          "time": 262.392834,
          "midi": 78,
          "name": "F#5",
          "velocity": 1,
          "duration": 0.5593749999999886,
          "ticks": 80520,
          "durationTicks": 179
        },
        {
          "time": 262.392834,
          "midi": 74,
          "name": "D5",
          "velocity": 1,
          "duration": 0.5593749999999886,
          "ticks": 80520,
          "durationTicks": 179
        },
        {
          "time": 262.955334,
          "midi": 79,
          "name": "G5",
          "velocity": 0.8818897637795275,
          "duration": 0.18437499999998863,
          "ticks": 80700,
          "durationTicks": 59
        },
        {
          "time": 262.955334,
          "midi": 74,
          "name": "D5",
          "velocity": 0.9763779527559056,
          "duration": 0.18437499999998863,
          "ticks": 80700,
          "durationTicks": 59
        },
        {
          "time": 263.142834,
          "midi": 79,
          "name": "G5",
          "velocity": 0.937007874015748,
          "duration": 0.37187499999998863,
          "ticks": 80760,
          "durationTicks": 119
        },
        {
          "time": 263.142834,
          "midi": 74,
          "name": "D5",
          "velocity": 0.937007874015748,
          "duration": 0.37187499999998863,
          "ticks": 80760,
          "durationTicks": 119
        },
        {
          "time": 263.517834,
          "midi": 76,
          "name": "E5",
          "velocity": 1,
          "duration": 0.37187499999998863,
          "ticks": 80880,
          "durationTicks": 119
        },
        {
          "time": 263.517834,
          "midi": 79,
          "name": "G5",
          "velocity": 1,
          "duration": 0.37187499999998863,
          "ticks": 80880,
          "durationTicks": 119
        },
        {
          "time": 263.892834,
          "midi": 76,
          "name": "E5",
          "velocity": 1,
          "duration": 1.4968749999999886,
          "ticks": 81000,
          "durationTicks": 479
        },
        {
          "time": 263.892834,
          "midi": 79,
          "name": "G5",
          "velocity": 1,
          "duration": 1.4968749999999886,
          "ticks": 81000,
          "durationTicks": 479
        },
        {
          "time": 265.392834,
          "midi": 74,
          "name": "D5",
          "velocity": 1,
          "duration": 0.37187499999998863,
          "ticks": 81480,
          "durationTicks": 119
        },
        {
          "time": 265.392834,
          "midi": 78,
          "name": "F#5",
          "velocity": 1,
          "duration": 0.37187499999998863,
          "ticks": 81480,
          "durationTicks": 119
        },
        {
          "time": 265.955334,
          "midi": 69,
          "name": "A4",
          "velocity": 0.9763779527559056,
          "duration": 0.18437499999998863,
          "ticks": 81660,
          "durationTicks": 59
        },
        {
          "time": 265.955334,
          "midi": 81,
          "name": "A5",
          "velocity": 1,
          "duration": 0.18437499999998863,
          "ticks": 81660,
          "durationTicks": 59
        },
        {
          "time": 266.142834,
          "midi": 62,
          "name": "D4",
          "velocity": 0.905511811023622,
          "duration": 0.18437499999998863,
          "ticks": 81720,
          "durationTicks": 59
        },
        {
          "time": 266.142834,
          "midi": 74,
          "name": "D5",
          "velocity": 0.937007874015748,
          "duration": 0.18437499999998863,
          "ticks": 81720,
          "durationTicks": 59
        },
        {
          "time": 266.330334,
          "midi": 81,
          "name": "A5",
          "velocity": 1,
          "duration": 0.18437499999998863,
          "ticks": 81780,
          "durationTicks": 59
        },
        {
          "time": 266.330334,
          "midi": 78,
          "name": "F#5",
          "velocity": 1,
          "duration": 0.18437499999998863,
          "ticks": 81780,
          "durationTicks": 59
        },
        {
          "time": 266.517834,
          "midi": 79,
          "name": "G5",
          "velocity": 1,
          "duration": 0.18437499999998863,
          "ticks": 81840,
          "durationTicks": 59
        },
        {
          "time": 266.517834,
          "midi": 76,
          "name": "E5",
          "velocity": 0.8267716535433071,
          "duration": 0.18437499999998863,
          "ticks": 81840,
          "durationTicks": 59
        },
        {
          "time": 266.705334,
          "midi": 69,
          "name": "A4",
          "velocity": 0.8818897637795275,
          "duration": 0.18437499999998863,
          "ticks": 81900,
          "durationTicks": 59
        },
        {
          "time": 266.705334,
          "midi": 76,
          "name": "E5",
          "velocity": 1,
          "duration": 0.18437499999998863,
          "ticks": 81900,
          "durationTicks": 59
        },
        {
          "time": 266.892834,
          "midi": 66,
          "name": "F#4",
          "velocity": 0.905511811023622,
          "duration": 0.37187499999998863,
          "ticks": 81960,
          "durationTicks": 119
        },
        {
          "time": 266.892834,
          "midi": 74,
          "name": "D5",
          "velocity": 1,
          "duration": 0.37187499999998863,
          "ticks": 81960,
          "durationTicks": 119
        },
        {
          "time": 267.267834,
          "midi": 74,
          "name": "D5",
          "velocity": 0.9763779527559056,
          "duration": 0.37187499999998863,
          "ticks": 82080,
          "durationTicks": 119
        },
        {
          "time": 267.267834,
          "midi": 78,
          "name": "F#5",
          "velocity": 1,
          "duration": 0.37187499999998863,
          "ticks": 82080,
          "durationTicks": 119
        },
        {
          "time": 268.017834,
          "midi": 78,
          "name": "F#5",
          "velocity": 1,
          "duration": 0.37187499999998863,
          "ticks": 82320,
          "durationTicks": 119
        },
        {
          "time": 268.017834,
          "midi": 81,
          "name": "A5",
          "velocity": 0.8503937007874016,
          "duration": 0.37187499999998863,
          "ticks": 82320,
          "durationTicks": 119
        },
        {
          "time": 268.767834,
          "midi": 76,
          "name": "E5",
          "velocity": 1,
          "duration": 0.37187499999998863,
          "ticks": 82560,
          "durationTicks": 119
        },
        {
          "time": 268.767834,
          "midi": 79,
          "name": "G5",
          "velocity": 1,
          "duration": 0.37187499999998863,
          "ticks": 82560,
          "durationTicks": 119
        },
        {
          "time": 269.517834,
          "midi": 69,
          "name": "A4",
          "velocity": 0.7244094488188977,
          "duration": 0.37187499999998863,
          "ticks": 82800,
          "durationTicks": 119
        },
        {
          "time": 269.517834,
          "midi": 76,
          "name": "E5",
          "velocity": 1,
          "duration": 0.37187499999998863,
          "ticks": 82800,
          "durationTicks": 119
        },
        {
          "time": 270.267834,
          "midi": 66,
          "name": "F#4",
          "velocity": 0.8503937007874016,
          "duration": 0.37187499999998863,
          "ticks": 83040,
          "durationTicks": 119
        },
        {
          "time": 270.267834,
          "midi": 74,
          "name": "D5",
          "velocity": 1,
          "duration": 0.37187499999998863,
          "ticks": 83040,
          "durationTicks": 119
        },
        {
          "time": 271.017834,
          "midi": 74,
          "name": "D5",
          "velocity": 0.9763779527559056,
          "duration": 0.37187499999998863,
          "ticks": 83280,
          "durationTicks": 119
        },
        {
          "time": 271.017834,
          "midi": 78,
          "name": "F#5",
          "velocity": 1,
          "duration": 0.37187499999998863,
          "ticks": 83280,
          "durationTicks": 119
        },
        {
          "time": 271.767834,
          "midi": 69,
          "name": "A4",
          "velocity": 0.8503937007874016,
          "duration": 0.37187499999998863,
          "ticks": 83520,
          "durationTicks": 119
        },
        {
          "time": 271.767834,
          "midi": 76,
          "name": "E5",
          "velocity": 1,
          "duration": 0.37187499999998863,
          "ticks": 83520,
          "durationTicks": 119
        },
        {
          "time": 272.517834,
          "midi": 69,
          "name": "A4",
          "velocity": 0.8818897637795275,
          "duration": 0.37187499999998863,
          "ticks": 83760,
          "durationTicks": 119
        },
        {
          "time": 272.517834,
          "midi": 76,
          "name": "E5",
          "velocity": 1,
          "duration": 0.37187499999998863,
          "ticks": 83760,
          "durationTicks": 119
        },
        {
          "time": 272.892834,
          "midi": 66,
          "name": "F#4",
          "velocity": 0.905511811023622,
          "duration": 0.37187499999998863,
          "ticks": 83880,
          "durationTicks": 119
        },
        {
          "time": 272.892834,
          "midi": 74,
          "name": "D5",
          "velocity": 1,
          "duration": 0.37187499999998863,
          "ticks": 83880,
          "durationTicks": 119
        },
        {
          "time": 273.267834,
          "midi": 74,
          "name": "D5",
          "velocity": 0.9763779527559056,
          "duration": 0.37187499999998863,
          "ticks": 84000,
          "durationTicks": 119
        },
        {
          "time": 273.267834,
          "midi": 78,
          "name": "F#5",
          "velocity": 1,
          "duration": 0.37187499999998863,
          "ticks": 84000,
          "durationTicks": 119
        },
        {
          "time": 274.017834,
          "midi": 78,
          "name": "F#5",
          "velocity": 1,
          "duration": 0.37187499999998863,
          "ticks": 84240,
          "durationTicks": 119
        },
        {
          "time": 274.017834,
          "midi": 81,
          "name": "A5",
          "velocity": 0.8503937007874016,
          "duration": 0.37187499999998863,
          "ticks": 84240,
          "durationTicks": 119
        },
        {
          "time": 274.767834,
          "midi": 76,
          "name": "E5",
          "velocity": 1,
          "duration": 0.37187499999998863,
          "ticks": 84480,
          "durationTicks": 119
        },
        {
          "time": 274.767834,
          "midi": 79,
          "name": "G5",
          "velocity": 1,
          "duration": 0.37187499999998863,
          "ticks": 84480,
          "durationTicks": 119
        },
        {
          "time": 275.517834,
          "midi": 69,
          "name": "A4",
          "velocity": 0.7244094488188977,
          "duration": 0.37187499999998863,
          "ticks": 84720,
          "durationTicks": 119
        },
        {
          "time": 275.517834,
          "midi": 76,
          "name": "E5",
          "velocity": 1,
          "duration": 0.37187499999998863,
          "ticks": 84720,
          "durationTicks": 119
        },
        {
          "time": 276.267834,
          "midi": 66,
          "name": "F#4",
          "velocity": 0.8503937007874016,
          "duration": 0.37187499999998863,
          "ticks": 84960,
          "durationTicks": 119
        },
        {
          "time": 276.267834,
          "midi": 74,
          "name": "D5",
          "velocity": 1,
          "duration": 0.37187499999998863,
          "ticks": 84960,
          "durationTicks": 119
        },
        {
          "time": 277.017834,
          "midi": 74,
          "name": "D5",
          "velocity": 0.9763779527559056,
          "duration": 0.37187499999998863,
          "ticks": 85200,
          "durationTicks": 119
        },
        {
          "time": 277.017834,
          "midi": 78,
          "name": "F#5",
          "velocity": 1,
          "duration": 0.37187499999998863,
          "ticks": 85200,
          "durationTicks": 119
        },
        {
          "time": 277.767834,
          "midi": 69,
          "name": "A4",
          "velocity": 0.8503937007874016,
          "duration": 0.37187499999998863,
          "ticks": 85440,
          "durationTicks": 119
        },
        {
          "time": 277.767834,
          "midi": 76,
          "name": "E5",
          "velocity": 1,
          "duration": 0.37187499999998863,
          "ticks": 85440,
          "durationTicks": 119
        },
        {
          "time": 278.142834,
          "midi": 66,
          "name": "F#4",
          "velocity": 0.8031496062992126,
          "duration": 0.18437499999998863,
          "ticks": 85560,
          "durationTicks": 59
        },
        {
          "time": 278.142834,
          "midi": 74,
          "name": "D5",
          "velocity": 0.905511811023622,
          "duration": 0.18437499999998863,
          "ticks": 85560,
          "durationTicks": 59
        },
        {
          "time": 279.267834,
          "midi": 69,
          "name": "A4",
          "velocity": 0.937007874015748,
          "duration": 0.37187499999998863,
          "ticks": 85920,
          "durationTicks": 119
        },
        {
          "time": 279.267834,
          "midi": 76,
          "name": "E5",
          "velocity": 1,
          "duration": 0.37187499999998863,
          "ticks": 85920,
          "durationTicks": 119
        },
        {
          "time": 280.017834,
          "midi": 74,
          "name": "D5",
          "velocity": 1,
          "duration": 0.37187499999998863,
          "ticks": 86160,
          "durationTicks": 119
        },
        {
          "time": 280.017834,
          "midi": 78,
          "name": "F#5",
          "velocity": 0.9763779527559056,
          "duration": 0.37187499999998863,
          "ticks": 86160,
          "durationTicks": 119
        },
        {
          "time": 280.767834,
          "midi": 69,
          "name": "A4",
          "velocity": 0.937007874015748,
          "duration": 0.37187499999998863,
          "ticks": 86400,
          "durationTicks": 119
        },
        {
          "time": 280.767834,
          "midi": 76,
          "name": "E5",
          "velocity": 1,
          "duration": 0.37187499999998863,
          "ticks": 86400,
          "durationTicks": 119
        },
        {
          "time": 281.517834,
          "midi": 74,
          "name": "D5",
          "velocity": 1,
          "duration": 0.37187499999998863,
          "ticks": 86640,
          "durationTicks": 119
        },
        {
          "time": 281.517834,
          "midi": 78,
          "name": "F#5",
          "velocity": 0.9763779527559056,
          "duration": 0.37187499999998863,
          "ticks": 86640,
          "durationTicks": 119
        },
        {
          "time": 282.267834,
          "midi": 69,
          "name": "A4",
          "velocity": 0.937007874015748,
          "duration": 0.37187499999998863,
          "ticks": 86880,
          "durationTicks": 119
        },
        {
          "time": 282.267834,
          "midi": 76,
          "name": "E5",
          "velocity": 1,
          "duration": 0.37187499999998863,
          "ticks": 86880,
          "durationTicks": 119
        },
        {
          "time": 283.017834,
          "midi": 66,
          "name": "F#4",
          "velocity": 1,
          "duration": 0.37187499999998863,
          "ticks": 87120,
          "durationTicks": 119
        },
        {
          "time": 283.017834,
          "midi": 78,
          "name": "F#5",
          "velocity": 0.9763779527559056,
          "duration": 0.37187499999998863,
          "ticks": 87120,
          "durationTicks": 119
        },
        {
          "time": 283.767834,
          "midi": 76,
          "name": "E5",
          "velocity": 0.937007874015748,
          "duration": 0.37187499999998863,
          "ticks": 87360,
          "durationTicks": 119
        },
        {
          "time": 283.767834,
          "midi": 76,
          "name": "E5",
          "velocity": 1,
          "duration": 0.37187499999998863,
          "ticks": 87360,
          "durationTicks": 119
        },
        {
          "time": 284.517834,
          "midi": 66,
          "name": "F#4",
          "velocity": 0.9763779527559056,
          "duration": 0.37187499999998863,
          "ticks": 87600,
          "durationTicks": 119
        },
        {
          "time": 284.517834,
          "midi": 74,
          "name": "D5",
          "velocity": 1,
          "duration": 0.37187499999998863,
          "ticks": 87600,
          "durationTicks": 119
        },
        {
          "time": 285.267834,
          "midi": 74,
          "name": "D5",
          "velocity": 0.937007874015748,
          "duration": 0.37187499999998863,
          "ticks": 87840,
          "durationTicks": 119
        },
        {
          "time": 285.267834,
          "midi": 78,
          "name": "F#5",
          "velocity": 1,
          "duration": 0.37187499999998863,
          "ticks": 87840,
          "durationTicks": 119
        },
        {
          "time": 286.014709,
          "midi": 78,
          "name": "F#5",
          "velocity": 0.9763779527559056,
          "duration": 0.37187499999998863,
          "ticks": 88079,
          "durationTicks": 119
        },
        {
          "time": 286.017834,
          "midi": 81,
          "name": "A5",
          "velocity": 1,
          "duration": 0.37187499999998863,
          "ticks": 88080,
          "durationTicks": 119
        },
        {
          "time": 286.764709,
          "midi": 76,
          "name": "E5",
          "velocity": 1,
          "duration": 0.37187499999998863,
          "ticks": 88319,
          "durationTicks": 119
        },
        {
          "time": 286.767834,
          "midi": 79,
          "name": "G5",
          "velocity": 0.937007874015748,
          "duration": 0.37187499999998863,
          "ticks": 88320,
          "durationTicks": 119
        },
        {
          "time": 287.517834,
          "midi": 76,
          "name": "E5",
          "velocity": 0.9763779527559056,
          "duration": 0.37187499999998863,
          "ticks": 88560,
          "durationTicks": 119
        },
        {
          "time": 287.517834,
          "midi": 69,
          "name": "A4",
          "velocity": 1,
          "duration": 0.37187499999998863,
          "ticks": 88560,
          "durationTicks": 119
        },
        {
          "time": 288.267834,
          "midi": 66,
          "name": "F#4",
          "velocity": 0.937007874015748,
          "duration": 0.37187499999998863,
          "ticks": 88800,
          "durationTicks": 119
        },
        {
          "time": 288.267834,
          "midi": 74,
          "name": "D5",
          "velocity": 1,
          "duration": 0.37187499999998863,
          "ticks": 88800,
          "durationTicks": 119
        },
        {
          "time": 289.014709,
          "midi": 74,
          "name": "D5",
          "velocity": 1,
          "duration": 0.37187499999998863,
          "ticks": 89039,
          "durationTicks": 119
        },
        {
          "time": 289.014709,
          "midi": 78,
          "name": "F#5",
          "velocity": 0.9763779527559056,
          "duration": 0.37187499999998863,
          "ticks": 89039,
          "durationTicks": 119
        },
        {
          "time": 289.764709,
          "midi": 69,
          "name": "A4",
          "velocity": 0.937007874015748,
          "duration": 0.37187499999998863,
          "ticks": 89279,
          "durationTicks": 119
        },
        {
          "time": 289.764709,
          "midi": 76,
          "name": "E5",
          "velocity": 1,
          "duration": 0.37187499999998863,
          "ticks": 89279,
          "durationTicks": 119
        },
        {
          "time": 290.514709,
          "midi": 74,
          "name": "D5",
          "velocity": 1,
          "duration": 0.37187499999998863,
          "ticks": 89519,
          "durationTicks": 119
        },
        {
          "time": 290.517834,
          "midi": 66,
          "name": "F#4",
          "velocity": 0.9763779527559056,
          "duration": 0.37187499999998863,
          "ticks": 89520,
          "durationTicks": 119
        },
        {
          "time": 290.892834,
          "midi": 69,
          "name": "A4",
          "velocity": 0.937007874015748,
          "duration": 0.37187499999998863,
          "ticks": 89640,
          "durationTicks": 119
        },
        {
          "time": 290.892834,
          "midi": 76,
          "name": "E5",
          "velocity": 1,
          "duration": 0.37187499999998863,
          "ticks": 89640,
          "durationTicks": 119
        },
        {
          "time": 291.267834,
          "midi": 69,
          "name": "A4",
          "velocity": 0.9763779527559056,
          "duration": 0.37187499999998863,
          "ticks": 89760,
          "durationTicks": 119
        },
        {
          "time": 291.267834,
          "midi": 76,
          "name": "E5",
          "velocity": 1,
          "duration": 0.37187499999998863,
          "ticks": 89760,
          "durationTicks": 119
        },
        {
          "time": 291.642834,
          "midi": 78,
          "name": "F#5",
          "velocity": 0.9763779527559056,
          "duration": 0.37187499999998863,
          "ticks": 89880,
          "durationTicks": 119
        },
        {
          "time": 291.642834,
          "midi": 74,
          "name": "D5",
          "velocity": 1,
          "duration": 0.37187499999998863,
          "ticks": 89880,
          "durationTicks": 119
        },
        {
          "time": 292.017834,
          "midi": 66,
          "name": "F#4",
          "velocity": 0.8818897637795275,
          "duration": 0.37187499999998863,
          "ticks": 90000,
          "durationTicks": 119
        },
        {
          "time": 292.017834,
          "midi": 74,
          "name": "D5",
          "velocity": 1,
          "duration": 0.37187499999998863,
          "ticks": 90000,
          "durationTicks": 119
        },
        {
          "time": 292.392834,
          "midi": 69,
          "name": "A4",
          "velocity": 0.9763779527559056,
          "duration": 0.37187499999998863,
          "ticks": 90120,
          "durationTicks": 119
        },
        {
          "time": 292.392834,
          "midi": 76,
          "name": "E5",
          "velocity": 1,
          "duration": 0.37187499999998863,
          "ticks": 90120,
          "durationTicks": 119
        },
        {
          "time": 292.767834,
          "midi": 78,
          "name": "F#5",
          "velocity": 1,
          "duration": 0.18437499999998863,
          "ticks": 90240,
          "durationTicks": 59
        },
        {
          "time": 292.767834,
          "midi": 74,
          "name": "D5",
          "velocity": 1,
          "duration": 0.18437499999998863,
          "ticks": 90240,
          "durationTicks": 59
        },
        {
          "time": 292.955334,
          "midi": 76,
          "name": "E5",
          "velocity": 1,
          "duration": 0.18437499999998863,
          "ticks": 90300,
          "durationTicks": 59
        },
        {
          "time": 292.955334,
          "midi": 79,
          "name": "G5",
          "velocity": 1,
          "duration": 0.18437499999998863,
          "ticks": 90300,
          "durationTicks": 59
        },
        {
          "time": 293.142834,
          "midi": 78,
          "name": "F#5",
          "velocity": 1,
          "duration": 0.37187499999998863,
          "ticks": 90360,
          "durationTicks": 119
        },
        {
          "time": 293.142834,
          "midi": 74,
          "name": "D5",
          "velocity": 1,
          "duration": 0.37187499999998863,
          "ticks": 90360,
          "durationTicks": 119
        },
        {
          "time": 293.517834,
          "midi": 62,
          "name": "D4",
          "velocity": 1,
          "duration": 0.37187499999998863,
          "ticks": 90480,
          "durationTicks": 119
        },
        {
          "time": 293.517834,
          "midi": 74,
          "name": "D5",
          "velocity": 1,
          "duration": 0.37187499999998863,
          "ticks": 90480,
          "durationTicks": 119
        },
        {
          "time": 293.892834,
          "midi": 69,
          "name": "A4",
          "velocity": 0.9763779527559056,
          "duration": 0.37187499999998863,
          "ticks": 90600,
          "durationTicks": 119
        },
        {
          "time": 293.892834,
          "midi": 76,
          "name": "E5",
          "velocity": 1,
          "duration": 0.37187499999998863,
          "ticks": 90600,
          "durationTicks": 119
        },
        {
          "time": 294.267834,
          "midi": 78,
          "name": "F#5",
          "velocity": 1,
          "duration": 0.18437499999998863,
          "ticks": 90720,
          "durationTicks": 59
        },
        {
          "time": 294.267834,
          "midi": 74,
          "name": "D5",
          "velocity": 1,
          "duration": 0.18437499999998863,
          "ticks": 90720,
          "durationTicks": 59
        },
        {
          "time": 294.455334,
          "midi": 76,
          "name": "E5",
          "velocity": 1,
          "duration": 0.18437499999998863,
          "ticks": 90780,
          "durationTicks": 59
        },
        {
          "time": 294.455334,
          "midi": 79,
          "name": "G5",
          "velocity": 1,
          "duration": 0.18437499999998863,
          "ticks": 90780,
          "durationTicks": 59
        },
        {
          "time": 294.642834,
          "midi": 66,
          "name": "F#4",
          "velocity": 0.937007874015748,
          "duration": 0.37187499999998863,
          "ticks": 90840,
          "durationTicks": 119
        },
        {
          "time": 294.642834,
          "midi": 78,
          "name": "F#5",
          "velocity": 0.937007874015748,
          "duration": 0.37187499999998863,
          "ticks": 90840,
          "durationTicks": 119
        },
        {
          "time": 295.017834,
          "midi": 66,
          "name": "F#4",
          "velocity": 0.9763779527559056,
          "duration": 0.37187499999998863,
          "ticks": 90960,
          "durationTicks": 119
        },
        {
          "time": 295.017834,
          "midi": 78,
          "name": "F#5",
          "velocity": 1,
          "duration": 0.37187499999998863,
          "ticks": 90960,
          "durationTicks": 119
        },
        {
          "time": 295.392834,
          "midi": 66,
          "name": "F#4",
          "velocity": 1,
          "duration": 0.37187499999998863,
          "ticks": 91080,
          "durationTicks": 119
        },
        {
          "time": 295.392834,
          "midi": 78,
          "name": "F#5",
          "velocity": 1,
          "duration": 0.37187499999998863,
          "ticks": 91080,
          "durationTicks": 119
        },
        {
          "time": 295.767834,
          "midi": 76,
          "name": "E5",
          "velocity": 1,
          "duration": 0.37187499999998863,
          "ticks": 91200,
          "durationTicks": 119
        },
        {
          "time": 295.767834,
          "midi": 76,
          "name": "E5",
          "velocity": 0.9763779527559056,
          "duration": 0.37187499999998863,
          "ticks": 91200,
          "durationTicks": 119
        },
        {
          "time": 296.142834,
          "midi": 69,
          "name": "A4",
          "velocity": 1,
          "duration": 0.37187499999998863,
          "ticks": 91320,
          "durationTicks": 119
        },
        {
          "time": 296.142834,
          "midi": 69,
          "name": "A4",
          "velocity": 1,
          "duration": 0.37187499999998863,
          "ticks": 91320,
          "durationTicks": 119
        },
        {
          "time": 296.517834,
          "midi": 78,
          "name": "F#5",
          "velocity": 1,
          "duration": 0.7468749999999886,
          "ticks": 91440,
          "durationTicks": 239
        },
        {
          "time": 296.517834,
          "midi": 74,
          "name": "D5",
          "velocity": 1,
          "duration": 0.7468749999999886,
          "ticks": 91440,
          "durationTicks": 239
        },
        {
          "time": 297.267834,
          "midi": 74,
          "name": "D5",
          "velocity": 0.9763779527559056,
          "duration": 0.37187499999998863,
          "ticks": 91680,
          "durationTicks": 119
        },
        {
          "time": 297.267834,
          "midi": 78,
          "name": "F#5",
          "velocity": 1,
          "duration": 0.37187499999998863,
          "ticks": 91680,
          "durationTicks": 119
        },
        {
          "time": 297.642834,
          "midi": 76,
          "name": "E5",
          "velocity": 0.9291338582677166,
          "duration": 0.37187499999998863,
          "ticks": 91800,
          "durationTicks": 119
        },
        {
          "time": 297.642834,
          "midi": 79,
          "name": "G5",
          "velocity": 0.9291338582677166,
          "duration": 0.37187499999998863,
          "ticks": 91800,
          "durationTicks": 119
        },
        {
          "time": 298.017834,
          "midi": 81,
          "name": "A5",
          "velocity": 0.905511811023622,
          "duration": 0.37187499999998863,
          "ticks": 91920,
          "durationTicks": 119
        },
        {
          "time": 298.017834,
          "midi": 78,
          "name": "F#5",
          "velocity": 0.905511811023622,
          "duration": 0.37187499999998863,
          "ticks": 91920,
          "durationTicks": 119
        },
        {
          "time": 298.392834,
          "midi": 81,
          "name": "A5",
          "velocity": 0.8976377952755905,
          "duration": 0.37187499999998863,
          "ticks": 92040,
          "durationTicks": 119
        },
        {
          "time": 298.392834,
          "midi": 78,
          "name": "F#5",
          "velocity": 0.8976377952755905,
          "duration": 0.37187499999998863,
          "ticks": 92040,
          "durationTicks": 119
        },
        {
          "time": 298.767834,
          "midi": 79,
          "name": "G5",
          "velocity": 0.8582677165354331,
          "duration": 0.37187499999998863,
          "ticks": 92160,
          "durationTicks": 119
        },
        {
          "time": 298.767834,
          "midi": 76,
          "name": "E5",
          "velocity": 0.8582677165354331,
          "duration": 0.37187499999998863,
          "ticks": 92160,
          "durationTicks": 119
        },
        {
          "time": 299.142834,
          "midi": 74,
          "name": "D5",
          "velocity": 0.84251968503937,
          "duration": 0.37187499999998863,
          "ticks": 92280,
          "durationTicks": 119
        },
        {
          "time": 299.142834,
          "midi": 78,
          "name": "F#5",
          "velocity": 0.84251968503937,
          "duration": 0.37187499999998863,
          "ticks": 92280,
          "durationTicks": 119
        },
        {
          "time": 299.517834,
          "midi": 76,
          "name": "E5",
          "velocity": 0.8110236220472441,
          "duration": 0.37187499999998863,
          "ticks": 92400,
          "durationTicks": 119
        },
        {
          "time": 299.517834,
          "midi": 69,
          "name": "A4",
          "velocity": 0.8110236220472441,
          "duration": 0.37187499999998863,
          "ticks": 92400,
          "durationTicks": 119
        },
        {
          "time": 299.892834,
          "midi": 66,
          "name": "F#4",
          "velocity": 0.7952755905511811,
          "duration": 0.37187499999998863,
          "ticks": 92520,
          "durationTicks": 119
        },
        {
          "time": 299.892834,
          "midi": 74,
          "name": "D5",
          "velocity": 0.7952755905511811,
          "duration": 0.37187499999998863,
          "ticks": 92520,
          "durationTicks": 119
        },
        {
          "time": 300.267834,
          "midi": 66,
          "name": "F#4",
          "velocity": 0.7795275590551181,
          "duration": 0.37187499999998863,
          "ticks": 92640,
          "durationTicks": 119
        },
        {
          "time": 300.267834,
          "midi": 74,
          "name": "D5",
          "velocity": 0.7795275590551181,
          "duration": 0.37187499999998863,
          "ticks": 92640,
          "durationTicks": 119
        },
        {
          "time": 300.642834,
          "midi": 76,
          "name": "E5",
          "velocity": 0.7637795275590551,
          "duration": 0.37187499999998863,
          "ticks": 92760,
          "durationTicks": 119
        },
        {
          "time": 300.642834,
          "midi": 69,
          "name": "A4",
          "velocity": 0.7637795275590551,
          "duration": 0.37187499999998863,
          "ticks": 92760,
          "durationTicks": 119
        },
        {
          "time": 301.017834,
          "midi": 74,
          "name": "D5",
          "velocity": 0.7401574803149606,
          "duration": 0.37187499999998863,
          "ticks": 92880,
          "durationTicks": 119
        },
        {
          "time": 301.017834,
          "midi": 78,
          "name": "F#5",
          "velocity": 0.7401574803149606,
          "duration": 0.37187499999998863,
          "ticks": 92880,
          "durationTicks": 119
        },
        {
          "time": 301.392834,
          "midi": 69,
          "name": "A4",
          "velocity": 0.7244094488188977,
          "duration": 0.5593749999999886,
          "ticks": 93000,
          "durationTicks": 179
        },
        {
          "time": 301.392834,
          "midi": 76,
          "name": "E5",
          "velocity": 0.7244094488188977,
          "duration": 0.5593749999999886,
          "ticks": 93000,
          "durationTicks": 179
        },
        {
          "time": 301.955334,
          "midi": 66,
          "name": "F#4",
          "velocity": 0.7086614173228346,
          "duration": 0.18437499999998863,
          "ticks": 93180,
          "durationTicks": 59
        },
        {
          "time": 301.955334,
          "midi": 74,
          "name": "D5",
          "velocity": 0.7086614173228346,
          "duration": 0.18437499999998863,
          "ticks": 93180,
          "durationTicks": 59
        },
        {
          "time": 302.142834,
          "midi": 66,
          "name": "F#4",
          "velocity": 0.7086614173228346,
          "duration": 0.37187499999998863,
          "ticks": 93240,
          "durationTicks": 119
        },
        {
          "time": 302.142834,
          "midi": 74,
          "name": "D5",
          "velocity": 0.7086614173228346,
          "duration": 0.37187499999998863,
          "ticks": 93240,
          "durationTicks": 119
        },
        {
          "time": 302.517834,
          "midi": 81,
          "name": "A5",
          "velocity": 0.7086614173228346,
          "duration": 0.37187499999998863,
          "ticks": 93360,
          "durationTicks": 119
        },
        {
          "time": 302.517834,
          "midi": 78,
          "name": "F#5",
          "velocity": 0.7086614173228346,
          "duration": 0.37187499999998863,
          "ticks": 93360,
          "durationTicks": 119
        },
        {
          "time": 302.892834,
          "midi": 79,
          "name": "G5",
          "velocity": 0.7086614173228346,
          "duration": 0.5593749999999886,
          "ticks": 93480,
          "durationTicks": 179
        },
        {
          "time": 302.892834,
          "midi": 76,
          "name": "E5",
          "velocity": 0.7086614173228346,
          "duration": 0.5593749999999886,
          "ticks": 93480,
          "durationTicks": 179
        },
        {
          "time": 303.455334,
          "midi": 78,
          "name": "F#5",
          "velocity": 0.7086614173228346,
          "duration": 0.18437499999998863,
          "ticks": 93660,
          "durationTicks": 59
        },
        {
          "time": 303.455334,
          "midi": 74,
          "name": "D5",
          "velocity": 0.7086614173228346,
          "duration": 0.18437499999998863,
          "ticks": 93660,
          "durationTicks": 59
        },
        {
          "time": 303.642834,
          "midi": 74,
          "name": "D5",
          "velocity": 0.7165354330708661,
          "duration": 0.37187499999998863,
          "ticks": 93720,
          "durationTicks": 119
        },
        {
          "time": 303.642834,
          "midi": 78,
          "name": "F#5",
          "velocity": 0.7165354330708661,
          "duration": 0.37187499999998863,
          "ticks": 93720,
          "durationTicks": 119
        },
        {
          "time": 304.017834,
          "midi": 74,
          "name": "D5",
          "velocity": 0.7401574803149606,
          "duration": 0.37187499999998863,
          "ticks": 93840,
          "durationTicks": 119
        },
        {
          "time": 304.017834,
          "midi": 62,
          "name": "D4",
          "velocity": 0.7401574803149606,
          "duration": 0.37187499999998863,
          "ticks": 93840,
          "durationTicks": 119
        },
        {
          "time": 304.392834,
          "midi": 62,
          "name": "D4",
          "velocity": 0.905511811023622,
          "duration": 0.5593749999999886,
          "ticks": 93960,
          "durationTicks": 179
        },
        {
          "time": 304.392834,
          "midi": 74,
          "name": "D5",
          "velocity": 1,
          "duration": 0.5593749999999886,
          "ticks": 93960,
          "durationTicks": 179
        },
        {
          "time": 304.955334,
          "midi": 74,
          "name": "D5",
          "velocity": 0.937007874015748,
          "duration": 0.18437499999998863,
          "ticks": 94140,
          "durationTicks": 59
        },
        {
          "time": 304.955334,
          "midi": 62,
          "name": "D4",
          "velocity": 0.8267716535433071,
          "duration": 0.18437499999998863,
          "ticks": 94140,
          "durationTicks": 59
        },
        {
          "time": 305.142834,
          "midi": 74,
          "name": "D5",
          "velocity": 0.905511811023622,
          "duration": 0.37187499999998863,
          "ticks": 94200,
          "durationTicks": 119
        },
        {
          "time": 305.142834,
          "midi": 62,
          "name": "D4",
          "velocity": 0.8267716535433071,
          "duration": 0.37187499999998863,
          "ticks": 94200,
          "durationTicks": 119
        },
        {
          "time": 305.517834,
          "midi": 79,
          "name": "G5",
          "velocity": 0.7795275590551181,
          "duration": 0.18437499999998863,
          "ticks": 94320,
          "durationTicks": 59
        },
        {
          "time": 305.517834,
          "midi": 79,
          "name": "G5",
          "velocity": 0.7795275590551181,
          "duration": 0.18437499999998863,
          "ticks": 94320,
          "durationTicks": 59
        },
        {
          "time": 305.705334,
          "midi": 76,
          "name": "E5",
          "velocity": 1,
          "duration": 0.18437499999998863,
          "ticks": 94380,
          "durationTicks": 59
        },
        {
          "time": 305.705334,
          "midi": 76,
          "name": "E5",
          "velocity": 1,
          "duration": 0.18437499999998863,
          "ticks": 94380,
          "durationTicks": 59
        },
        {
          "time": 305.892834,
          "midi": 69,
          "name": "A4",
          "velocity": 0.7401574803149606,
          "duration": 0.5593749999999886,
          "ticks": 94440,
          "durationTicks": 179
        },
        {
          "time": 305.892834,
          "midi": 76,
          "name": "E5",
          "velocity": 0.9763779527559056,
          "duration": 0.5593749999999886,
          "ticks": 94440,
          "durationTicks": 179
        },
        {
          "time": 306.455334,
          "midi": 69,
          "name": "A4",
          "velocity": 0.8031496062992126,
          "duration": 0.18437499999998863,
          "ticks": 94620,
          "durationTicks": 59
        },
        {
          "time": 306.455334,
          "midi": 76,
          "name": "E5",
          "velocity": 0.8031496062992126,
          "duration": 0.18437499999998863,
          "ticks": 94620,
          "durationTicks": 59
        },
        {
          "time": 306.642834,
          "midi": 69,
          "name": "A4",
          "velocity": 0.8031496062992126,
          "duration": 0.5593749999999886,
          "ticks": 94680,
          "durationTicks": 179
        },
        {
          "time": 306.642834,
          "midi": 76,
          "name": "E5",
          "velocity": 0.8267716535433071,
          "duration": 0.5593749999999886,
          "ticks": 94680,
          "durationTicks": 179
        },
        {
          "time": 307.205334,
          "midi": 69,
          "name": "A4",
          "velocity": 0.6929133858267716,
          "duration": 0.18437499999998863,
          "ticks": 94860,
          "durationTicks": 59
        },
        {
          "time": 307.205334,
          "midi": 76,
          "name": "E5",
          "velocity": 0.8267716535433071,
          "duration": 0.18437499999998863,
          "ticks": 94860,
          "durationTicks": 59
        },
        {
          "time": 307.392834,
          "midi": 66,
          "name": "F#4",
          "velocity": 0.7401574803149606,
          "duration": 0.18437499999998863,
          "ticks": 94920,
          "durationTicks": 59
        },
        {
          "time": 307.392834,
          "midi": 74,
          "name": "D5",
          "velocity": 0.7795275590551181,
          "duration": 0.18437499999998863,
          "ticks": 94920,
          "durationTicks": 59
        },
        {
          "time": 307.767834,
          "midi": 69,
          "name": "A4",
          "velocity": 0.6535433070866141,
          "duration": 0.18437499999998863,
          "ticks": 95040,
          "durationTicks": 59
        },
        {
          "time": 307.767834,
          "midi": 76,
          "name": "E5",
          "velocity": 0.7244094488188977,
          "duration": 0.18437499999998863,
          "ticks": 95040,
          "durationTicks": 59
        },
        {
          "time": 308.142834,
          "midi": 66,
          "name": "F#4",
          "velocity": 0.7795275590551181,
          "duration": 0.18437499999998863,
          "ticks": 95160,
          "durationTicks": 59
        },
        {
          "time": 308.142834,
          "midi": 74,
          "name": "D5",
          "velocity": 0.8031496062992126,
          "duration": 0.18437499999998863,
          "ticks": 95160,
          "durationTicks": 59
        },
        {
          "time": 308.517834,
          "midi": 38,
          "name": "D2",
          "velocity": 0.7637795275590551,
          "duration": 0.18437499999998863,
          "ticks": 95280,
          "durationTicks": 59
        },
        {
          "time": 308.892834,
          "midi": 38,
          "name": "D2",
          "velocity": 0.5905511811023622,
          "duration": 0.18437499999998863,
          "ticks": 95400,
          "durationTicks": 59
        },
        {
          "time": 309.267834,
          "midi": 38,
          "name": "D2",
          "velocity": 0.7637795275590551,
          "duration": 0.18437499999998863,
          "ticks": 95520,
          "durationTicks": 59
        },
        {
          "time": 309.642834,
          "midi": 38,
          "name": "D2",
          "velocity": 0.8818897637795275,
          "duration": 0.18437499999998863,
          "ticks": 95640,
          "durationTicks": 59
        },
        {
          "time": 310.017834,
          "midi": 38,
          "name": "D2",
          "velocity": 0.8031496062992126,
          "duration": 0.18437499999998863,
          "ticks": 95760,
          "durationTicks": 59
        },
        {
          "time": 310.392834,
          "midi": 38,
          "name": "D2",
          "velocity": 0.7086614173228346,
          "duration": 0.18437499999998863,
          "ticks": 95880,
          "durationTicks": 59
        },
        {
          "time": 310.767834,
          "midi": 38,
          "name": "D2",
          "velocity": 0.8267716535433071,
          "duration": 0.18437499999998863,
          "ticks": 96000,
          "durationTicks": 59
        },
        {
          "time": 311.142834,
          "midi": 38,
          "name": "D2",
          "velocity": 0.7637795275590551,
          "duration": 0.18437499999998863,
          "ticks": 96120,
          "durationTicks": 59
        },
        {
          "time": 311.517834,
          "midi": 38,
          "name": "D2",
          "velocity": 0.8267716535433071,
          "duration": 0.18437499999998863,
          "ticks": 96240,
          "durationTicks": 59
        },
        {
          "time": 311.892834,
          "midi": 38,
          "name": "D2",
          "velocity": 0.5905511811023622,
          "duration": 0.18437499999998863,
          "ticks": 96360,
          "durationTicks": 59
        },
        {
          "time": 312.267834,
          "midi": 38,
          "name": "D2",
          "velocity": 0.7637795275590551,
          "duration": 0.18437499999998863,
          "ticks": 96480,
          "durationTicks": 59
        },
        {
          "time": 312.642834,
          "midi": 38,
          "name": "D2",
          "velocity": 0.8818897637795275,
          "duration": 0.18437499999998863,
          "ticks": 96600,
          "durationTicks": 59
        },
        {
          "time": 313.017834,
          "midi": 38,
          "name": "D2",
          "velocity": 0.8031496062992126,
          "duration": 0.18437499999998863,
          "ticks": 96720,
          "durationTicks": 59
        },
        {
          "time": 313.392834,
          "midi": 38,
          "name": "D2",
          "velocity": 0.7086614173228346,
          "duration": 0.18437499999998863,
          "ticks": 96840,
          "durationTicks": 59
        },
        {
          "time": 313.767834,
          "midi": 38,
          "name": "D2",
          "velocity": 0.8267716535433071,
          "duration": 0.18437499999998863,
          "ticks": 96960,
          "durationTicks": 59
        },
        {
          "time": 314.142834,
          "midi": 38,
          "name": "D2",
          "velocity": 0.7637795275590551,
          "duration": 0.18437499999998863,
          "ticks": 97080,
          "durationTicks": 59
        },
        {
          "time": 314.517834,
          "midi": 38,
          "name": "D2",
          "velocity": 0.8267716535433071,
          "duration": 0.18437499999998863,
          "ticks": 97200,
          "durationTicks": 59
        },
        {
          "time": 314.892834,
          "midi": 38,
          "name": "D2",
          "velocity": 0.5905511811023622,
          "duration": 0.18437499999998863,
          "ticks": 97320,
          "durationTicks": 59
        },
        {
          "time": 315.267834,
          "midi": 38,
          "name": "D2",
          "velocity": 0.7637795275590551,
          "duration": 0.18437499999998863,
          "ticks": 97440,
          "durationTicks": 59
        },
        {
          "time": 315.642834,
          "midi": 38,
          "name": "D2",
          "velocity": 0.8818897637795275,
          "duration": 0.18437499999998863,
          "ticks": 97560,
          "durationTicks": 59
        },
        {
          "time": 316.017834,
          "midi": 38,
          "name": "D2",
          "velocity": 0.8031496062992126,
          "duration": 0.18437499999998863,
          "ticks": 97680,
          "durationTicks": 59
        },
        {
          "time": 316.392834,
          "midi": 38,
          "name": "D2",
          "velocity": 0.7086614173228346,
          "duration": 0.18437499999998863,
          "ticks": 97800,
          "durationTicks": 59
        },
        {
          "time": 316.767834,
          "midi": 38,
          "name": "D2",
          "velocity": 0.8267716535433071,
          "duration": 0.18437499999998863,
          "ticks": 97920,
          "durationTicks": 59
        },
        {
          "time": 317.142834,
          "midi": 38,
          "name": "D2",
          "velocity": 0.7637795275590551,
          "duration": 0.18437499999998863,
          "ticks": 98040,
          "durationTicks": 59
        },
        {
          "time": 317.517834,
          "midi": 38,
          "name": "D2",
          "velocity": 0.8267716535433071,
          "duration": 0.18437499999998863,
          "ticks": 98160,
          "durationTicks": 59
        },
        {
          "time": 317.892834,
          "midi": 38,
          "name": "D2",
          "velocity": 0.5905511811023622,
          "duration": 0.18437499999998863,
          "ticks": 98280,
          "durationTicks": 59
        },
        {
          "time": 318.267834,
          "midi": 38,
          "name": "D2",
          "velocity": 0.7637795275590551,
          "duration": 0.18437499999998863,
          "ticks": 98400,
          "durationTicks": 59
        },
        {
          "time": 318.642834,
          "midi": 38,
          "name": "D2",
          "velocity": 0.8818897637795275,
          "duration": 0.18437499999998863,
          "ticks": 98520,
          "durationTicks": 59
        },
        {
          "time": 319.017834,
          "midi": 38,
          "name": "D2",
          "velocity": 0.8031496062992126,
          "duration": 0.18437499999998863,
          "ticks": 98640,
          "durationTicks": 59
        },
        {
          "time": 319.392834,
          "midi": 38,
          "name": "D2",
          "velocity": 0.7086614173228346,
          "duration": 0.18437499999998863,
          "ticks": 98760,
          "durationTicks": 59
        },
        {
          "time": 319.767834,
          "midi": 38,
          "name": "D2",
          "velocity": 0.8267716535433071,
          "duration": 0.18437499999998863,
          "ticks": 98880,
          "durationTicks": 59
        },
        {
          "time": 320.142834,
          "midi": 38,
          "name": "D2",
          "velocity": 0.7637795275590551,
          "duration": 0.18437499999998863,
          "ticks": 99000,
          "durationTicks": 59
        },
        {
          "time": 320.517834,
          "midi": 38,
          "name": "D2",
          "velocity": 0.8267716535433071,
          "duration": 0.18437499999998863,
          "ticks": 99120,
          "durationTicks": 59
        },
        {
          "time": 320.892834,
          "midi": 45,
          "name": "A2",
          "velocity": 1,
          "duration": 0.37187499999998863,
          "ticks": 99240,
          "durationTicks": 119
        },
        {
          "time": 326.517834,
          "midi": 38,
          "name": "D2",
          "velocity": 0.8031496062992126,
          "duration": 0.18437499999998863,
          "ticks": 101040,
          "durationTicks": 59
        },
        {
          "time": 326.892834,
          "midi": 38,
          "name": "D2",
          "velocity": 0.8031496062992126,
          "duration": 0.18437499999998863,
          "ticks": 101160,
          "durationTicks": 59
        },
        {
          "time": 327.267834,
          "midi": 38,
          "name": "D2",
          "velocity": 0.8031496062992126,
          "duration": 0.18437499999998863,
          "ticks": 101280,
          "durationTicks": 59
        },
        {
          "time": 327.642834,
          "midi": 38,
          "name": "D2",
          "velocity": 0.8031496062992126,
          "duration": 0.18437499999998863,
          "ticks": 101400,
          "durationTicks": 59
        },
        {
          "time": 328.017834,
          "midi": 38,
          "name": "D2",
          "velocity": 0.8031496062992126,
          "duration": 0.18437499999998863,
          "ticks": 101520,
          "durationTicks": 59
        },
        {
          "time": 328.392834,
          "midi": 38,
          "name": "D2",
          "velocity": 0.8031496062992126,
          "duration": 0.18437499999998863,
          "ticks": 101640,
          "durationTicks": 59
        },
        {
          "time": 328.767834,
          "midi": 38,
          "name": "D2",
          "velocity": 0.8031496062992126,
          "duration": 0.18437499999998863,
          "ticks": 101760,
          "durationTicks": 59
        },
        {
          "time": 329.142834,
          "midi": 38,
          "name": "D2",
          "velocity": 0.8031496062992126,
          "duration": 0.18437499999998863,
          "ticks": 101880,
          "durationTicks": 59
        },
        {
          "time": 329.517834,
          "midi": 38,
          "name": "D2",
          "velocity": 0.8031496062992126,
          "duration": 0.18437499999998863,
          "ticks": 102000,
          "durationTicks": 59
        },
        {
          "time": 329.892834,
          "midi": 38,
          "name": "D2",
          "velocity": 1,
          "duration": 0.18437499999998863,
          "ticks": 102120,
          "durationTicks": 59
        },
        {
          "time": 330.267834,
          "midi": 38,
          "name": "D2",
          "velocity": 1,
          "duration": 0.18437499999998863,
          "ticks": 102240,
          "durationTicks": 59
        },
        {
          "time": 330.642834,
          "midi": 38,
          "name": "D2",
          "velocity": 1,
          "duration": 0.18437499999998863,
          "ticks": 102360,
          "durationTicks": 59
        },
        {
          "time": 331.017834,
          "midi": 38,
          "name": "D2",
          "velocity": 1,
          "duration": 0.18437499999998863,
          "ticks": 102480,
          "durationTicks": 59
        },
        {
          "time": 331.392834,
          "midi": 38,
          "name": "D2",
          "velocity": 1,
          "duration": 0.37187499999998863,
          "ticks": 102600,
          "durationTicks": 119
        },
        {
          "time": 332.517834,
          "midi": 57,
          "name": "A3",
          "velocity": 0.937007874015748,
          "duration": 0.37187499999998863,
          "ticks": 102960,
          "durationTicks": 119
        },
        {
          "time": 332.517834,
          "midi": 69,
          "name": "A4",
          "velocity": 1,
          "duration": 0.37187499999998863,
          "ticks": 102960,
          "durationTicks": 119
        },
        {
          "time": 332.892834,
          "midi": 57,
          "name": "A3",
          "velocity": 0.8031496062992126,
          "duration": 0.18437499999998863,
          "ticks": 103080,
          "durationTicks": 59
        },
        {
          "time": 332.892834,
          "midi": 69,
          "name": "A4",
          "velocity": 0.937007874015748,
          "duration": 0.18437499999998863,
          "ticks": 103080,
          "durationTicks": 59
        },
        {
          "time": 333.267834,
          "midi": 57,
          "name": "A3",
          "velocity": 0.8031496062992126,
          "duration": 0.18437499999998863,
          "ticks": 103200,
          "durationTicks": 59
        },
        {
          "time": 333.267834,
          "midi": 69,
          "name": "A4",
          "velocity": 0.8818897637795275,
          "duration": 0.18437499999998863,
          "ticks": 103200,
          "durationTicks": 59
        },
        {
          "time": 333.642834,
          "midi": 69,
          "name": "A4",
          "velocity": 1,
          "duration": 0.18437499999998863,
          "ticks": 103320,
          "durationTicks": 59
        },
        {
          "time": 333.642834,
          "midi": 57,
          "name": "A3",
          "velocity": 0.8267716535433071,
          "duration": 0.18437499999998863,
          "ticks": 103320,
          "durationTicks": 59
        },
        {
          "time": 334.017834,
          "midi": 57,
          "name": "A3",
          "velocity": 0.8503937007874016,
          "duration": 0.18437499999998863,
          "ticks": 103440,
          "durationTicks": 59
        },
        {
          "time": 334.017834,
          "midi": 69,
          "name": "A4",
          "velocity": 1,
          "duration": 0.18437499999998863,
          "ticks": 103440,
          "durationTicks": 59
        },
        {
          "time": 334.392834,
          "midi": 69,
          "name": "A4",
          "velocity": 1,
          "duration": 0.18437499999998863,
          "ticks": 103560,
          "durationTicks": 59
        },
        {
          "time": 334.392834,
          "midi": 57,
          "name": "A3",
          "velocity": 0.8503937007874016,
          "duration": 0.18437499999998863,
          "ticks": 103560,
          "durationTicks": 59
        },
        {
          "time": 334.767834,
          "midi": 57,
          "name": "A3",
          "velocity": 0.905511811023622,
          "duration": 0.18437499999998863,
          "ticks": 103680,
          "durationTicks": 59
        },
        {
          "time": 334.767834,
          "midi": 69,
          "name": "A4",
          "velocity": 1,
          "duration": 0.18437499999998863,
          "ticks": 103680,
          "durationTicks": 59
        },
        {
          "time": 335.142834,
          "midi": 57,
          "name": "A3",
          "velocity": 0.8503937007874016,
          "duration": 0.18437499999998863,
          "ticks": 103800,
          "durationTicks": 59
        },
        {
          "time": 335.142834,
          "midi": 69,
          "name": "A4",
          "velocity": 1,
          "duration": 0.18437499999998863,
          "ticks": 103800,
          "durationTicks": 59
        },
        {
          "time": 335.517834,
          "midi": 57,
          "name": "A3",
          "velocity": 0.905511811023622,
          "duration": 0.18437499999998863,
          "ticks": 103920,
          "durationTicks": 59
        },
        {
          "time": 335.517834,
          "midi": 69,
          "name": "A4",
          "velocity": 1,
          "duration": 0.18437499999998863,
          "ticks": 103920,
          "durationTicks": 59
        },
        {
          "time": 335.892834,
          "midi": 78,
          "name": "F#5",
          "velocity": 1,
          "duration": 0.18437499999998863,
          "ticks": 104040,
          "durationTicks": 59
        },
        {
          "time": 335.892834,
          "midi": 78,
          "name": "F#5",
          "velocity": 1,
          "duration": 0.18437499999998863,
          "ticks": 104040,
          "durationTicks": 59
        },
        {
          "time": 336.080334,
          "midi": 76,
          "name": "E5",
          "velocity": 1,
          "duration": 0.18437499999998863,
          "ticks": 104100,
          "durationTicks": 59
        },
        {
          "time": 336.080334,
          "midi": 76,
          "name": "E5",
          "velocity": 1,
          "duration": 0.18437499999998863,
          "ticks": 104100,
          "durationTicks": 59
        },
        {
          "time": 336.267834,
          "midi": 74,
          "name": "D5",
          "velocity": 1,
          "duration": 0.18437499999998863,
          "ticks": 104160,
          "durationTicks": 59
        },
        {
          "time": 336.267834,
          "midi": 74,
          "name": "D5",
          "velocity": 1,
          "duration": 0.18437499999998863,
          "ticks": 104160,
          "durationTicks": 59
        },
        {
          "time": 336.455334,
          "midi": 76,
          "name": "E5",
          "velocity": 1,
          "duration": 0.18437499999998863,
          "ticks": 104220,
          "durationTicks": 59
        },
        {
          "time": 336.455334,
          "midi": 76,
          "name": "E5",
          "velocity": 1,
          "duration": 0.18437499999998863,
          "ticks": 104220,
          "durationTicks": 59
        },
        {
          "time": 336.642834,
          "midi": 79,
          "name": "G5",
          "velocity": 1,
          "duration": 0.18437499999998863,
          "ticks": 104280,
          "durationTicks": 59
        },
        {
          "time": 336.642834,
          "midi": 79,
          "name": "G5",
          "velocity": 1,
          "duration": 0.18437499999998863,
          "ticks": 104280,
          "durationTicks": 59
        },
        {
          "time": 336.830334,
          "midi": 78,
          "name": "F#5",
          "velocity": 1,
          "duration": 0.18437499999998863,
          "ticks": 104340,
          "durationTicks": 59
        },
        {
          "time": 336.830334,
          "midi": 78,
          "name": "F#5",
          "velocity": 1,
          "duration": 0.18437499999998863,
          "ticks": 104340,
          "durationTicks": 59
        },
        {
          "time": 337.017834,
          "midi": 78,
          "name": "F#5",
          "velocity": 1,
          "duration": 0.18437499999998863,
          "ticks": 104400,
          "durationTicks": 59
        },
        {
          "time": 337.017834,
          "midi": 78,
          "name": "F#5",
          "velocity": 1,
          "duration": 0.18437499999998863,
          "ticks": 104400,
          "durationTicks": 59
        },
        {
          "time": 337.205334,
          "midi": 76,
          "name": "E5",
          "velocity": 1,
          "duration": 0.18437499999998863,
          "ticks": 104460,
          "durationTicks": 59
        },
        {
          "time": 337.205334,
          "midi": 76,
          "name": "E5",
          "velocity": 1,
          "duration": 0.18437499999998863,
          "ticks": 104460,
          "durationTicks": 59
        },
        {
          "time": 337.392834,
          "midi": 76,
          "name": "E5",
          "velocity": 1,
          "duration": 0.18437499999998863,
          "ticks": 104520,
          "durationTicks": 59
        },
        {
          "time": 337.392834,
          "midi": 76,
          "name": "E5",
          "velocity": 1,
          "duration": 0.18437499999998863,
          "ticks": 104520,
          "durationTicks": 59
        },
        {
          "time": 337.580334,
          "midi": 74,
          "name": "D5",
          "velocity": 1,
          "duration": 0.18437499999998863,
          "ticks": 104580,
          "durationTicks": 59
        },
        {
          "time": 337.580334,
          "midi": 74,
          "name": "D5",
          "velocity": 1,
          "duration": 0.18437499999998863,
          "ticks": 104580,
          "durationTicks": 59
        },
        {
          "time": 337.767834,
          "midi": 74,
          "name": "D5",
          "velocity": 1,
          "duration": 0.18437499999998863,
          "ticks": 104640,
          "durationTicks": 59
        },
        {
          "time": 337.767834,
          "midi": 74,
          "name": "D5",
          "velocity": 1,
          "duration": 0.18437499999998863,
          "ticks": 104640,
          "durationTicks": 59
        },
        {
          "time": 337.955334,
          "midi": 76,
          "name": "E5",
          "velocity": 1,
          "duration": 0.18437499999998863,
          "ticks": 104700,
          "durationTicks": 59
        },
        {
          "time": 337.955334,
          "midi": 76,
          "name": "E5",
          "velocity": 1,
          "duration": 0.18437499999998863,
          "ticks": 104700,
          "durationTicks": 59
        },
        {
          "time": 338.142834,
          "midi": 69,
          "name": "A4",
          "velocity": 1,
          "duration": 0.18437499999998863,
          "ticks": 104760,
          "durationTicks": 59
        },
        {
          "time": 338.142834,
          "midi": 69,
          "name": "A4",
          "velocity": 1,
          "duration": 0.18437499999998863,
          "ticks": 104760,
          "durationTicks": 59
        },
        {
          "time": 338.330334,
          "midi": 79,
          "name": "G5",
          "velocity": 1,
          "duration": 0.18437499999998863,
          "ticks": 104820,
          "durationTicks": 59
        },
        {
          "time": 338.330334,
          "midi": 79,
          "name": "G5",
          "velocity": 1,
          "duration": 0.18437499999998863,
          "ticks": 104820,
          "durationTicks": 59
        },
        {
          "time": 338.517834,
          "midi": 78,
          "name": "F#5",
          "velocity": 1,
          "duration": 0.18437499999998863,
          "ticks": 104880,
          "durationTicks": 59
        },
        {
          "time": 338.517834,
          "midi": 50,
          "name": "D3",
          "velocity": 1,
          "duration": 0.37187499999998863,
          "ticks": 104880,
          "durationTicks": 119
        },
        {
          "time": 338.705334,
          "midi": 76,
          "name": "E5",
          "velocity": 1,
          "duration": 0.18437499999998863,
          "ticks": 104940,
          "durationTicks": 59
        },
        {
          "time": 338.892834,
          "midi": 50,
          "name": "D3",
          "velocity": 1,
          "duration": 0.18437499999998863,
          "ticks": 105000,
          "durationTicks": 59
        },
        {
          "time": 338.892834,
          "midi": 78,
          "name": "F#5",
          "velocity": 1,
          "duration": 0.18437499999998863,
          "ticks": 105000,
          "durationTicks": 59
        },
        {
          "time": 339.080334,
          "midi": 79,
          "name": "G5",
          "velocity": 1,
          "duration": 0.18437499999998863,
          "ticks": 105060,
          "durationTicks": 59
        },
        {
          "time": 339.267834,
          "midi": 50,
          "name": "D3",
          "velocity": 1,
          "duration": 0.18437499999998863,
          "ticks": 105120,
          "durationTicks": 59
        },
        {
          "time": 339.267834,
          "midi": 76,
          "name": "E5",
          "velocity": 1,
          "duration": 0.18437499999998863,
          "ticks": 105120,
          "durationTicks": 59
        },
        {
          "time": 339.455334,
          "midi": 78,
          "name": "F#5",
          "velocity": 1,
          "duration": 0.18437499999998863,
          "ticks": 105180,
          "durationTicks": 59
        },
        {
          "time": 339.642834,
          "midi": 50,
          "name": "D3",
          "velocity": 1,
          "duration": 0.18437499999998863,
          "ticks": 105240,
          "durationTicks": 59
        },
        {
          "time": 339.642834,
          "midi": 79,
          "name": "G5",
          "velocity": 1,
          "duration": 0.18437499999998863,
          "ticks": 105240,
          "durationTicks": 59
        },
        {
          "time": 339.830334,
          "midi": 81,
          "name": "A5",
          "velocity": 1,
          "duration": 0.18437499999998863,
          "ticks": 105300,
          "durationTicks": 59
        },
        {
          "time": 340.017834,
          "midi": 50,
          "name": "D3",
          "velocity": 1,
          "duration": 0.18437499999998863,
          "ticks": 105360,
          "durationTicks": 59
        },
        {
          "time": 340.017834,
          "midi": 81,
          "name": "A5",
          "velocity": 1,
          "duration": 0.37187499999998863,
          "ticks": 105360,
          "durationTicks": 119
        },
        {
          "time": 340.392834,
          "midi": 50,
          "name": "D3",
          "velocity": 1,
          "duration": 0.18437499999998863,
          "ticks": 105480,
          "durationTicks": 59
        },
        {
          "time": 340.392834,
          "midi": 81,
          "name": "A5",
          "velocity": 1,
          "duration": 0.18437499999998863,
          "ticks": 105480,
          "durationTicks": 59
        },
        {
          "time": 340.580334,
          "midi": 79,
          "name": "G5",
          "velocity": 1,
          "duration": 0.18437499999998863,
          "ticks": 105540,
          "durationTicks": 59
        },
        {
          "time": 340.767834,
          "midi": 50,
          "name": "D3",
          "velocity": 1,
          "duration": 0.18437499999998863,
          "ticks": 105600,
          "durationTicks": 59
        },
        {
          "time": 340.767834,
          "midi": 79,
          "name": "G5",
          "velocity": 1,
          "duration": 0.37187499999998863,
          "ticks": 105600,
          "durationTicks": 119
        },
        {
          "time": 341.142834,
          "midi": 50,
          "name": "D3",
          "velocity": 1,
          "duration": 0.18437499999998863,
          "ticks": 105720,
          "durationTicks": 59
        },
        {
          "time": 341.142834,
          "midi": 78,
          "name": "F#5",
          "velocity": 1,
          "duration": 0.18437499999998863,
          "ticks": 105720,
          "durationTicks": 59
        },
        {
          "time": 341.330334,
          "midi": 76,
          "name": "E5",
          "velocity": 1,
          "duration": 0.18437499999998863,
          "ticks": 105780,
          "durationTicks": 59
        },
        {
          "time": 341.517834,
          "midi": 50,
          "name": "D3",
          "velocity": 1,
          "duration": 0.18437499999998863,
          "ticks": 105840,
          "durationTicks": 59
        },
        {
          "time": 341.517834,
          "midi": 79,
          "name": "G5",
          "velocity": 1,
          "duration": 0.18437499999998863,
          "ticks": 105840,
          "durationTicks": 59
        },
        {
          "time": 341.705334,
          "midi": 76,
          "name": "E5",
          "velocity": 1,
          "duration": 0.18437499999998863,
          "ticks": 105900,
          "durationTicks": 59
        },
        {
          "time": 341.892834,
          "midi": 50,
          "name": "D3",
          "velocity": 1,
          "duration": 0.18437499999998863,
          "ticks": 105960,
          "durationTicks": 59
        },
        {
          "time": 341.892834,
          "midi": 76,
          "name": "E5",
          "velocity": 1,
          "duration": 0.18437499999998863,
          "ticks": 105960,
          "durationTicks": 59
        },
        {
          "time": 342.080334,
          "midi": 74,
          "name": "D5",
          "velocity": 1,
          "duration": 0.18437499999998863,
          "ticks": 106020,
          "durationTicks": 59
        },
        {
          "time": 342.267834,
          "midi": 50,
          "name": "D3",
          "velocity": 1,
          "duration": 0.18437499999998863,
          "ticks": 106080,
          "durationTicks": 59
        },
        {
          "time": 342.267834,
          "midi": 69,
          "name": "A4",
          "velocity": 1,
          "duration": 0.18437499999998863,
          "ticks": 106080,
          "durationTicks": 59
        },
        {
          "time": 342.455334,
          "midi": 74,
          "name": "D5",
          "velocity": 1,
          "duration": 0.18437499999998863,
          "ticks": 106140,
          "durationTicks": 59
        },
        {
          "time": 342.642834,
          "midi": 50,
          "name": "D3",
          "velocity": 1,
          "duration": 0.18437499999998863,
          "ticks": 106200,
          "durationTicks": 59
        },
        {
          "time": 342.642834,
          "midi": 78,
          "name": "F#5",
          "velocity": 1,
          "duration": 0.18437499999998863,
          "ticks": 106200,
          "durationTicks": 59
        },
        {
          "time": 342.830334,
          "midi": 76,
          "name": "E5",
          "velocity": 1,
          "duration": 0.18437499999998863,
          "ticks": 106260,
          "durationTicks": 59
        },
        {
          "time": 343.017834,
          "midi": 50,
          "name": "D3",
          "velocity": 1,
          "duration": 0.18437499999998863,
          "ticks": 106320,
          "durationTicks": 59
        },
        {
          "time": 343.017834,
          "midi": 79,
          "name": "G5",
          "velocity": 1,
          "duration": 0.18437499999998863,
          "ticks": 106320,
          "durationTicks": 59
        },
        {
          "time": 343.205334,
          "midi": 78,
          "name": "F#5",
          "velocity": 1,
          "duration": 0.18437499999998863,
          "ticks": 106380,
          "durationTicks": 59
        },
        {
          "time": 343.392834,
          "midi": 74,
          "name": "D5",
          "velocity": 1,
          "duration": 0.18437499999998863,
          "ticks": 106440,
          "durationTicks": 59
        },
        {
          "time": 343.392834,
          "midi": 78,
          "name": "F#5",
          "velocity": 1,
          "duration": 0.18437499999998863,
          "ticks": 106440,
          "durationTicks": 59
        },
        {
          "time": 343.580334,
          "midi": 69,
          "name": "A4",
          "velocity": 1,
          "duration": 0.37187499999998863,
          "ticks": 106500,
          "durationTicks": 119
        },
        {
          "time": 343.580334,
          "midi": 76,
          "name": "E5",
          "velocity": 1,
          "duration": 0.37187499999998863,
          "ticks": 106500,
          "durationTicks": 119
        },
        {
          "time": 343.955334,
          "midi": 66,
          "name": "F#4",
          "velocity": 0.9763779527559056,
          "duration": 0.18437499999998863,
          "ticks": 106620,
          "durationTicks": 59
        },
        {
          "time": 343.955334,
          "midi": 74,
          "name": "D5",
          "velocity": 1,
          "duration": 0.18437499999998863,
          "ticks": 106620,
          "durationTicks": 59
        },
        {
          "time": 344.142834,
          "midi": 66,
          "name": "F#4",
          "velocity": 0.9763779527559056,
          "duration": 0.37187499999998863,
          "ticks": 106680,
          "durationTicks": 119
        },
        {
          "time": 344.142834,
          "midi": 74,
          "name": "D5",
          "velocity": 1,
          "duration": 0.37187499999998863,
          "ticks": 106680,
          "durationTicks": 119
        },
        {
          "time": 344.517834,
          "midi": 78,
          "name": "F#5",
          "velocity": 1,
          "duration": 0.37187499999998863,
          "ticks": 106800,
          "durationTicks": 119
        },
        {
          "time": 344.517834,
          "midi": 81,
          "name": "A5",
          "velocity": 1,
          "duration": 0.37187499999998863,
          "ticks": 106800,
          "durationTicks": 119
        },
        {
          "time": 344.892834,
          "midi": 79,
          "name": "G5",
          "velocity": 1,
          "duration": 0.5593749999999886,
          "ticks": 106920,
          "durationTicks": 179
        },
        {
          "time": 344.892834,
          "midi": 76,
          "name": "E5",
          "velocity": 1,
          "duration": 0.5593749999999886,
          "ticks": 106920,
          "durationTicks": 179
        },
        {
          "time": 345.455334,
          "midi": 74,
          "name": "D5",
          "velocity": 1,
          "duration": 0.18437499999998863,
          "ticks": 107100,
          "durationTicks": 59
        },
        {
          "time": 345.455334,
          "midi": 78,
          "name": "F#5",
          "velocity": 1,
          "duration": 0.18437499999998863,
          "ticks": 107100,
          "durationTicks": 59
        },
        {
          "time": 345.642834,
          "midi": 78,
          "name": "F#5",
          "velocity": 1,
          "duration": 0.37187499999998863,
          "ticks": 107160,
          "durationTicks": 119
        },
        {
          "time": 345.642834,
          "midi": 74,
          "name": "D5",
          "velocity": 1,
          "duration": 0.37187499999998863,
          "ticks": 107160,
          "durationTicks": 119
        },
        {
          "time": 346.017834,
          "midi": 62,
          "name": "D4",
          "velocity": 0.9763779527559056,
          "duration": 0.7468749999999886,
          "ticks": 107280,
          "durationTicks": 239
        },
        {
          "time": 346.017834,
          "midi": 74,
          "name": "D5",
          "velocity": 1,
          "duration": 0.7468749999999886,
          "ticks": 107280,
          "durationTicks": 239
        },
        {
          "time": 346.767834,
          "midi": 74,
          "name": "D5",
          "velocity": 1,
          "duration": 0.37187499999998863,
          "ticks": 107520,
          "durationTicks": 119
        },
        {
          "time": 346.767834,
          "midi": 78,
          "name": "F#5",
          "velocity": 1,
          "duration": 0.18437499999998863,
          "ticks": 107520,
          "durationTicks": 59
        },
        {
          "time": 346.955334,
          "midi": 79,
          "name": "G5",
          "velocity": 1,
          "duration": 0.18437499999998863,
          "ticks": 107580,
          "durationTicks": 59
        },
        {
          "time": 347.142834,
          "midi": 74,
          "name": "D5",
          "velocity": 1,
          "duration": 0.37187499999998863,
          "ticks": 107640,
          "durationTicks": 119
        },
        {
          "time": 347.142834,
          "midi": 79,
          "name": "G5",
          "velocity": 1,
          "duration": 0.37187499999998863,
          "ticks": 107640,
          "durationTicks": 119
        },
        {
          "time": 347.517834,
          "midi": 79,
          "name": "G5",
          "velocity": 1,
          "duration": 0.37187499999998863,
          "ticks": 107760,
          "durationTicks": 119
        },
        {
          "time": 347.517834,
          "midi": 79,
          "name": "G5",
          "velocity": 1,
          "duration": 0.37187499999998863,
          "ticks": 107760,
          "durationTicks": 119
        },
        {
          "time": 347.892834,
          "midi": 79,
          "name": "G5",
          "velocity": 1,
          "duration": 0.37187499999998863,
          "ticks": 107880,
          "durationTicks": 119
        },
        {
          "time": 347.892834,
          "midi": 76,
          "name": "E5",
          "velocity": 0.9763779527559056,
          "duration": 0.37187499999998863,
          "ticks": 107880,
          "durationTicks": 119
        },
        {
          "time": 348.642834,
          "midi": 76,
          "name": "E5",
          "velocity": 1,
          "duration": 0.37187499999998863,
          "ticks": 108120,
          "durationTicks": 119
        },
        {
          "time": 348.642834,
          "midi": 79,
          "name": "G5",
          "velocity": 1,
          "duration": 0.37187499999998863,
          "ticks": 108120,
          "durationTicks": 119
        },
        {
          "time": 349.392834,
          "midi": 78,
          "name": "F#5",
          "velocity": 1,
          "duration": 1.4968749999999886,
          "ticks": 108360,
          "durationTicks": 479
        },
        {
          "time": 349.392834,
          "midi": 74,
          "name": "D5",
          "velocity": 1,
          "duration": 1.4968749999999886,
          "ticks": 108360,
          "durationTicks": 479
        },
        {
          "time": 350.892834,
          "midi": 76,
          "name": "E5",
          "velocity": 1,
          "duration": 0.37187499999998863,
          "ticks": 108840,
          "durationTicks": 119
        },
        {
          "time": 350.892834,
          "midi": 76,
          "name": "E5",
          "velocity": 1,
          "duration": 0.37187499999998863,
          "ticks": 108840,
          "durationTicks": 119
        },
        {
          "time": 351.642834,
          "midi": 76,
          "name": "E5",
          "velocity": 1,
          "duration": 0.37187499999998863,
          "ticks": 109080,
          "durationTicks": 119
        },
        {
          "time": 351.642834,
          "midi": 76,
          "name": "E5",
          "velocity": 1,
          "duration": 0.37187499999998863,
          "ticks": 109080,
          "durationTicks": 119
        },
        {
          "time": 352.392834,
          "midi": 69,
          "name": "A4",
          "velocity": 0.9763779527559056,
          "duration": 1.4968749999999886,
          "ticks": 109320,
          "durationTicks": 479
        },
        {
          "time": 352.392834,
          "midi": 81,
          "name": "A5",
          "velocity": 1,
          "duration": 1.4968749999999886,
          "ticks": 109320,
          "durationTicks": 479
        },
        {
          "time": 353.892834,
          "midi": 76,
          "name": "E5",
          "velocity": 1,
          "duration": 0.37187499999998863,
          "ticks": 109800,
          "durationTicks": 119
        },
        {
          "time": 353.892834,
          "midi": 76,
          "name": "E5",
          "velocity": 1,
          "duration": 0.37187499999998863,
          "ticks": 109800,
          "durationTicks": 119
        },
        {
          "time": 354.642834,
          "midi": 76,
          "name": "E5",
          "velocity": 1,
          "duration": 0.37187499999998863,
          "ticks": 110040,
          "durationTicks": 119
        },
        {
          "time": 354.642834,
          "midi": 76,
          "name": "E5",
          "velocity": 1,
          "duration": 0.37187499999998863,
          "ticks": 110040,
          "durationTicks": 119
        },
        {
          "time": 355.392834,
          "midi": 69,
          "name": "A4",
          "velocity": 0.9763779527559056,
          "duration": 1.4968749999999886,
          "ticks": 110280,
          "durationTicks": 479
        },
        {
          "time": 355.392834,
          "midi": 81,
          "name": "A5",
          "velocity": 1,
          "duration": 1.4968749999999886,
          "ticks": 110280,
          "durationTicks": 479
        },
        {
          "time": 356.892834,
          "midi": 69,
          "name": "A4",
          "velocity": 1,
          "duration": 0.37187499999998863,
          "ticks": 110760,
          "durationTicks": 119
        },
        {
          "time": 356.892834,
          "midi": 81,
          "name": "A5",
          "velocity": 1,
          "duration": 0.37187499999998863,
          "ticks": 110760,
          "durationTicks": 119
        },
        {
          "time": 357.642834,
          "midi": 69,
          "name": "A4",
          "velocity": 1,
          "duration": 0.37187499999998863,
          "ticks": 111000,
          "durationTicks": 119
        },
        {
          "time": 357.642834,
          "midi": 81,
          "name": "A5",
          "velocity": 1,
          "duration": 0.37187499999998863,
          "ticks": 111000,
          "durationTicks": 119
        },
        {
          "time": 358.392834,
          "midi": 69,
          "name": "A4",
          "velocity": 0.8818897637795275,
          "duration": 1.5386393583333415,
          "ticks": 111240,
          "durationTicks": 479
        },
        {
          "time": 358.392834,
          "midi": 81,
          "name": "A5",
          "velocity": 1,
          "duration": 1.5386393583333415,
          "ticks": 111240,
          "durationTicks": 479
        }
      ],
      "controlChanges": {
        "7": [
          {
            "number": 7,
            "value": 0.9448818897637795,
            "time": 0,
            "ticks": 0
          }
        ],
        "10": [
          {
            "number": 10,
            "value": 0.5039370078740157,
            "time": 0,
            "ticks": 0
          }
        ]
      }
    },
    {
      "name": "F Horn  Bb",
      "channel": 0,
      "instrument": {
        "number": 60,
        "name": "french horn",
        "family": "brass"
      },
      "notes": [],
      "controlChanges": {
        "7": [
          {
            "number": 7,
            "value": 0.9448818897637795,
            "time": 0,
            "ticks": 0
          }
        ],
        "10": [
          {
            "number": 10,
            "value": 0.5039370078740157,
            "time": 0,
            "ticks": 0
          }
        ]
      }
    },
    {
      "name": "Trumpets",
      "channel": 0,
      "instrument": {
        "number": 56,
        "name": "trumpet",
        "family": "brass"
      },
      "notes": [
        {
          "time": 109.5,
          "midi": 74,
          "name": "D5",
          "velocity": 0.6141732283464567,
          "duration": 0.7468750000000028,
          "ticks": 35040,
          "durationTicks": 239
        },
        {
          "time": 109.5,
          "midi": 78,
          "name": "F#5",
          "velocity": 0.937007874015748,
          "duration": 0.7468750000000028,
          "ticks": 35040,
          "durationTicks": 239
        },
        {
          "time": 110.25,
          "midi": 76,
          "name": "E5",
          "velocity": 0.8661417322834646,
          "duration": 0.37187500000000284,
          "ticks": 35280,
          "durationTicks": 119
        },
        {
          "time": 110.25,
          "midi": 79,
          "name": "G5",
          "velocity": 0.8661417322834646,
          "duration": 0.37187500000000284,
          "ticks": 35280,
          "durationTicks": 119
        },
        {
          "time": 110.625,
          "midi": 81,
          "name": "A5",
          "velocity": 0.8661417322834646,
          "duration": 0.37187500000000284,
          "ticks": 35400,
          "durationTicks": 119
        },
        {
          "time": 110.625,
          "midi": 78,
          "name": "F#5",
          "velocity": 0.8661417322834646,
          "duration": 0.37187500000000284,
          "ticks": 35400,
          "durationTicks": 119
        },
        {
          "time": 111,
          "midi": 78,
          "name": "F#5",
          "velocity": 0.8740157480314961,
          "duration": 0.37187500000000284,
          "ticks": 35520,
          "durationTicks": 119
        },
        {
          "time": 111,
          "midi": 81,
          "name": "A5",
          "velocity": 0.8740157480314961,
          "duration": 0.37187500000000284,
          "ticks": 35520,
          "durationTicks": 119
        },
        {
          "time": 111.375,
          "midi": 76,
          "name": "E5",
          "velocity": 0.8818897637795275,
          "duration": 0.37187500000000284,
          "ticks": 35640,
          "durationTicks": 119
        },
        {
          "time": 111.375,
          "midi": 79,
          "name": "G5",
          "velocity": 0.8818897637795275,
          "duration": 0.37187500000000284,
          "ticks": 35640,
          "durationTicks": 119
        },
        {
          "time": 111.75,
          "midi": 74,
          "name": "D5",
          "velocity": 0.8818897637795275,
          "duration": 0.18437500000000284,
          "ticks": 35760,
          "durationTicks": 59
        },
        {
          "time": 111.75,
          "midi": 78,
          "name": "F#5",
          "velocity": 0.8818897637795275,
          "duration": 0.18437500000000284,
          "ticks": 35760,
          "durationTicks": 59
        },
        {
          "time": 112.125,
          "midi": 69,
          "name": "A4",
          "velocity": 0.8818897637795275,
          "duration": 0.18437500000000284,
          "ticks": 35880,
          "durationTicks": 59
        },
        {
          "time": 112.125,
          "midi": 76,
          "name": "E5",
          "velocity": 0.8818897637795275,
          "duration": 0.18437500000000284,
          "ticks": 35880,
          "durationTicks": 59
        },
        {
          "time": 112.5,
          "midi": 74,
          "name": "D5",
          "velocity": 0.8818897637795275,
          "duration": 0.37187500000000284,
          "ticks": 36000,
          "durationTicks": 119
        },
        {
          "time": 112.5,
          "midi": 66,
          "name": "F#4",
          "velocity": 0.8818897637795275,
          "duration": 0.37187500000000284,
          "ticks": 36000,
          "durationTicks": 119
        },
        {
          "time": 112.875,
          "midi": 66,
          "name": "F#4",
          "velocity": 0.8818897637795275,
          "duration": 0.37187500000000284,
          "ticks": 36120,
          "durationTicks": 119
        },
        {
          "time": 112.875,
          "midi": 74,
          "name": "D5",
          "velocity": 0.8818897637795275,
          "duration": 0.37187500000000284,
          "ticks": 36120,
          "durationTicks": 119
        },
        {
          "time": 113.25,
          "midi": 69,
          "name": "A4",
          "velocity": 0.889763779527559,
          "duration": 0.37187500000000284,
          "ticks": 36240,
          "durationTicks": 119
        },
        {
          "time": 113.25,
          "midi": 76,
          "name": "E5",
          "velocity": 0.889763779527559,
          "duration": 0.37187500000000284,
          "ticks": 36240,
          "durationTicks": 119
        },
        {
          "time": 113.625,
          "midi": 78,
          "name": "F#5",
          "velocity": 0.889763779527559,
          "duration": 0.37187500000000284,
          "ticks": 36360,
          "durationTicks": 119
        },
        {
          "time": 113.625,
          "midi": 74,
          "name": "D5",
          "velocity": 0.889763779527559,
          "duration": 0.37187500000000284,
          "ticks": 36360,
          "durationTicks": 119
        },
        {
          "time": 114,
          "midi": 74,
          "name": "D5",
          "velocity": 0.8818897637795275,
          "duration": 0.5593750000000028,
          "ticks": 36480,
          "durationTicks": 179
        },
        {
          "time": 114,
          "midi": 78,
          "name": "F#5",
          "velocity": 0.8818897637795275,
          "duration": 0.5593750000000028,
          "ticks": 36480,
          "durationTicks": 179
        },
        {
          "time": 114.5625,
          "midi": 69,
          "name": "A4",
          "velocity": 0.8818897637795275,
          "duration": 0.18437500000000284,
          "ticks": 36660,
          "durationTicks": 59
        },
        {
          "time": 114.5625,
          "midi": 76,
          "name": "E5",
          "velocity": 0.8818897637795275,
          "duration": 0.18437500000000284,
          "ticks": 36660,
          "durationTicks": 59
        },
        {
          "time": 114.75,
          "midi": 76,
          "name": "E5",
          "velocity": 0.8818897637795275,
          "duration": 0.7468750000000028,
          "ticks": 36720,
          "durationTicks": 239
        },
        {
          "time": 114.75,
          "midi": 69,
          "name": "A4",
          "velocity": 0.8818897637795275,
          "duration": 0.7468750000000028,
          "ticks": 36720,
          "durationTicks": 239
        },
        {
          "time": 115.5,
          "midi": 74,
          "name": "D5",
          "velocity": 0.8818897637795275,
          "duration": 0.7468750000000028,
          "ticks": 36960,
          "durationTicks": 239
        },
        {
          "time": 115.5,
          "midi": 78,
          "name": "F#5",
          "velocity": 0.8818897637795275,
          "duration": 0.7468750000000028,
          "ticks": 36960,
          "durationTicks": 239
        },
        {
          "time": 116.25,
          "midi": 79,
          "name": "G5",
          "velocity": 0.8740157480314961,
          "duration": 0.37187500000000284,
          "ticks": 37200,
          "durationTicks": 119
        },
        {
          "time": 116.25,
          "midi": 76,
          "name": "E5",
          "velocity": 0.8740157480314961,
          "duration": 0.37187500000000284,
          "ticks": 37200,
          "durationTicks": 119
        },
        {
          "time": 116.625,
          "midi": 78,
          "name": "F#5",
          "velocity": 0.8740157480314961,
          "duration": 0.37187500000000284,
          "ticks": 37320,
          "durationTicks": 119
        },
        {
          "time": 116.625,
          "midi": 81,
          "name": "A5",
          "velocity": 0.8740157480314961,
          "duration": 0.37187500000000284,
          "ticks": 37320,
          "durationTicks": 119
        },
        {
          "time": 117,
          "midi": 78,
          "name": "F#5",
          "velocity": 0.8740157480314961,
          "duration": 0.37187500000000284,
          "ticks": 37440,
          "durationTicks": 119
        },
        {
          "time": 117,
          "midi": 81,
          "name": "A5",
          "velocity": 0.8740157480314961,
          "duration": 0.37187500000000284,
          "ticks": 37440,
          "durationTicks": 119
        },
        {
          "time": 117.375,
          "midi": 76,
          "name": "E5",
          "velocity": 0.8740157480314961,
          "duration": 0.37187500000000284,
          "ticks": 37560,
          "durationTicks": 119
        },
        {
          "time": 117.375,
          "midi": 79,
          "name": "G5",
          "velocity": 0.8740157480314961,
          "duration": 0.37187500000000284,
          "ticks": 37560,
          "durationTicks": 119
        },
        {
          "time": 117.75,
          "midi": 74,
          "name": "D5",
          "velocity": 0.8740157480314961,
          "duration": 0.18437500000000284,
          "ticks": 37680,
          "durationTicks": 59
        },
        {
          "time": 117.75,
          "midi": 78,
          "name": "F#5",
          "velocity": 0.8740157480314961,
          "duration": 0.18437500000000284,
          "ticks": 37680,
          "durationTicks": 59
        },
        {
          "time": 118.125,
          "midi": 69,
          "name": "A4",
          "velocity": 0.8740157480314961,
          "duration": 0.18437500000000284,
          "ticks": 37800,
          "durationTicks": 59
        },
        {
          "time": 118.125,
          "midi": 76,
          "name": "E5",
          "velocity": 0.8740157480314961,
          "duration": 0.18437500000000284,
          "ticks": 37800,
          "durationTicks": 59
        },
        {
          "time": 118.5,
          "midi": 66,
          "name": "F#4",
          "velocity": 0.8740157480314961,
          "duration": 0.18437500000000284,
          "ticks": 37920,
          "durationTicks": 59
        },
        {
          "time": 118.5,
          "midi": 74,
          "name": "D5",
          "velocity": 0.8740157480314961,
          "duration": 0.18437500000000284,
          "ticks": 37920,
          "durationTicks": 59
        },
        {
          "time": 118.875,
          "midi": 66,
          "name": "F#4",
          "velocity": 0.8740157480314961,
          "duration": 0.18437500000000284,
          "ticks": 38040,
          "durationTicks": 59
        },
        {
          "time": 118.875,
          "midi": 74,
          "name": "D5",
          "velocity": 0.8740157480314961,
          "duration": 0.18437500000000284,
          "ticks": 38040,
          "durationTicks": 59
        },
        {
          "time": 119.25,
          "midi": 69,
          "name": "A4",
          "velocity": 0.8740157480314961,
          "duration": 0.18437500000000284,
          "ticks": 38160,
          "durationTicks": 59
        },
        {
          "time": 119.25,
          "midi": 76,
          "name": "E5",
          "velocity": 0.8740157480314961,
          "duration": 0.18437500000000284,
          "ticks": 38160,
          "durationTicks": 59
        },
        {
          "time": 119.625,
          "midi": 74,
          "name": "D5",
          "velocity": 0.8740157480314961,
          "duration": 0.18437500000000284,
          "ticks": 38280,
          "durationTicks": 59
        },
        {
          "time": 119.625,
          "midi": 78,
          "name": "F#5",
          "velocity": 0.8740157480314961,
          "duration": 0.18437500000000284,
          "ticks": 38280,
          "durationTicks": 59
        },
        {
          "time": 120,
          "midi": 76,
          "name": "E5",
          "velocity": 0.8740157480314961,
          "duration": 0.5593750000000028,
          "ticks": 38400,
          "durationTicks": 179
        },
        {
          "time": 120,
          "midi": 69,
          "name": "A4",
          "velocity": 0.8740157480314961,
          "duration": 0.5593750000000028,
          "ticks": 38400,
          "durationTicks": 179
        },
        {
          "time": 120.5625,
          "midi": 74,
          "name": "D5",
          "velocity": 0.8740157480314961,
          "duration": 0.18437500000000284,
          "ticks": 38580,
          "durationTicks": 59
        },
        {
          "time": 120.5625,
          "midi": 66,
          "name": "F#4",
          "velocity": 0.8740157480314961,
          "duration": 0.18437500000000284,
          "ticks": 38580,
          "durationTicks": 59
        },
        {
          "time": 120.75,
          "midi": 66,
          "name": "F#4",
          "velocity": 0.8740157480314961,
          "duration": 0.7468750000000028,
          "ticks": 38640,
          "durationTicks": 239
        },
        {
          "time": 120.75,
          "midi": 74,
          "name": "D5",
          "velocity": 0.8740157480314961,
          "duration": 0.7468750000000028,
          "ticks": 38640,
          "durationTicks": 239
        },
        {
          "time": 121.5,
          "midi": 69,
          "name": "A4",
          "velocity": 0.8740157480314961,
          "duration": 0.7468750000000028,
          "ticks": 38880,
          "durationTicks": 239
        },
        {
          "time": 121.5,
          "midi": 76,
          "name": "E5",
          "velocity": 0.8740157480314961,
          "duration": 0.7468750000000028,
          "ticks": 38880,
          "durationTicks": 239
        },
        {
          "time": 122.25,
          "midi": 78,
          "name": "F#5",
          "velocity": 0.8740157480314961,
          "duration": 0.37187500000000284,
          "ticks": 39120,
          "durationTicks": 119
        },
        {
          "time": 122.25,
          "midi": 74,
          "name": "D5",
          "velocity": 0.8740157480314961,
          "duration": 0.37187500000000284,
          "ticks": 39120,
          "durationTicks": 119
        },
        {
          "time": 122.625,
          "midi": 66,
          "name": "F#4",
          "velocity": 0.8740157480314961,
          "duration": 0.37187500000000284,
          "ticks": 39240,
          "durationTicks": 119
        },
        {
          "time": 122.625,
          "midi": 74,
          "name": "D5",
          "velocity": 0.8740157480314961,
          "duration": 0.37187500000000284,
          "ticks": 39240,
          "durationTicks": 119
        },
        {
          "time": 123,
          "midi": 69,
          "name": "A4",
          "velocity": 0.8740157480314961,
          "duration": 0.37187500000000284,
          "ticks": 39360,
          "durationTicks": 119
        },
        {
          "time": 123,
          "midi": 76,
          "name": "E5",
          "velocity": 0.8740157480314961,
          "duration": 0.37187500000000284,
          "ticks": 39360,
          "durationTicks": 119
        },
        {
          "time": 123.375,
          "midi": 74,
          "name": "D5",
          "velocity": 0.8740157480314961,
          "duration": 0.18437500000000284,
          "ticks": 39480,
          "durationTicks": 59
        },
        {
          "time": 123.375,
          "midi": 78,
          "name": "F#5",
          "velocity": 0.8740157480314961,
          "duration": 0.18437500000000284,
          "ticks": 39480,
          "durationTicks": 59
        },
        {
          "time": 123.5625,
          "midi": 76,
          "name": "E5",
          "velocity": 0.8740157480314961,
          "duration": 0.18437500000000284,
          "ticks": 39540,
          "durationTicks": 59
        },
        {
          "time": 123.5625,
          "midi": 79,
          "name": "G5",
          "velocity": 0.8740157480314961,
          "duration": 0.18437500000000284,
          "ticks": 39540,
          "durationTicks": 59
        },
        {
          "time": 123.75,
          "midi": 74,
          "name": "D5",
          "velocity": 0.8740157480314961,
          "duration": 0.37187500000000284,
          "ticks": 39600,
          "durationTicks": 119
        },
        {
          "time": 123.75,
          "midi": 78,
          "name": "F#5",
          "velocity": 0.8740157480314961,
          "duration": 0.37187500000000284,
          "ticks": 39600,
          "durationTicks": 119
        },
        {
          "time": 124.125,
          "midi": 66,
          "name": "F#4",
          "velocity": 0.8740157480314961,
          "duration": 0.37187500000000284,
          "ticks": 39720,
          "durationTicks": 119
        },
        {
          "time": 124.125,
          "midi": 74,
          "name": "D5",
          "velocity": 0.8740157480314961,
          "duration": 0.37187500000000284,
          "ticks": 39720,
          "durationTicks": 119
        },
        {
          "time": 124.5,
          "midi": 69,
          "name": "A4",
          "velocity": 0.8740157480314961,
          "duration": 0.37187500000000284,
          "ticks": 39840,
          "durationTicks": 119
        },
        {
          "time": 124.5,
          "midi": 76,
          "name": "E5",
          "velocity": 0.8740157480314961,
          "duration": 0.37187500000000284,
          "ticks": 39840,
          "durationTicks": 119
        },
        {
          "time": 124.875,
          "midi": 78,
          "name": "F#5",
          "velocity": 0.8740157480314961,
          "duration": 0.18437500000000284,
          "ticks": 39960,
          "durationTicks": 59
        },
        {
          "time": 124.875,
          "midi": 74,
          "name": "D5",
          "velocity": 0.8740157480314961,
          "duration": 0.18437500000000284,
          "ticks": 39960,
          "durationTicks": 59
        },
        {
          "time": 125.0625,
          "midi": 76,
          "name": "E5",
          "velocity": 0.8503937007874016,
          "duration": 0.18437500000000284,
          "ticks": 40020,
          "durationTicks": 59
        },
        {
          "time": 125.0625,
          "midi": 79,
          "name": "G5",
          "velocity": 0.8503937007874016,
          "duration": 0.18437500000000284,
          "ticks": 40020,
          "durationTicks": 59
        },
        {
          "time": 125.25,
          "midi": 78,
          "name": "F#5",
          "velocity": 0.8503937007874016,
          "duration": 0.37187500000000284,
          "ticks": 40080,
          "durationTicks": 119
        },
        {
          "time": 125.25,
          "midi": 66,
          "name": "F#4",
          "velocity": 0.8503937007874016,
          "duration": 0.37187500000000284,
          "ticks": 40080,
          "durationTicks": 119
        },
        {
          "time": 125.625,
          "midi": 66,
          "name": "F#4",
          "velocity": 0.8503937007874016,
          "duration": 0.37187500000000284,
          "ticks": 40200,
          "durationTicks": 119
        },
        {
          "time": 125.625,
          "midi": 66,
          "name": "F#4",
          "velocity": 0.8503937007874016,
          "duration": 0.37187500000000284,
          "ticks": 40200,
          "durationTicks": 119
        },
        {
          "time": 126,
          "midi": 62,
          "name": "D4",
          "velocity": 0.8503937007874016,
          "duration": 0.18437500000000284,
          "ticks": 40320,
          "durationTicks": 59
        },
        {
          "time": 126,
          "midi": 74,
          "name": "D5",
          "velocity": 0.8503937007874016,
          "duration": 0.18437500000000284,
          "ticks": 40320,
          "durationTicks": 59
        },
        {
          "time": 126.375,
          "midi": 76,
          "name": "E5",
          "velocity": 0.8503937007874016,
          "duration": 0.18437500000000284,
          "ticks": 40440,
          "durationTicks": 59
        },
        {
          "time": 126.375,
          "midi": 76,
          "name": "E5",
          "velocity": 0.8503937007874016,
          "duration": 0.18437500000000284,
          "ticks": 40440,
          "durationTicks": 59
        },
        {
          "time": 126.75,
          "midi": 69,
          "name": "A4",
          "velocity": 0.8503937007874016,
          "duration": 0.18437500000000284,
          "ticks": 40560,
          "durationTicks": 59
        },
        {
          "time": 126.75,
          "midi": 69,
          "name": "A4",
          "velocity": 0.8503937007874016,
          "duration": 0.18437500000000284,
          "ticks": 40560,
          "durationTicks": 59
        },
        {
          "time": 127.125,
          "midi": 74,
          "name": "D5",
          "velocity": 0.8503937007874016,
          "duration": 0.7468750000000028,
          "ticks": 40680,
          "durationTicks": 239
        },
        {
          "time": 127.125,
          "midi": 78,
          "name": "F#5",
          "velocity": 0.8503937007874016,
          "duration": 0.7468750000000028,
          "ticks": 40680,
          "durationTicks": 239
        },
        {
          "time": 127.875,
          "midi": 74,
          "name": "D5",
          "velocity": 0.8503937007874016,
          "duration": 0.18437499999998863,
          "ticks": 40920,
          "durationTicks": 59
        },
        {
          "time": 127.875,
          "midi": 78,
          "name": "F#5",
          "velocity": 0.8503937007874016,
          "duration": 0.18437499999998863,
          "ticks": 40920,
          "durationTicks": 59
        },
        {
          "time": 128.25,
          "midi": 76,
          "name": "E5",
          "velocity": 0.8503937007874016,
          "duration": 0.18437499999998863,
          "ticks": 41040,
          "durationTicks": 59
        },
        {
          "time": 128.25,
          "midi": 79,
          "name": "G5",
          "velocity": 0.8503937007874016,
          "duration": 0.18437499999998863,
          "ticks": 41040,
          "durationTicks": 59
        },
        {
          "time": 128.625,
          "midi": 78,
          "name": "F#5",
          "velocity": 0.8503937007874016,
          "duration": 0.18437499999998863,
          "ticks": 41160,
          "durationTicks": 59
        },
        {
          "time": 128.625,
          "midi": 81,
          "name": "A5",
          "velocity": 0.8503937007874016,
          "duration": 0.18437499999998863,
          "ticks": 41160,
          "durationTicks": 59
        },
        {
          "time": 129,
          "midi": 81,
          "name": "A5",
          "velocity": 1,
          "duration": 0.37187499999998863,
          "ticks": 41280,
          "durationTicks": 119
        },
        {
          "time": 129,
          "midi": 78,
          "name": "F#5",
          "velocity": 1,
          "duration": 0.37187499999998863,
          "ticks": 41280,
          "durationTicks": 119
        },
        {
          "time": 129.375,
          "midi": 76,
          "name": "E5",
          "velocity": 0.9763779527559056,
          "duration": 0.37187499999998863,
          "ticks": 41400,
          "durationTicks": 119
        },
        {
          "time": 129.375,
          "midi": 79,
          "name": "G5",
          "velocity": 1,
          "duration": 0.37187499999998863,
          "ticks": 41400,
          "durationTicks": 119
        },
        {
          "time": 129.75,
          "midi": 74,
          "name": "D5",
          "velocity": 1,
          "duration": 0.18437499999998863,
          "ticks": 41520,
          "durationTicks": 59
        },
        {
          "time": 129.75,
          "midi": 78,
          "name": "F#5",
          "velocity": 1,
          "duration": 0.18437499999998863,
          "ticks": 41520,
          "durationTicks": 59
        },
        {
          "time": 130.125,
          "midi": 69,
          "name": "A4",
          "velocity": 1,
          "duration": 0.18437499999998863,
          "ticks": 41640,
          "durationTicks": 59
        },
        {
          "time": 130.125,
          "midi": 76,
          "name": "E5",
          "velocity": 1,
          "duration": 0.18437499999998863,
          "ticks": 41640,
          "durationTicks": 59
        },
        {
          "time": 130.5,
          "midi": 66,
          "name": "F#4",
          "velocity": 0.6535433070866141,
          "duration": 0.18437499999998863,
          "ticks": 41760,
          "durationTicks": 59
        },
        {
          "time": 130.5,
          "midi": 74,
          "name": "D5",
          "velocity": 0.7795275590551181,
          "duration": 0.18437499999998863,
          "ticks": 41760,
          "durationTicks": 59
        },
        {
          "time": 130.875,
          "midi": 66,
          "name": "F#4",
          "velocity": 0.937007874015748,
          "duration": 0.18437499999998863,
          "ticks": 41880,
          "durationTicks": 59
        },
        {
          "time": 130.875,
          "midi": 74,
          "name": "D5",
          "velocity": 1,
          "duration": 0.18437499999998863,
          "ticks": 41880,
          "durationTicks": 59
        },
        {
          "time": 131.25,
          "midi": 69,
          "name": "A4",
          "velocity": 0.937007874015748,
          "duration": 0.18437499999998863,
          "ticks": 42000,
          "durationTicks": 59
        },
        {
          "time": 131.25,
          "midi": 76,
          "name": "E5",
          "velocity": 1,
          "duration": 0.18437499999998863,
          "ticks": 42000,
          "durationTicks": 59
        },
        {
          "time": 131.625,
          "midi": 74,
          "name": "D5",
          "velocity": 1,
          "duration": 0.18437499999998863,
          "ticks": 42120,
          "durationTicks": 59
        },
        {
          "time": 131.625,
          "midi": 78,
          "name": "F#5",
          "velocity": 1,
          "duration": 0.18437499999998863,
          "ticks": 42120,
          "durationTicks": 59
        },
        {
          "time": 132,
          "midi": 69,
          "name": "A4",
          "velocity": 1,
          "duration": 0.5593749999999886,
          "ticks": 42240,
          "durationTicks": 179
        },
        {
          "time": 132,
          "midi": 76,
          "name": "E5",
          "velocity": 1,
          "duration": 0.5593749999999886,
          "ticks": 42240,
          "durationTicks": 179
        },
        {
          "time": 132.5625,
          "midi": 66,
          "name": "F#4",
          "velocity": 0.9763779527559056,
          "duration": 0.18437499999998863,
          "ticks": 42420,
          "durationTicks": 59
        },
        {
          "time": 132.5625,
          "midi": 74,
          "name": "D5",
          "velocity": 1,
          "duration": 0.18437499999998863,
          "ticks": 42420,
          "durationTicks": 59
        },
        {
          "time": 132.75,
          "midi": 74,
          "name": "D5",
          "velocity": 1,
          "duration": 0.09062499999998863,
          "ticks": 42480,
          "durationTicks": 29
        },
        {
          "time": 132.75,
          "midi": 66,
          "name": "F#4",
          "velocity": 1,
          "duration": 0.09062499999998863,
          "ticks": 42480,
          "durationTicks": 29
        },
        {
          "time": 132.9375,
          "midi": 81,
          "name": "A5",
          "velocity": 1,
          "duration": 0.18437499999998863,
          "ticks": 42540,
          "durationTicks": 59
        },
        {
          "time": 132.9375,
          "midi": 78,
          "name": "F#5",
          "velocity": 1,
          "duration": 0.18437499999998863,
          "ticks": 42540,
          "durationTicks": 59
        },
        {
          "time": 133.125,
          "midi": 76,
          "name": "E5",
          "velocity": 1,
          "duration": 0.18437499999998863,
          "ticks": 42600,
          "durationTicks": 59
        },
        {
          "time": 133.125,
          "midi": 79,
          "name": "G5",
          "velocity": 1,
          "duration": 0.18437499999998863,
          "ticks": 42600,
          "durationTicks": 59
        },
        {
          "time": 133.3125,
          "midi": 74,
          "name": "D5",
          "velocity": 1,
          "duration": 0.18437499999998863,
          "ticks": 42660,
          "durationTicks": 59
        },
        {
          "time": 133.3125,
          "midi": 78,
          "name": "F#5",
          "velocity": 1,
          "duration": 0.18437499999998863,
          "ticks": 42660,
          "durationTicks": 59
        },
        {
          "time": 133.5,
          "midi": 69,
          "name": "A4",
          "velocity": 1,
          "duration": 0.7468749999999886,
          "ticks": 42720,
          "durationTicks": 239
        },
        {
          "time": 133.5,
          "midi": 76,
          "name": "E5",
          "velocity": 1,
          "duration": 0.7468749999999886,
          "ticks": 42720,
          "durationTicks": 239
        },
        {
          "time": 134.25,
          "midi": 74,
          "name": "D5",
          "velocity": 1,
          "duration": 0.37187499999998863,
          "ticks": 42960,
          "durationTicks": 119
        },
        {
          "time": 134.25,
          "midi": 78,
          "name": "F#5",
          "velocity": 1,
          "duration": 0.37187499999998863,
          "ticks": 42960,
          "durationTicks": 119
        },
        {
          "time": 134.625,
          "midi": 66,
          "name": "F#4",
          "velocity": 1,
          "duration": 0.37187499999998863,
          "ticks": 43080,
          "durationTicks": 119
        },
        {
          "time": 134.625,
          "midi": 74,
          "name": "D5",
          "velocity": 1,
          "duration": 0.37187499999998863,
          "ticks": 43080,
          "durationTicks": 119
        },
        {
          "time": 135,
          "midi": 69,
          "name": "A4",
          "velocity": 1,
          "duration": 0.37187499999998863,
          "ticks": 43200,
          "durationTicks": 119
        },
        {
          "time": 135,
          "midi": 76,
          "name": "E5",
          "velocity": 1,
          "duration": 0.37187499999998863,
          "ticks": 43200,
          "durationTicks": 119
        },
        {
          "time": 135.375,
          "midi": 74,
          "name": "D5",
          "velocity": 0.937007874015748,
          "duration": 0.18437499999998863,
          "ticks": 43320,
          "durationTicks": 59
        },
        {
          "time": 135.375,
          "midi": 78,
          "name": "F#5",
          "velocity": 1,
          "duration": 0.18437499999998863,
          "ticks": 43320,
          "durationTicks": 59
        },
        {
          "time": 135.5625,
          "midi": 76,
          "name": "E5",
          "velocity": 1,
          "duration": 0.18437499999998863,
          "ticks": 43380,
          "durationTicks": 59
        },
        {
          "time": 135.5625,
          "midi": 79,
          "name": "G5",
          "velocity": 1,
          "duration": 0.18437499999998863,
          "ticks": 43380,
          "durationTicks": 59
        },
        {
          "time": 135.75,
          "midi": 74,
          "name": "D5",
          "velocity": 1,
          "duration": 0.37187499999998863,
          "ticks": 43440,
          "durationTicks": 119
        },
        {
          "time": 135.75,
          "midi": 78,
          "name": "F#5",
          "velocity": 1,
          "duration": 0.37187499999998863,
          "ticks": 43440,
          "durationTicks": 119
        },
        {
          "time": 136.125,
          "midi": 66,
          "name": "F#4",
          "velocity": 1,
          "duration": 0.18437499999998863,
          "ticks": 43560,
          "durationTicks": 59
        },
        {
          "time": 136.125,
          "midi": 74,
          "name": "D5",
          "velocity": 1,
          "duration": 0.18437499999998863,
          "ticks": 43560,
          "durationTicks": 59
        },
        {
          "time": 136.5,
          "midi": 69,
          "name": "A4",
          "velocity": 1,
          "duration": 0.37187499999998863,
          "ticks": 43680,
          "durationTicks": 119
        },
        {
          "time": 136.5,
          "midi": 76,
          "name": "E5",
          "velocity": 1,
          "duration": 0.37187499999998863,
          "ticks": 43680,
          "durationTicks": 119
        },
        {
          "time": 136.875,
          "midi": 74,
          "name": "D5",
          "velocity": 0.905511811023622,
          "duration": 0.18437499999998863,
          "ticks": 43800,
          "durationTicks": 59
        },
        {
          "time": 136.875,
          "midi": 78,
          "name": "F#5",
          "velocity": 1,
          "duration": 0.18437499999998863,
          "ticks": 43800,
          "durationTicks": 59
        },
        {
          "time": 137.0625,
          "midi": 76,
          "name": "E5",
          "velocity": 1,
          "duration": 0.18437499999998863,
          "ticks": 43860,
          "durationTicks": 59
        },
        {
          "time": 137.0625,
          "midi": 79,
          "name": "G5",
          "velocity": 1,
          "duration": 0.18437499999998863,
          "ticks": 43860,
          "durationTicks": 59
        },
        {
          "time": 137.25,
          "midi": 66,
          "name": "F#4",
          "velocity": 1,
          "duration": 0.37187499999998863,
          "ticks": 43920,
          "durationTicks": 119
        },
        {
          "time": 137.25,
          "midi": 78,
          "name": "F#5",
          "velocity": 1,
          "duration": 0.37187499999998863,
          "ticks": 43920,
          "durationTicks": 119
        },
        {
          "time": 137.625,
          "midi": 66,
          "name": "F#4",
          "velocity": 1,
          "duration": 0.37187499999998863,
          "ticks": 44040,
          "durationTicks": 119
        },
        {
          "time": 137.625,
          "midi": 66,
          "name": "F#4",
          "velocity": 1,
          "duration": 0.37187499999998863,
          "ticks": 44040,
          "durationTicks": 119
        },
        {
          "time": 138,
          "midi": 66,
          "name": "F#4",
          "velocity": 1,
          "duration": 0.18437499999998863,
          "ticks": 44160,
          "durationTicks": 59
        },
        {
          "time": 138,
          "midi": 78,
          "name": "F#5",
          "velocity": 1,
          "duration": 0.18437499999998863,
          "ticks": 44160,
          "durationTicks": 59
        },
        {
          "time": 138.375,
          "midi": 76,
          "name": "E5",
          "velocity": 1,
          "duration": 0.18437499999998863,
          "ticks": 44280,
          "durationTicks": 59
        },
        {
          "time": 138.375,
          "midi": 76,
          "name": "E5",
          "velocity": 0.937007874015748,
          "duration": 0.18437499999998863,
          "ticks": 44280,
          "durationTicks": 59
        },
        {
          "time": 138.75,
          "midi": 69,
          "name": "A4",
          "velocity": 1,
          "duration": 0.18437499999998863,
          "ticks": 44400,
          "durationTicks": 59
        },
        {
          "time": 138.75,
          "midi": 69,
          "name": "A4",
          "velocity": 1,
          "duration": 0.18437499999998863,
          "ticks": 44400,
          "durationTicks": 59
        },
        {
          "time": 139.125,
          "midi": 74,
          "name": "D5",
          "velocity": 0.9763779527559056,
          "duration": 0.7468749999999886,
          "ticks": 44520,
          "durationTicks": 239
        },
        {
          "time": 139.125,
          "midi": 78,
          "name": "F#5",
          "velocity": 1,
          "duration": 0.7468749999999886,
          "ticks": 44520,
          "durationTicks": 239
        },
        {
          "time": 139.875,
          "midi": 74,
          "name": "D5",
          "velocity": 1,
          "duration": 0.18437499999998863,
          "ticks": 44760,
          "durationTicks": 59
        },
        {
          "time": 139.875,
          "midi": 78,
          "name": "F#5",
          "velocity": 1,
          "duration": 0.18437499999998863,
          "ticks": 44760,
          "durationTicks": 59
        },
        {
          "time": 140.25,
          "midi": 79,
          "name": "G5",
          "velocity": 1,
          "duration": 0.18437499999998863,
          "ticks": 44880,
          "durationTicks": 59
        },
        {
          "time": 140.25,
          "midi": 76,
          "name": "E5",
          "velocity": 1,
          "duration": 0.18437499999998863,
          "ticks": 44880,
          "durationTicks": 59
        },
        {
          "time": 140.625,
          "midi": 81,
          "name": "A5",
          "velocity": 1,
          "duration": 0.18437499999998863,
          "ticks": 45000,
          "durationTicks": 59
        },
        {
          "time": 140.625,
          "midi": 78,
          "name": "F#5",
          "velocity": 1,
          "duration": 0.18437499999998863,
          "ticks": 45000,
          "durationTicks": 59
        },
        {
          "time": 141,
          "midi": 81,
          "name": "A5",
          "velocity": 1,
          "duration": 0.37187499999998863,
          "ticks": 45120,
          "durationTicks": 119
        },
        {
          "time": 141,
          "midi": 78,
          "name": "F#5",
          "velocity": 1,
          "duration": 0.37187499999998863,
          "ticks": 45120,
          "durationTicks": 119
        },
        {
          "time": 141.375,
          "midi": 76,
          "name": "E5",
          "velocity": 1,
          "duration": 0.37187499999998863,
          "ticks": 45240,
          "durationTicks": 119
        },
        {
          "time": 141.375,
          "midi": 79,
          "name": "G5",
          "velocity": 1,
          "duration": 0.37187499999998863,
          "ticks": 45240,
          "durationTicks": 119
        },
        {
          "time": 141.75,
          "midi": 74,
          "name": "D5",
          "velocity": 1,
          "duration": 0.18437499999998863,
          "ticks": 45360,
          "durationTicks": 59
        },
        {
          "time": 141.75,
          "midi": 78,
          "name": "F#5",
          "velocity": 1,
          "duration": 0.18437499999998863,
          "ticks": 45360,
          "durationTicks": 59
        },
        {
          "time": 142.125,
          "midi": 69,
          "name": "A4",
          "velocity": 0.937007874015748,
          "duration": 0.18437499999998863,
          "ticks": 45480,
          "durationTicks": 59
        },
        {
          "time": 142.125,
          "midi": 76,
          "name": "E5",
          "velocity": 1,
          "duration": 0.18437499999998863,
          "ticks": 45480,
          "durationTicks": 59
        },
        {
          "time": 142.5,
          "midi": 74,
          "name": "D5",
          "velocity": 1,
          "duration": 0.37187499999998863,
          "ticks": 45600,
          "durationTicks": 119
        },
        {
          "time": 142.5,
          "midi": 66,
          "name": "F#4",
          "velocity": 1,
          "duration": 0.37187499999998863,
          "ticks": 45600,
          "durationTicks": 119
        },
        {
          "time": 142.875,
          "midi": 74,
          "name": "D5",
          "velocity": 1,
          "duration": 0.18437499999998863,
          "ticks": 45720,
          "durationTicks": 59
        },
        {
          "time": 142.875,
          "midi": 66,
          "name": "F#4",
          "velocity": 1,
          "duration": 0.18437499999998863,
          "ticks": 45720,
          "durationTicks": 59
        },
        {
          "time": 143.25,
          "midi": 69,
          "name": "A4",
          "velocity": 1,
          "duration": 0.18437499999998863,
          "ticks": 45840,
          "durationTicks": 59
        },
        {
          "time": 143.25,
          "midi": 76,
          "name": "E5",
          "velocity": 1,
          "duration": 0.18437499999998863,
          "ticks": 45840,
          "durationTicks": 59
        },
        {
          "time": 143.625,
          "midi": 74,
          "name": "D5",
          "velocity": 1,
          "duration": 0.18437499999998863,
          "ticks": 45960,
          "durationTicks": 59
        },
        {
          "time": 143.625,
          "midi": 78,
          "name": "F#5",
          "velocity": 1,
          "duration": 0.18437499999998863,
          "ticks": 45960,
          "durationTicks": 59
        },
        {
          "time": 144,
          "midi": 69,
          "name": "A4",
          "velocity": 0.9763779527559056,
          "duration": 0.5593749999999886,
          "ticks": 46080,
          "durationTicks": 179
        },
        {
          "time": 144,
          "midi": 76,
          "name": "E5",
          "velocity": 1,
          "duration": 0.5593749999999886,
          "ticks": 46080,
          "durationTicks": 179
        },
        {
          "time": 144.5625,
          "midi": 74,
          "name": "D5",
          "velocity": 1,
          "duration": 0.18437499999998863,
          "ticks": 46260,
          "durationTicks": 59
        },
        {
          "time": 144.5625,
          "midi": 66,
          "name": "F#4",
          "velocity": 1,
          "duration": 0.18437499999998863,
          "ticks": 46260,
          "durationTicks": 59
        },
        {
          "time": 144.75,
          "midi": 74,
          "name": "D5",
          "velocity": 1,
          "duration": 0.37187499999998863,
          "ticks": 46320,
          "durationTicks": 119
        },
        {
          "time": 144.75,
          "midi": 66,
          "name": "F#4",
          "velocity": 1,
          "duration": 0.37187499999998863,
          "ticks": 46320,
          "durationTicks": 119
        },
        {
          "time": 145.125,
          "midi": 69,
          "name": "A4",
          "velocity": 1,
          "duration": 0.37187499999998863,
          "ticks": 46440,
          "durationTicks": 119
        },
        {
          "time": 145.125,
          "midi": 66,
          "name": "F#4",
          "velocity": 1,
          "duration": 0.37187499999998863,
          "ticks": 46440,
          "durationTicks": 119
        },
        {
          "time": 145.5,
          "midi": 74,
          "name": "D5",
          "velocity": 1,
          "duration": 0.5593749999999886,
          "ticks": 46560,
          "durationTicks": 179
        },
        {
          "time": 145.5,
          "midi": 62,
          "name": "D4",
          "velocity": 1,
          "duration": 0.5593749999999886,
          "ticks": 46560,
          "durationTicks": 179
        },
        {
          "time": 146.0625,
          "midi": 74,
          "name": "D5",
          "velocity": 0.7795275590551181,
          "duration": 0.18437499999998863,
          "ticks": 46740,
          "durationTicks": 59
        },
        {
          "time": 146.0625,
          "midi": 62,
          "name": "D4",
          "velocity": 0.9763779527559056,
          "duration": 0.18437499999998863,
          "ticks": 46740,
          "durationTicks": 59
        },
        {
          "time": 146.25,
          "midi": 74,
          "name": "D5",
          "velocity": 0.9763779527559056,
          "duration": 0.37187499999998863,
          "ticks": 46800,
          "durationTicks": 119
        },
        {
          "time": 146.25,
          "midi": 62,
          "name": "D4",
          "velocity": 1,
          "duration": 0.37187499999998863,
          "ticks": 46800,
          "durationTicks": 119
        },
        {
          "time": 146.625,
          "midi": 62,
          "name": "D4",
          "velocity": 0.8031496062992126,
          "duration": 0.37187499999998863,
          "ticks": 46920,
          "durationTicks": 119
        },
        {
          "time": 146.625,
          "midi": 74,
          "name": "D5",
          "velocity": 1,
          "duration": 0.37187499999998863,
          "ticks": 46920,
          "durationTicks": 119
        },
        {
          "time": 147,
          "midi": 62,
          "name": "D4",
          "velocity": 1,
          "duration": 0.5593749999999886,
          "ticks": 47040,
          "durationTicks": 179
        },
        {
          "time": 147,
          "midi": 74,
          "name": "D5",
          "velocity": 1,
          "duration": 0.5593749999999886,
          "ticks": 47040,
          "durationTicks": 179
        },
        {
          "time": 147.5625,
          "midi": 62,
          "name": "D4",
          "velocity": 1,
          "duration": 0.18437499999998863,
          "ticks": 47220,
          "durationTicks": 59
        },
        {
          "time": 147.5625,
          "midi": 74,
          "name": "D5",
          "velocity": 0.8031496062992126,
          "duration": 0.18437499999998863,
          "ticks": 47220,
          "durationTicks": 59
        },
        {
          "time": 147.75,
          "midi": 62,
          "name": "D4",
          "velocity": 1,
          "duration": 0.37187499999998863,
          "ticks": 47280,
          "durationTicks": 119
        },
        {
          "time": 147.75,
          "midi": 74,
          "name": "D5",
          "velocity": 0.7401574803149606,
          "duration": 0.37187499999998863,
          "ticks": 47280,
          "durationTicks": 119
        },
        {
          "time": 148.125,
          "midi": 74,
          "name": "D5",
          "velocity": 0.8267716535433071,
          "duration": 0.37187499999998863,
          "ticks": 47400,
          "durationTicks": 119
        },
        {
          "time": 148.125,
          "midi": 62,
          "name": "D4",
          "velocity": 0.8031496062992126,
          "duration": 0.37187499999998863,
          "ticks": 47400,
          "durationTicks": 119
        },
        {
          "time": 148.5,
          "midi": 74,
          "name": "D5",
          "velocity": 1,
          "duration": 0.5593749999999886,
          "ticks": 47520,
          "durationTicks": 179
        },
        {
          "time": 148.5,
          "midi": 62,
          "name": "D4",
          "velocity": 0.937007874015748,
          "duration": 0.5593749999999886,
          "ticks": 47520,
          "durationTicks": 179
        },
        {
          "time": 149.0625,
          "midi": 74,
          "name": "D5",
          "velocity": 0.6929133858267716,
          "duration": 0.18437499999998863,
          "ticks": 47700,
          "durationTicks": 59
        },
        {
          "time": 149.0625,
          "midi": 76,
          "name": "E5",
          "velocity": 0.7401574803149606,
          "duration": 0.18437499999998863,
          "ticks": 47700,
          "durationTicks": 59
        },
        {
          "time": 149.25,
          "midi": 69,
          "name": "A4",
          "velocity": 0.8267716535433071,
          "duration": 0.37187499999998863,
          "ticks": 47760,
          "durationTicks": 119
        },
        {
          "time": 149.25,
          "midi": 76,
          "name": "E5",
          "velocity": 1,
          "duration": 0.37187499999998863,
          "ticks": 47760,
          "durationTicks": 119
        },
        {
          "time": 149.625,
          "midi": 69,
          "name": "A4",
          "velocity": 1,
          "duration": 0.37187499999998863,
          "ticks": 47880,
          "durationTicks": 119
        },
        {
          "time": 149.625,
          "midi": 76,
          "name": "E5",
          "velocity": 1,
          "duration": 0.18437499999998863,
          "ticks": 47880,
          "durationTicks": 59
        },
        {
          "time": 149.8125,
          "midi": 78,
          "name": "F#5",
          "velocity": 1,
          "duration": 0.18437499999998863,
          "ticks": 47940,
          "durationTicks": 59
        },
        {
          "time": 150,
          "midi": 69,
          "name": "A4",
          "velocity": 0.8267716535433071,
          "duration": 0.5593749999999886,
          "ticks": 48000,
          "durationTicks": 179
        },
        {
          "time": 150,
          "midi": 76,
          "name": "E5",
          "velocity": 1,
          "duration": 0.5593749999999886,
          "ticks": 48000,
          "durationTicks": 179
        },
        {
          "time": 150.5625,
          "midi": 66,
          "name": "F#4",
          "velocity": 0.8818897637795275,
          "duration": 0.18437499999998863,
          "ticks": 48180,
          "durationTicks": 59
        },
        {
          "time": 150.5625,
          "midi": 74,
          "name": "D5",
          "velocity": 1,
          "duration": 0.18437499999998863,
          "ticks": 48180,
          "durationTicks": 59
        },
        {
          "time": 150.75,
          "midi": 66,
          "name": "F#4",
          "velocity": 0.8503937007874016,
          "duration": 0.37187499999998863,
          "ticks": 48240,
          "durationTicks": 119
        },
        {
          "time": 150.75,
          "midi": 74,
          "name": "D5",
          "velocity": 0.905511811023622,
          "duration": 0.37187499999998863,
          "ticks": 48240,
          "durationTicks": 119
        },
        {
          "time": 151.125,
          "midi": 62,
          "name": "D4",
          "velocity": 0.8818897637795275,
          "duration": 0.9375,
          "ticks": 48360,
          "durationTicks": 300
        },
        {
          "time": 151.125,
          "midi": 74,
          "name": "D5",
          "velocity": 1,
          "duration": 0.9375,
          "ticks": 48360,
          "durationTicks": 300
        },
        {
          "time": 152.0625,
          "midi": 76,
          "name": "E5",
          "velocity": 1,
          "duration": 0.18437499999998863,
          "ticks": 48660,
          "durationTicks": 59
        },
        {
          "time": 152.0625,
          "midi": 74,
          "name": "D5",
          "velocity": 1,
          "duration": 0.18437499999998863,
          "ticks": 48660,
          "durationTicks": 59
        },
        {
          "time": 152.25,
          "midi": 69,
          "name": "A4",
          "velocity": 1,
          "duration": 0.37187499999998863,
          "ticks": 48720,
          "durationTicks": 119
        },
        {
          "time": 152.25,
          "midi": 76,
          "name": "E5",
          "velocity": 1,
          "duration": 0.37187499999998863,
          "ticks": 48720,
          "durationTicks": 119
        },
        {
          "time": 152.625,
          "midi": 76,
          "name": "E5",
          "velocity": 1,
          "duration": 0.9375,
          "ticks": 48840,
          "durationTicks": 300
        },
        {
          "time": 152.625,
          "midi": 76,
          "name": "E5",
          "velocity": 0.8818897637795275,
          "duration": 0.9375,
          "ticks": 48840,
          "durationTicks": 300
        },
        {
          "time": 153.5625,
          "midi": 78,
          "name": "F#5",
          "velocity": 0.9763779527559056,
          "duration": 0.18437499999998863,
          "ticks": 49140,
          "durationTicks": 59
        },
        {
          "time": 153.5625,
          "midi": 66,
          "name": "F#4",
          "velocity": 0.9763779527559056,
          "duration": 0.18437499999998863,
          "ticks": 49140,
          "durationTicks": 59
        },
        {
          "time": 153.75,
          "midi": 66,
          "name": "F#4",
          "velocity": 0.905511811023622,
          "duration": 0.37187499999998863,
          "ticks": 49200,
          "durationTicks": 119
        },
        {
          "time": 153.75,
          "midi": 78,
          "name": "F#5",
          "velocity": 0.937007874015748,
          "duration": 0.37187499999998863,
          "ticks": 49200,
          "durationTicks": 119
        },
        {
          "time": 154.125,
          "midi": 78,
          "name": "F#5",
          "velocity": 1,
          "duration": 0.7468749999999886,
          "ticks": 49320,
          "durationTicks": 239
        },
        {
          "time": 154.125,
          "midi": 66,
          "name": "F#4",
          "velocity": 0.905511811023622,
          "duration": 0.7468749999999886,
          "ticks": 49320,
          "durationTicks": 239
        },
        {
          "time": 156,
          "midi": 76,
          "name": "E5",
          "velocity": 1,
          "duration": 0.37187499999998863,
          "ticks": 49920,
          "durationTicks": 119
        },
        {
          "time": 156,
          "midi": 79,
          "name": "G5",
          "velocity": 1,
          "duration": 0.37187499999998863,
          "ticks": 49920,
          "durationTicks": 119
        },
        {
          "time": 156.75,
          "midi": 78,
          "name": "F#5",
          "velocity": 1,
          "duration": 0.37187499999998863,
          "ticks": 50160,
          "durationTicks": 119
        },
        {
          "time": 156.75,
          "midi": 66,
          "name": "F#4",
          "velocity": 0.9763779527559056,
          "duration": 0.37187499999998863,
          "ticks": 50160,
          "durationTicks": 119
        },
        {
          "time": 158.625,
          "midi": 62,
          "name": "D4",
          "velocity": 0.8818897637795275,
          "duration": 0.37187499999998863,
          "ticks": 50760,
          "durationTicks": 119
        },
        {
          "time": 158.625,
          "midi": 74,
          "name": "D5",
          "velocity": 0.9763779527559056,
          "duration": 0.37187499999998863,
          "ticks": 50760,
          "durationTicks": 119
        },
        {
          "time": 159,
          "midi": 62,
          "name": "D4",
          "velocity": 1,
          "duration": 0.5593749999999886,
          "ticks": 50880,
          "durationTicks": 179
        },
        {
          "time": 159,
          "midi": 74,
          "name": "D5",
          "velocity": 1,
          "duration": 0.5593749999999886,
          "ticks": 50880,
          "durationTicks": 179
        },
        {
          "time": 159.5625,
          "midi": 76,
          "name": "E5",
          "velocity": 1,
          "duration": 0.18437499999998863,
          "ticks": 51060,
          "durationTicks": 59
        },
        {
          "time": 159.75,
          "midi": 76,
          "name": "E5",
          "velocity": 1,
          "duration": 0.5593749999999886,
          "ticks": 51120,
          "durationTicks": 179
        },
        {
          "time": 160.3125,
          "midi": 74,
          "name": "D5",
          "velocity": 1,
          "duration": 0.7468749999999886,
          "ticks": 51300,
          "durationTicks": 239
        },
        {
          "time": 161.0625,
          "midi": 76,
          "name": "E5",
          "velocity": 1,
          "duration": 0.18437499999998863,
          "ticks": 51540,
          "durationTicks": 59
        },
        {
          "time": 161.25,
          "midi": 76,
          "name": "E5",
          "velocity": 1,
          "duration": 0.18437499999998863,
          "ticks": 51600,
          "durationTicks": 59
        },
        {
          "time": 161.4375,
          "midi": 76,
          "name": "E5",
          "velocity": 1,
          "duration": 0.18437499999998863,
          "ticks": 51660,
          "durationTicks": 59
        },
        {
          "time": 161.625,
          "midi": 76,
          "name": "E5",
          "velocity": 1,
          "duration": 0.18437499999998863,
          "ticks": 51720,
          "durationTicks": 59
        },
        {
          "time": 161.8125,
          "midi": 76,
          "name": "E5",
          "velocity": 1,
          "duration": 0.18437499999998863,
          "ticks": 51780,
          "durationTicks": 59
        },
        {
          "time": 162,
          "midi": 76,
          "name": "E5",
          "velocity": 1,
          "duration": 0.37187499999998863,
          "ticks": 51840,
          "durationTicks": 119
        },
        {
          "time": 162.375,
          "midi": 76,
          "name": "E5",
          "velocity": 1,
          "duration": 0.18437499999998863,
          "ticks": 51960,
          "durationTicks": 59
        },
        {
          "time": 162.375,
          "midi": 69,
          "name": "A4",
          "velocity": 0.9763779527559056,
          "duration": 0.18437499999998863,
          "ticks": 51960,
          "durationTicks": 59
        },
        {
          "time": 162.5625,
          "midi": 76,
          "name": "E5",
          "velocity": 1,
          "duration": 0.18437499999998863,
          "ticks": 52020,
          "durationTicks": 59
        },
        {
          "time": 162.5625,
          "midi": 69,
          "name": "A4",
          "velocity": 0.6771653543307087,
          "duration": 0.18437499999998863,
          "ticks": 52020,
          "durationTicks": 59
        },
        {
          "time": 162.75,
          "midi": 62,
          "name": "D4",
          "velocity": 1,
          "duration": 0.37187499999998863,
          "ticks": 52080,
          "durationTicks": 119
        },
        {
          "time": 162.75,
          "midi": 78,
          "name": "F#5",
          "velocity": 1,
          "duration": 0.37187499999998863,
          "ticks": 52080,
          "durationTicks": 119
        },
        {
          "time": 163.125,
          "midi": 62,
          "name": "D4",
          "velocity": 0.7244094488188977,
          "duration": 0.18437499999998863,
          "ticks": 52200,
          "durationTicks": 59
        },
        {
          "time": 163.125,
          "midi": 78,
          "name": "F#5",
          "velocity": 1,
          "duration": 0.18437499999998863,
          "ticks": 52200,
          "durationTicks": 59
        },
        {
          "time": 163.3125,
          "midi": 62,
          "name": "D4",
          "velocity": 0.937007874015748,
          "duration": 0.18437499999998863,
          "ticks": 52260,
          "durationTicks": 59
        },
        {
          "time": 163.3125,
          "midi": 78,
          "name": "F#5",
          "velocity": 1,
          "duration": 0.18437499999998863,
          "ticks": 52260,
          "durationTicks": 59
        },
        {
          "time": 163.5,
          "midi": 76,
          "name": "E5",
          "velocity": 1,
          "duration": 0.37187499999998863,
          "ticks": 52320,
          "durationTicks": 119
        },
        {
          "time": 163.5,
          "midi": 76,
          "name": "E5",
          "velocity": 1,
          "duration": 0.37187499999998863,
          "ticks": 52320,
          "durationTicks": 119
        },
        {
          "time": 164.0625,
          "midi": 69,
          "name": "A4",
          "velocity": 1,
          "duration": 0.18437499999998863,
          "ticks": 52500,
          "durationTicks": 59
        },
        {
          "time": 164.0625,
          "midi": 57,
          "name": "A3",
          "velocity": 0.905511811023622,
          "duration": 0.18437499999998863,
          "ticks": 52500,
          "durationTicks": 59
        },
        {
          "time": 164.25,
          "midi": 69,
          "name": "A4",
          "velocity": 1,
          "duration": 0.18437499999998863,
          "ticks": 52560,
          "durationTicks": 59
        },
        {
          "time": 164.25,
          "midi": 57,
          "name": "A3",
          "velocity": 1,
          "duration": 0.18437499999998863,
          "ticks": 52560,
          "durationTicks": 59
        },
        {
          "time": 164.4375,
          "midi": 69,
          "name": "A4",
          "velocity": 1,
          "duration": 0.18437499999998863,
          "ticks": 52620,
          "durationTicks": 59
        },
        {
          "time": 164.4375,
          "midi": 57,
          "name": "A3",
          "velocity": 1,
          "duration": 0.18437499999998863,
          "ticks": 52620,
          "durationTicks": 59
        },
        {
          "time": 164.625,
          "midi": 76,
          "name": "E5",
          "velocity": 1,
          "duration": 0.18437499999998863,
          "ticks": 52680,
          "durationTicks": 59
        },
        {
          "time": 164.625,
          "midi": 76,
          "name": "E5",
          "velocity": 1,
          "duration": 0.18437499999998863,
          "ticks": 52680,
          "durationTicks": 59
        },
        {
          "time": 164.8125,
          "midi": 76,
          "name": "E5",
          "velocity": 1,
          "duration": 0.18437499999998863,
          "ticks": 52740,
          "durationTicks": 59
        },
        {
          "time": 164.8125,
          "midi": 76,
          "name": "E5",
          "velocity": 1,
          "duration": 0.18437499999998863,
          "ticks": 52740,
          "durationTicks": 59
        },
        {
          "time": 165,
          "midi": 81,
          "name": "A5",
          "velocity": 1,
          "duration": 0.7468749999999886,
          "ticks": 52800,
          "durationTicks": 239
        },
        {
          "time": 165,
          "midi": 69,
          "name": "A4",
          "velocity": 1,
          "duration": 0.7468749999999886,
          "ticks": 52800,
          "durationTicks": 239
        },
        {
          "time": 165.75,
          "midi": 76,
          "name": "E5",
          "velocity": 1,
          "duration": 0.18437499999998863,
          "ticks": 53040,
          "durationTicks": 59
        },
        {
          "time": 165.75,
          "midi": 76,
          "name": "E5",
          "velocity": 1,
          "duration": 0.18437499999998863,
          "ticks": 53040,
          "durationTicks": 59
        },
        {
          "time": 166.125,
          "midi": 76,
          "name": "E5",
          "velocity": 1,
          "duration": 0.18437499999998863,
          "ticks": 53160,
          "durationTicks": 59
        },
        {
          "time": 166.125,
          "midi": 76,
          "name": "E5",
          "velocity": 1,
          "duration": 0.18437499999998863,
          "ticks": 53160,
          "durationTicks": 59
        },
        {
          "time": 166.5,
          "midi": 81,
          "name": "A5",
          "velocity": 1,
          "duration": 0.7468749999999886,
          "ticks": 53280,
          "durationTicks": 239
        },
        {
          "time": 166.5,
          "midi": 69,
          "name": "A4",
          "velocity": 1,
          "duration": 0.7468749999999886,
          "ticks": 53280,
          "durationTicks": 239
        },
        {
          "time": 167.25,
          "midi": 76,
          "name": "E5",
          "velocity": 1,
          "duration": 0.18437499999998863,
          "ticks": 53520,
          "durationTicks": 59
        },
        {
          "time": 167.25,
          "midi": 76,
          "name": "E5",
          "velocity": 1,
          "duration": 0.18437499999998863,
          "ticks": 53520,
          "durationTicks": 59
        },
        {
          "time": 167.625,
          "midi": 76,
          "name": "E5",
          "velocity": 1,
          "duration": 0.18437499999998863,
          "ticks": 53640,
          "durationTicks": 59
        },
        {
          "time": 167.625,
          "midi": 76,
          "name": "E5",
          "velocity": 1,
          "duration": 0.18437499999998863,
          "ticks": 53640,
          "durationTicks": 59
        },
        {
          "time": 176.625,
          "midi": 76,
          "name": "E5",
          "velocity": 1,
          "duration": 0.3687500000000057,
          "ticks": 55140,
          "durationTicks": 59
        },
        {
          "time": 176.625,
          "midi": 76,
          "name": "E5",
          "velocity": 1,
          "duration": 0.3687500000000057,
          "ticks": 55140,
          "durationTicks": 59
        },
        {
          "time": 177,
          "midi": 76,
          "name": "E5",
          "velocity": 1,
          "duration": 0.18437499999998863,
          "ticks": 55200,
          "durationTicks": 59
        },
        {
          "time": 177,
          "midi": 76,
          "name": "E5",
          "velocity": 1,
          "duration": 0.18437499999998863,
          "ticks": 55200,
          "durationTicks": 59
        },
        {
          "time": 177.1875,
          "midi": 69,
          "name": "A4",
          "velocity": 1,
          "duration": 0.18437499999998863,
          "ticks": 55260,
          "durationTicks": 59
        },
        {
          "time": 177.1875,
          "midi": 69,
          "name": "A4",
          "velocity": 1,
          "duration": 0.18437499999998863,
          "ticks": 55260,
          "durationTicks": 59
        },
        {
          "time": 177.375,
          "midi": 81,
          "name": "A5",
          "velocity": 1,
          "duration": 0.09062499999998863,
          "ticks": 55320,
          "durationTicks": 29
        },
        {
          "time": 177.375,
          "midi": 69,
          "name": "A4",
          "velocity": 1,
          "duration": 0.09062499999998863,
          "ticks": 55320,
          "durationTicks": 29
        },
        {
          "time": 177.5625,
          "midi": 81,
          "name": "A5",
          "velocity": 1,
          "duration": 0.09062499999998863,
          "ticks": 55380,
          "durationTicks": 29
        },
        {
          "time": 177.5625,
          "midi": 69,
          "name": "A4",
          "velocity": 1,
          "duration": 0.09062499999998863,
          "ticks": 55380,
          "durationTicks": 29
        },
        {
          "time": 177.75,
          "midi": 76,
          "name": "E5",
          "velocity": 1,
          "duration": 0.37187499999998863,
          "ticks": 55440,
          "durationTicks": 119
        },
        {
          "time": 177.75,
          "midi": 76,
          "name": "E5",
          "velocity": 1,
          "duration": 0.37187499999998863,
          "ticks": 55440,
          "durationTicks": 119
        },
        {
          "time": 178.125,
          "midi": 76,
          "name": "E5",
          "velocity": 1,
          "duration": 0.37187499999998863,
          "ticks": 55560,
          "durationTicks": 119
        },
        {
          "time": 178.125,
          "midi": 76,
          "name": "E5",
          "velocity": 1,
          "duration": 0.37187499999998863,
          "ticks": 55560,
          "durationTicks": 119
        },
        {
          "time": 178.875,
          "midi": 76,
          "name": "E5",
          "velocity": 1,
          "duration": 0.37187499999998863,
          "ticks": 55800,
          "durationTicks": 119
        },
        {
          "time": 178.875,
          "midi": 76,
          "name": "E5",
          "velocity": 1,
          "duration": 0.37187499999998863,
          "ticks": 55800,
          "durationTicks": 119
        },
        {
          "time": 179.625,
          "midi": 69,
          "name": "A4",
          "velocity": 1,
          "duration": 0.37187499999998863,
          "ticks": 56040,
          "durationTicks": 119
        },
        {
          "time": 179.625,
          "midi": 69,
          "name": "A4",
          "velocity": 1,
          "duration": 0.37187499999998863,
          "ticks": 56040,
          "durationTicks": 119
        },
        {
          "time": 180.75,
          "midi": 69,
          "name": "A4",
          "velocity": 1,
          "duration": 0.9375,
          "ticks": 56400,
          "durationTicks": 300
        },
        {
          "time": 180.75,
          "midi": 57,
          "name": "A3",
          "velocity": 0.7795275590551181,
          "duration": 0.9375,
          "ticks": 56400,
          "durationTicks": 300
        },
        {
          "time": 181.6875,
          "midi": 57,
          "name": "A3",
          "velocity": 0.8031496062992126,
          "duration": 0.09062499999998863,
          "ticks": 56700,
          "durationTicks": 29
        },
        {
          "time": 181.6875,
          "midi": 69,
          "name": "A4",
          "velocity": 1,
          "duration": 0.09062499999998863,
          "ticks": 56700,
          "durationTicks": 29
        },
        {
          "time": 181.875,
          "midi": 57,
          "name": "A3",
          "velocity": 0.8031496062992126,
          "duration": 0.09062499999998863,
          "ticks": 56760,
          "durationTicks": 29
        },
        {
          "time": 181.875,
          "midi": 69,
          "name": "A4",
          "velocity": 1,
          "duration": 0.09062499999998863,
          "ticks": 56760,
          "durationTicks": 29
        },
        {
          "time": 182.0625,
          "midi": 74,
          "name": "D5",
          "velocity": 1,
          "duration": 0.09062499999998863,
          "ticks": 56820,
          "durationTicks": 29
        },
        {
          "time": 182.0625,
          "midi": 62,
          "name": "D4",
          "velocity": 0.8267716535433071,
          "duration": 0.09062499999998863,
          "ticks": 56820,
          "durationTicks": 29
        },
        {
          "time": 182.25,
          "midi": 62,
          "name": "D4",
          "velocity": 0.7637795275590551,
          "duration": 0.37187499999998863,
          "ticks": 56880,
          "durationTicks": 119
        },
        {
          "time": 182.25,
          "midi": 74,
          "name": "D5",
          "velocity": 1,
          "duration": 0.37187499999998863,
          "ticks": 56880,
          "durationTicks": 119
        },
        {
          "time": 182.8125,
          "midi": 69,
          "name": "A4",
          "velocity": 1,
          "duration": 0.09062499999998863,
          "ticks": 57060,
          "durationTicks": 29
        },
        {
          "time": 182.8125,
          "midi": 69,
          "name": "A4",
          "velocity": 1,
          "duration": 0.09062499999998863,
          "ticks": 57060,
          "durationTicks": 29
        },
        {
          "time": 183,
          "midi": 69,
          "name": "A4",
          "velocity": 1,
          "duration": 0.09062499999998863,
          "ticks": 57120,
          "durationTicks": 29
        },
        {
          "time": 183,
          "midi": 69,
          "name": "A4",
          "velocity": 1,
          "duration": 0.09062499999998863,
          "ticks": 57120,
          "durationTicks": 29
        },
        {
          "time": 183.1875,
          "midi": 62,
          "name": "D4",
          "velocity": 1,
          "duration": 0.09062499999998863,
          "ticks": 57180,
          "durationTicks": 29
        },
        {
          "time": 183.1875,
          "midi": 62,
          "name": "D4",
          "velocity": 1,
          "duration": 0.09062499999998863,
          "ticks": 57180,
          "durationTicks": 29
        },
        {
          "time": 183.375,
          "midi": 62,
          "name": "D4",
          "velocity": 1,
          "duration": 0.37187499999998863,
          "ticks": 57240,
          "durationTicks": 119
        },
        {
          "time": 183.375,
          "midi": 62,
          "name": "D4",
          "velocity": 1,
          "duration": 0.37187499999998863,
          "ticks": 57240,
          "durationTicks": 119
        },
        {
          "time": 183.9375,
          "midi": 57,
          "name": "A3",
          "velocity": 0.7401574803149606,
          "duration": 0.18437499999998863,
          "ticks": 57420,
          "durationTicks": 59
        },
        {
          "time": 183.9375,
          "midi": 69,
          "name": "A4",
          "velocity": 1,
          "duration": 0.18437499999998863,
          "ticks": 57420,
          "durationTicks": 59
        },
        {
          "time": 184.125,
          "midi": 57,
          "name": "A3",
          "velocity": 0.6771653543307087,
          "duration": 0.18437499999998863,
          "ticks": 57480,
          "durationTicks": 59
        },
        {
          "time": 184.125,
          "midi": 69,
          "name": "A4",
          "velocity": 1,
          "duration": 0.18437499999998863,
          "ticks": 57480,
          "durationTicks": 59
        },
        {
          "time": 184.3125,
          "midi": 62,
          "name": "D4",
          "velocity": 0.7795275590551181,
          "duration": 0.18437499999998863,
          "ticks": 57540,
          "durationTicks": 59
        },
        {
          "time": 184.3125,
          "midi": 74,
          "name": "D5",
          "velocity": 1,
          "duration": 0.18437499999998863,
          "ticks": 57540,
          "durationTicks": 59
        },
        {
          "time": 184.5,
          "midi": 62,
          "name": "D4",
          "velocity": 0.905511811023622,
          "duration": 0.37187499999998863,
          "ticks": 57600,
          "durationTicks": 119
        },
        {
          "time": 184.5,
          "midi": 74,
          "name": "D5",
          "velocity": 1,
          "duration": 0.37187499999998863,
          "ticks": 57600,
          "durationTicks": 119
        },
        {
          "time": 185.0625,
          "midi": 81,
          "name": "A5",
          "velocity": 1,
          "duration": 0.18437499999998863,
          "ticks": 57780,
          "durationTicks": 59
        },
        {
          "time": 185.0625,
          "midi": 69,
          "name": "A4",
          "velocity": 0.7401574803149606,
          "duration": 0.18437499999998863,
          "ticks": 57780,
          "durationTicks": 59
        },
        {
          "time": 185.25,
          "midi": 69,
          "name": "A4",
          "velocity": 0.6220472440944882,
          "duration": 0.18437499999998863,
          "ticks": 57840,
          "durationTicks": 59
        },
        {
          "time": 185.25,
          "midi": 81,
          "name": "A5",
          "velocity": 1,
          "duration": 0.18437499999998863,
          "ticks": 57840,
          "durationTicks": 59
        },
        {
          "time": 185.4375,
          "midi": 62,
          "name": "D4",
          "velocity": 0.6377952755905512,
          "duration": 0.18437499999998863,
          "ticks": 57900,
          "durationTicks": 59
        },
        {
          "time": 185.4375,
          "midi": 74,
          "name": "D5",
          "velocity": 0.8267716535433071,
          "duration": 0.18437499999998863,
          "ticks": 57900,
          "durationTicks": 59
        },
        {
          "time": 185.625,
          "midi": 62,
          "name": "D4",
          "velocity": 0.6614173228346457,
          "duration": 0.18437499999998863,
          "ticks": 57960,
          "durationTicks": 59
        },
        {
          "time": 185.625,
          "midi": 74,
          "name": "D5",
          "velocity": 0.7795275590551181,
          "duration": 0.18437499999998863,
          "ticks": 57960,
          "durationTicks": 59
        },
        {
          "time": 185.8125,
          "midi": 74,
          "name": "D5",
          "velocity": 0.8818897637795275,
          "duration": 0.18437499999998863,
          "ticks": 58020,
          "durationTicks": 59
        },
        {
          "time": 185.8125,
          "midi": 62,
          "name": "D4",
          "velocity": 0.6377952755905512,
          "duration": 0.18437499999998863,
          "ticks": 58020,
          "durationTicks": 59
        },
        {
          "time": 186,
          "midi": 74,
          "name": "D5",
          "velocity": 0.8818897637795275,
          "duration": 0.18437499999998863,
          "ticks": 58080,
          "durationTicks": 59
        },
        {
          "time": 186,
          "midi": 62,
          "name": "D4",
          "velocity": 0.7637795275590551,
          "duration": 0.18437499999998863,
          "ticks": 58080,
          "durationTicks": 59
        },
        {
          "time": 186.1875,
          "midi": 74,
          "name": "D5",
          "velocity": 0.9763779527559056,
          "duration": 0.18437499999998863,
          "ticks": 58140,
          "durationTicks": 59
        },
        {
          "time": 186.1875,
          "midi": 62,
          "name": "D4",
          "velocity": 0.6377952755905512,
          "duration": 0.18437499999998863,
          "ticks": 58140,
          "durationTicks": 59
        },
        {
          "time": 186.375,
          "midi": 62,
          "name": "D4",
          "velocity": 0.6220472440944882,
          "duration": 0.18437499999998863,
          "ticks": 58200,
          "durationTicks": 59
        },
        {
          "time": 186.375,
          "midi": 74,
          "name": "D5",
          "velocity": 1,
          "duration": 0.18437499999998863,
          "ticks": 58200,
          "durationTicks": 59
        },
        {
          "time": 186.5625,
          "midi": 62,
          "name": "D4",
          "velocity": 0.6535433070866141,
          "duration": 0.18437499999998863,
          "ticks": 58260,
          "durationTicks": 59
        },
        {
          "time": 186.5625,
          "midi": 74,
          "name": "D5",
          "velocity": 1,
          "duration": 0.18437499999998863,
          "ticks": 58260,
          "durationTicks": 59
        },
        {
          "time": 186.75,
          "midi": 62,
          "name": "D4",
          "velocity": 0.6535433070866141,
          "duration": 0.18437499999998863,
          "ticks": 58320,
          "durationTicks": 59
        },
        {
          "time": 186.75,
          "midi": 74,
          "name": "D5",
          "velocity": 0.7086614173228346,
          "duration": 0.18437499999998863,
          "ticks": 58320,
          "durationTicks": 59
        },
        {
          "time": 186.9375,
          "midi": 74,
          "name": "D5",
          "velocity": 1,
          "duration": 0.18437499999998863,
          "ticks": 58380,
          "durationTicks": 59
        },
        {
          "time": 186.9375,
          "midi": 62,
          "name": "D4",
          "velocity": 0.8818897637795275,
          "duration": 0.18437499999998863,
          "ticks": 58380,
          "durationTicks": 59
        },
        {
          "time": 187.125,
          "midi": 62,
          "name": "D4",
          "velocity": 0.7401574803149606,
          "duration": 0.18437499999998863,
          "ticks": 58440,
          "durationTicks": 59
        },
        {
          "time": 187.125,
          "midi": 74,
          "name": "D5",
          "velocity": 1,
          "duration": 0.18437499999998863,
          "ticks": 58440,
          "durationTicks": 59
        },
        {
          "time": 187.3125,
          "midi": 62,
          "name": "D4",
          "velocity": 0.6771653543307087,
          "duration": 0.18437499999998863,
          "ticks": 58500,
          "durationTicks": 59
        },
        {
          "time": 187.3125,
          "midi": 74,
          "name": "D5",
          "velocity": 1,
          "duration": 0.18437499999998863,
          "ticks": 58500,
          "durationTicks": 59
        },
        {
          "time": 187.5,
          "midi": 74,
          "name": "D5",
          "velocity": 1,
          "duration": 0.18437499999998863,
          "ticks": 58560,
          "durationTicks": 59
        },
        {
          "time": 187.5,
          "midi": 62,
          "name": "D4",
          "velocity": 0.6614173228346457,
          "duration": 0.18437499999998863,
          "ticks": 58560,
          "durationTicks": 59
        },
        {
          "time": 187.6875,
          "midi": 62,
          "name": "D4",
          "velocity": 0.7086614173228346,
          "duration": 0.18437499999998863,
          "ticks": 58620,
          "durationTicks": 59
        },
        {
          "time": 187.6875,
          "midi": 74,
          "name": "D5",
          "velocity": 1,
          "duration": 0.18437499999998863,
          "ticks": 58620,
          "durationTicks": 59
        },
        {
          "time": 187.875,
          "midi": 74,
          "name": "D5",
          "velocity": 0.937007874015748,
          "duration": 0.09062499999998863,
          "ticks": 58680,
          "durationTicks": 29
        },
        {
          "time": 187.875,
          "midi": 62,
          "name": "D4",
          "velocity": 0.7244094488188977,
          "duration": 0.09062499999998863,
          "ticks": 58680,
          "durationTicks": 29
        },
        {
          "time": 188.0625,
          "midi": 69,
          "name": "A4",
          "velocity": 1,
          "duration": 0.09062499999998863,
          "ticks": 58740,
          "durationTicks": 29
        },
        {
          "time": 188.0625,
          "midi": 57,
          "name": "A3",
          "velocity": 0.8503937007874016,
          "duration": 0.09062499999998863,
          "ticks": 58740,
          "durationTicks": 29
        },
        {
          "time": 206.571411,
          "midi": 57,
          "name": "A3",
          "velocity": 0.9763779527559056,
          "duration": 0.2107140749999985,
          "ticks": 63960,
          "durationTicks": 59
        },
        {
          "time": 206.571411,
          "midi": 69,
          "name": "A4",
          "velocity": 1,
          "duration": 0.2107140749999985,
          "ticks": 63960,
          "durationTicks": 59
        },
        {
          "time": 206.999982,
          "midi": 62,
          "name": "D4",
          "velocity": 0.9763779527559056,
          "duration": 0.2107140749999985,
          "ticks": 64080,
          "durationTicks": 59
        },
        {
          "time": 206.999982,
          "midi": 74,
          "name": "D5",
          "velocity": 1,
          "duration": 0.2107140749999985,
          "ticks": 64080,
          "durationTicks": 59
        },
        {
          "time": 207.2142675,
          "midi": 62,
          "name": "D4",
          "velocity": 0.937007874015748,
          "duration": 0.2107140749999985,
          "ticks": 64140,
          "durationTicks": 59
        },
        {
          "time": 207.2142675,
          "midi": 74,
          "name": "D5",
          "velocity": 1,
          "duration": 0.2107140749999985,
          "ticks": 64140,
          "durationTicks": 59
        },
        {
          "time": 207.428553,
          "midi": 62,
          "name": "D4",
          "velocity": 1,
          "duration": 0.4249995750000153,
          "ticks": 64200,
          "durationTicks": 119
        },
        {
          "time": 207.428553,
          "midi": 74,
          "name": "D5",
          "velocity": 1,
          "duration": 0.4249995750000153,
          "ticks": 64200,
          "durationTicks": 119
        },
        {
          "time": 212.892834,
          "midi": 74,
          "name": "D5",
          "velocity": 1,
          "duration": 0.3687500000000057,
          "ticks": 65640,
          "durationTicks": 59
        },
        {
          "time": 212.892834,
          "midi": 62,
          "name": "D4",
          "velocity": 0.937007874015748,
          "duration": 0.3687500000000057,
          "ticks": 65640,
          "durationTicks": 59
        },
        {
          "time": 213.642834,
          "midi": 62,
          "name": "D4",
          "velocity": 1,
          "duration": 0.3687500000000057,
          "ticks": 65760,
          "durationTicks": 59
        },
        {
          "time": 213.642834,
          "midi": 74,
          "name": "D5",
          "velocity": 1,
          "duration": 0.3687500000000057,
          "ticks": 65760,
          "durationTicks": 59
        },
        {
          "time": 218.142834,
          "midi": 69,
          "name": "A4",
          "velocity": 1,
          "duration": 0.3687500000000057,
          "ticks": 66480,
          "durationTicks": 59
        },
        {
          "time": 218.142834,
          "midi": 57,
          "name": "A3",
          "velocity": 1,
          "duration": 0.3687500000000057,
          "ticks": 66480,
          "durationTicks": 59
        },
        {
          "time": 248.892834,
          "midi": 57,
          "name": "A3",
          "velocity": 0.9763779527559056,
          "duration": 0.37187499999998863,
          "ticks": 76200,
          "durationTicks": 119
        },
        {
          "time": 248.892834,
          "midi": 69,
          "name": "A4",
          "velocity": 1,
          "duration": 0.37187499999998863,
          "ticks": 76200,
          "durationTicks": 119
        },
        {
          "time": 250.392834,
          "midi": 69,
          "name": "A4",
          "velocity": 1,
          "duration": 0.37187499999998863,
          "ticks": 76680,
          "durationTicks": 119
        },
        {
          "time": 250.392834,
          "midi": 57,
          "name": "A3",
          "velocity": 0.937007874015748,
          "duration": 0.37187499999998863,
          "ticks": 76680,
          "durationTicks": 119
        },
        {
          "time": 251.892834,
          "midi": 69,
          "name": "A4",
          "velocity": 1,
          "duration": 0.37187499999998863,
          "ticks": 77160,
          "durationTicks": 119
        },
        {
          "time": 251.892834,
          "midi": 57,
          "name": "A3",
          "velocity": 0.9763779527559056,
          "duration": 0.37187499999998863,
          "ticks": 77160,
          "durationTicks": 119
        },
        {
          "time": 252.642834,
          "midi": 69,
          "name": "A4",
          "velocity": 0.9763779527559056,
          "duration": 0.37187499999998863,
          "ticks": 77400,
          "durationTicks": 119
        },
        {
          "time": 252.642834,
          "midi": 57,
          "name": "A3",
          "velocity": 0.937007874015748,
          "duration": 0.37187499999998863,
          "ticks": 77400,
          "durationTicks": 119
        },
        {
          "time": 253.017834,
          "midi": 69,
          "name": "A4",
          "velocity": 1,
          "duration": 0.37187499999998863,
          "ticks": 77520,
          "durationTicks": 119
        },
        {
          "time": 253.017834,
          "midi": 57,
          "name": "A3",
          "velocity": 1,
          "duration": 0.37187499999998863,
          "ticks": 77520,
          "durationTicks": 119
        },
        {
          "time": 253.392834,
          "midi": 69,
          "name": "A4",
          "velocity": 1,
          "duration": 0.37187499999998863,
          "ticks": 77640,
          "durationTicks": 119
        },
        {
          "time": 253.392834,
          "midi": 57,
          "name": "A3",
          "velocity": 0.905511811023622,
          "duration": 0.37187499999998863,
          "ticks": 77640,
          "durationTicks": 119
        },
        {
          "time": 253.767834,
          "midi": 69,
          "name": "A4",
          "velocity": 1,
          "duration": 0.37187499999998863,
          "ticks": 77760,
          "durationTicks": 119
        },
        {
          "time": 253.767834,
          "midi": 57,
          "name": "A3",
          "velocity": 0.9763779527559056,
          "duration": 0.37187499999998863,
          "ticks": 77760,
          "durationTicks": 119
        },
        {
          "time": 254.142834,
          "midi": 69,
          "name": "A4",
          "velocity": 1,
          "duration": 0.37187499999998863,
          "ticks": 77880,
          "durationTicks": 119
        },
        {
          "time": 254.142834,
          "midi": 57,
          "name": "A3",
          "velocity": 0.9763779527559056,
          "duration": 0.37187499999998863,
          "ticks": 77880,
          "durationTicks": 119
        },
        {
          "time": 254.705334,
          "midi": 69,
          "name": "A4",
          "velocity": 1,
          "duration": 0.18437499999998863,
          "ticks": 78060,
          "durationTicks": 59
        },
        {
          "time": 254.705334,
          "midi": 57,
          "name": "A3",
          "velocity": 0.937007874015748,
          "duration": 0.18437499999998863,
          "ticks": 78060,
          "durationTicks": 59
        },
        {
          "time": 254.892834,
          "midi": 57,
          "name": "A3",
          "velocity": 1,
          "duration": 0.37187499999998863,
          "ticks": 78120,
          "durationTicks": 119
        },
        {
          "time": 254.892834,
          "midi": 69,
          "name": "A4",
          "velocity": 1,
          "duration": 0.37187499999998863,
          "ticks": 78120,
          "durationTicks": 119
        },
        {
          "time": 255.455334,
          "midi": 69,
          "name": "A4",
          "velocity": 1,
          "duration": 0.18437499999998863,
          "ticks": 78300,
          "durationTicks": 59
        },
        {
          "time": 255.455334,
          "midi": 57,
          "name": "A3",
          "velocity": 1,
          "duration": 0.18437499999998863,
          "ticks": 78300,
          "durationTicks": 59
        },
        {
          "time": 255.642834,
          "midi": 57,
          "name": "A3",
          "velocity": 0.937007874015748,
          "duration": 0.37187499999998863,
          "ticks": 78360,
          "durationTicks": 119
        },
        {
          "time": 255.642834,
          "midi": 69,
          "name": "A4",
          "velocity": 1,
          "duration": 0.37187499999998863,
          "ticks": 78360,
          "durationTicks": 119
        },
        {
          "time": 256.205334,
          "midi": 69,
          "name": "A4",
          "velocity": 0.9763779527559056,
          "duration": 0.18437499999998863,
          "ticks": 78540,
          "durationTicks": 59
        },
        {
          "time": 256.205334,
          "midi": 57,
          "name": "A3",
          "velocity": 0.937007874015748,
          "duration": 0.18437499999998863,
          "ticks": 78540,
          "durationTicks": 59
        },
        {
          "time": 256.392834,
          "midi": 57,
          "name": "A3",
          "velocity": 1,
          "duration": 0.37187499999998863,
          "ticks": 78600,
          "durationTicks": 119
        },
        {
          "time": 256.392834,
          "midi": 69,
          "name": "A4",
          "velocity": 1,
          "duration": 0.37187499999998863,
          "ticks": 78600,
          "durationTicks": 119
        },
        {
          "time": 256.955334,
          "midi": 69,
          "name": "A4",
          "velocity": 1,
          "duration": 0.18437499999998863,
          "ticks": 78780,
          "durationTicks": 59
        },
        {
          "time": 256.955334,
          "midi": 57,
          "name": "A3",
          "velocity": 1,
          "duration": 0.18437499999998863,
          "ticks": 78780,
          "durationTicks": 59
        },
        {
          "time": 257.142834,
          "midi": 57,
          "name": "A3",
          "velocity": 0.937007874015748,
          "duration": 0.37187499999998863,
          "ticks": 78840,
          "durationTicks": 119
        },
        {
          "time": 257.142834,
          "midi": 69,
          "name": "A4",
          "velocity": 1,
          "duration": 0.37187499999998863,
          "ticks": 78840,
          "durationTicks": 119
        },
        {
          "time": 257.705334,
          "midi": 69,
          "name": "A4",
          "velocity": 0.9763779527559056,
          "duration": 0.18437499999998863,
          "ticks": 79020,
          "durationTicks": 59
        },
        {
          "time": 257.705334,
          "midi": 57,
          "name": "A3",
          "velocity": 0.937007874015748,
          "duration": 0.18437499999998863,
          "ticks": 79020,
          "durationTicks": 59
        },
        {
          "time": 257.892834,
          "midi": 57,
          "name": "A3",
          "velocity": 1,
          "duration": 0.37187499999998863,
          "ticks": 79080,
          "durationTicks": 119
        },
        {
          "time": 257.892834,
          "midi": 69,
          "name": "A4",
          "velocity": 1,
          "duration": 0.37187499999998863,
          "ticks": 79080,
          "durationTicks": 119
        },
        {
          "time": 258.455334,
          "midi": 62,
          "name": "D4",
          "velocity": 1,
          "duration": 0.18437499999998863,
          "ticks": 79260,
          "durationTicks": 59
        },
        {
          "time": 258.455334,
          "midi": 74,
          "name": "D5",
          "velocity": 1,
          "duration": 0.18437499999998863,
          "ticks": 79260,
          "durationTicks": 59
        },
        {
          "time": 258.642834,
          "midi": 62,
          "name": "D4",
          "velocity": 0.937007874015748,
          "duration": 0.37187499999998863,
          "ticks": 79320,
          "durationTicks": 119
        },
        {
          "time": 258.642834,
          "midi": 74,
          "name": "D5",
          "velocity": 1,
          "duration": 0.37187499999998863,
          "ticks": 79320,
          "durationTicks": 119
        },
        {
          "time": 259.205334,
          "midi": 62,
          "name": "D4",
          "velocity": 0.937007874015748,
          "duration": 0.18437499999998863,
          "ticks": 79500,
          "durationTicks": 59
        },
        {
          "time": 259.205334,
          "midi": 74,
          "name": "D5",
          "velocity": 0.9763779527559056,
          "duration": 0.18437499999998863,
          "ticks": 79500,
          "durationTicks": 59
        },
        {
          "time": 259.392834,
          "midi": 57,
          "name": "A3",
          "velocity": 1,
          "duration": 0.37187499999998863,
          "ticks": 79560,
          "durationTicks": 119
        },
        {
          "time": 259.392834,
          "midi": 69,
          "name": "A4",
          "velocity": 1,
          "duration": 0.37187499999998863,
          "ticks": 79560,
          "durationTicks": 119
        },
        {
          "time": 259.955334,
          "midi": 62,
          "name": "D4",
          "velocity": 1,
          "duration": 0.18437499999998863,
          "ticks": 79740,
          "durationTicks": 59
        },
        {
          "time": 259.955334,
          "midi": 74,
          "name": "D5",
          "velocity": 1,
          "duration": 0.18437499999998863,
          "ticks": 79740,
          "durationTicks": 59
        },
        {
          "time": 260.142834,
          "midi": 62,
          "name": "D4",
          "velocity": 0.937007874015748,
          "duration": 0.37187499999998863,
          "ticks": 79800,
          "durationTicks": 119
        },
        {
          "time": 260.142834,
          "midi": 74,
          "name": "D5",
          "velocity": 1,
          "duration": 0.37187499999998863,
          "ticks": 79800,
          "durationTicks": 119
        },
        {
          "time": 260.705334,
          "midi": 69,
          "name": "A4",
          "velocity": 0.9763779527559056,
          "duration": 0.18437499999998863,
          "ticks": 79980,
          "durationTicks": 59
        },
        {
          "time": 260.705334,
          "midi": 57,
          "name": "A3",
          "velocity": 0.937007874015748,
          "duration": 0.18437499999998863,
          "ticks": 79980,
          "durationTicks": 59
        },
        {
          "time": 260.892834,
          "midi": 57,
          "name": "A3",
          "velocity": 1,
          "duration": 0.37187499999998863,
          "ticks": 80040,
          "durationTicks": 119
        },
        {
          "time": 260.892834,
          "midi": 69,
          "name": "A4",
          "velocity": 1,
          "duration": 0.37187499999998863,
          "ticks": 80040,
          "durationTicks": 119
        },
        {
          "time": 261.455334,
          "midi": 62,
          "name": "D4",
          "velocity": 1,
          "duration": 0.18437499999998863,
          "ticks": 80220,
          "durationTicks": 59
        },
        {
          "time": 261.455334,
          "midi": 74,
          "name": "D5",
          "velocity": 1,
          "duration": 0.18437499999998863,
          "ticks": 80220,
          "durationTicks": 59
        },
        {
          "time": 261.642834,
          "midi": 62,
          "name": "D4",
          "velocity": 0.937007874015748,
          "duration": 0.37187499999998863,
          "ticks": 80280,
          "durationTicks": 119
        },
        {
          "time": 261.642834,
          "midi": 74,
          "name": "D5",
          "velocity": 1,
          "duration": 0.37187499999998863,
          "ticks": 80280,
          "durationTicks": 119
        },
        {
          "time": 262.205334,
          "midi": 62,
          "name": "D4",
          "velocity": 0.937007874015748,
          "duration": 0.18437499999998863,
          "ticks": 80460,
          "durationTicks": 59
        },
        {
          "time": 262.205334,
          "midi": 74,
          "name": "D5",
          "velocity": 0.9763779527559056,
          "duration": 0.18437499999998863,
          "ticks": 80460,
          "durationTicks": 59
        },
        {
          "time": 262.392834,
          "midi": 62,
          "name": "D4",
          "velocity": 1,
          "duration": 0.37187499999998863,
          "ticks": 80520,
          "durationTicks": 119
        },
        {
          "time": 262.392834,
          "midi": 74,
          "name": "D5",
          "velocity": 1,
          "duration": 0.37187499999998863,
          "ticks": 80520,
          "durationTicks": 119
        },
        {
          "time": 262.955334,
          "midi": 62,
          "name": "D4",
          "velocity": 1,
          "duration": 0.18437499999998863,
          "ticks": 80700,
          "durationTicks": 59
        },
        {
          "time": 262.955334,
          "midi": 74,
          "name": "D5",
          "velocity": 1,
          "duration": 0.18437499999998863,
          "ticks": 80700,
          "durationTicks": 59
        },
        {
          "time": 263.142834,
          "midi": 62,
          "name": "D4",
          "velocity": 0.937007874015748,
          "duration": 0.37187499999998863,
          "ticks": 80760,
          "durationTicks": 119
        },
        {
          "time": 263.142834,
          "midi": 74,
          "name": "D5",
          "velocity": 1,
          "duration": 0.37187499999998863,
          "ticks": 80760,
          "durationTicks": 119
        },
        {
          "time": 263.892834,
          "midi": 57,
          "name": "A3",
          "velocity": 1,
          "duration": 0.37187499999998863,
          "ticks": 81000,
          "durationTicks": 119
        },
        {
          "time": 263.892834,
          "midi": 69,
          "name": "A4",
          "velocity": 1,
          "duration": 0.37187499999998863,
          "ticks": 81000,
          "durationTicks": 119
        },
        {
          "time": 264.455334,
          "midi": 69,
          "name": "A4",
          "velocity": 1,
          "duration": 0.18437499999998863,
          "ticks": 81180,
          "durationTicks": 59
        },
        {
          "time": 264.455334,
          "midi": 57,
          "name": "A3",
          "velocity": 1,
          "duration": 0.18437499999998863,
          "ticks": 81180,
          "durationTicks": 59
        },
        {
          "time": 264.642834,
          "midi": 69,
          "name": "A4",
          "velocity": 1,
          "duration": 0.37187499999998863,
          "ticks": 81240,
          "durationTicks": 119
        },
        {
          "time": 264.642834,
          "midi": 57,
          "name": "A3",
          "velocity": 0.937007874015748,
          "duration": 0.37187499999998863,
          "ticks": 81240,
          "durationTicks": 119
        },
        {
          "time": 265.205334,
          "midi": 69,
          "name": "A4",
          "velocity": 0.9763779527559056,
          "duration": 0.18437499999998863,
          "ticks": 81420,
          "durationTicks": 59
        },
        {
          "time": 265.205334,
          "midi": 57,
          "name": "A3",
          "velocity": 0.937007874015748,
          "duration": 0.18437499999998863,
          "ticks": 81420,
          "durationTicks": 59
        },
        {
          "time": 265.392834,
          "midi": 62,
          "name": "D4",
          "velocity": 1,
          "duration": 0.37187499999998863,
          "ticks": 81480,
          "durationTicks": 119
        },
        {
          "time": 265.392834,
          "midi": 62,
          "name": "D4",
          "velocity": 1,
          "duration": 0.37187499999998863,
          "ticks": 81480,
          "durationTicks": 119
        },
        {
          "time": 265.955334,
          "midi": 69,
          "name": "A4",
          "velocity": 1,
          "duration": 0.18437499999998863,
          "ticks": 81660,
          "durationTicks": 59
        },
        {
          "time": 265.955334,
          "midi": 57,
          "name": "A3",
          "velocity": 1,
          "duration": 0.18437499999998863,
          "ticks": 81660,
          "durationTicks": 59
        },
        {
          "time": 266.142834,
          "midi": 62,
          "name": "D4",
          "velocity": 1,
          "duration": 0.37187499999998863,
          "ticks": 81720,
          "durationTicks": 119
        },
        {
          "time": 266.142834,
          "midi": 62,
          "name": "D4",
          "velocity": 0.937007874015748,
          "duration": 0.37187499999998863,
          "ticks": 81720,
          "durationTicks": 119
        },
        {
          "time": 290.892834,
          "midi": 57,
          "name": "A3",
          "velocity": 0.905511811023622,
          "duration": 0.37187499999998863,
          "ticks": 89640,
          "durationTicks": 119
        },
        {
          "time": 290.892834,
          "midi": 69,
          "name": "A4",
          "velocity": 1,
          "duration": 0.37187499999998863,
          "ticks": 89640,
          "durationTicks": 119
        },
        {
          "time": 292.017834,
          "midi": 69,
          "name": "A4",
          "velocity": 1,
          "duration": 0.18437499999998863,
          "ticks": 90000,
          "durationTicks": 59
        },
        {
          "time": 292.017834,
          "midi": 57,
          "name": "A3",
          "velocity": 0.8503937007874016,
          "duration": 0.18437499999998863,
          "ticks": 90000,
          "durationTicks": 59
        },
        {
          "time": 292.205334,
          "midi": 69,
          "name": "A4",
          "velocity": 1,
          "duration": 0.18437499999998863,
          "ticks": 90060,
          "durationTicks": 59
        },
        {
          "time": 292.205334,
          "midi": 57,
          "name": "A3",
          "velocity": 0.905511811023622,
          "duration": 0.18437499999998863,
          "ticks": 90060,
          "durationTicks": 59
        },
        {
          "time": 292.392834,
          "midi": 57,
          "name": "A3",
          "velocity": 0.905511811023622,
          "duration": 0.37187499999998863,
          "ticks": 90120,
          "durationTicks": 119
        },
        {
          "time": 292.392834,
          "midi": 69,
          "name": "A4",
          "velocity": 1,
          "duration": 0.37187499999998863,
          "ticks": 90120,
          "durationTicks": 119
        },
        {
          "time": 293.517834,
          "midi": 69,
          "name": "A4",
          "velocity": 1,
          "duration": 0.18437499999998863,
          "ticks": 90480,
          "durationTicks": 59
        },
        {
          "time": 293.517834,
          "midi": 57,
          "name": "A3",
          "velocity": 0.8503937007874016,
          "duration": 0.18437499999998863,
          "ticks": 90480,
          "durationTicks": 59
        },
        {
          "time": 293.705334,
          "midi": 69,
          "name": "A4",
          "velocity": 1,
          "duration": 0.18437499999998863,
          "ticks": 90540,
          "durationTicks": 59
        },
        {
          "time": 293.705334,
          "midi": 57,
          "name": "A3",
          "velocity": 0.905511811023622,
          "duration": 0.18437499999998863,
          "ticks": 90540,
          "durationTicks": 59
        },
        {
          "time": 293.892834,
          "midi": 57,
          "name": "A3",
          "velocity": 0.905511811023622,
          "duration": 0.37187499999998863,
          "ticks": 90600,
          "durationTicks": 119
        },
        {
          "time": 293.892834,
          "midi": 69,
          "name": "A4",
          "velocity": 1,
          "duration": 0.37187499999998863,
          "ticks": 90600,
          "durationTicks": 119
        },
        {
          "time": 296.142834,
          "midi": 69,
          "name": "A4",
          "velocity": 0.9763779527559056,
          "duration": 0.37187499999998863,
          "ticks": 91320,
          "durationTicks": 119
        },
        {
          "time": 296.142834,
          "midi": 57,
          "name": "A3",
          "velocity": 0.8503937007874016,
          "duration": 0.37187499999998863,
          "ticks": 91320,
          "durationTicks": 119
        },
        {
          "time": 296.517834,
          "midi": 69,
          "name": "A4",
          "velocity": 1,
          "duration": 0.18437499999998863,
          "ticks": 91440,
          "durationTicks": 59
        },
        {
          "time": 296.517834,
          "midi": 57,
          "name": "A3",
          "velocity": 0.937007874015748,
          "duration": 0.18437499999998863,
          "ticks": 91440,
          "durationTicks": 59
        },
        {
          "time": 296.705334,
          "midi": 57,
          "name": "A3",
          "velocity": 0.937007874015748,
          "duration": 0.18437499999998863,
          "ticks": 91500,
          "durationTicks": 59
        },
        {
          "time": 296.705334,
          "midi": 69,
          "name": "A4",
          "velocity": 1,
          "duration": 0.18437499999998863,
          "ticks": 91500,
          "durationTicks": 59
        },
        {
          "time": 296.892834,
          "midi": 62,
          "name": "D4",
          "velocity": 0.8267716535433071,
          "duration": 0.37187499999998863,
          "ticks": 91560,
          "durationTicks": 119
        },
        {
          "time": 296.892834,
          "midi": 74,
          "name": "D5",
          "velocity": 0.9763779527559056,
          "duration": 0.37187499999998863,
          "ticks": 91560,
          "durationTicks": 119
        },
        {
          "time": 298.017834,
          "midi": 74,
          "name": "D5",
          "velocity": 0.905511811023622,
          "duration": 0.37187499999998863,
          "ticks": 91920,
          "durationTicks": 119
        },
        {
          "time": 298.017834,
          "midi": 62,
          "name": "D4",
          "velocity": 0.905511811023622,
          "duration": 0.37187499999998863,
          "ticks": 91920,
          "durationTicks": 119
        },
        {
          "time": 298.392834,
          "midi": 57,
          "name": "A3",
          "velocity": 0.8503937007874016,
          "duration": 0.37187499999998863,
          "ticks": 92040,
          "durationTicks": 119
        },
        {
          "time": 298.392834,
          "midi": 69,
          "name": "A4",
          "velocity": 1,
          "duration": 0.37187499999998863,
          "ticks": 92040,
          "durationTicks": 119
        },
        {
          "time": 299.517834,
          "midi": 57,
          "name": "A3",
          "velocity": 0.8740157480314961,
          "duration": 0.18437499999998863,
          "ticks": 92400,
          "durationTicks": 59
        },
        {
          "time": 299.517834,
          "midi": 69,
          "name": "A4",
          "velocity": 0.8740157480314961,
          "duration": 0.18437499999998863,
          "ticks": 92400,
          "durationTicks": 59
        },
        {
          "time": 299.705334,
          "midi": 57,
          "name": "A3",
          "velocity": 0.8582677165354331,
          "duration": 0.18437499999998863,
          "ticks": 92460,
          "durationTicks": 59
        },
        {
          "time": 299.705334,
          "midi": 69,
          "name": "A4",
          "velocity": 0.8582677165354331,
          "duration": 0.18437499999998863,
          "ticks": 92460,
          "durationTicks": 59
        },
        {
          "time": 299.892834,
          "midi": 69,
          "name": "A4",
          "velocity": 0.8346456692913385,
          "duration": 0.37187499999998863,
          "ticks": 92520,
          "durationTicks": 119
        },
        {
          "time": 299.892834,
          "midi": 57,
          "name": "A3",
          "velocity": 0.8346456692913385,
          "duration": 0.37187499999998863,
          "ticks": 92520,
          "durationTicks": 119
        },
        {
          "time": 301.017834,
          "midi": 69,
          "name": "A4",
          "velocity": 0.7480314960629921,
          "duration": 0.18437499999998863,
          "ticks": 92880,
          "durationTicks": 59
        },
        {
          "time": 301.017834,
          "midi": 57,
          "name": "A3",
          "velocity": 0.7480314960629921,
          "duration": 0.18437499999998863,
          "ticks": 92880,
          "durationTicks": 59
        },
        {
          "time": 301.205334,
          "midi": 69,
          "name": "A4",
          "velocity": 0.7322834645669292,
          "duration": 0.18437499999998863,
          "ticks": 92940,
          "durationTicks": 59
        },
        {
          "time": 301.205334,
          "midi": 57,
          "name": "A3",
          "velocity": 0.7322834645669292,
          "duration": 0.18437499999998863,
          "ticks": 92940,
          "durationTicks": 59
        },
        {
          "time": 301.392834,
          "midi": 69,
          "name": "A4",
          "velocity": 0.7244094488188977,
          "duration": 0.37187499999998863,
          "ticks": 93000,
          "durationTicks": 119
        },
        {
          "time": 301.392834,
          "midi": 57,
          "name": "A3",
          "velocity": 0.7244094488188977,
          "duration": 0.37187499999998863,
          "ticks": 93000,
          "durationTicks": 119
        },
        {
          "time": 301.955334,
          "midi": 69,
          "name": "A4",
          "velocity": 0.6929133858267716,
          "duration": 0.18437499999998863,
          "ticks": 93180,
          "durationTicks": 59
        },
        {
          "time": 301.955334,
          "midi": 57,
          "name": "A3",
          "velocity": 0.6929133858267716,
          "duration": 0.18437499999998863,
          "ticks": 93180,
          "durationTicks": 59
        },
        {
          "time": 302.142834,
          "midi": 62,
          "name": "D4",
          "velocity": 0.6771653543307087,
          "duration": 0.37187499999998863,
          "ticks": 93240,
          "durationTicks": 119
        },
        {
          "time": 302.142834,
          "midi": 62,
          "name": "D4",
          "velocity": 0.6771653543307087,
          "duration": 0.37187499999998863,
          "ticks": 93240,
          "durationTicks": 119
        },
        {
          "time": 302.892834,
          "midi": 74,
          "name": "D5",
          "velocity": 0.6456692913385826,
          "duration": 0.37187499999998863,
          "ticks": 93480,
          "durationTicks": 119
        },
        {
          "time": 302.892834,
          "midi": 62,
          "name": "D4",
          "velocity": 0.6456692913385826,
          "duration": 0.37187499999998863,
          "ticks": 93480,
          "durationTicks": 119
        },
        {
          "time": 304.017834,
          "midi": 74,
          "name": "D5",
          "velocity": 0.5590551181102362,
          "duration": 0.18437499999998863,
          "ticks": 93840,
          "durationTicks": 59
        },
        {
          "time": 304.017834,
          "midi": 62,
          "name": "D4",
          "velocity": 0.5590551181102362,
          "duration": 0.18437499999998863,
          "ticks": 93840,
          "durationTicks": 59
        },
        {
          "time": 304.205334,
          "midi": 74,
          "name": "D5",
          "velocity": 0.5590551181102362,
          "duration": 0.18437499999998863,
          "ticks": 93900,
          "durationTicks": 59
        },
        {
          "time": 304.205334,
          "midi": 62,
          "name": "D4",
          "velocity": 0.5590551181102362,
          "duration": 0.18437499999998863,
          "ticks": 93900,
          "durationTicks": 59
        },
        {
          "time": 304.392834,
          "midi": 62,
          "name": "D4",
          "velocity": 0.905511811023622,
          "duration": 0.37187499999998863,
          "ticks": 93960,
          "durationTicks": 119
        },
        {
          "time": 304.392834,
          "midi": 74,
          "name": "D5",
          "velocity": 1,
          "duration": 0.37187499999998863,
          "ticks": 93960,
          "durationTicks": 119
        },
        {
          "time": 305.517834,
          "midi": 74,
          "name": "D5",
          "velocity": 1,
          "duration": 0.18437499999998863,
          "ticks": 94320,
          "durationTicks": 59
        },
        {
          "time": 305.517834,
          "midi": 62,
          "name": "D4",
          "velocity": 0.8503937007874016,
          "duration": 0.18437499999998863,
          "ticks": 94320,
          "durationTicks": 59
        },
        {
          "time": 305.705334,
          "midi": 74,
          "name": "D5",
          "velocity": 1,
          "duration": 0.18437499999998863,
          "ticks": 94380,
          "durationTicks": 59
        },
        {
          "time": 305.705334,
          "midi": 62,
          "name": "D4",
          "velocity": 1,
          "duration": 0.18437499999998863,
          "ticks": 94380,
          "durationTicks": 59
        },
        {
          "time": 305.892834,
          "midi": 69,
          "name": "A4",
          "velocity": 1,
          "duration": 0.37187499999998863,
          "ticks": 94440,
          "durationTicks": 119
        },
        {
          "time": 305.892834,
          "midi": 57,
          "name": "A3",
          "velocity": 0.905511811023622,
          "duration": 0.37187499999998863,
          "ticks": 94440,
          "durationTicks": 119
        },
        {
          "time": 307.017834,
          "midi": 57,
          "name": "A3",
          "velocity": 0.905511811023622,
          "duration": 0.18437499999998863,
          "ticks": 94800,
          "durationTicks": 59
        },
        {
          "time": 307.017834,
          "midi": 69,
          "name": "A4",
          "velocity": 1,
          "duration": 0.18437499999998863,
          "ticks": 94800,
          "durationTicks": 59
        },
        {
          "time": 307.205334,
          "midi": 69,
          "name": "A4",
          "velocity": 1,
          "duration": 0.18437499999998863,
          "ticks": 94860,
          "durationTicks": 59
        },
        {
          "time": 307.205334,
          "midi": 57,
          "name": "A3",
          "velocity": 0.9763779527559056,
          "duration": 0.18437499999998863,
          "ticks": 94860,
          "durationTicks": 59
        },
        {
          "time": 307.392834,
          "midi": 74,
          "name": "D5",
          "velocity": 1,
          "duration": 0.18437499999998863,
          "ticks": 94920,
          "durationTicks": 59
        },
        {
          "time": 307.392834,
          "midi": 62,
          "name": "D4",
          "velocity": 0.9763779527559056,
          "duration": 0.18437499999998863,
          "ticks": 94920,
          "durationTicks": 59
        },
        {
          "time": 307.767834,
          "midi": 69,
          "name": "A4",
          "velocity": 0.9763779527559056,
          "duration": 0.18437499999998863,
          "ticks": 95040,
          "durationTicks": 59
        },
        {
          "time": 307.767834,
          "midi": 57,
          "name": "A3",
          "velocity": 0.937007874015748,
          "duration": 0.18437499999998863,
          "ticks": 95040,
          "durationTicks": 59
        },
        {
          "time": 308.142834,
          "midi": 74,
          "name": "D5",
          "velocity": 1,
          "duration": 0.18437499999998863,
          "ticks": 95160,
          "durationTicks": 59
        },
        {
          "time": 308.142834,
          "midi": 62,
          "name": "D4",
          "velocity": 0.937007874015748,
          "duration": 0.18437499999998863,
          "ticks": 95160,
          "durationTicks": 59
        },
        {
          "time": 332.517834,
          "midi": 69,
          "name": "A4",
          "velocity": 1,
          "duration": 0.37187499999998863,
          "ticks": 102960,
          "durationTicks": 119
        },
        {
          "time": 332.517834,
          "midi": 57,
          "name": "A3",
          "velocity": 0.8818897637795275,
          "duration": 0.37187499999998863,
          "ticks": 102960,
          "durationTicks": 119
        },
        {
          "time": 332.892834,
          "midi": 57,
          "name": "A3",
          "velocity": 0.8818897637795275,
          "duration": 0.18437499999998863,
          "ticks": 103080,
          "durationTicks": 59
        },
        {
          "time": 332.892834,
          "midi": 69,
          "name": "A4",
          "velocity": 0.905511811023622,
          "duration": 0.18437499999998863,
          "ticks": 103080,
          "durationTicks": 59
        },
        {
          "time": 333.267834,
          "midi": 57,
          "name": "A3",
          "velocity": 0.8818897637795275,
          "duration": 0.18437499999998863,
          "ticks": 103200,
          "durationTicks": 59
        },
        {
          "time": 333.267834,
          "midi": 69,
          "name": "A4",
          "velocity": 0.9763779527559056,
          "duration": 0.18437499999998863,
          "ticks": 103200,
          "durationTicks": 59
        },
        {
          "time": 333.642834,
          "midi": 57,
          "name": "A3",
          "velocity": 0.905511811023622,
          "duration": 0.18437499999998863,
          "ticks": 103320,
          "durationTicks": 59
        },
        {
          "time": 333.642834,
          "midi": 69,
          "name": "A4",
          "velocity": 1,
          "duration": 0.18437499999998863,
          "ticks": 103320,
          "durationTicks": 59
        },
        {
          "time": 334.017834,
          "midi": 69,
          "name": "A4",
          "velocity": 0.9763779527559056,
          "duration": 0.18437499999998863,
          "ticks": 103440,
          "durationTicks": 59
        },
        {
          "time": 334.017834,
          "midi": 57,
          "name": "A3",
          "velocity": 0.937007874015748,
          "duration": 0.18437499999998863,
          "ticks": 103440,
          "durationTicks": 59
        },
        {
          "time": 334.392834,
          "midi": 57,
          "name": "A3",
          "velocity": 0.8818897637795275,
          "duration": 0.18437499999998863,
          "ticks": 103560,
          "durationTicks": 59
        },
        {
          "time": 334.392834,
          "midi": 69,
          "name": "A4",
          "velocity": 0.937007874015748,
          "duration": 0.18437499999998863,
          "ticks": 103560,
          "durationTicks": 59
        },
        {
          "time": 334.767834,
          "midi": 69,
          "name": "A4",
          "velocity": 0.9763779527559056,
          "duration": 0.18437499999998863,
          "ticks": 103680,
          "durationTicks": 59
        },
        {
          "time": 334.767834,
          "midi": 57,
          "name": "A3",
          "velocity": 0.905511811023622,
          "duration": 0.18437499999998863,
          "ticks": 103680,
          "durationTicks": 59
        },
        {
          "time": 335.142834,
          "midi": 57,
          "name": "A3",
          "velocity": 0.905511811023622,
          "duration": 0.18437499999998863,
          "ticks": 103800,
          "durationTicks": 59
        },
        {
          "time": 335.142834,
          "midi": 69,
          "name": "A4",
          "velocity": 0.937007874015748,
          "duration": 0.18437499999998863,
          "ticks": 103800,
          "durationTicks": 59
        },
        {
          "time": 335.517834,
          "midi": 57,
          "name": "A3",
          "velocity": 0.937007874015748,
          "duration": 0.18437499999998863,
          "ticks": 103920,
          "durationTicks": 59
        },
        {
          "time": 335.517834,
          "midi": 69,
          "name": "A4",
          "velocity": 1,
          "duration": 0.18437499999998863,
          "ticks": 103920,
          "durationTicks": 59
        },
        {
          "time": 335.892834,
          "midi": 57,
          "name": "A3",
          "velocity": 0.937007874015748,
          "duration": 0.18437499999998863,
          "ticks": 104040,
          "durationTicks": 59
        },
        {
          "time": 335.892834,
          "midi": 69,
          "name": "A4",
          "velocity": 1,
          "duration": 0.18437499999998863,
          "ticks": 104040,
          "durationTicks": 59
        },
        {
          "time": 336.267834,
          "midi": 57,
          "name": "A3",
          "velocity": 0.905511811023622,
          "duration": 0.18437499999998863,
          "ticks": 104160,
          "durationTicks": 59
        },
        {
          "time": 336.267834,
          "midi": 69,
          "name": "A4",
          "velocity": 1,
          "duration": 0.18437499999998863,
          "ticks": 104160,
          "durationTicks": 59
        },
        {
          "time": 336.642834,
          "midi": 69,
          "name": "A4",
          "velocity": 1,
          "duration": 0.18437499999998863,
          "ticks": 104280,
          "durationTicks": 59
        },
        {
          "time": 336.642834,
          "midi": 57,
          "name": "A3",
          "velocity": 0.9763779527559056,
          "duration": 0.18437499999998863,
          "ticks": 104280,
          "durationTicks": 59
        },
        {
          "time": 337.017834,
          "midi": 69,
          "name": "A4",
          "velocity": 1,
          "duration": 0.18437499999998863,
          "ticks": 104400,
          "durationTicks": 59
        },
        {
          "time": 337.017834,
          "midi": 57,
          "name": "A3",
          "velocity": 0.9763779527559056,
          "duration": 0.18437499999998863,
          "ticks": 104400,
          "durationTicks": 59
        },
        {
          "time": 337.392834,
          "midi": 69,
          "name": "A4",
          "velocity": 0.905511811023622,
          "duration": 0.18437499999998863,
          "ticks": 104520,
          "durationTicks": 59
        },
        {
          "time": 337.392834,
          "midi": 57,
          "name": "A3",
          "velocity": 0.937007874015748,
          "duration": 0.18437499999998863,
          "ticks": 104520,
          "durationTicks": 59
        },
        {
          "time": 337.767834,
          "midi": 69,
          "name": "A4",
          "velocity": 0.937007874015748,
          "duration": 0.18437499999998863,
          "ticks": 104640,
          "durationTicks": 59
        },
        {
          "time": 337.767834,
          "midi": 57,
          "name": "A3",
          "velocity": 0.937007874015748,
          "duration": 0.18437499999998863,
          "ticks": 104640,
          "durationTicks": 59
        },
        {
          "time": 338.142834,
          "midi": 69,
          "name": "A4",
          "velocity": 0.905511811023622,
          "duration": 0.18437499999998863,
          "ticks": 104760,
          "durationTicks": 59
        },
        {
          "time": 338.142834,
          "midi": 57,
          "name": "A3",
          "velocity": 0.937007874015748,
          "duration": 0.18437499999998863,
          "ticks": 104760,
          "durationTicks": 59
        },
        {
          "time": 338.517834,
          "midi": 69,
          "name": "A4",
          "velocity": 0.9763779527559056,
          "duration": 0.18437499999998863,
          "ticks": 104880,
          "durationTicks": 59
        },
        {
          "time": 338.517834,
          "midi": 57,
          "name": "A3",
          "velocity": 0.937007874015748,
          "duration": 0.18437499999998863,
          "ticks": 104880,
          "durationTicks": 59
        },
        {
          "time": 338.892834,
          "midi": 57,
          "name": "A3",
          "velocity": 0.937007874015748,
          "duration": 0.18437499999998863,
          "ticks": 105000,
          "durationTicks": 59
        },
        {
          "time": 338.892834,
          "midi": 69,
          "name": "A4",
          "velocity": 1,
          "duration": 0.18437499999998863,
          "ticks": 105000,
          "durationTicks": 59
        },
        {
          "time": 339.267834,
          "midi": 62,
          "name": "D4",
          "velocity": 0.905511811023622,
          "duration": 0.18437499999998863,
          "ticks": 105120,
          "durationTicks": 59
        },
        {
          "time": 339.267834,
          "midi": 69,
          "name": "A4",
          "velocity": 1,
          "duration": 0.18437499999998863,
          "ticks": 105120,
          "durationTicks": 59
        },
        {
          "time": 339.642834,
          "midi": 62,
          "name": "D4",
          "velocity": 0.9763779527559056,
          "duration": 0.18437499999998863,
          "ticks": 105240,
          "durationTicks": 59
        },
        {
          "time": 339.642834,
          "midi": 69,
          "name": "A4",
          "velocity": 1,
          "duration": 0.18437499999998863,
          "ticks": 105240,
          "durationTicks": 59
        },
        {
          "time": 340.017834,
          "midi": 62,
          "name": "D4",
          "velocity": 1,
          "duration": 0.18437499999998863,
          "ticks": 105360,
          "durationTicks": 59
        },
        {
          "time": 340.017834,
          "midi": 69,
          "name": "A4",
          "velocity": 1,
          "duration": 0.18437499999998863,
          "ticks": 105360,
          "durationTicks": 59
        },
        {
          "time": 340.392834,
          "midi": 62,
          "name": "D4",
          "velocity": 0.9763779527559056,
          "duration": 0.37187499999998863,
          "ticks": 105480,
          "durationTicks": 119
        },
        {
          "time": 340.392834,
          "midi": 69,
          "name": "A4",
          "velocity": 1,
          "duration": 0.37187499999998863,
          "ticks": 105480,
          "durationTicks": 119
        },
        {
          "time": 340.767834,
          "midi": 62,
          "name": "D4",
          "velocity": 1,
          "duration": 0.37187499999998863,
          "ticks": 105600,
          "durationTicks": 119
        },
        {
          "time": 340.767834,
          "midi": 69,
          "name": "A4",
          "velocity": 1,
          "duration": 0.37187499999998863,
          "ticks": 105600,
          "durationTicks": 119
        },
        {
          "time": 341.142834,
          "midi": 62,
          "name": "D4",
          "velocity": 0.8818897637795275,
          "duration": 0.37187499999998863,
          "ticks": 105720,
          "durationTicks": 119
        },
        {
          "time": 341.142834,
          "midi": 69,
          "name": "A4",
          "velocity": 1,
          "duration": 0.37187499999998863,
          "ticks": 105720,
          "durationTicks": 119
        },
        {
          "time": 341.517834,
          "midi": 62,
          "name": "D4",
          "velocity": 0.937007874015748,
          "duration": 0.37187499999998863,
          "ticks": 105840,
          "durationTicks": 119
        },
        {
          "time": 341.517834,
          "midi": 69,
          "name": "A4",
          "velocity": 1,
          "duration": 0.37187499999998863,
          "ticks": 105840,
          "durationTicks": 119
        },
        {
          "time": 341.892834,
          "midi": 62,
          "name": "D4",
          "velocity": 1,
          "duration": 0.37187499999998863,
          "ticks": 105960,
          "durationTicks": 119
        },
        {
          "time": 341.892834,
          "midi": 69,
          "name": "A4",
          "velocity": 1,
          "duration": 0.37187499999998863,
          "ticks": 105960,
          "durationTicks": 119
        },
        {
          "time": 342.267834,
          "midi": 62,
          "name": "D4",
          "velocity": 0.937007874015748,
          "duration": 0.37187499999998863,
          "ticks": 106080,
          "durationTicks": 119
        },
        {
          "time": 342.267834,
          "midi": 69,
          "name": "A4",
          "velocity": 1,
          "duration": 0.37187499999998863,
          "ticks": 106080,
          "durationTicks": 119
        },
        {
          "time": 342.642834,
          "midi": 62,
          "name": "D4",
          "velocity": 1,
          "duration": 0.37187499999998863,
          "ticks": 106200,
          "durationTicks": 119
        },
        {
          "time": 342.642834,
          "midi": 69,
          "name": "A4",
          "velocity": 1,
          "duration": 0.37187499999998863,
          "ticks": 106200,
          "durationTicks": 119
        },
        {
          "time": 343.017834,
          "midi": 74,
          "name": "D5",
          "velocity": 1,
          "duration": 0.37187499999998863,
          "ticks": 106320,
          "durationTicks": 119
        },
        {
          "time": 343.017834,
          "midi": 62,
          "name": "D4",
          "velocity": 1,
          "duration": 0.37187499999998863,
          "ticks": 106320,
          "durationTicks": 119
        },
        {
          "time": 343.392834,
          "midi": 69,
          "name": "A4",
          "velocity": 1,
          "duration": 0.37187499999998863,
          "ticks": 106440,
          "durationTicks": 119
        },
        {
          "time": 343.392834,
          "midi": 76,
          "name": "E5",
          "velocity": 1,
          "duration": 0.37187499999998863,
          "ticks": 106440,
          "durationTicks": 119
        },
        {
          "time": 343.955334,
          "midi": 66,
          "name": "F#4",
          "velocity": 1,
          "duration": 0.18437499999998863,
          "ticks": 106620,
          "durationTicks": 59
        },
        {
          "time": 343.955334,
          "midi": 74,
          "name": "D5",
          "velocity": 1,
          "duration": 0.18437499999998863,
          "ticks": 106620,
          "durationTicks": 59
        },
        {
          "time": 344.142834,
          "midi": 66,
          "name": "F#4",
          "velocity": 1,
          "duration": 0.37187499999998863,
          "ticks": 106680,
          "durationTicks": 119
        },
        {
          "time": 344.142834,
          "midi": 74,
          "name": "D5",
          "velocity": 1,
          "duration": 0.37187499999998863,
          "ticks": 106680,
          "durationTicks": 119
        },
        {
          "time": 344.517834,
          "midi": 62,
          "name": "D4",
          "velocity": 1,
          "duration": 0.37187499999998863,
          "ticks": 106800,
          "durationTicks": 119
        },
        {
          "time": 344.517834,
          "midi": 69,
          "name": "A4",
          "velocity": 1,
          "duration": 0.37187499999998863,
          "ticks": 106800,
          "durationTicks": 119
        },
        {
          "time": 344.892834,
          "midi": 62,
          "name": "D4",
          "velocity": 1,
          "duration": 0.37187499999998863,
          "ticks": 106920,
          "durationTicks": 119
        },
        {
          "time": 344.892834,
          "midi": 69,
          "name": "A4",
          "velocity": 1,
          "duration": 0.37187499999998863,
          "ticks": 106920,
          "durationTicks": 119
        },
        {
          "time": 345.642834,
          "midi": 62,
          "name": "D4",
          "velocity": 0.937007874015748,
          "duration": 0.37187499999998863,
          "ticks": 107160,
          "durationTicks": 119
        },
        {
          "time": 345.642834,
          "midi": 69,
          "name": "A4",
          "velocity": 1,
          "duration": 0.37187499999998863,
          "ticks": 107160,
          "durationTicks": 119
        },
        {
          "time": 346.392834,
          "midi": 74,
          "name": "D5",
          "velocity": 1,
          "duration": 0.37187499999998863,
          "ticks": 107400,
          "durationTicks": 119
        },
        {
          "time": 346.392834,
          "midi": 62,
          "name": "D4",
          "velocity": 1,
          "duration": 0.37187499999998863,
          "ticks": 107400,
          "durationTicks": 119
        },
        {
          "time": 347.142834,
          "midi": 62,
          "name": "D4",
          "velocity": 1,
          "duration": 0.37187499999998863,
          "ticks": 107640,
          "durationTicks": 119
        },
        {
          "time": 347.142834,
          "midi": 74,
          "name": "D5",
          "velocity": 1,
          "duration": 0.37187499999998863,
          "ticks": 107640,
          "durationTicks": 119
        },
        {
          "time": 347.892834,
          "midi": 69,
          "name": "A4",
          "velocity": 1,
          "duration": 0.37187499999998863,
          "ticks": 107880,
          "durationTicks": 119
        },
        {
          "time": 347.892834,
          "midi": 57,
          "name": "A3",
          "velocity": 1,
          "duration": 0.37187499999998863,
          "ticks": 107880,
          "durationTicks": 119
        },
        {
          "time": 348.642834,
          "midi": 76,
          "name": "E5",
          "velocity": 1,
          "duration": 0.37187499999998863,
          "ticks": 108120,
          "durationTicks": 119
        },
        {
          "time": 348.642834,
          "midi": 69,
          "name": "A4",
          "velocity": 1,
          "duration": 0.37187499999998863,
          "ticks": 108120,
          "durationTicks": 119
        },
        {
          "time": 349.392834,
          "midi": 66,
          "name": "F#4",
          "velocity": 0.937007874015748,
          "duration": 1.4968749999999886,
          "ticks": 108360,
          "durationTicks": 479
        },
        {
          "time": 349.392834,
          "midi": 74,
          "name": "D5",
          "velocity": 1,
          "duration": 1.4968749999999886,
          "ticks": 108360,
          "durationTicks": 479
        },
        {
          "time": 350.892834,
          "midi": 76,
          "name": "E5",
          "velocity": 1,
          "duration": 0.37187499999998863,
          "ticks": 108840,
          "durationTicks": 119
        },
        {
          "time": 350.892834,
          "midi": 76,
          "name": "E5",
          "velocity": 1,
          "duration": 0.37187499999998863,
          "ticks": 108840,
          "durationTicks": 119
        },
        {
          "time": 351.642834,
          "midi": 76,
          "name": "E5",
          "velocity": 1,
          "duration": 0.37187499999998863,
          "ticks": 109080,
          "durationTicks": 119
        },
        {
          "time": 351.642834,
          "midi": 76,
          "name": "E5",
          "velocity": 1,
          "duration": 0.37187499999998863,
          "ticks": 109080,
          "durationTicks": 119
        },
        {
          "time": 352.392834,
          "midi": 69,
          "name": "A4",
          "velocity": 0.9763779527559056,
          "duration": 1.4968749999999886,
          "ticks": 109320,
          "durationTicks": 479
        },
        {
          "time": 352.392834,
          "midi": 81,
          "name": "A5",
          "velocity": 1,
          "duration": 1.4968749999999886,
          "ticks": 109320,
          "durationTicks": 479
        },
        {
          "time": 353.892834,
          "midi": 76,
          "name": "E5",
          "velocity": 1,
          "duration": 0.37187499999998863,
          "ticks": 109800,
          "durationTicks": 119
        },
        {
          "time": 353.892834,
          "midi": 76,
          "name": "E5",
          "velocity": 1,
          "duration": 0.37187499999998863,
          "ticks": 109800,
          "durationTicks": 119
        },
        {
          "time": 354.642834,
          "midi": 76,
          "name": "E5",
          "velocity": 1,
          "duration": 0.37187499999998863,
          "ticks": 110040,
          "durationTicks": 119
        },
        {
          "time": 354.642834,
          "midi": 76,
          "name": "E5",
          "velocity": 1,
          "duration": 0.37187499999998863,
          "ticks": 110040,
          "durationTicks": 119
        },
        {
          "time": 355.392834,
          "midi": 69,
          "name": "A4",
          "velocity": 0.9763779527559056,
          "duration": 1.4968749999999886,
          "ticks": 110280,
          "durationTicks": 479
        },
        {
          "time": 355.392834,
          "midi": 81,
          "name": "A5",
          "velocity": 1,
          "duration": 1.4968749999999886,
          "ticks": 110280,
          "durationTicks": 479
        },
        {
          "time": 356.892834,
          "midi": 69,
          "name": "A4",
          "velocity": 1,
          "duration": 0.37187499999998863,
          "ticks": 110760,
          "durationTicks": 119
        },
        {
          "time": 356.892834,
          "midi": 81,
          "name": "A5",
          "velocity": 1,
          "duration": 0.37187499999998863,
          "ticks": 110760,
          "durationTicks": 119
        },
        {
          "time": 357.642834,
          "midi": 69,
          "name": "A4",
          "velocity": 1,
          "duration": 0.37187499999998863,
          "ticks": 111000,
          "durationTicks": 119
        },
        {
          "time": 357.642834,
          "midi": 81,
          "name": "A5",
          "velocity": 1,
          "duration": 0.37187499999998863,
          "ticks": 111000,
          "durationTicks": 119
        },
        {
          "time": 358.392834,
          "midi": 69,
          "name": "A4",
          "velocity": 1,
          "duration": 1.5386393583333415,
          "ticks": 111240,
          "durationTicks": 479
        },
        {
          "time": 358.392834,
          "midi": 81,
          "name": "A5",
          "velocity": 1,
          "duration": 1.5386393583333415,
          "ticks": 111240,
          "durationTicks": 479
        }
      ],
      "controlChanges": {
        "7": [
          {
            "number": 7,
            "value": 0.7874015748031497,
            "time": 0,
            "ticks": 0
          }
        ],
        "10": [
          {
            "number": 10,
            "value": 0.5511811023622047,
            "time": 0,
            "ticks": 0
          }
        ]
      }
    },
    {
      "name": "Trumpeta Bb",
      "channel": 0,
      "instrument": {
        "number": 56,
        "name": "trumpet",
        "family": "brass"
      },
      "notes": [],
      "controlChanges": {
        "7": [
          {
            "number": 7,
            "value": 0.7086614173228346,
            "time": 0,
            "ticks": 0
          }
        ],
        "10": [
          {
            "number": 10,
            "value": 0.6299212598425197,
            "time": 0,
            "ticks": 0
          }
        ]
      }
    },
    {
      "name": "Tuba",
      "channel": 0,
      "instrument": {
        "number": 58,
        "name": "tuba",
        "family": "brass"
      },
      "notes": [],
      "controlChanges": {
        "7": [
          {
            "number": 7,
            "value": 0.7086614173228346,
            "time": 0,
            "ticks": 0
          }
        ],
        "10": [
          {
            "number": 10,
            "value": 0.7244094488188977,
            "time": 0,
            "ticks": 0
          }
        ]
      }
    },
    {
      "name": "Timpani",
      "channel": 0,
      "instrument": {
        "number": 47,
        "name": "timpani",
        "family": "strings"
      },
      "notes": [
        {
          "time": 109.5,
          "midi": 50,
          "name": "D3",
          "velocity": 0.905511811023622,
          "duration": 0.37187500000000284,
          "ticks": 35040,
          "durationTicks": 119
        },
        {
          "time": 110.0625,
          "midi": 50,
          "name": "D3",
          "velocity": 0.9133858267716536,
          "duration": 0.18437500000000284,
          "ticks": 35220,
          "durationTicks": 59
        },
        {
          "time": 110.25,
          "midi": 50,
          "name": "D3",
          "velocity": 0.9133858267716536,
          "duration": 0.37187500000000284,
          "ticks": 35280,
          "durationTicks": 119
        },
        {
          "time": 110.8125,
          "midi": 50,
          "name": "D3",
          "velocity": 0.9291338582677166,
          "duration": 0.18437500000000284,
          "ticks": 35460,
          "durationTicks": 59
        },
        {
          "time": 111,
          "midi": 45,
          "name": "A2",
          "velocity": 0.9291338582677166,
          "duration": 0.37187500000000284,
          "ticks": 35520,
          "durationTicks": 119
        },
        {
          "time": 111.5625,
          "midi": 45,
          "name": "A2",
          "velocity": 0.9291338582677166,
          "duration": 0.18437500000000284,
          "ticks": 35700,
          "durationTicks": 59
        },
        {
          "time": 111.75,
          "midi": 45,
          "name": "A2",
          "velocity": 0.937007874015748,
          "duration": 0.37187500000000284,
          "ticks": 35760,
          "durationTicks": 119
        },
        {
          "time": 112.3125,
          "midi": 45,
          "name": "A2",
          "velocity": 0.9448818897637795,
          "duration": 0.18437500000000284,
          "ticks": 35940,
          "durationTicks": 59
        },
        {
          "time": 112.5,
          "midi": 50,
          "name": "D3",
          "velocity": 0.9448818897637795,
          "duration": 0.37187500000000284,
          "ticks": 36000,
          "durationTicks": 119
        },
        {
          "time": 113.625,
          "midi": 50,
          "name": "D3",
          "velocity": 0.9448818897637795,
          "duration": 0.37187500000000284,
          "ticks": 36360,
          "durationTicks": 119
        },
        {
          "time": 114,
          "midi": 45,
          "name": "A2",
          "velocity": 0.9448818897637795,
          "duration": 0.37187500000000284,
          "ticks": 36480,
          "durationTicks": 119
        },
        {
          "time": 114.75,
          "midi": 45,
          "name": "A2",
          "velocity": 0.9448818897637795,
          "duration": 0.37187500000000284,
          "ticks": 36720,
          "durationTicks": 119
        },
        {
          "time": 115.5,
          "midi": 50,
          "name": "D3",
          "velocity": 0.9448818897637795,
          "duration": 0.37187500000000284,
          "ticks": 36960,
          "durationTicks": 119
        },
        {
          "time": 116.0625,
          "midi": 50,
          "name": "D3",
          "velocity": 0.9448818897637795,
          "duration": 0.18437500000000284,
          "ticks": 37140,
          "durationTicks": 59
        },
        {
          "time": 116.25,
          "midi": 50,
          "name": "D3",
          "velocity": 0.937007874015748,
          "duration": 0.37187500000000284,
          "ticks": 37200,
          "durationTicks": 119
        },
        {
          "time": 116.8125,
          "midi": 50,
          "name": "D3",
          "velocity": 0.937007874015748,
          "duration": 0.18437500000000284,
          "ticks": 37380,
          "durationTicks": 59
        },
        {
          "time": 117,
          "midi": 45,
          "name": "A2",
          "velocity": 0.937007874015748,
          "duration": 0.37187500000000284,
          "ticks": 37440,
          "durationTicks": 119
        },
        {
          "time": 117.5625,
          "midi": 45,
          "name": "A2",
          "velocity": 0.9212598425196851,
          "duration": 0.18437500000000284,
          "ticks": 37620,
          "durationTicks": 59
        },
        {
          "time": 117.75,
          "midi": 45,
          "name": "A2",
          "velocity": 0.9212598425196851,
          "duration": 0.37187500000000284,
          "ticks": 37680,
          "durationTicks": 119
        },
        {
          "time": 118.3125,
          "midi": 45,
          "name": "A2",
          "velocity": 0.9212598425196851,
          "duration": 0.18437500000000284,
          "ticks": 37860,
          "durationTicks": 59
        },
        {
          "time": 118.5,
          "midi": 50,
          "name": "D3",
          "velocity": 0.9212598425196851,
          "duration": 0.37187500000000284,
          "ticks": 37920,
          "durationTicks": 119
        },
        {
          "time": 119.625,
          "midi": 50,
          "name": "D3",
          "velocity": 0.9133858267716536,
          "duration": 0.37187500000000284,
          "ticks": 38280,
          "durationTicks": 119
        },
        {
          "time": 120,
          "midi": 45,
          "name": "A2",
          "velocity": 0.9133858267716536,
          "duration": 0.37187500000000284,
          "ticks": 38400,
          "durationTicks": 119
        },
        {
          "time": 120.75,
          "midi": 50,
          "name": "D3",
          "velocity": 0.905511811023622,
          "duration": 0.37187500000000284,
          "ticks": 38640,
          "durationTicks": 119
        },
        {
          "time": 121.5,
          "midi": 45,
          "name": "A2",
          "velocity": 0.905511811023622,
          "duration": 0.37187500000000284,
          "ticks": 38880,
          "durationTicks": 119
        },
        {
          "time": 122.0625,
          "midi": 45,
          "name": "A2",
          "velocity": 0.905511811023622,
          "duration": 0.18437500000000284,
          "ticks": 39060,
          "durationTicks": 59
        },
        {
          "time": 122.25,
          "midi": 45,
          "name": "A2",
          "velocity": 0.9133858267716536,
          "duration": 0.37187500000000284,
          "ticks": 39120,
          "durationTicks": 119
        },
        {
          "time": 122.625,
          "midi": 50,
          "name": "D3",
          "velocity": 0.9133858267716536,
          "duration": 0.37187500000000284,
          "ticks": 39240,
          "durationTicks": 119
        },
        {
          "time": 123,
          "midi": 45,
          "name": "A2",
          "velocity": 0.9133858267716536,
          "duration": 0.37187500000000284,
          "ticks": 39360,
          "durationTicks": 119
        },
        {
          "time": 123.5625,
          "midi": 45,
          "name": "A2",
          "velocity": 0.9291338582677166,
          "duration": 0.18437500000000284,
          "ticks": 39540,
          "durationTicks": 59
        },
        {
          "time": 123.75,
          "midi": 45,
          "name": "A2",
          "velocity": 0.9291338582677166,
          "duration": 0.37187500000000284,
          "ticks": 39600,
          "durationTicks": 119
        },
        {
          "time": 124.125,
          "midi": 50,
          "name": "D3",
          "velocity": 0.937007874015748,
          "duration": 0.37187500000000284,
          "ticks": 39720,
          "durationTicks": 119
        },
        {
          "time": 124.5,
          "midi": 45,
          "name": "A2",
          "velocity": 0.937007874015748,
          "duration": 0.37187500000000284,
          "ticks": 39840,
          "durationTicks": 119
        },
        {
          "time": 126,
          "midi": 50,
          "name": "D3",
          "velocity": 0.952755905511811,
          "duration": 0.18437500000000284,
          "ticks": 40320,
          "durationTicks": 59
        },
        {
          "time": 126.375,
          "midi": 50,
          "name": "D3",
          "velocity": 0.968503937007874,
          "duration": 0.18437500000000284,
          "ticks": 40440,
          "durationTicks": 59
        },
        {
          "time": 126.75,
          "midi": 45,
          "name": "A2",
          "velocity": 0.968503937007874,
          "duration": 0.18437500000000284,
          "ticks": 40560,
          "durationTicks": 59
        },
        {
          "time": 127.125,
          "midi": 45,
          "name": "A2",
          "velocity": 0.968503937007874,
          "duration": 0.18437500000000284,
          "ticks": 40680,
          "durationTicks": 59
        },
        {
          "time": 127.5,
          "midi": 50,
          "name": "D3",
          "velocity": 0.9763779527559056,
          "duration": 0.37187500000000284,
          "ticks": 40800,
          "durationTicks": 119
        },
        {
          "time": 128.0625,
          "midi": 50,
          "name": "D3",
          "velocity": 0.9763779527559056,
          "duration": 0.18437499999998863,
          "ticks": 40980,
          "durationTicks": 59
        },
        {
          "time": 128.25,
          "midi": 50,
          "name": "D3",
          "velocity": 0.9763779527559056,
          "duration": 0.37187499999998863,
          "ticks": 41040,
          "durationTicks": 119
        },
        {
          "time": 128.8125,
          "midi": 50,
          "name": "D3",
          "velocity": 0.9763779527559056,
          "duration": 0.18437499999998863,
          "ticks": 41220,
          "durationTicks": 59
        },
        {
          "time": 129,
          "midi": 45,
          "name": "A2",
          "velocity": 1,
          "duration": 0.37187499999998863,
          "ticks": 41280,
          "durationTicks": 119
        },
        {
          "time": 129.5625,
          "midi": 45,
          "name": "A2",
          "velocity": 1,
          "duration": 0.18437499999998863,
          "ticks": 41460,
          "durationTicks": 59
        },
        {
          "time": 129.75,
          "midi": 45,
          "name": "A2",
          "velocity": 1,
          "duration": 0.37187499999998863,
          "ticks": 41520,
          "durationTicks": 119
        },
        {
          "time": 130.3125,
          "midi": 45,
          "name": "A2",
          "velocity": 1,
          "duration": 0.18437499999998863,
          "ticks": 41700,
          "durationTicks": 59
        },
        {
          "time": 130.5,
          "midi": 50,
          "name": "D3",
          "velocity": 1,
          "duration": 0.37187499999998863,
          "ticks": 41760,
          "durationTicks": 119
        },
        {
          "time": 131.625,
          "midi": 50,
          "name": "D3",
          "velocity": 1,
          "duration": 0.37187499999998863,
          "ticks": 42120,
          "durationTicks": 119
        },
        {
          "time": 132,
          "midi": 45,
          "name": "A2",
          "velocity": 1,
          "duration": 0.37187499999998863,
          "ticks": 42240,
          "durationTicks": 119
        },
        {
          "time": 132.75,
          "midi": 50,
          "name": "D3",
          "velocity": 1,
          "duration": 0.37187499999998863,
          "ticks": 42480,
          "durationTicks": 119
        },
        {
          "time": 133.5,
          "midi": 45,
          "name": "A2",
          "velocity": 1,
          "duration": 0.37187499999998863,
          "ticks": 42720,
          "durationTicks": 119
        },
        {
          "time": 134.0625,
          "midi": 45,
          "name": "A2",
          "velocity": 1,
          "duration": 0.18437499999998863,
          "ticks": 42900,
          "durationTicks": 59
        },
        {
          "time": 134.25,
          "midi": 45,
          "name": "A2",
          "velocity": 1,
          "duration": 0.37187499999998863,
          "ticks": 42960,
          "durationTicks": 119
        },
        {
          "time": 134.625,
          "midi": 50,
          "name": "D3",
          "velocity": 1,
          "duration": 0.37187499999998863,
          "ticks": 43080,
          "durationTicks": 119
        },
        {
          "time": 135,
          "midi": 45,
          "name": "A2",
          "velocity": 1,
          "duration": 0.37187499999998863,
          "ticks": 43200,
          "durationTicks": 119
        },
        {
          "time": 135.5625,
          "midi": 45,
          "name": "A2",
          "velocity": 1,
          "duration": 0.18437499999998863,
          "ticks": 43380,
          "durationTicks": 59
        },
        {
          "time": 135.75,
          "midi": 45,
          "name": "A2",
          "velocity": 1,
          "duration": 0.37187499999998863,
          "ticks": 43440,
          "durationTicks": 119
        },
        {
          "time": 136.125,
          "midi": 50,
          "name": "D3",
          "velocity": 1,
          "duration": 0.37187499999998863,
          "ticks": 43560,
          "durationTicks": 119
        },
        {
          "time": 136.5,
          "midi": 45,
          "name": "A2",
          "velocity": 1,
          "duration": 0.37187499999998863,
          "ticks": 43680,
          "durationTicks": 119
        },
        {
          "time": 138,
          "midi": 50,
          "name": "D3",
          "velocity": 1,
          "duration": 0.18437499999998863,
          "ticks": 44160,
          "durationTicks": 59
        },
        {
          "time": 138.375,
          "midi": 50,
          "name": "D3",
          "velocity": 1,
          "duration": 0.18437499999998863,
          "ticks": 44280,
          "durationTicks": 59
        },
        {
          "time": 138.75,
          "midi": 45,
          "name": "A2",
          "velocity": 1,
          "duration": 0.18437499999998863,
          "ticks": 44400,
          "durationTicks": 59
        },
        {
          "time": 139.125,
          "midi": 45,
          "name": "A2",
          "velocity": 1,
          "duration": 0.18437499999998863,
          "ticks": 44520,
          "durationTicks": 59
        },
        {
          "time": 139.5,
          "midi": 50,
          "name": "D3",
          "velocity": 1,
          "duration": 0.37187499999998863,
          "ticks": 44640,
          "durationTicks": 119
        },
        {
          "time": 140.0625,
          "midi": 50,
          "name": "D3",
          "velocity": 1,
          "duration": 0.18437499999998863,
          "ticks": 44820,
          "durationTicks": 59
        },
        {
          "time": 140.25,
          "midi": 50,
          "name": "D3",
          "velocity": 1,
          "duration": 0.37187499999998863,
          "ticks": 44880,
          "durationTicks": 119
        },
        {
          "time": 140.8125,
          "midi": 50,
          "name": "D3",
          "velocity": 1,
          "duration": 0.18437499999998863,
          "ticks": 45060,
          "durationTicks": 59
        },
        {
          "time": 141,
          "midi": 45,
          "name": "A2",
          "velocity": 1,
          "duration": 0.37187499999998863,
          "ticks": 45120,
          "durationTicks": 119
        },
        {
          "time": 141.5625,
          "midi": 45,
          "name": "A2",
          "velocity": 1,
          "duration": 0.18437499999998863,
          "ticks": 45300,
          "durationTicks": 59
        },
        {
          "time": 141.75,
          "midi": 45,
          "name": "A2",
          "velocity": 1,
          "duration": 0.37187499999998863,
          "ticks": 45360,
          "durationTicks": 119
        },
        {
          "time": 142.3125,
          "midi": 45,
          "name": "A2",
          "velocity": 1,
          "duration": 0.18437499999998863,
          "ticks": 45540,
          "durationTicks": 59
        },
        {
          "time": 142.5,
          "midi": 50,
          "name": "D3",
          "velocity": 1,
          "duration": 0.37187499999998863,
          "ticks": 45600,
          "durationTicks": 119
        },
        {
          "time": 143.625,
          "midi": 50,
          "name": "D3",
          "velocity": 1,
          "duration": 0.37187499999998863,
          "ticks": 45960,
          "durationTicks": 119
        },
        {
          "time": 144,
          "midi": 45,
          "name": "A2",
          "velocity": 1,
          "duration": 0.37187499999998863,
          "ticks": 46080,
          "durationTicks": 119
        },
        {
          "time": 144.75,
          "midi": 50,
          "name": "D3",
          "velocity": 1,
          "duration": 0.37187499999998863,
          "ticks": 46320,
          "durationTicks": 119
        },
        {
          "time": 145.125,
          "midi": 50,
          "name": "D3",
          "velocity": 1,
          "duration": 0.37187499999998863,
          "ticks": 46440,
          "durationTicks": 119
        },
        {
          "time": 145.5,
          "midi": 50,
          "name": "D3",
          "velocity": 0.9763779527559056,
          "duration": 0.37187499999998863,
          "ticks": 46560,
          "durationTicks": 119
        },
        {
          "time": 146.0625,
          "midi": 50,
          "name": "D3",
          "velocity": 1,
          "duration": 0.18437499999998863,
          "ticks": 46740,
          "durationTicks": 59
        },
        {
          "time": 146.25,
          "midi": 50,
          "name": "D3",
          "velocity": 1,
          "duration": 0.37187499999998863,
          "ticks": 46800,
          "durationTicks": 119
        },
        {
          "time": 146.625,
          "midi": 50,
          "name": "D3",
          "velocity": 0.9763779527559056,
          "duration": 0.37187499999998863,
          "ticks": 46920,
          "durationTicks": 119
        },
        {
          "time": 147,
          "midi": 50,
          "name": "D3",
          "velocity": 1,
          "duration": 0.37187499999998863,
          "ticks": 47040,
          "durationTicks": 119
        },
        {
          "time": 147.5625,
          "midi": 50,
          "name": "D3",
          "velocity": 0.8818897637795275,
          "duration": 0.18437499999998863,
          "ticks": 47220,
          "durationTicks": 59
        },
        {
          "time": 147.75,
          "midi": 50,
          "name": "D3",
          "velocity": 0.8503937007874016,
          "duration": 0.37187499999998863,
          "ticks": 47280,
          "durationTicks": 119
        },
        {
          "time": 148.125,
          "midi": 50,
          "name": "D3",
          "velocity": 0.905511811023622,
          "duration": 0.37187499999998863,
          "ticks": 47400,
          "durationTicks": 119
        },
        {
          "time": 148.5,
          "midi": 50,
          "name": "D3",
          "velocity": 0.937007874015748,
          "duration": 0.37187499999998863,
          "ticks": 47520,
          "durationTicks": 119
        },
        {
          "time": 149.0625,
          "midi": 50,
          "name": "D3",
          "velocity": 0.8818897637795275,
          "duration": 0.18437499999998863,
          "ticks": 47700,
          "durationTicks": 59
        },
        {
          "time": 149.25,
          "midi": 45,
          "name": "A2",
          "velocity": 1,
          "duration": 0.37187499999998863,
          "ticks": 47760,
          "durationTicks": 119
        },
        {
          "time": 149.625,
          "midi": 45,
          "name": "A2",
          "velocity": 1,
          "duration": 0.37187499999998863,
          "ticks": 47880,
          "durationTicks": 119
        },
        {
          "time": 150,
          "midi": 50,
          "name": "D3",
          "velocity": 1,
          "duration": 0.37187499999998863,
          "ticks": 48000,
          "durationTicks": 119
        },
        {
          "time": 150.5625,
          "midi": 50,
          "name": "D3",
          "velocity": 0.8818897637795275,
          "duration": 0.18437499999998863,
          "ticks": 48180,
          "durationTicks": 59
        },
        {
          "time": 150.75,
          "midi": 50,
          "name": "D3",
          "velocity": 1,
          "duration": 0.18437499999998863,
          "ticks": 48240,
          "durationTicks": 59
        },
        {
          "time": 151.125,
          "midi": 50,
          "name": "D3",
          "velocity": 1,
          "duration": 0.18437499999998863,
          "ticks": 48360,
          "durationTicks": 59
        },
        {
          "time": 151.5,
          "midi": 50,
          "name": "D3",
          "velocity": 0.937007874015748,
          "duration": 0.37187499999998863,
          "ticks": 48480,
          "durationTicks": 119
        },
        {
          "time": 152.0625,
          "midi": 50,
          "name": "D3",
          "velocity": 0.8818897637795275,
          "duration": 0.18437499999998863,
          "ticks": 48660,
          "durationTicks": 59
        },
        {
          "time": 152.25,
          "midi": 45,
          "name": "A2",
          "velocity": 1,
          "duration": 0.37187499999998863,
          "ticks": 48720,
          "durationTicks": 119
        },
        {
          "time": 152.625,
          "midi": 45,
          "name": "A2",
          "velocity": 1,
          "duration": 0.37187499999998863,
          "ticks": 48840,
          "durationTicks": 119
        },
        {
          "time": 158.625,
          "midi": 50,
          "name": "D3",
          "velocity": 1,
          "duration": 0.37187499999998863,
          "ticks": 50760,
          "durationTicks": 119
        },
        {
          "time": 159,
          "midi": 50,
          "name": "D3",
          "velocity": 1,
          "duration": 0.37187499999998863,
          "ticks": 50880,
          "durationTicks": 119
        },
        {
          "time": 159.5625,
          "midi": 50,
          "name": "D3",
          "velocity": 1,
          "duration": 0.18437499999998863,
          "ticks": 51060,
          "durationTicks": 59
        },
        {
          "time": 159.75,
          "midi": 50,
          "name": "D3",
          "velocity": 1,
          "duration": 0.37187499999998863,
          "ticks": 51120,
          "durationTicks": 119
        },
        {
          "time": 160.3125,
          "midi": 50,
          "name": "D3",
          "velocity": 1,
          "duration": 0.18437499999998863,
          "ticks": 51300,
          "durationTicks": 59
        },
        {
          "time": 160.5,
          "midi": 50,
          "name": "D3",
          "velocity": 1,
          "duration": 0.37187499999998863,
          "ticks": 51360,
          "durationTicks": 119
        },
        {
          "time": 161.0625,
          "midi": 50,
          "name": "D3",
          "velocity": 1,
          "duration": 0.18437499999998863,
          "ticks": 51540,
          "durationTicks": 59
        },
        {
          "time": 161.25,
          "midi": 50,
          "name": "D3",
          "velocity": 1,
          "duration": 0.37187499999998863,
          "ticks": 51600,
          "durationTicks": 119
        },
        {
          "time": 161.8125,
          "midi": 50,
          "name": "D3",
          "velocity": 1,
          "duration": 0.18437499999998863,
          "ticks": 51780,
          "durationTicks": 59
        },
        {
          "time": 162,
          "midi": 45,
          "name": "A2",
          "velocity": 1,
          "duration": 0.37187499999998863,
          "ticks": 51840,
          "durationTicks": 119
        },
        {
          "time": 162.375,
          "midi": 45,
          "name": "A2",
          "velocity": 1,
          "duration": 0.18437499999998863,
          "ticks": 51960,
          "durationTicks": 59
        },
        {
          "time": 162.5625,
          "midi": 45,
          "name": "A2",
          "velocity": 1,
          "duration": 0.18437499999998863,
          "ticks": 52020,
          "durationTicks": 59
        },
        {
          "time": 162.75,
          "midi": 50,
          "name": "D3",
          "velocity": 1,
          "duration": 0.37187499999998863,
          "ticks": 52080,
          "durationTicks": 119
        },
        {
          "time": 163.125,
          "midi": 50,
          "name": "D3",
          "velocity": 1,
          "duration": 0.18437499999998863,
          "ticks": 52200,
          "durationTicks": 59
        },
        {
          "time": 163.3125,
          "midi": 50,
          "name": "D3",
          "velocity": 1,
          "duration": 0.18437499999998863,
          "ticks": 52260,
          "durationTicks": 59
        },
        {
          "time": 163.5,
          "midi": 45,
          "name": "A2",
          "velocity": 1,
          "duration": 0.37187499999998863,
          "ticks": 52320,
          "durationTicks": 119
        },
        {
          "time": 163.875,
          "midi": 45,
          "name": "A2",
          "velocity": 1,
          "duration": 0.18437499999998863,
          "ticks": 52440,
          "durationTicks": 59
        },
        {
          "time": 164.0625,
          "midi": 45,
          "name": "A2",
          "velocity": 1,
          "duration": 0.18437499999998863,
          "ticks": 52500,
          "durationTicks": 59
        },
        {
          "time": 164.25,
          "midi": 45,
          "name": "A2",
          "velocity": 1,
          "duration": 0.37187499999998863,
          "ticks": 52560,
          "durationTicks": 119
        },
        {
          "time": 165,
          "midi": 45,
          "name": "A2",
          "velocity": 1,
          "duration": 0.37187499999998863,
          "ticks": 52800,
          "durationTicks": 119
        },
        {
          "time": 166.5,
          "midi": 45,
          "name": "A2",
          "velocity": 1,
          "duration": 0.37187499999998863,
          "ticks": 53280,
          "durationTicks": 119
        },
        {
          "time": 177,
          "midi": 45,
          "name": "A2",
          "velocity": 1,
          "duration": 0.37187499999998863,
          "ticks": 55200,
          "durationTicks": 119
        },
        {
          "time": 177.375,
          "midi": 45,
          "name": "A2",
          "velocity": 1,
          "duration": 0.37187499999998863,
          "ticks": 55320,
          "durationTicks": 119
        },
        {
          "time": 179.625,
          "midi": 45,
          "name": "A2",
          "velocity": 1,
          "duration": 0.09062499999998863,
          "ticks": 56040,
          "durationTicks": 29
        },
        {
          "time": 179.71875,
          "midi": 45,
          "name": "A2",
          "velocity": 1,
          "duration": 0.09062499999998863,
          "ticks": 56070,
          "durationTicks": 29
        },
        {
          "time": 179.8125,
          "midi": 45,
          "name": "A2",
          "velocity": 1,
          "duration": 0.09062499999998863,
          "ticks": 56100,
          "durationTicks": 29
        },
        {
          "time": 179.90625,
          "midi": 45,
          "name": "A2",
          "velocity": 1,
          "duration": 0.09062499999998863,
          "ticks": 56130,
          "durationTicks": 29
        },
        {
          "time": 180,
          "midi": 45,
          "name": "A2",
          "velocity": 1,
          "duration": 0.09062499999998863,
          "ticks": 56160,
          "durationTicks": 29
        },
        {
          "time": 180.09375,
          "midi": 45,
          "name": "A2",
          "velocity": 1,
          "duration": 0.09062499999998863,
          "ticks": 56190,
          "durationTicks": 29
        },
        {
          "time": 180.1875,
          "midi": 45,
          "name": "A2",
          "velocity": 1,
          "duration": 0.09062499999998863,
          "ticks": 56220,
          "durationTicks": 29
        },
        {
          "time": 180.28125,
          "midi": 45,
          "name": "A2",
          "velocity": 1,
          "duration": 0.09062499999998863,
          "ticks": 56250,
          "durationTicks": 29
        },
        {
          "time": 180.375,
          "midi": 45,
          "name": "A2",
          "velocity": 1,
          "duration": 0.09062499999998863,
          "ticks": 56280,
          "durationTicks": 29
        },
        {
          "time": 180.46875,
          "midi": 45,
          "name": "A2",
          "velocity": 1,
          "duration": 0.09062499999998863,
          "ticks": 56310,
          "durationTicks": 29
        },
        {
          "time": 180.5625,
          "midi": 45,
          "name": "A2",
          "velocity": 1,
          "duration": 0.09062499999998863,
          "ticks": 56340,
          "durationTicks": 29
        },
        {
          "time": 180.65625,
          "midi": 45,
          "name": "A2",
          "velocity": 1,
          "duration": 0.09062499999998863,
          "ticks": 56370,
          "durationTicks": 29
        },
        {
          "time": 180.75,
          "midi": 45,
          "name": "A2",
          "velocity": 1,
          "duration": 0.09062499999998863,
          "ticks": 56400,
          "durationTicks": 29
        },
        {
          "time": 180.84375,
          "midi": 45,
          "name": "A2",
          "velocity": 1,
          "duration": 0.09062499999998863,
          "ticks": 56430,
          "durationTicks": 29
        },
        {
          "time": 180.9375,
          "midi": 45,
          "name": "A2",
          "velocity": 1,
          "duration": 0.09062499999998863,
          "ticks": 56460,
          "durationTicks": 29
        },
        {
          "time": 181.03125,
          "midi": 45,
          "name": "A2",
          "velocity": 1,
          "duration": 0.09062499999998863,
          "ticks": 56490,
          "durationTicks": 29
        },
        {
          "time": 181.125,
          "midi": 45,
          "name": "A2",
          "velocity": 1,
          "duration": 0.09062499999998863,
          "ticks": 56520,
          "durationTicks": 29
        },
        {
          "time": 181.21875,
          "midi": 45,
          "name": "A2",
          "velocity": 1,
          "duration": 0.09062499999998863,
          "ticks": 56550,
          "durationTicks": 29
        },
        {
          "time": 181.3125,
          "midi": 45,
          "name": "A2",
          "velocity": 1,
          "duration": 0.09062499999998863,
          "ticks": 56580,
          "durationTicks": 29
        },
        {
          "time": 181.40625,
          "midi": 45,
          "name": "A2",
          "velocity": 1,
          "duration": 0.09062499999998863,
          "ticks": 56610,
          "durationTicks": 29
        },
        {
          "time": 181.5,
          "midi": 45,
          "name": "A2",
          "velocity": 1,
          "duration": 0.09062499999998863,
          "ticks": 56640,
          "durationTicks": 29
        },
        {
          "time": 181.59375,
          "midi": 45,
          "name": "A2",
          "velocity": 1,
          "duration": 0.09062499999998863,
          "ticks": 56670,
          "durationTicks": 29
        },
        {
          "time": 181.6875,
          "midi": 45,
          "name": "A2",
          "velocity": 1,
          "duration": 0.09062499999998863,
          "ticks": 56700,
          "durationTicks": 29
        },
        {
          "time": 181.78125,
          "midi": 45,
          "name": "A2",
          "velocity": 1,
          "duration": 0.09062499999998863,
          "ticks": 56730,
          "durationTicks": 29
        },
        {
          "time": 181.875,
          "midi": 45,
          "name": "A2",
          "velocity": 1,
          "duration": 0.09062499999998863,
          "ticks": 56760,
          "durationTicks": 29
        },
        {
          "time": 181.96875,
          "midi": 45,
          "name": "A2",
          "velocity": 1,
          "duration": 0.09062499999998863,
          "ticks": 56790,
          "durationTicks": 29
        },
        {
          "time": 182.0625,
          "midi": 45,
          "name": "A2",
          "velocity": 1,
          "duration": 0.09062499999998863,
          "ticks": 56820,
          "durationTicks": 29
        },
        {
          "time": 182.15625,
          "midi": 45,
          "name": "A2",
          "velocity": 1,
          "duration": 0.09062499999998863,
          "ticks": 56850,
          "durationTicks": 29
        },
        {
          "time": 182.25,
          "midi": 45,
          "name": "A2",
          "velocity": 1,
          "duration": 0.09062499999998863,
          "ticks": 56880,
          "durationTicks": 29
        },
        {
          "time": 182.34375,
          "midi": 45,
          "name": "A2",
          "velocity": 1,
          "duration": 0.09062499999998863,
          "ticks": 56910,
          "durationTicks": 29
        },
        {
          "time": 182.4375,
          "midi": 45,
          "name": "A2",
          "velocity": 1,
          "duration": 0.09062499999998863,
          "ticks": 56940,
          "durationTicks": 29
        },
        {
          "time": 182.53125,
          "midi": 45,
          "name": "A2",
          "velocity": 1,
          "duration": 0.09062499999998863,
          "ticks": 56970,
          "durationTicks": 29
        },
        {
          "time": 182.625,
          "midi": 45,
          "name": "A2",
          "velocity": 1,
          "duration": 0.09062499999998863,
          "ticks": 57000,
          "durationTicks": 29
        },
        {
          "time": 182.71875,
          "midi": 45,
          "name": "A2",
          "velocity": 1,
          "duration": 0.09062499999998863,
          "ticks": 57030,
          "durationTicks": 29
        },
        {
          "time": 182.8125,
          "midi": 45,
          "name": "A2",
          "velocity": 1,
          "duration": 0.09062499999998863,
          "ticks": 57060,
          "durationTicks": 29
        },
        {
          "time": 182.90625,
          "midi": 45,
          "name": "A2",
          "velocity": 1,
          "duration": 0.09062499999998863,
          "ticks": 57090,
          "durationTicks": 29
        },
        {
          "time": 183,
          "midi": 45,
          "name": "A2",
          "velocity": 1,
          "duration": 0.09062499999998863,
          "ticks": 57120,
          "durationTicks": 29
        },
        {
          "time": 183.09375,
          "midi": 45,
          "name": "A2",
          "velocity": 1,
          "duration": 0.09062499999998863,
          "ticks": 57150,
          "durationTicks": 29
        },
        {
          "time": 183.1875,
          "midi": 45,
          "name": "A2",
          "velocity": 1,
          "duration": 0.09062499999998863,
          "ticks": 57180,
          "durationTicks": 29
        },
        {
          "time": 183.28125,
          "midi": 45,
          "name": "A2",
          "velocity": 1,
          "duration": 0.09062499999998863,
          "ticks": 57210,
          "durationTicks": 29
        },
        {
          "time": 183.375,
          "midi": 45,
          "name": "A2",
          "velocity": 1,
          "duration": 0.09062499999998863,
          "ticks": 57240,
          "durationTicks": 29
        },
        {
          "time": 183.46875,
          "midi": 50,
          "name": "D3",
          "velocity": 1,
          "duration": 0.09062499999998863,
          "ticks": 57270,
          "durationTicks": 29
        },
        {
          "time": 183.5625,
          "midi": 50,
          "name": "D3",
          "velocity": 1,
          "duration": 0.09062499999998863,
          "ticks": 57300,
          "durationTicks": 29
        },
        {
          "time": 183.65625,
          "midi": 50,
          "name": "D3",
          "velocity": 1,
          "duration": 0.09062499999998863,
          "ticks": 57330,
          "durationTicks": 29
        },
        {
          "time": 183.75,
          "midi": 50,
          "name": "D3",
          "velocity": 1,
          "duration": 0.09062499999998863,
          "ticks": 57360,
          "durationTicks": 29
        },
        {
          "time": 183.84375,
          "midi": 50,
          "name": "D3",
          "velocity": 1,
          "duration": 0.09062499999998863,
          "ticks": 57390,
          "durationTicks": 29
        },
        {
          "time": 183.9375,
          "midi": 50,
          "name": "D3",
          "velocity": 1,
          "duration": 0.09062499999998863,
          "ticks": 57420,
          "durationTicks": 29
        },
        {
          "time": 184.03125,
          "midi": 50,
          "name": "D3",
          "velocity": 1,
          "duration": 0.09062499999998863,
          "ticks": 57450,
          "durationTicks": 29
        },
        {
          "time": 184.125,
          "midi": 50,
          "name": "D3",
          "velocity": 1,
          "duration": 0.09062499999998863,
          "ticks": 57480,
          "durationTicks": 29
        },
        {
          "time": 184.21875,
          "midi": 50,
          "name": "D3",
          "velocity": 1,
          "duration": 0.09062499999998863,
          "ticks": 57510,
          "durationTicks": 29
        },
        {
          "time": 184.3125,
          "midi": 50,
          "name": "D3",
          "velocity": 1,
          "duration": 0.09062499999998863,
          "ticks": 57540,
          "durationTicks": 29
        },
        {
          "time": 184.40625,
          "midi": 50,
          "name": "D3",
          "velocity": 1,
          "duration": 0.09062499999998863,
          "ticks": 57570,
          "durationTicks": 29
        },
        {
          "time": 184.5,
          "midi": 50,
          "name": "D3",
          "velocity": 1,
          "duration": 0.09062499999998863,
          "ticks": 57600,
          "durationTicks": 29
        },
        {
          "time": 184.59375,
          "midi": 50,
          "name": "D3",
          "velocity": 1,
          "duration": 0.09062499999998863,
          "ticks": 57630,
          "durationTicks": 29
        },
        {
          "time": 184.6875,
          "midi": 50,
          "name": "D3",
          "velocity": 1,
          "duration": 0.09062499999998863,
          "ticks": 57660,
          "durationTicks": 29
        },
        {
          "time": 184.78125,
          "midi": 50,
          "name": "D3",
          "velocity": 1,
          "duration": 0.09062499999998863,
          "ticks": 57690,
          "durationTicks": 29
        },
        {
          "time": 184.875,
          "midi": 50,
          "name": "D3",
          "velocity": 1,
          "duration": 0.09062499999998863,
          "ticks": 57720,
          "durationTicks": 29
        },
        {
          "time": 184.96875,
          "midi": 50,
          "name": "D3",
          "velocity": 1,
          "duration": 0.09062499999998863,
          "ticks": 57750,
          "durationTicks": 29
        },
        {
          "time": 185.0625,
          "midi": 50,
          "name": "D3",
          "velocity": 1,
          "duration": 0.09062499999998863,
          "ticks": 57780,
          "durationTicks": 29
        },
        {
          "time": 185.15625,
          "midi": 50,
          "name": "D3",
          "velocity": 1,
          "duration": 0.09062499999998863,
          "ticks": 57810,
          "durationTicks": 29
        },
        {
          "time": 185.25,
          "midi": 50,
          "name": "D3",
          "velocity": 1,
          "duration": 0.09062499999998863,
          "ticks": 57840,
          "durationTicks": 29
        },
        {
          "time": 185.34375,
          "midi": 50,
          "name": "D3",
          "velocity": 1,
          "duration": 0.09062499999998863,
          "ticks": 57870,
          "durationTicks": 29
        },
        {
          "time": 185.4375,
          "midi": 50,
          "name": "D3",
          "velocity": 1,
          "duration": 0.09062499999998863,
          "ticks": 57900,
          "durationTicks": 29
        },
        {
          "time": 185.53125,
          "midi": 50,
          "name": "D3",
          "velocity": 1,
          "duration": 0.09062499999998863,
          "ticks": 57930,
          "durationTicks": 29
        },
        {
          "time": 185.625,
          "midi": 50,
          "name": "D3",
          "velocity": 1,
          "duration": 0.09062499999998863,
          "ticks": 57960,
          "durationTicks": 29
        },
        {
          "time": 185.71875,
          "midi": 50,
          "name": "D3",
          "velocity": 1,
          "duration": 0.09062499999998863,
          "ticks": 57990,
          "durationTicks": 29
        },
        {
          "time": 185.8125,
          "midi": 50,
          "name": "D3",
          "velocity": 1,
          "duration": 0.09062499999998863,
          "ticks": 58020,
          "durationTicks": 29
        },
        {
          "time": 185.90625,
          "midi": 50,
          "name": "D3",
          "velocity": 1,
          "duration": 0.09062499999998863,
          "ticks": 58050,
          "durationTicks": 29
        },
        {
          "time": 186,
          "midi": 50,
          "name": "D3",
          "velocity": 1,
          "duration": 0.09062499999998863,
          "ticks": 58080,
          "durationTicks": 29
        },
        {
          "time": 186.09375,
          "midi": 50,
          "name": "D3",
          "velocity": 1,
          "duration": 0.09062499999998863,
          "ticks": 58110,
          "durationTicks": 29
        },
        {
          "time": 186.1875,
          "midi": 50,
          "name": "D3",
          "velocity": 1,
          "duration": 0.09062499999998863,
          "ticks": 58140,
          "durationTicks": 29
        },
        {
          "time": 186.28125,
          "midi": 50,
          "name": "D3",
          "velocity": 1,
          "duration": 0.09062499999998863,
          "ticks": 58170,
          "durationTicks": 29
        },
        {
          "time": 186.375,
          "midi": 50,
          "name": "D3",
          "velocity": 1,
          "duration": 0.09062499999998863,
          "ticks": 58200,
          "durationTicks": 29
        },
        {
          "time": 186.46875,
          "midi": 50,
          "name": "D3",
          "velocity": 1,
          "duration": 0.09062499999998863,
          "ticks": 58230,
          "durationTicks": 29
        },
        {
          "time": 186.5625,
          "midi": 50,
          "name": "D3",
          "velocity": 1,
          "duration": 0.09062499999998863,
          "ticks": 58260,
          "durationTicks": 29
        },
        {
          "time": 186.65625,
          "midi": 50,
          "name": "D3",
          "velocity": 1,
          "duration": 0.09062499999998863,
          "ticks": 58290,
          "durationTicks": 29
        },
        {
          "time": 186.75,
          "midi": 50,
          "name": "D3",
          "velocity": 1,
          "duration": 0.09062499999998863,
          "ticks": 58320,
          "durationTicks": 29
        },
        {
          "time": 186.84375,
          "midi": 50,
          "name": "D3",
          "velocity": 1,
          "duration": 0.09062499999998863,
          "ticks": 58350,
          "durationTicks": 29
        },
        {
          "time": 186.9375,
          "midi": 50,
          "name": "D3",
          "velocity": 1,
          "duration": 0.09062499999998863,
          "ticks": 58380,
          "durationTicks": 29
        },
        {
          "time": 187.03125,
          "midi": 50,
          "name": "D3",
          "velocity": 1,
          "duration": 0.09062499999998863,
          "ticks": 58410,
          "durationTicks": 29
        },
        {
          "time": 187.125,
          "midi": 50,
          "name": "D3",
          "velocity": 1,
          "duration": 0.09062499999998863,
          "ticks": 58440,
          "durationTicks": 29
        },
        {
          "time": 187.21875,
          "midi": 50,
          "name": "D3",
          "velocity": 1,
          "duration": 0.09062499999998863,
          "ticks": 58470,
          "durationTicks": 29
        },
        {
          "time": 187.3125,
          "midi": 50,
          "name": "D3",
          "velocity": 1,
          "duration": 0.09062499999998863,
          "ticks": 58500,
          "durationTicks": 29
        },
        {
          "time": 187.40625,
          "midi": 50,
          "name": "D3",
          "velocity": 1,
          "duration": 0.09062499999998863,
          "ticks": 58530,
          "durationTicks": 29
        },
        {
          "time": 187.5,
          "midi": 50,
          "name": "D3",
          "velocity": 1,
          "duration": 0.09062499999998863,
          "ticks": 58560,
          "durationTicks": 29
        },
        {
          "time": 187.59375,
          "midi": 50,
          "name": "D3",
          "velocity": 1,
          "duration": 0.09062499999998863,
          "ticks": 58590,
          "durationTicks": 29
        },
        {
          "time": 187.6875,
          "midi": 50,
          "name": "D3",
          "velocity": 1,
          "duration": 0.09062499999998863,
          "ticks": 58620,
          "durationTicks": 29
        },
        {
          "time": 187.78125,
          "midi": 50,
          "name": "D3",
          "velocity": 1,
          "duration": 0.09062499999998863,
          "ticks": 58650,
          "durationTicks": 29
        },
        {
          "time": 187.875,
          "midi": 50,
          "name": "D3",
          "velocity": 1,
          "duration": 0.18437499999998863,
          "ticks": 58680,
          "durationTicks": 59
        },
        {
          "time": 188.25,
          "midi": 45,
          "name": "A2",
          "velocity": 1,
          "duration": 0.18437499999998863,
          "ticks": 58800,
          "durationTicks": 59
        },
        {
          "time": 206.571411,
          "midi": 45,
          "name": "A2",
          "velocity": 1,
          "duration": 0.2107140749999985,
          "ticks": 63960,
          "durationTicks": 59
        },
        {
          "time": 206.999982,
          "midi": 50,
          "name": "D3",
          "velocity": 1,
          "duration": 0.2107140749999985,
          "ticks": 64080,
          "durationTicks": 59
        },
        {
          "time": 207.2142675,
          "midi": 50,
          "name": "D3",
          "velocity": 1,
          "duration": 0.2107140749999985,
          "ticks": 64140,
          "durationTicks": 59
        },
        {
          "time": 207.428553,
          "midi": 50,
          "name": "D3",
          "velocity": 1,
          "duration": 0.4249995750000153,
          "ticks": 64200,
          "durationTicks": 119
        },
        {
          "time": 212.892834,
          "midi": 50,
          "name": "D3",
          "velocity": 1,
          "duration": 0.3687500000000057,
          "ticks": 65640,
          "durationTicks": 59
        },
        {
          "time": 213.642834,
          "midi": 50,
          "name": "D3",
          "velocity": 1,
          "duration": 0.3687500000000057,
          "ticks": 65760,
          "durationTicks": 59
        },
        {
          "time": 218.142834,
          "midi": 45,
          "name": "A2",
          "velocity": 1,
          "duration": 0.3687500000000057,
          "ticks": 66480,
          "durationTicks": 59
        },
        {
          "time": 248.892834,
          "midi": 45,
          "name": "A2",
          "velocity": 1,
          "duration": 0.37187499999998863,
          "ticks": 76200,
          "durationTicks": 119
        },
        {
          "time": 250.392834,
          "midi": 45,
          "name": "A2",
          "velocity": 1,
          "duration": 0.37187499999998863,
          "ticks": 76680,
          "durationTicks": 119
        },
        {
          "time": 251.892834,
          "midi": 45,
          "name": "A2",
          "velocity": 1,
          "duration": 0.37187499999998863,
          "ticks": 77160,
          "durationTicks": 119
        },
        {
          "time": 252.642834,
          "midi": 45,
          "name": "A2",
          "velocity": 1,
          "duration": 0.37187499999998863,
          "ticks": 77400,
          "durationTicks": 119
        },
        {
          "time": 253.017834,
          "midi": 45,
          "name": "A2",
          "velocity": 1,
          "duration": 0.37187499999998863,
          "ticks": 77520,
          "durationTicks": 119
        },
        {
          "time": 253.392834,
          "midi": 45,
          "name": "A2",
          "velocity": 1,
          "duration": 0.37187499999998863,
          "ticks": 77640,
          "durationTicks": 119
        },
        {
          "time": 253.767834,
          "midi": 45,
          "name": "A2",
          "velocity": 1,
          "duration": 0.37187499999998863,
          "ticks": 77760,
          "durationTicks": 119
        },
        {
          "time": 254.142834,
          "midi": 45,
          "name": "A2",
          "velocity": 1,
          "duration": 0.37187499999998863,
          "ticks": 77880,
          "durationTicks": 119
        },
        {
          "time": 254.705334,
          "midi": 45,
          "name": "A2",
          "velocity": 1,
          "duration": 0.18437499999998863,
          "ticks": 78060,
          "durationTicks": 59
        },
        {
          "time": 254.892834,
          "midi": 45,
          "name": "A2",
          "velocity": 1,
          "duration": 0.37187499999998863,
          "ticks": 78120,
          "durationTicks": 119
        },
        {
          "time": 255.455334,
          "midi": 45,
          "name": "A2",
          "velocity": 1,
          "duration": 0.18437499999998863,
          "ticks": 78300,
          "durationTicks": 59
        },
        {
          "time": 255.642834,
          "midi": 45,
          "name": "A2",
          "velocity": 1,
          "duration": 0.37187499999998863,
          "ticks": 78360,
          "durationTicks": 119
        },
        {
          "time": 256.205334,
          "midi": 45,
          "name": "A2",
          "velocity": 1,
          "duration": 0.18437499999998863,
          "ticks": 78540,
          "durationTicks": 59
        },
        {
          "time": 256.392834,
          "midi": 45,
          "name": "A2",
          "velocity": 1,
          "duration": 0.37187499999998863,
          "ticks": 78600,
          "durationTicks": 119
        },
        {
          "time": 256.955334,
          "midi": 45,
          "name": "A2",
          "velocity": 1,
          "duration": 0.18437499999998863,
          "ticks": 78780,
          "durationTicks": 59
        },
        {
          "time": 257.142834,
          "midi": 45,
          "name": "A2",
          "velocity": 1,
          "duration": 0.37187499999998863,
          "ticks": 78840,
          "durationTicks": 119
        },
        {
          "time": 257.705334,
          "midi": 45,
          "name": "A2",
          "velocity": 1,
          "duration": 0.18437499999998863,
          "ticks": 79020,
          "durationTicks": 59
        },
        {
          "time": 257.892834,
          "midi": 45,
          "name": "A2",
          "velocity": 1,
          "duration": 0.37187499999998863,
          "ticks": 79080,
          "durationTicks": 119
        },
        {
          "time": 258.455334,
          "midi": 50,
          "name": "D3",
          "velocity": 1,
          "duration": 0.18437499999998863,
          "ticks": 79260,
          "durationTicks": 59
        },
        {
          "time": 258.642834,
          "midi": 50,
          "name": "D3",
          "velocity": 1,
          "duration": 0.37187499999998863,
          "ticks": 79320,
          "durationTicks": 119
        },
        {
          "time": 259.205334,
          "midi": 50,
          "name": "D3",
          "velocity": 1,
          "duration": 0.18437499999998863,
          "ticks": 79500,
          "durationTicks": 59
        },
        {
          "time": 259.392834,
          "midi": 45,
          "name": "A2",
          "velocity": 1,
          "duration": 0.37187499999998863,
          "ticks": 79560,
          "durationTicks": 119
        },
        {
          "time": 259.955334,
          "midi": 50,
          "name": "D3",
          "velocity": 1,
          "duration": 0.18437499999998863,
          "ticks": 79740,
          "durationTicks": 59
        },
        {
          "time": 260.142834,
          "midi": 50,
          "name": "D3",
          "velocity": 1,
          "duration": 0.37187499999998863,
          "ticks": 79800,
          "durationTicks": 119
        },
        {
          "time": 260.705334,
          "midi": 45,
          "name": "A2",
          "velocity": 1,
          "duration": 0.18437499999998863,
          "ticks": 79980,
          "durationTicks": 59
        },
        {
          "time": 260.892834,
          "midi": 45,
          "name": "A2",
          "velocity": 1,
          "duration": 0.37187499999998863,
          "ticks": 80040,
          "durationTicks": 119
        },
        {
          "time": 261.455334,
          "midi": 50,
          "name": "D3",
          "velocity": 1,
          "duration": 0.18437499999998863,
          "ticks": 80220,
          "durationTicks": 59
        },
        {
          "time": 261.642834,
          "midi": 50,
          "name": "D3",
          "velocity": 1,
          "duration": 0.37187499999998863,
          "ticks": 80280,
          "durationTicks": 119
        },
        {
          "time": 262.205334,
          "midi": 50,
          "name": "D3",
          "velocity": 1,
          "duration": 0.18437499999998863,
          "ticks": 80460,
          "durationTicks": 59
        },
        {
          "time": 262.392834,
          "midi": 50,
          "name": "D3",
          "velocity": 1,
          "duration": 0.37187499999998863,
          "ticks": 80520,
          "durationTicks": 119
        },
        {
          "time": 262.955334,
          "midi": 50,
          "name": "D3",
          "velocity": 1,
          "duration": 0.18437499999998863,
          "ticks": 80700,
          "durationTicks": 59
        },
        {
          "time": 263.142834,
          "midi": 50,
          "name": "D3",
          "velocity": 1,
          "duration": 0.37187499999998863,
          "ticks": 80760,
          "durationTicks": 119
        },
        {
          "time": 263.892834,
          "midi": 45,
          "name": "A2",
          "velocity": 1,
          "duration": 0.37187499999998863,
          "ticks": 81000,
          "durationTicks": 119
        },
        {
          "time": 264.455334,
          "midi": 45,
          "name": "A2",
          "velocity": 1,
          "duration": 0.18437499999998863,
          "ticks": 81180,
          "durationTicks": 59
        },
        {
          "time": 264.642834,
          "midi": 45,
          "name": "A2",
          "velocity": 1,
          "duration": 0.37187499999998863,
          "ticks": 81240,
          "durationTicks": 119
        },
        {
          "time": 265.205334,
          "midi": 45,
          "name": "A2",
          "velocity": 1,
          "duration": 0.18437499999998863,
          "ticks": 81420,
          "durationTicks": 59
        },
        {
          "time": 265.392834,
          "midi": 50,
          "name": "D3",
          "velocity": 1,
          "duration": 0.37187499999998863,
          "ticks": 81480,
          "durationTicks": 119
        },
        {
          "time": 265.955334,
          "midi": 45,
          "name": "A2",
          "velocity": 1,
          "duration": 0.18437499999998863,
          "ticks": 81660,
          "durationTicks": 59
        },
        {
          "time": 266.142834,
          "midi": 50,
          "name": "D3",
          "velocity": 1,
          "duration": 0.37187499999998863,
          "ticks": 81720,
          "durationTicks": 119
        },
        {
          "time": 290.892834,
          "midi": 45,
          "name": "A2",
          "velocity": 1,
          "duration": 0.37187499999998863,
          "ticks": 89640,
          "durationTicks": 119
        },
        {
          "time": 292.017834,
          "midi": 45,
          "name": "A2",
          "velocity": 1,
          "duration": 0.18437499999998863,
          "ticks": 90000,
          "durationTicks": 59
        },
        {
          "time": 292.205334,
          "midi": 45,
          "name": "A2",
          "velocity": 1,
          "duration": 0.18437499999998863,
          "ticks": 90060,
          "durationTicks": 59
        },
        {
          "time": 292.392834,
          "midi": 45,
          "name": "A2",
          "velocity": 1,
          "duration": 0.37187499999998863,
          "ticks": 90120,
          "durationTicks": 119
        },
        {
          "time": 293.517834,
          "midi": 45,
          "name": "A2",
          "velocity": 1,
          "duration": 0.18437499999998863,
          "ticks": 90480,
          "durationTicks": 59
        },
        {
          "time": 293.705334,
          "midi": 45,
          "name": "A2",
          "velocity": 1,
          "duration": 0.18437499999998863,
          "ticks": 90540,
          "durationTicks": 59
        },
        {
          "time": 293.892834,
          "midi": 45,
          "name": "A2",
          "velocity": 1,
          "duration": 0.37187499999998863,
          "ticks": 90600,
          "durationTicks": 119
        },
        {
          "time": 296.142834,
          "midi": 45,
          "name": "A2",
          "velocity": 1,
          "duration": 0.37187499999998863,
          "ticks": 91320,
          "durationTicks": 119
        },
        {
          "time": 296.517834,
          "midi": 45,
          "name": "A2",
          "velocity": 1,
          "duration": 0.18437499999998863,
          "ticks": 91440,
          "durationTicks": 59
        },
        {
          "time": 296.705334,
          "midi": 45,
          "name": "A2",
          "velocity": 1,
          "duration": 0.18437499999998863,
          "ticks": 91500,
          "durationTicks": 59
        },
        {
          "time": 296.892834,
          "midi": 50,
          "name": "D3",
          "velocity": 1,
          "duration": 0.37187499999998863,
          "ticks": 91560,
          "durationTicks": 119
        },
        {
          "time": 298.017834,
          "midi": 50,
          "name": "D3",
          "velocity": 1,
          "duration": 0.37187499999998863,
          "ticks": 91920,
          "durationTicks": 119
        },
        {
          "time": 298.392834,
          "midi": 45,
          "name": "A2",
          "velocity": 1,
          "duration": 0.37187499999998863,
          "ticks": 92040,
          "durationTicks": 119
        },
        {
          "time": 299.517834,
          "midi": 45,
          "name": "A2",
          "velocity": 1,
          "duration": 0.18437499999998863,
          "ticks": 92400,
          "durationTicks": 59
        },
        {
          "time": 299.705334,
          "midi": 45,
          "name": "A2",
          "velocity": 1,
          "duration": 0.18437499999998863,
          "ticks": 92460,
          "durationTicks": 59
        },
        {
          "time": 299.892834,
          "midi": 45,
          "name": "A2",
          "velocity": 0.6929133858267716,
          "duration": 0.37187499999998863,
          "ticks": 92520,
          "durationTicks": 119
        },
        {
          "time": 301.017834,
          "midi": 45,
          "name": "A2",
          "velocity": 0.6535433070866141,
          "duration": 0.18437499999998863,
          "ticks": 92880,
          "durationTicks": 59
        },
        {
          "time": 301.205334,
          "midi": 45,
          "name": "A2",
          "velocity": 0.6062992125984252,
          "duration": 0.18437499999998863,
          "ticks": 92940,
          "durationTicks": 59
        },
        {
          "time": 301.392834,
          "midi": 45,
          "name": "A2",
          "velocity": 0.6377952755905512,
          "duration": 0.37187499999998863,
          "ticks": 93000,
          "durationTicks": 119
        },
        {
          "time": 301.955334,
          "midi": 45,
          "name": "A2",
          "velocity": 0.5511811023622047,
          "duration": 0.18437499999998863,
          "ticks": 93180,
          "durationTicks": 59
        },
        {
          "time": 302.142834,
          "midi": 50,
          "name": "D3",
          "velocity": 0.7244094488188977,
          "duration": 0.37187499999998863,
          "ticks": 93240,
          "durationTicks": 119
        },
        {
          "time": 302.892834,
          "midi": 50,
          "name": "D3",
          "velocity": 0.5905511811023622,
          "duration": 0.37187499999998863,
          "ticks": 93480,
          "durationTicks": 119
        },
        {
          "time": 304.017834,
          "midi": 50,
          "name": "D3",
          "velocity": 0.4094488188976378,
          "duration": 0.18437499999998863,
          "ticks": 93840,
          "durationTicks": 59
        },
        {
          "time": 304.205334,
          "midi": 50,
          "name": "D3",
          "velocity": 0.4409448818897638,
          "duration": 0.18437499999998863,
          "ticks": 93900,
          "durationTicks": 59
        },
        {
          "time": 304.392834,
          "midi": 50,
          "name": "D3",
          "velocity": 1,
          "duration": 0.37187499999998863,
          "ticks": 93960,
          "durationTicks": 119
        },
        {
          "time": 305.517834,
          "midi": 50,
          "name": "D3",
          "velocity": 1,
          "duration": 0.18437499999998863,
          "ticks": 94320,
          "durationTicks": 59
        },
        {
          "time": 305.705334,
          "midi": 50,
          "name": "D3",
          "velocity": 1,
          "duration": 0.18437499999998863,
          "ticks": 94380,
          "durationTicks": 59
        },
        {
          "time": 305.892834,
          "midi": 45,
          "name": "A2",
          "velocity": 1,
          "duration": 0.37187499999998863,
          "ticks": 94440,
          "durationTicks": 119
        },
        {
          "time": 307.017834,
          "midi": 45,
          "name": "A2",
          "velocity": 1,
          "duration": 0.18437499999998863,
          "ticks": 94800,
          "durationTicks": 59
        },
        {
          "time": 307.205334,
          "midi": 45,
          "name": "A2",
          "velocity": 1,
          "duration": 0.18437499999998863,
          "ticks": 94860,
          "durationTicks": 59
        },
        {
          "time": 307.392834,
          "midi": 50,
          "name": "D3",
          "velocity": 1,
          "duration": 0.18437499999998863,
          "ticks": 94920,
          "durationTicks": 59
        },
        {
          "time": 307.767834,
          "midi": 45,
          "name": "A2",
          "velocity": 1,
          "duration": 0.18437499999998863,
          "ticks": 95040,
          "durationTicks": 59
        },
        {
          "time": 308.142834,
          "midi": 50,
          "name": "D3",
          "velocity": 1,
          "duration": 0.18437499999998863,
          "ticks": 95160,
          "durationTicks": 59
        },
        {
          "time": 320.517834,
          "midi": 45,
          "name": "A2",
          "velocity": 1,
          "duration": 0.37187499999998863,
          "ticks": 99120,
          "durationTicks": 119
        },
        {
          "time": 320.892834,
          "midi": 45,
          "name": "A2",
          "velocity": 1,
          "duration": 0.18437499999998863,
          "ticks": 99240,
          "durationTicks": 59
        },
        {
          "time": 321.267834,
          "midi": 45,
          "name": "A2",
          "velocity": 0.8503937007874016,
          "duration": 0.18437499999998863,
          "ticks": 99360,
          "durationTicks": 59
        },
        {
          "time": 321.642834,
          "midi": 45,
          "name": "A2",
          "velocity": 0.8267716535433071,
          "duration": 0.18437499999998863,
          "ticks": 99480,
          "durationTicks": 59
        },
        {
          "time": 322.017834,
          "midi": 45,
          "name": "A2",
          "velocity": 0.8503937007874016,
          "duration": 0.18437499999998863,
          "ticks": 99600,
          "durationTicks": 59
        },
        {
          "time": 322.392834,
          "midi": 45,
          "name": "A2",
          "velocity": 0.8818897637795275,
          "duration": 0.18437499999998863,
          "ticks": 99720,
          "durationTicks": 59
        },
        {
          "time": 322.767834,
          "midi": 45,
          "name": "A2",
          "velocity": 0.8818897637795275,
          "duration": 0.18437499999998863,
          "ticks": 99840,
          "durationTicks": 59
        },
        {
          "time": 323.142834,
          "midi": 45,
          "name": "A2",
          "velocity": 0.8818897637795275,
          "duration": 0.18437499999998863,
          "ticks": 99960,
          "durationTicks": 59
        },
        {
          "time": 323.517834,
          "midi": 45,
          "name": "A2",
          "velocity": 0.9763779527559056,
          "duration": 0.18437499999998863,
          "ticks": 100080,
          "durationTicks": 59
        },
        {
          "time": 323.889709,
          "midi": 45,
          "name": "A2",
          "velocity": 1,
          "duration": 0.18437499999998863,
          "ticks": 100199,
          "durationTicks": 59
        },
        {
          "time": 324.264709,
          "midi": 45,
          "name": "A2",
          "velocity": 1,
          "duration": 0.18437499999998863,
          "ticks": 100319,
          "durationTicks": 59
        },
        {
          "time": 324.639709,
          "midi": 45,
          "name": "A2",
          "velocity": 1,
          "duration": 0.18437499999998863,
          "ticks": 100439,
          "durationTicks": 59
        },
        {
          "time": 325.014709,
          "midi": 45,
          "name": "A2",
          "velocity": 0.9763779527559056,
          "duration": 0.18437499999998863,
          "ticks": 100559,
          "durationTicks": 59
        },
        {
          "time": 325.389709,
          "midi": 45,
          "name": "A2",
          "velocity": 1,
          "duration": 0.18437499999998863,
          "ticks": 100679,
          "durationTicks": 59
        },
        {
          "time": 325.764709,
          "midi": 45,
          "name": "A2",
          "velocity": 0.937007874015748,
          "duration": 0.18437499999998863,
          "ticks": 100799,
          "durationTicks": 59
        },
        {
          "time": 326.139709,
          "midi": 45,
          "name": "A2",
          "velocity": 1,
          "duration": 0.18437499999998863,
          "ticks": 100919,
          "durationTicks": 59
        },
        {
          "time": 326.514709,
          "midi": 45,
          "name": "A2",
          "velocity": 1,
          "duration": 0.18437499999998863,
          "ticks": 101039,
          "durationTicks": 59
        },
        {
          "time": 326.889709,
          "midi": 45,
          "name": "A2",
          "velocity": 1,
          "duration": 0.18437499999998863,
          "ticks": 101159,
          "durationTicks": 59
        },
        {
          "time": 327.264709,
          "midi": 45,
          "name": "A2",
          "velocity": 1,
          "duration": 0.18437499999998863,
          "ticks": 101279,
          "durationTicks": 59
        },
        {
          "time": 327.639709,
          "midi": 45,
          "name": "A2",
          "velocity": 1,
          "duration": 0.18437499999998863,
          "ticks": 101399,
          "durationTicks": 59
        },
        {
          "time": 328.014709,
          "midi": 45,
          "name": "A2",
          "velocity": 1,
          "duration": 0.18437499999998863,
          "ticks": 101519,
          "durationTicks": 59
        },
        {
          "time": 328.389709,
          "midi": 45,
          "name": "A2",
          "velocity": 1,
          "duration": 0.18437499999998863,
          "ticks": 101639,
          "durationTicks": 59
        },
        {
          "time": 328.764709,
          "midi": 45,
          "name": "A2",
          "velocity": 1,
          "duration": 0.18437499999998863,
          "ticks": 101759,
          "durationTicks": 59
        },
        {
          "time": 329.139709,
          "midi": 45,
          "name": "A2",
          "velocity": 1,
          "duration": 0.18437499999998863,
          "ticks": 101879,
          "durationTicks": 59
        },
        {
          "time": 329.514709,
          "midi": 45,
          "name": "A2",
          "velocity": 1,
          "duration": 0.18437499999998863,
          "ticks": 101999,
          "durationTicks": 59
        },
        {
          "time": 329.889709,
          "midi": 45,
          "name": "A2",
          "velocity": 1,
          "duration": 0.18437499999998863,
          "ticks": 102119,
          "durationTicks": 59
        },
        {
          "time": 330.264709,
          "midi": 45,
          "name": "A2",
          "velocity": 1,
          "duration": 0.18437499999998863,
          "ticks": 102239,
          "durationTicks": 59
        },
        {
          "time": 330.639709,
          "midi": 45,
          "name": "A2",
          "velocity": 1,
          "duration": 0.18437499999998863,
          "ticks": 102359,
          "durationTicks": 59
        },
        {
          "time": 331.014709,
          "midi": 45,
          "name": "A2",
          "velocity": 1,
          "duration": 0.18437499999998863,
          "ticks": 102479,
          "durationTicks": 59
        },
        {
          "time": 331.392834,
          "midi": 45,
          "name": "A2",
          "velocity": 1,
          "duration": 0.37187499999998863,
          "ticks": 102600,
          "durationTicks": 119
        },
        {
          "time": 332.517834,
          "midi": 45,
          "name": "A2",
          "velocity": 1,
          "duration": 0.37187499999998863,
          "ticks": 102960,
          "durationTicks": 119
        },
        {
          "time": 332.892834,
          "midi": 45,
          "name": "A2",
          "velocity": 1,
          "duration": 0.18437499999998863,
          "ticks": 103080,
          "durationTicks": 59
        },
        {
          "time": 333.267834,
          "midi": 45,
          "name": "A2",
          "velocity": 1,
          "duration": 0.18437499999998863,
          "ticks": 103200,
          "durationTicks": 59
        },
        {
          "time": 333.642834,
          "midi": 45,
          "name": "A2",
          "velocity": 1,
          "duration": 0.18437499999998863,
          "ticks": 103320,
          "durationTicks": 59
        },
        {
          "time": 334.017834,
          "midi": 45,
          "name": "A2",
          "velocity": 1,
          "duration": 0.18437499999998863,
          "ticks": 103440,
          "durationTicks": 59
        },
        {
          "time": 334.392834,
          "midi": 45,
          "name": "A2",
          "velocity": 1,
          "duration": 0.18437499999998863,
          "ticks": 103560,
          "durationTicks": 59
        },
        {
          "time": 334.767834,
          "midi": 45,
          "name": "A2",
          "velocity": 1,
          "duration": 0.18437499999998863,
          "ticks": 103680,
          "durationTicks": 59
        },
        {
          "time": 335.142834,
          "midi": 45,
          "name": "A2",
          "velocity": 1,
          "duration": 0.18437499999998863,
          "ticks": 103800,
          "durationTicks": 59
        },
        {
          "time": 335.517834,
          "midi": 45,
          "name": "A2",
          "velocity": 1,
          "duration": 0.18437499999998863,
          "ticks": 103920,
          "durationTicks": 59
        },
        {
          "time": 335.892834,
          "midi": 45,
          "name": "A2",
          "velocity": 1,
          "duration": 0.18437499999998863,
          "ticks": 104040,
          "durationTicks": 59
        },
        {
          "time": 336.267834,
          "midi": 45,
          "name": "A2",
          "velocity": 1,
          "duration": 0.18437499999998863,
          "ticks": 104160,
          "durationTicks": 59
        },
        {
          "time": 336.642834,
          "midi": 45,
          "name": "A2",
          "velocity": 1,
          "duration": 0.18437499999998863,
          "ticks": 104280,
          "durationTicks": 59
        },
        {
          "time": 337.017834,
          "midi": 45,
          "name": "A2",
          "velocity": 1,
          "duration": 0.18437499999998863,
          "ticks": 104400,
          "durationTicks": 59
        },
        {
          "time": 337.392834,
          "midi": 45,
          "name": "A2",
          "velocity": 1,
          "duration": 0.18437499999998863,
          "ticks": 104520,
          "durationTicks": 59
        },
        {
          "time": 337.767834,
          "midi": 45,
          "name": "A2",
          "velocity": 1,
          "duration": 0.18437499999998863,
          "ticks": 104640,
          "durationTicks": 59
        },
        {
          "time": 338.142834,
          "midi": 45,
          "name": "A2",
          "velocity": 1,
          "duration": 0.18437499999998863,
          "ticks": 104760,
          "durationTicks": 59
        },
        {
          "time": 338.517834,
          "midi": 45,
          "name": "A2",
          "velocity": 1,
          "duration": 0.18437499999998863,
          "ticks": 104880,
          "durationTicks": 59
        },
        {
          "time": 338.892834,
          "midi": 45,
          "name": "A2",
          "velocity": 1,
          "duration": 0.18437499999998863,
          "ticks": 105000,
          "durationTicks": 59
        },
        {
          "time": 339.267834,
          "midi": 45,
          "name": "A2",
          "velocity": 1,
          "duration": 0.18437499999998863,
          "ticks": 105120,
          "durationTicks": 59
        },
        {
          "time": 339.642834,
          "midi": 45,
          "name": "A2",
          "velocity": 1,
          "duration": 0.18437499999998863,
          "ticks": 105240,
          "durationTicks": 59
        },
        {
          "time": 340.017834,
          "midi": 45,
          "name": "A2",
          "velocity": 1,
          "duration": 0.18437499999998863,
          "ticks": 105360,
          "durationTicks": 59
        },
        {
          "time": 340.392834,
          "midi": 45,
          "name": "A2",
          "velocity": 1,
          "duration": 0.37187499999998863,
          "ticks": 105480,
          "durationTicks": 119
        },
        {
          "time": 340.767834,
          "midi": 45,
          "name": "A2",
          "velocity": 1,
          "duration": 0.37187499999998863,
          "ticks": 105600,
          "durationTicks": 119
        },
        {
          "time": 341.142834,
          "midi": 45,
          "name": "A2",
          "velocity": 1,
          "duration": 0.37187499999998863,
          "ticks": 105720,
          "durationTicks": 119
        },
        {
          "time": 341.517834,
          "midi": 45,
          "name": "A2",
          "velocity": 1,
          "duration": 0.37187499999998863,
          "ticks": 105840,
          "durationTicks": 119
        },
        {
          "time": 341.892834,
          "midi": 45,
          "name": "A2",
          "velocity": 1,
          "duration": 0.37187499999998863,
          "ticks": 105960,
          "durationTicks": 119
        },
        {
          "time": 342.267834,
          "midi": 45,
          "name": "A2",
          "velocity": 1,
          "duration": 0.37187499999998863,
          "ticks": 106080,
          "durationTicks": 119
        },
        {
          "time": 342.642834,
          "midi": 45,
          "name": "A2",
          "velocity": 1,
          "duration": 0.37187499999998863,
          "ticks": 106200,
          "durationTicks": 119
        },
        {
          "time": 343.017834,
          "midi": 50,
          "name": "D3",
          "velocity": 1,
          "duration": 0.37187499999998863,
          "ticks": 106320,
          "durationTicks": 119
        },
        {
          "time": 343.392834,
          "midi": 50,
          "name": "D3",
          "velocity": 1,
          "duration": 0.37187499999998863,
          "ticks": 106440,
          "durationTicks": 119
        },
        {
          "time": 343.955334,
          "midi": 50,
          "name": "D3",
          "velocity": 1,
          "duration": 0.18437499999998863,
          "ticks": 106620,
          "durationTicks": 59
        },
        {
          "time": 344.142834,
          "midi": 50,
          "name": "D3",
          "velocity": 1,
          "duration": 0.37187499999998863,
          "ticks": 106680,
          "durationTicks": 119
        },
        {
          "time": 344.517834,
          "midi": 50,
          "name": "D3",
          "velocity": 1,
          "duration": 0.37187499999998863,
          "ticks": 106800,
          "durationTicks": 119
        },
        {
          "time": 344.892834,
          "midi": 50,
          "name": "D3",
          "velocity": 1,
          "duration": 0.37187499999998863,
          "ticks": 106920,
          "durationTicks": 119
        },
        {
          "time": 345.642834,
          "midi": 50,
          "name": "D3",
          "velocity": 1,
          "duration": 0.37187499999998863,
          "ticks": 107160,
          "durationTicks": 119
        },
        {
          "time": 346.392834,
          "midi": 50,
          "name": "D3",
          "velocity": 1,
          "duration": 0.37187499999998863,
          "ticks": 107400,
          "durationTicks": 119
        },
        {
          "time": 347.142834,
          "midi": 50,
          "name": "D3",
          "velocity": 1,
          "duration": 0.37187499999998863,
          "ticks": 107640,
          "durationTicks": 119
        },
        {
          "time": 347.892834,
          "midi": 45,
          "name": "A2",
          "velocity": 1,
          "duration": 0.37187499999998863,
          "ticks": 107880,
          "durationTicks": 119
        },
        {
          "time": 348.642834,
          "midi": 45,
          "name": "A2",
          "velocity": 1,
          "duration": 0.37187499999998863,
          "ticks": 108120,
          "durationTicks": 119
        },
        {
          "time": 349.392834,
          "midi": 50,
          "name": "D3",
          "velocity": 1,
          "duration": 0.37187499999998863,
          "ticks": 108360,
          "durationTicks": 119
        },
        {
          "time": 352.392834,
          "midi": 45,
          "name": "A2",
          "velocity": 1,
          "duration": 0.09062499999998863,
          "ticks": 109320,
          "durationTicks": 29
        },
        {
          "time": 352.486584,
          "midi": 45,
          "name": "A2",
          "velocity": 1,
          "duration": 0.09062499999998863,
          "ticks": 109350,
          "durationTicks": 29
        },
        {
          "time": 352.580334,
          "midi": 45,
          "name": "A2",
          "velocity": 1,
          "duration": 0.09062499999998863,
          "ticks": 109380,
          "durationTicks": 29
        },
        {
          "time": 352.674084,
          "midi": 45,
          "name": "A2",
          "velocity": 1,
          "duration": 0.09062499999998863,
          "ticks": 109410,
          "durationTicks": 29
        },
        {
          "time": 352.767834,
          "midi": 45,
          "name": "A2",
          "velocity": 1,
          "duration": 0.09062499999998863,
          "ticks": 109440,
          "durationTicks": 29
        },
        {
          "time": 352.861584,
          "midi": 45,
          "name": "A2",
          "velocity": 1,
          "duration": 0.09062499999998863,
          "ticks": 109470,
          "durationTicks": 29
        },
        {
          "time": 352.955334,
          "midi": 45,
          "name": "A2",
          "velocity": 1,
          "duration": 0.09062499999998863,
          "ticks": 109500,
          "durationTicks": 29
        },
        {
          "time": 353.049084,
          "midi": 45,
          "name": "A2",
          "velocity": 1,
          "duration": 0.09062499999998863,
          "ticks": 109530,
          "durationTicks": 29
        },
        {
          "time": 353.142834,
          "midi": 45,
          "name": "A2",
          "velocity": 1,
          "duration": 0.09062499999998863,
          "ticks": 109560,
          "durationTicks": 29
        },
        {
          "time": 353.236584,
          "midi": 45,
          "name": "A2",
          "velocity": 1,
          "duration": 0.09062499999998863,
          "ticks": 109590,
          "durationTicks": 29
        },
        {
          "time": 353.330334,
          "midi": 45,
          "name": "A2",
          "velocity": 1,
          "duration": 0.09062499999998863,
          "ticks": 109620,
          "durationTicks": 29
        },
        {
          "time": 353.424084,
          "midi": 45,
          "name": "A2",
          "velocity": 1,
          "duration": 0.09062499999998863,
          "ticks": 109650,
          "durationTicks": 29
        },
        {
          "time": 353.517834,
          "midi": 45,
          "name": "A2",
          "velocity": 1,
          "duration": 0.37187499999998863,
          "ticks": 109680,
          "durationTicks": 119
        },
        {
          "time": 355.392834,
          "midi": 45,
          "name": "A2",
          "velocity": 1,
          "duration": 0.09062499999998863,
          "ticks": 110280,
          "durationTicks": 29
        },
        {
          "time": 355.486584,
          "midi": 45,
          "name": "A2",
          "velocity": 1,
          "duration": 0.09062499999998863,
          "ticks": 110310,
          "durationTicks": 29
        },
        {
          "time": 355.580334,
          "midi": 45,
          "name": "A2",
          "velocity": 1,
          "duration": 0.09062499999998863,
          "ticks": 110340,
          "durationTicks": 29
        },
        {
          "time": 355.674084,
          "midi": 45,
          "name": "A2",
          "velocity": 1,
          "duration": 0.09062499999998863,
          "ticks": 110370,
          "durationTicks": 29
        },
        {
          "time": 355.767834,
          "midi": 45,
          "name": "A2",
          "velocity": 1,
          "duration": 0.09062499999998863,
          "ticks": 110400,
          "durationTicks": 29
        },
        {
          "time": 355.861584,
          "midi": 45,
          "name": "A2",
          "velocity": 1,
          "duration": 0.09062499999998863,
          "ticks": 110430,
          "durationTicks": 29
        },
        {
          "time": 355.955334,
          "midi": 45,
          "name": "A2",
          "velocity": 1,
          "duration": 0.09062499999998863,
          "ticks": 110460,
          "durationTicks": 29
        },
        {
          "time": 356.049084,
          "midi": 45,
          "name": "A2",
          "velocity": 1,
          "duration": 0.09062499999998863,
          "ticks": 110490,
          "durationTicks": 29
        },
        {
          "time": 356.142834,
          "midi": 45,
          "name": "A2",
          "velocity": 1,
          "duration": 0.09062499999998863,
          "ticks": 110520,
          "durationTicks": 29
        },
        {
          "time": 356.236584,
          "midi": 45,
          "name": "A2",
          "velocity": 1,
          "duration": 0.09062499999998863,
          "ticks": 110550,
          "durationTicks": 29
        },
        {
          "time": 356.330334,
          "midi": 45,
          "name": "A2",
          "velocity": 1,
          "duration": 0.09062499999998863,
          "ticks": 110580,
          "durationTicks": 29
        },
        {
          "time": 356.424084,
          "midi": 45,
          "name": "A2",
          "velocity": 1,
          "duration": 0.09062499999998863,
          "ticks": 110610,
          "durationTicks": 29
        },
        {
          "time": 356.517834,
          "midi": 45,
          "name": "A2",
          "velocity": 1,
          "duration": 0.09062499999998863,
          "ticks": 110640,
          "durationTicks": 29
        },
        {
          "time": 356.611584,
          "midi": 45,
          "name": "A2",
          "velocity": 1,
          "duration": 0.09062499999998863,
          "ticks": 110670,
          "durationTicks": 29
        },
        {
          "time": 356.705334,
          "midi": 45,
          "name": "A2",
          "velocity": 1,
          "duration": 0.09062499999998863,
          "ticks": 110700,
          "durationTicks": 29
        },
        {
          "time": 356.799084,
          "midi": 45,
          "name": "A2",
          "velocity": 1,
          "duration": 0.09062499999998863,
          "ticks": 110730,
          "durationTicks": 29
        },
        {
          "time": 356.892834,
          "midi": 45,
          "name": "A2",
          "velocity": 1,
          "duration": 0.09062499999998863,
          "ticks": 110760,
          "durationTicks": 29
        },
        {
          "time": 356.986584,
          "midi": 45,
          "name": "A2",
          "velocity": 1,
          "duration": 0.09062499999998863,
          "ticks": 110790,
          "durationTicks": 29
        },
        {
          "time": 357.080334,
          "midi": 45,
          "name": "A2",
          "velocity": 1,
          "duration": 0.09062499999998863,
          "ticks": 110820,
          "durationTicks": 29
        },
        {
          "time": 357.174084,
          "midi": 45,
          "name": "A2",
          "velocity": 1,
          "duration": 0.09062499999998863,
          "ticks": 110850,
          "durationTicks": 29
        },
        {
          "time": 357.267834,
          "midi": 45,
          "name": "A2",
          "velocity": 1,
          "duration": 0.09062499999998863,
          "ticks": 110880,
          "durationTicks": 29
        },
        {
          "time": 357.361584,
          "midi": 45,
          "name": "A2",
          "velocity": 1,
          "duration": 0.09062499999998863,
          "ticks": 110910,
          "durationTicks": 29
        },
        {
          "time": 357.455334,
          "midi": 45,
          "name": "A2",
          "velocity": 1,
          "duration": 0.09062499999998863,
          "ticks": 110940,
          "durationTicks": 29
        },
        {
          "time": 357.549084,
          "midi": 45,
          "name": "A2",
          "velocity": 1,
          "duration": 0.09062499999998863,
          "ticks": 110970,
          "durationTicks": 29
        },
        {
          "time": 357.642834,
          "midi": 45,
          "name": "A2",
          "velocity": 1,
          "duration": 0.09062499999998863,
          "ticks": 111000,
          "durationTicks": 29
        },
        {
          "time": 357.736584,
          "midi": 45,
          "name": "A2",
          "velocity": 1,
          "duration": 0.09062499999998863,
          "ticks": 111030,
          "durationTicks": 29
        },
        {
          "time": 357.830334,
          "midi": 45,
          "name": "A2",
          "velocity": 1,
          "duration": 0.09062499999998863,
          "ticks": 111060,
          "durationTicks": 29
        },
        {
          "time": 357.924084,
          "midi": 45,
          "name": "A2",
          "velocity": 1,
          "duration": 0.09062499999998863,
          "ticks": 111090,
          "durationTicks": 29
        },
        {
          "time": 358.017834,
          "midi": 45,
          "name": "A2",
          "velocity": 1,
          "duration": 0.09062499999998863,
          "ticks": 111120,
          "durationTicks": 29
        },
        {
          "time": 358.111584,
          "midi": 45,
          "name": "A2",
          "velocity": 1,
          "duration": 0.09062499999998863,
          "ticks": 111150,
          "durationTicks": 29
        },
        {
          "time": 358.205334,
          "midi": 45,
          "name": "A2",
          "velocity": 1,
          "duration": 0.09062499999998863,
          "ticks": 111180,
          "durationTicks": 29
        },
        {
          "time": 358.299084,
          "midi": 45,
          "name": "A2",
          "velocity": 1,
          "duration": 0.09062499999998863,
          "ticks": 111210,
          "durationTicks": 29
        },
        {
          "time": 358.392834,
          "midi": 45,
          "name": "A2",
          "velocity": 1,
          "duration": 0.09080184999999119,
          "ticks": 111240,
          "durationTicks": 29
        },
        {
          "time": 358.4867805,
          "midi": 45,
          "name": "A2",
          "velocity": 1,
          "duration": 0.0911948499999653,
          "ticks": 111270,
          "durationTicks": 29
        },
        {
          "time": 358.58112,
          "midi": 45,
          "name": "A2",
          "velocity": 1,
          "duration": 0.09137402499999325,
          "ticks": 111300,
          "durationTicks": 29
        },
        {
          "time": 358.6756585833333,
          "midi": 45,
          "name": "A2",
          "velocity": 1,
          "duration": 0.09177219166667783,
          "ticks": 111330,
          "durationTicks": 29
        },
        {
          "time": 358.7705953333333,
          "midi": 45,
          "name": "A2",
          "velocity": 1,
          "duration": 0.09195361666667168,
          "ticks": 111360,
          "durationTicks": 29
        },
        {
          "time": 358.86573366666664,
          "midi": 45,
          "name": "A2",
          "velocity": 1,
          "duration": 0.09235678333328678,
          "ticks": 111390,
          "durationTicks": 29
        },
        {
          "time": 358.9612751666666,
          "midi": 45,
          "name": "A2",
          "velocity": 1,
          "duration": 0.0927445416667183,
          "ticks": 111420,
          "durationTicks": 29
        },
        {
          "time": 359.0572248333333,
          "midi": 45,
          "name": "A2",
          "velocity": 1,
          "duration": 0.09294862500001955,
          "ticks": 111450,
          "durationTicks": 29
        },
        {
          "time": 359.1533785833333,
          "midi": 45,
          "name": "A2",
          "velocity": 1,
          "duration": 0.09334160833338956,
          "ticks": 111480,
          "durationTicks": 29
        },
        {
          "time": 359.249946,
          "midi": 45,
          "name": "A2",
          "velocity": 1,
          "duration": 0.09354844166665544,
          "ticks": 111510,
          "durationTicks": 29
        },
        {
          "time": 359.34672025,
          "midi": 45,
          "name": "A2",
          "velocity": 1,
          "duration": 0.09394633333334923,
          "ticks": 111540,
          "durationTicks": 29
        },
        {
          "time": 359.44391333333334,
          "midi": 45,
          "name": "A2",
          "velocity": 1,
          "duration": 0.09415575000002718,
          "ticks": 111570,
          "durationTicks": 29
        },
        {
          "time": 359.54131583333333,
          "midi": 45,
          "name": "A2",
          "velocity": 1,
          "duration": 0.0947712750000278,
          "ticks": 111600,
          "durationTicks": 29
        },
        {
          "time": 359.6393550833333,
          "midi": 45,
          "name": "A2",
          "velocity": 1,
          "duration": 0.0947712750000278,
          "ticks": 111630,
          "durationTicks": 29
        },
        {
          "time": 359.7373943333333,
          "midi": 45,
          "name": "A2",
          "velocity": 1,
          "duration": 0.09539477499998839,
          "ticks": 111660,
          "durationTicks": 29
        },
        {
          "time": 359.83607858333335,
          "midi": 45,
          "name": "A2",
          "velocity": 1,
          "duration": 0.09539477499998839,
          "ticks": 111690,
          "durationTicks": 29
        }
      ],
      "controlChanges": {
        "7": [
          {
            "number": 7,
            "value": 0.9448818897637795,
            "time": 0,
            "ticks": 0
          }
        ],
        "10": [
          {
            "number": 10,
            "value": 0.3937007874015748,
            "time": 0,
            "ticks": 0
          }
        ]
      }
    },
    {
      "name": "Gran Tamburo",
      "channel": 0,
      "instrument": {
        "number": 0,
        "name": "acoustic grand piano",
        "family": "piano"
      },
      "notes": [],
      "controlChanges": {
        "7": [
          {
            "number": 7,
            "value": 0.6299212598425197,
            "time": 0,
            "ticks": 0
          }
        ],
        "10": [
          {
            "number": 10,
            "value": 0.3779527559055118,
            "time": 0,
            "ticks": 0
          }
        ]
      }
    },
    {
      "name": "Cymbal",
      "channel": 0,
      "instrument": {
        "number": 0,
        "name": "acoustic grand piano",
        "family": "piano"
      },
      "notes": [],
      "controlChanges": {
        "7": [
          {
            "number": 7,
            "value": 0.6299212598425197,
            "time": 0,
            "ticks": 0
          }
        ],
        "10": [
          {
            "number": 10,
            "value": 0.31496062992125984,
            "time": 0,
            "ticks": 0
          }
        ]
      }
    },
    {
      "name": "Triangle",
      "channel": 0,
      "instrument": {
        "number": 0,
        "name": "acoustic grand piano",
        "family": "piano"
      },
      "notes": [],
      "controlChanges": {
        "7": [
          {
            "number": 7,
            "value": 0.6299212598425197,
            "time": 0,
            "ticks": 0
          }
        ],
        "10": [
          {
            "number": 10,
            "value": 0.31496062992125984,
            "time": 0,
            "ticks": 0
          }
        ]
      }
    },
    {
      "name": "Celesta",
      "channel": 0,
      "instrument": {
        "number": 8,
        "name": "celesta",
        "family": "chromatic percussion"
      },
      "notes": [],
      "controlChanges": {
        "7": [
          {
            "number": 7,
            "value": 0.6299212598425197,
            "time": 0,
            "ticks": 0
          }
        ],
        "10": [
          {
            "number": 10,
            "value": 0.2992125984251969,
            "time": 0,
            "ticks": 0
          }
        ]
      }
    },
    {
      "name": "Piano",
      "channel": 0,
      "instrument": {
        "number": 0,
        "name": "acoustic grand piano",
        "family": "piano"
      },
      "notes": [],
      "controlChanges": {
        "7": [
          {
            "number": 7,
            "value": 0.6299212598425197,
            "time": 0,
            "ticks": 0
          }
        ],
        "10": [
          {
            "number": 10,
            "value": 0.2204724409448819,
            "time": 0,
            "ticks": 0
          }
        ]
      }
    },
    {
      "name": "Harp",
      "channel": 0,
      "instrument": {
        "number": 46,
        "name": "orchestral harp",
        "family": "strings"
      },
      "notes": [],
      "controlChanges": {
        "7": [
          {
            "number": 7,
            "value": 0.7874015748031497,
            "time": 0,
            "ticks": 0
          }
        ],
        "10": [
          {
            "number": 10,
            "value": 0.14173228346456693,
            "time": 0,
            "ticks": 0
          }
        ]
      }
    },
    {
      "name": "violin i",
      "channel": 0,
      "instrument": {
        "number": 48,
        "name": "string ensemble 1",
        "family": "ensemble"
      },
      "notes": [
        {
          "time": 73.5,
          "midi": 78,
          "name": "F#5",
          "velocity": 0.5118110236220472,
          "duration": 0.7468750000000028,
          "ticks": 23520,
          "durationTicks": 239
        },
        {
          "time": 74.25,
          "midi": 79,
          "name": "G5",
          "velocity": 0.5118110236220472,
          "duration": 0.37187500000000284,
          "ticks": 23760,
          "durationTicks": 119
        },
        {
          "time": 74.625,
          "midi": 81,
          "name": "A5",
          "velocity": 0.49606299212598426,
          "duration": 0.37187500000000284,
          "ticks": 23880,
          "durationTicks": 119
        },
        {
          "time": 75,
          "midi": 81,
          "name": "A5",
          "velocity": 0.49606299212598426,
          "duration": 0.37187500000000284,
          "ticks": 24000,
          "durationTicks": 119
        },
        {
          "time": 75.375,
          "midi": 79,
          "name": "G5",
          "velocity": 0.5433070866141733,
          "duration": 0.37187500000000284,
          "ticks": 24120,
          "durationTicks": 119
        },
        {
          "time": 75.75,
          "midi": 78,
          "name": "F#5",
          "velocity": 0.5669291338582677,
          "duration": 0.37187500000000284,
          "ticks": 24240,
          "durationTicks": 119
        },
        {
          "time": 76.125,
          "midi": 76,
          "name": "E5",
          "velocity": 0.5511811023622047,
          "duration": 0.37187500000000284,
          "ticks": 24360,
          "durationTicks": 119
        },
        {
          "time": 76.5,
          "midi": 74,
          "name": "D5",
          "velocity": 0.5354330708661418,
          "duration": 0.7468750000000028,
          "ticks": 24480,
          "durationTicks": 239
        },
        {
          "time": 77.25,
          "midi": 76,
          "name": "E5",
          "velocity": 0.5905511811023622,
          "duration": 0.37187500000000284,
          "ticks": 24720,
          "durationTicks": 119
        },
        {
          "time": 77.625,
          "midi": 78,
          "name": "F#5",
          "velocity": 0.5984251968503937,
          "duration": 0.37187500000000284,
          "ticks": 24840,
          "durationTicks": 119
        },
        {
          "time": 78,
          "midi": 78,
          "name": "F#5",
          "velocity": 0.5984251968503937,
          "duration": 0.5593750000000028,
          "ticks": 24960,
          "durationTicks": 179
        },
        {
          "time": 78.5625,
          "midi": 76,
          "name": "E5",
          "velocity": 0.5984251968503937,
          "duration": 0.18437500000000284,
          "ticks": 25140,
          "durationTicks": 59
        },
        {
          "time": 78.75,
          "midi": 76,
          "name": "E5",
          "velocity": 0.5984251968503937,
          "duration": 0.7468750000000028,
          "ticks": 25200,
          "durationTicks": 239
        },
        {
          "time": 79.5,
          "midi": 78,
          "name": "F#5",
          "velocity": 0.6062992125984252,
          "duration": 0.7468750000000028,
          "ticks": 25440,
          "durationTicks": 239
        },
        {
          "time": 80.25,
          "midi": 79,
          "name": "G5",
          "velocity": 0.6062992125984252,
          "duration": 0.37187500000000284,
          "ticks": 25680,
          "durationTicks": 119
        },
        {
          "time": 80.625,
          "midi": 81,
          "name": "A5",
          "velocity": 0.6062992125984252,
          "duration": 0.37187500000000284,
          "ticks": 25800,
          "durationTicks": 119
        },
        {
          "time": 81,
          "midi": 81,
          "name": "A5",
          "velocity": 0.5984251968503937,
          "duration": 0.37187500000000284,
          "ticks": 25920,
          "durationTicks": 119
        },
        {
          "time": 81.375,
          "midi": 79,
          "name": "G5",
          "velocity": 0.5984251968503937,
          "duration": 0.37187500000000284,
          "ticks": 26040,
          "durationTicks": 119
        },
        {
          "time": 81.75,
          "midi": 78,
          "name": "F#5",
          "velocity": 0.5905511811023622,
          "duration": 0.37187500000000284,
          "ticks": 26160,
          "durationTicks": 119
        },
        {
          "time": 82.125,
          "midi": 76,
          "name": "E5",
          "velocity": 0.5905511811023622,
          "duration": 0.37187500000000284,
          "ticks": 26280,
          "durationTicks": 119
        },
        {
          "time": 82.5,
          "midi": 74,
          "name": "D5",
          "velocity": 0.5826771653543307,
          "duration": 0.7468750000000028,
          "ticks": 26400,
          "durationTicks": 239
        },
        {
          "time": 83.25,
          "midi": 76,
          "name": "E5",
          "velocity": 0.5748031496062992,
          "duration": 0.37187500000000284,
          "ticks": 26640,
          "durationTicks": 119
        },
        {
          "time": 83.625,
          "midi": 78,
          "name": "F#5",
          "velocity": 0.5748031496062992,
          "duration": 0.37187500000000284,
          "ticks": 26760,
          "durationTicks": 119
        },
        {
          "time": 84,
          "midi": 76,
          "name": "E5",
          "velocity": 0.5748031496062992,
          "duration": 0.5593750000000028,
          "ticks": 26880,
          "durationTicks": 179
        },
        {
          "time": 84.5625,
          "midi": 74,
          "name": "D5",
          "velocity": 0.5748031496062992,
          "duration": 0.18437500000000284,
          "ticks": 27060,
          "durationTicks": 59
        },
        {
          "time": 84.75,
          "midi": 74,
          "name": "D5",
          "velocity": 0.5748031496062992,
          "duration": 0.7468750000000028,
          "ticks": 27120,
          "durationTicks": 239
        },
        {
          "time": 85.496875,
          "midi": 76,
          "name": "E5",
          "velocity": 0.5984251968503937,
          "duration": 0.7468749999999886,
          "ticks": 27359,
          "durationTicks": 239
        },
        {
          "time": 86.246875,
          "midi": 78,
          "name": "F#5",
          "velocity": 0.6062992125984252,
          "duration": 0.37187499999998863,
          "ticks": 27599,
          "durationTicks": 119
        },
        {
          "time": 86.621875,
          "midi": 74,
          "name": "D5",
          "velocity": 0.6062992125984252,
          "duration": 0.37187499999998863,
          "ticks": 27719,
          "durationTicks": 119
        },
        {
          "time": 86.996875,
          "midi": 76,
          "name": "E5",
          "velocity": 0.6062992125984252,
          "duration": 0.37187499999998863,
          "ticks": 27839,
          "durationTicks": 119
        },
        {
          "time": 87.371875,
          "midi": 78,
          "name": "F#5",
          "velocity": 0.6062992125984252,
          "duration": 0.18437499999998863,
          "ticks": 27959,
          "durationTicks": 59
        },
        {
          "time": 87.559375,
          "midi": 79,
          "name": "G5",
          "velocity": 0.6456692913385826,
          "duration": 0.18437499999998863,
          "ticks": 28019,
          "durationTicks": 59
        },
        {
          "time": 87.746875,
          "midi": 78,
          "name": "F#5",
          "velocity": 0.6377952755905512,
          "duration": 0.37187499999998863,
          "ticks": 28079,
          "durationTicks": 119
        },
        {
          "time": 88.121875,
          "midi": 74,
          "name": "D5",
          "velocity": 0.6377952755905512,
          "duration": 0.37187499999998863,
          "ticks": 28199,
          "durationTicks": 119
        },
        {
          "time": 88.496875,
          "midi": 76,
          "name": "E5",
          "velocity": 0.6299212598425197,
          "duration": 0.37187499999998863,
          "ticks": 28319,
          "durationTicks": 119
        },
        {
          "time": 88.871875,
          "midi": 78,
          "name": "F#5",
          "velocity": 0.6299212598425197,
          "duration": 0.18437499999998863,
          "ticks": 28439,
          "durationTicks": 59
        },
        {
          "time": 89.059375,
          "midi": 79,
          "name": "G5",
          "velocity": 0.6299212598425197,
          "duration": 0.18437499999998863,
          "ticks": 28499,
          "durationTicks": 59
        },
        {
          "time": 89.246875,
          "midi": 78,
          "name": "F#5",
          "velocity": 0.6299212598425197,
          "duration": 0.37187499999998863,
          "ticks": 28559,
          "durationTicks": 119
        },
        {
          "time": 89.621875,
          "midi": 76,
          "name": "E5",
          "velocity": 0.6299212598425197,
          "duration": 0.37187499999998863,
          "ticks": 28679,
          "durationTicks": 119
        },
        {
          "time": 89.996875,
          "midi": 74,
          "name": "D5",
          "velocity": 0.6299212598425197,
          "duration": 0.37187499999998863,
          "ticks": 28799,
          "durationTicks": 119
        },
        {
          "time": 90.371875,
          "midi": 76,
          "name": "E5",
          "velocity": 0.6299212598425197,
          "duration": 0.37187499999998863,
          "ticks": 28919,
          "durationTicks": 119
        },
        {
          "time": 90.746875,
          "midi": 69,
          "name": "A4",
          "velocity": 0.6141732283464567,
          "duration": 0.37187499999998863,
          "ticks": 29039,
          "durationTicks": 119
        },
        {
          "time": 91.121875,
          "midi": 78,
          "name": "F#5",
          "velocity": 0.6062992125984252,
          "duration": 0.7468749999999886,
          "ticks": 29159,
          "durationTicks": 239
        },
        {
          "time": 91.875,
          "midi": 78,
          "name": "F#5",
          "velocity": 0.6062992125984252,
          "duration": 0.37187500000000284,
          "ticks": 29400,
          "durationTicks": 119
        },
        {
          "time": 92.246875,
          "midi": 79,
          "name": "G5",
          "velocity": 0.6062992125984252,
          "duration": 0.37187499999998863,
          "ticks": 29519,
          "durationTicks": 119
        },
        {
          "time": 92.621875,
          "midi": 81,
          "name": "A5",
          "velocity": 0.6062992125984252,
          "duration": 0.37187499999998863,
          "ticks": 29639,
          "durationTicks": 119
        },
        {
          "time": 92.996875,
          "midi": 81,
          "name": "A5",
          "velocity": 0.6062992125984252,
          "duration": 0.37187499999998863,
          "ticks": 29759,
          "durationTicks": 119
        },
        {
          "time": 93.371875,
          "midi": 79,
          "name": "G5",
          "velocity": 0.6299212598425197,
          "duration": 0.37187499999998863,
          "ticks": 29879,
          "durationTicks": 119
        },
        {
          "time": 93.746875,
          "midi": 78,
          "name": "F#5",
          "velocity": 0.6614173228346457,
          "duration": 0.37187499999998863,
          "ticks": 29999,
          "durationTicks": 119
        },
        {
          "time": 94.121875,
          "midi": 76,
          "name": "E5",
          "velocity": 0.7086614173228346,
          "duration": 0.37187499999998863,
          "ticks": 30119,
          "durationTicks": 119
        },
        {
          "time": 94.496875,
          "midi": 74,
          "name": "D5",
          "velocity": 0.7244094488188977,
          "duration": 0.7468749999999886,
          "ticks": 30239,
          "durationTicks": 239
        },
        {
          "time": 95.246875,
          "midi": 76,
          "name": "E5",
          "velocity": 0.7322834645669292,
          "duration": 0.37187499999998863,
          "ticks": 30479,
          "durationTicks": 119
        },
        {
          "time": 95.621875,
          "midi": 78,
          "name": "F#5",
          "velocity": 0.7322834645669292,
          "duration": 0.37187499999998863,
          "ticks": 30599,
          "durationTicks": 119
        },
        {
          "time": 95.996875,
          "midi": 76,
          "name": "E5",
          "velocity": 0.7322834645669292,
          "duration": 0.5593750000000028,
          "ticks": 30719,
          "durationTicks": 179
        },
        {
          "time": 96.559375,
          "midi": 74,
          "name": "D5",
          "velocity": 0.7401574803149606,
          "duration": 0.18437500000000284,
          "ticks": 30899,
          "durationTicks": 59
        },
        {
          "time": 96.746875,
          "midi": 74,
          "name": "D5",
          "velocity": 0.7480314960629921,
          "duration": 0.7468750000000028,
          "ticks": 30959,
          "durationTicks": 239
        },
        {
          "time": 97.49375,
          "midi": 76,
          "name": "E5",
          "velocity": 0.7559055118110236,
          "duration": 0.7468750000000028,
          "ticks": 31198,
          "durationTicks": 239
        },
        {
          "time": 98.24375,
          "midi": 78,
          "name": "F#5",
          "velocity": 0.7559055118110236,
          "duration": 0.37187500000000284,
          "ticks": 31438,
          "durationTicks": 119
        },
        {
          "time": 98.61875,
          "midi": 74,
          "name": "D5",
          "velocity": 0.7637795275590551,
          "duration": 0.37187500000000284,
          "ticks": 31558,
          "durationTicks": 119
        },
        {
          "time": 98.99375,
          "midi": 76,
          "name": "E5",
          "velocity": 0.7795275590551181,
          "duration": 0.37187500000000284,
          "ticks": 31678,
          "durationTicks": 119
        },
        {
          "time": 99.36875,
          "midi": 78,
          "name": "F#5",
          "velocity": 0.7874015748031497,
          "duration": 0.18437500000000284,
          "ticks": 31798,
          "durationTicks": 59
        },
        {
          "time": 99.55625,
          "midi": 79,
          "name": "G5",
          "velocity": 0.7874015748031497,
          "duration": 0.18437500000000284,
          "ticks": 31858,
          "durationTicks": 59
        },
        {
          "time": 99.74375,
          "midi": 78,
          "name": "F#5",
          "velocity": 0.7952755905511811,
          "duration": 0.37187500000000284,
          "ticks": 31918,
          "durationTicks": 119
        },
        {
          "time": 100.11875,
          "midi": 74,
          "name": "D5",
          "velocity": 0.8031496062992126,
          "duration": 0.37187500000000284,
          "ticks": 32038,
          "durationTicks": 119
        },
        {
          "time": 100.49375,
          "midi": 76,
          "name": "E5",
          "velocity": 0.8188976377952756,
          "duration": 0.37187500000000284,
          "ticks": 32158,
          "durationTicks": 119
        },
        {
          "time": 100.86875,
          "midi": 78,
          "name": "F#5",
          "velocity": 0.8503937007874016,
          "duration": 0.18437500000000284,
          "ticks": 32278,
          "durationTicks": 59
        },
        {
          "time": 101.05625,
          "midi": 79,
          "name": "G5",
          "velocity": 0.8582677165354331,
          "duration": 0.18437500000000284,
          "ticks": 32338,
          "durationTicks": 59
        },
        {
          "time": 101.24375,
          "midi": 78,
          "name": "F#5",
          "velocity": 0.8740157480314961,
          "duration": 0.37187500000000284,
          "ticks": 32398,
          "durationTicks": 119
        },
        {
          "time": 101.61875,
          "midi": 76,
          "name": "E5",
          "velocity": 0.9133858267716536,
          "duration": 0.37187500000000284,
          "ticks": 32518,
          "durationTicks": 119
        },
        {
          "time": 101.99375,
          "midi": 74,
          "name": "D5",
          "velocity": 0.9448818897637795,
          "duration": 0.37187500000000284,
          "ticks": 32638,
          "durationTicks": 119
        },
        {
          "time": 102.36875,
          "midi": 76,
          "name": "E5",
          "velocity": 0.9763779527559056,
          "duration": 0.37187500000000284,
          "ticks": 32758,
          "durationTicks": 119
        },
        {
          "time": 102.75,
          "midi": 69,
          "name": "A4",
          "velocity": 0.9763779527559056,
          "duration": 0.37187500000000284,
          "ticks": 32880,
          "durationTicks": 119
        },
        {
          "time": 103.125,
          "midi": 78,
          "name": "F#5",
          "velocity": 0.9763779527559056,
          "duration": 0.7468750000000028,
          "ticks": 33000,
          "durationTicks": 239
        },
        {
          "time": 103.875,
          "midi": 78,
          "name": "F#5",
          "velocity": 1,
          "duration": 0.37187500000000284,
          "ticks": 33240,
          "durationTicks": 119
        },
        {
          "time": 104.25,
          "midi": 79,
          "name": "G5",
          "velocity": 1,
          "duration": 0.37187500000000284,
          "ticks": 33360,
          "durationTicks": 119
        },
        {
          "time": 104.625,
          "midi": 81,
          "name": "A5",
          "velocity": 1,
          "duration": 0.37187500000000284,
          "ticks": 33480,
          "durationTicks": 119
        },
        {
          "time": 105,
          "midi": 81,
          "name": "A5",
          "velocity": 1,
          "duration": 0.37187500000000284,
          "ticks": 33600,
          "durationTicks": 119
        },
        {
          "time": 105.375,
          "midi": 79,
          "name": "G5",
          "velocity": 1,
          "duration": 0.37187500000000284,
          "ticks": 33720,
          "durationTicks": 119
        },
        {
          "time": 105.75,
          "midi": 78,
          "name": "F#5",
          "velocity": 1,
          "duration": 0.37187500000000284,
          "ticks": 33840,
          "durationTicks": 119
        },
        {
          "time": 106.125,
          "midi": 76,
          "name": "E5",
          "velocity": 1,
          "duration": 0.37187500000000284,
          "ticks": 33960,
          "durationTicks": 119
        },
        {
          "time": 106.5,
          "midi": 74,
          "name": "D5",
          "velocity": 1,
          "duration": 0.7468750000000028,
          "ticks": 34080,
          "durationTicks": 239
        },
        {
          "time": 107.25,
          "midi": 76,
          "name": "E5",
          "velocity": 1,
          "duration": 0.37187500000000284,
          "ticks": 34320,
          "durationTicks": 119
        },
        {
          "time": 107.625,
          "midi": 78,
          "name": "F#5",
          "velocity": 1,
          "duration": 0.37187500000000284,
          "ticks": 34440,
          "durationTicks": 119
        },
        {
          "time": 108,
          "midi": 76,
          "name": "E5",
          "velocity": 1,
          "duration": 0.5593750000000028,
          "ticks": 34560,
          "durationTicks": 179
        },
        {
          "time": 108.5625,
          "midi": 74,
          "name": "D5",
          "velocity": 1,
          "duration": 0.18437500000000284,
          "ticks": 34740,
          "durationTicks": 59
        },
        {
          "time": 108.75,
          "midi": 74,
          "name": "D5",
          "velocity": 1,
          "duration": 0.37187500000000284,
          "ticks": 34800,
          "durationTicks": 119
        },
        {
          "time": 109.125,
          "midi": 81,
          "name": "A5",
          "velocity": 1,
          "duration": 0.37187500000000284,
          "ticks": 34920,
          "durationTicks": 119
        },
        {
          "time": 109.5,
          "midi": 62,
          "name": "D4",
          "velocity": 1,
          "duration": 0.37187500000000284,
          "ticks": 35040,
          "durationTicks": 119
        },
        {
          "time": 109.5,
          "midi": 69,
          "name": "A4",
          "velocity": 1,
          "duration": 0.37187500000000284,
          "ticks": 35040,
          "durationTicks": 119
        },
        {
          "time": 109.5,
          "midi": 78,
          "name": "F#5",
          "velocity": 1,
          "duration": 0.37187500000000284,
          "ticks": 35040,
          "durationTicks": 119
        },
        {
          "time": 110.0625,
          "midi": 62,
          "name": "D4",
          "velocity": 1,
          "duration": 0.18437500000000284,
          "ticks": 35220,
          "durationTicks": 59
        },
        {
          "time": 110.25,
          "midi": 74,
          "name": "D5",
          "velocity": 1,
          "duration": 0.37187500000000284,
          "ticks": 35280,
          "durationTicks": 119
        },
        {
          "time": 110.8125,
          "midi": 62,
          "name": "D4",
          "velocity": 1,
          "duration": 0.18437500000000284,
          "ticks": 35460,
          "durationTicks": 59
        },
        {
          "time": 111,
          "midi": 81,
          "name": "A5",
          "velocity": 1,
          "duration": 0.37187500000000284,
          "ticks": 35520,
          "durationTicks": 119
        },
        {
          "time": 111,
          "midi": 69,
          "name": "A4",
          "velocity": 1,
          "duration": 0.37187500000000284,
          "ticks": 35520,
          "durationTicks": 119
        },
        {
          "time": 111.5625,
          "midi": 57,
          "name": "A3",
          "velocity": 1,
          "duration": 0.18437500000000284,
          "ticks": 35700,
          "durationTicks": 59
        },
        {
          "time": 111.75,
          "midi": 69,
          "name": "A4",
          "velocity": 1,
          "duration": 0.37187500000000284,
          "ticks": 35760,
          "durationTicks": 119
        },
        {
          "time": 112.3125,
          "midi": 57,
          "name": "A3",
          "velocity": 1,
          "duration": 0.18437500000000284,
          "ticks": 35940,
          "durationTicks": 59
        },
        {
          "time": 112.5,
          "midi": 69,
          "name": "A4",
          "velocity": 1,
          "duration": 0.37187500000000284,
          "ticks": 36000,
          "durationTicks": 119
        },
        {
          "time": 112.5,
          "midi": 62,
          "name": "D4",
          "velocity": 1,
          "duration": 0.37187500000000284,
          "ticks": 36000,
          "durationTicks": 119
        },
        {
          "time": 112.5,
          "midi": 78,
          "name": "F#5",
          "velocity": 1,
          "duration": 0.37187500000000284,
          "ticks": 36000,
          "durationTicks": 119
        },
        {
          "time": 113.625,
          "midi": 62,
          "name": "D4",
          "velocity": 0.984251968503937,
          "duration": 0.37187500000000284,
          "ticks": 36360,
          "durationTicks": 119
        },
        {
          "time": 113.625,
          "midi": 78,
          "name": "F#5",
          "velocity": 0.984251968503937,
          "duration": 0.37187500000000284,
          "ticks": 36360,
          "durationTicks": 119
        },
        {
          "time": 113.625,
          "midi": 69,
          "name": "A4",
          "velocity": 0.984251968503937,
          "duration": 0.37187500000000284,
          "ticks": 36360,
          "durationTicks": 119
        },
        {
          "time": 114,
          "midi": 62,
          "name": "D4",
          "velocity": 0.984251968503937,
          "duration": 0.37187500000000284,
          "ticks": 36480,
          "durationTicks": 119
        },
        {
          "time": 114,
          "midi": 69,
          "name": "A4",
          "velocity": 0.984251968503937,
          "duration": 0.37187500000000284,
          "ticks": 36480,
          "durationTicks": 119
        },
        {
          "time": 114,
          "midi": 78,
          "name": "F#5",
          "velocity": 0.984251968503937,
          "duration": 0.37187500000000284,
          "ticks": 36480,
          "durationTicks": 119
        },
        {
          "time": 114.75,
          "midi": 76,
          "name": "E5",
          "velocity": 0.9763779527559056,
          "duration": 0.37187500000000284,
          "ticks": 36720,
          "durationTicks": 119
        },
        {
          "time": 114.75,
          "midi": 69,
          "name": "A4",
          "velocity": 0.9763779527559056,
          "duration": 0.37187500000000284,
          "ticks": 36720,
          "durationTicks": 119
        },
        {
          "time": 114.75,
          "midi": 73,
          "name": "C#5",
          "velocity": 0.9763779527559056,
          "duration": 0.37187500000000284,
          "ticks": 36720,
          "durationTicks": 119
        },
        {
          "time": 115.5,
          "midi": 86,
          "name": "D6",
          "velocity": 0.9763779527559056,
          "duration": 0.37187500000000284,
          "ticks": 36960,
          "durationTicks": 119
        },
        {
          "time": 115.5,
          "midi": 62,
          "name": "D4",
          "velocity": 0.9763779527559056,
          "duration": 0.37187500000000284,
          "ticks": 36960,
          "durationTicks": 119
        },
        {
          "time": 115.5,
          "midi": 74,
          "name": "D5",
          "velocity": 0.9763779527559056,
          "duration": 0.37187500000000284,
          "ticks": 36960,
          "durationTicks": 119
        },
        {
          "time": 116.0625,
          "midi": 62,
          "name": "D4",
          "velocity": 0.9448818897637795,
          "duration": 0.18437500000000284,
          "ticks": 37140,
          "durationTicks": 59
        },
        {
          "time": 116.25,
          "midi": 74,
          "name": "D5",
          "velocity": 0.9448818897637795,
          "duration": 0.37187500000000284,
          "ticks": 37200,
          "durationTicks": 119
        },
        {
          "time": 116.8125,
          "midi": 62,
          "name": "D4",
          "velocity": 0.9291338582677166,
          "duration": 0.18437500000000284,
          "ticks": 37380,
          "durationTicks": 59
        },
        {
          "time": 117,
          "midi": 81,
          "name": "A5",
          "velocity": 0.9291338582677166,
          "duration": 0.37187500000000284,
          "ticks": 37440,
          "durationTicks": 119
        },
        {
          "time": 117,
          "midi": 69,
          "name": "A4",
          "velocity": 0.9291338582677166,
          "duration": 0.37187500000000284,
          "ticks": 37440,
          "durationTicks": 119
        },
        {
          "time": 117.5625,
          "midi": 57,
          "name": "A3",
          "velocity": 0.9291338582677166,
          "duration": 0.18437500000000284,
          "ticks": 37620,
          "durationTicks": 59
        },
        {
          "time": 117.75,
          "midi": 69,
          "name": "A4",
          "velocity": 0.9291338582677166,
          "duration": 0.37187500000000284,
          "ticks": 37680,
          "durationTicks": 119
        },
        {
          "time": 118.3125,
          "midi": 57,
          "name": "A3",
          "velocity": 0.9291338582677166,
          "duration": 0.18437500000000284,
          "ticks": 37860,
          "durationTicks": 59
        },
        {
          "time": 118.5,
          "midi": 69,
          "name": "A4",
          "velocity": 0.9291338582677166,
          "duration": 0.37187500000000284,
          "ticks": 37920,
          "durationTicks": 119
        },
        {
          "time": 118.5,
          "midi": 62,
          "name": "D4",
          "velocity": 0.9291338582677166,
          "duration": 0.37187500000000284,
          "ticks": 37920,
          "durationTicks": 119
        },
        {
          "time": 118.5,
          "midi": 78,
          "name": "F#5",
          "velocity": 0.9291338582677166,
          "duration": 0.37187500000000284,
          "ticks": 37920,
          "durationTicks": 119
        },
        {
          "time": 119.625,
          "midi": 62,
          "name": "D4",
          "velocity": 0.9291338582677166,
          "duration": 0.37187500000000284,
          "ticks": 38280,
          "durationTicks": 119
        },
        {
          "time": 119.625,
          "midi": 78,
          "name": "F#5",
          "velocity": 0.9291338582677166,
          "duration": 0.37187500000000284,
          "ticks": 38280,
          "durationTicks": 119
        },
        {
          "time": 119.625,
          "midi": 69,
          "name": "A4",
          "velocity": 0.9291338582677166,
          "duration": 0.37187500000000284,
          "ticks": 38280,
          "durationTicks": 119
        },
        {
          "time": 120,
          "midi": 69,
          "name": "A4",
          "velocity": 0.9291338582677166,
          "duration": 0.37187500000000284,
          "ticks": 38400,
          "durationTicks": 119
        },
        {
          "time": 120,
          "midi": 76,
          "name": "E5",
          "velocity": 0.9291338582677166,
          "duration": 0.37187500000000284,
          "ticks": 38400,
          "durationTicks": 119
        },
        {
          "time": 120,
          "midi": 73,
          "name": "C#5",
          "velocity": 0.9291338582677166,
          "duration": 0.37187500000000284,
          "ticks": 38400,
          "durationTicks": 119
        },
        {
          "time": 120.75,
          "midi": 57,
          "name": "A3",
          "velocity": 0.937007874015748,
          "duration": 0.37187500000000284,
          "ticks": 38640,
          "durationTicks": 119
        },
        {
          "time": 120.75,
          "midi": 66,
          "name": "F#4",
          "velocity": 0.937007874015748,
          "duration": 0.37187500000000284,
          "ticks": 38640,
          "durationTicks": 119
        },
        {
          "time": 120.75,
          "midi": 74,
          "name": "D5",
          "velocity": 0.937007874015748,
          "duration": 0.37187500000000284,
          "ticks": 38640,
          "durationTicks": 119
        },
        {
          "time": 121.5,
          "midi": 64,
          "name": "E4",
          "velocity": 0.952755905511811,
          "duration": 0.37187500000000284,
          "ticks": 38880,
          "durationTicks": 119
        },
        {
          "time": 121.5,
          "midi": 57,
          "name": "A3",
          "velocity": 0.952755905511811,
          "duration": 0.37187500000000284,
          "ticks": 38880,
          "durationTicks": 119
        },
        {
          "time": 121.5,
          "midi": 69,
          "name": "A4",
          "velocity": 0.952755905511811,
          "duration": 0.37187500000000284,
          "ticks": 38880,
          "durationTicks": 119
        },
        {
          "time": 121.5,
          "midi": 76,
          "name": "E5",
          "velocity": 0.952755905511811,
          "duration": 0.37187500000000284,
          "ticks": 38880,
          "durationTicks": 119
        },
        {
          "time": 122.0625,
          "midi": 57,
          "name": "A3",
          "velocity": 1,
          "duration": 0.18437500000000284,
          "ticks": 39060,
          "durationTicks": 59
        },
        {
          "time": 122.25,
          "midi": 69,
          "name": "A4",
          "velocity": 1,
          "duration": 0.37187500000000284,
          "ticks": 39120,
          "durationTicks": 119
        },
        {
          "time": 122.625,
          "midi": 57,
          "name": "A3",
          "velocity": 1,
          "duration": 0.37187500000000284,
          "ticks": 39240,
          "durationTicks": 119
        },
        {
          "time": 122.625,
          "midi": 74,
          "name": "D5",
          "velocity": 1,
          "duration": 0.37187500000000284,
          "ticks": 39240,
          "durationTicks": 119
        },
        {
          "time": 122.625,
          "midi": 66,
          "name": "F#4",
          "velocity": 1,
          "duration": 0.37187500000000284,
          "ticks": 39240,
          "durationTicks": 119
        },
        {
          "time": 123,
          "midi": 64,
          "name": "E4",
          "velocity": 1,
          "duration": 0.37187500000000284,
          "ticks": 39360,
          "durationTicks": 119
        },
        {
          "time": 123,
          "midi": 57,
          "name": "A3",
          "velocity": 1,
          "duration": 0.37187500000000284,
          "ticks": 39360,
          "durationTicks": 119
        },
        {
          "time": 123,
          "midi": 69,
          "name": "A4",
          "velocity": 1,
          "duration": 0.37187500000000284,
          "ticks": 39360,
          "durationTicks": 119
        },
        {
          "time": 123,
          "midi": 76,
          "name": "E5",
          "velocity": 1,
          "duration": 0.37187500000000284,
          "ticks": 39360,
          "durationTicks": 119
        },
        {
          "time": 123.5625,
          "midi": 57,
          "name": "A3",
          "velocity": 1,
          "duration": 0.18437500000000284,
          "ticks": 39540,
          "durationTicks": 59
        },
        {
          "time": 123.75,
          "midi": 69,
          "name": "A4",
          "velocity": 1,
          "duration": 0.37187500000000284,
          "ticks": 39600,
          "durationTicks": 119
        },
        {
          "time": 124.125,
          "midi": 57,
          "name": "A3",
          "velocity": 1,
          "duration": 0.37187500000000284,
          "ticks": 39720,
          "durationTicks": 119
        },
        {
          "time": 124.125,
          "midi": 74,
          "name": "D5",
          "velocity": 1,
          "duration": 0.37187500000000284,
          "ticks": 39720,
          "durationTicks": 119
        },
        {
          "time": 124.125,
          "midi": 66,
          "name": "F#4",
          "velocity": 1,
          "duration": 0.37187500000000284,
          "ticks": 39720,
          "durationTicks": 119
        },
        {
          "time": 124.5,
          "midi": 76,
          "name": "E5",
          "velocity": 1,
          "duration": 0.37187500000000284,
          "ticks": 39840,
          "durationTicks": 119
        },
        {
          "time": 124.5,
          "midi": 73,
          "name": "C#5",
          "velocity": 1,
          "duration": 0.37187500000000284,
          "ticks": 39840,
          "durationTicks": 119
        },
        {
          "time": 125.0625,
          "midi": 57,
          "name": "A3",
          "velocity": 1,
          "duration": 0.18437500000000284,
          "ticks": 40020,
          "durationTicks": 59
        },
        {
          "time": 125.25,
          "midi": 73,
          "name": "C#5",
          "velocity": 1,
          "duration": 0.18437500000000284,
          "ticks": 40080,
          "durationTicks": 59
        },
        {
          "time": 125.25,
          "midi": 78,
          "name": "F#5",
          "velocity": 1,
          "duration": 0.18437500000000284,
          "ticks": 40080,
          "durationTicks": 59
        },
        {
          "time": 125.625,
          "midi": 76,
          "name": "E5",
          "velocity": 1,
          "duration": 0.18437500000000284,
          "ticks": 40200,
          "durationTicks": 59
        },
        {
          "time": 125.625,
          "midi": 73,
          "name": "C#5",
          "velocity": 1,
          "duration": 0.18437500000000284,
          "ticks": 40200,
          "durationTicks": 59
        },
        {
          "time": 126,
          "midi": 62,
          "name": "D4",
          "velocity": 1,
          "duration": 0.18437500000000284,
          "ticks": 40320,
          "durationTicks": 59
        },
        {
          "time": 126,
          "midi": 74,
          "name": "D5",
          "velocity": 1,
          "duration": 0.18437500000000284,
          "ticks": 40320,
          "durationTicks": 59
        },
        {
          "time": 126.375,
          "midi": 64,
          "name": "E4",
          "velocity": 1,
          "duration": 0.18437500000000284,
          "ticks": 40440,
          "durationTicks": 59
        },
        {
          "time": 126.375,
          "midi": 76,
          "name": "E5",
          "velocity": 1,
          "duration": 0.18437500000000284,
          "ticks": 40440,
          "durationTicks": 59
        },
        {
          "time": 126.75,
          "midi": 69,
          "name": "A4",
          "velocity": 0.9921259842519685,
          "duration": 0.18437500000000284,
          "ticks": 40560,
          "durationTicks": 59
        },
        {
          "time": 127.125,
          "midi": 62,
          "name": "D4",
          "velocity": 0.9921259842519685,
          "duration": 0.18437500000000284,
          "ticks": 40680,
          "durationTicks": 59
        },
        {
          "time": 127.125,
          "midi": 78,
          "name": "F#5",
          "velocity": 0.9921259842519685,
          "duration": 0.18437500000000284,
          "ticks": 40680,
          "durationTicks": 59
        },
        {
          "time": 127.125,
          "midi": 69,
          "name": "A4",
          "velocity": 0.9921259842519685,
          "duration": 0.18437500000000284,
          "ticks": 40680,
          "durationTicks": 59
        },
        {
          "time": 127.5,
          "midi": 62,
          "name": "D4",
          "velocity": 0.9921259842519685,
          "duration": 0.37187500000000284,
          "ticks": 40800,
          "durationTicks": 119
        },
        {
          "time": 127.5,
          "midi": 78,
          "name": "F#5",
          "velocity": 0.9921259842519685,
          "duration": 0.37187500000000284,
          "ticks": 40800,
          "durationTicks": 119
        },
        {
          "time": 127.5,
          "midi": 69,
          "name": "A4",
          "velocity": 0.9921259842519685,
          "duration": 0.37187500000000284,
          "ticks": 40800,
          "durationTicks": 119
        },
        {
          "time": 128.0625,
          "midi": 62,
          "name": "D4",
          "velocity": 0.984251968503937,
          "duration": 0.18437499999998863,
          "ticks": 40980,
          "durationTicks": 59
        },
        {
          "time": 128.25,
          "midi": 74,
          "name": "D5",
          "velocity": 0.984251968503937,
          "duration": 0.37187499999998863,
          "ticks": 41040,
          "durationTicks": 119
        },
        {
          "time": 128.8125,
          "midi": 62,
          "name": "D4",
          "velocity": 0.984251968503937,
          "duration": 0.18437499999998863,
          "ticks": 41220,
          "durationTicks": 59
        },
        {
          "time": 129,
          "midi": 69,
          "name": "A4",
          "velocity": 0.984251968503937,
          "duration": 0.37187499999998863,
          "ticks": 41280,
          "durationTicks": 119
        },
        {
          "time": 129,
          "midi": 81,
          "name": "A5",
          "velocity": 0.984251968503937,
          "duration": 0.37187499999998863,
          "ticks": 41280,
          "durationTicks": 119
        },
        {
          "time": 129.5625,
          "midi": 57,
          "name": "A3",
          "velocity": 0.984251968503937,
          "duration": 0.18437499999998863,
          "ticks": 41460,
          "durationTicks": 59
        },
        {
          "time": 129.75,
          "midi": 69,
          "name": "A4",
          "velocity": 0.984251968503937,
          "duration": 0.37187499999998863,
          "ticks": 41520,
          "durationTicks": 119
        },
        {
          "time": 130.3125,
          "midi": 57,
          "name": "A3",
          "velocity": 0.984251968503937,
          "duration": 0.18437499999998863,
          "ticks": 41700,
          "durationTicks": 59
        },
        {
          "time": 130.5,
          "midi": 57,
          "name": "A3",
          "velocity": 0.984251968503937,
          "duration": 0.37187499999998863,
          "ticks": 41760,
          "durationTicks": 119
        },
        {
          "time": 130.5,
          "midi": 66,
          "name": "F#4",
          "velocity": 0.984251968503937,
          "duration": 0.37187499999998863,
          "ticks": 41760,
          "durationTicks": 119
        },
        {
          "time": 130.5,
          "midi": 74,
          "name": "D5",
          "velocity": 0.984251968503937,
          "duration": 0.37187499999998863,
          "ticks": 41760,
          "durationTicks": 119
        },
        {
          "time": 131.625,
          "midi": 62,
          "name": "D4",
          "velocity": 0.9921259842519685,
          "duration": 0.37187499999998863,
          "ticks": 42120,
          "durationTicks": 119
        },
        {
          "time": 131.625,
          "midi": 69,
          "name": "A4",
          "velocity": 0.9921259842519685,
          "duration": 0.37187499999998863,
          "ticks": 42120,
          "durationTicks": 119
        },
        {
          "time": 131.625,
          "midi": 78,
          "name": "F#5",
          "velocity": 0.9921259842519685,
          "duration": 0.37187499999998863,
          "ticks": 42120,
          "durationTicks": 119
        },
        {
          "time": 132,
          "midi": 57,
          "name": "A3",
          "velocity": 0.9921259842519685,
          "duration": 0.37187499999998863,
          "ticks": 42240,
          "durationTicks": 119
        },
        {
          "time": 132,
          "midi": 69,
          "name": "A4",
          "velocity": 0.9921259842519685,
          "duration": 0.37187499999998863,
          "ticks": 42240,
          "durationTicks": 119
        },
        {
          "time": 132,
          "midi": 76,
          "name": "E5",
          "velocity": 0.9921259842519685,
          "duration": 0.37187499999998863,
          "ticks": 42240,
          "durationTicks": 119
        },
        {
          "time": 132,
          "midi": 64,
          "name": "E4",
          "velocity": 0.9921259842519685,
          "duration": 0.37187499999998863,
          "ticks": 42240,
          "durationTicks": 119
        },
        {
          "time": 132.75,
          "midi": 66,
          "name": "F#4",
          "velocity": 1,
          "duration": 0.37187499999998863,
          "ticks": 42480,
          "durationTicks": 119
        },
        {
          "time": 132.75,
          "midi": 57,
          "name": "A3",
          "velocity": 1,
          "duration": 0.37187499999998863,
          "ticks": 42480,
          "durationTicks": 119
        },
        {
          "time": 132.75,
          "midi": 74,
          "name": "D5",
          "velocity": 1,
          "duration": 0.37187499999998863,
          "ticks": 42480,
          "durationTicks": 119
        },
        {
          "time": 133.5,
          "midi": 57,
          "name": "A3",
          "velocity": 0.968503937007874,
          "duration": 0.37187499999998863,
          "ticks": 42720,
          "durationTicks": 119
        },
        {
          "time": 133.5,
          "midi": 64,
          "name": "E4",
          "velocity": 0.968503937007874,
          "duration": 0.37187499999998863,
          "ticks": 42720,
          "durationTicks": 119
        },
        {
          "time": 133.5,
          "midi": 76,
          "name": "E5",
          "velocity": 0.968503937007874,
          "duration": 0.37187499999998863,
          "ticks": 42720,
          "durationTicks": 119
        },
        {
          "time": 133.5,
          "midi": 69,
          "name": "A4",
          "velocity": 0.968503937007874,
          "duration": 0.37187499999998863,
          "ticks": 42720,
          "durationTicks": 119
        },
        {
          "time": 134.0625,
          "midi": 57,
          "name": "A3",
          "velocity": 0.9606299212598425,
          "duration": 0.18437499999998863,
          "ticks": 42900,
          "durationTicks": 59
        },
        {
          "time": 134.25,
          "midi": 69,
          "name": "A4",
          "velocity": 0.9606299212598425,
          "duration": 0.37187499999998863,
          "ticks": 42960,
          "durationTicks": 119
        },
        {
          "time": 134.625,
          "midi": 57,
          "name": "A3",
          "velocity": 0.9606299212598425,
          "duration": 0.37187499999998863,
          "ticks": 43080,
          "durationTicks": 119
        },
        {
          "time": 134.625,
          "midi": 66,
          "name": "F#4",
          "velocity": 0.9606299212598425,
          "duration": 0.37187499999998863,
          "ticks": 43080,
          "durationTicks": 119
        },
        {
          "time": 134.625,
          "midi": 74,
          "name": "D5",
          "velocity": 0.9606299212598425,
          "duration": 0.37187499999998863,
          "ticks": 43080,
          "durationTicks": 119
        },
        {
          "time": 135,
          "midi": 57,
          "name": "A3",
          "velocity": 0.952755905511811,
          "duration": 0.37187499999998863,
          "ticks": 43200,
          "durationTicks": 119
        },
        {
          "time": 135,
          "midi": 64,
          "name": "E4",
          "velocity": 0.952755905511811,
          "duration": 0.37187499999998863,
          "ticks": 43200,
          "durationTicks": 119
        },
        {
          "time": 135,
          "midi": 76,
          "name": "E5",
          "velocity": 0.952755905511811,
          "duration": 0.37187499999998863,
          "ticks": 43200,
          "durationTicks": 119
        },
        {
          "time": 135,
          "midi": 69,
          "name": "A4",
          "velocity": 0.952755905511811,
          "duration": 0.37187499999998863,
          "ticks": 43200,
          "durationTicks": 119
        },
        {
          "time": 135.5625,
          "midi": 57,
          "name": "A3",
          "velocity": 0.9448818897637795,
          "duration": 0.18437499999998863,
          "ticks": 43380,
          "durationTicks": 59
        },
        {
          "time": 135.75,
          "midi": 69,
          "name": "A4",
          "velocity": 0.9448818897637795,
          "duration": 0.37187499999998863,
          "ticks": 43440,
          "durationTicks": 119
        },
        {
          "time": 136.125,
          "midi": 57,
          "name": "A3",
          "velocity": 0.9448818897637795,
          "duration": 0.37187499999998863,
          "ticks": 43560,
          "durationTicks": 119
        },
        {
          "time": 136.125,
          "midi": 66,
          "name": "F#4",
          "velocity": 0.9448818897637795,
          "duration": 0.37187499999998863,
          "ticks": 43560,
          "durationTicks": 119
        },
        {
          "time": 136.125,
          "midi": 74,
          "name": "D5",
          "velocity": 0.9448818897637795,
          "duration": 0.37187499999998863,
          "ticks": 43560,
          "durationTicks": 119
        },
        {
          "time": 136.5,
          "midi": 76,
          "name": "E5",
          "velocity": 0.9448818897637795,
          "duration": 0.37187499999998863,
          "ticks": 43680,
          "durationTicks": 119
        },
        {
          "time": 136.5,
          "midi": 73,
          "name": "C#5",
          "velocity": 0.9448818897637795,
          "duration": 0.37187499999998863,
          "ticks": 43680,
          "durationTicks": 119
        },
        {
          "time": 137.0625,
          "midi": 57,
          "name": "A3",
          "velocity": 1,
          "duration": 0.18437499999998863,
          "ticks": 43860,
          "durationTicks": 59
        },
        {
          "time": 137.25,
          "midi": 73,
          "name": "C#5",
          "velocity": 1,
          "duration": 0.18437499999998863,
          "ticks": 43920,
          "durationTicks": 59
        },
        {
          "time": 137.25,
          "midi": 78,
          "name": "F#5",
          "velocity": 1,
          "duration": 0.18437499999998863,
          "ticks": 43920,
          "durationTicks": 59
        },
        {
          "time": 137.625,
          "midi": 76,
          "name": "E5",
          "velocity": 1,
          "duration": 0.18437499999998863,
          "ticks": 44040,
          "durationTicks": 59
        },
        {
          "time": 137.625,
          "midi": 73,
          "name": "C#5",
          "velocity": 1,
          "duration": 0.18437499999998863,
          "ticks": 44040,
          "durationTicks": 59
        },
        {
          "time": 138,
          "midi": 74,
          "name": "D5",
          "velocity": 0.9763779527559056,
          "duration": 0.18437499999998863,
          "ticks": 44160,
          "durationTicks": 59
        },
        {
          "time": 138,
          "midi": 62,
          "name": "D4",
          "velocity": 0.7401574803149606,
          "duration": 0.18437499999998863,
          "ticks": 44160,
          "durationTicks": 59
        },
        {
          "time": 138.375,
          "midi": 76,
          "name": "E5",
          "velocity": 1,
          "duration": 0.18437499999998863,
          "ticks": 44280,
          "durationTicks": 59
        },
        {
          "time": 138.375,
          "midi": 64,
          "name": "E4",
          "velocity": 0.905511811023622,
          "duration": 0.18437499999998863,
          "ticks": 44280,
          "durationTicks": 59
        },
        {
          "time": 138.75,
          "midi": 69,
          "name": "A4",
          "velocity": 1,
          "duration": 0.18437499999998863,
          "ticks": 44400,
          "durationTicks": 59
        },
        {
          "time": 139.125,
          "midi": 62,
          "name": "D4",
          "velocity": 0.5354330708661418,
          "duration": 0.18437499999998863,
          "ticks": 44520,
          "durationTicks": 59
        },
        {
          "time": 139.125,
          "midi": 78,
          "name": "F#5",
          "velocity": 1,
          "duration": 0.18437499999998863,
          "ticks": 44520,
          "durationTicks": 59
        },
        {
          "time": 139.125,
          "midi": 69,
          "name": "A4",
          "velocity": 0.5118110236220472,
          "duration": 0.18437499999998863,
          "ticks": 44520,
          "durationTicks": 59
        },
        {
          "time": 139.5,
          "midi": 78,
          "name": "F#5",
          "velocity": 1,
          "duration": 0.37187499999998863,
          "ticks": 44640,
          "durationTicks": 119
        },
        {
          "time": 139.5,
          "midi": 62,
          "name": "D4",
          "velocity": 0.6220472440944882,
          "duration": 0.37187499999998863,
          "ticks": 44640,
          "durationTicks": 119
        },
        {
          "time": 139.5,
          "midi": 69,
          "name": "A4",
          "velocity": 0.6141732283464567,
          "duration": 0.37187499999998863,
          "ticks": 44640,
          "durationTicks": 119
        },
        {
          "time": 140.0625,
          "midi": 62,
          "name": "D4",
          "velocity": 1,
          "duration": 0.18437499999998863,
          "ticks": 44820,
          "durationTicks": 59
        },
        {
          "time": 140.25,
          "midi": 74,
          "name": "D5",
          "velocity": 0.937007874015748,
          "duration": 0.37187499999998863,
          "ticks": 44880,
          "durationTicks": 119
        },
        {
          "time": 140.8125,
          "midi": 62,
          "name": "D4",
          "velocity": 1,
          "duration": 0.18437499999998863,
          "ticks": 45060,
          "durationTicks": 59
        },
        {
          "time": 141,
          "midi": 81,
          "name": "A5",
          "velocity": 1,
          "duration": 0.37187499999998863,
          "ticks": 45120,
          "durationTicks": 119
        },
        {
          "time": 141,
          "midi": 69,
          "name": "A4",
          "velocity": 0.7637795275590551,
          "duration": 0.37187499999998863,
          "ticks": 45120,
          "durationTicks": 119
        },
        {
          "time": 141.5625,
          "midi": 57,
          "name": "A3",
          "velocity": 1,
          "duration": 0.18437499999998863,
          "ticks": 45300,
          "durationTicks": 59
        },
        {
          "time": 141.75,
          "midi": 69,
          "name": "A4",
          "velocity": 1,
          "duration": 0.37187499999998863,
          "ticks": 45360,
          "durationTicks": 119
        },
        {
          "time": 142.3125,
          "midi": 57,
          "name": "A3",
          "velocity": 1,
          "duration": 0.18437499999998863,
          "ticks": 45540,
          "durationTicks": 59
        },
        {
          "time": 142.5,
          "midi": 74,
          "name": "D5",
          "velocity": 1,
          "duration": 0.37187499999998863,
          "ticks": 45600,
          "durationTicks": 119
        },
        {
          "time": 142.5,
          "midi": 66,
          "name": "F#4",
          "velocity": 0.6377952755905512,
          "duration": 0.37187499999998863,
          "ticks": 45600,
          "durationTicks": 119
        },
        {
          "time": 142.5,
          "midi": 57,
          "name": "A3",
          "velocity": 0.6535433070866141,
          "duration": 0.37187499999998863,
          "ticks": 45600,
          "durationTicks": 119
        },
        {
          "time": 143.625,
          "midi": 62,
          "name": "D4",
          "velocity": 0.5905511811023622,
          "duration": 0.37187499999998863,
          "ticks": 45960,
          "durationTicks": 119
        },
        {
          "time": 143.625,
          "midi": 69,
          "name": "A4",
          "velocity": 0.47244094488188976,
          "duration": 0.37187499999998863,
          "ticks": 45960,
          "durationTicks": 119
        },
        {
          "time": 143.625,
          "midi": 78,
          "name": "F#5",
          "velocity": 1,
          "duration": 0.37187499999998863,
          "ticks": 45960,
          "durationTicks": 119
        },
        {
          "time": 144,
          "midi": 69,
          "name": "A4",
          "velocity": 0.6614173228346457,
          "duration": 0.37187499999998863,
          "ticks": 46080,
          "durationTicks": 119
        },
        {
          "time": 144,
          "midi": 64,
          "name": "E4",
          "velocity": 0.5905511811023622,
          "duration": 0.37187499999998863,
          "ticks": 46080,
          "durationTicks": 119
        },
        {
          "time": 144,
          "midi": 57,
          "name": "A3",
          "velocity": 0.6377952755905512,
          "duration": 0.37187499999998863,
          "ticks": 46080,
          "durationTicks": 119
        },
        {
          "time": 144,
          "midi": 76,
          "name": "E5",
          "velocity": 0.7401574803149606,
          "duration": 0.37187499999998863,
          "ticks": 46080,
          "durationTicks": 119
        },
        {
          "time": 144.75,
          "midi": 66,
          "name": "F#4",
          "velocity": 0.48031496062992124,
          "duration": 0.37187499999998863,
          "ticks": 46320,
          "durationTicks": 119
        },
        {
          "time": 144.75,
          "midi": 57,
          "name": "A3",
          "velocity": 0.5748031496062992,
          "duration": 0.37187499999998863,
          "ticks": 46320,
          "durationTicks": 119
        },
        {
          "time": 144.75,
          "midi": 74,
          "name": "D5",
          "velocity": 0.7795275590551181,
          "duration": 0.37187499999998863,
          "ticks": 46320,
          "durationTicks": 119
        },
        {
          "time": 145.125,
          "midi": 81,
          "name": "A5",
          "velocity": 1,
          "duration": 0.37187499999998863,
          "ticks": 46440,
          "durationTicks": 119
        },
        {
          "time": 145.5,
          "midi": 79,
          "name": "G5",
          "velocity": 1,
          "duration": 0.5593749999999886,
          "ticks": 46560,
          "durationTicks": 179
        },
        {
          "time": 146.0625,
          "midi": 78,
          "name": "F#5",
          "velocity": 1,
          "duration": 0.18437499999998863,
          "ticks": 46740,
          "durationTicks": 59
        },
        {
          "time": 146.25,
          "midi": 78,
          "name": "F#5",
          "velocity": 1,
          "duration": 0.37187499999998863,
          "ticks": 46800,
          "durationTicks": 119
        },
        {
          "time": 146.625,
          "midi": 86,
          "name": "D6",
          "velocity": 0.8503937007874016,
          "duration": 0.37187499999998863,
          "ticks": 46920,
          "durationTicks": 119
        },
        {
          "time": 147,
          "midi": 84,
          "name": "C6",
          "velocity": 1,
          "duration": 0.5593749999999886,
          "ticks": 47040,
          "durationTicks": 179
        },
        {
          "time": 147.5625,
          "midi": 83,
          "name": "B5",
          "velocity": 1,
          "duration": 0.18437499999998863,
          "ticks": 47220,
          "durationTicks": 59
        },
        {
          "time": 147.75,
          "midi": 83,
          "name": "B5",
          "velocity": 1,
          "duration": 0.37187499999998863,
          "ticks": 47280,
          "durationTicks": 119
        },
        {
          "time": 148.125,
          "midi": 86,
          "name": "D6",
          "velocity": 1,
          "duration": 0.09062499999998863,
          "ticks": 47400,
          "durationTicks": 29
        },
        {
          "time": 148.21875,
          "midi": 83,
          "name": "B5",
          "velocity": 1,
          "duration": 0.09062499999998863,
          "ticks": 47430,
          "durationTicks": 29
        },
        {
          "time": 148.5,
          "midi": 81,
          "name": "A5",
          "velocity": 1,
          "duration": 0.09062499999998863,
          "ticks": 47520,
          "durationTicks": 29
        },
        {
          "time": 148.59375,
          "midi": 79,
          "name": "G5",
          "velocity": 1,
          "duration": 0.09062499999998863,
          "ticks": 47550,
          "durationTicks": 29
        },
        {
          "time": 148.875,
          "midi": 83,
          "name": "B5",
          "velocity": 1,
          "duration": 0.09062499999998863,
          "ticks": 47640,
          "durationTicks": 29
        },
        {
          "time": 148.96875,
          "midi": 76,
          "name": "E5",
          "velocity": 1,
          "duration": 0.09062499999998863,
          "ticks": 47670,
          "durationTicks": 29
        },
        {
          "time": 149.25,
          "midi": 79,
          "name": "G5",
          "velocity": 1,
          "duration": 0.09062499999998863,
          "ticks": 47760,
          "durationTicks": 29
        },
        {
          "time": 149.34375,
          "midi": 73,
          "name": "C#5",
          "velocity": 1,
          "duration": 0.09062499999998863,
          "ticks": 47790,
          "durationTicks": 29
        },
        {
          "time": 149.625,
          "midi": 76,
          "name": "E5",
          "velocity": 0.9763779527559056,
          "duration": 0.09062499999998863,
          "ticks": 47880,
          "durationTicks": 29
        },
        {
          "time": 149.71875,
          "midi": 67,
          "name": "G4",
          "velocity": 1,
          "duration": 0.09062499999998863,
          "ticks": 47910,
          "durationTicks": 29
        },
        {
          "time": 150,
          "midi": 67,
          "name": "G4",
          "velocity": 1,
          "duration": 0.09062499999998863,
          "ticks": 48000,
          "durationTicks": 29
        },
        {
          "time": 150.09375,
          "midi": 66,
          "name": "F#4",
          "velocity": 1,
          "duration": 0.09062499999998863,
          "ticks": 48030,
          "durationTicks": 29
        },
        {
          "time": 150.375,
          "midi": 74,
          "name": "D5",
          "velocity": 1,
          "duration": 0.09062499999998863,
          "ticks": 48120,
          "durationTicks": 29
        },
        {
          "time": 150.46875,
          "midi": 69,
          "name": "A4",
          "velocity": 1,
          "duration": 0.09062499999998863,
          "ticks": 48150,
          "durationTicks": 29
        },
        {
          "time": 150.75,
          "midi": 81,
          "name": "A5",
          "velocity": 1,
          "duration": 0.09062499999998863,
          "ticks": 48240,
          "durationTicks": 29
        },
        {
          "time": 150.84375,
          "midi": 78,
          "name": "F#5",
          "velocity": 1,
          "duration": 0.09062499999998863,
          "ticks": 48270,
          "durationTicks": 29
        },
        {
          "time": 151.125,
          "midi": 86,
          "name": "D6",
          "velocity": 1,
          "duration": 0.09062499999998863,
          "ticks": 48360,
          "durationTicks": 29
        },
        {
          "time": 151.21875,
          "midi": 81,
          "name": "A5",
          "velocity": 0.9763779527559056,
          "duration": 0.09062499999998863,
          "ticks": 48390,
          "durationTicks": 29
        },
        {
          "time": 151.5,
          "midi": 81,
          "name": "A5",
          "velocity": 1,
          "duration": 0.09062499999998863,
          "ticks": 48480,
          "durationTicks": 29
        },
        {
          "time": 151.59375,
          "midi": 79,
          "name": "G5",
          "velocity": 1,
          "duration": 0.09062499999998863,
          "ticks": 48510,
          "durationTicks": 29
        },
        {
          "time": 151.875,
          "midi": 83,
          "name": "B5",
          "velocity": 1,
          "duration": 0.09062499999998863,
          "ticks": 48600,
          "durationTicks": 29
        },
        {
          "time": 151.96875,
          "midi": 76,
          "name": "E5",
          "velocity": 0.9763779527559056,
          "duration": 0.09062499999998863,
          "ticks": 48630,
          "durationTicks": 29
        },
        {
          "time": 152.25,
          "midi": 79,
          "name": "G5",
          "velocity": 1,
          "duration": 0.09062499999998863,
          "ticks": 48720,
          "durationTicks": 29
        },
        {
          "time": 152.34375,
          "midi": 73,
          "name": "C#5",
          "velocity": 1,
          "duration": 0.09062499999998863,
          "ticks": 48750,
          "durationTicks": 29
        },
        {
          "time": 152.625,
          "midi": 76,
          "name": "E5",
          "velocity": 1,
          "duration": 0.09062499999998863,
          "ticks": 48840,
          "durationTicks": 29
        },
        {
          "time": 152.71875,
          "midi": 67,
          "name": "G4",
          "velocity": 1,
          "duration": 0.09062499999998863,
          "ticks": 48870,
          "durationTicks": 29
        },
        {
          "time": 153,
          "midi": 76,
          "name": "E5",
          "velocity": 1,
          "duration": 0.09062499999998863,
          "ticks": 48960,
          "durationTicks": 29
        },
        {
          "time": 153.09375,
          "midi": 73,
          "name": "C#5",
          "velocity": 1,
          "duration": 0.09062499999998863,
          "ticks": 48990,
          "durationTicks": 29
        },
        {
          "time": 153.375,
          "midi": 76,
          "name": "E5",
          "velocity": 1,
          "duration": 0.09062499999998863,
          "ticks": 49080,
          "durationTicks": 29
        },
        {
          "time": 153.46875,
          "midi": 66,
          "name": "F#4",
          "velocity": 1,
          "duration": 0.09062499999998863,
          "ticks": 49110,
          "durationTicks": 29
        },
        {
          "time": 153.75,
          "midi": 74,
          "name": "D5",
          "velocity": 1,
          "duration": 0.09062499999998863,
          "ticks": 49200,
          "durationTicks": 29
        },
        {
          "time": 153.84375,
          "midi": 71,
          "name": "B4",
          "velocity": 1,
          "duration": 0.09062499999998863,
          "ticks": 49230,
          "durationTicks": 29
        },
        {
          "time": 154.125,
          "midi": 74,
          "name": "D5",
          "velocity": 1,
          "duration": 0.09062499999998863,
          "ticks": 49320,
          "durationTicks": 29
        },
        {
          "time": 154.21875,
          "midi": 66,
          "name": "F#4",
          "velocity": 1,
          "duration": 0.09062499999998863,
          "ticks": 49350,
          "durationTicks": 29
        },
        {
          "time": 154.5,
          "midi": 78,
          "name": "F#5",
          "velocity": 1,
          "duration": 0.09062499999998863,
          "ticks": 49440,
          "durationTicks": 29
        },
        {
          "time": 154.59375,
          "midi": 75,
          "name": "D#5",
          "velocity": 1,
          "duration": 0.09062499999998863,
          "ticks": 49470,
          "durationTicks": 29
        },
        {
          "time": 154.875,
          "midi": 78,
          "name": "F#5",
          "velocity": 1,
          "duration": 0.09062499999998863,
          "ticks": 49560,
          "durationTicks": 29
        },
        {
          "time": 154.96875,
          "midi": 69,
          "name": "A4",
          "velocity": 1,
          "duration": 0.09062499999998863,
          "ticks": 49590,
          "durationTicks": 29
        },
        {
          "time": 155.25,
          "midi": 77,
          "name": "F5",
          "velocity": 1,
          "duration": 0.09062499999998863,
          "ticks": 49680,
          "durationTicks": 29
        },
        {
          "time": 155.34375,
          "midi": 73,
          "name": "C#5",
          "velocity": 1,
          "duration": 0.09062499999998863,
          "ticks": 49710,
          "durationTicks": 29
        },
        {
          "time": 155.625,
          "midi": 77,
          "name": "F5",
          "velocity": 1,
          "duration": 0.09062499999998863,
          "ticks": 49800,
          "durationTicks": 29
        },
        {
          "time": 155.71875,
          "midi": 68,
          "name": "G#4",
          "velocity": 1,
          "duration": 0.09062499999998863,
          "ticks": 49830,
          "durationTicks": 29
        },
        {
          "time": 156,
          "midi": 79,
          "name": "G5",
          "velocity": 1,
          "duration": 0.09062499999998863,
          "ticks": 49920,
          "durationTicks": 29
        },
        {
          "time": 156.09375,
          "midi": 76,
          "name": "E5",
          "velocity": 1,
          "duration": 0.09062499999998863,
          "ticks": 49950,
          "durationTicks": 29
        },
        {
          "time": 156.375,
          "midi": 79,
          "name": "G5",
          "velocity": 0.9763779527559056,
          "duration": 0.09062499999998863,
          "ticks": 50040,
          "durationTicks": 29
        },
        {
          "time": 156.46875,
          "midi": 70,
          "name": "A#4",
          "velocity": 1,
          "duration": 0.09062499999998863,
          "ticks": 50070,
          "durationTicks": 29
        },
        {
          "time": 156.75,
          "midi": 78,
          "name": "F#5",
          "velocity": 1,
          "duration": 0.09062499999998863,
          "ticks": 50160,
          "durationTicks": 29
        },
        {
          "time": 156.84375,
          "midi": 71,
          "name": "B4",
          "velocity": 1,
          "duration": 0.09062499999998863,
          "ticks": 50190,
          "durationTicks": 29
        },
        {
          "time": 157.125,
          "midi": 83,
          "name": "B5",
          "velocity": 0.937007874015748,
          "duration": 0.09062499999998863,
          "ticks": 50280,
          "durationTicks": 29
        },
        {
          "time": 157.21875,
          "midi": 78,
          "name": "F#5",
          "velocity": 1,
          "duration": 0.09062499999998863,
          "ticks": 50310,
          "durationTicks": 29
        },
        {
          "time": 157.5,
          "midi": 83,
          "name": "B5",
          "velocity": 1,
          "duration": 0.09062499999998863,
          "ticks": 50400,
          "durationTicks": 29
        },
        {
          "time": 157.59375,
          "midi": 80,
          "name": "G#5",
          "velocity": 1,
          "duration": 0.09062499999998863,
          "ticks": 50430,
          "durationTicks": 29
        },
        {
          "time": 157.875,
          "midi": 85,
          "name": "C#6",
          "velocity": 1,
          "duration": 0.09062499999998863,
          "ticks": 50520,
          "durationTicks": 29
        },
        {
          "time": 157.96875,
          "midi": 80,
          "name": "G#5",
          "velocity": 1,
          "duration": 0.09062499999998863,
          "ticks": 50550,
          "durationTicks": 29
        },
        {
          "time": 158.25,
          "midi": 85,
          "name": "C#6",
          "velocity": 1,
          "duration": 0.09062499999998863,
          "ticks": 50640,
          "durationTicks": 29
        },
        {
          "time": 158.34375,
          "midi": 81,
          "name": "A5",
          "velocity": 0.952755905511811,
          "duration": 0.09062499999998863,
          "ticks": 50670,
          "durationTicks": 29
        },
        {
          "time": 158.625,
          "midi": 86,
          "name": "D6",
          "velocity": 0.968503937007874,
          "duration": 0.09062499999998863,
          "ticks": 50760,
          "durationTicks": 29
        },
        {
          "time": 158.71875,
          "midi": 81,
          "name": "A5",
          "velocity": 0.968503937007874,
          "duration": 0.09062499999998863,
          "ticks": 50790,
          "durationTicks": 29
        },
        {
          "time": 159,
          "midi": 86,
          "name": "D6",
          "velocity": 1,
          "duration": 0.09062499999998863,
          "ticks": 50880,
          "durationTicks": 29
        },
        {
          "time": 159.09375,
          "midi": 83,
          "name": "B5",
          "velocity": 1,
          "duration": 0.09062499999998863,
          "ticks": 50910,
          "durationTicks": 29
        },
        {
          "time": 159.375,
          "midi": 86,
          "name": "D6",
          "velocity": 1,
          "duration": 0.09062499999998863,
          "ticks": 51000,
          "durationTicks": 29
        },
        {
          "time": 159.46875,
          "midi": 83,
          "name": "B5",
          "velocity": 1,
          "duration": 0.09062499999998863,
          "ticks": 51030,
          "durationTicks": 29
        },
        {
          "time": 159.75,
          "midi": 86,
          "name": "D6",
          "velocity": 1,
          "duration": 0.09062499999998863,
          "ticks": 51120,
          "durationTicks": 29
        },
        {
          "time": 159.84375,
          "midi": 83,
          "name": "B5",
          "velocity": 0.9763779527559056,
          "duration": 0.09062499999998863,
          "ticks": 51150,
          "durationTicks": 29
        },
        {
          "time": 160.125,
          "midi": 86,
          "name": "D6",
          "velocity": 0.9606299212598425,
          "duration": 0.09062499999998863,
          "ticks": 51240,
          "durationTicks": 29
        },
        {
          "time": 160.21875,
          "midi": 83,
          "name": "B5",
          "velocity": 0.968503937007874,
          "duration": 0.09062499999998863,
          "ticks": 51270,
          "durationTicks": 29
        },
        {
          "time": 160.5,
          "midi": 88,
          "name": "E6",
          "velocity": 0.9763779527559056,
          "duration": 0.09062499999998863,
          "ticks": 51360,
          "durationTicks": 29
        },
        {
          "time": 160.59375,
          "midi": 83,
          "name": "B5",
          "velocity": 0.984251968503937,
          "duration": 0.09062499999998863,
          "ticks": 51390,
          "durationTicks": 29
        },
        {
          "time": 160.875,
          "midi": 88,
          "name": "E6",
          "velocity": 0.9921259842519685,
          "duration": 0.09062499999998863,
          "ticks": 51480,
          "durationTicks": 29
        },
        {
          "time": 160.96875,
          "midi": 83,
          "name": "B5",
          "velocity": 0.9921259842519685,
          "duration": 0.09062499999998863,
          "ticks": 51510,
          "durationTicks": 29
        },
        {
          "time": 161.25,
          "midi": 88,
          "name": "E6",
          "velocity": 0.9921259842519685,
          "duration": 0.09062499999998863,
          "ticks": 51600,
          "durationTicks": 29
        },
        {
          "time": 161.34375,
          "midi": 83,
          "name": "B5",
          "velocity": 0.9921259842519685,
          "duration": 0.09062499999998863,
          "ticks": 51630,
          "durationTicks": 29
        },
        {
          "time": 161.625,
          "midi": 88,
          "name": "E6",
          "velocity": 0.9921259842519685,
          "duration": 0.09062499999998863,
          "ticks": 51720,
          "durationTicks": 29
        },
        {
          "time": 161.71875,
          "midi": 83,
          "name": "B5",
          "velocity": 1,
          "duration": 0.09062499999998863,
          "ticks": 51750,
          "durationTicks": 29
        },
        {
          "time": 162,
          "midi": 88,
          "name": "E6",
          "velocity": 1,
          "duration": 0.18437499999998863,
          "ticks": 51840,
          "durationTicks": 59
        },
        {
          "time": 162.1875,
          "midi": 86,
          "name": "D6",
          "velocity": 1,
          "duration": 0.09062499999998863,
          "ticks": 51900,
          "durationTicks": 29
        },
        {
          "time": 162.28125,
          "midi": 85,
          "name": "C#6",
          "velocity": 1,
          "duration": 0.09062499999998863,
          "ticks": 51930,
          "durationTicks": 29
        },
        {
          "time": 162.375,
          "midi": 83,
          "name": "B5",
          "velocity": 1,
          "duration": 0.18437499999998863,
          "ticks": 51960,
          "durationTicks": 59
        },
        {
          "time": 162.5625,
          "midi": 81,
          "name": "A5",
          "velocity": 1,
          "duration": 0.09062499999998863,
          "ticks": 52020,
          "durationTicks": 29
        },
        {
          "time": 162.65625,
          "midi": 79,
          "name": "G5",
          "velocity": 1,
          "duration": 0.09062499999998863,
          "ticks": 52050,
          "durationTicks": 29
        },
        {
          "time": 162.75,
          "midi": 78,
          "name": "F#5",
          "velocity": 1,
          "duration": 0.18437499999998863,
          "ticks": 52080,
          "durationTicks": 59
        },
        {
          "time": 162.9375,
          "midi": 79,
          "name": "G5",
          "velocity": 1,
          "duration": 0.09062499999998863,
          "ticks": 52140,
          "durationTicks": 29
        },
        {
          "time": 163.03125,
          "midi": 81,
          "name": "A5",
          "velocity": 1,
          "duration": 0.09062499999998863,
          "ticks": 52170,
          "durationTicks": 29
        },
        {
          "time": 163.125,
          "midi": 83,
          "name": "B5",
          "velocity": 1,
          "duration": 0.18437499999998863,
          "ticks": 52200,
          "durationTicks": 59
        },
        {
          "time": 163.3125,
          "midi": 85,
          "name": "C#6",
          "velocity": 1,
          "duration": 0.09062499999998863,
          "ticks": 52260,
          "durationTicks": 29
        },
        {
          "time": 163.40625,
          "midi": 86,
          "name": "D6",
          "velocity": 1,
          "duration": 0.09062499999998863,
          "ticks": 52290,
          "durationTicks": 29
        },
        {
          "time": 163.5,
          "midi": 76,
          "name": "E5",
          "velocity": 1,
          "duration": 0.18437499999998863,
          "ticks": 52320,
          "durationTicks": 59
        },
        {
          "time": 163.6875,
          "midi": 78,
          "name": "F#5",
          "velocity": 1,
          "duration": 0.09062499999998863,
          "ticks": 52380,
          "durationTicks": 29
        },
        {
          "time": 163.78125,
          "midi": 80,
          "name": "G#5",
          "velocity": 1,
          "duration": 0.09062499999998863,
          "ticks": 52410,
          "durationTicks": 29
        },
        {
          "time": 163.875,
          "midi": 81,
          "name": "A5",
          "velocity": 0.937007874015748,
          "duration": 0.18437499999998863,
          "ticks": 52440,
          "durationTicks": 59
        },
        {
          "time": 164.0625,
          "midi": 83,
          "name": "B5",
          "velocity": 1,
          "duration": 0.09062499999998863,
          "ticks": 52500,
          "durationTicks": 29
        },
        {
          "time": 164.15625,
          "midi": 85,
          "name": "C#6",
          "velocity": 1,
          "duration": 0.09062499999998863,
          "ticks": 52530,
          "durationTicks": 29
        },
        {
          "time": 164.25,
          "midi": 86,
          "name": "D6",
          "velocity": 1,
          "duration": 0.09062499999998863,
          "ticks": 52560,
          "durationTicks": 29
        },
        {
          "time": 164.4375,
          "midi": 87,
          "name": "D#6",
          "velocity": 1,
          "duration": 0.09062499999998863,
          "ticks": 52620,
          "durationTicks": 29
        },
        {
          "time": 164.625,
          "midi": 88,
          "name": "E6",
          "velocity": 1,
          "duration": 0.09062499999998863,
          "ticks": 52680,
          "durationTicks": 29
        },
        {
          "time": 164.8125,
          "midi": 80,
          "name": "G#5",
          "velocity": 1,
          "duration": 0.09062499999998863,
          "ticks": 52740,
          "durationTicks": 29
        },
        {
          "time": 165,
          "midi": 81,
          "name": "A5",
          "velocity": 1,
          "duration": 0.7468749999999886,
          "ticks": 52800,
          "durationTicks": 239
        },
        {
          "time": 165.75,
          "midi": 76,
          "name": "E5",
          "velocity": 1,
          "duration": 0.18437499999998863,
          "ticks": 53040,
          "durationTicks": 59
        },
        {
          "time": 165.75,
          "midi": 76,
          "name": "E5",
          "velocity": 1,
          "duration": 0.18437499999998863,
          "ticks": 53040,
          "durationTicks": 59
        },
        {
          "time": 166.125,
          "midi": 76,
          "name": "E5",
          "velocity": 1,
          "duration": 0.18437499999998863,
          "ticks": 53160,
          "durationTicks": 59
        },
        {
          "time": 166.125,
          "midi": 76,
          "name": "E5",
          "velocity": 1,
          "duration": 0.18437499999998863,
          "ticks": 53160,
          "durationTicks": 59
        },
        {
          "time": 166.5,
          "midi": 69,
          "name": "A4",
          "velocity": 1,
          "duration": 0.09062499999998863,
          "ticks": 53280,
          "durationTicks": 29
        },
        {
          "time": 166.6875,
          "midi": 69,
          "name": "A4",
          "velocity": 1,
          "duration": 0.09062499999998863,
          "ticks": 53340,
          "durationTicks": 29
        },
        {
          "time": 166.78125,
          "midi": 71,
          "name": "B4",
          "velocity": 1,
          "duration": 0.09062499999998863,
          "ticks": 53370,
          "durationTicks": 29
        },
        {
          "time": 166.875,
          "midi": 73,
          "name": "C#5",
          "velocity": 1,
          "duration": 0.09062499999998863,
          "ticks": 53400,
          "durationTicks": 29
        },
        {
          "time": 167.0625,
          "midi": 73,
          "name": "C#5",
          "velocity": 1,
          "duration": 0.09062499999998863,
          "ticks": 53460,
          "durationTicks": 29
        },
        {
          "time": 167.15625,
          "midi": 74,
          "name": "D5",
          "velocity": 1,
          "duration": 0.09062499999998863,
          "ticks": 53490,
          "durationTicks": 29
        },
        {
          "time": 167.25,
          "midi": 76,
          "name": "E5",
          "velocity": 1,
          "duration": 0.09062499999998863,
          "ticks": 53520,
          "durationTicks": 29
        },
        {
          "time": 167.4375,
          "midi": 76,
          "name": "E5",
          "velocity": 1,
          "duration": 0.09062499999998863,
          "ticks": 53580,
          "durationTicks": 29
        },
        {
          "time": 167.53125,
          "midi": 78,
          "name": "F#5",
          "velocity": 1,
          "duration": 0.09062499999998863,
          "ticks": 53610,
          "durationTicks": 29
        },
        {
          "time": 167.625,
          "midi": 80,
          "name": "G#5",
          "velocity": 1,
          "duration": 0.09062499999998863,
          "ticks": 53640,
          "durationTicks": 29
        },
        {
          "time": 167.8125,
          "midi": 76,
          "name": "E5",
          "velocity": 1,
          "duration": 0.05937500000001705,
          "ticks": 53700,
          "durationTicks": 19
        },
        {
          "time": 167.875,
          "midi": 78,
          "name": "F#5",
          "velocity": 1,
          "duration": 0.05937499999998863,
          "ticks": 53720,
          "durationTicks": 19
        },
        {
          "time": 167.9375,
          "midi": 80,
          "name": "G#5",
          "velocity": 1,
          "duration": 0.05937499999998863,
          "ticks": 53740,
          "durationTicks": 19
        },
        {
          "time": 168,
          "midi": 76,
          "name": "E5",
          "velocity": 1,
          "duration": 0.3687500000000057,
          "ticks": 53760,
          "durationTicks": 59
        },
        {
          "time": 168.375,
          "midi": 73,
          "name": "C#5",
          "velocity": 0.9448818897637795,
          "duration": 0.3687500000000057,
          "ticks": 53820,
          "durationTicks": 59
        },
        {
          "time": 168.75,
          "midi": 69,
          "name": "A4",
          "velocity": 0.9133858267716536,
          "duration": 0.18125000000000568,
          "ticks": 53880,
          "durationTicks": 29
        },
        {
          "time": 169.125,
          "midi": 71,
          "name": "B4",
          "velocity": 0.905511811023622,
          "duration": 0.18125000000000568,
          "ticks": 53940,
          "durationTicks": 29
        },
        {
          "time": 169.5,
          "midi": 73,
          "name": "C#5",
          "velocity": 0.8976377952755905,
          "duration": 0.7437500000000057,
          "ticks": 54000,
          "durationTicks": 119
        },
        {
          "time": 170.25,
          "midi": 71,
          "name": "B4",
          "velocity": 0.8740157480314961,
          "duration": 0.7437500000000057,
          "ticks": 54120,
          "durationTicks": 119
        },
        {
          "time": 171,
          "midi": 78,
          "name": "F#5",
          "velocity": 0.968503937007874,
          "duration": 0.3687500000000057,
          "ticks": 54240,
          "durationTicks": 59
        },
        {
          "time": 171.375,
          "midi": 74,
          "name": "D5",
          "velocity": 1,
          "duration": 0.3687500000000057,
          "ticks": 54300,
          "durationTicks": 59
        },
        {
          "time": 171.75,
          "midi": 71,
          "name": "B4",
          "velocity": 1,
          "duration": 0.18125000000000568,
          "ticks": 54360,
          "durationTicks": 29
        },
        {
          "time": 172.125,
          "midi": 73,
          "name": "C#5",
          "velocity": 1,
          "duration": 0.18125000000000568,
          "ticks": 54420,
          "durationTicks": 29
        },
        {
          "time": 172.5,
          "midi": 74,
          "name": "D5",
          "velocity": 1,
          "duration": 0.7437500000000057,
          "ticks": 54480,
          "durationTicks": 119
        },
        {
          "time": 173.25,
          "midi": 73,
          "name": "C#5",
          "velocity": 1,
          "duration": 0.3687500000000057,
          "ticks": 54600,
          "durationTicks": 59
        },
        {
          "time": 173.625,
          "midi": 70,
          "name": "A#4",
          "velocity": 1,
          "duration": 0.7437500000000057,
          "ticks": 54660,
          "durationTicks": 119
        },
        {
          "time": 174.375,
          "midi": 66,
          "name": "F#4",
          "velocity": 1,
          "duration": 0.3687500000000057,
          "ticks": 54780,
          "durationTicks": 59
        },
        {
          "time": 174.75,
          "midi": 63,
          "name": "D#4",
          "velocity": 1,
          "duration": 0.18125000000000568,
          "ticks": 54840,
          "durationTicks": 29
        },
        {
          "time": 175.125,
          "midi": 65,
          "name": "F4",
          "velocity": 1,
          "duration": 0.18125000000000568,
          "ticks": 54900,
          "durationTicks": 29
        },
        {
          "time": 175.5,
          "midi": 66,
          "name": "F#4",
          "velocity": 1,
          "duration": 0.7437500000000057,
          "ticks": 54960,
          "durationTicks": 119
        },
        {
          "time": 176.25,
          "midi": 65,
          "name": "F4",
          "velocity": 0.937007874015748,
          "duration": 0.3687500000000057,
          "ticks": 55080,
          "durationTicks": 59
        },
        {
          "time": 176.625,
          "midi": 76,
          "name": "E5",
          "velocity": 0.9448818897637795,
          "duration": 0.3687500000000057,
          "ticks": 55140,
          "durationTicks": 59
        },
        {
          "time": 176.625,
          "midi": 64,
          "name": "E4",
          "velocity": 0.9448818897637795,
          "duration": 0.3687500000000057,
          "ticks": 55140,
          "durationTicks": 59
        },
        {
          "time": 177,
          "midi": 88,
          "name": "E6",
          "velocity": 0.952755905511811,
          "duration": 0.18437499999998863,
          "ticks": 55200,
          "durationTicks": 59
        },
        {
          "time": 177.1875,
          "midi": 85,
          "name": "C#6",
          "velocity": 0.952755905511811,
          "duration": 0.18437499999998863,
          "ticks": 55260,
          "durationTicks": 59
        },
        {
          "time": 177.375,
          "midi": 81,
          "name": "A5",
          "velocity": 0.952755905511811,
          "duration": 0.09062499999998863,
          "ticks": 55320,
          "durationTicks": 29
        },
        {
          "time": 177.5625,
          "midi": 83,
          "name": "B5",
          "velocity": 1,
          "duration": 0.09062499999998863,
          "ticks": 55380,
          "durationTicks": 29
        },
        {
          "time": 177.75,
          "midi": 85,
          "name": "C#6",
          "velocity": 1,
          "duration": 0.37187499999998863,
          "ticks": 55440,
          "durationTicks": 119
        },
        {
          "time": 178.125,
          "midi": 83,
          "name": "B5",
          "velocity": 1,
          "duration": 0.37187499999998863,
          "ticks": 55560,
          "durationTicks": 119
        },
        {
          "time": 178.875,
          "midi": 74,
          "name": "D5",
          "velocity": 0.8818897637795275,
          "duration": 0.18437499999998863,
          "ticks": 55800,
          "durationTicks": 59
        },
        {
          "time": 178.875,
          "midi": 83,
          "name": "B5",
          "velocity": 1,
          "duration": 0.18437499999998863,
          "ticks": 55800,
          "durationTicks": 59
        },
        {
          "time": 178.875,
          "midi": 64,
          "name": "E4",
          "velocity": 0.8031496062992126,
          "duration": 0.18437499999998863,
          "ticks": 55800,
          "durationTicks": 59
        },
        {
          "time": 179.625,
          "midi": 73,
          "name": "C#5",
          "velocity": 0.905511811023622,
          "duration": 0.18437499999998863,
          "ticks": 56040,
          "durationTicks": 59
        },
        {
          "time": 179.625,
          "midi": 81,
          "name": "A5",
          "velocity": 0.905511811023622,
          "duration": 0.18437499999998863,
          "ticks": 56040,
          "durationTicks": 59
        },
        {
          "time": 179.625,
          "midi": 64,
          "name": "E4",
          "velocity": 0.905511811023622,
          "duration": 0.18437499999998863,
          "ticks": 56040,
          "durationTicks": 59
        },
        {
          "time": 180.75,
          "midi": 82,
          "name": "A#5",
          "velocity": 0.952755905511811,
          "duration": 0.9375,
          "ticks": 56400,
          "durationTicks": 300
        },
        {
          "time": 180.75,
          "midi": 70,
          "name": "A#4",
          "velocity": 0.952755905511811,
          "duration": 0.9375,
          "ticks": 56400,
          "durationTicks": 300
        },
        {
          "time": 181.6875,
          "midi": 69,
          "name": "A4",
          "velocity": 0.984251968503937,
          "duration": 0.09062499999998863,
          "ticks": 56700,
          "durationTicks": 29
        },
        {
          "time": 181.6875,
          "midi": 81,
          "name": "A5",
          "velocity": 0.984251968503937,
          "duration": 0.09062499999998863,
          "ticks": 56700,
          "durationTicks": 29
        },
        {
          "time": 181.875,
          "midi": 69,
          "name": "A4",
          "velocity": 0.984251968503937,
          "duration": 0.09062499999998863,
          "ticks": 56760,
          "durationTicks": 29
        },
        {
          "time": 181.875,
          "midi": 81,
          "name": "A5",
          "velocity": 0.984251968503937,
          "duration": 0.09062499999998863,
          "ticks": 56760,
          "durationTicks": 29
        },
        {
          "time": 182.0625,
          "midi": 86,
          "name": "D6",
          "velocity": 0.984251968503937,
          "duration": 0.09062499999998863,
          "ticks": 56820,
          "durationTicks": 29
        },
        {
          "time": 182.25,
          "midi": 86,
          "name": "D6",
          "velocity": 0.984251968503937,
          "duration": 0.09062499999998863,
          "ticks": 56880,
          "durationTicks": 29
        },
        {
          "time": 182.4375,
          "midi": 77,
          "name": "F5",
          "velocity": 0.984251968503937,
          "duration": 0.09062499999998863,
          "ticks": 56940,
          "durationTicks": 29
        },
        {
          "time": 182.625,
          "midi": 77,
          "name": "F5",
          "velocity": 0.984251968503937,
          "duration": 0.09062499999998863,
          "ticks": 57000,
          "durationTicks": 29
        },
        {
          "time": 182.8125,
          "midi": 81,
          "name": "A5",
          "velocity": 0.984251968503937,
          "duration": 0.09062499999998863,
          "ticks": 57060,
          "durationTicks": 29
        },
        {
          "time": 183,
          "midi": 81,
          "name": "A5",
          "velocity": 0.984251968503937,
          "duration": 0.09062499999998863,
          "ticks": 57120,
          "durationTicks": 29
        },
        {
          "time": 183.1875,
          "midi": 74,
          "name": "D5",
          "velocity": 0.984251968503937,
          "duration": 0.09062499999998863,
          "ticks": 57180,
          "durationTicks": 29
        },
        {
          "time": 183.375,
          "midi": 74,
          "name": "D5",
          "velocity": 0.984251968503937,
          "duration": 0.18437499999998863,
          "ticks": 57240,
          "durationTicks": 59
        },
        {
          "time": 183.5625,
          "midi": 77,
          "name": "F5",
          "velocity": 0.9921259842519685,
          "duration": 0.18437499999998863,
          "ticks": 57300,
          "durationTicks": 59
        },
        {
          "time": 183.75,
          "midi": 77,
          "name": "F5",
          "velocity": 0.9921259842519685,
          "duration": 0.18437499999998863,
          "ticks": 57360,
          "durationTicks": 59
        },
        {
          "time": 183.9375,
          "midi": 69,
          "name": "A4",
          "velocity": 1,
          "duration": 0.18437499999998863,
          "ticks": 57420,
          "durationTicks": 59
        },
        {
          "time": 184.125,
          "midi": 69,
          "name": "A4",
          "velocity": 1,
          "duration": 0.18437499999998863,
          "ticks": 57480,
          "durationTicks": 59
        },
        {
          "time": 184.3125,
          "midi": 74,
          "name": "D5",
          "velocity": 1,
          "duration": 0.18437499999998863,
          "ticks": 57540,
          "durationTicks": 59
        },
        {
          "time": 184.5,
          "midi": 74,
          "name": "D5",
          "velocity": 1,
          "duration": 0.18437499999998863,
          "ticks": 57600,
          "durationTicks": 59
        },
        {
          "time": 184.6875,
          "midi": 65,
          "name": "F4",
          "velocity": 1,
          "duration": 0.18437499999998863,
          "ticks": 57660,
          "durationTicks": 59
        },
        {
          "time": 184.875,
          "midi": 65,
          "name": "F4",
          "velocity": 1,
          "duration": 0.18437499999998863,
          "ticks": 57720,
          "durationTicks": 59
        },
        {
          "time": 185.0625,
          "midi": 69,
          "name": "A4",
          "velocity": 1,
          "duration": 0.18437499999998863,
          "ticks": 57780,
          "durationTicks": 59
        },
        {
          "time": 185.25,
          "midi": 69,
          "name": "A4",
          "velocity": 1,
          "duration": 0.18437499999998863,
          "ticks": 57840,
          "durationTicks": 59
        },
        {
          "time": 185.4375,
          "midi": 62,
          "name": "D4",
          "velocity": 1,
          "duration": 0.18437499999998863,
          "ticks": 57900,
          "durationTicks": 59
        },
        {
          "time": 185.625,
          "midi": 62,
          "name": "D4",
          "velocity": 1,
          "duration": 0.18437499999998863,
          "ticks": 57960,
          "durationTicks": 59
        },
        {
          "time": 185.8125,
          "midi": 77,
          "name": "F5",
          "velocity": 1,
          "duration": 0.18437499999998863,
          "ticks": 58020,
          "durationTicks": 59
        },
        {
          "time": 186,
          "midi": 77,
          "name": "F5",
          "velocity": 1,
          "duration": 0.18437499999998863,
          "ticks": 58080,
          "durationTicks": 59
        },
        {
          "time": 186.1875,
          "midi": 78,
          "name": "F#5",
          "velocity": 1,
          "duration": 0.18437499999998863,
          "ticks": 58140,
          "durationTicks": 59
        },
        {
          "time": 186.375,
          "midi": 78,
          "name": "F#5",
          "velocity": 1,
          "duration": 0.18437499999998863,
          "ticks": 58200,
          "durationTicks": 59
        },
        {
          "time": 186.5625,
          "midi": 79,
          "name": "G5",
          "velocity": 1,
          "duration": 0.18437499999998863,
          "ticks": 58260,
          "durationTicks": 59
        },
        {
          "time": 186.75,
          "midi": 79,
          "name": "G5",
          "velocity": 1,
          "duration": 0.18437499999998863,
          "ticks": 58320,
          "durationTicks": 59
        },
        {
          "time": 186.9375,
          "midi": 80,
          "name": "G#5",
          "velocity": 1,
          "duration": 0.18437499999998863,
          "ticks": 58380,
          "durationTicks": 59
        },
        {
          "time": 187.125,
          "midi": 80,
          "name": "G#5",
          "velocity": 1,
          "duration": 0.18437499999998863,
          "ticks": 58440,
          "durationTicks": 59
        },
        {
          "time": 187.3125,
          "midi": 74,
          "name": "D5",
          "velocity": 1,
          "duration": 0.18437499999998863,
          "ticks": 58500,
          "durationTicks": 59
        },
        {
          "time": 187.5,
          "midi": 74,
          "name": "D5",
          "velocity": 1,
          "duration": 0.18437499999998863,
          "ticks": 58560,
          "durationTicks": 59
        },
        {
          "time": 187.6875,
          "midi": 77,
          "name": "F5",
          "velocity": 1,
          "duration": 0.18437499999998863,
          "ticks": 58620,
          "durationTicks": 59
        },
        {
          "time": 187.875,
          "midi": 77,
          "name": "F5",
          "velocity": 1,
          "duration": 0.18437499999998863,
          "ticks": 58680,
          "durationTicks": 59
        },
        {
          "time": 188.25,
          "midi": 69,
          "name": "A4",
          "velocity": 1,
          "duration": 0.18437499999998863,
          "ticks": 58800,
          "durationTicks": 59
        },
        {
          "time": 188.25,
          "midi": 81,
          "name": "A5",
          "velocity": 1,
          "duration": 0.18437499999998863,
          "ticks": 58800,
          "durationTicks": 59
        },
        {
          "time": 195.857136,
          "midi": 65,
          "name": "F4",
          "velocity": 0.7716535433070866,
          "duration": 0.4249995750000153,
          "ticks": 60960,
          "durationTicks": 119
        },
        {
          "time": 196.285707,
          "midi": 66,
          "name": "F#4",
          "velocity": 0.7716535433070866,
          "duration": 0.42499957499998686,
          "ticks": 61080,
          "durationTicks": 119
        },
        {
          "time": 196.714278,
          "midi": 66,
          "name": "F#4",
          "velocity": 0.7716535433070866,
          "duration": 0.42499957499998686,
          "ticks": 61200,
          "durationTicks": 119
        },
        {
          "time": 197.142849,
          "midi": 67,
          "name": "G4",
          "velocity": 0.7716535433070866,
          "duration": 0.42499957499998686,
          "ticks": 61320,
          "durationTicks": 119
        },
        {
          "time": 197.57142,
          "midi": 68,
          "name": "G#4",
          "velocity": 0.7716535433070866,
          "duration": 0.8535705750000204,
          "ticks": 61440,
          "durationTicks": 239
        },
        {
          "time": 198.428562,
          "midi": 74,
          "name": "D5",
          "velocity": 0.7716535433070866,
          "duration": 7.285707000000002,
          "ticks": 61680,
          "durationTicks": 2040
        },
        {
          "time": 206.571411,
          "midi": 73,
          "name": "C#5",
          "velocity": 1,
          "duration": 0.2107140749999985,
          "ticks": 63960,
          "durationTicks": 59
        },
        {
          "time": 206.571411,
          "midi": 76,
          "name": "E5",
          "velocity": 1,
          "duration": 0.2107140749999985,
          "ticks": 63960,
          "durationTicks": 59
        },
        {
          "time": 206.999982,
          "midi": 81,
          "name": "A5",
          "velocity": 0.9763779527559056,
          "duration": 0.2107140749999985,
          "ticks": 64080,
          "durationTicks": 59
        },
        {
          "time": 206.999982,
          "midi": 69,
          "name": "A4",
          "velocity": 0.937007874015748,
          "duration": 0.2107140749999985,
          "ticks": 64080,
          "durationTicks": 59
        },
        {
          "time": 207.2142675,
          "midi": 69,
          "name": "A4",
          "velocity": 0.8818897637795275,
          "duration": 0.2107140749999985,
          "ticks": 64140,
          "durationTicks": 59
        },
        {
          "time": 207.2142675,
          "midi": 81,
          "name": "A5",
          "velocity": 1,
          "duration": 0.2107140749999985,
          "ticks": 64140,
          "durationTicks": 59
        },
        {
          "time": 207.428553,
          "midi": 69,
          "name": "A4",
          "velocity": 0.9763779527559056,
          "duration": 0.4249995750000153,
          "ticks": 64200,
          "durationTicks": 119
        },
        {
          "time": 207.428553,
          "midi": 86,
          "name": "D6",
          "velocity": 1,
          "duration": 0.4249995750000153,
          "ticks": 64200,
          "durationTicks": 119
        },
        {
          "time": 212.892834,
          "midi": 62,
          "name": "D4",
          "velocity": 0.905511811023622,
          "duration": 0.3687500000000057,
          "ticks": 65640,
          "durationTicks": 59
        },
        {
          "time": 212.892834,
          "midi": 71,
          "name": "B4",
          "velocity": 1,
          "duration": 0.3687500000000057,
          "ticks": 65640,
          "durationTicks": 59
        },
        {
          "time": 213.642834,
          "midi": 83,
          "name": "B5",
          "velocity": 1,
          "duration": 0.3687500000000057,
          "ticks": 65760,
          "durationTicks": 59
        },
        {
          "time": 213.642834,
          "midi": 71,
          "name": "B4",
          "velocity": 1,
          "duration": 0.3687500000000057,
          "ticks": 65760,
          "durationTicks": 59
        },
        {
          "time": 218.142834,
          "midi": 85,
          "name": "C#6",
          "velocity": 1,
          "duration": 0.3687500000000057,
          "ticks": 66480,
          "durationTicks": 59
        },
        {
          "time": 218.142834,
          "midi": 69,
          "name": "A4",
          "velocity": 1,
          "duration": 0.3687500000000057,
          "ticks": 66480,
          "durationTicks": 59
        },
        {
          "time": 221.142834,
          "midi": 57,
          "name": "A3",
          "velocity": 1,
          "duration": 0.37187499999998863,
          "ticks": 67320,
          "durationTicks": 119
        },
        {
          "time": 221.517834,
          "midi": 57,
          "name": "A3",
          "velocity": 1,
          "duration": 0.37187499999998863,
          "ticks": 67440,
          "durationTicks": 119
        },
        {
          "time": 224.142834,
          "midi": 57,
          "name": "A3",
          "velocity": 1,
          "duration": 0.37187499999998863,
          "ticks": 68280,
          "durationTicks": 119
        },
        {
          "time": 224.517834,
          "midi": 57,
          "name": "A3",
          "velocity": 1,
          "duration": 0.37187499999998863,
          "ticks": 68400,
          "durationTicks": 119
        },
        {
          "time": 224.892834,
          "midi": 69,
          "name": "A4",
          "velocity": 1,
          "duration": 0.37187499999998863,
          "ticks": 68520,
          "durationTicks": 119
        },
        {
          "time": 225.267834,
          "midi": 69,
          "name": "A4",
          "velocity": 1,
          "duration": 0.37187499999998863,
          "ticks": 68640,
          "durationTicks": 119
        },
        {
          "time": 225.642834,
          "midi": 69,
          "name": "A4",
          "velocity": 1,
          "duration": 0.37187499999998863,
          "ticks": 68760,
          "durationTicks": 119
        },
        {
          "time": 226.017834,
          "midi": 69,
          "name": "A4",
          "velocity": 1,
          "duration": 0.37187499999998863,
          "ticks": 68880,
          "durationTicks": 119
        },
        {
          "time": 226.392834,
          "midi": 69,
          "name": "A4",
          "velocity": 1,
          "duration": 0.37187499999998863,
          "ticks": 69000,
          "durationTicks": 119
        },
        {
          "time": 226.767834,
          "midi": 69,
          "name": "A4",
          "velocity": 1,
          "duration": 0.37187499999998863,
          "ticks": 69120,
          "durationTicks": 119
        },
        {
          "time": 227.142834,
          "midi": 69,
          "name": "A4",
          "velocity": 1,
          "duration": 0.37187499999998863,
          "ticks": 69240,
          "durationTicks": 119
        },
        {
          "time": 227.517834,
          "midi": 69,
          "name": "A4",
          "velocity": 1,
          "duration": 0.37187499999998863,
          "ticks": 69360,
          "durationTicks": 119
        },
        {
          "time": 227.892834,
          "midi": 69,
          "name": "A4",
          "velocity": 1,
          "duration": 0.37187499999998863,
          "ticks": 69480,
          "durationTicks": 119
        },
        {
          "time": 228.267834,
          "midi": 69,
          "name": "A4",
          "velocity": 1,
          "duration": 0.37187499999998863,
          "ticks": 69600,
          "durationTicks": 119
        },
        {
          "time": 228.642834,
          "midi": 69,
          "name": "A4",
          "velocity": 1,
          "duration": 0.37187499999998863,
          "ticks": 69720,
          "durationTicks": 119
        },
        {
          "time": 229.017834,
          "midi": 69,
          "name": "A4",
          "velocity": 1,
          "duration": 0.37187499999998863,
          "ticks": 69840,
          "durationTicks": 119
        },
        {
          "time": 229.392834,
          "midi": 69,
          "name": "A4",
          "velocity": 1,
          "duration": 0.37187499999998863,
          "ticks": 69960,
          "durationTicks": 119
        },
        {
          "time": 230.142834,
          "midi": 69,
          "name": "A4",
          "velocity": 1,
          "duration": 0.37187499999998863,
          "ticks": 70200,
          "durationTicks": 119
        },
        {
          "time": 230.892834,
          "midi": 69,
          "name": "A4",
          "velocity": 1,
          "duration": 0.37187499999998863,
          "ticks": 70440,
          "durationTicks": 119
        },
        {
          "time": 231.267834,
          "midi": 69,
          "name": "A4",
          "velocity": 1,
          "duration": 0.37187499999998863,
          "ticks": 70560,
          "durationTicks": 119
        },
        {
          "time": 231.267834,
          "midi": 62,
          "name": "D4",
          "velocity": 0.9763779527559056,
          "duration": 0.37187499999998863,
          "ticks": 70560,
          "durationTicks": 119
        },
        {
          "time": 231.642834,
          "midi": 64,
          "name": "E4",
          "velocity": 1,
          "duration": 0.37187499999998863,
          "ticks": 70680,
          "durationTicks": 119
        },
        {
          "time": 231.642834,
          "midi": 69,
          "name": "A4",
          "velocity": 0.9763779527559056,
          "duration": 0.37187499999998863,
          "ticks": 70680,
          "durationTicks": 119
        },
        {
          "time": 232.017834,
          "midi": 69,
          "name": "A4",
          "velocity": 1,
          "duration": 0.37187499999998863,
          "ticks": 70800,
          "durationTicks": 119
        },
        {
          "time": 232.017834,
          "midi": 66,
          "name": "F#4",
          "velocity": 1,
          "duration": 0.37187499999998863,
          "ticks": 70800,
          "durationTicks": 119
        },
        {
          "time": 232.392834,
          "midi": 69,
          "name": "A4",
          "velocity": 1,
          "duration": 0.37187499999998863,
          "ticks": 70920,
          "durationTicks": 119
        },
        {
          "time": 232.392834,
          "midi": 66,
          "name": "F#4",
          "velocity": 1,
          "duration": 0.37187499999998863,
          "ticks": 70920,
          "durationTicks": 119
        },
        {
          "time": 232.767834,
          "midi": 64,
          "name": "E4",
          "velocity": 0.905511811023622,
          "duration": 0.37187499999998863,
          "ticks": 71040,
          "durationTicks": 119
        },
        {
          "time": 232.767834,
          "midi": 69,
          "name": "A4",
          "velocity": 1,
          "duration": 0.37187499999998863,
          "ticks": 71040,
          "durationTicks": 119
        },
        {
          "time": 233.142834,
          "midi": 62,
          "name": "D4",
          "velocity": 0.8503937007874016,
          "duration": 0.37187499999998863,
          "ticks": 71160,
          "durationTicks": 119
        },
        {
          "time": 233.142834,
          "midi": 69,
          "name": "A4",
          "velocity": 0.9763779527559056,
          "duration": 0.37187499999998863,
          "ticks": 71160,
          "durationTicks": 119
        },
        {
          "time": 233.517834,
          "midi": 67,
          "name": "G4",
          "velocity": 1,
          "duration": 0.37187499999998863,
          "ticks": 71280,
          "durationTicks": 119
        },
        {
          "time": 233.517834,
          "midi": 69,
          "name": "A4",
          "velocity": 1,
          "duration": 0.37187499999998863,
          "ticks": 71280,
          "durationTicks": 119
        },
        {
          "time": 233.892834,
          "midi": 69,
          "name": "A4",
          "velocity": 1,
          "duration": 0.37187499999998863,
          "ticks": 71400,
          "durationTicks": 119
        },
        {
          "time": 233.892834,
          "midi": 66,
          "name": "F#4",
          "velocity": 1,
          "duration": 0.37187499999998863,
          "ticks": 71400,
          "durationTicks": 119
        },
        {
          "time": 234.267834,
          "midi": 69,
          "name": "A4",
          "velocity": 1,
          "duration": 0.37187499999998863,
          "ticks": 71520,
          "durationTicks": 119
        },
        {
          "time": 234.267834,
          "midi": 66,
          "name": "F#4",
          "velocity": 1,
          "duration": 0.37187499999998863,
          "ticks": 71520,
          "durationTicks": 119
        },
        {
          "time": 234.642834,
          "midi": 67,
          "name": "G4",
          "velocity": 1,
          "duration": 0.37187499999998863,
          "ticks": 71640,
          "durationTicks": 119
        },
        {
          "time": 234.642834,
          "midi": 69,
          "name": "A4",
          "velocity": 1,
          "duration": 0.37187499999998863,
          "ticks": 71640,
          "durationTicks": 119
        },
        {
          "time": 235.017834,
          "midi": 69,
          "name": "A4",
          "velocity": 1,
          "duration": 0.37187499999998863,
          "ticks": 71760,
          "durationTicks": 119
        },
        {
          "time": 235.392834,
          "midi": 67,
          "name": "G4",
          "velocity": 1,
          "duration": 0.37187499999998863,
          "ticks": 71880,
          "durationTicks": 119
        },
        {
          "time": 235.392834,
          "midi": 69,
          "name": "A4",
          "velocity": 1,
          "duration": 0.37187499999998863,
          "ticks": 71880,
          "durationTicks": 119
        },
        {
          "time": 236.142834,
          "midi": 69,
          "name": "A4",
          "velocity": 1,
          "duration": 0.37187499999998863,
          "ticks": 72120,
          "durationTicks": 119
        },
        {
          "time": 236.142834,
          "midi": 66,
          "name": "F#4",
          "velocity": 1,
          "duration": 0.37187499999998863,
          "ticks": 72120,
          "durationTicks": 119
        },
        {
          "time": 237.267834,
          "midi": 69,
          "name": "A4",
          "velocity": 1,
          "duration": 0.37187499999998863,
          "ticks": 72480,
          "durationTicks": 119
        },
        {
          "time": 238.017834,
          "midi": 69,
          "name": "A4",
          "velocity": 1,
          "duration": 0.37187499999998863,
          "ticks": 72720,
          "durationTicks": 119
        },
        {
          "time": 238.767834,
          "midi": 69,
          "name": "A4",
          "velocity": 1,
          "duration": 0.37187499999998863,
          "ticks": 72960,
          "durationTicks": 119
        },
        {
          "time": 239.517834,
          "midi": 69,
          "name": "A4",
          "velocity": 1,
          "duration": 0.37187499999998863,
          "ticks": 73200,
          "durationTicks": 119
        },
        {
          "time": 240.267834,
          "midi": 69,
          "name": "A4",
          "velocity": 1,
          "duration": 0.37187499999998863,
          "ticks": 73440,
          "durationTicks": 119
        },
        {
          "time": 241.017834,
          "midi": 69,
          "name": "A4",
          "velocity": 1,
          "duration": 0.37187499999998863,
          "ticks": 73680,
          "durationTicks": 119
        },
        {
          "time": 241.392834,
          "midi": 69,
          "name": "A4",
          "velocity": 1,
          "duration": 0.37187499999998863,
          "ticks": 73800,
          "durationTicks": 119
        },
        {
          "time": 241.767834,
          "midi": 69,
          "name": "A4",
          "velocity": 1,
          "duration": 0.37187499999998863,
          "ticks": 73920,
          "durationTicks": 119
        },
        {
          "time": 242.142834,
          "midi": 69,
          "name": "A4",
          "velocity": 1,
          "duration": 0.37187499999998863,
          "ticks": 74040,
          "durationTicks": 119
        },
        {
          "time": 242.517834,
          "midi": 69,
          "name": "A4",
          "velocity": 1,
          "duration": 0.37187499999998863,
          "ticks": 74160,
          "durationTicks": 119
        },
        {
          "time": 242.892834,
          "midi": 69,
          "name": "A4",
          "velocity": 1,
          "duration": 0.37187499999998863,
          "ticks": 74280,
          "durationTicks": 119
        },
        {
          "time": 243.267834,
          "midi": 69,
          "name": "A4",
          "velocity": 0.8267716535433071,
          "duration": 0.37187499999998863,
          "ticks": 74400,
          "durationTicks": 119
        },
        {
          "time": 243.267834,
          "midi": 63,
          "name": "D#4",
          "velocity": 1,
          "duration": 0.37187499999998863,
          "ticks": 74400,
          "durationTicks": 119
        },
        {
          "time": 243.642834,
          "midi": 64,
          "name": "E4",
          "velocity": 0.8031496062992126,
          "duration": 0.37187499999998863,
          "ticks": 74520,
          "durationTicks": 119
        },
        {
          "time": 243.642834,
          "midi": 69,
          "name": "A4",
          "velocity": 0.8503937007874016,
          "duration": 0.37187499999998863,
          "ticks": 74520,
          "durationTicks": 119
        },
        {
          "time": 244.017834,
          "midi": 69,
          "name": "A4",
          "velocity": 1,
          "duration": 0.37187499999998863,
          "ticks": 74640,
          "durationTicks": 119
        },
        {
          "time": 244.017834,
          "midi": 66,
          "name": "F#4",
          "velocity": 1,
          "duration": 0.37187499999998863,
          "ticks": 74640,
          "durationTicks": 119
        },
        {
          "time": 244.392834,
          "midi": 69,
          "name": "A4",
          "velocity": 1,
          "duration": 0.37187499999998863,
          "ticks": 74760,
          "durationTicks": 119
        },
        {
          "time": 244.392834,
          "midi": 66,
          "name": "F#4",
          "velocity": 1,
          "duration": 0.37187499999998863,
          "ticks": 74760,
          "durationTicks": 119
        },
        {
          "time": 244.767834,
          "midi": 64,
          "name": "E4",
          "velocity": 0.937007874015748,
          "duration": 0.37187499999998863,
          "ticks": 74880,
          "durationTicks": 119
        },
        {
          "time": 244.767834,
          "midi": 69,
          "name": "A4",
          "velocity": 0.9763779527559056,
          "duration": 0.37187499999998863,
          "ticks": 74880,
          "durationTicks": 119
        },
        {
          "time": 245.142834,
          "midi": 69,
          "name": "A4",
          "velocity": 1,
          "duration": 0.37187499999998863,
          "ticks": 75000,
          "durationTicks": 119
        },
        {
          "time": 245.517834,
          "midi": 67,
          "name": "G4",
          "velocity": 0.9763779527559056,
          "duration": 0.37187499999998863,
          "ticks": 75120,
          "durationTicks": 119
        },
        {
          "time": 245.517834,
          "midi": 69,
          "name": "A4",
          "velocity": 0.905511811023622,
          "duration": 0.37187499999998863,
          "ticks": 75120,
          "durationTicks": 119
        },
        {
          "time": 245.892834,
          "midi": 69,
          "name": "A4",
          "velocity": 0.905511811023622,
          "duration": 0.37187499999998863,
          "ticks": 75240,
          "durationTicks": 119
        },
        {
          "time": 245.892834,
          "midi": 66,
          "name": "F#4",
          "velocity": 0.9763779527559056,
          "duration": 0.37187499999998863,
          "ticks": 75240,
          "durationTicks": 119
        },
        {
          "time": 246.267834,
          "midi": 66,
          "name": "F#4",
          "velocity": 1,
          "duration": 0.37187499999998863,
          "ticks": 75360,
          "durationTicks": 119
        },
        {
          "time": 246.267834,
          "midi": 69,
          "name": "A4",
          "velocity": 0.905511811023622,
          "duration": 0.37187499999998863,
          "ticks": 75360,
          "durationTicks": 119
        },
        {
          "time": 246.642834,
          "midi": 67,
          "name": "G4",
          "velocity": 0.905511811023622,
          "duration": 0.37187499999998863,
          "ticks": 75480,
          "durationTicks": 119
        },
        {
          "time": 246.642834,
          "midi": 69,
          "name": "A4",
          "velocity": 0.905511811023622,
          "duration": 0.37187499999998863,
          "ticks": 75480,
          "durationTicks": 119
        },
        {
          "time": 247.017834,
          "midi": 69,
          "name": "A4",
          "velocity": 1,
          "duration": 0.37187499999998863,
          "ticks": 75600,
          "durationTicks": 119
        },
        {
          "time": 247.392834,
          "midi": 69,
          "name": "A4",
          "velocity": 1,
          "duration": 0.37187499999998863,
          "ticks": 75720,
          "durationTicks": 119
        },
        {
          "time": 248.142834,
          "midi": 69,
          "name": "A4",
          "velocity": 1,
          "duration": 0.37187499999998863,
          "ticks": 75960,
          "durationTicks": 119
        },
        {
          "time": 248.892834,
          "midi": 64,
          "name": "E4",
          "velocity": 1,
          "duration": 0.37187499999998863,
          "ticks": 76200,
          "durationTicks": 119
        },
        {
          "time": 249.267834,
          "midi": 64,
          "name": "E4",
          "velocity": 1,
          "duration": 0.37187499999998863,
          "ticks": 76320,
          "durationTicks": 119
        },
        {
          "time": 249.642834,
          "midi": 66,
          "name": "F#4",
          "velocity": 1,
          "duration": 0.37187499999998863,
          "ticks": 76440,
          "durationTicks": 119
        },
        {
          "time": 250.017834,
          "midi": 62,
          "name": "D4",
          "velocity": 1,
          "duration": 0.37187499999998863,
          "ticks": 76560,
          "durationTicks": 119
        },
        {
          "time": 250.392834,
          "midi": 64,
          "name": "E4",
          "velocity": 1,
          "duration": 0.37187499999998863,
          "ticks": 76680,
          "durationTicks": 119
        },
        {
          "time": 250.767834,
          "midi": 66,
          "name": "F#4",
          "velocity": 1,
          "duration": 0.18437499999998863,
          "ticks": 76800,
          "durationTicks": 59
        },
        {
          "time": 250.955334,
          "midi": 67,
          "name": "G4",
          "velocity": 1,
          "duration": 0.18437499999998863,
          "ticks": 76860,
          "durationTicks": 59
        },
        {
          "time": 251.142834,
          "midi": 66,
          "name": "F#4",
          "velocity": 1,
          "duration": 0.37187499999998863,
          "ticks": 76920,
          "durationTicks": 119
        },
        {
          "time": 251.517834,
          "midi": 62,
          "name": "D4",
          "velocity": 1,
          "duration": 0.37187499999998863,
          "ticks": 77040,
          "durationTicks": 119
        },
        {
          "time": 251.892834,
          "midi": 64,
          "name": "E4",
          "velocity": 1,
          "duration": 0.37187499999998863,
          "ticks": 77160,
          "durationTicks": 119
        },
        {
          "time": 252.267834,
          "midi": 66,
          "name": "F#4",
          "velocity": 1,
          "duration": 0.18437499999998863,
          "ticks": 77280,
          "durationTicks": 59
        },
        {
          "time": 252.455334,
          "midi": 67,
          "name": "G4",
          "velocity": 1,
          "duration": 0.18437499999998863,
          "ticks": 77340,
          "durationTicks": 59
        },
        {
          "time": 252.642834,
          "midi": 66,
          "name": "F#4",
          "velocity": 1,
          "duration": 0.37187499999998863,
          "ticks": 77400,
          "durationTicks": 119
        },
        {
          "time": 253.017834,
          "midi": 64,
          "name": "E4",
          "velocity": 1,
          "duration": 0.37187499999998863,
          "ticks": 77520,
          "durationTicks": 119
        },
        {
          "time": 253.392834,
          "midi": 62,
          "name": "D4",
          "velocity": 1,
          "duration": 0.37187499999998863,
          "ticks": 77640,
          "durationTicks": 119
        },
        {
          "time": 253.767834,
          "midi": 64,
          "name": "E4",
          "velocity": 1,
          "duration": 0.37187499999998863,
          "ticks": 77760,
          "durationTicks": 119
        },
        {
          "time": 254.142834,
          "midi": 57,
          "name": "A3",
          "velocity": 0.937007874015748,
          "duration": 0.37187499999998863,
          "ticks": 77880,
          "durationTicks": 119
        },
        {
          "time": 254.517834,
          "midi": 66,
          "name": "F#4",
          "velocity": 1,
          "duration": 0.7468749999999886,
          "ticks": 78000,
          "durationTicks": 239
        },
        {
          "time": 255.267834,
          "midi": 66,
          "name": "F#4",
          "velocity": 1,
          "duration": 0.37187499999998863,
          "ticks": 78240,
          "durationTicks": 119
        },
        {
          "time": 255.642834,
          "midi": 67,
          "name": "G4",
          "velocity": 0.8818897637795275,
          "duration": 0.37187499999998863,
          "ticks": 78360,
          "durationTicks": 119
        },
        {
          "time": 256.017834,
          "midi": 69,
          "name": "A4",
          "velocity": 1,
          "duration": 0.37187499999998863,
          "ticks": 78480,
          "durationTicks": 119
        },
        {
          "time": 256.392834,
          "midi": 69,
          "name": "A4",
          "velocity": 1,
          "duration": 0.37187499999998863,
          "ticks": 78600,
          "durationTicks": 119
        },
        {
          "time": 256.767834,
          "midi": 67,
          "name": "G4",
          "velocity": 0.9763779527559056,
          "duration": 0.37187499999998863,
          "ticks": 78720,
          "durationTicks": 119
        },
        {
          "time": 257.142834,
          "midi": 66,
          "name": "F#4",
          "velocity": 1,
          "duration": 0.37187499999998863,
          "ticks": 78840,
          "durationTicks": 119
        },
        {
          "time": 257.517834,
          "midi": 67,
          "name": "G4",
          "velocity": 1,
          "duration": 0.18437499999998863,
          "ticks": 78960,
          "durationTicks": 59
        },
        {
          "time": 257.705334,
          "midi": 64,
          "name": "E4",
          "velocity": 1,
          "duration": 0.18437499999998863,
          "ticks": 79020,
          "durationTicks": 59
        },
        {
          "time": 257.892834,
          "midi": 62,
          "name": "D4",
          "velocity": 1,
          "duration": 0.37187499999998863,
          "ticks": 79080,
          "durationTicks": 119
        },
        {
          "time": 258.267834,
          "midi": 62,
          "name": "D4",
          "velocity": 1,
          "duration": 0.37187499999998863,
          "ticks": 79200,
          "durationTicks": 119
        },
        {
          "time": 258.642834,
          "midi": 64,
          "name": "E4",
          "velocity": 1,
          "duration": 0.37187499999998863,
          "ticks": 79320,
          "durationTicks": 119
        },
        {
          "time": 259.017834,
          "midi": 66,
          "name": "F#4",
          "velocity": 1,
          "duration": 0.37187499999998863,
          "ticks": 79440,
          "durationTicks": 119
        },
        {
          "time": 259.392834,
          "midi": 64,
          "name": "E4",
          "velocity": 1,
          "duration": 0.5593749999999886,
          "ticks": 79560,
          "durationTicks": 179
        },
        {
          "time": 259.955334,
          "midi": 62,
          "name": "D4",
          "velocity": 1,
          "duration": 0.18437499999998863,
          "ticks": 79740,
          "durationTicks": 59
        },
        {
          "time": 260.142834,
          "midi": 62,
          "name": "D4",
          "velocity": 1,
          "duration": 0.37187499999998863,
          "ticks": 79800,
          "durationTicks": 119
        },
        {
          "time": 260.517834,
          "midi": 69,
          "name": "A4",
          "velocity": 1,
          "duration": 0.37187499999998863,
          "ticks": 79920,
          "durationTicks": 119
        },
        {
          "time": 260.892834,
          "midi": 67,
          "name": "G4",
          "velocity": 0.8818897637795275,
          "duration": 0.5593749999999886,
          "ticks": 80040,
          "durationTicks": 179
        },
        {
          "time": 261.455334,
          "midi": 66,
          "name": "F#4",
          "velocity": 1,
          "duration": 0.18437499999998863,
          "ticks": 80220,
          "durationTicks": 59
        },
        {
          "time": 261.642834,
          "midi": 66,
          "name": "F#4",
          "velocity": 0.937007874015748,
          "duration": 0.37187499999998863,
          "ticks": 80280,
          "durationTicks": 119
        },
        {
          "time": 262.017834,
          "midi": 74,
          "name": "D5",
          "velocity": 0.8267716535433071,
          "duration": 0.37187499999998863,
          "ticks": 80400,
          "durationTicks": 119
        },
        {
          "time": 262.392834,
          "midi": 72,
          "name": "C5",
          "velocity": 0.8503937007874016,
          "duration": 0.5593749999999886,
          "ticks": 80520,
          "durationTicks": 179
        },
        {
          "time": 262.955334,
          "midi": 71,
          "name": "B4",
          "velocity": 0.905511811023622,
          "duration": 0.18437499999998863,
          "ticks": 80700,
          "durationTicks": 59
        },
        {
          "time": 263.142834,
          "midi": 71,
          "name": "B4",
          "velocity": 0.8503937007874016,
          "duration": 0.37187499999998863,
          "ticks": 80760,
          "durationTicks": 119
        },
        {
          "time": 263.517834,
          "midi": 79,
          "name": "G5",
          "velocity": 0.8267716535433071,
          "duration": 0.18437499999998863,
          "ticks": 80880,
          "durationTicks": 59
        },
        {
          "time": 263.705334,
          "midi": 76,
          "name": "E5",
          "velocity": 0.7795275590551181,
          "duration": 0.18437499999998863,
          "ticks": 80940,
          "durationTicks": 59
        },
        {
          "time": 263.892834,
          "midi": 74,
          "name": "D5",
          "velocity": 0.8503937007874016,
          "duration": 0.18437499999998863,
          "ticks": 81000,
          "durationTicks": 59
        },
        {
          "time": 264.080334,
          "midi": 73,
          "name": "C#5",
          "velocity": 1,
          "duration": 0.18437499999998863,
          "ticks": 81060,
          "durationTicks": 59
        },
        {
          "time": 264.267834,
          "midi": 76,
          "name": "E5",
          "velocity": 0.8503937007874016,
          "duration": 0.18437499999998863,
          "ticks": 81120,
          "durationTicks": 59
        },
        {
          "time": 264.455334,
          "midi": 73,
          "name": "C#5",
          "velocity": 1,
          "duration": 0.18437499999998863,
          "ticks": 81180,
          "durationTicks": 59
        },
        {
          "time": 264.642834,
          "midi": 71,
          "name": "B4",
          "velocity": 0.8503937007874016,
          "duration": 0.18437499999998863,
          "ticks": 81240,
          "durationTicks": 59
        },
        {
          "time": 264.830334,
          "midi": 69,
          "name": "A4",
          "velocity": 0.8818897637795275,
          "duration": 0.18437499999998863,
          "ticks": 81300,
          "durationTicks": 59
        },
        {
          "time": 265.017834,
          "midi": 71,
          "name": "B4",
          "velocity": 1,
          "duration": 0.18437499999998863,
          "ticks": 81360,
          "durationTicks": 59
        },
        {
          "time": 265.205334,
          "midi": 73,
          "name": "C#5",
          "velocity": 1,
          "duration": 0.18437499999998863,
          "ticks": 81420,
          "durationTicks": 59
        },
        {
          "time": 265.392834,
          "midi": 74,
          "name": "D5",
          "velocity": 0.937007874015748,
          "duration": 0.18437499999998863,
          "ticks": 81480,
          "durationTicks": 59
        },
        {
          "time": 265.580334,
          "midi": 78,
          "name": "F#5",
          "velocity": 0.937007874015748,
          "duration": 0.18437499999998863,
          "ticks": 81540,
          "durationTicks": 59
        },
        {
          "time": 265.767834,
          "midi": 76,
          "name": "E5",
          "velocity": 0.8818897637795275,
          "duration": 0.18437499999998863,
          "ticks": 81600,
          "durationTicks": 59
        },
        {
          "time": 265.955334,
          "midi": 73,
          "name": "C#5",
          "velocity": 1,
          "duration": 0.18437499999998863,
          "ticks": 81660,
          "durationTicks": 59
        },
        {
          "time": 266.142834,
          "midi": 74,
          "name": "D5",
          "velocity": 1,
          "duration": 0.37187499999998863,
          "ticks": 81720,
          "durationTicks": 119
        },
        {
          "time": 291.642834,
          "midi": 69,
          "name": "A4",
          "velocity": 0.937007874015748,
          "duration": 0.18437499999998863,
          "ticks": 89880,
          "durationTicks": 59
        },
        {
          "time": 291.830334,
          "midi": 69,
          "name": "A4",
          "velocity": 0.937007874015748,
          "duration": 0.18437499999998863,
          "ticks": 89940,
          "durationTicks": 59
        },
        {
          "time": 292.017834,
          "midi": 78,
          "name": "F#5",
          "velocity": 1,
          "duration": 0.18437499999998863,
          "ticks": 90000,
          "durationTicks": 59
        },
        {
          "time": 292.205334,
          "midi": 74,
          "name": "D5",
          "velocity": 1,
          "duration": 0.18437499999998863,
          "ticks": 90060,
          "durationTicks": 59
        },
        {
          "time": 292.392834,
          "midi": 79,
          "name": "G5",
          "velocity": 1,
          "duration": 0.37187499999998863,
          "ticks": 90120,
          "durationTicks": 119
        },
        {
          "time": 293.142834,
          "midi": 69,
          "name": "A4",
          "velocity": 0.937007874015748,
          "duration": 0.18437499999998863,
          "ticks": 90360,
          "durationTicks": 59
        },
        {
          "time": 293.330334,
          "midi": 69,
          "name": "A4",
          "velocity": 1,
          "duration": 0.18437499999998863,
          "ticks": 90420,
          "durationTicks": 59
        },
        {
          "time": 293.517834,
          "midi": 76,
          "name": "E5",
          "velocity": 1,
          "duration": 0.18437499999998863,
          "ticks": 90480,
          "durationTicks": 59
        },
        {
          "time": 293.705334,
          "midi": 78,
          "name": "F#5",
          "velocity": 1,
          "duration": 0.18437499999998863,
          "ticks": 90540,
          "durationTicks": 59
        },
        {
          "time": 293.892834,
          "midi": 79,
          "name": "G5",
          "velocity": 1,
          "duration": 0.37187499999998863,
          "ticks": 90600,
          "durationTicks": 119
        },
        {
          "time": 294.455334,
          "midi": 73,
          "name": "C#5",
          "velocity": 1,
          "duration": 0.18437499999998863,
          "ticks": 90780,
          "durationTicks": 59
        },
        {
          "time": 294.642834,
          "midi": 78,
          "name": "F#5",
          "velocity": 1,
          "duration": 0.37187499999998863,
          "ticks": 90840,
          "durationTicks": 119
        },
        {
          "time": 295.205334,
          "midi": 69,
          "name": "A4",
          "velocity": 0.8818897637795275,
          "duration": 0.18437499999998863,
          "ticks": 91020,
          "durationTicks": 59
        },
        {
          "time": 295.392834,
          "midi": 74,
          "name": "D5",
          "velocity": 1,
          "duration": 0.37187499999998863,
          "ticks": 91080,
          "durationTicks": 119
        },
        {
          "time": 295.955334,
          "midi": 76,
          "name": "E5",
          "velocity": 1,
          "duration": 0.18437499999998863,
          "ticks": 91260,
          "durationTicks": 59
        },
        {
          "time": 296.142834,
          "midi": 69,
          "name": "A4",
          "velocity": 1,
          "duration": 0.18437499999998863,
          "ticks": 91320,
          "durationTicks": 59
        },
        {
          "time": 296.330334,
          "midi": 69,
          "name": "A4",
          "velocity": 0.9763779527559056,
          "duration": 0.18437499999998863,
          "ticks": 91380,
          "durationTicks": 59
        },
        {
          "time": 296.517834,
          "midi": 78,
          "name": "F#5",
          "velocity": 1,
          "duration": 0.18437499999998863,
          "ticks": 91440,
          "durationTicks": 59
        },
        {
          "time": 297.080334,
          "midi": 69,
          "name": "A4",
          "velocity": 0.9763779527559056,
          "duration": 0.18437499999998863,
          "ticks": 91620,
          "durationTicks": 59
        },
        {
          "time": 297.267834,
          "midi": 78,
          "name": "F#5",
          "velocity": 1,
          "duration": 0.37187499999998863,
          "ticks": 91680,
          "durationTicks": 119
        },
        {
          "time": 297.830334,
          "midi": 69,
          "name": "A4",
          "velocity": 0.9212598425196851,
          "duration": 0.18437499999998863,
          "ticks": 91860,
          "durationTicks": 59
        },
        {
          "time": 298.017834,
          "midi": 81,
          "name": "A5",
          "velocity": 0.9133858267716536,
          "duration": 0.37187499999998863,
          "ticks": 91920,
          "durationTicks": 119
        },
        {
          "time": 298.580334,
          "midi": 69,
          "name": "A4",
          "velocity": 0.8503937007874016,
          "duration": 0.18437499999998863,
          "ticks": 92100,
          "durationTicks": 59
        },
        {
          "time": 298.767834,
          "midi": 79,
          "name": "G5",
          "velocity": 0.8346456692913385,
          "duration": 0.37187499999998863,
          "ticks": 92160,
          "durationTicks": 119
        },
        {
          "time": 299.330334,
          "midi": 69,
          "name": "A4",
          "velocity": 0.8110236220472441,
          "duration": 0.18437499999998863,
          "ticks": 92340,
          "durationTicks": 59
        },
        {
          "time": 299.517834,
          "midi": 76,
          "name": "E5",
          "velocity": 0.7952755905511811,
          "duration": 0.37187499999998863,
          "ticks": 92400,
          "durationTicks": 119
        },
        {
          "time": 300.080334,
          "midi": 69,
          "name": "A4",
          "velocity": 0.7795275590551181,
          "duration": 0.18437499999998863,
          "ticks": 92580,
          "durationTicks": 59
        },
        {
          "time": 300.267834,
          "midi": 74,
          "name": "D5",
          "velocity": 0.7559055118110236,
          "duration": 0.37187499999998863,
          "ticks": 92640,
          "durationTicks": 119
        },
        {
          "time": 300.830334,
          "midi": 69,
          "name": "A4",
          "velocity": 0.7165354330708661,
          "duration": 0.18437499999998863,
          "ticks": 92820,
          "durationTicks": 59
        },
        {
          "time": 301.017834,
          "midi": 78,
          "name": "F#5",
          "velocity": 0.7086614173228346,
          "duration": 0.37187499999998863,
          "ticks": 92880,
          "durationTicks": 119
        },
        {
          "time": 301.580334,
          "midi": 69,
          "name": "A4",
          "velocity": 0.6929133858267716,
          "duration": 0.18437499999998863,
          "ticks": 93060,
          "durationTicks": 59
        },
        {
          "time": 301.767834,
          "midi": 76,
          "name": "E5",
          "velocity": 0.6929133858267716,
          "duration": 0.18437499999998863,
          "ticks": 93120,
          "durationTicks": 59
        },
        {
          "time": 302.330334,
          "midi": 69,
          "name": "A4",
          "velocity": 0.6850393700787402,
          "duration": 0.18437499999998863,
          "ticks": 93300,
          "durationTicks": 59
        },
        {
          "time": 302.517834,
          "midi": 74,
          "name": "D5",
          "velocity": 0.6771653543307087,
          "duration": 0.18437499999998863,
          "ticks": 93360,
          "durationTicks": 59
        },
        {
          "time": 303.080334,
          "midi": 69,
          "name": "A4",
          "velocity": 0.6771653543307087,
          "duration": 0.18437499999998863,
          "ticks": 93540,
          "durationTicks": 59
        },
        {
          "time": 303.267834,
          "midi": 81,
          "name": "A5",
          "velocity": 0.6771653543307087,
          "duration": 0.18437499999998863,
          "ticks": 93600,
          "durationTicks": 59
        },
        {
          "time": 303.830334,
          "midi": 74,
          "name": "D5",
          "velocity": 0.6692913385826772,
          "duration": 0.18437499999998863,
          "ticks": 93780,
          "durationTicks": 59
        },
        {
          "time": 304.017834,
          "midi": 86,
          "name": "D6",
          "velocity": 0.6692913385826772,
          "duration": 0.18437499999998863,
          "ticks": 93840,
          "durationTicks": 59
        },
        {
          "time": 304.580334,
          "midi": 72,
          "name": "C5",
          "velocity": 0.8267716535433071,
          "duration": 0.18437499999998863,
          "ticks": 94020,
          "durationTicks": 59
        },
        {
          "time": 304.767834,
          "midi": 84,
          "name": "C6",
          "velocity": 0.8503937007874016,
          "duration": 0.18437499999998863,
          "ticks": 94080,
          "durationTicks": 59
        },
        {
          "time": 305.330334,
          "midi": 71,
          "name": "B4",
          "velocity": 0.905511811023622,
          "duration": 0.18437499999998863,
          "ticks": 94260,
          "durationTicks": 59
        },
        {
          "time": 305.517834,
          "midi": 83,
          "name": "B5",
          "velocity": 0.7086614173228346,
          "duration": 0.18437499999998863,
          "ticks": 94320,
          "durationTicks": 59
        },
        {
          "time": 306.080334,
          "midi": 73,
          "name": "C#5",
          "velocity": 0.7086614173228346,
          "duration": 0.18437499999998863,
          "ticks": 94500,
          "durationTicks": 59
        },
        {
          "time": 306.080334,
          "midi": 76,
          "name": "E5",
          "velocity": 0.7086614173228346,
          "duration": 0.18437499999998863,
          "ticks": 94500,
          "durationTicks": 59
        },
        {
          "time": 306.267834,
          "midi": 79,
          "name": "G5",
          "velocity": 0.8503937007874016,
          "duration": 0.18437499999998863,
          "ticks": 94560,
          "durationTicks": 59
        },
        {
          "time": 306.830334,
          "midi": 67,
          "name": "G4",
          "velocity": 0.905511811023622,
          "duration": 0.18437499999998863,
          "ticks": 94740,
          "durationTicks": 59
        },
        {
          "time": 307.017834,
          "midi": 79,
          "name": "G5",
          "velocity": 0.8818897637795275,
          "duration": 0.18437499999998863,
          "ticks": 94800,
          "durationTicks": 59
        },
        {
          "time": 307.392834,
          "midi": 78,
          "name": "F#5",
          "velocity": 0.7637795275590551,
          "duration": 0.18437499999998863,
          "ticks": 94920,
          "durationTicks": 59
        },
        {
          "time": 307.767834,
          "midi": 85,
          "name": "C#6",
          "velocity": 0.8031496062992126,
          "duration": 0.18437499999998863,
          "ticks": 95040,
          "durationTicks": 59
        },
        {
          "time": 307.767834,
          "midi": 69,
          "name": "A4",
          "velocity": 0.6377952755905512,
          "duration": 0.18437499999998863,
          "ticks": 95040,
          "durationTicks": 59
        },
        {
          "time": 308.142834,
          "midi": 86,
          "name": "D6",
          "velocity": 1,
          "duration": 0.18437499999998863,
          "ticks": 95160,
          "durationTicks": 59
        },
        {
          "time": 308.142834,
          "midi": 69,
          "name": "A4",
          "velocity": 0.48031496062992124,
          "duration": 0.18437499999998863,
          "ticks": 95160,
          "durationTicks": 59
        },
        {
          "time": 308.142834,
          "midi": 62,
          "name": "D4",
          "velocity": 0.5826771653543307,
          "duration": 0.18437499999998863,
          "ticks": 95160,
          "durationTicks": 59
        },
        {
          "time": 318.267834,
          "midi": 66,
          "name": "F#4",
          "velocity": 0.8267716535433071,
          "duration": 0.04374999999998863,
          "ticks": 98400,
          "durationTicks": 14
        },
        {
          "time": 318.314709,
          "midi": 67,
          "name": "G4",
          "velocity": 0.6535433070866141,
          "duration": 0.04374999999998863,
          "ticks": 98415,
          "durationTicks": 14
        },
        {
          "time": 318.361584,
          "midi": 66,
          "name": "F#4",
          "velocity": 0.8818897637795275,
          "duration": 0.04374999999998863,
          "ticks": 98430,
          "durationTicks": 14
        },
        {
          "time": 318.408459,
          "midi": 67,
          "name": "G4",
          "velocity": 0.7086614173228346,
          "duration": 0.04374999999998863,
          "ticks": 98445,
          "durationTicks": 14
        },
        {
          "time": 318.455334,
          "midi": 66,
          "name": "F#4",
          "velocity": 0.937007874015748,
          "duration": 0.04374999999998863,
          "ticks": 98460,
          "durationTicks": 14
        },
        {
          "time": 318.502209,
          "midi": 67,
          "name": "G4",
          "velocity": 0.8031496062992126,
          "duration": 0.04374999999998863,
          "ticks": 98475,
          "durationTicks": 14
        },
        {
          "time": 318.549084,
          "midi": 64,
          "name": "E4",
          "velocity": 0.937007874015748,
          "duration": 0.04374999999998863,
          "ticks": 98490,
          "durationTicks": 14
        },
        {
          "time": 318.595959,
          "midi": 66,
          "name": "F#4",
          "velocity": 0.8503937007874016,
          "duration": 0.04374999999998863,
          "ticks": 98505,
          "durationTicks": 14
        },
        {
          "time": 319.017834,
          "midi": 74,
          "name": "D5",
          "velocity": 0.8267716535433071,
          "duration": 0.04374999999998863,
          "ticks": 98640,
          "durationTicks": 14
        },
        {
          "time": 319.064709,
          "midi": 76,
          "name": "E5",
          "velocity": 0.6535433070866141,
          "duration": 0.04374999999998863,
          "ticks": 98655,
          "durationTicks": 14
        },
        {
          "time": 319.111584,
          "midi": 74,
          "name": "D5",
          "velocity": 0.8818897637795275,
          "duration": 0.04374999999998863,
          "ticks": 98670,
          "durationTicks": 14
        },
        {
          "time": 319.158459,
          "midi": 76,
          "name": "E5",
          "velocity": 0.7086614173228346,
          "duration": 0.04374999999998863,
          "ticks": 98685,
          "durationTicks": 14
        },
        {
          "time": 319.205334,
          "midi": 74,
          "name": "D5",
          "velocity": 0.937007874015748,
          "duration": 0.04374999999998863,
          "ticks": 98700,
          "durationTicks": 14
        },
        {
          "time": 319.252209,
          "midi": 76,
          "name": "E5",
          "velocity": 0.8031496062992126,
          "duration": 0.04374999999998863,
          "ticks": 98715,
          "durationTicks": 14
        },
        {
          "time": 319.299084,
          "midi": 73,
          "name": "C#5",
          "velocity": 0.937007874015748,
          "duration": 0.04374999999998863,
          "ticks": 98730,
          "durationTicks": 14
        },
        {
          "time": 319.345959,
          "midi": 74,
          "name": "D5",
          "velocity": 0.8503937007874016,
          "duration": 0.04374999999998863,
          "ticks": 98745,
          "durationTicks": 14
        },
        {
          "time": 319.767834,
          "midi": 76,
          "name": "E5",
          "velocity": 0.8267716535433071,
          "duration": 0.04374999999998863,
          "ticks": 98880,
          "durationTicks": 14
        },
        {
          "time": 319.814709,
          "midi": 78,
          "name": "F#5",
          "velocity": 0.6535433070866141,
          "duration": 0.04374999999998863,
          "ticks": 98895,
          "durationTicks": 14
        },
        {
          "time": 319.861584,
          "midi": 76,
          "name": "E5",
          "velocity": 0.8818897637795275,
          "duration": 0.04374999999998863,
          "ticks": 98910,
          "durationTicks": 14
        },
        {
          "time": 319.908459,
          "midi": 78,
          "name": "F#5",
          "velocity": 0.7086614173228346,
          "duration": 0.04374999999998863,
          "ticks": 98925,
          "durationTicks": 14
        },
        {
          "time": 319.955334,
          "midi": 76,
          "name": "E5",
          "velocity": 0.937007874015748,
          "duration": 0.04374999999998863,
          "ticks": 98940,
          "durationTicks": 14
        },
        {
          "time": 320.002209,
          "midi": 78,
          "name": "F#5",
          "velocity": 0.8031496062992126,
          "duration": 0.04374999999998863,
          "ticks": 98955,
          "durationTicks": 14
        },
        {
          "time": 320.049084,
          "midi": 74,
          "name": "D5",
          "velocity": 0.937007874015748,
          "duration": 0.04374999999998863,
          "ticks": 98970,
          "durationTicks": 14
        },
        {
          "time": 320.095959,
          "midi": 76,
          "name": "E5",
          "velocity": 0.8503937007874016,
          "duration": 0.04374999999998863,
          "ticks": 98985,
          "durationTicks": 14
        },
        {
          "time": 320.517834,
          "midi": 78,
          "name": "F#5",
          "velocity": 0.8267716535433071,
          "duration": 0.04374999999998863,
          "ticks": 99120,
          "durationTicks": 14
        },
        {
          "time": 320.564709,
          "midi": 79,
          "name": "G5",
          "velocity": 0.6535433070866141,
          "duration": 0.04374999999998863,
          "ticks": 99135,
          "durationTicks": 14
        },
        {
          "time": 320.611584,
          "midi": 78,
          "name": "F#5",
          "velocity": 0.8818897637795275,
          "duration": 0.04374999999998863,
          "ticks": 99150,
          "durationTicks": 14
        },
        {
          "time": 320.658459,
          "midi": 79,
          "name": "G5",
          "velocity": 0.7086614173228346,
          "duration": 0.04374999999998863,
          "ticks": 99165,
          "durationTicks": 14
        },
        {
          "time": 320.705334,
          "midi": 78,
          "name": "F#5",
          "velocity": 0.937007874015748,
          "duration": 0.04374999999998863,
          "ticks": 99180,
          "durationTicks": 14
        },
        {
          "time": 320.752209,
          "midi": 79,
          "name": "G5",
          "velocity": 0.8031496062992126,
          "duration": 0.04374999999998863,
          "ticks": 99195,
          "durationTicks": 14
        },
        {
          "time": 320.799084,
          "midi": 76,
          "name": "E5",
          "velocity": 0.937007874015748,
          "duration": 0.04374999999998863,
          "ticks": 99210,
          "durationTicks": 14
        },
        {
          "time": 320.845959,
          "midi": 78,
          "name": "F#5",
          "velocity": 0.8503937007874016,
          "duration": 0.04374999999998863,
          "ticks": 99225,
          "durationTicks": 14
        },
        {
          "time": 322.767834,
          "midi": 81,
          "name": "A5",
          "velocity": 0.8267716535433071,
          "duration": 0.04374999999998863,
          "ticks": 99840,
          "durationTicks": 14
        },
        {
          "time": 322.814709,
          "midi": 83,
          "name": "B5",
          "velocity": 0.6535433070866141,
          "duration": 0.04374999999998863,
          "ticks": 99855,
          "durationTicks": 14
        },
        {
          "time": 322.861584,
          "midi": 81,
          "name": "A5",
          "velocity": 0.8818897637795275,
          "duration": 0.04374999999998863,
          "ticks": 99870,
          "durationTicks": 14
        },
        {
          "time": 322.908459,
          "midi": 83,
          "name": "B5",
          "velocity": 0.7086614173228346,
          "duration": 0.04374999999998863,
          "ticks": 99885,
          "durationTicks": 14
        },
        {
          "time": 322.955334,
          "midi": 81,
          "name": "A5",
          "velocity": 0.937007874015748,
          "duration": 0.04374999999998863,
          "ticks": 99900,
          "durationTicks": 14
        },
        {
          "time": 323.002209,
          "midi": 83,
          "name": "B5",
          "velocity": 0.8031496062992126,
          "duration": 0.04374999999998863,
          "ticks": 99915,
          "durationTicks": 14
        },
        {
          "time": 323.049084,
          "midi": 79,
          "name": "G5",
          "velocity": 0.937007874015748,
          "duration": 0.04374999999998863,
          "ticks": 99930,
          "durationTicks": 14
        },
        {
          "time": 323.095959,
          "midi": 81,
          "name": "A5",
          "velocity": 0.8503937007874016,
          "duration": 0.04374999999998863,
          "ticks": 99945,
          "durationTicks": 14
        },
        {
          "time": 323.517834,
          "midi": 81,
          "name": "A5",
          "velocity": 0.8267716535433071,
          "duration": 0.04374999999998863,
          "ticks": 100080,
          "durationTicks": 14
        },
        {
          "time": 323.564709,
          "midi": 83,
          "name": "B5",
          "velocity": 0.6535433070866141,
          "duration": 0.04374999999998863,
          "ticks": 100095,
          "durationTicks": 14
        },
        {
          "time": 323.611584,
          "midi": 81,
          "name": "A5",
          "velocity": 0.8818897637795275,
          "duration": 0.04374999999998863,
          "ticks": 100110,
          "durationTicks": 14
        },
        {
          "time": 323.658459,
          "midi": 83,
          "name": "B5",
          "velocity": 0.7086614173228346,
          "duration": 0.04374999999998863,
          "ticks": 100125,
          "durationTicks": 14
        },
        {
          "time": 323.705334,
          "midi": 81,
          "name": "A5",
          "velocity": 0.937007874015748,
          "duration": 0.04374999999998863,
          "ticks": 100140,
          "durationTicks": 14
        },
        {
          "time": 323.752209,
          "midi": 83,
          "name": "B5",
          "velocity": 0.8031496062992126,
          "duration": 0.04374999999998863,
          "ticks": 100155,
          "durationTicks": 14
        },
        {
          "time": 323.799084,
          "midi": 79,
          "name": "G5",
          "velocity": 0.937007874015748,
          "duration": 0.04374999999998863,
          "ticks": 100170,
          "durationTicks": 14
        },
        {
          "time": 323.845959,
          "midi": 81,
          "name": "A5",
          "velocity": 0.8503937007874016,
          "duration": 0.04374999999998863,
          "ticks": 100185,
          "durationTicks": 14
        },
        {
          "time": 325.767834,
          "midi": 76,
          "name": "E5",
          "velocity": 0.8267716535433071,
          "duration": 0.04374999999998863,
          "ticks": 100800,
          "durationTicks": 14
        },
        {
          "time": 325.814709,
          "midi": 78,
          "name": "F#5",
          "velocity": 0.6535433070866141,
          "duration": 0.04374999999998863,
          "ticks": 100815,
          "durationTicks": 14
        },
        {
          "time": 325.861584,
          "midi": 76,
          "name": "E5",
          "velocity": 0.8818897637795275,
          "duration": 0.04374999999998863,
          "ticks": 100830,
          "durationTicks": 14
        },
        {
          "time": 325.908459,
          "midi": 78,
          "name": "F#5",
          "velocity": 0.7086614173228346,
          "duration": 0.04374999999998863,
          "ticks": 100845,
          "durationTicks": 14
        },
        {
          "time": 325.955334,
          "midi": 76,
          "name": "E5",
          "velocity": 0.937007874015748,
          "duration": 0.04374999999998863,
          "ticks": 100860,
          "durationTicks": 14
        },
        {
          "time": 326.002209,
          "midi": 78,
          "name": "F#5",
          "velocity": 0.8031496062992126,
          "duration": 0.04374999999998863,
          "ticks": 100875,
          "durationTicks": 14
        },
        {
          "time": 326.049084,
          "midi": 75,
          "name": "D#5",
          "velocity": 0.937007874015748,
          "duration": 0.04374999999998863,
          "ticks": 100890,
          "durationTicks": 14
        },
        {
          "time": 326.095959,
          "midi": 76,
          "name": "E5",
          "velocity": 0.8503937007874016,
          "duration": 0.04374999999998863,
          "ticks": 100905,
          "durationTicks": 14
        },
        {
          "time": 326.517834,
          "midi": 81,
          "name": "A5",
          "velocity": 0.8267716535433071,
          "duration": 0.04374999999998863,
          "ticks": 101040,
          "durationTicks": 14
        },
        {
          "time": 326.564709,
          "midi": 83,
          "name": "B5",
          "velocity": 0.6535433070866141,
          "duration": 0.04374999999998863,
          "ticks": 101055,
          "durationTicks": 14
        },
        {
          "time": 326.611584,
          "midi": 81,
          "name": "A5",
          "velocity": 0.8818897637795275,
          "duration": 0.04374999999998863,
          "ticks": 101070,
          "durationTicks": 14
        },
        {
          "time": 326.658459,
          "midi": 83,
          "name": "B5",
          "velocity": 0.7086614173228346,
          "duration": 0.04374999999998863,
          "ticks": 101085,
          "durationTicks": 14
        },
        {
          "time": 326.705334,
          "midi": 81,
          "name": "A5",
          "velocity": 0.937007874015748,
          "duration": 0.04374999999998863,
          "ticks": 101100,
          "durationTicks": 14
        },
        {
          "time": 326.752209,
          "midi": 83,
          "name": "B5",
          "velocity": 0.8031496062992126,
          "duration": 0.04374999999998863,
          "ticks": 101115,
          "durationTicks": 14
        },
        {
          "time": 326.799084,
          "midi": 80,
          "name": "G#5",
          "velocity": 0.937007874015748,
          "duration": 0.04374999999998863,
          "ticks": 101130,
          "durationTicks": 14
        },
        {
          "time": 326.845959,
          "midi": 81,
          "name": "A5",
          "velocity": 0.8503937007874016,
          "duration": 0.04374999999998863,
          "ticks": 101145,
          "durationTicks": 14
        },
        {
          "time": 327.267834,
          "midi": 81,
          "name": "A5",
          "velocity": 0.8267716535433071,
          "duration": 0.04374999999998863,
          "ticks": 101280,
          "durationTicks": 14
        },
        {
          "time": 327.314709,
          "midi": 83,
          "name": "B5",
          "velocity": 0.6535433070866141,
          "duration": 0.04374999999998863,
          "ticks": 101295,
          "durationTicks": 14
        },
        {
          "time": 327.361584,
          "midi": 81,
          "name": "A5",
          "velocity": 0.8818897637795275,
          "duration": 0.04374999999998863,
          "ticks": 101310,
          "durationTicks": 14
        },
        {
          "time": 327.408459,
          "midi": 83,
          "name": "B5",
          "velocity": 0.7086614173228346,
          "duration": 0.04374999999998863,
          "ticks": 101325,
          "durationTicks": 14
        },
        {
          "time": 327.455334,
          "midi": 81,
          "name": "A5",
          "velocity": 0.937007874015748,
          "duration": 0.04374999999998863,
          "ticks": 101340,
          "durationTicks": 14
        },
        {
          "time": 327.502209,
          "midi": 83,
          "name": "B5",
          "velocity": 0.8031496062992126,
          "duration": 0.04374999999998863,
          "ticks": 101355,
          "durationTicks": 14
        },
        {
          "time": 327.549084,
          "midi": 80,
          "name": "G#5",
          "velocity": 0.937007874015748,
          "duration": 0.04374999999998863,
          "ticks": 101370,
          "durationTicks": 14
        },
        {
          "time": 327.595959,
          "midi": 81,
          "name": "A5",
          "velocity": 0.8503937007874016,
          "duration": 0.04374999999998863,
          "ticks": 101385,
          "durationTicks": 14
        },
        {
          "time": 328.017834,
          "midi": 81,
          "name": "A5",
          "velocity": 0.8267716535433071,
          "duration": 0.04374999999998863,
          "ticks": 101520,
          "durationTicks": 14
        },
        {
          "time": 328.064709,
          "midi": 83,
          "name": "B5",
          "velocity": 0.6535433070866141,
          "duration": 0.04374999999998863,
          "ticks": 101535,
          "durationTicks": 14
        },
        {
          "time": 328.111584,
          "midi": 81,
          "name": "A5",
          "velocity": 0.8818897637795275,
          "duration": 0.04374999999998863,
          "ticks": 101550,
          "durationTicks": 14
        },
        {
          "time": 328.158459,
          "midi": 83,
          "name": "B5",
          "velocity": 0.7086614173228346,
          "duration": 0.04374999999998863,
          "ticks": 101565,
          "durationTicks": 14
        },
        {
          "time": 328.205334,
          "midi": 81,
          "name": "A5",
          "velocity": 0.937007874015748,
          "duration": 0.04374999999998863,
          "ticks": 101580,
          "durationTicks": 14
        },
        {
          "time": 328.252209,
          "midi": 83,
          "name": "B5",
          "velocity": 0.8031496062992126,
          "duration": 0.04374999999998863,
          "ticks": 101595,
          "durationTicks": 14
        },
        {
          "time": 328.299084,
          "midi": 80,
          "name": "G#5",
          "velocity": 0.937007874015748,
          "duration": 0.04374999999998863,
          "ticks": 101610,
          "durationTicks": 14
        },
        {
          "time": 328.345959,
          "midi": 81,
          "name": "A5",
          "velocity": 0.8503937007874016,
          "duration": 0.04374999999998863,
          "ticks": 101625,
          "durationTicks": 14
        },
        {
          "time": 328.767834,
          "midi": 83,
          "name": "B5",
          "velocity": 0.8267716535433071,
          "duration": 0.04374999999998863,
          "ticks": 101760,
          "durationTicks": 14
        },
        {
          "time": 328.814709,
          "midi": 85,
          "name": "C#6",
          "velocity": 0.6535433070866141,
          "duration": 0.04374999999998863,
          "ticks": 101775,
          "durationTicks": 14
        },
        {
          "time": 328.861584,
          "midi": 83,
          "name": "B5",
          "velocity": 0.8818897637795275,
          "duration": 0.04374999999998863,
          "ticks": 101790,
          "durationTicks": 14
        },
        {
          "time": 328.908459,
          "midi": 85,
          "name": "C#6",
          "velocity": 0.7086614173228346,
          "duration": 0.04374999999998863,
          "ticks": 101805,
          "durationTicks": 14
        },
        {
          "time": 328.955334,
          "midi": 83,
          "name": "B5",
          "velocity": 0.937007874015748,
          "duration": 0.04374999999998863,
          "ticks": 101820,
          "durationTicks": 14
        },
        {
          "time": 329.002209,
          "midi": 85,
          "name": "C#6",
          "velocity": 0.8031496062992126,
          "duration": 0.04374999999998863,
          "ticks": 101835,
          "durationTicks": 14
        },
        {
          "time": 329.049084,
          "midi": 81,
          "name": "A5",
          "velocity": 0.937007874015748,
          "duration": 0.04374999999998863,
          "ticks": 101850,
          "durationTicks": 14
        },
        {
          "time": 329.095959,
          "midi": 83,
          "name": "B5",
          "velocity": 0.8503937007874016,
          "duration": 0.04374999999998863,
          "ticks": 101865,
          "durationTicks": 14
        },
        {
          "time": 329.517834,
          "midi": 85,
          "name": "C#6",
          "velocity": 0.8267716535433071,
          "duration": 0.04374999999998863,
          "ticks": 102000,
          "durationTicks": 14
        },
        {
          "time": 329.564709,
          "midi": 86,
          "name": "D6",
          "velocity": 0.6535433070866141,
          "duration": 0.04374999999998863,
          "ticks": 102015,
          "durationTicks": 14
        },
        {
          "time": 329.611584,
          "midi": 85,
          "name": "C#6",
          "velocity": 0.8818897637795275,
          "duration": 0.04374999999998863,
          "ticks": 102030,
          "durationTicks": 14
        },
        {
          "time": 329.658459,
          "midi": 86,
          "name": "D6",
          "velocity": 0.7086614173228346,
          "duration": 0.04374999999998863,
          "ticks": 102045,
          "durationTicks": 14
        },
        {
          "time": 329.705334,
          "midi": 85,
          "name": "C#6",
          "velocity": 0.937007874015748,
          "duration": 0.04374999999998863,
          "ticks": 102060,
          "durationTicks": 14
        },
        {
          "time": 329.752209,
          "midi": 86,
          "name": "D6",
          "velocity": 0.8031496062992126,
          "duration": 0.04374999999998863,
          "ticks": 102075,
          "durationTicks": 14
        },
        {
          "time": 329.799084,
          "midi": 83,
          "name": "B5",
          "velocity": 0.937007874015748,
          "duration": 0.04374999999998863,
          "ticks": 102090,
          "durationTicks": 14
        },
        {
          "time": 329.845959,
          "midi": 85,
          "name": "C#6",
          "velocity": 0.8503937007874016,
          "duration": 0.04374999999998863,
          "ticks": 102105,
          "durationTicks": 14
        },
        {
          "time": 330.267834,
          "midi": 78,
          "name": "F#5",
          "velocity": 0.8267716535433071,
          "duration": 0.04374999999998863,
          "ticks": 102240,
          "durationTicks": 14
        },
        {
          "time": 330.314709,
          "midi": 79,
          "name": "G5",
          "velocity": 0.6535433070866141,
          "duration": 0.04374999999998863,
          "ticks": 102255,
          "durationTicks": 14
        },
        {
          "time": 330.361584,
          "midi": 78,
          "name": "F#5",
          "velocity": 0.8818897637795275,
          "duration": 0.04374999999998863,
          "ticks": 102270,
          "durationTicks": 14
        },
        {
          "time": 330.408459,
          "midi": 79,
          "name": "G5",
          "velocity": 0.7086614173228346,
          "duration": 0.04374999999998863,
          "ticks": 102285,
          "durationTicks": 14
        },
        {
          "time": 330.455334,
          "midi": 78,
          "name": "F#5",
          "velocity": 0.937007874015748,
          "duration": 0.04374999999998863,
          "ticks": 102300,
          "durationTicks": 14
        },
        {
          "time": 330.502209,
          "midi": 79,
          "name": "G5",
          "velocity": 0.8031496062992126,
          "duration": 0.04374999999998863,
          "ticks": 102315,
          "durationTicks": 14
        },
        {
          "time": 330.549084,
          "midi": 76,
          "name": "E5",
          "velocity": 0.937007874015748,
          "duration": 0.04374999999998863,
          "ticks": 102330,
          "durationTicks": 14
        },
        {
          "time": 330.595959,
          "midi": 78,
          "name": "F#5",
          "velocity": 0.8503937007874016,
          "duration": 0.04374999999998863,
          "ticks": 102345,
          "durationTicks": 14
        },
        {
          "time": 330.642834,
          "midi": 78,
          "name": "F#5",
          "velocity": 1,
          "duration": 0.37187499999998863,
          "ticks": 102360,
          "durationTicks": 119
        },
        {
          "time": 331.205334,
          "midi": 78,
          "name": "F#5",
          "velocity": 1,
          "duration": 0.18437499999998863,
          "ticks": 102540,
          "durationTicks": 59
        },
        {
          "time": 331.392834,
          "midi": 76,
          "name": "E5",
          "velocity": 0.937007874015748,
          "duration": 0.37187499999998863,
          "ticks": 102600,
          "durationTicks": 119
        },
        {
          "time": 331.955334,
          "midi": 69,
          "name": "A4",
          "velocity": 0.905511811023622,
          "duration": 0.18437499999998863,
          "ticks": 102780,
          "durationTicks": 59
        },
        {
          "time": 332.142834,
          "midi": 74,
          "name": "D5",
          "velocity": 0.9763779527559056,
          "duration": 0.37187499999998863,
          "ticks": 102840,
          "durationTicks": 119
        },
        {
          "time": 333.267834,
          "midi": 76,
          "name": "E5",
          "velocity": 0.8267716535433071,
          "duration": 0.04374999999998863,
          "ticks": 103200,
          "durationTicks": 14
        },
        {
          "time": 333.314709,
          "midi": 78,
          "name": "F#5",
          "velocity": 0.6535433070866141,
          "duration": 0.04374999999998863,
          "ticks": 103215,
          "durationTicks": 14
        },
        {
          "time": 333.361584,
          "midi": 76,
          "name": "E5",
          "velocity": 0.8818897637795275,
          "duration": 0.04374999999998863,
          "ticks": 103230,
          "durationTicks": 14
        },
        {
          "time": 333.408459,
          "midi": 78,
          "name": "F#5",
          "velocity": 0.7086614173228346,
          "duration": 0.04374999999998863,
          "ticks": 103245,
          "durationTicks": 14
        },
        {
          "time": 333.455334,
          "midi": 76,
          "name": "E5",
          "velocity": 0.937007874015748,
          "duration": 0.04374999999998863,
          "ticks": 103260,
          "durationTicks": 14
        },
        {
          "time": 333.502209,
          "midi": 78,
          "name": "F#5",
          "velocity": 0.8031496062992126,
          "duration": 0.04374999999998863,
          "ticks": 103275,
          "durationTicks": 14
        },
        {
          "time": 333.549084,
          "midi": 74,
          "name": "D5",
          "velocity": 0.937007874015748,
          "duration": 0.04374999999998863,
          "ticks": 103290,
          "durationTicks": 14
        },
        {
          "time": 333.595959,
          "midi": 76,
          "name": "E5",
          "velocity": 0.8503937007874016,
          "duration": 0.04374999999998863,
          "ticks": 103305,
          "durationTicks": 14
        },
        {
          "time": 334.017834,
          "midi": 78,
          "name": "F#5",
          "velocity": 0.8267716535433071,
          "duration": 0.04374999999998863,
          "ticks": 103440,
          "durationTicks": 14
        },
        {
          "time": 334.064709,
          "midi": 79,
          "name": "G5",
          "velocity": 0.6535433070866141,
          "duration": 0.04374999999998863,
          "ticks": 103455,
          "durationTicks": 14
        },
        {
          "time": 334.111584,
          "midi": 78,
          "name": "F#5",
          "velocity": 0.8818897637795275,
          "duration": 0.04374999999998863,
          "ticks": 103470,
          "durationTicks": 14
        },
        {
          "time": 334.158459,
          "midi": 79,
          "name": "G5",
          "velocity": 0.7086614173228346,
          "duration": 0.04374999999998863,
          "ticks": 103485,
          "durationTicks": 14
        },
        {
          "time": 334.205334,
          "midi": 78,
          "name": "F#5",
          "velocity": 0.937007874015748,
          "duration": 0.04374999999998863,
          "ticks": 103500,
          "durationTicks": 14
        },
        {
          "time": 334.252209,
          "midi": 79,
          "name": "G5",
          "velocity": 0.8031496062992126,
          "duration": 0.04374999999998863,
          "ticks": 103515,
          "durationTicks": 14
        },
        {
          "time": 334.299084,
          "midi": 76,
          "name": "E5",
          "velocity": 0.937007874015748,
          "duration": 0.04374999999998863,
          "ticks": 103530,
          "durationTicks": 14
        },
        {
          "time": 334.345959,
          "midi": 78,
          "name": "F#5",
          "velocity": 0.8503937007874016,
          "duration": 0.04374999999998863,
          "ticks": 103545,
          "durationTicks": 14
        },
        {
          "time": 334.767834,
          "midi": 76,
          "name": "E5",
          "velocity": 0.8267716535433071,
          "duration": 0.04374999999998863,
          "ticks": 103680,
          "durationTicks": 14
        },
        {
          "time": 334.814709,
          "midi": 78,
          "name": "F#5",
          "velocity": 0.6535433070866141,
          "duration": 0.04374999999998863,
          "ticks": 103695,
          "durationTicks": 14
        },
        {
          "time": 334.861584,
          "midi": 76,
          "name": "E5",
          "velocity": 0.8818897637795275,
          "duration": 0.04374999999998863,
          "ticks": 103710,
          "durationTicks": 14
        },
        {
          "time": 334.908459,
          "midi": 78,
          "name": "F#5",
          "velocity": 0.7086614173228346,
          "duration": 0.04374999999998863,
          "ticks": 103725,
          "durationTicks": 14
        },
        {
          "time": 334.955334,
          "midi": 76,
          "name": "E5",
          "velocity": 0.937007874015748,
          "duration": 0.04374999999998863,
          "ticks": 103740,
          "durationTicks": 14
        },
        {
          "time": 335.002209,
          "midi": 78,
          "name": "F#5",
          "velocity": 0.8031496062992126,
          "duration": 0.04374999999998863,
          "ticks": 103755,
          "durationTicks": 14
        },
        {
          "time": 335.049084,
          "midi": 74,
          "name": "D5",
          "velocity": 0.937007874015748,
          "duration": 0.04374999999998863,
          "ticks": 103770,
          "durationTicks": 14
        },
        {
          "time": 335.095959,
          "midi": 76,
          "name": "E5",
          "velocity": 0.8503937007874016,
          "duration": 0.04374999999998863,
          "ticks": 103785,
          "durationTicks": 14
        },
        {
          "time": 335.517834,
          "midi": 78,
          "name": "F#5",
          "velocity": 0.8267716535433071,
          "duration": 0.04374999999998863,
          "ticks": 103920,
          "durationTicks": 14
        },
        {
          "time": 335.564709,
          "midi": 79,
          "name": "G5",
          "velocity": 0.6535433070866141,
          "duration": 0.04374999999998863,
          "ticks": 103935,
          "durationTicks": 14
        },
        {
          "time": 335.611584,
          "midi": 78,
          "name": "F#5",
          "velocity": 0.8818897637795275,
          "duration": 0.04374999999998863,
          "ticks": 103950,
          "durationTicks": 14
        },
        {
          "time": 335.658459,
          "midi": 79,
          "name": "G5",
          "velocity": 0.7086614173228346,
          "duration": 0.04374999999998863,
          "ticks": 103965,
          "durationTicks": 14
        },
        {
          "time": 335.705334,
          "midi": 78,
          "name": "F#5",
          "velocity": 0.937007874015748,
          "duration": 0.04374999999998863,
          "ticks": 103980,
          "durationTicks": 14
        },
        {
          "time": 335.752209,
          "midi": 79,
          "name": "G5",
          "velocity": 0.8031496062992126,
          "duration": 0.04374999999998863,
          "ticks": 103995,
          "durationTicks": 14
        },
        {
          "time": 335.799084,
          "midi": 76,
          "name": "E5",
          "velocity": 0.937007874015748,
          "duration": 0.04374999999998863,
          "ticks": 104010,
          "durationTicks": 14
        },
        {
          "time": 335.845959,
          "midi": 78,
          "name": "F#5",
          "velocity": 0.8503937007874016,
          "duration": 0.04374999999998863,
          "ticks": 104025,
          "durationTicks": 14
        },
        {
          "time": 336.267834,
          "midi": 76,
          "name": "E5",
          "velocity": 0.8267716535433071,
          "duration": 0.04374999999998863,
          "ticks": 104160,
          "durationTicks": 14
        },
        {
          "time": 336.314709,
          "midi": 78,
          "name": "F#5",
          "velocity": 0.6535433070866141,
          "duration": 0.04374999999998863,
          "ticks": 104175,
          "durationTicks": 14
        },
        {
          "time": 336.361584,
          "midi": 76,
          "name": "E5",
          "velocity": 0.8818897637795275,
          "duration": 0.04374999999998863,
          "ticks": 104190,
          "durationTicks": 14
        },
        {
          "time": 336.408459,
          "midi": 78,
          "name": "F#5",
          "velocity": 0.7086614173228346,
          "duration": 0.04374999999998863,
          "ticks": 104205,
          "durationTicks": 14
        },
        {
          "time": 336.455334,
          "midi": 76,
          "name": "E5",
          "velocity": 0.937007874015748,
          "duration": 0.04374999999998863,
          "ticks": 104220,
          "durationTicks": 14
        },
        {
          "time": 336.502209,
          "midi": 78,
          "name": "F#5",
          "velocity": 0.8031496062992126,
          "duration": 0.04374999999998863,
          "ticks": 104235,
          "durationTicks": 14
        },
        {
          "time": 336.549084,
          "midi": 74,
          "name": "D5",
          "velocity": 0.937007874015748,
          "duration": 0.04374999999998863,
          "ticks": 104250,
          "durationTicks": 14
        },
        {
          "time": 336.595959,
          "midi": 76,
          "name": "E5",
          "velocity": 0.8503937007874016,
          "duration": 0.04374999999998863,
          "ticks": 104265,
          "durationTicks": 14
        },
        {
          "time": 337.017834,
          "midi": 78,
          "name": "F#5",
          "velocity": 0.8267716535433071,
          "duration": 0.04374999999998863,
          "ticks": 104400,
          "durationTicks": 14
        },
        {
          "time": 337.064709,
          "midi": 79,
          "name": "G5",
          "velocity": 0.6535433070866141,
          "duration": 0.04374999999998863,
          "ticks": 104415,
          "durationTicks": 14
        },
        {
          "time": 337.111584,
          "midi": 78,
          "name": "F#5",
          "velocity": 0.8818897637795275,
          "duration": 0.04374999999998863,
          "ticks": 104430,
          "durationTicks": 14
        },
        {
          "time": 337.158459,
          "midi": 79,
          "name": "G5",
          "velocity": 0.7086614173228346,
          "duration": 0.04374999999998863,
          "ticks": 104445,
          "durationTicks": 14
        },
        {
          "time": 337.205334,
          "midi": 78,
          "name": "F#5",
          "velocity": 0.937007874015748,
          "duration": 0.04374999999998863,
          "ticks": 104460,
          "durationTicks": 14
        },
        {
          "time": 337.252209,
          "midi": 79,
          "name": "G5",
          "velocity": 0.8031496062992126,
          "duration": 0.04374999999998863,
          "ticks": 104475,
          "durationTicks": 14
        },
        {
          "time": 337.299084,
          "midi": 76,
          "name": "E5",
          "velocity": 0.937007874015748,
          "duration": 0.04374999999998863,
          "ticks": 104490,
          "durationTicks": 14
        },
        {
          "time": 337.345959,
          "midi": 78,
          "name": "F#5",
          "velocity": 0.8503937007874016,
          "duration": 0.04374999999998863,
          "ticks": 104505,
          "durationTicks": 14
        },
        {
          "time": 337.767834,
          "midi": 86,
          "name": "D6",
          "velocity": 0.8267716535433071,
          "duration": 0.04374999999998863,
          "ticks": 104640,
          "durationTicks": 14
        },
        {
          "time": 337.814709,
          "midi": 88,
          "name": "E6",
          "velocity": 0.6535433070866141,
          "duration": 0.04374999999998863,
          "ticks": 104655,
          "durationTicks": 14
        },
        {
          "time": 337.861584,
          "midi": 86,
          "name": "D6",
          "velocity": 0.8818897637795275,
          "duration": 0.04374999999998863,
          "ticks": 104670,
          "durationTicks": 14
        },
        {
          "time": 337.908459,
          "midi": 88,
          "name": "E6",
          "velocity": 0.7086614173228346,
          "duration": 0.04374999999998863,
          "ticks": 104685,
          "durationTicks": 14
        },
        {
          "time": 337.955334,
          "midi": 86,
          "name": "D6",
          "velocity": 0.937007874015748,
          "duration": 0.04374999999998863,
          "ticks": 104700,
          "durationTicks": 14
        },
        {
          "time": 338.002209,
          "midi": 88,
          "name": "E6",
          "velocity": 0.8031496062992126,
          "duration": 0.04374999999998863,
          "ticks": 104715,
          "durationTicks": 14
        },
        {
          "time": 338.049084,
          "midi": 85,
          "name": "C#6",
          "velocity": 0.937007874015748,
          "duration": 0.04374999999998863,
          "ticks": 104730,
          "durationTicks": 14
        },
        {
          "time": 338.095959,
          "midi": 86,
          "name": "D6",
          "velocity": 0.8503937007874016,
          "duration": 0.04374999999998863,
          "ticks": 104745,
          "durationTicks": 14
        },
        {
          "time": 338.517834,
          "midi": 81,
          "name": "A5",
          "velocity": 0.8267716535433071,
          "duration": 0.04374999999998863,
          "ticks": 104880,
          "durationTicks": 14
        },
        {
          "time": 338.564709,
          "midi": 83,
          "name": "B5",
          "velocity": 0.6535433070866141,
          "duration": 0.04374999999998863,
          "ticks": 104895,
          "durationTicks": 14
        },
        {
          "time": 338.611584,
          "midi": 81,
          "name": "A5",
          "velocity": 0.8818897637795275,
          "duration": 0.04374999999998863,
          "ticks": 104910,
          "durationTicks": 14
        },
        {
          "time": 338.658459,
          "midi": 83,
          "name": "B5",
          "velocity": 0.7086614173228346,
          "duration": 0.04374999999998863,
          "ticks": 104925,
          "durationTicks": 14
        },
        {
          "time": 338.705334,
          "midi": 81,
          "name": "A5",
          "velocity": 0.937007874015748,
          "duration": 0.04374999999998863,
          "ticks": 104940,
          "durationTicks": 14
        },
        {
          "time": 338.752209,
          "midi": 83,
          "name": "B5",
          "velocity": 0.8031496062992126,
          "duration": 0.04374999999998863,
          "ticks": 104955,
          "durationTicks": 14
        },
        {
          "time": 338.799084,
          "midi": 80,
          "name": "G#5",
          "velocity": 0.937007874015748,
          "duration": 0.04374999999998863,
          "ticks": 104970,
          "durationTicks": 14
        },
        {
          "time": 338.845959,
          "midi": 81,
          "name": "A5",
          "velocity": 0.8503937007874016,
          "duration": 0.04374999999998863,
          "ticks": 104985,
          "durationTicks": 14
        },
        {
          "time": 339.267834,
          "midi": 78,
          "name": "F#5",
          "velocity": 0.8267716535433071,
          "duration": 0.04374999999998863,
          "ticks": 105120,
          "durationTicks": 14
        },
        {
          "time": 339.314709,
          "midi": 79,
          "name": "G5",
          "velocity": 0.6535433070866141,
          "duration": 0.04374999999998863,
          "ticks": 105135,
          "durationTicks": 14
        },
        {
          "time": 339.361584,
          "midi": 78,
          "name": "F#5",
          "velocity": 0.8818897637795275,
          "duration": 0.04374999999998863,
          "ticks": 105150,
          "durationTicks": 14
        },
        {
          "time": 339.408459,
          "midi": 79,
          "name": "G5",
          "velocity": 0.7086614173228346,
          "duration": 0.04374999999998863,
          "ticks": 105165,
          "durationTicks": 14
        },
        {
          "time": 339.455334,
          "midi": 78,
          "name": "F#5",
          "velocity": 0.937007874015748,
          "duration": 0.04374999999998863,
          "ticks": 105180,
          "durationTicks": 14
        },
        {
          "time": 339.502209,
          "midi": 79,
          "name": "G5",
          "velocity": 0.8031496062992126,
          "duration": 0.04374999999998863,
          "ticks": 105195,
          "durationTicks": 14
        },
        {
          "time": 339.549084,
          "midi": 76,
          "name": "E5",
          "velocity": 0.937007874015748,
          "duration": 0.04374999999998863,
          "ticks": 105210,
          "durationTicks": 14
        },
        {
          "time": 339.595959,
          "midi": 78,
          "name": "F#5",
          "velocity": 0.8503937007874016,
          "duration": 0.04374999999998863,
          "ticks": 105225,
          "durationTicks": 14
        },
        {
          "time": 340.017834,
          "midi": 86,
          "name": "D6",
          "velocity": 0.8267716535433071,
          "duration": 0.04374999999998863,
          "ticks": 105360,
          "durationTicks": 14
        },
        {
          "time": 340.064709,
          "midi": 88,
          "name": "E6",
          "velocity": 0.6535433070866141,
          "duration": 0.04374999999998863,
          "ticks": 105375,
          "durationTicks": 14
        },
        {
          "time": 340.111584,
          "midi": 86,
          "name": "D6",
          "velocity": 0.8818897637795275,
          "duration": 0.04374999999998863,
          "ticks": 105390,
          "durationTicks": 14
        },
        {
          "time": 340.158459,
          "midi": 88,
          "name": "E6",
          "velocity": 0.7086614173228346,
          "duration": 0.04374999999998863,
          "ticks": 105405,
          "durationTicks": 14
        },
        {
          "time": 340.205334,
          "midi": 86,
          "name": "D6",
          "velocity": 0.937007874015748,
          "duration": 0.04374999999998863,
          "ticks": 105420,
          "durationTicks": 14
        },
        {
          "time": 340.252209,
          "midi": 88,
          "name": "E6",
          "velocity": 0.8031496062992126,
          "duration": 0.04374999999998863,
          "ticks": 105435,
          "durationTicks": 14
        },
        {
          "time": 340.299084,
          "midi": 85,
          "name": "C#6",
          "velocity": 0.937007874015748,
          "duration": 0.04374999999998863,
          "ticks": 105450,
          "durationTicks": 14
        },
        {
          "time": 340.345959,
          "midi": 86,
          "name": "D6",
          "velocity": 0.8503937007874016,
          "duration": 0.04374999999998863,
          "ticks": 105465,
          "durationTicks": 14
        },
        {
          "time": 340.767834,
          "midi": 83,
          "name": "B5",
          "velocity": 0.8267716535433071,
          "duration": 0.04374999999998863,
          "ticks": 105600,
          "durationTicks": 14
        },
        {
          "time": 340.814709,
          "midi": 85,
          "name": "C#6",
          "velocity": 0.6535433070866141,
          "duration": 0.04374999999998863,
          "ticks": 105615,
          "durationTicks": 14
        },
        {
          "time": 340.861584,
          "midi": 83,
          "name": "B5",
          "velocity": 0.8818897637795275,
          "duration": 0.04374999999998863,
          "ticks": 105630,
          "durationTicks": 14
        },
        {
          "time": 340.908459,
          "midi": 85,
          "name": "C#6",
          "velocity": 0.7086614173228346,
          "duration": 0.04374999999998863,
          "ticks": 105645,
          "durationTicks": 14
        },
        {
          "time": 340.955334,
          "midi": 83,
          "name": "B5",
          "velocity": 0.937007874015748,
          "duration": 0.04374999999998863,
          "ticks": 105660,
          "durationTicks": 14
        },
        {
          "time": 341.002209,
          "midi": 85,
          "name": "C#6",
          "velocity": 0.8031496062992126,
          "duration": 0.04374999999998863,
          "ticks": 105675,
          "durationTicks": 14
        },
        {
          "time": 341.049084,
          "midi": 81,
          "name": "A5",
          "velocity": 0.937007874015748,
          "duration": 0.04374999999998863,
          "ticks": 105690,
          "durationTicks": 14
        },
        {
          "time": 341.095959,
          "midi": 83,
          "name": "B5",
          "velocity": 0.8503937007874016,
          "duration": 0.04374999999998863,
          "ticks": 105705,
          "durationTicks": 14
        },
        {
          "time": 341.517834,
          "midi": 79,
          "name": "G5",
          "velocity": 0.8267716535433071,
          "duration": 0.04374999999998863,
          "ticks": 105840,
          "durationTicks": 14
        },
        {
          "time": 341.564709,
          "midi": 81,
          "name": "A5",
          "velocity": 0.6535433070866141,
          "duration": 0.04374999999998863,
          "ticks": 105855,
          "durationTicks": 14
        },
        {
          "time": 341.611584,
          "midi": 79,
          "name": "G5",
          "velocity": 0.8818897637795275,
          "duration": 0.04374999999998863,
          "ticks": 105870,
          "durationTicks": 14
        },
        {
          "time": 341.658459,
          "midi": 81,
          "name": "A5",
          "velocity": 0.7086614173228346,
          "duration": 0.04374999999998863,
          "ticks": 105885,
          "durationTicks": 14
        },
        {
          "time": 341.705334,
          "midi": 79,
          "name": "G5",
          "velocity": 0.937007874015748,
          "duration": 0.04374999999998863,
          "ticks": 105900,
          "durationTicks": 14
        },
        {
          "time": 341.752209,
          "midi": 81,
          "name": "A5",
          "velocity": 0.8031496062992126,
          "duration": 0.04374999999998863,
          "ticks": 105915,
          "durationTicks": 14
        },
        {
          "time": 341.799084,
          "midi": 78,
          "name": "F#5",
          "velocity": 0.937007874015748,
          "duration": 0.04374999999998863,
          "ticks": 105930,
          "durationTicks": 14
        },
        {
          "time": 341.845959,
          "midi": 79,
          "name": "G5",
          "velocity": 0.8503937007874016,
          "duration": 0.04374999999998863,
          "ticks": 105945,
          "durationTicks": 14
        },
        {
          "time": 342.267834,
          "midi": 78,
          "name": "F#5",
          "velocity": 0.8267716535433071,
          "duration": 0.04374999999998863,
          "ticks": 106080,
          "durationTicks": 14
        },
        {
          "time": 342.314709,
          "midi": 79,
          "name": "G5",
          "velocity": 0.6535433070866141,
          "duration": 0.04374999999998863,
          "ticks": 106095,
          "durationTicks": 14
        },
        {
          "time": 342.361584,
          "midi": 78,
          "name": "F#5",
          "velocity": 0.8818897637795275,
          "duration": 0.04374999999998863,
          "ticks": 106110,
          "durationTicks": 14
        },
        {
          "time": 342.408459,
          "midi": 79,
          "name": "G5",
          "velocity": 0.7086614173228346,
          "duration": 0.04374999999998863,
          "ticks": 106125,
          "durationTicks": 14
        },
        {
          "time": 342.455334,
          "midi": 78,
          "name": "F#5",
          "velocity": 0.937007874015748,
          "duration": 0.04374999999998863,
          "ticks": 106140,
          "durationTicks": 14
        },
        {
          "time": 342.502209,
          "midi": 79,
          "name": "G5",
          "velocity": 0.8031496062992126,
          "duration": 0.04374999999998863,
          "ticks": 106155,
          "durationTicks": 14
        },
        {
          "time": 342.549084,
          "midi": 76,
          "name": "E5",
          "velocity": 0.937007874015748,
          "duration": 0.04374999999998863,
          "ticks": 106170,
          "durationTicks": 14
        },
        {
          "time": 342.595959,
          "midi": 78,
          "name": "F#5",
          "velocity": 0.8503937007874016,
          "duration": 0.04374999999998863,
          "ticks": 106185,
          "durationTicks": 14
        },
        {
          "time": 342.642834,
          "midi": 86,
          "name": "D6",
          "velocity": 1,
          "duration": 0.37187499999998863,
          "ticks": 106200,
          "durationTicks": 119
        },
        {
          "time": 343.392834,
          "midi": 88,
          "name": "E6",
          "velocity": 1,
          "duration": 0.37187499999998863,
          "ticks": 106440,
          "durationTicks": 119
        },
        {
          "time": 343.955334,
          "midi": 69,
          "name": "A4",
          "velocity": 0.7086614173228346,
          "duration": 0.18437499999998863,
          "ticks": 106620,
          "durationTicks": 59
        },
        {
          "time": 343.955334,
          "midi": 81,
          "name": "A5",
          "velocity": 0.6220472440944882,
          "duration": 0.18437499999998863,
          "ticks": 106620,
          "durationTicks": 59
        },
        {
          "time": 344.142834,
          "midi": 86,
          "name": "D6",
          "velocity": 1,
          "duration": 0.18437499999998863,
          "ticks": 106680,
          "durationTicks": 59
        },
        {
          "time": 344.330334,
          "midi": 74,
          "name": "D5",
          "velocity": 0.905511811023622,
          "duration": 0.09062499999998863,
          "ticks": 106740,
          "durationTicks": 29
        },
        {
          "time": 344.424084,
          "midi": 73,
          "name": "C#5",
          "velocity": 1,
          "duration": 0.09062499999998863,
          "ticks": 106770,
          "durationTicks": 29
        },
        {
          "time": 344.517834,
          "midi": 74,
          "name": "D5",
          "velocity": 0.8031496062992126,
          "duration": 0.09062499999998863,
          "ticks": 106800,
          "durationTicks": 29
        },
        {
          "time": 344.611584,
          "midi": 76,
          "name": "E5",
          "velocity": 1,
          "duration": 0.09062499999998863,
          "ticks": 106830,
          "durationTicks": 29
        },
        {
          "time": 344.705334,
          "midi": 78,
          "name": "F#5",
          "velocity": 1,
          "duration": 0.09062499999998863,
          "ticks": 106860,
          "durationTicks": 29
        },
        {
          "time": 344.799084,
          "midi": 79,
          "name": "G5",
          "velocity": 1,
          "duration": 0.09062499999998863,
          "ticks": 106890,
          "durationTicks": 29
        },
        {
          "time": 344.892834,
          "midi": 81,
          "name": "A5",
          "velocity": 1,
          "duration": 0.37187499999998863,
          "ticks": 106920,
          "durationTicks": 119
        },
        {
          "time": 344.892834,
          "midi": 69,
          "name": "A4",
          "velocity": 1,
          "duration": 0.37187499999998863,
          "ticks": 106920,
          "durationTicks": 119
        },
        {
          "time": 345.642834,
          "midi": 81,
          "name": "A5",
          "velocity": 1,
          "duration": 0.37187499999998863,
          "ticks": 107160,
          "durationTicks": 119
        },
        {
          "time": 345.642834,
          "midi": 69,
          "name": "A4",
          "velocity": 1,
          "duration": 0.37187499999998863,
          "ticks": 107160,
          "durationTicks": 119
        },
        {
          "time": 346.392834,
          "midi": 83,
          "name": "B5",
          "velocity": 1,
          "duration": 0.37187499999998863,
          "ticks": 107400,
          "durationTicks": 119
        },
        {
          "time": 346.392834,
          "midi": 71,
          "name": "B4",
          "velocity": 1,
          "duration": 0.37187499999998863,
          "ticks": 107400,
          "durationTicks": 119
        },
        {
          "time": 347.142834,
          "midi": 83,
          "name": "B5",
          "velocity": 1,
          "duration": 0.37187499999998863,
          "ticks": 107640,
          "durationTicks": 119
        },
        {
          "time": 347.142834,
          "midi": 71,
          "name": "B4",
          "velocity": 0.937007874015748,
          "duration": 0.37187499999998863,
          "ticks": 107640,
          "durationTicks": 119
        },
        {
          "time": 347.892834,
          "midi": 85,
          "name": "C#6",
          "velocity": 1,
          "duration": 0.37187499999998863,
          "ticks": 107880,
          "durationTicks": 119
        },
        {
          "time": 347.892834,
          "midi": 69,
          "name": "A4",
          "velocity": 1,
          "duration": 0.37187499999998863,
          "ticks": 107880,
          "durationTicks": 119
        },
        {
          "time": 348.642834,
          "midi": 85,
          "name": "C#6",
          "velocity": 1,
          "duration": 0.37187499999998863,
          "ticks": 108120,
          "durationTicks": 119
        },
        {
          "time": 348.642834,
          "midi": 76,
          "name": "E5",
          "velocity": 1,
          "duration": 0.37187499999998863,
          "ticks": 108120,
          "durationTicks": 119
        },
        {
          "time": 349.392834,
          "midi": 86,
          "name": "D6",
          "velocity": 1,
          "duration": 0.37187499999998863,
          "ticks": 108360,
          "durationTicks": 119
        },
        {
          "time": 349.392834,
          "midi": 78,
          "name": "F#5",
          "velocity": 1,
          "duration": 0.37187499999998863,
          "ticks": 108360,
          "durationTicks": 119
        },
        {
          "time": 350.142834,
          "midi": 62,
          "name": "D4",
          "velocity": 0.9763779527559056,
          "duration": 0.37187499999998863,
          "ticks": 108600,
          "durationTicks": 119
        },
        {
          "time": 350.142834,
          "midi": 74,
          "name": "D5",
          "velocity": 1,
          "duration": 0.37187499999998863,
          "ticks": 108600,
          "durationTicks": 119
        },
        {
          "time": 350.892834,
          "midi": 80,
          "name": "G#5",
          "velocity": 1,
          "duration": 0.37187499999998863,
          "ticks": 108840,
          "durationTicks": 119
        },
        {
          "time": 350.892834,
          "midi": 71,
          "name": "B4",
          "velocity": 1,
          "duration": 0.37187499999998863,
          "ticks": 108840,
          "durationTicks": 119
        },
        {
          "time": 351.642834,
          "midi": 80,
          "name": "G#5",
          "velocity": 1,
          "duration": 0.37187499999998863,
          "ticks": 109080,
          "durationTicks": 119
        },
        {
          "time": 351.642834,
          "midi": 71,
          "name": "B4",
          "velocity": 0.937007874015748,
          "duration": 0.37187499999998863,
          "ticks": 109080,
          "durationTicks": 119
        },
        {
          "time": 352.392834,
          "midi": 69,
          "name": "A4",
          "velocity": 0.8818897637795275,
          "duration": 0.09062499999998863,
          "ticks": 109320,
          "durationTicks": 29
        },
        {
          "time": 352.392834,
          "midi": 81,
          "name": "A5",
          "velocity": 1,
          "duration": 0.09062499999998863,
          "ticks": 109320,
          "durationTicks": 29
        },
        {
          "time": 352.486584,
          "midi": 83,
          "name": "B5",
          "velocity": 1,
          "duration": 0.09062499999998863,
          "ticks": 109350,
          "durationTicks": 29
        },
        {
          "time": 352.580334,
          "midi": 81,
          "name": "A5",
          "velocity": 1,
          "duration": 0.09062499999998863,
          "ticks": 109380,
          "durationTicks": 29
        },
        {
          "time": 352.674084,
          "midi": 80,
          "name": "G#5",
          "velocity": 1,
          "duration": 0.09062499999998863,
          "ticks": 109410,
          "durationTicks": 29
        },
        {
          "time": 352.767834,
          "midi": 78,
          "name": "F#5",
          "velocity": 1,
          "duration": 0.09062499999998863,
          "ticks": 109440,
          "durationTicks": 29
        },
        {
          "time": 352.861584,
          "midi": 80,
          "name": "G#5",
          "velocity": 1,
          "duration": 0.09062499999998863,
          "ticks": 109470,
          "durationTicks": 29
        },
        {
          "time": 352.955334,
          "midi": 78,
          "name": "F#5",
          "velocity": 1,
          "duration": 0.09062499999998863,
          "ticks": 109500,
          "durationTicks": 29
        },
        {
          "time": 353.049084,
          "midi": 76,
          "name": "E5",
          "velocity": 1,
          "duration": 0.09062499999998863,
          "ticks": 109530,
          "durationTicks": 29
        },
        {
          "time": 353.142834,
          "midi": 74,
          "name": "D5",
          "velocity": 1,
          "duration": 0.09062499999998863,
          "ticks": 109560,
          "durationTicks": 29
        },
        {
          "time": 353.236584,
          "midi": 76,
          "name": "E5",
          "velocity": 1,
          "duration": 0.09062499999998863,
          "ticks": 109590,
          "durationTicks": 29
        },
        {
          "time": 353.330334,
          "midi": 74,
          "name": "D5",
          "velocity": 1,
          "duration": 0.09062499999998863,
          "ticks": 109620,
          "durationTicks": 29
        },
        {
          "time": 353.424084,
          "midi": 73,
          "name": "C#5",
          "velocity": 1,
          "duration": 0.09062499999998863,
          "ticks": 109650,
          "durationTicks": 29
        },
        {
          "time": 353.517834,
          "midi": 71,
          "name": "B4",
          "velocity": 1,
          "duration": 0.09062499999998863,
          "ticks": 109680,
          "durationTicks": 29
        },
        {
          "time": 353.611584,
          "midi": 73,
          "name": "C#5",
          "velocity": 1,
          "duration": 0.09062499999998863,
          "ticks": 109710,
          "durationTicks": 29
        },
        {
          "time": 353.705334,
          "midi": 71,
          "name": "B4",
          "velocity": 1,
          "duration": 0.09062499999998863,
          "ticks": 109740,
          "durationTicks": 29
        },
        {
          "time": 353.799084,
          "midi": 69,
          "name": "A4",
          "velocity": 1,
          "duration": 0.09062499999998863,
          "ticks": 109770,
          "durationTicks": 29
        },
        {
          "time": 353.892834,
          "midi": 64,
          "name": "E4",
          "velocity": 1,
          "duration": 0.37187499999998863,
          "ticks": 109800,
          "durationTicks": 119
        },
        {
          "time": 354.642834,
          "midi": 71,
          "name": "B4",
          "velocity": 1,
          "duration": 0.37187499999998863,
          "ticks": 110040,
          "durationTicks": 119
        },
        {
          "time": 354.642834,
          "midi": 80,
          "name": "G#5",
          "velocity": 1,
          "duration": 0.37187499999998863,
          "ticks": 110040,
          "durationTicks": 119
        },
        {
          "time": 355.392834,
          "midi": 69,
          "name": "A4",
          "velocity": 0.8818897637795275,
          "duration": 0.09062499999998863,
          "ticks": 110280,
          "durationTicks": 29
        },
        {
          "time": 355.392834,
          "midi": 81,
          "name": "A5",
          "velocity": 1,
          "duration": 0.09062499999998863,
          "ticks": 110280,
          "durationTicks": 29
        },
        {
          "time": 355.486584,
          "midi": 83,
          "name": "B5",
          "velocity": 1,
          "duration": 0.09062499999998863,
          "ticks": 110310,
          "durationTicks": 29
        },
        {
          "time": 355.580334,
          "midi": 81,
          "name": "A5",
          "velocity": 1,
          "duration": 0.09062499999998863,
          "ticks": 110340,
          "durationTicks": 29
        },
        {
          "time": 355.674084,
          "midi": 80,
          "name": "G#5",
          "velocity": 1,
          "duration": 0.09062499999998863,
          "ticks": 110370,
          "durationTicks": 29
        },
        {
          "time": 355.767834,
          "midi": 78,
          "name": "F#5",
          "velocity": 1,
          "duration": 0.09062499999998863,
          "ticks": 110400,
          "durationTicks": 29
        },
        {
          "time": 355.861584,
          "midi": 80,
          "name": "G#5",
          "velocity": 1,
          "duration": 0.09062499999998863,
          "ticks": 110430,
          "durationTicks": 29
        },
        {
          "time": 355.955334,
          "midi": 78,
          "name": "F#5",
          "velocity": 1,
          "duration": 0.09062499999998863,
          "ticks": 110460,
          "durationTicks": 29
        },
        {
          "time": 356.049084,
          "midi": 76,
          "name": "E5",
          "velocity": 1,
          "duration": 0.09062499999998863,
          "ticks": 110490,
          "durationTicks": 29
        },
        {
          "time": 356.142834,
          "midi": 74,
          "name": "D5",
          "velocity": 1,
          "duration": 0.09062499999998863,
          "ticks": 110520,
          "durationTicks": 29
        },
        {
          "time": 356.236584,
          "midi": 76,
          "name": "E5",
          "velocity": 1,
          "duration": 0.09062499999998863,
          "ticks": 110550,
          "durationTicks": 29
        },
        {
          "time": 356.330334,
          "midi": 74,
          "name": "D5",
          "velocity": 1,
          "duration": 0.09062499999998863,
          "ticks": 110580,
          "durationTicks": 29
        },
        {
          "time": 356.424084,
          "midi": 73,
          "name": "C#5",
          "velocity": 1,
          "duration": 0.09062499999998863,
          "ticks": 110610,
          "durationTicks": 29
        },
        {
          "time": 356.517834,
          "midi": 71,
          "name": "B4",
          "velocity": 1,
          "duration": 0.09062499999998863,
          "ticks": 110640,
          "durationTicks": 29
        },
        {
          "time": 356.611584,
          "midi": 73,
          "name": "C#5",
          "velocity": 1,
          "duration": 0.09062499999998863,
          "ticks": 110670,
          "durationTicks": 29
        },
        {
          "time": 356.705334,
          "midi": 71,
          "name": "B4",
          "velocity": 1,
          "duration": 0.09062499999998863,
          "ticks": 110700,
          "durationTicks": 29
        },
        {
          "time": 356.799084,
          "midi": 69,
          "name": "A4",
          "velocity": 1,
          "duration": 0.09062499999998863,
          "ticks": 110730,
          "durationTicks": 29
        },
        {
          "time": 356.892834,
          "midi": 69,
          "name": "A4",
          "velocity": 1,
          "duration": 0.37187499999998863,
          "ticks": 110760,
          "durationTicks": 119
        },
        {
          "time": 356.892834,
          "midi": 69,
          "name": "A4",
          "velocity": 1,
          "duration": 0.37187499999998863,
          "ticks": 110760,
          "durationTicks": 119
        },
        {
          "time": 357.642834,
          "midi": 69,
          "name": "A4",
          "velocity": 0.9763779527559056,
          "duration": 0.37187499999998863,
          "ticks": 111000,
          "durationTicks": 119
        },
        {
          "time": 357.642834,
          "midi": 81,
          "name": "A5",
          "velocity": 1,
          "duration": 0.37187499999998863,
          "ticks": 111000,
          "durationTicks": 119
        },
        {
          "time": 358.392834,
          "midi": 81,
          "name": "A5",
          "velocity": 1,
          "duration": 1.5386393583333415,
          "ticks": 111240,
          "durationTicks": 479
        },
        {
          "time": 358.392834,
          "midi": 69,
          "name": "A4",
          "velocity": 1,
          "duration": 1.5386393583333415,
          "ticks": 111240,
          "durationTicks": 479
        }
      ],
      "controlChanges": {
        "7": [
          {
            "number": 7,
            "value": 0.7874015748031497,
            "time": 0,
            "ticks": 0
          }
        ],
        "10": [
          {
            "number": 10,
            "value": 0.11811023622047244,
            "time": 0,
            "ticks": 0
          }
        ],
        "91": [
          {
            "number": 91,
            "value": 0.4094488188976378,
            "time": 0.0625,
            "ticks": 20
          },
          {
            "number": 91,
            "value": 0.4015748031496063,
            "time": 0.5,
            "ticks": 160
          },
          {
            "number": 91,
            "value": 0.3937007874015748,
            "time": 0.78125,
            "ticks": 250
          },
          {
            "number": 91,
            "value": 0.4015748031496063,
            "time": 1.465625,
            "ticks": 469
          }
        ],
        "93": [
          {
            "number": 93,
            "value": 0.6692913385826772,
            "time": 0.09375,
            "ticks": 30
          },
          {
            "number": 93,
            "value": 0.6692913385826772,
            "time": 0.125,
            "ticks": 40
          },
          {
            "number": 93,
            "value": 0.6771653543307087,
            "time": 0.1875,
            "ticks": 60
          },
          {
            "number": 93,
            "value": 0.6850393700787402,
            "time": 1.28125,
            "ticks": 410
          }
        ]
      }
    },
    {
      "name": "violin ii",
      "channel": 0,
      "instrument": {
        "number": 48,
        "name": "string ensemble 1",
        "family": "ensemble"
      },
      "notes": [
        {
          "time": 72.9375,
          "midi": 71,
          "name": "B4",
          "velocity": 0.4330708661417323,
          "duration": 0.18437500000000284,
          "ticks": 23340,
          "durationTicks": 59
        },
        {
          "time": 73.125,
          "midi": 69,
          "name": "A4",
          "velocity": 0.44881889763779526,
          "duration": 0.18437500000000284,
          "ticks": 23400,
          "durationTicks": 59
        },
        {
          "time": 73.3125,
          "midi": 67,
          "name": "G4",
          "velocity": 0.4566929133858268,
          "duration": 0.18437500000000284,
          "ticks": 23460,
          "durationTicks": 59
        },
        {
          "time": 73.5,
          "midi": 66,
          "name": "F#4",
          "velocity": 0.44881889763779526,
          "duration": 0.37187500000000284,
          "ticks": 23520,
          "durationTicks": 119
        },
        {
          "time": 73.875,
          "midi": 62,
          "name": "D4",
          "velocity": 0.4251968503937008,
          "duration": 0.37187500000000284,
          "ticks": 23640,
          "durationTicks": 119
        },
        {
          "time": 74.25,
          "midi": 64,
          "name": "E4",
          "velocity": 0.4094488188976378,
          "duration": 0.37187500000000284,
          "ticks": 23760,
          "durationTicks": 119
        },
        {
          "time": 74.625,
          "midi": 66,
          "name": "F#4",
          "velocity": 0.4015748031496063,
          "duration": 0.37187500000000284,
          "ticks": 23880,
          "durationTicks": 119
        },
        {
          "time": 75,
          "midi": 62,
          "name": "D4",
          "velocity": 0.4015748031496063,
          "duration": 0.5593750000000028,
          "ticks": 24000,
          "durationTicks": 179
        },
        {
          "time": 75.5625,
          "midi": 64,
          "name": "E4",
          "velocity": 0.4015748031496063,
          "duration": 0.18437500000000284,
          "ticks": 24180,
          "durationTicks": 59
        },
        {
          "time": 75.75,
          "midi": 66,
          "name": "F#4",
          "velocity": 0.4015748031496063,
          "duration": 0.18437500000000284,
          "ticks": 24240,
          "durationTicks": 59
        },
        {
          "time": 75.9375,
          "midi": 62,
          "name": "D4",
          "velocity": 0.4015748031496063,
          "duration": 0.18437500000000284,
          "ticks": 24300,
          "durationTicks": 59
        },
        {
          "time": 76.125,
          "midi": 59,
          "name": "B3",
          "velocity": 0.4015748031496063,
          "duration": 0.18437500000000284,
          "ticks": 24360,
          "durationTicks": 59
        },
        {
          "time": 76.3125,
          "midi": 61,
          "name": "C#4",
          "velocity": 0.4015748031496063,
          "duration": 0.18437500000000284,
          "ticks": 24420,
          "durationTicks": 59
        },
        {
          "time": 76.5,
          "midi": 57,
          "name": "A3",
          "velocity": 0.4015748031496063,
          "duration": 0.37187500000000284,
          "ticks": 24480,
          "durationTicks": 119
        },
        {
          "time": 76.875,
          "midi": 69,
          "name": "A4",
          "velocity": 0.4094488188976378,
          "duration": 0.7468750000000028,
          "ticks": 24600,
          "durationTicks": 239
        },
        {
          "time": 77.625,
          "midi": 69,
          "name": "A4",
          "velocity": 0.41732283464566927,
          "duration": 0.75,
          "ticks": 24840,
          "durationTicks": 240
        },
        {
          "time": 78.375,
          "midi": 64,
          "name": "E4",
          "velocity": 0.41732283464566927,
          "duration": 0.37187500000000284,
          "ticks": 25080,
          "durationTicks": 119
        },
        {
          "time": 78.75,
          "midi": 61,
          "name": "C#4",
          "velocity": 0.41732283464566927,
          "duration": 0.18437500000000284,
          "ticks": 25200,
          "durationTicks": 59
        },
        {
          "time": 78.9375,
          "midi": 64,
          "name": "E4",
          "velocity": 0.41732283464566927,
          "duration": 0.18437500000000284,
          "ticks": 25260,
          "durationTicks": 59
        },
        {
          "time": 79.125,
          "midi": 66,
          "name": "F#4",
          "velocity": 0.41732283464566927,
          "duration": 0.18437500000000284,
          "ticks": 25320,
          "durationTicks": 59
        },
        {
          "time": 79.3125,
          "midi": 67,
          "name": "G4",
          "velocity": 0.41732283464566927,
          "duration": 0.18437500000000284,
          "ticks": 25380,
          "durationTicks": 59
        },
        {
          "time": 79.5,
          "midi": 66,
          "name": "F#4",
          "velocity": 0.41732283464566927,
          "duration": 0.37187500000000284,
          "ticks": 25440,
          "durationTicks": 119
        },
        {
          "time": 79.875,
          "midi": 62,
          "name": "D4",
          "velocity": 0.41732283464566927,
          "duration": 0.37187500000000284,
          "ticks": 25560,
          "durationTicks": 119
        },
        {
          "time": 80.25,
          "midi": 64,
          "name": "E4",
          "velocity": 0.41732283464566927,
          "duration": 0.37187500000000284,
          "ticks": 25680,
          "durationTicks": 119
        },
        {
          "time": 80.625,
          "midi": 66,
          "name": "F#4",
          "velocity": 0.4094488188976378,
          "duration": 0.37187500000000284,
          "ticks": 25800,
          "durationTicks": 119
        },
        {
          "time": 81,
          "midi": 62,
          "name": "D4",
          "velocity": 0.4094488188976378,
          "duration": 0.5593750000000028,
          "ticks": 25920,
          "durationTicks": 179
        },
        {
          "time": 81.5625,
          "midi": 64,
          "name": "E4",
          "velocity": 0.4094488188976378,
          "duration": 0.18437500000000284,
          "ticks": 26100,
          "durationTicks": 59
        },
        {
          "time": 81.75,
          "midi": 66,
          "name": "F#4",
          "velocity": 0.4094488188976378,
          "duration": 0.18437500000000284,
          "ticks": 26160,
          "durationTicks": 59
        },
        {
          "time": 81.9375,
          "midi": 69,
          "name": "A4",
          "velocity": 0.4094488188976378,
          "duration": 0.18437500000000284,
          "ticks": 26220,
          "durationTicks": 59
        },
        {
          "time": 82.125,
          "midi": 71,
          "name": "B4",
          "velocity": 0.4094488188976378,
          "duration": 0.18437500000000284,
          "ticks": 26280,
          "durationTicks": 59
        },
        {
          "time": 82.3125,
          "midi": 73,
          "name": "C#5",
          "velocity": 0.4094488188976378,
          "duration": 0.18437500000000284,
          "ticks": 26340,
          "durationTicks": 59
        },
        {
          "time": 82.5,
          "midi": 74,
          "name": "D5",
          "velocity": 0.4094488188976378,
          "duration": 0.18437500000000284,
          "ticks": 26400,
          "durationTicks": 59
        },
        {
          "time": 82.6875,
          "midi": 73,
          "name": "C#5",
          "velocity": 0.4094488188976378,
          "duration": 0.18437500000000284,
          "ticks": 26460,
          "durationTicks": 59
        },
        {
          "time": 82.875,
          "midi": 71,
          "name": "B4",
          "velocity": 0.41732283464566927,
          "duration": 0.18437500000000284,
          "ticks": 26520,
          "durationTicks": 59
        },
        {
          "time": 83.0625,
          "midi": 69,
          "name": "A4",
          "velocity": 0.41732283464566927,
          "duration": 0.18437500000000284,
          "ticks": 26580,
          "durationTicks": 59
        },
        {
          "time": 83.25,
          "midi": 67,
          "name": "G4",
          "velocity": 0.41732283464566927,
          "duration": 0.18437500000000284,
          "ticks": 26640,
          "durationTicks": 59
        },
        {
          "time": 83.4375,
          "midi": 66,
          "name": "F#4",
          "velocity": 0.4251968503937008,
          "duration": 0.18437500000000284,
          "ticks": 26700,
          "durationTicks": 59
        },
        {
          "time": 83.625,
          "midi": 64,
          "name": "E4",
          "velocity": 0.4251968503937008,
          "duration": 0.18437500000000284,
          "ticks": 26760,
          "durationTicks": 59
        },
        {
          "time": 83.8125,
          "midi": 62,
          "name": "D4",
          "velocity": 0.4330708661417323,
          "duration": 0.37187500000000284,
          "ticks": 26820,
          "durationTicks": 119
        },
        {
          "time": 84.1875,
          "midi": 61,
          "name": "C#4",
          "velocity": 0.4409448818897638,
          "duration": 0.18437500000000284,
          "ticks": 26940,
          "durationTicks": 59
        },
        {
          "time": 84.375,
          "midi": 67,
          "name": "G4",
          "velocity": 0.4409448818897638,
          "duration": 0.18437500000000284,
          "ticks": 27000,
          "durationTicks": 59
        },
        {
          "time": 84.5625,
          "midi": 66,
          "name": "F#4",
          "velocity": 0.4409448818897638,
          "duration": 0.18437500000000284,
          "ticks": 27060,
          "durationTicks": 59
        },
        {
          "time": 84.75,
          "midi": 66,
          "name": "F#4",
          "velocity": 0.44881889763779526,
          "duration": 0.18437500000000284,
          "ticks": 27120,
          "durationTicks": 59
        },
        {
          "time": 84.9375,
          "midi": 66,
          "name": "F#4",
          "velocity": 0.4566929133858268,
          "duration": 0.18437500000000284,
          "ticks": 27180,
          "durationTicks": 59
        },
        {
          "time": 85.125,
          "midi": 64,
          "name": "E4",
          "velocity": 0.4645669291338583,
          "duration": 0.18437500000000284,
          "ticks": 27240,
          "durationTicks": 59
        },
        {
          "time": 85.3125,
          "midi": 62,
          "name": "D4",
          "velocity": 0.47244094488188976,
          "duration": 0.18437500000000284,
          "ticks": 27300,
          "durationTicks": 59
        },
        {
          "time": 85.5,
          "midi": 61,
          "name": "C#4",
          "velocity": 0.48031496062992124,
          "duration": 0.37187500000000284,
          "ticks": 27360,
          "durationTicks": 119
        },
        {
          "time": 85.875,
          "midi": 64,
          "name": "E4",
          "velocity": 0.47244094488188976,
          "duration": 0.37187500000000284,
          "ticks": 27480,
          "durationTicks": 119
        },
        {
          "time": 86.25,
          "midi": 62,
          "name": "D4",
          "velocity": 0.47244094488188976,
          "duration": 0.37187500000000284,
          "ticks": 27600,
          "durationTicks": 119
        },
        {
          "time": 86.625,
          "midi": 74,
          "name": "D5",
          "velocity": 0.47244094488188976,
          "duration": 0.37187500000000284,
          "ticks": 27720,
          "durationTicks": 119
        },
        {
          "time": 87,
          "midi": 67,
          "name": "G4",
          "velocity": 0.47244094488188976,
          "duration": 0.37187500000000284,
          "ticks": 27840,
          "durationTicks": 119
        },
        {
          "time": 87.375,
          "midi": 66,
          "name": "F#4",
          "velocity": 0.47244094488188976,
          "duration": 0.18437500000000284,
          "ticks": 27960,
          "durationTicks": 59
        },
        {
          "time": 87.5625,
          "midi": 64,
          "name": "E4",
          "velocity": 0.47244094488188976,
          "duration": 0.18437500000000284,
          "ticks": 28020,
          "durationTicks": 59
        },
        {
          "time": 87.75,
          "midi": 66,
          "name": "F#4",
          "velocity": 0.47244094488188976,
          "duration": 0.37187500000000284,
          "ticks": 28080,
          "durationTicks": 119
        },
        {
          "time": 88.125,
          "midi": 67,
          "name": "G4",
          "velocity": 0.47244094488188976,
          "duration": 0.18437500000000284,
          "ticks": 28200,
          "durationTicks": 59
        },
        {
          "time": 88.3125,
          "midi": 69,
          "name": "A4",
          "velocity": 0.47244094488188976,
          "duration": 0.18437500000000284,
          "ticks": 28260,
          "durationTicks": 59
        },
        {
          "time": 88.5,
          "midi": 71,
          "name": "B4",
          "velocity": 0.47244094488188976,
          "duration": 0.18437500000000284,
          "ticks": 28320,
          "durationTicks": 59
        },
        {
          "time": 88.6875,
          "midi": 73,
          "name": "C#5",
          "velocity": 0.47244094488188976,
          "duration": 0.18437500000000284,
          "ticks": 28380,
          "durationTicks": 59
        },
        {
          "time": 88.875,
          "midi": 74,
          "name": "D5",
          "velocity": 0.47244094488188976,
          "duration": 0.18437500000000284,
          "ticks": 28440,
          "durationTicks": 59
        },
        {
          "time": 89.0625,
          "midi": 76,
          "name": "E5",
          "velocity": 0.47244094488188976,
          "duration": 0.18437500000000284,
          "ticks": 28500,
          "durationTicks": 59
        },
        {
          "time": 89.25,
          "midi": 74,
          "name": "D5",
          "velocity": 0.47244094488188976,
          "duration": 0.37187500000000284,
          "ticks": 28560,
          "durationTicks": 119
        },
        {
          "time": 89.625,
          "midi": 73,
          "name": "C#5",
          "velocity": 0.4645669291338583,
          "duration": 0.18437500000000284,
          "ticks": 28680,
          "durationTicks": 59
        },
        {
          "time": 89.8125,
          "midi": 61,
          "name": "C#4",
          "velocity": 0.4645669291338583,
          "duration": 0.18437500000000284,
          "ticks": 28740,
          "durationTicks": 59
        },
        {
          "time": 90,
          "midi": 71,
          "name": "B4",
          "velocity": 0.4645669291338583,
          "duration": 0.18437500000000284,
          "ticks": 28800,
          "durationTicks": 59
        },
        {
          "time": 90.1875,
          "midi": 59,
          "name": "B3",
          "velocity": 0.4645669291338583,
          "duration": 0.18437500000000284,
          "ticks": 28860,
          "durationTicks": 59
        },
        {
          "time": 90.375,
          "midi": 58,
          "name": "A#3",
          "velocity": 0.4645669291338583,
          "duration": 0.18437500000000284,
          "ticks": 28920,
          "durationTicks": 59
        },
        {
          "time": 90.5625,
          "midi": 70,
          "name": "A#4",
          "velocity": 0.4645669291338583,
          "duration": 0.18437500000000284,
          "ticks": 28980,
          "durationTicks": 59
        },
        {
          "time": 90.75,
          "midi": 69,
          "name": "A4",
          "velocity": 0.4645669291338583,
          "duration": 0.18437500000000284,
          "ticks": 29040,
          "durationTicks": 59
        },
        {
          "time": 90.9375,
          "midi": 64,
          "name": "E4",
          "velocity": 0.4645669291338583,
          "duration": 0.18437500000000284,
          "ticks": 29100,
          "durationTicks": 59
        },
        {
          "time": 91.125,
          "midi": 69,
          "name": "A4",
          "velocity": 0.4645669291338583,
          "duration": 0.18437500000000284,
          "ticks": 29160,
          "durationTicks": 59
        },
        {
          "time": 91.3125,
          "midi": 67,
          "name": "G4",
          "velocity": 0.4645669291338583,
          "duration": 0.18437500000000284,
          "ticks": 29220,
          "durationTicks": 59
        },
        {
          "time": 91.5,
          "midi": 66,
          "name": "F#4",
          "velocity": 0.47244094488188976,
          "duration": 0.37187500000000284,
          "ticks": 29280,
          "durationTicks": 119
        },
        {
          "time": 91.875,
          "midi": 74,
          "name": "D5",
          "velocity": 0.47244094488188976,
          "duration": 0.37187500000000284,
          "ticks": 29400,
          "durationTicks": 119
        },
        {
          "time": 92.25,
          "midi": 76,
          "name": "E5",
          "velocity": 0.48031496062992124,
          "duration": 0.37187500000000284,
          "ticks": 29520,
          "durationTicks": 119
        },
        {
          "time": 92.625,
          "midi": 78,
          "name": "F#5",
          "velocity": 0.48031496062992124,
          "duration": 0.37187500000000284,
          "ticks": 29640,
          "durationTicks": 119
        },
        {
          "time": 93,
          "midi": 74,
          "name": "D5",
          "velocity": 0.48031496062992124,
          "duration": 0.37187500000000284,
          "ticks": 29760,
          "durationTicks": 119
        },
        {
          "time": 93.375,
          "midi": 76,
          "name": "E5",
          "velocity": 0.4881889763779528,
          "duration": 0.37187500000000284,
          "ticks": 29880,
          "durationTicks": 119
        },
        {
          "time": 93.75,
          "midi": 69,
          "name": "A4",
          "velocity": 0.48031496062992124,
          "duration": 0.37187500000000284,
          "ticks": 30000,
          "durationTicks": 119
        },
        {
          "time": 94.125,
          "midi": 71,
          "name": "B4",
          "velocity": 0.48031496062992124,
          "duration": 0.18437500000000284,
          "ticks": 30120,
          "durationTicks": 59
        },
        {
          "time": 94.3125,
          "midi": 73,
          "name": "C#5",
          "velocity": 0.48031496062992124,
          "duration": 0.18437500000000284,
          "ticks": 30180,
          "durationTicks": 59
        },
        {
          "time": 94.5,
          "midi": 74,
          "name": "D5",
          "velocity": 0.48031496062992124,
          "duration": 0.18437500000000284,
          "ticks": 30240,
          "durationTicks": 59
        },
        {
          "time": 94.6875,
          "midi": 69,
          "name": "A4",
          "velocity": 0.48031496062992124,
          "duration": 0.18437500000000284,
          "ticks": 30300,
          "durationTicks": 59
        },
        {
          "time": 94.875,
          "midi": 71,
          "name": "B4",
          "velocity": 0.48031496062992124,
          "duration": 0.18437500000000284,
          "ticks": 30360,
          "durationTicks": 59
        },
        {
          "time": 95.0625,
          "midi": 69,
          "name": "A4",
          "velocity": 0.47244094488188976,
          "duration": 0.18437500000000284,
          "ticks": 30420,
          "durationTicks": 59
        },
        {
          "time": 95.25,
          "midi": 67,
          "name": "G4",
          "velocity": 0.47244094488188976,
          "duration": 0.18437500000000284,
          "ticks": 30480,
          "durationTicks": 59
        },
        {
          "time": 95.4375,
          "midi": 66,
          "name": "F#4",
          "velocity": 0.47244094488188976,
          "duration": 0.18437500000000284,
          "ticks": 30540,
          "durationTicks": 59
        },
        {
          "time": 95.625,
          "midi": 64,
          "name": "E4",
          "velocity": 0.47244094488188976,
          "duration": 0.18437500000000284,
          "ticks": 30600,
          "durationTicks": 59
        },
        {
          "time": 95.8125,
          "midi": 62,
          "name": "D4",
          "velocity": 0.47244094488188976,
          "duration": 0.37187500000000284,
          "ticks": 30660,
          "durationTicks": 119
        },
        {
          "time": 96.1875,
          "midi": 61,
          "name": "C#4",
          "velocity": 0.47244094488188976,
          "duration": 0.18437500000000284,
          "ticks": 30780,
          "durationTicks": 59
        },
        {
          "time": 96.375,
          "midi": 67,
          "name": "G4",
          "velocity": 0.47244094488188976,
          "duration": 0.18437500000000284,
          "ticks": 30840,
          "durationTicks": 59
        },
        {
          "time": 96.5625,
          "midi": 66,
          "name": "F#4",
          "velocity": 0.47244094488188976,
          "duration": 0.18437500000000284,
          "ticks": 30900,
          "durationTicks": 59
        },
        {
          "time": 96.75,
          "midi": 66,
          "name": "F#4",
          "velocity": 0.47244094488188976,
          "duration": 0.09062500000000284,
          "ticks": 30960,
          "durationTicks": 29
        },
        {
          "time": 96.9375,
          "midi": 66,
          "name": "F#4",
          "velocity": 0.47244094488188976,
          "duration": 0.18437500000000284,
          "ticks": 31020,
          "durationTicks": 59
        },
        {
          "time": 97.125,
          "midi": 64,
          "name": "E4",
          "velocity": 0.47244094488188976,
          "duration": 0.18437500000000284,
          "ticks": 31080,
          "durationTicks": 59
        },
        {
          "time": 97.3125,
          "midi": 62,
          "name": "D4",
          "velocity": 0.47244094488188976,
          "duration": 0.18437500000000284,
          "ticks": 31140,
          "durationTicks": 59
        },
        {
          "time": 97.5,
          "midi": 61,
          "name": "C#4",
          "velocity": 0.47244094488188976,
          "duration": 0.37187500000000284,
          "ticks": 31200,
          "durationTicks": 119
        },
        {
          "time": 97.875,
          "midi": 64,
          "name": "E4",
          "velocity": 0.47244094488188976,
          "duration": 0.37187500000000284,
          "ticks": 31320,
          "durationTicks": 119
        },
        {
          "time": 98.25,
          "midi": 62,
          "name": "D4",
          "velocity": 0.47244094488188976,
          "duration": 0.37187500000000284,
          "ticks": 31440,
          "durationTicks": 119
        },
        {
          "time": 98.625,
          "midi": 74,
          "name": "D5",
          "velocity": 0.47244094488188976,
          "duration": 0.37187500000000284,
          "ticks": 31560,
          "durationTicks": 119
        },
        {
          "time": 99,
          "midi": 67,
          "name": "G4",
          "velocity": 0.47244094488188976,
          "duration": 0.37187500000000284,
          "ticks": 31680,
          "durationTicks": 119
        },
        {
          "time": 99.375,
          "midi": 66,
          "name": "F#4",
          "velocity": 0.47244094488188976,
          "duration": 0.18437500000000284,
          "ticks": 31800,
          "durationTicks": 59
        },
        {
          "time": 99.5625,
          "midi": 64,
          "name": "E4",
          "velocity": 0.44881889763779526,
          "duration": 0.18437500000000284,
          "ticks": 31860,
          "durationTicks": 59
        },
        {
          "time": 99.75,
          "midi": 66,
          "name": "F#4",
          "velocity": 0.44881889763779526,
          "duration": 0.37187500000000284,
          "ticks": 31920,
          "durationTicks": 119
        },
        {
          "time": 100.125,
          "midi": 67,
          "name": "G4",
          "velocity": 0.4566929133858268,
          "duration": 0.18437500000000284,
          "ticks": 32040,
          "durationTicks": 59
        },
        {
          "time": 100.3125,
          "midi": 69,
          "name": "A4",
          "velocity": 0.4566929133858268,
          "duration": 0.18437500000000284,
          "ticks": 32100,
          "durationTicks": 59
        },
        {
          "time": 100.5,
          "midi": 71,
          "name": "B4",
          "velocity": 0.4566929133858268,
          "duration": 0.18437500000000284,
          "ticks": 32160,
          "durationTicks": 59
        },
        {
          "time": 100.6875,
          "midi": 73,
          "name": "C#5",
          "velocity": 0.4566929133858268,
          "duration": 0.18437500000000284,
          "ticks": 32220,
          "durationTicks": 59
        },
        {
          "time": 100.875,
          "midi": 74,
          "name": "D5",
          "velocity": 0.4645669291338583,
          "duration": 0.18437500000000284,
          "ticks": 32280,
          "durationTicks": 59
        },
        {
          "time": 101.0625,
          "midi": 76,
          "name": "E5",
          "velocity": 0.4645669291338583,
          "duration": 0.18437500000000284,
          "ticks": 32340,
          "durationTicks": 59
        },
        {
          "time": 101.25,
          "midi": 74,
          "name": "D5",
          "velocity": 0.4645669291338583,
          "duration": 0.37187500000000284,
          "ticks": 32400,
          "durationTicks": 119
        },
        {
          "time": 101.625,
          "midi": 73,
          "name": "C#5",
          "velocity": 0.4645669291338583,
          "duration": 0.18437500000000284,
          "ticks": 32520,
          "durationTicks": 59
        },
        {
          "time": 101.8125,
          "midi": 61,
          "name": "C#4",
          "velocity": 0.4645669291338583,
          "duration": 0.18437500000000284,
          "ticks": 32580,
          "durationTicks": 59
        },
        {
          "time": 102,
          "midi": 71,
          "name": "B4",
          "velocity": 0.4645669291338583,
          "duration": 0.18437500000000284,
          "ticks": 32640,
          "durationTicks": 59
        },
        {
          "time": 102.1875,
          "midi": 59,
          "name": "B3",
          "velocity": 0.47244094488188976,
          "duration": 0.18437500000000284,
          "ticks": 32700,
          "durationTicks": 59
        },
        {
          "time": 102.375,
          "midi": 58,
          "name": "A#3",
          "velocity": 0.47244094488188976,
          "duration": 0.18437500000000284,
          "ticks": 32760,
          "durationTicks": 59
        },
        {
          "time": 102.5625,
          "midi": 70,
          "name": "A#4",
          "velocity": 0.47244094488188976,
          "duration": 0.18437500000000284,
          "ticks": 32820,
          "durationTicks": 59
        },
        {
          "time": 102.75,
          "midi": 69,
          "name": "A4",
          "velocity": 0.47244094488188976,
          "duration": 0.18437500000000284,
          "ticks": 32880,
          "durationTicks": 59
        },
        {
          "time": 102.9375,
          "midi": 64,
          "name": "E4",
          "velocity": 0.47244094488188976,
          "duration": 0.18437500000000284,
          "ticks": 32940,
          "durationTicks": 59
        },
        {
          "time": 103.125,
          "midi": 69,
          "name": "A4",
          "velocity": 0.47244094488188976,
          "duration": 0.18437500000000284,
          "ticks": 33000,
          "durationTicks": 59
        },
        {
          "time": 103.3125,
          "midi": 67,
          "name": "G4",
          "velocity": 0.47244094488188976,
          "duration": 0.18437500000000284,
          "ticks": 33060,
          "durationTicks": 59
        },
        {
          "time": 103.5,
          "midi": 66,
          "name": "F#4",
          "velocity": 0.47244094488188976,
          "duration": 0.37187500000000284,
          "ticks": 33120,
          "durationTicks": 119
        },
        {
          "time": 103.875,
          "midi": 74,
          "name": "D5",
          "velocity": 0.47244094488188976,
          "duration": 0.37187500000000284,
          "ticks": 33240,
          "durationTicks": 119
        },
        {
          "time": 104.25,
          "midi": 76,
          "name": "E5",
          "velocity": 0.47244094488188976,
          "duration": 0.37187500000000284,
          "ticks": 33360,
          "durationTicks": 119
        },
        {
          "time": 104.625,
          "midi": 78,
          "name": "F#5",
          "velocity": 0.47244094488188976,
          "duration": 0.37187500000000284,
          "ticks": 33480,
          "durationTicks": 119
        },
        {
          "time": 105,
          "midi": 74,
          "name": "D5",
          "velocity": 0.47244094488188976,
          "duration": 0.37187500000000284,
          "ticks": 33600,
          "durationTicks": 119
        },
        {
          "time": 105.375,
          "midi": 76,
          "name": "E5",
          "velocity": 0.48031496062992124,
          "duration": 0.37187500000000284,
          "ticks": 33720,
          "durationTicks": 119
        },
        {
          "time": 105.75,
          "midi": 69,
          "name": "A4",
          "velocity": 0.4881889763779528,
          "duration": 0.37187500000000284,
          "ticks": 33840,
          "durationTicks": 119
        },
        {
          "time": 106.125,
          "midi": 71,
          "name": "B4",
          "velocity": 0.5118110236220472,
          "duration": 0.18437500000000284,
          "ticks": 33960,
          "durationTicks": 59
        },
        {
          "time": 106.3125,
          "midi": 73,
          "name": "C#5",
          "velocity": 0.5118110236220472,
          "duration": 0.18437500000000284,
          "ticks": 34020,
          "durationTicks": 59
        },
        {
          "time": 106.5,
          "midi": 74,
          "name": "D5",
          "velocity": 0.5275590551181102,
          "duration": 0.18437500000000284,
          "ticks": 34080,
          "durationTicks": 59
        },
        {
          "time": 106.6875,
          "midi": 69,
          "name": "A4",
          "velocity": 0.5590551181102362,
          "duration": 0.18437500000000284,
          "ticks": 34140,
          "durationTicks": 59
        },
        {
          "time": 106.875,
          "midi": 71,
          "name": "B4",
          "velocity": 0.5826771653543307,
          "duration": 0.18437500000000284,
          "ticks": 34200,
          "durationTicks": 59
        },
        {
          "time": 107.0625,
          "midi": 69,
          "name": "A4",
          "velocity": 0.5984251968503937,
          "duration": 0.18437500000000284,
          "ticks": 34260,
          "durationTicks": 59
        },
        {
          "time": 107.25,
          "midi": 67,
          "name": "G4",
          "velocity": 0.6062992125984252,
          "duration": 0.18437500000000284,
          "ticks": 34320,
          "durationTicks": 59
        },
        {
          "time": 107.4375,
          "midi": 66,
          "name": "F#4",
          "velocity": 0.6220472440944882,
          "duration": 0.18437500000000284,
          "ticks": 34380,
          "durationTicks": 59
        },
        {
          "time": 107.625,
          "midi": 64,
          "name": "E4",
          "velocity": 0.6456692913385826,
          "duration": 0.18437500000000284,
          "ticks": 34440,
          "durationTicks": 59
        },
        {
          "time": 107.8125,
          "midi": 62,
          "name": "D4",
          "velocity": 0.6692913385826772,
          "duration": 0.37187500000000284,
          "ticks": 34500,
          "durationTicks": 119
        },
        {
          "time": 108.1875,
          "midi": 61,
          "name": "C#4",
          "velocity": 0.7086614173228346,
          "duration": 0.18437500000000284,
          "ticks": 34620,
          "durationTicks": 59
        },
        {
          "time": 108.375,
          "midi": 67,
          "name": "G4",
          "velocity": 0.7401574803149606,
          "duration": 0.18437500000000284,
          "ticks": 34680,
          "durationTicks": 59
        },
        {
          "time": 108.5625,
          "midi": 66,
          "name": "F#4",
          "velocity": 0.7637795275590551,
          "duration": 0.18437500000000284,
          "ticks": 34740,
          "durationTicks": 59
        },
        {
          "time": 108.75,
          "midi": 66,
          "name": "F#4",
          "velocity": 0.7874015748031497,
          "duration": 0.18437500000000284,
          "ticks": 34800,
          "durationTicks": 59
        },
        {
          "time": 108.9375,
          "midi": 71,
          "name": "B4",
          "velocity": 0.8031496062992126,
          "duration": 0.18437500000000284,
          "ticks": 34860,
          "durationTicks": 59
        },
        {
          "time": 109.125,
          "midi": 69,
          "name": "A4",
          "velocity": 0.8110236220472441,
          "duration": 0.18437500000000284,
          "ticks": 34920,
          "durationTicks": 59
        },
        {
          "time": 109.3125,
          "midi": 67,
          "name": "G4",
          "velocity": 0.8346456692913385,
          "duration": 0.18437500000000284,
          "ticks": 34980,
          "durationTicks": 59
        },
        {
          "time": 109.5,
          "midi": 62,
          "name": "D4",
          "velocity": 0.84251968503937,
          "duration": 0.37187500000000284,
          "ticks": 35040,
          "durationTicks": 119
        },
        {
          "time": 109.5,
          "midi": 69,
          "name": "A4",
          "velocity": 0.84251968503937,
          "duration": 0.37187500000000284,
          "ticks": 35040,
          "durationTicks": 119
        },
        {
          "time": 109.5,
          "midi": 78,
          "name": "F#5",
          "velocity": 0.84251968503937,
          "duration": 0.37187500000000284,
          "ticks": 35040,
          "durationTicks": 119
        },
        {
          "time": 110.0625,
          "midi": 62,
          "name": "D4",
          "velocity": 0.937007874015748,
          "duration": 0.18437500000000284,
          "ticks": 35220,
          "durationTicks": 59
        },
        {
          "time": 110.25,
          "midi": 74,
          "name": "D5",
          "velocity": 0.937007874015748,
          "duration": 0.37187500000000284,
          "ticks": 35280,
          "durationTicks": 119
        },
        {
          "time": 110.8125,
          "midi": 62,
          "name": "D4",
          "velocity": 0.937007874015748,
          "duration": 0.18437500000000284,
          "ticks": 35460,
          "durationTicks": 59
        },
        {
          "time": 111,
          "midi": 81,
          "name": "A5",
          "velocity": 0.937007874015748,
          "duration": 0.37187500000000284,
          "ticks": 35520,
          "durationTicks": 119
        },
        {
          "time": 111,
          "midi": 69,
          "name": "A4",
          "velocity": 0.937007874015748,
          "duration": 0.37187500000000284,
          "ticks": 35520,
          "durationTicks": 119
        },
        {
          "time": 111.5625,
          "midi": 57,
          "name": "A3",
          "velocity": 0.9291338582677166,
          "duration": 0.18437500000000284,
          "ticks": 35700,
          "durationTicks": 59
        },
        {
          "time": 111.75,
          "midi": 69,
          "name": "A4",
          "velocity": 0.9291338582677166,
          "duration": 0.37187500000000284,
          "ticks": 35760,
          "durationTicks": 119
        },
        {
          "time": 112.3125,
          "midi": 57,
          "name": "A3",
          "velocity": 0.9133858267716536,
          "duration": 0.18437500000000284,
          "ticks": 35940,
          "durationTicks": 59
        },
        {
          "time": 112.5,
          "midi": 69,
          "name": "A4",
          "velocity": 0.9133858267716536,
          "duration": 0.37187500000000284,
          "ticks": 36000,
          "durationTicks": 119
        },
        {
          "time": 112.5,
          "midi": 62,
          "name": "D4",
          "velocity": 0.9133858267716536,
          "duration": 0.37187500000000284,
          "ticks": 36000,
          "durationTicks": 119
        },
        {
          "time": 112.5,
          "midi": 78,
          "name": "F#5",
          "velocity": 0.9133858267716536,
          "duration": 0.37187500000000284,
          "ticks": 36000,
          "durationTicks": 119
        },
        {
          "time": 113.625,
          "midi": 62,
          "name": "D4",
          "velocity": 0.9133858267716536,
          "duration": 0.37187500000000284,
          "ticks": 36360,
          "durationTicks": 119
        },
        {
          "time": 113.625,
          "midi": 78,
          "name": "F#5",
          "velocity": 0.9133858267716536,
          "duration": 0.37187500000000284,
          "ticks": 36360,
          "durationTicks": 119
        },
        {
          "time": 113.625,
          "midi": 69,
          "name": "A4",
          "velocity": 0.9133858267716536,
          "duration": 0.37187500000000284,
          "ticks": 36360,
          "durationTicks": 119
        },
        {
          "time": 114,
          "midi": 62,
          "name": "D4",
          "velocity": 0.905511811023622,
          "duration": 0.37187500000000284,
          "ticks": 36480,
          "durationTicks": 119
        },
        {
          "time": 114,
          "midi": 69,
          "name": "A4",
          "velocity": 0.905511811023622,
          "duration": 0.37187500000000284,
          "ticks": 36480,
          "durationTicks": 119
        },
        {
          "time": 114,
          "midi": 78,
          "name": "F#5",
          "velocity": 0.905511811023622,
          "duration": 0.37187500000000284,
          "ticks": 36480,
          "durationTicks": 119
        },
        {
          "time": 114.75,
          "midi": 76,
          "name": "E5",
          "velocity": 0.9133858267716536,
          "duration": 0.37187500000000284,
          "ticks": 36720,
          "durationTicks": 119
        },
        {
          "time": 114.75,
          "midi": 69,
          "name": "A4",
          "velocity": 0.9133858267716536,
          "duration": 0.37187500000000284,
          "ticks": 36720,
          "durationTicks": 119
        },
        {
          "time": 114.75,
          "midi": 73,
          "name": "C#5",
          "velocity": 0.9133858267716536,
          "duration": 0.37187500000000284,
          "ticks": 36720,
          "durationTicks": 119
        },
        {
          "time": 115.5,
          "midi": 86,
          "name": "D6",
          "velocity": 0.9212598425196851,
          "duration": 0.37187500000000284,
          "ticks": 36960,
          "durationTicks": 119
        },
        {
          "time": 115.5,
          "midi": 62,
          "name": "D4",
          "velocity": 0.9212598425196851,
          "duration": 0.37187500000000284,
          "ticks": 36960,
          "durationTicks": 119
        },
        {
          "time": 115.5,
          "midi": 74,
          "name": "D5",
          "velocity": 0.9212598425196851,
          "duration": 0.37187500000000284,
          "ticks": 36960,
          "durationTicks": 119
        },
        {
          "time": 116.0625,
          "midi": 62,
          "name": "D4",
          "velocity": 0.937007874015748,
          "duration": 0.18437500000000284,
          "ticks": 37140,
          "durationTicks": 59
        },
        {
          "time": 116.25,
          "midi": 74,
          "name": "D5",
          "velocity": 0.937007874015748,
          "duration": 0.37187500000000284,
          "ticks": 37200,
          "durationTicks": 119
        },
        {
          "time": 116.8125,
          "midi": 62,
          "name": "D4",
          "velocity": 0.9291338582677166,
          "duration": 0.18437500000000284,
          "ticks": 37380,
          "durationTicks": 59
        },
        {
          "time": 117,
          "midi": 81,
          "name": "A5",
          "velocity": 0.9291338582677166,
          "duration": 0.37187500000000284,
          "ticks": 37440,
          "durationTicks": 119
        },
        {
          "time": 117,
          "midi": 69,
          "name": "A4",
          "velocity": 0.9291338582677166,
          "duration": 0.37187500000000284,
          "ticks": 37440,
          "durationTicks": 119
        },
        {
          "time": 117.5625,
          "midi": 57,
          "name": "A3",
          "velocity": 0.9291338582677166,
          "duration": 0.18437500000000284,
          "ticks": 37620,
          "durationTicks": 59
        },
        {
          "time": 117.75,
          "midi": 69,
          "name": "A4",
          "velocity": 0.9291338582677166,
          "duration": 0.37187500000000284,
          "ticks": 37680,
          "durationTicks": 119
        },
        {
          "time": 118.3125,
          "midi": 57,
          "name": "A3",
          "velocity": 0.9212598425196851,
          "duration": 0.18437500000000284,
          "ticks": 37860,
          "durationTicks": 59
        },
        {
          "time": 118.5,
          "midi": 69,
          "name": "A4",
          "velocity": 0.9212598425196851,
          "duration": 0.37187500000000284,
          "ticks": 37920,
          "durationTicks": 119
        },
        {
          "time": 118.5,
          "midi": 62,
          "name": "D4",
          "velocity": 0.9212598425196851,
          "duration": 0.37187500000000284,
          "ticks": 37920,
          "durationTicks": 119
        },
        {
          "time": 118.5,
          "midi": 78,
          "name": "F#5",
          "velocity": 0.9212598425196851,
          "duration": 0.37187500000000284,
          "ticks": 37920,
          "durationTicks": 119
        },
        {
          "time": 119.625,
          "midi": 62,
          "name": "D4",
          "velocity": 0.905511811023622,
          "duration": 0.37187500000000284,
          "ticks": 38280,
          "durationTicks": 119
        },
        {
          "time": 119.625,
          "midi": 78,
          "name": "F#5",
          "velocity": 0.905511811023622,
          "duration": 0.37187500000000284,
          "ticks": 38280,
          "durationTicks": 119
        },
        {
          "time": 119.625,
          "midi": 69,
          "name": "A4",
          "velocity": 0.905511811023622,
          "duration": 0.37187500000000284,
          "ticks": 38280,
          "durationTicks": 119
        },
        {
          "time": 120,
          "midi": 69,
          "name": "A4",
          "velocity": 0.905511811023622,
          "duration": 0.37187500000000284,
          "ticks": 38400,
          "durationTicks": 119
        },
        {
          "time": 120,
          "midi": 76,
          "name": "E5",
          "velocity": 0.905511811023622,
          "duration": 0.37187500000000284,
          "ticks": 38400,
          "durationTicks": 119
        },
        {
          "time": 120,
          "midi": 73,
          "name": "C#5",
          "velocity": 0.905511811023622,
          "duration": 0.37187500000000284,
          "ticks": 38400,
          "durationTicks": 119
        },
        {
          "time": 120.75,
          "midi": 57,
          "name": "A3",
          "velocity": 0.905511811023622,
          "duration": 0.37187500000000284,
          "ticks": 38640,
          "durationTicks": 119
        },
        {
          "time": 120.75,
          "midi": 66,
          "name": "F#4",
          "velocity": 0.905511811023622,
          "duration": 0.37187500000000284,
          "ticks": 38640,
          "durationTicks": 119
        },
        {
          "time": 120.75,
          "midi": 74,
          "name": "D5",
          "velocity": 0.905511811023622,
          "duration": 0.37187500000000284,
          "ticks": 38640,
          "durationTicks": 119
        },
        {
          "time": 121.5,
          "midi": 64,
          "name": "E4",
          "velocity": 0.9133858267716536,
          "duration": 0.37187500000000284,
          "ticks": 38880,
          "durationTicks": 119
        },
        {
          "time": 121.5,
          "midi": 57,
          "name": "A3",
          "velocity": 0.9133858267716536,
          "duration": 0.37187500000000284,
          "ticks": 38880,
          "durationTicks": 119
        },
        {
          "time": 121.5,
          "midi": 69,
          "name": "A4",
          "velocity": 0.9133858267716536,
          "duration": 0.37187500000000284,
          "ticks": 38880,
          "durationTicks": 119
        },
        {
          "time": 121.5,
          "midi": 76,
          "name": "E5",
          "velocity": 0.9133858267716536,
          "duration": 0.37187500000000284,
          "ticks": 38880,
          "durationTicks": 119
        },
        {
          "time": 122.0625,
          "midi": 57,
          "name": "A3",
          "velocity": 0.9212598425196851,
          "duration": 0.18437500000000284,
          "ticks": 39060,
          "durationTicks": 59
        },
        {
          "time": 122.25,
          "midi": 69,
          "name": "A4",
          "velocity": 0.9291338582677166,
          "duration": 0.37187500000000284,
          "ticks": 39120,
          "durationTicks": 119
        },
        {
          "time": 122.625,
          "midi": 57,
          "name": "A3",
          "velocity": 0.937007874015748,
          "duration": 0.37187500000000284,
          "ticks": 39240,
          "durationTicks": 119
        },
        {
          "time": 122.625,
          "midi": 74,
          "name": "D5",
          "velocity": 0.937007874015748,
          "duration": 0.37187500000000284,
          "ticks": 39240,
          "durationTicks": 119
        },
        {
          "time": 122.625,
          "midi": 66,
          "name": "F#4",
          "velocity": 0.937007874015748,
          "duration": 0.37187500000000284,
          "ticks": 39240,
          "durationTicks": 119
        },
        {
          "time": 123,
          "midi": 64,
          "name": "E4",
          "velocity": 0.9448818897637795,
          "duration": 0.37187500000000284,
          "ticks": 39360,
          "durationTicks": 119
        },
        {
          "time": 123,
          "midi": 57,
          "name": "A3",
          "velocity": 0.9448818897637795,
          "duration": 0.37187500000000284,
          "ticks": 39360,
          "durationTicks": 119
        },
        {
          "time": 123,
          "midi": 69,
          "name": "A4",
          "velocity": 0.9448818897637795,
          "duration": 0.37187500000000284,
          "ticks": 39360,
          "durationTicks": 119
        },
        {
          "time": 123,
          "midi": 76,
          "name": "E5",
          "velocity": 0.9448818897637795,
          "duration": 0.37187500000000284,
          "ticks": 39360,
          "durationTicks": 119
        },
        {
          "time": 123.5625,
          "midi": 57,
          "name": "A3",
          "velocity": 0.952755905511811,
          "duration": 0.18437500000000284,
          "ticks": 39540,
          "durationTicks": 59
        },
        {
          "time": 123.75,
          "midi": 69,
          "name": "A4",
          "velocity": 0.952755905511811,
          "duration": 0.37187500000000284,
          "ticks": 39600,
          "durationTicks": 119
        },
        {
          "time": 124.125,
          "midi": 57,
          "name": "A3",
          "velocity": 0.9606299212598425,
          "duration": 0.37187500000000284,
          "ticks": 39720,
          "durationTicks": 119
        },
        {
          "time": 124.125,
          "midi": 74,
          "name": "D5",
          "velocity": 0.9606299212598425,
          "duration": 0.37187500000000284,
          "ticks": 39720,
          "durationTicks": 119
        },
        {
          "time": 124.125,
          "midi": 66,
          "name": "F#4",
          "velocity": 0.9606299212598425,
          "duration": 0.37187500000000284,
          "ticks": 39720,
          "durationTicks": 119
        },
        {
          "time": 124.5,
          "midi": 76,
          "name": "E5",
          "velocity": 0.9606299212598425,
          "duration": 0.37187500000000284,
          "ticks": 39840,
          "durationTicks": 119
        },
        {
          "time": 124.5,
          "midi": 73,
          "name": "C#5",
          "velocity": 0.9606299212598425,
          "duration": 0.37187500000000284,
          "ticks": 39840,
          "durationTicks": 119
        },
        {
          "time": 125.0625,
          "midi": 57,
          "name": "A3",
          "velocity": 0.968503937007874,
          "duration": 0.18437500000000284,
          "ticks": 40020,
          "durationTicks": 59
        },
        {
          "time": 125.25,
          "midi": 73,
          "name": "C#5",
          "velocity": 0.968503937007874,
          "duration": 0.18437500000000284,
          "ticks": 40080,
          "durationTicks": 59
        },
        {
          "time": 125.25,
          "midi": 78,
          "name": "F#5",
          "velocity": 0.968503937007874,
          "duration": 0.18437500000000284,
          "ticks": 40080,
          "durationTicks": 59
        },
        {
          "time": 125.625,
          "midi": 76,
          "name": "E5",
          "velocity": 0.968503937007874,
          "duration": 0.18437500000000284,
          "ticks": 40200,
          "durationTicks": 59
        },
        {
          "time": 125.625,
          "midi": 73,
          "name": "C#5",
          "velocity": 0.968503937007874,
          "duration": 0.18437500000000284,
          "ticks": 40200,
          "durationTicks": 59
        },
        {
          "time": 126,
          "midi": 62,
          "name": "D4",
          "velocity": 0.968503937007874,
          "duration": 0.18437500000000284,
          "ticks": 40320,
          "durationTicks": 59
        },
        {
          "time": 126,
          "midi": 74,
          "name": "D5",
          "velocity": 0.968503937007874,
          "duration": 0.18437500000000284,
          "ticks": 40320,
          "durationTicks": 59
        },
        {
          "time": 126.375,
          "midi": 71,
          "name": "B4",
          "velocity": 0.968503937007874,
          "duration": 0.18437500000000284,
          "ticks": 40440,
          "durationTicks": 59
        },
        {
          "time": 126.375,
          "midi": 68,
          "name": "G#4",
          "velocity": 0.968503937007874,
          "duration": 0.18437500000000284,
          "ticks": 40440,
          "durationTicks": 59
        },
        {
          "time": 126.75,
          "midi": 69,
          "name": "A4",
          "velocity": 0.968503937007874,
          "duration": 0.18437500000000284,
          "ticks": 40560,
          "durationTicks": 59
        },
        {
          "time": 126.75,
          "midi": 61,
          "name": "C#4",
          "velocity": 0.968503937007874,
          "duration": 0.18437500000000284,
          "ticks": 40560,
          "durationTicks": 59
        },
        {
          "time": 127.125,
          "midi": 62,
          "name": "D4",
          "velocity": 0.968503937007874,
          "duration": 0.18437500000000284,
          "ticks": 40680,
          "durationTicks": 59
        },
        {
          "time": 127.125,
          "midi": 78,
          "name": "F#5",
          "velocity": 0.968503937007874,
          "duration": 0.18437500000000284,
          "ticks": 40680,
          "durationTicks": 59
        },
        {
          "time": 127.125,
          "midi": 69,
          "name": "A4",
          "velocity": 0.968503937007874,
          "duration": 0.18437500000000284,
          "ticks": 40680,
          "durationTicks": 59
        },
        {
          "time": 127.5,
          "midi": 62,
          "name": "D4",
          "velocity": 0.968503937007874,
          "duration": 0.37187500000000284,
          "ticks": 40800,
          "durationTicks": 119
        },
        {
          "time": 127.5,
          "midi": 78,
          "name": "F#5",
          "velocity": 0.968503937007874,
          "duration": 0.37187500000000284,
          "ticks": 40800,
          "durationTicks": 119
        },
        {
          "time": 127.5,
          "midi": 69,
          "name": "A4",
          "velocity": 0.968503937007874,
          "duration": 0.37187500000000284,
          "ticks": 40800,
          "durationTicks": 119
        },
        {
          "time": 128.0625,
          "midi": 62,
          "name": "D4",
          "velocity": 0.968503937007874,
          "duration": 0.18437499999998863,
          "ticks": 40980,
          "durationTicks": 59
        },
        {
          "time": 128.25,
          "midi": 74,
          "name": "D5",
          "velocity": 0.968503937007874,
          "duration": 0.37187499999998863,
          "ticks": 41040,
          "durationTicks": 119
        },
        {
          "time": 128.8125,
          "midi": 62,
          "name": "D4",
          "velocity": 0.9763779527559056,
          "duration": 0.18437499999998863,
          "ticks": 41220,
          "durationTicks": 59
        },
        {
          "time": 129,
          "midi": 69,
          "name": "A4",
          "velocity": 0.6929133858267716,
          "duration": 0.37187499999998863,
          "ticks": 41280,
          "durationTicks": 119
        },
        {
          "time": 129,
          "midi": 81,
          "name": "A5",
          "velocity": 1,
          "duration": 0.37187499999998863,
          "ticks": 41280,
          "durationTicks": 119
        },
        {
          "time": 129.5625,
          "midi": 57,
          "name": "A3",
          "velocity": 1,
          "duration": 0.18437499999998863,
          "ticks": 41460,
          "durationTicks": 59
        },
        {
          "time": 129.75,
          "midi": 69,
          "name": "A4",
          "velocity": 1,
          "duration": 0.37187499999998863,
          "ticks": 41520,
          "durationTicks": 119
        },
        {
          "time": 130.3125,
          "midi": 57,
          "name": "A3",
          "velocity": 1,
          "duration": 0.18437499999998863,
          "ticks": 41700,
          "durationTicks": 59
        },
        {
          "time": 130.5,
          "midi": 57,
          "name": "A3",
          "velocity": 0.5511811023622047,
          "duration": 0.37187499999998863,
          "ticks": 41760,
          "durationTicks": 119
        },
        {
          "time": 130.5,
          "midi": 66,
          "name": "F#4",
          "velocity": 0.6062992125984252,
          "duration": 0.37187499999998863,
          "ticks": 41760,
          "durationTicks": 119
        },
        {
          "time": 130.5,
          "midi": 74,
          "name": "D5",
          "velocity": 0.7795275590551181,
          "duration": 0.37187499999998863,
          "ticks": 41760,
          "durationTicks": 119
        },
        {
          "time": 131.625,
          "midi": 62,
          "name": "D4",
          "velocity": 0.6220472440944882,
          "duration": 0.37187499999998863,
          "ticks": 42120,
          "durationTicks": 119
        },
        {
          "time": 131.625,
          "midi": 69,
          "name": "A4",
          "velocity": 0.5275590551181102,
          "duration": 0.37187499999998863,
          "ticks": 42120,
          "durationTicks": 119
        },
        {
          "time": 131.625,
          "midi": 78,
          "name": "F#5",
          "velocity": 1,
          "duration": 0.37187499999998863,
          "ticks": 42120,
          "durationTicks": 119
        },
        {
          "time": 132,
          "midi": 57,
          "name": "A3",
          "velocity": 0.6771653543307087,
          "duration": 0.37187499999998863,
          "ticks": 42240,
          "durationTicks": 119
        },
        {
          "time": 132,
          "midi": 69,
          "name": "A4",
          "velocity": 0.7401574803149606,
          "duration": 0.37187499999998863,
          "ticks": 42240,
          "durationTicks": 119
        },
        {
          "time": 132,
          "midi": 76,
          "name": "E5",
          "velocity": 0.8503937007874016,
          "duration": 0.37187499999998863,
          "ticks": 42240,
          "durationTicks": 119
        },
        {
          "time": 132,
          "midi": 64,
          "name": "E4",
          "velocity": 0.5905511811023622,
          "duration": 0.37187499999998863,
          "ticks": 42240,
          "durationTicks": 119
        },
        {
          "time": 132.75,
          "midi": 66,
          "name": "F#4",
          "velocity": 0.5669291338582677,
          "duration": 0.37187499999998863,
          "ticks": 42480,
          "durationTicks": 119
        },
        {
          "time": 132.75,
          "midi": 57,
          "name": "A3",
          "velocity": 0.5748031496062992,
          "duration": 0.37187499999998863,
          "ticks": 42480,
          "durationTicks": 119
        },
        {
          "time": 132.75,
          "midi": 74,
          "name": "D5",
          "velocity": 0.9763779527559056,
          "duration": 0.37187499999998863,
          "ticks": 42480,
          "durationTicks": 119
        },
        {
          "time": 133.5,
          "midi": 57,
          "name": "A3",
          "velocity": 0.6535433070866141,
          "duration": 0.37187499999998863,
          "ticks": 42720,
          "durationTicks": 119
        },
        {
          "time": 133.5,
          "midi": 64,
          "name": "E4",
          "velocity": 0.5669291338582677,
          "duration": 0.37187499999998863,
          "ticks": 42720,
          "durationTicks": 119
        },
        {
          "time": 133.5,
          "midi": 76,
          "name": "E5",
          "velocity": 0.7637795275590551,
          "duration": 0.37187499999998863,
          "ticks": 42720,
          "durationTicks": 119
        },
        {
          "time": 133.5,
          "midi": 69,
          "name": "A4",
          "velocity": 0.7637795275590551,
          "duration": 0.37187499999998863,
          "ticks": 42720,
          "durationTicks": 119
        },
        {
          "time": 134.0625,
          "midi": 57,
          "name": "A3",
          "velocity": 1,
          "duration": 0.18437499999998863,
          "ticks": 42900,
          "durationTicks": 59
        },
        {
          "time": 134.25,
          "midi": 69,
          "name": "A4",
          "velocity": 1,
          "duration": 0.37187499999998863,
          "ticks": 42960,
          "durationTicks": 119
        },
        {
          "time": 134.625,
          "midi": 57,
          "name": "A3",
          "velocity": 0.4645669291338583,
          "duration": 0.37187499999998863,
          "ticks": 43080,
          "durationTicks": 119
        },
        {
          "time": 134.625,
          "midi": 66,
          "name": "F#4",
          "velocity": 0.5433070866141733,
          "duration": 0.37187499999998863,
          "ticks": 43080,
          "durationTicks": 119
        },
        {
          "time": 134.625,
          "midi": 74,
          "name": "D5",
          "velocity": 0.7637795275590551,
          "duration": 0.37187499999998863,
          "ticks": 43080,
          "durationTicks": 119
        },
        {
          "time": 135,
          "midi": 57,
          "name": "A3",
          "velocity": 0.5433070866141733,
          "duration": 0.37187499999998863,
          "ticks": 43200,
          "durationTicks": 119
        },
        {
          "time": 135,
          "midi": 64,
          "name": "E4",
          "velocity": 0.5511811023622047,
          "duration": 0.37187499999998863,
          "ticks": 43200,
          "durationTicks": 119
        },
        {
          "time": 135,
          "midi": 76,
          "name": "E5",
          "velocity": 0.7086614173228346,
          "duration": 0.37187499999998863,
          "ticks": 43200,
          "durationTicks": 119
        },
        {
          "time": 135,
          "midi": 69,
          "name": "A4",
          "velocity": 0.7244094488188977,
          "duration": 0.37187499999998863,
          "ticks": 43200,
          "durationTicks": 119
        },
        {
          "time": 135.5625,
          "midi": 57,
          "name": "A3",
          "velocity": 1,
          "duration": 0.18437499999998863,
          "ticks": 43380,
          "durationTicks": 59
        },
        {
          "time": 135.75,
          "midi": 69,
          "name": "A4",
          "velocity": 1,
          "duration": 0.37187499999998863,
          "ticks": 43440,
          "durationTicks": 119
        },
        {
          "time": 136.125,
          "midi": 57,
          "name": "A3",
          "velocity": 0.49606299212598426,
          "duration": 0.37187499999998863,
          "ticks": 43560,
          "durationTicks": 119
        },
        {
          "time": 136.125,
          "midi": 66,
          "name": "F#4",
          "velocity": 0.5433070866141733,
          "duration": 0.37187499999998863,
          "ticks": 43560,
          "durationTicks": 119
        },
        {
          "time": 136.125,
          "midi": 74,
          "name": "D5",
          "velocity": 1,
          "duration": 0.37187499999998863,
          "ticks": 43560,
          "durationTicks": 119
        },
        {
          "time": 136.5,
          "midi": 76,
          "name": "E5",
          "velocity": 0.9763779527559056,
          "duration": 0.37187499999998863,
          "ticks": 43680,
          "durationTicks": 119
        },
        {
          "time": 136.5,
          "midi": 73,
          "name": "C#5",
          "velocity": 1,
          "duration": 0.37187499999998863,
          "ticks": 43680,
          "durationTicks": 119
        },
        {
          "time": 137.0625,
          "midi": 57,
          "name": "A3",
          "velocity": 1,
          "duration": 0.18437499999998863,
          "ticks": 43860,
          "durationTicks": 59
        },
        {
          "time": 137.25,
          "midi": 73,
          "name": "C#5",
          "velocity": 1,
          "duration": 0.18437499999998863,
          "ticks": 43920,
          "durationTicks": 59
        },
        {
          "time": 137.25,
          "midi": 78,
          "name": "F#5",
          "velocity": 1,
          "duration": 0.18437499999998863,
          "ticks": 43920,
          "durationTicks": 59
        },
        {
          "time": 137.625,
          "midi": 76,
          "name": "E5",
          "velocity": 1,
          "duration": 0.18437499999998863,
          "ticks": 44040,
          "durationTicks": 59
        },
        {
          "time": 137.625,
          "midi": 73,
          "name": "C#5",
          "velocity": 1,
          "duration": 0.18437499999998863,
          "ticks": 44040,
          "durationTicks": 59
        },
        {
          "time": 138,
          "midi": 74,
          "name": "D5",
          "velocity": 0.9763779527559056,
          "duration": 0.18437499999998863,
          "ticks": 44160,
          "durationTicks": 59
        },
        {
          "time": 138,
          "midi": 62,
          "name": "D4",
          "velocity": 0.7401574803149606,
          "duration": 0.18437499999998863,
          "ticks": 44160,
          "durationTicks": 59
        },
        {
          "time": 138.375,
          "midi": 68,
          "name": "G#4",
          "velocity": 0.9763779527559056,
          "duration": 0.18437499999998863,
          "ticks": 44280,
          "durationTicks": 59
        },
        {
          "time": 138.375,
          "midi": 71,
          "name": "B4",
          "velocity": 1,
          "duration": 0.18437499999998863,
          "ticks": 44280,
          "durationTicks": 59
        },
        {
          "time": 138.75,
          "midi": 69,
          "name": "A4",
          "velocity": 1,
          "duration": 0.18437499999998863,
          "ticks": 44400,
          "durationTicks": 59
        },
        {
          "time": 138.75,
          "midi": 61,
          "name": "C#4",
          "velocity": 1,
          "duration": 0.18437499999998863,
          "ticks": 44400,
          "durationTicks": 59
        },
        {
          "time": 139.125,
          "midi": 62,
          "name": "D4",
          "velocity": 0.5354330708661418,
          "duration": 0.18437499999998863,
          "ticks": 44520,
          "durationTicks": 59
        },
        {
          "time": 139.125,
          "midi": 78,
          "name": "F#5",
          "velocity": 1,
          "duration": 0.18437499999998863,
          "ticks": 44520,
          "durationTicks": 59
        },
        {
          "time": 139.125,
          "midi": 69,
          "name": "A4",
          "velocity": 0.5118110236220472,
          "duration": 0.18437499999998863,
          "ticks": 44520,
          "durationTicks": 59
        },
        {
          "time": 139.5,
          "midi": 78,
          "name": "F#5",
          "velocity": 1,
          "duration": 0.37187499999998863,
          "ticks": 44640,
          "durationTicks": 119
        },
        {
          "time": 139.5,
          "midi": 62,
          "name": "D4",
          "velocity": 0.6220472440944882,
          "duration": 0.37187499999998863,
          "ticks": 44640,
          "durationTicks": 119
        },
        {
          "time": 139.5,
          "midi": 69,
          "name": "A4",
          "velocity": 0.6141732283464567,
          "duration": 0.37187499999998863,
          "ticks": 44640,
          "durationTicks": 119
        },
        {
          "time": 140.0625,
          "midi": 62,
          "name": "D4",
          "velocity": 1,
          "duration": 0.18437499999998863,
          "ticks": 44820,
          "durationTicks": 59
        },
        {
          "time": 140.25,
          "midi": 74,
          "name": "D5",
          "velocity": 0.937007874015748,
          "duration": 0.37187499999998863,
          "ticks": 44880,
          "durationTicks": 119
        },
        {
          "time": 140.8125,
          "midi": 62,
          "name": "D4",
          "velocity": 1,
          "duration": 0.18437499999998863,
          "ticks": 45060,
          "durationTicks": 59
        },
        {
          "time": 141,
          "midi": 81,
          "name": "A5",
          "velocity": 1,
          "duration": 0.37187499999998863,
          "ticks": 45120,
          "durationTicks": 119
        },
        {
          "time": 141,
          "midi": 69,
          "name": "A4",
          "velocity": 0.7637795275590551,
          "duration": 0.37187499999998863,
          "ticks": 45120,
          "durationTicks": 119
        },
        {
          "time": 141.5625,
          "midi": 57,
          "name": "A3",
          "velocity": 1,
          "duration": 0.18437499999998863,
          "ticks": 45300,
          "durationTicks": 59
        },
        {
          "time": 141.75,
          "midi": 69,
          "name": "A4",
          "velocity": 1,
          "duration": 0.37187499999998863,
          "ticks": 45360,
          "durationTicks": 119
        },
        {
          "time": 142.3125,
          "midi": 57,
          "name": "A3",
          "velocity": 1,
          "duration": 0.18437499999998863,
          "ticks": 45540,
          "durationTicks": 59
        },
        {
          "time": 142.5,
          "midi": 74,
          "name": "D5",
          "velocity": 1,
          "duration": 0.37187499999998863,
          "ticks": 45600,
          "durationTicks": 119
        },
        {
          "time": 142.5,
          "midi": 66,
          "name": "F#4",
          "velocity": 0.6377952755905512,
          "duration": 0.37187499999998863,
          "ticks": 45600,
          "durationTicks": 119
        },
        {
          "time": 142.5,
          "midi": 57,
          "name": "A3",
          "velocity": 0.6535433070866141,
          "duration": 0.37187499999998863,
          "ticks": 45600,
          "durationTicks": 119
        },
        {
          "time": 143.625,
          "midi": 62,
          "name": "D4",
          "velocity": 0.5905511811023622,
          "duration": 0.37187499999998863,
          "ticks": 45960,
          "durationTicks": 119
        },
        {
          "time": 143.625,
          "midi": 69,
          "name": "A4",
          "velocity": 0.47244094488188976,
          "duration": 0.37187499999998863,
          "ticks": 45960,
          "durationTicks": 119
        },
        {
          "time": 143.625,
          "midi": 78,
          "name": "F#5",
          "velocity": 1,
          "duration": 0.37187499999998863,
          "ticks": 45960,
          "durationTicks": 119
        },
        {
          "time": 144,
          "midi": 69,
          "name": "A4",
          "velocity": 0.6614173228346457,
          "duration": 0.37187499999998863,
          "ticks": 46080,
          "durationTicks": 119
        },
        {
          "time": 144,
          "midi": 64,
          "name": "E4",
          "velocity": 0.5905511811023622,
          "duration": 0.37187499999998863,
          "ticks": 46080,
          "durationTicks": 119
        },
        {
          "time": 144,
          "midi": 57,
          "name": "A3",
          "velocity": 0.6377952755905512,
          "duration": 0.37187499999998863,
          "ticks": 46080,
          "durationTicks": 119
        },
        {
          "time": 144,
          "midi": 76,
          "name": "E5",
          "velocity": 0.7401574803149606,
          "duration": 0.37187499999998863,
          "ticks": 46080,
          "durationTicks": 119
        },
        {
          "time": 144.75,
          "midi": 62,
          "name": "D4",
          "velocity": 1,
          "duration": 0.09062499999998863,
          "ticks": 46320,
          "durationTicks": 29
        },
        {
          "time": 144.84375,
          "midi": 66,
          "name": "F#4",
          "velocity": 1,
          "duration": 0.09062499999998863,
          "ticks": 46350,
          "durationTicks": 29
        },
        {
          "time": 144.9375,
          "midi": 64,
          "name": "E4",
          "velocity": 1,
          "duration": 0.09062499999998863,
          "ticks": 46380,
          "durationTicks": 29
        },
        {
          "time": 145.03125,
          "midi": 62,
          "name": "D4",
          "velocity": 0.9763779527559056,
          "duration": 0.09062499999998863,
          "ticks": 46410,
          "durationTicks": 29
        },
        {
          "time": 145.125,
          "midi": 61,
          "name": "C#4",
          "velocity": 1,
          "duration": 0.09062499999998863,
          "ticks": 46440,
          "durationTicks": 29
        },
        {
          "time": 145.21875,
          "midi": 62,
          "name": "D4",
          "velocity": 1,
          "duration": 0.09062499999998863,
          "ticks": 46470,
          "durationTicks": 29
        },
        {
          "time": 145.3125,
          "midi": 64,
          "name": "E4",
          "velocity": 1,
          "duration": 0.09062499999998863,
          "ticks": 46500,
          "durationTicks": 29
        },
        {
          "time": 145.40625,
          "midi": 62,
          "name": "D4",
          "velocity": 1,
          "duration": 0.09062499999998863,
          "ticks": 46530,
          "durationTicks": 29
        },
        {
          "time": 145.5,
          "midi": 62,
          "name": "D4",
          "velocity": 1,
          "duration": 0.09062499999998863,
          "ticks": 46560,
          "durationTicks": 29
        },
        {
          "time": 145.59375,
          "midi": 57,
          "name": "A3",
          "velocity": 0.905511811023622,
          "duration": 0.09062499999998863,
          "ticks": 46590,
          "durationTicks": 29
        },
        {
          "time": 145.6875,
          "midi": 59,
          "name": "B3",
          "velocity": 1,
          "duration": 0.09062499999998863,
          "ticks": 46620,
          "durationTicks": 29
        },
        {
          "time": 145.78125,
          "midi": 61,
          "name": "C#4",
          "velocity": 1,
          "duration": 0.09062499999998863,
          "ticks": 46650,
          "durationTicks": 29
        },
        {
          "time": 145.875,
          "midi": 62,
          "name": "D4",
          "velocity": 0.937007874015748,
          "duration": 0.09062499999998863,
          "ticks": 46680,
          "durationTicks": 29
        },
        {
          "time": 145.96875,
          "midi": 61,
          "name": "C#4",
          "velocity": 1,
          "duration": 0.09062499999998863,
          "ticks": 46710,
          "durationTicks": 29
        },
        {
          "time": 146.0625,
          "midi": 62,
          "name": "D4",
          "velocity": 0.7637795275590551,
          "duration": 0.09062499999998863,
          "ticks": 46740,
          "durationTicks": 29
        },
        {
          "time": 146.15625,
          "midi": 64,
          "name": "E4",
          "velocity": 0.8267716535433071,
          "duration": 0.09062499999998863,
          "ticks": 46770,
          "durationTicks": 29
        },
        {
          "time": 146.25,
          "midi": 66,
          "name": "F#4",
          "velocity": 1,
          "duration": 0.09062499999998863,
          "ticks": 46800,
          "durationTicks": 29
        },
        {
          "time": 146.34375,
          "midi": 69,
          "name": "A4",
          "velocity": 0.7795275590551181,
          "duration": 0.09062499999998863,
          "ticks": 46830,
          "durationTicks": 29
        },
        {
          "time": 146.4375,
          "midi": 67,
          "name": "G4",
          "velocity": 0.8031496062992126,
          "duration": 0.09062499999998863,
          "ticks": 46860,
          "durationTicks": 29
        },
        {
          "time": 146.53125,
          "midi": 66,
          "name": "F#4",
          "velocity": 1,
          "duration": 0.09062499999998863,
          "ticks": 46890,
          "durationTicks": 29
        },
        {
          "time": 146.625,
          "midi": 64,
          "name": "E4",
          "velocity": 0.8818897637795275,
          "duration": 0.09062499999998863,
          "ticks": 46920,
          "durationTicks": 29
        },
        {
          "time": 146.71875,
          "midi": 66,
          "name": "F#4",
          "velocity": 1,
          "duration": 0.09062499999998863,
          "ticks": 46950,
          "durationTicks": 29
        },
        {
          "time": 146.8125,
          "midi": 67,
          "name": "G4",
          "velocity": 0.7637795275590551,
          "duration": 0.09062499999998863,
          "ticks": 46980,
          "durationTicks": 29
        },
        {
          "time": 146.90625,
          "midi": 69,
          "name": "A4",
          "velocity": 0.7401574803149606,
          "duration": 0.09062499999998863,
          "ticks": 47010,
          "durationTicks": 29
        },
        {
          "time": 147,
          "midi": 71,
          "name": "B4",
          "velocity": 0.7795275590551181,
          "duration": 0.09062499999998863,
          "ticks": 47040,
          "durationTicks": 29
        },
        {
          "time": 147.09375,
          "midi": 72,
          "name": "C5",
          "velocity": 0.7795275590551181,
          "duration": 0.09062499999998863,
          "ticks": 47070,
          "durationTicks": 29
        },
        {
          "time": 147.1875,
          "midi": 74,
          "name": "D5",
          "velocity": 0.8031496062992126,
          "duration": 0.09062499999998863,
          "ticks": 47100,
          "durationTicks": 29
        },
        {
          "time": 147.28125,
          "midi": 76,
          "name": "E5",
          "velocity": 0.7637795275590551,
          "duration": 0.09062499999998863,
          "ticks": 47130,
          "durationTicks": 29
        },
        {
          "time": 147.375,
          "midi": 78,
          "name": "F#5",
          "velocity": 0.8503937007874016,
          "duration": 0.09062499999998863,
          "ticks": 47160,
          "durationTicks": 29
        },
        {
          "time": 147.46875,
          "midi": 79,
          "name": "G5",
          "velocity": 0.6377952755905512,
          "duration": 0.09062499999998863,
          "ticks": 47190,
          "durationTicks": 29
        },
        {
          "time": 147.5625,
          "midi": 81,
          "name": "A5",
          "velocity": 0.7401574803149606,
          "duration": 0.09062499999998863,
          "ticks": 47220,
          "durationTicks": 29
        },
        {
          "time": 147.65625,
          "midi": 83,
          "name": "B5",
          "velocity": 0.8503937007874016,
          "duration": 0.09062499999998863,
          "ticks": 47250,
          "durationTicks": 29
        },
        {
          "time": 147.75,
          "midi": 71,
          "name": "B4",
          "velocity": 0.7401574803149606,
          "duration": 0.09062499999998863,
          "ticks": 47280,
          "durationTicks": 29
        },
        {
          "time": 147.84375,
          "midi": 72,
          "name": "C5",
          "velocity": 0.8267716535433071,
          "duration": 0.09062499999998863,
          "ticks": 47310,
          "durationTicks": 29
        },
        {
          "time": 147.9375,
          "midi": 74,
          "name": "D5",
          "velocity": 0.7795275590551181,
          "duration": 0.09062499999998863,
          "ticks": 47340,
          "durationTicks": 29
        },
        {
          "time": 148.03125,
          "midi": 76,
          "name": "E5",
          "velocity": 0.8031496062992126,
          "duration": 0.09062499999998863,
          "ticks": 47370,
          "durationTicks": 29
        },
        {
          "time": 148.125,
          "midi": 78,
          "name": "F#5",
          "velocity": 0.7244094488188977,
          "duration": 0.09062499999998863,
          "ticks": 47400,
          "durationTicks": 29
        },
        {
          "time": 148.21875,
          "midi": 79,
          "name": "G5",
          "velocity": 0.7244094488188977,
          "duration": 0.09062499999998863,
          "ticks": 47430,
          "durationTicks": 29
        },
        {
          "time": 148.3125,
          "midi": 81,
          "name": "A5",
          "velocity": 0.6929133858267716,
          "duration": 0.09062499999998863,
          "ticks": 47460,
          "durationTicks": 29
        },
        {
          "time": 148.40625,
          "midi": 83,
          "name": "B5",
          "velocity": 0.905511811023622,
          "duration": 0.09062499999998863,
          "ticks": 47490,
          "durationTicks": 29
        },
        {
          "time": 148.496875,
          "midi": 71,
          "name": "B4",
          "velocity": 0.7086614173228346,
          "duration": 0.09062500000001705,
          "ticks": 47519,
          "durationTicks": 29
        },
        {
          "time": 148.590625,
          "midi": 73,
          "name": "C#5",
          "velocity": 1,
          "duration": 0.09062500000001705,
          "ticks": 47549,
          "durationTicks": 29
        },
        {
          "time": 148.684375,
          "midi": 74,
          "name": "D5",
          "velocity": 0.905511811023622,
          "duration": 0.09062500000001705,
          "ticks": 47579,
          "durationTicks": 29
        },
        {
          "time": 148.778125,
          "midi": 76,
          "name": "E5",
          "velocity": 0.9763779527559056,
          "duration": 0.09062500000001705,
          "ticks": 47609,
          "durationTicks": 29
        },
        {
          "time": 148.871875,
          "midi": 71,
          "name": "B4",
          "velocity": 0.937007874015748,
          "duration": 0.09062500000001705,
          "ticks": 47639,
          "durationTicks": 29
        },
        {
          "time": 148.965625,
          "midi": 73,
          "name": "C#5",
          "velocity": 1,
          "duration": 0.09062500000001705,
          "ticks": 47669,
          "durationTicks": 29
        },
        {
          "time": 149.059375,
          "midi": 74,
          "name": "D5",
          "velocity": 1,
          "duration": 0.09062500000001705,
          "ticks": 47699,
          "durationTicks": 29
        },
        {
          "time": 149.153125,
          "midi": 76,
          "name": "E5",
          "velocity": 0.9763779527559056,
          "duration": 0.09062500000001705,
          "ticks": 47729,
          "durationTicks": 29
        },
        {
          "time": 149.246875,
          "midi": 64,
          "name": "E4",
          "velocity": 0.9763779527559056,
          "duration": 0.09062500000001705,
          "ticks": 47759,
          "durationTicks": 29
        },
        {
          "time": 149.340625,
          "midi": 66,
          "name": "F#4",
          "velocity": 1,
          "duration": 0.09062500000001705,
          "ticks": 47789,
          "durationTicks": 29
        },
        {
          "time": 149.434375,
          "midi": 67,
          "name": "G4",
          "velocity": 0.7086614173228346,
          "duration": 0.09062500000001705,
          "ticks": 47819,
          "durationTicks": 29
        },
        {
          "time": 149.528125,
          "midi": 69,
          "name": "A4",
          "velocity": 0.7637795275590551,
          "duration": 0.09062500000001705,
          "ticks": 47849,
          "durationTicks": 29
        },
        {
          "time": 149.621875,
          "midi": 71,
          "name": "B4",
          "velocity": 1,
          "duration": 0.09062500000001705,
          "ticks": 47879,
          "durationTicks": 29
        },
        {
          "time": 149.715625,
          "midi": 73,
          "name": "C#5",
          "velocity": 0.9763779527559056,
          "duration": 0.09062500000001705,
          "ticks": 47909,
          "durationTicks": 29
        },
        {
          "time": 149.809375,
          "midi": 73,
          "name": "C#5",
          "velocity": 1,
          "duration": 0.09062500000001705,
          "ticks": 47939,
          "durationTicks": 29
        },
        {
          "time": 149.903125,
          "midi": 73,
          "name": "C#5",
          "velocity": 1,
          "duration": 0.09062500000001705,
          "ticks": 47969,
          "durationTicks": 29
        },
        {
          "time": 149.99375,
          "midi": 66,
          "name": "F#4",
          "velocity": 1,
          "duration": 0.09062500000001705,
          "ticks": 47998,
          "durationTicks": 29
        },
        {
          "time": 150.0875,
          "midi": 67,
          "name": "G4",
          "velocity": 0.7637795275590551,
          "duration": 0.09062500000001705,
          "ticks": 48028,
          "durationTicks": 29
        },
        {
          "time": 150.18125,
          "midi": 69,
          "name": "A4",
          "velocity": 0.905511811023622,
          "duration": 0.09062500000001705,
          "ticks": 48058,
          "durationTicks": 29
        },
        {
          "time": 150.275,
          "midi": 71,
          "name": "B4",
          "velocity": 0.8503937007874016,
          "duration": 0.09062500000001705,
          "ticks": 48088,
          "durationTicks": 29
        },
        {
          "time": 150.36875,
          "midi": 73,
          "name": "C#5",
          "velocity": 0.905511811023622,
          "duration": 0.09062500000001705,
          "ticks": 48118,
          "durationTicks": 29
        },
        {
          "time": 150.4625,
          "midi": 74,
          "name": "D5",
          "velocity": 0.7244094488188977,
          "duration": 0.09062500000001705,
          "ticks": 48148,
          "durationTicks": 29
        },
        {
          "time": 150.55625,
          "midi": 76,
          "name": "E5",
          "velocity": 1,
          "duration": 0.09062500000001705,
          "ticks": 48178,
          "durationTicks": 29
        },
        {
          "time": 150.65,
          "midi": 78,
          "name": "F#5",
          "velocity": 0.8031496062992126,
          "duration": 0.09062500000001705,
          "ticks": 48208,
          "durationTicks": 29
        },
        {
          "time": 150.74375,
          "midi": 69,
          "name": "A4",
          "velocity": 0.8031496062992126,
          "duration": 0.09062500000001705,
          "ticks": 48238,
          "durationTicks": 29
        },
        {
          "time": 150.8375,
          "midi": 71,
          "name": "B4",
          "velocity": 0.6614173228346457,
          "duration": 0.09062500000001705,
          "ticks": 48268,
          "durationTicks": 29
        },
        {
          "time": 150.93125,
          "midi": 73,
          "name": "C#5",
          "velocity": 0.8267716535433071,
          "duration": 0.09062500000001705,
          "ticks": 48298,
          "durationTicks": 29
        },
        {
          "time": 151.025,
          "midi": 74,
          "name": "D5",
          "velocity": 0.6614173228346457,
          "duration": 0.09062500000001705,
          "ticks": 48328,
          "durationTicks": 29
        },
        {
          "time": 151.11875,
          "midi": 76,
          "name": "E5",
          "velocity": 0.905511811023622,
          "duration": 0.09062500000001705,
          "ticks": 48358,
          "durationTicks": 29
        },
        {
          "time": 151.2125,
          "midi": 78,
          "name": "F#5",
          "velocity": 0.6614173228346457,
          "duration": 0.09062500000001705,
          "ticks": 48388,
          "durationTicks": 29
        },
        {
          "time": 151.30625,
          "midi": 79,
          "name": "G5",
          "velocity": 0.7795275590551181,
          "duration": 0.09062500000001705,
          "ticks": 48418,
          "durationTicks": 29
        },
        {
          "time": 151.4,
          "midi": 81,
          "name": "A5",
          "velocity": 0.8503937007874016,
          "duration": 0.09062500000001705,
          "ticks": 48448,
          "durationTicks": 29
        },
        {
          "time": 151.49375,
          "midi": 71,
          "name": "B4",
          "velocity": 0.8818897637795275,
          "duration": 0.09062500000001705,
          "ticks": 48478,
          "durationTicks": 29
        },
        {
          "time": 151.5875,
          "midi": 73,
          "name": "C#5",
          "velocity": 1,
          "duration": 0.09062500000001705,
          "ticks": 48508,
          "durationTicks": 29
        },
        {
          "time": 151.68125,
          "midi": 74,
          "name": "D5",
          "velocity": 0.7795275590551181,
          "duration": 0.09062500000001705,
          "ticks": 48538,
          "durationTicks": 29
        },
        {
          "time": 151.775,
          "midi": 76,
          "name": "E5",
          "velocity": 0.7401574803149606,
          "duration": 0.09062500000001705,
          "ticks": 48568,
          "durationTicks": 29
        },
        {
          "time": 151.86875,
          "midi": 78,
          "name": "F#5",
          "velocity": 0.7086614173228346,
          "duration": 0.09062500000001705,
          "ticks": 48598,
          "durationTicks": 29
        },
        {
          "time": 151.9625,
          "midi": 79,
          "name": "G5",
          "velocity": 0.7086614173228346,
          "duration": 0.09062500000001705,
          "ticks": 48628,
          "durationTicks": 29
        },
        {
          "time": 152.05625,
          "midi": 81,
          "name": "A5",
          "velocity": 0.7401574803149606,
          "duration": 0.09062500000001705,
          "ticks": 48658,
          "durationTicks": 29
        },
        {
          "time": 152.15,
          "midi": 83,
          "name": "B5",
          "velocity": 0.905511811023622,
          "duration": 0.09062500000001705,
          "ticks": 48688,
          "durationTicks": 29
        },
        {
          "time": 152.24375,
          "midi": 64,
          "name": "E4",
          "velocity": 0.8818897637795275,
          "duration": 0.09062500000001705,
          "ticks": 48718,
          "durationTicks": 29
        },
        {
          "time": 152.3375,
          "midi": 66,
          "name": "F#4",
          "velocity": 0.905511811023622,
          "duration": 0.09062500000001705,
          "ticks": 48748,
          "durationTicks": 29
        },
        {
          "time": 152.43125,
          "midi": 67,
          "name": "G4",
          "velocity": 0.7244094488188977,
          "duration": 0.09062500000001705,
          "ticks": 48778,
          "durationTicks": 29
        },
        {
          "time": 152.525,
          "midi": 69,
          "name": "A4",
          "velocity": 0.8267716535433071,
          "duration": 0.09062500000001705,
          "ticks": 48808,
          "durationTicks": 29
        },
        {
          "time": 152.61875,
          "midi": 71,
          "name": "B4",
          "velocity": 0.937007874015748,
          "duration": 0.09062500000001705,
          "ticks": 48838,
          "durationTicks": 29
        },
        {
          "time": 152.7125,
          "midi": 73,
          "name": "C#5",
          "velocity": 0.9763779527559056,
          "duration": 0.09062500000001705,
          "ticks": 48868,
          "durationTicks": 29
        },
        {
          "time": 152.80625,
          "midi": 74,
          "name": "D5",
          "velocity": 0.9763779527559056,
          "duration": 0.09062500000001705,
          "ticks": 48898,
          "durationTicks": 29
        },
        {
          "time": 152.9,
          "midi": 76,
          "name": "E5",
          "velocity": 0.9763779527559056,
          "duration": 0.09062500000001705,
          "ticks": 48928,
          "durationTicks": 29
        },
        {
          "time": 152.99375,
          "midi": 61,
          "name": "C#4",
          "velocity": 0.9763779527559056,
          "duration": 0.09062500000001705,
          "ticks": 48958,
          "durationTicks": 29
        },
        {
          "time": 153.0875,
          "midi": 62,
          "name": "D4",
          "velocity": 0.8503937007874016,
          "duration": 0.09062500000001705,
          "ticks": 48988,
          "durationTicks": 29
        },
        {
          "time": 153.18125,
          "midi": 64,
          "name": "E4",
          "velocity": 0.8267716535433071,
          "duration": 0.09062500000001705,
          "ticks": 49018,
          "durationTicks": 29
        },
        {
          "time": 153.275,
          "midi": 66,
          "name": "F#4",
          "velocity": 1,
          "duration": 0.09062500000001705,
          "ticks": 49048,
          "durationTicks": 29
        },
        {
          "time": 153.36875,
          "midi": 61,
          "name": "C#4",
          "velocity": 0.9763779527559056,
          "duration": 0.09062500000001705,
          "ticks": 49078,
          "durationTicks": 29
        },
        {
          "time": 153.4625,
          "midi": 62,
          "name": "D4",
          "velocity": 0.905511811023622,
          "duration": 0.09062500000001705,
          "ticks": 49108,
          "durationTicks": 29
        },
        {
          "time": 153.55625,
          "midi": 64,
          "name": "E4",
          "velocity": 0.9763779527559056,
          "duration": 0.09062500000001705,
          "ticks": 49138,
          "durationTicks": 29
        },
        {
          "time": 153.65,
          "midi": 66,
          "name": "F#4",
          "velocity": 1,
          "duration": 0.09062500000001705,
          "ticks": 49168,
          "durationTicks": 29
        },
        {
          "time": 153.74375,
          "midi": 59,
          "name": "B3",
          "velocity": 1,
          "duration": 0.09062500000001705,
          "ticks": 49198,
          "durationTicks": 29
        },
        {
          "time": 153.8375,
          "midi": 61,
          "name": "C#4",
          "velocity": 1,
          "duration": 0.09062500000001705,
          "ticks": 49228,
          "durationTicks": 29
        },
        {
          "time": 153.93125,
          "midi": 62,
          "name": "D4",
          "velocity": 0.8503937007874016,
          "duration": 0.09062500000001705,
          "ticks": 49258,
          "durationTicks": 29
        },
        {
          "time": 154.025,
          "midi": 64,
          "name": "E4",
          "velocity": 0.905511811023622,
          "duration": 0.09062500000001705,
          "ticks": 49288,
          "durationTicks": 29
        },
        {
          "time": 154.11875,
          "midi": 66,
          "name": "F#4",
          "velocity": 0.8818897637795275,
          "duration": 0.09062500000001705,
          "ticks": 49318,
          "durationTicks": 29
        },
        {
          "time": 154.2125,
          "midi": 67,
          "name": "G4",
          "velocity": 0.8503937007874016,
          "duration": 0.09062500000001705,
          "ticks": 49348,
          "durationTicks": 29
        },
        {
          "time": 154.30625,
          "midi": 69,
          "name": "A4",
          "velocity": 1,
          "duration": 0.09062500000001705,
          "ticks": 49378,
          "durationTicks": 29
        },
        {
          "time": 154.4,
          "midi": 71,
          "name": "B4",
          "velocity": 1,
          "duration": 0.09062500000001705,
          "ticks": 49408,
          "durationTicks": 29
        },
        {
          "time": 154.5,
          "midi": 69,
          "name": "A4",
          "velocity": 0.8503937007874016,
          "duration": 0.09062499999998863,
          "ticks": 49440,
          "durationTicks": 29
        },
        {
          "time": 154.5875,
          "midi": 81,
          "name": "A5",
          "velocity": 0.7795275590551181,
          "duration": 0.09062500000001705,
          "ticks": 49468,
          "durationTicks": 29
        },
        {
          "time": 154.68125,
          "midi": 78,
          "name": "F#5",
          "velocity": 1,
          "duration": 0.09062500000001705,
          "ticks": 49498,
          "durationTicks": 29
        },
        {
          "time": 154.775,
          "midi": 75,
          "name": "D#5",
          "velocity": 1,
          "duration": 0.09062500000001705,
          "ticks": 49528,
          "durationTicks": 29
        },
        {
          "time": 154.86875,
          "midi": 69,
          "name": "A4",
          "velocity": 0.7401574803149606,
          "duration": 0.09062500000001705,
          "ticks": 49558,
          "durationTicks": 29
        },
        {
          "time": 154.9625,
          "midi": 78,
          "name": "F#5",
          "velocity": 1,
          "duration": 0.09062500000001705,
          "ticks": 49588,
          "durationTicks": 29
        },
        {
          "time": 155.05625,
          "midi": 75,
          "name": "D#5",
          "velocity": 0.9763779527559056,
          "duration": 0.09062500000001705,
          "ticks": 49618,
          "durationTicks": 29
        },
        {
          "time": 155.15,
          "midi": 69,
          "name": "A4",
          "velocity": 1,
          "duration": 0.09062500000001705,
          "ticks": 49648,
          "durationTicks": 29
        },
        {
          "time": 155.24375,
          "midi": 68,
          "name": "G#4",
          "velocity": 0.9763779527559056,
          "duration": 0.09062500000001705,
          "ticks": 49678,
          "durationTicks": 29
        },
        {
          "time": 155.3375,
          "midi": 77,
          "name": "F5",
          "velocity": 0.7795275590551181,
          "duration": 0.09062500000001705,
          "ticks": 49708,
          "durationTicks": 29
        },
        {
          "time": 155.43125,
          "midi": 73,
          "name": "C#5",
          "velocity": 1,
          "duration": 0.09062500000001705,
          "ticks": 49738,
          "durationTicks": 29
        },
        {
          "time": 155.525,
          "midi": 68,
          "name": "G#4",
          "velocity": 1,
          "duration": 0.09062500000001705,
          "ticks": 49768,
          "durationTicks": 29
        },
        {
          "time": 155.61875,
          "midi": 68,
          "name": "G#4",
          "velocity": 1,
          "duration": 0.09062500000001705,
          "ticks": 49798,
          "durationTicks": 29
        },
        {
          "time": 155.7125,
          "midi": 77,
          "name": "F5",
          "velocity": 0.7795275590551181,
          "duration": 0.09062500000001705,
          "ticks": 49828,
          "durationTicks": 29
        },
        {
          "time": 155.80625,
          "midi": 73,
          "name": "C#5",
          "velocity": 1,
          "duration": 0.09062500000001705,
          "ticks": 49858,
          "durationTicks": 29
        },
        {
          "time": 155.9,
          "midi": 68,
          "name": "G#4",
          "velocity": 1,
          "duration": 0.09062500000001705,
          "ticks": 49888,
          "durationTicks": 29
        },
        {
          "time": 155.99375,
          "midi": 70,
          "name": "A#4",
          "velocity": 1,
          "duration": 0.09062500000001705,
          "ticks": 49918,
          "durationTicks": 29
        },
        {
          "time": 156.0875,
          "midi": 79,
          "name": "G5",
          "velocity": 0.8267716535433071,
          "duration": 0.09062500000001705,
          "ticks": 49948,
          "durationTicks": 29
        },
        {
          "time": 156.18125,
          "midi": 76,
          "name": "E5",
          "velocity": 1,
          "duration": 0.09062500000001705,
          "ticks": 49978,
          "durationTicks": 29
        },
        {
          "time": 156.275,
          "midi": 70,
          "name": "A#4",
          "velocity": 1,
          "duration": 0.09062500000001705,
          "ticks": 50008,
          "durationTicks": 29
        },
        {
          "time": 156.36875,
          "midi": 70,
          "name": "A#4",
          "velocity": 1,
          "duration": 0.09062500000001705,
          "ticks": 50038,
          "durationTicks": 29
        },
        {
          "time": 156.4625,
          "midi": 79,
          "name": "G5",
          "velocity": 0.6614173228346457,
          "duration": 0.09062500000001705,
          "ticks": 50068,
          "durationTicks": 29
        },
        {
          "time": 156.55625,
          "midi": 76,
          "name": "E5",
          "velocity": 0.8031496062992126,
          "duration": 0.09062500000001705,
          "ticks": 50098,
          "durationTicks": 29
        },
        {
          "time": 156.65,
          "midi": 70,
          "name": "A#4",
          "velocity": 1,
          "duration": 0.09062500000001705,
          "ticks": 50128,
          "durationTicks": 29
        },
        {
          "time": 156.74375,
          "midi": 71,
          "name": "B4",
          "velocity": 0.8503937007874016,
          "duration": 0.09062500000001705,
          "ticks": 50158,
          "durationTicks": 29
        },
        {
          "time": 156.8375,
          "midi": 78,
          "name": "F#5",
          "velocity": 0.8031496062992126,
          "duration": 0.09062500000001705,
          "ticks": 50188,
          "durationTicks": 29
        },
        {
          "time": 156.93125,
          "midi": 74,
          "name": "D5",
          "velocity": 0.8503937007874016,
          "duration": 0.09062500000001705,
          "ticks": 50218,
          "durationTicks": 29
        },
        {
          "time": 157.025,
          "midi": 71,
          "name": "B4",
          "velocity": 1,
          "duration": 0.09062500000001705,
          "ticks": 50248,
          "durationTicks": 29
        },
        {
          "time": 157.11875,
          "midi": 71,
          "name": "B4",
          "velocity": 0.8818897637795275,
          "duration": 0.09062500000001705,
          "ticks": 50278,
          "durationTicks": 29
        },
        {
          "time": 157.2125,
          "midi": 69,
          "name": "A4",
          "velocity": 1,
          "duration": 0.09062500000001705,
          "ticks": 50308,
          "durationTicks": 29
        },
        {
          "time": 157.30625,
          "midi": 66,
          "name": "F#4",
          "velocity": 0.8818897637795275,
          "duration": 0.09062500000001705,
          "ticks": 50338,
          "durationTicks": 29
        },
        {
          "time": 157.4,
          "midi": 71,
          "name": "B4",
          "velocity": 0.6929133858267716,
          "duration": 0.09062500000001705,
          "ticks": 50368,
          "durationTicks": 29
        },
        {
          "time": 157.5,
          "midi": 68,
          "name": "G#4",
          "velocity": 1,
          "duration": 0.09062499999998863,
          "ticks": 50400,
          "durationTicks": 29
        },
        {
          "time": 157.59375,
          "midi": 73,
          "name": "C#5",
          "velocity": 1,
          "duration": 0.09062499999998863,
          "ticks": 50430,
          "durationTicks": 29
        },
        {
          "time": 157.6875,
          "midi": 71,
          "name": "B4",
          "velocity": 0.8503937007874016,
          "duration": 0.09062499999998863,
          "ticks": 50460,
          "durationTicks": 29
        },
        {
          "time": 157.78125,
          "midi": 68,
          "name": "G#4",
          "velocity": 1,
          "duration": 0.09062499999998863,
          "ticks": 50490,
          "durationTicks": 29
        },
        {
          "time": 157.875,
          "midi": 68,
          "name": "G#4",
          "velocity": 1,
          "duration": 0.09062499999998863,
          "ticks": 50520,
          "durationTicks": 29
        },
        {
          "time": 157.96875,
          "midi": 74,
          "name": "D5",
          "velocity": 1,
          "duration": 0.09062499999998863,
          "ticks": 50550,
          "durationTicks": 29
        },
        {
          "time": 158.0625,
          "midi": 73,
          "name": "C#5",
          "velocity": 1,
          "duration": 0.09062499999998863,
          "ticks": 50580,
          "durationTicks": 29
        },
        {
          "time": 158.15625,
          "midi": 68,
          "name": "G#4",
          "velocity": 1,
          "duration": 0.09062499999998863,
          "ticks": 50610,
          "durationTicks": 29
        },
        {
          "time": 158.25,
          "midi": 69,
          "name": "A4",
          "velocity": 0.7795275590551181,
          "duration": 0.09062499999998863,
          "ticks": 50640,
          "durationTicks": 29
        },
        {
          "time": 158.34375,
          "midi": 74,
          "name": "D5",
          "velocity": 0.7637795275590551,
          "duration": 0.09062499999998863,
          "ticks": 50670,
          "durationTicks": 29
        },
        {
          "time": 158.4375,
          "midi": 73,
          "name": "C#5",
          "velocity": 1,
          "duration": 0.09062499999998863,
          "ticks": 50700,
          "durationTicks": 29
        },
        {
          "time": 158.53125,
          "midi": 69,
          "name": "A4",
          "velocity": 0.7086614173228346,
          "duration": 0.09062499999998863,
          "ticks": 50730,
          "durationTicks": 29
        },
        {
          "time": 158.625,
          "midi": 69,
          "name": "A4",
          "velocity": 0.8031496062992126,
          "duration": 0.09062499999998863,
          "ticks": 50760,
          "durationTicks": 29
        },
        {
          "time": 158.71875,
          "midi": 76,
          "name": "E5",
          "velocity": 1,
          "duration": 0.09062499999998863,
          "ticks": 50790,
          "durationTicks": 29
        },
        {
          "time": 158.8125,
          "midi": 74,
          "name": "D5",
          "velocity": 1,
          "duration": 0.09062499999998863,
          "ticks": 50820,
          "durationTicks": 29
        },
        {
          "time": 158.90625,
          "midi": 69,
          "name": "A4",
          "velocity": 1,
          "duration": 0.09062499999998863,
          "ticks": 50850,
          "durationTicks": 29
        },
        {
          "time": 159,
          "midi": 71,
          "name": "B4",
          "velocity": 0.905511811023622,
          "duration": 0.09062499999998863,
          "ticks": 50880,
          "durationTicks": 29
        },
        {
          "time": 159.09375,
          "midi": 76,
          "name": "E5",
          "velocity": 1,
          "duration": 0.09062499999998863,
          "ticks": 50910,
          "durationTicks": 29
        },
        {
          "time": 159.1875,
          "midi": 74,
          "name": "D5",
          "velocity": 1,
          "duration": 0.09062499999998863,
          "ticks": 50940,
          "durationTicks": 29
        },
        {
          "time": 159.28125,
          "midi": 71,
          "name": "B4",
          "velocity": 0.9763779527559056,
          "duration": 0.09062499999998863,
          "ticks": 50970,
          "durationTicks": 29
        },
        {
          "time": 159.375,
          "midi": 71,
          "name": "B4",
          "velocity": 1,
          "duration": 0.09062499999998863,
          "ticks": 51000,
          "durationTicks": 29
        },
        {
          "time": 159.46875,
          "midi": 78,
          "name": "F#5",
          "velocity": 1,
          "duration": 0.09062499999998863,
          "ticks": 51030,
          "durationTicks": 29
        },
        {
          "time": 159.5625,
          "midi": 76,
          "name": "E5",
          "velocity": 1,
          "duration": 0.09062499999998863,
          "ticks": 51060,
          "durationTicks": 29
        },
        {
          "time": 159.65625,
          "midi": 71,
          "name": "B4",
          "velocity": 0.937007874015748,
          "duration": 0.09062499999998863,
          "ticks": 51090,
          "durationTicks": 29
        },
        {
          "time": 159.75,
          "midi": 71,
          "name": "B4",
          "velocity": 1,
          "duration": 0.09062499999998863,
          "ticks": 51120,
          "durationTicks": 29
        },
        {
          "time": 159.84375,
          "midi": 76,
          "name": "E5",
          "velocity": 1,
          "duration": 0.09062499999998863,
          "ticks": 51150,
          "durationTicks": 29
        },
        {
          "time": 159.9375,
          "midi": 74,
          "name": "D5",
          "velocity": 0.905511811023622,
          "duration": 0.09062499999998863,
          "ticks": 51180,
          "durationTicks": 29
        },
        {
          "time": 160.03125,
          "midi": 71,
          "name": "B4",
          "velocity": 0.9763779527559056,
          "duration": 0.09062499999998863,
          "ticks": 51210,
          "durationTicks": 29
        },
        {
          "time": 160.125,
          "midi": 71,
          "name": "B4",
          "velocity": 1,
          "duration": 0.09062499999998863,
          "ticks": 51240,
          "durationTicks": 29
        },
        {
          "time": 160.21875,
          "midi": 78,
          "name": "F#5",
          "velocity": 1,
          "duration": 0.09062499999998863,
          "ticks": 51270,
          "durationTicks": 29
        },
        {
          "time": 160.3125,
          "midi": 76,
          "name": "E5",
          "velocity": 1,
          "duration": 0.09062499999998863,
          "ticks": 51300,
          "durationTicks": 29
        },
        {
          "time": 160.40625,
          "midi": 71,
          "name": "B4",
          "velocity": 1,
          "duration": 0.09062499999998863,
          "ticks": 51330,
          "durationTicks": 29
        },
        {
          "time": 160.5,
          "midi": 71,
          "name": "B4",
          "velocity": 1,
          "duration": 0.09062499999998863,
          "ticks": 51360,
          "durationTicks": 29
        },
        {
          "time": 160.59375,
          "midi": 76,
          "name": "E5",
          "velocity": 1,
          "duration": 0.09062499999998863,
          "ticks": 51390,
          "durationTicks": 29
        },
        {
          "time": 160.6875,
          "midi": 74,
          "name": "D5",
          "velocity": 1,
          "duration": 0.09062499999998863,
          "ticks": 51420,
          "durationTicks": 29
        },
        {
          "time": 160.78125,
          "midi": 71,
          "name": "B4",
          "velocity": 1,
          "duration": 0.09062499999998863,
          "ticks": 51450,
          "durationTicks": 29
        },
        {
          "time": 160.875,
          "midi": 71,
          "name": "B4",
          "velocity": 1,
          "duration": 0.09062499999998863,
          "ticks": 51480,
          "durationTicks": 29
        },
        {
          "time": 160.96875,
          "midi": 78,
          "name": "F#5",
          "velocity": 1,
          "duration": 0.09062499999998863,
          "ticks": 51510,
          "durationTicks": 29
        },
        {
          "time": 161.0625,
          "midi": 76,
          "name": "E5",
          "velocity": 1,
          "duration": 0.09062499999998863,
          "ticks": 51540,
          "durationTicks": 29
        },
        {
          "time": 161.15625,
          "midi": 71,
          "name": "B4",
          "velocity": 0.9763779527559056,
          "duration": 0.09062499999998863,
          "ticks": 51570,
          "durationTicks": 29
        },
        {
          "time": 161.25,
          "midi": 71,
          "name": "B4",
          "velocity": 0.9763779527559056,
          "duration": 0.09062499999998863,
          "ticks": 51600,
          "durationTicks": 29
        },
        {
          "time": 161.34375,
          "midi": 76,
          "name": "E5",
          "velocity": 1,
          "duration": 0.09062499999998863,
          "ticks": 51630,
          "durationTicks": 29
        },
        {
          "time": 161.4375,
          "midi": 74,
          "name": "D5",
          "velocity": 1,
          "duration": 0.09062499999998863,
          "ticks": 51660,
          "durationTicks": 29
        },
        {
          "time": 161.53125,
          "midi": 71,
          "name": "B4",
          "velocity": 1,
          "duration": 0.09062499999998863,
          "ticks": 51690,
          "durationTicks": 29
        },
        {
          "time": 161.625,
          "midi": 71,
          "name": "B4",
          "velocity": 1,
          "duration": 0.09062499999998863,
          "ticks": 51720,
          "durationTicks": 29
        },
        {
          "time": 161.71875,
          "midi": 78,
          "name": "F#5",
          "velocity": 1,
          "duration": 0.09062499999998863,
          "ticks": 51750,
          "durationTicks": 29
        },
        {
          "time": 161.8125,
          "midi": 76,
          "name": "E5",
          "velocity": 1,
          "duration": 0.09062499999998863,
          "ticks": 51780,
          "durationTicks": 29
        },
        {
          "time": 161.90625,
          "midi": 71,
          "name": "B4",
          "velocity": 1,
          "duration": 0.09062499999998863,
          "ticks": 51810,
          "durationTicks": 29
        },
        {
          "time": 162,
          "midi": 73,
          "name": "C#5",
          "velocity": 1,
          "duration": 0.09062499999998863,
          "ticks": 51840,
          "durationTicks": 29
        },
        {
          "time": 162.09375,
          "midi": 73,
          "name": "C#5",
          "velocity": 1,
          "duration": 0.09062499999998863,
          "ticks": 51870,
          "durationTicks": 29
        },
        {
          "time": 162.1875,
          "midi": 73,
          "name": "C#5",
          "velocity": 1,
          "duration": 0.09062499999998863,
          "ticks": 51900,
          "durationTicks": 29
        },
        {
          "time": 162.28125,
          "midi": 73,
          "name": "C#5",
          "velocity": 1,
          "duration": 0.09062499999998863,
          "ticks": 51930,
          "durationTicks": 29
        },
        {
          "time": 162.375,
          "midi": 73,
          "name": "C#5",
          "velocity": 1,
          "duration": 0.09062499999998863,
          "ticks": 51960,
          "durationTicks": 29
        },
        {
          "time": 162.46875,
          "midi": 73,
          "name": "C#5",
          "velocity": 1,
          "duration": 0.09062499999998863,
          "ticks": 51990,
          "durationTicks": 29
        },
        {
          "time": 162.5625,
          "midi": 74,
          "name": "D5",
          "velocity": 1,
          "duration": 0.09062499999998863,
          "ticks": 52020,
          "durationTicks": 29
        },
        {
          "time": 162.65625,
          "midi": 76,
          "name": "E5",
          "velocity": 1,
          "duration": 0.09062499999998863,
          "ticks": 52050,
          "durationTicks": 29
        },
        {
          "time": 162.75,
          "midi": 78,
          "name": "F#5",
          "velocity": 1,
          "duration": 0.09062499999998863,
          "ticks": 52080,
          "durationTicks": 29
        },
        {
          "time": 162.84375,
          "midi": 66,
          "name": "F#4",
          "velocity": 1,
          "duration": 0.09062499999998863,
          "ticks": 52110,
          "durationTicks": 29
        },
        {
          "time": 162.9375,
          "midi": 78,
          "name": "F#5",
          "velocity": 1,
          "duration": 0.09062499999998863,
          "ticks": 52140,
          "durationTicks": 29
        },
        {
          "time": 163.03125,
          "midi": 78,
          "name": "F#5",
          "velocity": 1,
          "duration": 0.09062499999998863,
          "ticks": 52170,
          "durationTicks": 29
        },
        {
          "time": 163.125,
          "midi": 78,
          "name": "F#5",
          "velocity": 1,
          "duration": 0.09062499999998863,
          "ticks": 52200,
          "durationTicks": 29
        },
        {
          "time": 163.21875,
          "midi": 78,
          "name": "F#5",
          "velocity": 1,
          "duration": 0.09062499999998863,
          "ticks": 52230,
          "durationTicks": 29
        },
        {
          "time": 163.3125,
          "midi": 76,
          "name": "E5",
          "velocity": 1,
          "duration": 0.09062499999998863,
          "ticks": 52260,
          "durationTicks": 29
        },
        {
          "time": 163.40625,
          "midi": 74,
          "name": "D5",
          "velocity": 1,
          "duration": 0.09062499999998863,
          "ticks": 52290,
          "durationTicks": 29
        },
        {
          "time": 163.5,
          "midi": 76,
          "name": "E5",
          "velocity": 1,
          "duration": 0.09062499999998863,
          "ticks": 52320,
          "durationTicks": 29
        },
        {
          "time": 163.59375,
          "midi": 76,
          "name": "E5",
          "velocity": 1,
          "duration": 0.09062499999998863,
          "ticks": 52350,
          "durationTicks": 29
        },
        {
          "time": 163.6875,
          "midi": 76,
          "name": "E5",
          "velocity": 1,
          "duration": 0.09062499999998863,
          "ticks": 52380,
          "durationTicks": 29
        },
        {
          "time": 163.78125,
          "midi": 76,
          "name": "E5",
          "velocity": 1,
          "duration": 0.09062499999998863,
          "ticks": 52410,
          "durationTicks": 29
        },
        {
          "time": 163.875,
          "midi": 76,
          "name": "E5",
          "velocity": 1,
          "duration": 0.09062499999998863,
          "ticks": 52440,
          "durationTicks": 29
        },
        {
          "time": 163.96875,
          "midi": 76,
          "name": "E5",
          "velocity": 1,
          "duration": 0.09062499999998863,
          "ticks": 52470,
          "durationTicks": 29
        },
        {
          "time": 164.0625,
          "midi": 69,
          "name": "A4",
          "velocity": 1,
          "duration": 0.09062499999998863,
          "ticks": 52500,
          "durationTicks": 29
        },
        {
          "time": 164.15625,
          "midi": 69,
          "name": "A4",
          "velocity": 0.9763779527559056,
          "duration": 0.09062499999998863,
          "ticks": 52530,
          "durationTicks": 29
        },
        {
          "time": 164.25,
          "midi": 71,
          "name": "B4",
          "velocity": 1,
          "duration": 0.09062499999998863,
          "ticks": 52560,
          "durationTicks": 29
        },
        {
          "time": 164.34375,
          "midi": 71,
          "name": "B4",
          "velocity": 1,
          "duration": 0.09062499999998863,
          "ticks": 52590,
          "durationTicks": 29
        },
        {
          "time": 164.4375,
          "midi": 71,
          "name": "B4",
          "velocity": 1,
          "duration": 0.09062499999998863,
          "ticks": 52620,
          "durationTicks": 29
        },
        {
          "time": 164.53125,
          "midi": 71,
          "name": "B4",
          "velocity": 1,
          "duration": 0.09062499999998863,
          "ticks": 52650,
          "durationTicks": 29
        },
        {
          "time": 164.625,
          "midi": 73,
          "name": "C#5",
          "velocity": 1,
          "duration": 0.09062499999998863,
          "ticks": 52680,
          "durationTicks": 29
        },
        {
          "time": 164.71875,
          "midi": 73,
          "name": "C#5",
          "velocity": 1,
          "duration": 0.09062499999998863,
          "ticks": 52710,
          "durationTicks": 29
        },
        {
          "time": 164.8125,
          "midi": 74,
          "name": "D5",
          "velocity": 1,
          "duration": 0.09062499999998863,
          "ticks": 52740,
          "durationTicks": 29
        },
        {
          "time": 164.90625,
          "midi": 74,
          "name": "D5",
          "velocity": 1,
          "duration": 0.09062499999998863,
          "ticks": 52770,
          "durationTicks": 29
        },
        {
          "time": 165,
          "midi": 81,
          "name": "A5",
          "velocity": 1,
          "duration": 0.7468749999999886,
          "ticks": 52800,
          "durationTicks": 239
        },
        {
          "time": 165,
          "midi": 69,
          "name": "A4",
          "velocity": 1,
          "duration": 0.7468749999999886,
          "ticks": 52800,
          "durationTicks": 239
        },
        {
          "time": 165.75,
          "midi": 76,
          "name": "E5",
          "velocity": 1,
          "duration": 0.18437499999998863,
          "ticks": 53040,
          "durationTicks": 59
        },
        {
          "time": 165.75,
          "midi": 76,
          "name": "E5",
          "velocity": 1,
          "duration": 0.18437499999998863,
          "ticks": 53040,
          "durationTicks": 59
        },
        {
          "time": 166.125,
          "midi": 76,
          "name": "E5",
          "velocity": 1,
          "duration": 0.18437499999998863,
          "ticks": 53160,
          "durationTicks": 59
        },
        {
          "time": 166.125,
          "midi": 76,
          "name": "E5",
          "velocity": 1,
          "duration": 0.18437499999998863,
          "ticks": 53160,
          "durationTicks": 59
        },
        {
          "time": 166.5,
          "midi": 69,
          "name": "A4",
          "velocity": 1,
          "duration": 0.09062499999998863,
          "ticks": 53280,
          "durationTicks": 29
        },
        {
          "time": 166.6875,
          "midi": 69,
          "name": "A4",
          "velocity": 1,
          "duration": 0.09062499999998863,
          "ticks": 53340,
          "durationTicks": 29
        },
        {
          "time": 166.78125,
          "midi": 71,
          "name": "B4",
          "velocity": 1,
          "duration": 0.09062499999998863,
          "ticks": 53370,
          "durationTicks": 29
        },
        {
          "time": 166.875,
          "midi": 73,
          "name": "C#5",
          "velocity": 1,
          "duration": 0.09062499999998863,
          "ticks": 53400,
          "durationTicks": 29
        },
        {
          "time": 167.0625,
          "midi": 73,
          "name": "C#5",
          "velocity": 1,
          "duration": 0.09062499999998863,
          "ticks": 53460,
          "durationTicks": 29
        },
        {
          "time": 167.15625,
          "midi": 74,
          "name": "D5",
          "velocity": 1,
          "duration": 0.09062499999998863,
          "ticks": 53490,
          "durationTicks": 29
        },
        {
          "time": 167.25,
          "midi": 76,
          "name": "E5",
          "velocity": 1,
          "duration": 0.09062499999998863,
          "ticks": 53520,
          "durationTicks": 29
        },
        {
          "time": 167.4375,
          "midi": 76,
          "name": "E5",
          "velocity": 1,
          "duration": 0.09062499999998863,
          "ticks": 53580,
          "durationTicks": 29
        },
        {
          "time": 167.53125,
          "midi": 78,
          "name": "F#5",
          "velocity": 1,
          "duration": 0.09062499999998863,
          "ticks": 53610,
          "durationTicks": 29
        },
        {
          "time": 167.625,
          "midi": 80,
          "name": "G#5",
          "velocity": 1,
          "duration": 0.09062499999998863,
          "ticks": 53640,
          "durationTicks": 29
        },
        {
          "time": 167.8125,
          "midi": 76,
          "name": "E5",
          "velocity": 1,
          "duration": 0.05937500000001705,
          "ticks": 53700,
          "durationTicks": 19
        },
        {
          "time": 167.875,
          "midi": 78,
          "name": "F#5",
          "velocity": 1,
          "duration": 0.05937499999998863,
          "ticks": 53720,
          "durationTicks": 19
        },
        {
          "time": 167.9375,
          "midi": 80,
          "name": "G#5",
          "velocity": 1,
          "duration": 0.05937499999998863,
          "ticks": 53740,
          "durationTicks": 19
        },
        {
          "time": 168,
          "midi": 64,
          "name": "E4",
          "velocity": 1,
          "duration": 0.7437500000000057,
          "ticks": 53760,
          "durationTicks": 119
        },
        {
          "time": 168.75,
          "midi": 69,
          "name": "A4",
          "velocity": 1,
          "duration": 0.7437500000000057,
          "ticks": 53880,
          "durationTicks": 119
        },
        {
          "time": 169.5,
          "midi": 69,
          "name": "A4",
          "velocity": 1,
          "duration": 0.7437500000000057,
          "ticks": 54000,
          "durationTicks": 119
        },
        {
          "time": 170.25,
          "midi": 68,
          "name": "G#4",
          "velocity": 1,
          "duration": 0.3687500000000057,
          "ticks": 54120,
          "durationTicks": 59
        },
        {
          "time": 170.625,
          "midi": 67,
          "name": "G4",
          "velocity": 1,
          "duration": 0.3687500000000057,
          "ticks": 54180,
          "durationTicks": 59
        },
        {
          "time": 171,
          "midi": 70,
          "name": "A#4",
          "velocity": 1,
          "duration": 0.3687500000000057,
          "ticks": 54240,
          "durationTicks": 59
        },
        {
          "time": 171.375,
          "midi": 66,
          "name": "F#4",
          "velocity": 1,
          "duration": 0.3687500000000057,
          "ticks": 54300,
          "durationTicks": 59
        },
        {
          "time": 171.75,
          "midi": 71,
          "name": "B4",
          "velocity": 1,
          "duration": 1.4937500000000057,
          "ticks": 54360,
          "durationTicks": 239
        },
        {
          "time": 173.25,
          "midi": 70,
          "name": "A#4",
          "velocity": 1,
          "duration": 0.7437500000000057,
          "ticks": 54600,
          "durationTicks": 119
        },
        {
          "time": 174,
          "midi": 63,
          "name": "D#4",
          "velocity": 1,
          "duration": 2.2437500000000057,
          "ticks": 54720,
          "durationTicks": 359
        },
        {
          "time": 176.25,
          "midi": 62,
          "name": "D4",
          "velocity": 1,
          "duration": 0.3687500000000057,
          "ticks": 55080,
          "durationTicks": 59
        },
        {
          "time": 176.625,
          "midi": 62,
          "name": "D4",
          "velocity": 0.7244094488188977,
          "duration": 0.3687500000000057,
          "ticks": 55140,
          "durationTicks": 59
        },
        {
          "time": 176.625,
          "midi": 74,
          "name": "D5",
          "velocity": 0.937007874015748,
          "duration": 0.3687500000000057,
          "ticks": 55140,
          "durationTicks": 59
        },
        {
          "time": 177,
          "midi": 61,
          "name": "C#4",
          "velocity": 1,
          "duration": 0.09062499999998863,
          "ticks": 55200,
          "durationTicks": 29
        },
        {
          "time": 177.09375,
          "midi": 69,
          "name": "A4",
          "velocity": 1,
          "duration": 0.09062499999998863,
          "ticks": 55230,
          "durationTicks": 29
        },
        {
          "time": 177.1875,
          "midi": 69,
          "name": "A4",
          "velocity": 1,
          "duration": 0.09062499999998863,
          "ticks": 55260,
          "durationTicks": 29
        },
        {
          "time": 177.28125,
          "midi": 69,
          "name": "A4",
          "velocity": 1,
          "duration": 0.09062499999998863,
          "ticks": 55290,
          "durationTicks": 29
        },
        {
          "time": 177.375,
          "midi": 69,
          "name": "A4",
          "velocity": 1,
          "duration": 0.09062499999998863,
          "ticks": 55320,
          "durationTicks": 29
        },
        {
          "time": 177.46875,
          "midi": 69,
          "name": "A4",
          "velocity": 1,
          "duration": 0.09062499999998863,
          "ticks": 55350,
          "durationTicks": 29
        },
        {
          "time": 177.5625,
          "midi": 69,
          "name": "A4",
          "velocity": 1,
          "duration": 0.09062499999998863,
          "ticks": 55380,
          "durationTicks": 29
        },
        {
          "time": 177.65625,
          "midi": 69,
          "name": "A4",
          "velocity": 1,
          "duration": 0.09062499999998863,
          "ticks": 55410,
          "durationTicks": 29
        },
        {
          "time": 177.75,
          "midi": 69,
          "name": "A4",
          "velocity": 1,
          "duration": 0.09062499999998863,
          "ticks": 55440,
          "durationTicks": 29
        },
        {
          "time": 177.84375,
          "midi": 73,
          "name": "C#5",
          "velocity": 1,
          "duration": 0.09062499999998863,
          "ticks": 55470,
          "durationTicks": 29
        },
        {
          "time": 177.9375,
          "midi": 73,
          "name": "C#5",
          "velocity": 1,
          "duration": 0.09062499999998863,
          "ticks": 55500,
          "durationTicks": 29
        },
        {
          "time": 178.03125,
          "midi": 73,
          "name": "C#5",
          "velocity": 1,
          "duration": 0.09062499999998863,
          "ticks": 55530,
          "durationTicks": 29
        },
        {
          "time": 178.125,
          "midi": 74,
          "name": "D5",
          "velocity": 1,
          "duration": 0.09062499999998863,
          "ticks": 55560,
          "durationTicks": 29
        },
        {
          "time": 178.21875,
          "midi": 74,
          "name": "D5",
          "velocity": 1,
          "duration": 0.09062499999998863,
          "ticks": 55590,
          "durationTicks": 29
        },
        {
          "time": 178.3125,
          "midi": 74,
          "name": "D5",
          "velocity": 1,
          "duration": 0.09062499999998863,
          "ticks": 55620,
          "durationTicks": 29
        },
        {
          "time": 178.40625,
          "midi": 74,
          "name": "D5",
          "velocity": 1,
          "duration": 0.09062499999998863,
          "ticks": 55650,
          "durationTicks": 29
        },
        {
          "time": 178.5,
          "midi": 74,
          "name": "D5",
          "velocity": 1,
          "duration": 0.09062499999998863,
          "ticks": 55680,
          "durationTicks": 29
        },
        {
          "time": 178.59375,
          "midi": 74,
          "name": "D5",
          "velocity": 1,
          "duration": 0.09062499999998863,
          "ticks": 55710,
          "durationTicks": 29
        },
        {
          "time": 178.6875,
          "midi": 68,
          "name": "G#4",
          "velocity": 1,
          "duration": 0.09062499999998863,
          "ticks": 55740,
          "durationTicks": 29
        },
        {
          "time": 178.78125,
          "midi": 68,
          "name": "G#4",
          "velocity": 1,
          "duration": 0.09062499999998863,
          "ticks": 55770,
          "durationTicks": 29
        },
        {
          "time": 178.875,
          "midi": 74,
          "name": "D5",
          "velocity": 1,
          "duration": 0.09062499999998863,
          "ticks": 55800,
          "durationTicks": 29
        },
        {
          "time": 178.96875,
          "midi": 74,
          "name": "D5",
          "velocity": 1,
          "duration": 0.09062499999998863,
          "ticks": 55830,
          "durationTicks": 29
        },
        {
          "time": 179.0625,
          "midi": 68,
          "name": "G#4",
          "velocity": 1,
          "duration": 0.09062499999998863,
          "ticks": 55860,
          "durationTicks": 29
        },
        {
          "time": 179.15625,
          "midi": 68,
          "name": "G#4",
          "velocity": 1,
          "duration": 0.09062499999998863,
          "ticks": 55890,
          "durationTicks": 29
        },
        {
          "time": 179.25,
          "midi": 73,
          "name": "C#5",
          "velocity": 1,
          "duration": 0.09062499999998863,
          "ticks": 55920,
          "durationTicks": 29
        },
        {
          "time": 179.34375,
          "midi": 73,
          "name": "C#5",
          "velocity": 1,
          "duration": 0.09062499999998863,
          "ticks": 55950,
          "durationTicks": 29
        },
        {
          "time": 179.4375,
          "midi": 69,
          "name": "A4",
          "velocity": 0.8818897637795275,
          "duration": 0.09062499999998863,
          "ticks": 55980,
          "durationTicks": 29
        },
        {
          "time": 179.53125,
          "midi": 69,
          "name": "A4",
          "velocity": 0.937007874015748,
          "duration": 0.09062499999998863,
          "ticks": 56010,
          "durationTicks": 29
        },
        {
          "time": 179.625,
          "midi": 81,
          "name": "A5",
          "velocity": 0.8818897637795275,
          "duration": 0.18437499999998863,
          "ticks": 56040,
          "durationTicks": 59
        },
        {
          "time": 179.625,
          "midi": 73,
          "name": "C#5",
          "velocity": 0.905511811023622,
          "duration": 0.18437499999998863,
          "ticks": 56040,
          "durationTicks": 59
        },
        {
          "time": 179.625,
          "midi": 64,
          "name": "E4",
          "velocity": 0.8267716535433071,
          "duration": 0.18437499999998863,
          "ticks": 56040,
          "durationTicks": 59
        },
        {
          "time": 180.75,
          "midi": 76,
          "name": "E5",
          "velocity": 1,
          "duration": 0.9375,
          "ticks": 56400,
          "durationTicks": 300
        },
        {
          "time": 180.75,
          "midi": 79,
          "name": "G5",
          "velocity": 1,
          "duration": 0.9375,
          "ticks": 56400,
          "durationTicks": 300
        },
        {
          "time": 181.6875,
          "midi": 74,
          "name": "D5",
          "velocity": 1,
          "duration": 0.09062499999998863,
          "ticks": 56700,
          "durationTicks": 29
        },
        {
          "time": 181.6875,
          "midi": 77,
          "name": "F5",
          "velocity": 1,
          "duration": 0.09062499999998863,
          "ticks": 56700,
          "durationTicks": 29
        },
        {
          "time": 181.875,
          "midi": 74,
          "name": "D5",
          "velocity": 1,
          "duration": 0.09062499999998863,
          "ticks": 56760,
          "durationTicks": 29
        },
        {
          "time": 181.875,
          "midi": 77,
          "name": "F5",
          "velocity": 1,
          "duration": 0.09062499999998863,
          "ticks": 56760,
          "durationTicks": 29
        },
        {
          "time": 182.0625,
          "midi": 86,
          "name": "D6",
          "velocity": 1,
          "duration": 0.09062499999998863,
          "ticks": 56820,
          "durationTicks": 29
        },
        {
          "time": 182.25,
          "midi": 86,
          "name": "D6",
          "velocity": 1,
          "duration": 0.09062499999998863,
          "ticks": 56880,
          "durationTicks": 29
        },
        {
          "time": 182.4375,
          "midi": 77,
          "name": "F5",
          "velocity": 1,
          "duration": 0.09062499999998863,
          "ticks": 56940,
          "durationTicks": 29
        },
        {
          "time": 182.625,
          "midi": 77,
          "name": "F5",
          "velocity": 0.8031496062992126,
          "duration": 0.09062499999998863,
          "ticks": 57000,
          "durationTicks": 29
        },
        {
          "time": 182.8125,
          "midi": 81,
          "name": "A5",
          "velocity": 1,
          "duration": 0.09062499999998863,
          "ticks": 57060,
          "durationTicks": 29
        },
        {
          "time": 183,
          "midi": 81,
          "name": "A5",
          "velocity": 1,
          "duration": 0.09062499999998863,
          "ticks": 57120,
          "durationTicks": 29
        },
        {
          "time": 183.1875,
          "midi": 74,
          "name": "D5",
          "velocity": 1,
          "duration": 0.09062499999998863,
          "ticks": 57180,
          "durationTicks": 29
        },
        {
          "time": 183.375,
          "midi": 74,
          "name": "D5",
          "velocity": 1,
          "duration": 0.18437499999998863,
          "ticks": 57240,
          "durationTicks": 59
        },
        {
          "time": 183.5625,
          "midi": 77,
          "name": "F5",
          "velocity": 1,
          "duration": 0.18437499999998863,
          "ticks": 57300,
          "durationTicks": 59
        },
        {
          "time": 183.75,
          "midi": 77,
          "name": "F5",
          "velocity": 0.937007874015748,
          "duration": 0.18437499999998863,
          "ticks": 57360,
          "durationTicks": 59
        },
        {
          "time": 183.9375,
          "midi": 69,
          "name": "A4",
          "velocity": 1,
          "duration": 0.18437499999998863,
          "ticks": 57420,
          "durationTicks": 59
        },
        {
          "time": 184.125,
          "midi": 69,
          "name": "A4",
          "velocity": 1,
          "duration": 0.18437499999998863,
          "ticks": 57480,
          "durationTicks": 59
        },
        {
          "time": 184.3125,
          "midi": 74,
          "name": "D5",
          "velocity": 1,
          "duration": 0.18437499999998863,
          "ticks": 57540,
          "durationTicks": 59
        },
        {
          "time": 184.5,
          "midi": 74,
          "name": "D5",
          "velocity": 1,
          "duration": 0.18437499999998863,
          "ticks": 57600,
          "durationTicks": 59
        },
        {
          "time": 184.6875,
          "midi": 65,
          "name": "F4",
          "velocity": 1,
          "duration": 0.18437499999998863,
          "ticks": 57660,
          "durationTicks": 59
        },
        {
          "time": 184.875,
          "midi": 65,
          "name": "F4",
          "velocity": 1,
          "duration": 0.18437499999998863,
          "ticks": 57720,
          "durationTicks": 59
        },
        {
          "time": 185.0625,
          "midi": 69,
          "name": "A4",
          "velocity": 1,
          "duration": 0.18437499999998863,
          "ticks": 57780,
          "durationTicks": 59
        },
        {
          "time": 185.25,
          "midi": 69,
          "name": "A4",
          "velocity": 1,
          "duration": 0.18437499999998863,
          "ticks": 57840,
          "durationTicks": 59
        },
        {
          "time": 185.4375,
          "midi": 62,
          "name": "D4",
          "velocity": 1,
          "duration": 0.18437499999998863,
          "ticks": 57900,
          "durationTicks": 59
        },
        {
          "time": 185.625,
          "midi": 62,
          "name": "D4",
          "velocity": 1,
          "duration": 0.18437499999998863,
          "ticks": 57960,
          "durationTicks": 59
        },
        {
          "time": 185.8125,
          "midi": 69,
          "name": "A4",
          "velocity": 1,
          "duration": 0.18437499999998863,
          "ticks": 58020,
          "durationTicks": 59
        },
        {
          "time": 186,
          "midi": 69,
          "name": "A4",
          "velocity": 1,
          "duration": 0.18437499999998863,
          "ticks": 58080,
          "durationTicks": 59
        },
        {
          "time": 186.1875,
          "midi": 81,
          "name": "A5",
          "velocity": 1,
          "duration": 0.18437499999998863,
          "ticks": 58140,
          "durationTicks": 59
        },
        {
          "time": 186.375,
          "midi": 81,
          "name": "A5",
          "velocity": 0.9763779527559056,
          "duration": 0.18437499999998863,
          "ticks": 58200,
          "durationTicks": 59
        },
        {
          "time": 186.5625,
          "midi": 74,
          "name": "D5",
          "velocity": 1,
          "duration": 0.18437499999998863,
          "ticks": 58260,
          "durationTicks": 59
        },
        {
          "time": 186.75,
          "midi": 74,
          "name": "D5",
          "velocity": 0.937007874015748,
          "duration": 0.18437499999998863,
          "ticks": 58320,
          "durationTicks": 59
        },
        {
          "time": 186.9375,
          "midi": 74,
          "name": "D5",
          "velocity": 1,
          "duration": 0.18437499999998863,
          "ticks": 58380,
          "durationTicks": 59
        },
        {
          "time": 187.125,
          "midi": 74,
          "name": "D5",
          "velocity": 1,
          "duration": 0.18437499999998863,
          "ticks": 58440,
          "durationTicks": 59
        },
        {
          "time": 187.3125,
          "midi": 56,
          "name": "G#3",
          "velocity": 1,
          "duration": 0.18437499999998863,
          "ticks": 58500,
          "durationTicks": 59
        },
        {
          "time": 187.5,
          "midi": 56,
          "name": "G#3",
          "velocity": 1,
          "duration": 0.18437499999998863,
          "ticks": 58560,
          "durationTicks": 59
        },
        {
          "time": 187.6875,
          "midi": 65,
          "name": "F4",
          "velocity": 0.9763779527559056,
          "duration": 0.18437499999998863,
          "ticks": 58620,
          "durationTicks": 59
        },
        {
          "time": 187.6875,
          "midi": 74,
          "name": "D5",
          "velocity": 1,
          "duration": 0.18437499999998863,
          "ticks": 58620,
          "durationTicks": 59
        },
        {
          "time": 187.875,
          "midi": 65,
          "name": "F4",
          "velocity": 0.9763779527559056,
          "duration": 0.18437499999998863,
          "ticks": 58680,
          "durationTicks": 59
        },
        {
          "time": 187.875,
          "midi": 74,
          "name": "D5",
          "velocity": 1,
          "duration": 0.18437499999998863,
          "ticks": 58680,
          "durationTicks": 59
        },
        {
          "time": 188.25,
          "midi": 69,
          "name": "A4",
          "velocity": 0.8267716535433071,
          "duration": 0.18437499999998863,
          "ticks": 58800,
          "durationTicks": 59
        },
        {
          "time": 188.25,
          "midi": 81,
          "name": "A5",
          "velocity": 1,
          "duration": 0.18437499999998863,
          "ticks": 58800,
          "durationTicks": 59
        },
        {
          "time": 195.857136,
          "midi": 57,
          "name": "A3",
          "velocity": 0.7795275590551181,
          "duration": 0.853570574999992,
          "ticks": 60960,
          "durationTicks": 239
        },
        {
          "time": 196.714278,
          "midi": 57,
          "name": "A3",
          "velocity": 0.7795275590551181,
          "duration": 0.42499957499998686,
          "ticks": 61200,
          "durationTicks": 119
        },
        {
          "time": 197.142849,
          "midi": 59,
          "name": "B3",
          "velocity": 0.7795275590551181,
          "duration": 0.42499957499998686,
          "ticks": 61320,
          "durationTicks": 119
        },
        {
          "time": 197.57142,
          "midi": 68,
          "name": "G#4",
          "velocity": 0.7795275590551181,
          "duration": 8.142849000000012,
          "ticks": 61440,
          "durationTicks": 2280
        },
        {
          "time": 197.999991,
          "midi": 71,
          "name": "B4",
          "velocity": 0.7795275590551181,
          "duration": 7.714278000000007,
          "ticks": 61560,
          "durationTicks": 2160
        },
        {
          "time": 206.571411,
          "midi": 73,
          "name": "C#5",
          "velocity": 1,
          "duration": 0.2107140749999985,
          "ticks": 63960,
          "durationTicks": 59
        },
        {
          "time": 206.571411,
          "midi": 76,
          "name": "E5",
          "velocity": 1,
          "duration": 0.2107140749999985,
          "ticks": 63960,
          "durationTicks": 59
        },
        {
          "time": 206.999982,
          "midi": 81,
          "name": "A5",
          "velocity": 0.9763779527559056,
          "duration": 0.2107140749999985,
          "ticks": 64080,
          "durationTicks": 59
        },
        {
          "time": 206.999982,
          "midi": 69,
          "name": "A4",
          "velocity": 0.937007874015748,
          "duration": 0.2107140749999985,
          "ticks": 64080,
          "durationTicks": 59
        },
        {
          "time": 207.2142675,
          "midi": 69,
          "name": "A4",
          "velocity": 0.8818897637795275,
          "duration": 0.2107140749999985,
          "ticks": 64140,
          "durationTicks": 59
        },
        {
          "time": 207.2142675,
          "midi": 81,
          "name": "A5",
          "velocity": 1,
          "duration": 0.2107140749999985,
          "ticks": 64140,
          "durationTicks": 59
        },
        {
          "time": 207.428553,
          "midi": 69,
          "name": "A4",
          "velocity": 0.9763779527559056,
          "duration": 0.4249995750000153,
          "ticks": 64200,
          "durationTicks": 119
        },
        {
          "time": 207.428553,
          "midi": 86,
          "name": "D6",
          "velocity": 1,
          "duration": 0.4249995750000153,
          "ticks": 64200,
          "durationTicks": 119
        },
        {
          "time": 212.892834,
          "midi": 67,
          "name": "G4",
          "velocity": 0.5826771653543307,
          "duration": 0.3687500000000057,
          "ticks": 65640,
          "durationTicks": 59
        },
        {
          "time": 212.892834,
          "midi": 71,
          "name": "B4",
          "velocity": 0.7637795275590551,
          "duration": 0.3687500000000057,
          "ticks": 65640,
          "durationTicks": 59
        },
        {
          "time": 213.642834,
          "midi": 71,
          "name": "B4",
          "velocity": 0.8818897637795275,
          "duration": 0.3687500000000057,
          "ticks": 65760,
          "durationTicks": 59
        },
        {
          "time": 213.642834,
          "midi": 83,
          "name": "B5",
          "velocity": 1,
          "duration": 0.3687500000000057,
          "ticks": 65760,
          "durationTicks": 59
        },
        {
          "time": 218.142834,
          "midi": 81,
          "name": "A5",
          "velocity": 1,
          "duration": 0.3687500000000057,
          "ticks": 66480,
          "durationTicks": 59
        },
        {
          "time": 218.142834,
          "midi": 73,
          "name": "C#5",
          "velocity": 1,
          "duration": 0.3687500000000057,
          "ticks": 66480,
          "durationTicks": 59
        },
        {
          "time": 218.142834,
          "midi": 64,
          "name": "E4",
          "velocity": 0.9763779527559056,
          "duration": 0.3687500000000057,
          "ticks": 66480,
          "durationTicks": 59
        },
        {
          "time": 221.142834,
          "midi": 57,
          "name": "A3",
          "velocity": 1,
          "duration": 0.37187499999998863,
          "ticks": 67320,
          "durationTicks": 119
        },
        {
          "time": 221.517834,
          "midi": 57,
          "name": "A3",
          "velocity": 1,
          "duration": 0.37187499999998863,
          "ticks": 67440,
          "durationTicks": 119
        },
        {
          "time": 224.142834,
          "midi": 57,
          "name": "A3",
          "velocity": 1,
          "duration": 0.37187499999998863,
          "ticks": 68280,
          "durationTicks": 119
        },
        {
          "time": 224.517834,
          "midi": 57,
          "name": "A3",
          "velocity": 1,
          "duration": 0.37187499999998863,
          "ticks": 68400,
          "durationTicks": 119
        },
        {
          "time": 224.892834,
          "midi": 57,
          "name": "A3",
          "velocity": 1,
          "duration": 0.37187499999998863,
          "ticks": 68520,
          "durationTicks": 119
        },
        {
          "time": 225.267834,
          "midi": 57,
          "name": "A3",
          "velocity": 1,
          "duration": 0.37187499999998863,
          "ticks": 68640,
          "durationTicks": 119
        },
        {
          "time": 225.642834,
          "midi": 57,
          "name": "A3",
          "velocity": 1,
          "duration": 0.37187499999998863,
          "ticks": 68760,
          "durationTicks": 119
        },
        {
          "time": 226.017834,
          "midi": 57,
          "name": "A3",
          "velocity": 1,
          "duration": 0.37187499999998863,
          "ticks": 68880,
          "durationTicks": 119
        },
        {
          "time": 226.392834,
          "midi": 57,
          "name": "A3",
          "velocity": 1,
          "duration": 0.37187499999998863,
          "ticks": 69000,
          "durationTicks": 119
        },
        {
          "time": 226.767834,
          "midi": 57,
          "name": "A3",
          "velocity": 1,
          "duration": 0.37187499999998863,
          "ticks": 69120,
          "durationTicks": 119
        },
        {
          "time": 227.142834,
          "midi": 57,
          "name": "A3",
          "velocity": 1,
          "duration": 0.37187499999998863,
          "ticks": 69240,
          "durationTicks": 119
        },
        {
          "time": 227.517834,
          "midi": 57,
          "name": "A3",
          "velocity": 1,
          "duration": 0.37187499999998863,
          "ticks": 69360,
          "durationTicks": 119
        },
        {
          "time": 227.892834,
          "midi": 57,
          "name": "A3",
          "velocity": 1,
          "duration": 0.37187499999998863,
          "ticks": 69480,
          "durationTicks": 119
        },
        {
          "time": 228.267834,
          "midi": 57,
          "name": "A3",
          "velocity": 1,
          "duration": 0.37187499999998863,
          "ticks": 69600,
          "durationTicks": 119
        },
        {
          "time": 228.642834,
          "midi": 57,
          "name": "A3",
          "velocity": 1,
          "duration": 0.37187499999998863,
          "ticks": 69720,
          "durationTicks": 119
        },
        {
          "time": 229.017834,
          "midi": 57,
          "name": "A3",
          "velocity": 1,
          "duration": 0.37187499999998863,
          "ticks": 69840,
          "durationTicks": 119
        },
        {
          "time": 229.392834,
          "midi": 57,
          "name": "A3",
          "velocity": 1,
          "duration": 0.37187499999998863,
          "ticks": 69960,
          "durationTicks": 119
        },
        {
          "time": 230.142834,
          "midi": 57,
          "name": "A3",
          "velocity": 1,
          "duration": 0.37187499999998863,
          "ticks": 70200,
          "durationTicks": 119
        },
        {
          "time": 230.892834,
          "midi": 57,
          "name": "A3",
          "velocity": 1,
          "duration": 0.37187499999998863,
          "ticks": 70440,
          "durationTicks": 119
        },
        {
          "time": 231.267834,
          "midi": 57,
          "name": "A3",
          "velocity": 0.937007874015748,
          "duration": 0.37187499999998863,
          "ticks": 70560,
          "durationTicks": 119
        },
        {
          "time": 231.267834,
          "midi": 62,
          "name": "D4",
          "velocity": 1,
          "duration": 0.37187499999998863,
          "ticks": 70560,
          "durationTicks": 119
        },
        {
          "time": 231.642834,
          "midi": 57,
          "name": "A3",
          "velocity": 0.937007874015748,
          "duration": 0.37187499999998863,
          "ticks": 70680,
          "durationTicks": 119
        },
        {
          "time": 231.642834,
          "midi": 64,
          "name": "E4",
          "velocity": 1,
          "duration": 0.37187499999998863,
          "ticks": 70680,
          "durationTicks": 119
        },
        {
          "time": 232.017834,
          "midi": 57,
          "name": "A3",
          "velocity": 0.905511811023622,
          "duration": 0.37187499999998863,
          "ticks": 70800,
          "durationTicks": 119
        },
        {
          "time": 232.017834,
          "midi": 66,
          "name": "F#4",
          "velocity": 1,
          "duration": 0.37187499999998863,
          "ticks": 70800,
          "durationTicks": 119
        },
        {
          "time": 232.392834,
          "midi": 57,
          "name": "A3",
          "velocity": 0.937007874015748,
          "duration": 0.37187499999998863,
          "ticks": 70920,
          "durationTicks": 119
        },
        {
          "time": 232.392834,
          "midi": 66,
          "name": "F#4",
          "velocity": 1,
          "duration": 0.37187499999998863,
          "ticks": 70920,
          "durationTicks": 119
        },
        {
          "time": 232.767834,
          "midi": 57,
          "name": "A3",
          "velocity": 0.937007874015748,
          "duration": 0.37187499999998863,
          "ticks": 71040,
          "durationTicks": 119
        },
        {
          "time": 232.767834,
          "midi": 64,
          "name": "E4",
          "velocity": 1,
          "duration": 0.37187499999998863,
          "ticks": 71040,
          "durationTicks": 119
        },
        {
          "time": 233.142834,
          "midi": 57,
          "name": "A3",
          "velocity": 1,
          "duration": 0.37187499999998863,
          "ticks": 71160,
          "durationTicks": 119
        },
        {
          "time": 233.142834,
          "midi": 62,
          "name": "D4",
          "velocity": 1,
          "duration": 0.37187499999998863,
          "ticks": 71160,
          "durationTicks": 119
        },
        {
          "time": 233.517834,
          "midi": 57,
          "name": "A3",
          "velocity": 0.9763779527559056,
          "duration": 0.37187499999998863,
          "ticks": 71280,
          "durationTicks": 119
        },
        {
          "time": 233.517834,
          "midi": 67,
          "name": "G4",
          "velocity": 0.9763779527559056,
          "duration": 0.37187499999998863,
          "ticks": 71280,
          "durationTicks": 119
        },
        {
          "time": 233.892834,
          "midi": 57,
          "name": "A3",
          "velocity": 0.9763779527559056,
          "duration": 0.37187499999998863,
          "ticks": 71400,
          "durationTicks": 119
        },
        {
          "time": 233.892834,
          "midi": 66,
          "name": "F#4",
          "velocity": 1,
          "duration": 0.37187499999998863,
          "ticks": 71400,
          "durationTicks": 119
        },
        {
          "time": 234.267834,
          "midi": 57,
          "name": "A3",
          "velocity": 1,
          "duration": 0.37187499999998863,
          "ticks": 71520,
          "durationTicks": 119
        },
        {
          "time": 234.642834,
          "midi": 57,
          "name": "A3",
          "velocity": 1,
          "duration": 0.37187499999998863,
          "ticks": 71640,
          "durationTicks": 119
        },
        {
          "time": 235.017834,
          "midi": 57,
          "name": "A3",
          "velocity": 1,
          "duration": 0.37187499999998863,
          "ticks": 71760,
          "durationTicks": 119
        },
        {
          "time": 235.392834,
          "midi": 57,
          "name": "A3",
          "velocity": 1,
          "duration": 0.37187499999998863,
          "ticks": 71880,
          "durationTicks": 119
        },
        {
          "time": 236.142834,
          "midi": 57,
          "name": "A3",
          "velocity": 1,
          "duration": 0.37187499999998863,
          "ticks": 72120,
          "durationTicks": 119
        },
        {
          "time": 237.267834,
          "midi": 57,
          "name": "A3",
          "velocity": 1,
          "duration": 0.37187499999998863,
          "ticks": 72480,
          "durationTicks": 119
        },
        {
          "time": 238.017834,
          "midi": 57,
          "name": "A3",
          "velocity": 1,
          "duration": 0.37187499999998863,
          "ticks": 72720,
          "durationTicks": 119
        },
        {
          "time": 238.767834,
          "midi": 57,
          "name": "A3",
          "velocity": 1,
          "duration": 0.37187499999998863,
          "ticks": 72960,
          "durationTicks": 119
        },
        {
          "time": 239.517834,
          "midi": 57,
          "name": "A3",
          "velocity": 1,
          "duration": 0.37187499999998863,
          "ticks": 73200,
          "durationTicks": 119
        },
        {
          "time": 240.267834,
          "midi": 57,
          "name": "A3",
          "velocity": 1,
          "duration": 0.37187499999998863,
          "ticks": 73440,
          "durationTicks": 119
        },
        {
          "time": 241.017834,
          "midi": 57,
          "name": "A3",
          "velocity": 1,
          "duration": 0.37187499999998863,
          "ticks": 73680,
          "durationTicks": 119
        },
        {
          "time": 241.392834,
          "midi": 57,
          "name": "A3",
          "velocity": 0.9763779527559056,
          "duration": 0.37187499999998863,
          "ticks": 73800,
          "durationTicks": 119
        },
        {
          "time": 241.767834,
          "midi": 57,
          "name": "A3",
          "velocity": 0.9763779527559056,
          "duration": 0.37187499999998863,
          "ticks": 73920,
          "durationTicks": 119
        },
        {
          "time": 242.142834,
          "midi": 57,
          "name": "A3",
          "velocity": 0.937007874015748,
          "duration": 0.37187499999998863,
          "ticks": 74040,
          "durationTicks": 119
        },
        {
          "time": 242.517834,
          "midi": 57,
          "name": "A3",
          "velocity": 1,
          "duration": 0.37187499999998863,
          "ticks": 74160,
          "durationTicks": 119
        },
        {
          "time": 242.892834,
          "midi": 57,
          "name": "A3",
          "velocity": 1,
          "duration": 0.37187499999998863,
          "ticks": 74280,
          "durationTicks": 119
        },
        {
          "time": 243.267834,
          "midi": 57,
          "name": "A3",
          "velocity": 1,
          "duration": 0.37187499999998863,
          "ticks": 74400,
          "durationTicks": 119
        },
        {
          "time": 243.642834,
          "midi": 57,
          "name": "A3",
          "velocity": 1,
          "duration": 0.37187499999998863,
          "ticks": 74520,
          "durationTicks": 119
        },
        {
          "time": 244.017834,
          "midi": 57,
          "name": "A3",
          "velocity": 1,
          "duration": 0.37187499999998863,
          "ticks": 74640,
          "durationTicks": 119
        },
        {
          "time": 244.392834,
          "midi": 57,
          "name": "A3",
          "velocity": 1,
          "duration": 0.37187499999998863,
          "ticks": 74760,
          "durationTicks": 119
        },
        {
          "time": 244.767834,
          "midi": 57,
          "name": "A3",
          "velocity": 1,
          "duration": 0.37187499999998863,
          "ticks": 74880,
          "durationTicks": 119
        },
        {
          "time": 245.142834,
          "midi": 57,
          "name": "A3",
          "velocity": 1,
          "duration": 0.37187499999998863,
          "ticks": 75000,
          "durationTicks": 119
        },
        {
          "time": 245.517834,
          "midi": 57,
          "name": "A3",
          "velocity": 1,
          "duration": 0.37187499999998863,
          "ticks": 75120,
          "durationTicks": 119
        },
        {
          "time": 245.892834,
          "midi": 57,
          "name": "A3",
          "velocity": 1,
          "duration": 0.37187499999998863,
          "ticks": 75240,
          "durationTicks": 119
        },
        {
          "time": 246.267834,
          "midi": 57,
          "name": "A3",
          "velocity": 1,
          "duration": 0.37187499999998863,
          "ticks": 75360,
          "durationTicks": 119
        },
        {
          "time": 246.642834,
          "midi": 57,
          "name": "A3",
          "velocity": 1,
          "duration": 0.37187499999998863,
          "ticks": 75480,
          "durationTicks": 119
        },
        {
          "time": 247.017834,
          "midi": 57,
          "name": "A3",
          "velocity": 1,
          "duration": 0.37187499999998863,
          "ticks": 75600,
          "durationTicks": 119
        },
        {
          "time": 247.392834,
          "midi": 57,
          "name": "A3",
          "velocity": 1,
          "duration": 0.37187499999998863,
          "ticks": 75720,
          "durationTicks": 119
        },
        {
          "time": 248.142834,
          "midi": 57,
          "name": "A3",
          "velocity": 1,
          "duration": 0.37187499999998863,
          "ticks": 75960,
          "durationTicks": 119
        },
        {
          "time": 248.892834,
          "midi": 64,
          "name": "E4",
          "velocity": 1,
          "duration": 0.37187499999998863,
          "ticks": 76200,
          "durationTicks": 119
        },
        {
          "time": 249.267834,
          "midi": 64,
          "name": "E4",
          "velocity": 1,
          "duration": 0.37187499999998863,
          "ticks": 76320,
          "durationTicks": 119
        },
        {
          "time": 249.642834,
          "midi": 66,
          "name": "F#4",
          "velocity": 1,
          "duration": 0.37187499999998863,
          "ticks": 76440,
          "durationTicks": 119
        },
        {
          "time": 250.017834,
          "midi": 62,
          "name": "D4",
          "velocity": 1,
          "duration": 0.37187499999998863,
          "ticks": 76560,
          "durationTicks": 119
        },
        {
          "time": 250.392834,
          "midi": 64,
          "name": "E4",
          "velocity": 1,
          "duration": 0.37187499999998863,
          "ticks": 76680,
          "durationTicks": 119
        },
        {
          "time": 250.767834,
          "midi": 66,
          "name": "F#4",
          "velocity": 1,
          "duration": 0.18437499999998863,
          "ticks": 76800,
          "durationTicks": 59
        },
        {
          "time": 250.955334,
          "midi": 67,
          "name": "G4",
          "velocity": 1,
          "duration": 0.18437499999998863,
          "ticks": 76860,
          "durationTicks": 59
        },
        {
          "time": 251.142834,
          "midi": 66,
          "name": "F#4",
          "velocity": 1,
          "duration": 0.37187499999998863,
          "ticks": 76920,
          "durationTicks": 119
        },
        {
          "time": 251.517834,
          "midi": 62,
          "name": "D4",
          "velocity": 1,
          "duration": 0.37187499999998863,
          "ticks": 77040,
          "durationTicks": 119
        },
        {
          "time": 251.892834,
          "midi": 64,
          "name": "E4",
          "velocity": 1,
          "duration": 0.37187499999998863,
          "ticks": 77160,
          "durationTicks": 119
        },
        {
          "time": 252.267834,
          "midi": 66,
          "name": "F#4",
          "velocity": 1,
          "duration": 0.18437499999998863,
          "ticks": 77280,
          "durationTicks": 59
        },
        {
          "time": 252.455334,
          "midi": 67,
          "name": "G4",
          "velocity": 1,
          "duration": 0.18437499999998863,
          "ticks": 77340,
          "durationTicks": 59
        },
        {
          "time": 252.642834,
          "midi": 66,
          "name": "F#4",
          "velocity": 1,
          "duration": 0.37187499999998863,
          "ticks": 77400,
          "durationTicks": 119
        },
        {
          "time": 253.017834,
          "midi": 64,
          "name": "E4",
          "velocity": 1,
          "duration": 0.37187499999998863,
          "ticks": 77520,
          "durationTicks": 119
        },
        {
          "time": 253.392834,
          "midi": 62,
          "name": "D4",
          "velocity": 1,
          "duration": 0.37187499999998863,
          "ticks": 77640,
          "durationTicks": 119
        },
        {
          "time": 253.767834,
          "midi": 64,
          "name": "E4",
          "velocity": 1,
          "duration": 0.37187499999998863,
          "ticks": 77760,
          "durationTicks": 119
        },
        {
          "time": 254.142834,
          "midi": 57,
          "name": "A3",
          "velocity": 0.937007874015748,
          "duration": 0.37187499999998863,
          "ticks": 77880,
          "durationTicks": 119
        },
        {
          "time": 254.517834,
          "midi": 66,
          "name": "F#4",
          "velocity": 1,
          "duration": 0.7468749999999886,
          "ticks": 78000,
          "durationTicks": 239
        },
        {
          "time": 255.267834,
          "midi": 66,
          "name": "F#4",
          "velocity": 1,
          "duration": 0.37187499999998863,
          "ticks": 78240,
          "durationTicks": 119
        },
        {
          "time": 255.642834,
          "midi": 67,
          "name": "G4",
          "velocity": 0.8818897637795275,
          "duration": 0.37187499999998863,
          "ticks": 78360,
          "durationTicks": 119
        },
        {
          "time": 256.017834,
          "midi": 69,
          "name": "A4",
          "velocity": 1,
          "duration": 0.37187499999998863,
          "ticks": 78480,
          "durationTicks": 119
        },
        {
          "time": 256.392834,
          "midi": 69,
          "name": "A4",
          "velocity": 1,
          "duration": 0.37187499999998863,
          "ticks": 78600,
          "durationTicks": 119
        },
        {
          "time": 256.767834,
          "midi": 67,
          "name": "G4",
          "velocity": 0.9763779527559056,
          "duration": 0.37187499999998863,
          "ticks": 78720,
          "durationTicks": 119
        },
        {
          "time": 257.142834,
          "midi": 66,
          "name": "F#4",
          "velocity": 1,
          "duration": 0.37187499999998863,
          "ticks": 78840,
          "durationTicks": 119
        },
        {
          "time": 257.517834,
          "midi": 67,
          "name": "G4",
          "velocity": 1,
          "duration": 0.18437499999998863,
          "ticks": 78960,
          "durationTicks": 59
        },
        {
          "time": 257.705334,
          "midi": 64,
          "name": "E4",
          "velocity": 1,
          "duration": 0.18437499999998863,
          "ticks": 79020,
          "durationTicks": 59
        },
        {
          "time": 257.892834,
          "midi": 62,
          "name": "D4",
          "velocity": 1,
          "duration": 0.37187499999998863,
          "ticks": 79080,
          "durationTicks": 119
        },
        {
          "time": 258.267834,
          "midi": 62,
          "name": "D4",
          "velocity": 1,
          "duration": 0.37187499999998863,
          "ticks": 79200,
          "durationTicks": 119
        },
        {
          "time": 258.642834,
          "midi": 64,
          "name": "E4",
          "velocity": 1,
          "duration": 0.37187499999998863,
          "ticks": 79320,
          "durationTicks": 119
        },
        {
          "time": 259.017834,
          "midi": 66,
          "name": "F#4",
          "velocity": 1,
          "duration": 0.37187499999998863,
          "ticks": 79440,
          "durationTicks": 119
        },
        {
          "time": 259.392834,
          "midi": 64,
          "name": "E4",
          "velocity": 1,
          "duration": 0.5593749999999886,
          "ticks": 79560,
          "durationTicks": 179
        },
        {
          "time": 259.955334,
          "midi": 62,
          "name": "D4",
          "velocity": 1,
          "duration": 0.18437499999998863,
          "ticks": 79740,
          "durationTicks": 59
        },
        {
          "time": 260.142834,
          "midi": 62,
          "name": "D4",
          "velocity": 1,
          "duration": 0.37187499999998863,
          "ticks": 79800,
          "durationTicks": 119
        },
        {
          "time": 260.517834,
          "midi": 69,
          "name": "A4",
          "velocity": 1,
          "duration": 0.37187499999998863,
          "ticks": 79920,
          "durationTicks": 119
        },
        {
          "time": 260.892834,
          "midi": 67,
          "name": "G4",
          "velocity": 0.8818897637795275,
          "duration": 0.5593749999999886,
          "ticks": 80040,
          "durationTicks": 179
        },
        {
          "time": 261.455334,
          "midi": 66,
          "name": "F#4",
          "velocity": 1,
          "duration": 0.18437499999998863,
          "ticks": 80220,
          "durationTicks": 59
        },
        {
          "time": 261.642834,
          "midi": 66,
          "name": "F#4",
          "velocity": 0.937007874015748,
          "duration": 0.37187499999998863,
          "ticks": 80280,
          "durationTicks": 119
        },
        {
          "time": 262.017834,
          "midi": 74,
          "name": "D5",
          "velocity": 0.8267716535433071,
          "duration": 0.37187499999998863,
          "ticks": 80400,
          "durationTicks": 119
        },
        {
          "time": 262.392834,
          "midi": 72,
          "name": "C5",
          "velocity": 0.8503937007874016,
          "duration": 0.5593749999999886,
          "ticks": 80520,
          "durationTicks": 179
        },
        {
          "time": 262.955334,
          "midi": 71,
          "name": "B4",
          "velocity": 0.905511811023622,
          "duration": 0.18437499999998863,
          "ticks": 80700,
          "durationTicks": 59
        },
        {
          "time": 263.142834,
          "midi": 71,
          "name": "B4",
          "velocity": 0.8503937007874016,
          "duration": 0.37187499999998863,
          "ticks": 80760,
          "durationTicks": 119
        },
        {
          "time": 263.517834,
          "midi": 79,
          "name": "G5",
          "velocity": 0.8267716535433071,
          "duration": 0.18437499999998863,
          "ticks": 80880,
          "durationTicks": 59
        },
        {
          "time": 263.705334,
          "midi": 76,
          "name": "E5",
          "velocity": 0.7795275590551181,
          "duration": 0.18437499999998863,
          "ticks": 80940,
          "durationTicks": 59
        },
        {
          "time": 263.892834,
          "midi": 74,
          "name": "D5",
          "velocity": 0.8503937007874016,
          "duration": 0.18437499999998863,
          "ticks": 81000,
          "durationTicks": 59
        },
        {
          "time": 264.080334,
          "midi": 73,
          "name": "C#5",
          "velocity": 1,
          "duration": 0.18437499999998863,
          "ticks": 81060,
          "durationTicks": 59
        },
        {
          "time": 264.267834,
          "midi": 76,
          "name": "E5",
          "velocity": 0.8503937007874016,
          "duration": 0.18437499999998863,
          "ticks": 81120,
          "durationTicks": 59
        },
        {
          "time": 264.455334,
          "midi": 73,
          "name": "C#5",
          "velocity": 1,
          "duration": 0.18437499999998863,
          "ticks": 81180,
          "durationTicks": 59
        },
        {
          "time": 264.642834,
          "midi": 71,
          "name": "B4",
          "velocity": 0.8503937007874016,
          "duration": 0.18437499999998863,
          "ticks": 81240,
          "durationTicks": 59
        },
        {
          "time": 264.830334,
          "midi": 69,
          "name": "A4",
          "velocity": 0.8818897637795275,
          "duration": 0.18437499999998863,
          "ticks": 81300,
          "durationTicks": 59
        },
        {
          "time": 265.017834,
          "midi": 71,
          "name": "B4",
          "velocity": 1,
          "duration": 0.18437499999998863,
          "ticks": 81360,
          "durationTicks": 59
        },
        {
          "time": 265.205334,
          "midi": 73,
          "name": "C#5",
          "velocity": 1,
          "duration": 0.18437499999998863,
          "ticks": 81420,
          "durationTicks": 59
        },
        {
          "time": 265.392834,
          "midi": 74,
          "name": "D5",
          "velocity": 0.937007874015748,
          "duration": 0.18437499999998863,
          "ticks": 81480,
          "durationTicks": 59
        },
        {
          "time": 265.580334,
          "midi": 78,
          "name": "F#5",
          "velocity": 0.937007874015748,
          "duration": 0.18437499999998863,
          "ticks": 81540,
          "durationTicks": 59
        },
        {
          "time": 265.767834,
          "midi": 76,
          "name": "E5",
          "velocity": 0.8818897637795275,
          "duration": 0.18437499999998863,
          "ticks": 81600,
          "durationTicks": 59
        },
        {
          "time": 265.955334,
          "midi": 73,
          "name": "C#5",
          "velocity": 1,
          "duration": 0.18437499999998863,
          "ticks": 81660,
          "durationTicks": 59
        },
        {
          "time": 266.142834,
          "midi": 74,
          "name": "D5",
          "velocity": 1,
          "duration": 0.37187499999998863,
          "ticks": 81720,
          "durationTicks": 119
        },
        {
          "time": 291.642834,
          "midi": 66,
          "name": "F#4",
          "velocity": 0.937007874015748,
          "duration": 0.18437499999998863,
          "ticks": 89880,
          "durationTicks": 59
        },
        {
          "time": 291.830334,
          "midi": 66,
          "name": "F#4",
          "velocity": 0.937007874015748,
          "duration": 0.18437499999998863,
          "ticks": 89940,
          "durationTicks": 59
        },
        {
          "time": 292.017834,
          "midi": 74,
          "name": "D5",
          "velocity": 1,
          "duration": 0.18437499999998863,
          "ticks": 90000,
          "durationTicks": 59
        },
        {
          "time": 292.205334,
          "midi": 69,
          "name": "A4",
          "velocity": 1,
          "duration": 0.18437499999998863,
          "ticks": 90060,
          "durationTicks": 59
        },
        {
          "time": 292.392834,
          "midi": 73,
          "name": "C#5",
          "velocity": 1,
          "duration": 0.37187499999998863,
          "ticks": 90120,
          "durationTicks": 119
        },
        {
          "time": 293.142834,
          "midi": 66,
          "name": "F#4",
          "velocity": 0.937007874015748,
          "duration": 0.18437499999998863,
          "ticks": 90360,
          "durationTicks": 59
        },
        {
          "time": 293.330334,
          "midi": 74,
          "name": "D5",
          "velocity": 1,
          "duration": 0.18437499999998863,
          "ticks": 90420,
          "durationTicks": 59
        },
        {
          "time": 293.517834,
          "midi": 67,
          "name": "G4",
          "velocity": 1,
          "duration": 0.18437499999998863,
          "ticks": 90480,
          "durationTicks": 59
        },
        {
          "time": 293.705334,
          "midi": 74,
          "name": "D5",
          "velocity": 1,
          "duration": 0.18437499999998863,
          "ticks": 90540,
          "durationTicks": 59
        },
        {
          "time": 293.892834,
          "midi": 76,
          "name": "E5",
          "velocity": 1,
          "duration": 0.37187499999998863,
          "ticks": 90600,
          "durationTicks": 119
        },
        {
          "time": 294.455334,
          "midi": 64,
          "name": "E4",
          "velocity": 1,
          "duration": 0.18437499999998863,
          "ticks": 90780,
          "durationTicks": 59
        },
        {
          "time": 294.642834,
          "midi": 73,
          "name": "C#5",
          "velocity": 1,
          "duration": 0.37187499999998863,
          "ticks": 90840,
          "durationTicks": 119
        },
        {
          "time": 295.205334,
          "midi": 64,
          "name": "E4",
          "velocity": 0.8818897637795275,
          "duration": 0.18437499999998863,
          "ticks": 91020,
          "durationTicks": 59
        },
        {
          "time": 295.205334,
          "midi": 73,
          "name": "C#5",
          "velocity": 0.8818897637795275,
          "duration": 0.18437499999998863,
          "ticks": 91020,
          "durationTicks": 59
        },
        {
          "time": 295.392834,
          "midi": 62,
          "name": "D4",
          "velocity": 1,
          "duration": 0.37187499999998863,
          "ticks": 91080,
          "durationTicks": 119
        },
        {
          "time": 295.392834,
          "midi": 71,
          "name": "B4",
          "velocity": 1,
          "duration": 0.37187499999998863,
          "ticks": 91080,
          "durationTicks": 119
        },
        {
          "time": 295.955334,
          "midi": 68,
          "name": "G#4",
          "velocity": 0.9763779527559056,
          "duration": 0.18437499999998863,
          "ticks": 91260,
          "durationTicks": 59
        },
        {
          "time": 296.142834,
          "midi": 69,
          "name": "A4",
          "velocity": 0.6377952755905512,
          "duration": 0.18437499999998863,
          "ticks": 91320,
          "durationTicks": 59
        },
        {
          "time": 296.142834,
          "midi": 61,
          "name": "C#4",
          "velocity": 0.8818897637795275,
          "duration": 0.18437499999998863,
          "ticks": 91320,
          "durationTicks": 59
        },
        {
          "time": 296.330334,
          "midi": 66,
          "name": "F#4",
          "velocity": 1,
          "duration": 0.18437499999998863,
          "ticks": 91380,
          "durationTicks": 59
        },
        {
          "time": 296.517834,
          "midi": 74,
          "name": "D5",
          "velocity": 0.905511811023622,
          "duration": 0.18437499999998863,
          "ticks": 91440,
          "durationTicks": 59
        },
        {
          "time": 297.080334,
          "midi": 66,
          "name": "F#4",
          "velocity": 0.9133858267716536,
          "duration": 0.18437499999998863,
          "ticks": 91620,
          "durationTicks": 59
        },
        {
          "time": 297.267834,
          "midi": 69,
          "name": "A4",
          "velocity": 0.8976377952755905,
          "duration": 0.37187499999998863,
          "ticks": 91680,
          "durationTicks": 119
        },
        {
          "time": 297.830334,
          "midi": 66,
          "name": "F#4",
          "velocity": 0.8661417322834646,
          "duration": 0.18437499999998863,
          "ticks": 91860,
          "durationTicks": 59
        },
        {
          "time": 298.017834,
          "midi": 78,
          "name": "F#5",
          "velocity": 0.8188976377952756,
          "duration": 0.37187499999998863,
          "ticks": 91920,
          "durationTicks": 119
        },
        {
          "time": 298.580334,
          "midi": 69,
          "name": "A4",
          "velocity": 0.7795275590551181,
          "duration": 0.18437499999998863,
          "ticks": 92100,
          "durationTicks": 59
        },
        {
          "time": 298.767834,
          "midi": 76,
          "name": "E5",
          "velocity": 0.7559055118110236,
          "duration": 0.37187499999998863,
          "ticks": 92160,
          "durationTicks": 119
        },
        {
          "time": 299.330334,
          "midi": 62,
          "name": "D4",
          "velocity": 0.7086614173228346,
          "duration": 0.18437499999998863,
          "ticks": 92340,
          "durationTicks": 59
        },
        {
          "time": 299.517834,
          "midi": 73,
          "name": "C#5",
          "velocity": 0.7007874015748031,
          "duration": 0.37187499999998863,
          "ticks": 92400,
          "durationTicks": 119
        },
        {
          "time": 300.080334,
          "midi": 62,
          "name": "D4",
          "velocity": 0.6614173228346457,
          "duration": 0.18437499999998863,
          "ticks": 92580,
          "durationTicks": 59
        },
        {
          "time": 300.267834,
          "midi": 69,
          "name": "A4",
          "velocity": 0.6614173228346457,
          "duration": 0.37187499999998863,
          "ticks": 92640,
          "durationTicks": 119
        },
        {
          "time": 300.830334,
          "midi": 66,
          "name": "F#4",
          "velocity": 0.6456692913385826,
          "duration": 0.18437499999998863,
          "ticks": 92820,
          "durationTicks": 59
        },
        {
          "time": 301.017834,
          "midi": 74,
          "name": "D5",
          "velocity": 0.6456692913385826,
          "duration": 0.37187499999998863,
          "ticks": 92880,
          "durationTicks": 119
        },
        {
          "time": 301.580334,
          "midi": 67,
          "name": "G4",
          "velocity": 0.6456692913385826,
          "duration": 0.18437499999998863,
          "ticks": 93060,
          "durationTicks": 59
        },
        {
          "time": 301.767834,
          "midi": 73,
          "name": "C#5",
          "velocity": 0.6377952755905512,
          "duration": 0.18437499999998863,
          "ticks": 93120,
          "durationTicks": 59
        },
        {
          "time": 302.330334,
          "midi": 66,
          "name": "F#4",
          "velocity": 0.6377952755905512,
          "duration": 0.18437499999998863,
          "ticks": 93300,
          "durationTicks": 59
        },
        {
          "time": 302.517834,
          "midi": 69,
          "name": "A4",
          "velocity": 0.6377952755905512,
          "duration": 0.18437499999998863,
          "ticks": 93360,
          "durationTicks": 59
        },
        {
          "time": 303.080334,
          "midi": 57,
          "name": "A3",
          "velocity": 0.6377952755905512,
          "duration": 0.18437499999998863,
          "ticks": 93540,
          "durationTicks": 59
        },
        {
          "time": 303.267834,
          "midi": 69,
          "name": "A4",
          "velocity": 0.6377952755905512,
          "duration": 0.18437499999998863,
          "ticks": 93600,
          "durationTicks": 59
        },
        {
          "time": 303.830334,
          "midi": 62,
          "name": "D4",
          "velocity": 0.6377952755905512,
          "duration": 0.18437499999998863,
          "ticks": 93780,
          "durationTicks": 59
        },
        {
          "time": 304.017834,
          "midi": 74,
          "name": "D5",
          "velocity": 0.6377952755905512,
          "duration": 0.18437499999998863,
          "ticks": 93840,
          "durationTicks": 59
        },
        {
          "time": 304.580334,
          "midi": 60,
          "name": "C4",
          "velocity": 0.8267716535433071,
          "duration": 0.18437499999998863,
          "ticks": 94020,
          "durationTicks": 59
        },
        {
          "time": 304.767834,
          "midi": 72,
          "name": "C5",
          "velocity": 0.8503937007874016,
          "duration": 0.18437499999998863,
          "ticks": 94080,
          "durationTicks": 59
        },
        {
          "time": 305.330334,
          "midi": 59,
          "name": "B3",
          "velocity": 0.905511811023622,
          "duration": 0.18437499999998863,
          "ticks": 94260,
          "durationTicks": 59
        },
        {
          "time": 305.517834,
          "midi": 71,
          "name": "B4",
          "velocity": 0.7086614173228346,
          "duration": 0.18437499999998863,
          "ticks": 94320,
          "durationTicks": 59
        },
        {
          "time": 306.080334,
          "midi": 64,
          "name": "E4",
          "velocity": 0.7086614173228346,
          "duration": 0.18437499999998863,
          "ticks": 94500,
          "durationTicks": 59
        },
        {
          "time": 306.267834,
          "midi": 76,
          "name": "E5",
          "velocity": 0.8503937007874016,
          "duration": 0.18437499999998863,
          "ticks": 94560,
          "durationTicks": 59
        },
        {
          "time": 306.830334,
          "midi": 64,
          "name": "E4",
          "velocity": 0.905511811023622,
          "duration": 0.18437499999998863,
          "ticks": 94740,
          "durationTicks": 59
        },
        {
          "time": 307.017834,
          "midi": 76,
          "name": "E5",
          "velocity": 0.8818897637795275,
          "duration": 0.18437499999998863,
          "ticks": 94800,
          "durationTicks": 59
        },
        {
          "time": 307.392834,
          "midi": 74,
          "name": "D5",
          "velocity": 0.7637795275590551,
          "duration": 0.18437499999998863,
          "ticks": 94920,
          "durationTicks": 59
        },
        {
          "time": 307.767834,
          "midi": 69,
          "name": "A4",
          "velocity": 0.6377952755905512,
          "duration": 0.18437499999998863,
          "ticks": 95040,
          "durationTicks": 59
        },
        {
          "time": 307.767834,
          "midi": 76,
          "name": "E5",
          "velocity": 0.8031496062992126,
          "duration": 0.18437499999998863,
          "ticks": 95040,
          "durationTicks": 59
        },
        {
          "time": 308.142834,
          "midi": 62,
          "name": "D4",
          "velocity": 0.5826771653543307,
          "duration": 0.18437499999998863,
          "ticks": 95160,
          "durationTicks": 59
        },
        {
          "time": 308.142834,
          "midi": 78,
          "name": "F#5",
          "velocity": 1,
          "duration": 0.18437499999998863,
          "ticks": 95160,
          "durationTicks": 59
        },
        {
          "time": 308.142834,
          "midi": 69,
          "name": "A4",
          "velocity": 0.48031496062992124,
          "duration": 0.18437499999998863,
          "ticks": 95160,
          "durationTicks": 59
        },
        {
          "time": 315.267834,
          "midi": 66,
          "name": "F#4",
          "velocity": 0.8267716535433071,
          "duration": 0.04374999999998863,
          "ticks": 97440,
          "durationTicks": 14
        },
        {
          "time": 315.314709,
          "midi": 67,
          "name": "G4",
          "velocity": 0.6535433070866141,
          "duration": 0.04374999999998863,
          "ticks": 97455,
          "durationTicks": 14
        },
        {
          "time": 315.361584,
          "midi": 66,
          "name": "F#4",
          "velocity": 0.8818897637795275,
          "duration": 0.04374999999998863,
          "ticks": 97470,
          "durationTicks": 14
        },
        {
          "time": 315.408459,
          "midi": 67,
          "name": "G4",
          "velocity": 0.7086614173228346,
          "duration": 0.04374999999998863,
          "ticks": 97485,
          "durationTicks": 14
        },
        {
          "time": 315.455334,
          "midi": 66,
          "name": "F#4",
          "velocity": 0.937007874015748,
          "duration": 0.04374999999998863,
          "ticks": 97500,
          "durationTicks": 14
        },
        {
          "time": 315.502209,
          "midi": 67,
          "name": "G4",
          "velocity": 0.8031496062992126,
          "duration": 0.04374999999998863,
          "ticks": 97515,
          "durationTicks": 14
        },
        {
          "time": 315.549084,
          "midi": 64,
          "name": "E4",
          "velocity": 0.937007874015748,
          "duration": 0.04374999999998863,
          "ticks": 97530,
          "durationTicks": 14
        },
        {
          "time": 315.595959,
          "midi": 66,
          "name": "F#4",
          "velocity": 0.8503937007874016,
          "duration": 0.04374999999998863,
          "ticks": 97545,
          "durationTicks": 14
        },
        {
          "time": 316.017834,
          "midi": 74,
          "name": "D5",
          "velocity": 0.8267716535433071,
          "duration": 0.04374999999998863,
          "ticks": 97680,
          "durationTicks": 14
        },
        {
          "time": 316.064709,
          "midi": 76,
          "name": "E5",
          "velocity": 0.6535433070866141,
          "duration": 0.04374999999998863,
          "ticks": 97695,
          "durationTicks": 14
        },
        {
          "time": 316.111584,
          "midi": 74,
          "name": "D5",
          "velocity": 0.8818897637795275,
          "duration": 0.04374999999998863,
          "ticks": 97710,
          "durationTicks": 14
        },
        {
          "time": 316.158459,
          "midi": 76,
          "name": "E5",
          "velocity": 0.7086614173228346,
          "duration": 0.04374999999998863,
          "ticks": 97725,
          "durationTicks": 14
        },
        {
          "time": 316.205334,
          "midi": 74,
          "name": "D5",
          "velocity": 0.937007874015748,
          "duration": 0.04374999999998863,
          "ticks": 97740,
          "durationTicks": 14
        },
        {
          "time": 316.252209,
          "midi": 76,
          "name": "E5",
          "velocity": 0.8031496062992126,
          "duration": 0.04374999999998863,
          "ticks": 97755,
          "durationTicks": 14
        },
        {
          "time": 316.299084,
          "midi": 73,
          "name": "C#5",
          "velocity": 0.937007874015748,
          "duration": 0.04374999999998863,
          "ticks": 97770,
          "durationTicks": 14
        },
        {
          "time": 316.345959,
          "midi": 74,
          "name": "D5",
          "velocity": 0.8503937007874016,
          "duration": 0.04374999999998863,
          "ticks": 97785,
          "durationTicks": 14
        },
        {
          "time": 316.767834,
          "midi": 71,
          "name": "B4",
          "velocity": 0.8267716535433071,
          "duration": 0.04374999999998863,
          "ticks": 97920,
          "durationTicks": 14
        },
        {
          "time": 316.814709,
          "midi": 73,
          "name": "C#5",
          "velocity": 0.6535433070866141,
          "duration": 0.04374999999998863,
          "ticks": 97935,
          "durationTicks": 14
        },
        {
          "time": 316.861584,
          "midi": 71,
          "name": "B4",
          "velocity": 0.8818897637795275,
          "duration": 0.04374999999998863,
          "ticks": 97950,
          "durationTicks": 14
        },
        {
          "time": 316.908459,
          "midi": 73,
          "name": "C#5",
          "velocity": 0.7086614173228346,
          "duration": 0.04374999999998863,
          "ticks": 97965,
          "durationTicks": 14
        },
        {
          "time": 316.955334,
          "midi": 71,
          "name": "B4",
          "velocity": 0.937007874015748,
          "duration": 0.04374999999998863,
          "ticks": 97980,
          "durationTicks": 14
        },
        {
          "time": 317.002209,
          "midi": 73,
          "name": "C#5",
          "velocity": 0.8031496062992126,
          "duration": 0.04374999999998863,
          "ticks": 97995,
          "durationTicks": 14
        },
        {
          "time": 317.049084,
          "midi": 69,
          "name": "A4",
          "velocity": 0.937007874015748,
          "duration": 0.04374999999998863,
          "ticks": 98010,
          "durationTicks": 14
        },
        {
          "time": 317.095959,
          "midi": 71,
          "name": "B4",
          "velocity": 0.8503937007874016,
          "duration": 0.04374999999998863,
          "ticks": 98025,
          "durationTicks": 14
        },
        {
          "time": 317.517834,
          "midi": 67,
          "name": "G4",
          "velocity": 0.8267716535433071,
          "duration": 0.04374999999998863,
          "ticks": 98160,
          "durationTicks": 14
        },
        {
          "time": 317.564709,
          "midi": 69,
          "name": "A4",
          "velocity": 0.6535433070866141,
          "duration": 0.04374999999998863,
          "ticks": 98175,
          "durationTicks": 14
        },
        {
          "time": 317.611584,
          "midi": 67,
          "name": "G4",
          "velocity": 0.8818897637795275,
          "duration": 0.04374999999998863,
          "ticks": 98190,
          "durationTicks": 14
        },
        {
          "time": 317.658459,
          "midi": 69,
          "name": "A4",
          "velocity": 0.7086614173228346,
          "duration": 0.04374999999998863,
          "ticks": 98205,
          "durationTicks": 14
        },
        {
          "time": 317.705334,
          "midi": 67,
          "name": "G4",
          "velocity": 0.937007874015748,
          "duration": 0.04374999999998863,
          "ticks": 98220,
          "durationTicks": 14
        },
        {
          "time": 317.752209,
          "midi": 69,
          "name": "A4",
          "velocity": 0.8031496062992126,
          "duration": 0.04374999999998863,
          "ticks": 98235,
          "durationTicks": 14
        },
        {
          "time": 317.799084,
          "midi": 66,
          "name": "F#4",
          "velocity": 0.937007874015748,
          "duration": 0.04374999999998863,
          "ticks": 98250,
          "durationTicks": 14
        },
        {
          "time": 317.845959,
          "midi": 67,
          "name": "G4",
          "velocity": 0.8503937007874016,
          "duration": 0.04374999999998863,
          "ticks": 98265,
          "durationTicks": 14
        },
        {
          "time": 322.017834,
          "midi": 69,
          "name": "A4",
          "velocity": 0.8267716535433071,
          "duration": 0.04374999999998863,
          "ticks": 99600,
          "durationTicks": 14
        },
        {
          "time": 322.064709,
          "midi": 71,
          "name": "B4",
          "velocity": 0.6535433070866141,
          "duration": 0.04374999999998863,
          "ticks": 99615,
          "durationTicks": 14
        },
        {
          "time": 322.111584,
          "midi": 69,
          "name": "A4",
          "velocity": 0.8818897637795275,
          "duration": 0.04374999999998863,
          "ticks": 99630,
          "durationTicks": 14
        },
        {
          "time": 322.158459,
          "midi": 71,
          "name": "B4",
          "velocity": 0.7086614173228346,
          "duration": 0.04374999999998863,
          "ticks": 99645,
          "durationTicks": 14
        },
        {
          "time": 322.205334,
          "midi": 69,
          "name": "A4",
          "velocity": 0.937007874015748,
          "duration": 0.04374999999998863,
          "ticks": 99660,
          "durationTicks": 14
        },
        {
          "time": 322.252209,
          "midi": 71,
          "name": "B4",
          "velocity": 0.8031496062992126,
          "duration": 0.04374999999998863,
          "ticks": 99675,
          "durationTicks": 14
        },
        {
          "time": 322.299084,
          "midi": 68,
          "name": "G#4",
          "velocity": 0.937007874015748,
          "duration": 0.04374999999998863,
          "ticks": 99690,
          "durationTicks": 14
        },
        {
          "time": 322.345959,
          "midi": 69,
          "name": "A4",
          "velocity": 0.8503937007874016,
          "duration": 0.04374999999998863,
          "ticks": 99705,
          "durationTicks": 14
        },
        {
          "time": 322.767834,
          "midi": 69,
          "name": "A4",
          "velocity": 0.8267716535433071,
          "duration": 0.04374999999998863,
          "ticks": 99840,
          "durationTicks": 14
        },
        {
          "time": 322.814709,
          "midi": 71,
          "name": "B4",
          "velocity": 0.6535433070866141,
          "duration": 0.04374999999998863,
          "ticks": 99855,
          "durationTicks": 14
        },
        {
          "time": 322.861584,
          "midi": 69,
          "name": "A4",
          "velocity": 0.8818897637795275,
          "duration": 0.04374999999998863,
          "ticks": 99870,
          "durationTicks": 14
        },
        {
          "time": 322.908459,
          "midi": 71,
          "name": "B4",
          "velocity": 0.7086614173228346,
          "duration": 0.04374999999998863,
          "ticks": 99885,
          "durationTicks": 14
        },
        {
          "time": 322.955334,
          "midi": 69,
          "name": "A4",
          "velocity": 0.937007874015748,
          "duration": 0.04374999999998863,
          "ticks": 99900,
          "durationTicks": 14
        },
        {
          "time": 323.002209,
          "midi": 71,
          "name": "B4",
          "velocity": 0.8031496062992126,
          "duration": 0.04374999999998863,
          "ticks": 99915,
          "durationTicks": 14
        },
        {
          "time": 323.049084,
          "midi": 68,
          "name": "G#4",
          "velocity": 0.937007874015748,
          "duration": 0.04374999999998863,
          "ticks": 99930,
          "durationTicks": 14
        },
        {
          "time": 323.095959,
          "midi": 69,
          "name": "A4",
          "velocity": 0.8503937007874016,
          "duration": 0.04374999999998863,
          "ticks": 99945,
          "durationTicks": 14
        },
        {
          "time": 323.517834,
          "midi": 69,
          "name": "A4",
          "velocity": 0.8267716535433071,
          "duration": 0.04374999999998863,
          "ticks": 100080,
          "durationTicks": 14
        },
        {
          "time": 323.564709,
          "midi": 71,
          "name": "B4",
          "velocity": 0.6535433070866141,
          "duration": 0.04374999999998863,
          "ticks": 100095,
          "durationTicks": 14
        },
        {
          "time": 323.611584,
          "midi": 69,
          "name": "A4",
          "velocity": 0.8818897637795275,
          "duration": 0.04374999999998863,
          "ticks": 100110,
          "durationTicks": 14
        },
        {
          "time": 323.658459,
          "midi": 71,
          "name": "B4",
          "velocity": 0.7086614173228346,
          "duration": 0.04374999999998863,
          "ticks": 100125,
          "durationTicks": 14
        },
        {
          "time": 323.705334,
          "midi": 69,
          "name": "A4",
          "velocity": 0.937007874015748,
          "duration": 0.04374999999998863,
          "ticks": 100140,
          "durationTicks": 14
        },
        {
          "time": 323.752209,
          "midi": 71,
          "name": "B4",
          "velocity": 0.8031496062992126,
          "duration": 0.04374999999998863,
          "ticks": 100155,
          "durationTicks": 14
        },
        {
          "time": 323.799084,
          "midi": 68,
          "name": "G#4",
          "velocity": 0.937007874015748,
          "duration": 0.04374999999998863,
          "ticks": 100170,
          "durationTicks": 14
        },
        {
          "time": 323.845959,
          "midi": 69,
          "name": "A4",
          "velocity": 0.8503937007874016,
          "duration": 0.04374999999998863,
          "ticks": 100185,
          "durationTicks": 14
        },
        {
          "time": 325.017834,
          "midi": 66,
          "name": "F#4",
          "velocity": 0.8267716535433071,
          "duration": 0.04374999999998863,
          "ticks": 100560,
          "durationTicks": 14
        },
        {
          "time": 325.064709,
          "midi": 67,
          "name": "G4",
          "velocity": 0.6535433070866141,
          "duration": 0.04374999999998863,
          "ticks": 100575,
          "durationTicks": 14
        },
        {
          "time": 325.111584,
          "midi": 66,
          "name": "F#4",
          "velocity": 0.8818897637795275,
          "duration": 0.04374999999998863,
          "ticks": 100590,
          "durationTicks": 14
        },
        {
          "time": 325.158459,
          "midi": 67,
          "name": "G4",
          "velocity": 0.7086614173228346,
          "duration": 0.04374999999998863,
          "ticks": 100605,
          "durationTicks": 14
        },
        {
          "time": 325.205334,
          "midi": 66,
          "name": "F#4",
          "velocity": 0.937007874015748,
          "duration": 0.04374999999998863,
          "ticks": 100620,
          "durationTicks": 14
        },
        {
          "time": 325.252209,
          "midi": 67,
          "name": "G4",
          "velocity": 0.8031496062992126,
          "duration": 0.04374999999998863,
          "ticks": 100635,
          "durationTicks": 14
        },
        {
          "time": 325.299084,
          "midi": 64,
          "name": "E4",
          "velocity": 0.937007874015748,
          "duration": 0.04374999999998863,
          "ticks": 100650,
          "durationTicks": 14
        },
        {
          "time": 325.345959,
          "midi": 66,
          "name": "F#4",
          "velocity": 0.8503937007874016,
          "duration": 0.04374999999998863,
          "ticks": 100665,
          "durationTicks": 14
        },
        {
          "time": 325.767834,
          "midi": 64,
          "name": "E4",
          "velocity": 0.8267716535433071,
          "duration": 0.04374999999998863,
          "ticks": 100800,
          "durationTicks": 14
        },
        {
          "time": 325.814709,
          "midi": 66,
          "name": "F#4",
          "velocity": 0.6535433070866141,
          "duration": 0.04374999999998863,
          "ticks": 100815,
          "durationTicks": 14
        },
        {
          "time": 325.861584,
          "midi": 64,
          "name": "E4",
          "velocity": 0.8818897637795275,
          "duration": 0.04374999999998863,
          "ticks": 100830,
          "durationTicks": 14
        },
        {
          "time": 325.908459,
          "midi": 66,
          "name": "F#4",
          "velocity": 0.7086614173228346,
          "duration": 0.04374999999998863,
          "ticks": 100845,
          "durationTicks": 14
        },
        {
          "time": 325.955334,
          "midi": 64,
          "name": "E4",
          "velocity": 0.937007874015748,
          "duration": 0.04374999999998863,
          "ticks": 100860,
          "durationTicks": 14
        },
        {
          "time": 326.002209,
          "midi": 66,
          "name": "F#4",
          "velocity": 0.8031496062992126,
          "duration": 0.04374999999998863,
          "ticks": 100875,
          "durationTicks": 14
        },
        {
          "time": 326.049084,
          "midi": 63,
          "name": "D#4",
          "velocity": 0.937007874015748,
          "duration": 0.04374999999998863,
          "ticks": 100890,
          "durationTicks": 14
        },
        {
          "time": 326.095959,
          "midi": 64,
          "name": "E4",
          "velocity": 0.8503937007874016,
          "duration": 0.04374999999998863,
          "ticks": 100905,
          "durationTicks": 14
        },
        {
          "time": 326.517834,
          "midi": 69,
          "name": "A4",
          "velocity": 0.8267716535433071,
          "duration": 0.04374999999998863,
          "ticks": 101040,
          "durationTicks": 14
        },
        {
          "time": 326.564709,
          "midi": 71,
          "name": "B4",
          "velocity": 0.6535433070866141,
          "duration": 0.04374999999998863,
          "ticks": 101055,
          "durationTicks": 14
        },
        {
          "time": 326.611584,
          "midi": 69,
          "name": "A4",
          "velocity": 0.8818897637795275,
          "duration": 0.04374999999998863,
          "ticks": 101070,
          "durationTicks": 14
        },
        {
          "time": 326.658459,
          "midi": 71,
          "name": "B4",
          "velocity": 0.7086614173228346,
          "duration": 0.04374999999998863,
          "ticks": 101085,
          "durationTicks": 14
        },
        {
          "time": 326.705334,
          "midi": 69,
          "name": "A4",
          "velocity": 0.937007874015748,
          "duration": 0.04374999999998863,
          "ticks": 101100,
          "durationTicks": 14
        },
        {
          "time": 326.752209,
          "midi": 71,
          "name": "B4",
          "velocity": 0.8031496062992126,
          "duration": 0.04374999999998863,
          "ticks": 101115,
          "durationTicks": 14
        },
        {
          "time": 326.799084,
          "midi": 68,
          "name": "G#4",
          "velocity": 0.937007874015748,
          "duration": 0.04374999999998863,
          "ticks": 101130,
          "durationTicks": 14
        },
        {
          "time": 326.845959,
          "midi": 69,
          "name": "A4",
          "velocity": 0.8503937007874016,
          "duration": 0.04374999999998863,
          "ticks": 101145,
          "durationTicks": 14
        },
        {
          "time": 327.267834,
          "midi": 69,
          "name": "A4",
          "velocity": 0.8267716535433071,
          "duration": 0.04374999999998863,
          "ticks": 101280,
          "durationTicks": 14
        },
        {
          "time": 327.314709,
          "midi": 71,
          "name": "B4",
          "velocity": 0.6535433070866141,
          "duration": 0.04374999999998863,
          "ticks": 101295,
          "durationTicks": 14
        },
        {
          "time": 327.361584,
          "midi": 69,
          "name": "A4",
          "velocity": 0.8818897637795275,
          "duration": 0.04374999999998863,
          "ticks": 101310,
          "durationTicks": 14
        },
        {
          "time": 327.408459,
          "midi": 71,
          "name": "B4",
          "velocity": 0.7086614173228346,
          "duration": 0.04374999999998863,
          "ticks": 101325,
          "durationTicks": 14
        },
        {
          "time": 327.455334,
          "midi": 69,
          "name": "A4",
          "velocity": 0.937007874015748,
          "duration": 0.04374999999998863,
          "ticks": 101340,
          "durationTicks": 14
        },
        {
          "time": 327.502209,
          "midi": 71,
          "name": "B4",
          "velocity": 0.8031496062992126,
          "duration": 0.04374999999998863,
          "ticks": 101355,
          "durationTicks": 14
        },
        {
          "time": 327.549084,
          "midi": 68,
          "name": "G#4",
          "velocity": 0.937007874015748,
          "duration": 0.04374999999998863,
          "ticks": 101370,
          "durationTicks": 14
        },
        {
          "time": 327.595959,
          "midi": 69,
          "name": "A4",
          "velocity": 0.8503937007874016,
          "duration": 0.04374999999998863,
          "ticks": 101385,
          "durationTicks": 14
        },
        {
          "time": 328.017834,
          "midi": 69,
          "name": "A4",
          "velocity": 0.8267716535433071,
          "duration": 0.04374999999998863,
          "ticks": 101520,
          "durationTicks": 14
        },
        {
          "time": 328.064709,
          "midi": 71,
          "name": "B4",
          "velocity": 0.6535433070866141,
          "duration": 0.04374999999998863,
          "ticks": 101535,
          "durationTicks": 14
        },
        {
          "time": 328.111584,
          "midi": 69,
          "name": "A4",
          "velocity": 0.8818897637795275,
          "duration": 0.04374999999998863,
          "ticks": 101550,
          "durationTicks": 14
        },
        {
          "time": 328.158459,
          "midi": 71,
          "name": "B4",
          "velocity": 0.7086614173228346,
          "duration": 0.04374999999998863,
          "ticks": 101565,
          "durationTicks": 14
        },
        {
          "time": 328.205334,
          "midi": 69,
          "name": "A4",
          "velocity": 0.937007874015748,
          "duration": 0.04374999999998863,
          "ticks": 101580,
          "durationTicks": 14
        },
        {
          "time": 328.252209,
          "midi": 71,
          "name": "B4",
          "velocity": 0.8031496062992126,
          "duration": 0.04374999999998863,
          "ticks": 101595,
          "durationTicks": 14
        },
        {
          "time": 328.299084,
          "midi": 68,
          "name": "G#4",
          "velocity": 0.937007874015748,
          "duration": 0.04374999999998863,
          "ticks": 101610,
          "durationTicks": 14
        },
        {
          "time": 328.345959,
          "midi": 69,
          "name": "A4",
          "velocity": 0.8503937007874016,
          "duration": 0.04374999999998863,
          "ticks": 101625,
          "durationTicks": 14
        },
        {
          "time": 328.767834,
          "midi": 71,
          "name": "B4",
          "velocity": 0.8267716535433071,
          "duration": 0.04374999999998863,
          "ticks": 101760,
          "durationTicks": 14
        },
        {
          "time": 328.814709,
          "midi": 73,
          "name": "C#5",
          "velocity": 0.6535433070866141,
          "duration": 0.04374999999998863,
          "ticks": 101775,
          "durationTicks": 14
        },
        {
          "time": 328.861584,
          "midi": 71,
          "name": "B4",
          "velocity": 0.8818897637795275,
          "duration": 0.04374999999998863,
          "ticks": 101790,
          "durationTicks": 14
        },
        {
          "time": 328.908459,
          "midi": 73,
          "name": "C#5",
          "velocity": 0.7086614173228346,
          "duration": 0.04374999999998863,
          "ticks": 101805,
          "durationTicks": 14
        },
        {
          "time": 328.955334,
          "midi": 71,
          "name": "B4",
          "velocity": 0.937007874015748,
          "duration": 0.04374999999998863,
          "ticks": 101820,
          "durationTicks": 14
        },
        {
          "time": 329.002209,
          "midi": 73,
          "name": "C#5",
          "velocity": 0.8031496062992126,
          "duration": 0.04374999999998863,
          "ticks": 101835,
          "durationTicks": 14
        },
        {
          "time": 329.049084,
          "midi": 69,
          "name": "A4",
          "velocity": 0.937007874015748,
          "duration": 0.04374999999998863,
          "ticks": 101850,
          "durationTicks": 14
        },
        {
          "time": 329.095959,
          "midi": 71,
          "name": "B4",
          "velocity": 0.8503937007874016,
          "duration": 0.04374999999998863,
          "ticks": 101865,
          "durationTicks": 14
        },
        {
          "time": 329.517834,
          "midi": 73,
          "name": "C#5",
          "velocity": 0.8267716535433071,
          "duration": 0.04374999999998863,
          "ticks": 102000,
          "durationTicks": 14
        },
        {
          "time": 329.564709,
          "midi": 74,
          "name": "D5",
          "velocity": 0.6535433070866141,
          "duration": 0.04374999999998863,
          "ticks": 102015,
          "durationTicks": 14
        },
        {
          "time": 329.611584,
          "midi": 73,
          "name": "C#5",
          "velocity": 0.8818897637795275,
          "duration": 0.04374999999998863,
          "ticks": 102030,
          "durationTicks": 14
        },
        {
          "time": 329.658459,
          "midi": 74,
          "name": "D5",
          "velocity": 0.7086614173228346,
          "duration": 0.04374999999998863,
          "ticks": 102045,
          "durationTicks": 14
        },
        {
          "time": 329.705334,
          "midi": 73,
          "name": "C#5",
          "velocity": 0.937007874015748,
          "duration": 0.04374999999998863,
          "ticks": 102060,
          "durationTicks": 14
        },
        {
          "time": 329.752209,
          "midi": 74,
          "name": "D5",
          "velocity": 0.8031496062992126,
          "duration": 0.04374999999998863,
          "ticks": 102075,
          "durationTicks": 14
        },
        {
          "time": 329.799084,
          "midi": 71,
          "name": "B4",
          "velocity": 0.937007874015748,
          "duration": 0.04374999999998863,
          "ticks": 102090,
          "durationTicks": 14
        },
        {
          "time": 329.845959,
          "midi": 73,
          "name": "C#5",
          "velocity": 0.8503937007874016,
          "duration": 0.04374999999998863,
          "ticks": 102105,
          "durationTicks": 14
        },
        {
          "time": 330.267834,
          "midi": 74,
          "name": "D5",
          "velocity": 0.8267716535433071,
          "duration": 0.04374999999998863,
          "ticks": 102240,
          "durationTicks": 14
        },
        {
          "time": 330.314709,
          "midi": 76,
          "name": "E5",
          "velocity": 0.6535433070866141,
          "duration": 0.04374999999998863,
          "ticks": 102255,
          "durationTicks": 14
        },
        {
          "time": 330.361584,
          "midi": 74,
          "name": "D5",
          "velocity": 0.8818897637795275,
          "duration": 0.04374999999998863,
          "ticks": 102270,
          "durationTicks": 14
        },
        {
          "time": 330.408459,
          "midi": 76,
          "name": "E5",
          "velocity": 0.7086614173228346,
          "duration": 0.04374999999998863,
          "ticks": 102285,
          "durationTicks": 14
        },
        {
          "time": 330.455334,
          "midi": 74,
          "name": "D5",
          "velocity": 0.937007874015748,
          "duration": 0.04374999999998863,
          "ticks": 102300,
          "durationTicks": 14
        },
        {
          "time": 330.502209,
          "midi": 76,
          "name": "E5",
          "velocity": 0.8031496062992126,
          "duration": 0.04374999999998863,
          "ticks": 102315,
          "durationTicks": 14
        },
        {
          "time": 330.549084,
          "midi": 73,
          "name": "C#5",
          "velocity": 0.937007874015748,
          "duration": 0.04374999999998863,
          "ticks": 102330,
          "durationTicks": 14
        },
        {
          "time": 330.595959,
          "midi": 74,
          "name": "D5",
          "velocity": 0.8503937007874016,
          "duration": 0.04374999999998863,
          "ticks": 102345,
          "durationTicks": 14
        },
        {
          "time": 330.642834,
          "midi": 69,
          "name": "A4",
          "velocity": 1,
          "duration": 0.37187499999998863,
          "ticks": 102360,
          "durationTicks": 119
        },
        {
          "time": 331.205334,
          "midi": 69,
          "name": "A4",
          "velocity": 1,
          "duration": 0.18437499999998863,
          "ticks": 102540,
          "durationTicks": 59
        },
        {
          "time": 331.392834,
          "midi": 67,
          "name": "G4",
          "velocity": 0.937007874015748,
          "duration": 0.37187499999998863,
          "ticks": 102600,
          "durationTicks": 119
        },
        {
          "time": 331.955334,
          "midi": 74,
          "name": "D5",
          "velocity": 0.8503937007874016,
          "duration": 0.18437499999998863,
          "ticks": 102780,
          "durationTicks": 59
        },
        {
          "time": 331.955334,
          "midi": 66,
          "name": "F#4",
          "velocity": 0.905511811023622,
          "duration": 0.18437499999998863,
          "ticks": 102780,
          "durationTicks": 59
        },
        {
          "time": 332.142834,
          "midi": 74,
          "name": "D5",
          "velocity": 0.9763779527559056,
          "duration": 0.37187499999998863,
          "ticks": 102840,
          "durationTicks": 119
        },
        {
          "time": 332.142834,
          "midi": 66,
          "name": "F#4",
          "velocity": 1,
          "duration": 0.37187499999998863,
          "ticks": 102840,
          "durationTicks": 119
        },
        {
          "time": 333.267834,
          "midi": 73,
          "name": "C#5",
          "velocity": 0.8267716535433071,
          "duration": 0.04374999999998863,
          "ticks": 103200,
          "durationTicks": 14
        },
        {
          "time": 333.314709,
          "midi": 74,
          "name": "D5",
          "velocity": 0.6535433070866141,
          "duration": 0.04374999999998863,
          "ticks": 103215,
          "durationTicks": 14
        },
        {
          "time": 333.361584,
          "midi": 73,
          "name": "C#5",
          "velocity": 0.8818897637795275,
          "duration": 0.04374999999998863,
          "ticks": 103230,
          "durationTicks": 14
        },
        {
          "time": 333.408459,
          "midi": 74,
          "name": "D5",
          "velocity": 0.7086614173228346,
          "duration": 0.04374999999998863,
          "ticks": 103245,
          "durationTicks": 14
        },
        {
          "time": 333.455334,
          "midi": 73,
          "name": "C#5",
          "velocity": 0.937007874015748,
          "duration": 0.04374999999998863,
          "ticks": 103260,
          "durationTicks": 14
        },
        {
          "time": 333.502209,
          "midi": 74,
          "name": "D5",
          "velocity": 0.8031496062992126,
          "duration": 0.04374999999998863,
          "ticks": 103275,
          "durationTicks": 14
        },
        {
          "time": 333.549084,
          "midi": 71,
          "name": "B4",
          "velocity": 0.937007874015748,
          "duration": 0.04374999999998863,
          "ticks": 103290,
          "durationTicks": 14
        },
        {
          "time": 333.595959,
          "midi": 73,
          "name": "C#5",
          "velocity": 0.8503937007874016,
          "duration": 0.04374999999998863,
          "ticks": 103305,
          "durationTicks": 14
        },
        {
          "time": 334.017834,
          "midi": 74,
          "name": "D5",
          "velocity": 0.8267716535433071,
          "duration": 0.04374999999998863,
          "ticks": 103440,
          "durationTicks": 14
        },
        {
          "time": 334.064709,
          "midi": 76,
          "name": "E5",
          "velocity": 0.6535433070866141,
          "duration": 0.04374999999998863,
          "ticks": 103455,
          "durationTicks": 14
        },
        {
          "time": 334.111584,
          "midi": 74,
          "name": "D5",
          "velocity": 0.8818897637795275,
          "duration": 0.04374999999998863,
          "ticks": 103470,
          "durationTicks": 14
        },
        {
          "time": 334.158459,
          "midi": 76,
          "name": "E5",
          "velocity": 0.7086614173228346,
          "duration": 0.04374999999998863,
          "ticks": 103485,
          "durationTicks": 14
        },
        {
          "time": 334.205334,
          "midi": 74,
          "name": "D5",
          "velocity": 0.937007874015748,
          "duration": 0.04374999999998863,
          "ticks": 103500,
          "durationTicks": 14
        },
        {
          "time": 334.252209,
          "midi": 76,
          "name": "E5",
          "velocity": 0.8031496062992126,
          "duration": 0.04374999999998863,
          "ticks": 103515,
          "durationTicks": 14
        },
        {
          "time": 334.299084,
          "midi": 73,
          "name": "C#5",
          "velocity": 0.937007874015748,
          "duration": 0.04374999999998863,
          "ticks": 103530,
          "durationTicks": 14
        },
        {
          "time": 334.345959,
          "midi": 74,
          "name": "D5",
          "velocity": 0.8503937007874016,
          "duration": 0.04374999999998863,
          "ticks": 103545,
          "durationTicks": 14
        },
        {
          "time": 334.767834,
          "midi": 73,
          "name": "C#5",
          "velocity": 0.8267716535433071,
          "duration": 0.04374999999998863,
          "ticks": 103680,
          "durationTicks": 14
        },
        {
          "time": 334.814709,
          "midi": 74,
          "name": "D5",
          "velocity": 0.6535433070866141,
          "duration": 0.04374999999998863,
          "ticks": 103695,
          "durationTicks": 14
        },
        {
          "time": 334.861584,
          "midi": 73,
          "name": "C#5",
          "velocity": 0.8818897637795275,
          "duration": 0.04374999999998863,
          "ticks": 103710,
          "durationTicks": 14
        },
        {
          "time": 334.908459,
          "midi": 74,
          "name": "D5",
          "velocity": 0.7086614173228346,
          "duration": 0.04374999999998863,
          "ticks": 103725,
          "durationTicks": 14
        },
        {
          "time": 334.955334,
          "midi": 73,
          "name": "C#5",
          "velocity": 0.937007874015748,
          "duration": 0.04374999999998863,
          "ticks": 103740,
          "durationTicks": 14
        },
        {
          "time": 335.002209,
          "midi": 74,
          "name": "D5",
          "velocity": 0.8031496062992126,
          "duration": 0.04374999999998863,
          "ticks": 103755,
          "durationTicks": 14
        },
        {
          "time": 335.049084,
          "midi": 71,
          "name": "B4",
          "velocity": 0.937007874015748,
          "duration": 0.04374999999998863,
          "ticks": 103770,
          "durationTicks": 14
        },
        {
          "time": 335.095959,
          "midi": 73,
          "name": "C#5",
          "velocity": 0.8503937007874016,
          "duration": 0.04374999999998863,
          "ticks": 103785,
          "durationTicks": 14
        },
        {
          "time": 335.517834,
          "midi": 74,
          "name": "D5",
          "velocity": 0.8267716535433071,
          "duration": 0.04374999999998863,
          "ticks": 103920,
          "durationTicks": 14
        },
        {
          "time": 335.564709,
          "midi": 76,
          "name": "E5",
          "velocity": 0.6535433070866141,
          "duration": 0.04374999999998863,
          "ticks": 103935,
          "durationTicks": 14
        },
        {
          "time": 335.611584,
          "midi": 74,
          "name": "D5",
          "velocity": 0.8818897637795275,
          "duration": 0.04374999999998863,
          "ticks": 103950,
          "durationTicks": 14
        },
        {
          "time": 335.658459,
          "midi": 76,
          "name": "E5",
          "velocity": 0.7086614173228346,
          "duration": 0.04374999999998863,
          "ticks": 103965,
          "durationTicks": 14
        },
        {
          "time": 335.705334,
          "midi": 74,
          "name": "D5",
          "velocity": 0.937007874015748,
          "duration": 0.04374999999998863,
          "ticks": 103980,
          "durationTicks": 14
        },
        {
          "time": 335.752209,
          "midi": 76,
          "name": "E5",
          "velocity": 0.8031496062992126,
          "duration": 0.04374999999998863,
          "ticks": 103995,
          "durationTicks": 14
        },
        {
          "time": 335.799084,
          "midi": 73,
          "name": "C#5",
          "velocity": 0.937007874015748,
          "duration": 0.04374999999998863,
          "ticks": 104010,
          "durationTicks": 14
        },
        {
          "time": 335.845959,
          "midi": 74,
          "name": "D5",
          "velocity": 0.8503937007874016,
          "duration": 0.04374999999998863,
          "ticks": 104025,
          "durationTicks": 14
        },
        {
          "time": 336.267834,
          "midi": 73,
          "name": "C#5",
          "velocity": 0.8267716535433071,
          "duration": 0.04374999999998863,
          "ticks": 104160,
          "durationTicks": 14
        },
        {
          "time": 336.314709,
          "midi": 74,
          "name": "D5",
          "velocity": 0.6535433070866141,
          "duration": 0.04374999999998863,
          "ticks": 104175,
          "durationTicks": 14
        },
        {
          "time": 336.361584,
          "midi": 73,
          "name": "C#5",
          "velocity": 0.8818897637795275,
          "duration": 0.04374999999998863,
          "ticks": 104190,
          "durationTicks": 14
        },
        {
          "time": 336.408459,
          "midi": 74,
          "name": "D5",
          "velocity": 0.7086614173228346,
          "duration": 0.04374999999998863,
          "ticks": 104205,
          "durationTicks": 14
        },
        {
          "time": 336.455334,
          "midi": 73,
          "name": "C#5",
          "velocity": 0.937007874015748,
          "duration": 0.04374999999998863,
          "ticks": 104220,
          "durationTicks": 14
        },
        {
          "time": 336.502209,
          "midi": 74,
          "name": "D5",
          "velocity": 0.8031496062992126,
          "duration": 0.04374999999998863,
          "ticks": 104235,
          "durationTicks": 14
        },
        {
          "time": 336.549084,
          "midi": 71,
          "name": "B4",
          "velocity": 0.937007874015748,
          "duration": 0.04374999999998863,
          "ticks": 104250,
          "durationTicks": 14
        },
        {
          "time": 336.595959,
          "midi": 73,
          "name": "C#5",
          "velocity": 0.8503937007874016,
          "duration": 0.04374999999998863,
          "ticks": 104265,
          "durationTicks": 14
        },
        {
          "time": 337.017834,
          "midi": 66,
          "name": "F#4",
          "velocity": 0.8267716535433071,
          "duration": 0.04374999999998863,
          "ticks": 104400,
          "durationTicks": 14
        },
        {
          "time": 337.064709,
          "midi": 67,
          "name": "G4",
          "velocity": 0.6535433070866141,
          "duration": 0.04374999999998863,
          "ticks": 104415,
          "durationTicks": 14
        },
        {
          "time": 337.111584,
          "midi": 66,
          "name": "F#4",
          "velocity": 0.8818897637795275,
          "duration": 0.04374999999998863,
          "ticks": 104430,
          "durationTicks": 14
        },
        {
          "time": 337.158459,
          "midi": 67,
          "name": "G4",
          "velocity": 0.7086614173228346,
          "duration": 0.04374999999998863,
          "ticks": 104445,
          "durationTicks": 14
        },
        {
          "time": 337.205334,
          "midi": 66,
          "name": "F#4",
          "velocity": 0.937007874015748,
          "duration": 0.04374999999998863,
          "ticks": 104460,
          "durationTicks": 14
        },
        {
          "time": 337.252209,
          "midi": 67,
          "name": "G4",
          "velocity": 0.8031496062992126,
          "duration": 0.04374999999998863,
          "ticks": 104475,
          "durationTicks": 14
        },
        {
          "time": 337.299084,
          "midi": 64,
          "name": "E4",
          "velocity": 0.937007874015748,
          "duration": 0.04374999999998863,
          "ticks": 104490,
          "durationTicks": 14
        },
        {
          "time": 337.345959,
          "midi": 66,
          "name": "F#4",
          "velocity": 0.8503937007874016,
          "duration": 0.04374999999998863,
          "ticks": 104505,
          "durationTicks": 14
        },
        {
          "time": 337.767834,
          "midi": 74,
          "name": "D5",
          "velocity": 0.8267716535433071,
          "duration": 0.04374999999998863,
          "ticks": 104640,
          "durationTicks": 14
        },
        {
          "time": 337.814709,
          "midi": 76,
          "name": "E5",
          "velocity": 0.6535433070866141,
          "duration": 0.04374999999998863,
          "ticks": 104655,
          "durationTicks": 14
        },
        {
          "time": 337.861584,
          "midi": 74,
          "name": "D5",
          "velocity": 0.8818897637795275,
          "duration": 0.04374999999998863,
          "ticks": 104670,
          "durationTicks": 14
        },
        {
          "time": 337.908459,
          "midi": 76,
          "name": "E5",
          "velocity": 0.7086614173228346,
          "duration": 0.04374999999998863,
          "ticks": 104685,
          "durationTicks": 14
        },
        {
          "time": 337.955334,
          "midi": 74,
          "name": "D5",
          "velocity": 0.937007874015748,
          "duration": 0.04374999999998863,
          "ticks": 104700,
          "durationTicks": 14
        },
        {
          "time": 338.002209,
          "midi": 76,
          "name": "E5",
          "velocity": 0.8031496062992126,
          "duration": 0.04374999999998863,
          "ticks": 104715,
          "durationTicks": 14
        },
        {
          "time": 338.049084,
          "midi": 73,
          "name": "C#5",
          "velocity": 0.937007874015748,
          "duration": 0.04374999999998863,
          "ticks": 104730,
          "durationTicks": 14
        },
        {
          "time": 338.095959,
          "midi": 74,
          "name": "D5",
          "velocity": 0.8503937007874016,
          "duration": 0.04374999999998863,
          "ticks": 104745,
          "durationTicks": 14
        },
        {
          "time": 338.517834,
          "midi": 69,
          "name": "A4",
          "velocity": 0.8267716535433071,
          "duration": 0.04374999999998863,
          "ticks": 104880,
          "durationTicks": 14
        },
        {
          "time": 338.564709,
          "midi": 71,
          "name": "B4",
          "velocity": 0.6535433070866141,
          "duration": 0.04374999999998863,
          "ticks": 104895,
          "durationTicks": 14
        },
        {
          "time": 338.611584,
          "midi": 69,
          "name": "A4",
          "velocity": 0.8818897637795275,
          "duration": 0.04374999999998863,
          "ticks": 104910,
          "durationTicks": 14
        },
        {
          "time": 338.658459,
          "midi": 71,
          "name": "B4",
          "velocity": 0.7086614173228346,
          "duration": 0.04374999999998863,
          "ticks": 104925,
          "durationTicks": 14
        },
        {
          "time": 338.705334,
          "midi": 69,
          "name": "A4",
          "velocity": 0.937007874015748,
          "duration": 0.04374999999998863,
          "ticks": 104940,
          "durationTicks": 14
        },
        {
          "time": 338.752209,
          "midi": 71,
          "name": "B4",
          "velocity": 0.8031496062992126,
          "duration": 0.04374999999998863,
          "ticks": 104955,
          "durationTicks": 14
        },
        {
          "time": 338.799084,
          "midi": 68,
          "name": "G#4",
          "velocity": 0.937007874015748,
          "duration": 0.04374999999998863,
          "ticks": 104970,
          "durationTicks": 14
        },
        {
          "time": 338.845959,
          "midi": 69,
          "name": "A4",
          "velocity": 0.8503937007874016,
          "duration": 0.04374999999998863,
          "ticks": 104985,
          "durationTicks": 14
        },
        {
          "time": 339.267834,
          "midi": 66,
          "name": "F#4",
          "velocity": 0.8267716535433071,
          "duration": 0.04374999999998863,
          "ticks": 105120,
          "durationTicks": 14
        },
        {
          "time": 339.314709,
          "midi": 67,
          "name": "G4",
          "velocity": 0.6535433070866141,
          "duration": 0.04374999999998863,
          "ticks": 105135,
          "durationTicks": 14
        },
        {
          "time": 339.361584,
          "midi": 66,
          "name": "F#4",
          "velocity": 0.8818897637795275,
          "duration": 0.04374999999998863,
          "ticks": 105150,
          "durationTicks": 14
        },
        {
          "time": 339.408459,
          "midi": 67,
          "name": "G4",
          "velocity": 0.7086614173228346,
          "duration": 0.04374999999998863,
          "ticks": 105165,
          "durationTicks": 14
        },
        {
          "time": 339.455334,
          "midi": 66,
          "name": "F#4",
          "velocity": 0.937007874015748,
          "duration": 0.04374999999998863,
          "ticks": 105180,
          "durationTicks": 14
        },
        {
          "time": 339.502209,
          "midi": 67,
          "name": "G4",
          "velocity": 0.8031496062992126,
          "duration": 0.04374999999998863,
          "ticks": 105195,
          "durationTicks": 14
        },
        {
          "time": 339.549084,
          "midi": 64,
          "name": "E4",
          "velocity": 0.937007874015748,
          "duration": 0.04374999999998863,
          "ticks": 105210,
          "durationTicks": 14
        },
        {
          "time": 339.595959,
          "midi": 66,
          "name": "F#4",
          "velocity": 0.8503937007874016,
          "duration": 0.04374999999998863,
          "ticks": 105225,
          "durationTicks": 14
        },
        {
          "time": 340.017834,
          "midi": 74,
          "name": "D5",
          "velocity": 0.8267716535433071,
          "duration": 0.04374999999998863,
          "ticks": 105360,
          "durationTicks": 14
        },
        {
          "time": 340.064709,
          "midi": 76,
          "name": "E5",
          "velocity": 0.6535433070866141,
          "duration": 0.04374999999998863,
          "ticks": 105375,
          "durationTicks": 14
        },
        {
          "time": 340.111584,
          "midi": 74,
          "name": "D5",
          "velocity": 0.8818897637795275,
          "duration": 0.04374999999998863,
          "ticks": 105390,
          "durationTicks": 14
        },
        {
          "time": 340.158459,
          "midi": 76,
          "name": "E5",
          "velocity": 0.7086614173228346,
          "duration": 0.04374999999998863,
          "ticks": 105405,
          "durationTicks": 14
        },
        {
          "time": 340.205334,
          "midi": 74,
          "name": "D5",
          "velocity": 0.937007874015748,
          "duration": 0.04374999999998863,
          "ticks": 105420,
          "durationTicks": 14
        },
        {
          "time": 340.252209,
          "midi": 76,
          "name": "E5",
          "velocity": 0.8031496062992126,
          "duration": 0.04374999999998863,
          "ticks": 105435,
          "durationTicks": 14
        },
        {
          "time": 340.299084,
          "midi": 73,
          "name": "C#5",
          "velocity": 0.937007874015748,
          "duration": 0.04374999999998863,
          "ticks": 105450,
          "durationTicks": 14
        },
        {
          "time": 340.345959,
          "midi": 74,
          "name": "D5",
          "velocity": 0.8503937007874016,
          "duration": 0.04374999999998863,
          "ticks": 105465,
          "durationTicks": 14
        },
        {
          "time": 340.767834,
          "midi": 71,
          "name": "B4",
          "velocity": 0.8267716535433071,
          "duration": 0.04374999999998863,
          "ticks": 105600,
          "durationTicks": 14
        },
        {
          "time": 340.814709,
          "midi": 73,
          "name": "C#5",
          "velocity": 0.6535433070866141,
          "duration": 0.04374999999998863,
          "ticks": 105615,
          "durationTicks": 14
        },
        {
          "time": 340.861584,
          "midi": 71,
          "name": "B4",
          "velocity": 0.8818897637795275,
          "duration": 0.04374999999998863,
          "ticks": 105630,
          "durationTicks": 14
        },
        {
          "time": 340.908459,
          "midi": 73,
          "name": "C#5",
          "velocity": 0.7086614173228346,
          "duration": 0.04374999999998863,
          "ticks": 105645,
          "durationTicks": 14
        },
        {
          "time": 340.955334,
          "midi": 71,
          "name": "B4",
          "velocity": 0.937007874015748,
          "duration": 0.04374999999998863,
          "ticks": 105660,
          "durationTicks": 14
        },
        {
          "time": 341.002209,
          "midi": 73,
          "name": "C#5",
          "velocity": 0.8031496062992126,
          "duration": 0.04374999999998863,
          "ticks": 105675,
          "durationTicks": 14
        },
        {
          "time": 341.049084,
          "midi": 69,
          "name": "A4",
          "velocity": 0.937007874015748,
          "duration": 0.04374999999998863,
          "ticks": 105690,
          "durationTicks": 14
        },
        {
          "time": 341.095959,
          "midi": 71,
          "name": "B4",
          "velocity": 0.8503937007874016,
          "duration": 0.04374999999998863,
          "ticks": 105705,
          "durationTicks": 14
        },
        {
          "time": 341.517834,
          "midi": 67,
          "name": "G4",
          "velocity": 0.8267716535433071,
          "duration": 0.04374999999998863,
          "ticks": 105840,
          "durationTicks": 14
        },
        {
          "time": 341.564709,
          "midi": 69,
          "name": "A4",
          "velocity": 0.6535433070866141,
          "duration": 0.04374999999998863,
          "ticks": 105855,
          "durationTicks": 14
        },
        {
          "time": 341.611584,
          "midi": 67,
          "name": "G4",
          "velocity": 0.8818897637795275,
          "duration": 0.04374999999998863,
          "ticks": 105870,
          "durationTicks": 14
        },
        {
          "time": 341.658459,
          "midi": 69,
          "name": "A4",
          "velocity": 0.7086614173228346,
          "duration": 0.04374999999998863,
          "ticks": 105885,
          "durationTicks": 14
        },
        {
          "time": 341.705334,
          "midi": 67,
          "name": "G4",
          "velocity": 0.937007874015748,
          "duration": 0.04374999999998863,
          "ticks": 105900,
          "durationTicks": 14
        },
        {
          "time": 341.752209,
          "midi": 69,
          "name": "A4",
          "velocity": 0.8031496062992126,
          "duration": 0.04374999999998863,
          "ticks": 105915,
          "durationTicks": 14
        },
        {
          "time": 341.799084,
          "midi": 66,
          "name": "F#4",
          "velocity": 0.937007874015748,
          "duration": 0.04374999999998863,
          "ticks": 105930,
          "durationTicks": 14
        },
        {
          "time": 341.845959,
          "midi": 67,
          "name": "G4",
          "velocity": 0.8503937007874016,
          "duration": 0.04374999999998863,
          "ticks": 105945,
          "durationTicks": 14
        },
        {
          "time": 342.267834,
          "midi": 66,
          "name": "F#4",
          "velocity": 0.8267716535433071,
          "duration": 0.04374999999998863,
          "ticks": 106080,
          "durationTicks": 14
        },
        {
          "time": 342.314709,
          "midi": 67,
          "name": "G4",
          "velocity": 0.6535433070866141,
          "duration": 0.04374999999998863,
          "ticks": 106095,
          "durationTicks": 14
        },
        {
          "time": 342.361584,
          "midi": 66,
          "name": "F#4",
          "velocity": 0.8818897637795275,
          "duration": 0.04374999999998863,
          "ticks": 106110,
          "durationTicks": 14
        },
        {
          "time": 342.408459,
          "midi": 67,
          "name": "G4",
          "velocity": 0.7086614173228346,
          "duration": 0.04374999999998863,
          "ticks": 106125,
          "durationTicks": 14
        },
        {
          "time": 342.455334,
          "midi": 66,
          "name": "F#4",
          "velocity": 0.937007874015748,
          "duration": 0.04374999999998863,
          "ticks": 106140,
          "durationTicks": 14
        },
        {
          "time": 342.502209,
          "midi": 67,
          "name": "G4",
          "velocity": 0.8031496062992126,
          "duration": 0.04374999999998863,
          "ticks": 106155,
          "durationTicks": 14
        },
        {
          "time": 342.549084,
          "midi": 64,
          "name": "E4",
          "velocity": 0.937007874015748,
          "duration": 0.04374999999998863,
          "ticks": 106170,
          "durationTicks": 14
        },
        {
          "time": 342.595959,
          "midi": 66,
          "name": "F#4",
          "velocity": 0.8503937007874016,
          "duration": 0.04374999999998863,
          "ticks": 106185,
          "durationTicks": 14
        },
        {
          "time": 342.642834,
          "midi": 74,
          "name": "D5",
          "velocity": 0.9763779527559056,
          "duration": 0.37187499999998863,
          "ticks": 106200,
          "durationTicks": 119
        },
        {
          "time": 342.642834,
          "midi": 78,
          "name": "F#5",
          "velocity": 1,
          "duration": 0.37187499999998863,
          "ticks": 106200,
          "durationTicks": 119
        },
        {
          "time": 343.392834,
          "midi": 76,
          "name": "E5",
          "velocity": 0.8818897637795275,
          "duration": 0.37187499999998863,
          "ticks": 106440,
          "durationTicks": 119
        },
        {
          "time": 343.392834,
          "midi": 85,
          "name": "C#6",
          "velocity": 1,
          "duration": 0.37187499999998863,
          "ticks": 106440,
          "durationTicks": 119
        },
        {
          "time": 343.955334,
          "midi": 78,
          "name": "F#5",
          "velocity": 0.6220472440944882,
          "duration": 0.18437499999998863,
          "ticks": 106620,
          "durationTicks": 59
        },
        {
          "time": 343.955334,
          "midi": 86,
          "name": "D6",
          "velocity": 0.7086614173228346,
          "duration": 0.18437499999998863,
          "ticks": 106620,
          "durationTicks": 59
        },
        {
          "time": 344.142834,
          "midi": 69,
          "name": "A4",
          "velocity": 0.6377952755905512,
          "duration": 0.18437499999998863,
          "ticks": 106680,
          "durationTicks": 59
        },
        {
          "time": 344.142834,
          "midi": 78,
          "name": "F#5",
          "velocity": 1,
          "duration": 0.18437499999998863,
          "ticks": 106680,
          "durationTicks": 59
        },
        {
          "time": 344.330334,
          "midi": 62,
          "name": "D4",
          "velocity": 1,
          "duration": 0.09062499999998863,
          "ticks": 106740,
          "durationTicks": 29
        },
        {
          "time": 344.424084,
          "midi": 61,
          "name": "C#4",
          "velocity": 1,
          "duration": 0.09062499999998863,
          "ticks": 106770,
          "durationTicks": 29
        },
        {
          "time": 344.517834,
          "midi": 62,
          "name": "D4",
          "velocity": 0.937007874015748,
          "duration": 0.09062499999998863,
          "ticks": 106800,
          "durationTicks": 29
        },
        {
          "time": 344.611584,
          "midi": 64,
          "name": "E4",
          "velocity": 1,
          "duration": 0.09062499999998863,
          "ticks": 106830,
          "durationTicks": 29
        },
        {
          "time": 344.705334,
          "midi": 66,
          "name": "F#4",
          "velocity": 1,
          "duration": 0.09062499999998863,
          "ticks": 106860,
          "durationTicks": 29
        },
        {
          "time": 344.799084,
          "midi": 67,
          "name": "G4",
          "velocity": 1,
          "duration": 0.09062499999998863,
          "ticks": 106890,
          "durationTicks": 29
        },
        {
          "time": 344.892834,
          "midi": 69,
          "name": "A4",
          "velocity": 1,
          "duration": 0.37187499999998863,
          "ticks": 106920,
          "durationTicks": 119
        },
        {
          "time": 344.892834,
          "midi": 66,
          "name": "F#4",
          "velocity": 1,
          "duration": 0.37187499999998863,
          "ticks": 106920,
          "durationTicks": 119
        },
        {
          "time": 345.642834,
          "midi": 69,
          "name": "A4",
          "velocity": 1,
          "duration": 0.37187499999998863,
          "ticks": 107160,
          "durationTicks": 119
        },
        {
          "time": 345.642834,
          "midi": 66,
          "name": "F#4",
          "velocity": 1,
          "duration": 0.37187499999998863,
          "ticks": 107160,
          "durationTicks": 119
        },
        {
          "time": 346.392834,
          "midi": 55,
          "name": "G3",
          "velocity": 1,
          "duration": 0.37187499999998863,
          "ticks": 107400,
          "durationTicks": 119
        },
        {
          "time": 347.142834,
          "midi": 71,
          "name": "B4",
          "velocity": 0.937007874015748,
          "duration": 0.37187499999998863,
          "ticks": 107640,
          "durationTicks": 119
        },
        {
          "time": 347.142834,
          "midi": 79,
          "name": "G5",
          "velocity": 1,
          "duration": 0.37187499999998863,
          "ticks": 107640,
          "durationTicks": 119
        },
        {
          "time": 347.892834,
          "midi": 76,
          "name": "E5",
          "velocity": 1,
          "duration": 0.37187499999998863,
          "ticks": 107880,
          "durationTicks": 119
        },
        {
          "time": 347.892834,
          "midi": 73,
          "name": "C#5",
          "velocity": 1,
          "duration": 0.37187499999998863,
          "ticks": 107880,
          "durationTicks": 119
        },
        {
          "time": 348.642834,
          "midi": 76,
          "name": "E5",
          "velocity": 1,
          "duration": 0.37187499999998863,
          "ticks": 108120,
          "durationTicks": 119
        },
        {
          "time": 348.642834,
          "midi": 73,
          "name": "C#5",
          "velocity": 1,
          "duration": 0.37187499999998863,
          "ticks": 108120,
          "durationTicks": 119
        },
        {
          "time": 349.392834,
          "midi": 74,
          "name": "D5",
          "velocity": 1,
          "duration": 0.37187499999998863,
          "ticks": 108360,
          "durationTicks": 119
        },
        {
          "time": 349.392834,
          "midi": 78,
          "name": "F#5",
          "velocity": 1,
          "duration": 0.37187499999998863,
          "ticks": 108360,
          "durationTicks": 119
        },
        {
          "time": 350.142834,
          "midi": 62,
          "name": "D4",
          "velocity": 0.9763779527559056,
          "duration": 0.37187499999998863,
          "ticks": 108600,
          "durationTicks": 119
        },
        {
          "time": 350.142834,
          "midi": 74,
          "name": "D5",
          "velocity": 1,
          "duration": 0.37187499999998863,
          "ticks": 108600,
          "durationTicks": 119
        },
        {
          "time": 350.892834,
          "midi": 80,
          "name": "G#5",
          "velocity": 1,
          "duration": 0.37187499999998863,
          "ticks": 108840,
          "durationTicks": 119
        },
        {
          "time": 350.892834,
          "midi": 71,
          "name": "B4",
          "velocity": 1,
          "duration": 0.37187499999998863,
          "ticks": 108840,
          "durationTicks": 119
        },
        {
          "time": 351.642834,
          "midi": 80,
          "name": "G#5",
          "velocity": 1,
          "duration": 0.37187499999998863,
          "ticks": 109080,
          "durationTicks": 119
        },
        {
          "time": 351.642834,
          "midi": 71,
          "name": "B4",
          "velocity": 0.937007874015748,
          "duration": 0.37187499999998863,
          "ticks": 109080,
          "durationTicks": 119
        },
        {
          "time": 352.392834,
          "midi": 69,
          "name": "A4",
          "velocity": 0.8818897637795275,
          "duration": 0.09062499999998863,
          "ticks": 109320,
          "durationTicks": 29
        },
        {
          "time": 352.392834,
          "midi": 81,
          "name": "A5",
          "velocity": 1,
          "duration": 0.09062499999998863,
          "ticks": 109320,
          "durationTicks": 29
        },
        {
          "time": 352.486584,
          "midi": 83,
          "name": "B5",
          "velocity": 1,
          "duration": 0.09062499999998863,
          "ticks": 109350,
          "durationTicks": 29
        },
        {
          "time": 352.580334,
          "midi": 81,
          "name": "A5",
          "velocity": 1,
          "duration": 0.09062499999998863,
          "ticks": 109380,
          "durationTicks": 29
        },
        {
          "time": 352.674084,
          "midi": 80,
          "name": "G#5",
          "velocity": 1,
          "duration": 0.09062499999998863,
          "ticks": 109410,
          "durationTicks": 29
        },
        {
          "time": 352.767834,
          "midi": 78,
          "name": "F#5",
          "velocity": 1,
          "duration": 0.09062499999998863,
          "ticks": 109440,
          "durationTicks": 29
        },
        {
          "time": 352.861584,
          "midi": 80,
          "name": "G#5",
          "velocity": 1,
          "duration": 0.09062499999998863,
          "ticks": 109470,
          "durationTicks": 29
        },
        {
          "time": 352.955334,
          "midi": 78,
          "name": "F#5",
          "velocity": 1,
          "duration": 0.09062499999998863,
          "ticks": 109500,
          "durationTicks": 29
        },
        {
          "time": 353.049084,
          "midi": 76,
          "name": "E5",
          "velocity": 1,
          "duration": 0.09062499999998863,
          "ticks": 109530,
          "durationTicks": 29
        },
        {
          "time": 353.142834,
          "midi": 74,
          "name": "D5",
          "velocity": 1,
          "duration": 0.09062499999998863,
          "ticks": 109560,
          "durationTicks": 29
        },
        {
          "time": 353.236584,
          "midi": 76,
          "name": "E5",
          "velocity": 1,
          "duration": 0.09062499999998863,
          "ticks": 109590,
          "durationTicks": 29
        },
        {
          "time": 353.330334,
          "midi": 74,
          "name": "D5",
          "velocity": 1,
          "duration": 0.09062499999998863,
          "ticks": 109620,
          "durationTicks": 29
        },
        {
          "time": 353.424084,
          "midi": 73,
          "name": "C#5",
          "velocity": 1,
          "duration": 0.09062499999998863,
          "ticks": 109650,
          "durationTicks": 29
        },
        {
          "time": 353.517834,
          "midi": 71,
          "name": "B4",
          "velocity": 1,
          "duration": 0.09062499999998863,
          "ticks": 109680,
          "durationTicks": 29
        },
        {
          "time": 353.611584,
          "midi": 73,
          "name": "C#5",
          "velocity": 1,
          "duration": 0.09062499999998863,
          "ticks": 109710,
          "durationTicks": 29
        },
        {
          "time": 353.705334,
          "midi": 71,
          "name": "B4",
          "velocity": 1,
          "duration": 0.09062499999998863,
          "ticks": 109740,
          "durationTicks": 29
        },
        {
          "time": 353.799084,
          "midi": 69,
          "name": "A4",
          "velocity": 1,
          "duration": 0.09062499999998863,
          "ticks": 109770,
          "durationTicks": 29
        },
        {
          "time": 353.892834,
          "midi": 64,
          "name": "E4",
          "velocity": 1,
          "duration": 0.37187499999998863,
          "ticks": 109800,
          "durationTicks": 119
        },
        {
          "time": 354.642834,
          "midi": 71,
          "name": "B4",
          "velocity": 1,
          "duration": 0.37187499999998863,
          "ticks": 110040,
          "durationTicks": 119
        },
        {
          "time": 354.642834,
          "midi": 80,
          "name": "G#5",
          "velocity": 1,
          "duration": 0.37187499999998863,
          "ticks": 110040,
          "durationTicks": 119
        },
        {
          "time": 355.392834,
          "midi": 69,
          "name": "A4",
          "velocity": 0.8818897637795275,
          "duration": 0.09062499999998863,
          "ticks": 110280,
          "durationTicks": 29
        },
        {
          "time": 355.392834,
          "midi": 81,
          "name": "A5",
          "velocity": 1,
          "duration": 0.09062499999998863,
          "ticks": 110280,
          "durationTicks": 29
        },
        {
          "time": 355.486584,
          "midi": 83,
          "name": "B5",
          "velocity": 1,
          "duration": 0.09062499999998863,
          "ticks": 110310,
          "durationTicks": 29
        },
        {
          "time": 355.580334,
          "midi": 81,
          "name": "A5",
          "velocity": 1,
          "duration": 0.09062499999998863,
          "ticks": 110340,
          "durationTicks": 29
        },
        {
          "time": 355.674084,
          "midi": 80,
          "name": "G#5",
          "velocity": 1,
          "duration": 0.09062499999998863,
          "ticks": 110370,
          "durationTicks": 29
        },
        {
          "time": 355.767834,
          "midi": 78,
          "name": "F#5",
          "velocity": 1,
          "duration": 0.09062499999998863,
          "ticks": 110400,
          "durationTicks": 29
        },
        {
          "time": 355.861584,
          "midi": 80,
          "name": "G#5",
          "velocity": 1,
          "duration": 0.09062499999998863,
          "ticks": 110430,
          "durationTicks": 29
        },
        {
          "time": 355.955334,
          "midi": 78,
          "name": "F#5",
          "velocity": 1,
          "duration": 0.09062499999998863,
          "ticks": 110460,
          "durationTicks": 29
        },
        {
          "time": 356.049084,
          "midi": 76,
          "name": "E5",
          "velocity": 1,
          "duration": 0.09062499999998863,
          "ticks": 110490,
          "durationTicks": 29
        },
        {
          "time": 356.142834,
          "midi": 74,
          "name": "D5",
          "velocity": 1,
          "duration": 0.09062499999998863,
          "ticks": 110520,
          "durationTicks": 29
        },
        {
          "time": 356.236584,
          "midi": 76,
          "name": "E5",
          "velocity": 1,
          "duration": 0.09062499999998863,
          "ticks": 110550,
          "durationTicks": 29
        },
        {
          "time": 356.330334,
          "midi": 74,
          "name": "D5",
          "velocity": 1,
          "duration": 0.09062499999998863,
          "ticks": 110580,
          "durationTicks": 29
        },
        {
          "time": 356.424084,
          "midi": 73,
          "name": "C#5",
          "velocity": 1,
          "duration": 0.09062499999998863,
          "ticks": 110610,
          "durationTicks": 29
        },
        {
          "time": 356.517834,
          "midi": 71,
          "name": "B4",
          "velocity": 1,
          "duration": 0.09062499999998863,
          "ticks": 110640,
          "durationTicks": 29
        },
        {
          "time": 356.611584,
          "midi": 73,
          "name": "C#5",
          "velocity": 1,
          "duration": 0.09062499999998863,
          "ticks": 110670,
          "durationTicks": 29
        },
        {
          "time": 356.705334,
          "midi": 71,
          "name": "B4",
          "velocity": 1,
          "duration": 0.09062499999998863,
          "ticks": 110700,
          "durationTicks": 29
        },
        {
          "time": 356.799084,
          "midi": 69,
          "name": "A4",
          "velocity": 1,
          "duration": 0.09062499999998863,
          "ticks": 110730,
          "durationTicks": 29
        },
        {
          "time": 356.892834,
          "midi": 69,
          "name": "A4",
          "velocity": 1,
          "duration": 0.37187499999998863,
          "ticks": 110760,
          "durationTicks": 119
        },
        {
          "time": 356.892834,
          "midi": 69,
          "name": "A4",
          "velocity": 1,
          "duration": 0.37187499999998863,
          "ticks": 110760,
          "durationTicks": 119
        },
        {
          "time": 357.642834,
          "midi": 69,
          "name": "A4",
          "velocity": 0.9763779527559056,
          "duration": 0.37187499999998863,
          "ticks": 111000,
          "durationTicks": 119
        },
        {
          "time": 357.642834,
          "midi": 81,
          "name": "A5",
          "velocity": 1,
          "duration": 0.37187499999998863,
          "ticks": 111000,
          "durationTicks": 119
        },
        {
          "time": 358.392834,
          "midi": 81,
          "name": "A5",
          "velocity": 1,
          "duration": 1.5386393583333415,
          "ticks": 111240,
          "durationTicks": 479
        },
        {
          "time": 358.392834,
          "midi": 69,
          "name": "A4",
          "velocity": 1,
          "duration": 1.5386393583333415,
          "ticks": 111240,
          "durationTicks": 479
        }
      ],
      "controlChanges": {
        "7": [
          {
            "number": 7,
            "value": 0.7874015748031497,
            "time": 0,
            "ticks": 0
          }
        ],
        "10": [
          {
            "number": 10,
            "value": 0.11811023622047244,
            "time": 0,
            "ticks": 0
          }
        ],
        "91": [
          {
            "number": 91,
            "value": 0.4251968503937008,
            "time": 0.15625,
            "ticks": 50
          }
        ],
        "93": [
          {
            "number": 93,
            "value": 0.6850393700787402,
            "time": 0.0625,
            "ticks": 20
          },
          {
            "number": 93,
            "value": 0.6771653543307087,
            "time": 1,
            "ticks": 320
          }
        ]
      }
    },
    {
      "name": "Violas",
      "channel": 0,
      "instrument": {
        "number": 48,
        "name": "string ensemble 1",
        "family": "ensemble"
      },
      "notes": [
        {
          "time": 37.5,
          "midi": 66,
          "name": "F#4",
          "velocity": 0.3700787401574803,
          "duration": 0.7468749999999957,
          "ticks": 12000,
          "durationTicks": 239
        },
        {
          "time": 38.25,
          "midi": 67,
          "name": "G4",
          "velocity": 0.3543307086614173,
          "duration": 0.37187499999999574,
          "ticks": 12240,
          "durationTicks": 119
        },
        {
          "time": 38.625,
          "midi": 69,
          "name": "A4",
          "velocity": 0.3543307086614173,
          "duration": 0.37187499999999574,
          "ticks": 12360,
          "durationTicks": 119
        },
        {
          "time": 39,
          "midi": 69,
          "name": "A4",
          "velocity": 0.3543307086614173,
          "duration": 0.37187499999999574,
          "ticks": 12480,
          "durationTicks": 119
        },
        {
          "time": 39.375,
          "midi": 67,
          "name": "G4",
          "velocity": 0.3543307086614173,
          "duration": 0.37187499999999574,
          "ticks": 12600,
          "durationTicks": 119
        },
        {
          "time": 39.75,
          "midi": 66,
          "name": "F#4",
          "velocity": 0.3700787401574803,
          "duration": 0.37187499999999574,
          "ticks": 12720,
          "durationTicks": 119
        },
        {
          "time": 40.125,
          "midi": 64,
          "name": "E4",
          "velocity": 0.3779527559055118,
          "duration": 0.37187499999999574,
          "ticks": 12840,
          "durationTicks": 119
        },
        {
          "time": 40.5,
          "midi": 62,
          "name": "D4",
          "velocity": 0.3779527559055118,
          "duration": 0.7468749999999957,
          "ticks": 12960,
          "durationTicks": 239
        },
        {
          "time": 41.25,
          "midi": 64,
          "name": "E4",
          "velocity": 0.3858267716535433,
          "duration": 0.37187499999999574,
          "ticks": 13200,
          "durationTicks": 119
        },
        {
          "time": 41.625,
          "midi": 66,
          "name": "F#4",
          "velocity": 0.3937007874015748,
          "duration": 0.37187499999999574,
          "ticks": 13320,
          "durationTicks": 119
        },
        {
          "time": 42,
          "midi": 66,
          "name": "F#4",
          "velocity": 0.4015748031496063,
          "duration": 0.5593749999999957,
          "ticks": 13440,
          "durationTicks": 179
        },
        {
          "time": 42.5625,
          "midi": 64,
          "name": "E4",
          "velocity": 0.4015748031496063,
          "duration": 0.18437499999999574,
          "ticks": 13620,
          "durationTicks": 59
        },
        {
          "time": 42.75,
          "midi": 64,
          "name": "E4",
          "velocity": 0.4015748031496063,
          "duration": 0.7468749999999957,
          "ticks": 13680,
          "durationTicks": 239
        },
        {
          "time": 43.5,
          "midi": 66,
          "name": "F#4",
          "velocity": 0.4015748031496063,
          "duration": 0.7468749999999957,
          "ticks": 13920,
          "durationTicks": 239
        },
        {
          "time": 44.25,
          "midi": 67,
          "name": "G4",
          "velocity": 0.4094488188976378,
          "duration": 0.37187499999999574,
          "ticks": 14160,
          "durationTicks": 119
        },
        {
          "time": 44.625,
          "midi": 69,
          "name": "A4",
          "velocity": 0.4094488188976378,
          "duration": 0.37187499999999574,
          "ticks": 14280,
          "durationTicks": 119
        },
        {
          "time": 45,
          "midi": 69,
          "name": "A4",
          "velocity": 0.4094488188976378,
          "duration": 0.37187499999999574,
          "ticks": 14400,
          "durationTicks": 119
        },
        {
          "time": 45.375,
          "midi": 67,
          "name": "G4",
          "velocity": 0.4094488188976378,
          "duration": 0.37187499999999574,
          "ticks": 14520,
          "durationTicks": 119
        },
        {
          "time": 45.75,
          "midi": 66,
          "name": "F#4",
          "velocity": 0.4094488188976378,
          "duration": 0.37187499999999574,
          "ticks": 14640,
          "durationTicks": 119
        },
        {
          "time": 46.125,
          "midi": 64,
          "name": "E4",
          "velocity": 0.4094488188976378,
          "duration": 0.37187499999999574,
          "ticks": 14760,
          "durationTicks": 119
        },
        {
          "time": 46.5,
          "midi": 62,
          "name": "D4",
          "velocity": 0.41732283464566927,
          "duration": 0.7468749999999957,
          "ticks": 14880,
          "durationTicks": 239
        },
        {
          "time": 47.25,
          "midi": 64,
          "name": "E4",
          "velocity": 0.4251968503937008,
          "duration": 0.37187499999999574,
          "ticks": 15120,
          "durationTicks": 119
        },
        {
          "time": 47.625,
          "midi": 66,
          "name": "F#4",
          "velocity": 0.4251968503937008,
          "duration": 0.37187499999999574,
          "ticks": 15240,
          "durationTicks": 119
        },
        {
          "time": 48,
          "midi": 64,
          "name": "E4",
          "velocity": 0.4251968503937008,
          "duration": 0.5593750000000028,
          "ticks": 15360,
          "durationTicks": 179
        },
        {
          "time": 48.5625,
          "midi": 62,
          "name": "D4",
          "velocity": 0.4251968503937008,
          "duration": 0.18437500000000284,
          "ticks": 15540,
          "durationTicks": 59
        },
        {
          "time": 48.75,
          "midi": 62,
          "name": "D4",
          "velocity": 0.4251968503937008,
          "duration": 0.7468750000000028,
          "ticks": 15600,
          "durationTicks": 239
        },
        {
          "time": 49.496875,
          "midi": 64,
          "name": "E4",
          "velocity": 0.4251968503937008,
          "duration": 0.7468749999999886,
          "ticks": 15839,
          "durationTicks": 239
        },
        {
          "time": 50.246875,
          "midi": 66,
          "name": "F#4",
          "velocity": 0.4251968503937008,
          "duration": 0.37187499999998863,
          "ticks": 16079,
          "durationTicks": 119
        },
        {
          "time": 50.621875,
          "midi": 62,
          "name": "D4",
          "velocity": 0.4251968503937008,
          "duration": 0.37187499999998863,
          "ticks": 16199,
          "durationTicks": 119
        },
        {
          "time": 50.996875,
          "midi": 64,
          "name": "E4",
          "velocity": 0.4251968503937008,
          "duration": 0.37187499999998863,
          "ticks": 16319,
          "durationTicks": 119
        },
        {
          "time": 51.371875,
          "midi": 66,
          "name": "F#4",
          "velocity": 0.4251968503937008,
          "duration": 0.18437499999998863,
          "ticks": 16439,
          "durationTicks": 59
        },
        {
          "time": 51.559375,
          "midi": 67,
          "name": "G4",
          "velocity": 0.41732283464566927,
          "duration": 0.18437499999998863,
          "ticks": 16499,
          "durationTicks": 59
        },
        {
          "time": 51.746875,
          "midi": 66,
          "name": "F#4",
          "velocity": 0.41732283464566927,
          "duration": 0.37187499999998863,
          "ticks": 16559,
          "durationTicks": 119
        },
        {
          "time": 52.121875,
          "midi": 62,
          "name": "D4",
          "velocity": 0.41732283464566927,
          "duration": 0.37187499999998863,
          "ticks": 16679,
          "durationTicks": 119
        },
        {
          "time": 52.496875,
          "midi": 64,
          "name": "E4",
          "velocity": 0.41732283464566927,
          "duration": 0.37187499999998863,
          "ticks": 16799,
          "durationTicks": 119
        },
        {
          "time": 52.871875,
          "midi": 66,
          "name": "F#4",
          "velocity": 0.4094488188976378,
          "duration": 0.18437499999998863,
          "ticks": 16919,
          "durationTicks": 59
        },
        {
          "time": 53.059375,
          "midi": 67,
          "name": "G4",
          "velocity": 0.4094488188976378,
          "duration": 0.18437499999998863,
          "ticks": 16979,
          "durationTicks": 59
        },
        {
          "time": 53.246875,
          "midi": 66,
          "name": "F#4",
          "velocity": 0.4094488188976378,
          "duration": 0.37187499999998863,
          "ticks": 17039,
          "durationTicks": 119
        },
        {
          "time": 53.621875,
          "midi": 64,
          "name": "E4",
          "velocity": 0.4094488188976378,
          "duration": 0.37187499999998863,
          "ticks": 17159,
          "durationTicks": 119
        },
        {
          "time": 53.996875,
          "midi": 62,
          "name": "D4",
          "velocity": 0.4094488188976378,
          "duration": 0.37187499999998863,
          "ticks": 17279,
          "durationTicks": 119
        },
        {
          "time": 54.371875,
          "midi": 64,
          "name": "E4",
          "velocity": 0.41732283464566927,
          "duration": 0.37187499999998863,
          "ticks": 17399,
          "durationTicks": 119
        },
        {
          "time": 54.746875,
          "midi": 57,
          "name": "A3",
          "velocity": 0.36220472440944884,
          "duration": 0.37187499999998863,
          "ticks": 17519,
          "durationTicks": 119
        },
        {
          "time": 55.121875,
          "midi": 66,
          "name": "F#4",
          "velocity": 0.3700787401574803,
          "duration": 0.7468749999999886,
          "ticks": 17639,
          "durationTicks": 239
        },
        {
          "time": 55.875,
          "midi": 66,
          "name": "F#4",
          "velocity": 0.3937007874015748,
          "duration": 0.37187500000000284,
          "ticks": 17880,
          "durationTicks": 119
        },
        {
          "time": 56.246875,
          "midi": 67,
          "name": "G4",
          "velocity": 0.3937007874015748,
          "duration": 0.37187499999998863,
          "ticks": 17999,
          "durationTicks": 119
        },
        {
          "time": 56.621875,
          "midi": 69,
          "name": "A4",
          "velocity": 0.3937007874015748,
          "duration": 0.37187499999998863,
          "ticks": 18119,
          "durationTicks": 119
        },
        {
          "time": 56.996875,
          "midi": 69,
          "name": "A4",
          "velocity": 0.3937007874015748,
          "duration": 0.37187499999998863,
          "ticks": 18239,
          "durationTicks": 119
        },
        {
          "time": 57.371875,
          "midi": 67,
          "name": "G4",
          "velocity": 0.3937007874015748,
          "duration": 0.37187499999998863,
          "ticks": 18359,
          "durationTicks": 119
        },
        {
          "time": 57.746875,
          "midi": 66,
          "name": "F#4",
          "velocity": 0.4015748031496063,
          "duration": 0.37187499999998863,
          "ticks": 18479,
          "durationTicks": 119
        },
        {
          "time": 58.121875,
          "midi": 64,
          "name": "E4",
          "velocity": 0.4015748031496063,
          "duration": 0.37187499999998863,
          "ticks": 18599,
          "durationTicks": 119
        },
        {
          "time": 58.496875,
          "midi": 62,
          "name": "D4",
          "velocity": 0.4015748031496063,
          "duration": 0.7468749999999886,
          "ticks": 18719,
          "durationTicks": 239
        },
        {
          "time": 59.246875,
          "midi": 64,
          "name": "E4",
          "velocity": 0.4015748031496063,
          "duration": 0.37187499999998863,
          "ticks": 18959,
          "durationTicks": 119
        },
        {
          "time": 59.621875,
          "midi": 66,
          "name": "F#4",
          "velocity": 0.4015748031496063,
          "duration": 0.37187499999998863,
          "ticks": 19079,
          "durationTicks": 119
        },
        {
          "time": 59.996875,
          "midi": 64,
          "name": "E4",
          "velocity": 0.4015748031496063,
          "duration": 0.5593749999999886,
          "ticks": 19199,
          "durationTicks": 179
        },
        {
          "time": 60.559375,
          "midi": 62,
          "name": "D4",
          "velocity": 0.4015748031496063,
          "duration": 0.18437499999998863,
          "ticks": 19379,
          "durationTicks": 59
        },
        {
          "time": 60.746875,
          "midi": 62,
          "name": "D4",
          "velocity": 0.4015748031496063,
          "duration": 0.7468749999999886,
          "ticks": 19439,
          "durationTicks": 239
        },
        {
          "time": 61.49374999999999,
          "midi": 64,
          "name": "E4",
          "velocity": 0.4015748031496063,
          "duration": 0.7468750000000028,
          "ticks": 19678,
          "durationTicks": 239
        },
        {
          "time": 62.24374999999999,
          "midi": 66,
          "name": "F#4",
          "velocity": 0.4015748031496063,
          "duration": 0.37187500000000284,
          "ticks": 19918,
          "durationTicks": 119
        },
        {
          "time": 62.61874999999999,
          "midi": 62,
          "name": "D4",
          "velocity": 0.4015748031496063,
          "duration": 0.37187500000000284,
          "ticks": 20038,
          "durationTicks": 119
        },
        {
          "time": 62.99374999999999,
          "midi": 64,
          "name": "E4",
          "velocity": 0.4015748031496063,
          "duration": 0.37187500000000284,
          "ticks": 20158,
          "durationTicks": 119
        },
        {
          "time": 63.36874999999999,
          "midi": 66,
          "name": "F#4",
          "velocity": 0.4015748031496063,
          "duration": 0.18437500000000284,
          "ticks": 20278,
          "durationTicks": 59
        },
        {
          "time": 63.55624999999999,
          "midi": 67,
          "name": "G4",
          "velocity": 0.4015748031496063,
          "duration": 0.18437500000000284,
          "ticks": 20338,
          "durationTicks": 59
        },
        {
          "time": 63.74374999999999,
          "midi": 66,
          "name": "F#4",
          "velocity": 0.4015748031496063,
          "duration": 0.37187500000000284,
          "ticks": 20398,
          "durationTicks": 119
        },
        {
          "time": 64.11874999999999,
          "midi": 62,
          "name": "D4",
          "velocity": 0.4015748031496063,
          "duration": 0.37187500000000284,
          "ticks": 20518,
          "durationTicks": 119
        },
        {
          "time": 64.49374999999999,
          "midi": 64,
          "name": "E4",
          "velocity": 0.4015748031496063,
          "duration": 0.37187500000000284,
          "ticks": 20638,
          "durationTicks": 119
        },
        {
          "time": 64.86874999999999,
          "midi": 66,
          "name": "F#4",
          "velocity": 0.4015748031496063,
          "duration": 0.18437500000000284,
          "ticks": 20758,
          "durationTicks": 59
        },
        {
          "time": 65.05624999999999,
          "midi": 67,
          "name": "G4",
          "velocity": 0.4015748031496063,
          "duration": 0.18437500000000284,
          "ticks": 20818,
          "durationTicks": 59
        },
        {
          "time": 65.24374999999999,
          "midi": 66,
          "name": "F#4",
          "velocity": 0.4015748031496063,
          "duration": 0.37187500000000284,
          "ticks": 20878,
          "durationTicks": 119
        },
        {
          "time": 65.61874999999999,
          "midi": 64,
          "name": "E4",
          "velocity": 0.4015748031496063,
          "duration": 0.37187500000000284,
          "ticks": 20998,
          "durationTicks": 119
        },
        {
          "time": 65.99374999999999,
          "midi": 62,
          "name": "D4",
          "velocity": 0.4094488188976378,
          "duration": 0.37187500000000284,
          "ticks": 21118,
          "durationTicks": 119
        },
        {
          "time": 66.36874999999999,
          "midi": 64,
          "name": "E4",
          "velocity": 0.4094488188976378,
          "duration": 0.37187500000000284,
          "ticks": 21238,
          "durationTicks": 119
        },
        {
          "time": 66.75,
          "midi": 57,
          "name": "A3",
          "velocity": 0.4094488188976378,
          "duration": 0.37187500000000284,
          "ticks": 21360,
          "durationTicks": 119
        },
        {
          "time": 67.125,
          "midi": 66,
          "name": "F#4",
          "velocity": 0.4094488188976378,
          "duration": 0.7468750000000028,
          "ticks": 21480,
          "durationTicks": 239
        },
        {
          "time": 67.875,
          "midi": 66,
          "name": "F#4",
          "velocity": 0.4094488188976378,
          "duration": 0.37187500000000284,
          "ticks": 21720,
          "durationTicks": 119
        },
        {
          "time": 68.25,
          "midi": 67,
          "name": "G4",
          "velocity": 0.4094488188976378,
          "duration": 0.37187500000000284,
          "ticks": 21840,
          "durationTicks": 119
        },
        {
          "time": 68.625,
          "midi": 69,
          "name": "A4",
          "velocity": 0.4094488188976378,
          "duration": 0.37187500000000284,
          "ticks": 21960,
          "durationTicks": 119
        },
        {
          "time": 69,
          "midi": 69,
          "name": "A4",
          "velocity": 0.4094488188976378,
          "duration": 0.37187500000000284,
          "ticks": 22080,
          "durationTicks": 119
        },
        {
          "time": 69.375,
          "midi": 67,
          "name": "G4",
          "velocity": 0.4094488188976378,
          "duration": 0.37187500000000284,
          "ticks": 22200,
          "durationTicks": 119
        },
        {
          "time": 69.75,
          "midi": 66,
          "name": "F#4",
          "velocity": 0.4094488188976378,
          "duration": 0.37187500000000284,
          "ticks": 22320,
          "durationTicks": 119
        },
        {
          "time": 70.125,
          "midi": 64,
          "name": "E4",
          "velocity": 0.4094488188976378,
          "duration": 0.37187500000000284,
          "ticks": 22440,
          "durationTicks": 119
        },
        {
          "time": 70.5,
          "midi": 62,
          "name": "D4",
          "velocity": 0.4094488188976378,
          "duration": 0.7468750000000028,
          "ticks": 22560,
          "durationTicks": 239
        },
        {
          "time": 71.25,
          "midi": 64,
          "name": "E4",
          "velocity": 0.4094488188976378,
          "duration": 0.37187500000000284,
          "ticks": 22800,
          "durationTicks": 119
        },
        {
          "time": 71.625,
          "midi": 66,
          "name": "F#4",
          "velocity": 0.4094488188976378,
          "duration": 0.37187500000000284,
          "ticks": 22920,
          "durationTicks": 119
        },
        {
          "time": 72,
          "midi": 64,
          "name": "E4",
          "velocity": 0.4094488188976378,
          "duration": 0.5593750000000028,
          "ticks": 23040,
          "durationTicks": 179
        },
        {
          "time": 72.5625,
          "midi": 62,
          "name": "D4",
          "velocity": 0.41732283464566927,
          "duration": 0.18437500000000284,
          "ticks": 23220,
          "durationTicks": 59
        },
        {
          "time": 72.75,
          "midi": 62,
          "name": "D4",
          "velocity": 0.41732283464566927,
          "duration": 0.7468750000000028,
          "ticks": 23280,
          "durationTicks": 239
        },
        {
          "time": 73.5,
          "midi": 69,
          "name": "A4",
          "velocity": 0.4251968503937008,
          "duration": 0.7468750000000028,
          "ticks": 23520,
          "durationTicks": 239
        },
        {
          "time": 74.25,
          "midi": 62,
          "name": "D4",
          "velocity": 0.4409448818897638,
          "duration": 0.7468750000000028,
          "ticks": 23760,
          "durationTicks": 239
        },
        {
          "time": 75,
          "midi": 59,
          "name": "B3",
          "velocity": 0.4566929133858268,
          "duration": 0.5593750000000028,
          "ticks": 24000,
          "durationTicks": 179
        },
        {
          "time": 75.5625,
          "midi": 61,
          "name": "C#4",
          "velocity": 0.4566929133858268,
          "duration": 0.18437500000000284,
          "ticks": 24180,
          "durationTicks": 59
        },
        {
          "time": 75.75,
          "midi": 62,
          "name": "D4",
          "velocity": 0.4566929133858268,
          "duration": 0.37187500000000284,
          "ticks": 24240,
          "durationTicks": 119
        },
        {
          "time": 76.125,
          "midi": 67,
          "name": "G4",
          "velocity": 0.4566929133858268,
          "duration": 0.7468750000000028,
          "ticks": 24360,
          "durationTicks": 239
        },
        {
          "time": 76.875,
          "midi": 66,
          "name": "F#4",
          "velocity": 0.4566929133858268,
          "duration": 0.37187500000000284,
          "ticks": 24600,
          "durationTicks": 119
        },
        {
          "time": 77.25,
          "midi": 64,
          "name": "E4",
          "velocity": 0.4566929133858268,
          "duration": 0.37187500000000284,
          "ticks": 24720,
          "durationTicks": 119
        },
        {
          "time": 77.625,
          "midi": 62,
          "name": "D4",
          "velocity": 0.4566929133858268,
          "duration": 0.7468750000000028,
          "ticks": 24840,
          "durationTicks": 239
        },
        {
          "time": 78.375,
          "midi": 61,
          "name": "C#4",
          "velocity": 0.33858267716535434,
          "duration": 0.37187500000000284,
          "ticks": 25080,
          "durationTicks": 119
        },
        {
          "time": 78.75,
          "midi": 59,
          "name": "B3",
          "velocity": 0.3464566929133858,
          "duration": 0.37187500000000284,
          "ticks": 25200,
          "durationTicks": 119
        },
        {
          "time": 79.125,
          "midi": 57,
          "name": "A3",
          "velocity": 0.3464566929133858,
          "duration": 0.37187500000000284,
          "ticks": 25320,
          "durationTicks": 119
        },
        {
          "time": 79.5,
          "midi": 69,
          "name": "A4",
          "velocity": 0.3464566929133858,
          "duration": 0.7468750000000028,
          "ticks": 25440,
          "durationTicks": 239
        },
        {
          "time": 80.25,
          "midi": 62,
          "name": "D4",
          "velocity": 0.3464566929133858,
          "duration": 0.7468750000000028,
          "ticks": 25680,
          "durationTicks": 239
        },
        {
          "time": 81,
          "midi": 59,
          "name": "B3",
          "velocity": 0.3543307086614173,
          "duration": 0.5593750000000028,
          "ticks": 25920,
          "durationTicks": 179
        },
        {
          "time": 81.5625,
          "midi": 61,
          "name": "C#4",
          "velocity": 0.3464566929133858,
          "duration": 0.18437500000000284,
          "ticks": 26100,
          "durationTicks": 59
        },
        {
          "time": 81.75,
          "midi": 62,
          "name": "D4",
          "velocity": 0.3464566929133858,
          "duration": 0.37187500000000284,
          "ticks": 26160,
          "durationTicks": 119
        },
        {
          "time": 82.125,
          "midi": 67,
          "name": "G4",
          "velocity": 0.3464566929133858,
          "duration": 0.7468750000000028,
          "ticks": 26280,
          "durationTicks": 239
        },
        {
          "time": 82.875,
          "midi": 66,
          "name": "F#4",
          "velocity": 0.3464566929133858,
          "duration": 0.18437500000000284,
          "ticks": 26520,
          "durationTicks": 59
        },
        {
          "time": 83.0625,
          "midi": 64,
          "name": "E4",
          "velocity": 0.3464566929133858,
          "duration": 0.18437500000000284,
          "ticks": 26580,
          "durationTicks": 59
        },
        {
          "time": 83.25,
          "midi": 62,
          "name": "D4",
          "velocity": 0.3464566929133858,
          "duration": 0.18437500000000284,
          "ticks": 26640,
          "durationTicks": 59
        },
        {
          "time": 83.4375,
          "midi": 61,
          "name": "C#4",
          "velocity": 0.3464566929133858,
          "duration": 0.18437500000000284,
          "ticks": 26700,
          "durationTicks": 59
        },
        {
          "time": 83.625,
          "midi": 59,
          "name": "B3",
          "velocity": 0.3464566929133858,
          "duration": 0.18437500000000284,
          "ticks": 26760,
          "durationTicks": 59
        },
        {
          "time": 83.8125,
          "midi": 57,
          "name": "A3",
          "velocity": 0.3464566929133858,
          "duration": 0.18437500000000284,
          "ticks": 26820,
          "durationTicks": 59
        },
        {
          "time": 84,
          "midi": 55,
          "name": "G3",
          "velocity": 0.3464566929133858,
          "duration": 0.37187500000000284,
          "ticks": 26880,
          "durationTicks": 119
        },
        {
          "time": 84.375,
          "midi": 57,
          "name": "A3",
          "velocity": 0.33858267716535434,
          "duration": 0.37187500000000284,
          "ticks": 27000,
          "durationTicks": 119
        },
        {
          "time": 84.75,
          "midi": 54,
          "name": "F#3",
          "velocity": 0.33858267716535434,
          "duration": 0.37187500000000284,
          "ticks": 27120,
          "durationTicks": 119
        },
        {
          "time": 85.125,
          "midi": 66,
          "name": "F#4",
          "velocity": 0.33858267716535434,
          "duration": 0.37187500000000284,
          "ticks": 27240,
          "durationTicks": 119
        },
        {
          "time": 85.5,
          "midi": 67,
          "name": "G4",
          "velocity": 0.33858267716535434,
          "duration": 0.7468750000000028,
          "ticks": 27360,
          "durationTicks": 239
        },
        {
          "time": 86.25,
          "midi": 69,
          "name": "A4",
          "velocity": 0.33858267716535434,
          "duration": 0.37187500000000284,
          "ticks": 27600,
          "durationTicks": 119
        },
        {
          "time": 86.625,
          "midi": 59,
          "name": "B3",
          "velocity": 0.33070866141732286,
          "duration": 0.37187500000000284,
          "ticks": 27720,
          "durationTicks": 119
        },
        {
          "time": 87,
          "midi": 61,
          "name": "C#4",
          "velocity": 0.3228346456692913,
          "duration": 0.7468750000000028,
          "ticks": 27840,
          "durationTicks": 239
        },
        {
          "time": 87.75,
          "midi": 62,
          "name": "D4",
          "velocity": 0.3228346456692913,
          "duration": 0.37187500000000284,
          "ticks": 28080,
          "durationTicks": 119
        },
        {
          "time": 88.125,
          "midi": 64,
          "name": "E4",
          "velocity": 0.31496062992125984,
          "duration": 0.18437500000000284,
          "ticks": 28200,
          "durationTicks": 59
        },
        {
          "time": 88.3125,
          "midi": 66,
          "name": "F#4",
          "velocity": 0.31496062992125984,
          "duration": 0.18437500000000284,
          "ticks": 28260,
          "durationTicks": 59
        },
        {
          "time": 88.5,
          "midi": 67,
          "name": "G4",
          "velocity": 0.31496062992125984,
          "duration": 0.7468750000000028,
          "ticks": 28320,
          "durationTicks": 239
        },
        {
          "time": 89.25,
          "midi": 69,
          "name": "A4",
          "velocity": 0.31496062992125984,
          "duration": 0.18437500000000284,
          "ticks": 28560,
          "durationTicks": 59
        },
        {
          "time": 89.4375,
          "midi": 57,
          "name": "A3",
          "velocity": 0.31496062992125984,
          "duration": 0.18437500000000284,
          "ticks": 28620,
          "durationTicks": 59
        },
        {
          "time": 89.625,
          "midi": 58,
          "name": "A#3",
          "velocity": 0.31496062992125984,
          "duration": 0.37187500000000284,
          "ticks": 28680,
          "durationTicks": 119
        },
        {
          "time": 90,
          "midi": 59,
          "name": "B3",
          "velocity": 0.31496062992125984,
          "duration": 0.37187500000000284,
          "ticks": 28800,
          "durationTicks": 119
        },
        {
          "time": 90.375,
          "midi": 61,
          "name": "C#4",
          "velocity": 0.3228346456692913,
          "duration": 0.7468750000000028,
          "ticks": 28920,
          "durationTicks": 239
        },
        {
          "time": 91.125,
          "midi": 62,
          "name": "D4",
          "velocity": 0.33070866141732286,
          "duration": 0.37187500000000284,
          "ticks": 29160,
          "durationTicks": 119
        },
        {
          "time": 91.5,
          "midi": 69,
          "name": "A4",
          "velocity": 0.33070866141732286,
          "duration": 0.7468750000000028,
          "ticks": 29280,
          "durationTicks": 239
        },
        {
          "time": 92.25,
          "midi": 60,
          "name": "C4",
          "velocity": 0.33070866141732286,
          "duration": 0.7468750000000028,
          "ticks": 29520,
          "durationTicks": 239
        },
        {
          "time": 93,
          "midi": 59,
          "name": "B3",
          "velocity": 0.33070866141732286,
          "duration": 0.5593750000000028,
          "ticks": 29760,
          "durationTicks": 179
        },
        {
          "time": 93.5625,
          "midi": 61,
          "name": "C#4",
          "velocity": 0.33858267716535434,
          "duration": 0.18437500000000284,
          "ticks": 29940,
          "durationTicks": 59
        },
        {
          "time": 93.75,
          "midi": 62,
          "name": "D4",
          "velocity": 0.33858267716535434,
          "duration": 0.37187500000000284,
          "ticks": 30000,
          "durationTicks": 119
        },
        {
          "time": 94.125,
          "midi": 67,
          "name": "G4",
          "velocity": 0.3464566929133858,
          "duration": 0.7468750000000028,
          "ticks": 30120,
          "durationTicks": 239
        },
        {
          "time": 94.875,
          "midi": 66,
          "name": "F#4",
          "velocity": 0.3700787401574803,
          "duration": 0.18437500000000284,
          "ticks": 30360,
          "durationTicks": 59
        },
        {
          "time": 95.0625,
          "midi": 64,
          "name": "E4",
          "velocity": 0.3779527559055118,
          "duration": 0.18437500000000284,
          "ticks": 30420,
          "durationTicks": 59
        },
        {
          "time": 95.25,
          "midi": 62,
          "name": "D4",
          "velocity": 0.4251968503937008,
          "duration": 0.18437500000000284,
          "ticks": 30480,
          "durationTicks": 59
        },
        {
          "time": 95.4375,
          "midi": 61,
          "name": "C#4",
          "velocity": 0.4330708661417323,
          "duration": 0.18437500000000284,
          "ticks": 30540,
          "durationTicks": 59
        },
        {
          "time": 95.625,
          "midi": 59,
          "name": "B3",
          "velocity": 0.4330708661417323,
          "duration": 0.18437500000000284,
          "ticks": 30600,
          "durationTicks": 59
        },
        {
          "time": 95.8125,
          "midi": 57,
          "name": "A3",
          "velocity": 0.4330708661417323,
          "duration": 0.18437500000000284,
          "ticks": 30660,
          "durationTicks": 59
        },
        {
          "time": 96,
          "midi": 55,
          "name": "G3",
          "velocity": 0.4330708661417323,
          "duration": 0.37187500000000284,
          "ticks": 30720,
          "durationTicks": 119
        },
        {
          "time": 96.375,
          "midi": 57,
          "name": "A3",
          "velocity": 0.4330708661417323,
          "duration": 0.37187500000000284,
          "ticks": 30840,
          "durationTicks": 119
        },
        {
          "time": 96.75,
          "midi": 54,
          "name": "F#3",
          "velocity": 0.4330708661417323,
          "duration": 0.37187500000000284,
          "ticks": 30960,
          "durationTicks": 119
        },
        {
          "time": 97.125,
          "midi": 66,
          "name": "F#4",
          "velocity": 0.4330708661417323,
          "duration": 0.37187500000000284,
          "ticks": 31080,
          "durationTicks": 119
        },
        {
          "time": 97.5,
          "midi": 67,
          "name": "G4",
          "velocity": 0.4330708661417323,
          "duration": 0.7468750000000028,
          "ticks": 31200,
          "durationTicks": 239
        },
        {
          "time": 98.25,
          "midi": 69,
          "name": "A4",
          "velocity": 0.4330708661417323,
          "duration": 0.37187500000000284,
          "ticks": 31440,
          "durationTicks": 119
        },
        {
          "time": 98.625,
          "midi": 59,
          "name": "B3",
          "velocity": 0.4330708661417323,
          "duration": 0.37187500000000284,
          "ticks": 31560,
          "durationTicks": 119
        },
        {
          "time": 99,
          "midi": 61,
          "name": "C#4",
          "velocity": 0.4330708661417323,
          "duration": 0.7468750000000028,
          "ticks": 31680,
          "durationTicks": 239
        },
        {
          "time": 99.75,
          "midi": 62,
          "name": "D4",
          "velocity": 0.4330708661417323,
          "duration": 0.37187500000000284,
          "ticks": 31920,
          "durationTicks": 119
        },
        {
          "time": 100.125,
          "midi": 64,
          "name": "E4",
          "velocity": 0.4330708661417323,
          "duration": 0.18437500000000284,
          "ticks": 32040,
          "durationTicks": 59
        },
        {
          "time": 100.3125,
          "midi": 66,
          "name": "F#4",
          "velocity": 0.4330708661417323,
          "duration": 0.18437500000000284,
          "ticks": 32100,
          "durationTicks": 59
        },
        {
          "time": 100.5,
          "midi": 67,
          "name": "G4",
          "velocity": 0.4409448818897638,
          "duration": 0.7468750000000028,
          "ticks": 32160,
          "durationTicks": 239
        },
        {
          "time": 101.25,
          "midi": 69,
          "name": "A4",
          "velocity": 0.4409448818897638,
          "duration": 0.18437500000000284,
          "ticks": 32400,
          "durationTicks": 59
        },
        {
          "time": 101.4375,
          "midi": 57,
          "name": "A3",
          "velocity": 0.4409448818897638,
          "duration": 0.18437500000000284,
          "ticks": 32460,
          "durationTicks": 59
        },
        {
          "time": 101.625,
          "midi": 58,
          "name": "A#3",
          "velocity": 0.4409448818897638,
          "duration": 0.37187500000000284,
          "ticks": 32520,
          "durationTicks": 119
        },
        {
          "time": 102,
          "midi": 59,
          "name": "B3",
          "velocity": 0.4409448818897638,
          "duration": 0.37187500000000284,
          "ticks": 32640,
          "durationTicks": 119
        },
        {
          "time": 102.375,
          "midi": 61,
          "name": "C#4",
          "velocity": 0.4409448818897638,
          "duration": 0.7468750000000028,
          "ticks": 32760,
          "durationTicks": 239
        },
        {
          "time": 103.125,
          "midi": 62,
          "name": "D4",
          "velocity": 0.4409448818897638,
          "duration": 0.37187500000000284,
          "ticks": 33000,
          "durationTicks": 119
        },
        {
          "time": 103.5,
          "midi": 69,
          "name": "A4",
          "velocity": 0.4409448818897638,
          "duration": 0.7468750000000028,
          "ticks": 33120,
          "durationTicks": 239
        },
        {
          "time": 104.25,
          "midi": 60,
          "name": "C4",
          "velocity": 0.4409448818897638,
          "duration": 0.7468750000000028,
          "ticks": 33360,
          "durationTicks": 239
        },
        {
          "time": 105,
          "midi": 59,
          "name": "B3",
          "velocity": 0.4409448818897638,
          "duration": 0.5593750000000028,
          "ticks": 33600,
          "durationTicks": 179
        },
        {
          "time": 105.5625,
          "midi": 61,
          "name": "C#4",
          "velocity": 0.4566929133858268,
          "duration": 0.18437500000000284,
          "ticks": 33780,
          "durationTicks": 59
        },
        {
          "time": 105.75,
          "midi": 62,
          "name": "D4",
          "velocity": 0.4566929133858268,
          "duration": 0.37187500000000284,
          "ticks": 33840,
          "durationTicks": 119
        },
        {
          "time": 106.125,
          "midi": 67,
          "name": "G4",
          "velocity": 0.47244094488188976,
          "duration": 0.7468750000000028,
          "ticks": 33960,
          "durationTicks": 239
        },
        {
          "time": 106.875,
          "midi": 66,
          "name": "F#4",
          "velocity": 0.4881889763779528,
          "duration": 0.18437500000000284,
          "ticks": 34200,
          "durationTicks": 59
        },
        {
          "time": 107.0625,
          "midi": 64,
          "name": "E4",
          "velocity": 0.5039370078740157,
          "duration": 0.18437500000000284,
          "ticks": 34260,
          "durationTicks": 59
        },
        {
          "time": 107.25,
          "midi": 62,
          "name": "D4",
          "velocity": 0.5196850393700787,
          "duration": 0.18437500000000284,
          "ticks": 34320,
          "durationTicks": 59
        },
        {
          "time": 107.4375,
          "midi": 61,
          "name": "C#4",
          "velocity": 0.5196850393700787,
          "duration": 0.18437500000000284,
          "ticks": 34380,
          "durationTicks": 59
        },
        {
          "time": 107.625,
          "midi": 59,
          "name": "B3",
          "velocity": 0.5354330708661418,
          "duration": 0.18437500000000284,
          "ticks": 34440,
          "durationTicks": 59
        },
        {
          "time": 107.8125,
          "midi": 57,
          "name": "A3",
          "velocity": 0.5511811023622047,
          "duration": 0.18437500000000284,
          "ticks": 34500,
          "durationTicks": 59
        },
        {
          "time": 108,
          "midi": 55,
          "name": "G3",
          "velocity": 0.5669291338582677,
          "duration": 0.37187500000000284,
          "ticks": 34560,
          "durationTicks": 119
        },
        {
          "time": 108.375,
          "midi": 57,
          "name": "A3",
          "velocity": 0.6062992125984252,
          "duration": 0.37187500000000284,
          "ticks": 34680,
          "durationTicks": 119
        },
        {
          "time": 108.75,
          "midi": 54,
          "name": "F#3",
          "velocity": 0.6299212598425197,
          "duration": 0.18437500000000284,
          "ticks": 34800,
          "durationTicks": 59
        },
        {
          "time": 108.9375,
          "midi": 55,
          "name": "G3",
          "velocity": 0.6299212598425197,
          "duration": 0.18437500000000284,
          "ticks": 34860,
          "durationTicks": 59
        },
        {
          "time": 109.125,
          "midi": 54,
          "name": "F#3",
          "velocity": 0.6377952755905512,
          "duration": 0.18437500000000284,
          "ticks": 34920,
          "durationTicks": 59
        },
        {
          "time": 109.3125,
          "midi": 52,
          "name": "E3",
          "velocity": 0.6692913385826772,
          "duration": 0.18437500000000284,
          "ticks": 34980,
          "durationTicks": 59
        },
        {
          "time": 109.5,
          "midi": 54,
          "name": "F#3",
          "velocity": 0.7874015748031497,
          "duration": 0.375,
          "ticks": 35040,
          "durationTicks": 120
        },
        {
          "time": 109.5,
          "midi": 62,
          "name": "D4",
          "velocity": 0.7637795275590551,
          "duration": 0.37187500000000284,
          "ticks": 35040,
          "durationTicks": 119
        },
        {
          "time": 110.0625,
          "midi": 50,
          "name": "D3",
          "velocity": 0.7874015748031497,
          "duration": 0.18437500000000284,
          "ticks": 35220,
          "durationTicks": 59
        },
        {
          "time": 110.25,
          "midi": 62,
          "name": "D4",
          "velocity": 0.8110236220472441,
          "duration": 0.37187500000000284,
          "ticks": 35280,
          "durationTicks": 119
        },
        {
          "time": 110.8125,
          "midi": 50,
          "name": "D3",
          "velocity": 0.84251968503937,
          "duration": 0.18437500000000284,
          "ticks": 35460,
          "durationTicks": 59
        },
        {
          "time": 111,
          "midi": 69,
          "name": "A4",
          "velocity": 0.8503937007874016,
          "duration": 0.37187500000000284,
          "ticks": 35520,
          "durationTicks": 119
        },
        {
          "time": 111.5625,
          "midi": 57,
          "name": "A3",
          "velocity": 0.889763779527559,
          "duration": 0.18437500000000284,
          "ticks": 35700,
          "durationTicks": 59
        },
        {
          "time": 111.75,
          "midi": 69,
          "name": "A4",
          "velocity": 0.8976377952755905,
          "duration": 0.18437500000000284,
          "ticks": 35760,
          "durationTicks": 59
        },
        {
          "time": 112.3125,
          "midi": 57,
          "name": "A3",
          "velocity": 0.9212598425196851,
          "duration": 0.18437500000000284,
          "ticks": 35940,
          "durationTicks": 59
        },
        {
          "time": 112.5,
          "midi": 74,
          "name": "D5",
          "velocity": 0.9212598425196851,
          "duration": 0.37187500000000284,
          "ticks": 36000,
          "durationTicks": 119
        },
        {
          "time": 112.5,
          "midi": 66,
          "name": "F#4",
          "velocity": 0.9212598425196851,
          "duration": 0.37187500000000284,
          "ticks": 36000,
          "durationTicks": 119
        },
        {
          "time": 112.5,
          "midi": 57,
          "name": "A3",
          "velocity": 0.9212598425196851,
          "duration": 0.37187500000000284,
          "ticks": 36000,
          "durationTicks": 119
        },
        {
          "time": 113.625,
          "midi": 57,
          "name": "A3",
          "velocity": 0.937007874015748,
          "duration": 0.37187500000000284,
          "ticks": 36360,
          "durationTicks": 119
        },
        {
          "time": 113.625,
          "midi": 74,
          "name": "D5",
          "velocity": 0.937007874015748,
          "duration": 0.37187500000000284,
          "ticks": 36360,
          "durationTicks": 119
        },
        {
          "time": 113.625,
          "midi": 66,
          "name": "F#4",
          "velocity": 0.937007874015748,
          "duration": 0.37187500000000284,
          "ticks": 36360,
          "durationTicks": 119
        },
        {
          "time": 114,
          "midi": 57,
          "name": "A3",
          "velocity": 0.937007874015748,
          "duration": 0.37187500000000284,
          "ticks": 36480,
          "durationTicks": 119
        },
        {
          "time": 114,
          "midi": 66,
          "name": "F#4",
          "velocity": 0.937007874015748,
          "duration": 0.37187500000000284,
          "ticks": 36480,
          "durationTicks": 119
        },
        {
          "time": 114,
          "midi": 74,
          "name": "D5",
          "velocity": 0.937007874015748,
          "duration": 0.37187500000000284,
          "ticks": 36480,
          "durationTicks": 119
        },
        {
          "time": 114.75,
          "midi": 73,
          "name": "C#5",
          "velocity": 0.937007874015748,
          "duration": 0.37187500000000284,
          "ticks": 36720,
          "durationTicks": 119
        },
        {
          "time": 114.75,
          "midi": 64,
          "name": "E4",
          "velocity": 0.937007874015748,
          "duration": 0.37187500000000284,
          "ticks": 36720,
          "durationTicks": 119
        },
        {
          "time": 114.75,
          "midi": 57,
          "name": "A3",
          "velocity": 0.937007874015748,
          "duration": 0.37187500000000284,
          "ticks": 36720,
          "durationTicks": 119
        },
        {
          "time": 115.5,
          "midi": 62,
          "name": "D4",
          "velocity": 0.937007874015748,
          "duration": 0.37187500000000284,
          "ticks": 36960,
          "durationTicks": 119
        },
        {
          "time": 115.5,
          "midi": 74,
          "name": "D5",
          "velocity": 0.937007874015748,
          "duration": 0.37187500000000284,
          "ticks": 36960,
          "durationTicks": 119
        },
        {
          "time": 116.0625,
          "midi": 50,
          "name": "D3",
          "velocity": 0.9291338582677166,
          "duration": 0.18437500000000284,
          "ticks": 37140,
          "durationTicks": 59
        },
        {
          "time": 116.25,
          "midi": 62,
          "name": "D4",
          "velocity": 0.9291338582677166,
          "duration": 0.37187500000000284,
          "ticks": 37200,
          "durationTicks": 119
        },
        {
          "time": 116.8125,
          "midi": 50,
          "name": "D3",
          "velocity": 0.9291338582677166,
          "duration": 0.18437500000000284,
          "ticks": 37380,
          "durationTicks": 59
        },
        {
          "time": 117,
          "midi": 69,
          "name": "A4",
          "velocity": 0.9291338582677166,
          "duration": 0.37187500000000284,
          "ticks": 37440,
          "durationTicks": 119
        },
        {
          "time": 117.5625,
          "midi": 57,
          "name": "A3",
          "velocity": 0.9291338582677166,
          "duration": 0.18437500000000284,
          "ticks": 37620,
          "durationTicks": 59
        },
        {
          "time": 117.75,
          "midi": 69,
          "name": "A4",
          "velocity": 0.9291338582677166,
          "duration": 0.37187500000000284,
          "ticks": 37680,
          "durationTicks": 119
        },
        {
          "time": 118.3125,
          "midi": 57,
          "name": "A3",
          "velocity": 0.9291338582677166,
          "duration": 0.18437500000000284,
          "ticks": 37860,
          "durationTicks": 59
        },
        {
          "time": 118.5,
          "midi": 62,
          "name": "D4",
          "velocity": 0.9291338582677166,
          "duration": 0.37187500000000284,
          "ticks": 37920,
          "durationTicks": 119
        },
        {
          "time": 119.625,
          "midi": 74,
          "name": "D5",
          "velocity": 0.9212598425196851,
          "duration": 0.37187500000000284,
          "ticks": 38280,
          "durationTicks": 119
        },
        {
          "time": 119.625,
          "midi": 66,
          "name": "F#4",
          "velocity": 0.9212598425196851,
          "duration": 0.37187500000000284,
          "ticks": 38280,
          "durationTicks": 119
        },
        {
          "time": 119.625,
          "midi": 57,
          "name": "A3",
          "velocity": 0.9212598425196851,
          "duration": 0.18437500000000284,
          "ticks": 38280,
          "durationTicks": 59
        },
        {
          "time": 119.996875,
          "midi": 57,
          "name": "A3",
          "velocity": 0.9133858267716536,
          "duration": 0.37187500000000284,
          "ticks": 38399,
          "durationTicks": 119
        },
        {
          "time": 120,
          "midi": 73,
          "name": "C#5",
          "velocity": 0.9133858267716536,
          "duration": 0.37187500000000284,
          "ticks": 38400,
          "durationTicks": 119
        },
        {
          "time": 120,
          "midi": 64,
          "name": "E4",
          "velocity": 0.9133858267716536,
          "duration": 0.37187500000000284,
          "ticks": 38400,
          "durationTicks": 119
        },
        {
          "time": 120.75,
          "midi": 74,
          "name": "D5",
          "velocity": 0.9133858267716536,
          "duration": 0.37187500000000284,
          "ticks": 38640,
          "durationTicks": 119
        },
        {
          "time": 120.75,
          "midi": 66,
          "name": "F#4",
          "velocity": 0.9133858267716536,
          "duration": 0.37187500000000284,
          "ticks": 38640,
          "durationTicks": 119
        },
        {
          "time": 120.75,
          "midi": 57,
          "name": "A3",
          "velocity": 0.9133858267716536,
          "duration": 0.37187500000000284,
          "ticks": 38640,
          "durationTicks": 119
        },
        {
          "time": 121.496875,
          "midi": 57,
          "name": "A3",
          "velocity": 0.9212598425196851,
          "duration": 0.37187500000000284,
          "ticks": 38879,
          "durationTicks": 119
        },
        {
          "time": 121.5,
          "midi": 73,
          "name": "C#5",
          "velocity": 0.9212598425196851,
          "duration": 0.37187500000000284,
          "ticks": 38880,
          "durationTicks": 119
        },
        {
          "time": 121.5,
          "midi": 64,
          "name": "E4",
          "velocity": 0.9212598425196851,
          "duration": 0.37187500000000284,
          "ticks": 38880,
          "durationTicks": 119
        },
        {
          "time": 122.059375,
          "midi": 57,
          "name": "A3",
          "velocity": 0.9212598425196851,
          "duration": 0.18437500000000284,
          "ticks": 39059,
          "durationTicks": 59
        },
        {
          "time": 122.246875,
          "midi": 69,
          "name": "A4",
          "velocity": 0.9212598425196851,
          "duration": 0.37187500000000284,
          "ticks": 39119,
          "durationTicks": 119
        },
        {
          "time": 122.625,
          "midi": 74,
          "name": "D5",
          "velocity": 0.9291338582677166,
          "duration": 0.37187500000000284,
          "ticks": 39240,
          "durationTicks": 119
        },
        {
          "time": 122.625,
          "midi": 66,
          "name": "F#4",
          "velocity": 0.9291338582677166,
          "duration": 0.37187500000000284,
          "ticks": 39240,
          "durationTicks": 119
        },
        {
          "time": 122.625,
          "midi": 57,
          "name": "A3",
          "velocity": 0.9291338582677166,
          "duration": 0.37187500000000284,
          "ticks": 39240,
          "durationTicks": 119
        },
        {
          "time": 123,
          "midi": 73,
          "name": "C#5",
          "velocity": 0.937007874015748,
          "duration": 0.37187500000000284,
          "ticks": 39360,
          "durationTicks": 119
        },
        {
          "time": 123,
          "midi": 64,
          "name": "E4",
          "velocity": 0.937007874015748,
          "duration": 0.37187500000000284,
          "ticks": 39360,
          "durationTicks": 119
        },
        {
          "time": 123,
          "midi": 57,
          "name": "A3",
          "velocity": 0.937007874015748,
          "duration": 0.37187500000000284,
          "ticks": 39360,
          "durationTicks": 119
        },
        {
          "time": 123.5625,
          "midi": 57,
          "name": "A3",
          "velocity": 0.937007874015748,
          "duration": 0.18437500000000284,
          "ticks": 39540,
          "durationTicks": 59
        },
        {
          "time": 123.75,
          "midi": 69,
          "name": "A4",
          "velocity": 0.937007874015748,
          "duration": 0.37187500000000284,
          "ticks": 39600,
          "durationTicks": 119
        },
        {
          "time": 124.125,
          "midi": 74,
          "name": "D5",
          "velocity": 0.937007874015748,
          "duration": 0.37187500000000284,
          "ticks": 39720,
          "durationTicks": 119
        },
        {
          "time": 124.125,
          "midi": 57,
          "name": "A3",
          "velocity": 0.937007874015748,
          "duration": 0.37187500000000284,
          "ticks": 39720,
          "durationTicks": 119
        },
        {
          "time": 124.125,
          "midi": 66,
          "name": "F#4",
          "velocity": 0.937007874015748,
          "duration": 0.37187500000000284,
          "ticks": 39720,
          "durationTicks": 119
        },
        {
          "time": 124.5,
          "midi": 73,
          "name": "C#5",
          "velocity": 0.9448818897637795,
          "duration": 0.37187500000000284,
          "ticks": 39840,
          "durationTicks": 119
        },
        {
          "time": 124.5,
          "midi": 64,
          "name": "E4",
          "velocity": 0.9448818897637795,
          "duration": 0.37187500000000284,
          "ticks": 39840,
          "durationTicks": 119
        },
        {
          "time": 124.5,
          "midi": 57,
          "name": "A3",
          "velocity": 0.9448818897637795,
          "duration": 0.37187500000000284,
          "ticks": 39840,
          "durationTicks": 119
        },
        {
          "time": 125.0625,
          "midi": 57,
          "name": "A3",
          "velocity": 0.9448818897637795,
          "duration": 0.18437500000000284,
          "ticks": 40020,
          "durationTicks": 59
        },
        {
          "time": 125.25,
          "midi": 66,
          "name": "F#4",
          "velocity": 0.9448818897637795,
          "duration": 0.1875,
          "ticks": 40080,
          "durationTicks": 60
        },
        {
          "time": 125.25,
          "midi": 61,
          "name": "C#4",
          "velocity": 0.9448818897637795,
          "duration": 0.18437500000000284,
          "ticks": 40080,
          "durationTicks": 59
        },
        {
          "time": 125.625,
          "midi": 64,
          "name": "E4",
          "velocity": 0.952755905511811,
          "duration": 0.1875,
          "ticks": 40200,
          "durationTicks": 60
        },
        {
          "time": 125.625,
          "midi": 61,
          "name": "C#4",
          "velocity": 0.952755905511811,
          "duration": 0.1875,
          "ticks": 40200,
          "durationTicks": 60
        },
        {
          "time": 126,
          "midi": 59,
          "name": "B3",
          "velocity": 0.952755905511811,
          "duration": 0.1875,
          "ticks": 40320,
          "durationTicks": 60
        },
        {
          "time": 126,
          "midi": 62,
          "name": "D4",
          "velocity": 0.952755905511811,
          "duration": 0.18437500000000284,
          "ticks": 40320,
          "durationTicks": 59
        },
        {
          "time": 126.375,
          "midi": 59,
          "name": "B3",
          "velocity": 0.952755905511811,
          "duration": 0.18437500000000284,
          "ticks": 40440,
          "durationTicks": 59
        },
        {
          "time": 126.375,
          "midi": 52,
          "name": "E3",
          "velocity": 0.952755905511811,
          "duration": 0.1875,
          "ticks": 40440,
          "durationTicks": 60
        },
        {
          "time": 126.75,
          "midi": 57,
          "name": "A3",
          "velocity": 0.8976377952755905,
          "duration": 0.18437500000000284,
          "ticks": 40560,
          "durationTicks": 59
        },
        {
          "time": 127.125,
          "midi": 66,
          "name": "F#4",
          "velocity": 0.937007874015748,
          "duration": 0.1875,
          "ticks": 40680,
          "durationTicks": 60
        },
        {
          "time": 127.125,
          "midi": 50,
          "name": "D3",
          "velocity": 0.937007874015748,
          "duration": 0.1875,
          "ticks": 40680,
          "durationTicks": 60
        },
        {
          "time": 127.125,
          "midi": 57,
          "name": "A3",
          "velocity": 0.937007874015748,
          "duration": 0.18437500000000284,
          "ticks": 40680,
          "durationTicks": 59
        },
        {
          "time": 127.5,
          "midi": 50,
          "name": "D3",
          "velocity": 0.9606299212598425,
          "duration": 0.37187500000000284,
          "ticks": 40800,
          "durationTicks": 119
        },
        {
          "time": 127.5,
          "midi": 57,
          "name": "A3",
          "velocity": 0.9606299212598425,
          "duration": 0.37187500000000284,
          "ticks": 40800,
          "durationTicks": 119
        },
        {
          "time": 127.5,
          "midi": 66,
          "name": "F#4",
          "velocity": 0.9606299212598425,
          "duration": 0.37187500000000284,
          "ticks": 40800,
          "durationTicks": 119
        },
        {
          "time": 128.0625,
          "midi": 50,
          "name": "D3",
          "velocity": 0.9763779527559056,
          "duration": 0.18437499999998863,
          "ticks": 40980,
          "durationTicks": 59
        },
        {
          "time": 128.25,
          "midi": 62,
          "name": "D4",
          "velocity": 0.9763779527559056,
          "duration": 0.37187499999998863,
          "ticks": 41040,
          "durationTicks": 119
        },
        {
          "time": 128.8125,
          "midi": 50,
          "name": "D3",
          "velocity": 0.9763779527559056,
          "duration": 0.18437499999998863,
          "ticks": 41220,
          "durationTicks": 59
        },
        {
          "time": 129,
          "midi": 57,
          "name": "A3",
          "velocity": 0.6929133858267716,
          "duration": 0.37187499999998863,
          "ticks": 41280,
          "durationTicks": 119
        },
        {
          "time": 129,
          "midi": 69,
          "name": "A4",
          "velocity": 1,
          "duration": 0.37187499999998863,
          "ticks": 41280,
          "durationTicks": 119
        },
        {
          "time": 129.5625,
          "midi": 57,
          "name": "A3",
          "velocity": 1,
          "duration": 0.18437499999998863,
          "ticks": 41460,
          "durationTicks": 59
        },
        {
          "time": 129.75,
          "midi": 69,
          "name": "A4",
          "velocity": 1,
          "duration": 0.37187499999998863,
          "ticks": 41520,
          "durationTicks": 119
        },
        {
          "time": 130.3125,
          "midi": 57,
          "name": "A3",
          "velocity": 1,
          "duration": 0.18437499999998863,
          "ticks": 41700,
          "durationTicks": 59
        },
        {
          "time": 130.5,
          "midi": 50,
          "name": "D3",
          "velocity": 0.5511811023622047,
          "duration": 0.37187499999998863,
          "ticks": 41760,
          "durationTicks": 119
        },
        {
          "time": 130.5,
          "midi": 62,
          "name": "D4",
          "velocity": 0.7795275590551181,
          "duration": 0.37187499999998863,
          "ticks": 41760,
          "durationTicks": 119
        },
        {
          "time": 131.625,
          "midi": 74,
          "name": "D5",
          "velocity": 0.6220472440944882,
          "duration": 0.37187499999998863,
          "ticks": 42120,
          "durationTicks": 119
        },
        {
          "time": 131.625,
          "midi": 57,
          "name": "A3",
          "velocity": 0.5275590551181102,
          "duration": 0.37187499999998863,
          "ticks": 42120,
          "durationTicks": 119
        },
        {
          "time": 131.625,
          "midi": 66,
          "name": "F#4",
          "velocity": 1,
          "duration": 0.37187499999998863,
          "ticks": 42120,
          "durationTicks": 119
        },
        {
          "time": 132,
          "midi": 73,
          "name": "C#5",
          "velocity": 0.5905511811023622,
          "duration": 0.37187499999998863,
          "ticks": 42240,
          "durationTicks": 119
        },
        {
          "time": 132,
          "midi": 57,
          "name": "A3",
          "velocity": 0.7401574803149606,
          "duration": 0.37187499999998863,
          "ticks": 42240,
          "durationTicks": 119
        },
        {
          "time": 132,
          "midi": 64,
          "name": "E4",
          "velocity": 0.8503937007874016,
          "duration": 0.37187499999998863,
          "ticks": 42240,
          "durationTicks": 119
        },
        {
          "time": 132.75,
          "midi": 57,
          "name": "A3",
          "velocity": 0.5669291338582677,
          "duration": 0.37187499999998863,
          "ticks": 42480,
          "durationTicks": 119
        },
        {
          "time": 132.75,
          "midi": 50,
          "name": "D3",
          "velocity": 0.5748031496062992,
          "duration": 0.37187499999998863,
          "ticks": 42480,
          "durationTicks": 119
        },
        {
          "time": 132.75,
          "midi": 74,
          "name": "D5",
          "velocity": 0.9763779527559056,
          "duration": 0.37187499999998863,
          "ticks": 42480,
          "durationTicks": 119
        },
        {
          "time": 132.75,
          "midi": 66,
          "name": "F#4",
          "velocity": 0.9763779527559056,
          "duration": 0.37187499999998863,
          "ticks": 42480,
          "durationTicks": 119
        },
        {
          "time": 133.5,
          "midi": 73,
          "name": "C#5",
          "velocity": 0.5669291338582677,
          "duration": 0.37187499999998863,
          "ticks": 42720,
          "durationTicks": 119
        },
        {
          "time": 133.5,
          "midi": 64,
          "name": "E4",
          "velocity": 0.7637795275590551,
          "duration": 0.37187499999998863,
          "ticks": 42720,
          "durationTicks": 119
        },
        {
          "time": 133.5,
          "midi": 57,
          "name": "A3",
          "velocity": 0.7637795275590551,
          "duration": 0.37187499999998863,
          "ticks": 42720,
          "durationTicks": 119
        },
        {
          "time": 134.0625,
          "midi": 57,
          "name": "A3",
          "velocity": 1,
          "duration": 0.18437499999998863,
          "ticks": 42900,
          "durationTicks": 59
        },
        {
          "time": 134.25,
          "midi": 69,
          "name": "A4",
          "velocity": 1,
          "duration": 0.37187499999998863,
          "ticks": 42960,
          "durationTicks": 119
        },
        {
          "time": 134.625,
          "midi": 74,
          "name": "D5",
          "velocity": 0.4645669291338583,
          "duration": 0.37187499999998863,
          "ticks": 43080,
          "durationTicks": 119
        },
        {
          "time": 134.625,
          "midi": 66,
          "name": "F#4",
          "velocity": 0.7637795275590551,
          "duration": 0.37187499999998863,
          "ticks": 43080,
          "durationTicks": 119
        },
        {
          "time": 134.625,
          "midi": 57,
          "name": "A3",
          "velocity": 0.5433070866141733,
          "duration": 0.37187499999998863,
          "ticks": 43080,
          "durationTicks": 119
        },
        {
          "time": 135,
          "midi": 73,
          "name": "C#5",
          "velocity": 0.5511811023622047,
          "duration": 0.37187499999998863,
          "ticks": 43200,
          "durationTicks": 119
        },
        {
          "time": 135,
          "midi": 64,
          "name": "E4",
          "velocity": 0.7086614173228346,
          "duration": 0.37187499999998863,
          "ticks": 43200,
          "durationTicks": 119
        },
        {
          "time": 135,
          "midi": 57,
          "name": "A3",
          "velocity": 0.7244094488188977,
          "duration": 0.37187499999998863,
          "ticks": 43200,
          "durationTicks": 119
        },
        {
          "time": 135.5625,
          "midi": 57,
          "name": "A3",
          "velocity": 1,
          "duration": 0.18437499999998863,
          "ticks": 43380,
          "durationTicks": 59
        },
        {
          "time": 135.75,
          "midi": 69,
          "name": "A4",
          "velocity": 1,
          "duration": 0.37187499999998863,
          "ticks": 43440,
          "durationTicks": 119
        },
        {
          "time": 136.125,
          "midi": 74,
          "name": "D5",
          "velocity": 0.49606299212598426,
          "duration": 0.37187499999998863,
          "ticks": 43560,
          "durationTicks": 119
        },
        {
          "time": 136.125,
          "midi": 66,
          "name": "F#4",
          "velocity": 1,
          "duration": 0.37187499999998863,
          "ticks": 43560,
          "durationTicks": 119
        },
        {
          "time": 136.125,
          "midi": 57,
          "name": "A3",
          "velocity": 0.5433070866141733,
          "duration": 0.37187499999998863,
          "ticks": 43560,
          "durationTicks": 119
        },
        {
          "time": 136.5,
          "midi": 73,
          "name": "C#5",
          "velocity": 1,
          "duration": 0.37187499999998863,
          "ticks": 43680,
          "durationTicks": 119
        },
        {
          "time": 136.5,
          "midi": 57,
          "name": "A3",
          "velocity": 0.49606299212598426,
          "duration": 0.37187499999998863,
          "ticks": 43680,
          "durationTicks": 119
        },
        {
          "time": 136.5,
          "midi": 64,
          "name": "E4",
          "velocity": 0.9763779527559056,
          "duration": 0.37187499999998863,
          "ticks": 43680,
          "durationTicks": 119
        },
        {
          "time": 137.0625,
          "midi": 57,
          "name": "A3",
          "velocity": 1,
          "duration": 0.18437499999998863,
          "ticks": 43860,
          "durationTicks": 59
        },
        {
          "time": 137.25,
          "midi": 61,
          "name": "C#4",
          "velocity": 1,
          "duration": 0.18437499999998863,
          "ticks": 43920,
          "durationTicks": 59
        },
        {
          "time": 137.25,
          "midi": 66,
          "name": "F#4",
          "velocity": 1,
          "duration": 0.18437499999998863,
          "ticks": 43920,
          "durationTicks": 59
        },
        {
          "time": 137.625,
          "midi": 64,
          "name": "E4",
          "velocity": 1,
          "duration": 0.18437499999998863,
          "ticks": 44040,
          "durationTicks": 59
        },
        {
          "time": 137.625,
          "midi": 61,
          "name": "C#4",
          "velocity": 1,
          "duration": 0.18437499999998863,
          "ticks": 44040,
          "durationTicks": 59
        },
        {
          "time": 138,
          "midi": 59,
          "name": "B3",
          "velocity": 0.7401574803149606,
          "duration": 0.18437499999998863,
          "ticks": 44160,
          "durationTicks": 59
        },
        {
          "time": 138,
          "midi": 62,
          "name": "D4",
          "velocity": 0.9763779527559056,
          "duration": 0.18437499999998863,
          "ticks": 44160,
          "durationTicks": 59
        },
        {
          "time": 138.375,
          "midi": 52,
          "name": "E3",
          "velocity": 0.9763779527559056,
          "duration": 0.18437499999998863,
          "ticks": 44280,
          "durationTicks": 59
        },
        {
          "time": 138.375,
          "midi": 59,
          "name": "B3",
          "velocity": 1,
          "duration": 0.18437499999998863,
          "ticks": 44280,
          "durationTicks": 59
        },
        {
          "time": 138.75,
          "midi": 57,
          "name": "A3",
          "velocity": 1,
          "duration": 0.18437499999998863,
          "ticks": 44400,
          "durationTicks": 59
        },
        {
          "time": 139.125,
          "midi": 50,
          "name": "D3",
          "velocity": 0.5354330708661418,
          "duration": 0.18437499999998863,
          "ticks": 44520,
          "durationTicks": 59
        },
        {
          "time": 139.125,
          "midi": 66,
          "name": "F#4",
          "velocity": 1,
          "duration": 0.18437499999998863,
          "ticks": 44520,
          "durationTicks": 59
        },
        {
          "time": 139.125,
          "midi": 57,
          "name": "A3",
          "velocity": 0.5118110236220472,
          "duration": 0.18437499999998863,
          "ticks": 44520,
          "durationTicks": 59
        },
        {
          "time": 139.5,
          "midi": 66,
          "name": "F#4",
          "velocity": 1,
          "duration": 0.37187499999998863,
          "ticks": 44640,
          "durationTicks": 119
        },
        {
          "time": 139.5,
          "midi": 50,
          "name": "D3",
          "velocity": 0.6220472440944882,
          "duration": 0.37187499999998863,
          "ticks": 44640,
          "durationTicks": 119
        },
        {
          "time": 139.5,
          "midi": 57,
          "name": "A3",
          "velocity": 0.6141732283464567,
          "duration": 0.37187499999998863,
          "ticks": 44640,
          "durationTicks": 119
        },
        {
          "time": 140.0625,
          "midi": 50,
          "name": "D3",
          "velocity": 1,
          "duration": 0.18437499999998863,
          "ticks": 44820,
          "durationTicks": 59
        },
        {
          "time": 140.25,
          "midi": 62,
          "name": "D4",
          "velocity": 0.937007874015748,
          "duration": 0.37187499999998863,
          "ticks": 44880,
          "durationTicks": 119
        },
        {
          "time": 140.8125,
          "midi": 50,
          "name": "D3",
          "velocity": 1,
          "duration": 0.18437499999998863,
          "ticks": 45060,
          "durationTicks": 59
        },
        {
          "time": 141,
          "midi": 69,
          "name": "A4",
          "velocity": 1,
          "duration": 0.37187499999998863,
          "ticks": 45120,
          "durationTicks": 119
        },
        {
          "time": 141,
          "midi": 57,
          "name": "A3",
          "velocity": 0.7637795275590551,
          "duration": 0.37187499999998863,
          "ticks": 45120,
          "durationTicks": 119
        },
        {
          "time": 141.5625,
          "midi": 57,
          "name": "A3",
          "velocity": 1,
          "duration": 0.18437499999998863,
          "ticks": 45300,
          "durationTicks": 59
        },
        {
          "time": 141.75,
          "midi": 69,
          "name": "A4",
          "velocity": 1,
          "duration": 0.37187499999998863,
          "ticks": 45360,
          "durationTicks": 119
        },
        {
          "time": 142.3125,
          "midi": 57,
          "name": "A3",
          "velocity": 1,
          "duration": 0.18437499999998863,
          "ticks": 45540,
          "durationTicks": 59
        },
        {
          "time": 142.5,
          "midi": 50,
          "name": "D3",
          "velocity": 0.6535433070866141,
          "duration": 0.37187499999998863,
          "ticks": 45600,
          "durationTicks": 119
        },
        {
          "time": 142.5,
          "midi": 62,
          "name": "D4",
          "velocity": 1,
          "duration": 0.37187499999998863,
          "ticks": 45600,
          "durationTicks": 119
        },
        {
          "time": 143.625,
          "midi": 74,
          "name": "D5",
          "velocity": 0.5905511811023622,
          "duration": 0.37187499999998863,
          "ticks": 45960,
          "durationTicks": 119
        },
        {
          "time": 143.625,
          "midi": 57,
          "name": "A3",
          "velocity": 0.47244094488188976,
          "duration": 0.37187499999998863,
          "ticks": 45960,
          "durationTicks": 119
        },
        {
          "time": 143.625,
          "midi": 66,
          "name": "F#4",
          "velocity": 1,
          "duration": 0.37187499999998863,
          "ticks": 45960,
          "durationTicks": 119
        },
        {
          "time": 144,
          "midi": 73,
          "name": "C#5",
          "velocity": 0.5905511811023622,
          "duration": 0.37187499999998863,
          "ticks": 46080,
          "durationTicks": 119
        },
        {
          "time": 144,
          "midi": 57,
          "name": "A3",
          "velocity": 0.6614173228346457,
          "duration": 0.37187499999998863,
          "ticks": 46080,
          "durationTicks": 119
        },
        {
          "time": 144,
          "midi": 64,
          "name": "E4",
          "velocity": 0.7401574803149606,
          "duration": 0.37187499999998863,
          "ticks": 46080,
          "durationTicks": 119
        },
        {
          "time": 144.75,
          "midi": 54,
          "name": "F#3",
          "velocity": 1,
          "duration": 0.09062499999998863,
          "ticks": 46320,
          "durationTicks": 29
        },
        {
          "time": 144.84375,
          "midi": 57,
          "name": "A3",
          "velocity": 1,
          "duration": 0.09062499999998863,
          "ticks": 46350,
          "durationTicks": 29
        },
        {
          "time": 144.9375,
          "midi": 55,
          "name": "G3",
          "velocity": 1,
          "duration": 0.09062499999998863,
          "ticks": 46380,
          "durationTicks": 29
        },
        {
          "time": 145.03125,
          "midi": 54,
          "name": "F#3",
          "velocity": 0.9763779527559056,
          "duration": 0.09062499999998863,
          "ticks": 46410,
          "durationTicks": 29
        },
        {
          "time": 145.125,
          "midi": 52,
          "name": "E3",
          "velocity": 1,
          "duration": 0.09062499999998863,
          "ticks": 46440,
          "durationTicks": 29
        },
        {
          "time": 145.21875,
          "midi": 54,
          "name": "F#3",
          "velocity": 1,
          "duration": 0.09062499999998863,
          "ticks": 46470,
          "durationTicks": 29
        },
        {
          "time": 145.3125,
          "midi": 55,
          "name": "G3",
          "velocity": 1,
          "duration": 0.09062499999998863,
          "ticks": 46500,
          "durationTicks": 29
        },
        {
          "time": 145.40625,
          "midi": 54,
          "name": "F#3",
          "velocity": 1,
          "duration": 0.09062499999998863,
          "ticks": 46530,
          "durationTicks": 29
        },
        {
          "time": 145.5,
          "midi": 54,
          "name": "F#3",
          "velocity": 0.905511811023622,
          "duration": 0.09062499999998863,
          "ticks": 46560,
          "durationTicks": 29
        },
        {
          "time": 145.59375,
          "midi": 49,
          "name": "C#3",
          "velocity": 0.937007874015748,
          "duration": 0.09062499999998863,
          "ticks": 46590,
          "durationTicks": 29
        },
        {
          "time": 145.6875,
          "midi": 50,
          "name": "D3",
          "velocity": 0.6614173228346457,
          "duration": 0.09062499999998863,
          "ticks": 46620,
          "durationTicks": 29
        },
        {
          "time": 145.78125,
          "midi": 52,
          "name": "E3",
          "velocity": 1,
          "duration": 0.09062499999998863,
          "ticks": 46650,
          "durationTicks": 29
        },
        {
          "time": 145.875,
          "midi": 54,
          "name": "F#3",
          "velocity": 1,
          "duration": 0.09062499999998863,
          "ticks": 46680,
          "durationTicks": 29
        },
        {
          "time": 145.96875,
          "midi": 52,
          "name": "E3",
          "velocity": 1,
          "duration": 0.09062499999998863,
          "ticks": 46710,
          "durationTicks": 29
        },
        {
          "time": 146.0625,
          "midi": 54,
          "name": "F#3",
          "velocity": 0.905511811023622,
          "duration": 0.09062499999998863,
          "ticks": 46740,
          "durationTicks": 29
        },
        {
          "time": 146.15625,
          "midi": 55,
          "name": "G3",
          "velocity": 0.7401574803149606,
          "duration": 0.09062499999998863,
          "ticks": 46770,
          "durationTicks": 29
        },
        {
          "time": 146.25,
          "midi": 57,
          "name": "A3",
          "velocity": 0.6220472440944882,
          "duration": 0.09062499999998863,
          "ticks": 46800,
          "durationTicks": 29
        },
        {
          "time": 146.34375,
          "midi": 66,
          "name": "F#4",
          "velocity": 0.7401574803149606,
          "duration": 0.09062499999998863,
          "ticks": 46830,
          "durationTicks": 29
        },
        {
          "time": 146.4375,
          "midi": 64,
          "name": "E4",
          "velocity": 0.8031496062992126,
          "duration": 0.09062499999998863,
          "ticks": 46860,
          "durationTicks": 29
        },
        {
          "time": 146.53125,
          "midi": 62,
          "name": "D4",
          "velocity": 0.905511811023622,
          "duration": 0.09062499999998863,
          "ticks": 46890,
          "durationTicks": 29
        },
        {
          "time": 146.625,
          "midi": 61,
          "name": "C#4",
          "velocity": 1,
          "duration": 0.09062499999998863,
          "ticks": 46920,
          "durationTicks": 29
        },
        {
          "time": 146.71875,
          "midi": 62,
          "name": "D4",
          "velocity": 0.8031496062992126,
          "duration": 0.09062499999998863,
          "ticks": 46950,
          "durationTicks": 29
        },
        {
          "time": 146.8125,
          "midi": 64,
          "name": "E4",
          "velocity": 1,
          "duration": 0.09062499999998863,
          "ticks": 46980,
          "durationTicks": 29
        },
        {
          "time": 146.90625,
          "midi": 66,
          "name": "F#4",
          "velocity": 0.6929133858267716,
          "duration": 0.09062499999998863,
          "ticks": 47010,
          "durationTicks": 29
        },
        {
          "time": 147,
          "midi": 55,
          "name": "G3",
          "velocity": 0.7795275590551181,
          "duration": 0.09062499999998863,
          "ticks": 47040,
          "durationTicks": 29
        },
        {
          "time": 147.09375,
          "midi": 57,
          "name": "A3",
          "velocity": 0.7795275590551181,
          "duration": 0.09062499999998863,
          "ticks": 47070,
          "durationTicks": 29
        },
        {
          "time": 147.1875,
          "midi": 59,
          "name": "B3",
          "velocity": 0.8031496062992126,
          "duration": 0.09062499999998863,
          "ticks": 47100,
          "durationTicks": 29
        },
        {
          "time": 147.28125,
          "midi": 60,
          "name": "C4",
          "velocity": 0.7637795275590551,
          "duration": 0.09062499999998863,
          "ticks": 47130,
          "durationTicks": 29
        },
        {
          "time": 147.375,
          "midi": 62,
          "name": "D4",
          "velocity": 0.8503937007874016,
          "duration": 0.09062499999998863,
          "ticks": 47160,
          "durationTicks": 29
        },
        {
          "time": 147.46875,
          "midi": 64,
          "name": "E4",
          "velocity": 0.6377952755905512,
          "duration": 0.09062499999998863,
          "ticks": 47190,
          "durationTicks": 29
        },
        {
          "time": 147.5625,
          "midi": 66,
          "name": "F#4",
          "velocity": 0.7401574803149606,
          "duration": 0.09062499999998863,
          "ticks": 47220,
          "durationTicks": 29
        },
        {
          "time": 147.65625,
          "midi": 67,
          "name": "G4",
          "velocity": 0.8503937007874016,
          "duration": 0.09062499999998863,
          "ticks": 47250,
          "durationTicks": 29
        },
        {
          "time": 147.75,
          "midi": 55,
          "name": "G3",
          "velocity": 0.7401574803149606,
          "duration": 0.09062499999998863,
          "ticks": 47280,
          "durationTicks": 29
        },
        {
          "time": 147.84375,
          "midi": 57,
          "name": "A3",
          "velocity": 0.8267716535433071,
          "duration": 0.09062499999998863,
          "ticks": 47310,
          "durationTicks": 29
        },
        {
          "time": 147.9375,
          "midi": 59,
          "name": "B3",
          "velocity": 0.7795275590551181,
          "duration": 0.09062499999998863,
          "ticks": 47340,
          "durationTicks": 29
        },
        {
          "time": 148.03125,
          "midi": 60,
          "name": "C4",
          "velocity": 0.8031496062992126,
          "duration": 0.09062499999998863,
          "ticks": 47370,
          "durationTicks": 29
        },
        {
          "time": 148.125,
          "midi": 62,
          "name": "D4",
          "velocity": 0.7244094488188977,
          "duration": 0.09062499999998863,
          "ticks": 47400,
          "durationTicks": 29
        },
        {
          "time": 148.21875,
          "midi": 64,
          "name": "E4",
          "velocity": 0.7244094488188977,
          "duration": 0.09062499999998863,
          "ticks": 47430,
          "durationTicks": 29
        },
        {
          "time": 148.3125,
          "midi": 66,
          "name": "F#4",
          "velocity": 0.6929133858267716,
          "duration": 0.09062499999998863,
          "ticks": 47460,
          "durationTicks": 29
        },
        {
          "time": 148.40625,
          "midi": 67,
          "name": "G4",
          "velocity": 0.905511811023622,
          "duration": 0.09062499999998863,
          "ticks": 47490,
          "durationTicks": 29
        },
        {
          "time": 148.5,
          "midi": 59,
          "name": "B3",
          "velocity": 0.7086614173228346,
          "duration": 0.09062499999998863,
          "ticks": 47520,
          "durationTicks": 29
        },
        {
          "time": 148.59375,
          "midi": 61,
          "name": "C#4",
          "velocity": 1,
          "duration": 0.09062499999998863,
          "ticks": 47550,
          "durationTicks": 29
        },
        {
          "time": 148.6875,
          "midi": 62,
          "name": "D4",
          "velocity": 0.905511811023622,
          "duration": 0.09062499999998863,
          "ticks": 47580,
          "durationTicks": 29
        },
        {
          "time": 148.78125,
          "midi": 64,
          "name": "E4",
          "velocity": 0.9763779527559056,
          "duration": 0.09062499999998863,
          "ticks": 47610,
          "durationTicks": 29
        },
        {
          "time": 148.875,
          "midi": 59,
          "name": "B3",
          "velocity": 0.937007874015748,
          "duration": 0.09062499999998863,
          "ticks": 47640,
          "durationTicks": 29
        },
        {
          "time": 148.96875,
          "midi": 61,
          "name": "C#4",
          "velocity": 1,
          "duration": 0.09062499999998863,
          "ticks": 47670,
          "durationTicks": 29
        },
        {
          "time": 149.0625,
          "midi": 62,
          "name": "D4",
          "velocity": 1,
          "duration": 0.09062499999998863,
          "ticks": 47700,
          "durationTicks": 29
        },
        {
          "time": 149.15625,
          "midi": 64,
          "name": "E4",
          "velocity": 0.9763779527559056,
          "duration": 0.09062499999998863,
          "ticks": 47730,
          "durationTicks": 29
        },
        {
          "time": 149.25,
          "midi": 52,
          "name": "E3",
          "velocity": 0.9763779527559056,
          "duration": 0.09062499999998863,
          "ticks": 47760,
          "durationTicks": 29
        },
        {
          "time": 149.34375,
          "midi": 54,
          "name": "F#3",
          "velocity": 1,
          "duration": 0.09062499999998863,
          "ticks": 47790,
          "durationTicks": 29
        },
        {
          "time": 149.4375,
          "midi": 55,
          "name": "G3",
          "velocity": 0.7086614173228346,
          "duration": 0.09062499999998863,
          "ticks": 47820,
          "durationTicks": 29
        },
        {
          "time": 149.53125,
          "midi": 57,
          "name": "A3",
          "velocity": 0.7637795275590551,
          "duration": 0.09062499999998863,
          "ticks": 47850,
          "durationTicks": 29
        },
        {
          "time": 149.625,
          "midi": 59,
          "name": "B3",
          "velocity": 1,
          "duration": 0.09062499999998863,
          "ticks": 47880,
          "durationTicks": 29
        },
        {
          "time": 149.71875,
          "midi": 61,
          "name": "C#4",
          "velocity": 0.9763779527559056,
          "duration": 0.09062499999998863,
          "ticks": 47910,
          "durationTicks": 29
        },
        {
          "time": 149.8125,
          "midi": 61,
          "name": "C#4",
          "velocity": 1,
          "duration": 0.09062499999998863,
          "ticks": 47940,
          "durationTicks": 29
        },
        {
          "time": 149.90625,
          "midi": 61,
          "name": "C#4",
          "velocity": 1,
          "duration": 0.09062499999998863,
          "ticks": 47970,
          "durationTicks": 29
        },
        {
          "time": 150,
          "midi": 54,
          "name": "F#3",
          "velocity": 1,
          "duration": 0.09062499999998863,
          "ticks": 48000,
          "durationTicks": 29
        },
        {
          "time": 150.0875,
          "midi": 55,
          "name": "G3",
          "velocity": 0.7637795275590551,
          "duration": 0.09062500000001705,
          "ticks": 48028,
          "durationTicks": 29
        },
        {
          "time": 150.18125,
          "midi": 57,
          "name": "A3",
          "velocity": 0.905511811023622,
          "duration": 0.09062500000001705,
          "ticks": 48058,
          "durationTicks": 29
        },
        {
          "time": 150.275,
          "midi": 59,
          "name": "B3",
          "velocity": 0.8503937007874016,
          "duration": 0.09062500000001705,
          "ticks": 48088,
          "durationTicks": 29
        },
        {
          "time": 150.36875,
          "midi": 61,
          "name": "C#4",
          "velocity": 0.905511811023622,
          "duration": 0.09062500000001705,
          "ticks": 48118,
          "durationTicks": 29
        },
        {
          "time": 150.4625,
          "midi": 62,
          "name": "D4",
          "velocity": 0.7244094488188977,
          "duration": 0.09062500000001705,
          "ticks": 48148,
          "durationTicks": 29
        },
        {
          "time": 150.55625,
          "midi": 64,
          "name": "E4",
          "velocity": 1,
          "duration": 0.09062500000001705,
          "ticks": 48178,
          "durationTicks": 29
        },
        {
          "time": 150.65,
          "midi": 66,
          "name": "F#4",
          "velocity": 0.8031496062992126,
          "duration": 0.09062500000001705,
          "ticks": 48208,
          "durationTicks": 29
        },
        {
          "time": 150.74375,
          "midi": 57,
          "name": "A3",
          "velocity": 0.8031496062992126,
          "duration": 0.09062500000001705,
          "ticks": 48238,
          "durationTicks": 29
        },
        {
          "time": 150.8375,
          "midi": 59,
          "name": "B3",
          "velocity": 0.6614173228346457,
          "duration": 0.09062500000001705,
          "ticks": 48268,
          "durationTicks": 29
        },
        {
          "time": 150.93125,
          "midi": 61,
          "name": "C#4",
          "velocity": 0.8267716535433071,
          "duration": 0.09062500000001705,
          "ticks": 48298,
          "durationTicks": 29
        },
        {
          "time": 151.025,
          "midi": 62,
          "name": "D4",
          "velocity": 0.6614173228346457,
          "duration": 0.09062500000001705,
          "ticks": 48328,
          "durationTicks": 29
        },
        {
          "time": 151.11875,
          "midi": 64,
          "name": "E4",
          "velocity": 0.905511811023622,
          "duration": 0.09062500000001705,
          "ticks": 48358,
          "durationTicks": 29
        },
        {
          "time": 151.2125,
          "midi": 66,
          "name": "F#4",
          "velocity": 0.6614173228346457,
          "duration": 0.09062500000001705,
          "ticks": 48388,
          "durationTicks": 29
        },
        {
          "time": 151.30625,
          "midi": 67,
          "name": "G4",
          "velocity": 0.7795275590551181,
          "duration": 0.09062500000001705,
          "ticks": 48418,
          "durationTicks": 29
        },
        {
          "time": 151.4,
          "midi": 69,
          "name": "A4",
          "velocity": 0.8503937007874016,
          "duration": 0.09062500000001705,
          "ticks": 48448,
          "durationTicks": 29
        },
        {
          "time": 151.49375,
          "midi": 59,
          "name": "B3",
          "velocity": 0.8818897637795275,
          "duration": 0.09062500000001705,
          "ticks": 48478,
          "durationTicks": 29
        },
        {
          "time": 151.5875,
          "midi": 61,
          "name": "C#4",
          "velocity": 1,
          "duration": 0.09062500000001705,
          "ticks": 48508,
          "durationTicks": 29
        },
        {
          "time": 151.68125,
          "midi": 62,
          "name": "D4",
          "velocity": 0.7795275590551181,
          "duration": 0.09062500000001705,
          "ticks": 48538,
          "durationTicks": 29
        },
        {
          "time": 151.775,
          "midi": 64,
          "name": "E4",
          "velocity": 0.7401574803149606,
          "duration": 0.09062500000001705,
          "ticks": 48568,
          "durationTicks": 29
        },
        {
          "time": 151.86875,
          "midi": 66,
          "name": "F#4",
          "velocity": 0.7086614173228346,
          "duration": 0.09062500000001705,
          "ticks": 48598,
          "durationTicks": 29
        },
        {
          "time": 151.9625,
          "midi": 67,
          "name": "G4",
          "velocity": 0.7086614173228346,
          "duration": 0.09062500000001705,
          "ticks": 48628,
          "durationTicks": 29
        },
        {
          "time": 152.05625,
          "midi": 69,
          "name": "A4",
          "velocity": 0.7401574803149606,
          "duration": 0.09062500000001705,
          "ticks": 48658,
          "durationTicks": 29
        },
        {
          "time": 152.15,
          "midi": 71,
          "name": "B4",
          "velocity": 0.905511811023622,
          "duration": 0.09062500000001705,
          "ticks": 48688,
          "durationTicks": 29
        },
        {
          "time": 152.24375,
          "midi": 52,
          "name": "E3",
          "velocity": 0.8818897637795275,
          "duration": 0.09062500000001705,
          "ticks": 48718,
          "durationTicks": 29
        },
        {
          "time": 152.3375,
          "midi": 54,
          "name": "F#3",
          "velocity": 0.905511811023622,
          "duration": 0.09062500000001705,
          "ticks": 48748,
          "durationTicks": 29
        },
        {
          "time": 152.43125,
          "midi": 55,
          "name": "G3",
          "velocity": 0.7244094488188977,
          "duration": 0.09062500000001705,
          "ticks": 48778,
          "durationTicks": 29
        },
        {
          "time": 152.525,
          "midi": 57,
          "name": "A3",
          "velocity": 0.8267716535433071,
          "duration": 0.09062500000001705,
          "ticks": 48808,
          "durationTicks": 29
        },
        {
          "time": 152.61875,
          "midi": 59,
          "name": "B3",
          "velocity": 0.937007874015748,
          "duration": 0.09062500000001705,
          "ticks": 48838,
          "durationTicks": 29
        },
        {
          "time": 152.7125,
          "midi": 61,
          "name": "C#4",
          "velocity": 0.9763779527559056,
          "duration": 0.09062500000001705,
          "ticks": 48868,
          "durationTicks": 29
        },
        {
          "time": 152.80625,
          "midi": 62,
          "name": "D4",
          "velocity": 0.9763779527559056,
          "duration": 0.09062500000001705,
          "ticks": 48898,
          "durationTicks": 29
        },
        {
          "time": 152.9,
          "midi": 64,
          "name": "E4",
          "velocity": 0.9763779527559056,
          "duration": 0.09062500000001705,
          "ticks": 48928,
          "durationTicks": 29
        },
        {
          "time": 152.99375,
          "midi": 49,
          "name": "C#3",
          "velocity": 0.9763779527559056,
          "duration": 0.09062500000001705,
          "ticks": 48958,
          "durationTicks": 29
        },
        {
          "time": 153.0875,
          "midi": 50,
          "name": "D3",
          "velocity": 0.8503937007874016,
          "duration": 0.09062500000001705,
          "ticks": 48988,
          "durationTicks": 29
        },
        {
          "time": 153.18125,
          "midi": 52,
          "name": "E3",
          "velocity": 0.8267716535433071,
          "duration": 0.09062500000001705,
          "ticks": 49018,
          "durationTicks": 29
        },
        {
          "time": 153.275,
          "midi": 54,
          "name": "F#3",
          "velocity": 1,
          "duration": 0.09062500000001705,
          "ticks": 49048,
          "durationTicks": 29
        },
        {
          "time": 153.36875,
          "midi": 49,
          "name": "C#3",
          "velocity": 0.9763779527559056,
          "duration": 0.09062500000001705,
          "ticks": 49078,
          "durationTicks": 29
        },
        {
          "time": 153.4625,
          "midi": 50,
          "name": "D3",
          "velocity": 0.905511811023622,
          "duration": 0.09062500000001705,
          "ticks": 49108,
          "durationTicks": 29
        },
        {
          "time": 153.55625,
          "midi": 52,
          "name": "E3",
          "velocity": 0.9763779527559056,
          "duration": 0.09062500000001705,
          "ticks": 49138,
          "durationTicks": 29
        },
        {
          "time": 153.65,
          "midi": 54,
          "name": "F#3",
          "velocity": 1,
          "duration": 0.09062500000001705,
          "ticks": 49168,
          "durationTicks": 29
        },
        {
          "time": 153.75,
          "midi": 50,
          "name": "D3",
          "velocity": 1,
          "duration": 0.09062499999998863,
          "ticks": 49200,
          "durationTicks": 29
        },
        {
          "time": 153.8375,
          "midi": 49,
          "name": "C#3",
          "velocity": 1,
          "duration": 0.09062500000001705,
          "ticks": 49228,
          "durationTicks": 29
        },
        {
          "time": 153.93125,
          "midi": 50,
          "name": "D3",
          "velocity": 0.8503937007874016,
          "duration": 0.09062500000001705,
          "ticks": 49258,
          "durationTicks": 29
        },
        {
          "time": 154.025,
          "midi": 52,
          "name": "E3",
          "velocity": 0.905511811023622,
          "duration": 0.09062500000001705,
          "ticks": 49288,
          "durationTicks": 29
        },
        {
          "time": 154.11875,
          "midi": 54,
          "name": "F#3",
          "velocity": 0.8818897637795275,
          "duration": 0.09062500000001705,
          "ticks": 49318,
          "durationTicks": 29
        },
        {
          "time": 154.2125,
          "midi": 55,
          "name": "G3",
          "velocity": 0.8503937007874016,
          "duration": 0.09062500000001705,
          "ticks": 49348,
          "durationTicks": 29
        },
        {
          "time": 154.30625,
          "midi": 57,
          "name": "A3",
          "velocity": 1,
          "duration": 0.09062500000001705,
          "ticks": 49378,
          "durationTicks": 29
        },
        {
          "time": 154.4,
          "midi": 59,
          "name": "B3",
          "velocity": 1,
          "duration": 0.09062500000001705,
          "ticks": 49408,
          "durationTicks": 29
        },
        {
          "time": 154.5,
          "midi": 60,
          "name": "C4",
          "velocity": 0.8818897637795275,
          "duration": 0.09062499999998863,
          "ticks": 49440,
          "durationTicks": 29
        },
        {
          "time": 154.59375,
          "midi": 57,
          "name": "A3",
          "velocity": 1,
          "duration": 0.09062499999998863,
          "ticks": 49470,
          "durationTicks": 29
        },
        {
          "time": 154.6875,
          "midi": 54,
          "name": "F#3",
          "velocity": 1,
          "duration": 0.09062499999998863,
          "ticks": 49500,
          "durationTicks": 29
        },
        {
          "time": 154.78125,
          "midi": 51,
          "name": "D#3",
          "velocity": 1,
          "duration": 0.09062499999998863,
          "ticks": 49530,
          "durationTicks": 29
        },
        {
          "time": 154.875,
          "midi": 48,
          "name": "C3",
          "velocity": 1,
          "duration": 0.09062499999998863,
          "ticks": 49560,
          "durationTicks": 29
        },
        {
          "time": 154.96875,
          "midi": 51,
          "name": "D#3",
          "velocity": 1,
          "duration": 0.09062499999998863,
          "ticks": 49590,
          "durationTicks": 29
        },
        {
          "time": 155.0625,
          "midi": 54,
          "name": "F#3",
          "velocity": 1,
          "duration": 0.09062499999998863,
          "ticks": 49620,
          "durationTicks": 29
        },
        {
          "time": 155.15625,
          "midi": 57,
          "name": "A3",
          "velocity": 0.7795275590551181,
          "duration": 0.09062499999998863,
          "ticks": 49650,
          "durationTicks": 29
        },
        {
          "time": 155.25,
          "midi": 49,
          "name": "C#3",
          "velocity": 1,
          "duration": 0.09062499999998863,
          "ticks": 49680,
          "durationTicks": 29
        },
        {
          "time": 155.34375,
          "midi": 49,
          "name": "C#3",
          "velocity": 1,
          "duration": 0.09062499999998863,
          "ticks": 49710,
          "durationTicks": 29
        },
        {
          "time": 155.4375,
          "midi": 61,
          "name": "C#4",
          "velocity": 1,
          "duration": 0.09062499999998863,
          "ticks": 49740,
          "durationTicks": 29
        },
        {
          "time": 155.53125,
          "midi": 61,
          "name": "C#4",
          "velocity": 1,
          "duration": 0.09062499999998863,
          "ticks": 49770,
          "durationTicks": 29
        },
        {
          "time": 155.625,
          "midi": 49,
          "name": "C#3",
          "velocity": 0.937007874015748,
          "duration": 0.09062499999998863,
          "ticks": 49800,
          "durationTicks": 29
        },
        {
          "time": 155.71875,
          "midi": 53,
          "name": "F3",
          "velocity": 0.7637795275590551,
          "duration": 0.09062499999998863,
          "ticks": 49830,
          "durationTicks": 29
        },
        {
          "time": 155.8125,
          "midi": 56,
          "name": "G#3",
          "velocity": 0.8031496062992126,
          "duration": 0.09062499999998863,
          "ticks": 49860,
          "durationTicks": 29
        },
        {
          "time": 155.90625,
          "midi": 61,
          "name": "C#4",
          "velocity": 0.5905511811023622,
          "duration": 0.09062499999998863,
          "ticks": 49890,
          "durationTicks": 29
        },
        {
          "time": 156,
          "midi": 49,
          "name": "C#3",
          "velocity": 1,
          "duration": 0.09062499999998863,
          "ticks": 49920,
          "durationTicks": 29
        },
        {
          "time": 156.09375,
          "midi": 52,
          "name": "E3",
          "velocity": 1,
          "duration": 0.09062499999998863,
          "ticks": 49950,
          "durationTicks": 29
        },
        {
          "time": 156.1875,
          "midi": 55,
          "name": "G3",
          "velocity": 1,
          "duration": 0.09062499999998863,
          "ticks": 49980,
          "durationTicks": 29
        },
        {
          "time": 156.28125,
          "midi": 58,
          "name": "A#3",
          "velocity": 1,
          "duration": 0.09062499999998863,
          "ticks": 50010,
          "durationTicks": 29
        },
        {
          "time": 156.375,
          "midi": 49,
          "name": "C#3",
          "velocity": 1,
          "duration": 0.09062499999998863,
          "ticks": 50040,
          "durationTicks": 29
        },
        {
          "time": 156.46875,
          "midi": 52,
          "name": "E3",
          "velocity": 1,
          "duration": 0.09062499999998863,
          "ticks": 50070,
          "durationTicks": 29
        },
        {
          "time": 156.5625,
          "midi": 55,
          "name": "G3",
          "velocity": 1,
          "duration": 0.09062499999998863,
          "ticks": 50100,
          "durationTicks": 29
        },
        {
          "time": 156.65625,
          "midi": 58,
          "name": "A#3",
          "velocity": 1,
          "duration": 0.09062499999998863,
          "ticks": 50130,
          "durationTicks": 29
        },
        {
          "time": 156.75,
          "midi": 50,
          "name": "D3",
          "velocity": 0.9763779527559056,
          "duration": 0.09062499999998863,
          "ticks": 50160,
          "durationTicks": 29
        },
        {
          "time": 156.84375,
          "midi": 54,
          "name": "F#3",
          "velocity": 1,
          "duration": 0.09062499999998863,
          "ticks": 50190,
          "durationTicks": 29
        },
        {
          "time": 156.9375,
          "midi": 59,
          "name": "B3",
          "velocity": 0.937007874015748,
          "duration": 0.09062499999998863,
          "ticks": 50220,
          "durationTicks": 29
        },
        {
          "time": 157.03125,
          "midi": 62,
          "name": "D4",
          "velocity": 0.937007874015748,
          "duration": 0.09062499999998863,
          "ticks": 50250,
          "durationTicks": 29
        },
        {
          "time": 157.125,
          "midi": 59,
          "name": "B3",
          "velocity": 1,
          "duration": 0.09062499999998863,
          "ticks": 50280,
          "durationTicks": 29
        },
        {
          "time": 157.21875,
          "midi": 57,
          "name": "A3",
          "velocity": 0.9763779527559056,
          "duration": 0.09062499999998863,
          "ticks": 50310,
          "durationTicks": 29
        },
        {
          "time": 157.3125,
          "midi": 54,
          "name": "F#3",
          "velocity": 0.8818897637795275,
          "duration": 0.09062499999998863,
          "ticks": 50340,
          "durationTicks": 29
        },
        {
          "time": 157.40625,
          "midi": 59,
          "name": "B3",
          "velocity": 1,
          "duration": 0.09062499999998863,
          "ticks": 50370,
          "durationTicks": 29
        },
        {
          "time": 157.5,
          "midi": 56,
          "name": "G#3",
          "velocity": 1,
          "duration": 0.09062499999998863,
          "ticks": 50400,
          "durationTicks": 29
        },
        {
          "time": 157.59375,
          "midi": 61,
          "name": "C#4",
          "velocity": 1,
          "duration": 0.09062499999998863,
          "ticks": 50430,
          "durationTicks": 29
        },
        {
          "time": 157.6875,
          "midi": 59,
          "name": "B3",
          "velocity": 0.905511811023622,
          "duration": 0.09062499999998863,
          "ticks": 50460,
          "durationTicks": 29
        },
        {
          "time": 157.78125,
          "midi": 56,
          "name": "G#3",
          "velocity": 1,
          "duration": 0.09062499999998863,
          "ticks": 50490,
          "durationTicks": 29
        },
        {
          "time": 157.875,
          "midi": 56,
          "name": "G#3",
          "velocity": 1,
          "duration": 0.09062499999998863,
          "ticks": 50520,
          "durationTicks": 29
        },
        {
          "time": 157.96875,
          "midi": 62,
          "name": "D4",
          "velocity": 0.8031496062992126,
          "duration": 0.09062499999998863,
          "ticks": 50550,
          "durationTicks": 29
        },
        {
          "time": 158.0625,
          "midi": 61,
          "name": "C#4",
          "velocity": 1,
          "duration": 0.09062499999998863,
          "ticks": 50580,
          "durationTicks": 29
        },
        {
          "time": 158.15625,
          "midi": 56,
          "name": "G#3",
          "velocity": 1,
          "duration": 0.09062499999998863,
          "ticks": 50610,
          "durationTicks": 29
        },
        {
          "time": 158.25,
          "midi": 57,
          "name": "A3",
          "velocity": 0.9763779527559056,
          "duration": 0.09062499999998863,
          "ticks": 50640,
          "durationTicks": 29
        },
        {
          "time": 158.34375,
          "midi": 62,
          "name": "D4",
          "velocity": 0.9763779527559056,
          "duration": 0.09062499999998863,
          "ticks": 50670,
          "durationTicks": 29
        },
        {
          "time": 158.4375,
          "midi": 61,
          "name": "C#4",
          "velocity": 1,
          "duration": 0.09062499999998863,
          "ticks": 50700,
          "durationTicks": 29
        },
        {
          "time": 158.53125,
          "midi": 57,
          "name": "A3",
          "velocity": 0.9763779527559056,
          "duration": 0.09062499999998863,
          "ticks": 50730,
          "durationTicks": 29
        },
        {
          "time": 158.625,
          "midi": 57,
          "name": "A3",
          "velocity": 1,
          "duration": 0.09062499999998863,
          "ticks": 50760,
          "durationTicks": 29
        },
        {
          "time": 158.71875,
          "midi": 64,
          "name": "E4",
          "velocity": 1,
          "duration": 0.09062499999998863,
          "ticks": 50790,
          "durationTicks": 29
        },
        {
          "time": 158.8125,
          "midi": 62,
          "name": "D4",
          "velocity": 1,
          "duration": 0.09062499999998863,
          "ticks": 50820,
          "durationTicks": 29
        },
        {
          "time": 158.90625,
          "midi": 57,
          "name": "A3",
          "velocity": 1,
          "duration": 0.09062499999998863,
          "ticks": 50850,
          "durationTicks": 29
        },
        {
          "time": 159,
          "midi": 59,
          "name": "B3",
          "velocity": 0.8267716535433071,
          "duration": 0.09062499999998863,
          "ticks": 50880,
          "durationTicks": 29
        },
        {
          "time": 159.09375,
          "midi": 64,
          "name": "E4",
          "velocity": 0.905511811023622,
          "duration": 0.09062499999998863,
          "ticks": 50910,
          "durationTicks": 29
        },
        {
          "time": 159.1875,
          "midi": 62,
          "name": "D4",
          "velocity": 0.9763779527559056,
          "duration": 0.09062499999998863,
          "ticks": 50940,
          "durationTicks": 29
        },
        {
          "time": 159.28125,
          "midi": 59,
          "name": "B3",
          "velocity": 1,
          "duration": 0.09062499999998863,
          "ticks": 50970,
          "durationTicks": 29
        },
        {
          "time": 159.375,
          "midi": 59,
          "name": "B3",
          "velocity": 0.8503937007874016,
          "duration": 0.09062499999998863,
          "ticks": 51000,
          "durationTicks": 29
        },
        {
          "time": 159.46875,
          "midi": 66,
          "name": "F#4",
          "velocity": 1,
          "duration": 0.09062499999998863,
          "ticks": 51030,
          "durationTicks": 29
        },
        {
          "time": 159.5625,
          "midi": 64,
          "name": "E4",
          "velocity": 0.937007874015748,
          "duration": 0.09062499999998863,
          "ticks": 51060,
          "durationTicks": 29
        },
        {
          "time": 159.65625,
          "midi": 59,
          "name": "B3",
          "velocity": 1,
          "duration": 0.09062499999998863,
          "ticks": 51090,
          "durationTicks": 29
        },
        {
          "time": 159.75,
          "midi": 59,
          "name": "B3",
          "velocity": 0.8503937007874016,
          "duration": 0.09062499999998863,
          "ticks": 51120,
          "durationTicks": 29
        },
        {
          "time": 159.84375,
          "midi": 64,
          "name": "E4",
          "velocity": 0.8031496062992126,
          "duration": 0.09062499999998863,
          "ticks": 51150,
          "durationTicks": 29
        },
        {
          "time": 159.9375,
          "midi": 62,
          "name": "D4",
          "velocity": 0.937007874015748,
          "duration": 0.09062499999998863,
          "ticks": 51180,
          "durationTicks": 29
        },
        {
          "time": 160.03125,
          "midi": 59,
          "name": "B3",
          "velocity": 0.8503937007874016,
          "duration": 0.09062499999998863,
          "ticks": 51210,
          "durationTicks": 29
        },
        {
          "time": 160.125,
          "midi": 59,
          "name": "B3",
          "velocity": 1,
          "duration": 0.09062499999998863,
          "ticks": 51240,
          "durationTicks": 29
        },
        {
          "time": 160.21875,
          "midi": 66,
          "name": "F#4",
          "velocity": 1,
          "duration": 0.09062499999998863,
          "ticks": 51270,
          "durationTicks": 29
        },
        {
          "time": 160.3125,
          "midi": 64,
          "name": "E4",
          "velocity": 1,
          "duration": 0.09062499999998863,
          "ticks": 51300,
          "durationTicks": 29
        },
        {
          "time": 160.40625,
          "midi": 59,
          "name": "B3",
          "velocity": 1,
          "duration": 0.09062499999998863,
          "ticks": 51330,
          "durationTicks": 29
        },
        {
          "time": 160.5,
          "midi": 59,
          "name": "B3",
          "velocity": 0.8267716535433071,
          "duration": 0.09062499999998863,
          "ticks": 51360,
          "durationTicks": 29
        },
        {
          "time": 160.59375,
          "midi": 64,
          "name": "E4",
          "velocity": 0.905511811023622,
          "duration": 0.09062499999998863,
          "ticks": 51390,
          "durationTicks": 29
        },
        {
          "time": 160.6875,
          "midi": 62,
          "name": "D4",
          "velocity": 0.9763779527559056,
          "duration": 0.09062499999998863,
          "ticks": 51420,
          "durationTicks": 29
        },
        {
          "time": 160.78125,
          "midi": 59,
          "name": "B3",
          "velocity": 1,
          "duration": 0.09062499999998863,
          "ticks": 51450,
          "durationTicks": 29
        },
        {
          "time": 160.875,
          "midi": 59,
          "name": "B3",
          "velocity": 0.8503937007874016,
          "duration": 0.09062499999998863,
          "ticks": 51480,
          "durationTicks": 29
        },
        {
          "time": 160.96875,
          "midi": 66,
          "name": "F#4",
          "velocity": 1,
          "duration": 0.09062499999998863,
          "ticks": 51510,
          "durationTicks": 29
        },
        {
          "time": 161.0625,
          "midi": 64,
          "name": "E4",
          "velocity": 0.937007874015748,
          "duration": 0.09062499999998863,
          "ticks": 51540,
          "durationTicks": 29
        },
        {
          "time": 161.15625,
          "midi": 59,
          "name": "B3",
          "velocity": 1,
          "duration": 0.09062499999998863,
          "ticks": 51570,
          "durationTicks": 29
        },
        {
          "time": 161.25,
          "midi": 59,
          "name": "B3",
          "velocity": 0.8503937007874016,
          "duration": 0.09062499999998863,
          "ticks": 51600,
          "durationTicks": 29
        },
        {
          "time": 161.34375,
          "midi": 64,
          "name": "E4",
          "velocity": 0.8031496062992126,
          "duration": 0.09062499999998863,
          "ticks": 51630,
          "durationTicks": 29
        },
        {
          "time": 161.4375,
          "midi": 62,
          "name": "D4",
          "velocity": 0.937007874015748,
          "duration": 0.09062499999998863,
          "ticks": 51660,
          "durationTicks": 29
        },
        {
          "time": 161.53125,
          "midi": 59,
          "name": "B3",
          "velocity": 0.8503937007874016,
          "duration": 0.09062499999998863,
          "ticks": 51690,
          "durationTicks": 29
        },
        {
          "time": 161.625,
          "midi": 59,
          "name": "B3",
          "velocity": 1,
          "duration": 0.09062499999998863,
          "ticks": 51720,
          "durationTicks": 29
        },
        {
          "time": 161.71875,
          "midi": 66,
          "name": "F#4",
          "velocity": 1,
          "duration": 0.09062499999998863,
          "ticks": 51750,
          "durationTicks": 29
        },
        {
          "time": 161.8125,
          "midi": 64,
          "name": "E4",
          "velocity": 1,
          "duration": 0.09062499999998863,
          "ticks": 51780,
          "durationTicks": 29
        },
        {
          "time": 161.90625,
          "midi": 59,
          "name": "B3",
          "velocity": 1,
          "duration": 0.09062499999998863,
          "ticks": 51810,
          "durationTicks": 29
        },
        {
          "time": 162,
          "midi": 61,
          "name": "C#4",
          "velocity": 1,
          "duration": 0.09062499999998863,
          "ticks": 51840,
          "durationTicks": 29
        },
        {
          "time": 162.09375,
          "midi": 61,
          "name": "C#4",
          "velocity": 1,
          "duration": 0.09062499999998863,
          "ticks": 51870,
          "durationTicks": 29
        },
        {
          "time": 162.1875,
          "midi": 61,
          "name": "C#4",
          "velocity": 1,
          "duration": 0.09062499999998863,
          "ticks": 51900,
          "durationTicks": 29
        },
        {
          "time": 162.28125,
          "midi": 61,
          "name": "C#4",
          "velocity": 1,
          "duration": 0.09062499999998863,
          "ticks": 51930,
          "durationTicks": 29
        },
        {
          "time": 162.375,
          "midi": 61,
          "name": "C#4",
          "velocity": 1,
          "duration": 0.09062499999998863,
          "ticks": 51960,
          "durationTicks": 29
        },
        {
          "time": 162.46875,
          "midi": 61,
          "name": "C#4",
          "velocity": 1,
          "duration": 0.09062499999998863,
          "ticks": 51990,
          "durationTicks": 29
        },
        {
          "time": 162.5625,
          "midi": 62,
          "name": "D4",
          "velocity": 0.8818897637795275,
          "duration": 0.09062499999998863,
          "ticks": 52020,
          "durationTicks": 29
        },
        {
          "time": 162.65625,
          "midi": 64,
          "name": "E4",
          "velocity": 1,
          "duration": 0.09062499999998863,
          "ticks": 52050,
          "durationTicks": 29
        },
        {
          "time": 162.75,
          "midi": 66,
          "name": "F#4",
          "velocity": 1,
          "duration": 0.09062499999998863,
          "ticks": 52080,
          "durationTicks": 29
        },
        {
          "time": 162.84375,
          "midi": 54,
          "name": "F#3",
          "velocity": 1,
          "duration": 0.09062499999998863,
          "ticks": 52110,
          "durationTicks": 29
        },
        {
          "time": 162.9375,
          "midi": 66,
          "name": "F#4",
          "velocity": 1,
          "duration": 0.09062499999998863,
          "ticks": 52140,
          "durationTicks": 29
        },
        {
          "time": 163.03125,
          "midi": 66,
          "name": "F#4",
          "velocity": 1,
          "duration": 0.09062499999998863,
          "ticks": 52170,
          "durationTicks": 29
        },
        {
          "time": 163.125,
          "midi": 66,
          "name": "F#4",
          "velocity": 1,
          "duration": 0.09062499999998863,
          "ticks": 52200,
          "durationTicks": 29
        },
        {
          "time": 163.21875,
          "midi": 66,
          "name": "F#4",
          "velocity": 1,
          "duration": 0.09062499999998863,
          "ticks": 52230,
          "durationTicks": 29
        },
        {
          "time": 163.3125,
          "midi": 64,
          "name": "E4",
          "velocity": 1,
          "duration": 0.09062499999998863,
          "ticks": 52260,
          "durationTicks": 29
        },
        {
          "time": 163.40625,
          "midi": 62,
          "name": "D4",
          "velocity": 0.937007874015748,
          "duration": 0.09062499999998863,
          "ticks": 52290,
          "durationTicks": 29
        },
        {
          "time": 163.5,
          "midi": 61,
          "name": "C#4",
          "velocity": 1,
          "duration": 0.09062499999998863,
          "ticks": 52320,
          "durationTicks": 29
        },
        {
          "time": 163.59375,
          "midi": 61,
          "name": "C#4",
          "velocity": 1,
          "duration": 0.09062499999998863,
          "ticks": 52350,
          "durationTicks": 29
        },
        {
          "time": 163.6875,
          "midi": 61,
          "name": "C#4",
          "velocity": 1,
          "duration": 0.09062499999998863,
          "ticks": 52380,
          "durationTicks": 29
        },
        {
          "time": 163.78125,
          "midi": 61,
          "name": "C#4",
          "velocity": 1,
          "duration": 0.09062499999998863,
          "ticks": 52410,
          "durationTicks": 29
        },
        {
          "time": 163.875,
          "midi": 61,
          "name": "C#4",
          "velocity": 1,
          "duration": 0.09062499999998863,
          "ticks": 52440,
          "durationTicks": 29
        },
        {
          "time": 163.96875,
          "midi": 61,
          "name": "C#4",
          "velocity": 1,
          "duration": 0.09062499999998863,
          "ticks": 52470,
          "durationTicks": 29
        },
        {
          "time": 164.0625,
          "midi": 62,
          "name": "D4",
          "velocity": 1,
          "duration": 0.09062499999998863,
          "ticks": 52500,
          "durationTicks": 29
        },
        {
          "time": 164.15625,
          "midi": 62,
          "name": "D4",
          "velocity": 0.9763779527559056,
          "duration": 0.09062499999998863,
          "ticks": 52530,
          "durationTicks": 29
        },
        {
          "time": 164.25,
          "midi": 69,
          "name": "A4",
          "velocity": 0.7086614173228346,
          "duration": 0.09062499999998863,
          "ticks": 52560,
          "durationTicks": 29
        },
        {
          "time": 164.34375,
          "midi": 69,
          "name": "A4",
          "velocity": 0.8818897637795275,
          "duration": 0.09062499999998863,
          "ticks": 52590,
          "durationTicks": 29
        },
        {
          "time": 164.4375,
          "midi": 69,
          "name": "A4",
          "velocity": 0.8267716535433071,
          "duration": 0.09062499999998863,
          "ticks": 52620,
          "durationTicks": 29
        },
        {
          "time": 164.53125,
          "midi": 69,
          "name": "A4",
          "velocity": 1,
          "duration": 0.09062499999998863,
          "ticks": 52650,
          "durationTicks": 29
        },
        {
          "time": 164.625,
          "midi": 69,
          "name": "A4",
          "velocity": 1,
          "duration": 0.09062499999998863,
          "ticks": 52680,
          "durationTicks": 29
        },
        {
          "time": 164.71875,
          "midi": 69,
          "name": "A4",
          "velocity": 1,
          "duration": 0.09062499999998863,
          "ticks": 52710,
          "durationTicks": 29
        },
        {
          "time": 164.8125,
          "midi": 71,
          "name": "B4",
          "velocity": 1,
          "duration": 0.09062499999998863,
          "ticks": 52740,
          "durationTicks": 29
        },
        {
          "time": 164.90625,
          "midi": 71,
          "name": "B4",
          "velocity": 1,
          "duration": 0.09062499999998863,
          "ticks": 52770,
          "durationTicks": 29
        },
        {
          "time": 165,
          "midi": 69,
          "name": "A4",
          "velocity": 1,
          "duration": 0.7468749999999886,
          "ticks": 52800,
          "durationTicks": 239
        },
        {
          "time": 165.75,
          "midi": 64,
          "name": "E4",
          "velocity": 1,
          "duration": 0.18437499999998863,
          "ticks": 53040,
          "durationTicks": 59
        },
        {
          "time": 166.125,
          "midi": 64,
          "name": "E4",
          "velocity": 1,
          "duration": 0.18437499999998863,
          "ticks": 53160,
          "durationTicks": 59
        },
        {
          "time": 166.5,
          "midi": 57,
          "name": "A3",
          "velocity": 1,
          "duration": 0.09062499999998863,
          "ticks": 53280,
          "durationTicks": 29
        },
        {
          "time": 166.6875,
          "midi": 57,
          "name": "A3",
          "velocity": 1,
          "duration": 0.09062499999998863,
          "ticks": 53340,
          "durationTicks": 29
        },
        {
          "time": 166.78125,
          "midi": 59,
          "name": "B3",
          "velocity": 1,
          "duration": 0.09062499999998863,
          "ticks": 53370,
          "durationTicks": 29
        },
        {
          "time": 166.875,
          "midi": 61,
          "name": "C#4",
          "velocity": 1,
          "duration": 0.09062499999998863,
          "ticks": 53400,
          "durationTicks": 29
        },
        {
          "time": 167.0625,
          "midi": 61,
          "name": "C#4",
          "velocity": 1,
          "duration": 0.09062499999998863,
          "ticks": 53460,
          "durationTicks": 29
        },
        {
          "time": 167.15625,
          "midi": 62,
          "name": "D4",
          "velocity": 1,
          "duration": 0.09062499999998863,
          "ticks": 53490,
          "durationTicks": 29
        },
        {
          "time": 167.25,
          "midi": 64,
          "name": "E4",
          "velocity": 1,
          "duration": 0.09062499999998863,
          "ticks": 53520,
          "durationTicks": 29
        },
        {
          "time": 167.4375,
          "midi": 64,
          "name": "E4",
          "velocity": 1,
          "duration": 0.09062499999998863,
          "ticks": 53580,
          "durationTicks": 29
        },
        {
          "time": 167.53125,
          "midi": 66,
          "name": "F#4",
          "velocity": 1,
          "duration": 0.09062499999998863,
          "ticks": 53610,
          "durationTicks": 29
        },
        {
          "time": 167.625,
          "midi": 68,
          "name": "G#4",
          "velocity": 1,
          "duration": 0.09062499999998863,
          "ticks": 53640,
          "durationTicks": 29
        },
        {
          "time": 167.8125,
          "midi": 64,
          "name": "E4",
          "velocity": 1,
          "duration": 0.05937500000001705,
          "ticks": 53700,
          "durationTicks": 19
        },
        {
          "time": 167.875,
          "midi": 66,
          "name": "F#4",
          "velocity": 1,
          "duration": 0.05937499999998863,
          "ticks": 53720,
          "durationTicks": 19
        },
        {
          "time": 167.9375,
          "midi": 68,
          "name": "G#4",
          "velocity": 1,
          "duration": 0.05937499999998863,
          "ticks": 53740,
          "durationTicks": 19
        },
        {
          "time": 168,
          "midi": 61,
          "name": "C#4",
          "velocity": 1,
          "duration": 1.1187500000000057,
          "ticks": 53760,
          "durationTicks": 179
        },
        {
          "time": 169.125,
          "midi": 63,
          "name": "D#4",
          "velocity": 1,
          "duration": 0.3687500000000057,
          "ticks": 53940,
          "durationTicks": 59
        },
        {
          "time": 169.5,
          "midi": 64,
          "name": "E4",
          "velocity": 1,
          "duration": 2.9937500000000057,
          "ticks": 54000,
          "durationTicks": 479
        },
        {
          "time": 171.75,
          "midi": 62,
          "name": "D4",
          "velocity": 1,
          "duration": 0.3687500000000057,
          "ticks": 54360,
          "durationTicks": 59
        },
        {
          "time": 172.125,
          "midi": 64,
          "name": "E4",
          "velocity": 1,
          "duration": 0.3687500000000057,
          "ticks": 54420,
          "durationTicks": 59
        },
        {
          "time": 172.5,
          "midi": 66,
          "name": "F#4",
          "velocity": 1,
          "duration": 1.4937500000000057,
          "ticks": 54480,
          "durationTicks": 239
        },
        {
          "time": 174,
          "midi": 58,
          "name": "A#3",
          "velocity": 1,
          "duration": 1.1187500000000057,
          "ticks": 54720,
          "durationTicks": 179
        },
        {
          "time": 175.125,
          "midi": 59,
          "name": "B3",
          "velocity": 1,
          "duration": 0.3687500000000057,
          "ticks": 54900,
          "durationTicks": 59
        },
        {
          "time": 175.5,
          "midi": 58,
          "name": "A#3",
          "velocity": 1,
          "duration": 0.7437500000000057,
          "ticks": 54960,
          "durationTicks": 119
        },
        {
          "time": 176.25,
          "midi": 59,
          "name": "B3",
          "velocity": 1,
          "duration": 0.3687500000000057,
          "ticks": 55080,
          "durationTicks": 59
        },
        {
          "time": 176.625,
          "midi": 71,
          "name": "B4",
          "velocity": 0.7401574803149606,
          "duration": 0.3687500000000057,
          "ticks": 55140,
          "durationTicks": 59
        },
        {
          "time": 177,
          "midi": 69,
          "name": "A4",
          "velocity": 1,
          "duration": 0.09062499999998863,
          "ticks": 55200,
          "durationTicks": 29
        },
        {
          "time": 177.09375,
          "midi": 64,
          "name": "E4",
          "velocity": 1,
          "duration": 0.09062499999998863,
          "ticks": 55230,
          "durationTicks": 29
        },
        {
          "time": 177.1875,
          "midi": 64,
          "name": "E4",
          "velocity": 1,
          "duration": 0.09062499999998863,
          "ticks": 55260,
          "durationTicks": 29
        },
        {
          "time": 177.28125,
          "midi": 64,
          "name": "E4",
          "velocity": 1,
          "duration": 0.09062499999998863,
          "ticks": 55290,
          "durationTicks": 29
        },
        {
          "time": 177.375,
          "midi": 66,
          "name": "F#4",
          "velocity": 1,
          "duration": 0.09062499999998863,
          "ticks": 55320,
          "durationTicks": 29
        },
        {
          "time": 177.46875,
          "midi": 66,
          "name": "F#4",
          "velocity": 1,
          "duration": 0.09062499999998863,
          "ticks": 55350,
          "durationTicks": 29
        },
        {
          "time": 177.5625,
          "midi": 66,
          "name": "F#4",
          "velocity": 1,
          "duration": 0.09062499999998863,
          "ticks": 55380,
          "durationTicks": 29
        },
        {
          "time": 177.65625,
          "midi": 66,
          "name": "F#4",
          "velocity": 1,
          "duration": 0.09062499999998863,
          "ticks": 55410,
          "durationTicks": 29
        },
        {
          "time": 177.75,
          "midi": 64,
          "name": "E4",
          "velocity": 1,
          "duration": 0.09062499999998863,
          "ticks": 55440,
          "durationTicks": 29
        },
        {
          "time": 177.84375,
          "midi": 69,
          "name": "A4",
          "velocity": 1,
          "duration": 0.09062499999998863,
          "ticks": 55470,
          "durationTicks": 29
        },
        {
          "time": 177.9375,
          "midi": 69,
          "name": "A4",
          "velocity": 1,
          "duration": 0.09062499999998863,
          "ticks": 55500,
          "durationTicks": 29
        },
        {
          "time": 178.03125,
          "midi": 69,
          "name": "A4",
          "velocity": 1,
          "duration": 0.09062499999998863,
          "ticks": 55530,
          "durationTicks": 29
        },
        {
          "time": 178.125,
          "midi": 68,
          "name": "G#4",
          "velocity": 1,
          "duration": 0.09062499999998863,
          "ticks": 55560,
          "durationTicks": 29
        },
        {
          "time": 178.21875,
          "midi": 68,
          "name": "G#4",
          "velocity": 1,
          "duration": 0.09062499999998863,
          "ticks": 55590,
          "durationTicks": 29
        },
        {
          "time": 178.3125,
          "midi": 68,
          "name": "G#4",
          "velocity": 1,
          "duration": 0.09062499999998863,
          "ticks": 55620,
          "durationTicks": 29
        },
        {
          "time": 178.40625,
          "midi": 68,
          "name": "G#4",
          "velocity": 1,
          "duration": 0.09062499999998863,
          "ticks": 55650,
          "durationTicks": 29
        },
        {
          "time": 178.5,
          "midi": 68,
          "name": "G#4",
          "velocity": 1,
          "duration": 0.09062499999998863,
          "ticks": 55680,
          "durationTicks": 29
        },
        {
          "time": 178.59375,
          "midi": 68,
          "name": "G#4",
          "velocity": 1,
          "duration": 0.09062499999998863,
          "ticks": 55710,
          "durationTicks": 29
        },
        {
          "time": 178.6875,
          "midi": 59,
          "name": "B3",
          "velocity": 1,
          "duration": 0.09062499999998863,
          "ticks": 55740,
          "durationTicks": 29
        },
        {
          "time": 178.78125,
          "midi": 59,
          "name": "B3",
          "velocity": 1,
          "duration": 0.09062499999998863,
          "ticks": 55770,
          "durationTicks": 29
        },
        {
          "time": 178.875,
          "midi": 68,
          "name": "G#4",
          "velocity": 1,
          "duration": 0.09062499999998863,
          "ticks": 55800,
          "durationTicks": 29
        },
        {
          "time": 178.96875,
          "midi": 68,
          "name": "G#4",
          "velocity": 1,
          "duration": 0.09062499999998863,
          "ticks": 55830,
          "durationTicks": 29
        },
        {
          "time": 179.0625,
          "midi": 59,
          "name": "B3",
          "velocity": 1,
          "duration": 0.09062499999998863,
          "ticks": 55860,
          "durationTicks": 29
        },
        {
          "time": 179.15625,
          "midi": 59,
          "name": "B3",
          "velocity": 1,
          "duration": 0.09062499999998863,
          "ticks": 55890,
          "durationTicks": 29
        },
        {
          "time": 179.25,
          "midi": 69,
          "name": "A4",
          "velocity": 0.937007874015748,
          "duration": 0.09062499999998863,
          "ticks": 55920,
          "durationTicks": 29
        },
        {
          "time": 179.34375,
          "midi": 69,
          "name": "A4",
          "velocity": 1,
          "duration": 0.09062499999998863,
          "ticks": 55950,
          "durationTicks": 29
        },
        {
          "time": 179.4375,
          "midi": 61,
          "name": "C#4",
          "velocity": 1,
          "duration": 0.09062499999998863,
          "ticks": 55980,
          "durationTicks": 29
        },
        {
          "time": 179.53125,
          "midi": 61,
          "name": "C#4",
          "velocity": 1,
          "duration": 0.09062499999998863,
          "ticks": 56010,
          "durationTicks": 29
        },
        {
          "time": 179.625,
          "midi": 69,
          "name": "A4",
          "velocity": 1,
          "duration": 0.18437499999998863,
          "ticks": 56040,
          "durationTicks": 59
        },
        {
          "time": 179.625,
          "midi": 57,
          "name": "A3",
          "velocity": 0.5669291338582677,
          "duration": 0.18437499999998863,
          "ticks": 56040,
          "durationTicks": 59
        },
        {
          "time": 179.625,
          "midi": 64,
          "name": "E4",
          "velocity": 0.6062992125984252,
          "duration": 0.18437499999998863,
          "ticks": 56040,
          "durationTicks": 59
        },
        {
          "time": 180.75,
          "midi": 64,
          "name": "E4",
          "velocity": 1,
          "duration": 0.9375,
          "ticks": 56400,
          "durationTicks": 300
        },
        {
          "time": 180.75,
          "midi": 61,
          "name": "C#4",
          "velocity": 1,
          "duration": 0.9375,
          "ticks": 56400,
          "durationTicks": 300
        },
        {
          "time": 181.6875,
          "midi": 62,
          "name": "D4",
          "velocity": 1,
          "duration": 0.09062499999998863,
          "ticks": 56700,
          "durationTicks": 29
        },
        {
          "time": 181.6875,
          "midi": 65,
          "name": "F4",
          "velocity": 1,
          "duration": 0.09062499999998863,
          "ticks": 56700,
          "durationTicks": 29
        },
        {
          "time": 181.875,
          "midi": 62,
          "name": "D4",
          "velocity": 1,
          "duration": 0.09062499999998863,
          "ticks": 56760,
          "durationTicks": 29
        },
        {
          "time": 181.875,
          "midi": 65,
          "name": "F4",
          "velocity": 1,
          "duration": 0.09062499999998863,
          "ticks": 56760,
          "durationTicks": 29
        },
        {
          "time": 182.0625,
          "midi": 74,
          "name": "D5",
          "velocity": 1,
          "duration": 0.09062499999998863,
          "ticks": 56820,
          "durationTicks": 29
        },
        {
          "time": 182.25,
          "midi": 74,
          "name": "D5",
          "velocity": 1,
          "duration": 0.09062499999998863,
          "ticks": 56880,
          "durationTicks": 29
        },
        {
          "time": 182.4375,
          "midi": 65,
          "name": "F4",
          "velocity": 1,
          "duration": 0.09062499999998863,
          "ticks": 56940,
          "durationTicks": 29
        },
        {
          "time": 182.625,
          "midi": 65,
          "name": "F4",
          "velocity": 1,
          "duration": 0.09062499999998863,
          "ticks": 57000,
          "durationTicks": 29
        },
        {
          "time": 182.8125,
          "midi": 69,
          "name": "A4",
          "velocity": 1,
          "duration": 0.09062499999998863,
          "ticks": 57060,
          "durationTicks": 29
        },
        {
          "time": 183,
          "midi": 69,
          "name": "A4",
          "velocity": 1,
          "duration": 0.09062499999998863,
          "ticks": 57120,
          "durationTicks": 29
        },
        {
          "time": 183.1875,
          "midi": 62,
          "name": "D4",
          "velocity": 1,
          "duration": 0.09062499999998863,
          "ticks": 57180,
          "durationTicks": 29
        },
        {
          "time": 183.375,
          "midi": 62,
          "name": "D4",
          "velocity": 1,
          "duration": 0.18437499999998863,
          "ticks": 57240,
          "durationTicks": 59
        },
        {
          "time": 183.5625,
          "midi": 65,
          "name": "F4",
          "velocity": 1,
          "duration": 0.18437499999998863,
          "ticks": 57300,
          "durationTicks": 59
        },
        {
          "time": 183.75,
          "midi": 65,
          "name": "F4",
          "velocity": 1,
          "duration": 0.18437499999998863,
          "ticks": 57360,
          "durationTicks": 59
        },
        {
          "time": 183.9375,
          "midi": 57,
          "name": "A3",
          "velocity": 1,
          "duration": 0.18437499999998863,
          "ticks": 57420,
          "durationTicks": 59
        },
        {
          "time": 184.125,
          "midi": 57,
          "name": "A3",
          "velocity": 1,
          "duration": 0.18437499999998863,
          "ticks": 57480,
          "durationTicks": 59
        },
        {
          "time": 184.3125,
          "midi": 62,
          "name": "D4",
          "velocity": 1,
          "duration": 0.18437499999998863,
          "ticks": 57540,
          "durationTicks": 59
        },
        {
          "time": 184.5,
          "midi": 62,
          "name": "D4",
          "velocity": 1,
          "duration": 0.18437499999998863,
          "ticks": 57600,
          "durationTicks": 59
        },
        {
          "time": 184.6875,
          "midi": 53,
          "name": "F3",
          "velocity": 1,
          "duration": 0.18437499999998863,
          "ticks": 57660,
          "durationTicks": 59
        },
        {
          "time": 184.875,
          "midi": 53,
          "name": "F3",
          "velocity": 1,
          "duration": 0.18437499999998863,
          "ticks": 57720,
          "durationTicks": 59
        },
        {
          "time": 185.0625,
          "midi": 57,
          "name": "A3",
          "velocity": 1,
          "duration": 0.18437499999998863,
          "ticks": 57780,
          "durationTicks": 59
        },
        {
          "time": 185.25,
          "midi": 57,
          "name": "A3",
          "velocity": 1,
          "duration": 0.18437499999998863,
          "ticks": 57840,
          "durationTicks": 59
        },
        {
          "time": 185.4375,
          "midi": 50,
          "name": "D3",
          "velocity": 1,
          "duration": 0.18437499999998863,
          "ticks": 57900,
          "durationTicks": 59
        },
        {
          "time": 185.625,
          "midi": 50,
          "name": "D3",
          "velocity": 1,
          "duration": 0.18437499999998863,
          "ticks": 57960,
          "durationTicks": 59
        },
        {
          "time": 185.8125,
          "midi": 62,
          "name": "D4",
          "velocity": 1,
          "duration": 0.1875,
          "ticks": 58020,
          "durationTicks": 60
        },
        {
          "time": 185.8125,
          "midi": 50,
          "name": "D3",
          "velocity": 1,
          "duration": 0.18437499999998863,
          "ticks": 58020,
          "durationTicks": 59
        },
        {
          "time": 186,
          "midi": 62,
          "name": "D4",
          "velocity": 1,
          "duration": 0.1875,
          "ticks": 58080,
          "durationTicks": 60
        },
        {
          "time": 186,
          "midi": 50,
          "name": "D3",
          "velocity": 1,
          "duration": 0.18437499999998863,
          "ticks": 58080,
          "durationTicks": 59
        },
        {
          "time": 186.1875,
          "midi": 48,
          "name": "C3",
          "velocity": 1,
          "duration": 0.18437499999998863,
          "ticks": 58140,
          "durationTicks": 59
        },
        {
          "time": 186.375,
          "midi": 48,
          "name": "C3",
          "velocity": 1,
          "duration": 0.18437499999998863,
          "ticks": 58200,
          "durationTicks": 59
        },
        {
          "time": 186.5625,
          "midi": 59,
          "name": "B3",
          "velocity": 1,
          "duration": 0.18437499999998863,
          "ticks": 58260,
          "durationTicks": 59
        },
        {
          "time": 186.75,
          "midi": 59,
          "name": "B3",
          "velocity": 1,
          "duration": 0.18437499999998863,
          "ticks": 58320,
          "durationTicks": 59
        },
        {
          "time": 186.9375,
          "midi": 62,
          "name": "D4",
          "velocity": 1,
          "duration": 0.1875,
          "ticks": 58380,
          "durationTicks": 60
        },
        {
          "time": 186.9375,
          "midi": 58,
          "name": "A#3",
          "velocity": 1,
          "duration": 0.18437499999998863,
          "ticks": 58380,
          "durationTicks": 59
        },
        {
          "time": 187.125,
          "midi": 65,
          "name": "F4",
          "velocity": 1,
          "duration": 0.18437499999998863,
          "ticks": 58440,
          "durationTicks": 59
        },
        {
          "time": 187.3125,
          "midi": 65,
          "name": "F4",
          "velocity": 1,
          "duration": 0.18437499999998863,
          "ticks": 58500,
          "durationTicks": 59
        },
        {
          "time": 187.5,
          "midi": 65,
          "name": "F4",
          "velocity": 1,
          "duration": 0.18437499999998863,
          "ticks": 58560,
          "durationTicks": 59
        },
        {
          "time": 187.6875,
          "midi": 62,
          "name": "D4",
          "velocity": 1,
          "duration": 0.18437499999998863,
          "ticks": 58620,
          "durationTicks": 59
        },
        {
          "time": 187.875,
          "midi": 58,
          "name": "A#3",
          "velocity": 1,
          "duration": 0.18437499999998863,
          "ticks": 58680,
          "durationTicks": 59
        },
        {
          "time": 188.25,
          "midi": 57,
          "name": "A3",
          "velocity": 1,
          "duration": 0.18437499999998863,
          "ticks": 58800,
          "durationTicks": 59
        },
        {
          "time": 195.857136,
          "midi": 62,
          "name": "D4",
          "velocity": 0.7874015748031497,
          "duration": 0.4249995750000153,
          "ticks": 60960,
          "durationTicks": 119
        },
        {
          "time": 196.285707,
          "midi": 63,
          "name": "D#4",
          "velocity": 0.7874015748031497,
          "duration": 0.853570574999992,
          "ticks": 61080,
          "durationTicks": 239
        },
        {
          "time": 197.142849,
          "midi": 62,
          "name": "D4",
          "velocity": 0.7952755905511811,
          "duration": 0.853570574999992,
          "ticks": 61320,
          "durationTicks": 239
        },
        {
          "time": 197.57142,
          "midi": 62,
          "name": "D4",
          "velocity": 0.8031496062992126,
          "duration": 8.142849000000012,
          "ticks": 61440,
          "durationTicks": 2280
        },
        {
          "time": 197.57142,
          "midi": 59,
          "name": "B3",
          "velocity": 0.8031496062992126,
          "duration": 8.142849000000012,
          "ticks": 61440,
          "durationTicks": 2280
        },
        {
          "time": 206.571411,
          "midi": 64,
          "name": "E4",
          "velocity": 0.9763779527559056,
          "duration": 0.2107140749999985,
          "ticks": 63960,
          "durationTicks": 59
        },
        {
          "time": 206.571411,
          "midi": 69,
          "name": "A4",
          "velocity": 1,
          "duration": 0.2107140749999985,
          "ticks": 63960,
          "durationTicks": 59
        },
        {
          "time": 206.999982,
          "midi": 69,
          "name": "A4",
          "velocity": 1,
          "duration": 0.2107140749999985,
          "ticks": 64080,
          "durationTicks": 59
        },
        {
          "time": 206.999982,
          "midi": 66,
          "name": "F#4",
          "velocity": 1,
          "duration": 0.2107140749999985,
          "ticks": 64080,
          "durationTicks": 59
        },
        {
          "time": 207.2142675,
          "midi": 66,
          "name": "F#4",
          "velocity": 1,
          "duration": 0.2107140749999985,
          "ticks": 64140,
          "durationTicks": 59
        },
        {
          "time": 207.2142675,
          "midi": 69,
          "name": "A4",
          "velocity": 1,
          "duration": 0.2107140749999985,
          "ticks": 64140,
          "durationTicks": 59
        },
        {
          "time": 207.428553,
          "midi": 69,
          "name": "A4",
          "velocity": 1,
          "duration": 0.4249995750000153,
          "ticks": 64200,
          "durationTicks": 119
        },
        {
          "time": 207.428553,
          "midi": 66,
          "name": "F#4",
          "velocity": 1,
          "duration": 0.4249995750000153,
          "ticks": 64200,
          "durationTicks": 119
        },
        {
          "time": 212.892834,
          "midi": 55,
          "name": "G3",
          "velocity": 0.7086614173228346,
          "duration": 0.3687500000000057,
          "ticks": 65640,
          "durationTicks": 59
        },
        {
          "time": 213.642834,
          "midi": 67,
          "name": "G4",
          "velocity": 1,
          "duration": 0.3687500000000057,
          "ticks": 65760,
          "durationTicks": 59
        },
        {
          "time": 218.142834,
          "midi": 61,
          "name": "C#4",
          "velocity": 0.9763779527559056,
          "duration": 0.3687500000000057,
          "ticks": 66480,
          "durationTicks": 59
        },
        {
          "time": 218.142834,
          "midi": 64,
          "name": "E4",
          "velocity": 0.905511811023622,
          "duration": 0.3687500000000057,
          "ticks": 66480,
          "durationTicks": 59
        },
        {
          "time": 218.142834,
          "midi": 69,
          "name": "A4",
          "velocity": 1,
          "duration": 0.3687500000000057,
          "ticks": 66480,
          "durationTicks": 59
        },
        {
          "time": 221.142834,
          "midi": 57,
          "name": "A3",
          "velocity": 1,
          "duration": 0.37187499999998863,
          "ticks": 67320,
          "durationTicks": 119
        },
        {
          "time": 221.517834,
          "midi": 57,
          "name": "A3",
          "velocity": 1,
          "duration": 0.37187499999998863,
          "ticks": 67440,
          "durationTicks": 119
        },
        {
          "time": 224.142834,
          "midi": 57,
          "name": "A3",
          "velocity": 1,
          "duration": 0.37187499999998863,
          "ticks": 68280,
          "durationTicks": 119
        },
        {
          "time": 224.517834,
          "midi": 57,
          "name": "A3",
          "velocity": 1,
          "duration": 0.37187499999998863,
          "ticks": 68400,
          "durationTicks": 119
        },
        {
          "time": 224.892834,
          "midi": 54,
          "name": "F#3",
          "velocity": 1,
          "duration": 0.37187499999998863,
          "ticks": 68520,
          "durationTicks": 119
        },
        {
          "time": 225.267834,
          "midi": 54,
          "name": "F#3",
          "velocity": 1,
          "duration": 0.37187499999998863,
          "ticks": 68640,
          "durationTicks": 119
        },
        {
          "time": 225.642834,
          "midi": 55,
          "name": "G3",
          "velocity": 1,
          "duration": 0.37187499999998863,
          "ticks": 68760,
          "durationTicks": 119
        },
        {
          "time": 226.017834,
          "midi": 57,
          "name": "A3",
          "velocity": 1,
          "duration": 0.37187499999998863,
          "ticks": 68880,
          "durationTicks": 119
        },
        {
          "time": 226.392834,
          "midi": 57,
          "name": "A3",
          "velocity": 1,
          "duration": 0.37187499999998863,
          "ticks": 69000,
          "durationTicks": 119
        },
        {
          "time": 226.767834,
          "midi": 55,
          "name": "G3",
          "velocity": 1,
          "duration": 0.37187499999998863,
          "ticks": 69120,
          "durationTicks": 119
        },
        {
          "time": 227.142834,
          "midi": 54,
          "name": "F#3",
          "velocity": 1,
          "duration": 0.37187499999998863,
          "ticks": 69240,
          "durationTicks": 119
        },
        {
          "time": 227.517834,
          "midi": 52,
          "name": "E3",
          "velocity": 1,
          "duration": 0.37187499999998863,
          "ticks": 69360,
          "durationTicks": 119
        },
        {
          "time": 227.892834,
          "midi": 50,
          "name": "D3",
          "velocity": 1,
          "duration": 0.37187499999998863,
          "ticks": 69480,
          "durationTicks": 119
        },
        {
          "time": 228.267834,
          "midi": 50,
          "name": "D3",
          "velocity": 1,
          "duration": 0.37187499999998863,
          "ticks": 69600,
          "durationTicks": 119
        },
        {
          "time": 228.642834,
          "midi": 52,
          "name": "E3",
          "velocity": 1,
          "duration": 0.37187499999998863,
          "ticks": 69720,
          "durationTicks": 119
        },
        {
          "time": 229.017834,
          "midi": 54,
          "name": "F#3",
          "velocity": 1,
          "duration": 0.37187499999998863,
          "ticks": 69840,
          "durationTicks": 119
        },
        {
          "time": 229.392834,
          "midi": 54,
          "name": "F#3",
          "velocity": 1,
          "duration": 0.37187499999998863,
          "ticks": 69960,
          "durationTicks": 119
        },
        {
          "time": 230.142834,
          "midi": 52,
          "name": "E3",
          "velocity": 1,
          "duration": 0.37187499999998863,
          "ticks": 70200,
          "durationTicks": 119
        },
        {
          "time": 230.892834,
          "midi": 54,
          "name": "F#3",
          "velocity": 1,
          "duration": 0.37187499999998863,
          "ticks": 70440,
          "durationTicks": 119
        },
        {
          "time": 231.267834,
          "midi": 54,
          "name": "F#3",
          "velocity": 1,
          "duration": 0.37187499999998863,
          "ticks": 70560,
          "durationTicks": 119
        },
        {
          "time": 231.642834,
          "midi": 55,
          "name": "G3",
          "velocity": 0.9763779527559056,
          "duration": 0.37187499999998863,
          "ticks": 70680,
          "durationTicks": 119
        },
        {
          "time": 232.017834,
          "midi": 57,
          "name": "A3",
          "velocity": 1,
          "duration": 0.37187499999998863,
          "ticks": 70800,
          "durationTicks": 119
        },
        {
          "time": 232.392834,
          "midi": 57,
          "name": "A3",
          "velocity": 1,
          "duration": 0.37187499999998863,
          "ticks": 70920,
          "durationTicks": 119
        },
        {
          "time": 232.767834,
          "midi": 55,
          "name": "G3",
          "velocity": 1,
          "duration": 0.37187499999998863,
          "ticks": 71040,
          "durationTicks": 119
        },
        {
          "time": 233.142834,
          "midi": 54,
          "name": "F#3",
          "velocity": 1,
          "duration": 0.37187499999998863,
          "ticks": 71160,
          "durationTicks": 119
        },
        {
          "time": 233.517834,
          "midi": 52,
          "name": "E3",
          "velocity": 1,
          "duration": 0.37187499999998863,
          "ticks": 71280,
          "durationTicks": 119
        },
        {
          "time": 233.892834,
          "midi": 50,
          "name": "D3",
          "velocity": 0.9763779527559056,
          "duration": 0.37187499999998863,
          "ticks": 71400,
          "durationTicks": 119
        },
        {
          "time": 234.267834,
          "midi": 50,
          "name": "D3",
          "velocity": 1,
          "duration": 0.37187499999998863,
          "ticks": 71520,
          "durationTicks": 119
        },
        {
          "time": 234.642834,
          "midi": 52,
          "name": "E3",
          "velocity": 1,
          "duration": 0.37187499999998863,
          "ticks": 71640,
          "durationTicks": 119
        },
        {
          "time": 235.017834,
          "midi": 54,
          "name": "F#3",
          "velocity": 1,
          "duration": 0.37187499999998863,
          "ticks": 71760,
          "durationTicks": 119
        },
        {
          "time": 235.392834,
          "midi": 52,
          "name": "E3",
          "velocity": 1,
          "duration": 0.37187499999998863,
          "ticks": 71880,
          "durationTicks": 119
        },
        {
          "time": 236.142834,
          "midi": 50,
          "name": "D3",
          "velocity": 1,
          "duration": 0.37187499999998863,
          "ticks": 72120,
          "durationTicks": 119
        },
        {
          "time": 236.892834,
          "midi": 52,
          "name": "E3",
          "velocity": 1,
          "duration": 0.37187499999998863,
          "ticks": 72360,
          "durationTicks": 119
        },
        {
          "time": 237.267834,
          "midi": 52,
          "name": "E3",
          "velocity": 1,
          "duration": 0.37187499999998863,
          "ticks": 72480,
          "durationTicks": 119
        },
        {
          "time": 237.642834,
          "midi": 54,
          "name": "F#3",
          "velocity": 1,
          "duration": 0.37187499999998863,
          "ticks": 72600,
          "durationTicks": 119
        },
        {
          "time": 238.017834,
          "midi": 50,
          "name": "D3",
          "velocity": 1,
          "duration": 0.37187499999998863,
          "ticks": 72720,
          "durationTicks": 119
        },
        {
          "time": 238.392834,
          "midi": 52,
          "name": "E3",
          "velocity": 1,
          "duration": 0.37187499999998863,
          "ticks": 72840,
          "durationTicks": 119
        },
        {
          "time": 238.767834,
          "midi": 54,
          "name": "F#3",
          "velocity": 0.9763779527559056,
          "duration": 0.18437499999998863,
          "ticks": 72960,
          "durationTicks": 59
        },
        {
          "time": 238.955334,
          "midi": 55,
          "name": "G3",
          "velocity": 0.9763779527559056,
          "duration": 0.18437499999998863,
          "ticks": 73020,
          "durationTicks": 59
        },
        {
          "time": 239.142834,
          "midi": 54,
          "name": "F#3",
          "velocity": 0.9763779527559056,
          "duration": 0.37187499999998863,
          "ticks": 73080,
          "durationTicks": 119
        },
        {
          "time": 239.517834,
          "midi": 50,
          "name": "D3",
          "velocity": 0.984251968503937,
          "duration": 0.37187499999998863,
          "ticks": 73200,
          "durationTicks": 119
        },
        {
          "time": 239.892834,
          "midi": 52,
          "name": "E3",
          "velocity": 1,
          "duration": 0.37187499999998863,
          "ticks": 73320,
          "durationTicks": 119
        },
        {
          "time": 240.267834,
          "midi": 54,
          "name": "F#3",
          "velocity": 1,
          "duration": 0.18437499999998863,
          "ticks": 73440,
          "durationTicks": 59
        },
        {
          "time": 240.455334,
          "midi": 55,
          "name": "G3",
          "velocity": 1,
          "duration": 0.18437499999998863,
          "ticks": 73500,
          "durationTicks": 59
        },
        {
          "time": 240.642834,
          "midi": 54,
          "name": "F#3",
          "velocity": 1,
          "duration": 0.37187499999998863,
          "ticks": 73560,
          "durationTicks": 119
        },
        {
          "time": 241.017834,
          "midi": 52,
          "name": "E3",
          "velocity": 1,
          "duration": 0.37187499999998863,
          "ticks": 73680,
          "durationTicks": 119
        },
        {
          "time": 241.392834,
          "midi": 50,
          "name": "D3",
          "velocity": 1,
          "duration": 0.37187499999998863,
          "ticks": 73800,
          "durationTicks": 119
        },
        {
          "time": 241.767834,
          "midi": 52,
          "name": "E3",
          "velocity": 1,
          "duration": 0.37187499999998863,
          "ticks": 73920,
          "durationTicks": 119
        },
        {
          "time": 242.142834,
          "midi": 57,
          "name": "A3",
          "velocity": 1,
          "duration": 0.37187499999998863,
          "ticks": 74040,
          "durationTicks": 119
        },
        {
          "time": 242.517834,
          "midi": 54,
          "name": "F#3",
          "velocity": 1,
          "duration": 0.37187499999998863,
          "ticks": 74160,
          "durationTicks": 119
        },
        {
          "time": 242.892834,
          "midi": 54,
          "name": "F#3",
          "velocity": 1,
          "duration": 0.37187499999998863,
          "ticks": 74280,
          "durationTicks": 119
        },
        {
          "time": 243.267834,
          "midi": 54,
          "name": "F#3",
          "velocity": 1,
          "duration": 0.37187499999998863,
          "ticks": 74400,
          "durationTicks": 119
        },
        {
          "time": 243.642834,
          "midi": 55,
          "name": "G3",
          "velocity": 1,
          "duration": 0.37187499999998863,
          "ticks": 74520,
          "durationTicks": 119
        },
        {
          "time": 244.017834,
          "midi": 57,
          "name": "A3",
          "velocity": 1,
          "duration": 0.37187499999998863,
          "ticks": 74640,
          "durationTicks": 119
        },
        {
          "time": 244.392834,
          "midi": 57,
          "name": "A3",
          "velocity": 1,
          "duration": 0.37187499999998863,
          "ticks": 74760,
          "durationTicks": 119
        },
        {
          "time": 244.767834,
          "midi": 55,
          "name": "G3",
          "velocity": 1,
          "duration": 0.37187499999998863,
          "ticks": 74880,
          "durationTicks": 119
        },
        {
          "time": 245.142834,
          "midi": 54,
          "name": "F#3",
          "velocity": 1,
          "duration": 0.37187499999998863,
          "ticks": 75000,
          "durationTicks": 119
        },
        {
          "time": 245.517834,
          "midi": 52,
          "name": "E3",
          "velocity": 1,
          "duration": 0.37187499999998863,
          "ticks": 75120,
          "durationTicks": 119
        },
        {
          "time": 245.892834,
          "midi": 50,
          "name": "D3",
          "velocity": 0.9921259842519685,
          "duration": 0.37187499999998863,
          "ticks": 75240,
          "durationTicks": 119
        },
        {
          "time": 246.267834,
          "midi": 50,
          "name": "D3",
          "velocity": 0.984251968503937,
          "duration": 0.37187499999998863,
          "ticks": 75360,
          "durationTicks": 119
        },
        {
          "time": 246.642834,
          "midi": 52,
          "name": "E3",
          "velocity": 1,
          "duration": 0.37187499999998863,
          "ticks": 75480,
          "durationTicks": 119
        },
        {
          "time": 247.017834,
          "midi": 54,
          "name": "F#3",
          "velocity": 1,
          "duration": 0.37187499999998863,
          "ticks": 75600,
          "durationTicks": 119
        },
        {
          "time": 247.392834,
          "midi": 52,
          "name": "E3",
          "velocity": 1,
          "duration": 0.37187499999998863,
          "ticks": 75720,
          "durationTicks": 119
        },
        {
          "time": 248.142834,
          "midi": 50,
          "name": "D3",
          "velocity": 1,
          "duration": 0.37187499999998863,
          "ticks": 75960,
          "durationTicks": 119
        },
        {
          "time": 248.892834,
          "midi": 52,
          "name": "E3",
          "velocity": 1,
          "duration": 0.37187499999998863,
          "ticks": 76200,
          "durationTicks": 119
        },
        {
          "time": 249.267834,
          "midi": 52,
          "name": "E3",
          "velocity": 1,
          "duration": 0.37187499999998863,
          "ticks": 76320,
          "durationTicks": 119
        },
        {
          "time": 249.642834,
          "midi": 54,
          "name": "F#3",
          "velocity": 1,
          "duration": 0.37187499999998863,
          "ticks": 76440,
          "durationTicks": 119
        },
        {
          "time": 250.017834,
          "midi": 50,
          "name": "D3",
          "velocity": 1,
          "duration": 0.37187499999998863,
          "ticks": 76560,
          "durationTicks": 119
        },
        {
          "time": 250.392834,
          "midi": 52,
          "name": "E3",
          "velocity": 1,
          "duration": 0.37187499999998863,
          "ticks": 76680,
          "durationTicks": 119
        },
        {
          "time": 250.767834,
          "midi": 54,
          "name": "F#3",
          "velocity": 1,
          "duration": 0.18437499999998863,
          "ticks": 76800,
          "durationTicks": 59
        },
        {
          "time": 250.955334,
          "midi": 55,
          "name": "G3",
          "velocity": 1,
          "duration": 0.18437499999998863,
          "ticks": 76860,
          "durationTicks": 59
        },
        {
          "time": 251.142834,
          "midi": 54,
          "name": "F#3",
          "velocity": 1,
          "duration": 0.37187499999998863,
          "ticks": 76920,
          "durationTicks": 119
        },
        {
          "time": 251.517834,
          "midi": 50,
          "name": "D3",
          "velocity": 1,
          "duration": 0.37187499999998863,
          "ticks": 77040,
          "durationTicks": 119
        },
        {
          "time": 251.892834,
          "midi": 52,
          "name": "E3",
          "velocity": 1,
          "duration": 0.37187499999998863,
          "ticks": 77160,
          "durationTicks": 119
        },
        {
          "time": 252.267834,
          "midi": 54,
          "name": "F#3",
          "velocity": 1,
          "duration": 0.18437499999998863,
          "ticks": 77280,
          "durationTicks": 59
        },
        {
          "time": 252.455334,
          "midi": 55,
          "name": "G3",
          "velocity": 1,
          "duration": 0.18437499999998863,
          "ticks": 77340,
          "durationTicks": 59
        },
        {
          "time": 252.642834,
          "midi": 54,
          "name": "F#3",
          "velocity": 1,
          "duration": 0.37187499999998863,
          "ticks": 77400,
          "durationTicks": 119
        },
        {
          "time": 253.017834,
          "midi": 52,
          "name": "E3",
          "velocity": 1,
          "duration": 0.37187499999998863,
          "ticks": 77520,
          "durationTicks": 119
        },
        {
          "time": 253.392834,
          "midi": 50,
          "name": "D3",
          "velocity": 1,
          "duration": 0.37187499999998863,
          "ticks": 77640,
          "durationTicks": 119
        },
        {
          "time": 253.767834,
          "midi": 52,
          "name": "E3",
          "velocity": 1,
          "duration": 0.37187499999998863,
          "ticks": 77760,
          "durationTicks": 119
        },
        {
          "time": 254.142834,
          "midi": 57,
          "name": "A3",
          "velocity": 0.937007874015748,
          "duration": 0.37187499999998863,
          "ticks": 77880,
          "durationTicks": 119
        },
        {
          "time": 254.517834,
          "midi": 54,
          "name": "F#3",
          "velocity": 1,
          "duration": 0.7468749999999886,
          "ticks": 78000,
          "durationTicks": 239
        },
        {
          "time": 255.267834,
          "midi": 54,
          "name": "F#3",
          "velocity": 1,
          "duration": 0.37187499999998863,
          "ticks": 78240,
          "durationTicks": 119
        },
        {
          "time": 255.642834,
          "midi": 55,
          "name": "G3",
          "velocity": 0.8818897637795275,
          "duration": 0.37187499999998863,
          "ticks": 78360,
          "durationTicks": 119
        },
        {
          "time": 256.017834,
          "midi": 57,
          "name": "A3",
          "velocity": 1,
          "duration": 0.37187499999998863,
          "ticks": 78480,
          "durationTicks": 119
        },
        {
          "time": 256.392834,
          "midi": 57,
          "name": "A3",
          "velocity": 1,
          "duration": 0.37187499999998863,
          "ticks": 78600,
          "durationTicks": 119
        },
        {
          "time": 256.767834,
          "midi": 55,
          "name": "G3",
          "velocity": 0.9763779527559056,
          "duration": 0.37187499999998863,
          "ticks": 78720,
          "durationTicks": 119
        },
        {
          "time": 257.142834,
          "midi": 54,
          "name": "F#3",
          "velocity": 1,
          "duration": 0.37187499999998863,
          "ticks": 78840,
          "durationTicks": 119
        },
        {
          "time": 257.517834,
          "midi": 55,
          "name": "G3",
          "velocity": 1,
          "duration": 0.18437499999998863,
          "ticks": 78960,
          "durationTicks": 59
        },
        {
          "time": 257.705334,
          "midi": 52,
          "name": "E3",
          "velocity": 1,
          "duration": 0.18437499999998863,
          "ticks": 79020,
          "durationTicks": 59
        },
        {
          "time": 257.892834,
          "midi": 50,
          "name": "D3",
          "velocity": 1,
          "duration": 0.37187499999998863,
          "ticks": 79080,
          "durationTicks": 119
        },
        {
          "time": 258.267834,
          "midi": 50,
          "name": "D3",
          "velocity": 1,
          "duration": 0.37187499999998863,
          "ticks": 79200,
          "durationTicks": 119
        },
        {
          "time": 258.642834,
          "midi": 52,
          "name": "E3",
          "velocity": 1,
          "duration": 0.37187499999998863,
          "ticks": 79320,
          "durationTicks": 119
        },
        {
          "time": 259.017834,
          "midi": 54,
          "name": "F#3",
          "velocity": 1,
          "duration": 0.37187499999998863,
          "ticks": 79440,
          "durationTicks": 119
        },
        {
          "time": 259.392834,
          "midi": 52,
          "name": "E3",
          "velocity": 1,
          "duration": 0.5593749999999886,
          "ticks": 79560,
          "durationTicks": 179
        },
        {
          "time": 259.955334,
          "midi": 50,
          "name": "D3",
          "velocity": 1,
          "duration": 0.18437499999998863,
          "ticks": 79740,
          "durationTicks": 59
        },
        {
          "time": 260.142834,
          "midi": 50,
          "name": "D3",
          "velocity": 1,
          "duration": 0.37187499999998863,
          "ticks": 79800,
          "durationTicks": 119
        },
        {
          "time": 260.517834,
          "midi": 57,
          "name": "A3",
          "velocity": 1,
          "duration": 0.37187499999998863,
          "ticks": 79920,
          "durationTicks": 119
        },
        {
          "time": 260.892834,
          "midi": 55,
          "name": "G3",
          "velocity": 0.8818897637795275,
          "duration": 0.5593749999999886,
          "ticks": 80040,
          "durationTicks": 179
        },
        {
          "time": 261.455334,
          "midi": 54,
          "name": "F#3",
          "velocity": 1,
          "duration": 0.18437499999998863,
          "ticks": 80220,
          "durationTicks": 59
        },
        {
          "time": 261.642834,
          "midi": 54,
          "name": "F#3",
          "velocity": 0.937007874015748,
          "duration": 0.37187499999998863,
          "ticks": 80280,
          "durationTicks": 119
        },
        {
          "time": 262.017834,
          "midi": 62,
          "name": "D4",
          "velocity": 0.8267716535433071,
          "duration": 0.37187499999998863,
          "ticks": 80400,
          "durationTicks": 119
        },
        {
          "time": 262.392834,
          "midi": 60,
          "name": "C4",
          "velocity": 0.8503937007874016,
          "duration": 0.5593749999999886,
          "ticks": 80520,
          "durationTicks": 179
        },
        {
          "time": 262.955334,
          "midi": 59,
          "name": "B3",
          "velocity": 0.905511811023622,
          "duration": 0.18437499999998863,
          "ticks": 80700,
          "durationTicks": 59
        },
        {
          "time": 263.142834,
          "midi": 59,
          "name": "B3",
          "velocity": 0.8503937007874016,
          "duration": 0.37187499999998863,
          "ticks": 80760,
          "durationTicks": 119
        },
        {
          "time": 263.517834,
          "midi": 67,
          "name": "G4",
          "velocity": 0.8267716535433071,
          "duration": 0.18437499999998863,
          "ticks": 80880,
          "durationTicks": 59
        },
        {
          "time": 263.705334,
          "midi": 64,
          "name": "E4",
          "velocity": 0.7795275590551181,
          "duration": 0.18437499999998863,
          "ticks": 80940,
          "durationTicks": 59
        },
        {
          "time": 263.892834,
          "midi": 62,
          "name": "D4",
          "velocity": 0.8503937007874016,
          "duration": 0.18437499999998863,
          "ticks": 81000,
          "durationTicks": 59
        },
        {
          "time": 264.080334,
          "midi": 61,
          "name": "C#4",
          "velocity": 1,
          "duration": 0.18437499999998863,
          "ticks": 81060,
          "durationTicks": 59
        },
        {
          "time": 264.267834,
          "midi": 64,
          "name": "E4",
          "velocity": 0.8503937007874016,
          "duration": 0.18437499999998863,
          "ticks": 81120,
          "durationTicks": 59
        },
        {
          "time": 264.455334,
          "midi": 61,
          "name": "C#4",
          "velocity": 1,
          "duration": 0.18437499999998863,
          "ticks": 81180,
          "durationTicks": 59
        },
        {
          "time": 264.642834,
          "midi": 59,
          "name": "B3",
          "velocity": 0.8503937007874016,
          "duration": 0.18437499999998863,
          "ticks": 81240,
          "durationTicks": 59
        },
        {
          "time": 264.830334,
          "midi": 57,
          "name": "A3",
          "velocity": 0.8818897637795275,
          "duration": 0.18437499999998863,
          "ticks": 81300,
          "durationTicks": 59
        },
        {
          "time": 265.017834,
          "midi": 59,
          "name": "B3",
          "velocity": 1,
          "duration": 0.18437499999998863,
          "ticks": 81360,
          "durationTicks": 59
        },
        {
          "time": 265.205334,
          "midi": 61,
          "name": "C#4",
          "velocity": 1,
          "duration": 0.18437499999998863,
          "ticks": 81420,
          "durationTicks": 59
        },
        {
          "time": 265.392834,
          "midi": 62,
          "name": "D4",
          "velocity": 0.937007874015748,
          "duration": 0.18437499999998863,
          "ticks": 81480,
          "durationTicks": 59
        },
        {
          "time": 265.580334,
          "midi": 66,
          "name": "F#4",
          "velocity": 0.937007874015748,
          "duration": 0.18437499999998863,
          "ticks": 81540,
          "durationTicks": 59
        },
        {
          "time": 265.767834,
          "midi": 64,
          "name": "E4",
          "velocity": 0.8818897637795275,
          "duration": 0.18437499999998863,
          "ticks": 81600,
          "durationTicks": 59
        },
        {
          "time": 265.955334,
          "midi": 61,
          "name": "C#4",
          "velocity": 1,
          "duration": 0.18437499999998863,
          "ticks": 81660,
          "durationTicks": 59
        },
        {
          "time": 266.142834,
          "midi": 62,
          "name": "D4",
          "velocity": 1,
          "duration": 0.37187499999998863,
          "ticks": 81720,
          "durationTicks": 119
        },
        {
          "time": 290.517834,
          "midi": 57,
          "name": "A3",
          "velocity": 0.8503937007874016,
          "duration": 0.5625,
          "ticks": 89520,
          "durationTicks": 180
        },
        {
          "time": 291.080334,
          "midi": 52,
          "name": "E3",
          "velocity": 0.7795275590551181,
          "duration": 0.18437499999998863,
          "ticks": 89700,
          "durationTicks": 59
        },
        {
          "time": 291.267834,
          "midi": 61,
          "name": "C#4",
          "velocity": 0.6614173228346457,
          "duration": 0.18437499999998863,
          "ticks": 89760,
          "durationTicks": 59
        },
        {
          "time": 291.455334,
          "midi": 57,
          "name": "A3",
          "velocity": 0.8031496062992126,
          "duration": 0.18437499999998863,
          "ticks": 89820,
          "durationTicks": 59
        },
        {
          "time": 291.642834,
          "midi": 62,
          "name": "D4",
          "velocity": 0.7795275590551181,
          "duration": 0.18437499999998863,
          "ticks": 89880,
          "durationTicks": 59
        },
        {
          "time": 292.392834,
          "midi": 57,
          "name": "A3",
          "velocity": 0.8267716535433071,
          "duration": 0.18437499999998863,
          "ticks": 90120,
          "durationTicks": 59
        },
        {
          "time": 292.580334,
          "midi": 57,
          "name": "A3",
          "velocity": 0.7244094488188977,
          "duration": 0.18437499999998863,
          "ticks": 90180,
          "durationTicks": 59
        },
        {
          "time": 292.767834,
          "midi": 62,
          "name": "D4",
          "velocity": 0.7086614173228346,
          "duration": 0.18437499999998863,
          "ticks": 90240,
          "durationTicks": 59
        },
        {
          "time": 292.955334,
          "midi": 57,
          "name": "A3",
          "velocity": 0.7401574803149606,
          "duration": 0.18437499999998863,
          "ticks": 90300,
          "durationTicks": 59
        },
        {
          "time": 293.142834,
          "midi": 62,
          "name": "D4",
          "velocity": 0.905511811023622,
          "duration": 0.18437499999998863,
          "ticks": 90360,
          "durationTicks": 59
        },
        {
          "time": 293.892834,
          "midi": 49,
          "name": "C#3",
          "velocity": 0.6535433070866141,
          "duration": 0.18437499999998863,
          "ticks": 90600,
          "durationTicks": 59
        },
        {
          "time": 294.080334,
          "midi": 49,
          "name": "C#3",
          "velocity": 0.905511811023622,
          "duration": 0.18437499999998863,
          "ticks": 90660,
          "durationTicks": 59
        },
        {
          "time": 294.267834,
          "midi": 57,
          "name": "A3",
          "velocity": 1,
          "duration": 0.18437499999998863,
          "ticks": 90720,
          "durationTicks": 59
        },
        {
          "time": 294.830334,
          "midi": 58,
          "name": "A#3",
          "velocity": 0.9763779527559056,
          "duration": 0.18437499999998863,
          "ticks": 90900,
          "durationTicks": 59
        },
        {
          "time": 295.017834,
          "midi": 66,
          "name": "F#4",
          "velocity": 0.7244094488188977,
          "duration": 0.37187499999998863,
          "ticks": 90960,
          "durationTicks": 119
        },
        {
          "time": 295.580334,
          "midi": 59,
          "name": "B3",
          "velocity": 0.905511811023622,
          "duration": 0.18437499999998863,
          "ticks": 91140,
          "durationTicks": 59
        },
        {
          "time": 295.580334,
          "midi": 62,
          "name": "D4",
          "velocity": 0.905511811023622,
          "duration": 0.18437499999998863,
          "ticks": 91140,
          "durationTicks": 59
        },
        {
          "time": 295.767834,
          "midi": 68,
          "name": "G#4",
          "velocity": 0.905511811023622,
          "duration": 0.18437499999998863,
          "ticks": 91200,
          "durationTicks": 59
        },
        {
          "time": 296.330334,
          "midi": 57,
          "name": "A3",
          "velocity": 0.905511811023622,
          "duration": 0.18437499999998863,
          "ticks": 91380,
          "durationTicks": 59
        },
        {
          "time": 296.517834,
          "midi": 69,
          "name": "A4",
          "velocity": 0.9133858267716536,
          "duration": 0.18437499999998863,
          "ticks": 91440,
          "durationTicks": 59
        },
        {
          "time": 296.705334,
          "midi": 57,
          "name": "A3",
          "velocity": 0.9212598425196851,
          "duration": 0.18437499999998863,
          "ticks": 91500,
          "durationTicks": 59
        },
        {
          "time": 296.892834,
          "midi": 50,
          "name": "D3",
          "velocity": 0.937007874015748,
          "duration": 0.37187499999998863,
          "ticks": 91560,
          "durationTicks": 119
        },
        {
          "time": 297.455334,
          "midi": 50,
          "name": "D3",
          "velocity": 0.9291338582677166,
          "duration": 0.18437499999998863,
          "ticks": 91740,
          "durationTicks": 59
        },
        {
          "time": 297.642834,
          "midi": 62,
          "name": "D4",
          "velocity": 0.889763779527559,
          "duration": 0.37187499999998863,
          "ticks": 91800,
          "durationTicks": 119
        },
        {
          "time": 298.205334,
          "midi": 50,
          "name": "D3",
          "velocity": 0.8346456692913385,
          "duration": 0.18437499999998863,
          "ticks": 91980,
          "durationTicks": 59
        },
        {
          "time": 298.392834,
          "midi": 57,
          "name": "A3",
          "velocity": 0.8503937007874016,
          "duration": 0.37187499999998863,
          "ticks": 92040,
          "durationTicks": 119
        },
        {
          "time": 298.955334,
          "midi": 57,
          "name": "A3",
          "velocity": 0.8740157480314961,
          "duration": 0.18437499999998863,
          "ticks": 92220,
          "durationTicks": 59
        },
        {
          "time": 299.142834,
          "midi": 69,
          "name": "A4",
          "velocity": 0.8661417322834646,
          "duration": 0.37187499999998863,
          "ticks": 92280,
          "durationTicks": 119
        },
        {
          "time": 299.705334,
          "midi": 57,
          "name": "A3",
          "velocity": 0.8110236220472441,
          "duration": 0.18437499999998863,
          "ticks": 92460,
          "durationTicks": 59
        },
        {
          "time": 299.892834,
          "midi": 69,
          "name": "A4",
          "velocity": 0.7874015748031497,
          "duration": 0.37187499999998863,
          "ticks": 92520,
          "durationTicks": 119
        },
        {
          "time": 300.455334,
          "midi": 62,
          "name": "D4",
          "velocity": 0.7401574803149606,
          "duration": 0.18437499999998863,
          "ticks": 92700,
          "durationTicks": 59
        },
        {
          "time": 300.642834,
          "midi": 57,
          "name": "A3",
          "velocity": 0.7322834645669292,
          "duration": 0.37187499999998863,
          "ticks": 92760,
          "durationTicks": 119
        },
        {
          "time": 301.205334,
          "midi": 66,
          "name": "F#4",
          "velocity": 0.7086614173228346,
          "duration": 0.18437499999998863,
          "ticks": 92940,
          "durationTicks": 59
        },
        {
          "time": 301.392834,
          "midi": 57,
          "name": "A3",
          "velocity": 0.7007874015748031,
          "duration": 0.37187499999998863,
          "ticks": 93000,
          "durationTicks": 119
        },
        {
          "time": 301.955334,
          "midi": 55,
          "name": "G3",
          "velocity": 0.6850393700787402,
          "duration": 0.18437499999998863,
          "ticks": 93180,
          "durationTicks": 59
        },
        {
          "time": 302.142834,
          "midi": 54,
          "name": "F#3",
          "velocity": 0.6850393700787402,
          "duration": 0.37187499999998863,
          "ticks": 93240,
          "durationTicks": 119
        },
        {
          "time": 302.705334,
          "midi": 66,
          "name": "F#4",
          "velocity": 0.6771653543307087,
          "duration": 0.18437499999998863,
          "ticks": 93420,
          "durationTicks": 59
        },
        {
          "time": 302.892834,
          "midi": 54,
          "name": "F#3",
          "velocity": 0.6771653543307087,
          "duration": 0.37187499999998863,
          "ticks": 93480,
          "durationTicks": 119
        },
        {
          "time": 303.455334,
          "midi": 66,
          "name": "F#4",
          "velocity": 0.6692913385826772,
          "duration": 0.18437499999998863,
          "ticks": 93660,
          "durationTicks": 59
        },
        {
          "time": 303.642834,
          "midi": 54,
          "name": "F#3",
          "velocity": 0.6614173228346457,
          "duration": 0.37187499999998863,
          "ticks": 93720,
          "durationTicks": 119
        },
        {
          "time": 304.205334,
          "midi": 62,
          "name": "D4",
          "velocity": 0.6456692913385826,
          "duration": 0.18437499999998863,
          "ticks": 93900,
          "durationTicks": 59
        },
        {
          "time": 304.392834,
          "midi": 55,
          "name": "G3",
          "velocity": 0.8503937007874016,
          "duration": 0.37187499999998863,
          "ticks": 93960,
          "durationTicks": 119
        },
        {
          "time": 304.955334,
          "midi": 67,
          "name": "G4",
          "velocity": 1,
          "duration": 0.18437499999998863,
          "ticks": 94140,
          "durationTicks": 59
        },
        {
          "time": 305.142834,
          "midi": 55,
          "name": "G3",
          "velocity": 0.8503937007874016,
          "duration": 0.37187499999998863,
          "ticks": 94200,
          "durationTicks": 119
        },
        {
          "time": 305.705334,
          "midi": 67,
          "name": "G4",
          "velocity": 0.6220472440944882,
          "duration": 0.18437499999998863,
          "ticks": 94380,
          "durationTicks": 59
        },
        {
          "time": 305.892834,
          "midi": 69,
          "name": "A4",
          "velocity": 0.8503937007874016,
          "duration": 0.37187499999998863,
          "ticks": 94440,
          "durationTicks": 119
        },
        {
          "time": 306.455334,
          "midi": 57,
          "name": "A3",
          "velocity": 1,
          "duration": 0.18437499999998863,
          "ticks": 94620,
          "durationTicks": 59
        },
        {
          "time": 306.642834,
          "midi": 69,
          "name": "A4",
          "velocity": 0.8503937007874016,
          "duration": 0.37187499999998863,
          "ticks": 94680,
          "durationTicks": 119
        },
        {
          "time": 307.205334,
          "midi": 57,
          "name": "A3",
          "velocity": 0.6220472440944882,
          "duration": 0.18437499999998863,
          "ticks": 94860,
          "durationTicks": 59
        },
        {
          "time": 307.392834,
          "midi": 62,
          "name": "D4",
          "velocity": 0.905511811023622,
          "duration": 0.18437499999998863,
          "ticks": 94920,
          "durationTicks": 59
        },
        {
          "time": 307.767834,
          "midi": 64,
          "name": "E4",
          "velocity": 0.5905511811023622,
          "duration": 0.18437499999998863,
          "ticks": 95040,
          "durationTicks": 59
        },
        {
          "time": 307.767834,
          "midi": 73,
          "name": "C#5",
          "velocity": 0.8267716535433071,
          "duration": 0.18437499999998863,
          "ticks": 95040,
          "durationTicks": 59
        },
        {
          "time": 308.142834,
          "midi": 66,
          "name": "F#4",
          "velocity": 0.6220472440944882,
          "duration": 0.18437499999998863,
          "ticks": 95160,
          "durationTicks": 59
        },
        {
          "time": 308.142834,
          "midi": 74,
          "name": "D5",
          "velocity": 0.7401574803149606,
          "duration": 0.18437499999998863,
          "ticks": 95160,
          "durationTicks": 59
        },
        {
          "time": 312.267834,
          "midi": 54,
          "name": "F#3",
          "velocity": 0.8267716535433071,
          "duration": 0.04374999999998863,
          "ticks": 96480,
          "durationTicks": 14
        },
        {
          "time": 312.314709,
          "midi": 55,
          "name": "G3",
          "velocity": 0.6535433070866141,
          "duration": 0.04374999999998863,
          "ticks": 96495,
          "durationTicks": 14
        },
        {
          "time": 312.361584,
          "midi": 54,
          "name": "F#3",
          "velocity": 0.8818897637795275,
          "duration": 0.04374999999998863,
          "ticks": 96510,
          "durationTicks": 14
        },
        {
          "time": 312.408459,
          "midi": 55,
          "name": "G3",
          "velocity": 0.7086614173228346,
          "duration": 0.04374999999998863,
          "ticks": 96525,
          "durationTicks": 14
        },
        {
          "time": 312.455334,
          "midi": 54,
          "name": "F#3",
          "velocity": 0.937007874015748,
          "duration": 0.04374999999998863,
          "ticks": 96540,
          "durationTicks": 14
        },
        {
          "time": 312.502209,
          "midi": 55,
          "name": "G3",
          "velocity": 0.8031496062992126,
          "duration": 0.04374999999998863,
          "ticks": 96555,
          "durationTicks": 14
        },
        {
          "time": 312.549084,
          "midi": 52,
          "name": "E3",
          "velocity": 0.937007874015748,
          "duration": 0.04374999999998863,
          "ticks": 96570,
          "durationTicks": 14
        },
        {
          "time": 312.595959,
          "midi": 54,
          "name": "F#3",
          "velocity": 0.8503937007874016,
          "duration": 0.04374999999998863,
          "ticks": 96585,
          "durationTicks": 14
        },
        {
          "time": 313.017834,
          "midi": 62,
          "name": "D4",
          "velocity": 0.8267716535433071,
          "duration": 0.04374999999998863,
          "ticks": 96720,
          "durationTicks": 14
        },
        {
          "time": 313.064709,
          "midi": 64,
          "name": "E4",
          "velocity": 0.6535433070866141,
          "duration": 0.04374999999998863,
          "ticks": 96735,
          "durationTicks": 14
        },
        {
          "time": 313.111584,
          "midi": 62,
          "name": "D4",
          "velocity": 0.8818897637795275,
          "duration": 0.04374999999998863,
          "ticks": 96750,
          "durationTicks": 14
        },
        {
          "time": 313.158459,
          "midi": 64,
          "name": "E4",
          "velocity": 0.7086614173228346,
          "duration": 0.04374999999998863,
          "ticks": 96765,
          "durationTicks": 14
        },
        {
          "time": 313.205334,
          "midi": 62,
          "name": "D4",
          "velocity": 0.937007874015748,
          "duration": 0.04374999999998863,
          "ticks": 96780,
          "durationTicks": 14
        },
        {
          "time": 313.252209,
          "midi": 64,
          "name": "E4",
          "velocity": 0.8031496062992126,
          "duration": 0.04374999999998863,
          "ticks": 96795,
          "durationTicks": 14
        },
        {
          "time": 313.299084,
          "midi": 61,
          "name": "C#4",
          "velocity": 0.937007874015748,
          "duration": 0.04374999999998863,
          "ticks": 96810,
          "durationTicks": 14
        },
        {
          "time": 313.345959,
          "midi": 62,
          "name": "D4",
          "velocity": 0.8503937007874016,
          "duration": 0.04374999999998863,
          "ticks": 96825,
          "durationTicks": 14
        },
        {
          "time": 313.767834,
          "midi": 64,
          "name": "E4",
          "velocity": 0.8267716535433071,
          "duration": 0.04374999999998863,
          "ticks": 96960,
          "durationTicks": 14
        },
        {
          "time": 313.814709,
          "midi": 66,
          "name": "F#4",
          "velocity": 0.6535433070866141,
          "duration": 0.04374999999998863,
          "ticks": 96975,
          "durationTicks": 14
        },
        {
          "time": 313.861584,
          "midi": 64,
          "name": "E4",
          "velocity": 0.8818897637795275,
          "duration": 0.04374999999998863,
          "ticks": 96990,
          "durationTicks": 14
        },
        {
          "time": 313.908459,
          "midi": 66,
          "name": "F#4",
          "velocity": 0.7086614173228346,
          "duration": 0.04374999999998863,
          "ticks": 97005,
          "durationTicks": 14
        },
        {
          "time": 313.955334,
          "midi": 64,
          "name": "E4",
          "velocity": 0.937007874015748,
          "duration": 0.04374999999998863,
          "ticks": 97020,
          "durationTicks": 14
        },
        {
          "time": 314.002209,
          "midi": 66,
          "name": "F#4",
          "velocity": 0.8031496062992126,
          "duration": 0.04374999999998863,
          "ticks": 97035,
          "durationTicks": 14
        },
        {
          "time": 314.049084,
          "midi": 62,
          "name": "D4",
          "velocity": 0.937007874015748,
          "duration": 0.04374999999998863,
          "ticks": 97050,
          "durationTicks": 14
        },
        {
          "time": 314.095959,
          "midi": 64,
          "name": "E4",
          "velocity": 0.8503937007874016,
          "duration": 0.04374999999998863,
          "ticks": 97065,
          "durationTicks": 14
        },
        {
          "time": 314.517834,
          "midi": 67,
          "name": "G4",
          "velocity": 0.8267716535433071,
          "duration": 0.04374999999998863,
          "ticks": 97200,
          "durationTicks": 14
        },
        {
          "time": 314.564709,
          "midi": 69,
          "name": "A4",
          "velocity": 0.6535433070866141,
          "duration": 0.04374999999998863,
          "ticks": 97215,
          "durationTicks": 14
        },
        {
          "time": 314.611584,
          "midi": 67,
          "name": "G4",
          "velocity": 0.8818897637795275,
          "duration": 0.04374999999998863,
          "ticks": 97230,
          "durationTicks": 14
        },
        {
          "time": 314.658459,
          "midi": 69,
          "name": "A4",
          "velocity": 0.7086614173228346,
          "duration": 0.04374999999998863,
          "ticks": 97245,
          "durationTicks": 14
        },
        {
          "time": 314.705334,
          "midi": 67,
          "name": "G4",
          "velocity": 0.937007874015748,
          "duration": 0.04374999999998863,
          "ticks": 97260,
          "durationTicks": 14
        },
        {
          "time": 314.752209,
          "midi": 69,
          "name": "A4",
          "velocity": 0.8031496062992126,
          "duration": 0.04374999999998863,
          "ticks": 97275,
          "durationTicks": 14
        },
        {
          "time": 314.799084,
          "midi": 66,
          "name": "F#4",
          "velocity": 0.937007874015748,
          "duration": 0.04374999999998863,
          "ticks": 97290,
          "durationTicks": 14
        },
        {
          "time": 314.845959,
          "midi": 67,
          "name": "G4",
          "velocity": 0.8503937007874016,
          "duration": 0.04374999999998863,
          "ticks": 97305,
          "durationTicks": 14
        },
        {
          "time": 321.267834,
          "midi": 57,
          "name": "A3",
          "velocity": 0.8267716535433071,
          "duration": 0.04374999999998863,
          "ticks": 99360,
          "durationTicks": 14
        },
        {
          "time": 321.314709,
          "midi": 59,
          "name": "B3",
          "velocity": 0.6535433070866141,
          "duration": 0.04374999999998863,
          "ticks": 99375,
          "durationTicks": 14
        },
        {
          "time": 321.361584,
          "midi": 57,
          "name": "A3",
          "velocity": 0.8818897637795275,
          "duration": 0.04374999999998863,
          "ticks": 99390,
          "durationTicks": 14
        },
        {
          "time": 321.408459,
          "midi": 59,
          "name": "B3",
          "velocity": 0.7086614173228346,
          "duration": 0.04374999999998863,
          "ticks": 99405,
          "durationTicks": 14
        },
        {
          "time": 321.455334,
          "midi": 57,
          "name": "A3",
          "velocity": 0.937007874015748,
          "duration": 0.04374999999998863,
          "ticks": 99420,
          "durationTicks": 14
        },
        {
          "time": 321.502209,
          "midi": 59,
          "name": "B3",
          "velocity": 0.8031496062992126,
          "duration": 0.04374999999998863,
          "ticks": 99435,
          "durationTicks": 14
        },
        {
          "time": 321.549084,
          "midi": 56,
          "name": "G#3",
          "velocity": 0.937007874015748,
          "duration": 0.04374999999998863,
          "ticks": 99450,
          "durationTicks": 14
        },
        {
          "time": 321.595959,
          "midi": 57,
          "name": "A3",
          "velocity": 0.8503937007874016,
          "duration": 0.04374999999998863,
          "ticks": 99465,
          "durationTicks": 14
        },
        {
          "time": 322.017834,
          "midi": 57,
          "name": "A3",
          "velocity": 0.8267716535433071,
          "duration": 0.04374999999998863,
          "ticks": 99600,
          "durationTicks": 14
        },
        {
          "time": 322.064709,
          "midi": 59,
          "name": "B3",
          "velocity": 0.6535433070866141,
          "duration": 0.04374999999998863,
          "ticks": 99615,
          "durationTicks": 14
        },
        {
          "time": 322.111584,
          "midi": 57,
          "name": "A3",
          "velocity": 0.8818897637795275,
          "duration": 0.04374999999998863,
          "ticks": 99630,
          "durationTicks": 14
        },
        {
          "time": 322.158459,
          "midi": 59,
          "name": "B3",
          "velocity": 0.7086614173228346,
          "duration": 0.04374999999998863,
          "ticks": 99645,
          "durationTicks": 14
        },
        {
          "time": 322.205334,
          "midi": 57,
          "name": "A3",
          "velocity": 0.937007874015748,
          "duration": 0.04374999999998863,
          "ticks": 99660,
          "durationTicks": 14
        },
        {
          "time": 322.252209,
          "midi": 59,
          "name": "B3",
          "velocity": 0.8031496062992126,
          "duration": 0.04374999999998863,
          "ticks": 99675,
          "durationTicks": 14
        },
        {
          "time": 322.299084,
          "midi": 56,
          "name": "G#3",
          "velocity": 0.937007874015748,
          "duration": 0.04374999999998863,
          "ticks": 99690,
          "durationTicks": 14
        },
        {
          "time": 322.345959,
          "midi": 57,
          "name": "A3",
          "velocity": 0.8503937007874016,
          "duration": 0.04374999999998863,
          "ticks": 99705,
          "durationTicks": 14
        },
        {
          "time": 324.267834,
          "midi": 57,
          "name": "A3",
          "velocity": 0.8267716535433071,
          "duration": 0.04374999999998863,
          "ticks": 100320,
          "durationTicks": 14
        },
        {
          "time": 324.314709,
          "midi": 59,
          "name": "B3",
          "velocity": 0.6535433070866141,
          "duration": 0.04374999999998863,
          "ticks": 100335,
          "durationTicks": 14
        },
        {
          "time": 324.361584,
          "midi": 57,
          "name": "A3",
          "velocity": 0.8818897637795275,
          "duration": 0.04374999999998863,
          "ticks": 100350,
          "durationTicks": 14
        },
        {
          "time": 324.408459,
          "midi": 59,
          "name": "B3",
          "velocity": 0.7086614173228346,
          "duration": 0.04374999999998863,
          "ticks": 100365,
          "durationTicks": 14
        },
        {
          "time": 324.455334,
          "midi": 57,
          "name": "A3",
          "velocity": 0.937007874015748,
          "duration": 0.04374999999998863,
          "ticks": 100380,
          "durationTicks": 14
        },
        {
          "time": 324.502209,
          "midi": 59,
          "name": "B3",
          "velocity": 0.8031496062992126,
          "duration": 0.04374999999998863,
          "ticks": 100395,
          "durationTicks": 14
        },
        {
          "time": 324.549084,
          "midi": 56,
          "name": "G#3",
          "velocity": 0.937007874015748,
          "duration": 0.04374999999998863,
          "ticks": 100410,
          "durationTicks": 14
        },
        {
          "time": 324.595959,
          "midi": 57,
          "name": "A3",
          "velocity": 0.8503937007874016,
          "duration": 0.04374999999998863,
          "ticks": 100425,
          "durationTicks": 14
        },
        {
          "time": 325.017834,
          "midi": 54,
          "name": "F#3",
          "velocity": 0.8267716535433071,
          "duration": 0.04374999999998863,
          "ticks": 100560,
          "durationTicks": 14
        },
        {
          "time": 325.064709,
          "midi": 55,
          "name": "G3",
          "velocity": 0.6535433070866141,
          "duration": 0.04374999999998863,
          "ticks": 100575,
          "durationTicks": 14
        },
        {
          "time": 325.111584,
          "midi": 54,
          "name": "F#3",
          "velocity": 0.8818897637795275,
          "duration": 0.04374999999998863,
          "ticks": 100590,
          "durationTicks": 14
        },
        {
          "time": 325.158459,
          "midi": 55,
          "name": "G3",
          "velocity": 0.7086614173228346,
          "duration": 0.04374999999998863,
          "ticks": 100605,
          "durationTicks": 14
        },
        {
          "time": 325.205334,
          "midi": 54,
          "name": "F#3",
          "velocity": 0.937007874015748,
          "duration": 0.04374999999998863,
          "ticks": 100620,
          "durationTicks": 14
        },
        {
          "time": 325.252209,
          "midi": 55,
          "name": "G3",
          "velocity": 0.8031496062992126,
          "duration": 0.04374999999998863,
          "ticks": 100635,
          "durationTicks": 14
        },
        {
          "time": 325.299084,
          "midi": 52,
          "name": "E3",
          "velocity": 0.937007874015748,
          "duration": 0.04374999999998863,
          "ticks": 100650,
          "durationTicks": 14
        },
        {
          "time": 325.345959,
          "midi": 54,
          "name": "F#3",
          "velocity": 0.8503937007874016,
          "duration": 0.04374999999998863,
          "ticks": 100665,
          "durationTicks": 14
        },
        {
          "time": 326.892834,
          "midi": 57,
          "name": "A3",
          "velocity": 0.8267716535433071,
          "duration": 0.04374999999998863,
          "ticks": 101160,
          "durationTicks": 14
        },
        {
          "time": 326.939709,
          "midi": 59,
          "name": "B3",
          "velocity": 0.6535433070866141,
          "duration": 0.04374999999998863,
          "ticks": 101175,
          "durationTicks": 14
        },
        {
          "time": 326.986584,
          "midi": 57,
          "name": "A3",
          "velocity": 0.8818897637795275,
          "duration": 0.04374999999998863,
          "ticks": 101190,
          "durationTicks": 14
        },
        {
          "time": 327.033459,
          "midi": 59,
          "name": "B3",
          "velocity": 0.7086614173228346,
          "duration": 0.04374999999998863,
          "ticks": 101205,
          "durationTicks": 14
        },
        {
          "time": 327.080334,
          "midi": 57,
          "name": "A3",
          "velocity": 0.937007874015748,
          "duration": 0.04374999999998863,
          "ticks": 101220,
          "durationTicks": 14
        },
        {
          "time": 327.127209,
          "midi": 59,
          "name": "B3",
          "velocity": 0.8031496062992126,
          "duration": 0.04374999999998863,
          "ticks": 101235,
          "durationTicks": 14
        },
        {
          "time": 327.174084,
          "midi": 56,
          "name": "G#3",
          "velocity": 0.937007874015748,
          "duration": 0.04374999999998863,
          "ticks": 101250,
          "durationTicks": 14
        },
        {
          "time": 327.220959,
          "midi": 57,
          "name": "A3",
          "velocity": 0.8503937007874016,
          "duration": 0.04374999999998863,
          "ticks": 101265,
          "durationTicks": 14
        },
        {
          "time": 327.642834,
          "midi": 57,
          "name": "A3",
          "velocity": 0.8267716535433071,
          "duration": 0.04374999999998863,
          "ticks": 101400,
          "durationTicks": 14
        },
        {
          "time": 327.689709,
          "midi": 59,
          "name": "B3",
          "velocity": 0.6535433070866141,
          "duration": 0.04374999999998863,
          "ticks": 101415,
          "durationTicks": 14
        },
        {
          "time": 327.736584,
          "midi": 57,
          "name": "A3",
          "velocity": 0.8818897637795275,
          "duration": 0.04374999999998863,
          "ticks": 101430,
          "durationTicks": 14
        },
        {
          "time": 327.783459,
          "midi": 59,
          "name": "B3",
          "velocity": 0.7086614173228346,
          "duration": 0.04374999999998863,
          "ticks": 101445,
          "durationTicks": 14
        },
        {
          "time": 327.830334,
          "midi": 57,
          "name": "A3",
          "velocity": 0.937007874015748,
          "duration": 0.04374999999998863,
          "ticks": 101460,
          "durationTicks": 14
        },
        {
          "time": 327.877209,
          "midi": 59,
          "name": "B3",
          "velocity": 0.8031496062992126,
          "duration": 0.04374999999998863,
          "ticks": 101475,
          "durationTicks": 14
        },
        {
          "time": 327.924084,
          "midi": 56,
          "name": "G#3",
          "velocity": 0.937007874015748,
          "duration": 0.04374999999998863,
          "ticks": 101490,
          "durationTicks": 14
        },
        {
          "time": 327.970959,
          "midi": 57,
          "name": "A3",
          "velocity": 0.8503937007874016,
          "duration": 0.04374999999998863,
          "ticks": 101505,
          "durationTicks": 14
        },
        {
          "time": 328.392834,
          "midi": 59,
          "name": "B3",
          "velocity": 0.8267716535433071,
          "duration": 0.04374999999998863,
          "ticks": 101640,
          "durationTicks": 14
        },
        {
          "time": 328.439709,
          "midi": 61,
          "name": "C#4",
          "velocity": 0.6535433070866141,
          "duration": 0.04374999999998863,
          "ticks": 101655,
          "durationTicks": 14
        },
        {
          "time": 328.486584,
          "midi": 59,
          "name": "B3",
          "velocity": 0.8818897637795275,
          "duration": 0.04374999999998863,
          "ticks": 101670,
          "durationTicks": 14
        },
        {
          "time": 328.533459,
          "midi": 61,
          "name": "C#4",
          "velocity": 0.7086614173228346,
          "duration": 0.04374999999998863,
          "ticks": 101685,
          "durationTicks": 14
        },
        {
          "time": 328.580334,
          "midi": 59,
          "name": "B3",
          "velocity": 0.937007874015748,
          "duration": 0.04374999999998863,
          "ticks": 101700,
          "durationTicks": 14
        },
        {
          "time": 328.627209,
          "midi": 61,
          "name": "C#4",
          "velocity": 0.8031496062992126,
          "duration": 0.04374999999998863,
          "ticks": 101715,
          "durationTicks": 14
        },
        {
          "time": 328.674084,
          "midi": 57,
          "name": "A3",
          "velocity": 0.937007874015748,
          "duration": 0.04374999999998863,
          "ticks": 101730,
          "durationTicks": 14
        },
        {
          "time": 328.720959,
          "midi": 59,
          "name": "B3",
          "velocity": 0.8503937007874016,
          "duration": 0.04374999999998863,
          "ticks": 101745,
          "durationTicks": 14
        },
        {
          "time": 329.142834,
          "midi": 67,
          "name": "G4",
          "velocity": 0.8267716535433071,
          "duration": 0.04374999999998863,
          "ticks": 101880,
          "durationTicks": 14
        },
        {
          "time": 329.189709,
          "midi": 69,
          "name": "A4",
          "velocity": 0.6535433070866141,
          "duration": 0.04374999999998863,
          "ticks": 101895,
          "durationTicks": 14
        },
        {
          "time": 329.236584,
          "midi": 67,
          "name": "G4",
          "velocity": 0.8818897637795275,
          "duration": 0.04374999999998863,
          "ticks": 101910,
          "durationTicks": 14
        },
        {
          "time": 329.283459,
          "midi": 69,
          "name": "A4",
          "velocity": 0.7086614173228346,
          "duration": 0.04374999999998863,
          "ticks": 101925,
          "durationTicks": 14
        },
        {
          "time": 329.330334,
          "midi": 67,
          "name": "G4",
          "velocity": 0.937007874015748,
          "duration": 0.04374999999998863,
          "ticks": 101940,
          "durationTicks": 14
        },
        {
          "time": 329.377209,
          "midi": 69,
          "name": "A4",
          "velocity": 0.8031496062992126,
          "duration": 0.04374999999998863,
          "ticks": 101955,
          "durationTicks": 14
        },
        {
          "time": 329.424084,
          "midi": 66,
          "name": "F#4",
          "velocity": 0.937007874015748,
          "duration": 0.04374999999998863,
          "ticks": 101970,
          "durationTicks": 14
        },
        {
          "time": 329.470959,
          "midi": 67,
          "name": "G4",
          "velocity": 0.8503937007874016,
          "duration": 0.04374999999998863,
          "ticks": 101985,
          "durationTicks": 14
        },
        {
          "time": 329.892834,
          "midi": 66,
          "name": "F#4",
          "velocity": 0.8267716535433071,
          "duration": 0.04374999999998863,
          "ticks": 102120,
          "durationTicks": 14
        },
        {
          "time": 329.939709,
          "midi": 67,
          "name": "G4",
          "velocity": 0.6535433070866141,
          "duration": 0.04374999999998863,
          "ticks": 102135,
          "durationTicks": 14
        },
        {
          "time": 329.986584,
          "midi": 66,
          "name": "F#4",
          "velocity": 0.8818897637795275,
          "duration": 0.04374999999998863,
          "ticks": 102150,
          "durationTicks": 14
        },
        {
          "time": 330.033459,
          "midi": 67,
          "name": "G4",
          "velocity": 0.7086614173228346,
          "duration": 0.04374999999998863,
          "ticks": 102165,
          "durationTicks": 14
        },
        {
          "time": 330.080334,
          "midi": 66,
          "name": "F#4",
          "velocity": 0.937007874015748,
          "duration": 0.04374999999998863,
          "ticks": 102180,
          "durationTicks": 14
        },
        {
          "time": 330.127209,
          "midi": 67,
          "name": "G4",
          "velocity": 0.8031496062992126,
          "duration": 0.04374999999998863,
          "ticks": 102195,
          "durationTicks": 14
        },
        {
          "time": 330.174084,
          "midi": 64,
          "name": "E4",
          "velocity": 0.937007874015748,
          "duration": 0.04374999999998863,
          "ticks": 102210,
          "durationTicks": 14
        },
        {
          "time": 330.220959,
          "midi": 66,
          "name": "F#4",
          "velocity": 0.8503937007874016,
          "duration": 0.04374999999998863,
          "ticks": 102225,
          "durationTicks": 14
        },
        {
          "time": 330.642834,
          "midi": 62,
          "name": "D4",
          "velocity": 1,
          "duration": 0.37187499999998863,
          "ticks": 102360,
          "durationTicks": 119
        },
        {
          "time": 331.205334,
          "midi": 62,
          "name": "D4",
          "velocity": 1,
          "duration": 0.18437499999998863,
          "ticks": 102540,
          "durationTicks": 59
        },
        {
          "time": 331.392834,
          "midi": 62,
          "name": "D4",
          "velocity": 1,
          "duration": 0.37187499999998863,
          "ticks": 102600,
          "durationTicks": 119
        },
        {
          "time": 331.955334,
          "midi": 62,
          "name": "D4",
          "velocity": 1,
          "duration": 0.18437499999998863,
          "ticks": 102780,
          "durationTicks": 59
        },
        {
          "time": 332.142834,
          "midi": 62,
          "name": "D4",
          "velocity": 1,
          "duration": 0.37187499999998863,
          "ticks": 102840,
          "durationTicks": 119
        },
        {
          "time": 332.517834,
          "midi": 66,
          "name": "F#4",
          "velocity": 0.8267716535433071,
          "duration": 0.04374999999998863,
          "ticks": 102960,
          "durationTicks": 14
        },
        {
          "time": 332.564709,
          "midi": 67,
          "name": "G4",
          "velocity": 0.6535433070866141,
          "duration": 0.04374999999998863,
          "ticks": 102975,
          "durationTicks": 14
        },
        {
          "time": 332.611584,
          "midi": 66,
          "name": "F#4",
          "velocity": 0.8818897637795275,
          "duration": 0.04374999999998863,
          "ticks": 102990,
          "durationTicks": 14
        },
        {
          "time": 332.658459,
          "midi": 67,
          "name": "G4",
          "velocity": 0.7086614173228346,
          "duration": 0.04374999999998863,
          "ticks": 103005,
          "durationTicks": 14
        },
        {
          "time": 332.705334,
          "midi": 66,
          "name": "F#4",
          "velocity": 0.937007874015748,
          "duration": 0.04374999999998863,
          "ticks": 103020,
          "durationTicks": 14
        },
        {
          "time": 332.752209,
          "midi": 67,
          "name": "G4",
          "velocity": 0.8031496062992126,
          "duration": 0.04374999999998863,
          "ticks": 103035,
          "durationTicks": 14
        },
        {
          "time": 332.799084,
          "midi": 64,
          "name": "E4",
          "velocity": 0.937007874015748,
          "duration": 0.04374999999998863,
          "ticks": 103050,
          "durationTicks": 14
        },
        {
          "time": 332.845959,
          "midi": 66,
          "name": "F#4",
          "velocity": 0.8503937007874016,
          "duration": 0.04374999999998863,
          "ticks": 103065,
          "durationTicks": 14
        },
        {
          "time": 332.892834,
          "midi": 64,
          "name": "E4",
          "velocity": 0.8267716535433071,
          "duration": 0.04374999999998863,
          "ticks": 103080,
          "durationTicks": 14
        },
        {
          "time": 332.939709,
          "midi": 66,
          "name": "F#4",
          "velocity": 0.6535433070866141,
          "duration": 0.04374999999998863,
          "ticks": 103095,
          "durationTicks": 14
        },
        {
          "time": 332.986584,
          "midi": 64,
          "name": "E4",
          "velocity": 0.8818897637795275,
          "duration": 0.04374999999998863,
          "ticks": 103110,
          "durationTicks": 14
        },
        {
          "time": 333.033459,
          "midi": 66,
          "name": "F#4",
          "velocity": 0.7086614173228346,
          "duration": 0.04374999999998863,
          "ticks": 103125,
          "durationTicks": 14
        },
        {
          "time": 333.080334,
          "midi": 64,
          "name": "E4",
          "velocity": 0.937007874015748,
          "duration": 0.04374999999998863,
          "ticks": 103140,
          "durationTicks": 14
        },
        {
          "time": 333.127209,
          "midi": 66,
          "name": "F#4",
          "velocity": 0.8031496062992126,
          "duration": 0.04374999999998863,
          "ticks": 103155,
          "durationTicks": 14
        },
        {
          "time": 333.174084,
          "midi": 62,
          "name": "D4",
          "velocity": 0.937007874015748,
          "duration": 0.04374999999998863,
          "ticks": 103170,
          "durationTicks": 14
        },
        {
          "time": 333.220959,
          "midi": 64,
          "name": "E4",
          "velocity": 0.8503937007874016,
          "duration": 0.04374999999998863,
          "ticks": 103185,
          "durationTicks": 14
        },
        {
          "time": 333.642834,
          "midi": 66,
          "name": "F#4",
          "velocity": 0.8267716535433071,
          "duration": 0.04374999999998863,
          "ticks": 103320,
          "durationTicks": 14
        },
        {
          "time": 333.689709,
          "midi": 67,
          "name": "G4",
          "velocity": 0.6535433070866141,
          "duration": 0.04374999999998863,
          "ticks": 103335,
          "durationTicks": 14
        },
        {
          "time": 333.736584,
          "midi": 66,
          "name": "F#4",
          "velocity": 0.8818897637795275,
          "duration": 0.04374999999998863,
          "ticks": 103350,
          "durationTicks": 14
        },
        {
          "time": 333.783459,
          "midi": 67,
          "name": "G4",
          "velocity": 0.7086614173228346,
          "duration": 0.04374999999998863,
          "ticks": 103365,
          "durationTicks": 14
        },
        {
          "time": 333.830334,
          "midi": 66,
          "name": "F#4",
          "velocity": 0.937007874015748,
          "duration": 0.04374999999998863,
          "ticks": 103380,
          "durationTicks": 14
        },
        {
          "time": 333.877209,
          "midi": 67,
          "name": "G4",
          "velocity": 0.8031496062992126,
          "duration": 0.04374999999998863,
          "ticks": 103395,
          "durationTicks": 14
        },
        {
          "time": 333.924084,
          "midi": 64,
          "name": "E4",
          "velocity": 0.937007874015748,
          "duration": 0.04374999999998863,
          "ticks": 103410,
          "durationTicks": 14
        },
        {
          "time": 333.970959,
          "midi": 66,
          "name": "F#4",
          "velocity": 0.8503937007874016,
          "duration": 0.04374999999998863,
          "ticks": 103425,
          "durationTicks": 14
        },
        {
          "time": 334.392834,
          "midi": 64,
          "name": "E4",
          "velocity": 0.8267716535433071,
          "duration": 0.04374999999998863,
          "ticks": 103560,
          "durationTicks": 14
        },
        {
          "time": 334.439709,
          "midi": 66,
          "name": "F#4",
          "velocity": 0.6535433070866141,
          "duration": 0.04374999999998863,
          "ticks": 103575,
          "durationTicks": 14
        },
        {
          "time": 334.486584,
          "midi": 64,
          "name": "E4",
          "velocity": 0.8818897637795275,
          "duration": 0.04374999999998863,
          "ticks": 103590,
          "durationTicks": 14
        },
        {
          "time": 334.533459,
          "midi": 66,
          "name": "F#4",
          "velocity": 0.7086614173228346,
          "duration": 0.04374999999998863,
          "ticks": 103605,
          "durationTicks": 14
        },
        {
          "time": 334.580334,
          "midi": 64,
          "name": "E4",
          "velocity": 0.937007874015748,
          "duration": 0.04374999999998863,
          "ticks": 103620,
          "durationTicks": 14
        },
        {
          "time": 334.627209,
          "midi": 66,
          "name": "F#4",
          "velocity": 0.8031496062992126,
          "duration": 0.04374999999998863,
          "ticks": 103635,
          "durationTicks": 14
        },
        {
          "time": 334.674084,
          "midi": 62,
          "name": "D4",
          "velocity": 0.937007874015748,
          "duration": 0.04374999999998863,
          "ticks": 103650,
          "durationTicks": 14
        },
        {
          "time": 334.720959,
          "midi": 64,
          "name": "E4",
          "velocity": 0.8503937007874016,
          "duration": 0.04374999999998863,
          "ticks": 103665,
          "durationTicks": 14
        },
        {
          "time": 335.142834,
          "midi": 66,
          "name": "F#4",
          "velocity": 0.8267716535433071,
          "duration": 0.04374999999998863,
          "ticks": 103800,
          "durationTicks": 14
        },
        {
          "time": 335.189709,
          "midi": 67,
          "name": "G4",
          "velocity": 0.6535433070866141,
          "duration": 0.04374999999998863,
          "ticks": 103815,
          "durationTicks": 14
        },
        {
          "time": 335.236584,
          "midi": 66,
          "name": "F#4",
          "velocity": 0.8818897637795275,
          "duration": 0.04374999999998863,
          "ticks": 103830,
          "durationTicks": 14
        },
        {
          "time": 335.283459,
          "midi": 67,
          "name": "G4",
          "velocity": 0.7086614173228346,
          "duration": 0.04374999999998863,
          "ticks": 103845,
          "durationTicks": 14
        },
        {
          "time": 335.330334,
          "midi": 66,
          "name": "F#4",
          "velocity": 0.937007874015748,
          "duration": 0.04374999999998863,
          "ticks": 103860,
          "durationTicks": 14
        },
        {
          "time": 335.377209,
          "midi": 67,
          "name": "G4",
          "velocity": 0.8031496062992126,
          "duration": 0.04374999999998863,
          "ticks": 103875,
          "durationTicks": 14
        },
        {
          "time": 335.424084,
          "midi": 64,
          "name": "E4",
          "velocity": 0.937007874015748,
          "duration": 0.04374999999998863,
          "ticks": 103890,
          "durationTicks": 14
        },
        {
          "time": 335.470959,
          "midi": 66,
          "name": "F#4",
          "velocity": 0.8503937007874016,
          "duration": 0.04374999999998863,
          "ticks": 103905,
          "durationTicks": 14
        },
        {
          "time": 335.892834,
          "midi": 64,
          "name": "E4",
          "velocity": 0.8267716535433071,
          "duration": 0.04374999999998863,
          "ticks": 104040,
          "durationTicks": 14
        },
        {
          "time": 335.939709,
          "midi": 66,
          "name": "F#4",
          "velocity": 0.6535433070866141,
          "duration": 0.04374999999998863,
          "ticks": 104055,
          "durationTicks": 14
        },
        {
          "time": 335.986584,
          "midi": 64,
          "name": "E4",
          "velocity": 0.8818897637795275,
          "duration": 0.04374999999998863,
          "ticks": 104070,
          "durationTicks": 14
        },
        {
          "time": 336.033459,
          "midi": 66,
          "name": "F#4",
          "velocity": 0.7086614173228346,
          "duration": 0.04374999999998863,
          "ticks": 104085,
          "durationTicks": 14
        },
        {
          "time": 336.080334,
          "midi": 64,
          "name": "E4",
          "velocity": 0.937007874015748,
          "duration": 0.04374999999998863,
          "ticks": 104100,
          "durationTicks": 14
        },
        {
          "time": 336.127209,
          "midi": 66,
          "name": "F#4",
          "velocity": 0.8031496062992126,
          "duration": 0.04374999999998863,
          "ticks": 104115,
          "durationTicks": 14
        },
        {
          "time": 336.174084,
          "midi": 62,
          "name": "D4",
          "velocity": 0.937007874015748,
          "duration": 0.04374999999998863,
          "ticks": 104130,
          "durationTicks": 14
        },
        {
          "time": 336.220959,
          "midi": 64,
          "name": "E4",
          "velocity": 0.8503937007874016,
          "duration": 0.04374999999998863,
          "ticks": 104145,
          "durationTicks": 14
        },
        {
          "time": 336.642834,
          "midi": 66,
          "name": "F#4",
          "velocity": 0.8267716535433071,
          "duration": 0.04374999999998863,
          "ticks": 104280,
          "durationTicks": 14
        },
        {
          "time": 336.689709,
          "midi": 67,
          "name": "G4",
          "velocity": 0.6535433070866141,
          "duration": 0.04374999999998863,
          "ticks": 104295,
          "durationTicks": 14
        },
        {
          "time": 336.736584,
          "midi": 66,
          "name": "F#4",
          "velocity": 0.8818897637795275,
          "duration": 0.04374999999998863,
          "ticks": 104310,
          "durationTicks": 14
        },
        {
          "time": 336.783459,
          "midi": 67,
          "name": "G4",
          "velocity": 0.7086614173228346,
          "duration": 0.04374999999998863,
          "ticks": 104325,
          "durationTicks": 14
        },
        {
          "time": 336.830334,
          "midi": 66,
          "name": "F#4",
          "velocity": 0.937007874015748,
          "duration": 0.04374999999998863,
          "ticks": 104340,
          "durationTicks": 14
        },
        {
          "time": 336.877209,
          "midi": 67,
          "name": "G4",
          "velocity": 0.8031496062992126,
          "duration": 0.04374999999998863,
          "ticks": 104355,
          "durationTicks": 14
        },
        {
          "time": 336.924084,
          "midi": 64,
          "name": "E4",
          "velocity": 0.937007874015748,
          "duration": 0.04374999999998863,
          "ticks": 104370,
          "durationTicks": 14
        },
        {
          "time": 336.970959,
          "midi": 66,
          "name": "F#4",
          "velocity": 0.8503937007874016,
          "duration": 0.04374999999998863,
          "ticks": 104385,
          "durationTicks": 14
        },
        {
          "time": 337.392834,
          "midi": 62,
          "name": "D4",
          "velocity": 0.8267716535433071,
          "duration": 0.04374999999998863,
          "ticks": 104520,
          "durationTicks": 14
        },
        {
          "time": 337.439709,
          "midi": 64,
          "name": "E4",
          "velocity": 0.6535433070866141,
          "duration": 0.04374999999998863,
          "ticks": 104535,
          "durationTicks": 14
        },
        {
          "time": 337.486584,
          "midi": 62,
          "name": "D4",
          "velocity": 0.8818897637795275,
          "duration": 0.04374999999998863,
          "ticks": 104550,
          "durationTicks": 14
        },
        {
          "time": 337.533459,
          "midi": 64,
          "name": "E4",
          "velocity": 0.7086614173228346,
          "duration": 0.04374999999998863,
          "ticks": 104565,
          "durationTicks": 14
        },
        {
          "time": 337.580334,
          "midi": 62,
          "name": "D4",
          "velocity": 0.937007874015748,
          "duration": 0.04374999999998863,
          "ticks": 104580,
          "durationTicks": 14
        },
        {
          "time": 337.627209,
          "midi": 64,
          "name": "E4",
          "velocity": 0.8031496062992126,
          "duration": 0.04374999999998863,
          "ticks": 104595,
          "durationTicks": 14
        },
        {
          "time": 337.674084,
          "midi": 61,
          "name": "C#4",
          "velocity": 0.937007874015748,
          "duration": 0.04374999999998863,
          "ticks": 104610,
          "durationTicks": 14
        },
        {
          "time": 337.720959,
          "midi": 62,
          "name": "D4",
          "velocity": 0.8503937007874016,
          "duration": 0.04374999999998863,
          "ticks": 104625,
          "durationTicks": 14
        },
        {
          "time": 338.142834,
          "midi": 64,
          "name": "E4",
          "velocity": 0.8267716535433071,
          "duration": 0.04374999999998863,
          "ticks": 104760,
          "durationTicks": 14
        },
        {
          "time": 338.189709,
          "midi": 66,
          "name": "F#4",
          "velocity": 0.6535433070866141,
          "duration": 0.04374999999998863,
          "ticks": 104775,
          "durationTicks": 14
        },
        {
          "time": 338.236584,
          "midi": 64,
          "name": "E4",
          "velocity": 0.8818897637795275,
          "duration": 0.04374999999998863,
          "ticks": 104790,
          "durationTicks": 14
        },
        {
          "time": 338.283459,
          "midi": 66,
          "name": "F#4",
          "velocity": 0.7086614173228346,
          "duration": 0.04374999999998863,
          "ticks": 104805,
          "durationTicks": 14
        },
        {
          "time": 338.330334,
          "midi": 64,
          "name": "E4",
          "velocity": 0.937007874015748,
          "duration": 0.04374999999998863,
          "ticks": 104820,
          "durationTicks": 14
        },
        {
          "time": 338.377209,
          "midi": 66,
          "name": "F#4",
          "velocity": 0.8031496062992126,
          "duration": 0.04374999999998863,
          "ticks": 104835,
          "durationTicks": 14
        },
        {
          "time": 338.424084,
          "midi": 62,
          "name": "D4",
          "velocity": 0.937007874015748,
          "duration": 0.04374999999998863,
          "ticks": 104850,
          "durationTicks": 14
        },
        {
          "time": 338.470959,
          "midi": 64,
          "name": "E4",
          "velocity": 0.8503937007874016,
          "duration": 0.04374999999998863,
          "ticks": 104865,
          "durationTicks": 14
        },
        {
          "time": 338.892834,
          "midi": 66,
          "name": "F#4",
          "velocity": 0.8267716535433071,
          "duration": 0.04374999999998863,
          "ticks": 105000,
          "durationTicks": 14
        },
        {
          "time": 338.939709,
          "midi": 67,
          "name": "G4",
          "velocity": 0.6535433070866141,
          "duration": 0.04374999999998863,
          "ticks": 105015,
          "durationTicks": 14
        },
        {
          "time": 338.986584,
          "midi": 66,
          "name": "F#4",
          "velocity": 0.8818897637795275,
          "duration": 0.04374999999998863,
          "ticks": 105030,
          "durationTicks": 14
        },
        {
          "time": 339.033459,
          "midi": 67,
          "name": "G4",
          "velocity": 0.7086614173228346,
          "duration": 0.04374999999998863,
          "ticks": 105045,
          "durationTicks": 14
        },
        {
          "time": 339.080334,
          "midi": 66,
          "name": "F#4",
          "velocity": 0.937007874015748,
          "duration": 0.04374999999998863,
          "ticks": 105060,
          "durationTicks": 14
        },
        {
          "time": 339.127209,
          "midi": 67,
          "name": "G4",
          "velocity": 0.8031496062992126,
          "duration": 0.04374999999998863,
          "ticks": 105075,
          "durationTicks": 14
        },
        {
          "time": 339.174084,
          "midi": 64,
          "name": "E4",
          "velocity": 0.937007874015748,
          "duration": 0.04374999999998863,
          "ticks": 105090,
          "durationTicks": 14
        },
        {
          "time": 339.220959,
          "midi": 66,
          "name": "F#4",
          "velocity": 0.8503937007874016,
          "duration": 0.04374999999998863,
          "ticks": 105105,
          "durationTicks": 14
        },
        {
          "time": 339.642834,
          "midi": 74,
          "name": "D5",
          "velocity": 0.8267716535433071,
          "duration": 0.04374999999998863,
          "ticks": 105240,
          "durationTicks": 14
        },
        {
          "time": 339.689709,
          "midi": 76,
          "name": "E5",
          "velocity": 0.6535433070866141,
          "duration": 0.04374999999998863,
          "ticks": 105255,
          "durationTicks": 14
        },
        {
          "time": 339.736584,
          "midi": 74,
          "name": "D5",
          "velocity": 0.8818897637795275,
          "duration": 0.04374999999998863,
          "ticks": 105270,
          "durationTicks": 14
        },
        {
          "time": 339.783459,
          "midi": 76,
          "name": "E5",
          "velocity": 0.7086614173228346,
          "duration": 0.04374999999998863,
          "ticks": 105285,
          "durationTicks": 14
        },
        {
          "time": 339.830334,
          "midi": 74,
          "name": "D5",
          "velocity": 0.937007874015748,
          "duration": 0.04374999999998863,
          "ticks": 105300,
          "durationTicks": 14
        },
        {
          "time": 339.877209,
          "midi": 76,
          "name": "E5",
          "velocity": 0.8031496062992126,
          "duration": 0.04374999999998863,
          "ticks": 105315,
          "durationTicks": 14
        },
        {
          "time": 339.924084,
          "midi": 73,
          "name": "C#5",
          "velocity": 0.937007874015748,
          "duration": 0.04374999999998863,
          "ticks": 105330,
          "durationTicks": 14
        },
        {
          "time": 339.970959,
          "midi": 74,
          "name": "D5",
          "velocity": 0.8503937007874016,
          "duration": 0.04374999999998863,
          "ticks": 105345,
          "durationTicks": 14
        },
        {
          "time": 340.392834,
          "midi": 71,
          "name": "B4",
          "velocity": 0.8267716535433071,
          "duration": 0.04374999999998863,
          "ticks": 105480,
          "durationTicks": 14
        },
        {
          "time": 340.439709,
          "midi": 73,
          "name": "C#5",
          "velocity": 0.6535433070866141,
          "duration": 0.04374999999998863,
          "ticks": 105495,
          "durationTicks": 14
        },
        {
          "time": 340.486584,
          "midi": 71,
          "name": "B4",
          "velocity": 0.8818897637795275,
          "duration": 0.04374999999998863,
          "ticks": 105510,
          "durationTicks": 14
        },
        {
          "time": 340.533459,
          "midi": 73,
          "name": "C#5",
          "velocity": 0.7086614173228346,
          "duration": 0.04374999999998863,
          "ticks": 105525,
          "durationTicks": 14
        },
        {
          "time": 340.580334,
          "midi": 71,
          "name": "B4",
          "velocity": 0.937007874015748,
          "duration": 0.04374999999998863,
          "ticks": 105540,
          "durationTicks": 14
        },
        {
          "time": 340.627209,
          "midi": 73,
          "name": "C#5",
          "velocity": 0.8031496062992126,
          "duration": 0.04374999999998863,
          "ticks": 105555,
          "durationTicks": 14
        },
        {
          "time": 340.674084,
          "midi": 69,
          "name": "A4",
          "velocity": 0.937007874015748,
          "duration": 0.04374999999998863,
          "ticks": 105570,
          "durationTicks": 14
        },
        {
          "time": 340.720959,
          "midi": 71,
          "name": "B4",
          "velocity": 0.8503937007874016,
          "duration": 0.04374999999998863,
          "ticks": 105585,
          "durationTicks": 14
        },
        {
          "time": 341.142834,
          "midi": 67,
          "name": "G4",
          "velocity": 0.8267716535433071,
          "duration": 0.04374999999998863,
          "ticks": 105720,
          "durationTicks": 14
        },
        {
          "time": 341.189709,
          "midi": 69,
          "name": "A4",
          "velocity": 0.6535433070866141,
          "duration": 0.04374999999998863,
          "ticks": 105735,
          "durationTicks": 14
        },
        {
          "time": 341.236584,
          "midi": 67,
          "name": "G4",
          "velocity": 0.8818897637795275,
          "duration": 0.04374999999998863,
          "ticks": 105750,
          "durationTicks": 14
        },
        {
          "time": 341.283459,
          "midi": 69,
          "name": "A4",
          "velocity": 0.7086614173228346,
          "duration": 0.04374999999998863,
          "ticks": 105765,
          "durationTicks": 14
        },
        {
          "time": 341.330334,
          "midi": 67,
          "name": "G4",
          "velocity": 0.937007874015748,
          "duration": 0.04374999999998863,
          "ticks": 105780,
          "durationTicks": 14
        },
        {
          "time": 341.377209,
          "midi": 69,
          "name": "A4",
          "velocity": 0.8031496062992126,
          "duration": 0.04374999999998863,
          "ticks": 105795,
          "durationTicks": 14
        },
        {
          "time": 341.424084,
          "midi": 66,
          "name": "F#4",
          "velocity": 0.937007874015748,
          "duration": 0.04374999999998863,
          "ticks": 105810,
          "durationTicks": 14
        },
        {
          "time": 341.470959,
          "midi": 67,
          "name": "G4",
          "velocity": 0.8503937007874016,
          "duration": 0.04374999999998863,
          "ticks": 105825,
          "durationTicks": 14
        },
        {
          "time": 341.892834,
          "midi": 66,
          "name": "F#4",
          "velocity": 0.8267716535433071,
          "duration": 0.04374999999998863,
          "ticks": 105960,
          "durationTicks": 14
        },
        {
          "time": 341.939709,
          "midi": 67,
          "name": "G4",
          "velocity": 0.6535433070866141,
          "duration": 0.04374999999998863,
          "ticks": 105975,
          "durationTicks": 14
        },
        {
          "time": 341.986584,
          "midi": 66,
          "name": "F#4",
          "velocity": 0.8818897637795275,
          "duration": 0.04374999999998863,
          "ticks": 105990,
          "durationTicks": 14
        },
        {
          "time": 342.033459,
          "midi": 67,
          "name": "G4",
          "velocity": 0.7086614173228346,
          "duration": 0.04374999999998863,
          "ticks": 106005,
          "durationTicks": 14
        },
        {
          "time": 342.080334,
          "midi": 66,
          "name": "F#4",
          "velocity": 0.937007874015748,
          "duration": 0.04374999999998863,
          "ticks": 106020,
          "durationTicks": 14
        },
        {
          "time": 342.127209,
          "midi": 67,
          "name": "G4",
          "velocity": 0.8031496062992126,
          "duration": 0.04374999999998863,
          "ticks": 106035,
          "durationTicks": 14
        },
        {
          "time": 342.174084,
          "midi": 64,
          "name": "E4",
          "velocity": 0.937007874015748,
          "duration": 0.04374999999998863,
          "ticks": 106050,
          "durationTicks": 14
        },
        {
          "time": 342.220959,
          "midi": 66,
          "name": "F#4",
          "velocity": 0.8503937007874016,
          "duration": 0.04374999999998863,
          "ticks": 106065,
          "durationTicks": 14
        },
        {
          "time": 342.642834,
          "midi": 69,
          "name": "A4",
          "velocity": 1,
          "duration": 0.37187499999998863,
          "ticks": 106200,
          "durationTicks": 119
        },
        {
          "time": 342.642834,
          "midi": 66,
          "name": "F#4",
          "velocity": 1,
          "duration": 0.37187499999998863,
          "ticks": 106200,
          "durationTicks": 119
        },
        {
          "time": 343.392834,
          "midi": 67,
          "name": "G4",
          "velocity": 1,
          "duration": 0.37187499999998863,
          "ticks": 106440,
          "durationTicks": 119
        },
        {
          "time": 343.392834,
          "midi": 69,
          "name": "A4",
          "velocity": 1,
          "duration": 0.37187499999998863,
          "ticks": 106440,
          "durationTicks": 119
        },
        {
          "time": 343.955334,
          "midi": 69,
          "name": "A4",
          "velocity": 1,
          "duration": 0.18437499999998863,
          "ticks": 106620,
          "durationTicks": 59
        },
        {
          "time": 343.955334,
          "midi": 66,
          "name": "F#4",
          "velocity": 1,
          "duration": 0.18437499999998863,
          "ticks": 106620,
          "durationTicks": 59
        },
        {
          "time": 344.142834,
          "midi": 66,
          "name": "F#4",
          "velocity": 1,
          "duration": 0.18437499999998863,
          "ticks": 106680,
          "durationTicks": 59
        },
        {
          "time": 344.142834,
          "midi": 69,
          "name": "A4",
          "velocity": 1,
          "duration": 0.18437499999998863,
          "ticks": 106680,
          "durationTicks": 59
        },
        {
          "time": 344.330334,
          "midi": 50,
          "name": "D3",
          "velocity": 1,
          "duration": 0.09062499999998863,
          "ticks": 106740,
          "durationTicks": 29
        },
        {
          "time": 344.424084,
          "midi": 49,
          "name": "C#3",
          "velocity": 1,
          "duration": 0.09062499999998863,
          "ticks": 106770,
          "durationTicks": 29
        },
        {
          "time": 344.517834,
          "midi": 50,
          "name": "D3",
          "velocity": 1,
          "duration": 0.09062499999998863,
          "ticks": 106800,
          "durationTicks": 29
        },
        {
          "time": 344.611584,
          "midi": 52,
          "name": "E3",
          "velocity": 1,
          "duration": 0.09062499999998863,
          "ticks": 106830,
          "durationTicks": 29
        },
        {
          "time": 344.705334,
          "midi": 54,
          "name": "F#3",
          "velocity": 1,
          "duration": 0.09062499999998863,
          "ticks": 106860,
          "durationTicks": 29
        },
        {
          "time": 344.799084,
          "midi": 55,
          "name": "G3",
          "velocity": 1,
          "duration": 0.09062499999998863,
          "ticks": 106890,
          "durationTicks": 29
        },
        {
          "time": 344.892834,
          "midi": 50,
          "name": "D3",
          "velocity": 0.8818897637795275,
          "duration": 0.37187499999998863,
          "ticks": 106920,
          "durationTicks": 119
        },
        {
          "time": 344.892834,
          "midi": 57,
          "name": "A3",
          "velocity": 1,
          "duration": 0.37187499999998863,
          "ticks": 106920,
          "durationTicks": 119
        },
        {
          "time": 345.642834,
          "midi": 74,
          "name": "D5",
          "velocity": 1,
          "duration": 0.37187499999998863,
          "ticks": 107160,
          "durationTicks": 119
        },
        {
          "time": 346.392834,
          "midi": 71,
          "name": "B4",
          "velocity": 1,
          "duration": 0.37187499999998863,
          "ticks": 107400,
          "durationTicks": 119
        },
        {
          "time": 346.392834,
          "midi": 67,
          "name": "G4",
          "velocity": 1,
          "duration": 0.37187499999998863,
          "ticks": 107400,
          "durationTicks": 119
        },
        {
          "time": 347.142834,
          "midi": 55,
          "name": "G3",
          "velocity": 1,
          "duration": 0.37187499999998863,
          "ticks": 107640,
          "durationTicks": 119
        },
        {
          "time": 347.892834,
          "midi": 57,
          "name": "A3",
          "velocity": 1,
          "duration": 0.37187499999998863,
          "ticks": 107880,
          "durationTicks": 119
        },
        {
          "time": 348.642834,
          "midi": 69,
          "name": "A4",
          "velocity": 1,
          "duration": 0.37187499999998863,
          "ticks": 108120,
          "durationTicks": 119
        },
        {
          "time": 349.392834,
          "midi": 66,
          "name": "F#4",
          "velocity": 1,
          "duration": 0.37187499999998863,
          "ticks": 108360,
          "durationTicks": 119
        },
        {
          "time": 350.142834,
          "midi": 59,
          "name": "B3",
          "velocity": 1,
          "duration": 1.4968749999999886,
          "ticks": 108600,
          "durationTicks": 479
        },
        {
          "time": 350.142834,
          "midi": 62,
          "name": "D4",
          "velocity": 1,
          "duration": 1.4968749999999886,
          "ticks": 108600,
          "durationTicks": 479
        },
        {
          "time": 351.642834,
          "midi": 59,
          "name": "B3",
          "velocity": 0.8818897637795275,
          "duration": 0.37187499999998863,
          "ticks": 109080,
          "durationTicks": 119
        },
        {
          "time": 351.642834,
          "midi": 64,
          "name": "E4",
          "velocity": 1,
          "duration": 0.37187499999998863,
          "ticks": 109080,
          "durationTicks": 119
        },
        {
          "time": 352.392834,
          "midi": 69,
          "name": "A4",
          "velocity": 1,
          "duration": 0.09062499999998863,
          "ticks": 109320,
          "durationTicks": 29
        },
        {
          "time": 352.486584,
          "midi": 71,
          "name": "B4",
          "velocity": 1,
          "duration": 0.09062499999998863,
          "ticks": 109350,
          "durationTicks": 29
        },
        {
          "time": 352.580334,
          "midi": 69,
          "name": "A4",
          "velocity": 1,
          "duration": 0.09062499999998863,
          "ticks": 109380,
          "durationTicks": 29
        },
        {
          "time": 352.674084,
          "midi": 68,
          "name": "G#4",
          "velocity": 1,
          "duration": 0.09062499999998863,
          "ticks": 109410,
          "durationTicks": 29
        },
        {
          "time": 352.767834,
          "midi": 66,
          "name": "F#4",
          "velocity": 1,
          "duration": 0.09062499999998863,
          "ticks": 109440,
          "durationTicks": 29
        },
        {
          "time": 352.861584,
          "midi": 68,
          "name": "G#4",
          "velocity": 1,
          "duration": 0.09062499999998863,
          "ticks": 109470,
          "durationTicks": 29
        },
        {
          "time": 352.955334,
          "midi": 66,
          "name": "F#4",
          "velocity": 1,
          "duration": 0.09062499999998863,
          "ticks": 109500,
          "durationTicks": 29
        },
        {
          "time": 353.049084,
          "midi": 64,
          "name": "E4",
          "velocity": 0.9763779527559056,
          "duration": 0.09062499999998863,
          "ticks": 109530,
          "durationTicks": 29
        },
        {
          "time": 353.142834,
          "midi": 62,
          "name": "D4",
          "velocity": 0.937007874015748,
          "duration": 0.09062499999998863,
          "ticks": 109560,
          "durationTicks": 29
        },
        {
          "time": 353.236584,
          "midi": 64,
          "name": "E4",
          "velocity": 1,
          "duration": 0.09062499999998863,
          "ticks": 109590,
          "durationTicks": 29
        },
        {
          "time": 353.330334,
          "midi": 62,
          "name": "D4",
          "velocity": 1,
          "duration": 0.09062499999998863,
          "ticks": 109620,
          "durationTicks": 29
        },
        {
          "time": 353.424084,
          "midi": 61,
          "name": "C#4",
          "velocity": 1,
          "duration": 0.09062499999998863,
          "ticks": 109650,
          "durationTicks": 29
        },
        {
          "time": 353.517834,
          "midi": 59,
          "name": "B3",
          "velocity": 1,
          "duration": 0.09062499999998863,
          "ticks": 109680,
          "durationTicks": 29
        },
        {
          "time": 353.611584,
          "midi": 61,
          "name": "C#4",
          "velocity": 1,
          "duration": 0.09062499999998863,
          "ticks": 109710,
          "durationTicks": 29
        },
        {
          "time": 353.705334,
          "midi": 59,
          "name": "B3",
          "velocity": 1,
          "duration": 0.09062499999998863,
          "ticks": 109740,
          "durationTicks": 29
        },
        {
          "time": 353.799084,
          "midi": 57,
          "name": "A3",
          "velocity": 1,
          "duration": 0.09062499999998863,
          "ticks": 109770,
          "durationTicks": 29
        },
        {
          "time": 353.892834,
          "midi": 52,
          "name": "E3",
          "velocity": 1,
          "duration": 0.37187499999998863,
          "ticks": 109800,
          "durationTicks": 119
        },
        {
          "time": 354.642834,
          "midi": 76,
          "name": "E5",
          "velocity": 0.9763779527559056,
          "duration": 0.37187499999998863,
          "ticks": 110040,
          "durationTicks": 119
        },
        {
          "time": 354.642834,
          "midi": 64,
          "name": "E4",
          "velocity": 1,
          "duration": 0.37187499999998863,
          "ticks": 110040,
          "durationTicks": 119
        },
        {
          "time": 355.392834,
          "midi": 69,
          "name": "A4",
          "velocity": 1,
          "duration": 0.09062499999998863,
          "ticks": 110280,
          "durationTicks": 29
        },
        {
          "time": 355.486584,
          "midi": 71,
          "name": "B4",
          "velocity": 1,
          "duration": 0.09062499999998863,
          "ticks": 110310,
          "durationTicks": 29
        },
        {
          "time": 355.580334,
          "midi": 69,
          "name": "A4",
          "velocity": 1,
          "duration": 0.09062499999998863,
          "ticks": 110340,
          "durationTicks": 29
        },
        {
          "time": 355.674084,
          "midi": 68,
          "name": "G#4",
          "velocity": 1,
          "duration": 0.09062499999998863,
          "ticks": 110370,
          "durationTicks": 29
        },
        {
          "time": 355.767834,
          "midi": 66,
          "name": "F#4",
          "velocity": 1,
          "duration": 0.09062499999998863,
          "ticks": 110400,
          "durationTicks": 29
        },
        {
          "time": 355.861584,
          "midi": 68,
          "name": "G#4",
          "velocity": 1,
          "duration": 0.09062499999998863,
          "ticks": 110430,
          "durationTicks": 29
        },
        {
          "time": 355.955334,
          "midi": 66,
          "name": "F#4",
          "velocity": 1,
          "duration": 0.09062499999998863,
          "ticks": 110460,
          "durationTicks": 29
        },
        {
          "time": 356.049084,
          "midi": 64,
          "name": "E4",
          "velocity": 1,
          "duration": 0.09062499999998863,
          "ticks": 110490,
          "durationTicks": 29
        },
        {
          "time": 356.142834,
          "midi": 62,
          "name": "D4",
          "velocity": 0.9763779527559056,
          "duration": 0.09062499999998863,
          "ticks": 110520,
          "durationTicks": 29
        },
        {
          "time": 356.236584,
          "midi": 64,
          "name": "E4",
          "velocity": 1,
          "duration": 0.09062499999998863,
          "ticks": 110550,
          "durationTicks": 29
        },
        {
          "time": 356.330334,
          "midi": 62,
          "name": "D4",
          "velocity": 1,
          "duration": 0.09062499999998863,
          "ticks": 110580,
          "durationTicks": 29
        },
        {
          "time": 356.424084,
          "midi": 61,
          "name": "C#4",
          "velocity": 1,
          "duration": 0.09062499999998863,
          "ticks": 110610,
          "durationTicks": 29
        },
        {
          "time": 356.517834,
          "midi": 59,
          "name": "B3",
          "velocity": 1,
          "duration": 0.09062499999998863,
          "ticks": 110640,
          "durationTicks": 29
        },
        {
          "time": 356.611584,
          "midi": 61,
          "name": "C#4",
          "velocity": 1,
          "duration": 0.09062499999998863,
          "ticks": 110670,
          "durationTicks": 29
        },
        {
          "time": 356.705334,
          "midi": 59,
          "name": "B3",
          "velocity": 1,
          "duration": 0.09062499999998863,
          "ticks": 110700,
          "durationTicks": 29
        },
        {
          "time": 356.799084,
          "midi": 57,
          "name": "A3",
          "velocity": 1,
          "duration": 0.09062499999998863,
          "ticks": 110730,
          "durationTicks": 29
        },
        {
          "time": 356.892834,
          "midi": 57,
          "name": "A3",
          "velocity": 1,
          "duration": 0.37187499999998863,
          "ticks": 110760,
          "durationTicks": 119
        },
        {
          "time": 357.642834,
          "midi": 69,
          "name": "A4",
          "velocity": 1,
          "duration": 0.37187499999998863,
          "ticks": 111000,
          "durationTicks": 119
        },
        {
          "time": 357.642834,
          "midi": 57,
          "name": "A3",
          "velocity": 1,
          "duration": 0.37187499999998863,
          "ticks": 111000,
          "durationTicks": 119
        },
        {
          "time": 358.392834,
          "midi": 57,
          "name": "A3",
          "velocity": 1,
          "duration": 1.5386393583333415,
          "ticks": 111240,
          "durationTicks": 479
        },
        {
          "time": 358.392834,
          "midi": 53,
          "name": "F3",
          "velocity": 1,
          "duration": 1.5386393583333415,
          "ticks": 111240,
          "durationTicks": 479
        }
      ],
      "controlChanges": {
        "7": [
          {
            "number": 7,
            "value": 0.7874015748031497,
            "time": 0,
            "ticks": 0
          }
        ],
        "10": [
          {
            "number": 10,
            "value": 0.6929133858267716,
            "time": 0,
            "ticks": 0
          }
        ],
        "91": [
          {
            "number": 91,
            "value": 0.4251968503937008,
            "time": 0.09375,
            "ticks": 30
          },
          {
            "number": 91,
            "value": 0.4330708661417323,
            "time": 0.8125,
            "ticks": 260
          },
          {
            "number": 91,
            "value": 0.4409448818897638,
            "time": 0.96875,
            "ticks": 310
          },
          {
            "number": 91,
            "value": 0.44881889763779526,
            "time": 1.15625,
            "ticks": 370
          }
        ],
        "93": [
          {
            "number": 93,
            "value": 0.6614173228346457,
            "time": 0.09375,
            "ticks": 30
          },
          {
            "number": 93,
            "value": 0.6692913385826772,
            "time": 0.5625,
            "ticks": 180
          },
          {
            "number": 93,
            "value": 0.6771653543307087,
            "time": 0.6875,
            "ticks": 220
          },
          {
            "number": 93,
            "value": 0.6850393700787402,
            "time": 1.15625,
            "ticks": 370
          },
          {
            "number": 93,
            "value": 0.6929133858267716,
            "time": 1.28125,
            "ticks": 410
          }
        ]
      }
    },
    {
      "name": "Cellos",
      "channel": 0,
      "instrument": {
        "number": 49,
        "name": "string ensemble 2",
        "family": "ensemble"
      },
      "notes": [
        {
          "time": 1.5,
          "midi": 54,
          "name": "F#3",
          "velocity": 0.3700787401574803,
          "duration": 0.7468749999999997,
          "ticks": 480,
          "durationTicks": 239
        },
        {
          "time": 2.25,
          "midi": 55,
          "name": "G3",
          "velocity": 0.33070866141732286,
          "duration": 0.37187499999999973,
          "ticks": 720,
          "durationTicks": 119
        },
        {
          "time": 2.625,
          "midi": 57,
          "name": "A3",
          "velocity": 0.33070866141732286,
          "duration": 0.37187499999999973,
          "ticks": 840,
          "durationTicks": 119
        },
        {
          "time": 3,
          "midi": 57,
          "name": "A3",
          "velocity": 0.33070866141732286,
          "duration": 0.3718750000000002,
          "ticks": 960,
          "durationTicks": 119
        },
        {
          "time": 3.375,
          "midi": 55,
          "name": "G3",
          "velocity": 0.33070866141732286,
          "duration": 0.3718750000000002,
          "ticks": 1080,
          "durationTicks": 119
        },
        {
          "time": 3.75,
          "midi": 54,
          "name": "F#3",
          "velocity": 0.33070866141732286,
          "duration": 0.3718750000000002,
          "ticks": 1200,
          "durationTicks": 119
        },
        {
          "time": 4.125,
          "midi": 52,
          "name": "E3",
          "velocity": 0.3228346456692913,
          "duration": 0.3718750000000002,
          "ticks": 1320,
          "durationTicks": 119
        },
        {
          "time": 4.5,
          "midi": 50,
          "name": "D3",
          "velocity": 0.3228346456692913,
          "duration": 0.7468750000000002,
          "ticks": 1440,
          "durationTicks": 239
        },
        {
          "time": 5.25,
          "midi": 52,
          "name": "E3",
          "velocity": 0.31496062992125984,
          "duration": 0.3718750000000002,
          "ticks": 1680,
          "durationTicks": 119
        },
        {
          "time": 5.625,
          "midi": 54,
          "name": "F#3",
          "velocity": 0.31496062992125984,
          "duration": 0.3718750000000002,
          "ticks": 1800,
          "durationTicks": 119
        },
        {
          "time": 6,
          "midi": 54,
          "name": "F#3",
          "velocity": 0.30708661417322836,
          "duration": 0.5593750000000002,
          "ticks": 1920,
          "durationTicks": 179
        },
        {
          "time": 6.5625,
          "midi": 52,
          "name": "E3",
          "velocity": 0.2992125984251969,
          "duration": 0.18437500000000018,
          "ticks": 2100,
          "durationTicks": 59
        },
        {
          "time": 6.75,
          "midi": 52,
          "name": "E3",
          "velocity": 0.2992125984251969,
          "duration": 0.7468750000000002,
          "ticks": 2160,
          "durationTicks": 239
        },
        {
          "time": 7.5,
          "midi": 54,
          "name": "F#3",
          "velocity": 0.29133858267716534,
          "duration": 0.7468749999999993,
          "ticks": 2400,
          "durationTicks": 239
        },
        {
          "time": 8.25,
          "midi": 55,
          "name": "G3",
          "velocity": 0.29133858267716534,
          "duration": 0.3718749999999993,
          "ticks": 2640,
          "durationTicks": 119
        },
        {
          "time": 8.625,
          "midi": 57,
          "name": "A3",
          "velocity": 0.29133858267716534,
          "duration": 0.3718749999999993,
          "ticks": 2760,
          "durationTicks": 119
        },
        {
          "time": 9,
          "midi": 57,
          "name": "A3",
          "velocity": 0.29133858267716534,
          "duration": 0.3718749999999993,
          "ticks": 2880,
          "durationTicks": 119
        },
        {
          "time": 9.375,
          "midi": 55,
          "name": "G3",
          "velocity": 0.28346456692913385,
          "duration": 0.3718749999999993,
          "ticks": 3000,
          "durationTicks": 119
        },
        {
          "time": 9.75,
          "midi": 54,
          "name": "F#3",
          "velocity": 0.28346456692913385,
          "duration": 0.3718749999999993,
          "ticks": 3120,
          "durationTicks": 119
        },
        {
          "time": 10.125,
          "midi": 52,
          "name": "E3",
          "velocity": 0.28346456692913385,
          "duration": 0.3718749999999993,
          "ticks": 3240,
          "durationTicks": 119
        },
        {
          "time": 10.5,
          "midi": 50,
          "name": "D3",
          "velocity": 0.2992125984251969,
          "duration": 0.7468749999999993,
          "ticks": 3360,
          "durationTicks": 239
        },
        {
          "time": 11.25,
          "midi": 52,
          "name": "E3",
          "velocity": 0.3464566929133858,
          "duration": 0.3718749999999993,
          "ticks": 3600,
          "durationTicks": 119
        },
        {
          "time": 11.625,
          "midi": 54,
          "name": "F#3",
          "velocity": 0.3464566929133858,
          "duration": 0.3718749999999993,
          "ticks": 3720,
          "durationTicks": 119
        },
        {
          "time": 12,
          "midi": 52,
          "name": "E3",
          "velocity": 0.3464566929133858,
          "duration": 0.5593749999999993,
          "ticks": 3840,
          "durationTicks": 179
        },
        {
          "time": 12.5625,
          "midi": 50,
          "name": "D3",
          "velocity": 0.29133858267716534,
          "duration": 0.1843749999999993,
          "ticks": 4020,
          "durationTicks": 59
        },
        {
          "time": 12.75,
          "midi": 50,
          "name": "D3",
          "velocity": 0.2677165354330709,
          "duration": 0.7468749999999993,
          "ticks": 4080,
          "durationTicks": 239
        },
        {
          "time": 13.496875,
          "midi": 52,
          "name": "E3",
          "velocity": 0.25984251968503935,
          "duration": 0.7468750000000011,
          "ticks": 4319,
          "durationTicks": 239
        },
        {
          "time": 14.246875,
          "midi": 54,
          "name": "F#3",
          "velocity": 0.30708661417322836,
          "duration": 0.37187500000000107,
          "ticks": 4559,
          "durationTicks": 119
        },
        {
          "time": 14.621875,
          "midi": 50,
          "name": "D3",
          "velocity": 0.3228346456692913,
          "duration": 0.37187500000000107,
          "ticks": 4679,
          "durationTicks": 119
        },
        {
          "time": 14.996875,
          "midi": 52,
          "name": "E3",
          "velocity": 0.3464566929133858,
          "duration": 0.37187500000000107,
          "ticks": 4799,
          "durationTicks": 119
        },
        {
          "time": 15.371875,
          "midi": 54,
          "name": "F#3",
          "velocity": 0.3700787401574803,
          "duration": 0.18437500000000107,
          "ticks": 4919,
          "durationTicks": 59
        },
        {
          "time": 15.559375,
          "midi": 55,
          "name": "G3",
          "velocity": 0.33070866141732286,
          "duration": 0.18437500000000107,
          "ticks": 4979,
          "durationTicks": 59
        },
        {
          "time": 15.746875,
          "midi": 54,
          "name": "F#3",
          "velocity": 0.33858267716535434,
          "duration": 0.3718749999999993,
          "ticks": 5039,
          "durationTicks": 119
        },
        {
          "time": 16.121875,
          "midi": 50,
          "name": "D3",
          "velocity": 0.3464566929133858,
          "duration": 0.3718749999999993,
          "ticks": 5159,
          "durationTicks": 119
        },
        {
          "time": 16.496875,
          "midi": 52,
          "name": "E3",
          "velocity": 0.3543307086614173,
          "duration": 0.3718749999999993,
          "ticks": 5279,
          "durationTicks": 119
        },
        {
          "time": 16.871875,
          "midi": 54,
          "name": "F#3",
          "velocity": 0.3700787401574803,
          "duration": 0.1843749999999993,
          "ticks": 5399,
          "durationTicks": 59
        },
        {
          "time": 17.059375,
          "midi": 55,
          "name": "G3",
          "velocity": 0.3700787401574803,
          "duration": 0.1843749999999993,
          "ticks": 5459,
          "durationTicks": 59
        },
        {
          "time": 17.246875,
          "midi": 54,
          "name": "F#3",
          "velocity": 0.3779527559055118,
          "duration": 0.3718749999999993,
          "ticks": 5519,
          "durationTicks": 119
        },
        {
          "time": 17.621875,
          "midi": 52,
          "name": "E3",
          "velocity": 0.3779527559055118,
          "duration": 0.3718749999999993,
          "ticks": 5639,
          "durationTicks": 119
        },
        {
          "time": 17.996875,
          "midi": 50,
          "name": "D3",
          "velocity": 0.5669291338582677,
          "duration": 0.3718749999999993,
          "ticks": 5759,
          "durationTicks": 119
        },
        {
          "time": 18.371875,
          "midi": 52,
          "name": "E3",
          "velocity": 0.7086614173228346,
          "duration": 0.3718749999999993,
          "ticks": 5879,
          "durationTicks": 119
        },
        {
          "time": 18.746875,
          "midi": 45,
          "name": "A2",
          "velocity": 0.7401574803149606,
          "duration": 0.3718749999999993,
          "ticks": 5999,
          "durationTicks": 119
        },
        {
          "time": 19.121875,
          "midi": 54,
          "name": "F#3",
          "velocity": 0.5748031496062992,
          "duration": 0.7468749999999993,
          "ticks": 6119,
          "durationTicks": 239
        },
        {
          "time": 19.875,
          "midi": 54,
          "name": "F#3",
          "velocity": 0.44881889763779526,
          "duration": 0.3718749999999993,
          "ticks": 6360,
          "durationTicks": 119
        },
        {
          "time": 20.246875,
          "midi": 55,
          "name": "G3",
          "velocity": 0.41732283464566927,
          "duration": 0.3718749999999993,
          "ticks": 6479,
          "durationTicks": 119
        },
        {
          "time": 20.621875,
          "midi": 57,
          "name": "A3",
          "velocity": 0.4015748031496063,
          "duration": 0.3718749999999993,
          "ticks": 6599,
          "durationTicks": 119
        },
        {
          "time": 20.996875,
          "midi": 57,
          "name": "A3",
          "velocity": 0.3858267716535433,
          "duration": 0.3718749999999993,
          "ticks": 6719,
          "durationTicks": 119
        },
        {
          "time": 21.371875,
          "midi": 55,
          "name": "G3",
          "velocity": 0.3779527559055118,
          "duration": 0.3718749999999993,
          "ticks": 6839,
          "durationTicks": 119
        },
        {
          "time": 21.746875,
          "midi": 54,
          "name": "F#3",
          "velocity": 0.33858267716535434,
          "duration": 0.3718749999999993,
          "ticks": 6959,
          "durationTicks": 119
        },
        {
          "time": 22.121875,
          "midi": 52,
          "name": "E3",
          "velocity": 0.33858267716535434,
          "duration": 0.3718749999999993,
          "ticks": 7079,
          "durationTicks": 119
        },
        {
          "time": 22.496875,
          "midi": 50,
          "name": "D3",
          "velocity": 0.3464566929133858,
          "duration": 0.7468749999999993,
          "ticks": 7199,
          "durationTicks": 239
        },
        {
          "time": 23.246875,
          "midi": 52,
          "name": "E3",
          "velocity": 0.3464566929133858,
          "duration": 0.3718749999999993,
          "ticks": 7439,
          "durationTicks": 119
        },
        {
          "time": 23.621875,
          "midi": 54,
          "name": "F#3",
          "velocity": 0.3464566929133858,
          "duration": 0.3718749999999993,
          "ticks": 7559,
          "durationTicks": 119
        },
        {
          "time": 23.996875,
          "midi": 52,
          "name": "E3",
          "velocity": 0.33070866141732286,
          "duration": 0.5593749999999993,
          "ticks": 7679,
          "durationTicks": 179
        },
        {
          "time": 24.559374999999996,
          "midi": 50,
          "name": "D3",
          "velocity": 0.3228346456692913,
          "duration": 0.18437500000000284,
          "ticks": 7859,
          "durationTicks": 59
        },
        {
          "time": 24.746874999999996,
          "midi": 50,
          "name": "D3",
          "velocity": 0.3228346456692913,
          "duration": 0.7468750000000028,
          "ticks": 7919,
          "durationTicks": 239
        },
        {
          "time": 25.49375,
          "midi": 52,
          "name": "E3",
          "velocity": 0.31496062992125984,
          "duration": 0.7468749999999993,
          "ticks": 8158,
          "durationTicks": 239
        },
        {
          "time": 26.24375,
          "midi": 54,
          "name": "F#3",
          "velocity": 0.30708661417322836,
          "duration": 0.3718749999999993,
          "ticks": 8398,
          "durationTicks": 119
        },
        {
          "time": 26.61875,
          "midi": 50,
          "name": "D3",
          "velocity": 0.25984251968503935,
          "duration": 0.3718749999999993,
          "ticks": 8518,
          "durationTicks": 119
        },
        {
          "time": 26.99375,
          "midi": 52,
          "name": "E3",
          "velocity": 0.2677165354330709,
          "duration": 0.3718749999999993,
          "ticks": 8638,
          "durationTicks": 119
        },
        {
          "time": 27.36875,
          "midi": 54,
          "name": "F#3",
          "velocity": 0.28346456692913385,
          "duration": 0.1843749999999993,
          "ticks": 8758,
          "durationTicks": 59
        },
        {
          "time": 27.55625,
          "midi": 55,
          "name": "G3",
          "velocity": 0.28346456692913385,
          "duration": 0.1843749999999993,
          "ticks": 8818,
          "durationTicks": 59
        },
        {
          "time": 27.74375,
          "midi": 54,
          "name": "F#3",
          "velocity": 0.2992125984251969,
          "duration": 0.3718749999999993,
          "ticks": 8878,
          "durationTicks": 119
        },
        {
          "time": 28.11875,
          "midi": 50,
          "name": "D3",
          "velocity": 0.2992125984251969,
          "duration": 0.3718749999999993,
          "ticks": 8998,
          "durationTicks": 119
        },
        {
          "time": 28.49375,
          "midi": 52,
          "name": "E3",
          "velocity": 0.2992125984251969,
          "duration": 0.3718749999999993,
          "ticks": 9118,
          "durationTicks": 119
        },
        {
          "time": 28.86875,
          "midi": 54,
          "name": "F#3",
          "velocity": 0.29133858267716534,
          "duration": 0.1843749999999993,
          "ticks": 9238,
          "durationTicks": 59
        },
        {
          "time": 29.05625,
          "midi": 55,
          "name": "G3",
          "velocity": 0.29133858267716534,
          "duration": 0.1843749999999993,
          "ticks": 9298,
          "durationTicks": 59
        },
        {
          "time": 29.24375,
          "midi": 54,
          "name": "F#3",
          "velocity": 0.29133858267716534,
          "duration": 0.3718749999999993,
          "ticks": 9358,
          "durationTicks": 119
        },
        {
          "time": 29.61875,
          "midi": 52,
          "name": "E3",
          "velocity": 0.28346456692913385,
          "duration": 0.3718749999999993,
          "ticks": 9478,
          "durationTicks": 119
        },
        {
          "time": 29.99375,
          "midi": 50,
          "name": "D3",
          "velocity": 0.30708661417322836,
          "duration": 0.3718749999999993,
          "ticks": 9598,
          "durationTicks": 119
        },
        {
          "time": 30.36875,
          "midi": 52,
          "name": "E3",
          "velocity": 0.4094488188976378,
          "duration": 0.3718749999999993,
          "ticks": 9718,
          "durationTicks": 119
        },
        {
          "time": 30.75,
          "midi": 45,
          "name": "A2",
          "velocity": 0.6141732283464567,
          "duration": 0.37187499999999574,
          "ticks": 9840,
          "durationTicks": 119
        },
        {
          "time": 31.125,
          "midi": 54,
          "name": "F#3",
          "velocity": 0.6456692913385826,
          "duration": 0.7468749999999957,
          "ticks": 9960,
          "durationTicks": 239
        },
        {
          "time": 31.875,
          "midi": 54,
          "name": "F#3",
          "velocity": 0.47244094488188976,
          "duration": 0.37187499999999574,
          "ticks": 10200,
          "durationTicks": 119
        },
        {
          "time": 32.25,
          "midi": 55,
          "name": "G3",
          "velocity": 0.4409448818897638,
          "duration": 0.37187499999999574,
          "ticks": 10320,
          "durationTicks": 119
        },
        {
          "time": 32.625,
          "midi": 57,
          "name": "A3",
          "velocity": 0.3779527559055118,
          "duration": 0.37187499999999574,
          "ticks": 10440,
          "durationTicks": 119
        },
        {
          "time": 33,
          "midi": 57,
          "name": "A3",
          "velocity": 0.3700787401574803,
          "duration": 0.37187499999999574,
          "ticks": 10560,
          "durationTicks": 119
        },
        {
          "time": 33.375,
          "midi": 55,
          "name": "G3",
          "velocity": 0.3543307086614173,
          "duration": 0.37187499999999574,
          "ticks": 10680,
          "durationTicks": 119
        },
        {
          "time": 33.75,
          "midi": 54,
          "name": "F#3",
          "velocity": 0.3543307086614173,
          "duration": 0.37187499999999574,
          "ticks": 10800,
          "durationTicks": 119
        },
        {
          "time": 34.125,
          "midi": 52,
          "name": "E3",
          "velocity": 0.3464566929133858,
          "duration": 0.37187499999999574,
          "ticks": 10920,
          "durationTicks": 119
        },
        {
          "time": 34.5,
          "midi": 50,
          "name": "D3",
          "velocity": 0.33858267716535434,
          "duration": 0.7468749999999957,
          "ticks": 11040,
          "durationTicks": 239
        },
        {
          "time": 35.25,
          "midi": 52,
          "name": "E3",
          "velocity": 0.30708661417322836,
          "duration": 0.37187499999999574,
          "ticks": 11280,
          "durationTicks": 119
        },
        {
          "time": 35.625,
          "midi": 54,
          "name": "F#3",
          "velocity": 0.31496062992125984,
          "duration": 0.37187499999999574,
          "ticks": 11400,
          "durationTicks": 119
        },
        {
          "time": 36,
          "midi": 52,
          "name": "E3",
          "velocity": 0.31496062992125984,
          "duration": 0.5593749999999957,
          "ticks": 11520,
          "durationTicks": 179
        },
        {
          "time": 36.5625,
          "midi": 50,
          "name": "D3",
          "velocity": 0.31496062992125984,
          "duration": 0.18437499999999574,
          "ticks": 11700,
          "durationTicks": 59
        },
        {
          "time": 36.75,
          "midi": 50,
          "name": "D3",
          "velocity": 0.31496062992125984,
          "duration": 0.37187499999999574,
          "ticks": 11760,
          "durationTicks": 119
        },
        {
          "time": 37.125,
          "midi": 57,
          "name": "A3",
          "velocity": 0.31496062992125984,
          "duration": 0.37187499999999574,
          "ticks": 11880,
          "durationTicks": 119
        },
        {
          "time": 37.5,
          "midi": 66,
          "name": "F#4",
          "velocity": 0.3543307086614173,
          "duration": 0.7468749999999957,
          "ticks": 12000,
          "durationTicks": 239
        },
        {
          "time": 38.25,
          "midi": 67,
          "name": "G4",
          "velocity": 0.36220472440944884,
          "duration": 0.37187499999999574,
          "ticks": 12240,
          "durationTicks": 119
        },
        {
          "time": 38.625,
          "midi": 69,
          "name": "A4",
          "velocity": 0.31496062992125984,
          "duration": 0.37187499999999574,
          "ticks": 12360,
          "durationTicks": 119
        },
        {
          "time": 39,
          "midi": 69,
          "name": "A4",
          "velocity": 0.3228346456692913,
          "duration": 0.37187499999999574,
          "ticks": 12480,
          "durationTicks": 119
        },
        {
          "time": 39.375,
          "midi": 67,
          "name": "G4",
          "velocity": 0.3228346456692913,
          "duration": 0.37187499999999574,
          "ticks": 12600,
          "durationTicks": 119
        },
        {
          "time": 39.75,
          "midi": 66,
          "name": "F#4",
          "velocity": 0.33858267716535434,
          "duration": 0.37187499999999574,
          "ticks": 12720,
          "durationTicks": 119
        },
        {
          "time": 40.125,
          "midi": 64,
          "name": "E4",
          "velocity": 0.3464566929133858,
          "duration": 0.37187499999999574,
          "ticks": 12840,
          "durationTicks": 119
        },
        {
          "time": 40.5,
          "midi": 62,
          "name": "D4",
          "velocity": 0.3543307086614173,
          "duration": 0.7468749999999957,
          "ticks": 12960,
          "durationTicks": 239
        },
        {
          "time": 41.25,
          "midi": 64,
          "name": "E4",
          "velocity": 0.36220472440944884,
          "duration": 0.37187499999999574,
          "ticks": 13200,
          "durationTicks": 119
        },
        {
          "time": 41.625,
          "midi": 66,
          "name": "F#4",
          "velocity": 0.3700787401574803,
          "duration": 0.37187499999999574,
          "ticks": 13320,
          "durationTicks": 119
        },
        {
          "time": 42,
          "midi": 66,
          "name": "F#4",
          "velocity": 0.3700787401574803,
          "duration": 0.5593749999999957,
          "ticks": 13440,
          "durationTicks": 179
        },
        {
          "time": 42.5625,
          "midi": 64,
          "name": "E4",
          "velocity": 0.3779527559055118,
          "duration": 0.18437499999999574,
          "ticks": 13620,
          "durationTicks": 59
        },
        {
          "time": 42.75,
          "midi": 64,
          "name": "E4",
          "velocity": 0.3779527559055118,
          "duration": 0.7468749999999957,
          "ticks": 13680,
          "durationTicks": 239
        },
        {
          "time": 43.5,
          "midi": 66,
          "name": "F#4",
          "velocity": 0.3779527559055118,
          "duration": 0.7468749999999957,
          "ticks": 13920,
          "durationTicks": 239
        },
        {
          "time": 44.25,
          "midi": 67,
          "name": "G4",
          "velocity": 0.3779527559055118,
          "duration": 0.37187499999999574,
          "ticks": 14160,
          "durationTicks": 119
        },
        {
          "time": 44.625,
          "midi": 69,
          "name": "A4",
          "velocity": 0.3779527559055118,
          "duration": 0.37187499999999574,
          "ticks": 14280,
          "durationTicks": 119
        },
        {
          "time": 45,
          "midi": 69,
          "name": "A4",
          "velocity": 0.3779527559055118,
          "duration": 0.37187499999999574,
          "ticks": 14400,
          "durationTicks": 119
        },
        {
          "time": 45.375,
          "midi": 67,
          "name": "G4",
          "velocity": 0.3779527559055118,
          "duration": 0.37187499999999574,
          "ticks": 14520,
          "durationTicks": 119
        },
        {
          "time": 45.75,
          "midi": 66,
          "name": "F#4",
          "velocity": 0.3700787401574803,
          "duration": 0.37187499999999574,
          "ticks": 14640,
          "durationTicks": 119
        },
        {
          "time": 46.125,
          "midi": 64,
          "name": "E4",
          "velocity": 0.3700787401574803,
          "duration": 0.37187499999999574,
          "ticks": 14760,
          "durationTicks": 119
        },
        {
          "time": 46.5,
          "midi": 62,
          "name": "D4",
          "velocity": 0.3464566929133858,
          "duration": 0.7468749999999957,
          "ticks": 14880,
          "durationTicks": 239
        },
        {
          "time": 47.25,
          "midi": 64,
          "name": "E4",
          "velocity": 0.3464566929133858,
          "duration": 0.37187499999999574,
          "ticks": 15120,
          "durationTicks": 119
        },
        {
          "time": 47.625,
          "midi": 66,
          "name": "F#4",
          "velocity": 0.3464566929133858,
          "duration": 0.37187499999999574,
          "ticks": 15240,
          "durationTicks": 119
        },
        {
          "time": 48,
          "midi": 64,
          "name": "E4",
          "velocity": 0.3464566929133858,
          "duration": 0.5593750000000028,
          "ticks": 15360,
          "durationTicks": 179
        },
        {
          "time": 48.5625,
          "midi": 62,
          "name": "D4",
          "velocity": 0.3543307086614173,
          "duration": 0.18437500000000284,
          "ticks": 15540,
          "durationTicks": 59
        },
        {
          "time": 48.75,
          "midi": 62,
          "name": "D4",
          "velocity": 0.3543307086614173,
          "duration": 0.7468750000000028,
          "ticks": 15600,
          "durationTicks": 239
        },
        {
          "time": 49.496875,
          "midi": 64,
          "name": "E4",
          "velocity": 0.3700787401574803,
          "duration": 0.7468749999999886,
          "ticks": 15839,
          "durationTicks": 239
        },
        {
          "time": 50.246875,
          "midi": 66,
          "name": "F#4",
          "velocity": 0.3700787401574803,
          "duration": 0.37187499999998863,
          "ticks": 16079,
          "durationTicks": 119
        },
        {
          "time": 50.621875,
          "midi": 62,
          "name": "D4",
          "velocity": 0.3700787401574803,
          "duration": 0.37187499999998863,
          "ticks": 16199,
          "durationTicks": 119
        },
        {
          "time": 50.996875,
          "midi": 64,
          "name": "E4",
          "velocity": 0.3700787401574803,
          "duration": 0.37187499999998863,
          "ticks": 16319,
          "durationTicks": 119
        },
        {
          "time": 51.371875,
          "midi": 66,
          "name": "F#4",
          "velocity": 0.33858267716535434,
          "duration": 0.18437499999998863,
          "ticks": 16439,
          "durationTicks": 59
        },
        {
          "time": 51.559375,
          "midi": 67,
          "name": "G4",
          "velocity": 0.33858267716535434,
          "duration": 0.18437499999998863,
          "ticks": 16499,
          "durationTicks": 59
        },
        {
          "time": 51.746875,
          "midi": 66,
          "name": "F#4",
          "velocity": 0.33858267716535434,
          "duration": 0.37187499999998863,
          "ticks": 16559,
          "durationTicks": 119
        },
        {
          "time": 52.121875,
          "midi": 62,
          "name": "D4",
          "velocity": 0.33858267716535434,
          "duration": 0.37187499999998863,
          "ticks": 16679,
          "durationTicks": 119
        },
        {
          "time": 52.496875,
          "midi": 64,
          "name": "E4",
          "velocity": 0.33858267716535434,
          "duration": 0.37187499999998863,
          "ticks": 16799,
          "durationTicks": 119
        },
        {
          "time": 52.871875,
          "midi": 66,
          "name": "F#4",
          "velocity": 0.3543307086614173,
          "duration": 0.18437499999998863,
          "ticks": 16919,
          "durationTicks": 59
        },
        {
          "time": 53.059375,
          "midi": 67,
          "name": "G4",
          "velocity": 0.3543307086614173,
          "duration": 0.18437499999998863,
          "ticks": 16979,
          "durationTicks": 59
        },
        {
          "time": 53.246875,
          "midi": 66,
          "name": "F#4",
          "velocity": 0.3700787401574803,
          "duration": 0.37187499999998863,
          "ticks": 17039,
          "durationTicks": 119
        },
        {
          "time": 53.621875,
          "midi": 64,
          "name": "E4",
          "velocity": 0.3779527559055118,
          "duration": 0.37187499999998863,
          "ticks": 17159,
          "durationTicks": 119
        },
        {
          "time": 53.996875,
          "midi": 62,
          "name": "D4",
          "velocity": 0.3779527559055118,
          "duration": 0.37187499999998863,
          "ticks": 17279,
          "durationTicks": 119
        },
        {
          "time": 54.371875,
          "midi": 64,
          "name": "E4",
          "velocity": 0.3779527559055118,
          "duration": 0.37187499999998863,
          "ticks": 17399,
          "durationTicks": 119
        },
        {
          "time": 54.746875,
          "midi": 57,
          "name": "A3",
          "velocity": 0.3779527559055118,
          "duration": 0.37187499999998863,
          "ticks": 17519,
          "durationTicks": 119
        },
        {
          "time": 55.121875,
          "midi": 66,
          "name": "F#4",
          "velocity": 0.3700787401574803,
          "duration": 0.7468749999999886,
          "ticks": 17639,
          "durationTicks": 239
        },
        {
          "time": 55.875,
          "midi": 66,
          "name": "F#4",
          "velocity": 0.36220472440944884,
          "duration": 0.37187500000000284,
          "ticks": 17880,
          "durationTicks": 119
        },
        {
          "time": 56.246875,
          "midi": 67,
          "name": "G4",
          "velocity": 0.36220472440944884,
          "duration": 0.37187499999998863,
          "ticks": 17999,
          "durationTicks": 119
        },
        {
          "time": 56.621875,
          "midi": 69,
          "name": "A4",
          "velocity": 0.36220472440944884,
          "duration": 0.37187499999998863,
          "ticks": 18119,
          "durationTicks": 119
        },
        {
          "time": 56.996875,
          "midi": 69,
          "name": "A4",
          "velocity": 0.36220472440944884,
          "duration": 0.37187499999998863,
          "ticks": 18239,
          "durationTicks": 119
        },
        {
          "time": 57.371875,
          "midi": 67,
          "name": "G4",
          "velocity": 0.36220472440944884,
          "duration": 0.37187499999998863,
          "ticks": 18359,
          "durationTicks": 119
        },
        {
          "time": 57.746875,
          "midi": 66,
          "name": "F#4",
          "velocity": 0.36220472440944884,
          "duration": 0.37187499999998863,
          "ticks": 18479,
          "durationTicks": 119
        },
        {
          "time": 58.121875,
          "midi": 64,
          "name": "E4",
          "velocity": 0.36220472440944884,
          "duration": 0.37187499999998863,
          "ticks": 18599,
          "durationTicks": 119
        },
        {
          "time": 58.496875,
          "midi": 62,
          "name": "D4",
          "velocity": 0.36220472440944884,
          "duration": 0.7468749999999886,
          "ticks": 18719,
          "durationTicks": 239
        },
        {
          "time": 59.246875,
          "midi": 64,
          "name": "E4",
          "velocity": 0.3543307086614173,
          "duration": 0.37187499999998863,
          "ticks": 18959,
          "durationTicks": 119
        },
        {
          "time": 59.621875,
          "midi": 66,
          "name": "F#4",
          "velocity": 0.36220472440944884,
          "duration": 0.37187499999998863,
          "ticks": 19079,
          "durationTicks": 119
        },
        {
          "time": 59.996875,
          "midi": 64,
          "name": "E4",
          "velocity": 0.36220472440944884,
          "duration": 0.5593749999999886,
          "ticks": 19199,
          "durationTicks": 179
        },
        {
          "time": 60.559375,
          "midi": 62,
          "name": "D4",
          "velocity": 0.36220472440944884,
          "duration": 0.18437499999998863,
          "ticks": 19379,
          "durationTicks": 59
        },
        {
          "time": 60.746875,
          "midi": 62,
          "name": "D4",
          "velocity": 0.36220472440944884,
          "duration": 0.7468749999999886,
          "ticks": 19439,
          "durationTicks": 239
        },
        {
          "time": 61.49374999999999,
          "midi": 64,
          "name": "E4",
          "velocity": 0.3700787401574803,
          "duration": 0.7468750000000028,
          "ticks": 19678,
          "durationTicks": 239
        },
        {
          "time": 62.24374999999999,
          "midi": 66,
          "name": "F#4",
          "velocity": 0.3700787401574803,
          "duration": 0.37187500000000284,
          "ticks": 19918,
          "durationTicks": 119
        },
        {
          "time": 62.61874999999999,
          "midi": 62,
          "name": "D4",
          "velocity": 0.3700787401574803,
          "duration": 0.37187500000000284,
          "ticks": 20038,
          "durationTicks": 119
        },
        {
          "time": 62.99374999999999,
          "midi": 64,
          "name": "E4",
          "velocity": 0.3700787401574803,
          "duration": 0.37187500000000284,
          "ticks": 20158,
          "durationTicks": 119
        },
        {
          "time": 63.36874999999999,
          "midi": 66,
          "name": "F#4",
          "velocity": 0.3700787401574803,
          "duration": 0.18437500000000284,
          "ticks": 20278,
          "durationTicks": 59
        },
        {
          "time": 63.55624999999999,
          "midi": 67,
          "name": "G4",
          "velocity": 0.3700787401574803,
          "duration": 0.18437500000000284,
          "ticks": 20338,
          "durationTicks": 59
        },
        {
          "time": 63.74374999999999,
          "midi": 66,
          "name": "F#4",
          "velocity": 0.3700787401574803,
          "duration": 0.37187500000000284,
          "ticks": 20398,
          "durationTicks": 119
        },
        {
          "time": 64.11874999999999,
          "midi": 62,
          "name": "D4",
          "velocity": 0.36220472440944884,
          "duration": 0.37187500000000284,
          "ticks": 20518,
          "durationTicks": 119
        },
        {
          "time": 64.49374999999999,
          "midi": 64,
          "name": "E4",
          "velocity": 0.36220472440944884,
          "duration": 0.37187500000000284,
          "ticks": 20638,
          "durationTicks": 119
        },
        {
          "time": 64.86874999999999,
          "midi": 66,
          "name": "F#4",
          "velocity": 0.36220472440944884,
          "duration": 0.18437500000000284,
          "ticks": 20758,
          "durationTicks": 59
        },
        {
          "time": 65.05624999999999,
          "midi": 67,
          "name": "G4",
          "velocity": 0.36220472440944884,
          "duration": 0.18437500000000284,
          "ticks": 20818,
          "durationTicks": 59
        },
        {
          "time": 65.24374999999999,
          "midi": 66,
          "name": "F#4",
          "velocity": 0.36220472440944884,
          "duration": 0.37187500000000284,
          "ticks": 20878,
          "durationTicks": 119
        },
        {
          "time": 65.61874999999999,
          "midi": 64,
          "name": "E4",
          "velocity": 0.36220472440944884,
          "duration": 0.37187500000000284,
          "ticks": 20998,
          "durationTicks": 119
        },
        {
          "time": 65.99374999999999,
          "midi": 62,
          "name": "D4",
          "velocity": 0.3700787401574803,
          "duration": 0.37187500000000284,
          "ticks": 21118,
          "durationTicks": 119
        },
        {
          "time": 66.36874999999999,
          "midi": 64,
          "name": "E4",
          "velocity": 0.3700787401574803,
          "duration": 0.37187500000000284,
          "ticks": 21238,
          "durationTicks": 119
        },
        {
          "time": 66.75,
          "midi": 57,
          "name": "A3",
          "velocity": 0.3858267716535433,
          "duration": 0.37187500000000284,
          "ticks": 21360,
          "durationTicks": 119
        },
        {
          "time": 67.125,
          "midi": 66,
          "name": "F#4",
          "velocity": 0.2677165354330709,
          "duration": 0.7468750000000028,
          "ticks": 21480,
          "durationTicks": 239
        },
        {
          "time": 67.875,
          "midi": 66,
          "name": "F#4",
          "velocity": 0.33858267716535434,
          "duration": 0.37187500000000284,
          "ticks": 21720,
          "durationTicks": 119
        },
        {
          "time": 68.25,
          "midi": 67,
          "name": "G4",
          "velocity": 0.3464566929133858,
          "duration": 0.37187500000000284,
          "ticks": 21840,
          "durationTicks": 119
        },
        {
          "time": 68.625,
          "midi": 69,
          "name": "A4",
          "velocity": 0.3779527559055118,
          "duration": 0.37187500000000284,
          "ticks": 21960,
          "durationTicks": 119
        },
        {
          "time": 69,
          "midi": 69,
          "name": "A4",
          "velocity": 0.31496062992125984,
          "duration": 0.37187500000000284,
          "ticks": 22080,
          "durationTicks": 119
        },
        {
          "time": 69.375,
          "midi": 67,
          "name": "G4",
          "velocity": 0.36220472440944884,
          "duration": 0.37187500000000284,
          "ticks": 22200,
          "durationTicks": 119
        },
        {
          "time": 69.75,
          "midi": 66,
          "name": "F#4",
          "velocity": 0.3464566929133858,
          "duration": 0.37187500000000284,
          "ticks": 22320,
          "durationTicks": 119
        },
        {
          "time": 70.125,
          "midi": 64,
          "name": "E4",
          "velocity": 0.4645669291338583,
          "duration": 0.37187500000000284,
          "ticks": 22440,
          "durationTicks": 119
        },
        {
          "time": 70.5,
          "midi": 62,
          "name": "D4",
          "velocity": 0.3779527559055118,
          "duration": 0.7468750000000028,
          "ticks": 22560,
          "durationTicks": 239
        },
        {
          "time": 71.25,
          "midi": 64,
          "name": "E4",
          "velocity": 0.3937007874015748,
          "duration": 0.37187500000000284,
          "ticks": 22800,
          "durationTicks": 119
        },
        {
          "time": 71.625,
          "midi": 66,
          "name": "F#4",
          "velocity": 0.4015748031496063,
          "duration": 0.37187500000000284,
          "ticks": 22920,
          "durationTicks": 119
        },
        {
          "time": 72,
          "midi": 64,
          "name": "E4",
          "velocity": 0.4094488188976378,
          "duration": 0.5593750000000028,
          "ticks": 23040,
          "durationTicks": 179
        },
        {
          "time": 72.5625,
          "midi": 62,
          "name": "D4",
          "velocity": 0.4251968503937008,
          "duration": 0.18437500000000284,
          "ticks": 23220,
          "durationTicks": 59
        },
        {
          "time": 72.75,
          "midi": 62,
          "name": "D4",
          "velocity": 0.4330708661417323,
          "duration": 0.7468750000000028,
          "ticks": 23280,
          "durationTicks": 239
        },
        {
          "time": 73.5,
          "midi": 69,
          "name": "A4",
          "velocity": 0.4566929133858268,
          "duration": 0.7468750000000028,
          "ticks": 23520,
          "durationTicks": 239
        },
        {
          "time": 74.25,
          "midi": 62,
          "name": "D4",
          "velocity": 0.47244094488188976,
          "duration": 0.7468750000000028,
          "ticks": 23760,
          "durationTicks": 239
        },
        {
          "time": 75,
          "midi": 59,
          "name": "B3",
          "velocity": 0.49606299212598426,
          "duration": 0.5593750000000028,
          "ticks": 24000,
          "durationTicks": 179
        },
        {
          "time": 75.5625,
          "midi": 61,
          "name": "C#4",
          "velocity": 0.49606299212598426,
          "duration": 0.18437500000000284,
          "ticks": 24180,
          "durationTicks": 59
        },
        {
          "time": 75.75,
          "midi": 62,
          "name": "D4",
          "velocity": 0.49606299212598426,
          "duration": 0.37187500000000284,
          "ticks": 24240,
          "durationTicks": 119
        },
        {
          "time": 76.125,
          "midi": 67,
          "name": "G4",
          "velocity": 0.49606299212598426,
          "duration": 0.7468750000000028,
          "ticks": 24360,
          "durationTicks": 239
        },
        {
          "time": 76.875,
          "midi": 66,
          "name": "F#4",
          "velocity": 0.47244094488188976,
          "duration": 0.37187500000000284,
          "ticks": 24600,
          "durationTicks": 119
        },
        {
          "time": 77.25,
          "midi": 64,
          "name": "E4",
          "velocity": 0.4566929133858268,
          "duration": 0.37187500000000284,
          "ticks": 24720,
          "durationTicks": 119
        },
        {
          "time": 77.625,
          "midi": 62,
          "name": "D4",
          "velocity": 0.44881889763779526,
          "duration": 0.7468750000000028,
          "ticks": 24840,
          "durationTicks": 239
        },
        {
          "time": 78.375,
          "midi": 61,
          "name": "C#4",
          "velocity": 0.44881889763779526,
          "duration": 0.37187500000000284,
          "ticks": 25080,
          "durationTicks": 119
        },
        {
          "time": 78.75,
          "midi": 59,
          "name": "B3",
          "velocity": 0.4645669291338583,
          "duration": 0.37187500000000284,
          "ticks": 25200,
          "durationTicks": 119
        },
        {
          "time": 79.125,
          "midi": 57,
          "name": "A3",
          "velocity": 0.48031496062992124,
          "duration": 0.37187500000000284,
          "ticks": 25320,
          "durationTicks": 119
        },
        {
          "time": 79.5,
          "midi": 69,
          "name": "A4",
          "velocity": 0.4881889763779528,
          "duration": 0.7468750000000028,
          "ticks": 25440,
          "durationTicks": 239
        },
        {
          "time": 80.25,
          "midi": 62,
          "name": "D4",
          "velocity": 0.47244094488188976,
          "duration": 0.7468750000000028,
          "ticks": 25680,
          "durationTicks": 239
        },
        {
          "time": 81,
          "midi": 59,
          "name": "B3",
          "velocity": 0.47244094488188976,
          "duration": 0.5593750000000028,
          "ticks": 25920,
          "durationTicks": 179
        },
        {
          "time": 81.5625,
          "midi": 61,
          "name": "C#4",
          "velocity": 0.47244094488188976,
          "duration": 0.18437500000000284,
          "ticks": 26100,
          "durationTicks": 59
        },
        {
          "time": 81.75,
          "midi": 62,
          "name": "D4",
          "velocity": 0.47244094488188976,
          "duration": 0.37187500000000284,
          "ticks": 26160,
          "durationTicks": 119
        },
        {
          "time": 82.125,
          "midi": 67,
          "name": "G4",
          "velocity": 0.48031496062992124,
          "duration": 0.7468750000000028,
          "ticks": 26280,
          "durationTicks": 239
        },
        {
          "time": 82.875,
          "midi": 66,
          "name": "F#4",
          "velocity": 0.48031496062992124,
          "duration": 0.18437500000000284,
          "ticks": 26520,
          "durationTicks": 59
        },
        {
          "time": 83.0625,
          "midi": 64,
          "name": "E4",
          "velocity": 0.48031496062992124,
          "duration": 0.18437500000000284,
          "ticks": 26580,
          "durationTicks": 59
        },
        {
          "time": 83.25,
          "midi": 62,
          "name": "D4",
          "velocity": 0.48031496062992124,
          "duration": 0.18437500000000284,
          "ticks": 26640,
          "durationTicks": 59
        },
        {
          "time": 83.4375,
          "midi": 61,
          "name": "C#4",
          "velocity": 0.48031496062992124,
          "duration": 0.18437500000000284,
          "ticks": 26700,
          "durationTicks": 59
        },
        {
          "time": 83.625,
          "midi": 59,
          "name": "B3",
          "velocity": 0.48031496062992124,
          "duration": 0.18437500000000284,
          "ticks": 26760,
          "durationTicks": 59
        },
        {
          "time": 83.8125,
          "midi": 57,
          "name": "A3",
          "velocity": 0.4881889763779528,
          "duration": 0.18437500000000284,
          "ticks": 26820,
          "durationTicks": 59
        },
        {
          "time": 84,
          "midi": 55,
          "name": "G3",
          "velocity": 0.4881889763779528,
          "duration": 0.37187500000000284,
          "ticks": 26880,
          "durationTicks": 119
        },
        {
          "time": 84.375,
          "midi": 57,
          "name": "A3",
          "velocity": 0.49606299212598426,
          "duration": 0.37187500000000284,
          "ticks": 27000,
          "durationTicks": 119
        },
        {
          "time": 84.75,
          "midi": 54,
          "name": "F#3",
          "velocity": 0.5118110236220472,
          "duration": 0.37187500000000284,
          "ticks": 27120,
          "durationTicks": 119
        },
        {
          "time": 85.125,
          "midi": 66,
          "name": "F#4",
          "velocity": 0.5275590551181102,
          "duration": 0.37187500000000284,
          "ticks": 27240,
          "durationTicks": 119
        },
        {
          "time": 85.5,
          "midi": 67,
          "name": "G4",
          "velocity": 0.5275590551181102,
          "duration": 0.7468750000000028,
          "ticks": 27360,
          "durationTicks": 239
        },
        {
          "time": 86.25,
          "midi": 69,
          "name": "A4",
          "velocity": 0.5354330708661418,
          "duration": 0.37187500000000284,
          "ticks": 27600,
          "durationTicks": 119
        },
        {
          "time": 86.625,
          "midi": 59,
          "name": "B3",
          "velocity": 0.5354330708661418,
          "duration": 0.37187500000000284,
          "ticks": 27720,
          "durationTicks": 119
        },
        {
          "time": 87,
          "midi": 61,
          "name": "C#4",
          "velocity": 0.5354330708661418,
          "duration": 0.7468750000000028,
          "ticks": 27840,
          "durationTicks": 239
        },
        {
          "time": 87.75,
          "midi": 62,
          "name": "D4",
          "velocity": 0.5275590551181102,
          "duration": 0.37187500000000284,
          "ticks": 28080,
          "durationTicks": 119
        },
        {
          "time": 88.125,
          "midi": 64,
          "name": "E4",
          "velocity": 0.5196850393700787,
          "duration": 0.18437500000000284,
          "ticks": 28200,
          "durationTicks": 59
        },
        {
          "time": 88.3125,
          "midi": 66,
          "name": "F#4",
          "velocity": 0.5196850393700787,
          "duration": 0.18437500000000284,
          "ticks": 28260,
          "durationTicks": 59
        },
        {
          "time": 88.5,
          "midi": 67,
          "name": "G4",
          "velocity": 0.5196850393700787,
          "duration": 0.7468750000000028,
          "ticks": 28320,
          "durationTicks": 239
        },
        {
          "time": 89.25,
          "midi": 69,
          "name": "A4",
          "velocity": 0.49606299212598426,
          "duration": 0.18437500000000284,
          "ticks": 28560,
          "durationTicks": 59
        },
        {
          "time": 89.4375,
          "midi": 57,
          "name": "A3",
          "velocity": 0.49606299212598426,
          "duration": 0.18437500000000284,
          "ticks": 28620,
          "durationTicks": 59
        },
        {
          "time": 89.625,
          "midi": 58,
          "name": "A#3",
          "velocity": 0.49606299212598426,
          "duration": 0.37187500000000284,
          "ticks": 28680,
          "durationTicks": 119
        },
        {
          "time": 90,
          "midi": 59,
          "name": "B3",
          "velocity": 0.4881889763779528,
          "duration": 0.37187500000000284,
          "ticks": 28800,
          "durationTicks": 119
        },
        {
          "time": 90.375,
          "midi": 61,
          "name": "C#4",
          "velocity": 0.47244094488188976,
          "duration": 0.7468750000000028,
          "ticks": 28920,
          "durationTicks": 239
        },
        {
          "time": 91.125,
          "midi": 62,
          "name": "D4",
          "velocity": 0.4645669291338583,
          "duration": 0.37187500000000284,
          "ticks": 29160,
          "durationTicks": 119
        },
        {
          "time": 91.5,
          "midi": 69,
          "name": "A4",
          "velocity": 0.4645669291338583,
          "duration": 0.7468750000000028,
          "ticks": 29280,
          "durationTicks": 239
        },
        {
          "time": 92.25,
          "midi": 60,
          "name": "C4",
          "velocity": 0.4645669291338583,
          "duration": 0.7468750000000028,
          "ticks": 29520,
          "durationTicks": 239
        },
        {
          "time": 93,
          "midi": 59,
          "name": "B3",
          "velocity": 0.47244094488188976,
          "duration": 0.5593750000000028,
          "ticks": 29760,
          "durationTicks": 179
        },
        {
          "time": 93.5625,
          "midi": 61,
          "name": "C#4",
          "velocity": 0.4645669291338583,
          "duration": 0.18437500000000284,
          "ticks": 29940,
          "durationTicks": 59
        },
        {
          "time": 93.75,
          "midi": 62,
          "name": "D4",
          "velocity": 0.47244094488188976,
          "duration": 0.37187500000000284,
          "ticks": 30000,
          "durationTicks": 119
        },
        {
          "time": 94.125,
          "midi": 67,
          "name": "G4",
          "velocity": 0.4881889763779528,
          "duration": 0.7468750000000028,
          "ticks": 30120,
          "durationTicks": 239
        },
        {
          "time": 94.875,
          "midi": 66,
          "name": "F#4",
          "velocity": 0.5196850393700787,
          "duration": 0.18437500000000284,
          "ticks": 30360,
          "durationTicks": 59
        },
        {
          "time": 95.0625,
          "midi": 64,
          "name": "E4",
          "velocity": 0.5196850393700787,
          "duration": 0.18437500000000284,
          "ticks": 30420,
          "durationTicks": 59
        },
        {
          "time": 95.25,
          "midi": 62,
          "name": "D4",
          "velocity": 0.5275590551181102,
          "duration": 0.18437500000000284,
          "ticks": 30480,
          "durationTicks": 59
        },
        {
          "time": 95.4375,
          "midi": 61,
          "name": "C#4",
          "velocity": 0.5275590551181102,
          "duration": 0.18437500000000284,
          "ticks": 30540,
          "durationTicks": 59
        },
        {
          "time": 95.625,
          "midi": 59,
          "name": "B3",
          "velocity": 0.5275590551181102,
          "duration": 0.18437500000000284,
          "ticks": 30600,
          "durationTicks": 59
        },
        {
          "time": 95.8125,
          "midi": 57,
          "name": "A3",
          "velocity": 0.5275590551181102,
          "duration": 0.18437500000000284,
          "ticks": 30660,
          "durationTicks": 59
        },
        {
          "time": 96,
          "midi": 55,
          "name": "G3",
          "velocity": 0.5275590551181102,
          "duration": 0.37187500000000284,
          "ticks": 30720,
          "durationTicks": 119
        },
        {
          "time": 96.375,
          "midi": 57,
          "name": "A3",
          "velocity": 0.5275590551181102,
          "duration": 0.37187500000000284,
          "ticks": 30840,
          "durationTicks": 119
        },
        {
          "time": 96.75,
          "midi": 54,
          "name": "F#3",
          "velocity": 0.5275590551181102,
          "duration": 0.37187500000000284,
          "ticks": 30960,
          "durationTicks": 119
        },
        {
          "time": 97.125,
          "midi": 66,
          "name": "F#4",
          "velocity": 0.5275590551181102,
          "duration": 0.37187500000000284,
          "ticks": 31080,
          "durationTicks": 119
        },
        {
          "time": 97.5,
          "midi": 67,
          "name": "G4",
          "velocity": 0.5275590551181102,
          "duration": 0.7468750000000028,
          "ticks": 31200,
          "durationTicks": 239
        },
        {
          "time": 98.25,
          "midi": 69,
          "name": "A4",
          "velocity": 0.5275590551181102,
          "duration": 0.37187500000000284,
          "ticks": 31440,
          "durationTicks": 119
        },
        {
          "time": 98.625,
          "midi": 59,
          "name": "B3",
          "velocity": 0.5275590551181102,
          "duration": 0.37187500000000284,
          "ticks": 31560,
          "durationTicks": 119
        },
        {
          "time": 99,
          "midi": 61,
          "name": "C#4",
          "velocity": 0.5196850393700787,
          "duration": 0.7468750000000028,
          "ticks": 31680,
          "durationTicks": 239
        },
        {
          "time": 99.75,
          "midi": 62,
          "name": "D4",
          "velocity": 0.5118110236220472,
          "duration": 0.37187500000000284,
          "ticks": 31920,
          "durationTicks": 119
        },
        {
          "time": 100.125,
          "midi": 64,
          "name": "E4",
          "velocity": 0.5196850393700787,
          "duration": 0.18437500000000284,
          "ticks": 32040,
          "durationTicks": 59
        },
        {
          "time": 100.3125,
          "midi": 66,
          "name": "F#4",
          "velocity": 0.5275590551181102,
          "duration": 0.18437500000000284,
          "ticks": 32100,
          "durationTicks": 59
        },
        {
          "time": 100.5,
          "midi": 67,
          "name": "G4",
          "velocity": 0.5354330708661418,
          "duration": 0.7468750000000028,
          "ticks": 32160,
          "durationTicks": 239
        },
        {
          "time": 101.25,
          "midi": 69,
          "name": "A4",
          "velocity": 0.5433070866141733,
          "duration": 0.18437500000000284,
          "ticks": 32400,
          "durationTicks": 59
        },
        {
          "time": 101.4375,
          "midi": 57,
          "name": "A3",
          "velocity": 0.5433070866141733,
          "duration": 0.18437500000000284,
          "ticks": 32460,
          "durationTicks": 59
        },
        {
          "time": 101.625,
          "midi": 58,
          "name": "A#3",
          "velocity": 0.5433070866141733,
          "duration": 0.37187500000000284,
          "ticks": 32520,
          "durationTicks": 119
        },
        {
          "time": 102,
          "midi": 59,
          "name": "B3",
          "velocity": 0.5433070866141733,
          "duration": 0.37187500000000284,
          "ticks": 32640,
          "durationTicks": 119
        },
        {
          "time": 102.375,
          "midi": 61,
          "name": "C#4",
          "velocity": 0.5354330708661418,
          "duration": 0.7468750000000028,
          "ticks": 32760,
          "durationTicks": 239
        },
        {
          "time": 103.125,
          "midi": 62,
          "name": "D4",
          "velocity": 0.5433070866141733,
          "duration": 0.37187500000000284,
          "ticks": 33000,
          "durationTicks": 119
        },
        {
          "time": 103.5,
          "midi": 69,
          "name": "A4",
          "velocity": 0.5511811023622047,
          "duration": 0.7468750000000028,
          "ticks": 33120,
          "durationTicks": 239
        },
        {
          "time": 104.25,
          "midi": 60,
          "name": "C4",
          "velocity": 0.5590551181102362,
          "duration": 0.7468750000000028,
          "ticks": 33360,
          "durationTicks": 239
        },
        {
          "time": 105,
          "midi": 59,
          "name": "B3",
          "velocity": 0.5748031496062992,
          "duration": 0.5593750000000028,
          "ticks": 33600,
          "durationTicks": 179
        },
        {
          "time": 105.5625,
          "midi": 61,
          "name": "C#4",
          "velocity": 0.5905511811023622,
          "duration": 0.18437500000000284,
          "ticks": 33780,
          "durationTicks": 59
        },
        {
          "time": 105.75,
          "midi": 62,
          "name": "D4",
          "velocity": 0.5984251968503937,
          "duration": 0.37187500000000284,
          "ticks": 33840,
          "durationTicks": 119
        },
        {
          "time": 106.125,
          "midi": 67,
          "name": "G4",
          "velocity": 0.6141732283464567,
          "duration": 0.7468750000000028,
          "ticks": 33960,
          "durationTicks": 239
        },
        {
          "time": 106.875,
          "midi": 66,
          "name": "F#4",
          "velocity": 0.6299212598425197,
          "duration": 0.18437500000000284,
          "ticks": 34200,
          "durationTicks": 59
        },
        {
          "time": 107.0625,
          "midi": 64,
          "name": "E4",
          "velocity": 0.6299212598425197,
          "duration": 0.18437500000000284,
          "ticks": 34260,
          "durationTicks": 59
        },
        {
          "time": 107.25,
          "midi": 62,
          "name": "D4",
          "velocity": 0.6141732283464567,
          "duration": 0.18437500000000284,
          "ticks": 34320,
          "durationTicks": 59
        },
        {
          "time": 107.4375,
          "midi": 61,
          "name": "C#4",
          "velocity": 0.6220472440944882,
          "duration": 0.18437500000000284,
          "ticks": 34380,
          "durationTicks": 59
        },
        {
          "time": 107.625,
          "midi": 59,
          "name": "B3",
          "velocity": 0.6377952755905512,
          "duration": 0.18437500000000284,
          "ticks": 34440,
          "durationTicks": 59
        },
        {
          "time": 107.8125,
          "midi": 57,
          "name": "A3",
          "velocity": 0.6692913385826772,
          "duration": 0.18437500000000284,
          "ticks": 34500,
          "durationTicks": 59
        },
        {
          "time": 108,
          "midi": 55,
          "name": "G3",
          "velocity": 0.6850393700787402,
          "duration": 0.37187500000000284,
          "ticks": 34560,
          "durationTicks": 119
        },
        {
          "time": 108.375,
          "midi": 57,
          "name": "A3",
          "velocity": 0.6929133858267716,
          "duration": 0.37187500000000284,
          "ticks": 34680,
          "durationTicks": 119
        },
        {
          "time": 108.75,
          "midi": 54,
          "name": "F#3",
          "velocity": 0.7637795275590551,
          "duration": 0.18437500000000284,
          "ticks": 34800,
          "durationTicks": 59
        },
        {
          "time": 108.9375,
          "midi": 55,
          "name": "G3",
          "velocity": 0.7795275590551181,
          "duration": 0.18437500000000284,
          "ticks": 34860,
          "durationTicks": 59
        },
        {
          "time": 109.125,
          "midi": 54,
          "name": "F#3",
          "velocity": 0.7874015748031497,
          "duration": 0.18437500000000284,
          "ticks": 34920,
          "durationTicks": 59
        },
        {
          "time": 109.3125,
          "midi": 52,
          "name": "E3",
          "velocity": 0.8031496062992126,
          "duration": 0.18437500000000284,
          "ticks": 34980,
          "durationTicks": 59
        },
        {
          "time": 109.5,
          "midi": 62,
          "name": "D4",
          "velocity": 0.8346456692913385,
          "duration": 0.37187500000000284,
          "ticks": 35040,
          "durationTicks": 119
        },
        {
          "time": 110.0625,
          "midi": 54,
          "name": "F#3",
          "velocity": 0.889763779527559,
          "duration": 0.18437500000000284,
          "ticks": 35220,
          "durationTicks": 59
        },
        {
          "time": 110.25,
          "midi": 62,
          "name": "D4",
          "velocity": 0.9291338582677166,
          "duration": 0.37187500000000284,
          "ticks": 35280,
          "durationTicks": 119
        },
        {
          "time": 110.8125,
          "midi": 50,
          "name": "D3",
          "velocity": 0.905511811023622,
          "duration": 0.18437500000000284,
          "ticks": 35460,
          "durationTicks": 59
        },
        {
          "time": 111,
          "midi": 57,
          "name": "A3",
          "velocity": 0.905511811023622,
          "duration": 0.37187500000000284,
          "ticks": 35520,
          "durationTicks": 119
        },
        {
          "time": 111.5625,
          "midi": 45,
          "name": "A2",
          "velocity": 0.905511811023622,
          "duration": 0.18437500000000284,
          "ticks": 35700,
          "durationTicks": 59
        },
        {
          "time": 111.75,
          "midi": 57,
          "name": "A3",
          "velocity": 0.905511811023622,
          "duration": 0.18437500000000284,
          "ticks": 35760,
          "durationTicks": 59
        },
        {
          "time": 112.3125,
          "midi": 45,
          "name": "A2",
          "velocity": 0.905511811023622,
          "duration": 0.18437500000000284,
          "ticks": 35940,
          "durationTicks": 59
        },
        {
          "time": 112.5,
          "midi": 50,
          "name": "D3",
          "velocity": 0.905511811023622,
          "duration": 0.37187500000000284,
          "ticks": 36000,
          "durationTicks": 119
        },
        {
          "time": 113.625,
          "midi": 50,
          "name": "D3",
          "velocity": 0.905511811023622,
          "duration": 0.37187500000000284,
          "ticks": 36360,
          "durationTicks": 119
        },
        {
          "time": 114,
          "midi": 57,
          "name": "A3",
          "velocity": 0.905511811023622,
          "duration": 0.37187500000000284,
          "ticks": 36480,
          "durationTicks": 119
        },
        {
          "time": 114.75,
          "midi": 45,
          "name": "A2",
          "velocity": 0.905511811023622,
          "duration": 0.37187500000000284,
          "ticks": 36720,
          "durationTicks": 119
        },
        {
          "time": 115.5,
          "midi": 62,
          "name": "D4",
          "velocity": 0.905511811023622,
          "duration": 0.37187500000000284,
          "ticks": 36960,
          "durationTicks": 119
        },
        {
          "time": 116.0625,
          "midi": 50,
          "name": "D3",
          "velocity": 0.905511811023622,
          "duration": 0.18437500000000284,
          "ticks": 37140,
          "durationTicks": 59
        },
        {
          "time": 116.25,
          "midi": 62,
          "name": "D4",
          "velocity": 0.905511811023622,
          "duration": 0.37187500000000284,
          "ticks": 37200,
          "durationTicks": 119
        },
        {
          "time": 116.8125,
          "midi": 50,
          "name": "D3",
          "velocity": 0.905511811023622,
          "duration": 0.18437500000000284,
          "ticks": 37380,
          "durationTicks": 59
        },
        {
          "time": 117,
          "midi": 57,
          "name": "A3",
          "velocity": 0.905511811023622,
          "duration": 0.37187500000000284,
          "ticks": 37440,
          "durationTicks": 119
        },
        {
          "time": 117.5625,
          "midi": 45,
          "name": "A2",
          "velocity": 0.905511811023622,
          "duration": 0.18437500000000284,
          "ticks": 37620,
          "durationTicks": 59
        },
        {
          "time": 117.75,
          "midi": 57,
          "name": "A3",
          "velocity": 0.905511811023622,
          "duration": 0.37187500000000284,
          "ticks": 37680,
          "durationTicks": 119
        },
        {
          "time": 118.3125,
          "midi": 45,
          "name": "A2",
          "velocity": 0.9133858267716536,
          "duration": 0.18437500000000284,
          "ticks": 37860,
          "durationTicks": 59
        },
        {
          "time": 118.5,
          "midi": 50,
          "name": "D3",
          "velocity": 0.9133858267716536,
          "duration": 0.37187500000000284,
          "ticks": 37920,
          "durationTicks": 119
        },
        {
          "time": 119.625,
          "midi": 50,
          "name": "D3",
          "velocity": 0.9291338582677166,
          "duration": 0.37187500000000284,
          "ticks": 38280,
          "durationTicks": 119
        },
        {
          "time": 119.996875,
          "midi": 45,
          "name": "A2",
          "velocity": 0.9291338582677166,
          "duration": 0.37187500000000284,
          "ticks": 38399,
          "durationTicks": 119
        },
        {
          "time": 120.746875,
          "midi": 50,
          "name": "D3",
          "velocity": 0.937007874015748,
          "duration": 0.37187500000000284,
          "ticks": 38639,
          "durationTicks": 119
        },
        {
          "time": 121.496875,
          "midi": 45,
          "name": "A2",
          "velocity": 0.9448818897637795,
          "duration": 0.37187500000000284,
          "ticks": 38879,
          "durationTicks": 119
        },
        {
          "time": 122.059375,
          "midi": 45,
          "name": "A2",
          "velocity": 0.952755905511811,
          "duration": 0.18437500000000284,
          "ticks": 39059,
          "durationTicks": 59
        },
        {
          "time": 122.246875,
          "midi": 57,
          "name": "A3",
          "velocity": 0.952755905511811,
          "duration": 0.37187500000000284,
          "ticks": 39119,
          "durationTicks": 119
        },
        {
          "time": 122.621875,
          "midi": 50,
          "name": "D3",
          "velocity": 0.952755905511811,
          "duration": 0.37187500000000284,
          "ticks": 39239,
          "durationTicks": 119
        },
        {
          "time": 123,
          "midi": 45,
          "name": "A2",
          "velocity": 0.952755905511811,
          "duration": 0.37187500000000284,
          "ticks": 39360,
          "durationTicks": 119
        },
        {
          "time": 123.5625,
          "midi": 45,
          "name": "A2",
          "velocity": 0.952755905511811,
          "duration": 0.18437500000000284,
          "ticks": 39540,
          "durationTicks": 59
        },
        {
          "time": 123.75,
          "midi": 57,
          "name": "A3",
          "velocity": 0.952755905511811,
          "duration": 0.37187500000000284,
          "ticks": 39600,
          "durationTicks": 119
        },
        {
          "time": 124.125,
          "midi": 50,
          "name": "D3",
          "velocity": 0.9448818897637795,
          "duration": 0.37187500000000284,
          "ticks": 39720,
          "durationTicks": 119
        },
        {
          "time": 124.5,
          "midi": 45,
          "name": "A2",
          "velocity": 0.9448818897637795,
          "duration": 0.37187500000000284,
          "ticks": 39840,
          "durationTicks": 119
        },
        {
          "time": 125.0625,
          "midi": 57,
          "name": "A3",
          "velocity": 0.9448818897637795,
          "duration": 0.18437500000000284,
          "ticks": 40020,
          "durationTicks": 59
        },
        {
          "time": 125.25,
          "midi": 58,
          "name": "A#3",
          "velocity": 0.9448818897637795,
          "duration": 0.18437500000000284,
          "ticks": 40080,
          "durationTicks": 59
        },
        {
          "time": 125.625,
          "midi": 54,
          "name": "F#3",
          "velocity": 0.937007874015748,
          "duration": 0.18437500000000284,
          "ticks": 40200,
          "durationTicks": 59
        },
        {
          "time": 126,
          "midi": 59,
          "name": "B3",
          "velocity": 0.937007874015748,
          "duration": 0.18437500000000284,
          "ticks": 40320,
          "durationTicks": 59
        },
        {
          "time": 126.375,
          "midi": 52,
          "name": "E3",
          "velocity": 0.937007874015748,
          "duration": 0.18437500000000284,
          "ticks": 40440,
          "durationTicks": 59
        },
        {
          "time": 126.75,
          "midi": 57,
          "name": "A3",
          "velocity": 0.937007874015748,
          "duration": 0.18437500000000284,
          "ticks": 40560,
          "durationTicks": 59
        },
        {
          "time": 127.125,
          "midi": 45,
          "name": "A2",
          "velocity": 0.937007874015748,
          "duration": 0.18437500000000284,
          "ticks": 40680,
          "durationTicks": 59
        },
        {
          "time": 127.5,
          "midi": 62,
          "name": "D4",
          "velocity": 0.937007874015748,
          "duration": 0.37187500000000284,
          "ticks": 40800,
          "durationTicks": 119
        },
        {
          "time": 128.0625,
          "midi": 50,
          "name": "D3",
          "velocity": 0.937007874015748,
          "duration": 0.18437499999998863,
          "ticks": 40980,
          "durationTicks": 59
        },
        {
          "time": 128.25,
          "midi": 62,
          "name": "D4",
          "velocity": 0.937007874015748,
          "duration": 0.37187499999998863,
          "ticks": 41040,
          "durationTicks": 119
        },
        {
          "time": 128.8125,
          "midi": 50,
          "name": "D3",
          "velocity": 0.9763779527559056,
          "duration": 0.18437499999998863,
          "ticks": 41220,
          "durationTicks": 59
        },
        {
          "time": 129,
          "midi": 57,
          "name": "A3",
          "velocity": 1,
          "duration": 0.37187499999998863,
          "ticks": 41280,
          "durationTicks": 119
        },
        {
          "time": 129.5625,
          "midi": 45,
          "name": "A2",
          "velocity": 1,
          "duration": 0.18437499999998863,
          "ticks": 41460,
          "durationTicks": 59
        },
        {
          "time": 129.75,
          "midi": 57,
          "name": "A3",
          "velocity": 1,
          "duration": 0.37187499999998863,
          "ticks": 41520,
          "durationTicks": 119
        },
        {
          "time": 130.3125,
          "midi": 45,
          "name": "A2",
          "velocity": 0.9763779527559056,
          "duration": 0.18437499999998863,
          "ticks": 41700,
          "durationTicks": 59
        },
        {
          "time": 130.5,
          "midi": 50,
          "name": "D3",
          "velocity": 1,
          "duration": 0.37187499999998863,
          "ticks": 41760,
          "durationTicks": 119
        },
        {
          "time": 131.625,
          "midi": 50,
          "name": "D3",
          "velocity": 1,
          "duration": 0.37187499999998863,
          "ticks": 42120,
          "durationTicks": 119
        },
        {
          "time": 132,
          "midi": 45,
          "name": "A2",
          "velocity": 1,
          "duration": 0.37187499999998863,
          "ticks": 42240,
          "durationTicks": 119
        },
        {
          "time": 132.75,
          "midi": 50,
          "name": "D3",
          "velocity": 1,
          "duration": 0.37187499999998863,
          "ticks": 42480,
          "durationTicks": 119
        },
        {
          "time": 133.5,
          "midi": 45,
          "name": "A2",
          "velocity": 1,
          "duration": 0.37187499999998863,
          "ticks": 42720,
          "durationTicks": 119
        },
        {
          "time": 134.0625,
          "midi": 45,
          "name": "A2",
          "velocity": 1,
          "duration": 0.18437499999998863,
          "ticks": 42900,
          "durationTicks": 59
        },
        {
          "time": 134.25,
          "midi": 57,
          "name": "A3",
          "velocity": 1,
          "duration": 0.37187499999998863,
          "ticks": 42960,
          "durationTicks": 119
        },
        {
          "time": 134.625,
          "midi": 50,
          "name": "D3",
          "velocity": 1,
          "duration": 0.37187499999998863,
          "ticks": 43080,
          "durationTicks": 119
        },
        {
          "time": 135,
          "midi": 45,
          "name": "A2",
          "velocity": 1,
          "duration": 0.37187499999998863,
          "ticks": 43200,
          "durationTicks": 119
        },
        {
          "time": 135.5625,
          "midi": 45,
          "name": "A2",
          "velocity": 1,
          "duration": 0.18437499999998863,
          "ticks": 43380,
          "durationTicks": 59
        },
        {
          "time": 135.75,
          "midi": 57,
          "name": "A3",
          "velocity": 1,
          "duration": 0.37187499999998863,
          "ticks": 43440,
          "durationTicks": 119
        },
        {
          "time": 136.125,
          "midi": 50,
          "name": "D3",
          "velocity": 1,
          "duration": 0.37187499999998863,
          "ticks": 43560,
          "durationTicks": 119
        },
        {
          "time": 136.5,
          "midi": 45,
          "name": "A2",
          "velocity": 1,
          "duration": 0.37187499999998863,
          "ticks": 43680,
          "durationTicks": 119
        },
        {
          "time": 137.0625,
          "midi": 57,
          "name": "A3",
          "velocity": 1,
          "duration": 0.18437499999998863,
          "ticks": 43860,
          "durationTicks": 59
        },
        {
          "time": 137.25,
          "midi": 58,
          "name": "A#3",
          "velocity": 1,
          "duration": 0.18437499999998863,
          "ticks": 43920,
          "durationTicks": 59
        },
        {
          "time": 137.625,
          "midi": 54,
          "name": "F#3",
          "velocity": 1,
          "duration": 0.18437499999998863,
          "ticks": 44040,
          "durationTicks": 59
        },
        {
          "time": 138,
          "midi": 59,
          "name": "B3",
          "velocity": 1,
          "duration": 0.18437499999998863,
          "ticks": 44160,
          "durationTicks": 59
        },
        {
          "time": 138.375,
          "midi": 52,
          "name": "E3",
          "velocity": 1,
          "duration": 0.18437499999998863,
          "ticks": 44280,
          "durationTicks": 59
        },
        {
          "time": 138.75,
          "midi": 57,
          "name": "A3",
          "velocity": 1,
          "duration": 0.18437499999998863,
          "ticks": 44400,
          "durationTicks": 59
        },
        {
          "time": 139.125,
          "midi": 45,
          "name": "A2",
          "velocity": 1,
          "duration": 0.18437499999998863,
          "ticks": 44520,
          "durationTicks": 59
        },
        {
          "time": 139.5,
          "midi": 62,
          "name": "D4",
          "velocity": 1,
          "duration": 0.37187499999998863,
          "ticks": 44640,
          "durationTicks": 119
        },
        {
          "time": 140.0625,
          "midi": 50,
          "name": "D3",
          "velocity": 1,
          "duration": 0.18437499999998863,
          "ticks": 44820,
          "durationTicks": 59
        },
        {
          "time": 140.25,
          "midi": 62,
          "name": "D4",
          "velocity": 1,
          "duration": 0.37187499999998863,
          "ticks": 44880,
          "durationTicks": 119
        },
        {
          "time": 140.8125,
          "midi": 50,
          "name": "D3",
          "velocity": 1,
          "duration": 0.18437499999998863,
          "ticks": 45060,
          "durationTicks": 59
        },
        {
          "time": 141,
          "midi": 57,
          "name": "A3",
          "velocity": 1,
          "duration": 0.37187499999998863,
          "ticks": 45120,
          "durationTicks": 119
        },
        {
          "time": 141.5625,
          "midi": 45,
          "name": "A2",
          "velocity": 1,
          "duration": 0.18437499999998863,
          "ticks": 45300,
          "durationTicks": 59
        },
        {
          "time": 141.75,
          "midi": 57,
          "name": "A3",
          "velocity": 1,
          "duration": 0.37187499999998863,
          "ticks": 45360,
          "durationTicks": 119
        },
        {
          "time": 142.3125,
          "midi": 45,
          "name": "A2",
          "velocity": 1,
          "duration": 0.18437499999998863,
          "ticks": 45540,
          "durationTicks": 59
        },
        {
          "time": 142.5,
          "midi": 50,
          "name": "D3",
          "velocity": 1,
          "duration": 0.37187499999998863,
          "ticks": 45600,
          "durationTicks": 119
        },
        {
          "time": 143.625,
          "midi": 50,
          "name": "D3",
          "velocity": 1,
          "duration": 0.37187499999998863,
          "ticks": 45960,
          "durationTicks": 119
        },
        {
          "time": 144,
          "midi": 45,
          "name": "A2",
          "velocity": 1,
          "duration": 0.37187499999998863,
          "ticks": 46080,
          "durationTicks": 119
        },
        {
          "time": 144.75,
          "midi": 50,
          "name": "D3",
          "velocity": 1,
          "duration": 0.37187499999998863,
          "ticks": 46320,
          "durationTicks": 119
        },
        {
          "time": 145.3125,
          "midi": 50,
          "name": "D3",
          "velocity": 1,
          "duration": 0.18437499999998863,
          "ticks": 46500,
          "durationTicks": 59
        },
        {
          "time": 145.5,
          "midi": 62,
          "name": "D4",
          "velocity": 1,
          "duration": 0.37187499999998863,
          "ticks": 46560,
          "durationTicks": 119
        },
        {
          "time": 146.0625,
          "midi": 50,
          "name": "D3",
          "velocity": 0.937007874015748,
          "duration": 0.18437499999998863,
          "ticks": 46740,
          "durationTicks": 59
        },
        {
          "time": 146.25,
          "midi": 62,
          "name": "D4",
          "velocity": 1,
          "duration": 0.37187499999998863,
          "ticks": 46800,
          "durationTicks": 119
        },
        {
          "time": 146.8125,
          "midi": 50,
          "name": "D3",
          "velocity": 1,
          "duration": 0.18437499999998863,
          "ticks": 46980,
          "durationTicks": 59
        },
        {
          "time": 147,
          "midi": 55,
          "name": "G3",
          "velocity": 1,
          "duration": 0.37187499999998863,
          "ticks": 47040,
          "durationTicks": 119
        },
        {
          "time": 147.5625,
          "midi": 43,
          "name": "G2",
          "velocity": 0.937007874015748,
          "duration": 0.18437499999998863,
          "ticks": 47220,
          "durationTicks": 59
        },
        {
          "time": 147.75,
          "midi": 55,
          "name": "G3",
          "velocity": 1,
          "duration": 0.37187499999998863,
          "ticks": 47280,
          "durationTicks": 119
        },
        {
          "time": 148.3125,
          "midi": 43,
          "name": "G2",
          "velocity": 1,
          "duration": 0.18437499999998863,
          "ticks": 47460,
          "durationTicks": 59
        },
        {
          "time": 148.5,
          "midi": 67,
          "name": "G4",
          "velocity": 1,
          "duration": 0.37187499999998863,
          "ticks": 47520,
          "durationTicks": 119
        },
        {
          "time": 149.0625,
          "midi": 55,
          "name": "G3",
          "velocity": 0.937007874015748,
          "duration": 0.18437499999998863,
          "ticks": 47700,
          "durationTicks": 59
        },
        {
          "time": 149.25,
          "midi": 69,
          "name": "A4",
          "velocity": 1,
          "duration": 0.37187499999998863,
          "ticks": 47760,
          "durationTicks": 119
        },
        {
          "time": 149.8125,
          "midi": 57,
          "name": "A3",
          "velocity": 1,
          "duration": 0.18437499999998863,
          "ticks": 47940,
          "durationTicks": 59
        },
        {
          "time": 150,
          "midi": 62,
          "name": "D4",
          "velocity": 1,
          "duration": 0.37187499999998863,
          "ticks": 48000,
          "durationTicks": 119
        },
        {
          "time": 150.5625,
          "midi": 50,
          "name": "D3",
          "velocity": 0.937007874015748,
          "duration": 0.18437499999998863,
          "ticks": 48180,
          "durationTicks": 59
        },
        {
          "time": 150.75,
          "midi": 66,
          "name": "F#4",
          "velocity": 1,
          "duration": 0.37187499999998863,
          "ticks": 48240,
          "durationTicks": 119
        },
        {
          "time": 151.3125,
          "midi": 54,
          "name": "F#3",
          "velocity": 1,
          "duration": 0.18437499999998863,
          "ticks": 48420,
          "durationTicks": 59
        },
        {
          "time": 151.5,
          "midi": 67,
          "name": "G4",
          "velocity": 1,
          "duration": 0.37187499999998863,
          "ticks": 48480,
          "durationTicks": 119
        },
        {
          "time": 152.0625,
          "midi": 55,
          "name": "G3",
          "velocity": 0.937007874015748,
          "duration": 0.18437499999998863,
          "ticks": 48660,
          "durationTicks": 59
        },
        {
          "time": 152.25,
          "midi": 69,
          "name": "A4",
          "velocity": 1,
          "duration": 0.37187499999998863,
          "ticks": 48720,
          "durationTicks": 119
        },
        {
          "time": 152.8125,
          "midi": 57,
          "name": "A3",
          "velocity": 1,
          "duration": 0.18437499999998863,
          "ticks": 48900,
          "durationTicks": 59
        },
        {
          "time": 153,
          "midi": 58,
          "name": "A#3",
          "velocity": 1,
          "duration": 0.37187499999998863,
          "ticks": 48960,
          "durationTicks": 119
        },
        {
          "time": 153.5625,
          "midi": 46,
          "name": "A#2",
          "velocity": 0.937007874015748,
          "duration": 0.18437499999998863,
          "ticks": 49140,
          "durationTicks": 59
        },
        {
          "time": 153.75,
          "midi": 59,
          "name": "B3",
          "velocity": 1,
          "duration": 0.37187499999998863,
          "ticks": 49200,
          "durationTicks": 119
        },
        {
          "time": 154.3125,
          "midi": 47,
          "name": "B2",
          "velocity": 1,
          "duration": 0.18437499999998863,
          "ticks": 49380,
          "durationTicks": 59
        },
        {
          "time": 154.5,
          "midi": 60,
          "name": "C4",
          "velocity": 1,
          "duration": 0.37187499999998863,
          "ticks": 49440,
          "durationTicks": 119
        },
        {
          "time": 155.0625,
          "midi": 48,
          "name": "C3",
          "velocity": 0.937007874015748,
          "duration": 0.18437499999998863,
          "ticks": 49620,
          "durationTicks": 59
        },
        {
          "time": 155.25,
          "midi": 61,
          "name": "C#4",
          "velocity": 1,
          "duration": 0.37187499999998863,
          "ticks": 49680,
          "durationTicks": 119
        },
        {
          "time": 155.8125,
          "midi": 49,
          "name": "C#3",
          "velocity": 1,
          "duration": 0.18437499999998863,
          "ticks": 49860,
          "durationTicks": 59
        },
        {
          "time": 156,
          "midi": 61,
          "name": "C#4",
          "velocity": 1,
          "duration": 0.37187499999998863,
          "ticks": 49920,
          "durationTicks": 119
        },
        {
          "time": 156.5625,
          "midi": 49,
          "name": "C#3",
          "velocity": 0.937007874015748,
          "duration": 0.18437499999998863,
          "ticks": 50100,
          "durationTicks": 59
        },
        {
          "time": 156.75,
          "midi": 62,
          "name": "D4",
          "velocity": 1,
          "duration": 0.37187499999998863,
          "ticks": 50160,
          "durationTicks": 119
        },
        {
          "time": 157.3125,
          "midi": 63,
          "name": "D#4",
          "velocity": 1,
          "duration": 0.18437499999998863,
          "ticks": 50340,
          "durationTicks": 59
        },
        {
          "time": 157.5,
          "midi": 64,
          "name": "E4",
          "velocity": 0.905511811023622,
          "duration": 0.37187499999998863,
          "ticks": 50400,
          "durationTicks": 119
        },
        {
          "time": 158.0625,
          "midi": 65,
          "name": "F4",
          "velocity": 1,
          "duration": 0.18437499999998863,
          "ticks": 50580,
          "durationTicks": 59
        },
        {
          "time": 158.25,
          "midi": 66,
          "name": "F#4",
          "velocity": 1,
          "duration": 0.37187499999998863,
          "ticks": 50640,
          "durationTicks": 119
        },
        {
          "time": 158.8125,
          "midi": 66,
          "name": "F#4",
          "velocity": 1,
          "duration": 0.18437499999998863,
          "ticks": 50820,
          "durationTicks": 59
        },
        {
          "time": 159,
          "midi": 68,
          "name": "G#4",
          "velocity": 1,
          "duration": 0.37187499999998863,
          "ticks": 50880,
          "durationTicks": 119
        },
        {
          "time": 159.5625,
          "midi": 56,
          "name": "G#3",
          "velocity": 1,
          "duration": 0.18437499999998863,
          "ticks": 51060,
          "durationTicks": 59
        },
        {
          "time": 159.75,
          "midi": 68,
          "name": "G#4",
          "velocity": 1,
          "duration": 0.37187499999998863,
          "ticks": 51120,
          "durationTicks": 119
        },
        {
          "time": 160.3125,
          "midi": 56,
          "name": "G#3",
          "velocity": 1,
          "duration": 0.18437499999998863,
          "ticks": 51300,
          "durationTicks": 59
        },
        {
          "time": 160.5,
          "midi": 68,
          "name": "G#4",
          "velocity": 1,
          "duration": 0.37187499999998863,
          "ticks": 51360,
          "durationTicks": 119
        },
        {
          "time": 161.0625,
          "midi": 56,
          "name": "G#3",
          "velocity": 1,
          "duration": 0.18437499999998863,
          "ticks": 51540,
          "durationTicks": 59
        },
        {
          "time": 161.25,
          "midi": 68,
          "name": "G#4",
          "velocity": 1,
          "duration": 0.37187499999998863,
          "ticks": 51600,
          "durationTicks": 119
        },
        {
          "time": 161.8125,
          "midi": 56,
          "name": "G#3",
          "velocity": 1,
          "duration": 0.18437499999998863,
          "ticks": 51780,
          "durationTicks": 59
        },
        {
          "time": 162,
          "midi": 57,
          "name": "A3",
          "velocity": 1,
          "duration": 0.5625,
          "ticks": 51840,
          "durationTicks": 180
        },
        {
          "time": 162.5625,
          "midi": 59,
          "name": "B3",
          "velocity": 1,
          "duration": 0.09062499999998863,
          "ticks": 52020,
          "durationTicks": 29
        },
        {
          "time": 162.65625,
          "midi": 61,
          "name": "C#4",
          "velocity": 1,
          "duration": 0.09062499999998863,
          "ticks": 52050,
          "durationTicks": 29
        },
        {
          "time": 162.75,
          "midi": 62,
          "name": "D4",
          "velocity": 1,
          "duration": 0.5625,
          "ticks": 52080,
          "durationTicks": 180
        },
        {
          "time": 163.3125,
          "midi": 61,
          "name": "C#4",
          "velocity": 1,
          "duration": 0.09062499999998863,
          "ticks": 52260,
          "durationTicks": 29
        },
        {
          "time": 163.40625,
          "midi": 59,
          "name": "B3",
          "velocity": 1,
          "duration": 0.09062499999998863,
          "ticks": 52290,
          "durationTicks": 29
        },
        {
          "time": 163.5,
          "midi": 61,
          "name": "C#4",
          "velocity": 1,
          "duration": 0.18437499999998863,
          "ticks": 52320,
          "durationTicks": 59
        },
        {
          "time": 163.6875,
          "midi": 59,
          "name": "B3",
          "velocity": 1,
          "duration": 0.04374999999998863,
          "ticks": 52380,
          "durationTicks": 14
        },
        {
          "time": 163.78125,
          "midi": 57,
          "name": "A3",
          "velocity": 1,
          "duration": 0.09062499999998863,
          "ticks": 52410,
          "durationTicks": 29
        },
        {
          "time": 163.875,
          "midi": 55,
          "name": "G3",
          "velocity": 1,
          "duration": 0.09062499999998863,
          "ticks": 52440,
          "durationTicks": 29
        },
        {
          "time": 164.0625,
          "midi": 54,
          "name": "F#3",
          "velocity": 1,
          "duration": 0.09062499999998863,
          "ticks": 52500,
          "durationTicks": 29
        },
        {
          "time": 164.25,
          "midi": 54,
          "name": "F#3",
          "velocity": 1,
          "duration": 0.09062499999998863,
          "ticks": 52560,
          "durationTicks": 29
        },
        {
          "time": 164.4375,
          "midi": 53,
          "name": "F3",
          "velocity": 1,
          "duration": 0.09062499999998863,
          "ticks": 52620,
          "durationTicks": 29
        },
        {
          "time": 164.625,
          "midi": 52,
          "name": "E3",
          "velocity": 1,
          "duration": 0.09062499999998863,
          "ticks": 52680,
          "durationTicks": 29
        },
        {
          "time": 164.8125,
          "midi": 52,
          "name": "E3",
          "velocity": 1,
          "duration": 0.09062499999998863,
          "ticks": 52740,
          "durationTicks": 29
        },
        {
          "time": 165,
          "midi": 57,
          "name": "A3",
          "velocity": 1,
          "duration": 0.7468749999999886,
          "ticks": 52800,
          "durationTicks": 239
        },
        {
          "time": 165.75,
          "midi": 52,
          "name": "E3",
          "velocity": 1,
          "duration": 0.18437499999998863,
          "ticks": 53040,
          "durationTicks": 59
        },
        {
          "time": 166.125,
          "midi": 52,
          "name": "E3",
          "velocity": 1,
          "duration": 0.18437499999998863,
          "ticks": 53160,
          "durationTicks": 59
        },
        {
          "time": 166.5,
          "midi": 45,
          "name": "A2",
          "velocity": 1,
          "duration": 0.09062499999998863,
          "ticks": 53280,
          "durationTicks": 29
        },
        {
          "time": 166.6875,
          "midi": 45,
          "name": "A2",
          "velocity": 1,
          "duration": 0.09062499999998863,
          "ticks": 53340,
          "durationTicks": 29
        },
        {
          "time": 166.78125,
          "midi": 47,
          "name": "B2",
          "velocity": 1,
          "duration": 0.09062499999998863,
          "ticks": 53370,
          "durationTicks": 29
        },
        {
          "time": 166.875,
          "midi": 49,
          "name": "C#3",
          "velocity": 1,
          "duration": 0.09062499999998863,
          "ticks": 53400,
          "durationTicks": 29
        },
        {
          "time": 167.0625,
          "midi": 49,
          "name": "C#3",
          "velocity": 1,
          "duration": 0.09062499999998863,
          "ticks": 53460,
          "durationTicks": 29
        },
        {
          "time": 167.15625,
          "midi": 50,
          "name": "D3",
          "velocity": 1,
          "duration": 0.09062499999998863,
          "ticks": 53490,
          "durationTicks": 29
        },
        {
          "time": 167.25,
          "midi": 52,
          "name": "E3",
          "velocity": 1,
          "duration": 0.09062499999998863,
          "ticks": 53520,
          "durationTicks": 29
        },
        {
          "time": 167.4375,
          "midi": 52,
          "name": "E3",
          "velocity": 1,
          "duration": 0.09062499999998863,
          "ticks": 53580,
          "durationTicks": 29
        },
        {
          "time": 167.53125,
          "midi": 54,
          "name": "F#3",
          "velocity": 1,
          "duration": 0.09062499999998863,
          "ticks": 53610,
          "durationTicks": 29
        },
        {
          "time": 167.625,
          "midi": 56,
          "name": "G#3",
          "velocity": 1,
          "duration": 0.09062499999998863,
          "ticks": 53640,
          "durationTicks": 29
        },
        {
          "time": 167.8125,
          "midi": 52,
          "name": "E3",
          "velocity": 1,
          "duration": 0.05937500000001705,
          "ticks": 53700,
          "durationTicks": 19
        },
        {
          "time": 167.875,
          "midi": 54,
          "name": "F#3",
          "velocity": 1,
          "duration": 0.05937499999998863,
          "ticks": 53720,
          "durationTicks": 19
        },
        {
          "time": 167.9375,
          "midi": 56,
          "name": "G#3",
          "velocity": 1,
          "duration": 0.05937499999998863,
          "ticks": 53740,
          "durationTicks": 19
        },
        {
          "time": 173.25,
          "midi": 54,
          "name": "F#3",
          "velocity": 1,
          "duration": 1.875,
          "ticks": 54600,
          "durationTicks": 300
        },
        {
          "time": 175.125,
          "midi": 56,
          "name": "G#3",
          "velocity": 1,
          "duration": 0.3687500000000057,
          "ticks": 54900,
          "durationTicks": 59
        },
        {
          "time": 175.5,
          "midi": 58,
          "name": "A#3",
          "velocity": 1,
          "duration": 0.7437500000000057,
          "ticks": 54960,
          "durationTicks": 119
        },
        {
          "time": 176.25,
          "midi": 56,
          "name": "G#3",
          "velocity": 1,
          "duration": 0.3687500000000057,
          "ticks": 55080,
          "durationTicks": 59
        },
        {
          "time": 176.625,
          "midi": 56,
          "name": "G#3",
          "velocity": 1,
          "duration": 0.3687500000000057,
          "ticks": 55140,
          "durationTicks": 59
        },
        {
          "time": 177,
          "midi": 57,
          "name": "A3",
          "velocity": 0.7795275590551181,
          "duration": 0.18437499999998863,
          "ticks": 55200,
          "durationTicks": 59
        },
        {
          "time": 177.1875,
          "midi": 61,
          "name": "C#4",
          "velocity": 1,
          "duration": 0.18437499999998863,
          "ticks": 55260,
          "durationTicks": 59
        },
        {
          "time": 177.375,
          "midi": 66,
          "name": "F#4",
          "velocity": 1,
          "duration": 0.09062499999998863,
          "ticks": 55320,
          "durationTicks": 29
        },
        {
          "time": 177.5625,
          "midi": 63,
          "name": "D#4",
          "velocity": 1,
          "duration": 0.09062499999998863,
          "ticks": 55380,
          "durationTicks": 29
        },
        {
          "time": 177.75,
          "midi": 64,
          "name": "E4",
          "velocity": 1,
          "duration": 0.37187499999998863,
          "ticks": 55440,
          "durationTicks": 119
        },
        {
          "time": 178.125,
          "midi": 52,
          "name": "E3",
          "velocity": 1,
          "duration": 0.37187499999998863,
          "ticks": 55560,
          "durationTicks": 119
        },
        {
          "time": 178.875,
          "midi": 52,
          "name": "E3",
          "velocity": 1,
          "duration": 0.18437499999998863,
          "ticks": 55800,
          "durationTicks": 59
        },
        {
          "time": 179.625,
          "midi": 57,
          "name": "A3",
          "velocity": 1,
          "duration": 0.18437499999998863,
          "ticks": 56040,
          "durationTicks": 59
        },
        {
          "time": 180.75,
          "midi": 41,
          "name": "F2",
          "velocity": 1,
          "duration": 0.9375,
          "ticks": 56400,
          "durationTicks": 300
        },
        {
          "time": 181.6875,
          "midi": 57,
          "name": "A3",
          "velocity": 1,
          "duration": 0.09062499999998863,
          "ticks": 56700,
          "durationTicks": 29
        },
        {
          "time": 181.875,
          "midi": 57,
          "name": "A3",
          "velocity": 1,
          "duration": 0.09062499999998863,
          "ticks": 56760,
          "durationTicks": 29
        },
        {
          "time": 182.0625,
          "midi": 62,
          "name": "D4",
          "velocity": 1,
          "duration": 0.09062499999998863,
          "ticks": 56820,
          "durationTicks": 29
        },
        {
          "time": 182.25,
          "midi": 62,
          "name": "D4",
          "velocity": 1,
          "duration": 0.09062499999998863,
          "ticks": 56880,
          "durationTicks": 29
        },
        {
          "time": 182.4375,
          "midi": 53,
          "name": "F3",
          "velocity": 1,
          "duration": 0.09062499999998863,
          "ticks": 56940,
          "durationTicks": 29
        },
        {
          "time": 182.625,
          "midi": 53,
          "name": "F3",
          "velocity": 1,
          "duration": 0.09062499999998863,
          "ticks": 57000,
          "durationTicks": 29
        },
        {
          "time": 182.8125,
          "midi": 57,
          "name": "A3",
          "velocity": 1,
          "duration": 0.09062499999998863,
          "ticks": 57060,
          "durationTicks": 29
        },
        {
          "time": 183,
          "midi": 57,
          "name": "A3",
          "velocity": 1,
          "duration": 0.09062499999998863,
          "ticks": 57120,
          "durationTicks": 29
        },
        {
          "time": 183.1875,
          "midi": 50,
          "name": "D3",
          "velocity": 1,
          "duration": 0.09062499999998863,
          "ticks": 57180,
          "durationTicks": 29
        },
        {
          "time": 183.375,
          "midi": 50,
          "name": "D3",
          "velocity": 1,
          "duration": 0.18437499999998863,
          "ticks": 57240,
          "durationTicks": 59
        },
        {
          "time": 183.5625,
          "midi": 65,
          "name": "F4",
          "velocity": 1,
          "duration": 0.18437499999998863,
          "ticks": 57300,
          "durationTicks": 59
        },
        {
          "time": 183.75,
          "midi": 65,
          "name": "F4",
          "velocity": 1,
          "duration": 0.18437499999998863,
          "ticks": 57360,
          "durationTicks": 59
        },
        {
          "time": 183.9375,
          "midi": 57,
          "name": "A3",
          "velocity": 1,
          "duration": 0.18437499999998863,
          "ticks": 57420,
          "durationTicks": 59
        },
        {
          "time": 184.125,
          "midi": 57,
          "name": "A3",
          "velocity": 1,
          "duration": 0.18437499999998863,
          "ticks": 57480,
          "durationTicks": 59
        },
        {
          "time": 184.3125,
          "midi": 62,
          "name": "D4",
          "velocity": 1,
          "duration": 0.18437499999998863,
          "ticks": 57540,
          "durationTicks": 59
        },
        {
          "time": 184.5,
          "midi": 62,
          "name": "D4",
          "velocity": 1,
          "duration": 0.18437499999998863,
          "ticks": 57600,
          "durationTicks": 59
        },
        {
          "time": 184.6875,
          "midi": 53,
          "name": "F3",
          "velocity": 1,
          "duration": 0.18437499999998863,
          "ticks": 57660,
          "durationTicks": 59
        },
        {
          "time": 184.875,
          "midi": 53,
          "name": "F3",
          "velocity": 1,
          "duration": 0.18437499999998863,
          "ticks": 57720,
          "durationTicks": 59
        },
        {
          "time": 185.0625,
          "midi": 57,
          "name": "A3",
          "velocity": 1,
          "duration": 0.18437499999998863,
          "ticks": 57780,
          "durationTicks": 59
        },
        {
          "time": 185.25,
          "midi": 57,
          "name": "A3",
          "velocity": 1,
          "duration": 0.18437499999998863,
          "ticks": 57840,
          "durationTicks": 59
        },
        {
          "time": 185.4375,
          "midi": 50,
          "name": "D3",
          "velocity": 1,
          "duration": 0.18437499999998863,
          "ticks": 57900,
          "durationTicks": 59
        },
        {
          "time": 185.625,
          "midi": 50,
          "name": "D3",
          "velocity": 1,
          "duration": 0.18437499999998863,
          "ticks": 57960,
          "durationTicks": 59
        },
        {
          "time": 185.8125,
          "midi": 62,
          "name": "D4",
          "velocity": 1,
          "duration": 0.18437499999998863,
          "ticks": 58020,
          "durationTicks": 59
        },
        {
          "time": 186,
          "midi": 62,
          "name": "D4",
          "velocity": 1,
          "duration": 0.18437499999998863,
          "ticks": 58080,
          "durationTicks": 59
        },
        {
          "time": 186.1875,
          "midi": 60,
          "name": "C4",
          "velocity": 1,
          "duration": 0.18437499999998863,
          "ticks": 58140,
          "durationTicks": 59
        },
        {
          "time": 186.375,
          "midi": 60,
          "name": "C4",
          "velocity": 1,
          "duration": 0.18437499999998863,
          "ticks": 58200,
          "durationTicks": 59
        },
        {
          "time": 186.5625,
          "midi": 59,
          "name": "B3",
          "velocity": 1,
          "duration": 0.18437499999998863,
          "ticks": 58260,
          "durationTicks": 59
        },
        {
          "time": 186.75,
          "midi": 59,
          "name": "B3",
          "velocity": 1,
          "duration": 0.18437499999998863,
          "ticks": 58320,
          "durationTicks": 59
        },
        {
          "time": 186.9375,
          "midi": 58,
          "name": "A#3",
          "velocity": 1,
          "duration": 0.18437499999998863,
          "ticks": 58380,
          "durationTicks": 59
        },
        {
          "time": 187.125,
          "midi": 58,
          "name": "A#3",
          "velocity": 1,
          "duration": 0.18437499999998863,
          "ticks": 58440,
          "durationTicks": 59
        },
        {
          "time": 187.3125,
          "midi": 46,
          "name": "A#2",
          "velocity": 1,
          "duration": 0.18437499999998863,
          "ticks": 58500,
          "durationTicks": 59
        },
        {
          "time": 187.5,
          "midi": 46,
          "name": "A#2",
          "velocity": 1,
          "duration": 0.18437499999998863,
          "ticks": 58560,
          "durationTicks": 59
        },
        {
          "time": 187.6875,
          "midi": 46,
          "name": "A#2",
          "velocity": 1,
          "duration": 0.18437499999998863,
          "ticks": 58620,
          "durationTicks": 59
        },
        {
          "time": 187.875,
          "midi": 46,
          "name": "A#2",
          "velocity": 1,
          "duration": 0.18437499999998863,
          "ticks": 58680,
          "durationTicks": 59
        },
        {
          "time": 188.25,
          "midi": 45,
          "name": "A2",
          "velocity": 1,
          "duration": 0.18437499999998863,
          "ticks": 58800,
          "durationTicks": 59
        },
        {
          "time": 195.857136,
          "midi": 62,
          "name": "D4",
          "velocity": 0.7874015748031497,
          "duration": 0.4249995750000153,
          "ticks": 60960,
          "durationTicks": 119
        },
        {
          "time": 196.285707,
          "midi": 60,
          "name": "C4",
          "velocity": 0.7874015748031497,
          "duration": 0.853570574999992,
          "ticks": 61080,
          "durationTicks": 239
        },
        {
          "time": 197.142849,
          "midi": 59,
          "name": "B3",
          "velocity": 0.7874015748031497,
          "duration": 0.853570574999992,
          "ticks": 61320,
          "durationTicks": 239
        },
        {
          "time": 197.57142,
          "midi": 53,
          "name": "F3",
          "velocity": 0.7874015748031497,
          "duration": 0.8535705750000204,
          "ticks": 61440,
          "durationTicks": 239
        },
        {
          "time": 198.428562,
          "midi": 52,
          "name": "E3",
          "velocity": 0.7874015748031497,
          "duration": 7.285707000000002,
          "ticks": 61680,
          "durationTicks": 2040
        },
        {
          "time": 206.571411,
          "midi": 55,
          "name": "G3",
          "velocity": 1,
          "duration": 0.2107140749999985,
          "ticks": 63960,
          "durationTicks": 59
        },
        {
          "time": 206.999982,
          "midi": 54,
          "name": "F#3",
          "velocity": 1,
          "duration": 0.2107140749999985,
          "ticks": 64080,
          "durationTicks": 59
        },
        {
          "time": 207.2142675,
          "midi": 54,
          "name": "F#3",
          "velocity": 1,
          "duration": 0.2107140749999985,
          "ticks": 64140,
          "durationTicks": 59
        },
        {
          "time": 207.428553,
          "midi": 66,
          "name": "F#4",
          "velocity": 1,
          "duration": 0.4249995750000153,
          "ticks": 64200,
          "durationTicks": 119
        },
        {
          "time": 212.892834,
          "midi": 55,
          "name": "G3",
          "velocity": 0.6771653543307087,
          "duration": 0.3687500000000057,
          "ticks": 65640,
          "durationTicks": 59
        },
        {
          "time": 213.642834,
          "midi": 67,
          "name": "G4",
          "velocity": 1,
          "duration": 0.3687500000000057,
          "ticks": 65760,
          "durationTicks": 59
        },
        {
          "time": 218.142834,
          "midi": 57,
          "name": "A3",
          "velocity": 1,
          "duration": 0.3687500000000057,
          "ticks": 66480,
          "durationTicks": 59
        },
        {
          "time": 221.142834,
          "midi": 45,
          "name": "A2",
          "velocity": 1,
          "duration": 0.37187499999998863,
          "ticks": 67320,
          "durationTicks": 119
        },
        {
          "time": 221.517834,
          "midi": 45,
          "name": "A2",
          "velocity": 1,
          "duration": 0.37187499999998863,
          "ticks": 67440,
          "durationTicks": 119
        },
        {
          "time": 224.142834,
          "midi": 45,
          "name": "A2",
          "velocity": 1,
          "duration": 0.37187499999998863,
          "ticks": 68280,
          "durationTicks": 119
        },
        {
          "time": 224.517834,
          "midi": 45,
          "name": "A2",
          "velocity": 1,
          "duration": 0.37187499999998863,
          "ticks": 68400,
          "durationTicks": 119
        },
        {
          "time": 224.892834,
          "midi": 54,
          "name": "F#3",
          "velocity": 1,
          "duration": 0.37187499999998863,
          "ticks": 68520,
          "durationTicks": 119
        },
        {
          "time": 225.267834,
          "midi": 54,
          "name": "F#3",
          "velocity": 0.905511811023622,
          "duration": 0.37187499999998863,
          "ticks": 68640,
          "durationTicks": 119
        },
        {
          "time": 225.642834,
          "midi": 55,
          "name": "G3",
          "velocity": 0.6771653543307087,
          "duration": 0.37187499999998863,
          "ticks": 68760,
          "durationTicks": 119
        },
        {
          "time": 226.017834,
          "midi": 57,
          "name": "A3",
          "velocity": 0.8031496062992126,
          "duration": 0.37187499999998863,
          "ticks": 68880,
          "durationTicks": 119
        },
        {
          "time": 226.392834,
          "midi": 57,
          "name": "A3",
          "velocity": 0.8267716535433071,
          "duration": 0.37187499999998863,
          "ticks": 69000,
          "durationTicks": 119
        },
        {
          "time": 226.767834,
          "midi": 55,
          "name": "G3",
          "velocity": 0.6771653543307087,
          "duration": 0.37187499999998863,
          "ticks": 69120,
          "durationTicks": 119
        },
        {
          "time": 227.142834,
          "midi": 54,
          "name": "F#3",
          "velocity": 0.8818897637795275,
          "duration": 0.37187499999998863,
          "ticks": 69240,
          "durationTicks": 119
        },
        {
          "time": 227.517834,
          "midi": 52,
          "name": "E3",
          "velocity": 0.7795275590551181,
          "duration": 0.37187499999998863,
          "ticks": 69360,
          "durationTicks": 119
        },
        {
          "time": 227.892834,
          "midi": 50,
          "name": "D3",
          "velocity": 0.7086614173228346,
          "duration": 0.37187499999998863,
          "ticks": 69480,
          "durationTicks": 119
        },
        {
          "time": 228.267834,
          "midi": 50,
          "name": "D3",
          "velocity": 0.7637795275590551,
          "duration": 0.37187499999998863,
          "ticks": 69600,
          "durationTicks": 119
        },
        {
          "time": 228.642834,
          "midi": 52,
          "name": "E3",
          "velocity": 0.905511811023622,
          "duration": 0.37187499999998863,
          "ticks": 69720,
          "durationTicks": 119
        },
        {
          "time": 229.017834,
          "midi": 54,
          "name": "F#3",
          "velocity": 0.8267716535433071,
          "duration": 0.37187499999998863,
          "ticks": 69840,
          "durationTicks": 119
        },
        {
          "time": 229.392834,
          "midi": 54,
          "name": "F#3",
          "velocity": 0.905511811023622,
          "duration": 0.37187499999998863,
          "ticks": 69960,
          "durationTicks": 119
        },
        {
          "time": 230.142834,
          "midi": 52,
          "name": "E3",
          "velocity": 1,
          "duration": 0.37187499999998863,
          "ticks": 70200,
          "durationTicks": 119
        },
        {
          "time": 230.892834,
          "midi": 54,
          "name": "F#3",
          "velocity": 0.905511811023622,
          "duration": 0.37187499999998863,
          "ticks": 70440,
          "durationTicks": 119
        },
        {
          "time": 231.267834,
          "midi": 54,
          "name": "F#3",
          "velocity": 0.8503937007874016,
          "duration": 0.37187499999998863,
          "ticks": 70560,
          "durationTicks": 119
        },
        {
          "time": 231.642834,
          "midi": 55,
          "name": "G3",
          "velocity": 0.6535433070866141,
          "duration": 0.37187499999998863,
          "ticks": 70680,
          "durationTicks": 119
        },
        {
          "time": 232.017834,
          "midi": 57,
          "name": "A3",
          "velocity": 0.6141732283464567,
          "duration": 0.37187499999998863,
          "ticks": 70800,
          "durationTicks": 119
        },
        {
          "time": 232.392834,
          "midi": 57,
          "name": "A3",
          "velocity": 0.8503937007874016,
          "duration": 0.37187499999998863,
          "ticks": 70920,
          "durationTicks": 119
        },
        {
          "time": 232.767834,
          "midi": 55,
          "name": "G3",
          "velocity": 0.6929133858267716,
          "duration": 0.37187499999998863,
          "ticks": 71040,
          "durationTicks": 119
        },
        {
          "time": 233.142834,
          "midi": 54,
          "name": "F#3",
          "velocity": 0.8503937007874016,
          "duration": 0.37187499999998863,
          "ticks": 71160,
          "durationTicks": 119
        },
        {
          "time": 233.517834,
          "midi": 52,
          "name": "E3",
          "velocity": 1,
          "duration": 0.37187499999998863,
          "ticks": 71280,
          "durationTicks": 119
        },
        {
          "time": 233.892834,
          "midi": 50,
          "name": "D3",
          "velocity": 0.8031496062992126,
          "duration": 0.37187499999998863,
          "ticks": 71400,
          "durationTicks": 119
        },
        {
          "time": 234.267834,
          "midi": 50,
          "name": "D3",
          "velocity": 0.8031496062992126,
          "duration": 0.37187499999998863,
          "ticks": 71520,
          "durationTicks": 119
        },
        {
          "time": 234.642834,
          "midi": 52,
          "name": "E3",
          "velocity": 0.937007874015748,
          "duration": 0.37187499999998863,
          "ticks": 71640,
          "durationTicks": 119
        },
        {
          "time": 235.017834,
          "midi": 54,
          "name": "F#3",
          "velocity": 0.9763779527559056,
          "duration": 0.37187499999998863,
          "ticks": 71760,
          "durationTicks": 119
        },
        {
          "time": 235.392834,
          "midi": 52,
          "name": "E3",
          "velocity": 0.937007874015748,
          "duration": 0.37187499999998863,
          "ticks": 71880,
          "durationTicks": 119
        },
        {
          "time": 236.142834,
          "midi": 50,
          "name": "D3",
          "velocity": 0.8503937007874016,
          "duration": 0.37187499999998863,
          "ticks": 72120,
          "durationTicks": 119
        },
        {
          "time": 236.892834,
          "midi": 52,
          "name": "E3",
          "velocity": 1,
          "duration": 0.37187499999998863,
          "ticks": 72360,
          "durationTicks": 119
        },
        {
          "time": 237.267834,
          "midi": 52,
          "name": "E3",
          "velocity": 0.8818897637795275,
          "duration": 0.37187499999998863,
          "ticks": 72480,
          "durationTicks": 119
        },
        {
          "time": 237.642834,
          "midi": 54,
          "name": "F#3",
          "velocity": 0.905511811023622,
          "duration": 0.37187499999998863,
          "ticks": 72600,
          "durationTicks": 119
        },
        {
          "time": 238.017834,
          "midi": 50,
          "name": "D3",
          "velocity": 0.5905511811023622,
          "duration": 0.37187499999998863,
          "ticks": 72720,
          "durationTicks": 119
        },
        {
          "time": 238.392834,
          "midi": 52,
          "name": "E3",
          "velocity": 0.905511811023622,
          "duration": 0.37187499999998863,
          "ticks": 72840,
          "durationTicks": 119
        },
        {
          "time": 238.767834,
          "midi": 54,
          "name": "F#3",
          "velocity": 1,
          "duration": 0.18437499999998863,
          "ticks": 72960,
          "durationTicks": 59
        },
        {
          "time": 238.955334,
          "midi": 55,
          "name": "G3",
          "velocity": 1,
          "duration": 0.18437499999998863,
          "ticks": 73020,
          "durationTicks": 59
        },
        {
          "time": 239.142834,
          "midi": 54,
          "name": "F#3",
          "velocity": 1,
          "duration": 0.37187499999998863,
          "ticks": 73080,
          "durationTicks": 119
        },
        {
          "time": 239.517834,
          "midi": 50,
          "name": "D3",
          "velocity": 0.9763779527559056,
          "duration": 0.37187499999998863,
          "ticks": 73200,
          "durationTicks": 119
        },
        {
          "time": 239.892834,
          "midi": 52,
          "name": "E3",
          "velocity": 1,
          "duration": 0.37187499999998863,
          "ticks": 73320,
          "durationTicks": 119
        },
        {
          "time": 240.267834,
          "midi": 54,
          "name": "F#3",
          "velocity": 1,
          "duration": 0.18437499999998863,
          "ticks": 73440,
          "durationTicks": 59
        },
        {
          "time": 240.455334,
          "midi": 55,
          "name": "G3",
          "velocity": 1,
          "duration": 0.18437499999998863,
          "ticks": 73500,
          "durationTicks": 59
        },
        {
          "time": 240.642834,
          "midi": 54,
          "name": "F#3",
          "velocity": 1,
          "duration": 0.37187499999998863,
          "ticks": 73560,
          "durationTicks": 119
        },
        {
          "time": 241.017834,
          "midi": 52,
          "name": "E3",
          "velocity": 1,
          "duration": 0.37187499999998863,
          "ticks": 73680,
          "durationTicks": 119
        },
        {
          "time": 241.392834,
          "midi": 50,
          "name": "D3",
          "velocity": 1,
          "duration": 0.37187499999998863,
          "ticks": 73800,
          "durationTicks": 119
        },
        {
          "time": 241.767834,
          "midi": 52,
          "name": "E3",
          "velocity": 1,
          "duration": 0.37187499999998863,
          "ticks": 73920,
          "durationTicks": 119
        },
        {
          "time": 242.142834,
          "midi": 45,
          "name": "A2",
          "velocity": 1,
          "duration": 0.37187499999998863,
          "ticks": 74040,
          "durationTicks": 119
        },
        {
          "time": 242.517834,
          "midi": 54,
          "name": "F#3",
          "velocity": 1,
          "duration": 0.37187499999998863,
          "ticks": 74160,
          "durationTicks": 119
        },
        {
          "time": 242.892834,
          "midi": 54,
          "name": "F#3",
          "velocity": 1,
          "duration": 0.37187499999998863,
          "ticks": 74280,
          "durationTicks": 119
        },
        {
          "time": 243.267834,
          "midi": 54,
          "name": "F#3",
          "velocity": 1,
          "duration": 0.37187499999998863,
          "ticks": 74400,
          "durationTicks": 119
        },
        {
          "time": 243.642834,
          "midi": 55,
          "name": "G3",
          "velocity": 1,
          "duration": 0.37187499999998863,
          "ticks": 74520,
          "durationTicks": 119
        },
        {
          "time": 244.017834,
          "midi": 57,
          "name": "A3",
          "velocity": 1,
          "duration": 0.37187499999998863,
          "ticks": 74640,
          "durationTicks": 119
        },
        {
          "time": 244.392834,
          "midi": 57,
          "name": "A3",
          "velocity": 1,
          "duration": 0.37187499999998863,
          "ticks": 74760,
          "durationTicks": 119
        },
        {
          "time": 244.767834,
          "midi": 55,
          "name": "G3",
          "velocity": 1,
          "duration": 0.37187499999998863,
          "ticks": 74880,
          "durationTicks": 119
        },
        {
          "time": 245.142834,
          "midi": 54,
          "name": "F#3",
          "velocity": 0.937007874015748,
          "duration": 0.37187499999998863,
          "ticks": 75000,
          "durationTicks": 119
        },
        {
          "time": 245.517834,
          "midi": 52,
          "name": "E3",
          "velocity": 1,
          "duration": 0.37187499999998863,
          "ticks": 75120,
          "durationTicks": 119
        },
        {
          "time": 245.892834,
          "midi": 50,
          "name": "D3",
          "velocity": 0.7637795275590551,
          "duration": 0.37187499999998863,
          "ticks": 75240,
          "durationTicks": 119
        },
        {
          "time": 246.267834,
          "midi": 50,
          "name": "D3",
          "velocity": 0.7795275590551181,
          "duration": 0.37187499999998863,
          "ticks": 75360,
          "durationTicks": 119
        },
        {
          "time": 246.642834,
          "midi": 52,
          "name": "E3",
          "velocity": 1,
          "duration": 0.37187499999998863,
          "ticks": 75480,
          "durationTicks": 119
        },
        {
          "time": 247.017834,
          "midi": 54,
          "name": "F#3",
          "velocity": 1,
          "duration": 0.37187499999998863,
          "ticks": 75600,
          "durationTicks": 119
        },
        {
          "time": 247.392834,
          "midi": 52,
          "name": "E3",
          "velocity": 1,
          "duration": 0.37187499999998863,
          "ticks": 75720,
          "durationTicks": 119
        },
        {
          "time": 248.142834,
          "midi": 50,
          "name": "D3",
          "velocity": 0.9763779527559056,
          "duration": 0.37187499999998863,
          "ticks": 75960,
          "durationTicks": 119
        },
        {
          "time": 248.892834,
          "midi": 52,
          "name": "E3",
          "velocity": 1,
          "duration": 0.37187499999998863,
          "ticks": 76200,
          "durationTicks": 119
        },
        {
          "time": 249.267834,
          "midi": 52,
          "name": "E3",
          "velocity": 1,
          "duration": 0.37187499999998863,
          "ticks": 76320,
          "durationTicks": 119
        },
        {
          "time": 249.642834,
          "midi": 54,
          "name": "F#3",
          "velocity": 1,
          "duration": 0.37187499999998863,
          "ticks": 76440,
          "durationTicks": 119
        },
        {
          "time": 250.017834,
          "midi": 50,
          "name": "D3",
          "velocity": 1,
          "duration": 0.37187499999998863,
          "ticks": 76560,
          "durationTicks": 119
        },
        {
          "time": 250.392834,
          "midi": 52,
          "name": "E3",
          "velocity": 1,
          "duration": 0.37187499999998863,
          "ticks": 76680,
          "durationTicks": 119
        },
        {
          "time": 250.767834,
          "midi": 54,
          "name": "F#3",
          "velocity": 1,
          "duration": 0.18437499999998863,
          "ticks": 76800,
          "durationTicks": 59
        },
        {
          "time": 250.955334,
          "midi": 55,
          "name": "G3",
          "velocity": 1,
          "duration": 0.18437499999998863,
          "ticks": 76860,
          "durationTicks": 59
        },
        {
          "time": 251.142834,
          "midi": 54,
          "name": "F#3",
          "velocity": 1,
          "duration": 0.37187499999998863,
          "ticks": 76920,
          "durationTicks": 119
        },
        {
          "time": 251.517834,
          "midi": 50,
          "name": "D3",
          "velocity": 1,
          "duration": 0.37187499999998863,
          "ticks": 77040,
          "durationTicks": 119
        },
        {
          "time": 251.892834,
          "midi": 52,
          "name": "E3",
          "velocity": 1,
          "duration": 0.37187499999998863,
          "ticks": 77160,
          "durationTicks": 119
        },
        {
          "time": 252.267834,
          "midi": 54,
          "name": "F#3",
          "velocity": 1,
          "duration": 0.18437499999998863,
          "ticks": 77280,
          "durationTicks": 59
        },
        {
          "time": 252.455334,
          "midi": 55,
          "name": "G3",
          "velocity": 1,
          "duration": 0.18437499999998863,
          "ticks": 77340,
          "durationTicks": 59
        },
        {
          "time": 252.642834,
          "midi": 54,
          "name": "F#3",
          "velocity": 1,
          "duration": 0.37187499999998863,
          "ticks": 77400,
          "durationTicks": 119
        },
        {
          "time": 253.017834,
          "midi": 52,
          "name": "E3",
          "velocity": 1,
          "duration": 0.37187499999998863,
          "ticks": 77520,
          "durationTicks": 119
        },
        {
          "time": 253.392834,
          "midi": 50,
          "name": "D3",
          "velocity": 1,
          "duration": 0.37187499999998863,
          "ticks": 77640,
          "durationTicks": 119
        },
        {
          "time": 253.767834,
          "midi": 52,
          "name": "E3",
          "velocity": 1,
          "duration": 0.37187499999998863,
          "ticks": 77760,
          "durationTicks": 119
        },
        {
          "time": 254.142834,
          "midi": 45,
          "name": "A2",
          "velocity": 0.937007874015748,
          "duration": 0.37187499999998863,
          "ticks": 77880,
          "durationTicks": 119
        },
        {
          "time": 254.517834,
          "midi": 54,
          "name": "F#3",
          "velocity": 1,
          "duration": 0.7468749999999886,
          "ticks": 78000,
          "durationTicks": 239
        },
        {
          "time": 255.267834,
          "midi": 54,
          "name": "F#3",
          "velocity": 1,
          "duration": 0.37187499999998863,
          "ticks": 78240,
          "durationTicks": 119
        },
        {
          "time": 255.642834,
          "midi": 55,
          "name": "G3",
          "velocity": 0.8818897637795275,
          "duration": 0.37187499999998863,
          "ticks": 78360,
          "durationTicks": 119
        },
        {
          "time": 256.017834,
          "midi": 57,
          "name": "A3",
          "velocity": 1,
          "duration": 0.37187499999998863,
          "ticks": 78480,
          "durationTicks": 119
        },
        {
          "time": 256.392834,
          "midi": 57,
          "name": "A3",
          "velocity": 1,
          "duration": 0.37187499999998863,
          "ticks": 78600,
          "durationTicks": 119
        },
        {
          "time": 256.767834,
          "midi": 55,
          "name": "G3",
          "velocity": 0.9763779527559056,
          "duration": 0.37187499999998863,
          "ticks": 78720,
          "durationTicks": 119
        },
        {
          "time": 257.142834,
          "midi": 54,
          "name": "F#3",
          "velocity": 1,
          "duration": 0.37187499999998863,
          "ticks": 78840,
          "durationTicks": 119
        },
        {
          "time": 257.517834,
          "midi": 55,
          "name": "G3",
          "velocity": 1,
          "duration": 0.18437499999998863,
          "ticks": 78960,
          "durationTicks": 59
        },
        {
          "time": 257.705334,
          "midi": 52,
          "name": "E3",
          "velocity": 1,
          "duration": 0.18437499999998863,
          "ticks": 79020,
          "durationTicks": 59
        },
        {
          "time": 257.892834,
          "midi": 50,
          "name": "D3",
          "velocity": 1,
          "duration": 0.37187499999998863,
          "ticks": 79080,
          "durationTicks": 119
        },
        {
          "time": 258.267834,
          "midi": 50,
          "name": "D3",
          "velocity": 1,
          "duration": 0.37187499999998863,
          "ticks": 79200,
          "durationTicks": 119
        },
        {
          "time": 258.642834,
          "midi": 52,
          "name": "E3",
          "velocity": 1,
          "duration": 0.37187499999998863,
          "ticks": 79320,
          "durationTicks": 119
        },
        {
          "time": 259.017834,
          "midi": 54,
          "name": "F#3",
          "velocity": 1,
          "duration": 0.37187499999998863,
          "ticks": 79440,
          "durationTicks": 119
        },
        {
          "time": 259.392834,
          "midi": 52,
          "name": "E3",
          "velocity": 1,
          "duration": 0.5593749999999886,
          "ticks": 79560,
          "durationTicks": 179
        },
        {
          "time": 259.955334,
          "midi": 50,
          "name": "D3",
          "velocity": 1,
          "duration": 0.18437499999998863,
          "ticks": 79740,
          "durationTicks": 59
        },
        {
          "time": 260.142834,
          "midi": 50,
          "name": "D3",
          "velocity": 1,
          "duration": 0.37187499999998863,
          "ticks": 79800,
          "durationTicks": 119
        },
        {
          "time": 260.517834,
          "midi": 57,
          "name": "A3",
          "velocity": 1,
          "duration": 0.37187499999998863,
          "ticks": 79920,
          "durationTicks": 119
        },
        {
          "time": 260.892834,
          "midi": 55,
          "name": "G3",
          "velocity": 0.8818897637795275,
          "duration": 0.5593749999999886,
          "ticks": 80040,
          "durationTicks": 179
        },
        {
          "time": 261.455334,
          "midi": 54,
          "name": "F#3",
          "velocity": 1,
          "duration": 0.18437499999998863,
          "ticks": 80220,
          "durationTicks": 59
        },
        {
          "time": 261.642834,
          "midi": 54,
          "name": "F#3",
          "velocity": 0.937007874015748,
          "duration": 0.37187499999998863,
          "ticks": 80280,
          "durationTicks": 119
        },
        {
          "time": 262.017834,
          "midi": 62,
          "name": "D4",
          "velocity": 0.8267716535433071,
          "duration": 0.37187499999998863,
          "ticks": 80400,
          "durationTicks": 119
        },
        {
          "time": 262.392834,
          "midi": 60,
          "name": "C4",
          "velocity": 0.8503937007874016,
          "duration": 0.5593749999999886,
          "ticks": 80520,
          "durationTicks": 179
        },
        {
          "time": 262.955334,
          "midi": 59,
          "name": "B3",
          "velocity": 0.905511811023622,
          "duration": 0.18437499999998863,
          "ticks": 80700,
          "durationTicks": 59
        },
        {
          "time": 263.142834,
          "midi": 59,
          "name": "B3",
          "velocity": 0.8503937007874016,
          "duration": 0.37187499999998863,
          "ticks": 80760,
          "durationTicks": 119
        },
        {
          "time": 263.517834,
          "midi": 67,
          "name": "G4",
          "velocity": 0.8267716535433071,
          "duration": 0.18437499999998863,
          "ticks": 80880,
          "durationTicks": 59
        },
        {
          "time": 263.705334,
          "midi": 64,
          "name": "E4",
          "velocity": 0.7795275590551181,
          "duration": 0.18437499999998863,
          "ticks": 80940,
          "durationTicks": 59
        },
        {
          "time": 263.892834,
          "midi": 62,
          "name": "D4",
          "velocity": 0.8503937007874016,
          "duration": 0.18437499999998863,
          "ticks": 81000,
          "durationTicks": 59
        },
        {
          "time": 264.080334,
          "midi": 61,
          "name": "C#4",
          "velocity": 1,
          "duration": 0.18437499999998863,
          "ticks": 81060,
          "durationTicks": 59
        },
        {
          "time": 264.267834,
          "midi": 64,
          "name": "E4",
          "velocity": 0.8503937007874016,
          "duration": 0.18437499999998863,
          "ticks": 81120,
          "durationTicks": 59
        },
        {
          "time": 264.455334,
          "midi": 61,
          "name": "C#4",
          "velocity": 1,
          "duration": 0.18437499999998863,
          "ticks": 81180,
          "durationTicks": 59
        },
        {
          "time": 264.642834,
          "midi": 59,
          "name": "B3",
          "velocity": 0.8503937007874016,
          "duration": 0.18437499999998863,
          "ticks": 81240,
          "durationTicks": 59
        },
        {
          "time": 264.830334,
          "midi": 57,
          "name": "A3",
          "velocity": 0.8818897637795275,
          "duration": 0.18437499999998863,
          "ticks": 81300,
          "durationTicks": 59
        },
        {
          "time": 265.017834,
          "midi": 59,
          "name": "B3",
          "velocity": 1,
          "duration": 0.18437499999998863,
          "ticks": 81360,
          "durationTicks": 59
        },
        {
          "time": 265.205334,
          "midi": 61,
          "name": "C#4",
          "velocity": 1,
          "duration": 0.18437499999998863,
          "ticks": 81420,
          "durationTicks": 59
        },
        {
          "time": 265.392834,
          "midi": 62,
          "name": "D4",
          "velocity": 0.937007874015748,
          "duration": 0.18437499999998863,
          "ticks": 81480,
          "durationTicks": 59
        },
        {
          "time": 265.580334,
          "midi": 66,
          "name": "F#4",
          "velocity": 0.937007874015748,
          "duration": 0.18437499999998863,
          "ticks": 81540,
          "durationTicks": 59
        },
        {
          "time": 265.767834,
          "midi": 64,
          "name": "E4",
          "velocity": 0.8818897637795275,
          "duration": 0.18437499999998863,
          "ticks": 81600,
          "durationTicks": 59
        },
        {
          "time": 265.955334,
          "midi": 61,
          "name": "C#4",
          "velocity": 1,
          "duration": 0.18437499999998863,
          "ticks": 81660,
          "durationTicks": 59
        },
        {
          "time": 266.142834,
          "midi": 62,
          "name": "D4",
          "velocity": 1,
          "duration": 0.37187499999998863,
          "ticks": 81720,
          "durationTicks": 119
        },
        {
          "time": 266.892834,
          "midi": 50,
          "name": "D3",
          "velocity": 1,
          "duration": 1.1218749999999886,
          "ticks": 81960,
          "durationTicks": 359
        },
        {
          "time": 268.017834,
          "midi": 49,
          "name": "C#3",
          "velocity": 1,
          "duration": 0.18437499999998863,
          "ticks": 82320,
          "durationTicks": 59
        },
        {
          "time": 268.205334,
          "midi": 47,
          "name": "B2",
          "velocity": 1,
          "duration": 0.18437499999998863,
          "ticks": 82380,
          "durationTicks": 59
        },
        {
          "time": 268.392834,
          "midi": 45,
          "name": "A2",
          "velocity": 1,
          "duration": 0.18437499999998863,
          "ticks": 82440,
          "durationTicks": 59
        },
        {
          "time": 268.580334,
          "midi": 47,
          "name": "B2",
          "velocity": 1,
          "duration": 0.18437499999998863,
          "ticks": 82500,
          "durationTicks": 59
        },
        {
          "time": 268.767834,
          "midi": 49,
          "name": "C#3",
          "velocity": 1,
          "duration": 0.18437499999998863,
          "ticks": 82560,
          "durationTicks": 59
        },
        {
          "time": 268.955334,
          "midi": 50,
          "name": "D3",
          "velocity": 0.9763779527559056,
          "duration": 0.18437499999998863,
          "ticks": 82620,
          "durationTicks": 59
        },
        {
          "time": 269.142834,
          "midi": 52,
          "name": "E3",
          "velocity": 1,
          "duration": 0.18437499999998863,
          "ticks": 82680,
          "durationTicks": 59
        },
        {
          "time": 269.330334,
          "midi": 54,
          "name": "F#3",
          "velocity": 1,
          "duration": 0.18437499999998863,
          "ticks": 82740,
          "durationTicks": 59
        },
        {
          "time": 269.517834,
          "midi": 55,
          "name": "G3",
          "velocity": 0.9763779527559056,
          "duration": 0.18437499999998863,
          "ticks": 82800,
          "durationTicks": 59
        },
        {
          "time": 269.705334,
          "midi": 52,
          "name": "E3",
          "velocity": 1,
          "duration": 0.18437499999998863,
          "ticks": 82860,
          "durationTicks": 59
        },
        {
          "time": 269.892834,
          "midi": 57,
          "name": "A3",
          "velocity": 1,
          "duration": 0.37187499999998863,
          "ticks": 82920,
          "durationTicks": 119
        },
        {
          "time": 272.330334,
          "midi": 45,
          "name": "A2",
          "velocity": 0.905511811023622,
          "duration": 0.18437499999998863,
          "ticks": 83700,
          "durationTicks": 59
        },
        {
          "time": 272.517834,
          "midi": 47,
          "name": "B2",
          "velocity": 1,
          "duration": 0.18437499999998863,
          "ticks": 83760,
          "durationTicks": 59
        },
        {
          "time": 272.705334,
          "midi": 49,
          "name": "C#3",
          "velocity": 1,
          "duration": 0.18437499999998863,
          "ticks": 83820,
          "durationTicks": 59
        },
        {
          "time": 272.892834,
          "midi": 50,
          "name": "D3",
          "velocity": 0.9763779527559056,
          "duration": 1.1218749999999886,
          "ticks": 83880,
          "durationTicks": 359
        },
        {
          "time": 274.017834,
          "midi": 49,
          "name": "C#3",
          "velocity": 1,
          "duration": 0.18437499999998863,
          "ticks": 84240,
          "durationTicks": 59
        },
        {
          "time": 274.205334,
          "midi": 47,
          "name": "B2",
          "velocity": 0.905511811023622,
          "duration": 0.18437499999998863,
          "ticks": 84300,
          "durationTicks": 59
        },
        {
          "time": 274.392834,
          "midi": 45,
          "name": "A2",
          "velocity": 0.9763779527559056,
          "duration": 0.18437499999998863,
          "ticks": 84360,
          "durationTicks": 59
        },
        {
          "time": 274.580334,
          "midi": 47,
          "name": "B2",
          "velocity": 1,
          "duration": 0.18437499999998863,
          "ticks": 84420,
          "durationTicks": 59
        },
        {
          "time": 274.767834,
          "midi": 49,
          "name": "C#3",
          "velocity": 1,
          "duration": 0.18437499999998863,
          "ticks": 84480,
          "durationTicks": 59
        },
        {
          "time": 274.955334,
          "midi": 50,
          "name": "D3",
          "velocity": 0.905511811023622,
          "duration": 0.18437499999998863,
          "ticks": 84540,
          "durationTicks": 59
        },
        {
          "time": 275.142834,
          "midi": 52,
          "name": "E3",
          "velocity": 1,
          "duration": 0.18437499999998863,
          "ticks": 84600,
          "durationTicks": 59
        },
        {
          "time": 275.330334,
          "midi": 54,
          "name": "F#3",
          "velocity": 1,
          "duration": 0.18437499999998863,
          "ticks": 84660,
          "durationTicks": 59
        },
        {
          "time": 275.517834,
          "midi": 55,
          "name": "G3",
          "velocity": 1,
          "duration": 0.18437499999998863,
          "ticks": 84720,
          "durationTicks": 59
        },
        {
          "time": 275.705334,
          "midi": 52,
          "name": "E3",
          "velocity": 1,
          "duration": 0.18437499999998863,
          "ticks": 84780,
          "durationTicks": 59
        },
        {
          "time": 275.892834,
          "midi": 57,
          "name": "A3",
          "velocity": 1,
          "duration": 0.37187499999998863,
          "ticks": 84840,
          "durationTicks": 119
        },
        {
          "time": 278.892834,
          "midi": 45,
          "name": "A2",
          "velocity": 0.9763779527559056,
          "duration": 0.18437499999998863,
          "ticks": 85800,
          "durationTicks": 59
        },
        {
          "time": 279.080334,
          "midi": 45,
          "name": "A2",
          "velocity": 0.905511811023622,
          "duration": 0.18437499999998863,
          "ticks": 85860,
          "durationTicks": 59
        },
        {
          "time": 279.267834,
          "midi": 52,
          "name": "E3",
          "velocity": 1,
          "duration": 0.18437499999998863,
          "ticks": 85920,
          "durationTicks": 59
        },
        {
          "time": 279.455334,
          "midi": 49,
          "name": "C#3",
          "velocity": 1,
          "duration": 0.18437499999998863,
          "ticks": 85980,
          "durationTicks": 59
        },
        {
          "time": 279.642834,
          "midi": 57,
          "name": "A3",
          "velocity": 0.8503937007874016,
          "duration": 0.18437499999998863,
          "ticks": 86040,
          "durationTicks": 59
        },
        {
          "time": 280.392834,
          "midi": 45,
          "name": "A2",
          "velocity": 0.8818897637795275,
          "duration": 0.18437499999998863,
          "ticks": 86280,
          "durationTicks": 59
        },
        {
          "time": 280.580334,
          "midi": 45,
          "name": "A2",
          "velocity": 0.8818897637795275,
          "duration": 0.18437499999998863,
          "ticks": 86340,
          "durationTicks": 59
        },
        {
          "time": 280.767834,
          "midi": 57,
          "name": "A3",
          "velocity": 0.937007874015748,
          "duration": 0.18437499999998863,
          "ticks": 86400,
          "durationTicks": 59
        },
        {
          "time": 280.955334,
          "midi": 45,
          "name": "A2",
          "velocity": 0.9763779527559056,
          "duration": 0.18437499999998863,
          "ticks": 86460,
          "durationTicks": 59
        },
        {
          "time": 281.142834,
          "midi": 57,
          "name": "A3",
          "velocity": 0.937007874015748,
          "duration": 0.18437499999998863,
          "ticks": 86520,
          "durationTicks": 59
        },
        {
          "time": 281.892834,
          "midi": 45,
          "name": "A2",
          "velocity": 0.905511811023622,
          "duration": 0.18437499999998863,
          "ticks": 86760,
          "durationTicks": 59
        },
        {
          "time": 282.080334,
          "midi": 45,
          "name": "A2",
          "velocity": 0.905511811023622,
          "duration": 0.18437499999998863,
          "ticks": 86820,
          "durationTicks": 59
        },
        {
          "time": 282.267834,
          "midi": 57,
          "name": "A3",
          "velocity": 1,
          "duration": 0.18437499999998863,
          "ticks": 86880,
          "durationTicks": 59
        },
        {
          "time": 282.830334,
          "midi": 58,
          "name": "A#3",
          "velocity": 1,
          "duration": 0.18437499999998863,
          "ticks": 87060,
          "durationTicks": 59
        },
        {
          "time": 283.017834,
          "midi": 54,
          "name": "F#3",
          "velocity": 1,
          "duration": 0.37187499999998863,
          "ticks": 87120,
          "durationTicks": 119
        },
        {
          "time": 283.580334,
          "midi": 59,
          "name": "B3",
          "velocity": 1,
          "duration": 0.18437499999998863,
          "ticks": 87300,
          "durationTicks": 59
        },
        {
          "time": 283.767834,
          "midi": 52,
          "name": "E3",
          "velocity": 1,
          "duration": 0.37187499999998863,
          "ticks": 87360,
          "durationTicks": 119
        },
        {
          "time": 284.330334,
          "midi": 57,
          "name": "A3",
          "velocity": 1,
          "duration": 0.18437499999998863,
          "ticks": 87540,
          "durationTicks": 59
        },
        {
          "time": 284.517834,
          "midi": 45,
          "name": "A2",
          "velocity": 0.905511811023622,
          "duration": 0.18437499999998863,
          "ticks": 87600,
          "durationTicks": 59
        },
        {
          "time": 284.705334,
          "midi": 45,
          "name": "A2",
          "velocity": 0.8818897637795275,
          "duration": 0.18437499999998863,
          "ticks": 87660,
          "durationTicks": 59
        },
        {
          "time": 284.892834,
          "midi": 50,
          "name": "D3",
          "velocity": 1,
          "duration": 1.1218749999999886,
          "ticks": 87720,
          "durationTicks": 359
        },
        {
          "time": 286.017834,
          "midi": 49,
          "name": "C#3",
          "velocity": 1,
          "duration": 0.18437499999998863,
          "ticks": 88080,
          "durationTicks": 59
        },
        {
          "time": 286.205334,
          "midi": 47,
          "name": "B2",
          "velocity": 1,
          "duration": 0.18437499999998863,
          "ticks": 88140,
          "durationTicks": 59
        },
        {
          "time": 286.392834,
          "midi": 45,
          "name": "A2",
          "velocity": 1,
          "duration": 0.18437499999998863,
          "ticks": 88200,
          "durationTicks": 59
        },
        {
          "time": 286.580334,
          "midi": 47,
          "name": "B2",
          "velocity": 1,
          "duration": 0.18437499999998863,
          "ticks": 88260,
          "durationTicks": 59
        },
        {
          "time": 286.767834,
          "midi": 49,
          "name": "C#3",
          "velocity": 1,
          "duration": 0.18437499999998863,
          "ticks": 88320,
          "durationTicks": 59
        },
        {
          "time": 286.955334,
          "midi": 50,
          "name": "D3",
          "velocity": 0.9763779527559056,
          "duration": 0.18437499999998863,
          "ticks": 88380,
          "durationTicks": 59
        },
        {
          "time": 287.142834,
          "midi": 52,
          "name": "E3",
          "velocity": 1,
          "duration": 0.18437499999998863,
          "ticks": 88440,
          "durationTicks": 59
        },
        {
          "time": 287.330334,
          "midi": 54,
          "name": "F#3",
          "velocity": 1,
          "duration": 0.18437499999998863,
          "ticks": 88500,
          "durationTicks": 59
        },
        {
          "time": 287.517834,
          "midi": 55,
          "name": "G3",
          "velocity": 0.9763779527559056,
          "duration": 0.18437499999998863,
          "ticks": 88560,
          "durationTicks": 59
        },
        {
          "time": 287.705334,
          "midi": 52,
          "name": "E3",
          "velocity": 1,
          "duration": 0.18437499999998863,
          "ticks": 88620,
          "durationTicks": 59
        },
        {
          "time": 287.892834,
          "midi": 54,
          "name": "F#3",
          "velocity": 1,
          "duration": 0.37187499999998863,
          "ticks": 88680,
          "durationTicks": 119
        },
        {
          "time": 290.517834,
          "midi": 57,
          "name": "A3",
          "velocity": 1,
          "duration": 0.5625,
          "ticks": 89520,
          "durationTicks": 180
        },
        {
          "time": 291.080334,
          "midi": 45,
          "name": "A2",
          "velocity": 0.7244094488188977,
          "duration": 0.18437499999998863,
          "ticks": 89700,
          "durationTicks": 59
        },
        {
          "time": 291.267834,
          "midi": 52,
          "name": "E3",
          "velocity": 0.8503937007874016,
          "duration": 0.18437499999998863,
          "ticks": 89760,
          "durationTicks": 59
        },
        {
          "time": 291.455334,
          "midi": 49,
          "name": "C#3",
          "velocity": 0.905511811023622,
          "duration": 0.18437499999998863,
          "ticks": 89820,
          "durationTicks": 59
        },
        {
          "time": 291.642834,
          "midi": 57,
          "name": "A3",
          "velocity": 0.937007874015748,
          "duration": 0.18437499999998863,
          "ticks": 89880,
          "durationTicks": 59
        },
        {
          "time": 292.392834,
          "midi": 45,
          "name": "A2",
          "velocity": 0.7795275590551181,
          "duration": 0.18437499999998863,
          "ticks": 90120,
          "durationTicks": 59
        },
        {
          "time": 292.580334,
          "midi": 45,
          "name": "A2",
          "velocity": 0.7637795275590551,
          "duration": 0.18437499999998863,
          "ticks": 90180,
          "durationTicks": 59
        },
        {
          "time": 292.767834,
          "midi": 57,
          "name": "A3",
          "velocity": 0.937007874015748,
          "duration": 0.18437499999998863,
          "ticks": 90240,
          "durationTicks": 59
        },
        {
          "time": 292.955334,
          "midi": 45,
          "name": "A2",
          "velocity": 0.937007874015748,
          "duration": 0.18437499999998863,
          "ticks": 90300,
          "durationTicks": 59
        },
        {
          "time": 293.142834,
          "midi": 57,
          "name": "A3",
          "velocity": 0.7401574803149606,
          "duration": 0.18437499999998863,
          "ticks": 90360,
          "durationTicks": 59
        },
        {
          "time": 293.892834,
          "midi": 45,
          "name": "A2",
          "velocity": 0.905511811023622,
          "duration": 0.18437499999998863,
          "ticks": 90600,
          "durationTicks": 59
        },
        {
          "time": 294.080334,
          "midi": 45,
          "name": "A2",
          "velocity": 0.905511811023622,
          "duration": 0.18437499999998863,
          "ticks": 90660,
          "durationTicks": 59
        },
        {
          "time": 294.267834,
          "midi": 57,
          "name": "A3",
          "velocity": 0.9763779527559056,
          "duration": 0.18437499999998863,
          "ticks": 90720,
          "durationTicks": 59
        },
        {
          "time": 294.830334,
          "midi": 58,
          "name": "A#3",
          "velocity": 1,
          "duration": 0.18437499999998863,
          "ticks": 90900,
          "durationTicks": 59
        },
        {
          "time": 295.017834,
          "midi": 54,
          "name": "F#3",
          "velocity": 1,
          "duration": 0.37187499999998863,
          "ticks": 90960,
          "durationTicks": 119
        },
        {
          "time": 295.580334,
          "midi": 59,
          "name": "B3",
          "velocity": 0.8818897637795275,
          "duration": 0.18437499999998863,
          "ticks": 91140,
          "durationTicks": 59
        },
        {
          "time": 295.767834,
          "midi": 52,
          "name": "E3",
          "velocity": 0.8818897637795275,
          "duration": 0.37187499999998863,
          "ticks": 91200,
          "durationTicks": 119
        },
        {
          "time": 296.330334,
          "midi": 57,
          "name": "A3",
          "velocity": 0.905511811023622,
          "duration": 0.18437499999998863,
          "ticks": 91380,
          "durationTicks": 59
        },
        {
          "time": 296.517834,
          "midi": 45,
          "name": "A2",
          "velocity": 0.937007874015748,
          "duration": 0.18437499999998863,
          "ticks": 91440,
          "durationTicks": 59
        },
        {
          "time": 296.705334,
          "midi": 45,
          "name": "A2",
          "velocity": 0.937007874015748,
          "duration": 0.18437499999998863,
          "ticks": 91500,
          "durationTicks": 59
        },
        {
          "time": 296.892834,
          "midi": 50,
          "name": "D3",
          "velocity": 1,
          "duration": 1.1218749999999886,
          "ticks": 91560,
          "durationTicks": 359
        },
        {
          "time": 298.017834,
          "midi": 49,
          "name": "C#3",
          "velocity": 1,
          "duration": 0.18437499999998863,
          "ticks": 91920,
          "durationTicks": 59
        },
        {
          "time": 298.205334,
          "midi": 47,
          "name": "B2",
          "velocity": 0.9212598425196851,
          "duration": 0.18437499999998863,
          "ticks": 91980,
          "durationTicks": 59
        },
        {
          "time": 298.392834,
          "midi": 45,
          "name": "A2",
          "velocity": 0.905511811023622,
          "duration": 0.18437499999998863,
          "ticks": 92040,
          "durationTicks": 59
        },
        {
          "time": 298.580334,
          "midi": 47,
          "name": "B2",
          "velocity": 0.8976377952755905,
          "duration": 0.18437499999998863,
          "ticks": 92100,
          "durationTicks": 59
        },
        {
          "time": 298.767834,
          "midi": 49,
          "name": "C#3",
          "velocity": 0.8818897637795275,
          "duration": 0.18437499999998863,
          "ticks": 92160,
          "durationTicks": 59
        },
        {
          "time": 298.955334,
          "midi": 50,
          "name": "D3",
          "velocity": 0.8503937007874016,
          "duration": 0.18437499999998863,
          "ticks": 92220,
          "durationTicks": 59
        },
        {
          "time": 299.142834,
          "midi": 52,
          "name": "E3",
          "velocity": 0.8031496062992126,
          "duration": 0.18437499999998863,
          "ticks": 92280,
          "durationTicks": 59
        },
        {
          "time": 299.330334,
          "midi": 54,
          "name": "F#3",
          "velocity": 0.7716535433070866,
          "duration": 0.18437499999998863,
          "ticks": 92340,
          "durationTicks": 59
        },
        {
          "time": 299.517834,
          "midi": 55,
          "name": "G3",
          "velocity": 0.7480314960629921,
          "duration": 0.18437499999998863,
          "ticks": 92400,
          "durationTicks": 59
        },
        {
          "time": 299.705334,
          "midi": 52,
          "name": "E3",
          "velocity": 0.7322834645669292,
          "duration": 0.18437499999998863,
          "ticks": 92460,
          "durationTicks": 59
        },
        {
          "time": 299.892834,
          "midi": 54,
          "name": "F#3",
          "velocity": 0.7007874015748031,
          "duration": 0.37187499999998863,
          "ticks": 92520,
          "durationTicks": 119
        },
        {
          "time": 300.455334,
          "midi": 54,
          "name": "F#3",
          "velocity": 0.6692913385826772,
          "duration": 0.18437499999998863,
          "ticks": 92700,
          "durationTicks": 59
        },
        {
          "time": 300.642834,
          "midi": 50,
          "name": "D3",
          "velocity": 0.6692913385826772,
          "duration": 0.37187499999998863,
          "ticks": 92760,
          "durationTicks": 119
        },
        {
          "time": 301.205334,
          "midi": 50,
          "name": "D3",
          "velocity": 0.6692913385826772,
          "duration": 0.18437499999998863,
          "ticks": 92940,
          "durationTicks": 59
        },
        {
          "time": 301.392834,
          "midi": 57,
          "name": "A3",
          "velocity": 0.6692913385826772,
          "duration": 0.37187499999998863,
          "ticks": 93000,
          "durationTicks": 119
        },
        {
          "time": 301.955334,
          "midi": 45,
          "name": "A2",
          "velocity": 0.6692913385826772,
          "duration": 0.18437499999998863,
          "ticks": 93180,
          "durationTicks": 59
        },
        {
          "time": 302.142834,
          "midi": 50,
          "name": "D3",
          "velocity": 0.6614173228346457,
          "duration": 0.37187499999998863,
          "ticks": 93240,
          "durationTicks": 119
        },
        {
          "time": 302.705334,
          "midi": 62,
          "name": "D4",
          "velocity": 0.6614173228346457,
          "duration": 0.18437499999998863,
          "ticks": 93420,
          "durationTicks": 59
        },
        {
          "time": 302.892834,
          "midi": 50,
          "name": "D3",
          "velocity": 0.6535433070866141,
          "duration": 0.37187499999998863,
          "ticks": 93480,
          "durationTicks": 119
        },
        {
          "time": 303.455334,
          "midi": 62,
          "name": "D4",
          "velocity": 0.6456692913385826,
          "duration": 0.18437499999998863,
          "ticks": 93660,
          "durationTicks": 59
        },
        {
          "time": 303.642834,
          "midi": 50,
          "name": "D3",
          "velocity": 0.6456692913385826,
          "duration": 0.37187499999998863,
          "ticks": 93720,
          "durationTicks": 119
        },
        {
          "time": 304.205334,
          "midi": 50,
          "name": "D3",
          "velocity": 0.6377952755905512,
          "duration": 0.18437499999998863,
          "ticks": 93900,
          "durationTicks": 59
        },
        {
          "time": 304.392834,
          "midi": 43,
          "name": "G2",
          "velocity": 0.8503937007874016,
          "duration": 0.37187499999998863,
          "ticks": 93960,
          "durationTicks": 119
        },
        {
          "time": 304.955334,
          "midi": 55,
          "name": "G3",
          "velocity": 1,
          "duration": 0.18437499999998863,
          "ticks": 94140,
          "durationTicks": 59
        },
        {
          "time": 305.142834,
          "midi": 43,
          "name": "G2",
          "velocity": 0.8503937007874016,
          "duration": 0.37187499999998863,
          "ticks": 94200,
          "durationTicks": 119
        },
        {
          "time": 305.705334,
          "midi": 55,
          "name": "G3",
          "velocity": 0.6220472440944882,
          "duration": 0.18437499999998863,
          "ticks": 94380,
          "durationTicks": 59
        },
        {
          "time": 305.892834,
          "midi": 57,
          "name": "A3",
          "velocity": 0.8503937007874016,
          "duration": 0.37187499999998863,
          "ticks": 94440,
          "durationTicks": 119
        },
        {
          "time": 306.455334,
          "midi": 45,
          "name": "A2",
          "velocity": 1,
          "duration": 0.18437499999998863,
          "ticks": 94620,
          "durationTicks": 59
        },
        {
          "time": 306.642834,
          "midi": 57,
          "name": "A3",
          "velocity": 0.8503937007874016,
          "duration": 0.37187499999998863,
          "ticks": 94680,
          "durationTicks": 119
        },
        {
          "time": 307.205334,
          "midi": 57,
          "name": "A3",
          "velocity": 0.6220472440944882,
          "duration": 0.18437499999998863,
          "ticks": 94860,
          "durationTicks": 59
        },
        {
          "time": 307.392834,
          "midi": 62,
          "name": "D4",
          "velocity": 0.937007874015748,
          "duration": 0.18437499999998863,
          "ticks": 94920,
          "durationTicks": 59
        },
        {
          "time": 307.767834,
          "midi": 57,
          "name": "A3",
          "velocity": 1,
          "duration": 0.18437499999998863,
          "ticks": 95040,
          "durationTicks": 59
        },
        {
          "time": 308.142834,
          "midi": 50,
          "name": "D3",
          "velocity": 0.8818897637795275,
          "duration": 0.18437499999998863,
          "ticks": 95160,
          "durationTicks": 59
        },
        {
          "time": 309.267834,
          "midi": 54,
          "name": "F#3",
          "velocity": 0.8267716535433071,
          "duration": 0.04374999999998863,
          "ticks": 95520,
          "durationTicks": 14
        },
        {
          "time": 309.314709,
          "midi": 55,
          "name": "G3",
          "velocity": 0.6535433070866141,
          "duration": 0.04374999999998863,
          "ticks": 95535,
          "durationTicks": 14
        },
        {
          "time": 309.361584,
          "midi": 54,
          "name": "F#3",
          "velocity": 0.8818897637795275,
          "duration": 0.04374999999998863,
          "ticks": 95550,
          "durationTicks": 14
        },
        {
          "time": 309.408459,
          "midi": 55,
          "name": "G3",
          "velocity": 0.7086614173228346,
          "duration": 0.04374999999998863,
          "ticks": 95565,
          "durationTicks": 14
        },
        {
          "time": 309.455334,
          "midi": 54,
          "name": "F#3",
          "velocity": 0.937007874015748,
          "duration": 0.04374999999998863,
          "ticks": 95580,
          "durationTicks": 14
        },
        {
          "time": 309.502209,
          "midi": 55,
          "name": "G3",
          "velocity": 0.8031496062992126,
          "duration": 0.04374999999998863,
          "ticks": 95595,
          "durationTicks": 14
        },
        {
          "time": 309.549084,
          "midi": 52,
          "name": "E3",
          "velocity": 0.937007874015748,
          "duration": 0.04374999999998863,
          "ticks": 95610,
          "durationTicks": 14
        },
        {
          "time": 309.595959,
          "midi": 54,
          "name": "F#3",
          "velocity": 0.8503937007874016,
          "duration": 0.04374999999998863,
          "ticks": 95625,
          "durationTicks": 14
        },
        {
          "time": 310.017834,
          "midi": 62,
          "name": "D4",
          "velocity": 0.8267716535433071,
          "duration": 0.04374999999998863,
          "ticks": 95760,
          "durationTicks": 14
        },
        {
          "time": 310.064709,
          "midi": 64,
          "name": "E4",
          "velocity": 0.6535433070866141,
          "duration": 0.04374999999998863,
          "ticks": 95775,
          "durationTicks": 14
        },
        {
          "time": 310.111584,
          "midi": 62,
          "name": "D4",
          "velocity": 0.8818897637795275,
          "duration": 0.04374999999998863,
          "ticks": 95790,
          "durationTicks": 14
        },
        {
          "time": 310.158459,
          "midi": 64,
          "name": "E4",
          "velocity": 0.7086614173228346,
          "duration": 0.04374999999998863,
          "ticks": 95805,
          "durationTicks": 14
        },
        {
          "time": 310.205334,
          "midi": 62,
          "name": "D4",
          "velocity": 0.937007874015748,
          "duration": 0.04374999999998863,
          "ticks": 95820,
          "durationTicks": 14
        },
        {
          "time": 310.252209,
          "midi": 64,
          "name": "E4",
          "velocity": 0.8031496062992126,
          "duration": 0.04374999999998863,
          "ticks": 95835,
          "durationTicks": 14
        },
        {
          "time": 310.299084,
          "midi": 61,
          "name": "C#4",
          "velocity": 0.937007874015748,
          "duration": 0.04374999999998863,
          "ticks": 95850,
          "durationTicks": 14
        },
        {
          "time": 310.345959,
          "midi": 62,
          "name": "D4",
          "velocity": 0.8503937007874016,
          "duration": 0.04374999999998863,
          "ticks": 95865,
          "durationTicks": 14
        },
        {
          "time": 310.767834,
          "midi": 59,
          "name": "B3",
          "velocity": 0.8267716535433071,
          "duration": 0.04374999999998863,
          "ticks": 96000,
          "durationTicks": 14
        },
        {
          "time": 310.814709,
          "midi": 61,
          "name": "C#4",
          "velocity": 0.6535433070866141,
          "duration": 0.04374999999998863,
          "ticks": 96015,
          "durationTicks": 14
        },
        {
          "time": 310.861584,
          "midi": 59,
          "name": "B3",
          "velocity": 0.8818897637795275,
          "duration": 0.04374999999998863,
          "ticks": 96030,
          "durationTicks": 14
        },
        {
          "time": 310.908459,
          "midi": 61,
          "name": "C#4",
          "velocity": 0.7086614173228346,
          "duration": 0.04374999999998863,
          "ticks": 96045,
          "durationTicks": 14
        },
        {
          "time": 310.955334,
          "midi": 59,
          "name": "B3",
          "velocity": 0.937007874015748,
          "duration": 0.04374999999998863,
          "ticks": 96060,
          "durationTicks": 14
        },
        {
          "time": 311.002209,
          "midi": 61,
          "name": "C#4",
          "velocity": 0.8031496062992126,
          "duration": 0.04374999999998863,
          "ticks": 96075,
          "durationTicks": 14
        },
        {
          "time": 311.049084,
          "midi": 57,
          "name": "A3",
          "velocity": 0.937007874015748,
          "duration": 0.04374999999998863,
          "ticks": 96090,
          "durationTicks": 14
        },
        {
          "time": 311.095959,
          "midi": 59,
          "name": "B3",
          "velocity": 0.8503937007874016,
          "duration": 0.04374999999998863,
          "ticks": 96105,
          "durationTicks": 14
        },
        {
          "time": 311.517834,
          "midi": 67,
          "name": "G4",
          "velocity": 0.8267716535433071,
          "duration": 0.04374999999998863,
          "ticks": 96240,
          "durationTicks": 14
        },
        {
          "time": 311.564709,
          "midi": 69,
          "name": "A4",
          "velocity": 0.6535433070866141,
          "duration": 0.04374999999998863,
          "ticks": 96255,
          "durationTicks": 14
        },
        {
          "time": 311.611584,
          "midi": 67,
          "name": "G4",
          "velocity": 0.8818897637795275,
          "duration": 0.04374999999998863,
          "ticks": 96270,
          "durationTicks": 14
        },
        {
          "time": 311.658459,
          "midi": 69,
          "name": "A4",
          "velocity": 0.7086614173228346,
          "duration": 0.04374999999998863,
          "ticks": 96285,
          "durationTicks": 14
        },
        {
          "time": 311.705334,
          "midi": 67,
          "name": "G4",
          "velocity": 0.937007874015748,
          "duration": 0.04374999999998863,
          "ticks": 96300,
          "durationTicks": 14
        },
        {
          "time": 311.752209,
          "midi": 69,
          "name": "A4",
          "velocity": 0.8031496062992126,
          "duration": 0.04374999999998863,
          "ticks": 96315,
          "durationTicks": 14
        },
        {
          "time": 311.799084,
          "midi": 66,
          "name": "F#4",
          "velocity": 0.937007874015748,
          "duration": 0.04374999999998863,
          "ticks": 96330,
          "durationTicks": 14
        },
        {
          "time": 311.845959,
          "midi": 67,
          "name": "G4",
          "velocity": 0.8503937007874016,
          "duration": 0.04374999999998863,
          "ticks": 96345,
          "durationTicks": 14
        },
        {
          "time": 321.267834,
          "midi": 45,
          "name": "A2",
          "velocity": 0.8267716535433071,
          "duration": 0.04374999999998863,
          "ticks": 99360,
          "durationTicks": 14
        },
        {
          "time": 321.314709,
          "midi": 47,
          "name": "B2",
          "velocity": 0.6535433070866141,
          "duration": 0.04374999999998863,
          "ticks": 99375,
          "durationTicks": 14
        },
        {
          "time": 321.361584,
          "midi": 45,
          "name": "A2",
          "velocity": 0.8818897637795275,
          "duration": 0.04374999999998863,
          "ticks": 99390,
          "durationTicks": 14
        },
        {
          "time": 321.408459,
          "midi": 47,
          "name": "B2",
          "velocity": 0.7086614173228346,
          "duration": 0.04374999999998863,
          "ticks": 99405,
          "durationTicks": 14
        },
        {
          "time": 321.455334,
          "midi": 45,
          "name": "A2",
          "velocity": 0.937007874015748,
          "duration": 0.04374999999998863,
          "ticks": 99420,
          "durationTicks": 14
        },
        {
          "time": 321.502209,
          "midi": 47,
          "name": "B2",
          "velocity": 0.8031496062992126,
          "duration": 0.04374999999998863,
          "ticks": 99435,
          "durationTicks": 14
        },
        {
          "time": 321.549084,
          "midi": 44,
          "name": "G#2",
          "velocity": 0.937007874015748,
          "duration": 0.04374999999998863,
          "ticks": 99450,
          "durationTicks": 14
        },
        {
          "time": 321.595959,
          "midi": 45,
          "name": "A2",
          "velocity": 0.8503937007874016,
          "duration": 0.04374999999998863,
          "ticks": 99465,
          "durationTicks": 14
        },
        {
          "time": 324.267834,
          "midi": 45,
          "name": "A2",
          "velocity": 0.8267716535433071,
          "duration": 0.04374999999998863,
          "ticks": 100320,
          "durationTicks": 14
        },
        {
          "time": 324.314709,
          "midi": 47,
          "name": "B2",
          "velocity": 0.6535433070866141,
          "duration": 0.04374999999998863,
          "ticks": 100335,
          "durationTicks": 14
        },
        {
          "time": 324.361584,
          "midi": 45,
          "name": "A2",
          "velocity": 0.8818897637795275,
          "duration": 0.04374999999998863,
          "ticks": 100350,
          "durationTicks": 14
        },
        {
          "time": 324.408459,
          "midi": 47,
          "name": "B2",
          "velocity": 0.7086614173228346,
          "duration": 0.04374999999998863,
          "ticks": 100365,
          "durationTicks": 14
        },
        {
          "time": 324.455334,
          "midi": 45,
          "name": "A2",
          "velocity": 0.937007874015748,
          "duration": 0.04374999999998863,
          "ticks": 100380,
          "durationTicks": 14
        },
        {
          "time": 324.502209,
          "midi": 47,
          "name": "B2",
          "velocity": 0.8031496062992126,
          "duration": 0.04374999999998863,
          "ticks": 100395,
          "durationTicks": 14
        },
        {
          "time": 324.549084,
          "midi": 44,
          "name": "G#2",
          "velocity": 0.937007874015748,
          "duration": 0.04374999999998863,
          "ticks": 100410,
          "durationTicks": 14
        },
        {
          "time": 324.595959,
          "midi": 45,
          "name": "A2",
          "velocity": 0.8503937007874016,
          "duration": 0.04374999999998863,
          "ticks": 100425,
          "durationTicks": 14
        },
        {
          "time": 326.892834,
          "midi": 45,
          "name": "A2",
          "velocity": 0.8267716535433071,
          "duration": 0.04374999999998863,
          "ticks": 101160,
          "durationTicks": 14
        },
        {
          "time": 326.939709,
          "midi": 47,
          "name": "B2",
          "velocity": 0.6535433070866141,
          "duration": 0.04374999999998863,
          "ticks": 101175,
          "durationTicks": 14
        },
        {
          "time": 326.986584,
          "midi": 45,
          "name": "A2",
          "velocity": 0.8818897637795275,
          "duration": 0.04374999999998863,
          "ticks": 101190,
          "durationTicks": 14
        },
        {
          "time": 327.033459,
          "midi": 47,
          "name": "B2",
          "velocity": 0.7086614173228346,
          "duration": 0.04374999999998863,
          "ticks": 101205,
          "durationTicks": 14
        },
        {
          "time": 327.080334,
          "midi": 45,
          "name": "A2",
          "velocity": 0.937007874015748,
          "duration": 0.04374999999998863,
          "ticks": 101220,
          "durationTicks": 14
        },
        {
          "time": 327.127209,
          "midi": 47,
          "name": "B2",
          "velocity": 0.8031496062992126,
          "duration": 0.04374999999998863,
          "ticks": 101235,
          "durationTicks": 14
        },
        {
          "time": 327.174084,
          "midi": 44,
          "name": "G#2",
          "velocity": 0.937007874015748,
          "duration": 0.04374999999998863,
          "ticks": 101250,
          "durationTicks": 14
        },
        {
          "time": 327.220959,
          "midi": 45,
          "name": "A2",
          "velocity": 0.8503937007874016,
          "duration": 0.04374999999998863,
          "ticks": 101265,
          "durationTicks": 14
        },
        {
          "time": 327.642834,
          "midi": 45,
          "name": "A2",
          "velocity": 0.8267716535433071,
          "duration": 0.04374999999998863,
          "ticks": 101400,
          "durationTicks": 14
        },
        {
          "time": 327.689709,
          "midi": 47,
          "name": "B2",
          "velocity": 0.6535433070866141,
          "duration": 0.04374999999998863,
          "ticks": 101415,
          "durationTicks": 14
        },
        {
          "time": 327.736584,
          "midi": 45,
          "name": "A2",
          "velocity": 0.8818897637795275,
          "duration": 0.04374999999998863,
          "ticks": 101430,
          "durationTicks": 14
        },
        {
          "time": 327.783459,
          "midi": 47,
          "name": "B2",
          "velocity": 0.7086614173228346,
          "duration": 0.04374999999998863,
          "ticks": 101445,
          "durationTicks": 14
        },
        {
          "time": 327.830334,
          "midi": 45,
          "name": "A2",
          "velocity": 0.937007874015748,
          "duration": 0.04374999999998863,
          "ticks": 101460,
          "durationTicks": 14
        },
        {
          "time": 327.877209,
          "midi": 47,
          "name": "B2",
          "velocity": 0.8031496062992126,
          "duration": 0.04374999999998863,
          "ticks": 101475,
          "durationTicks": 14
        },
        {
          "time": 327.924084,
          "midi": 44,
          "name": "G#2",
          "velocity": 0.937007874015748,
          "duration": 0.04374999999998863,
          "ticks": 101490,
          "durationTicks": 14
        },
        {
          "time": 327.970959,
          "midi": 45,
          "name": "A2",
          "velocity": 0.8503937007874016,
          "duration": 0.04374999999998863,
          "ticks": 101505,
          "durationTicks": 14
        },
        {
          "time": 328.392834,
          "midi": 47,
          "name": "B2",
          "velocity": 0.8267716535433071,
          "duration": 0.04374999999998863,
          "ticks": 101640,
          "durationTicks": 14
        },
        {
          "time": 328.439709,
          "midi": 49,
          "name": "C#3",
          "velocity": 0.6535433070866141,
          "duration": 0.04374999999998863,
          "ticks": 101655,
          "durationTicks": 14
        },
        {
          "time": 328.486584,
          "midi": 47,
          "name": "B2",
          "velocity": 0.8818897637795275,
          "duration": 0.04374999999998863,
          "ticks": 101670,
          "durationTicks": 14
        },
        {
          "time": 328.533459,
          "midi": 49,
          "name": "C#3",
          "velocity": 0.7086614173228346,
          "duration": 0.04374999999998863,
          "ticks": 101685,
          "durationTicks": 14
        },
        {
          "time": 328.580334,
          "midi": 47,
          "name": "B2",
          "velocity": 0.937007874015748,
          "duration": 0.04374999999998863,
          "ticks": 101700,
          "durationTicks": 14
        },
        {
          "time": 328.627209,
          "midi": 49,
          "name": "C#3",
          "velocity": 0.8031496062992126,
          "duration": 0.04374999999998863,
          "ticks": 101715,
          "durationTicks": 14
        },
        {
          "time": 328.674084,
          "midi": 45,
          "name": "A2",
          "velocity": 0.937007874015748,
          "duration": 0.04374999999998863,
          "ticks": 101730,
          "durationTicks": 14
        },
        {
          "time": 328.720959,
          "midi": 47,
          "name": "B2",
          "velocity": 0.8503937007874016,
          "duration": 0.04374999999998863,
          "ticks": 101745,
          "durationTicks": 14
        },
        {
          "time": 329.142834,
          "midi": 61,
          "name": "C#4",
          "velocity": 0.8267716535433071,
          "duration": 0.04374999999998863,
          "ticks": 101880,
          "durationTicks": 14
        },
        {
          "time": 329.189709,
          "midi": 62,
          "name": "D4",
          "velocity": 0.6535433070866141,
          "duration": 0.04374999999998863,
          "ticks": 101895,
          "durationTicks": 14
        },
        {
          "time": 329.236584,
          "midi": 61,
          "name": "C#4",
          "velocity": 0.8818897637795275,
          "duration": 0.04374999999998863,
          "ticks": 101910,
          "durationTicks": 14
        },
        {
          "time": 329.283459,
          "midi": 62,
          "name": "D4",
          "velocity": 0.7086614173228346,
          "duration": 0.04374999999998863,
          "ticks": 101925,
          "durationTicks": 14
        },
        {
          "time": 329.330334,
          "midi": 61,
          "name": "C#4",
          "velocity": 0.937007874015748,
          "duration": 0.04374999999998863,
          "ticks": 101940,
          "durationTicks": 14
        },
        {
          "time": 329.377209,
          "midi": 62,
          "name": "D4",
          "velocity": 0.8031496062992126,
          "duration": 0.04374999999998863,
          "ticks": 101955,
          "durationTicks": 14
        },
        {
          "time": 329.424084,
          "midi": 59,
          "name": "B3",
          "velocity": 0.937007874015748,
          "duration": 0.04374999999998863,
          "ticks": 101970,
          "durationTicks": 14
        },
        {
          "time": 329.470959,
          "midi": 61,
          "name": "C#4",
          "velocity": 0.8503937007874016,
          "duration": 0.04374999999998863,
          "ticks": 101985,
          "durationTicks": 14
        },
        {
          "time": 329.892834,
          "midi": 62,
          "name": "D4",
          "velocity": 0.8267716535433071,
          "duration": 0.04374999999998863,
          "ticks": 102120,
          "durationTicks": 14
        },
        {
          "time": 329.939709,
          "midi": 64,
          "name": "E4",
          "velocity": 0.6535433070866141,
          "duration": 0.04374999999998863,
          "ticks": 102135,
          "durationTicks": 14
        },
        {
          "time": 329.986584,
          "midi": 62,
          "name": "D4",
          "velocity": 0.8818897637795275,
          "duration": 0.04374999999998863,
          "ticks": 102150,
          "durationTicks": 14
        },
        {
          "time": 330.033459,
          "midi": 64,
          "name": "E4",
          "velocity": 0.7086614173228346,
          "duration": 0.04374999999998863,
          "ticks": 102165,
          "durationTicks": 14
        },
        {
          "time": 330.080334,
          "midi": 62,
          "name": "D4",
          "velocity": 0.937007874015748,
          "duration": 0.04374999999998863,
          "ticks": 102180,
          "durationTicks": 14
        },
        {
          "time": 330.127209,
          "midi": 64,
          "name": "E4",
          "velocity": 0.8031496062992126,
          "duration": 0.04374999999998863,
          "ticks": 102195,
          "durationTicks": 14
        },
        {
          "time": 330.174084,
          "midi": 61,
          "name": "C#4",
          "velocity": 0.937007874015748,
          "duration": 0.04374999999998863,
          "ticks": 102210,
          "durationTicks": 14
        },
        {
          "time": 330.220959,
          "midi": 62,
          "name": "D4",
          "velocity": 0.8503937007874016,
          "duration": 0.04374999999998863,
          "ticks": 102225,
          "durationTicks": 14
        },
        {
          "time": 330.642834,
          "midi": 62,
          "name": "D4",
          "velocity": 1,
          "duration": 0.37187499999998863,
          "ticks": 102360,
          "durationTicks": 119
        },
        {
          "time": 331.205334,
          "midi": 62,
          "name": "D4",
          "velocity": 1,
          "duration": 0.18437499999998863,
          "ticks": 102540,
          "durationTicks": 59
        },
        {
          "time": 331.392834,
          "midi": 62,
          "name": "D4",
          "velocity": 1,
          "duration": 0.37187499999998863,
          "ticks": 102600,
          "durationTicks": 119
        },
        {
          "time": 331.955334,
          "midi": 62,
          "name": "D4",
          "velocity": 1,
          "duration": 0.18437499999998863,
          "ticks": 102780,
          "durationTicks": 59
        },
        {
          "time": 332.142834,
          "midi": 62,
          "name": "D4",
          "velocity": 1,
          "duration": 0.37187499999998863,
          "ticks": 102840,
          "durationTicks": 119
        },
        {
          "time": 332.517834,
          "midi": 62,
          "name": "D4",
          "velocity": 0.8267716535433071,
          "duration": 0.04374999999998863,
          "ticks": 102960,
          "durationTicks": 14
        },
        {
          "time": 332.564709,
          "midi": 64,
          "name": "E4",
          "velocity": 0.6535433070866141,
          "duration": 0.04374999999998863,
          "ticks": 102975,
          "durationTicks": 14
        },
        {
          "time": 332.611584,
          "midi": 62,
          "name": "D4",
          "velocity": 0.8818897637795275,
          "duration": 0.04374999999998863,
          "ticks": 102990,
          "durationTicks": 14
        },
        {
          "time": 332.658459,
          "midi": 64,
          "name": "E4",
          "velocity": 0.7086614173228346,
          "duration": 0.04374999999998863,
          "ticks": 103005,
          "durationTicks": 14
        },
        {
          "time": 332.705334,
          "midi": 62,
          "name": "D4",
          "velocity": 0.937007874015748,
          "duration": 0.04374999999998863,
          "ticks": 103020,
          "durationTicks": 14
        },
        {
          "time": 332.752209,
          "midi": 64,
          "name": "E4",
          "velocity": 0.8031496062992126,
          "duration": 0.04374999999998863,
          "ticks": 103035,
          "durationTicks": 14
        },
        {
          "time": 332.799084,
          "midi": 61,
          "name": "C#4",
          "velocity": 0.937007874015748,
          "duration": 0.04374999999998863,
          "ticks": 103050,
          "durationTicks": 14
        },
        {
          "time": 332.845959,
          "midi": 62,
          "name": "D4",
          "velocity": 0.8503937007874016,
          "duration": 0.04374999999998863,
          "ticks": 103065,
          "durationTicks": 14
        },
        {
          "time": 332.892834,
          "midi": 61,
          "name": "C#4",
          "velocity": 0.8267716535433071,
          "duration": 0.04374999999998863,
          "ticks": 103080,
          "durationTicks": 14
        },
        {
          "time": 332.939709,
          "midi": 62,
          "name": "D4",
          "velocity": 0.6535433070866141,
          "duration": 0.04374999999998863,
          "ticks": 103095,
          "durationTicks": 14
        },
        {
          "time": 332.986584,
          "midi": 61,
          "name": "C#4",
          "velocity": 0.8818897637795275,
          "duration": 0.04374999999998863,
          "ticks": 103110,
          "durationTicks": 14
        },
        {
          "time": 333.033459,
          "midi": 62,
          "name": "D4",
          "velocity": 0.7086614173228346,
          "duration": 0.04374999999998863,
          "ticks": 103125,
          "durationTicks": 14
        },
        {
          "time": 333.080334,
          "midi": 61,
          "name": "C#4",
          "velocity": 0.937007874015748,
          "duration": 0.04374999999998863,
          "ticks": 103140,
          "durationTicks": 14
        },
        {
          "time": 333.127209,
          "midi": 62,
          "name": "D4",
          "velocity": 0.8031496062992126,
          "duration": 0.04374999999998863,
          "ticks": 103155,
          "durationTicks": 14
        },
        {
          "time": 333.174084,
          "midi": 59,
          "name": "B3",
          "velocity": 0.937007874015748,
          "duration": 0.04374999999998863,
          "ticks": 103170,
          "durationTicks": 14
        },
        {
          "time": 333.220959,
          "midi": 61,
          "name": "C#4",
          "velocity": 0.8503937007874016,
          "duration": 0.04374999999998863,
          "ticks": 103185,
          "durationTicks": 14
        },
        {
          "time": 333.642834,
          "midi": 62,
          "name": "D4",
          "velocity": 0.8267716535433071,
          "duration": 0.04374999999998863,
          "ticks": 103320,
          "durationTicks": 14
        },
        {
          "time": 333.689709,
          "midi": 64,
          "name": "E4",
          "velocity": 0.6535433070866141,
          "duration": 0.04374999999998863,
          "ticks": 103335,
          "durationTicks": 14
        },
        {
          "time": 333.736584,
          "midi": 62,
          "name": "D4",
          "velocity": 0.8818897637795275,
          "duration": 0.04374999999998863,
          "ticks": 103350,
          "durationTicks": 14
        },
        {
          "time": 333.783459,
          "midi": 64,
          "name": "E4",
          "velocity": 0.7086614173228346,
          "duration": 0.04374999999998863,
          "ticks": 103365,
          "durationTicks": 14
        },
        {
          "time": 333.830334,
          "midi": 62,
          "name": "D4",
          "velocity": 0.937007874015748,
          "duration": 0.04374999999998863,
          "ticks": 103380,
          "durationTicks": 14
        },
        {
          "time": 333.877209,
          "midi": 64,
          "name": "E4",
          "velocity": 0.8031496062992126,
          "duration": 0.04374999999998863,
          "ticks": 103395,
          "durationTicks": 14
        },
        {
          "time": 333.924084,
          "midi": 61,
          "name": "C#4",
          "velocity": 0.937007874015748,
          "duration": 0.04374999999998863,
          "ticks": 103410,
          "durationTicks": 14
        },
        {
          "time": 333.970959,
          "midi": 62,
          "name": "D4",
          "velocity": 0.8503937007874016,
          "duration": 0.04374999999998863,
          "ticks": 103425,
          "durationTicks": 14
        },
        {
          "time": 334.392834,
          "midi": 61,
          "name": "C#4",
          "velocity": 0.8267716535433071,
          "duration": 0.04374999999998863,
          "ticks": 103560,
          "durationTicks": 14
        },
        {
          "time": 334.439709,
          "midi": 62,
          "name": "D4",
          "velocity": 0.6535433070866141,
          "duration": 0.04374999999998863,
          "ticks": 103575,
          "durationTicks": 14
        },
        {
          "time": 334.486584,
          "midi": 61,
          "name": "C#4",
          "velocity": 0.8818897637795275,
          "duration": 0.04374999999998863,
          "ticks": 103590,
          "durationTicks": 14
        },
        {
          "time": 334.533459,
          "midi": 62,
          "name": "D4",
          "velocity": 0.7086614173228346,
          "duration": 0.04374999999998863,
          "ticks": 103605,
          "durationTicks": 14
        },
        {
          "time": 334.580334,
          "midi": 61,
          "name": "C#4",
          "velocity": 0.937007874015748,
          "duration": 0.04374999999998863,
          "ticks": 103620,
          "durationTicks": 14
        },
        {
          "time": 334.627209,
          "midi": 62,
          "name": "D4",
          "velocity": 0.8031496062992126,
          "duration": 0.04374999999998863,
          "ticks": 103635,
          "durationTicks": 14
        },
        {
          "time": 334.674084,
          "midi": 59,
          "name": "B3",
          "velocity": 0.937007874015748,
          "duration": 0.04374999999998863,
          "ticks": 103650,
          "durationTicks": 14
        },
        {
          "time": 334.720959,
          "midi": 61,
          "name": "C#4",
          "velocity": 0.8503937007874016,
          "duration": 0.04374999999998863,
          "ticks": 103665,
          "durationTicks": 14
        },
        {
          "time": 335.142834,
          "midi": 62,
          "name": "D4",
          "velocity": 0.8267716535433071,
          "duration": 0.04374999999998863,
          "ticks": 103800,
          "durationTicks": 14
        },
        {
          "time": 335.189709,
          "midi": 64,
          "name": "E4",
          "velocity": 0.6535433070866141,
          "duration": 0.04374999999998863,
          "ticks": 103815,
          "durationTicks": 14
        },
        {
          "time": 335.236584,
          "midi": 62,
          "name": "D4",
          "velocity": 0.8818897637795275,
          "duration": 0.04374999999998863,
          "ticks": 103830,
          "durationTicks": 14
        },
        {
          "time": 335.283459,
          "midi": 64,
          "name": "E4",
          "velocity": 0.7086614173228346,
          "duration": 0.04374999999998863,
          "ticks": 103845,
          "durationTicks": 14
        },
        {
          "time": 335.330334,
          "midi": 62,
          "name": "D4",
          "velocity": 0.937007874015748,
          "duration": 0.04374999999998863,
          "ticks": 103860,
          "durationTicks": 14
        },
        {
          "time": 335.377209,
          "midi": 64,
          "name": "E4",
          "velocity": 0.8031496062992126,
          "duration": 0.04374999999998863,
          "ticks": 103875,
          "durationTicks": 14
        },
        {
          "time": 335.424084,
          "midi": 61,
          "name": "C#4",
          "velocity": 0.937007874015748,
          "duration": 0.04374999999998863,
          "ticks": 103890,
          "durationTicks": 14
        },
        {
          "time": 335.470959,
          "midi": 62,
          "name": "D4",
          "velocity": 0.8503937007874016,
          "duration": 0.04374999999998863,
          "ticks": 103905,
          "durationTicks": 14
        },
        {
          "time": 335.892834,
          "midi": 61,
          "name": "C#4",
          "velocity": 0.8267716535433071,
          "duration": 0.04374999999998863,
          "ticks": 104040,
          "durationTicks": 14
        },
        {
          "time": 335.939709,
          "midi": 62,
          "name": "D4",
          "velocity": 0.6535433070866141,
          "duration": 0.04374999999998863,
          "ticks": 104055,
          "durationTicks": 14
        },
        {
          "time": 335.986584,
          "midi": 61,
          "name": "C#4",
          "velocity": 0.8818897637795275,
          "duration": 0.04374999999998863,
          "ticks": 104070,
          "durationTicks": 14
        },
        {
          "time": 336.033459,
          "midi": 62,
          "name": "D4",
          "velocity": 0.7086614173228346,
          "duration": 0.04374999999998863,
          "ticks": 104085,
          "durationTicks": 14
        },
        {
          "time": 336.080334,
          "midi": 61,
          "name": "C#4",
          "velocity": 0.937007874015748,
          "duration": 0.04374999999998863,
          "ticks": 104100,
          "durationTicks": 14
        },
        {
          "time": 336.127209,
          "midi": 62,
          "name": "D4",
          "velocity": 0.8031496062992126,
          "duration": 0.04374999999998863,
          "ticks": 104115,
          "durationTicks": 14
        },
        {
          "time": 336.174084,
          "midi": 59,
          "name": "B3",
          "velocity": 0.937007874015748,
          "duration": 0.04374999999998863,
          "ticks": 104130,
          "durationTicks": 14
        },
        {
          "time": 336.220959,
          "midi": 61,
          "name": "C#4",
          "velocity": 0.8503937007874016,
          "duration": 0.04374999999998863,
          "ticks": 104145,
          "durationTicks": 14
        },
        {
          "time": 336.642834,
          "midi": 62,
          "name": "D4",
          "velocity": 0.8267716535433071,
          "duration": 0.04374999999998863,
          "ticks": 104280,
          "durationTicks": 14
        },
        {
          "time": 336.689709,
          "midi": 64,
          "name": "E4",
          "velocity": 0.6535433070866141,
          "duration": 0.04374999999998863,
          "ticks": 104295,
          "durationTicks": 14
        },
        {
          "time": 336.736584,
          "midi": 62,
          "name": "D4",
          "velocity": 0.8818897637795275,
          "duration": 0.04374999999998863,
          "ticks": 104310,
          "durationTicks": 14
        },
        {
          "time": 336.783459,
          "midi": 64,
          "name": "E4",
          "velocity": 0.7086614173228346,
          "duration": 0.04374999999998863,
          "ticks": 104325,
          "durationTicks": 14
        },
        {
          "time": 336.830334,
          "midi": 62,
          "name": "D4",
          "velocity": 0.937007874015748,
          "duration": 0.04374999999998863,
          "ticks": 104340,
          "durationTicks": 14
        },
        {
          "time": 336.877209,
          "midi": 64,
          "name": "E4",
          "velocity": 0.8031496062992126,
          "duration": 0.04374999999998863,
          "ticks": 104355,
          "durationTicks": 14
        },
        {
          "time": 336.924084,
          "midi": 61,
          "name": "C#4",
          "velocity": 0.937007874015748,
          "duration": 0.04374999999998863,
          "ticks": 104370,
          "durationTicks": 14
        },
        {
          "time": 336.970959,
          "midi": 62,
          "name": "D4",
          "velocity": 0.8503937007874016,
          "duration": 0.04374999999998863,
          "ticks": 104385,
          "durationTicks": 14
        },
        {
          "time": 337.392834,
          "midi": 59,
          "name": "B3",
          "velocity": 0.8267716535433071,
          "duration": 0.04374999999998863,
          "ticks": 104520,
          "durationTicks": 14
        },
        {
          "time": 337.439709,
          "midi": 61,
          "name": "C#4",
          "velocity": 0.6535433070866141,
          "duration": 0.04374999999998863,
          "ticks": 104535,
          "durationTicks": 14
        },
        {
          "time": 337.486584,
          "midi": 59,
          "name": "B3",
          "velocity": 0.8818897637795275,
          "duration": 0.04374999999998863,
          "ticks": 104550,
          "durationTicks": 14
        },
        {
          "time": 337.533459,
          "midi": 61,
          "name": "C#4",
          "velocity": 0.7086614173228346,
          "duration": 0.04374999999998863,
          "ticks": 104565,
          "durationTicks": 14
        },
        {
          "time": 337.580334,
          "midi": 59,
          "name": "B3",
          "velocity": 0.937007874015748,
          "duration": 0.04374999999998863,
          "ticks": 104580,
          "durationTicks": 14
        },
        {
          "time": 337.627209,
          "midi": 61,
          "name": "C#4",
          "velocity": 0.8031496062992126,
          "duration": 0.04374999999998863,
          "ticks": 104595,
          "durationTicks": 14
        },
        {
          "time": 337.674084,
          "midi": 57,
          "name": "A3",
          "velocity": 0.937007874015748,
          "duration": 0.04374999999998863,
          "ticks": 104610,
          "durationTicks": 14
        },
        {
          "time": 337.720959,
          "midi": 59,
          "name": "B3",
          "velocity": 0.8503937007874016,
          "duration": 0.04374999999998863,
          "ticks": 104625,
          "durationTicks": 14
        },
        {
          "time": 338.142834,
          "midi": 61,
          "name": "C#4",
          "velocity": 0.8267716535433071,
          "duration": 0.04374999999998863,
          "ticks": 104760,
          "durationTicks": 14
        },
        {
          "time": 338.189709,
          "midi": 62,
          "name": "D4",
          "velocity": 0.6535433070866141,
          "duration": 0.04374999999998863,
          "ticks": 104775,
          "durationTicks": 14
        },
        {
          "time": 338.236584,
          "midi": 61,
          "name": "C#4",
          "velocity": 0.8818897637795275,
          "duration": 0.04374999999998863,
          "ticks": 104790,
          "durationTicks": 14
        },
        {
          "time": 338.283459,
          "midi": 62,
          "name": "D4",
          "velocity": 0.7086614173228346,
          "duration": 0.04374999999998863,
          "ticks": 104805,
          "durationTicks": 14
        },
        {
          "time": 338.330334,
          "midi": 61,
          "name": "C#4",
          "velocity": 0.937007874015748,
          "duration": 0.04374999999998863,
          "ticks": 104820,
          "durationTicks": 14
        },
        {
          "time": 338.377209,
          "midi": 62,
          "name": "D4",
          "velocity": 0.8031496062992126,
          "duration": 0.04374999999998863,
          "ticks": 104835,
          "durationTicks": 14
        },
        {
          "time": 338.424084,
          "midi": 59,
          "name": "B3",
          "velocity": 0.937007874015748,
          "duration": 0.04374999999998863,
          "ticks": 104850,
          "durationTicks": 14
        },
        {
          "time": 338.470959,
          "midi": 61,
          "name": "C#4",
          "velocity": 0.8503937007874016,
          "duration": 0.04374999999998863,
          "ticks": 104865,
          "durationTicks": 14
        },
        {
          "time": 338.892834,
          "midi": 54,
          "name": "F#3",
          "velocity": 0.8267716535433071,
          "duration": 0.04374999999998863,
          "ticks": 105000,
          "durationTicks": 14
        },
        {
          "time": 338.939709,
          "midi": 55,
          "name": "G3",
          "velocity": 0.6535433070866141,
          "duration": 0.04374999999998863,
          "ticks": 105015,
          "durationTicks": 14
        },
        {
          "time": 338.986584,
          "midi": 54,
          "name": "F#3",
          "velocity": 0.8818897637795275,
          "duration": 0.04374999999998863,
          "ticks": 105030,
          "durationTicks": 14
        },
        {
          "time": 339.033459,
          "midi": 55,
          "name": "G3",
          "velocity": 0.7086614173228346,
          "duration": 0.04374999999998863,
          "ticks": 105045,
          "durationTicks": 14
        },
        {
          "time": 339.080334,
          "midi": 54,
          "name": "F#3",
          "velocity": 0.937007874015748,
          "duration": 0.04374999999998863,
          "ticks": 105060,
          "durationTicks": 14
        },
        {
          "time": 339.127209,
          "midi": 55,
          "name": "G3",
          "velocity": 0.8031496062992126,
          "duration": 0.04374999999998863,
          "ticks": 105075,
          "durationTicks": 14
        },
        {
          "time": 339.174084,
          "midi": 52,
          "name": "E3",
          "velocity": 0.937007874015748,
          "duration": 0.04374999999998863,
          "ticks": 105090,
          "durationTicks": 14
        },
        {
          "time": 339.220959,
          "midi": 54,
          "name": "F#3",
          "velocity": 0.8503937007874016,
          "duration": 0.04374999999998863,
          "ticks": 105105,
          "durationTicks": 14
        },
        {
          "time": 339.642834,
          "midi": 62,
          "name": "D4",
          "velocity": 0.8267716535433071,
          "duration": 0.04374999999998863,
          "ticks": 105240,
          "durationTicks": 14
        },
        {
          "time": 339.689709,
          "midi": 64,
          "name": "E4",
          "velocity": 0.6535433070866141,
          "duration": 0.04374999999998863,
          "ticks": 105255,
          "durationTicks": 14
        },
        {
          "time": 339.736584,
          "midi": 62,
          "name": "D4",
          "velocity": 0.8818897637795275,
          "duration": 0.04374999999998863,
          "ticks": 105270,
          "durationTicks": 14
        },
        {
          "time": 339.783459,
          "midi": 64,
          "name": "E4",
          "velocity": 0.7086614173228346,
          "duration": 0.04374999999998863,
          "ticks": 105285,
          "durationTicks": 14
        },
        {
          "time": 339.830334,
          "midi": 62,
          "name": "D4",
          "velocity": 0.937007874015748,
          "duration": 0.04374999999998863,
          "ticks": 105300,
          "durationTicks": 14
        },
        {
          "time": 339.877209,
          "midi": 64,
          "name": "E4",
          "velocity": 0.8031496062992126,
          "duration": 0.04374999999998863,
          "ticks": 105315,
          "durationTicks": 14
        },
        {
          "time": 339.924084,
          "midi": 61,
          "name": "C#4",
          "velocity": 0.937007874015748,
          "duration": 0.04374999999998863,
          "ticks": 105330,
          "durationTicks": 14
        },
        {
          "time": 339.970959,
          "midi": 62,
          "name": "D4",
          "velocity": 0.8503937007874016,
          "duration": 0.04374999999998863,
          "ticks": 105345,
          "durationTicks": 14
        },
        {
          "time": 340.392834,
          "midi": 59,
          "name": "B3",
          "velocity": 0.8267716535433071,
          "duration": 0.04374999999998863,
          "ticks": 105480,
          "durationTicks": 14
        },
        {
          "time": 340.439709,
          "midi": 61,
          "name": "C#4",
          "velocity": 0.6535433070866141,
          "duration": 0.04374999999998863,
          "ticks": 105495,
          "durationTicks": 14
        },
        {
          "time": 340.486584,
          "midi": 59,
          "name": "B3",
          "velocity": 0.8818897637795275,
          "duration": 0.04374999999998863,
          "ticks": 105510,
          "durationTicks": 14
        },
        {
          "time": 340.533459,
          "midi": 61,
          "name": "C#4",
          "velocity": 0.7086614173228346,
          "duration": 0.04374999999998863,
          "ticks": 105525,
          "durationTicks": 14
        },
        {
          "time": 340.580334,
          "midi": 59,
          "name": "B3",
          "velocity": 0.937007874015748,
          "duration": 0.04374999999998863,
          "ticks": 105540,
          "durationTicks": 14
        },
        {
          "time": 340.627209,
          "midi": 61,
          "name": "C#4",
          "velocity": 0.8031496062992126,
          "duration": 0.04374999999998863,
          "ticks": 105555,
          "durationTicks": 14
        },
        {
          "time": 340.674084,
          "midi": 57,
          "name": "A3",
          "velocity": 0.937007874015748,
          "duration": 0.04374999999998863,
          "ticks": 105570,
          "durationTicks": 14
        },
        {
          "time": 340.720959,
          "midi": 59,
          "name": "B3",
          "velocity": 0.8503937007874016,
          "duration": 0.04374999999998863,
          "ticks": 105585,
          "durationTicks": 14
        },
        {
          "time": 341.142834,
          "midi": 55,
          "name": "G3",
          "velocity": 0.8267716535433071,
          "duration": 0.04374999999998863,
          "ticks": 105720,
          "durationTicks": 14
        },
        {
          "time": 341.189709,
          "midi": 57,
          "name": "A3",
          "velocity": 0.6535433070866141,
          "duration": 0.04374999999998863,
          "ticks": 105735,
          "durationTicks": 14
        },
        {
          "time": 341.236584,
          "midi": 55,
          "name": "G3",
          "velocity": 0.8818897637795275,
          "duration": 0.04374999999998863,
          "ticks": 105750,
          "durationTicks": 14
        },
        {
          "time": 341.283459,
          "midi": 57,
          "name": "A3",
          "velocity": 0.7086614173228346,
          "duration": 0.04374999999998863,
          "ticks": 105765,
          "durationTicks": 14
        },
        {
          "time": 341.330334,
          "midi": 55,
          "name": "G3",
          "velocity": 0.937007874015748,
          "duration": 0.04374999999998863,
          "ticks": 105780,
          "durationTicks": 14
        },
        {
          "time": 341.377209,
          "midi": 57,
          "name": "A3",
          "velocity": 0.8031496062992126,
          "duration": 0.04374999999998863,
          "ticks": 105795,
          "durationTicks": 14
        },
        {
          "time": 341.424084,
          "midi": 54,
          "name": "F#3",
          "velocity": 0.937007874015748,
          "duration": 0.04374999999998863,
          "ticks": 105810,
          "durationTicks": 14
        },
        {
          "time": 341.470959,
          "midi": 55,
          "name": "G3",
          "velocity": 0.8503937007874016,
          "duration": 0.04374999999998863,
          "ticks": 105825,
          "durationTicks": 14
        },
        {
          "time": 341.892834,
          "midi": 54,
          "name": "F#3",
          "velocity": 0.8267716535433071,
          "duration": 0.04374999999998863,
          "ticks": 105960,
          "durationTicks": 14
        },
        {
          "time": 341.939709,
          "midi": 55,
          "name": "G3",
          "velocity": 0.6535433070866141,
          "duration": 0.04374999999998863,
          "ticks": 105975,
          "durationTicks": 14
        },
        {
          "time": 341.986584,
          "midi": 54,
          "name": "F#3",
          "velocity": 0.8818897637795275,
          "duration": 0.04374999999998863,
          "ticks": 105990,
          "durationTicks": 14
        },
        {
          "time": 342.033459,
          "midi": 55,
          "name": "G3",
          "velocity": 0.7086614173228346,
          "duration": 0.04374999999998863,
          "ticks": 106005,
          "durationTicks": 14
        },
        {
          "time": 342.080334,
          "midi": 54,
          "name": "F#3",
          "velocity": 0.937007874015748,
          "duration": 0.04374999999998863,
          "ticks": 106020,
          "durationTicks": 14
        },
        {
          "time": 342.127209,
          "midi": 55,
          "name": "G3",
          "velocity": 0.8031496062992126,
          "duration": 0.04374999999998863,
          "ticks": 106035,
          "durationTicks": 14
        },
        {
          "time": 342.174084,
          "midi": 52,
          "name": "E3",
          "velocity": 0.937007874015748,
          "duration": 0.04374999999998863,
          "ticks": 106050,
          "durationTicks": 14
        },
        {
          "time": 342.220959,
          "midi": 54,
          "name": "F#3",
          "velocity": 0.8503937007874016,
          "duration": 0.04374999999998863,
          "ticks": 106065,
          "durationTicks": 14
        },
        {
          "time": 342.642834,
          "midi": 62,
          "name": "D4",
          "velocity": 1,
          "duration": 0.37187499999998863,
          "ticks": 106200,
          "durationTicks": 119
        },
        {
          "time": 343.392834,
          "midi": 62,
          "name": "D4",
          "velocity": 1,
          "duration": 0.37187499999998863,
          "ticks": 106440,
          "durationTicks": 119
        },
        {
          "time": 343.955334,
          "midi": 62,
          "name": "D4",
          "velocity": 1,
          "duration": 0.18437499999998863,
          "ticks": 106620,
          "durationTicks": 59
        },
        {
          "time": 344.142834,
          "midi": 62,
          "name": "D4",
          "velocity": 1,
          "duration": 0.37187499999998863,
          "ticks": 106680,
          "durationTicks": 119
        },
        {
          "time": 344.892834,
          "midi": 62,
          "name": "D4",
          "velocity": 1,
          "duration": 0.37187499999998863,
          "ticks": 106920,
          "durationTicks": 119
        },
        {
          "time": 345.642834,
          "midi": 62,
          "name": "D4",
          "velocity": 1,
          "duration": 0.37187499999998863,
          "ticks": 107160,
          "durationTicks": 119
        },
        {
          "time": 346.392834,
          "midi": 55,
          "name": "G3",
          "velocity": 1,
          "duration": 0.37187499999998863,
          "ticks": 107400,
          "durationTicks": 119
        },
        {
          "time": 347.142834,
          "midi": 55,
          "name": "G3",
          "velocity": 1,
          "duration": 0.37187499999998863,
          "ticks": 107640,
          "durationTicks": 119
        },
        {
          "time": 347.892834,
          "midi": 57,
          "name": "A3",
          "velocity": 1,
          "duration": 0.37187499999998863,
          "ticks": 107880,
          "durationTicks": 119
        },
        {
          "time": 348.642834,
          "midi": 57,
          "name": "A3",
          "velocity": 1,
          "duration": 0.37187499999998863,
          "ticks": 108120,
          "durationTicks": 119
        },
        {
          "time": 349.392834,
          "midi": 62,
          "name": "D4",
          "velocity": 1,
          "duration": 1.4968749999999886,
          "ticks": 108360,
          "durationTicks": 479
        },
        {
          "time": 350.892834,
          "midi": 52,
          "name": "E3",
          "velocity": 1,
          "duration": 0.37187499999998863,
          "ticks": 108840,
          "durationTicks": 119
        },
        {
          "time": 351.642834,
          "midi": 52,
          "name": "E3",
          "velocity": 1,
          "duration": 0.37187499999998863,
          "ticks": 109080,
          "durationTicks": 119
        },
        {
          "time": 352.392834,
          "midi": 57,
          "name": "A3",
          "velocity": 1,
          "duration": 0.09062499999998863,
          "ticks": 109320,
          "durationTicks": 29
        },
        {
          "time": 352.486584,
          "midi": 59,
          "name": "B3",
          "velocity": 1,
          "duration": 0.09062499999998863,
          "ticks": 109350,
          "durationTicks": 29
        },
        {
          "time": 352.580334,
          "midi": 57,
          "name": "A3",
          "velocity": 1,
          "duration": 0.09062499999998863,
          "ticks": 109380,
          "durationTicks": 29
        },
        {
          "time": 352.674084,
          "midi": 56,
          "name": "G#3",
          "velocity": 1,
          "duration": 0.09062499999998863,
          "ticks": 109410,
          "durationTicks": 29
        },
        {
          "time": 352.767834,
          "midi": 54,
          "name": "F#3",
          "velocity": 1,
          "duration": 0.09062499999998863,
          "ticks": 109440,
          "durationTicks": 29
        },
        {
          "time": 352.861584,
          "midi": 56,
          "name": "G#3",
          "velocity": 1,
          "duration": 0.09062499999998863,
          "ticks": 109470,
          "durationTicks": 29
        },
        {
          "time": 352.955334,
          "midi": 54,
          "name": "F#3",
          "velocity": 1,
          "duration": 0.09062499999998863,
          "ticks": 109500,
          "durationTicks": 29
        },
        {
          "time": 353.049084,
          "midi": 52,
          "name": "E3",
          "velocity": 1,
          "duration": 0.09062499999998863,
          "ticks": 109530,
          "durationTicks": 29
        },
        {
          "time": 353.142834,
          "midi": 50,
          "name": "D3",
          "velocity": 1,
          "duration": 0.09062499999998863,
          "ticks": 109560,
          "durationTicks": 29
        },
        {
          "time": 353.236584,
          "midi": 52,
          "name": "E3",
          "velocity": 1,
          "duration": 0.09062499999998863,
          "ticks": 109590,
          "durationTicks": 29
        },
        {
          "time": 353.330334,
          "midi": 50,
          "name": "D3",
          "velocity": 0.9763779527559056,
          "duration": 0.09062499999998863,
          "ticks": 109620,
          "durationTicks": 29
        },
        {
          "time": 353.424084,
          "midi": 49,
          "name": "C#3",
          "velocity": 1,
          "duration": 0.09062499999998863,
          "ticks": 109650,
          "durationTicks": 29
        },
        {
          "time": 353.517834,
          "midi": 47,
          "name": "B2",
          "velocity": 1,
          "duration": 0.09062499999998863,
          "ticks": 109680,
          "durationTicks": 29
        },
        {
          "time": 353.611584,
          "midi": 49,
          "name": "C#3",
          "velocity": 1,
          "duration": 0.09062499999998863,
          "ticks": 109710,
          "durationTicks": 29
        },
        {
          "time": 353.705334,
          "midi": 47,
          "name": "B2",
          "velocity": 1,
          "duration": 0.09062499999998863,
          "ticks": 109740,
          "durationTicks": 29
        },
        {
          "time": 353.799084,
          "midi": 45,
          "name": "A2",
          "velocity": 1,
          "duration": 0.09062499999998863,
          "ticks": 109770,
          "durationTicks": 29
        },
        {
          "time": 353.892834,
          "midi": 52,
          "name": "E3",
          "velocity": 1,
          "duration": 0.37187499999998863,
          "ticks": 109800,
          "durationTicks": 119
        },
        {
          "time": 354.642834,
          "midi": 52,
          "name": "E3",
          "velocity": 1,
          "duration": 0.37187499999998863,
          "ticks": 110040,
          "durationTicks": 119
        },
        {
          "time": 355.392834,
          "midi": 57,
          "name": "A3",
          "velocity": 1,
          "duration": 0.09062499999998863,
          "ticks": 110280,
          "durationTicks": 29
        },
        {
          "time": 355.486584,
          "midi": 59,
          "name": "B3",
          "velocity": 1,
          "duration": 0.09062499999998863,
          "ticks": 110310,
          "durationTicks": 29
        },
        {
          "time": 355.580334,
          "midi": 57,
          "name": "A3",
          "velocity": 1,
          "duration": 0.09062499999998863,
          "ticks": 110340,
          "durationTicks": 29
        },
        {
          "time": 355.674084,
          "midi": 56,
          "name": "G#3",
          "velocity": 1,
          "duration": 0.09062499999998863,
          "ticks": 110370,
          "durationTicks": 29
        },
        {
          "time": 355.767834,
          "midi": 54,
          "name": "F#3",
          "velocity": 1,
          "duration": 0.09062499999998863,
          "ticks": 110400,
          "durationTicks": 29
        },
        {
          "time": 355.861584,
          "midi": 56,
          "name": "G#3",
          "velocity": 1,
          "duration": 0.09062499999998863,
          "ticks": 110430,
          "durationTicks": 29
        },
        {
          "time": 355.955334,
          "midi": 54,
          "name": "F#3",
          "velocity": 1,
          "duration": 0.09062499999998863,
          "ticks": 110460,
          "durationTicks": 29
        },
        {
          "time": 356.049084,
          "midi": 52,
          "name": "E3",
          "velocity": 1,
          "duration": 0.09062499999998863,
          "ticks": 110490,
          "durationTicks": 29
        },
        {
          "time": 356.142834,
          "midi": 50,
          "name": "D3",
          "velocity": 0.9763779527559056,
          "duration": 0.09062499999998863,
          "ticks": 110520,
          "durationTicks": 29
        },
        {
          "time": 356.236584,
          "midi": 52,
          "name": "E3",
          "velocity": 1,
          "duration": 0.09062499999998863,
          "ticks": 110550,
          "durationTicks": 29
        },
        {
          "time": 356.330334,
          "midi": 50,
          "name": "D3",
          "velocity": 1,
          "duration": 0.09062499999998863,
          "ticks": 110580,
          "durationTicks": 29
        },
        {
          "time": 356.424084,
          "midi": 49,
          "name": "C#3",
          "velocity": 1,
          "duration": 0.09062499999998863,
          "ticks": 110610,
          "durationTicks": 29
        },
        {
          "time": 356.517834,
          "midi": 47,
          "name": "B2",
          "velocity": 1,
          "duration": 0.09062499999998863,
          "ticks": 110640,
          "durationTicks": 29
        },
        {
          "time": 356.611584,
          "midi": 49,
          "name": "C#3",
          "velocity": 1,
          "duration": 0.09062499999998863,
          "ticks": 110670,
          "durationTicks": 29
        },
        {
          "time": 356.705334,
          "midi": 47,
          "name": "B2",
          "velocity": 1,
          "duration": 0.09062499999998863,
          "ticks": 110700,
          "durationTicks": 29
        },
        {
          "time": 356.799084,
          "midi": 45,
          "name": "A2",
          "velocity": 1,
          "duration": 0.09062499999998863,
          "ticks": 110730,
          "durationTicks": 29
        },
        {
          "time": 356.892834,
          "midi": 45,
          "name": "A2",
          "velocity": 1,
          "duration": 0.37187499999998863,
          "ticks": 110760,
          "durationTicks": 119
        },
        {
          "time": 357.642834,
          "midi": 57,
          "name": "A3",
          "velocity": 1,
          "duration": 0.37187499999998863,
          "ticks": 111000,
          "durationTicks": 119
        },
        {
          "time": 358.392834,
          "midi": 41,
          "name": "F2",
          "velocity": 1,
          "duration": 1.5386393583333415,
          "ticks": 111240,
          "durationTicks": 479
        }
      ],
      "controlChanges": {
        "7": [
          {
            "number": 7,
            "value": 0.7874015748031497,
            "time": 0,
            "ticks": 0
          }
        ],
        "10": [
          {
            "number": 10,
            "value": 0.8267716535433071,
            "time": 0,
            "ticks": 0
          }
        ],
        "91": [
          {
            "number": 91,
            "value": 0.41732283464566927,
            "time": 0.15625,
            "ticks": 50
          },
          {
            "number": 91,
            "value": 0.4094488188976378,
            "time": 0.71875,
            "ticks": 230
          },
          {
            "number": 91,
            "value": 0.4015748031496063,
            "time": 0.96875,
            "ticks": 310
          }
        ],
        "93": [
          {
            "number": 93,
            "value": 0.6456692913385826,
            "time": 0,
            "ticks": 0
          },
          {
            "number": 93,
            "value": 0.6535433070866141,
            "time": 0.5,
            "ticks": 160
          },
          {
            "number": 93,
            "value": 0.6614173228346457,
            "time": 0.65625,
            "ticks": 210
          },
          {
            "number": 93,
            "value": 0.6692913385826772,
            "time": 0.78125,
            "ticks": 250
          }
        ]
      }
    },
    {
      "name": "Double Basses",
      "channel": 0,
      "instrument": {
        "number": 49,
        "name": "string ensemble 2",
        "family": "ensemble"
      },
      "notes": [
        {
          "time": 1.5,
          "midi": 42,
          "name": "F#2",
          "velocity": 0.3700787401574803,
          "duration": 0.7468749999999997,
          "ticks": 480,
          "durationTicks": 239
        },
        {
          "time": 2.25,
          "midi": 43,
          "name": "G2",
          "velocity": 0.3543307086614173,
          "duration": 0.37187499999999973,
          "ticks": 720,
          "durationTicks": 119
        },
        {
          "time": 2.625,
          "midi": 45,
          "name": "A2",
          "velocity": 0.3464566929133858,
          "duration": 0.37187499999999973,
          "ticks": 840,
          "durationTicks": 119
        },
        {
          "time": 3,
          "midi": 45,
          "name": "A2",
          "velocity": 0.3543307086614173,
          "duration": 0.3718750000000002,
          "ticks": 960,
          "durationTicks": 119
        },
        {
          "time": 3.375,
          "midi": 43,
          "name": "G2",
          "velocity": 0.36220472440944884,
          "duration": 0.3718750000000002,
          "ticks": 1080,
          "durationTicks": 119
        },
        {
          "time": 3.75,
          "midi": 42,
          "name": "F#2",
          "velocity": 0.3700787401574803,
          "duration": 0.3718750000000002,
          "ticks": 1200,
          "durationTicks": 119
        },
        {
          "time": 4.125,
          "midi": 40,
          "name": "E2",
          "velocity": 0.3779527559055118,
          "duration": 0.3718750000000002,
          "ticks": 1320,
          "durationTicks": 119
        },
        {
          "time": 4.5,
          "midi": 38,
          "name": "D2",
          "velocity": 0.3858267716535433,
          "duration": 0.7468750000000002,
          "ticks": 1440,
          "durationTicks": 239
        },
        {
          "time": 5.25,
          "midi": 40,
          "name": "E2",
          "velocity": 0.3937007874015748,
          "duration": 0.3718750000000002,
          "ticks": 1680,
          "durationTicks": 119
        },
        {
          "time": 5.625,
          "midi": 42,
          "name": "F#2",
          "velocity": 0.3937007874015748,
          "duration": 0.3718750000000002,
          "ticks": 1800,
          "durationTicks": 119
        },
        {
          "time": 6,
          "midi": 42,
          "name": "F#2",
          "velocity": 0.3937007874015748,
          "duration": 0.5593750000000002,
          "ticks": 1920,
          "durationTicks": 179
        },
        {
          "time": 6.5625,
          "midi": 40,
          "name": "E2",
          "velocity": 0.4015748031496063,
          "duration": 0.18437500000000018,
          "ticks": 2100,
          "durationTicks": 59
        },
        {
          "time": 6.75,
          "midi": 40,
          "name": "E2",
          "velocity": 0.4015748031496063,
          "duration": 0.7468750000000002,
          "ticks": 2160,
          "durationTicks": 239
        },
        {
          "time": 7.5,
          "midi": 42,
          "name": "F#2",
          "velocity": 0.4251968503937008,
          "duration": 0.7468749999999993,
          "ticks": 2400,
          "durationTicks": 239
        },
        {
          "time": 8.25,
          "midi": 43,
          "name": "G2",
          "velocity": 0.4251968503937008,
          "duration": 0.3718749999999993,
          "ticks": 2640,
          "durationTicks": 119
        },
        {
          "time": 8.625,
          "midi": 45,
          "name": "A2",
          "velocity": 0.4251968503937008,
          "duration": 0.3718749999999993,
          "ticks": 2760,
          "durationTicks": 119
        },
        {
          "time": 9,
          "midi": 45,
          "name": "A2",
          "velocity": 0.4251968503937008,
          "duration": 0.3718749999999993,
          "ticks": 2880,
          "durationTicks": 119
        },
        {
          "time": 9.375,
          "midi": 43,
          "name": "G2",
          "velocity": 0.4251968503937008,
          "duration": 0.3718749999999993,
          "ticks": 3000,
          "durationTicks": 119
        },
        {
          "time": 9.75,
          "midi": 42,
          "name": "F#2",
          "velocity": 0.4251968503937008,
          "duration": 0.3718749999999993,
          "ticks": 3120,
          "durationTicks": 119
        },
        {
          "time": 10.125,
          "midi": 40,
          "name": "E2",
          "velocity": 0.4251968503937008,
          "duration": 0.3718749999999993,
          "ticks": 3240,
          "durationTicks": 119
        },
        {
          "time": 10.5,
          "midi": 38,
          "name": "D2",
          "velocity": 0.4251968503937008,
          "duration": 0.7468749999999993,
          "ticks": 3360,
          "durationTicks": 239
        },
        {
          "time": 11.25,
          "midi": 40,
          "name": "E2",
          "velocity": 0.4251968503937008,
          "duration": 0.3718749999999993,
          "ticks": 3600,
          "durationTicks": 119
        },
        {
          "time": 11.625,
          "midi": 42,
          "name": "F#2",
          "velocity": 0.4251968503937008,
          "duration": 0.3718749999999993,
          "ticks": 3720,
          "durationTicks": 119
        },
        {
          "time": 12,
          "midi": 40,
          "name": "E2",
          "velocity": 0.4330708661417323,
          "duration": 0.5593749999999993,
          "ticks": 3840,
          "durationTicks": 179
        },
        {
          "time": 12.5625,
          "midi": 38,
          "name": "D2",
          "velocity": 0.4330708661417323,
          "duration": 0.1843749999999993,
          "ticks": 4020,
          "durationTicks": 59
        },
        {
          "time": 12.75,
          "midi": 38,
          "name": "D2",
          "velocity": 0.4251968503937008,
          "duration": 0.7468749999999993,
          "ticks": 4080,
          "durationTicks": 239
        },
        {
          "time": 13.496875,
          "midi": 40,
          "name": "E2",
          "velocity": 0.4015748031496063,
          "duration": 0.7468750000000011,
          "ticks": 4319,
          "durationTicks": 239
        },
        {
          "time": 14.246875,
          "midi": 42,
          "name": "F#2",
          "velocity": 0.3779527559055118,
          "duration": 0.37187500000000107,
          "ticks": 4559,
          "durationTicks": 119
        },
        {
          "time": 14.621875,
          "midi": 38,
          "name": "D2",
          "velocity": 0.3700787401574803,
          "duration": 0.37187500000000107,
          "ticks": 4679,
          "durationTicks": 119
        },
        {
          "time": 14.996875,
          "midi": 40,
          "name": "E2",
          "velocity": 0.36220472440944884,
          "duration": 0.37187500000000107,
          "ticks": 4799,
          "durationTicks": 119
        },
        {
          "time": 15.371875,
          "midi": 42,
          "name": "F#2",
          "velocity": 0.33858267716535434,
          "duration": 0.18437500000000107,
          "ticks": 4919,
          "durationTicks": 59
        },
        {
          "time": 15.559375,
          "midi": 43,
          "name": "G2",
          "velocity": 0.33858267716535434,
          "duration": 0.18437500000000107,
          "ticks": 4979,
          "durationTicks": 59
        },
        {
          "time": 15.746875,
          "midi": 42,
          "name": "F#2",
          "velocity": 0.33858267716535434,
          "duration": 0.3718749999999993,
          "ticks": 5039,
          "durationTicks": 119
        },
        {
          "time": 16.121875,
          "midi": 38,
          "name": "D2",
          "velocity": 0.33070866141732286,
          "duration": 0.3718749999999993,
          "ticks": 5159,
          "durationTicks": 119
        },
        {
          "time": 16.496875,
          "midi": 40,
          "name": "E2",
          "velocity": 0.31496062992125984,
          "duration": 0.3718749999999993,
          "ticks": 5279,
          "durationTicks": 119
        },
        {
          "time": 16.871875,
          "midi": 42,
          "name": "F#2",
          "velocity": 0.30708661417322836,
          "duration": 0.1843749999999993,
          "ticks": 5399,
          "durationTicks": 59
        },
        {
          "time": 17.059375,
          "midi": 43,
          "name": "G2",
          "velocity": 0.30708661417322836,
          "duration": 0.1843749999999993,
          "ticks": 5459,
          "durationTicks": 59
        },
        {
          "time": 17.246875,
          "midi": 42,
          "name": "F#2",
          "velocity": 0.33070866141732286,
          "duration": 0.3718749999999993,
          "ticks": 5519,
          "durationTicks": 119
        },
        {
          "time": 17.621875,
          "midi": 40,
          "name": "E2",
          "velocity": 0.4330708661417323,
          "duration": 0.3718749999999993,
          "ticks": 5639,
          "durationTicks": 119
        },
        {
          "time": 17.996875,
          "midi": 38,
          "name": "D2",
          "velocity": 0.5984251968503937,
          "duration": 0.3718749999999993,
          "ticks": 5759,
          "durationTicks": 119
        },
        {
          "time": 18.371875,
          "midi": 40,
          "name": "E2",
          "velocity": 0.7007874015748031,
          "duration": 0.3718749999999993,
          "ticks": 5879,
          "durationTicks": 119
        },
        {
          "time": 18.746875,
          "midi": 33,
          "name": "A1",
          "velocity": 0.7637795275590551,
          "duration": 0.3718749999999993,
          "ticks": 5999,
          "durationTicks": 119
        },
        {
          "time": 19.121875,
          "midi": 42,
          "name": "F#2",
          "velocity": 0.7716535433070866,
          "duration": 0.7468749999999993,
          "ticks": 6119,
          "durationTicks": 239
        },
        {
          "time": 19.875,
          "midi": 42,
          "name": "F#2",
          "velocity": 0.4251968503937008,
          "duration": 0.3718749999999993,
          "ticks": 6360,
          "durationTicks": 119
        },
        {
          "time": 20.246875,
          "midi": 43,
          "name": "G2",
          "velocity": 0.3543307086614173,
          "duration": 0.3718749999999993,
          "ticks": 6479,
          "durationTicks": 119
        },
        {
          "time": 20.621875,
          "midi": 45,
          "name": "A2",
          "velocity": 0.31496062992125984,
          "duration": 0.3718749999999993,
          "ticks": 6599,
          "durationTicks": 119
        },
        {
          "time": 20.996875,
          "midi": 45,
          "name": "A2",
          "velocity": 0.31496062992125984,
          "duration": 0.3718749999999993,
          "ticks": 6719,
          "durationTicks": 119
        },
        {
          "time": 21.371875,
          "midi": 43,
          "name": "G2",
          "velocity": 0.31496062992125984,
          "duration": 0.3718749999999993,
          "ticks": 6839,
          "durationTicks": 119
        },
        {
          "time": 21.746875,
          "midi": 42,
          "name": "F#2",
          "velocity": 0.3228346456692913,
          "duration": 0.3718749999999993,
          "ticks": 6959,
          "durationTicks": 119
        },
        {
          "time": 22.121875,
          "midi": 40,
          "name": "E2",
          "velocity": 0.33858267716535434,
          "duration": 0.3718749999999993,
          "ticks": 7079,
          "durationTicks": 119
        },
        {
          "time": 22.496875,
          "midi": 38,
          "name": "D2",
          "velocity": 0.3464566929133858,
          "duration": 0.7468749999999993,
          "ticks": 7199,
          "durationTicks": 239
        },
        {
          "time": 23.246875,
          "midi": 40,
          "name": "E2",
          "velocity": 0.31496062992125984,
          "duration": 0.3718749999999993,
          "ticks": 7439,
          "durationTicks": 119
        },
        {
          "time": 23.621875,
          "midi": 42,
          "name": "F#2",
          "velocity": 0.36220472440944884,
          "duration": 0.3718749999999993,
          "ticks": 7559,
          "durationTicks": 119
        },
        {
          "time": 23.996875,
          "midi": 40,
          "name": "E2",
          "velocity": 0.36220472440944884,
          "duration": 0.5593749999999993,
          "ticks": 7679,
          "durationTicks": 179
        },
        {
          "time": 24.559374999999996,
          "midi": 38,
          "name": "D2",
          "velocity": 0.36220472440944884,
          "duration": 0.18437500000000284,
          "ticks": 7859,
          "durationTicks": 59
        },
        {
          "time": 24.746874999999996,
          "midi": 38,
          "name": "D2",
          "velocity": 0.36220472440944884,
          "duration": 0.7468750000000028,
          "ticks": 7919,
          "durationTicks": 239
        },
        {
          "time": 25.49375,
          "midi": 40,
          "name": "E2",
          "velocity": 0.3464566929133858,
          "duration": 0.7468749999999993,
          "ticks": 8158,
          "durationTicks": 239
        },
        {
          "time": 26.24375,
          "midi": 42,
          "name": "F#2",
          "velocity": 0.33858267716535434,
          "duration": 0.3718749999999993,
          "ticks": 8398,
          "durationTicks": 119
        },
        {
          "time": 26.61875,
          "midi": 38,
          "name": "D2",
          "velocity": 0.33858267716535434,
          "duration": 0.3718749999999993,
          "ticks": 8518,
          "durationTicks": 119
        },
        {
          "time": 26.99375,
          "midi": 40,
          "name": "E2",
          "velocity": 0.33858267716535434,
          "duration": 0.3718749999999993,
          "ticks": 8638,
          "durationTicks": 119
        },
        {
          "time": 27.36875,
          "midi": 42,
          "name": "F#2",
          "velocity": 0.33070866141732286,
          "duration": 0.1843749999999993,
          "ticks": 8758,
          "durationTicks": 59
        },
        {
          "time": 27.55625,
          "midi": 43,
          "name": "G2",
          "velocity": 0.33070866141732286,
          "duration": 0.1843749999999993,
          "ticks": 8818,
          "durationTicks": 59
        },
        {
          "time": 27.74375,
          "midi": 42,
          "name": "F#2",
          "velocity": 0.33070866141732286,
          "duration": 0.3718749999999993,
          "ticks": 8878,
          "durationTicks": 119
        },
        {
          "time": 28.11875,
          "midi": 38,
          "name": "D2",
          "velocity": 0.33070866141732286,
          "duration": 0.3718749999999993,
          "ticks": 8998,
          "durationTicks": 119
        },
        {
          "time": 28.49375,
          "midi": 40,
          "name": "E2",
          "velocity": 0.33858267716535434,
          "duration": 0.3718749999999993,
          "ticks": 9118,
          "durationTicks": 119
        },
        {
          "time": 28.86875,
          "midi": 42,
          "name": "F#2",
          "velocity": 0.33858267716535434,
          "duration": 0.1843749999999993,
          "ticks": 9238,
          "durationTicks": 59
        },
        {
          "time": 29.05625,
          "midi": 43,
          "name": "G2",
          "velocity": 0.3464566929133858,
          "duration": 0.1843749999999993,
          "ticks": 9298,
          "durationTicks": 59
        },
        {
          "time": 29.24375,
          "midi": 42,
          "name": "F#2",
          "velocity": 0.3464566929133858,
          "duration": 0.3718749999999993,
          "ticks": 9358,
          "durationTicks": 119
        },
        {
          "time": 29.61875,
          "midi": 40,
          "name": "E2",
          "velocity": 0.31496062992125984,
          "duration": 0.3718749999999993,
          "ticks": 9478,
          "durationTicks": 119
        },
        {
          "time": 29.99375,
          "midi": 38,
          "name": "D2",
          "velocity": 0.3858267716535433,
          "duration": 0.3718749999999993,
          "ticks": 9598,
          "durationTicks": 119
        },
        {
          "time": 30.36875,
          "midi": 40,
          "name": "E2",
          "velocity": 0.5118110236220472,
          "duration": 0.3718749999999993,
          "ticks": 9718,
          "durationTicks": 119
        },
        {
          "time": 30.75,
          "midi": 33,
          "name": "A1",
          "velocity": 0.5826771653543307,
          "duration": 0.37187499999999574,
          "ticks": 9840,
          "durationTicks": 119
        },
        {
          "time": 31.125,
          "midi": 42,
          "name": "F#2",
          "velocity": 0.6535433070866141,
          "duration": 0.7468749999999957,
          "ticks": 9960,
          "durationTicks": 239
        },
        {
          "time": 31.875,
          "midi": 42,
          "name": "F#2",
          "velocity": 0.5511811023622047,
          "duration": 0.37187499999999574,
          "ticks": 10200,
          "durationTicks": 119
        },
        {
          "time": 32.25,
          "midi": 43,
          "name": "G2",
          "velocity": 0.4330708661417323,
          "duration": 0.37187499999999574,
          "ticks": 10320,
          "durationTicks": 119
        },
        {
          "time": 32.625,
          "midi": 45,
          "name": "A2",
          "velocity": 0.2992125984251969,
          "duration": 0.37187499999999574,
          "ticks": 10440,
          "durationTicks": 119
        },
        {
          "time": 33,
          "midi": 45,
          "name": "A2",
          "velocity": 0.28346456692913385,
          "duration": 0.37187499999999574,
          "ticks": 10560,
          "durationTicks": 119
        },
        {
          "time": 33.375,
          "midi": 43,
          "name": "G2",
          "velocity": 0.28346456692913385,
          "duration": 0.37187499999999574,
          "ticks": 10680,
          "durationTicks": 119
        },
        {
          "time": 33.75,
          "midi": 42,
          "name": "F#2",
          "velocity": 0.28346456692913385,
          "duration": 0.37187499999999574,
          "ticks": 10800,
          "durationTicks": 119
        },
        {
          "time": 34.125,
          "midi": 40,
          "name": "E2",
          "velocity": 0.29133858267716534,
          "duration": 0.37187499999999574,
          "ticks": 10920,
          "durationTicks": 119
        },
        {
          "time": 34.5,
          "midi": 38,
          "name": "D2",
          "velocity": 0.30708661417322836,
          "duration": 0.7468749999999957,
          "ticks": 11040,
          "durationTicks": 239
        },
        {
          "time": 35.25,
          "midi": 40,
          "name": "E2",
          "velocity": 0.3858267716535433,
          "duration": 0.37187499999999574,
          "ticks": 11280,
          "durationTicks": 119
        },
        {
          "time": 35.625,
          "midi": 42,
          "name": "F#2",
          "velocity": 0.3937007874015748,
          "duration": 0.37187499999999574,
          "ticks": 11400,
          "durationTicks": 119
        },
        {
          "time": 36,
          "midi": 40,
          "name": "E2",
          "velocity": 0.3937007874015748,
          "duration": 0.5593749999999957,
          "ticks": 11520,
          "durationTicks": 179
        },
        {
          "time": 36.5625,
          "midi": 38,
          "name": "D2",
          "velocity": 0.3937007874015748,
          "duration": 0.18437499999999574,
          "ticks": 11700,
          "durationTicks": 59
        },
        {
          "time": 36.75,
          "midi": 38,
          "name": "D2",
          "velocity": 0.3937007874015748,
          "duration": 0.37187499999999574,
          "ticks": 11760,
          "durationTicks": 119
        },
        {
          "time": 37.125,
          "midi": 45,
          "name": "A2",
          "velocity": 0.3937007874015748,
          "duration": 1.125,
          "ticks": 11880,
          "durationTicks": 360
        },
        {
          "time": 38.25,
          "midi": 38,
          "name": "D2",
          "velocity": 0.48031496062992124,
          "duration": 0.7468749999999957,
          "ticks": 12240,
          "durationTicks": 239
        },
        {
          "time": 39,
          "midi": 35,
          "name": "B1",
          "velocity": 0.48031496062992124,
          "duration": 0.5593749999999957,
          "ticks": 12480,
          "durationTicks": 179
        },
        {
          "time": 39.5625,
          "midi": 37,
          "name": "C#2",
          "velocity": 0.4881889763779528,
          "duration": 0.18437499999999574,
          "ticks": 12660,
          "durationTicks": 59
        },
        {
          "time": 39.75,
          "midi": 38,
          "name": "D2",
          "velocity": 0.4881889763779528,
          "duration": 0.37187499999999574,
          "ticks": 12720,
          "durationTicks": 119
        },
        {
          "time": 40.125,
          "midi": 43,
          "name": "G2",
          "velocity": 0.4881889763779528,
          "duration": 0.7468749999999957,
          "ticks": 12840,
          "durationTicks": 239
        },
        {
          "time": 40.875,
          "midi": 42,
          "name": "F#2",
          "velocity": 0.4881889763779528,
          "duration": 0.37187499999999574,
          "ticks": 13080,
          "durationTicks": 119
        },
        {
          "time": 41.25,
          "midi": 40,
          "name": "E2",
          "velocity": 0.4251968503937008,
          "duration": 0.37187499999999574,
          "ticks": 13200,
          "durationTicks": 119
        },
        {
          "time": 41.625,
          "midi": 38,
          "name": "D2",
          "velocity": 0.4409448818897638,
          "duration": 0.7468749999999957,
          "ticks": 13320,
          "durationTicks": 239
        },
        {
          "time": 42.375,
          "midi": 37,
          "name": "C#2",
          "velocity": 0.4409448818897638,
          "duration": 0.37187499999999574,
          "ticks": 13560,
          "durationTicks": 119
        },
        {
          "time": 42.75,
          "midi": 35,
          "name": "B1",
          "velocity": 0.4409448818897638,
          "duration": 0.37187499999999574,
          "ticks": 13680,
          "durationTicks": 119
        },
        {
          "time": 43.125,
          "midi": 33,
          "name": "A1",
          "velocity": 0.4409448818897638,
          "duration": 0.37187499999999574,
          "ticks": 13800,
          "durationTicks": 119
        },
        {
          "time": 43.5,
          "midi": 45,
          "name": "A2",
          "velocity": 0.4330708661417323,
          "duration": 0.7468749999999957,
          "ticks": 13920,
          "durationTicks": 239
        },
        {
          "time": 44.25,
          "midi": 38,
          "name": "D2",
          "velocity": 0.4330708661417323,
          "duration": 0.7468749999999957,
          "ticks": 14160,
          "durationTicks": 239
        },
        {
          "time": 45,
          "midi": 35,
          "name": "B1",
          "velocity": 0.41732283464566927,
          "duration": 0.5593749999999957,
          "ticks": 14400,
          "durationTicks": 179
        },
        {
          "time": 45.5625,
          "midi": 37,
          "name": "C#2",
          "velocity": 0.41732283464566927,
          "duration": 0.18437499999999574,
          "ticks": 14580,
          "durationTicks": 59
        },
        {
          "time": 45.75,
          "midi": 38,
          "name": "D2",
          "velocity": 0.41732283464566927,
          "duration": 0.37187499999999574,
          "ticks": 14640,
          "durationTicks": 119
        },
        {
          "time": 46.125,
          "midi": 43,
          "name": "G2",
          "velocity": 0.41732283464566927,
          "duration": 0.7468749999999957,
          "ticks": 14760,
          "durationTicks": 239
        },
        {
          "time": 46.875,
          "midi": 42,
          "name": "F#2",
          "velocity": 0.41732283464566927,
          "duration": 0.18437499999999574,
          "ticks": 15000,
          "durationTicks": 59
        },
        {
          "time": 47.0625,
          "midi": 40,
          "name": "E2",
          "velocity": 0.41732283464566927,
          "duration": 0.18437499999999574,
          "ticks": 15060,
          "durationTicks": 59
        },
        {
          "time": 47.25,
          "midi": 38,
          "name": "D2",
          "velocity": 0.41732283464566927,
          "duration": 0.18437499999999574,
          "ticks": 15120,
          "durationTicks": 59
        },
        {
          "time": 47.4375,
          "midi": 37,
          "name": "C#2",
          "velocity": 0.41732283464566927,
          "duration": 0.18437499999999574,
          "ticks": 15180,
          "durationTicks": 59
        },
        {
          "time": 47.625,
          "midi": 35,
          "name": "B1",
          "velocity": 0.41732283464566927,
          "duration": 0.18437499999999574,
          "ticks": 15240,
          "durationTicks": 59
        },
        {
          "time": 47.8125,
          "midi": 33,
          "name": "A1",
          "velocity": 0.41732283464566927,
          "duration": 0.18437499999999574,
          "ticks": 15300,
          "durationTicks": 59
        },
        {
          "time": 48,
          "midi": 31,
          "name": "G1",
          "velocity": 0.41732283464566927,
          "duration": 0.37187500000000284,
          "ticks": 15360,
          "durationTicks": 119
        },
        {
          "time": 48.375,
          "midi": 33,
          "name": "A1",
          "velocity": 0.41732283464566927,
          "duration": 0.37187500000000284,
          "ticks": 15480,
          "durationTicks": 119
        },
        {
          "time": 48.75,
          "midi": 30,
          "name": "F#1",
          "velocity": 0.41732283464566927,
          "duration": 0.37187500000000284,
          "ticks": 15600,
          "durationTicks": 119
        },
        {
          "time": 49.125,
          "midi": 42,
          "name": "F#2",
          "velocity": 0.41732283464566927,
          "duration": 0.37187500000000284,
          "ticks": 15720,
          "durationTicks": 119
        },
        {
          "time": 49.5,
          "midi": 43,
          "name": "G2",
          "velocity": 0.41732283464566927,
          "duration": 0.7468750000000028,
          "ticks": 15840,
          "durationTicks": 239
        },
        {
          "time": 50.25,
          "midi": 45,
          "name": "A2",
          "velocity": 0.41732283464566927,
          "duration": 0.37187500000000284,
          "ticks": 16080,
          "durationTicks": 119
        },
        {
          "time": 50.625,
          "midi": 47,
          "name": "B2",
          "velocity": 0.4251968503937008,
          "duration": 0.37187500000000284,
          "ticks": 16200,
          "durationTicks": 119
        },
        {
          "time": 51,
          "midi": 37,
          "name": "C#2",
          "velocity": 0.4330708661417323,
          "duration": 0.7468750000000028,
          "ticks": 16320,
          "durationTicks": 239
        },
        {
          "time": 51.75,
          "midi": 38,
          "name": "D2",
          "velocity": 0.44881889763779526,
          "duration": 0.37187500000000284,
          "ticks": 16560,
          "durationTicks": 119
        },
        {
          "time": 52.125,
          "midi": 40,
          "name": "E2",
          "velocity": 0.44881889763779526,
          "duration": 0.18437500000000284,
          "ticks": 16680,
          "durationTicks": 59
        },
        {
          "time": 52.3125,
          "midi": 42,
          "name": "F#2",
          "velocity": 0.44881889763779526,
          "duration": 0.18437500000000284,
          "ticks": 16740,
          "durationTicks": 59
        },
        {
          "time": 52.5,
          "midi": 43,
          "name": "G2",
          "velocity": 0.4566929133858268,
          "duration": 0.7468750000000028,
          "ticks": 16800,
          "durationTicks": 239
        },
        {
          "time": 53.25,
          "midi": 45,
          "name": "A2",
          "velocity": 0.4094488188976378,
          "duration": 0.37187500000000284,
          "ticks": 17040,
          "durationTicks": 119
        },
        {
          "time": 53.625,
          "midi": 46,
          "name": "A#2",
          "velocity": 0.4094488188976378,
          "duration": 0.37187500000000284,
          "ticks": 17160,
          "durationTicks": 119
        },
        {
          "time": 54,
          "midi": 47,
          "name": "B2",
          "velocity": 0.4094488188976378,
          "duration": 0.37187500000000284,
          "ticks": 17280,
          "durationTicks": 119
        },
        {
          "time": 54.375,
          "midi": 49,
          "name": "C#3",
          "velocity": 0.41732283464566927,
          "duration": 0.7468750000000028,
          "ticks": 17400,
          "durationTicks": 239
        },
        {
          "time": 55.125,
          "midi": 50,
          "name": "D3",
          "velocity": 0.41732283464566927,
          "duration": 0.37187500000000284,
          "ticks": 17640,
          "durationTicks": 119
        },
        {
          "time": 55.5,
          "midi": 45,
          "name": "A2",
          "velocity": 0.41732283464566927,
          "duration": 0.7468750000000028,
          "ticks": 17760,
          "durationTicks": 239
        },
        {
          "time": 56.25,
          "midi": 36,
          "name": "C2",
          "velocity": 0.41732283464566927,
          "duration": 0.7468750000000028,
          "ticks": 18000,
          "durationTicks": 239
        },
        {
          "time": 57,
          "midi": 35,
          "name": "B1",
          "velocity": 0.41732283464566927,
          "duration": 0.5593750000000028,
          "ticks": 18240,
          "durationTicks": 179
        },
        {
          "time": 57.5625,
          "midi": 37,
          "name": "C#2",
          "velocity": 0.41732283464566927,
          "duration": 0.18437500000000284,
          "ticks": 18420,
          "durationTicks": 59
        },
        {
          "time": 57.75,
          "midi": 38,
          "name": "D2",
          "velocity": 0.4251968503937008,
          "duration": 0.37187500000000284,
          "ticks": 18480,
          "durationTicks": 119
        },
        {
          "time": 58.125,
          "midi": 43,
          "name": "G2",
          "velocity": 0.4251968503937008,
          "duration": 0.7468750000000028,
          "ticks": 18600,
          "durationTicks": 239
        },
        {
          "time": 58.875,
          "midi": 42,
          "name": "F#2",
          "velocity": 0.4251968503937008,
          "duration": 0.18437500000000284,
          "ticks": 18840,
          "durationTicks": 59
        },
        {
          "time": 59.0625,
          "midi": 40,
          "name": "E2",
          "velocity": 0.4251968503937008,
          "duration": 0.18437500000000284,
          "ticks": 18900,
          "durationTicks": 59
        },
        {
          "time": 59.25,
          "midi": 38,
          "name": "D2",
          "velocity": 0.4251968503937008,
          "duration": 0.18437500000000284,
          "ticks": 18960,
          "durationTicks": 59
        },
        {
          "time": 59.4375,
          "midi": 37,
          "name": "C#2",
          "velocity": 0.4251968503937008,
          "duration": 0.18437500000000284,
          "ticks": 19020,
          "durationTicks": 59
        },
        {
          "time": 59.625,
          "midi": 35,
          "name": "B1",
          "velocity": 0.4251968503937008,
          "duration": 0.18437500000000284,
          "ticks": 19080,
          "durationTicks": 59
        },
        {
          "time": 59.8125,
          "midi": 33,
          "name": "A1",
          "velocity": 0.4251968503937008,
          "duration": 0.18437500000000284,
          "ticks": 19140,
          "durationTicks": 59
        },
        {
          "time": 60,
          "midi": 31,
          "name": "G1",
          "velocity": 0.4251968503937008,
          "duration": 0.37187500000000284,
          "ticks": 19200,
          "durationTicks": 119
        },
        {
          "time": 60.375,
          "midi": 33,
          "name": "A1",
          "velocity": 0.4330708661417323,
          "duration": 0.37187500000000284,
          "ticks": 19320,
          "durationTicks": 119
        },
        {
          "time": 60.75,
          "midi": 30,
          "name": "F#1",
          "velocity": 0.4330708661417323,
          "duration": 0.37187500000000284,
          "ticks": 19440,
          "durationTicks": 119
        },
        {
          "time": 61.125,
          "midi": 42,
          "name": "F#2",
          "velocity": 0.4330708661417323,
          "duration": 0.37187500000000284,
          "ticks": 19560,
          "durationTicks": 119
        },
        {
          "time": 61.5,
          "midi": 43,
          "name": "G2",
          "velocity": 0.4330708661417323,
          "duration": 0.7468750000000028,
          "ticks": 19680,
          "durationTicks": 239
        },
        {
          "time": 62.25,
          "midi": 45,
          "name": "A2",
          "velocity": 0.4330708661417323,
          "duration": 0.37187500000000284,
          "ticks": 19920,
          "durationTicks": 119
        },
        {
          "time": 62.625,
          "midi": 47,
          "name": "B2",
          "velocity": 0.4409448818897638,
          "duration": 0.37187500000000284,
          "ticks": 20040,
          "durationTicks": 119
        },
        {
          "time": 63,
          "midi": 37,
          "name": "C#2",
          "velocity": 0.4409448818897638,
          "duration": 0.7468750000000028,
          "ticks": 20160,
          "durationTicks": 239
        },
        {
          "time": 63.75,
          "midi": 38,
          "name": "D2",
          "velocity": 0.44881889763779526,
          "duration": 0.37187500000000284,
          "ticks": 20400,
          "durationTicks": 119
        },
        {
          "time": 64.125,
          "midi": 40,
          "name": "E2",
          "velocity": 0.4566929133858268,
          "duration": 0.18437500000000284,
          "ticks": 20520,
          "durationTicks": 59
        },
        {
          "time": 64.3125,
          "midi": 42,
          "name": "F#2",
          "velocity": 0.4645669291338583,
          "duration": 0.18437500000000284,
          "ticks": 20580,
          "durationTicks": 59
        },
        {
          "time": 64.5,
          "midi": 43,
          "name": "G2",
          "velocity": 0.4645669291338583,
          "duration": 0.7468750000000028,
          "ticks": 20640,
          "durationTicks": 239
        },
        {
          "time": 65.25,
          "midi": 45,
          "name": "A2",
          "velocity": 0.48031496062992124,
          "duration": 0.37187500000000284,
          "ticks": 20880,
          "durationTicks": 119
        },
        {
          "time": 65.625,
          "midi": 46,
          "name": "A#2",
          "velocity": 0.4881889763779528,
          "duration": 0.37187500000000284,
          "ticks": 21000,
          "durationTicks": 119
        },
        {
          "time": 66,
          "midi": 47,
          "name": "B2",
          "velocity": 0.4881889763779528,
          "duration": 0.37187500000000284,
          "ticks": 21120,
          "durationTicks": 119
        },
        {
          "time": 66.375,
          "midi": 49,
          "name": "C#3",
          "velocity": 0.4881889763779528,
          "duration": 0.7468750000000028,
          "ticks": 21240,
          "durationTicks": 239
        },
        {
          "time": 67.125,
          "midi": 50,
          "name": "D3",
          "velocity": 0.49606299212598426,
          "duration": 0.37187500000000284,
          "ticks": 21480,
          "durationTicks": 119
        },
        {
          "time": 67.5,
          "midi": 45,
          "name": "A2",
          "velocity": 0.5039370078740157,
          "duration": 0.7468750000000028,
          "ticks": 21600,
          "durationTicks": 239
        },
        {
          "time": 68.25,
          "midi": 36,
          "name": "C2",
          "velocity": 0.5196850393700787,
          "duration": 0.7468750000000028,
          "ticks": 21840,
          "durationTicks": 239
        },
        {
          "time": 69,
          "midi": 35,
          "name": "B1",
          "velocity": 0.5275590551181102,
          "duration": 0.5593750000000028,
          "ticks": 22080,
          "durationTicks": 179
        },
        {
          "time": 69.5625,
          "midi": 37,
          "name": "C#2",
          "velocity": 0.5275590551181102,
          "duration": 0.18437500000000284,
          "ticks": 22260,
          "durationTicks": 59
        },
        {
          "time": 69.75,
          "midi": 38,
          "name": "D2",
          "velocity": 0.5275590551181102,
          "duration": 0.37187500000000284,
          "ticks": 22320,
          "durationTicks": 119
        },
        {
          "time": 70.125,
          "midi": 43,
          "name": "G2",
          "velocity": 0.5275590551181102,
          "duration": 0.7468750000000028,
          "ticks": 22440,
          "durationTicks": 239
        },
        {
          "time": 70.875,
          "midi": 42,
          "name": "F#2",
          "velocity": 0.5196850393700787,
          "duration": 0.18437500000000284,
          "ticks": 22680,
          "durationTicks": 59
        },
        {
          "time": 71.0625,
          "midi": 40,
          "name": "E2",
          "velocity": 0.5511811023622047,
          "duration": 0.18437500000000284,
          "ticks": 22740,
          "durationTicks": 59
        },
        {
          "time": 71.25,
          "midi": 38,
          "name": "D2",
          "velocity": 0.5511811023622047,
          "duration": 0.18437500000000284,
          "ticks": 22800,
          "durationTicks": 59
        },
        {
          "time": 71.4375,
          "midi": 37,
          "name": "C#2",
          "velocity": 0.5511811023622047,
          "duration": 0.18437500000000284,
          "ticks": 22860,
          "durationTicks": 59
        },
        {
          "time": 71.625,
          "midi": 35,
          "name": "B1",
          "velocity": 0.5511811023622047,
          "duration": 0.18437500000000284,
          "ticks": 22920,
          "durationTicks": 59
        },
        {
          "time": 71.8125,
          "midi": 33,
          "name": "A1",
          "velocity": 0.5511811023622047,
          "duration": 0.18437500000000284,
          "ticks": 22980,
          "durationTicks": 59
        },
        {
          "time": 72,
          "midi": 31,
          "name": "G1",
          "velocity": 0.5511811023622047,
          "duration": 0.37187500000000284,
          "ticks": 23040,
          "durationTicks": 119
        },
        {
          "time": 72.375,
          "midi": 33,
          "name": "A1",
          "velocity": 0.5590551181102362,
          "duration": 0.37187500000000284,
          "ticks": 23160,
          "durationTicks": 119
        },
        {
          "time": 72.75,
          "midi": 30,
          "name": "F#1",
          "velocity": 0.5590551181102362,
          "duration": 0.18437500000000284,
          "ticks": 23280,
          "durationTicks": 59
        },
        {
          "time": 72.9375,
          "midi": 43,
          "name": "G2",
          "velocity": 0.5590551181102362,
          "duration": 0.18437500000000284,
          "ticks": 23340,
          "durationTicks": 59
        },
        {
          "time": 73.125,
          "midi": 42,
          "name": "F#2",
          "velocity": 0.5669291338582677,
          "duration": 0.18437500000000284,
          "ticks": 23400,
          "durationTicks": 59
        },
        {
          "time": 73.3125,
          "midi": 40,
          "name": "E2",
          "velocity": 0.5748031496062992,
          "duration": 0.18437500000000284,
          "ticks": 23460,
          "durationTicks": 59
        },
        {
          "time": 73.5,
          "midi": 38,
          "name": "D2",
          "velocity": 0.5826771653543307,
          "duration": 3.375,
          "ticks": 23520,
          "durationTicks": 1080
        },
        {
          "time": 76.875,
          "midi": 38,
          "name": "D2",
          "velocity": 0.6377952755905512,
          "duration": 0.37187500000000284,
          "ticks": 24600,
          "durationTicks": 119
        },
        {
          "time": 77.25,
          "midi": 37,
          "name": "C#2",
          "velocity": 0.6377952755905512,
          "duration": 0.37187500000000284,
          "ticks": 24720,
          "durationTicks": 119
        },
        {
          "time": 77.625,
          "midi": 35,
          "name": "B1",
          "velocity": 0.6377952755905512,
          "duration": 0.37187500000000284,
          "ticks": 24840,
          "durationTicks": 119
        },
        {
          "time": 78,
          "midi": 33,
          "name": "A1",
          "velocity": 0.6299212598425197,
          "duration": 0.9375,
          "ticks": 24960,
          "durationTicks": 300
        },
        {
          "time": 78.9375,
          "midi": 43,
          "name": "G2",
          "velocity": 0.6299212598425197,
          "duration": 0.18437500000000284,
          "ticks": 25260,
          "durationTicks": 59
        },
        {
          "time": 79.125,
          "midi": 42,
          "name": "F#2",
          "velocity": 0.6299212598425197,
          "duration": 0.18437500000000284,
          "ticks": 25320,
          "durationTicks": 59
        },
        {
          "time": 79.3125,
          "midi": 40,
          "name": "E2",
          "velocity": 0.6299212598425197,
          "duration": 0.18437500000000284,
          "ticks": 25380,
          "durationTicks": 59
        },
        {
          "time": 79.5,
          "midi": 38,
          "name": "D2",
          "velocity": 0.6299212598425197,
          "duration": 3.1875,
          "ticks": 25440,
          "durationTicks": 1020
        },
        {
          "time": 82.6875,
          "midi": 52,
          "name": "E3",
          "velocity": 0.6141732283464567,
          "duration": 0.18437500000000284,
          "ticks": 26460,
          "durationTicks": 59
        },
        {
          "time": 82.875,
          "midi": 50,
          "name": "D3",
          "velocity": 0.6141732283464567,
          "duration": 0.18437500000000284,
          "ticks": 26520,
          "durationTicks": 59
        },
        {
          "time": 83.0625,
          "midi": 49,
          "name": "C#3",
          "velocity": 0.6141732283464567,
          "duration": 0.18437500000000284,
          "ticks": 26580,
          "durationTicks": 59
        },
        {
          "time": 83.25,
          "midi": 47,
          "name": "B2",
          "velocity": 0.6141732283464567,
          "duration": 0.18437500000000284,
          "ticks": 26640,
          "durationTicks": 59
        },
        {
          "time": 83.4375,
          "midi": 45,
          "name": "A2",
          "velocity": 0.6141732283464567,
          "duration": 0.18437500000000284,
          "ticks": 26700,
          "durationTicks": 59
        },
        {
          "time": 83.625,
          "midi": 43,
          "name": "G2",
          "velocity": 0.6141732283464567,
          "duration": 0.18437500000000284,
          "ticks": 26760,
          "durationTicks": 59
        },
        {
          "time": 83.8125,
          "midi": 42,
          "name": "F#2",
          "velocity": 0.6062992125984252,
          "duration": 0.18437500000000284,
          "ticks": 26820,
          "durationTicks": 59
        },
        {
          "time": 84,
          "midi": 45,
          "name": "A2",
          "velocity": 0.6062992125984252,
          "duration": 0.37187500000000284,
          "ticks": 26880,
          "durationTicks": 119
        },
        {
          "time": 84.375,
          "midi": 33,
          "name": "A1",
          "velocity": 0.6062992125984252,
          "duration": 0.37187500000000284,
          "ticks": 27000,
          "durationTicks": 119
        },
        {
          "time": 84.75,
          "midi": 38,
          "name": "D2",
          "velocity": 0.6062992125984252,
          "duration": 0.37187500000000284,
          "ticks": 27120,
          "durationTicks": 119
        },
        {
          "time": 85.125,
          "midi": 45,
          "name": "A2",
          "velocity": 0.6062992125984252,
          "duration": 4.5,
          "ticks": 27240,
          "durationTicks": 1440
        },
        {
          "time": 89.625,
          "midi": 42,
          "name": "F#2",
          "velocity": 0.6141732283464567,
          "duration": 0.37187500000000284,
          "ticks": 28680,
          "durationTicks": 119
        },
        {
          "time": 90,
          "midi": 47,
          "name": "B2",
          "velocity": 0.6141732283464567,
          "duration": 0.37187500000000284,
          "ticks": 28800,
          "durationTicks": 119
        },
        {
          "time": 90.375,
          "midi": 43,
          "name": "G2",
          "velocity": 0.6141732283464567,
          "duration": 0.7468750000000028,
          "ticks": 28920,
          "durationTicks": 239
        },
        {
          "time": 91.125,
          "midi": 42,
          "name": "F#2",
          "velocity": 0.6141732283464567,
          "duration": 0.18437500000000284,
          "ticks": 29160,
          "durationTicks": 59
        },
        {
          "time": 91.3125,
          "midi": 40,
          "name": "E2",
          "velocity": 0.6141732283464567,
          "duration": 0.18437500000000284,
          "ticks": 29220,
          "durationTicks": 59
        },
        {
          "time": 91.5,
          "midi": 38,
          "name": "D2",
          "velocity": 0.6141732283464567,
          "duration": 3.375,
          "ticks": 29280,
          "durationTicks": 1080
        },
        {
          "time": 94.875,
          "midi": 50,
          "name": "D3",
          "velocity": 0.6299212598425197,
          "duration": 0.18437500000000284,
          "ticks": 30360,
          "durationTicks": 59
        },
        {
          "time": 95.0625,
          "midi": 49,
          "name": "C#3",
          "velocity": 0.6299212598425197,
          "duration": 0.18437500000000284,
          "ticks": 30420,
          "durationTicks": 59
        },
        {
          "time": 95.25,
          "midi": 47,
          "name": "B2",
          "velocity": 0.6299212598425197,
          "duration": 0.18437500000000284,
          "ticks": 30480,
          "durationTicks": 59
        },
        {
          "time": 95.4375,
          "midi": 45,
          "name": "A2",
          "velocity": 0.6377952755905512,
          "duration": 0.18437500000000284,
          "ticks": 30540,
          "durationTicks": 59
        },
        {
          "time": 95.625,
          "midi": 43,
          "name": "G2",
          "velocity": 0.6377952755905512,
          "duration": 0.18437500000000284,
          "ticks": 30600,
          "durationTicks": 59
        },
        {
          "time": 95.8125,
          "midi": 42,
          "name": "F#2",
          "velocity": 0.6535433070866141,
          "duration": 0.18437500000000284,
          "ticks": 30660,
          "durationTicks": 59
        },
        {
          "time": 96,
          "midi": 45,
          "name": "A2",
          "velocity": 0.6614173228346457,
          "duration": 0.37187500000000284,
          "ticks": 30720,
          "durationTicks": 119
        },
        {
          "time": 96.375,
          "midi": 33,
          "name": "A1",
          "velocity": 0.6692913385826772,
          "duration": 0.37187500000000284,
          "ticks": 30840,
          "durationTicks": 119
        },
        {
          "time": 96.75,
          "midi": 38,
          "name": "D2",
          "velocity": 0.6771653543307087,
          "duration": 0.37187500000000284,
          "ticks": 30960,
          "durationTicks": 119
        },
        {
          "time": 97.125,
          "midi": 45,
          "name": "A2",
          "velocity": 0.6850393700787402,
          "duration": 4.5,
          "ticks": 31080,
          "durationTicks": 1440
        },
        {
          "time": 101.625,
          "midi": 42,
          "name": "F#2",
          "velocity": 0.7716535433070866,
          "duration": 0.37187500000000284,
          "ticks": 32520,
          "durationTicks": 119
        },
        {
          "time": 102,
          "midi": 47,
          "name": "B2",
          "velocity": 0.7401574803149606,
          "duration": 0.37187500000000284,
          "ticks": 32640,
          "durationTicks": 119
        },
        {
          "time": 102.375,
          "midi": 43,
          "name": "G2",
          "velocity": 0.7480314960629921,
          "duration": 0.7468750000000028,
          "ticks": 32760,
          "durationTicks": 239
        },
        {
          "time": 103.125,
          "midi": 42,
          "name": "F#2",
          "velocity": 0.7559055118110236,
          "duration": 0.18437500000000284,
          "ticks": 33000,
          "durationTicks": 59
        },
        {
          "time": 103.3125,
          "midi": 40,
          "name": "E2",
          "velocity": 0.7637795275590551,
          "duration": 0.18437500000000284,
          "ticks": 33060,
          "durationTicks": 59
        },
        {
          "time": 103.5,
          "midi": 38,
          "name": "D2",
          "velocity": 0.7637795275590551,
          "duration": 3.375,
          "ticks": 33120,
          "durationTicks": 1080
        },
        {
          "time": 106.875,
          "midi": 50,
          "name": "D3",
          "velocity": 0.6771653543307087,
          "duration": 0.18437500000000284,
          "ticks": 34200,
          "durationTicks": 59
        },
        {
          "time": 107.0625,
          "midi": 49,
          "name": "C#3",
          "velocity": 0.7322834645669292,
          "duration": 0.18437500000000284,
          "ticks": 34260,
          "durationTicks": 59
        },
        {
          "time": 107.25,
          "midi": 47,
          "name": "B2",
          "velocity": 0.7401574803149606,
          "duration": 0.18437500000000284,
          "ticks": 34320,
          "durationTicks": 59
        },
        {
          "time": 107.4375,
          "midi": 45,
          "name": "A2",
          "velocity": 0.7559055118110236,
          "duration": 0.18437500000000284,
          "ticks": 34380,
          "durationTicks": 59
        },
        {
          "time": 107.625,
          "midi": 43,
          "name": "G2",
          "velocity": 0.7637795275590551,
          "duration": 0.18437500000000284,
          "ticks": 34440,
          "durationTicks": 59
        },
        {
          "time": 107.8125,
          "midi": 42,
          "name": "F#2",
          "velocity": 0.7716535433070866,
          "duration": 0.18437500000000284,
          "ticks": 34500,
          "durationTicks": 59
        },
        {
          "time": 108,
          "midi": 45,
          "name": "A2",
          "velocity": 0.7716535433070866,
          "duration": 0.37187500000000284,
          "ticks": 34560,
          "durationTicks": 119
        },
        {
          "time": 108.375,
          "midi": 33,
          "name": "A1",
          "velocity": 0.7716535433070866,
          "duration": 0.37187500000000284,
          "ticks": 34680,
          "durationTicks": 119
        },
        {
          "time": 108.75,
          "midi": 38,
          "name": "D2",
          "velocity": 0.7716535433070866,
          "duration": 0.18437500000000284,
          "ticks": 34800,
          "durationTicks": 59
        },
        {
          "time": 108.9375,
          "midi": 43,
          "name": "G2",
          "velocity": 0.7716535433070866,
          "duration": 0.18437500000000284,
          "ticks": 34860,
          "durationTicks": 59
        },
        {
          "time": 109.125,
          "midi": 42,
          "name": "F#2",
          "velocity": 0.7716535433070866,
          "duration": 0.18437500000000284,
          "ticks": 34920,
          "durationTicks": 59
        },
        {
          "time": 109.3125,
          "midi": 40,
          "name": "E2",
          "velocity": 0.7716535433070866,
          "duration": 0.18437500000000284,
          "ticks": 34980,
          "durationTicks": 59
        },
        {
          "time": 109.5,
          "midi": 50,
          "name": "D3",
          "velocity": 0.8503937007874016,
          "duration": 0.37187500000000284,
          "ticks": 35040,
          "durationTicks": 119
        },
        {
          "time": 110.0625,
          "midi": 42,
          "name": "F#2",
          "velocity": 0.9133858267716536,
          "duration": 0.18437500000000284,
          "ticks": 35220,
          "durationTicks": 59
        },
        {
          "time": 110.25,
          "midi": 50,
          "name": "D3",
          "velocity": 0.9133858267716536,
          "duration": 0.37187500000000284,
          "ticks": 35280,
          "durationTicks": 119
        },
        {
          "time": 110.8125,
          "midi": 38,
          "name": "D2",
          "velocity": 0.9133858267716536,
          "duration": 0.18437500000000284,
          "ticks": 35460,
          "durationTicks": 59
        },
        {
          "time": 111,
          "midi": 45,
          "name": "A2",
          "velocity": 0.9133858267716536,
          "duration": 0.37187500000000284,
          "ticks": 35520,
          "durationTicks": 119
        },
        {
          "time": 111.5625,
          "midi": 33,
          "name": "A1",
          "velocity": 0.9291338582677166,
          "duration": 0.18437500000000284,
          "ticks": 35700,
          "durationTicks": 59
        },
        {
          "time": 111.75,
          "midi": 45,
          "name": "A2",
          "velocity": 0.9291338582677166,
          "duration": 0.18437500000000284,
          "ticks": 35760,
          "durationTicks": 59
        },
        {
          "time": 112.3125,
          "midi": 33,
          "name": "A1",
          "velocity": 0.952755905511811,
          "duration": 0.18437500000000284,
          "ticks": 35940,
          "durationTicks": 59
        },
        {
          "time": 112.5,
          "midi": 38,
          "name": "D2",
          "velocity": 0.952755905511811,
          "duration": 0.37187500000000284,
          "ticks": 36000,
          "durationTicks": 119
        },
        {
          "time": 113.625,
          "midi": 38,
          "name": "D2",
          "velocity": 0.968503937007874,
          "duration": 0.37187500000000284,
          "ticks": 36360,
          "durationTicks": 119
        },
        {
          "time": 114,
          "midi": 45,
          "name": "A2",
          "velocity": 0.968503937007874,
          "duration": 0.37187500000000284,
          "ticks": 36480,
          "durationTicks": 119
        },
        {
          "time": 114.75,
          "midi": 33,
          "name": "A1",
          "velocity": 0.9606299212598425,
          "duration": 0.37187500000000284,
          "ticks": 36720,
          "durationTicks": 119
        },
        {
          "time": 115.5,
          "midi": 50,
          "name": "D3",
          "velocity": 0.952755905511811,
          "duration": 0.37187500000000284,
          "ticks": 36960,
          "durationTicks": 119
        },
        {
          "time": 116.0625,
          "midi": 38,
          "name": "D2",
          "velocity": 0.9448818897637795,
          "duration": 0.18437500000000284,
          "ticks": 37140,
          "durationTicks": 59
        },
        {
          "time": 116.25,
          "midi": 50,
          "name": "D3",
          "velocity": 0.937007874015748,
          "duration": 0.37187500000000284,
          "ticks": 37200,
          "durationTicks": 119
        },
        {
          "time": 116.8125,
          "midi": 38,
          "name": "D2",
          "velocity": 0.937007874015748,
          "duration": 0.18437500000000284,
          "ticks": 37380,
          "durationTicks": 59
        },
        {
          "time": 117,
          "midi": 45,
          "name": "A2",
          "velocity": 0.937007874015748,
          "duration": 0.37187500000000284,
          "ticks": 37440,
          "durationTicks": 119
        },
        {
          "time": 117.5625,
          "midi": 33,
          "name": "A1",
          "velocity": 0.937007874015748,
          "duration": 0.18437500000000284,
          "ticks": 37620,
          "durationTicks": 59
        },
        {
          "time": 117.75,
          "midi": 45,
          "name": "A2",
          "velocity": 0.937007874015748,
          "duration": 0.37187500000000284,
          "ticks": 37680,
          "durationTicks": 119
        },
        {
          "time": 118.3125,
          "midi": 33,
          "name": "A1",
          "velocity": 0.937007874015748,
          "duration": 0.18437500000000284,
          "ticks": 37860,
          "durationTicks": 59
        },
        {
          "time": 118.5,
          "midi": 38,
          "name": "D2",
          "velocity": 0.937007874015748,
          "duration": 0.37187500000000284,
          "ticks": 37920,
          "durationTicks": 119
        },
        {
          "time": 119.625,
          "midi": 38,
          "name": "D2",
          "velocity": 0.937007874015748,
          "duration": 0.37187500000000284,
          "ticks": 38280,
          "durationTicks": 119
        },
        {
          "time": 119.996875,
          "midi": 33,
          "name": "A1",
          "velocity": 0.9448818897637795,
          "duration": 0.37187500000000284,
          "ticks": 38399,
          "durationTicks": 119
        },
        {
          "time": 120.746875,
          "midi": 38,
          "name": "D2",
          "velocity": 0.952755905511811,
          "duration": 0.37187500000000284,
          "ticks": 38639,
          "durationTicks": 119
        },
        {
          "time": 121.496875,
          "midi": 33,
          "name": "A1",
          "velocity": 0.968503937007874,
          "duration": 0.37187500000000284,
          "ticks": 38879,
          "durationTicks": 119
        },
        {
          "time": 122.059375,
          "midi": 33,
          "name": "A1",
          "velocity": 0.968503937007874,
          "duration": 0.18437500000000284,
          "ticks": 39059,
          "durationTicks": 59
        },
        {
          "time": 122.246875,
          "midi": 45,
          "name": "A2",
          "velocity": 0.968503937007874,
          "duration": 0.37187500000000284,
          "ticks": 39119,
          "durationTicks": 119
        },
        {
          "time": 122.621875,
          "midi": 38,
          "name": "D2",
          "velocity": 0.968503937007874,
          "duration": 0.37187500000000284,
          "ticks": 39239,
          "durationTicks": 119
        },
        {
          "time": 123,
          "midi": 33,
          "name": "A1",
          "velocity": 0.968503937007874,
          "duration": 0.37187500000000284,
          "ticks": 39360,
          "durationTicks": 119
        },
        {
          "time": 123.5625,
          "midi": 33,
          "name": "A1",
          "velocity": 0.968503937007874,
          "duration": 0.18437500000000284,
          "ticks": 39540,
          "durationTicks": 59
        },
        {
          "time": 123.75,
          "midi": 45,
          "name": "A2",
          "velocity": 0.968503937007874,
          "duration": 0.37187500000000284,
          "ticks": 39600,
          "durationTicks": 119
        },
        {
          "time": 124.125,
          "midi": 38,
          "name": "D2",
          "velocity": 0.968503937007874,
          "duration": 0.37187500000000284,
          "ticks": 39720,
          "durationTicks": 119
        },
        {
          "time": 124.5,
          "midi": 33,
          "name": "A1",
          "velocity": 0.968503937007874,
          "duration": 0.37187500000000284,
          "ticks": 39840,
          "durationTicks": 119
        },
        {
          "time": 125.0625,
          "midi": 45,
          "name": "A2",
          "velocity": 0.9606299212598425,
          "duration": 0.18437500000000284,
          "ticks": 40020,
          "durationTicks": 59
        },
        {
          "time": 125.25,
          "midi": 46,
          "name": "A#2",
          "velocity": 0.9606299212598425,
          "duration": 0.18437500000000284,
          "ticks": 40080,
          "durationTicks": 59
        },
        {
          "time": 125.625,
          "midi": 42,
          "name": "F#2",
          "velocity": 0.9606299212598425,
          "duration": 0.18437500000000284,
          "ticks": 40200,
          "durationTicks": 59
        },
        {
          "time": 126,
          "midi": 47,
          "name": "B2",
          "velocity": 0.9606299212598425,
          "duration": 0.18437500000000284,
          "ticks": 40320,
          "durationTicks": 59
        },
        {
          "time": 126.375,
          "midi": 40,
          "name": "E2",
          "velocity": 0.9606299212598425,
          "duration": 0.18437500000000284,
          "ticks": 40440,
          "durationTicks": 59
        },
        {
          "time": 126.75,
          "midi": 45,
          "name": "A2",
          "velocity": 0.9606299212598425,
          "duration": 0.18437500000000284,
          "ticks": 40560,
          "durationTicks": 59
        },
        {
          "time": 127.125,
          "midi": 33,
          "name": "A1",
          "velocity": 0.9606299212598425,
          "duration": 0.18437500000000284,
          "ticks": 40680,
          "durationTicks": 59
        },
        {
          "time": 127.5,
          "midi": 50,
          "name": "D3",
          "velocity": 0.9606299212598425,
          "duration": 0.37187500000000284,
          "ticks": 40800,
          "durationTicks": 119
        },
        {
          "time": 128.0625,
          "midi": 38,
          "name": "D2",
          "velocity": 0.9606299212598425,
          "duration": 0.18437499999998863,
          "ticks": 40980,
          "durationTicks": 59
        },
        {
          "time": 128.25,
          "midi": 50,
          "name": "D3",
          "velocity": 0.9606299212598425,
          "duration": 0.37187499999998863,
          "ticks": 41040,
          "durationTicks": 119
        },
        {
          "time": 128.8125,
          "midi": 38,
          "name": "D2",
          "velocity": 0.9606299212598425,
          "duration": 0.18437499999998863,
          "ticks": 41220,
          "durationTicks": 59
        },
        {
          "time": 129,
          "midi": 45,
          "name": "A2",
          "velocity": 1,
          "duration": 0.37187499999998863,
          "ticks": 41280,
          "durationTicks": 119
        },
        {
          "time": 129.5625,
          "midi": 33,
          "name": "A1",
          "velocity": 1,
          "duration": 0.18437499999998863,
          "ticks": 41460,
          "durationTicks": 59
        },
        {
          "time": 129.75,
          "midi": 45,
          "name": "A2",
          "velocity": 1,
          "duration": 0.37187499999998863,
          "ticks": 41520,
          "durationTicks": 119
        },
        {
          "time": 130.3125,
          "midi": 33,
          "name": "A1",
          "velocity": 0.9763779527559056,
          "duration": 0.18437499999998863,
          "ticks": 41700,
          "durationTicks": 59
        },
        {
          "time": 130.5,
          "midi": 38,
          "name": "D2",
          "velocity": 1,
          "duration": 0.37187499999998863,
          "ticks": 41760,
          "durationTicks": 119
        },
        {
          "time": 131.625,
          "midi": 38,
          "name": "D2",
          "velocity": 1,
          "duration": 0.37187499999998863,
          "ticks": 42120,
          "durationTicks": 119
        },
        {
          "time": 132,
          "midi": 33,
          "name": "A1",
          "velocity": 1,
          "duration": 0.37187499999998863,
          "ticks": 42240,
          "durationTicks": 119
        },
        {
          "time": 132.75,
          "midi": 38,
          "name": "D2",
          "velocity": 1,
          "duration": 0.37187499999998863,
          "ticks": 42480,
          "durationTicks": 119
        },
        {
          "time": 133.5,
          "midi": 33,
          "name": "A1",
          "velocity": 1,
          "duration": 0.37187499999998863,
          "ticks": 42720,
          "durationTicks": 119
        },
        {
          "time": 134.0625,
          "midi": 33,
          "name": "A1",
          "velocity": 1,
          "duration": 0.18437499999998863,
          "ticks": 42900,
          "durationTicks": 59
        },
        {
          "time": 134.25,
          "midi": 45,
          "name": "A2",
          "velocity": 1,
          "duration": 0.37187499999998863,
          "ticks": 42960,
          "durationTicks": 119
        },
        {
          "time": 134.625,
          "midi": 38,
          "name": "D2",
          "velocity": 1,
          "duration": 0.37187499999998863,
          "ticks": 43080,
          "durationTicks": 119
        },
        {
          "time": 135,
          "midi": 33,
          "name": "A1",
          "velocity": 1,
          "duration": 0.37187499999998863,
          "ticks": 43200,
          "durationTicks": 119
        },
        {
          "time": 135.5625,
          "midi": 33,
          "name": "A1",
          "velocity": 1,
          "duration": 0.18437499999998863,
          "ticks": 43380,
          "durationTicks": 59
        },
        {
          "time": 135.75,
          "midi": 45,
          "name": "A2",
          "velocity": 1,
          "duration": 0.37187499999998863,
          "ticks": 43440,
          "durationTicks": 119
        },
        {
          "time": 136.125,
          "midi": 38,
          "name": "D2",
          "velocity": 1,
          "duration": 0.37187499999998863,
          "ticks": 43560,
          "durationTicks": 119
        },
        {
          "time": 136.5,
          "midi": 33,
          "name": "A1",
          "velocity": 1,
          "duration": 0.37187499999998863,
          "ticks": 43680,
          "durationTicks": 119
        },
        {
          "time": 137.0625,
          "midi": 45,
          "name": "A2",
          "velocity": 1,
          "duration": 0.18437499999998863,
          "ticks": 43860,
          "durationTicks": 59
        },
        {
          "time": 137.25,
          "midi": 46,
          "name": "A#2",
          "velocity": 1,
          "duration": 0.18437499999998863,
          "ticks": 43920,
          "durationTicks": 59
        },
        {
          "time": 137.625,
          "midi": 42,
          "name": "F#2",
          "velocity": 1,
          "duration": 0.18437499999998863,
          "ticks": 44040,
          "durationTicks": 59
        },
        {
          "time": 138,
          "midi": 47,
          "name": "B2",
          "velocity": 1,
          "duration": 0.18437499999998863,
          "ticks": 44160,
          "durationTicks": 59
        },
        {
          "time": 138.375,
          "midi": 40,
          "name": "E2",
          "velocity": 1,
          "duration": 0.18437499999998863,
          "ticks": 44280,
          "durationTicks": 59
        },
        {
          "time": 138.75,
          "midi": 45,
          "name": "A2",
          "velocity": 1,
          "duration": 0.18437499999998863,
          "ticks": 44400,
          "durationTicks": 59
        },
        {
          "time": 139.125,
          "midi": 33,
          "name": "A1",
          "velocity": 1,
          "duration": 0.18437499999998863,
          "ticks": 44520,
          "durationTicks": 59
        },
        {
          "time": 139.5,
          "midi": 50,
          "name": "D3",
          "velocity": 1,
          "duration": 0.37187499999998863,
          "ticks": 44640,
          "durationTicks": 119
        },
        {
          "time": 140.0625,
          "midi": 38,
          "name": "D2",
          "velocity": 1,
          "duration": 0.18437499999998863,
          "ticks": 44820,
          "durationTicks": 59
        },
        {
          "time": 140.25,
          "midi": 50,
          "name": "D3",
          "velocity": 1,
          "duration": 0.37187499999998863,
          "ticks": 44880,
          "durationTicks": 119
        },
        {
          "time": 140.8125,
          "midi": 38,
          "name": "D2",
          "velocity": 1,
          "duration": 0.18437499999998863,
          "ticks": 45060,
          "durationTicks": 59
        },
        {
          "time": 141,
          "midi": 45,
          "name": "A2",
          "velocity": 1,
          "duration": 0.37187499999998863,
          "ticks": 45120,
          "durationTicks": 119
        },
        {
          "time": 141.5625,
          "midi": 33,
          "name": "A1",
          "velocity": 1,
          "duration": 0.18437499999998863,
          "ticks": 45300,
          "durationTicks": 59
        },
        {
          "time": 141.75,
          "midi": 45,
          "name": "A2",
          "velocity": 1,
          "duration": 0.37187499999998863,
          "ticks": 45360,
          "durationTicks": 119
        },
        {
          "time": 142.3125,
          "midi": 33,
          "name": "A1",
          "velocity": 1,
          "duration": 0.18437499999998863,
          "ticks": 45540,
          "durationTicks": 59
        },
        {
          "time": 142.5,
          "midi": 38,
          "name": "D2",
          "velocity": 1,
          "duration": 0.37187499999998863,
          "ticks": 45600,
          "durationTicks": 119
        },
        {
          "time": 143.625,
          "midi": 38,
          "name": "D2",
          "velocity": 1,
          "duration": 0.37187499999998863,
          "ticks": 45960,
          "durationTicks": 119
        },
        {
          "time": 144,
          "midi": 33,
          "name": "A1",
          "velocity": 1,
          "duration": 0.37187499999998863,
          "ticks": 46080,
          "durationTicks": 119
        },
        {
          "time": 144.75,
          "midi": 38,
          "name": "D2",
          "velocity": 1,
          "duration": 0.37187499999998863,
          "ticks": 46320,
          "durationTicks": 119
        },
        {
          "time": 145.3125,
          "midi": 38,
          "name": "D2",
          "velocity": 1,
          "duration": 0.18437499999998863,
          "ticks": 46500,
          "durationTicks": 59
        },
        {
          "time": 145.5,
          "midi": 50,
          "name": "D3",
          "velocity": 1,
          "duration": 0.37187499999998863,
          "ticks": 46560,
          "durationTicks": 119
        },
        {
          "time": 146.0625,
          "midi": 38,
          "name": "D2",
          "velocity": 0.937007874015748,
          "duration": 0.18437499999998863,
          "ticks": 46740,
          "durationTicks": 59
        },
        {
          "time": 146.25,
          "midi": 50,
          "name": "D3",
          "velocity": 1,
          "duration": 0.37187499999998863,
          "ticks": 46800,
          "durationTicks": 119
        },
        {
          "time": 146.8125,
          "midi": 38,
          "name": "D2",
          "velocity": 1,
          "duration": 0.18437499999998863,
          "ticks": 46980,
          "durationTicks": 59
        },
        {
          "time": 147,
          "midi": 43,
          "name": "G2",
          "velocity": 1,
          "duration": 0.37187499999998863,
          "ticks": 47040,
          "durationTicks": 119
        },
        {
          "time": 147.5625,
          "midi": 31,
          "name": "G1",
          "velocity": 0.937007874015748,
          "duration": 0.18437499999998863,
          "ticks": 47220,
          "durationTicks": 59
        },
        {
          "time": 147.75,
          "midi": 43,
          "name": "G2",
          "velocity": 1,
          "duration": 0.37187499999998863,
          "ticks": 47280,
          "durationTicks": 119
        },
        {
          "time": 148.3125,
          "midi": 31,
          "name": "G1",
          "velocity": 1,
          "duration": 0.18437499999998863,
          "ticks": 47460,
          "durationTicks": 59
        },
        {
          "time": 148.5,
          "midi": 55,
          "name": "G3",
          "velocity": 1,
          "duration": 0.37187499999998863,
          "ticks": 47520,
          "durationTicks": 119
        },
        {
          "time": 149.0625,
          "midi": 43,
          "name": "G2",
          "velocity": 0.937007874015748,
          "duration": 0.18437499999998863,
          "ticks": 47700,
          "durationTicks": 59
        },
        {
          "time": 149.25,
          "midi": 57,
          "name": "A3",
          "velocity": 1,
          "duration": 0.37187499999998863,
          "ticks": 47760,
          "durationTicks": 119
        },
        {
          "time": 149.8125,
          "midi": 45,
          "name": "A2",
          "velocity": 1,
          "duration": 0.18437499999998863,
          "ticks": 47940,
          "durationTicks": 59
        },
        {
          "time": 150,
          "midi": 50,
          "name": "D3",
          "velocity": 1,
          "duration": 0.37187499999998863,
          "ticks": 48000,
          "durationTicks": 119
        },
        {
          "time": 150.5625,
          "midi": 38,
          "name": "D2",
          "velocity": 0.937007874015748,
          "duration": 0.18437499999998863,
          "ticks": 48180,
          "durationTicks": 59
        },
        {
          "time": 150.75,
          "midi": 54,
          "name": "F#3",
          "velocity": 1,
          "duration": 0.37187499999998863,
          "ticks": 48240,
          "durationTicks": 119
        },
        {
          "time": 151.3125,
          "midi": 42,
          "name": "F#2",
          "velocity": 1,
          "duration": 0.18437499999998863,
          "ticks": 48420,
          "durationTicks": 59
        },
        {
          "time": 151.5,
          "midi": 55,
          "name": "G3",
          "velocity": 1,
          "duration": 0.37187499999998863,
          "ticks": 48480,
          "durationTicks": 119
        },
        {
          "time": 152.0625,
          "midi": 43,
          "name": "G2",
          "velocity": 0.937007874015748,
          "duration": 0.18437499999998863,
          "ticks": 48660,
          "durationTicks": 59
        },
        {
          "time": 152.25,
          "midi": 57,
          "name": "A3",
          "velocity": 1,
          "duration": 0.37187499999998863,
          "ticks": 48720,
          "durationTicks": 119
        },
        {
          "time": 152.8125,
          "midi": 45,
          "name": "A2",
          "velocity": 1,
          "duration": 0.18437499999998863,
          "ticks": 48900,
          "durationTicks": 59
        },
        {
          "time": 153,
          "midi": 46,
          "name": "A#2",
          "velocity": 1,
          "duration": 0.37187499999998863,
          "ticks": 48960,
          "durationTicks": 119
        },
        {
          "time": 153.5625,
          "midi": 34,
          "name": "A#1",
          "velocity": 0.937007874015748,
          "duration": 0.18437499999998863,
          "ticks": 49140,
          "durationTicks": 59
        },
        {
          "time": 153.75,
          "midi": 47,
          "name": "B2",
          "velocity": 1,
          "duration": 0.37187499999998863,
          "ticks": 49200,
          "durationTicks": 119
        },
        {
          "time": 154.3125,
          "midi": 35,
          "name": "B1",
          "velocity": 1,
          "duration": 0.18437499999998863,
          "ticks": 49380,
          "durationTicks": 59
        },
        {
          "time": 154.5,
          "midi": 48,
          "name": "C3",
          "velocity": 1,
          "duration": 0.37187499999998863,
          "ticks": 49440,
          "durationTicks": 119
        },
        {
          "time": 155.0625,
          "midi": 36,
          "name": "C2",
          "velocity": 0.937007874015748,
          "duration": 0.18437499999998863,
          "ticks": 49620,
          "durationTicks": 59
        },
        {
          "time": 155.25,
          "midi": 49,
          "name": "C#3",
          "velocity": 1,
          "duration": 0.37187499999998863,
          "ticks": 49680,
          "durationTicks": 119
        },
        {
          "time": 155.8125,
          "midi": 37,
          "name": "C#2",
          "velocity": 1,
          "duration": 0.18437499999998863,
          "ticks": 49860,
          "durationTicks": 59
        },
        {
          "time": 156,
          "midi": 49,
          "name": "C#3",
          "velocity": 1,
          "duration": 0.37187499999998863,
          "ticks": 49920,
          "durationTicks": 119
        },
        {
          "time": 156.5625,
          "midi": 37,
          "name": "C#2",
          "velocity": 0.937007874015748,
          "duration": 0.18437499999998863,
          "ticks": 50100,
          "durationTicks": 59
        },
        {
          "time": 156.75,
          "midi": 50,
          "name": "D3",
          "velocity": 1,
          "duration": 0.37187499999998863,
          "ticks": 50160,
          "durationTicks": 119
        },
        {
          "time": 157.3125,
          "midi": 51,
          "name": "D#3",
          "velocity": 1,
          "duration": 0.18437499999998863,
          "ticks": 50340,
          "durationTicks": 59
        },
        {
          "time": 157.5,
          "midi": 52,
          "name": "E3",
          "velocity": 0.905511811023622,
          "duration": 0.37187499999998863,
          "ticks": 50400,
          "durationTicks": 119
        },
        {
          "time": 158.0625,
          "midi": 53,
          "name": "F3",
          "velocity": 1,
          "duration": 0.18437499999998863,
          "ticks": 50580,
          "durationTicks": 59
        },
        {
          "time": 158.25,
          "midi": 54,
          "name": "F#3",
          "velocity": 1,
          "duration": 0.37187499999998863,
          "ticks": 50640,
          "durationTicks": 119
        },
        {
          "time": 158.8125,
          "midi": 54,
          "name": "F#3",
          "velocity": 1,
          "duration": 0.18437499999998863,
          "ticks": 50820,
          "durationTicks": 59
        },
        {
          "time": 159,
          "midi": 56,
          "name": "G#3",
          "velocity": 1,
          "duration": 0.37187499999998863,
          "ticks": 50880,
          "durationTicks": 119
        },
        {
          "time": 159.5625,
          "midi": 44,
          "name": "G#2",
          "velocity": 1,
          "duration": 0.18437499999998863,
          "ticks": 51060,
          "durationTicks": 59
        },
        {
          "time": 159.75,
          "midi": 56,
          "name": "G#3",
          "velocity": 1,
          "duration": 0.37187499999998863,
          "ticks": 51120,
          "durationTicks": 119
        },
        {
          "time": 160.3125,
          "midi": 44,
          "name": "G#2",
          "velocity": 1,
          "duration": 0.18437499999998863,
          "ticks": 51300,
          "durationTicks": 59
        },
        {
          "time": 160.5,
          "midi": 56,
          "name": "G#3",
          "velocity": 1,
          "duration": 0.37187499999998863,
          "ticks": 51360,
          "durationTicks": 119
        },
        {
          "time": 161.0625,
          "midi": 44,
          "name": "G#2",
          "velocity": 1,
          "duration": 0.18437499999998863,
          "ticks": 51540,
          "durationTicks": 59
        },
        {
          "time": 161.25,
          "midi": 56,
          "name": "G#3",
          "velocity": 1,
          "duration": 0.37187499999998863,
          "ticks": 51600,
          "durationTicks": 119
        },
        {
          "time": 161.8125,
          "midi": 44,
          "name": "G#2",
          "velocity": 1,
          "duration": 0.18437499999998863,
          "ticks": 51780,
          "durationTicks": 59
        },
        {
          "time": 162,
          "midi": 45,
          "name": "A2",
          "velocity": 1,
          "duration": 0.5625,
          "ticks": 51840,
          "durationTicks": 180
        },
        {
          "time": 162.5625,
          "midi": 47,
          "name": "B2",
          "velocity": 1,
          "duration": 0.09062499999998863,
          "ticks": 52020,
          "durationTicks": 29
        },
        {
          "time": 162.65625,
          "midi": 49,
          "name": "C#3",
          "velocity": 1,
          "duration": 0.09062499999998863,
          "ticks": 52050,
          "durationTicks": 29
        },
        {
          "time": 162.75,
          "midi": 50,
          "name": "D3",
          "velocity": 1,
          "duration": 0.5625,
          "ticks": 52080,
          "durationTicks": 180
        },
        {
          "time": 163.3125,
          "midi": 49,
          "name": "C#3",
          "velocity": 1,
          "duration": 0.09062499999998863,
          "ticks": 52260,
          "durationTicks": 29
        },
        {
          "time": 163.40625,
          "midi": 47,
          "name": "B2",
          "velocity": 1,
          "duration": 0.09062499999998863,
          "ticks": 52290,
          "durationTicks": 29
        },
        {
          "time": 163.5,
          "midi": 49,
          "name": "C#3",
          "velocity": 1,
          "duration": 0.18437499999998863,
          "ticks": 52320,
          "durationTicks": 59
        },
        {
          "time": 163.6875,
          "midi": 47,
          "name": "B2",
          "velocity": 1,
          "duration": 0.04374999999998863,
          "ticks": 52380,
          "durationTicks": 14
        },
        {
          "time": 163.78125,
          "midi": 45,
          "name": "A2",
          "velocity": 1,
          "duration": 0.09062499999998863,
          "ticks": 52410,
          "durationTicks": 29
        },
        {
          "time": 163.875,
          "midi": 43,
          "name": "G2",
          "velocity": 1,
          "duration": 0.09062499999998863,
          "ticks": 52440,
          "durationTicks": 29
        },
        {
          "time": 164.0625,
          "midi": 42,
          "name": "F#2",
          "velocity": 1,
          "duration": 0.09062499999998863,
          "ticks": 52500,
          "durationTicks": 29
        },
        {
          "time": 164.25,
          "midi": 42,
          "name": "F#2",
          "velocity": 1,
          "duration": 0.09062499999998863,
          "ticks": 52560,
          "durationTicks": 29
        },
        {
          "time": 164.4375,
          "midi": 41,
          "name": "F2",
          "velocity": 1,
          "duration": 0.09062499999998863,
          "ticks": 52620,
          "durationTicks": 29
        },
        {
          "time": 164.625,
          "midi": 40,
          "name": "E2",
          "velocity": 1,
          "duration": 0.09062499999998863,
          "ticks": 52680,
          "durationTicks": 29
        },
        {
          "time": 164.8125,
          "midi": 40,
          "name": "E2",
          "velocity": 1,
          "duration": 0.09062499999998863,
          "ticks": 52740,
          "durationTicks": 29
        },
        {
          "time": 165,
          "midi": 45,
          "name": "A2",
          "velocity": 1,
          "duration": 0.7468749999999886,
          "ticks": 52800,
          "durationTicks": 239
        },
        {
          "time": 165.75,
          "midi": 40,
          "name": "E2",
          "velocity": 1,
          "duration": 0.18437499999998863,
          "ticks": 53040,
          "durationTicks": 59
        },
        {
          "time": 166.125,
          "midi": 40,
          "name": "E2",
          "velocity": 1,
          "duration": 0.18437499999998863,
          "ticks": 53160,
          "durationTicks": 59
        },
        {
          "time": 166.5,
          "midi": 33,
          "name": "A1",
          "velocity": 1,
          "duration": 0.09062499999998863,
          "ticks": 53280,
          "durationTicks": 29
        },
        {
          "time": 166.6875,
          "midi": 33,
          "name": "A1",
          "velocity": 1,
          "duration": 0.09062499999998863,
          "ticks": 53340,
          "durationTicks": 29
        },
        {
          "time": 166.78125,
          "midi": 35,
          "name": "B1",
          "velocity": 1,
          "duration": 0.09062499999998863,
          "ticks": 53370,
          "durationTicks": 29
        },
        {
          "time": 166.875,
          "midi": 37,
          "name": "C#2",
          "velocity": 1,
          "duration": 0.09062499999998863,
          "ticks": 53400,
          "durationTicks": 29
        },
        {
          "time": 167.0625,
          "midi": 37,
          "name": "C#2",
          "velocity": 1,
          "duration": 0.09062499999998863,
          "ticks": 53460,
          "durationTicks": 29
        },
        {
          "time": 167.15625,
          "midi": 38,
          "name": "D2",
          "velocity": 1,
          "duration": 0.09062499999998863,
          "ticks": 53490,
          "durationTicks": 29
        },
        {
          "time": 167.25,
          "midi": 40,
          "name": "E2",
          "velocity": 1,
          "duration": 0.09062499999998863,
          "ticks": 53520,
          "durationTicks": 29
        },
        {
          "time": 167.4375,
          "midi": 40,
          "name": "E2",
          "velocity": 1,
          "duration": 0.09062499999998863,
          "ticks": 53580,
          "durationTicks": 29
        },
        {
          "time": 167.53125,
          "midi": 42,
          "name": "F#2",
          "velocity": 1,
          "duration": 0.09062499999998863,
          "ticks": 53610,
          "durationTicks": 29
        },
        {
          "time": 167.625,
          "midi": 44,
          "name": "G#2",
          "velocity": 1,
          "duration": 0.09062499999998863,
          "ticks": 53640,
          "durationTicks": 29
        },
        {
          "time": 167.8125,
          "midi": 40,
          "name": "E2",
          "velocity": 1,
          "duration": 0.05937500000001705,
          "ticks": 53700,
          "durationTicks": 19
        },
        {
          "time": 167.875,
          "midi": 42,
          "name": "F#2",
          "velocity": 1,
          "duration": 0.05937499999998863,
          "ticks": 53720,
          "durationTicks": 19
        },
        {
          "time": 167.9375,
          "midi": 44,
          "name": "G#2",
          "velocity": 1,
          "duration": 0.05937499999998863,
          "ticks": 53740,
          "durationTicks": 19
        },
        {
          "time": 176.25,
          "midi": 44,
          "name": "G#2",
          "velocity": 1,
          "duration": 0.3687500000000057,
          "ticks": 55080,
          "durationTicks": 59
        },
        {
          "time": 176.625,
          "midi": 44,
          "name": "G#2",
          "velocity": 1,
          "duration": 0.3687500000000057,
          "ticks": 55140,
          "durationTicks": 59
        },
        {
          "time": 177,
          "midi": 45,
          "name": "A2",
          "velocity": 0.7795275590551181,
          "duration": 0.18437499999998863,
          "ticks": 55200,
          "durationTicks": 59
        },
        {
          "time": 177.1875,
          "midi": 49,
          "name": "C#3",
          "velocity": 1,
          "duration": 0.18437499999998863,
          "ticks": 55260,
          "durationTicks": 59
        },
        {
          "time": 177.375,
          "midi": 54,
          "name": "F#3",
          "velocity": 1,
          "duration": 0.09062499999998863,
          "ticks": 55320,
          "durationTicks": 29
        },
        {
          "time": 177.5625,
          "midi": 51,
          "name": "D#3",
          "velocity": 1,
          "duration": 0.09062499999998863,
          "ticks": 55380,
          "durationTicks": 29
        },
        {
          "time": 177.75,
          "midi": 52,
          "name": "E3",
          "velocity": 1,
          "duration": 0.37187499999998863,
          "ticks": 55440,
          "durationTicks": 119
        },
        {
          "time": 178.125,
          "midi": 40,
          "name": "E2",
          "velocity": 1,
          "duration": 0.37187499999998863,
          "ticks": 55560,
          "durationTicks": 119
        },
        {
          "time": 178.875,
          "midi": 40,
          "name": "E2",
          "velocity": 1,
          "duration": 0.18437499999998863,
          "ticks": 55800,
          "durationTicks": 59
        },
        {
          "time": 179.625,
          "midi": 45,
          "name": "A2",
          "velocity": 1,
          "duration": 0.18437499999998863,
          "ticks": 56040,
          "durationTicks": 59
        },
        {
          "time": 180.75,
          "midi": 29,
          "name": "F1",
          "velocity": 1,
          "duration": 0.9375,
          "ticks": 56400,
          "durationTicks": 300
        },
        {
          "time": 181.6875,
          "midi": 45,
          "name": "A2",
          "velocity": 1,
          "duration": 0.09062499999998863,
          "ticks": 56700,
          "durationTicks": 29
        },
        {
          "time": 181.875,
          "midi": 45,
          "name": "A2",
          "velocity": 1,
          "duration": 0.09062499999998863,
          "ticks": 56760,
          "durationTicks": 29
        },
        {
          "time": 182.0625,
          "midi": 50,
          "name": "D3",
          "velocity": 1,
          "duration": 0.09062499999998863,
          "ticks": 56820,
          "durationTicks": 29
        },
        {
          "time": 182.25,
          "midi": 50,
          "name": "D3",
          "velocity": 1,
          "duration": 0.09062499999998863,
          "ticks": 56880,
          "durationTicks": 29
        },
        {
          "time": 182.4375,
          "midi": 41,
          "name": "F2",
          "velocity": 1,
          "duration": 0.09062499999998863,
          "ticks": 56940,
          "durationTicks": 29
        },
        {
          "time": 182.625,
          "midi": 41,
          "name": "F2",
          "velocity": 1,
          "duration": 0.09062499999998863,
          "ticks": 57000,
          "durationTicks": 29
        },
        {
          "time": 182.8125,
          "midi": 45,
          "name": "A2",
          "velocity": 1,
          "duration": 0.09062499999998863,
          "ticks": 57060,
          "durationTicks": 29
        },
        {
          "time": 183,
          "midi": 45,
          "name": "A2",
          "velocity": 1,
          "duration": 0.09062499999998863,
          "ticks": 57120,
          "durationTicks": 29
        },
        {
          "time": 183.1875,
          "midi": 38,
          "name": "D2",
          "velocity": 1,
          "duration": 0.09062499999998863,
          "ticks": 57180,
          "durationTicks": 29
        },
        {
          "time": 183.375,
          "midi": 38,
          "name": "D2",
          "velocity": 1,
          "duration": 0.18437499999998863,
          "ticks": 57240,
          "durationTicks": 59
        },
        {
          "time": 183.5625,
          "midi": 53,
          "name": "F3",
          "velocity": 1,
          "duration": 0.18437499999998863,
          "ticks": 57300,
          "durationTicks": 59
        },
        {
          "time": 183.75,
          "midi": 53,
          "name": "F3",
          "velocity": 1,
          "duration": 0.18437499999998863,
          "ticks": 57360,
          "durationTicks": 59
        },
        {
          "time": 183.9375,
          "midi": 45,
          "name": "A2",
          "velocity": 1,
          "duration": 0.18437499999998863,
          "ticks": 57420,
          "durationTicks": 59
        },
        {
          "time": 184.125,
          "midi": 45,
          "name": "A2",
          "velocity": 1,
          "duration": 0.18437499999998863,
          "ticks": 57480,
          "durationTicks": 59
        },
        {
          "time": 184.3125,
          "midi": 50,
          "name": "D3",
          "velocity": 1,
          "duration": 0.18437499999998863,
          "ticks": 57540,
          "durationTicks": 59
        },
        {
          "time": 184.5,
          "midi": 50,
          "name": "D3",
          "velocity": 1,
          "duration": 0.18437499999998863,
          "ticks": 57600,
          "durationTicks": 59
        },
        {
          "time": 184.6875,
          "midi": 41,
          "name": "F2",
          "velocity": 1,
          "duration": 0.18437499999998863,
          "ticks": 57660,
          "durationTicks": 59
        },
        {
          "time": 184.875,
          "midi": 41,
          "name": "F2",
          "velocity": 1,
          "duration": 0.18437499999998863,
          "ticks": 57720,
          "durationTicks": 59
        },
        {
          "time": 185.0625,
          "midi": 45,
          "name": "A2",
          "velocity": 1,
          "duration": 0.18437499999998863,
          "ticks": 57780,
          "durationTicks": 59
        },
        {
          "time": 185.25,
          "midi": 45,
          "name": "A2",
          "velocity": 1,
          "duration": 0.18437499999998863,
          "ticks": 57840,
          "durationTicks": 59
        },
        {
          "time": 185.4375,
          "midi": 38,
          "name": "D2",
          "velocity": 1,
          "duration": 0.18437499999998863,
          "ticks": 57900,
          "durationTicks": 59
        },
        {
          "time": 185.625,
          "midi": 38,
          "name": "D2",
          "velocity": 1,
          "duration": 0.18437499999998863,
          "ticks": 57960,
          "durationTicks": 59
        },
        {
          "time": 185.8125,
          "midi": 50,
          "name": "D3",
          "velocity": 1,
          "duration": 0.18437499999998863,
          "ticks": 58020,
          "durationTicks": 59
        },
        {
          "time": 186,
          "midi": 50,
          "name": "D3",
          "velocity": 1,
          "duration": 0.18437499999998863,
          "ticks": 58080,
          "durationTicks": 59
        },
        {
          "time": 186.1875,
          "midi": 48,
          "name": "C3",
          "velocity": 1,
          "duration": 0.18437499999998863,
          "ticks": 58140,
          "durationTicks": 59
        },
        {
          "time": 186.375,
          "midi": 48,
          "name": "C3",
          "velocity": 1,
          "duration": 0.18437499999998863,
          "ticks": 58200,
          "durationTicks": 59
        },
        {
          "time": 186.5625,
          "midi": 47,
          "name": "B2",
          "velocity": 1,
          "duration": 0.18437499999998863,
          "ticks": 58260,
          "durationTicks": 59
        },
        {
          "time": 186.75,
          "midi": 47,
          "name": "B2",
          "velocity": 1,
          "duration": 0.18437499999998863,
          "ticks": 58320,
          "durationTicks": 59
        },
        {
          "time": 186.9375,
          "midi": 46,
          "name": "A#2",
          "velocity": 1,
          "duration": 0.18437499999998863,
          "ticks": 58380,
          "durationTicks": 59
        },
        {
          "time": 187.125,
          "midi": 46,
          "name": "A#2",
          "velocity": 1,
          "duration": 0.18437499999998863,
          "ticks": 58440,
          "durationTicks": 59
        },
        {
          "time": 187.3125,
          "midi": 34,
          "name": "A#1",
          "velocity": 1,
          "duration": 0.18437499999998863,
          "ticks": 58500,
          "durationTicks": 59
        },
        {
          "time": 187.5,
          "midi": 34,
          "name": "A#1",
          "velocity": 1,
          "duration": 0.18437499999998863,
          "ticks": 58560,
          "durationTicks": 59
        },
        {
          "time": 187.6875,
          "midi": 34,
          "name": "A#1",
          "velocity": 1,
          "duration": 0.18437499999998863,
          "ticks": 58620,
          "durationTicks": 59
        },
        {
          "time": 187.875,
          "midi": 34,
          "name": "A#1",
          "velocity": 1,
          "duration": 0.18437499999998863,
          "ticks": 58680,
          "durationTicks": 59
        },
        {
          "time": 188.25,
          "midi": 33,
          "name": "A1",
          "velocity": 1,
          "duration": 0.18437499999998863,
          "ticks": 58800,
          "durationTicks": 59
        },
        {
          "time": 195.857136,
          "midi": 50,
          "name": "D3",
          "velocity": 0.7716535433070866,
          "duration": 0.4249995750000153,
          "ticks": 60960,
          "durationTicks": 119
        },
        {
          "time": 196.285707,
          "midi": 48,
          "name": "C3",
          "velocity": 0.7716535433070866,
          "duration": 0.853570574999992,
          "ticks": 61080,
          "durationTicks": 239
        },
        {
          "time": 197.142849,
          "midi": 47,
          "name": "B2",
          "velocity": 0.7874015748031497,
          "duration": 0.853570574999992,
          "ticks": 61320,
          "durationTicks": 239
        },
        {
          "time": 197.57142,
          "midi": 41,
          "name": "F2",
          "velocity": 0.7874015748031497,
          "duration": 0.8535705750000204,
          "ticks": 61440,
          "durationTicks": 239
        },
        {
          "time": 198.428562,
          "midi": 40,
          "name": "E2",
          "velocity": 0.7874015748031497,
          "duration": 7.285707000000002,
          "ticks": 61680,
          "durationTicks": 2040
        },
        {
          "time": 206.571411,
          "midi": 43,
          "name": "G2",
          "velocity": 1,
          "duration": 0.2107140749999985,
          "ticks": 63960,
          "durationTicks": 59
        },
        {
          "time": 206.999982,
          "midi": 42,
          "name": "F#2",
          "velocity": 1,
          "duration": 0.2107140749999985,
          "ticks": 64080,
          "durationTicks": 59
        },
        {
          "time": 207.2142675,
          "midi": 42,
          "name": "F#2",
          "velocity": 1,
          "duration": 0.2107140749999985,
          "ticks": 64140,
          "durationTicks": 59
        },
        {
          "time": 207.428553,
          "midi": 54,
          "name": "F#3",
          "velocity": 1,
          "duration": 0.4249995750000153,
          "ticks": 64200,
          "durationTicks": 119
        },
        {
          "time": 212.892834,
          "midi": 43,
          "name": "G2",
          "velocity": 0.8818897637795275,
          "duration": 0.3687500000000057,
          "ticks": 65640,
          "durationTicks": 59
        },
        {
          "time": 213.642834,
          "midi": 55,
          "name": "G3",
          "velocity": 1,
          "duration": 0.3687500000000057,
          "ticks": 65760,
          "durationTicks": 59
        },
        {
          "time": 218.142834,
          "midi": 45,
          "name": "A2",
          "velocity": 1,
          "duration": 0.3687500000000057,
          "ticks": 66480,
          "durationTicks": 59
        },
        {
          "time": 221.142834,
          "midi": 33,
          "name": "A1",
          "velocity": 1,
          "duration": 0.37187499999998863,
          "ticks": 67320,
          "durationTicks": 119
        },
        {
          "time": 221.517834,
          "midi": 33,
          "name": "A1",
          "velocity": 1,
          "duration": 0.37187499999998863,
          "ticks": 67440,
          "durationTicks": 119
        },
        {
          "time": 224.142834,
          "midi": 33,
          "name": "A1",
          "velocity": 1,
          "duration": 0.37187499999998863,
          "ticks": 68280,
          "durationTicks": 119
        },
        {
          "time": 224.517834,
          "midi": 33,
          "name": "A1",
          "velocity": 1,
          "duration": 0.37187499999998863,
          "ticks": 68400,
          "durationTicks": 119
        },
        {
          "time": 224.892834,
          "midi": 42,
          "name": "F#2",
          "velocity": 1,
          "duration": 0.37187499999998863,
          "ticks": 68520,
          "durationTicks": 119
        },
        {
          "time": 225.267834,
          "midi": 42,
          "name": "F#2",
          "velocity": 0.905511811023622,
          "duration": 0.37187499999998863,
          "ticks": 68640,
          "durationTicks": 119
        },
        {
          "time": 225.642834,
          "midi": 43,
          "name": "G2",
          "velocity": 0.6771653543307087,
          "duration": 0.37187499999998863,
          "ticks": 68760,
          "durationTicks": 119
        },
        {
          "time": 226.017834,
          "midi": 45,
          "name": "A2",
          "velocity": 0.8031496062992126,
          "duration": 0.37187499999998863,
          "ticks": 68880,
          "durationTicks": 119
        },
        {
          "time": 226.392834,
          "midi": 45,
          "name": "A2",
          "velocity": 0.8267716535433071,
          "duration": 0.37187499999998863,
          "ticks": 69000,
          "durationTicks": 119
        },
        {
          "time": 226.767834,
          "midi": 43,
          "name": "G2",
          "velocity": 0.6771653543307087,
          "duration": 0.37187499999998863,
          "ticks": 69120,
          "durationTicks": 119
        },
        {
          "time": 227.142834,
          "midi": 42,
          "name": "F#2",
          "velocity": 0.8818897637795275,
          "duration": 0.37187499999998863,
          "ticks": 69240,
          "durationTicks": 119
        },
        {
          "time": 227.517834,
          "midi": 40,
          "name": "E2",
          "velocity": 0.7795275590551181,
          "duration": 0.37187499999998863,
          "ticks": 69360,
          "durationTicks": 119
        },
        {
          "time": 227.892834,
          "midi": 38,
          "name": "D2",
          "velocity": 0.7086614173228346,
          "duration": 0.37187499999998863,
          "ticks": 69480,
          "durationTicks": 119
        },
        {
          "time": 228.267834,
          "midi": 38,
          "name": "D2",
          "velocity": 0.7637795275590551,
          "duration": 0.37187499999998863,
          "ticks": 69600,
          "durationTicks": 119
        },
        {
          "time": 228.642834,
          "midi": 40,
          "name": "E2",
          "velocity": 0.905511811023622,
          "duration": 0.37187499999998863,
          "ticks": 69720,
          "durationTicks": 119
        },
        {
          "time": 229.017834,
          "midi": 42,
          "name": "F#2",
          "velocity": 0.8267716535433071,
          "duration": 0.37187499999998863,
          "ticks": 69840,
          "durationTicks": 119
        },
        {
          "time": 229.392834,
          "midi": 42,
          "name": "F#2",
          "velocity": 0.905511811023622,
          "duration": 0.37187499999998863,
          "ticks": 69960,
          "durationTicks": 119
        },
        {
          "time": 230.142834,
          "midi": 40,
          "name": "E2",
          "velocity": 1,
          "duration": 0.37187499999998863,
          "ticks": 70200,
          "durationTicks": 119
        },
        {
          "time": 230.892834,
          "midi": 42,
          "name": "F#2",
          "velocity": 0.905511811023622,
          "duration": 0.37187499999998863,
          "ticks": 70440,
          "durationTicks": 119
        },
        {
          "time": 231.267834,
          "midi": 42,
          "name": "F#2",
          "velocity": 0.8503937007874016,
          "duration": 0.37187499999998863,
          "ticks": 70560,
          "durationTicks": 119
        },
        {
          "time": 231.642834,
          "midi": 43,
          "name": "G2",
          "velocity": 0.6535433070866141,
          "duration": 0.37187499999998863,
          "ticks": 70680,
          "durationTicks": 119
        },
        {
          "time": 232.017834,
          "midi": 45,
          "name": "A2",
          "velocity": 0.6141732283464567,
          "duration": 0.37187499999998863,
          "ticks": 70800,
          "durationTicks": 119
        },
        {
          "time": 232.392834,
          "midi": 45,
          "name": "A2",
          "velocity": 0.8503937007874016,
          "duration": 0.37187499999998863,
          "ticks": 70920,
          "durationTicks": 119
        },
        {
          "time": 232.767834,
          "midi": 43,
          "name": "G2",
          "velocity": 0.6929133858267716,
          "duration": 0.37187499999998863,
          "ticks": 71040,
          "durationTicks": 119
        },
        {
          "time": 233.142834,
          "midi": 42,
          "name": "F#2",
          "velocity": 0.8503937007874016,
          "duration": 0.37187499999998863,
          "ticks": 71160,
          "durationTicks": 119
        },
        {
          "time": 233.517834,
          "midi": 40,
          "name": "E2",
          "velocity": 1,
          "duration": 0.37187499999998863,
          "ticks": 71280,
          "durationTicks": 119
        },
        {
          "time": 233.892834,
          "midi": 38,
          "name": "D2",
          "velocity": 0.8031496062992126,
          "duration": 0.37187499999998863,
          "ticks": 71400,
          "durationTicks": 119
        },
        {
          "time": 234.267834,
          "midi": 38,
          "name": "D2",
          "velocity": 0.8031496062992126,
          "duration": 0.37187499999998863,
          "ticks": 71520,
          "durationTicks": 119
        },
        {
          "time": 234.642834,
          "midi": 40,
          "name": "E2",
          "velocity": 0.937007874015748,
          "duration": 0.37187499999998863,
          "ticks": 71640,
          "durationTicks": 119
        },
        {
          "time": 235.017834,
          "midi": 42,
          "name": "F#2",
          "velocity": 0.9763779527559056,
          "duration": 0.37187499999998863,
          "ticks": 71760,
          "durationTicks": 119
        },
        {
          "time": 235.392834,
          "midi": 40,
          "name": "E2",
          "velocity": 0.937007874015748,
          "duration": 0.37187499999998863,
          "ticks": 71880,
          "durationTicks": 119
        },
        {
          "time": 236.142834,
          "midi": 38,
          "name": "D2",
          "velocity": 0.8503937007874016,
          "duration": 0.37187499999998863,
          "ticks": 72120,
          "durationTicks": 119
        },
        {
          "time": 236.892834,
          "midi": 40,
          "name": "E2",
          "velocity": 1,
          "duration": 0.37187499999998863,
          "ticks": 72360,
          "durationTicks": 119
        },
        {
          "time": 237.267834,
          "midi": 40,
          "name": "E2",
          "velocity": 0.8818897637795275,
          "duration": 0.37187499999998863,
          "ticks": 72480,
          "durationTicks": 119
        },
        {
          "time": 237.642834,
          "midi": 42,
          "name": "F#2",
          "velocity": 0.905511811023622,
          "duration": 0.37187499999998863,
          "ticks": 72600,
          "durationTicks": 119
        },
        {
          "time": 238.017834,
          "midi": 38,
          "name": "D2",
          "velocity": 0.5905511811023622,
          "duration": 0.37187499999998863,
          "ticks": 72720,
          "durationTicks": 119
        },
        {
          "time": 238.392834,
          "midi": 40,
          "name": "E2",
          "velocity": 0.905511811023622,
          "duration": 0.37187499999998863,
          "ticks": 72840,
          "durationTicks": 119
        },
        {
          "time": 238.767834,
          "midi": 42,
          "name": "F#2",
          "velocity": 1,
          "duration": 0.18437499999998863,
          "ticks": 72960,
          "durationTicks": 59
        },
        {
          "time": 238.955334,
          "midi": 43,
          "name": "G2",
          "velocity": 1,
          "duration": 0.18437499999998863,
          "ticks": 73020,
          "durationTicks": 59
        },
        {
          "time": 239.142834,
          "midi": 42,
          "name": "F#2",
          "velocity": 1,
          "duration": 0.37187499999998863,
          "ticks": 73080,
          "durationTicks": 119
        },
        {
          "time": 239.517834,
          "midi": 38,
          "name": "D2",
          "velocity": 0.9763779527559056,
          "duration": 0.37187499999998863,
          "ticks": 73200,
          "durationTicks": 119
        },
        {
          "time": 239.892834,
          "midi": 40,
          "name": "E2",
          "velocity": 1,
          "duration": 0.37187499999998863,
          "ticks": 73320,
          "durationTicks": 119
        },
        {
          "time": 240.267834,
          "midi": 42,
          "name": "F#2",
          "velocity": 1,
          "duration": 0.18437499999998863,
          "ticks": 73440,
          "durationTicks": 59
        },
        {
          "time": 240.455334,
          "midi": 43,
          "name": "G2",
          "velocity": 1,
          "duration": 0.18437499999998863,
          "ticks": 73500,
          "durationTicks": 59
        },
        {
          "time": 240.642834,
          "midi": 42,
          "name": "F#2",
          "velocity": 1,
          "duration": 0.37187499999998863,
          "ticks": 73560,
          "durationTicks": 119
        },
        {
          "time": 241.017834,
          "midi": 40,
          "name": "E2",
          "velocity": 1,
          "duration": 0.37187499999998863,
          "ticks": 73680,
          "durationTicks": 119
        },
        {
          "time": 241.392834,
          "midi": 38,
          "name": "D2",
          "velocity": 1,
          "duration": 0.37187499999998863,
          "ticks": 73800,
          "durationTicks": 119
        },
        {
          "time": 241.767834,
          "midi": 40,
          "name": "E2",
          "velocity": 1,
          "duration": 0.37187499999998863,
          "ticks": 73920,
          "durationTicks": 119
        },
        {
          "time": 242.142834,
          "midi": 33,
          "name": "A1",
          "velocity": 1,
          "duration": 0.37187499999998863,
          "ticks": 74040,
          "durationTicks": 119
        },
        {
          "time": 242.517834,
          "midi": 42,
          "name": "F#2",
          "velocity": 1,
          "duration": 0.37187499999998863,
          "ticks": 74160,
          "durationTicks": 119
        },
        {
          "time": 242.892834,
          "midi": 42,
          "name": "F#2",
          "velocity": 1,
          "duration": 0.37187499999998863,
          "ticks": 74280,
          "durationTicks": 119
        },
        {
          "time": 243.267834,
          "midi": 42,
          "name": "F#2",
          "velocity": 1,
          "duration": 0.37187499999998863,
          "ticks": 74400,
          "durationTicks": 119
        },
        {
          "time": 243.642834,
          "midi": 43,
          "name": "G2",
          "velocity": 1,
          "duration": 0.37187499999998863,
          "ticks": 74520,
          "durationTicks": 119
        },
        {
          "time": 244.017834,
          "midi": 45,
          "name": "A2",
          "velocity": 1,
          "duration": 0.37187499999998863,
          "ticks": 74640,
          "durationTicks": 119
        },
        {
          "time": 244.392834,
          "midi": 45,
          "name": "A2",
          "velocity": 1,
          "duration": 0.37187499999998863,
          "ticks": 74760,
          "durationTicks": 119
        },
        {
          "time": 244.767834,
          "midi": 43,
          "name": "G2",
          "velocity": 1,
          "duration": 0.37187499999998863,
          "ticks": 74880,
          "durationTicks": 119
        },
        {
          "time": 245.142834,
          "midi": 42,
          "name": "F#2",
          "velocity": 0.937007874015748,
          "duration": 0.37187499999998863,
          "ticks": 75000,
          "durationTicks": 119
        },
        {
          "time": 245.517834,
          "midi": 40,
          "name": "E2",
          "velocity": 1,
          "duration": 0.37187499999998863,
          "ticks": 75120,
          "durationTicks": 119
        },
        {
          "time": 245.892834,
          "midi": 38,
          "name": "D2",
          "velocity": 0.7637795275590551,
          "duration": 0.37187499999998863,
          "ticks": 75240,
          "durationTicks": 119
        },
        {
          "time": 246.267834,
          "midi": 38,
          "name": "D2",
          "velocity": 0.7795275590551181,
          "duration": 0.37187499999998863,
          "ticks": 75360,
          "durationTicks": 119
        },
        {
          "time": 246.642834,
          "midi": 40,
          "name": "E2",
          "velocity": 1,
          "duration": 0.37187499999998863,
          "ticks": 75480,
          "durationTicks": 119
        },
        {
          "time": 247.017834,
          "midi": 42,
          "name": "F#2",
          "velocity": 1,
          "duration": 0.37187499999998863,
          "ticks": 75600,
          "durationTicks": 119
        },
        {
          "time": 247.392834,
          "midi": 40,
          "name": "E2",
          "velocity": 1,
          "duration": 0.37187499999998863,
          "ticks": 75720,
          "durationTicks": 119
        },
        {
          "time": 248.142834,
          "midi": 38,
          "name": "D2",
          "velocity": 0.9763779527559056,
          "duration": 0.37187499999998863,
          "ticks": 75960,
          "durationTicks": 119
        },
        {
          "time": 248.892834,
          "midi": 40,
          "name": "E2",
          "velocity": 1,
          "duration": 0.37187499999998863,
          "ticks": 76200,
          "durationTicks": 119
        },
        {
          "time": 249.267834,
          "midi": 40,
          "name": "E2",
          "velocity": 1,
          "duration": 0.37187499999998863,
          "ticks": 76320,
          "durationTicks": 119
        },
        {
          "time": 249.642834,
          "midi": 42,
          "name": "F#2",
          "velocity": 1,
          "duration": 0.37187499999998863,
          "ticks": 76440,
          "durationTicks": 119
        },
        {
          "time": 250.017834,
          "midi": 38,
          "name": "D2",
          "velocity": 1,
          "duration": 0.37187499999998863,
          "ticks": 76560,
          "durationTicks": 119
        },
        {
          "time": 250.392834,
          "midi": 40,
          "name": "E2",
          "velocity": 1,
          "duration": 0.37187499999998863,
          "ticks": 76680,
          "durationTicks": 119
        },
        {
          "time": 250.767834,
          "midi": 42,
          "name": "F#2",
          "velocity": 1,
          "duration": 0.18437499999998863,
          "ticks": 76800,
          "durationTicks": 59
        },
        {
          "time": 250.955334,
          "midi": 43,
          "name": "G2",
          "velocity": 1,
          "duration": 0.18437499999998863,
          "ticks": 76860,
          "durationTicks": 59
        },
        {
          "time": 251.142834,
          "midi": 42,
          "name": "F#2",
          "velocity": 1,
          "duration": 0.37187499999998863,
          "ticks": 76920,
          "durationTicks": 119
        },
        {
          "time": 251.517834,
          "midi": 38,
          "name": "D2",
          "velocity": 1,
          "duration": 0.37187499999998863,
          "ticks": 77040,
          "durationTicks": 119
        },
        {
          "time": 251.892834,
          "midi": 40,
          "name": "E2",
          "velocity": 1,
          "duration": 0.37187499999998863,
          "ticks": 77160,
          "durationTicks": 119
        },
        {
          "time": 252.267834,
          "midi": 42,
          "name": "F#2",
          "velocity": 1,
          "duration": 0.18437499999998863,
          "ticks": 77280,
          "durationTicks": 59
        },
        {
          "time": 252.455334,
          "midi": 43,
          "name": "G2",
          "velocity": 1,
          "duration": 0.18437499999998863,
          "ticks": 77340,
          "durationTicks": 59
        },
        {
          "time": 252.642834,
          "midi": 42,
          "name": "F#2",
          "velocity": 1,
          "duration": 0.37187499999998863,
          "ticks": 77400,
          "durationTicks": 119
        },
        {
          "time": 253.017834,
          "midi": 40,
          "name": "E2",
          "velocity": 1,
          "duration": 0.37187499999998863,
          "ticks": 77520,
          "durationTicks": 119
        },
        {
          "time": 253.392834,
          "midi": 38,
          "name": "D2",
          "velocity": 1,
          "duration": 0.37187499999998863,
          "ticks": 77640,
          "durationTicks": 119
        },
        {
          "time": 253.767834,
          "midi": 40,
          "name": "E2",
          "velocity": 1,
          "duration": 0.37187499999998863,
          "ticks": 77760,
          "durationTicks": 119
        },
        {
          "time": 254.142834,
          "midi": 33,
          "name": "A1",
          "velocity": 0.937007874015748,
          "duration": 0.37187499999998863,
          "ticks": 77880,
          "durationTicks": 119
        },
        {
          "time": 254.517834,
          "midi": 42,
          "name": "F#2",
          "velocity": 1,
          "duration": 0.7468749999999886,
          "ticks": 78000,
          "durationTicks": 239
        },
        {
          "time": 255.267834,
          "midi": 42,
          "name": "F#2",
          "velocity": 1,
          "duration": 0.37187499999998863,
          "ticks": 78240,
          "durationTicks": 119
        },
        {
          "time": 255.642834,
          "midi": 43,
          "name": "G2",
          "velocity": 0.8818897637795275,
          "duration": 0.37187499999998863,
          "ticks": 78360,
          "durationTicks": 119
        },
        {
          "time": 256.017834,
          "midi": 45,
          "name": "A2",
          "velocity": 1,
          "duration": 0.37187499999998863,
          "ticks": 78480,
          "durationTicks": 119
        },
        {
          "time": 256.392834,
          "midi": 45,
          "name": "A2",
          "velocity": 1,
          "duration": 0.37187499999998863,
          "ticks": 78600,
          "durationTicks": 119
        },
        {
          "time": 256.767834,
          "midi": 43,
          "name": "G2",
          "velocity": 0.9763779527559056,
          "duration": 0.37187499999998863,
          "ticks": 78720,
          "durationTicks": 119
        },
        {
          "time": 257.142834,
          "midi": 42,
          "name": "F#2",
          "velocity": 1,
          "duration": 0.37187499999998863,
          "ticks": 78840,
          "durationTicks": 119
        },
        {
          "time": 257.517834,
          "midi": 43,
          "name": "G2",
          "velocity": 1,
          "duration": 0.18437499999998863,
          "ticks": 78960,
          "durationTicks": 59
        },
        {
          "time": 257.705334,
          "midi": 40,
          "name": "E2",
          "velocity": 1,
          "duration": 0.18437499999998863,
          "ticks": 79020,
          "durationTicks": 59
        },
        {
          "time": 257.892834,
          "midi": 38,
          "name": "D2",
          "velocity": 1,
          "duration": 0.37187499999998863,
          "ticks": 79080,
          "durationTicks": 119
        },
        {
          "time": 258.267834,
          "midi": 38,
          "name": "D2",
          "velocity": 1,
          "duration": 0.37187499999998863,
          "ticks": 79200,
          "durationTicks": 119
        },
        {
          "time": 258.642834,
          "midi": 40,
          "name": "E2",
          "velocity": 1,
          "duration": 0.37187499999998863,
          "ticks": 79320,
          "durationTicks": 119
        },
        {
          "time": 259.017834,
          "midi": 42,
          "name": "F#2",
          "velocity": 1,
          "duration": 0.37187499999998863,
          "ticks": 79440,
          "durationTicks": 119
        },
        {
          "time": 259.392834,
          "midi": 40,
          "name": "E2",
          "velocity": 1,
          "duration": 0.5593749999999886,
          "ticks": 79560,
          "durationTicks": 179
        },
        {
          "time": 259.955334,
          "midi": 38,
          "name": "D2",
          "velocity": 1,
          "duration": 0.18437499999998863,
          "ticks": 79740,
          "durationTicks": 59
        },
        {
          "time": 260.142834,
          "midi": 38,
          "name": "D2",
          "velocity": 1,
          "duration": 0.37187499999998863,
          "ticks": 79800,
          "durationTicks": 119
        },
        {
          "time": 260.517834,
          "midi": 45,
          "name": "A2",
          "velocity": 1,
          "duration": 0.37187499999998863,
          "ticks": 79920,
          "durationTicks": 119
        },
        {
          "time": 260.892834,
          "midi": 43,
          "name": "G2",
          "velocity": 0.8818897637795275,
          "duration": 0.5593749999999886,
          "ticks": 80040,
          "durationTicks": 179
        },
        {
          "time": 261.455334,
          "midi": 42,
          "name": "F#2",
          "velocity": 1,
          "duration": 0.18437499999998863,
          "ticks": 80220,
          "durationTicks": 59
        },
        {
          "time": 261.642834,
          "midi": 42,
          "name": "F#2",
          "velocity": 0.937007874015748,
          "duration": 0.37187499999998863,
          "ticks": 80280,
          "durationTicks": 119
        },
        {
          "time": 262.017834,
          "midi": 50,
          "name": "D3",
          "velocity": 0.8267716535433071,
          "duration": 0.37187499999998863,
          "ticks": 80400,
          "durationTicks": 119
        },
        {
          "time": 262.392834,
          "midi": 48,
          "name": "C3",
          "velocity": 0.8503937007874016,
          "duration": 0.5593749999999886,
          "ticks": 80520,
          "durationTicks": 179
        },
        {
          "time": 262.955334,
          "midi": 47,
          "name": "B2",
          "velocity": 0.905511811023622,
          "duration": 0.18437499999998863,
          "ticks": 80700,
          "durationTicks": 59
        },
        {
          "time": 263.142834,
          "midi": 47,
          "name": "B2",
          "velocity": 0.8503937007874016,
          "duration": 0.37187499999998863,
          "ticks": 80760,
          "durationTicks": 119
        },
        {
          "time": 263.517834,
          "midi": 55,
          "name": "G3",
          "velocity": 0.8267716535433071,
          "duration": 0.18437499999998863,
          "ticks": 80880,
          "durationTicks": 59
        },
        {
          "time": 263.705334,
          "midi": 52,
          "name": "E3",
          "velocity": 0.7795275590551181,
          "duration": 0.18437499999998863,
          "ticks": 80940,
          "durationTicks": 59
        },
        {
          "time": 263.892834,
          "midi": 50,
          "name": "D3",
          "velocity": 0.8503937007874016,
          "duration": 0.18437499999998863,
          "ticks": 81000,
          "durationTicks": 59
        },
        {
          "time": 264.080334,
          "midi": 49,
          "name": "C#3",
          "velocity": 1,
          "duration": 0.18437499999998863,
          "ticks": 81060,
          "durationTicks": 59
        },
        {
          "time": 264.267834,
          "midi": 52,
          "name": "E3",
          "velocity": 0.8503937007874016,
          "duration": 0.18437499999998863,
          "ticks": 81120,
          "durationTicks": 59
        },
        {
          "time": 264.455334,
          "midi": 49,
          "name": "C#3",
          "velocity": 1,
          "duration": 0.18437499999998863,
          "ticks": 81180,
          "durationTicks": 59
        },
        {
          "time": 264.642834,
          "midi": 47,
          "name": "B2",
          "velocity": 0.8503937007874016,
          "duration": 0.18437499999998863,
          "ticks": 81240,
          "durationTicks": 59
        },
        {
          "time": 264.830334,
          "midi": 45,
          "name": "A2",
          "velocity": 0.8818897637795275,
          "duration": 0.18437499999998863,
          "ticks": 81300,
          "durationTicks": 59
        },
        {
          "time": 265.017834,
          "midi": 47,
          "name": "B2",
          "velocity": 1,
          "duration": 0.18437499999998863,
          "ticks": 81360,
          "durationTicks": 59
        },
        {
          "time": 265.205334,
          "midi": 49,
          "name": "C#3",
          "velocity": 1,
          "duration": 0.18437499999998863,
          "ticks": 81420,
          "durationTicks": 59
        },
        {
          "time": 265.392834,
          "midi": 50,
          "name": "D3",
          "velocity": 0.937007874015748,
          "duration": 0.18437499999998863,
          "ticks": 81480,
          "durationTicks": 59
        },
        {
          "time": 265.580334,
          "midi": 54,
          "name": "F#3",
          "velocity": 0.937007874015748,
          "duration": 0.18437499999998863,
          "ticks": 81540,
          "durationTicks": 59
        },
        {
          "time": 265.767834,
          "midi": 52,
          "name": "E3",
          "velocity": 0.8818897637795275,
          "duration": 0.18437499999998863,
          "ticks": 81600,
          "durationTicks": 59
        },
        {
          "time": 265.955334,
          "midi": 49,
          "name": "C#3",
          "velocity": 1,
          "duration": 0.18437499999998863,
          "ticks": 81660,
          "durationTicks": 59
        },
        {
          "time": 266.142834,
          "midi": 50,
          "name": "D3",
          "velocity": 1,
          "duration": 0.37187499999998863,
          "ticks": 81720,
          "durationTicks": 119
        },
        {
          "time": 290.517834,
          "midi": 45,
          "name": "A2",
          "velocity": 1,
          "duration": 0.5625,
          "ticks": 89520,
          "durationTicks": 180
        },
        {
          "time": 291.080334,
          "midi": 33,
          "name": "A1",
          "velocity": 0.7244094488188977,
          "duration": 0.18437499999998863,
          "ticks": 89700,
          "durationTicks": 59
        },
        {
          "time": 291.267834,
          "midi": 40,
          "name": "E2",
          "velocity": 0.8503937007874016,
          "duration": 0.18437499999998863,
          "ticks": 89760,
          "durationTicks": 59
        },
        {
          "time": 291.455334,
          "midi": 37,
          "name": "C#2",
          "velocity": 0.905511811023622,
          "duration": 0.18437499999998863,
          "ticks": 89820,
          "durationTicks": 59
        },
        {
          "time": 291.642834,
          "midi": 45,
          "name": "A2",
          "velocity": 0.937007874015748,
          "duration": 0.18437499999998863,
          "ticks": 89880,
          "durationTicks": 59
        },
        {
          "time": 292.392834,
          "midi": 33,
          "name": "A1",
          "velocity": 0.7795275590551181,
          "duration": 0.18437499999998863,
          "ticks": 90120,
          "durationTicks": 59
        },
        {
          "time": 292.580334,
          "midi": 33,
          "name": "A1",
          "velocity": 0.7637795275590551,
          "duration": 0.18437499999998863,
          "ticks": 90180,
          "durationTicks": 59
        },
        {
          "time": 292.767834,
          "midi": 45,
          "name": "A2",
          "velocity": 0.937007874015748,
          "duration": 0.18437499999998863,
          "ticks": 90240,
          "durationTicks": 59
        },
        {
          "time": 292.955334,
          "midi": 33,
          "name": "A1",
          "velocity": 0.937007874015748,
          "duration": 0.18437499999998863,
          "ticks": 90300,
          "durationTicks": 59
        },
        {
          "time": 293.142834,
          "midi": 45,
          "name": "A2",
          "velocity": 0.7401574803149606,
          "duration": 0.18437499999998863,
          "ticks": 90360,
          "durationTicks": 59
        },
        {
          "time": 293.892834,
          "midi": 33,
          "name": "A1",
          "velocity": 0.905511811023622,
          "duration": 0.18437499999998863,
          "ticks": 90600,
          "durationTicks": 59
        },
        {
          "time": 294.080334,
          "midi": 33,
          "name": "A1",
          "velocity": 0.905511811023622,
          "duration": 0.18437499999998863,
          "ticks": 90660,
          "durationTicks": 59
        },
        {
          "time": 294.267834,
          "midi": 45,
          "name": "A2",
          "velocity": 0.9763779527559056,
          "duration": 0.18437499999998863,
          "ticks": 90720,
          "durationTicks": 59
        },
        {
          "time": 294.830334,
          "midi": 46,
          "name": "A#2",
          "velocity": 1,
          "duration": 0.18437499999998863,
          "ticks": 90900,
          "durationTicks": 59
        },
        {
          "time": 295.017834,
          "midi": 42,
          "name": "F#2",
          "velocity": 1,
          "duration": 0.37187499999998863,
          "ticks": 90960,
          "durationTicks": 119
        },
        {
          "time": 295.580334,
          "midi": 47,
          "name": "B2",
          "velocity": 0.8818897637795275,
          "duration": 0.18437499999998863,
          "ticks": 91140,
          "durationTicks": 59
        },
        {
          "time": 295.767834,
          "midi": 40,
          "name": "E2",
          "velocity": 0.8818897637795275,
          "duration": 0.37187499999998863,
          "ticks": 91200,
          "durationTicks": 119
        },
        {
          "time": 296.330334,
          "midi": 45,
          "name": "A2",
          "velocity": 0.905511811023622,
          "duration": 0.18437499999998863,
          "ticks": 91380,
          "durationTicks": 59
        },
        {
          "time": 296.517834,
          "midi": 33,
          "name": "A1",
          "velocity": 0.937007874015748,
          "duration": 0.18437499999998863,
          "ticks": 91440,
          "durationTicks": 59
        },
        {
          "time": 296.705334,
          "midi": 33,
          "name": "A1",
          "velocity": 0.937007874015748,
          "duration": 0.18437499999998863,
          "ticks": 91500,
          "durationTicks": 59
        },
        {
          "time": 296.892834,
          "midi": 38,
          "name": "D2",
          "velocity": 1,
          "duration": 1.1218749999999886,
          "ticks": 91560,
          "durationTicks": 359
        },
        {
          "time": 298.017834,
          "midi": 37,
          "name": "C#2",
          "velocity": 1,
          "duration": 0.18437499999998863,
          "ticks": 91920,
          "durationTicks": 59
        },
        {
          "time": 298.205334,
          "midi": 35,
          "name": "B1",
          "velocity": 0.9212598425196851,
          "duration": 0.18437499999998863,
          "ticks": 91980,
          "durationTicks": 59
        },
        {
          "time": 298.392834,
          "midi": 33,
          "name": "A1",
          "velocity": 0.905511811023622,
          "duration": 0.18437499999998863,
          "ticks": 92040,
          "durationTicks": 59
        },
        {
          "time": 298.580334,
          "midi": 35,
          "name": "B1",
          "velocity": 0.8976377952755905,
          "duration": 0.18437499999998863,
          "ticks": 92100,
          "durationTicks": 59
        },
        {
          "time": 298.767834,
          "midi": 37,
          "name": "C#2",
          "velocity": 0.8818897637795275,
          "duration": 0.18437499999998863,
          "ticks": 92160,
          "durationTicks": 59
        },
        {
          "time": 298.955334,
          "midi": 38,
          "name": "D2",
          "velocity": 0.8503937007874016,
          "duration": 0.18437499999998863,
          "ticks": 92220,
          "durationTicks": 59
        },
        {
          "time": 299.142834,
          "midi": 40,
          "name": "E2",
          "velocity": 0.8031496062992126,
          "duration": 0.18437499999998863,
          "ticks": 92280,
          "durationTicks": 59
        },
        {
          "time": 299.330334,
          "midi": 42,
          "name": "F#2",
          "velocity": 0.7716535433070866,
          "duration": 0.18437499999998863,
          "ticks": 92340,
          "durationTicks": 59
        },
        {
          "time": 299.517834,
          "midi": 43,
          "name": "G2",
          "velocity": 0.7480314960629921,
          "duration": 0.18437499999998863,
          "ticks": 92400,
          "durationTicks": 59
        },
        {
          "time": 299.705334,
          "midi": 40,
          "name": "E2",
          "velocity": 0.7322834645669292,
          "duration": 0.18437499999998863,
          "ticks": 92460,
          "durationTicks": 59
        },
        {
          "time": 299.892834,
          "midi": 42,
          "name": "F#2",
          "velocity": 0.7007874015748031,
          "duration": 0.37187499999998863,
          "ticks": 92520,
          "durationTicks": 119
        },
        {
          "time": 300.455334,
          "midi": 42,
          "name": "F#2",
          "velocity": 0.6692913385826772,
          "duration": 0.18437499999998863,
          "ticks": 92700,
          "durationTicks": 59
        },
        {
          "time": 300.642834,
          "midi": 38,
          "name": "D2",
          "velocity": 0.6692913385826772,
          "duration": 0.37187499999998863,
          "ticks": 92760,
          "durationTicks": 119
        },
        {
          "time": 301.205334,
          "midi": 38,
          "name": "D2",
          "velocity": 0.6692913385826772,
          "duration": 0.18437499999998863,
          "ticks": 92940,
          "durationTicks": 59
        },
        {
          "time": 301.392834,
          "midi": 45,
          "name": "A2",
          "velocity": 0.6692913385826772,
          "duration": 0.37187499999998863,
          "ticks": 93000,
          "durationTicks": 119
        },
        {
          "time": 301.955334,
          "midi": 33,
          "name": "A1",
          "velocity": 0.6692913385826772,
          "duration": 0.18437499999998863,
          "ticks": 93180,
          "durationTicks": 59
        },
        {
          "time": 302.142834,
          "midi": 38,
          "name": "D2",
          "velocity": 0.6614173228346457,
          "duration": 0.37187499999998863,
          "ticks": 93240,
          "durationTicks": 119
        },
        {
          "time": 302.705334,
          "midi": 50,
          "name": "D3",
          "velocity": 0.6614173228346457,
          "duration": 0.18437499999998863,
          "ticks": 93420,
          "durationTicks": 59
        },
        {
          "time": 302.892834,
          "midi": 38,
          "name": "D2",
          "velocity": 0.6535433070866141,
          "duration": 0.37187499999998863,
          "ticks": 93480,
          "durationTicks": 119
        },
        {
          "time": 303.455334,
          "midi": 50,
          "name": "D3",
          "velocity": 0.6456692913385826,
          "duration": 0.18437499999998863,
          "ticks": 93660,
          "durationTicks": 59
        },
        {
          "time": 303.642834,
          "midi": 38,
          "name": "D2",
          "velocity": 0.6456692913385826,
          "duration": 0.37187499999998863,
          "ticks": 93720,
          "durationTicks": 119
        },
        {
          "time": 304.205334,
          "midi": 38,
          "name": "D2",
          "velocity": 0.6377952755905512,
          "duration": 0.18437499999998863,
          "ticks": 93900,
          "durationTicks": 59
        },
        {
          "time": 304.392834,
          "midi": 31,
          "name": "G1",
          "velocity": 0.8503937007874016,
          "duration": 0.37187499999998863,
          "ticks": 93960,
          "durationTicks": 119
        },
        {
          "time": 304.955334,
          "midi": 43,
          "name": "G2",
          "velocity": 1,
          "duration": 0.18437499999998863,
          "ticks": 94140,
          "durationTicks": 59
        },
        {
          "time": 305.142834,
          "midi": 31,
          "name": "G1",
          "velocity": 0.8503937007874016,
          "duration": 0.37187499999998863,
          "ticks": 94200,
          "durationTicks": 119
        },
        {
          "time": 305.705334,
          "midi": 43,
          "name": "G2",
          "velocity": 0.6220472440944882,
          "duration": 0.18437499999998863,
          "ticks": 94380,
          "durationTicks": 59
        },
        {
          "time": 305.892834,
          "midi": 45,
          "name": "A2",
          "velocity": 0.8503937007874016,
          "duration": 0.37187499999998863,
          "ticks": 94440,
          "durationTicks": 119
        },
        {
          "time": 306.455334,
          "midi": 33,
          "name": "A1",
          "velocity": 1,
          "duration": 0.18437499999998863,
          "ticks": 94620,
          "durationTicks": 59
        },
        {
          "time": 306.642834,
          "midi": 45,
          "name": "A2",
          "velocity": 0.8503937007874016,
          "duration": 0.37187499999998863,
          "ticks": 94680,
          "durationTicks": 119
        },
        {
          "time": 307.205334,
          "midi": 45,
          "name": "A2",
          "velocity": 0.6220472440944882,
          "duration": 0.18437499999998863,
          "ticks": 94860,
          "durationTicks": 59
        },
        {
          "time": 307.392834,
          "midi": 50,
          "name": "D3",
          "velocity": 0.937007874015748,
          "duration": 0.18437499999998863,
          "ticks": 94920,
          "durationTicks": 59
        },
        {
          "time": 307.767834,
          "midi": 45,
          "name": "A2",
          "velocity": 1,
          "duration": 0.18437499999998863,
          "ticks": 95040,
          "durationTicks": 59
        },
        {
          "time": 308.142834,
          "midi": 38,
          "name": "D2",
          "velocity": 0.8818897637795275,
          "duration": 0.18437499999998863,
          "ticks": 95160,
          "durationTicks": 59
        },
        {
          "time": 330.642834,
          "midi": 50,
          "name": "D3",
          "velocity": 1,
          "duration": 0.37187499999998863,
          "ticks": 102360,
          "durationTicks": 119
        },
        {
          "time": 331.205334,
          "midi": 50,
          "name": "D3",
          "velocity": 1,
          "duration": 0.18437499999998863,
          "ticks": 102540,
          "durationTicks": 59
        },
        {
          "time": 331.392834,
          "midi": 50,
          "name": "D3",
          "velocity": 1,
          "duration": 0.37187499999998863,
          "ticks": 102600,
          "durationTicks": 119
        },
        {
          "time": 331.955334,
          "midi": 50,
          "name": "D3",
          "velocity": 1,
          "duration": 0.18437499999998863,
          "ticks": 102780,
          "durationTicks": 59
        },
        {
          "time": 332.142834,
          "midi": 50,
          "name": "D3",
          "velocity": 1,
          "duration": 0.37187499999998863,
          "ticks": 102840,
          "durationTicks": 119
        },
        {
          "time": 332.517834,
          "midi": 33,
          "name": "A1",
          "velocity": 1,
          "duration": 0.18437499999998863,
          "ticks": 102960,
          "durationTicks": 59
        },
        {
          "time": 332.705334,
          "midi": 45,
          "name": "A2",
          "velocity": 1,
          "duration": 0.18437499999998863,
          "ticks": 103020,
          "durationTicks": 59
        },
        {
          "time": 332.892834,
          "midi": 33,
          "name": "A1",
          "velocity": 1,
          "duration": 0.18437499999998863,
          "ticks": 103080,
          "durationTicks": 59
        },
        {
          "time": 333.080334,
          "midi": 45,
          "name": "A2",
          "velocity": 1,
          "duration": 0.18437499999998863,
          "ticks": 103140,
          "durationTicks": 59
        },
        {
          "time": 333.267834,
          "midi": 33,
          "name": "A1",
          "velocity": 0.937007874015748,
          "duration": 0.18437499999998863,
          "ticks": 103200,
          "durationTicks": 59
        },
        {
          "time": 333.455334,
          "midi": 45,
          "name": "A2",
          "velocity": 1,
          "duration": 0.18437499999998863,
          "ticks": 103260,
          "durationTicks": 59
        },
        {
          "time": 333.642834,
          "midi": 33,
          "name": "A1",
          "velocity": 0.937007874015748,
          "duration": 0.18437499999998863,
          "ticks": 103320,
          "durationTicks": 59
        },
        {
          "time": 333.830334,
          "midi": 45,
          "name": "A2",
          "velocity": 1,
          "duration": 0.18437499999998863,
          "ticks": 103380,
          "durationTicks": 59
        },
        {
          "time": 334.017834,
          "midi": 33,
          "name": "A1",
          "velocity": 0.937007874015748,
          "duration": 0.18437499999998863,
          "ticks": 103440,
          "durationTicks": 59
        },
        {
          "time": 334.205334,
          "midi": 45,
          "name": "A2",
          "velocity": 1,
          "duration": 0.18437499999998863,
          "ticks": 103500,
          "durationTicks": 59
        },
        {
          "time": 334.392834,
          "midi": 33,
          "name": "A1",
          "velocity": 0.905511811023622,
          "duration": 0.18437499999998863,
          "ticks": 103560,
          "durationTicks": 59
        },
        {
          "time": 334.580334,
          "midi": 45,
          "name": "A2",
          "velocity": 1,
          "duration": 0.18437499999998863,
          "ticks": 103620,
          "durationTicks": 59
        },
        {
          "time": 334.767834,
          "midi": 33,
          "name": "A1",
          "velocity": 0.937007874015748,
          "duration": 0.18437499999998863,
          "ticks": 103680,
          "durationTicks": 59
        },
        {
          "time": 334.955334,
          "midi": 45,
          "name": "A2",
          "velocity": 1,
          "duration": 0.18437499999998863,
          "ticks": 103740,
          "durationTicks": 59
        },
        {
          "time": 335.142834,
          "midi": 33,
          "name": "A1",
          "velocity": 0.905511811023622,
          "duration": 0.18437499999998863,
          "ticks": 103800,
          "durationTicks": 59
        },
        {
          "time": 335.330334,
          "midi": 45,
          "name": "A2",
          "velocity": 1,
          "duration": 0.18437499999998863,
          "ticks": 103860,
          "durationTicks": 59
        },
        {
          "time": 335.517834,
          "midi": 33,
          "name": "A1",
          "velocity": 0.9763779527559056,
          "duration": 0.18437499999998863,
          "ticks": 103920,
          "durationTicks": 59
        },
        {
          "time": 335.705334,
          "midi": 45,
          "name": "A2",
          "velocity": 1,
          "duration": 0.18437499999998863,
          "ticks": 103980,
          "durationTicks": 59
        },
        {
          "time": 335.892834,
          "midi": 33,
          "name": "A1",
          "velocity": 1,
          "duration": 0.18437499999998863,
          "ticks": 104040,
          "durationTicks": 59
        },
        {
          "time": 336.080334,
          "midi": 45,
          "name": "A2",
          "velocity": 1,
          "duration": 0.18437499999998863,
          "ticks": 104100,
          "durationTicks": 59
        },
        {
          "time": 336.267834,
          "midi": 33,
          "name": "A1",
          "velocity": 0.905511811023622,
          "duration": 0.18437499999998863,
          "ticks": 104160,
          "durationTicks": 59
        },
        {
          "time": 336.455334,
          "midi": 45,
          "name": "A2",
          "velocity": 1,
          "duration": 0.18437499999998863,
          "ticks": 104220,
          "durationTicks": 59
        },
        {
          "time": 336.642834,
          "midi": 33,
          "name": "A1",
          "velocity": 0.9763779527559056,
          "duration": 0.18437499999998863,
          "ticks": 104280,
          "durationTicks": 59
        },
        {
          "time": 336.830334,
          "midi": 45,
          "name": "A2",
          "velocity": 1,
          "duration": 0.18437499999998863,
          "ticks": 104340,
          "durationTicks": 59
        },
        {
          "time": 337.017834,
          "midi": 33,
          "name": "A1",
          "velocity": 0.937007874015748,
          "duration": 0.18437499999998863,
          "ticks": 104400,
          "durationTicks": 59
        },
        {
          "time": 337.205334,
          "midi": 45,
          "name": "A2",
          "velocity": 1,
          "duration": 0.18437499999998863,
          "ticks": 104460,
          "durationTicks": 59
        },
        {
          "time": 337.392834,
          "midi": 33,
          "name": "A1",
          "velocity": 0.937007874015748,
          "duration": 0.18437499999998863,
          "ticks": 104520,
          "durationTicks": 59
        },
        {
          "time": 337.580334,
          "midi": 45,
          "name": "A2",
          "velocity": 1,
          "duration": 0.18437499999998863,
          "ticks": 104580,
          "durationTicks": 59
        },
        {
          "time": 337.767834,
          "midi": 33,
          "name": "A1",
          "velocity": 0.937007874015748,
          "duration": 0.18437499999998863,
          "ticks": 104640,
          "durationTicks": 59
        },
        {
          "time": 337.955334,
          "midi": 45,
          "name": "A2",
          "velocity": 1,
          "duration": 0.18437499999998863,
          "ticks": 104700,
          "durationTicks": 59
        },
        {
          "time": 338.142834,
          "midi": 33,
          "name": "A1",
          "velocity": 0.905511811023622,
          "duration": 0.18437499999998863,
          "ticks": 104760,
          "durationTicks": 59
        },
        {
          "time": 338.330334,
          "midi": 45,
          "name": "A2",
          "velocity": 1,
          "duration": 0.18437499999998863,
          "ticks": 104820,
          "durationTicks": 59
        },
        {
          "time": 338.517834,
          "midi": 26,
          "name": "D1",
          "velocity": 1,
          "duration": 0.18437499999998863,
          "ticks": 104880,
          "durationTicks": 59
        },
        {
          "time": 338.705334,
          "midi": 33,
          "name": "A1",
          "velocity": 1,
          "duration": 0.18437499999998863,
          "ticks": 104940,
          "durationTicks": 59
        },
        {
          "time": 338.892834,
          "midi": 26,
          "name": "D1",
          "velocity": 1,
          "duration": 0.18437499999998863,
          "ticks": 105000,
          "durationTicks": 59
        },
        {
          "time": 339.080334,
          "midi": 33,
          "name": "A1",
          "velocity": 1,
          "duration": 0.18437499999998863,
          "ticks": 105060,
          "durationTicks": 59
        },
        {
          "time": 339.267834,
          "midi": 26,
          "name": "D1",
          "velocity": 1,
          "duration": 0.18437499999998863,
          "ticks": 105120,
          "durationTicks": 59
        },
        {
          "time": 339.455334,
          "midi": 33,
          "name": "A1",
          "velocity": 1,
          "duration": 0.18437499999998863,
          "ticks": 105180,
          "durationTicks": 59
        },
        {
          "time": 339.642834,
          "midi": 26,
          "name": "D1",
          "velocity": 1,
          "duration": 0.18437499999998863,
          "ticks": 105240,
          "durationTicks": 59
        },
        {
          "time": 339.830334,
          "midi": 33,
          "name": "A1",
          "velocity": 1,
          "duration": 0.18437499999998863,
          "ticks": 105300,
          "durationTicks": 59
        },
        {
          "time": 340.017834,
          "midi": 26,
          "name": "D1",
          "velocity": 1,
          "duration": 0.18437499999998863,
          "ticks": 105360,
          "durationTicks": 59
        },
        {
          "time": 340.205334,
          "midi": 33,
          "name": "A1",
          "velocity": 1,
          "duration": 0.18437499999998863,
          "ticks": 105420,
          "durationTicks": 59
        },
        {
          "time": 340.392834,
          "midi": 26,
          "name": "D1",
          "velocity": 1,
          "duration": 0.18437499999998863,
          "ticks": 105480,
          "durationTicks": 59
        },
        {
          "time": 340.580334,
          "midi": 33,
          "name": "A1",
          "velocity": 1,
          "duration": 0.18437499999998863,
          "ticks": 105540,
          "durationTicks": 59
        },
        {
          "time": 340.767834,
          "midi": 26,
          "name": "D1",
          "velocity": 1,
          "duration": 0.18437499999998863,
          "ticks": 105600,
          "durationTicks": 59
        },
        {
          "time": 340.955334,
          "midi": 33,
          "name": "A1",
          "velocity": 1,
          "duration": 0.18437499999998863,
          "ticks": 105660,
          "durationTicks": 59
        },
        {
          "time": 341.142834,
          "midi": 26,
          "name": "D1",
          "velocity": 1,
          "duration": 0.18437499999998863,
          "ticks": 105720,
          "durationTicks": 59
        },
        {
          "time": 341.330334,
          "midi": 33,
          "name": "A1",
          "velocity": 1,
          "duration": 0.18437499999998863,
          "ticks": 105780,
          "durationTicks": 59
        },
        {
          "time": 341.517834,
          "midi": 26,
          "name": "D1",
          "velocity": 1,
          "duration": 0.18437499999998863,
          "ticks": 105840,
          "durationTicks": 59
        },
        {
          "time": 341.705334,
          "midi": 33,
          "name": "A1",
          "velocity": 1,
          "duration": 0.18437499999998863,
          "ticks": 105900,
          "durationTicks": 59
        },
        {
          "time": 341.892834,
          "midi": 26,
          "name": "D1",
          "velocity": 1,
          "duration": 0.18437499999998863,
          "ticks": 105960,
          "durationTicks": 59
        },
        {
          "time": 342.080334,
          "midi": 33,
          "name": "A1",
          "velocity": 1,
          "duration": 0.18437499999998863,
          "ticks": 106020,
          "durationTicks": 59
        },
        {
          "time": 342.267834,
          "midi": 26,
          "name": "D1",
          "velocity": 1,
          "duration": 0.18437499999998863,
          "ticks": 106080,
          "durationTicks": 59
        },
        {
          "time": 342.455334,
          "midi": 33,
          "name": "A1",
          "velocity": 1,
          "duration": 0.18437499999998863,
          "ticks": 106140,
          "durationTicks": 59
        },
        {
          "time": 342.642834,
          "midi": 50,
          "name": "D3",
          "velocity": 1,
          "duration": 0.37187499999998863,
          "ticks": 106200,
          "durationTicks": 119
        },
        {
          "time": 343.392834,
          "midi": 50,
          "name": "D3",
          "velocity": 1,
          "duration": 0.37187499999998863,
          "ticks": 106440,
          "durationTicks": 119
        },
        {
          "time": 343.955334,
          "midi": 50,
          "name": "D3",
          "velocity": 1,
          "duration": 0.18437499999998863,
          "ticks": 106620,
          "durationTicks": 59
        },
        {
          "time": 344.142834,
          "midi": 50,
          "name": "D3",
          "velocity": 1,
          "duration": 0.37187499999998863,
          "ticks": 106680,
          "durationTicks": 119
        },
        {
          "time": 344.892834,
          "midi": 50,
          "name": "D3",
          "velocity": 1,
          "duration": 0.37187499999998863,
          "ticks": 106920,
          "durationTicks": 119
        },
        {
          "time": 345.642834,
          "midi": 50,
          "name": "D3",
          "velocity": 1,
          "duration": 0.37187499999998863,
          "ticks": 107160,
          "durationTicks": 119
        },
        {
          "time": 346.392834,
          "midi": 43,
          "name": "G2",
          "velocity": 1,
          "duration": 0.37187499999998863,
          "ticks": 107400,
          "durationTicks": 119
        },
        {
          "time": 347.142834,
          "midi": 43,
          "name": "G2",
          "velocity": 1,
          "duration": 0.37187499999998863,
          "ticks": 107640,
          "durationTicks": 119
        },
        {
          "time": 347.892834,
          "midi": 45,
          "name": "A2",
          "velocity": 1,
          "duration": 0.37187499999998863,
          "ticks": 107880,
          "durationTicks": 119
        },
        {
          "time": 348.642834,
          "midi": 45,
          "name": "A2",
          "velocity": 1,
          "duration": 0.37187499999998863,
          "ticks": 108120,
          "durationTicks": 119
        },
        {
          "time": 349.392834,
          "midi": 50,
          "name": "D3",
          "velocity": 1,
          "duration": 1.4968749999999886,
          "ticks": 108360,
          "durationTicks": 479
        },
        {
          "time": 350.892834,
          "midi": 40,
          "name": "E2",
          "velocity": 1,
          "duration": 0.37187499999998863,
          "ticks": 108840,
          "durationTicks": 119
        },
        {
          "time": 351.642834,
          "midi": 40,
          "name": "E2",
          "velocity": 1,
          "duration": 0.37187499999998863,
          "ticks": 109080,
          "durationTicks": 119
        },
        {
          "time": 352.392834,
          "midi": 45,
          "name": "A2",
          "velocity": 1,
          "duration": 0.09062499999998863,
          "ticks": 109320,
          "durationTicks": 29
        },
        {
          "time": 352.486584,
          "midi": 47,
          "name": "B2",
          "velocity": 1,
          "duration": 0.09062499999998863,
          "ticks": 109350,
          "durationTicks": 29
        },
        {
          "time": 352.580334,
          "midi": 45,
          "name": "A2",
          "velocity": 1,
          "duration": 0.09062499999998863,
          "ticks": 109380,
          "durationTicks": 29
        },
        {
          "time": 352.674084,
          "midi": 44,
          "name": "G#2",
          "velocity": 1,
          "duration": 0.09062499999998863,
          "ticks": 109410,
          "durationTicks": 29
        },
        {
          "time": 352.767834,
          "midi": 42,
          "name": "F#2",
          "velocity": 1,
          "duration": 0.09062499999998863,
          "ticks": 109440,
          "durationTicks": 29
        },
        {
          "time": 352.861584,
          "midi": 44,
          "name": "G#2",
          "velocity": 1,
          "duration": 0.09062499999998863,
          "ticks": 109470,
          "durationTicks": 29
        },
        {
          "time": 352.955334,
          "midi": 42,
          "name": "F#2",
          "velocity": 1,
          "duration": 0.09062499999998863,
          "ticks": 109500,
          "durationTicks": 29
        },
        {
          "time": 353.049084,
          "midi": 40,
          "name": "E2",
          "velocity": 1,
          "duration": 0.09062499999998863,
          "ticks": 109530,
          "durationTicks": 29
        },
        {
          "time": 353.142834,
          "midi": 38,
          "name": "D2",
          "velocity": 1,
          "duration": 0.09062499999998863,
          "ticks": 109560,
          "durationTicks": 29
        },
        {
          "time": 353.236584,
          "midi": 40,
          "name": "E2",
          "velocity": 1,
          "duration": 0.09062499999998863,
          "ticks": 109590,
          "durationTicks": 29
        },
        {
          "time": 353.330334,
          "midi": 38,
          "name": "D2",
          "velocity": 0.9763779527559056,
          "duration": 0.09062499999998863,
          "ticks": 109620,
          "durationTicks": 29
        },
        {
          "time": 353.424084,
          "midi": 37,
          "name": "C#2",
          "velocity": 1,
          "duration": 0.09062499999998863,
          "ticks": 109650,
          "durationTicks": 29
        },
        {
          "time": 353.517834,
          "midi": 35,
          "name": "B1",
          "velocity": 1,
          "duration": 0.09062499999998863,
          "ticks": 109680,
          "durationTicks": 29
        },
        {
          "time": 353.611584,
          "midi": 37,
          "name": "C#2",
          "velocity": 1,
          "duration": 0.09062499999998863,
          "ticks": 109710,
          "durationTicks": 29
        },
        {
          "time": 353.705334,
          "midi": 35,
          "name": "B1",
          "velocity": 1,
          "duration": 0.09062499999998863,
          "ticks": 109740,
          "durationTicks": 29
        },
        {
          "time": 353.799084,
          "midi": 33,
          "name": "A1",
          "velocity": 1,
          "duration": 0.09062499999998863,
          "ticks": 109770,
          "durationTicks": 29
        },
        {
          "time": 353.892834,
          "midi": 40,
          "name": "E2",
          "velocity": 1,
          "duration": 0.37187499999998863,
          "ticks": 109800,
          "durationTicks": 119
        },
        {
          "time": 354.642834,
          "midi": 40,
          "name": "E2",
          "velocity": 1,
          "duration": 0.37187499999998863,
          "ticks": 110040,
          "durationTicks": 119
        },
        {
          "time": 355.392834,
          "midi": 45,
          "name": "A2",
          "velocity": 1,
          "duration": 0.09062499999998863,
          "ticks": 110280,
          "durationTicks": 29
        },
        {
          "time": 355.486584,
          "midi": 47,
          "name": "B2",
          "velocity": 1,
          "duration": 0.09062499999998863,
          "ticks": 110310,
          "durationTicks": 29
        },
        {
          "time": 355.580334,
          "midi": 45,
          "name": "A2",
          "velocity": 1,
          "duration": 0.09062499999998863,
          "ticks": 110340,
          "durationTicks": 29
        },
        {
          "time": 355.674084,
          "midi": 44,
          "name": "G#2",
          "velocity": 1,
          "duration": 0.09062499999998863,
          "ticks": 110370,
          "durationTicks": 29
        },
        {
          "time": 355.767834,
          "midi": 42,
          "name": "F#2",
          "velocity": 1,
          "duration": 0.09062499999998863,
          "ticks": 110400,
          "durationTicks": 29
        },
        {
          "time": 355.861584,
          "midi": 44,
          "name": "G#2",
          "velocity": 1,
          "duration": 0.09062499999998863,
          "ticks": 110430,
          "durationTicks": 29
        },
        {
          "time": 355.955334,
          "midi": 42,
          "name": "F#2",
          "velocity": 1,
          "duration": 0.09062499999998863,
          "ticks": 110460,
          "durationTicks": 29
        },
        {
          "time": 356.049084,
          "midi": 40,
          "name": "E2",
          "velocity": 1,
          "duration": 0.09062499999998863,
          "ticks": 110490,
          "durationTicks": 29
        },
        {
          "time": 356.142834,
          "midi": 38,
          "name": "D2",
          "velocity": 0.9763779527559056,
          "duration": 0.09062499999998863,
          "ticks": 110520,
          "durationTicks": 29
        },
        {
          "time": 356.236584,
          "midi": 40,
          "name": "E2",
          "velocity": 1,
          "duration": 0.09062499999998863,
          "ticks": 110550,
          "durationTicks": 29
        },
        {
          "time": 356.330334,
          "midi": 38,
          "name": "D2",
          "velocity": 1,
          "duration": 0.09062499999998863,
          "ticks": 110580,
          "durationTicks": 29
        },
        {
          "time": 356.424084,
          "midi": 37,
          "name": "C#2",
          "velocity": 1,
          "duration": 0.09062499999998863,
          "ticks": 110610,
          "durationTicks": 29
        },
        {
          "time": 356.517834,
          "midi": 35,
          "name": "B1",
          "velocity": 1,
          "duration": 0.09062499999998863,
          "ticks": 110640,
          "durationTicks": 29
        },
        {
          "time": 356.611584,
          "midi": 37,
          "name": "C#2",
          "velocity": 1,
          "duration": 0.09062499999998863,
          "ticks": 110670,
          "durationTicks": 29
        },
        {
          "time": 356.705334,
          "midi": 35,
          "name": "B1",
          "velocity": 1,
          "duration": 0.09062499999998863,
          "ticks": 110700,
          "durationTicks": 29
        },
        {
          "time": 356.799084,
          "midi": 33,
          "name": "A1",
          "velocity": 1,
          "duration": 0.09062499999998863,
          "ticks": 110730,
          "durationTicks": 29
        },
        {
          "time": 356.892834,
          "midi": 33,
          "name": "A1",
          "velocity": 1,
          "duration": 0.37187499999998863,
          "ticks": 110760,
          "durationTicks": 119
        },
        {
          "time": 357.642834,
          "midi": 45,
          "name": "A2",
          "velocity": 1,
          "duration": 0.37187499999998863,
          "ticks": 111000,
          "durationTicks": 119
        },
        {
          "time": 358.392834,
          "midi": 29,
          "name": "F1",
          "velocity": 1,
          "duration": 1.5386393583333415,
          "ticks": 111240,
          "durationTicks": 479
        }
      ],
      "controlChanges": {
        "7": [
          {
            "number": 7,
            "value": 0.7874015748031497,
            "time": 0,
            "ticks": 0
          }
        ],
        "10": [
          {
            "number": 10,
            "value": 0.9448818897637795,
            "time": 0,
            "ticks": 0
          }
        ],
        "91": [
          {
            "number": 91,
            "value": 0.4015748031496063,
            "time": 0.03125,
            "ticks": 10
          },
          {
            "number": 91,
            "value": 0.3937007874015748,
            "time": 0.28125,
            "ticks": 90
          },
          {
            "number": 91,
            "value": 0.3858267716535433,
            "time": 0.71875,
            "ticks": 230
          },
          {
            "number": 91,
            "value": 0.3779527559055118,
            "time": 0.875,
            "ticks": 280
          },
          {
            "number": 91,
            "value": 0.3858267716535433,
            "time": 1.34375,
            "ticks": 430
          },
          {
            "number": 91,
            "value": 0.3937007874015748,
            "time": 1.4375,
            "ticks": 460
          },
          {
            "number": 91,
            "value": 0.4015748031496063,
            "time": 1.465625,
            "ticks": 469
          }
        ],
        "93": [
          {
            "number": 93,
            "value": 0.6456692913385826,
            "time": 0.21875,
            "ticks": 70
          },
          {
            "number": 93,
            "value": 0.6456692913385826,
            "time": 0.3125,
            "ticks": 100
          }
        ]
      }
    },
    {
      "name": "Soprano solo",
      "channel": 0,
      "instrument": {
        "number": 90,
        "name": "pad 3 (polysynth)",
        "family": "synth pad"
      },
      "notes": [
        {
          "time": 272.892834,
          "midi": 74,
          "name": "D5",
          "velocity": 1,
          "duration": 0.37187499999998863,
          "ticks": 83880,
          "durationTicks": 119
        },
        {
          "time": 273.267834,
          "midi": 74,
          "name": "D5",
          "velocity": 1,
          "duration": 0.37187499999998863,
          "ticks": 84000,
          "durationTicks": 119
        },
        {
          "time": 273.642834,
          "midi": 76,
          "name": "E5",
          "velocity": 1,
          "duration": 0.37187499999998863,
          "ticks": 84120,
          "durationTicks": 119
        },
        {
          "time": 274.017834,
          "midi": 78,
          "name": "F#5",
          "velocity": 1,
          "duration": 0.37187499999998863,
          "ticks": 84240,
          "durationTicks": 119
        },
        {
          "time": 274.392834,
          "midi": 78,
          "name": "F#5",
          "velocity": 1,
          "duration": 0.37187499999998863,
          "ticks": 84360,
          "durationTicks": 119
        },
        {
          "time": 274.767834,
          "midi": 76,
          "name": "E5",
          "velocity": 1,
          "duration": 0.37187499999998863,
          "ticks": 84480,
          "durationTicks": 119
        },
        {
          "time": 275.142834,
          "midi": 74,
          "name": "D5",
          "velocity": 1,
          "duration": 0.37187499999998863,
          "ticks": 84600,
          "durationTicks": 119
        },
        {
          "time": 275.517834,
          "midi": 73,
          "name": "C#5",
          "velocity": 1,
          "duration": 0.37187499999998863,
          "ticks": 84720,
          "durationTicks": 119
        },
        {
          "time": 275.892834,
          "midi": 74,
          "name": "D5",
          "velocity": 0.8818897637795275,
          "duration": 0.37187499999998863,
          "ticks": 84840,
          "durationTicks": 119
        },
        {
          "time": 276.267834,
          "midi": 74,
          "name": "D5",
          "velocity": 1,
          "duration": 0.37187499999998863,
          "ticks": 84960,
          "durationTicks": 119
        },
        {
          "time": 276.642834,
          "midi": 76,
          "name": "E5",
          "velocity": 1,
          "duration": 0.37187499999998863,
          "ticks": 85080,
          "durationTicks": 119
        },
        {
          "time": 277.017834,
          "midi": 78,
          "name": "F#5",
          "velocity": 1,
          "duration": 0.37187499999998863,
          "ticks": 85200,
          "durationTicks": 119
        },
        {
          "time": 277.392834,
          "midi": 76,
          "name": "E5",
          "velocity": 1,
          "duration": 0.5593749999999886,
          "ticks": 85320,
          "durationTicks": 179
        },
        {
          "time": 277.955334,
          "midi": 74,
          "name": "D5",
          "velocity": 1,
          "duration": 0.18437499999998863,
          "ticks": 85500,
          "durationTicks": 59
        },
        {
          "time": 278.142834,
          "midi": 74,
          "name": "D5",
          "velocity": 1,
          "duration": 0.7468749999999886,
          "ticks": 85560,
          "durationTicks": 239
        },
        {
          "time": 278.892834,
          "midi": 76,
          "name": "E5",
          "velocity": 1,
          "duration": 0.37187499999998863,
          "ticks": 85800,
          "durationTicks": 119
        },
        {
          "time": 279.267834,
          "midi": 76,
          "name": "E5",
          "velocity": 1,
          "duration": 0.37187499999998863,
          "ticks": 85920,
          "durationTicks": 119
        },
        {
          "time": 279.642834,
          "midi": 78,
          "name": "F#5",
          "velocity": 1,
          "duration": 0.37187499999998863,
          "ticks": 86040,
          "durationTicks": 119
        },
        {
          "time": 280.017834,
          "midi": 74,
          "name": "D5",
          "velocity": 1,
          "duration": 0.37187499999998863,
          "ticks": 86160,
          "durationTicks": 119
        },
        {
          "time": 280.392834,
          "midi": 76,
          "name": "E5",
          "velocity": 1,
          "duration": 0.37187499999998863,
          "ticks": 86280,
          "durationTicks": 119
        },
        {
          "time": 280.767834,
          "midi": 78,
          "name": "F#5",
          "velocity": 1,
          "duration": 0.18437499999998863,
          "ticks": 86400,
          "durationTicks": 59
        },
        {
          "time": 280.955334,
          "midi": 79,
          "name": "G5",
          "velocity": 0.937007874015748,
          "duration": 0.18437499999998863,
          "ticks": 86460,
          "durationTicks": 59
        },
        {
          "time": 281.142834,
          "midi": 78,
          "name": "F#5",
          "velocity": 1,
          "duration": 0.37187499999998863,
          "ticks": 86520,
          "durationTicks": 119
        },
        {
          "time": 281.517834,
          "midi": 74,
          "name": "D5",
          "velocity": 1,
          "duration": 0.37187499999998863,
          "ticks": 86640,
          "durationTicks": 119
        },
        {
          "time": 281.892834,
          "midi": 76,
          "name": "E5",
          "velocity": 1,
          "duration": 0.37187499999998863,
          "ticks": 86760,
          "durationTicks": 119
        },
        {
          "time": 282.267834,
          "midi": 78,
          "name": "F#5",
          "velocity": 1,
          "duration": 0.18437499999998863,
          "ticks": 86880,
          "durationTicks": 59
        },
        {
          "time": 282.455334,
          "midi": 79,
          "name": "G5",
          "velocity": 0.8818897637795275,
          "duration": 0.18437499999998863,
          "ticks": 86940,
          "durationTicks": 59
        },
        {
          "time": 282.642834,
          "midi": 78,
          "name": "F#5",
          "velocity": 1,
          "duration": 0.37187499999998863,
          "ticks": 87000,
          "durationTicks": 119
        },
        {
          "time": 283.017834,
          "midi": 76,
          "name": "E5",
          "velocity": 1,
          "duration": 0.37187499999998863,
          "ticks": 87120,
          "durationTicks": 119
        },
        {
          "time": 283.392834,
          "midi": 74,
          "name": "D5",
          "velocity": 1,
          "duration": 0.37187499999998863,
          "ticks": 87240,
          "durationTicks": 119
        },
        {
          "time": 283.767834,
          "midi": 76,
          "name": "E5",
          "velocity": 1,
          "duration": 0.37187499999998863,
          "ticks": 87360,
          "durationTicks": 119
        },
        {
          "time": 284.142834,
          "midi": 69,
          "name": "A4",
          "velocity": 1,
          "duration": 0.37187499999998863,
          "ticks": 87480,
          "durationTicks": 119
        },
        {
          "time": 284.517834,
          "midi": 78,
          "name": "F#5",
          "velocity": 1,
          "duration": 0.7468749999999886,
          "ticks": 87600,
          "durationTicks": 239
        },
        {
          "time": 285.267834,
          "midi": 78,
          "name": "F#5",
          "velocity": 1,
          "duration": 0.37187499999998863,
          "ticks": 87840,
          "durationTicks": 119
        },
        {
          "time": 285.642834,
          "midi": 79,
          "name": "G5",
          "velocity": 1,
          "duration": 0.37187499999998863,
          "ticks": 87960,
          "durationTicks": 119
        },
        {
          "time": 286.017834,
          "midi": 81,
          "name": "A5",
          "velocity": 1,
          "duration": 0.37187499999998863,
          "ticks": 88080,
          "durationTicks": 119
        },
        {
          "time": 286.392834,
          "midi": 81,
          "name": "A5",
          "velocity": 1,
          "duration": 0.37187499999998863,
          "ticks": 88200,
          "durationTicks": 119
        },
        {
          "time": 286.767834,
          "midi": 79,
          "name": "G5",
          "velocity": 1,
          "duration": 0.37187499999998863,
          "ticks": 88320,
          "durationTicks": 119
        },
        {
          "time": 287.142834,
          "midi": 78,
          "name": "F#5",
          "velocity": 1,
          "duration": 0.37187499999998863,
          "ticks": 88440,
          "durationTicks": 119
        },
        {
          "time": 287.517834,
          "midi": 76,
          "name": "E5",
          "velocity": 0.6929133858267716,
          "duration": 0.37187499999998863,
          "ticks": 88560,
          "durationTicks": 119
        },
        {
          "time": 287.892834,
          "midi": 74,
          "name": "D5",
          "velocity": 1,
          "duration": 0.37187499999998863,
          "ticks": 88680,
          "durationTicks": 119
        },
        {
          "time": 288.267834,
          "midi": 74,
          "name": "D5",
          "velocity": 1,
          "duration": 0.37187499999998863,
          "ticks": 88800,
          "durationTicks": 119
        },
        {
          "time": 288.642834,
          "midi": 76,
          "name": "E5",
          "velocity": 1,
          "duration": 0.37187499999998863,
          "ticks": 88920,
          "durationTicks": 119
        },
        {
          "time": 289.017834,
          "midi": 78,
          "name": "F#5",
          "velocity": 1,
          "duration": 0.37187499999998863,
          "ticks": 89040,
          "durationTicks": 119
        },
        {
          "time": 289.392834,
          "midi": 76,
          "name": "E5",
          "velocity": 1,
          "duration": 0.5593749999999886,
          "ticks": 89160,
          "durationTicks": 179
        },
        {
          "time": 289.955334,
          "midi": 74,
          "name": "D5",
          "velocity": 1,
          "duration": 0.18437499999998863,
          "ticks": 89340,
          "durationTicks": 59
        },
        {
          "time": 290.142834,
          "midi": 74,
          "name": "D5",
          "velocity": 1,
          "duration": 0.7468749999999886,
          "ticks": 89400,
          "durationTicks": 239
        },
        {
          "time": 320.330334,
          "midi": 74,
          "name": "D5",
          "velocity": 1,
          "duration": 0.18437499999998863,
          "ticks": 99060,
          "durationTicks": 59
        },
        {
          "time": 320.517834,
          "midi": 76,
          "name": "E5",
          "velocity": 1,
          "duration": 0.18437499999998863,
          "ticks": 99120,
          "durationTicks": 59
        },
        {
          "time": 320.705334,
          "midi": 78,
          "name": "F#5",
          "velocity": 1,
          "duration": 0.18437499999998863,
          "ticks": 99180,
          "durationTicks": 59
        },
        {
          "time": 320.892834,
          "midi": 78,
          "name": "F#5",
          "velocity": 1,
          "duration": 0.18437499999998863,
          "ticks": 99240,
          "durationTicks": 59
        },
        {
          "time": 321.080334,
          "midi": 76,
          "name": "E5",
          "velocity": 1,
          "duration": 0.18437499999998863,
          "ticks": 99300,
          "durationTicks": 59
        },
        {
          "time": 321.267834,
          "midi": 74,
          "name": "D5",
          "velocity": 1,
          "duration": 0.18437499999998863,
          "ticks": 99360,
          "durationTicks": 59
        },
        {
          "time": 321.455334,
          "midi": 76,
          "name": "E5",
          "velocity": 1,
          "duration": 0.18437499999998863,
          "ticks": 99420,
          "durationTicks": 59
        },
        {
          "time": 321.642834,
          "midi": 79,
          "name": "G5",
          "velocity": 1,
          "duration": 0.18437499999998863,
          "ticks": 99480,
          "durationTicks": 59
        },
        {
          "time": 321.830334,
          "midi": 78,
          "name": "F#5",
          "velocity": 1,
          "duration": 0.18437499999998863,
          "ticks": 99540,
          "durationTicks": 59
        },
        {
          "time": 322.017834,
          "midi": 76,
          "name": "E5",
          "velocity": 1,
          "duration": 0.18437499999998863,
          "ticks": 99600,
          "durationTicks": 59
        },
        {
          "time": 322.205334,
          "midi": 74,
          "name": "D5",
          "velocity": 1,
          "duration": 0.18437499999998863,
          "ticks": 99660,
          "durationTicks": 59
        },
        {
          "time": 322.392834,
          "midi": 78,
          "name": "F#5",
          "velocity": 1,
          "duration": 0.18437499999998863,
          "ticks": 99720,
          "durationTicks": 59
        },
        {
          "time": 322.580334,
          "midi": 76,
          "name": "E5",
          "velocity": 1,
          "duration": 0.18437499999998863,
          "ticks": 99780,
          "durationTicks": 59
        },
        {
          "time": 322.767834,
          "midi": 74,
          "name": "D5",
          "velocity": 0.9763779527559056,
          "duration": 0.18437499999998863,
          "ticks": 99840,
          "durationTicks": 59
        },
        {
          "time": 322.955334,
          "midi": 76,
          "name": "E5",
          "velocity": 1,
          "duration": 0.18437499999998863,
          "ticks": 99900,
          "durationTicks": 59
        },
        {
          "time": 323.142834,
          "midi": 79,
          "name": "G5",
          "velocity": 1,
          "duration": 0.18437499999998863,
          "ticks": 99960,
          "durationTicks": 59
        },
        {
          "time": 323.330334,
          "midi": 78,
          "name": "F#5",
          "velocity": 1,
          "duration": 0.18437499999998863,
          "ticks": 100020,
          "durationTicks": 59
        },
        {
          "time": 323.517834,
          "midi": 76,
          "name": "E5",
          "velocity": 1,
          "duration": 0.18437499999998863,
          "ticks": 100080,
          "durationTicks": 59
        },
        {
          "time": 323.705334,
          "midi": 74,
          "name": "D5",
          "velocity": 1,
          "duration": 0.18437499999998863,
          "ticks": 100140,
          "durationTicks": 59
        },
        {
          "time": 323.892834,
          "midi": 78,
          "name": "F#5",
          "velocity": 0.937007874015748,
          "duration": 0.18437499999998863,
          "ticks": 100200,
          "durationTicks": 59
        },
        {
          "time": 324.080334,
          "midi": 76,
          "name": "E5",
          "velocity": 0.9763779527559056,
          "duration": 0.18437499999998863,
          "ticks": 100260,
          "durationTicks": 59
        },
        {
          "time": 324.267834,
          "midi": 74,
          "name": "D5",
          "velocity": 0.9763779527559056,
          "duration": 0.18437499999998863,
          "ticks": 100320,
          "durationTicks": 59
        },
        {
          "time": 324.455334,
          "midi": 76,
          "name": "E5",
          "velocity": 1,
          "duration": 0.18437499999998863,
          "ticks": 100380,
          "durationTicks": 59
        },
        {
          "time": 324.642834,
          "midi": 79,
          "name": "G5",
          "velocity": 0.937007874015748,
          "duration": 0.18437499999998863,
          "ticks": 100440,
          "durationTicks": 59
        },
        {
          "time": 324.830334,
          "midi": 78,
          "name": "F#5",
          "velocity": 0.9763779527559056,
          "duration": 0.18437499999998863,
          "ticks": 100500,
          "durationTicks": 59
        },
        {
          "time": 325.017834,
          "midi": 78,
          "name": "F#5",
          "velocity": 0.905511811023622,
          "duration": 0.18437499999998863,
          "ticks": 100560,
          "durationTicks": 59
        },
        {
          "time": 325.205334,
          "midi": 76,
          "name": "E5",
          "velocity": 0.8818897637795275,
          "duration": 0.18437499999998863,
          "ticks": 100620,
          "durationTicks": 59
        },
        {
          "time": 325.392834,
          "midi": 76,
          "name": "E5",
          "velocity": 1,
          "duration": 0.18437499999998863,
          "ticks": 100680,
          "durationTicks": 59
        },
        {
          "time": 325.580334,
          "midi": 74,
          "name": "D5",
          "velocity": 0.8818897637795275,
          "duration": 0.18437499999998863,
          "ticks": 100740,
          "durationTicks": 59
        },
        {
          "time": 325.767834,
          "midi": 74,
          "name": "D5",
          "velocity": 0.937007874015748,
          "duration": 0.18437499999998863,
          "ticks": 100800,
          "durationTicks": 59
        },
        {
          "time": 325.955334,
          "midi": 76,
          "name": "E5",
          "velocity": 1,
          "duration": 0.18437499999998863,
          "ticks": 100860,
          "durationTicks": 59
        },
        {
          "time": 326.142834,
          "midi": 69,
          "name": "A4",
          "velocity": 0.8818897637795275,
          "duration": 0.37187499999998863,
          "ticks": 100920,
          "durationTicks": 119
        },
        {
          "time": 326.517834,
          "midi": 78,
          "name": "F#5",
          "velocity": 1,
          "duration": 0.5593749999999886,
          "ticks": 101040,
          "durationTicks": 179
        },
        {
          "time": 327.080334,
          "midi": 79,
          "name": "G5",
          "velocity": 0.937007874015748,
          "duration": 0.18437499999998863,
          "ticks": 101220,
          "durationTicks": 59
        },
        {
          "time": 327.267834,
          "midi": 76,
          "name": "E5",
          "velocity": 1,
          "duration": 0.18437499999998863,
          "ticks": 101280,
          "durationTicks": 59
        },
        {
          "time": 327.455334,
          "midi": 78,
          "name": "F#5",
          "velocity": 1,
          "duration": 0.18437499999998863,
          "ticks": 101340,
          "durationTicks": 59
        },
        {
          "time": 327.642834,
          "midi": 79,
          "name": "G5",
          "velocity": 0.937007874015748,
          "duration": 0.18437499999998863,
          "ticks": 101400,
          "durationTicks": 59
        },
        {
          "time": 327.830334,
          "midi": 81,
          "name": "A5",
          "velocity": 0.905511811023622,
          "duration": 0.18437499999998863,
          "ticks": 101460,
          "durationTicks": 59
        },
        {
          "time": 328.017834,
          "midi": 83,
          "name": "B5",
          "velocity": 0.8031496062992126,
          "duration": 0.18437499999998863,
          "ticks": 101520,
          "durationTicks": 59
        },
        {
          "time": 328.205334,
          "midi": 81,
          "name": "A5",
          "velocity": 1,
          "duration": 0.18437499999998863,
          "ticks": 101580,
          "durationTicks": 59
        },
        {
          "time": 328.392834,
          "midi": 81,
          "name": "A5",
          "velocity": 0.905511811023622,
          "duration": 0.18437499999998863,
          "ticks": 101640,
          "durationTicks": 59
        },
        {
          "time": 328.580334,
          "midi": 79,
          "name": "G5",
          "velocity": 0.9763779527559056,
          "duration": 0.18437499999998863,
          "ticks": 101700,
          "durationTicks": 59
        },
        {
          "time": 328.767834,
          "midi": 83,
          "name": "B5",
          "velocity": 0.905511811023622,
          "duration": 0.18437499999998863,
          "ticks": 101760,
          "durationTicks": 59
        },
        {
          "time": 328.955334,
          "midi": 79,
          "name": "G5",
          "velocity": 0.8503937007874016,
          "duration": 0.18437499999998863,
          "ticks": 101820,
          "durationTicks": 59
        },
        {
          "time": 329.142834,
          "midi": 78,
          "name": "F#5",
          "velocity": 1,
          "duration": 0.18437499999998863,
          "ticks": 101880,
          "durationTicks": 59
        },
        {
          "time": 329.330334,
          "midi": 76,
          "name": "E5",
          "velocity": 0.8818897637795275,
          "duration": 0.18437499999998863,
          "ticks": 101940,
          "durationTicks": 59
        },
        {
          "time": 329.517834,
          "midi": 79,
          "name": "G5",
          "velocity": 0.937007874015748,
          "duration": 0.18437499999998863,
          "ticks": 102000,
          "durationTicks": 59
        },
        {
          "time": 329.705334,
          "midi": 76,
          "name": "E5",
          "velocity": 1,
          "duration": 0.18437499999998863,
          "ticks": 102060,
          "durationTicks": 59
        },
        {
          "time": 329.892834,
          "midi": 76,
          "name": "E5",
          "velocity": 1,
          "duration": 0.18437499999998863,
          "ticks": 102120,
          "durationTicks": 59
        },
        {
          "time": 330.080334,
          "midi": 74,
          "name": "D5",
          "velocity": 0.9763779527559056,
          "duration": 0.18437499999998863,
          "ticks": 102180,
          "durationTicks": 59
        },
        {
          "time": 330.267834,
          "midi": 73,
          "name": "C#5",
          "velocity": 1,
          "duration": 0.18437499999998863,
          "ticks": 102240,
          "durationTicks": 59
        },
        {
          "time": 330.455334,
          "midi": 74,
          "name": "D5",
          "velocity": 0.905511811023622,
          "duration": 0.18437499999998863,
          "ticks": 102300,
          "durationTicks": 59
        },
        {
          "time": 330.642834,
          "midi": 78,
          "name": "F#5",
          "velocity": 1,
          "duration": 0.18437499999998863,
          "ticks": 102360,
          "durationTicks": 59
        },
        {
          "time": 330.830334,
          "midi": 76,
          "name": "E5",
          "velocity": 1,
          "duration": 0.18437499999998863,
          "ticks": 102420,
          "durationTicks": 59
        },
        {
          "time": 331.017834,
          "midi": 79,
          "name": "G5",
          "velocity": 0.937007874015748,
          "duration": 0.18437499999998863,
          "ticks": 102480,
          "durationTicks": 59
        },
        {
          "time": 331.205334,
          "midi": 78,
          "name": "F#5",
          "velocity": 1,
          "duration": 0.18437499999998863,
          "ticks": 102540,
          "durationTicks": 59
        },
        {
          "time": 331.392834,
          "midi": 78,
          "name": "F#5",
          "velocity": 1,
          "duration": 0.18437499999998863,
          "ticks": 102600,
          "durationTicks": 59
        },
        {
          "time": 331.580334,
          "midi": 76,
          "name": "E5",
          "velocity": 1,
          "duration": 0.37187499999998863,
          "ticks": 102660,
          "durationTicks": 119
        },
        {
          "time": 331.955334,
          "midi": 69,
          "name": "A4",
          "velocity": 1,
          "duration": 0.18437499999998863,
          "ticks": 102780,
          "durationTicks": 59
        },
        {
          "time": 332.142834,
          "midi": 74,
          "name": "D5",
          "velocity": 1,
          "duration": 0.7468749999999886,
          "ticks": 102840,
          "durationTicks": 239
        }
      ],
      "controlChanges": {
        "7": [
          {
            "number": 7,
            "value": 1,
            "time": 0,
            "ticks": 0
          }
        ],
        "10": [
          {
            "number": 10,
            "value": 0.5039370078740157,
            "time": 0,
            "ticks": 0
          }
        ]
      }
    },
    {
      "name": "Alto solo",
      "channel": 0,
      "instrument": {
        "number": 90,
        "name": "pad 3 (polysynth)",
        "family": "synth pad"
      },
      "notes": [
        {
          "time": 266.892834,
          "midi": 66,
          "name": "F#4",
          "velocity": 0.9763779527559056,
          "duration": 0.37187499999998863,
          "ticks": 81960,
          "durationTicks": 119
        },
        {
          "time": 267.267834,
          "midi": 66,
          "name": "F#4",
          "velocity": 1,
          "duration": 0.37187499999998863,
          "ticks": 82080,
          "durationTicks": 119
        },
        {
          "time": 267.642834,
          "midi": 67,
          "name": "G4",
          "velocity": 0.8031496062992126,
          "duration": 0.37187499999998863,
          "ticks": 82200,
          "durationTicks": 119
        },
        {
          "time": 268.017834,
          "midi": 69,
          "name": "A4",
          "velocity": 0.9763779527559056,
          "duration": 0.37187499999998863,
          "ticks": 82320,
          "durationTicks": 119
        },
        {
          "time": 268.392834,
          "midi": 69,
          "name": "A4",
          "velocity": 1,
          "duration": 0.37187499999998863,
          "ticks": 82440,
          "durationTicks": 119
        },
        {
          "time": 268.767834,
          "midi": 67,
          "name": "G4",
          "velocity": 0.9763779527559056,
          "duration": 0.37187499999998863,
          "ticks": 82560,
          "durationTicks": 119
        },
        {
          "time": 269.142834,
          "midi": 66,
          "name": "F#4",
          "velocity": 1,
          "duration": 0.37187499999998863,
          "ticks": 82680,
          "durationTicks": 119
        },
        {
          "time": 269.517834,
          "midi": 64,
          "name": "E4",
          "velocity": 1,
          "duration": 0.37187499999998863,
          "ticks": 82800,
          "durationTicks": 119
        },
        {
          "time": 269.892834,
          "midi": 62,
          "name": "D4",
          "velocity": 1,
          "duration": 0.37187499999998863,
          "ticks": 82920,
          "durationTicks": 119
        },
        {
          "time": 270.267834,
          "midi": 62,
          "name": "D4",
          "velocity": 1,
          "duration": 0.37187499999998863,
          "ticks": 83040,
          "durationTicks": 119
        },
        {
          "time": 270.642834,
          "midi": 64,
          "name": "E4",
          "velocity": 1,
          "duration": 0.37187499999998863,
          "ticks": 83160,
          "durationTicks": 119
        },
        {
          "time": 271.017834,
          "midi": 66,
          "name": "F#4",
          "velocity": 1,
          "duration": 0.37187499999998863,
          "ticks": 83280,
          "durationTicks": 119
        },
        {
          "time": 271.392834,
          "midi": 66,
          "name": "F#4",
          "velocity": 1,
          "duration": 0.5593749999999886,
          "ticks": 83400,
          "durationTicks": 179
        },
        {
          "time": 271.955334,
          "midi": 64,
          "name": "E4",
          "velocity": 1,
          "duration": 0.18437499999998863,
          "ticks": 83580,
          "durationTicks": 59
        },
        {
          "time": 272.142834,
          "midi": 64,
          "name": "E4",
          "velocity": 1,
          "duration": 0.7468749999999886,
          "ticks": 83640,
          "durationTicks": 239
        },
        {
          "time": 272.892834,
          "midi": 66,
          "name": "F#4",
          "velocity": 1,
          "duration": 0.37187499999998863,
          "ticks": 83880,
          "durationTicks": 119
        },
        {
          "time": 273.267834,
          "midi": 66,
          "name": "F#4",
          "velocity": 1,
          "duration": 0.37187499999998863,
          "ticks": 84000,
          "durationTicks": 119
        },
        {
          "time": 273.642834,
          "midi": 67,
          "name": "G4",
          "velocity": 1,
          "duration": 0.37187499999998863,
          "ticks": 84120,
          "durationTicks": 119
        },
        {
          "time": 274.017834,
          "midi": 69,
          "name": "A4",
          "velocity": 1,
          "duration": 0.37187499999998863,
          "ticks": 84240,
          "durationTicks": 119
        },
        {
          "time": 274.392834,
          "midi": 69,
          "name": "A4",
          "velocity": 1,
          "duration": 0.37187499999998863,
          "ticks": 84360,
          "durationTicks": 119
        },
        {
          "time": 274.767834,
          "midi": 67,
          "name": "G4",
          "velocity": 1,
          "duration": 0.37187499999998863,
          "ticks": 84480,
          "durationTicks": 119
        },
        {
          "time": 275.142834,
          "midi": 66,
          "name": "F#4",
          "velocity": 1,
          "duration": 0.37187499999998863,
          "ticks": 84600,
          "durationTicks": 119
        },
        {
          "time": 275.517834,
          "midi": 64,
          "name": "E4",
          "velocity": 1,
          "duration": 0.37187499999998863,
          "ticks": 84720,
          "durationTicks": 119
        },
        {
          "time": 275.892834,
          "midi": 62,
          "name": "D4",
          "velocity": 1,
          "duration": 0.37187499999998863,
          "ticks": 84840,
          "durationTicks": 119
        },
        {
          "time": 276.267834,
          "midi": 66,
          "name": "F#4",
          "velocity": 1,
          "duration": 0.37187499999998863,
          "ticks": 84960,
          "durationTicks": 119
        },
        {
          "time": 276.642834,
          "midi": 67,
          "name": "G4",
          "velocity": 1,
          "duration": 0.37187499999998863,
          "ticks": 85080,
          "durationTicks": 119
        },
        {
          "time": 277.017834,
          "midi": 69,
          "name": "A4",
          "velocity": 1,
          "duration": 0.37187499999998863,
          "ticks": 85200,
          "durationTicks": 119
        },
        {
          "time": 277.392834,
          "midi": 67,
          "name": "G4",
          "velocity": 1,
          "duration": 0.5593749999999886,
          "ticks": 85320,
          "durationTicks": 179
        },
        {
          "time": 277.955334,
          "midi": 66,
          "name": "F#4",
          "velocity": 1,
          "duration": 0.18437499999998863,
          "ticks": 85500,
          "durationTicks": 59
        },
        {
          "time": 278.142834,
          "midi": 66,
          "name": "F#4",
          "velocity": 1,
          "duration": 0.18437499999998863,
          "ticks": 85560,
          "durationTicks": 59
        },
        {
          "time": 278.330334,
          "midi": 69,
          "name": "A4",
          "velocity": 0.9763779527559056,
          "duration": 0.18437499999998863,
          "ticks": 85620,
          "durationTicks": 59
        },
        {
          "time": 278.517834,
          "midi": 67,
          "name": "G4",
          "velocity": 0.9763779527559056,
          "duration": 0.18437499999998863,
          "ticks": 85680,
          "durationTicks": 59
        },
        {
          "time": 278.705334,
          "midi": 66,
          "name": "F#4",
          "velocity": 1,
          "duration": 0.18437499999998863,
          "ticks": 85740,
          "durationTicks": 59
        },
        {
          "time": 278.892834,
          "midi": 64,
          "name": "E4",
          "velocity": 1,
          "duration": 0.37187499999998863,
          "ticks": 85800,
          "durationTicks": 119
        },
        {
          "time": 279.267834,
          "midi": 69,
          "name": "A4",
          "velocity": 1,
          "duration": 0.37187499999998863,
          "ticks": 85920,
          "durationTicks": 119
        },
        {
          "time": 279.642834,
          "midi": 69,
          "name": "A4",
          "velocity": 1,
          "duration": 0.37187499999998863,
          "ticks": 86040,
          "durationTicks": 119
        },
        {
          "time": 280.017834,
          "midi": 66,
          "name": "F#4",
          "velocity": 1,
          "duration": 0.18437499999998863,
          "ticks": 86160,
          "durationTicks": 59
        },
        {
          "time": 280.205334,
          "midi": 69,
          "name": "A4",
          "velocity": 1,
          "duration": 0.18437499999998863,
          "ticks": 86220,
          "durationTicks": 59
        },
        {
          "time": 280.392834,
          "midi": 69,
          "name": "A4",
          "velocity": 1,
          "duration": 0.37187499999998863,
          "ticks": 86280,
          "durationTicks": 119
        },
        {
          "time": 280.767834,
          "midi": 69,
          "name": "A4",
          "velocity": 1,
          "duration": 0.37187499999998863,
          "ticks": 86400,
          "durationTicks": 119
        },
        {
          "time": 281.142834,
          "midi": 69,
          "name": "A4",
          "velocity": 1,
          "duration": 0.37187499999998863,
          "ticks": 86520,
          "durationTicks": 119
        },
        {
          "time": 281.517834,
          "midi": 67,
          "name": "G4",
          "velocity": 0.9763779527559056,
          "duration": 0.18437499999998863,
          "ticks": 86640,
          "durationTicks": 59
        },
        {
          "time": 281.705334,
          "midi": 66,
          "name": "F#4",
          "velocity": 1,
          "duration": 0.18437499999998863,
          "ticks": 86700,
          "durationTicks": 59
        },
        {
          "time": 281.892834,
          "midi": 64,
          "name": "E4",
          "velocity": 1,
          "duration": 0.18437499999998863,
          "ticks": 86760,
          "durationTicks": 59
        },
        {
          "time": 282.080334,
          "midi": 73,
          "name": "C#5",
          "velocity": 1,
          "duration": 0.18437499999998863,
          "ticks": 86820,
          "durationTicks": 59
        },
        {
          "time": 282.267834,
          "midi": 74,
          "name": "D5",
          "velocity": 1,
          "duration": 0.18437499999998863,
          "ticks": 86880,
          "durationTicks": 59
        },
        {
          "time": 282.455334,
          "midi": 76,
          "name": "E5",
          "velocity": 1,
          "duration": 0.18437499999998863,
          "ticks": 86940,
          "durationTicks": 59
        },
        {
          "time": 282.642834,
          "midi": 73,
          "name": "C#5",
          "velocity": 1,
          "duration": 0.37187499999998863,
          "ticks": 87000,
          "durationTicks": 119
        },
        {
          "time": 283.017834,
          "midi": 73,
          "name": "C#5",
          "velocity": 1,
          "duration": 0.37187499999998863,
          "ticks": 87120,
          "durationTicks": 119
        },
        {
          "time": 283.392834,
          "midi": 71,
          "name": "B4",
          "velocity": 1,
          "duration": 0.37187499999998863,
          "ticks": 87240,
          "durationTicks": 119
        },
        {
          "time": 283.767834,
          "midi": 68,
          "name": "G#4",
          "velocity": 1,
          "duration": 0.37187499999998863,
          "ticks": 87360,
          "durationTicks": 119
        },
        {
          "time": 284.142834,
          "midi": 69,
          "name": "A4",
          "velocity": 1,
          "duration": 0.37187499999998863,
          "ticks": 87480,
          "durationTicks": 119
        },
        {
          "time": 284.517834,
          "midi": 69,
          "name": "A4",
          "velocity": 1,
          "duration": 0.7468749999999886,
          "ticks": 87600,
          "durationTicks": 239
        },
        {
          "time": 285.267834,
          "midi": 69,
          "name": "A4",
          "velocity": 1,
          "duration": 0.37187499999998863,
          "ticks": 87840,
          "durationTicks": 119
        },
        {
          "time": 285.642834,
          "midi": 69,
          "name": "A4",
          "velocity": 1,
          "duration": 0.37187499999998863,
          "ticks": 87960,
          "durationTicks": 119
        },
        {
          "time": 286.017834,
          "midi": 69,
          "name": "A4",
          "velocity": 1,
          "duration": 0.37187499999998863,
          "ticks": 88080,
          "durationTicks": 119
        },
        {
          "time": 286.392834,
          "midi": 69,
          "name": "A4",
          "velocity": 1,
          "duration": 0.37187499999998863,
          "ticks": 88200,
          "durationTicks": 119
        },
        {
          "time": 286.767834,
          "midi": 69,
          "name": "A4",
          "velocity": 0.8818897637795275,
          "duration": 0.37187499999998863,
          "ticks": 88320,
          "durationTicks": 119
        },
        {
          "time": 287.142834,
          "midi": 69,
          "name": "A4",
          "velocity": 0.905511811023622,
          "duration": 0.37187499999998863,
          "ticks": 88440,
          "durationTicks": 119
        },
        {
          "time": 287.517834,
          "midi": 69,
          "name": "A4",
          "velocity": 0.937007874015748,
          "duration": 0.37187499999998863,
          "ticks": 88560,
          "durationTicks": 119
        },
        {
          "time": 287.892834,
          "midi": 69,
          "name": "A4",
          "velocity": 0.937007874015748,
          "duration": 0.37187499999998863,
          "ticks": 88680,
          "durationTicks": 119
        },
        {
          "time": 288.267834,
          "midi": 66,
          "name": "F#4",
          "velocity": 1,
          "duration": 0.37187499999998863,
          "ticks": 88800,
          "durationTicks": 119
        },
        {
          "time": 288.642834,
          "midi": 67,
          "name": "G4",
          "velocity": 0.9763779527559056,
          "duration": 0.37187499999998863,
          "ticks": 88920,
          "durationTicks": 119
        },
        {
          "time": 289.017834,
          "midi": 69,
          "name": "A4",
          "velocity": 1,
          "duration": 0.37187499999998863,
          "ticks": 89040,
          "durationTicks": 119
        },
        {
          "time": 289.392834,
          "midi": 67,
          "name": "G4",
          "velocity": 1,
          "duration": 0.5593749999999886,
          "ticks": 89160,
          "durationTicks": 179
        },
        {
          "time": 289.955334,
          "midi": 66,
          "name": "F#4",
          "velocity": 1,
          "duration": 0.18437499999998863,
          "ticks": 89340,
          "durationTicks": 59
        },
        {
          "time": 290.142834,
          "midi": 66,
          "name": "F#4",
          "velocity": 1,
          "duration": 0.7468749999999886,
          "ticks": 89400,
          "durationTicks": 239
        },
        {
          "time": 314.142834,
          "midi": 67,
          "name": "G4",
          "velocity": 0.937007874015748,
          "duration": 0.18437499999998863,
          "ticks": 97080,
          "durationTicks": 59
        },
        {
          "time": 314.330334,
          "midi": 66,
          "name": "F#4",
          "velocity": 1,
          "duration": 0.18437499999998863,
          "ticks": 97140,
          "durationTicks": 59
        },
        {
          "time": 314.517834,
          "midi": 69,
          "name": "A4",
          "velocity": 0.937007874015748,
          "duration": 0.18437499999998863,
          "ticks": 97200,
          "durationTicks": 59
        },
        {
          "time": 314.705334,
          "midi": 67,
          "name": "G4",
          "velocity": 1,
          "duration": 0.18437499999998863,
          "ticks": 97260,
          "durationTicks": 59
        },
        {
          "time": 314.892834,
          "midi": 66,
          "name": "F#4",
          "velocity": 1,
          "duration": 0.18437499999998863,
          "ticks": 97320,
          "durationTicks": 59
        },
        {
          "time": 315.080334,
          "midi": 67,
          "name": "G4",
          "velocity": 0.9763779527559056,
          "duration": 0.18437499999998863,
          "ticks": 97380,
          "durationTicks": 59
        },
        {
          "time": 315.267834,
          "midi": 68,
          "name": "G#4",
          "velocity": 1,
          "duration": 0.18437499999998863,
          "ticks": 97440,
          "durationTicks": 59
        },
        {
          "time": 315.455334,
          "midi": 69,
          "name": "A4",
          "velocity": 0.905511811023622,
          "duration": 0.18437499999998863,
          "ticks": 97500,
          "durationTicks": 59
        },
        {
          "time": 315.642834,
          "midi": 67,
          "name": "G4",
          "velocity": 0.9763779527559056,
          "duration": 0.18437499999998863,
          "ticks": 97560,
          "durationTicks": 59
        },
        {
          "time": 315.830334,
          "midi": 69,
          "name": "A4",
          "velocity": 1,
          "duration": 0.18437499999998863,
          "ticks": 97620,
          "durationTicks": 59
        },
        {
          "time": 316.017834,
          "midi": 71,
          "name": "B4",
          "velocity": 1,
          "duration": 0.18437499999998863,
          "ticks": 97680,
          "durationTicks": 59
        },
        {
          "time": 316.205334,
          "midi": 69,
          "name": "A4",
          "velocity": 1,
          "duration": 0.18437499999998863,
          "ticks": 97740,
          "durationTicks": 59
        },
        {
          "time": 316.392834,
          "midi": 69,
          "name": "A4",
          "velocity": 0.9763779527559056,
          "duration": 0.18437499999998863,
          "ticks": 97800,
          "durationTicks": 59
        },
        {
          "time": 316.580334,
          "midi": 67,
          "name": "G4",
          "velocity": 0.8818897637795275,
          "duration": 0.18437499999998863,
          "ticks": 97860,
          "durationTicks": 59
        },
        {
          "time": 316.767834,
          "midi": 71,
          "name": "B4",
          "velocity": 1,
          "duration": 0.18437499999998863,
          "ticks": 97920,
          "durationTicks": 59
        },
        {
          "time": 316.955334,
          "midi": 67,
          "name": "G4",
          "velocity": 1,
          "duration": 0.18437499999998863,
          "ticks": 97980,
          "durationTicks": 59
        },
        {
          "time": 317.142834,
          "midi": 66,
          "name": "F#4",
          "velocity": 1,
          "duration": 0.18437499999998863,
          "ticks": 98040,
          "durationTicks": 59
        },
        {
          "time": 317.330334,
          "midi": 64,
          "name": "E4",
          "velocity": 1,
          "duration": 0.18437499999998863,
          "ticks": 98100,
          "durationTicks": 59
        },
        {
          "time": 317.517834,
          "midi": 67,
          "name": "G4",
          "velocity": 1,
          "duration": 0.18437499999998863,
          "ticks": 98160,
          "durationTicks": 59
        },
        {
          "time": 317.705334,
          "midi": 64,
          "name": "E4",
          "velocity": 1,
          "duration": 0.18437499999998863,
          "ticks": 98220,
          "durationTicks": 59
        },
        {
          "time": 317.892834,
          "midi": 62,
          "name": "D4",
          "velocity": 1,
          "duration": 0.18437499999998863,
          "ticks": 98280,
          "durationTicks": 59
        },
        {
          "time": 318.080334,
          "midi": 64,
          "name": "E4",
          "velocity": 1,
          "duration": 0.18437499999998863,
          "ticks": 98340,
          "durationTicks": 59
        },
        {
          "time": 318.267834,
          "midi": 66,
          "name": "F#4",
          "velocity": 1,
          "duration": 0.18437499999998863,
          "ticks": 98400,
          "durationTicks": 59
        },
        {
          "time": 318.455334,
          "midi": 67,
          "name": "G4",
          "velocity": 0.8818897637795275,
          "duration": 0.18437499999998863,
          "ticks": 98460,
          "durationTicks": 59
        },
        {
          "time": 318.642834,
          "midi": 69,
          "name": "A4",
          "velocity": 1,
          "duration": 0.18437499999998863,
          "ticks": 98520,
          "durationTicks": 59
        },
        {
          "time": 318.830334,
          "midi": 71,
          "name": "B4",
          "velocity": 1,
          "duration": 0.18437499999998863,
          "ticks": 98580,
          "durationTicks": 59
        },
        {
          "time": 319.017834,
          "midi": 73,
          "name": "C#5",
          "velocity": 1,
          "duration": 0.18437499999998863,
          "ticks": 98640,
          "durationTicks": 59
        },
        {
          "time": 319.205334,
          "midi": 74,
          "name": "D5",
          "velocity": 0.9763779527559056,
          "duration": 0.18437499999998863,
          "ticks": 98700,
          "durationTicks": 59
        },
        {
          "time": 319.392834,
          "midi": 74,
          "name": "D5",
          "velocity": 0.905511811023622,
          "duration": 0.18437499999998863,
          "ticks": 98760,
          "durationTicks": 59
        },
        {
          "time": 319.580334,
          "midi": 73,
          "name": "C#5",
          "velocity": 1,
          "duration": 0.18437499999998863,
          "ticks": 98820,
          "durationTicks": 59
        },
        {
          "time": 319.767834,
          "midi": 71,
          "name": "B4",
          "velocity": 1,
          "duration": 0.18437499999998863,
          "ticks": 98880,
          "durationTicks": 59
        },
        {
          "time": 319.955334,
          "midi": 73,
          "name": "C#5",
          "velocity": 1,
          "duration": 0.18437499999998863,
          "ticks": 98940,
          "durationTicks": 59
        },
        {
          "time": 320.142834,
          "midi": 74,
          "name": "D5",
          "velocity": 1,
          "duration": 0.18437499999998863,
          "ticks": 99000,
          "durationTicks": 59
        },
        {
          "time": 320.330334,
          "midi": 69,
          "name": "A4",
          "velocity": 1,
          "duration": 0.18437499999998863,
          "ticks": 99060,
          "durationTicks": 59
        },
        {
          "time": 320.517834,
          "midi": 67,
          "name": "G4",
          "velocity": 1,
          "duration": 0.18437499999998863,
          "ticks": 99120,
          "durationTicks": 59
        },
        {
          "time": 320.705334,
          "midi": 66,
          "name": "F#4",
          "velocity": 1,
          "duration": 0.18437499999998863,
          "ticks": 99180,
          "durationTicks": 59
        },
        {
          "time": 320.892834,
          "midi": 64,
          "name": "E4",
          "velocity": 1,
          "duration": 0.37187499999998863,
          "ticks": 99240,
          "durationTicks": 119
        },
        {
          "time": 321.267834,
          "midi": 69,
          "name": "A4",
          "velocity": 1,
          "duration": 0.37187499999998863,
          "ticks": 99360,
          "durationTicks": 119
        },
        {
          "time": 321.642834,
          "midi": 69,
          "name": "A4",
          "velocity": 1,
          "duration": 0.37187499999998863,
          "ticks": 99480,
          "durationTicks": 119
        },
        {
          "time": 322.017834,
          "midi": 69,
          "name": "A4",
          "velocity": 1,
          "duration": 0.37187499999998863,
          "ticks": 99600,
          "durationTicks": 119
        },
        {
          "time": 322.392834,
          "midi": 69,
          "name": "A4",
          "velocity": 1,
          "duration": 0.37187499999998863,
          "ticks": 99720,
          "durationTicks": 119
        },
        {
          "time": 322.767834,
          "midi": 69,
          "name": "A4",
          "velocity": 1,
          "duration": 0.37187499999998863,
          "ticks": 99840,
          "durationTicks": 119
        },
        {
          "time": 323.142834,
          "midi": 69,
          "name": "A4",
          "velocity": 1,
          "duration": 0.37187499999998863,
          "ticks": 99960,
          "durationTicks": 119
        },
        {
          "time": 323.517834,
          "midi": 73,
          "name": "C#5",
          "velocity": 1,
          "duration": 0.18437499999998863,
          "ticks": 100080,
          "durationTicks": 59
        },
        {
          "time": 323.705334,
          "midi": 74,
          "name": "D5",
          "velocity": 1,
          "duration": 0.18437499999998863,
          "ticks": 100140,
          "durationTicks": 59
        },
        {
          "time": 323.892834,
          "midi": 74,
          "name": "D5",
          "velocity": 1,
          "duration": 0.18437499999998863,
          "ticks": 100200,
          "durationTicks": 59
        },
        {
          "time": 324.080334,
          "midi": 73,
          "name": "C#5",
          "velocity": 1,
          "duration": 0.18437499999998863,
          "ticks": 100260,
          "durationTicks": 59
        },
        {
          "time": 324.267834,
          "midi": 71,
          "name": "B4",
          "velocity": 1,
          "duration": 0.18437499999998863,
          "ticks": 100320,
          "durationTicks": 59
        },
        {
          "time": 324.455334,
          "midi": 73,
          "name": "C#5",
          "velocity": 1,
          "duration": 0.18437499999998863,
          "ticks": 100380,
          "durationTicks": 59
        },
        {
          "time": 324.642834,
          "midi": 76,
          "name": "E5",
          "velocity": 1,
          "duration": 0.18437499999998863,
          "ticks": 100440,
          "durationTicks": 59
        },
        {
          "time": 324.830334,
          "midi": 74,
          "name": "D5",
          "velocity": 1,
          "duration": 0.18437499999998863,
          "ticks": 100500,
          "durationTicks": 59
        },
        {
          "time": 325.017834,
          "midi": 74,
          "name": "D5",
          "velocity": 1,
          "duration": 0.18437499999998863,
          "ticks": 100560,
          "durationTicks": 59
        },
        {
          "time": 325.205334,
          "midi": 73,
          "name": "C#5",
          "velocity": 1,
          "duration": 0.18437499999998863,
          "ticks": 100620,
          "durationTicks": 59
        },
        {
          "time": 325.392834,
          "midi": 73,
          "name": "C#5",
          "velocity": 1,
          "duration": 0.18437499999998863,
          "ticks": 100680,
          "durationTicks": 59
        },
        {
          "time": 325.580334,
          "midi": 74,
          "name": "D5",
          "velocity": 1,
          "duration": 0.18437499999998863,
          "ticks": 100740,
          "durationTicks": 59
        },
        {
          "time": 325.767834,
          "midi": 71,
          "name": "B4",
          "velocity": 1,
          "duration": 0.37187499999998863,
          "ticks": 100800,
          "durationTicks": 119
        },
        {
          "time": 326.142834,
          "midi": 69,
          "name": "A4",
          "velocity": 1,
          "duration": 0.37187499999998863,
          "ticks": 100920,
          "durationTicks": 119
        },
        {
          "time": 326.517834,
          "midi": 69,
          "name": "A4",
          "velocity": 1,
          "duration": 0.7468749999999886,
          "ticks": 101040,
          "durationTicks": 239
        },
        {
          "time": 327.267834,
          "midi": 69,
          "name": "A4",
          "velocity": 1,
          "duration": 0.37187499999998863,
          "ticks": 101280,
          "durationTicks": 119
        },
        {
          "time": 327.642834,
          "midi": 62,
          "name": "D4",
          "velocity": 1,
          "duration": 0.37187499999998863,
          "ticks": 101400,
          "durationTicks": 119
        },
        {
          "time": 328.017834,
          "midi": 62,
          "name": "D4",
          "velocity": 1,
          "duration": 0.37187499999998863,
          "ticks": 101520,
          "durationTicks": 119
        },
        {
          "time": 328.392834,
          "midi": 62,
          "name": "D4",
          "velocity": 1,
          "duration": 0.37187499999998863,
          "ticks": 101640,
          "durationTicks": 119
        },
        {
          "time": 328.767834,
          "midi": 67,
          "name": "G4",
          "velocity": 1,
          "duration": 0.37187499999998863,
          "ticks": 101760,
          "durationTicks": 119
        },
        {
          "time": 329.142834,
          "midi": 67,
          "name": "G4",
          "velocity": 1,
          "duration": 0.18437499999998863,
          "ticks": 101880,
          "durationTicks": 59
        },
        {
          "time": 329.330334,
          "midi": 76,
          "name": "E5",
          "velocity": 1,
          "duration": 0.18437499999998863,
          "ticks": 101940,
          "durationTicks": 59
        },
        {
          "time": 329.517834,
          "midi": 76,
          "name": "E5",
          "velocity": 0.9763779527559056,
          "duration": 0.18437499999998863,
          "ticks": 102000,
          "durationTicks": 59
        },
        {
          "time": 329.705334,
          "midi": 67,
          "name": "G4",
          "velocity": 1,
          "duration": 0.18437499999998863,
          "ticks": 102060,
          "durationTicks": 59
        },
        {
          "time": 329.892834,
          "midi": 67,
          "name": "G4",
          "velocity": 0.9763779527559056,
          "duration": 0.18437499999998863,
          "ticks": 102120,
          "durationTicks": 59
        },
        {
          "time": 330.080334,
          "midi": 69,
          "name": "A4",
          "velocity": 1,
          "duration": 0.18437499999998863,
          "ticks": 102180,
          "durationTicks": 59
        },
        {
          "time": 330.267834,
          "midi": 69,
          "name": "A4",
          "velocity": 1,
          "duration": 0.37187499999998863,
          "ticks": 102240,
          "durationTicks": 119
        },
        {
          "time": 330.642834,
          "midi": 66,
          "name": "F#4",
          "velocity": 1,
          "duration": 0.18437499999998863,
          "ticks": 102360,
          "durationTicks": 59
        },
        {
          "time": 330.830334,
          "midi": 67,
          "name": "G4",
          "velocity": 1,
          "duration": 0.37187499999998863,
          "ticks": 102420,
          "durationTicks": 119
        },
        {
          "time": 331.205334,
          "midi": 69,
          "name": "A4",
          "velocity": 1,
          "duration": 0.18437499999998863,
          "ticks": 102540,
          "durationTicks": 59
        },
        {
          "time": 331.392834,
          "midi": 74,
          "name": "D5",
          "velocity": 0.9763779527559056,
          "duration": 0.18437499999998863,
          "ticks": 102600,
          "durationTicks": 59
        },
        {
          "time": 331.580334,
          "midi": 73,
          "name": "C#5",
          "velocity": 1,
          "duration": 0.37187499999998863,
          "ticks": 102660,
          "durationTicks": 119
        },
        {
          "time": 331.955334,
          "midi": 74,
          "name": "D5",
          "velocity": 1,
          "duration": 0.18437499999998863,
          "ticks": 102780,
          "durationTicks": 59
        },
        {
          "time": 332.142834,
          "midi": 74,
          "name": "D5",
          "velocity": 1,
          "duration": 0.7468749999999886,
          "ticks": 102840,
          "durationTicks": 239
        }
      ],
      "controlChanges": {
        "7": [
          {
            "number": 7,
            "value": 1,
            "time": 0,
            "ticks": 0
          }
        ],
        "10": [
          {
            "number": 10,
            "value": 0.5039370078740157,
            "time": 0,
            "ticks": 0
          }
        ]
      }
    },
    {
      "name": "Tenor solo",
      "channel": 0,
      "instrument": {
        "number": 85,
        "name": "lead 6 (voice)",
        "family": "synth lead"
      },
      "notes": [
        {
          "time": 266.892834,
          "midi": 74,
          "name": "D5",
          "velocity": 1,
          "duration": 0.37187499999998863,
          "ticks": 81960,
          "durationTicks": 119
        },
        {
          "time": 267.267834,
          "midi": 74,
          "name": "D5",
          "velocity": 1,
          "duration": 0.37187499999998863,
          "ticks": 82080,
          "durationTicks": 119
        },
        {
          "time": 267.642834,
          "midi": 76,
          "name": "E5",
          "velocity": 1,
          "duration": 0.37187499999998863,
          "ticks": 82200,
          "durationTicks": 119
        },
        {
          "time": 268.017834,
          "midi": 78,
          "name": "F#5",
          "velocity": 1,
          "duration": 0.37187499999998863,
          "ticks": 82320,
          "durationTicks": 119
        },
        {
          "time": 268.392834,
          "midi": 78,
          "name": "F#5",
          "velocity": 1,
          "duration": 0.37187499999998863,
          "ticks": 82440,
          "durationTicks": 119
        },
        {
          "time": 268.767834,
          "midi": 76,
          "name": "E5",
          "velocity": 1,
          "duration": 0.37187499999998863,
          "ticks": 82560,
          "durationTicks": 119
        },
        {
          "time": 269.142834,
          "midi": 74,
          "name": "D5",
          "velocity": 1,
          "duration": 0.37187499999998863,
          "ticks": 82680,
          "durationTicks": 119
        },
        {
          "time": 269.517834,
          "midi": 73,
          "name": "C#5",
          "velocity": 1,
          "duration": 0.37187499999998863,
          "ticks": 82800,
          "durationTicks": 119
        },
        {
          "time": 269.892834,
          "midi": 78,
          "name": "F#5",
          "velocity": 1,
          "duration": 0.37187499999998863,
          "ticks": 82920,
          "durationTicks": 119
        },
        {
          "time": 270.267834,
          "midi": 78,
          "name": "F#5",
          "velocity": 1,
          "duration": 0.37187499999998863,
          "ticks": 83040,
          "durationTicks": 119
        },
        {
          "time": 270.642834,
          "midi": 79,
          "name": "G5",
          "velocity": 1,
          "duration": 0.18437499999998863,
          "ticks": 83160,
          "durationTicks": 59
        },
        {
          "time": 270.830334,
          "midi": 78,
          "name": "F#5",
          "velocity": 1,
          "duration": 0.18437499999998863,
          "ticks": 83220,
          "durationTicks": 59
        },
        {
          "time": 271.017834,
          "midi": 76,
          "name": "E5",
          "velocity": 1,
          "duration": 0.18437499999998863,
          "ticks": 83280,
          "durationTicks": 59
        },
        {
          "time": 271.205334,
          "midi": 74,
          "name": "D5",
          "velocity": 1,
          "duration": 0.18437499999998863,
          "ticks": 83340,
          "durationTicks": 59
        },
        {
          "time": 271.392834,
          "midi": 74,
          "name": "D5",
          "velocity": 1,
          "duration": 0.5593749999999886,
          "ticks": 83400,
          "durationTicks": 179
        },
        {
          "time": 271.955334,
          "midi": 73,
          "name": "C#5",
          "velocity": 1,
          "duration": 0.18437499999998863,
          "ticks": 83580,
          "durationTicks": 59
        },
        {
          "time": 272.142834,
          "midi": 73,
          "name": "C#5",
          "velocity": 1,
          "duration": 0.37187499999998863,
          "ticks": 83640,
          "durationTicks": 119
        },
        {
          "time": 272.517834,
          "midi": 69,
          "name": "A4",
          "velocity": 1,
          "duration": 0.18437499999998863,
          "ticks": 83760,
          "durationTicks": 59
        },
        {
          "time": 272.705334,
          "midi": 67,
          "name": "G4",
          "velocity": 1,
          "duration": 0.18437499999998863,
          "ticks": 83820,
          "durationTicks": 59
        },
        {
          "time": 272.892834,
          "midi": 66,
          "name": "F#4",
          "velocity": 1,
          "duration": 0.37187499999998863,
          "ticks": 83880,
          "durationTicks": 119
        },
        {
          "time": 273.267834,
          "midi": 69,
          "name": "A4",
          "velocity": 1,
          "duration": 0.37187499999998863,
          "ticks": 84000,
          "durationTicks": 119
        },
        {
          "time": 273.642834,
          "midi": 69,
          "name": "A4",
          "velocity": 1,
          "duration": 0.37187499999998863,
          "ticks": 84120,
          "durationTicks": 119
        },
        {
          "time": 274.017834,
          "midi": 69,
          "name": "A4",
          "velocity": 1,
          "duration": 0.18437499999998863,
          "ticks": 84240,
          "durationTicks": 59
        },
        {
          "time": 274.205334,
          "midi": 74,
          "name": "D5",
          "velocity": 1,
          "duration": 0.18437499999998863,
          "ticks": 84300,
          "durationTicks": 59
        },
        {
          "time": 274.392834,
          "midi": 73,
          "name": "C#5",
          "velocity": 1,
          "duration": 0.18437499999998863,
          "ticks": 84360,
          "durationTicks": 59
        },
        {
          "time": 274.580334,
          "midi": 74,
          "name": "D5",
          "velocity": 1,
          "duration": 0.18437499999998863,
          "ticks": 84420,
          "durationTicks": 59
        },
        {
          "time": 274.767834,
          "midi": 76,
          "name": "E5",
          "velocity": 0.937007874015748,
          "duration": 0.18437499999998863,
          "ticks": 84480,
          "durationTicks": 59
        },
        {
          "time": 274.955334,
          "midi": 78,
          "name": "F#5",
          "velocity": 1,
          "duration": 0.18437499999998863,
          "ticks": 84540,
          "durationTicks": 59
        },
        {
          "time": 275.142834,
          "midi": 79,
          "name": "G5",
          "velocity": 0.937007874015748,
          "duration": 0.18437499999998863,
          "ticks": 84600,
          "durationTicks": 59
        },
        {
          "time": 275.330334,
          "midi": 69,
          "name": "A4",
          "velocity": 0.9763779527559056,
          "duration": 0.18437499999998863,
          "ticks": 84660,
          "durationTicks": 59
        },
        {
          "time": 275.517834,
          "midi": 71,
          "name": "B4",
          "velocity": 1,
          "duration": 0.18437499999998863,
          "ticks": 84720,
          "durationTicks": 59
        },
        {
          "time": 275.705334,
          "midi": 67,
          "name": "G4",
          "velocity": 1,
          "duration": 0.18437499999998863,
          "ticks": 84780,
          "durationTicks": 59
        },
        {
          "time": 275.892834,
          "midi": 66,
          "name": "F#4",
          "velocity": 1,
          "duration": 0.37187499999998863,
          "ticks": 84840,
          "durationTicks": 119
        },
        {
          "time": 276.267834,
          "midi": 74,
          "name": "D5",
          "velocity": 1,
          "duration": 0.37187499999998863,
          "ticks": 84960,
          "durationTicks": 119
        },
        {
          "time": 276.642834,
          "midi": 74,
          "name": "D5",
          "velocity": 1,
          "duration": 0.37187499999998863,
          "ticks": 85080,
          "durationTicks": 119
        },
        {
          "time": 277.017834,
          "midi": 73,
          "name": "C#5",
          "velocity": 1,
          "duration": 0.18437499999998863,
          "ticks": 85200,
          "durationTicks": 59
        },
        {
          "time": 277.205334,
          "midi": 71,
          "name": "B4",
          "velocity": 1,
          "duration": 0.18437499999998863,
          "ticks": 85260,
          "durationTicks": 59
        },
        {
          "time": 277.392834,
          "midi": 73,
          "name": "C#5",
          "velocity": 1,
          "duration": 0.5593749999999886,
          "ticks": 85320,
          "durationTicks": 179
        },
        {
          "time": 277.955334,
          "midi": 74,
          "name": "D5",
          "velocity": 1,
          "duration": 0.18437499999998863,
          "ticks": 85500,
          "durationTicks": 59
        },
        {
          "time": 278.142834,
          "midi": 74,
          "name": "D5",
          "velocity": 1,
          "duration": 0.18437499999998863,
          "ticks": 85560,
          "durationTicks": 59
        },
        {
          "time": 278.330334,
          "midi": 78,
          "name": "F#5",
          "velocity": 1,
          "duration": 0.18437499999998863,
          "ticks": 85620,
          "durationTicks": 59
        },
        {
          "time": 278.517834,
          "midi": 76,
          "name": "E5",
          "velocity": 0.9763779527559056,
          "duration": 0.18437499999998863,
          "ticks": 85680,
          "durationTicks": 59
        },
        {
          "time": 278.705334,
          "midi": 74,
          "name": "D5",
          "velocity": 1,
          "duration": 0.18437499999998863,
          "ticks": 85740,
          "durationTicks": 59
        },
        {
          "time": 278.892834,
          "midi": 73,
          "name": "C#5",
          "velocity": 1,
          "duration": 0.37187499999998863,
          "ticks": 85800,
          "durationTicks": 119
        },
        {
          "time": 279.267834,
          "midi": 73,
          "name": "C#5",
          "velocity": 1,
          "duration": 0.37187499999998863,
          "ticks": 85920,
          "durationTicks": 119
        },
        {
          "time": 279.642834,
          "midi": 74,
          "name": "D5",
          "velocity": 1,
          "duration": 0.37187499999998863,
          "ticks": 86040,
          "durationTicks": 119
        },
        {
          "time": 280.017834,
          "midi": 74,
          "name": "D5",
          "velocity": 1,
          "duration": 0.18437499999998863,
          "ticks": 86160,
          "durationTicks": 59
        },
        {
          "time": 280.205334,
          "midi": 78,
          "name": "F#5",
          "velocity": 1,
          "duration": 0.18437499999998863,
          "ticks": 86220,
          "durationTicks": 59
        },
        {
          "time": 280.392834,
          "midi": 73,
          "name": "C#5",
          "velocity": 1,
          "duration": 0.37187499999998863,
          "ticks": 86280,
          "durationTicks": 119
        },
        {
          "time": 280.767834,
          "midi": 74,
          "name": "D5",
          "velocity": 1,
          "duration": 0.18437499999998863,
          "ticks": 86400,
          "durationTicks": 59
        },
        {
          "time": 280.955334,
          "midi": 76,
          "name": "E5",
          "velocity": 1,
          "duration": 0.18437499999998863,
          "ticks": 86460,
          "durationTicks": 59
        },
        {
          "time": 281.142834,
          "midi": 74,
          "name": "D5",
          "velocity": 1,
          "duration": 0.37187499999998863,
          "ticks": 86520,
          "durationTicks": 119
        },
        {
          "time": 281.517834,
          "midi": 76,
          "name": "E5",
          "velocity": 1,
          "duration": 0.18437499999998863,
          "ticks": 86640,
          "durationTicks": 59
        },
        {
          "time": 281.705334,
          "midi": 74,
          "name": "D5",
          "velocity": 0.8267716535433071,
          "duration": 0.18437499999998863,
          "ticks": 86700,
          "durationTicks": 59
        },
        {
          "time": 281.892834,
          "midi": 73,
          "name": "C#5",
          "velocity": 1,
          "duration": 0.18437499999998863,
          "ticks": 86760,
          "durationTicks": 59
        },
        {
          "time": 282.080334,
          "midi": 76,
          "name": "E5",
          "velocity": 1,
          "duration": 0.18437499999998863,
          "ticks": 86820,
          "durationTicks": 59
        },
        {
          "time": 282.267834,
          "midi": 74,
          "name": "D5",
          "velocity": 1,
          "duration": 0.18437499999998863,
          "ticks": 86880,
          "durationTicks": 59
        },
        {
          "time": 282.455334,
          "midi": 73,
          "name": "C#5",
          "velocity": 1,
          "duration": 0.18437499999998863,
          "ticks": 86940,
          "durationTicks": 59
        },
        {
          "time": 282.642834,
          "midi": 73,
          "name": "C#5",
          "velocity": 1,
          "duration": 0.37187499999998863,
          "ticks": 87000,
          "durationTicks": 119
        },
        {
          "time": 283.017834,
          "midi": 70,
          "name": "A#4",
          "velocity": 1,
          "duration": 0.37187499999998863,
          "ticks": 87120,
          "durationTicks": 119
        },
        {
          "time": 283.392834,
          "midi": 71,
          "name": "B4",
          "velocity": 0.9763779527559056,
          "duration": 0.37187499999998863,
          "ticks": 87240,
          "durationTicks": 119
        },
        {
          "time": 283.767834,
          "midi": 71,
          "name": "B4",
          "velocity": 1,
          "duration": 0.37187499999998863,
          "ticks": 87360,
          "durationTicks": 119
        },
        {
          "time": 284.142834,
          "midi": 73,
          "name": "C#5",
          "velocity": 1,
          "duration": 0.37187499999998863,
          "ticks": 87480,
          "durationTicks": 119
        },
        {
          "time": 284.517834,
          "midi": 74,
          "name": "D5",
          "velocity": 1,
          "duration": 0.7468749999999886,
          "ticks": 87600,
          "durationTicks": 239
        },
        {
          "time": 285.267834,
          "midi": 74,
          "name": "D5",
          "velocity": 0.9763779527559056,
          "duration": 0.37187499999998863,
          "ticks": 87840,
          "durationTicks": 119
        },
        {
          "time": 285.642834,
          "midi": 76,
          "name": "E5",
          "velocity": 1,
          "duration": 0.37187499999998863,
          "ticks": 87960,
          "durationTicks": 119
        },
        {
          "time": 286.017834,
          "midi": 78,
          "name": "F#5",
          "velocity": 1,
          "duration": 0.37187499999998863,
          "ticks": 88080,
          "durationTicks": 119
        },
        {
          "time": 286.392834,
          "midi": 78,
          "name": "F#5",
          "velocity": 1,
          "duration": 0.37187499999998863,
          "ticks": 88200,
          "durationTicks": 119
        },
        {
          "time": 286.767834,
          "midi": 76,
          "name": "E5",
          "velocity": 1,
          "duration": 0.37187499999998863,
          "ticks": 88320,
          "durationTicks": 119
        },
        {
          "time": 287.142834,
          "midi": 74,
          "name": "D5",
          "velocity": 0.937007874015748,
          "duration": 0.37187499999998863,
          "ticks": 88440,
          "durationTicks": 119
        },
        {
          "time": 287.517834,
          "midi": 73,
          "name": "C#5",
          "velocity": 1,
          "duration": 0.37187499999998863,
          "ticks": 88560,
          "durationTicks": 119
        },
        {
          "time": 287.892834,
          "midi": 74,
          "name": "D5",
          "velocity": 0.9763779527559056,
          "duration": 0.37187499999998863,
          "ticks": 88680,
          "durationTicks": 119
        },
        {
          "time": 288.267834,
          "midi": 69,
          "name": "A4",
          "velocity": 1,
          "duration": 0.37187499999998863,
          "ticks": 88800,
          "durationTicks": 119
        },
        {
          "time": 288.642834,
          "midi": 69,
          "name": "A4",
          "velocity": 1,
          "duration": 0.37187499999998863,
          "ticks": 88920,
          "durationTicks": 119
        },
        {
          "time": 289.017834,
          "midi": 69,
          "name": "A4",
          "velocity": 1,
          "duration": 0.37187499999998863,
          "ticks": 89040,
          "durationTicks": 119
        },
        {
          "time": 289.392834,
          "midi": 73,
          "name": "C#5",
          "velocity": 1,
          "duration": 0.5593749999999886,
          "ticks": 89160,
          "durationTicks": 179
        },
        {
          "time": 289.955334,
          "midi": 74,
          "name": "D5",
          "velocity": 1,
          "duration": 0.18437499999998863,
          "ticks": 89340,
          "durationTicks": 59
        },
        {
          "time": 290.142834,
          "midi": 74,
          "name": "D5",
          "velocity": 1,
          "duration": 0.7468749999999886,
          "ticks": 89400,
          "durationTicks": 239
        },
        {
          "time": 308.330334,
          "midi": 69,
          "name": "A4",
          "velocity": 0.8031496062992126,
          "duration": 0.18437499999998863,
          "ticks": 95220,
          "durationTicks": 59
        },
        {
          "time": 308.517834,
          "midi": 71,
          "name": "B4",
          "velocity": 0.8818897637795275,
          "duration": 0.18437499999998863,
          "ticks": 95280,
          "durationTicks": 59
        },
        {
          "time": 308.705334,
          "midi": 73,
          "name": "C#5",
          "velocity": 1,
          "duration": 0.18437499999998863,
          "ticks": 95340,
          "durationTicks": 59
        },
        {
          "time": 308.892834,
          "midi": 74,
          "name": "D5",
          "velocity": 0.8267716535433071,
          "duration": 0.18437499999998863,
          "ticks": 95400,
          "durationTicks": 59
        },
        {
          "time": 309.080334,
          "midi": 76,
          "name": "E5",
          "velocity": 0.7244094488188977,
          "duration": 0.18437499999998863,
          "ticks": 95460,
          "durationTicks": 59
        },
        {
          "time": 309.267834,
          "midi": 73,
          "name": "C#5",
          "velocity": 1,
          "duration": 0.18437499999998863,
          "ticks": 95520,
          "durationTicks": 59
        },
        {
          "time": 309.455334,
          "midi": 74,
          "name": "D5",
          "velocity": 0.9763779527559056,
          "duration": 0.18437499999998863,
          "ticks": 95580,
          "durationTicks": 59
        },
        {
          "time": 309.642834,
          "midi": 76,
          "name": "E5",
          "velocity": 1,
          "duration": 0.18437499999998863,
          "ticks": 95640,
          "durationTicks": 59
        },
        {
          "time": 309.830334,
          "midi": 78,
          "name": "F#5",
          "velocity": 0.905511811023622,
          "duration": 0.18437499999998863,
          "ticks": 95700,
          "durationTicks": 59
        },
        {
          "time": 310.017834,
          "midi": 79,
          "name": "G5",
          "velocity": 0.8267716535433071,
          "duration": 0.18437499999998863,
          "ticks": 95760,
          "durationTicks": 59
        },
        {
          "time": 310.205334,
          "midi": 78,
          "name": "F#5",
          "velocity": 0.9763779527559056,
          "duration": 0.18437499999998863,
          "ticks": 95820,
          "durationTicks": 59
        },
        {
          "time": 310.392834,
          "midi": 78,
          "name": "F#5",
          "velocity": 1,
          "duration": 0.18437499999998863,
          "ticks": 95880,
          "durationTicks": 59
        },
        {
          "time": 310.580334,
          "midi": 76,
          "name": "E5",
          "velocity": 1,
          "duration": 0.18437499999998863,
          "ticks": 95940,
          "durationTicks": 59
        },
        {
          "time": 310.767834,
          "midi": 79,
          "name": "G5",
          "velocity": 0.8818897637795275,
          "duration": 0.18437499999998863,
          "ticks": 96000,
          "durationTicks": 59
        },
        {
          "time": 310.955334,
          "midi": 76,
          "name": "E5",
          "velocity": 1,
          "duration": 0.18437499999998863,
          "ticks": 96060,
          "durationTicks": 59
        },
        {
          "time": 311.142834,
          "midi": 74,
          "name": "D5",
          "velocity": 0.905511811023622,
          "duration": 0.18437499999998863,
          "ticks": 96120,
          "durationTicks": 59
        },
        {
          "time": 311.330334,
          "midi": 73,
          "name": "C#5",
          "velocity": 1,
          "duration": 0.18437499999998863,
          "ticks": 96180,
          "durationTicks": 59
        },
        {
          "time": 311.517834,
          "midi": 76,
          "name": "E5",
          "velocity": 0.8818897637795275,
          "duration": 0.18437499999998863,
          "ticks": 96240,
          "durationTicks": 59
        },
        {
          "time": 311.705334,
          "midi": 67,
          "name": "G4",
          "velocity": 0.8267716535433071,
          "duration": 0.18437499999998863,
          "ticks": 96300,
          "durationTicks": 59
        },
        {
          "time": 311.892834,
          "midi": 66,
          "name": "F#4",
          "velocity": 1,
          "duration": 0.18437499999998863,
          "ticks": 96360,
          "durationTicks": 59
        },
        {
          "time": 312.080334,
          "midi": 67,
          "name": "G4",
          "velocity": 0.905511811023622,
          "duration": 0.18437499999998863,
          "ticks": 96420,
          "durationTicks": 59
        },
        {
          "time": 312.267834,
          "midi": 69,
          "name": "A4",
          "velocity": 0.9763779527559056,
          "duration": 0.18437499999998863,
          "ticks": 96480,
          "durationTicks": 59
        },
        {
          "time": 312.455334,
          "midi": 71,
          "name": "B4",
          "velocity": 0.9763779527559056,
          "duration": 0.18437499999998863,
          "ticks": 96540,
          "durationTicks": 59
        },
        {
          "time": 312.642834,
          "midi": 73,
          "name": "C#5",
          "velocity": 1,
          "duration": 0.18437499999998863,
          "ticks": 96600,
          "durationTicks": 59
        },
        {
          "time": 312.830334,
          "midi": 74,
          "name": "D5",
          "velocity": 0.9763779527559056,
          "duration": 0.18437499999998863,
          "ticks": 96660,
          "durationTicks": 59
        },
        {
          "time": 313.017834,
          "midi": 76,
          "name": "E5",
          "velocity": 0.8818897637795275,
          "duration": 0.18437499999998863,
          "ticks": 96720,
          "durationTicks": 59
        },
        {
          "time": 313.205334,
          "midi": 78,
          "name": "F#5",
          "velocity": 1,
          "duration": 0.18437499999998863,
          "ticks": 96780,
          "durationTicks": 59
        },
        {
          "time": 313.392834,
          "midi": 78,
          "name": "F#5",
          "velocity": 1,
          "duration": 0.18437499999998863,
          "ticks": 96840,
          "durationTicks": 59
        },
        {
          "time": 313.580334,
          "midi": 76,
          "name": "E5",
          "velocity": 1,
          "duration": 0.18437499999998863,
          "ticks": 96900,
          "durationTicks": 59
        },
        {
          "time": 313.767834,
          "midi": 79,
          "name": "G5",
          "velocity": 0.8818897637795275,
          "duration": 0.18437499999998863,
          "ticks": 96960,
          "durationTicks": 59
        },
        {
          "time": 313.955334,
          "midi": 78,
          "name": "F#5",
          "velocity": 1,
          "duration": 0.18437499999998863,
          "ticks": 97020,
          "durationTicks": 59
        },
        {
          "time": 314.142834,
          "midi": 76,
          "name": "E5",
          "velocity": 1,
          "duration": 0.7468749999999886,
          "ticks": 97080,
          "durationTicks": 239
        },
        {
          "time": 314.892834,
          "midi": 78,
          "name": "F#5",
          "velocity": 1,
          "duration": 0.37187499999998863,
          "ticks": 97320,
          "durationTicks": 119
        },
        {
          "time": 315.267834,
          "midi": 78,
          "name": "F#5",
          "velocity": 1,
          "duration": 0.37187499999998863,
          "ticks": 97440,
          "durationTicks": 119
        },
        {
          "time": 315.642834,
          "midi": 78,
          "name": "F#5",
          "velocity": 1,
          "duration": 0.37187499999998863,
          "ticks": 97560,
          "durationTicks": 119
        },
        {
          "time": 316.017834,
          "midi": 78,
          "name": "F#5",
          "velocity": 1,
          "duration": 0.37187499999998863,
          "ticks": 97680,
          "durationTicks": 119
        },
        {
          "time": 316.392834,
          "midi": 74,
          "name": "D5",
          "velocity": 1,
          "duration": 0.37187499999998863,
          "ticks": 97800,
          "durationTicks": 119
        },
        {
          "time": 316.767834,
          "midi": 74,
          "name": "D5",
          "velocity": 1,
          "duration": 0.37187499999998863,
          "ticks": 97920,
          "durationTicks": 119
        },
        {
          "time": 317.142834,
          "midi": 76,
          "name": "E5",
          "velocity": 1,
          "duration": 0.37187499999998863,
          "ticks": 98040,
          "durationTicks": 119
        },
        {
          "time": 317.517834,
          "midi": 76,
          "name": "E5",
          "velocity": 1,
          "duration": 0.37187499999998863,
          "ticks": 98160,
          "durationTicks": 119
        },
        {
          "time": 317.892834,
          "midi": 78,
          "name": "F#5",
          "velocity": 1,
          "duration": 0.18437499999998863,
          "ticks": 98280,
          "durationTicks": 59
        },
        {
          "time": 318.080334,
          "midi": 76,
          "name": "E5",
          "velocity": 1,
          "duration": 0.18437499999998863,
          "ticks": 98340,
          "durationTicks": 59
        },
        {
          "time": 318.267834,
          "midi": 74,
          "name": "D5",
          "velocity": 0.9763779527559056,
          "duration": 0.18437499999998863,
          "ticks": 98400,
          "durationTicks": 59
        },
        {
          "time": 318.455334,
          "midi": 73,
          "name": "C#5",
          "velocity": 1,
          "duration": 0.18437499999998863,
          "ticks": 98460,
          "durationTicks": 59
        },
        {
          "time": 318.642834,
          "midi": 71,
          "name": "B4",
          "velocity": 1,
          "duration": 0.18437499999998863,
          "ticks": 98520,
          "durationTicks": 59
        },
        {
          "time": 318.830334,
          "midi": 69,
          "name": "A4",
          "velocity": 1,
          "duration": 0.18437499999998863,
          "ticks": 98580,
          "durationTicks": 59
        },
        {
          "time": 319.017834,
          "midi": 67,
          "name": "G4",
          "velocity": 0.9763779527559056,
          "duration": 0.18437499999998863,
          "ticks": 98640,
          "durationTicks": 59
        },
        {
          "time": 319.205334,
          "midi": 66,
          "name": "F#4",
          "velocity": 1,
          "duration": 0.18437499999998863,
          "ticks": 98700,
          "durationTicks": 59
        },
        {
          "time": 319.392834,
          "midi": 69,
          "name": "A4",
          "velocity": 0.9763779527559056,
          "duration": 0.18437499999998863,
          "ticks": 98760,
          "durationTicks": 59
        },
        {
          "time": 319.580334,
          "midi": 67,
          "name": "G4",
          "velocity": 1,
          "duration": 0.18437499999998863,
          "ticks": 98820,
          "durationTicks": 59
        },
        {
          "time": 319.767834,
          "midi": 66,
          "name": "F#4",
          "velocity": 1,
          "duration": 0.18437499999998863,
          "ticks": 98880,
          "durationTicks": 59
        },
        {
          "time": 319.955334,
          "midi": 67,
          "name": "G4",
          "velocity": 1,
          "duration": 0.18437499999998863,
          "ticks": 98940,
          "durationTicks": 59
        },
        {
          "time": 320.142834,
          "midi": 66,
          "name": "F#4",
          "velocity": 1,
          "duration": 0.37187499999998863,
          "ticks": 99000,
          "durationTicks": 119
        },
        {
          "time": 320.517834,
          "midi": 69,
          "name": "A4",
          "velocity": 1,
          "duration": 0.37187499999998863,
          "ticks": 99120,
          "durationTicks": 119
        },
        {
          "time": 320.892834,
          "midi": 74,
          "name": "D5",
          "velocity": 0.9763779527559056,
          "duration": 0.18437499999998863,
          "ticks": 99240,
          "durationTicks": 59
        },
        {
          "time": 321.080334,
          "midi": 73,
          "name": "C#5",
          "velocity": 1,
          "duration": 0.18437499999998863,
          "ticks": 99300,
          "durationTicks": 59
        },
        {
          "time": 321.267834,
          "midi": 71,
          "name": "B4",
          "velocity": 1,
          "duration": 0.18437499999998863,
          "ticks": 99360,
          "durationTicks": 59
        },
        {
          "time": 321.455334,
          "midi": 73,
          "name": "C#5",
          "velocity": 1,
          "duration": 0.18437499999998863,
          "ticks": 99420,
          "durationTicks": 59
        },
        {
          "time": 321.642834,
          "midi": 76,
          "name": "E5",
          "velocity": 0.9763779527559056,
          "duration": 0.18437499999998863,
          "ticks": 99480,
          "durationTicks": 59
        },
        {
          "time": 321.830334,
          "midi": 74,
          "name": "D5",
          "velocity": 0.937007874015748,
          "duration": 0.18437499999998863,
          "ticks": 99540,
          "durationTicks": 59
        },
        {
          "time": 322.017834,
          "midi": 73,
          "name": "C#5",
          "velocity": 1,
          "duration": 0.18437499999998863,
          "ticks": 99600,
          "durationTicks": 59
        },
        {
          "time": 322.205334,
          "midi": 74,
          "name": "D5",
          "velocity": 1,
          "duration": 0.18437499999998863,
          "ticks": 99660,
          "durationTicks": 59
        },
        {
          "time": 322.392834,
          "midi": 74,
          "name": "D5",
          "velocity": 0.9763779527559056,
          "duration": 0.18437499999998863,
          "ticks": 99720,
          "durationTicks": 59
        },
        {
          "time": 322.580334,
          "midi": 73,
          "name": "C#5",
          "velocity": 1,
          "duration": 0.18437499999998863,
          "ticks": 99780,
          "durationTicks": 59
        },
        {
          "time": 322.767834,
          "midi": 71,
          "name": "B4",
          "velocity": 0.937007874015748,
          "duration": 0.18437499999998863,
          "ticks": 99840,
          "durationTicks": 59
        },
        {
          "time": 322.955334,
          "midi": 73,
          "name": "C#5",
          "velocity": 1,
          "duration": 0.18437499999998863,
          "ticks": 99900,
          "durationTicks": 59
        },
        {
          "time": 323.142834,
          "midi": 76,
          "name": "E5",
          "velocity": 0.937007874015748,
          "duration": 0.18437499999998863,
          "ticks": 99960,
          "durationTicks": 59
        },
        {
          "time": 323.330334,
          "midi": 74,
          "name": "D5",
          "velocity": 0.9763779527559056,
          "duration": 0.18437499999998863,
          "ticks": 100020,
          "durationTicks": 59
        },
        {
          "time": 323.517834,
          "midi": 73,
          "name": "C#5",
          "velocity": 1,
          "duration": 0.18437499999998863,
          "ticks": 100080,
          "durationTicks": 59
        },
        {
          "time": 323.705334,
          "midi": 74,
          "name": "D5",
          "velocity": 1,
          "duration": 0.18437499999998863,
          "ticks": 100140,
          "durationTicks": 59
        },
        {
          "time": 323.892834,
          "midi": 74,
          "name": "D5",
          "velocity": 1,
          "duration": 0.18437499999998863,
          "ticks": 100200,
          "durationTicks": 59
        },
        {
          "time": 324.080334,
          "midi": 76,
          "name": "E5",
          "velocity": 1,
          "duration": 0.18437499999998863,
          "ticks": 100260,
          "durationTicks": 59
        },
        {
          "time": 324.267834,
          "midi": 78,
          "name": "F#5",
          "velocity": 1,
          "duration": 0.18437499999998863,
          "ticks": 100320,
          "durationTicks": 59
        },
        {
          "time": 324.455334,
          "midi": 76,
          "name": "E5",
          "velocity": 1,
          "duration": 0.18437499999998863,
          "ticks": 100380,
          "durationTicks": 59
        },
        {
          "time": 324.642834,
          "midi": 76,
          "name": "E5",
          "velocity": 1,
          "duration": 0.18437499999998863,
          "ticks": 100440,
          "durationTicks": 59
        },
        {
          "time": 324.830334,
          "midi": 78,
          "name": "F#5",
          "velocity": 1,
          "duration": 0.18437499999998863,
          "ticks": 100500,
          "durationTicks": 59
        },
        {
          "time": 325.017834,
          "midi": 78,
          "name": "F#5",
          "velocity": 1,
          "duration": 0.18437499999998863,
          "ticks": 100560,
          "durationTicks": 59
        },
        {
          "time": 325.205334,
          "midi": 79,
          "name": "G5",
          "velocity": 0.9763779527559056,
          "duration": 0.18437499999998863,
          "ticks": 100620,
          "durationTicks": 59
        },
        {
          "time": 325.392834,
          "midi": 79,
          "name": "G5",
          "velocity": 0.937007874015748,
          "duration": 0.18437499999998863,
          "ticks": 100680,
          "durationTicks": 59
        },
        {
          "time": 325.580334,
          "midi": 78,
          "name": "F#5",
          "velocity": 1,
          "duration": 0.18437499999998863,
          "ticks": 100740,
          "durationTicks": 59
        },
        {
          "time": 325.767834,
          "midi": 78,
          "name": "F#5",
          "velocity": 1,
          "duration": 0.18437499999998863,
          "ticks": 100800,
          "durationTicks": 59
        },
        {
          "time": 325.955334,
          "midi": 76,
          "name": "E5",
          "velocity": 1,
          "duration": 0.18437499999998863,
          "ticks": 100860,
          "durationTicks": 59
        },
        {
          "time": 326.142834,
          "midi": 69,
          "name": "A4",
          "velocity": 0.937007874015748,
          "duration": 0.37187499999998863,
          "ticks": 100920,
          "durationTicks": 119
        },
        {
          "time": 326.517834,
          "midi": 74,
          "name": "D5",
          "velocity": 1,
          "duration": 0.5593749999999886,
          "ticks": 101040,
          "durationTicks": 179
        },
        {
          "time": 327.080334,
          "midi": 76,
          "name": "E5",
          "velocity": 1,
          "duration": 0.18437499999998863,
          "ticks": 101220,
          "durationTicks": 59
        },
        {
          "time": 327.267834,
          "midi": 73,
          "name": "C#5",
          "velocity": 1,
          "duration": 0.18437499999998863,
          "ticks": 101280,
          "durationTicks": 59
        },
        {
          "time": 327.455334,
          "midi": 74,
          "name": "D5",
          "velocity": 0.937007874015748,
          "duration": 0.18437499999998863,
          "ticks": 101340,
          "durationTicks": 59
        },
        {
          "time": 327.642834,
          "midi": 76,
          "name": "E5",
          "velocity": 1,
          "duration": 0.18437499999998863,
          "ticks": 101400,
          "durationTicks": 59
        },
        {
          "time": 327.830334,
          "midi": 78,
          "name": "F#5",
          "velocity": 1,
          "duration": 0.18437499999998863,
          "ticks": 101460,
          "durationTicks": 59
        },
        {
          "time": 328.017834,
          "midi": 79,
          "name": "G5",
          "velocity": 0.8818897637795275,
          "duration": 0.18437499999998863,
          "ticks": 101520,
          "durationTicks": 59
        },
        {
          "time": 328.205334,
          "midi": 78,
          "name": "F#5",
          "velocity": 1,
          "duration": 0.18437499999998863,
          "ticks": 101580,
          "durationTicks": 59
        },
        {
          "time": 328.392834,
          "midi": 78,
          "name": "F#5",
          "velocity": 1,
          "duration": 0.18437499999998863,
          "ticks": 101640,
          "durationTicks": 59
        },
        {
          "time": 328.580334,
          "midi": 76,
          "name": "E5",
          "velocity": 1,
          "duration": 0.18437499999998863,
          "ticks": 101700,
          "durationTicks": 59
        },
        {
          "time": 328.767834,
          "midi": 79,
          "name": "G5",
          "velocity": 0.937007874015748,
          "duration": 0.18437499999998863,
          "ticks": 101760,
          "durationTicks": 59
        },
        {
          "time": 328.955334,
          "midi": 76,
          "name": "E5",
          "velocity": 1,
          "duration": 0.18437499999998863,
          "ticks": 101820,
          "durationTicks": 59
        },
        {
          "time": 329.142834,
          "midi": 76,
          "name": "E5",
          "velocity": 1,
          "duration": 0.37187499999998863,
          "ticks": 101880,
          "durationTicks": 119
        },
        {
          "time": 329.517834,
          "midi": 76,
          "name": "E5",
          "velocity": 1,
          "duration": 0.37187499999998863,
          "ticks": 102000,
          "durationTicks": 119
        },
        {
          "time": 329.892834,
          "midi": 76,
          "name": "E5",
          "velocity": 1,
          "duration": 0.18437499999998863,
          "ticks": 102120,
          "durationTicks": 59
        },
        {
          "time": 330.080334,
          "midi": 78,
          "name": "F#5",
          "velocity": 1,
          "duration": 0.18437499999998863,
          "ticks": 102180,
          "durationTicks": 59
        },
        {
          "time": 330.267834,
          "midi": 79,
          "name": "G5",
          "velocity": 1,
          "duration": 0.18437499999998863,
          "ticks": 102240,
          "durationTicks": 59
        },
        {
          "time": 330.455334,
          "midi": 81,
          "name": "A5",
          "velocity": 1,
          "duration": 0.18437499999998863,
          "ticks": 102300,
          "durationTicks": 59
        },
        {
          "time": 330.642834,
          "midi": 74,
          "name": "D5",
          "velocity": 1,
          "duration": 0.18437499999998863,
          "ticks": 102360,
          "durationTicks": 59
        },
        {
          "time": 330.830334,
          "midi": 76,
          "name": "E5",
          "velocity": 1,
          "duration": 0.37187499999998863,
          "ticks": 102420,
          "durationTicks": 119
        },
        {
          "time": 331.205334,
          "midi": 78,
          "name": "F#5",
          "velocity": 1,
          "duration": 0.18437499999998863,
          "ticks": 102540,
          "durationTicks": 59
        },
        {
          "time": 331.392834,
          "midi": 78,
          "name": "F#5",
          "velocity": 1,
          "duration": 0.18437499999998863,
          "ticks": 102600,
          "durationTicks": 59
        },
        {
          "time": 331.580334,
          "midi": 79,
          "name": "G5",
          "velocity": 1,
          "duration": 0.37187499999998863,
          "ticks": 102660,
          "durationTicks": 119
        },
        {
          "time": 331.955334,
          "midi": 78,
          "name": "F#5",
          "velocity": 1,
          "duration": 0.18437499999998863,
          "ticks": 102780,
          "durationTicks": 59
        },
        {
          "time": 332.142834,
          "midi": 78,
          "name": "F#5",
          "velocity": 1,
          "duration": 0.7468749999999886,
          "ticks": 102840,
          "durationTicks": 239
        }
      ],
      "controlChanges": {
        "7": [
          {
            "number": 7,
            "value": 1,
            "time": 0,
            "ticks": 0
          }
        ],
        "10": [
          {
            "number": 10,
            "value": 0.5039370078740157,
            "time": 0,
            "ticks": 0
          }
        ]
      }
    },
    {
      "name": "Baritono Solo",
      "channel": 0,
      "instrument": {
        "number": 85,
        "name": "lead 6 (voice)",
        "family": "synth lead"
      },
      "notes": [
        {
          "time": 189.857142,
          "midi": 57,
          "name": "A3",
          "velocity": 1,
          "duration": 0.42499957499998686,
          "ticks": 59280,
          "durationTicks": 119
        },
        {
          "time": 190.285713,
          "midi": 57,
          "name": "A3",
          "velocity": 1,
          "duration": 0.049999950000000126,
          "ticks": 59400,
          "durationTicks": 14
        },
        {
          "time": 190.339284375,
          "midi": 64,
          "name": "E4",
          "velocity": 1,
          "duration": 1.6607126250000022,
          "ticks": 59415,
          "durationTicks": 465
        },
        {
          "time": 190.339284375,
          "midi": 61,
          "name": "C#4",
          "velocity": 1,
          "duration": 1.6607126250000022,
          "ticks": 59415,
          "durationTicks": 465
        },
        {
          "time": 192.017854125,
          "midi": 62,
          "name": "D4",
          "velocity": 1,
          "duration": 0.2107140749999985,
          "ticks": 59885,
          "durationTicks": 59
        },
        {
          "time": 192.232139625,
          "midi": 61,
          "name": "C#4",
          "velocity": 1,
          "duration": 0.2107140749999985,
          "ticks": 59945,
          "durationTicks": 59
        },
        {
          "time": 192.446425125,
          "midi": 62,
          "name": "D4",
          "velocity": 1,
          "duration": 0.2107140749999985,
          "ticks": 60005,
          "durationTicks": 59
        },
        {
          "time": 192.660710625,
          "midi": 64,
          "name": "E4",
          "velocity": 1,
          "duration": 0.2107140749999985,
          "ticks": 60065,
          "durationTicks": 59
        },
        {
          "time": 192.874996125,
          "midi": 64,
          "name": "E4",
          "velocity": 1,
          "duration": 0.4249995750000153,
          "ticks": 60125,
          "durationTicks": 119
        },
        {
          "time": 193.303567125,
          "midi": 55,
          "name": "G3",
          "velocity": 1,
          "duration": 0.42499957499998686,
          "ticks": 60245,
          "durationTicks": 119
        },
        {
          "time": 193.946423625,
          "midi": 55,
          "name": "G3",
          "velocity": 1,
          "duration": 0.2107140749999985,
          "ticks": 60425,
          "durationTicks": 59
        },
        {
          "time": 194.142852,
          "midi": 58,
          "name": "A#3",
          "velocity": 1,
          "duration": 0.853570574999992,
          "ticks": 60480,
          "durationTicks": 239
        },
        {
          "time": 194.99999400000002,
          "midi": 57,
          "name": "A3",
          "velocity": 1,
          "duration": 0.2107140749999985,
          "ticks": 60720,
          "durationTicks": 59
        },
        {
          "time": 195.2142795,
          "midi": 52,
          "name": "E3",
          "velocity": 1,
          "duration": 0.2107140749999985,
          "ticks": 60780,
          "durationTicks": 59
        },
        {
          "time": 195.428565,
          "midi": 53,
          "name": "F3",
          "velocity": 1,
          "duration": 0.4249995750000153,
          "ticks": 60840,
          "durationTicks": 119
        },
        {
          "time": 195.857136,
          "midi": 53,
          "name": "F3",
          "velocity": 1,
          "duration": 0.4249995750000153,
          "ticks": 60960,
          "durationTicks": 119
        },
        {
          "time": 199.285704,
          "midi": 56,
          "name": "G#3",
          "velocity": 1,
          "duration": 0.853570574999992,
          "ticks": 61920,
          "durationTicks": 239
        },
        {
          "time": 200.142846,
          "midi": 56,
          "name": "G#3",
          "velocity": 1,
          "duration": 0.4249995750000153,
          "ticks": 62160,
          "durationTicks": 119
        },
        {
          "time": 200.999988,
          "midi": 62,
          "name": "D4",
          "velocity": 1,
          "duration": 0.6392850750000036,
          "ticks": 62400,
          "durationTicks": 179
        },
        {
          "time": 201.6428445,
          "midi": 59,
          "name": "B3",
          "velocity": 1,
          "duration": 0.2107140749999985,
          "ticks": 62580,
          "durationTicks": 59
        },
        {
          "time": 201.85713,
          "midi": 59,
          "name": "B3",
          "velocity": 1,
          "duration": 0.42499957499998686,
          "ticks": 62640,
          "durationTicks": 119
        },
        {
          "time": 202.285701,
          "midi": 56,
          "name": "G#3",
          "velocity": 1,
          "duration": 0.21071407500002692,
          "ticks": 62760,
          "durationTicks": 59
        },
        {
          "time": 202.4999865,
          "midi": 57,
          "name": "A3",
          "velocity": 1,
          "duration": 0.2107140749999985,
          "ticks": 62820,
          "durationTicks": 59
        },
        {
          "time": 202.714272,
          "midi": 59,
          "name": "B3",
          "velocity": 1,
          "duration": 0.2107140749999985,
          "ticks": 62880,
          "durationTicks": 59
        },
        {
          "time": 202.9285575,
          "midi": 61,
          "name": "C#4",
          "velocity": 1,
          "duration": 0.2107140749999985,
          "ticks": 62940,
          "durationTicks": 59
        },
        {
          "time": 203.142843,
          "midi": 64,
          "name": "E4",
          "velocity": 1,
          "duration": 0.2107140749999985,
          "ticks": 63000,
          "durationTicks": 59
        },
        {
          "time": 203.3571285,
          "midi": 62,
          "name": "D4",
          "velocity": 1,
          "duration": 0.21071407500002692,
          "ticks": 63060,
          "durationTicks": 59
        },
        {
          "time": 203.571414,
          "midi": 61,
          "name": "C#4",
          "velocity": 1,
          "duration": 0.2107140749999985,
          "ticks": 63120,
          "durationTicks": 59
        },
        {
          "time": 203.7856995,
          "midi": 62,
          "name": "D4",
          "velocity": 1,
          "duration": 0.2107140749999985,
          "ticks": 63180,
          "durationTicks": 59
        },
        {
          "time": 203.999985,
          "midi": 59,
          "name": "B3",
          "velocity": 1,
          "duration": 0.2107140749999985,
          "ticks": 63240,
          "durationTicks": 59
        },
        {
          "time": 204.2142705,
          "midi": 56,
          "name": "G#3",
          "velocity": 1,
          "duration": 0.2107140749999985,
          "ticks": 63300,
          "durationTicks": 59
        },
        {
          "time": 204.42855600000001,
          "midi": 52,
          "name": "E3",
          "velocity": 1,
          "duration": 0.2107140749999985,
          "ticks": 63360,
          "durationTicks": 59
        },
        {
          "time": 204.6428415,
          "midi": 50,
          "name": "D3",
          "velocity": 1,
          "duration": 0.2107140749999985,
          "ticks": 63420,
          "durationTicks": 59
        },
        {
          "time": 204.857127,
          "midi": 50,
          "name": "D3",
          "velocity": 1,
          "duration": 0.4249995750000153,
          "ticks": 63480,
          "durationTicks": 119
        },
        {
          "time": 205.285698,
          "midi": 54,
          "name": "F#3",
          "velocity": 1,
          "duration": 0.2107140749999985,
          "ticks": 63600,
          "durationTicks": 59
        },
        {
          "time": 205.4999835,
          "midi": 52,
          "name": "E3",
          "velocity": 1,
          "duration": 0.2107140749999985,
          "ticks": 63660,
          "durationTicks": 59
        },
        {
          "time": 205.714269,
          "midi": 50,
          "name": "D3",
          "velocity": 1,
          "duration": 0.4249995750000153,
          "ticks": 63720,
          "durationTicks": 119
        },
        {
          "time": 206.14284,
          "midi": 49,
          "name": "C#3",
          "velocity": 1,
          "duration": 0.42499957499998686,
          "ticks": 63840,
          "durationTicks": 119
        },
        {
          "time": 207.857124,
          "midi": 57,
          "name": "A3",
          "velocity": 1,
          "duration": 0.4249995750000153,
          "ticks": 64320,
          "durationTicks": 119
        },
        {
          "time": 208.285695,
          "midi": 62,
          "name": "D4",
          "velocity": 1,
          "duration": 0.6392850750000036,
          "ticks": 64440,
          "durationTicks": 179
        },
        {
          "time": 208.9285515,
          "midi": 64,
          "name": "E4",
          "velocity": 1,
          "duration": 0.2107140749999985,
          "ticks": 64620,
          "durationTicks": 59
        },
        {
          "time": 209.142837,
          "midi": 66,
          "name": "F#4",
          "velocity": 1,
          "duration": 0.21071407500002692,
          "ticks": 64680,
          "durationTicks": 59
        },
        {
          "time": 209.3571225,
          "midi": 64,
          "name": "E4",
          "velocity": 1,
          "duration": 0.2107140749999985,
          "ticks": 64740,
          "durationTicks": 59
        },
        {
          "time": 209.571408,
          "midi": 64,
          "name": "E4",
          "velocity": 1,
          "duration": 0.2107140749999985,
          "ticks": 64800,
          "durationTicks": 59
        },
        {
          "time": 209.7856935,
          "midi": 62,
          "name": "D4",
          "velocity": 1,
          "duration": 0.2107140749999985,
          "ticks": 64860,
          "durationTicks": 59
        },
        {
          "time": 209.999979,
          "midi": 62,
          "name": "D4",
          "velocity": 1,
          "duration": 0.2107140749999985,
          "ticks": 64920,
          "durationTicks": 59
        },
        {
          "time": 210.2142645,
          "midi": 61,
          "name": "C#4",
          "velocity": 1,
          "duration": 0.2107140749999985,
          "ticks": 64980,
          "durationTicks": 59
        },
        {
          "time": 210.42855,
          "midi": 62,
          "name": "D4",
          "velocity": 1,
          "duration": 0.2107140749999985,
          "ticks": 65040,
          "durationTicks": 59
        },
        {
          "time": 210.6428355,
          "midi": 57,
          "name": "A3",
          "velocity": 1,
          "duration": 0.2107140749999985,
          "ticks": 65100,
          "durationTicks": 59
        },
        {
          "time": 210.857121,
          "midi": 55,
          "name": "G3",
          "velocity": 1,
          "duration": 0.2107140749999985,
          "ticks": 65160,
          "durationTicks": 59
        },
        {
          "time": 211.0714065,
          "midi": 54,
          "name": "F#3",
          "velocity": 1,
          "duration": 0.2107140749999985,
          "ticks": 65220,
          "durationTicks": 59
        },
        {
          "time": 211.285692,
          "midi": 54,
          "name": "F#3",
          "velocity": 1,
          "duration": 0.2107140749999985,
          "ticks": 65280,
          "durationTicks": 59
        },
        {
          "time": 211.4999775,
          "midi": 52,
          "name": "E3",
          "velocity": 1,
          "duration": 0.2107140749999985,
          "ticks": 65340,
          "durationTicks": 59
        },
        {
          "time": 211.71426300000002,
          "midi": 50,
          "name": "D3",
          "velocity": 1,
          "duration": 0.2107140749999985,
          "ticks": 65400,
          "durationTicks": 59
        },
        {
          "time": 211.9285485,
          "midi": 48,
          "name": "C3",
          "velocity": 1,
          "duration": 0.2107140749999985,
          "ticks": 65460,
          "durationTicks": 59
        },
        {
          "time": 212.142834,
          "midi": 48,
          "name": "C3",
          "velocity": 1,
          "duration": 0.3687500000000057,
          "ticks": 65520,
          "durationTicks": 59
        },
        {
          "time": 212.517834,
          "midi": 47,
          "name": "B2",
          "velocity": 1,
          "duration": 0.3687500000000057,
          "ticks": 65580,
          "durationTicks": 59
        },
        {
          "time": 212.892834,
          "midi": 55,
          "name": "G3",
          "velocity": 1,
          "duration": 2.625,
          "ticks": 65640,
          "durationTicks": 420
        },
        {
          "time": 215.517834,
          "midi": 52,
          "name": "E3",
          "velocity": 1,
          "duration": 0.3687500000000057,
          "ticks": 66060,
          "durationTicks": 59
        },
        {
          "time": 215.892834,
          "midi": 49,
          "name": "C#3",
          "velocity": 1,
          "duration": 0.3687500000000057,
          "ticks": 66120,
          "durationTicks": 59
        },
        {
          "time": 216.267834,
          "midi": 50,
          "name": "D3",
          "velocity": 1,
          "duration": 0.3687500000000057,
          "ticks": 66180,
          "durationTicks": 59
        },
        {
          "time": 216.642834,
          "midi": 50,
          "name": "D3",
          "velocity": 1,
          "duration": 0.3687500000000057,
          "ticks": 66240,
          "durationTicks": 59
        },
        {
          "time": 217.017834,
          "midi": 45,
          "name": "A2",
          "velocity": 1,
          "duration": 0.3687500000000057,
          "ticks": 66300,
          "durationTicks": 59
        },
        {
          "time": 217.392834,
          "midi": 45,
          "name": "A2",
          "velocity": 1,
          "duration": 0.7437500000000057,
          "ticks": 66360,
          "durationTicks": 119
        },
        {
          "time": 220.392834,
          "midi": 64,
          "name": "E4",
          "velocity": 1,
          "duration": 0.37187499999998863,
          "ticks": 67080,
          "durationTicks": 119
        },
        {
          "time": 220.392834,
          "midi": 64,
          "name": "E4",
          "velocity": 1,
          "duration": 0.37187499999998863,
          "ticks": 67080,
          "durationTicks": 119
        },
        {
          "time": 220.767834,
          "midi": 62,
          "name": "D4",
          "velocity": 1,
          "duration": 0.37187499999998863,
          "ticks": 67200,
          "durationTicks": 119
        },
        {
          "time": 220.767834,
          "midi": 62,
          "name": "D4",
          "velocity": 1,
          "duration": 0.37187499999998863,
          "ticks": 67200,
          "durationTicks": 119
        },
        {
          "time": 223.392834,
          "midi": 64,
          "name": "E4",
          "velocity": 1,
          "duration": 0.37187499999998863,
          "ticks": 68040,
          "durationTicks": 119
        },
        {
          "time": 223.392834,
          "midi": 64,
          "name": "E4",
          "velocity": 1,
          "duration": 0.37187499999998863,
          "ticks": 68040,
          "durationTicks": 119
        },
        {
          "time": 223.767834,
          "midi": 62,
          "name": "D4",
          "velocity": 1,
          "duration": 0.7468749999999886,
          "ticks": 68160,
          "durationTicks": 239
        },
        {
          "time": 223.767834,
          "midi": 62,
          "name": "D4",
          "velocity": 1,
          "duration": 0.7468749999999886,
          "ticks": 68160,
          "durationTicks": 239
        },
        {
          "time": 224.517834,
          "midi": 57,
          "name": "A3",
          "velocity": 1,
          "duration": 0.18437499999998863,
          "ticks": 68400,
          "durationTicks": 59
        },
        {
          "time": 224.705334,
          "midi": 55,
          "name": "G3",
          "velocity": 1,
          "duration": 0.18437499999998863,
          "ticks": 68460,
          "durationTicks": 59
        },
        {
          "time": 224.892834,
          "midi": 54,
          "name": "F#3",
          "velocity": 1,
          "duration": 0.37187499999998863,
          "ticks": 68520,
          "durationTicks": 119
        },
        {
          "time": 225.267834,
          "midi": 54,
          "name": "F#3",
          "velocity": 1,
          "duration": 0.37187499999998863,
          "ticks": 68640,
          "durationTicks": 119
        },
        {
          "time": 225.642834,
          "midi": 55,
          "name": "G3",
          "velocity": 0.8503937007874016,
          "duration": 0.37187499999998863,
          "ticks": 68760,
          "durationTicks": 119
        },
        {
          "time": 226.017834,
          "midi": 57,
          "name": "A3",
          "velocity": 0.8818897637795275,
          "duration": 0.37187499999998863,
          "ticks": 68880,
          "durationTicks": 119
        },
        {
          "time": 226.392834,
          "midi": 57,
          "name": "A3",
          "velocity": 0.905511811023622,
          "duration": 0.37187499999998863,
          "ticks": 69000,
          "durationTicks": 119
        },
        {
          "time": 226.767834,
          "midi": 55,
          "name": "G3",
          "velocity": 0.937007874015748,
          "duration": 0.37187499999998863,
          "ticks": 69120,
          "durationTicks": 119
        },
        {
          "time": 227.142834,
          "midi": 54,
          "name": "F#3",
          "velocity": 1,
          "duration": 0.37187499999998863,
          "ticks": 69240,
          "durationTicks": 119
        },
        {
          "time": 227.517834,
          "midi": 52,
          "name": "E3",
          "velocity": 1,
          "duration": 0.37187499999998863,
          "ticks": 69360,
          "durationTicks": 119
        },
        {
          "time": 227.892834,
          "midi": 50,
          "name": "D3",
          "velocity": 0.9763779527559056,
          "duration": 0.37187499999998863,
          "ticks": 69480,
          "durationTicks": 119
        },
        {
          "time": 228.267834,
          "midi": 50,
          "name": "D3",
          "velocity": 1,
          "duration": 0.37187499999998863,
          "ticks": 69600,
          "durationTicks": 119
        },
        {
          "time": 228.642834,
          "midi": 52,
          "name": "E3",
          "velocity": 1,
          "duration": 0.37187499999998863,
          "ticks": 69720,
          "durationTicks": 119
        },
        {
          "time": 229.017834,
          "midi": 54,
          "name": "F#3",
          "velocity": 1,
          "duration": 0.37187499999998863,
          "ticks": 69840,
          "durationTicks": 119
        },
        {
          "time": 229.392834,
          "midi": 54,
          "name": "F#3",
          "velocity": 1,
          "duration": 0.5593749999999886,
          "ticks": 69960,
          "durationTicks": 179
        },
        {
          "time": 229.955334,
          "midi": 52,
          "name": "E3",
          "velocity": 1,
          "duration": 0.18437499999998863,
          "ticks": 70140,
          "durationTicks": 59
        },
        {
          "time": 230.142834,
          "midi": 52,
          "name": "E3",
          "velocity": 1,
          "duration": 0.7468749999999886,
          "ticks": 70200,
          "durationTicks": 239
        },
        {
          "time": 230.892834,
          "midi": 54,
          "name": "F#3",
          "velocity": 1,
          "duration": 0.37187499999998863,
          "ticks": 70440,
          "durationTicks": 119
        },
        {
          "time": 231.267834,
          "midi": 54,
          "name": "F#3",
          "velocity": 1,
          "duration": 0.37187499999998863,
          "ticks": 70560,
          "durationTicks": 119
        },
        {
          "time": 231.642834,
          "midi": 55,
          "name": "G3",
          "velocity": 0.8818897637795275,
          "duration": 0.37187499999998863,
          "ticks": 70680,
          "durationTicks": 119
        },
        {
          "time": 232.017834,
          "midi": 57,
          "name": "A3",
          "velocity": 1,
          "duration": 0.37187499999998863,
          "ticks": 70800,
          "durationTicks": 119
        },
        {
          "time": 232.392834,
          "midi": 57,
          "name": "A3",
          "velocity": 0.9763779527559056,
          "duration": 0.37187499999998863,
          "ticks": 70920,
          "durationTicks": 119
        },
        {
          "time": 232.767834,
          "midi": 55,
          "name": "G3",
          "velocity": 0.937007874015748,
          "duration": 0.37187499999998863,
          "ticks": 71040,
          "durationTicks": 119
        },
        {
          "time": 233.142834,
          "midi": 54,
          "name": "F#3",
          "velocity": 1,
          "duration": 0.37187499999998863,
          "ticks": 71160,
          "durationTicks": 119
        },
        {
          "time": 233.517834,
          "midi": 52,
          "name": "E3",
          "velocity": 1,
          "duration": 0.37187499999998863,
          "ticks": 71280,
          "durationTicks": 119
        },
        {
          "time": 233.892834,
          "midi": 50,
          "name": "D3",
          "velocity": 0.9763779527559056,
          "duration": 0.37187499999998863,
          "ticks": 71400,
          "durationTicks": 119
        },
        {
          "time": 234.267834,
          "midi": 50,
          "name": "D3",
          "velocity": 1,
          "duration": 0.37187499999998863,
          "ticks": 71520,
          "durationTicks": 119
        },
        {
          "time": 234.642834,
          "midi": 52,
          "name": "E3",
          "velocity": 1,
          "duration": 0.37187499999998863,
          "ticks": 71640,
          "durationTicks": 119
        },
        {
          "time": 235.017834,
          "midi": 54,
          "name": "F#3",
          "velocity": 1,
          "duration": 0.37187499999998863,
          "ticks": 71760,
          "durationTicks": 119
        },
        {
          "time": 235.392834,
          "midi": 52,
          "name": "E3",
          "velocity": 1,
          "duration": 0.5593749999999886,
          "ticks": 71880,
          "durationTicks": 179
        },
        {
          "time": 235.955334,
          "midi": 50,
          "name": "D3",
          "velocity": 1,
          "duration": 0.18437499999998863,
          "ticks": 72060,
          "durationTicks": 59
        },
        {
          "time": 236.142834,
          "midi": 50,
          "name": "D3",
          "velocity": 1,
          "duration": 0.7468749999999886,
          "ticks": 72120,
          "durationTicks": 239
        },
        {
          "time": 236.892834,
          "midi": 52,
          "name": "E3",
          "velocity": 0.8818897637795275,
          "duration": 0.37187499999998863,
          "ticks": 72360,
          "durationTicks": 119
        },
        {
          "time": 237.267834,
          "midi": 52,
          "name": "E3",
          "velocity": 0.952755905511811,
          "duration": 0.37187499999998863,
          "ticks": 72480,
          "durationTicks": 119
        },
        {
          "time": 237.642834,
          "midi": 54,
          "name": "F#3",
          "velocity": 0.9606299212598425,
          "duration": 0.37187499999998863,
          "ticks": 72600,
          "durationTicks": 119
        },
        {
          "time": 238.017834,
          "midi": 50,
          "name": "D3",
          "velocity": 0.968503937007874,
          "duration": 0.37187499999998863,
          "ticks": 72720,
          "durationTicks": 119
        },
        {
          "time": 238.392834,
          "midi": 52,
          "name": "E3",
          "velocity": 0.968503937007874,
          "duration": 0.37187499999998863,
          "ticks": 72840,
          "durationTicks": 119
        },
        {
          "time": 238.767834,
          "midi": 54,
          "name": "F#3",
          "velocity": 0.968503937007874,
          "duration": 0.18437499999998863,
          "ticks": 72960,
          "durationTicks": 59
        },
        {
          "time": 238.955334,
          "midi": 55,
          "name": "G3",
          "velocity": 0.968503937007874,
          "duration": 0.18437499999998863,
          "ticks": 73020,
          "durationTicks": 59
        },
        {
          "time": 239.142834,
          "midi": 54,
          "name": "F#3",
          "velocity": 0.968503937007874,
          "duration": 0.37187499999998863,
          "ticks": 73080,
          "durationTicks": 119
        },
        {
          "time": 239.517834,
          "midi": 50,
          "name": "D3",
          "velocity": 0.968503937007874,
          "duration": 0.37187499999998863,
          "ticks": 73200,
          "durationTicks": 119
        },
        {
          "time": 239.892834,
          "midi": 52,
          "name": "E3",
          "velocity": 0.9763779527559056,
          "duration": 0.37187499999998863,
          "ticks": 73320,
          "durationTicks": 119
        },
        {
          "time": 240.267834,
          "midi": 54,
          "name": "F#3",
          "velocity": 0.9763779527559056,
          "duration": 0.18437499999998863,
          "ticks": 73440,
          "durationTicks": 59
        },
        {
          "time": 240.455334,
          "midi": 55,
          "name": "G3",
          "velocity": 0.984251968503937,
          "duration": 0.18437499999998863,
          "ticks": 73500,
          "durationTicks": 59
        },
        {
          "time": 240.642834,
          "midi": 54,
          "name": "F#3",
          "velocity": 0.984251968503937,
          "duration": 0.37187499999998863,
          "ticks": 73560,
          "durationTicks": 119
        },
        {
          "time": 241.017834,
          "midi": 52,
          "name": "E3",
          "velocity": 0.984251968503937,
          "duration": 0.37187499999998863,
          "ticks": 73680,
          "durationTicks": 119
        },
        {
          "time": 241.392834,
          "midi": 50,
          "name": "D3",
          "velocity": 0.984251968503937,
          "duration": 0.37187499999998863,
          "ticks": 73800,
          "durationTicks": 119
        },
        {
          "time": 241.767834,
          "midi": 52,
          "name": "E3",
          "velocity": 0.984251968503937,
          "duration": 0.37187499999998863,
          "ticks": 73920,
          "durationTicks": 119
        },
        {
          "time": 242.142834,
          "midi": 45,
          "name": "A2",
          "velocity": 0.984251968503937,
          "duration": 0.37187499999998863,
          "ticks": 74040,
          "durationTicks": 119
        },
        {
          "time": 242.517834,
          "midi": 54,
          "name": "F#3",
          "velocity": 0.984251968503937,
          "duration": 0.7468749999999886,
          "ticks": 74160,
          "durationTicks": 239
        },
        {
          "time": 243.267834,
          "midi": 54,
          "name": "F#3",
          "velocity": 0.9921259842519685,
          "duration": 0.37187499999998863,
          "ticks": 74400,
          "durationTicks": 119
        },
        {
          "time": 243.642834,
          "midi": 55,
          "name": "G3",
          "velocity": 0.9921259842519685,
          "duration": 0.37187499999998863,
          "ticks": 74520,
          "durationTicks": 119
        },
        {
          "time": 244.017834,
          "midi": 57,
          "name": "A3",
          "velocity": 0.9921259842519685,
          "duration": 0.37187499999998863,
          "ticks": 74640,
          "durationTicks": 119
        },
        {
          "time": 244.392834,
          "midi": 57,
          "name": "A3",
          "velocity": 0.9921259842519685,
          "duration": 0.37187499999998863,
          "ticks": 74760,
          "durationTicks": 119
        },
        {
          "time": 244.767834,
          "midi": 55,
          "name": "G3",
          "velocity": 0.9921259842519685,
          "duration": 0.37187499999998863,
          "ticks": 74880,
          "durationTicks": 119
        },
        {
          "time": 245.142834,
          "midi": 54,
          "name": "F#3",
          "velocity": 0.9921259842519685,
          "duration": 0.37187499999998863,
          "ticks": 75000,
          "durationTicks": 119
        },
        {
          "time": 245.517834,
          "midi": 55,
          "name": "G3",
          "velocity": 1,
          "duration": 0.18437499999998863,
          "ticks": 75120,
          "durationTicks": 59
        },
        {
          "time": 245.705334,
          "midi": 52,
          "name": "E3",
          "velocity": 1,
          "duration": 0.18437499999998863,
          "ticks": 75180,
          "durationTicks": 59
        },
        {
          "time": 245.892834,
          "midi": 50,
          "name": "D3",
          "velocity": 1,
          "duration": 0.37187499999998863,
          "ticks": 75240,
          "durationTicks": 119
        },
        {
          "time": 246.267834,
          "midi": 50,
          "name": "D3",
          "velocity": 1,
          "duration": 0.37187499999998863,
          "ticks": 75360,
          "durationTicks": 119
        },
        {
          "time": 246.642834,
          "midi": 52,
          "name": "E3",
          "velocity": 1,
          "duration": 0.37187499999998863,
          "ticks": 75480,
          "durationTicks": 119
        },
        {
          "time": 247.017834,
          "midi": 54,
          "name": "F#3",
          "velocity": 1,
          "duration": 0.37187499999998863,
          "ticks": 75600,
          "durationTicks": 119
        },
        {
          "time": 247.392834,
          "midi": 52,
          "name": "E3",
          "velocity": 1,
          "duration": 0.5593749999999886,
          "ticks": 75720,
          "durationTicks": 179
        },
        {
          "time": 247.955334,
          "midi": 50,
          "name": "D3",
          "velocity": 1,
          "duration": 0.18437499999998863,
          "ticks": 75900,
          "durationTicks": 59
        },
        {
          "time": 248.142834,
          "midi": 50,
          "name": "D3",
          "velocity": 1,
          "duration": 0.7468749999999886,
          "ticks": 75960,
          "durationTicks": 239
        },
        {
          "time": 266.892834,
          "midi": 50,
          "name": "D3",
          "velocity": 1,
          "duration": 0.37187499999998863,
          "ticks": 81960,
          "durationTicks": 119
        },
        {
          "time": 267.267834,
          "midi": 50,
          "name": "D3",
          "velocity": 1,
          "duration": 0.37187499999998863,
          "ticks": 82080,
          "durationTicks": 119
        },
        {
          "time": 267.642834,
          "midi": 50,
          "name": "D3",
          "velocity": 1,
          "duration": 0.37187499999998863,
          "ticks": 82200,
          "durationTicks": 119
        },
        {
          "time": 268.017834,
          "midi": 49,
          "name": "C#3",
          "velocity": 1,
          "duration": 0.18437499999998863,
          "ticks": 82320,
          "durationTicks": 59
        },
        {
          "time": 268.205334,
          "midi": 47,
          "name": "B2",
          "velocity": 1,
          "duration": 0.18437499999998863,
          "ticks": 82380,
          "durationTicks": 59
        },
        {
          "time": 268.392834,
          "midi": 45,
          "name": "A2",
          "velocity": 1,
          "duration": 0.18437499999998863,
          "ticks": 82440,
          "durationTicks": 59
        },
        {
          "time": 268.580334,
          "midi": 47,
          "name": "B2",
          "velocity": 1,
          "duration": 0.18437499999998863,
          "ticks": 82500,
          "durationTicks": 59
        },
        {
          "time": 268.767834,
          "midi": 49,
          "name": "C#3",
          "velocity": 1,
          "duration": 0.18437499999998863,
          "ticks": 82560,
          "durationTicks": 59
        },
        {
          "time": 268.955334,
          "midi": 50,
          "name": "D3",
          "velocity": 0.9763779527559056,
          "duration": 0.18437499999998863,
          "ticks": 82620,
          "durationTicks": 59
        },
        {
          "time": 269.142834,
          "midi": 52,
          "name": "E3",
          "velocity": 1,
          "duration": 0.18437499999998863,
          "ticks": 82680,
          "durationTicks": 59
        },
        {
          "time": 269.330334,
          "midi": 54,
          "name": "F#3",
          "velocity": 1,
          "duration": 0.18437499999998863,
          "ticks": 82740,
          "durationTicks": 59
        },
        {
          "time": 269.517834,
          "midi": 55,
          "name": "G3",
          "velocity": 1,
          "duration": 0.18437499999998863,
          "ticks": 82800,
          "durationTicks": 59
        },
        {
          "time": 269.705334,
          "midi": 52,
          "name": "E3",
          "velocity": 1,
          "duration": 0.18437499999998863,
          "ticks": 82860,
          "durationTicks": 59
        },
        {
          "time": 269.892834,
          "midi": 57,
          "name": "A3",
          "velocity": 1,
          "duration": 0.37187499999998863,
          "ticks": 82920,
          "durationTicks": 119
        },
        {
          "time": 270.267834,
          "midi": 57,
          "name": "A3",
          "velocity": 1,
          "duration": 0.37187499999998863,
          "ticks": 83040,
          "durationTicks": 119
        },
        {
          "time": 270.642834,
          "midi": 57,
          "name": "A3",
          "velocity": 1,
          "duration": 0.37187499999998863,
          "ticks": 83160,
          "durationTicks": 119
        },
        {
          "time": 271.017834,
          "midi": 57,
          "name": "A3",
          "velocity": 1,
          "duration": 0.37187499999998863,
          "ticks": 83280,
          "durationTicks": 119
        },
        {
          "time": 271.392834,
          "midi": 57,
          "name": "A3",
          "velocity": 1,
          "duration": 0.5593749999999886,
          "ticks": 83400,
          "durationTicks": 179
        },
        {
          "time": 271.955334,
          "midi": 45,
          "name": "A2",
          "velocity": 1,
          "duration": 0.18437499999998863,
          "ticks": 83580,
          "durationTicks": 59
        },
        {
          "time": 272.142834,
          "midi": 45,
          "name": "A2",
          "velocity": 1,
          "duration": 0.37187499999998863,
          "ticks": 83640,
          "durationTicks": 119
        },
        {
          "time": 272.517834,
          "midi": 47,
          "name": "B2",
          "velocity": 1,
          "duration": 0.18437499999998863,
          "ticks": 83760,
          "durationTicks": 59
        },
        {
          "time": 272.705334,
          "midi": 49,
          "name": "C#3",
          "velocity": 1,
          "duration": 0.18437499999998863,
          "ticks": 83820,
          "durationTicks": 59
        },
        {
          "time": 272.892834,
          "midi": 50,
          "name": "D3",
          "velocity": 1,
          "duration": 0.37187499999998863,
          "ticks": 83880,
          "durationTicks": 119
        },
        {
          "time": 273.267834,
          "midi": 50,
          "name": "D3",
          "velocity": 1,
          "duration": 0.37187499999998863,
          "ticks": 84000,
          "durationTicks": 119
        },
        {
          "time": 273.642834,
          "midi": 50,
          "name": "D3",
          "velocity": 1,
          "duration": 0.37187499999998863,
          "ticks": 84120,
          "durationTicks": 119
        },
        {
          "time": 274.017834,
          "midi": 49,
          "name": "C#3",
          "velocity": 1,
          "duration": 0.18437499999998863,
          "ticks": 84240,
          "durationTicks": 59
        },
        {
          "time": 274.205334,
          "midi": 47,
          "name": "B2",
          "velocity": 1,
          "duration": 0.18437499999998863,
          "ticks": 84300,
          "durationTicks": 59
        },
        {
          "time": 274.392834,
          "midi": 45,
          "name": "A2",
          "velocity": 0.9763779527559056,
          "duration": 0.18437499999998863,
          "ticks": 84360,
          "durationTicks": 59
        },
        {
          "time": 274.580334,
          "midi": 47,
          "name": "B2",
          "velocity": 1,
          "duration": 0.18437499999998863,
          "ticks": 84420,
          "durationTicks": 59
        },
        {
          "time": 274.767834,
          "midi": 49,
          "name": "C#3",
          "velocity": 1,
          "duration": 0.18437499999998863,
          "ticks": 84480,
          "durationTicks": 59
        },
        {
          "time": 274.955334,
          "midi": 50,
          "name": "D3",
          "velocity": 0.9763779527559056,
          "duration": 0.18437499999998863,
          "ticks": 84540,
          "durationTicks": 59
        },
        {
          "time": 275.142834,
          "midi": 52,
          "name": "E3",
          "velocity": 1,
          "duration": 0.18437499999998863,
          "ticks": 84600,
          "durationTicks": 59
        },
        {
          "time": 275.330334,
          "midi": 54,
          "name": "F#3",
          "velocity": 1,
          "duration": 0.18437499999998863,
          "ticks": 84660,
          "durationTicks": 59
        },
        {
          "time": 275.517834,
          "midi": 55,
          "name": "G3",
          "velocity": 1,
          "duration": 0.18437499999998863,
          "ticks": 84720,
          "durationTicks": 59
        },
        {
          "time": 275.705334,
          "midi": 52,
          "name": "E3",
          "velocity": 1,
          "duration": 0.18437499999998863,
          "ticks": 84780,
          "durationTicks": 59
        },
        {
          "time": 275.892834,
          "midi": 57,
          "name": "A3",
          "velocity": 1,
          "duration": 0.37187499999998863,
          "ticks": 84840,
          "durationTicks": 119
        },
        {
          "time": 276.267834,
          "midi": 57,
          "name": "A3",
          "velocity": 1,
          "duration": 0.37187499999998863,
          "ticks": 84960,
          "durationTicks": 119
        },
        {
          "time": 276.642834,
          "midi": 57,
          "name": "A3",
          "velocity": 1,
          "duration": 0.37187499999998863,
          "ticks": 85080,
          "durationTicks": 119
        },
        {
          "time": 277.017834,
          "midi": 57,
          "name": "A3",
          "velocity": 1,
          "duration": 0.37187499999998863,
          "ticks": 85200,
          "durationTicks": 119
        },
        {
          "time": 277.392834,
          "midi": 57,
          "name": "A3",
          "velocity": 1,
          "duration": 0.37187499999998863,
          "ticks": 85320,
          "durationTicks": 119
        },
        {
          "time": 277.767834,
          "midi": 45,
          "name": "A2",
          "velocity": 1,
          "duration": 0.37187499999998863,
          "ticks": 85440,
          "durationTicks": 119
        },
        {
          "time": 278.142834,
          "midi": 50,
          "name": "D3",
          "velocity": 1,
          "duration": 0.37187499999998863,
          "ticks": 85560,
          "durationTicks": 119
        },
        {
          "time": 278.517834,
          "midi": 57,
          "name": "A3",
          "velocity": 1,
          "duration": 0.7468749999999886,
          "ticks": 85680,
          "durationTicks": 239
        },
        {
          "time": 279.267834,
          "midi": 57,
          "name": "A3",
          "velocity": 1,
          "duration": 0.37187499999998863,
          "ticks": 85920,
          "durationTicks": 119
        },
        {
          "time": 279.642834,
          "midi": 57,
          "name": "A3",
          "velocity": 1,
          "duration": 0.5593749999999886,
          "ticks": 86040,
          "durationTicks": 179
        },
        {
          "time": 280.205334,
          "midi": 45,
          "name": "A2",
          "velocity": 1,
          "duration": 0.18437499999998863,
          "ticks": 86220,
          "durationTicks": 59
        },
        {
          "time": 280.392834,
          "midi": 57,
          "name": "A3",
          "velocity": 1,
          "duration": 0.18437499999998863,
          "ticks": 86280,
          "durationTicks": 59
        },
        {
          "time": 280.580334,
          "midi": 52,
          "name": "E3",
          "velocity": 1,
          "duration": 0.18437499999998863,
          "ticks": 86340,
          "durationTicks": 59
        },
        {
          "time": 280.767834,
          "midi": 50,
          "name": "D3",
          "velocity": 1,
          "duration": 0.18437499999998863,
          "ticks": 86400,
          "durationTicks": 59
        },
        {
          "time": 280.955334,
          "midi": 49,
          "name": "C#3",
          "velocity": 1,
          "duration": 0.18437499999998863,
          "ticks": 86460,
          "durationTicks": 59
        },
        {
          "time": 281.142834,
          "midi": 50,
          "name": "D3",
          "velocity": 1,
          "duration": 0.5593749999999886,
          "ticks": 86520,
          "durationTicks": 179
        },
        {
          "time": 281.705334,
          "midi": 57,
          "name": "A3",
          "velocity": 1,
          "duration": 0.18437499999998863,
          "ticks": 86700,
          "durationTicks": 59
        },
        {
          "time": 281.892834,
          "midi": 57,
          "name": "A3",
          "velocity": 1,
          "duration": 0.37187499999998863,
          "ticks": 86760,
          "durationTicks": 119
        },
        {
          "time": 282.267834,
          "midi": 57,
          "name": "A3",
          "velocity": 1,
          "duration": 0.37187499999998863,
          "ticks": 86880,
          "durationTicks": 119
        },
        {
          "time": 282.642834,
          "midi": 58,
          "name": "A#3",
          "velocity": 1,
          "duration": 0.37187499999998863,
          "ticks": 87000,
          "durationTicks": 119
        },
        {
          "time": 283.017834,
          "midi": 54,
          "name": "F#3",
          "velocity": 1,
          "duration": 0.37187499999998863,
          "ticks": 87120,
          "durationTicks": 119
        },
        {
          "time": 283.392834,
          "midi": 59,
          "name": "B3",
          "velocity": 1,
          "duration": 0.37187499999998863,
          "ticks": 87240,
          "durationTicks": 119
        },
        {
          "time": 283.767834,
          "midi": 52,
          "name": "E3",
          "velocity": 1,
          "duration": 0.37187499999998863,
          "ticks": 87360,
          "durationTicks": 119
        },
        {
          "time": 284.142834,
          "midi": 57,
          "name": "A3",
          "velocity": 1,
          "duration": 0.37187499999998863,
          "ticks": 87480,
          "durationTicks": 119
        },
        {
          "time": 284.517834,
          "midi": 45,
          "name": "A2",
          "velocity": 1,
          "duration": 0.37187499999998863,
          "ticks": 87600,
          "durationTicks": 119
        },
        {
          "time": 284.892834,
          "midi": 50,
          "name": "D3",
          "velocity": 1,
          "duration": 0.37187499999998863,
          "ticks": 87720,
          "durationTicks": 119
        },
        {
          "time": 285.267834,
          "midi": 50,
          "name": "D3",
          "velocity": 1,
          "duration": 0.37187499999998863,
          "ticks": 87840,
          "durationTicks": 119
        },
        {
          "time": 285.642834,
          "midi": 62,
          "name": "D4",
          "velocity": 1,
          "duration": 0.37187499999998863,
          "ticks": 87960,
          "durationTicks": 119
        },
        {
          "time": 286.017834,
          "midi": 61,
          "name": "C#4",
          "velocity": 1,
          "duration": 0.18437499999998863,
          "ticks": 88080,
          "durationTicks": 59
        },
        {
          "time": 286.205334,
          "midi": 59,
          "name": "B3",
          "velocity": 1,
          "duration": 0.18437499999998863,
          "ticks": 88140,
          "durationTicks": 59
        },
        {
          "time": 286.392834,
          "midi": 57,
          "name": "A3",
          "velocity": 1,
          "duration": 0.18437499999998863,
          "ticks": 88200,
          "durationTicks": 59
        },
        {
          "time": 286.580334,
          "midi": 47,
          "name": "B2",
          "velocity": 1,
          "duration": 0.18437499999998863,
          "ticks": 88260,
          "durationTicks": 59
        },
        {
          "time": 286.767834,
          "midi": 49,
          "name": "C#3",
          "velocity": 1,
          "duration": 0.18437499999998863,
          "ticks": 88320,
          "durationTicks": 59
        },
        {
          "time": 286.955334,
          "midi": 50,
          "name": "D3",
          "velocity": 0.9763779527559056,
          "duration": 0.18437499999998863,
          "ticks": 88380,
          "durationTicks": 59
        },
        {
          "time": 287.142834,
          "midi": 52,
          "name": "E3",
          "velocity": 0.905511811023622,
          "duration": 0.18437499999998863,
          "ticks": 88440,
          "durationTicks": 59
        },
        {
          "time": 287.330334,
          "midi": 54,
          "name": "F#3",
          "velocity": 1,
          "duration": 0.18437499999998863,
          "ticks": 88500,
          "durationTicks": 59
        },
        {
          "time": 287.517834,
          "midi": 55,
          "name": "G3",
          "velocity": 1,
          "duration": 0.18437499999998863,
          "ticks": 88560,
          "durationTicks": 59
        },
        {
          "time": 287.705334,
          "midi": 52,
          "name": "E3",
          "velocity": 1,
          "duration": 0.18437499999998863,
          "ticks": 88620,
          "durationTicks": 59
        },
        {
          "time": 287.892834,
          "midi": 54,
          "name": "F#3",
          "velocity": 1,
          "duration": 0.37187499999998863,
          "ticks": 88680,
          "durationTicks": 119
        },
        {
          "time": 288.267834,
          "midi": 50,
          "name": "D3",
          "velocity": 1,
          "duration": 0.37187499999998863,
          "ticks": 88800,
          "durationTicks": 119
        },
        {
          "time": 288.642834,
          "midi": 45,
          "name": "A2",
          "velocity": 1,
          "duration": 0.37187499999998863,
          "ticks": 88920,
          "durationTicks": 119
        },
        {
          "time": 289.017834,
          "midi": 45,
          "name": "A2",
          "velocity": 1,
          "duration": 0.37187499999998863,
          "ticks": 89040,
          "durationTicks": 119
        },
        {
          "time": 289.392834,
          "midi": 57,
          "name": "A3",
          "velocity": 1,
          "duration": 0.37187499999998863,
          "ticks": 89160,
          "durationTicks": 119
        },
        {
          "time": 289.767834,
          "midi": 45,
          "name": "A2",
          "velocity": 1,
          "duration": 0.37187499999998863,
          "ticks": 89280,
          "durationTicks": 119
        },
        {
          "time": 290.142834,
          "midi": 50,
          "name": "D3",
          "velocity": 1,
          "duration": 0.7468749999999886,
          "ticks": 89400,
          "durationTicks": 239
        },
        {
          "time": 308.330334,
          "midi": 54,
          "name": "F#3",
          "velocity": 1,
          "duration": 0.18437499999998863,
          "ticks": 95220,
          "durationTicks": 59
        },
        {
          "time": 308.517834,
          "midi": 55,
          "name": "G3",
          "velocity": 0.7795275590551181,
          "duration": 0.18437499999998863,
          "ticks": 95280,
          "durationTicks": 59
        },
        {
          "time": 308.705334,
          "midi": 52,
          "name": "E3",
          "velocity": 1,
          "duration": 0.18437499999998863,
          "ticks": 95340,
          "durationTicks": 59
        },
        {
          "time": 308.892834,
          "midi": 54,
          "name": "F#3",
          "velocity": 1,
          "duration": 0.18437499999998863,
          "ticks": 95400,
          "durationTicks": 59
        },
        {
          "time": 309.080334,
          "midi": 55,
          "name": "G3",
          "velocity": 0.8818897637795275,
          "duration": 0.18437499999998863,
          "ticks": 95460,
          "durationTicks": 59
        },
        {
          "time": 309.267834,
          "midi": 52,
          "name": "E3",
          "velocity": 1,
          "duration": 0.18437499999998863,
          "ticks": 95520,
          "durationTicks": 59
        },
        {
          "time": 309.455334,
          "midi": 54,
          "name": "F#3",
          "velocity": 1,
          "duration": 0.18437499999998863,
          "ticks": 95580,
          "durationTicks": 59
        },
        {
          "time": 309.642834,
          "midi": 55,
          "name": "G3",
          "velocity": 1,
          "duration": 0.18437499999998863,
          "ticks": 95640,
          "durationTicks": 59
        },
        {
          "time": 309.830334,
          "midi": 57,
          "name": "A3",
          "velocity": 1,
          "duration": 0.18437499999998863,
          "ticks": 95700,
          "durationTicks": 59
        },
        {
          "time": 310.017834,
          "midi": 59,
          "name": "B3",
          "velocity": 0.9763779527559056,
          "duration": 0.18437499999998863,
          "ticks": 95760,
          "durationTicks": 59
        },
        {
          "time": 310.205334,
          "midi": 57,
          "name": "A3",
          "velocity": 1,
          "duration": 0.18437499999998863,
          "ticks": 95820,
          "durationTicks": 59
        },
        {
          "time": 310.392834,
          "midi": 57,
          "name": "A3",
          "velocity": 0.9763779527559056,
          "duration": 0.18437499999998863,
          "ticks": 95880,
          "durationTicks": 59
        },
        {
          "time": 310.580334,
          "midi": 55,
          "name": "G3",
          "velocity": 1,
          "duration": 0.18437499999998863,
          "ticks": 95940,
          "durationTicks": 59
        },
        {
          "time": 310.767834,
          "midi": 59,
          "name": "B3",
          "velocity": 1,
          "duration": 0.18437499999998863,
          "ticks": 96000,
          "durationTicks": 59
        },
        {
          "time": 310.955334,
          "midi": 55,
          "name": "G3",
          "velocity": 1,
          "duration": 0.18437499999998863,
          "ticks": 96060,
          "durationTicks": 59
        },
        {
          "time": 311.142834,
          "midi": 54,
          "name": "F#3",
          "velocity": 1,
          "duration": 0.18437499999998863,
          "ticks": 96120,
          "durationTicks": 59
        },
        {
          "time": 311.330334,
          "midi": 52,
          "name": "E3",
          "velocity": 1,
          "duration": 0.18437499999998863,
          "ticks": 96180,
          "durationTicks": 59
        },
        {
          "time": 311.517834,
          "midi": 55,
          "name": "G3",
          "velocity": 0.9763779527559056,
          "duration": 0.18437499999998863,
          "ticks": 96240,
          "durationTicks": 59
        },
        {
          "time": 311.705334,
          "midi": 52,
          "name": "E3",
          "velocity": 1,
          "duration": 0.18437499999998863,
          "ticks": 96300,
          "durationTicks": 59
        },
        {
          "time": 311.892834,
          "midi": 50,
          "name": "D3",
          "velocity": 0.937007874015748,
          "duration": 0.18437499999998863,
          "ticks": 96360,
          "durationTicks": 59
        },
        {
          "time": 312.080334,
          "midi": 52,
          "name": "E3",
          "velocity": 1,
          "duration": 0.18437499999998863,
          "ticks": 96420,
          "durationTicks": 59
        },
        {
          "time": 312.267834,
          "midi": 54,
          "name": "F#3",
          "velocity": 1,
          "duration": 0.18437499999998863,
          "ticks": 96480,
          "durationTicks": 59
        },
        {
          "time": 312.455334,
          "midi": 55,
          "name": "G3",
          "velocity": 1,
          "duration": 0.18437499999998863,
          "ticks": 96540,
          "durationTicks": 59
        },
        {
          "time": 312.642834,
          "midi": 57,
          "name": "A3",
          "velocity": 1,
          "duration": 0.18437499999998863,
          "ticks": 96600,
          "durationTicks": 59
        },
        {
          "time": 312.830334,
          "midi": 59,
          "name": "B3",
          "velocity": 1,
          "duration": 0.18437499999998863,
          "ticks": 96660,
          "durationTicks": 59
        },
        {
          "time": 313.017834,
          "midi": 61,
          "name": "C#4",
          "velocity": 1,
          "duration": 0.18437499999998863,
          "ticks": 96720,
          "durationTicks": 59
        },
        {
          "time": 313.205334,
          "midi": 62,
          "name": "D4",
          "velocity": 1,
          "duration": 0.18437499999998863,
          "ticks": 96780,
          "durationTicks": 59
        },
        {
          "time": 313.392834,
          "midi": 62,
          "name": "D4",
          "velocity": 1,
          "duration": 0.18437499999998863,
          "ticks": 96840,
          "durationTicks": 59
        },
        {
          "time": 313.580334,
          "midi": 61,
          "name": "C#4",
          "velocity": 1,
          "duration": 0.18437499999998863,
          "ticks": 96900,
          "durationTicks": 59
        },
        {
          "time": 313.767834,
          "midi": 64,
          "name": "E4",
          "velocity": 1,
          "duration": 0.18437499999998863,
          "ticks": 96960,
          "durationTicks": 59
        },
        {
          "time": 313.955334,
          "midi": 62,
          "name": "D4",
          "velocity": 1,
          "duration": 0.18437499999998863,
          "ticks": 97020,
          "durationTicks": 59
        },
        {
          "time": 314.142834,
          "midi": 61,
          "name": "C#4",
          "velocity": 1,
          "duration": 0.7468749999999886,
          "ticks": 97080,
          "durationTicks": 239
        },
        {
          "time": 314.892834,
          "midi": 62,
          "name": "D4",
          "velocity": 1,
          "duration": 0.37187499999998863,
          "ticks": 97320,
          "durationTicks": 119
        },
        {
          "time": 315.267834,
          "midi": 62,
          "name": "D4",
          "velocity": 1,
          "duration": 0.37187499999998863,
          "ticks": 97440,
          "durationTicks": 119
        },
        {
          "time": 315.642834,
          "midi": 62,
          "name": "D4",
          "velocity": 1,
          "duration": 0.37187499999998863,
          "ticks": 97560,
          "durationTicks": 119
        },
        {
          "time": 316.017834,
          "midi": 62,
          "name": "D4",
          "velocity": 1,
          "duration": 0.37187499999998863,
          "ticks": 97680,
          "durationTicks": 119
        },
        {
          "time": 316.392834,
          "midi": 59,
          "name": "B3",
          "velocity": 1,
          "duration": 0.37187499999998863,
          "ticks": 97800,
          "durationTicks": 119
        },
        {
          "time": 316.767834,
          "midi": 59,
          "name": "B3",
          "velocity": 1,
          "duration": 0.37187499999998863,
          "ticks": 97920,
          "durationTicks": 119
        },
        {
          "time": 317.142834,
          "midi": 61,
          "name": "C#4",
          "velocity": 1,
          "duration": 0.37187499999998863,
          "ticks": 98040,
          "durationTicks": 119
        },
        {
          "time": 317.517834,
          "midi": 61,
          "name": "C#4",
          "velocity": 1,
          "duration": 0.37187499999998863,
          "ticks": 98160,
          "durationTicks": 119
        },
        {
          "time": 317.892834,
          "midi": 62,
          "name": "D4",
          "velocity": 1,
          "duration": 0.18437499999998863,
          "ticks": 98280,
          "durationTicks": 59
        },
        {
          "time": 318.080334,
          "midi": 61,
          "name": "C#4",
          "velocity": 1,
          "duration": 0.18437499999998863,
          "ticks": 98340,
          "durationTicks": 59
        },
        {
          "time": 318.267834,
          "midi": 59,
          "name": "B3",
          "velocity": 0.937007874015748,
          "duration": 0.18437499999998863,
          "ticks": 98400,
          "durationTicks": 59
        },
        {
          "time": 318.455334,
          "midi": 57,
          "name": "A3",
          "velocity": 1,
          "duration": 0.18437499999998863,
          "ticks": 98460,
          "durationTicks": 59
        },
        {
          "time": 318.642834,
          "midi": 55,
          "name": "G3",
          "velocity": 0.9763779527559056,
          "duration": 0.18437499999998863,
          "ticks": 98520,
          "durationTicks": 59
        },
        {
          "time": 318.830334,
          "midi": 54,
          "name": "F#3",
          "velocity": 1,
          "duration": 0.18437499999998863,
          "ticks": 98580,
          "durationTicks": 59
        },
        {
          "time": 319.017834,
          "midi": 52,
          "name": "E3",
          "velocity": 1,
          "duration": 0.18437499999998863,
          "ticks": 98640,
          "durationTicks": 59
        },
        {
          "time": 319.205334,
          "midi": 50,
          "name": "D3",
          "velocity": 1,
          "duration": 0.18437499999998863,
          "ticks": 98700,
          "durationTicks": 59
        },
        {
          "time": 319.392834,
          "midi": 54,
          "name": "F#3",
          "velocity": 1,
          "duration": 0.18437499999998863,
          "ticks": 98760,
          "durationTicks": 59
        },
        {
          "time": 319.580334,
          "midi": 52,
          "name": "E3",
          "velocity": 1,
          "duration": 0.18437499999998863,
          "ticks": 98820,
          "durationTicks": 59
        },
        {
          "time": 319.767834,
          "midi": 50,
          "name": "D3",
          "velocity": 1,
          "duration": 0.18437499999998863,
          "ticks": 98880,
          "durationTicks": 59
        },
        {
          "time": 319.955334,
          "midi": 52,
          "name": "E3",
          "velocity": 1,
          "duration": 0.18437499999998863,
          "ticks": 98940,
          "durationTicks": 59
        },
        {
          "time": 320.142834,
          "midi": 50,
          "name": "D3",
          "velocity": 0.905511811023622,
          "duration": 0.18437499999998863,
          "ticks": 99000,
          "durationTicks": 59
        },
        {
          "time": 320.330334,
          "midi": 54,
          "name": "F#3",
          "velocity": 1,
          "duration": 0.18437499999998863,
          "ticks": 99060,
          "durationTicks": 59
        },
        {
          "time": 320.517834,
          "midi": 52,
          "name": "E3",
          "velocity": 1,
          "duration": 0.18437499999998863,
          "ticks": 99120,
          "durationTicks": 59
        },
        {
          "time": 320.705334,
          "midi": 50,
          "name": "D3",
          "velocity": 1,
          "duration": 0.18437499999998863,
          "ticks": 99180,
          "durationTicks": 59
        },
        {
          "time": 320.892834,
          "midi": 57,
          "name": "A3",
          "velocity": 1,
          "duration": 0.37187499999998863,
          "ticks": 99240,
          "durationTicks": 119
        },
        {
          "time": 321.267834,
          "midi": 45,
          "name": "A2",
          "velocity": 1,
          "duration": 0.37187499999998863,
          "ticks": 99360,
          "durationTicks": 119
        },
        {
          "time": 321.642834,
          "midi": 49,
          "name": "C#3",
          "velocity": 1,
          "duration": 0.18437499999998863,
          "ticks": 99480,
          "durationTicks": 59
        },
        {
          "time": 321.830334,
          "midi": 50,
          "name": "D3",
          "velocity": 1,
          "duration": 0.18437499999998863,
          "ticks": 99540,
          "durationTicks": 59
        },
        {
          "time": 322.017834,
          "midi": 52,
          "name": "E3",
          "velocity": 1,
          "duration": 0.18437499999998863,
          "ticks": 99600,
          "durationTicks": 59
        },
        {
          "time": 322.205334,
          "midi": 54,
          "name": "F#3",
          "velocity": 1,
          "duration": 0.18437499999998863,
          "ticks": 99660,
          "durationTicks": 59
        },
        {
          "time": 322.392834,
          "midi": 45,
          "name": "A2",
          "velocity": 1,
          "duration": 0.37187499999998863,
          "ticks": 99720,
          "durationTicks": 119
        },
        {
          "time": 322.767834,
          "midi": 57,
          "name": "A3",
          "velocity": 1,
          "duration": 0.37187499999998863,
          "ticks": 99840,
          "durationTicks": 119
        },
        {
          "time": 323.142834,
          "midi": 49,
          "name": "C#3",
          "velocity": 1,
          "duration": 0.18437499999998863,
          "ticks": 99960,
          "durationTicks": 59
        },
        {
          "time": 323.330334,
          "midi": 50,
          "name": "D3",
          "velocity": 1,
          "duration": 0.18437499999998863,
          "ticks": 100020,
          "durationTicks": 59
        },
        {
          "time": 323.517834,
          "midi": 52,
          "name": "E3",
          "velocity": 1,
          "duration": 0.18437499999998863,
          "ticks": 100080,
          "durationTicks": 59
        },
        {
          "time": 323.705334,
          "midi": 54,
          "name": "F#3",
          "velocity": 1,
          "duration": 0.18437499999998863,
          "ticks": 100140,
          "durationTicks": 59
        },
        {
          "time": 323.892834,
          "midi": 54,
          "name": "F#3",
          "velocity": 1,
          "duration": 0.18437499999998863,
          "ticks": 100200,
          "durationTicks": 59
        },
        {
          "time": 324.080334,
          "midi": 55,
          "name": "G3",
          "velocity": 0.937007874015748,
          "duration": 0.18437499999998863,
          "ticks": 100260,
          "durationTicks": 59
        },
        {
          "time": 324.267834,
          "midi": 57,
          "name": "A3",
          "velocity": 0.9763779527559056,
          "duration": 0.18437499999998863,
          "ticks": 100320,
          "durationTicks": 59
        },
        {
          "time": 324.455334,
          "midi": 55,
          "name": "G3",
          "velocity": 1,
          "duration": 0.18437499999998863,
          "ticks": 100380,
          "durationTicks": 59
        },
        {
          "time": 324.642834,
          "midi": 55,
          "name": "G3",
          "velocity": 1,
          "duration": 0.18437499999998863,
          "ticks": 100440,
          "durationTicks": 59
        },
        {
          "time": 324.830334,
          "midi": 57,
          "name": "A3",
          "velocity": 1,
          "duration": 0.18437499999998863,
          "ticks": 100500,
          "durationTicks": 59
        },
        {
          "time": 325.017834,
          "midi": 57,
          "name": "A3",
          "velocity": 1,
          "duration": 0.18437499999998863,
          "ticks": 100560,
          "durationTicks": 59
        },
        {
          "time": 325.205334,
          "midi": 58,
          "name": "A#3",
          "velocity": 1,
          "duration": 0.18437499999998863,
          "ticks": 100620,
          "durationTicks": 59
        },
        {
          "time": 325.392834,
          "midi": 58,
          "name": "A#3",
          "velocity": 1,
          "duration": 0.18437499999998863,
          "ticks": 100680,
          "durationTicks": 59
        },
        {
          "time": 325.580334,
          "midi": 59,
          "name": "B3",
          "velocity": 1,
          "duration": 0.18437499999998863,
          "ticks": 100740,
          "durationTicks": 59
        },
        {
          "time": 325.767834,
          "midi": 59,
          "name": "B3",
          "velocity": 1,
          "duration": 0.18437499999998863,
          "ticks": 100800,
          "durationTicks": 59
        },
        {
          "time": 325.955334,
          "midi": 56,
          "name": "G#3",
          "velocity": 1,
          "duration": 0.18437499999998863,
          "ticks": 100860,
          "durationTicks": 59
        },
        {
          "time": 326.142834,
          "midi": 57,
          "name": "A3",
          "velocity": 1,
          "duration": 0.37187499999998863,
          "ticks": 100920,
          "durationTicks": 119
        },
        {
          "time": 326.517834,
          "midi": 45,
          "name": "A2",
          "velocity": 1,
          "duration": 0.37187499999998863,
          "ticks": 101040,
          "durationTicks": 119
        },
        {
          "time": 326.892834,
          "midi": 50,
          "name": "D3",
          "velocity": 1,
          "duration": 0.37187499999998863,
          "ticks": 101160,
          "durationTicks": 119
        },
        {
          "time": 327.267834,
          "midi": 57,
          "name": "A3",
          "velocity": 1,
          "duration": 0.37187499999998863,
          "ticks": 101280,
          "durationTicks": 119
        },
        {
          "time": 327.642834,
          "midi": 57,
          "name": "A3",
          "velocity": 1,
          "duration": 0.37187499999998863,
          "ticks": 101400,
          "durationTicks": 119
        },
        {
          "time": 328.017834,
          "midi": 57,
          "name": "A3",
          "velocity": 1,
          "duration": 0.37187499999998863,
          "ticks": 101520,
          "durationTicks": 119
        },
        {
          "time": 328.392834,
          "midi": 59,
          "name": "B3",
          "velocity": 1,
          "duration": 0.37187499999998863,
          "ticks": 101640,
          "durationTicks": 119
        },
        {
          "time": 328.767834,
          "midi": 59,
          "name": "B3",
          "velocity": 1,
          "duration": 0.37187499999998863,
          "ticks": 101760,
          "durationTicks": 119
        },
        {
          "time": 329.142834,
          "midi": 62,
          "name": "D4",
          "velocity": 1,
          "duration": 0.18437499999998863,
          "ticks": 101880,
          "durationTicks": 59
        },
        {
          "time": 329.330334,
          "midi": 61,
          "name": "C#4",
          "velocity": 1,
          "duration": 0.18437499999998863,
          "ticks": 101940,
          "durationTicks": 59
        },
        {
          "time": 329.517834,
          "midi": 64,
          "name": "E4",
          "velocity": 1,
          "duration": 0.18437499999998863,
          "ticks": 102000,
          "durationTicks": 59
        },
        {
          "time": 329.705334,
          "midi": 61,
          "name": "C#4",
          "velocity": 1,
          "duration": 0.18437499999998863,
          "ticks": 102060,
          "durationTicks": 59
        },
        {
          "time": 329.892834,
          "midi": 62,
          "name": "D4",
          "velocity": 1,
          "duration": 0.37187499999998863,
          "ticks": 102120,
          "durationTicks": 119
        },
        {
          "time": 330.267834,
          "midi": 64,
          "name": "E4",
          "velocity": 1,
          "duration": 0.18437499999998863,
          "ticks": 102240,
          "durationTicks": 59
        },
        {
          "time": 330.455334,
          "midi": 66,
          "name": "F#4",
          "velocity": 1,
          "duration": 0.18437499999998863,
          "ticks": 102300,
          "durationTicks": 59
        },
        {
          "time": 330.642834,
          "midi": 62,
          "name": "D4",
          "velocity": 1,
          "duration": 0.5593749999999886,
          "ticks": 102360,
          "durationTicks": 179
        },
        {
          "time": 331.205334,
          "midi": 62,
          "name": "D4",
          "velocity": 1,
          "duration": 0.18437499999998863,
          "ticks": 102540,
          "durationTicks": 59
        },
        {
          "time": 331.392834,
          "midi": 62,
          "name": "D4",
          "velocity": 1,
          "duration": 0.18437499999998863,
          "ticks": 102600,
          "durationTicks": 59
        },
        {
          "time": 331.580334,
          "midi": 57,
          "name": "A3",
          "velocity": 1,
          "duration": 0.37187499999998863,
          "ticks": 102660,
          "durationTicks": 119
        },
        {
          "time": 331.955334,
          "midi": 62,
          "name": "D4",
          "velocity": 1,
          "duration": 0.18437499999998863,
          "ticks": 102780,
          "durationTicks": 59
        },
        {
          "time": 332.142834,
          "midi": 62,
          "name": "D4",
          "velocity": 1,
          "duration": 0.7468749999999886,
          "ticks": 102840,
          "durationTicks": 239
        }
      ],
      "controlChanges": {
        "7": [
          {
            "number": 7,
            "value": 1,
            "time": 0,
            "ticks": 0
          }
        ],
        "10": [
          {
            "number": 10,
            "value": 0.5039370078740157,
            "time": 0,
            "ticks": 0
          }
        ]
      }
    },
    {
      "name": "Coro",
      "channel": 0,
      "instrument": {
        "number": 0,
        "name": "acoustic grand piano",
        "family": "piano"
      },
      "notes": [],
      "controlChanges": {}
    },
    {
      "name": "soprano",
      "channel": 0,
      "instrument": {
        "number": 90,
        "name": "pad 3 (polysynth)",
        "family": "synth pad"
      },
      "notes": [
        {
          "time": 290.892834,
          "midi": 76,
          "name": "E5",
          "velocity": 1,
          "duration": 0.37187499999998863,
          "ticks": 89640,
          "durationTicks": 119
        },
        {
          "time": 291.267834,
          "midi": 76,
          "name": "E5",
          "velocity": 1,
          "duration": 0.37187499999998863,
          "ticks": 89760,
          "durationTicks": 119
        },
        {
          "time": 291.642834,
          "midi": 78,
          "name": "F#5",
          "velocity": 1,
          "duration": 0.37187499999998863,
          "ticks": 89880,
          "durationTicks": 119
        },
        {
          "time": 292.017834,
          "midi": 74,
          "name": "D5",
          "velocity": 1,
          "duration": 0.37187499999998863,
          "ticks": 90000,
          "durationTicks": 119
        },
        {
          "time": 292.392834,
          "midi": 76,
          "name": "E5",
          "velocity": 1,
          "duration": 0.37187499999998863,
          "ticks": 90120,
          "durationTicks": 119
        },
        {
          "time": 292.767834,
          "midi": 78,
          "name": "F#5",
          "velocity": 1,
          "duration": 0.18437499999998863,
          "ticks": 90240,
          "durationTicks": 59
        },
        {
          "time": 292.955334,
          "midi": 79,
          "name": "G5",
          "velocity": 1,
          "duration": 0.18437499999998863,
          "ticks": 90300,
          "durationTicks": 59
        },
        {
          "time": 293.142834,
          "midi": 78,
          "name": "F#5",
          "velocity": 1,
          "duration": 0.37187499999998863,
          "ticks": 90360,
          "durationTicks": 119
        },
        {
          "time": 293.517834,
          "midi": 74,
          "name": "D5",
          "velocity": 0.937007874015748,
          "duration": 0.37187499999998863,
          "ticks": 90480,
          "durationTicks": 119
        },
        {
          "time": 293.892834,
          "midi": 76,
          "name": "E5",
          "velocity": 1,
          "duration": 0.37187499999998863,
          "ticks": 90600,
          "durationTicks": 119
        },
        {
          "time": 294.267834,
          "midi": 78,
          "name": "F#5",
          "velocity": 1,
          "duration": 0.18437499999998863,
          "ticks": 90720,
          "durationTicks": 59
        },
        {
          "time": 294.455334,
          "midi": 79,
          "name": "G5",
          "velocity": 0.7244094488188977,
          "duration": 0.18437499999998863,
          "ticks": 90780,
          "durationTicks": 59
        },
        {
          "time": 294.642834,
          "midi": 78,
          "name": "F#5",
          "velocity": 0.937007874015748,
          "duration": 0.37187499999998863,
          "ticks": 90840,
          "durationTicks": 119
        },
        {
          "time": 295.017834,
          "midi": 76,
          "name": "E5",
          "velocity": 0.7795275590551181,
          "duration": 0.37187499999998863,
          "ticks": 90960,
          "durationTicks": 119
        },
        {
          "time": 295.392834,
          "midi": 74,
          "name": "D5",
          "velocity": 0.8818897637795275,
          "duration": 0.37187499999998863,
          "ticks": 91080,
          "durationTicks": 119
        },
        {
          "time": 295.767834,
          "midi": 76,
          "name": "E5",
          "velocity": 1,
          "duration": 0.37187499999998863,
          "ticks": 91200,
          "durationTicks": 119
        },
        {
          "time": 296.142834,
          "midi": 69,
          "name": "A4",
          "velocity": 0.937007874015748,
          "duration": 0.37187499999998863,
          "ticks": 91320,
          "durationTicks": 119
        },
        {
          "time": 296.517834,
          "midi": 78,
          "name": "F#5",
          "velocity": 1,
          "duration": 0.7468749999999886,
          "ticks": 91440,
          "durationTicks": 239
        },
        {
          "time": 297.267834,
          "midi": 78,
          "name": "F#5",
          "velocity": 0.9763779527559056,
          "duration": 0.37187499999998863,
          "ticks": 91680,
          "durationTicks": 119
        },
        {
          "time": 297.642834,
          "midi": 79,
          "name": "G5",
          "velocity": 0.7401574803149606,
          "duration": 0.37187499999998863,
          "ticks": 91800,
          "durationTicks": 119
        },
        {
          "time": 298.017834,
          "midi": 81,
          "name": "A5",
          "velocity": 0.7086614173228346,
          "duration": 0.37187499999998863,
          "ticks": 91920,
          "durationTicks": 119
        },
        {
          "time": 298.392834,
          "midi": 81,
          "name": "A5",
          "velocity": 0.6929133858267716,
          "duration": 0.37187499999998863,
          "ticks": 92040,
          "durationTicks": 119
        },
        {
          "time": 298.767834,
          "midi": 79,
          "name": "G5",
          "velocity": 0.6220472440944882,
          "duration": 0.37187499999998863,
          "ticks": 92160,
          "durationTicks": 119
        },
        {
          "time": 299.142834,
          "midi": 78,
          "name": "F#5",
          "velocity": 0.8503937007874016,
          "duration": 0.37187499999998863,
          "ticks": 92280,
          "durationTicks": 119
        },
        {
          "time": 299.517834,
          "midi": 76,
          "name": "E5",
          "velocity": 0.5826771653543307,
          "duration": 0.37187499999998863,
          "ticks": 92400,
          "durationTicks": 119
        },
        {
          "time": 299.892834,
          "midi": 74,
          "name": "D5",
          "velocity": 0.5905511811023622,
          "duration": 0.37187499999998863,
          "ticks": 92520,
          "durationTicks": 119
        },
        {
          "time": 300.267834,
          "midi": 74,
          "name": "D5",
          "velocity": 0.47244094488188976,
          "duration": 0.37187499999998863,
          "ticks": 92640,
          "durationTicks": 119
        },
        {
          "time": 300.642834,
          "midi": 76,
          "name": "E5",
          "velocity": 0.5669291338582677,
          "duration": 0.37187499999998863,
          "ticks": 92760,
          "durationTicks": 119
        },
        {
          "time": 301.017834,
          "midi": 78,
          "name": "F#5",
          "velocity": 0.905511811023622,
          "duration": 0.37187499999998863,
          "ticks": 92880,
          "durationTicks": 119
        },
        {
          "time": 301.392834,
          "midi": 76,
          "name": "E5",
          "velocity": 0.7244094488188977,
          "duration": 0.5593749999999886,
          "ticks": 93000,
          "durationTicks": 179
        },
        {
          "time": 301.955334,
          "midi": 74,
          "name": "D5",
          "velocity": 0.7795275590551181,
          "duration": 0.18437499999998863,
          "ticks": 93180,
          "durationTicks": 59
        },
        {
          "time": 302.142834,
          "midi": 74,
          "name": "D5",
          "velocity": 0.7637795275590551,
          "duration": 0.7468749999999886,
          "ticks": 93240,
          "durationTicks": 239
        },
        {
          "time": 332.892834,
          "midi": 78,
          "name": "F#5",
          "velocity": 1,
          "duration": 0.18437499999998863,
          "ticks": 103080,
          "durationTicks": 59
        },
        {
          "time": 333.080334,
          "midi": 76,
          "name": "E5",
          "velocity": 1,
          "duration": 0.18437499999998863,
          "ticks": 103140,
          "durationTicks": 59
        },
        {
          "time": 333.267834,
          "midi": 74,
          "name": "D5",
          "velocity": 1,
          "duration": 0.18437499999998863,
          "ticks": 103200,
          "durationTicks": 59
        },
        {
          "time": 333.455334,
          "midi": 76,
          "name": "E5",
          "velocity": 1,
          "duration": 0.18437499999998863,
          "ticks": 103260,
          "durationTicks": 59
        },
        {
          "time": 333.642834,
          "midi": 79,
          "name": "G5",
          "velocity": 1,
          "duration": 0.18437499999998863,
          "ticks": 103320,
          "durationTicks": 59
        },
        {
          "time": 333.830334,
          "midi": 78,
          "name": "F#5",
          "velocity": 1,
          "duration": 0.18437499999998863,
          "ticks": 103380,
          "durationTicks": 59
        },
        {
          "time": 334.017834,
          "midi": 76,
          "name": "E5",
          "velocity": 1,
          "duration": 0.18437499999998863,
          "ticks": 103440,
          "durationTicks": 59
        },
        {
          "time": 334.205334,
          "midi": 74,
          "name": "D5",
          "velocity": 1,
          "duration": 0.18437499999998863,
          "ticks": 103500,
          "durationTicks": 59
        },
        {
          "time": 334.392834,
          "midi": 78,
          "name": "F#5",
          "velocity": 1,
          "duration": 0.18437499999998863,
          "ticks": 103560,
          "durationTicks": 59
        },
        {
          "time": 334.580334,
          "midi": 76,
          "name": "E5",
          "velocity": 1,
          "duration": 0.18437499999998863,
          "ticks": 103620,
          "durationTicks": 59
        },
        {
          "time": 334.767834,
          "midi": 74,
          "name": "D5",
          "velocity": 0.9763779527559056,
          "duration": 0.18437499999998863,
          "ticks": 103680,
          "durationTicks": 59
        },
        {
          "time": 334.955334,
          "midi": 76,
          "name": "E5",
          "velocity": 1,
          "duration": 0.18437499999998863,
          "ticks": 103740,
          "durationTicks": 59
        },
        {
          "time": 335.142834,
          "midi": 79,
          "name": "G5",
          "velocity": 1,
          "duration": 0.18437499999998863,
          "ticks": 103800,
          "durationTicks": 59
        },
        {
          "time": 335.330334,
          "midi": 78,
          "name": "F#5",
          "velocity": 1,
          "duration": 0.18437499999998863,
          "ticks": 103860,
          "durationTicks": 59
        },
        {
          "time": 335.517834,
          "midi": 76,
          "name": "E5",
          "velocity": 1,
          "duration": 0.18437499999998863,
          "ticks": 103920,
          "durationTicks": 59
        },
        {
          "time": 335.705334,
          "midi": 74,
          "name": "D5",
          "velocity": 1,
          "duration": 0.18437499999998863,
          "ticks": 103980,
          "durationTicks": 59
        },
        {
          "time": 335.892834,
          "midi": 78,
          "name": "F#5",
          "velocity": 1,
          "duration": 0.18437499999998863,
          "ticks": 104040,
          "durationTicks": 59
        },
        {
          "time": 336.080334,
          "midi": 76,
          "name": "E5",
          "velocity": 1,
          "duration": 0.18437499999998863,
          "ticks": 104100,
          "durationTicks": 59
        },
        {
          "time": 336.267834,
          "midi": 74,
          "name": "D5",
          "velocity": 1,
          "duration": 0.18437499999998863,
          "ticks": 104160,
          "durationTicks": 59
        },
        {
          "time": 336.455334,
          "midi": 76,
          "name": "E5",
          "velocity": 1,
          "duration": 0.18437499999998863,
          "ticks": 104220,
          "durationTicks": 59
        },
        {
          "time": 336.642834,
          "midi": 79,
          "name": "G5",
          "velocity": 1,
          "duration": 0.18437499999998863,
          "ticks": 104280,
          "durationTicks": 59
        },
        {
          "time": 336.830334,
          "midi": 78,
          "name": "F#5",
          "velocity": 1,
          "duration": 0.18437499999998863,
          "ticks": 104340,
          "durationTicks": 59
        },
        {
          "time": 337.017834,
          "midi": 78,
          "name": "F#5",
          "velocity": 1,
          "duration": 0.18437499999998863,
          "ticks": 104400,
          "durationTicks": 59
        },
        {
          "time": 337.205334,
          "midi": 76,
          "name": "E5",
          "velocity": 1,
          "duration": 0.18437499999998863,
          "ticks": 104460,
          "durationTicks": 59
        },
        {
          "time": 337.392834,
          "midi": 76,
          "name": "E5",
          "velocity": 1,
          "duration": 0.18437499999998863,
          "ticks": 104520,
          "durationTicks": 59
        },
        {
          "time": 337.580334,
          "midi": 74,
          "name": "D5",
          "velocity": 1,
          "duration": 0.18437499999998863,
          "ticks": 104580,
          "durationTicks": 59
        },
        {
          "time": 337.767834,
          "midi": 74,
          "name": "D5",
          "velocity": 1,
          "duration": 0.18437499999998863,
          "ticks": 104640,
          "durationTicks": 59
        },
        {
          "time": 337.955334,
          "midi": 76,
          "name": "E5",
          "velocity": 1,
          "duration": 0.18437499999998863,
          "ticks": 104700,
          "durationTicks": 59
        },
        {
          "time": 338.142834,
          "midi": 69,
          "name": "A4",
          "velocity": 1,
          "duration": 0.37187499999998863,
          "ticks": 104760,
          "durationTicks": 119
        },
        {
          "time": 338.517834,
          "midi": 78,
          "name": "F#5",
          "velocity": 1,
          "duration": 0.5593749999999886,
          "ticks": 104880,
          "durationTicks": 179
        },
        {
          "time": 339.080334,
          "midi": 79,
          "name": "G5",
          "velocity": 1,
          "duration": 0.18437499999998863,
          "ticks": 105060,
          "durationTicks": 59
        },
        {
          "time": 339.267834,
          "midi": 76,
          "name": "E5",
          "velocity": 1,
          "duration": 0.18437499999998863,
          "ticks": 105120,
          "durationTicks": 59
        },
        {
          "time": 339.455334,
          "midi": 78,
          "name": "F#5",
          "velocity": 1,
          "duration": 0.18437499999998863,
          "ticks": 105180,
          "durationTicks": 59
        },
        {
          "time": 339.642834,
          "midi": 79,
          "name": "G5",
          "velocity": 1,
          "duration": 0.18437499999998863,
          "ticks": 105240,
          "durationTicks": 59
        },
        {
          "time": 339.830334,
          "midi": 81,
          "name": "A5",
          "velocity": 0.9763779527559056,
          "duration": 0.18437499999998863,
          "ticks": 105300,
          "durationTicks": 59
        },
        {
          "time": 340.017834,
          "midi": 83,
          "name": "B5",
          "velocity": 1,
          "duration": 0.18437499999998863,
          "ticks": 105360,
          "durationTicks": 59
        },
        {
          "time": 340.205334,
          "midi": 81,
          "name": "A5",
          "velocity": 1,
          "duration": 0.18437499999998863,
          "ticks": 105420,
          "durationTicks": 59
        },
        {
          "time": 340.392834,
          "midi": 81,
          "name": "A5",
          "velocity": 1,
          "duration": 0.18437499999998863,
          "ticks": 105480,
          "durationTicks": 59
        },
        {
          "time": 340.580334,
          "midi": 79,
          "name": "G5",
          "velocity": 1,
          "duration": 0.18437499999998863,
          "ticks": 105540,
          "durationTicks": 59
        },
        {
          "time": 340.767834,
          "midi": 83,
          "name": "B5",
          "velocity": 1,
          "duration": 0.18437499999998863,
          "ticks": 105600,
          "durationTicks": 59
        },
        {
          "time": 340.955334,
          "midi": 79,
          "name": "G5",
          "velocity": 1,
          "duration": 0.18437499999998863,
          "ticks": 105660,
          "durationTicks": 59
        },
        {
          "time": 341.142834,
          "midi": 78,
          "name": "F#5",
          "velocity": 1,
          "duration": 0.18437499999998863,
          "ticks": 105720,
          "durationTicks": 59
        },
        {
          "time": 341.330334,
          "midi": 76,
          "name": "E5",
          "velocity": 1,
          "duration": 0.18437499999998863,
          "ticks": 105780,
          "durationTicks": 59
        },
        {
          "time": 341.517834,
          "midi": 79,
          "name": "G5",
          "velocity": 1,
          "duration": 0.18437499999998863,
          "ticks": 105840,
          "durationTicks": 59
        },
        {
          "time": 341.705334,
          "midi": 76,
          "name": "E5",
          "velocity": 1,
          "duration": 0.18437499999998863,
          "ticks": 105900,
          "durationTicks": 59
        },
        {
          "time": 341.892834,
          "midi": 76,
          "name": "E5",
          "velocity": 1,
          "duration": 0.18437499999998863,
          "ticks": 105960,
          "durationTicks": 59
        },
        {
          "time": 342.080334,
          "midi": 74,
          "name": "D5",
          "velocity": 1,
          "duration": 0.18437499999998863,
          "ticks": 106020,
          "durationTicks": 59
        },
        {
          "time": 342.267834,
          "midi": 73,
          "name": "C#5",
          "velocity": 1,
          "duration": 0.18437499999998863,
          "ticks": 106080,
          "durationTicks": 59
        },
        {
          "time": 342.455334,
          "midi": 74,
          "name": "D5",
          "velocity": 1,
          "duration": 0.18437499999998863,
          "ticks": 106140,
          "durationTicks": 59
        },
        {
          "time": 342.642834,
          "midi": 78,
          "name": "F#5",
          "velocity": 1,
          "duration": 0.18437499999998863,
          "ticks": 106200,
          "durationTicks": 59
        },
        {
          "time": 342.830334,
          "midi": 76,
          "name": "E5",
          "velocity": 1,
          "duration": 0.18437499999998863,
          "ticks": 106260,
          "durationTicks": 59
        },
        {
          "time": 343.017834,
          "midi": 79,
          "name": "G5",
          "velocity": 1,
          "duration": 0.18437499999998863,
          "ticks": 106320,
          "durationTicks": 59
        },
        {
          "time": 343.205334,
          "midi": 78,
          "name": "F#5",
          "velocity": 1,
          "duration": 0.18437499999998863,
          "ticks": 106380,
          "durationTicks": 59
        },
        {
          "time": 343.392834,
          "midi": 78,
          "name": "F#5",
          "velocity": 1,
          "duration": 0.18437499999998863,
          "ticks": 106440,
          "durationTicks": 59
        },
        {
          "time": 343.580334,
          "midi": 76,
          "name": "E5",
          "velocity": 1,
          "duration": 0.37187499999998863,
          "ticks": 106500,
          "durationTicks": 119
        },
        {
          "time": 343.955334,
          "midi": 69,
          "name": "A4",
          "velocity": 1,
          "duration": 0.18437499999998863,
          "ticks": 106620,
          "durationTicks": 59
        },
        {
          "time": 344.142834,
          "midi": 74,
          "name": "D5",
          "velocity": 1,
          "duration": 0.7468749999999886,
          "ticks": 106680,
          "durationTicks": 239
        },
        {
          "time": 344.892834,
          "midi": 69,
          "name": "A4",
          "velocity": 1,
          "duration": 0.37187499999998863,
          "ticks": 106920,
          "durationTicks": 119
        },
        {
          "time": 345.642834,
          "midi": 69,
          "name": "A4",
          "velocity": 1,
          "duration": 0.37187499999998863,
          "ticks": 107160,
          "durationTicks": 119
        },
        {
          "time": 346.392834,
          "midi": 71,
          "name": "B4",
          "velocity": 1,
          "duration": 0.37187499999998863,
          "ticks": 107400,
          "durationTicks": 119
        },
        {
          "time": 347.142834,
          "midi": 71,
          "name": "B4",
          "velocity": 1,
          "duration": 0.37187499999998863,
          "ticks": 107640,
          "durationTicks": 119
        },
        {
          "time": 347.892834,
          "midi": 73,
          "name": "C#5",
          "velocity": 1,
          "duration": 0.37187499999998863,
          "ticks": 107880,
          "durationTicks": 119
        },
        {
          "time": 348.642834,
          "midi": 73,
          "name": "C#5",
          "velocity": 1,
          "duration": 0.37187499999998863,
          "ticks": 108120,
          "durationTicks": 119
        },
        {
          "time": 349.392834,
          "midi": 74,
          "name": "D5",
          "velocity": 1,
          "duration": 1.4968749999999886,
          "ticks": 108360,
          "durationTicks": 479
        },
        {
          "time": 350.892834,
          "midi": 80,
          "name": "G#5",
          "velocity": 1,
          "duration": 0.37187499999998863,
          "ticks": 108840,
          "durationTicks": 119
        },
        {
          "time": 351.642834,
          "midi": 80,
          "name": "G#5",
          "velocity": 1,
          "duration": 0.37187499999998863,
          "ticks": 109080,
          "durationTicks": 119
        },
        {
          "time": 352.392834,
          "midi": 81,
          "name": "A5",
          "velocity": 1,
          "duration": 1.4968749999999886,
          "ticks": 109320,
          "durationTicks": 479
        },
        {
          "time": 354.642834,
          "midi": 80,
          "name": "G#5",
          "velocity": 1,
          "duration": 0.37187499999998863,
          "ticks": 110040,
          "durationTicks": 119
        },
        {
          "time": 355.392834,
          "midi": 81,
          "name": "A5",
          "velocity": 1,
          "duration": 1.4968749999999886,
          "ticks": 110280,
          "durationTicks": 479
        },
        {
          "time": 357.642834,
          "midi": 81,
          "name": "A5",
          "velocity": 1,
          "duration": 0.37187499999998863,
          "ticks": 111000,
          "durationTicks": 119
        },
        {
          "time": 358.392834,
          "midi": 81,
          "name": "A5",
          "velocity": 1,
          "duration": 1.5386393583333415,
          "ticks": 111240,
          "durationTicks": 479
        }
      ],
      "controlChanges": {
        "7": [
          {
            "number": 7,
            "value": 1,
            "time": 0,
            "ticks": 0
          }
        ],
        "10": [
          {
            "number": 10,
            "value": 0.5039370078740157,
            "time": 0,
            "ticks": 0
          }
        ]
      }
    },
    {
      "name": "Alto",
      "channel": 0,
      "instrument": {
        "number": 90,
        "name": "pad 3 (polysynth)",
        "family": "synth pad"
      },
      "notes": [
        {
          "time": 248.892834,
          "midi": 64,
          "name": "E4",
          "velocity": 1,
          "duration": 0.37187499999998863,
          "ticks": 76200,
          "durationTicks": 119
        },
        {
          "time": 248.892834,
          "midi": 64,
          "name": "E4",
          "velocity": 1,
          "duration": 0.37187499999998863,
          "ticks": 76200,
          "durationTicks": 119
        },
        {
          "time": 249.267834,
          "midi": 64,
          "name": "E4",
          "velocity": 1,
          "duration": 0.37187499999998863,
          "ticks": 76320,
          "durationTicks": 119
        },
        {
          "time": 249.267834,
          "midi": 64,
          "name": "E4",
          "velocity": 1,
          "duration": 0.37187499999998863,
          "ticks": 76320,
          "durationTicks": 119
        },
        {
          "time": 249.642834,
          "midi": 66,
          "name": "F#4",
          "velocity": 1,
          "duration": 0.37187499999998863,
          "ticks": 76440,
          "durationTicks": 119
        },
        {
          "time": 249.642834,
          "midi": 66,
          "name": "F#4",
          "velocity": 1,
          "duration": 0.37187499999998863,
          "ticks": 76440,
          "durationTicks": 119
        },
        {
          "time": 250.017834,
          "midi": 62,
          "name": "D4",
          "velocity": 1,
          "duration": 0.37187499999998863,
          "ticks": 76560,
          "durationTicks": 119
        },
        {
          "time": 250.017834,
          "midi": 62,
          "name": "D4",
          "velocity": 1,
          "duration": 0.37187499999998863,
          "ticks": 76560,
          "durationTicks": 119
        },
        {
          "time": 250.392834,
          "midi": 64,
          "name": "E4",
          "velocity": 1,
          "duration": 0.37187499999998863,
          "ticks": 76680,
          "durationTicks": 119
        },
        {
          "time": 250.392834,
          "midi": 64,
          "name": "E4",
          "velocity": 1,
          "duration": 0.37187499999998863,
          "ticks": 76680,
          "durationTicks": 119
        },
        {
          "time": 250.767834,
          "midi": 66,
          "name": "F#4",
          "velocity": 1,
          "duration": 0.18437499999998863,
          "ticks": 76800,
          "durationTicks": 59
        },
        {
          "time": 250.767834,
          "midi": 66,
          "name": "F#4",
          "velocity": 1,
          "duration": 0.18437499999998863,
          "ticks": 76800,
          "durationTicks": 59
        },
        {
          "time": 250.955334,
          "midi": 67,
          "name": "G4",
          "velocity": 1,
          "duration": 0.18437499999998863,
          "ticks": 76860,
          "durationTicks": 59
        },
        {
          "time": 250.955334,
          "midi": 67,
          "name": "G4",
          "velocity": 1,
          "duration": 0.18437499999998863,
          "ticks": 76860,
          "durationTicks": 59
        },
        {
          "time": 251.142834,
          "midi": 66,
          "name": "F#4",
          "velocity": 1,
          "duration": 0.37187499999998863,
          "ticks": 76920,
          "durationTicks": 119
        },
        {
          "time": 251.142834,
          "midi": 66,
          "name": "F#4",
          "velocity": 1,
          "duration": 0.37187499999998863,
          "ticks": 76920,
          "durationTicks": 119
        },
        {
          "time": 251.517834,
          "midi": 62,
          "name": "D4",
          "velocity": 1,
          "duration": 0.37187499999998863,
          "ticks": 77040,
          "durationTicks": 119
        },
        {
          "time": 251.517834,
          "midi": 62,
          "name": "D4",
          "velocity": 1,
          "duration": 0.37187499999998863,
          "ticks": 77040,
          "durationTicks": 119
        },
        {
          "time": 251.892834,
          "midi": 64,
          "name": "E4",
          "velocity": 1,
          "duration": 0.37187499999998863,
          "ticks": 77160,
          "durationTicks": 119
        },
        {
          "time": 251.892834,
          "midi": 64,
          "name": "E4",
          "velocity": 1,
          "duration": 0.37187499999998863,
          "ticks": 77160,
          "durationTicks": 119
        },
        {
          "time": 252.267834,
          "midi": 66,
          "name": "F#4",
          "velocity": 1,
          "duration": 0.18437499999998863,
          "ticks": 77280,
          "durationTicks": 59
        },
        {
          "time": 252.267834,
          "midi": 66,
          "name": "F#4",
          "velocity": 1,
          "duration": 0.18437499999998863,
          "ticks": 77280,
          "durationTicks": 59
        },
        {
          "time": 252.455334,
          "midi": 67,
          "name": "G4",
          "velocity": 1,
          "duration": 0.18437499999998863,
          "ticks": 77340,
          "durationTicks": 59
        },
        {
          "time": 252.455334,
          "midi": 67,
          "name": "G4",
          "velocity": 1,
          "duration": 0.18437499999998863,
          "ticks": 77340,
          "durationTicks": 59
        },
        {
          "time": 252.642834,
          "midi": 66,
          "name": "F#4",
          "velocity": 1,
          "duration": 0.37187499999998863,
          "ticks": 77400,
          "durationTicks": 119
        },
        {
          "time": 252.642834,
          "midi": 66,
          "name": "F#4",
          "velocity": 1,
          "duration": 0.37187499999998863,
          "ticks": 77400,
          "durationTicks": 119
        },
        {
          "time": 253.017834,
          "midi": 64,
          "name": "E4",
          "velocity": 1,
          "duration": 0.37187499999998863,
          "ticks": 77520,
          "durationTicks": 119
        },
        {
          "time": 253.017834,
          "midi": 64,
          "name": "E4",
          "velocity": 1,
          "duration": 0.37187499999998863,
          "ticks": 77520,
          "durationTicks": 119
        },
        {
          "time": 253.392834,
          "midi": 62,
          "name": "D4",
          "velocity": 1,
          "duration": 0.37187499999998863,
          "ticks": 77640,
          "durationTicks": 119
        },
        {
          "time": 253.392834,
          "midi": 62,
          "name": "D4",
          "velocity": 1,
          "duration": 0.37187499999998863,
          "ticks": 77640,
          "durationTicks": 119
        },
        {
          "time": 253.767834,
          "midi": 64,
          "name": "E4",
          "velocity": 1,
          "duration": 0.37187499999998863,
          "ticks": 77760,
          "durationTicks": 119
        },
        {
          "time": 253.767834,
          "midi": 64,
          "name": "E4",
          "velocity": 1,
          "duration": 0.37187499999998863,
          "ticks": 77760,
          "durationTicks": 119
        },
        {
          "time": 254.142834,
          "midi": 57,
          "name": "A3",
          "velocity": 0.937007874015748,
          "duration": 0.37187499999998863,
          "ticks": 77880,
          "durationTicks": 119
        },
        {
          "time": 254.142834,
          "midi": 57,
          "name": "A3",
          "velocity": 0.937007874015748,
          "duration": 0.37187499999998863,
          "ticks": 77880,
          "durationTicks": 119
        },
        {
          "time": 254.517834,
          "midi": 66,
          "name": "F#4",
          "velocity": 1,
          "duration": 0.7468749999999886,
          "ticks": 78000,
          "durationTicks": 239
        },
        {
          "time": 254.517834,
          "midi": 66,
          "name": "F#4",
          "velocity": 1,
          "duration": 0.7468749999999886,
          "ticks": 78000,
          "durationTicks": 239
        },
        {
          "time": 255.267834,
          "midi": 66,
          "name": "F#4",
          "velocity": 1,
          "duration": 0.37187499999998863,
          "ticks": 78240,
          "durationTicks": 119
        },
        {
          "time": 255.267834,
          "midi": 66,
          "name": "F#4",
          "velocity": 1,
          "duration": 0.37187499999998863,
          "ticks": 78240,
          "durationTicks": 119
        },
        {
          "time": 255.642834,
          "midi": 67,
          "name": "G4",
          "velocity": 0.8818897637795275,
          "duration": 0.37187499999998863,
          "ticks": 78360,
          "durationTicks": 119
        },
        {
          "time": 255.642834,
          "midi": 67,
          "name": "G4",
          "velocity": 0.8818897637795275,
          "duration": 0.37187499999998863,
          "ticks": 78360,
          "durationTicks": 119
        },
        {
          "time": 256.017834,
          "midi": 69,
          "name": "A4",
          "velocity": 1,
          "duration": 0.37187499999998863,
          "ticks": 78480,
          "durationTicks": 119
        },
        {
          "time": 256.017834,
          "midi": 69,
          "name": "A4",
          "velocity": 1,
          "duration": 0.37187499999998863,
          "ticks": 78480,
          "durationTicks": 119
        },
        {
          "time": 256.392834,
          "midi": 69,
          "name": "A4",
          "velocity": 1,
          "duration": 0.37187499999998863,
          "ticks": 78600,
          "durationTicks": 119
        },
        {
          "time": 256.392834,
          "midi": 69,
          "name": "A4",
          "velocity": 1,
          "duration": 0.37187499999998863,
          "ticks": 78600,
          "durationTicks": 119
        },
        {
          "time": 256.767834,
          "midi": 67,
          "name": "G4",
          "velocity": 0.9763779527559056,
          "duration": 0.37187499999998863,
          "ticks": 78720,
          "durationTicks": 119
        },
        {
          "time": 256.767834,
          "midi": 67,
          "name": "G4",
          "velocity": 0.9763779527559056,
          "duration": 0.37187499999998863,
          "ticks": 78720,
          "durationTicks": 119
        },
        {
          "time": 257.142834,
          "midi": 66,
          "name": "F#4",
          "velocity": 1,
          "duration": 0.37187499999998863,
          "ticks": 78840,
          "durationTicks": 119
        },
        {
          "time": 257.142834,
          "midi": 66,
          "name": "F#4",
          "velocity": 1,
          "duration": 0.37187499999998863,
          "ticks": 78840,
          "durationTicks": 119
        },
        {
          "time": 257.517834,
          "midi": 67,
          "name": "G4",
          "velocity": 1,
          "duration": 0.18437499999998863,
          "ticks": 78960,
          "durationTicks": 59
        },
        {
          "time": 257.517834,
          "midi": 67,
          "name": "G4",
          "velocity": 1,
          "duration": 0.18437499999998863,
          "ticks": 78960,
          "durationTicks": 59
        },
        {
          "time": 257.705334,
          "midi": 64,
          "name": "E4",
          "velocity": 1,
          "duration": 0.18437499999998863,
          "ticks": 79020,
          "durationTicks": 59
        },
        {
          "time": 257.705334,
          "midi": 64,
          "name": "E4",
          "velocity": 1,
          "duration": 0.18437499999998863,
          "ticks": 79020,
          "durationTicks": 59
        },
        {
          "time": 257.892834,
          "midi": 62,
          "name": "D4",
          "velocity": 1,
          "duration": 0.37187499999998863,
          "ticks": 79080,
          "durationTicks": 119
        },
        {
          "time": 257.892834,
          "midi": 62,
          "name": "D4",
          "velocity": 1,
          "duration": 0.37187499999998863,
          "ticks": 79080,
          "durationTicks": 119
        },
        {
          "time": 258.267834,
          "midi": 62,
          "name": "D4",
          "velocity": 1,
          "duration": 0.37187499999998863,
          "ticks": 79200,
          "durationTicks": 119
        },
        {
          "time": 258.267834,
          "midi": 62,
          "name": "D4",
          "velocity": 1,
          "duration": 0.37187499999998863,
          "ticks": 79200,
          "durationTicks": 119
        },
        {
          "time": 258.642834,
          "midi": 64,
          "name": "E4",
          "velocity": 1,
          "duration": 0.37187499999998863,
          "ticks": 79320,
          "durationTicks": 119
        },
        {
          "time": 258.642834,
          "midi": 64,
          "name": "E4",
          "velocity": 1,
          "duration": 0.37187499999998863,
          "ticks": 79320,
          "durationTicks": 119
        },
        {
          "time": 259.017834,
          "midi": 66,
          "name": "F#4",
          "velocity": 1,
          "duration": 0.37187499999998863,
          "ticks": 79440,
          "durationTicks": 119
        },
        {
          "time": 259.017834,
          "midi": 66,
          "name": "F#4",
          "velocity": 1,
          "duration": 0.37187499999998863,
          "ticks": 79440,
          "durationTicks": 119
        },
        {
          "time": 259.392834,
          "midi": 64,
          "name": "E4",
          "velocity": 1,
          "duration": 0.5593749999999886,
          "ticks": 79560,
          "durationTicks": 179
        },
        {
          "time": 259.392834,
          "midi": 64,
          "name": "E4",
          "velocity": 1,
          "duration": 0.5593749999999886,
          "ticks": 79560,
          "durationTicks": 179
        },
        {
          "time": 259.955334,
          "midi": 62,
          "name": "D4",
          "velocity": 1,
          "duration": 0.18437499999998863,
          "ticks": 79740,
          "durationTicks": 59
        },
        {
          "time": 259.955334,
          "midi": 62,
          "name": "D4",
          "velocity": 1,
          "duration": 0.18437499999998863,
          "ticks": 79740,
          "durationTicks": 59
        },
        {
          "time": 260.142834,
          "midi": 62,
          "name": "D4",
          "velocity": 1,
          "duration": 0.7468749999999886,
          "ticks": 79800,
          "durationTicks": 239
        },
        {
          "time": 260.142834,
          "midi": 62,
          "name": "D4",
          "velocity": 1,
          "duration": 0.7468749999999886,
          "ticks": 79800,
          "durationTicks": 239
        },
        {
          "time": 290.892834,
          "midi": 69,
          "name": "A4",
          "velocity": 0.8503937007874016,
          "duration": 0.37187499999998863,
          "ticks": 89640,
          "durationTicks": 119
        },
        {
          "time": 291.267834,
          "midi": 69,
          "name": "A4",
          "velocity": 0.905511811023622,
          "duration": 0.37187499999998863,
          "ticks": 89760,
          "durationTicks": 119
        },
        {
          "time": 291.642834,
          "midi": 69,
          "name": "A4",
          "velocity": 0.905511811023622,
          "duration": 0.37187499999998863,
          "ticks": 89880,
          "durationTicks": 119
        },
        {
          "time": 292.017834,
          "midi": 69,
          "name": "A4",
          "velocity": 0.8503937007874016,
          "duration": 0.37187499999998863,
          "ticks": 90000,
          "durationTicks": 119
        },
        {
          "time": 292.392834,
          "midi": 69,
          "name": "A4",
          "velocity": 0.905511811023622,
          "duration": 0.37187499999998863,
          "ticks": 90120,
          "durationTicks": 119
        },
        {
          "time": 292.767834,
          "midi": 69,
          "name": "A4",
          "velocity": 0.7637795275590551,
          "duration": 0.37187499999998863,
          "ticks": 90240,
          "durationTicks": 119
        },
        {
          "time": 293.142834,
          "midi": 69,
          "name": "A4",
          "velocity": 0.9763779527559056,
          "duration": 0.37187499999998863,
          "ticks": 90360,
          "durationTicks": 119
        },
        {
          "time": 293.517834,
          "midi": 67,
          "name": "G4",
          "velocity": 0.8031496062992126,
          "duration": 0.18437499999998863,
          "ticks": 90480,
          "durationTicks": 59
        },
        {
          "time": 293.705334,
          "midi": 66,
          "name": "F#4",
          "velocity": 1,
          "duration": 0.18437499999998863,
          "ticks": 90540,
          "durationTicks": 59
        },
        {
          "time": 293.892834,
          "midi": 69,
          "name": "A4",
          "velocity": 0.8818897637795275,
          "duration": 0.37187499999998863,
          "ticks": 90600,
          "durationTicks": 119
        },
        {
          "time": 294.267834,
          "midi": 64,
          "name": "E4",
          "velocity": 0.905511811023622,
          "duration": 0.37187499999998863,
          "ticks": 90720,
          "durationTicks": 119
        },
        {
          "time": 294.642834,
          "midi": 66,
          "name": "F#4",
          "velocity": 1,
          "duration": 0.37187499999998863,
          "ticks": 90840,
          "durationTicks": 119
        },
        {
          "time": 295.017834,
          "midi": 66,
          "name": "F#4",
          "velocity": 1,
          "duration": 0.37187499999998863,
          "ticks": 90960,
          "durationTicks": 119
        },
        {
          "time": 295.392834,
          "midi": 66,
          "name": "F#4",
          "velocity": 1,
          "duration": 0.37187499999998863,
          "ticks": 91080,
          "durationTicks": 119
        },
        {
          "time": 295.767834,
          "midi": 68,
          "name": "G#4",
          "velocity": 1,
          "duration": 0.37187499999998863,
          "ticks": 91200,
          "durationTicks": 119
        },
        {
          "time": 296.142834,
          "midi": 69,
          "name": "A4",
          "velocity": 0.937007874015748,
          "duration": 0.37187499999998863,
          "ticks": 91320,
          "durationTicks": 119
        },
        {
          "time": 296.517834,
          "midi": 69,
          "name": "A4",
          "velocity": 0.9763779527559056,
          "duration": 0.7468749999999886,
          "ticks": 91440,
          "durationTicks": 239
        },
        {
          "time": 297.267834,
          "midi": 69,
          "name": "A4",
          "velocity": 0.9763779527559056,
          "duration": 0.37187499999998863,
          "ticks": 91680,
          "durationTicks": 119
        },
        {
          "time": 297.642834,
          "midi": 69,
          "name": "A4",
          "velocity": 0.7637795275590551,
          "duration": 0.37187499999998863,
          "ticks": 91800,
          "durationTicks": 119
        },
        {
          "time": 298.017834,
          "midi": 69,
          "name": "A4",
          "velocity": 0.8031496062992126,
          "duration": 0.37187499999998863,
          "ticks": 91920,
          "durationTicks": 119
        },
        {
          "time": 298.392834,
          "midi": 69,
          "name": "A4",
          "velocity": 0.8031496062992126,
          "duration": 0.37187499999998863,
          "ticks": 92040,
          "durationTicks": 119
        },
        {
          "time": 298.767834,
          "midi": 69,
          "name": "A4",
          "velocity": 0.7637795275590551,
          "duration": 0.37187499999998863,
          "ticks": 92160,
          "durationTicks": 119
        },
        {
          "time": 299.142834,
          "midi": 69,
          "name": "A4",
          "velocity": 0.6377952755905512,
          "duration": 0.37187499999998863,
          "ticks": 92280,
          "durationTicks": 119
        },
        {
          "time": 299.517834,
          "midi": 69,
          "name": "A4",
          "velocity": 0.8267716535433071,
          "duration": 0.37187499999998863,
          "ticks": 92400,
          "durationTicks": 119
        },
        {
          "time": 299.892834,
          "midi": 69,
          "name": "A4",
          "velocity": 0.6377952755905512,
          "duration": 0.37187499999998863,
          "ticks": 92520,
          "durationTicks": 119
        },
        {
          "time": 300.267834,
          "midi": 66,
          "name": "F#4",
          "velocity": 0.7244094488188977,
          "duration": 0.37187499999998863,
          "ticks": 92640,
          "durationTicks": 119
        },
        {
          "time": 300.642834,
          "midi": 67,
          "name": "G4",
          "velocity": 0.5196850393700787,
          "duration": 0.37187499999998863,
          "ticks": 92760,
          "durationTicks": 119
        },
        {
          "time": 301.017834,
          "midi": 69,
          "name": "A4",
          "velocity": 0.6614173228346457,
          "duration": 0.37187499999998863,
          "ticks": 92880,
          "durationTicks": 119
        },
        {
          "time": 301.392834,
          "midi": 67,
          "name": "G4",
          "velocity": 0.6614173228346457,
          "duration": 0.5593749999999886,
          "ticks": 93000,
          "durationTicks": 179
        },
        {
          "time": 301.955334,
          "midi": 66,
          "name": "F#4",
          "velocity": 0.7637795275590551,
          "duration": 0.18437499999998863,
          "ticks": 93180,
          "durationTicks": 59
        },
        {
          "time": 302.142834,
          "midi": 66,
          "name": "F#4",
          "velocity": 0.8818897637795275,
          "duration": 0.7468749999999886,
          "ticks": 93240,
          "durationTicks": 239
        },
        {
          "time": 332.892834,
          "midi": 69,
          "name": "A4",
          "velocity": 1,
          "duration": 0.37187499999998863,
          "ticks": 103080,
          "durationTicks": 119
        },
        {
          "time": 333.267834,
          "midi": 69,
          "name": "A4",
          "velocity": 1,
          "duration": 0.37187499999998863,
          "ticks": 103200,
          "durationTicks": 119
        },
        {
          "time": 333.642834,
          "midi": 69,
          "name": "A4",
          "velocity": 1,
          "duration": 0.37187499999998863,
          "ticks": 103320,
          "durationTicks": 119
        },
        {
          "time": 334.017834,
          "midi": 69,
          "name": "A4",
          "velocity": 1,
          "duration": 0.37187499999998863,
          "ticks": 103440,
          "durationTicks": 119
        },
        {
          "time": 334.392834,
          "midi": 69,
          "name": "A4",
          "velocity": 1,
          "duration": 0.37187499999998863,
          "ticks": 103560,
          "durationTicks": 119
        },
        {
          "time": 334.767834,
          "midi": 69,
          "name": "A4",
          "velocity": 1,
          "duration": 0.37187499999998863,
          "ticks": 103680,
          "durationTicks": 119
        },
        {
          "time": 335.142834,
          "midi": 69,
          "name": "A4",
          "velocity": 1,
          "duration": 0.37187499999998863,
          "ticks": 103800,
          "durationTicks": 119
        },
        {
          "time": 335.517834,
          "midi": 69,
          "name": "A4",
          "velocity": 1,
          "duration": 0.37187499999998863,
          "ticks": 103920,
          "durationTicks": 119
        },
        {
          "time": 335.892834,
          "midi": 74,
          "name": "D5",
          "velocity": 1,
          "duration": 0.18437499999998863,
          "ticks": 104040,
          "durationTicks": 59
        },
        {
          "time": 336.080334,
          "midi": 73,
          "name": "C#5",
          "velocity": 1,
          "duration": 0.18437499999998863,
          "ticks": 104100,
          "durationTicks": 59
        },
        {
          "time": 336.267834,
          "midi": 71,
          "name": "B4",
          "velocity": 1,
          "duration": 0.18437499999998863,
          "ticks": 104160,
          "durationTicks": 59
        },
        {
          "time": 336.455334,
          "midi": 73,
          "name": "C#5",
          "velocity": 1,
          "duration": 0.18437499999998863,
          "ticks": 104220,
          "durationTicks": 59
        },
        {
          "time": 336.642834,
          "midi": 76,
          "name": "E5",
          "velocity": 1,
          "duration": 0.18437499999998863,
          "ticks": 104280,
          "durationTicks": 59
        },
        {
          "time": 336.830334,
          "midi": 74,
          "name": "D5",
          "velocity": 1,
          "duration": 0.18437499999998863,
          "ticks": 104340,
          "durationTicks": 59
        },
        {
          "time": 337.017834,
          "midi": 74,
          "name": "D5",
          "velocity": 1,
          "duration": 0.18437499999998863,
          "ticks": 104400,
          "durationTicks": 59
        },
        {
          "time": 337.205334,
          "midi": 73,
          "name": "C#5",
          "velocity": 1,
          "duration": 0.18437499999998863,
          "ticks": 104460,
          "durationTicks": 59
        },
        {
          "time": 337.392834,
          "midi": 73,
          "name": "C#5",
          "velocity": 1,
          "duration": 0.18437499999998863,
          "ticks": 104520,
          "durationTicks": 59
        },
        {
          "time": 337.580334,
          "midi": 71,
          "name": "B4",
          "velocity": 1,
          "duration": 0.18437499999998863,
          "ticks": 104580,
          "durationTicks": 59
        },
        {
          "time": 337.767834,
          "midi": 71,
          "name": "B4",
          "velocity": 1,
          "duration": 0.18437499999998863,
          "ticks": 104640,
          "durationTicks": 59
        },
        {
          "time": 337.955334,
          "midi": 64,
          "name": "E4",
          "velocity": 1,
          "duration": 0.18437499999998863,
          "ticks": 104700,
          "durationTicks": 59
        },
        {
          "time": 338.142834,
          "midi": 69,
          "name": "A4",
          "velocity": 1,
          "duration": 0.18437499999998863,
          "ticks": 104760,
          "durationTicks": 59
        },
        {
          "time": 338.330334,
          "midi": 67,
          "name": "G4",
          "velocity": 1,
          "duration": 0.18437499999998863,
          "ticks": 104820,
          "durationTicks": 59
        },
        {
          "time": 338.517834,
          "midi": 66,
          "name": "F#4",
          "velocity": 1,
          "duration": 0.18437499999998863,
          "ticks": 104880,
          "durationTicks": 59
        },
        {
          "time": 338.705334,
          "midi": 64,
          "name": "E4",
          "velocity": 1,
          "duration": 0.18437499999998863,
          "ticks": 104940,
          "durationTicks": 59
        },
        {
          "time": 338.892834,
          "midi": 66,
          "name": "F#4",
          "velocity": 1,
          "duration": 0.37187499999998863,
          "ticks": 105000,
          "durationTicks": 119
        },
        {
          "time": 339.267834,
          "midi": 69,
          "name": "A4",
          "velocity": 1,
          "duration": 0.37187499999998863,
          "ticks": 105120,
          "durationTicks": 119
        },
        {
          "time": 339.642834,
          "midi": 69,
          "name": "A4",
          "velocity": 1,
          "duration": 0.37187499999998863,
          "ticks": 105240,
          "durationTicks": 119
        },
        {
          "time": 340.017834,
          "midi": 69,
          "name": "A4",
          "velocity": 1,
          "duration": 0.37187499999998863,
          "ticks": 105360,
          "durationTicks": 119
        },
        {
          "time": 340.392834,
          "midi": 62,
          "name": "D4",
          "velocity": 1,
          "duration": 0.37187499999998863,
          "ticks": 105480,
          "durationTicks": 119
        },
        {
          "time": 340.767834,
          "midi": 74,
          "name": "D5",
          "velocity": 1,
          "duration": 0.37187499999998863,
          "ticks": 105600,
          "durationTicks": 119
        },
        {
          "time": 341.142834,
          "midi": 76,
          "name": "E5",
          "velocity": 1,
          "duration": 0.37187499999998863,
          "ticks": 105720,
          "durationTicks": 119
        },
        {
          "time": 341.517834,
          "midi": 67,
          "name": "G4",
          "velocity": 1,
          "duration": 0.37187499999998863,
          "ticks": 105840,
          "durationTicks": 119
        },
        {
          "time": 341.892834,
          "midi": 67,
          "name": "G4",
          "velocity": 1,
          "duration": 0.18437499999998863,
          "ticks": 105960,
          "durationTicks": 59
        },
        {
          "time": 342.080334,
          "midi": 66,
          "name": "F#4",
          "velocity": 1,
          "duration": 0.18437499999998863,
          "ticks": 106020,
          "durationTicks": 59
        },
        {
          "time": 342.267834,
          "midi": 64,
          "name": "E4",
          "velocity": 1,
          "duration": 0.18437499999998863,
          "ticks": 106080,
          "durationTicks": 59
        },
        {
          "time": 342.455334,
          "midi": 66,
          "name": "F#4",
          "velocity": 1,
          "duration": 0.18437499999998863,
          "ticks": 106140,
          "durationTicks": 59
        },
        {
          "time": 342.642834,
          "midi": 74,
          "name": "D5",
          "velocity": 1,
          "duration": 0.18437499999998863,
          "ticks": 106200,
          "durationTicks": 59
        },
        {
          "time": 342.830334,
          "midi": 73,
          "name": "C#5",
          "velocity": 1,
          "duration": 0.18437499999998863,
          "ticks": 106260,
          "durationTicks": 59
        },
        {
          "time": 343.017834,
          "midi": 76,
          "name": "E5",
          "velocity": 1,
          "duration": 0.18437499999998863,
          "ticks": 106320,
          "durationTicks": 59
        },
        {
          "time": 343.205334,
          "midi": 74,
          "name": "D5",
          "velocity": 1,
          "duration": 0.18437499999998863,
          "ticks": 106380,
          "durationTicks": 59
        },
        {
          "time": 343.392834,
          "midi": 74,
          "name": "D5",
          "velocity": 1,
          "duration": 0.18437499999998863,
          "ticks": 106440,
          "durationTicks": 59
        },
        {
          "time": 343.580334,
          "midi": 73,
          "name": "C#5",
          "velocity": 1,
          "duration": 0.37187499999998863,
          "ticks": 106500,
          "durationTicks": 119
        },
        {
          "time": 343.955334,
          "midi": 74,
          "name": "D5",
          "velocity": 1,
          "duration": 0.18437499999998863,
          "ticks": 106620,
          "durationTicks": 59
        },
        {
          "time": 344.142834,
          "midi": 74,
          "name": "D5",
          "velocity": 1,
          "duration": 0.7468749999999886,
          "ticks": 106680,
          "durationTicks": 239
        },
        {
          "time": 344.892834,
          "midi": 66,
          "name": "F#4",
          "velocity": 1,
          "duration": 0.37187499999998863,
          "ticks": 106920,
          "durationTicks": 119
        },
        {
          "time": 345.642834,
          "midi": 66,
          "name": "F#4",
          "velocity": 1,
          "duration": 0.37187499999998863,
          "ticks": 107160,
          "durationTicks": 119
        },
        {
          "time": 346.392834,
          "midi": 67,
          "name": "G4",
          "velocity": 1,
          "duration": 0.37187499999998863,
          "ticks": 107400,
          "durationTicks": 119
        },
        {
          "time": 347.142834,
          "midi": 67,
          "name": "G4",
          "velocity": 1,
          "duration": 0.37187499999998863,
          "ticks": 107640,
          "durationTicks": 119
        },
        {
          "time": 347.892834,
          "midi": 64,
          "name": "E4",
          "velocity": 1,
          "duration": 0.37187499999998863,
          "ticks": 107880,
          "durationTicks": 119
        },
        {
          "time": 348.642834,
          "midi": 69,
          "name": "A4",
          "velocity": 1,
          "duration": 0.37187499999998863,
          "ticks": 108120,
          "durationTicks": 119
        },
        {
          "time": 349.392834,
          "midi": 69,
          "name": "A4",
          "velocity": 1,
          "duration": 0.37187499999998863,
          "ticks": 108360,
          "durationTicks": 119
        },
        {
          "time": 350.142834,
          "midi": 74,
          "name": "D5",
          "velocity": 1,
          "duration": 1.4968749999999886,
          "ticks": 108600,
          "durationTicks": 479
        },
        {
          "time": 351.642834,
          "midi": 71,
          "name": "B4",
          "velocity": 1,
          "duration": 0.37187499999998863,
          "ticks": 109080,
          "durationTicks": 119
        },
        {
          "time": 352.392834,
          "midi": 73,
          "name": "C#5",
          "velocity": 1,
          "duration": 1.4968749999999886,
          "ticks": 109320,
          "durationTicks": 479
        },
        {
          "time": 354.642834,
          "midi": 71,
          "name": "B4",
          "velocity": 1,
          "duration": 0.37187499999998863,
          "ticks": 110040,
          "durationTicks": 119
        },
        {
          "time": 355.392834,
          "midi": 73,
          "name": "C#5",
          "velocity": 1,
          "duration": 1.4968749999999886,
          "ticks": 110280,
          "durationTicks": 479
        },
        {
          "time": 357.642834,
          "midi": 69,
          "name": "A4",
          "velocity": 1,
          "duration": 0.37187499999998863,
          "ticks": 111000,
          "durationTicks": 119
        },
        {
          "time": 358.392834,
          "midi": 69,
          "name": "A4",
          "velocity": 1,
          "duration": 1.5386393583333415,
          "ticks": 111240,
          "durationTicks": 479
        }
      ],
      "controlChanges": {
        "7": [
          {
            "number": 7,
            "value": 1,
            "time": 0,
            "ticks": 0
          }
        ],
        "10": [
          {
            "number": 10,
            "value": 0.5039370078740157,
            "time": 0,
            "ticks": 0
          }
        ]
      }
    },
    {
      "name": "Tenor",
      "channel": 0,
      "instrument": {
        "number": 85,
        "name": "lead 6 (voice)",
        "family": "synth lead"
      },
      "notes": [
        {
          "time": 248.892834,
          "midi": 76,
          "name": "E5",
          "velocity": 1,
          "duration": 0.37187499999998863,
          "ticks": 76200,
          "durationTicks": 119
        },
        {
          "time": 248.892834,
          "midi": 76,
          "name": "E5",
          "velocity": 1,
          "duration": 0.37187499999998863,
          "ticks": 76200,
          "durationTicks": 119
        },
        {
          "time": 249.267834,
          "midi": 64,
          "name": "E4",
          "velocity": 1,
          "duration": 0.37187499999998863,
          "ticks": 76320,
          "durationTicks": 119
        },
        {
          "time": 249.267834,
          "midi": 64,
          "name": "E4",
          "velocity": 1,
          "duration": 0.37187499999998863,
          "ticks": 76320,
          "durationTicks": 119
        },
        {
          "time": 249.642834,
          "midi": 66,
          "name": "F#4",
          "velocity": 1,
          "duration": 0.37187499999998863,
          "ticks": 76440,
          "durationTicks": 119
        },
        {
          "time": 249.642834,
          "midi": 66,
          "name": "F#4",
          "velocity": 1,
          "duration": 0.37187499999998863,
          "ticks": 76440,
          "durationTicks": 119
        },
        {
          "time": 250.017834,
          "midi": 62,
          "name": "D4",
          "velocity": 1,
          "duration": 0.37187499999998863,
          "ticks": 76560,
          "durationTicks": 119
        },
        {
          "time": 250.017834,
          "midi": 62,
          "name": "D4",
          "velocity": 1,
          "duration": 0.37187499999998863,
          "ticks": 76560,
          "durationTicks": 119
        },
        {
          "time": 250.392834,
          "midi": 64,
          "name": "E4",
          "velocity": 1,
          "duration": 0.37187499999998863,
          "ticks": 76680,
          "durationTicks": 119
        },
        {
          "time": 250.392834,
          "midi": 64,
          "name": "E4",
          "velocity": 1,
          "duration": 0.37187499999998863,
          "ticks": 76680,
          "durationTicks": 119
        },
        {
          "time": 250.767834,
          "midi": 66,
          "name": "F#4",
          "velocity": 1,
          "duration": 0.18437499999998863,
          "ticks": 76800,
          "durationTicks": 59
        },
        {
          "time": 250.767834,
          "midi": 66,
          "name": "F#4",
          "velocity": 1,
          "duration": 0.18437499999998863,
          "ticks": 76800,
          "durationTicks": 59
        },
        {
          "time": 250.955334,
          "midi": 67,
          "name": "G4",
          "velocity": 1,
          "duration": 0.18437499999998863,
          "ticks": 76860,
          "durationTicks": 59
        },
        {
          "time": 250.955334,
          "midi": 67,
          "name": "G4",
          "velocity": 1,
          "duration": 0.18437499999998863,
          "ticks": 76860,
          "durationTicks": 59
        },
        {
          "time": 251.142834,
          "midi": 66,
          "name": "F#4",
          "velocity": 1,
          "duration": 0.37187499999998863,
          "ticks": 76920,
          "durationTicks": 119
        },
        {
          "time": 251.142834,
          "midi": 66,
          "name": "F#4",
          "velocity": 1,
          "duration": 0.37187499999998863,
          "ticks": 76920,
          "durationTicks": 119
        },
        {
          "time": 251.517834,
          "midi": 62,
          "name": "D4",
          "velocity": 1,
          "duration": 0.37187499999998863,
          "ticks": 77040,
          "durationTicks": 119
        },
        {
          "time": 251.517834,
          "midi": 62,
          "name": "D4",
          "velocity": 1,
          "duration": 0.37187499999998863,
          "ticks": 77040,
          "durationTicks": 119
        },
        {
          "time": 251.892834,
          "midi": 64,
          "name": "E4",
          "velocity": 1,
          "duration": 0.37187499999998863,
          "ticks": 77160,
          "durationTicks": 119
        },
        {
          "time": 251.892834,
          "midi": 64,
          "name": "E4",
          "velocity": 1,
          "duration": 0.37187499999998863,
          "ticks": 77160,
          "durationTicks": 119
        },
        {
          "time": 252.267834,
          "midi": 66,
          "name": "F#4",
          "velocity": 1,
          "duration": 0.18437499999998863,
          "ticks": 77280,
          "durationTicks": 59
        },
        {
          "time": 252.267834,
          "midi": 66,
          "name": "F#4",
          "velocity": 1,
          "duration": 0.18437499999998863,
          "ticks": 77280,
          "durationTicks": 59
        },
        {
          "time": 252.455334,
          "midi": 67,
          "name": "G4",
          "velocity": 1,
          "duration": 0.18437499999998863,
          "ticks": 77340,
          "durationTicks": 59
        },
        {
          "time": 252.455334,
          "midi": 67,
          "name": "G4",
          "velocity": 1,
          "duration": 0.18437499999998863,
          "ticks": 77340,
          "durationTicks": 59
        },
        {
          "time": 252.642834,
          "midi": 66,
          "name": "F#4",
          "velocity": 1,
          "duration": 0.37187499999998863,
          "ticks": 77400,
          "durationTicks": 119
        },
        {
          "time": 252.642834,
          "midi": 66,
          "name": "F#4",
          "velocity": 1,
          "duration": 0.37187499999998863,
          "ticks": 77400,
          "durationTicks": 119
        },
        {
          "time": 253.017834,
          "midi": 64,
          "name": "E4",
          "velocity": 1,
          "duration": 0.37187499999998863,
          "ticks": 77520,
          "durationTicks": 119
        },
        {
          "time": 253.017834,
          "midi": 64,
          "name": "E4",
          "velocity": 1,
          "duration": 0.37187499999998863,
          "ticks": 77520,
          "durationTicks": 119
        },
        {
          "time": 253.392834,
          "midi": 62,
          "name": "D4",
          "velocity": 1,
          "duration": 0.37187499999998863,
          "ticks": 77640,
          "durationTicks": 119
        },
        {
          "time": 253.392834,
          "midi": 62,
          "name": "D4",
          "velocity": 1,
          "duration": 0.37187499999998863,
          "ticks": 77640,
          "durationTicks": 119
        },
        {
          "time": 253.767834,
          "midi": 76,
          "name": "E5",
          "velocity": 1,
          "duration": 0.37187499999998863,
          "ticks": 77760,
          "durationTicks": 119
        },
        {
          "time": 253.767834,
          "midi": 76,
          "name": "E5",
          "velocity": 1,
          "duration": 0.37187499999998863,
          "ticks": 77760,
          "durationTicks": 119
        },
        {
          "time": 254.142834,
          "midi": 69,
          "name": "A4",
          "velocity": 0.937007874015748,
          "duration": 0.37187499999998863,
          "ticks": 77880,
          "durationTicks": 119
        },
        {
          "time": 254.142834,
          "midi": 69,
          "name": "A4",
          "velocity": 0.937007874015748,
          "duration": 0.37187499999998863,
          "ticks": 77880,
          "durationTicks": 119
        },
        {
          "time": 254.517834,
          "midi": 78,
          "name": "F#5",
          "velocity": 1,
          "duration": 0.7468749999999886,
          "ticks": 78000,
          "durationTicks": 239
        },
        {
          "time": 254.517834,
          "midi": 78,
          "name": "F#5",
          "velocity": 1,
          "duration": 0.7468749999999886,
          "ticks": 78000,
          "durationTicks": 239
        },
        {
          "time": 255.267834,
          "midi": 66,
          "name": "F#4",
          "velocity": 1,
          "duration": 0.37187499999998863,
          "ticks": 78240,
          "durationTicks": 119
        },
        {
          "time": 255.267834,
          "midi": 66,
          "name": "F#4",
          "velocity": 1,
          "duration": 0.37187499999998863,
          "ticks": 78240,
          "durationTicks": 119
        },
        {
          "time": 255.642834,
          "midi": 67,
          "name": "G4",
          "velocity": 0.8818897637795275,
          "duration": 0.37187499999998863,
          "ticks": 78360,
          "durationTicks": 119
        },
        {
          "time": 255.642834,
          "midi": 67,
          "name": "G4",
          "velocity": 0.8818897637795275,
          "duration": 0.37187499999998863,
          "ticks": 78360,
          "durationTicks": 119
        },
        {
          "time": 256.017834,
          "midi": 69,
          "name": "A4",
          "velocity": 1,
          "duration": 0.37187499999998863,
          "ticks": 78480,
          "durationTicks": 119
        },
        {
          "time": 256.017834,
          "midi": 69,
          "name": "A4",
          "velocity": 1,
          "duration": 0.37187499999998863,
          "ticks": 78480,
          "durationTicks": 119
        },
        {
          "time": 256.392834,
          "midi": 69,
          "name": "A4",
          "velocity": 1,
          "duration": 0.37187499999998863,
          "ticks": 78600,
          "durationTicks": 119
        },
        {
          "time": 256.392834,
          "midi": 69,
          "name": "A4",
          "velocity": 1,
          "duration": 0.37187499999998863,
          "ticks": 78600,
          "durationTicks": 119
        },
        {
          "time": 256.767834,
          "midi": 67,
          "name": "G4",
          "velocity": 0.9763779527559056,
          "duration": 0.37187499999998863,
          "ticks": 78720,
          "durationTicks": 119
        },
        {
          "time": 256.767834,
          "midi": 67,
          "name": "G4",
          "velocity": 0.9763779527559056,
          "duration": 0.37187499999998863,
          "ticks": 78720,
          "durationTicks": 119
        },
        {
          "time": 257.142834,
          "midi": 66,
          "name": "F#4",
          "velocity": 1,
          "duration": 0.37187499999998863,
          "ticks": 78840,
          "durationTicks": 119
        },
        {
          "time": 257.142834,
          "midi": 66,
          "name": "F#4",
          "velocity": 1,
          "duration": 0.37187499999998863,
          "ticks": 78840,
          "durationTicks": 119
        },
        {
          "time": 257.517834,
          "midi": 67,
          "name": "G4",
          "velocity": 1,
          "duration": 0.18437499999998863,
          "ticks": 78960,
          "durationTicks": 59
        },
        {
          "time": 257.517834,
          "midi": 67,
          "name": "G4",
          "velocity": 1,
          "duration": 0.18437499999998863,
          "ticks": 78960,
          "durationTicks": 59
        },
        {
          "time": 257.705334,
          "midi": 64,
          "name": "E4",
          "velocity": 1,
          "duration": 0.18437499999998863,
          "ticks": 79020,
          "durationTicks": 59
        },
        {
          "time": 257.705334,
          "midi": 64,
          "name": "E4",
          "velocity": 1,
          "duration": 0.18437499999998863,
          "ticks": 79020,
          "durationTicks": 59
        },
        {
          "time": 257.892834,
          "midi": 62,
          "name": "D4",
          "velocity": 1,
          "duration": 0.37187499999998863,
          "ticks": 79080,
          "durationTicks": 119
        },
        {
          "time": 257.892834,
          "midi": 62,
          "name": "D4",
          "velocity": 1,
          "duration": 0.37187499999998863,
          "ticks": 79080,
          "durationTicks": 119
        },
        {
          "time": 258.267834,
          "midi": 74,
          "name": "D5",
          "velocity": 1,
          "duration": 0.37187499999998863,
          "ticks": 79200,
          "durationTicks": 119
        },
        {
          "time": 258.267834,
          "midi": 74,
          "name": "D5",
          "velocity": 1,
          "duration": 0.37187499999998863,
          "ticks": 79200,
          "durationTicks": 119
        },
        {
          "time": 258.642834,
          "midi": 76,
          "name": "E5",
          "velocity": 1,
          "duration": 0.37187499999998863,
          "ticks": 79320,
          "durationTicks": 119
        },
        {
          "time": 258.642834,
          "midi": 76,
          "name": "E5",
          "velocity": 1,
          "duration": 0.37187499999998863,
          "ticks": 79320,
          "durationTicks": 119
        },
        {
          "time": 259.017834,
          "midi": 78,
          "name": "F#5",
          "velocity": 1,
          "duration": 0.37187499999998863,
          "ticks": 79440,
          "durationTicks": 119
        },
        {
          "time": 259.017834,
          "midi": 78,
          "name": "F#5",
          "velocity": 1,
          "duration": 0.37187499999998863,
          "ticks": 79440,
          "durationTicks": 119
        },
        {
          "time": 259.392834,
          "midi": 76,
          "name": "E5",
          "velocity": 1,
          "duration": 0.5593749999999886,
          "ticks": 79560,
          "durationTicks": 179
        },
        {
          "time": 259.392834,
          "midi": 76,
          "name": "E5",
          "velocity": 1,
          "duration": 0.5593749999999886,
          "ticks": 79560,
          "durationTicks": 179
        },
        {
          "time": 259.955334,
          "midi": 74,
          "name": "D5",
          "velocity": 1,
          "duration": 0.18437499999998863,
          "ticks": 79740,
          "durationTicks": 59
        },
        {
          "time": 259.955334,
          "midi": 74,
          "name": "D5",
          "velocity": 1,
          "duration": 0.18437499999998863,
          "ticks": 79740,
          "durationTicks": 59
        },
        {
          "time": 260.142834,
          "midi": 74,
          "name": "D5",
          "velocity": 1,
          "duration": 0.7468749999999886,
          "ticks": 79800,
          "durationTicks": 239
        },
        {
          "time": 260.142834,
          "midi": 74,
          "name": "D5",
          "velocity": 1,
          "duration": 0.7468749999999886,
          "ticks": 79800,
          "durationTicks": 239
        },
        {
          "time": 290.892834,
          "midi": 73,
          "name": "C#5",
          "velocity": 0.6929133858267716,
          "duration": 0.37187499999998863,
          "ticks": 89640,
          "durationTicks": 119
        },
        {
          "time": 291.267834,
          "midi": 73,
          "name": "C#5",
          "velocity": 0.7401574803149606,
          "duration": 0.37187499999998863,
          "ticks": 89760,
          "durationTicks": 119
        },
        {
          "time": 291.642834,
          "midi": 74,
          "name": "D5",
          "velocity": 0.7401574803149606,
          "duration": 0.37187499999998863,
          "ticks": 89880,
          "durationTicks": 119
        },
        {
          "time": 292.017834,
          "midi": 78,
          "name": "F#5",
          "velocity": 1,
          "duration": 0.37187499999998863,
          "ticks": 90000,
          "durationTicks": 119
        },
        {
          "time": 292.392834,
          "midi": 73,
          "name": "C#5",
          "velocity": 0.8503937007874016,
          "duration": 0.37187499999998863,
          "ticks": 90120,
          "durationTicks": 119
        },
        {
          "time": 292.767834,
          "midi": 74,
          "name": "D5",
          "velocity": 0.937007874015748,
          "duration": 0.18437499999998863,
          "ticks": 90240,
          "durationTicks": 59
        },
        {
          "time": 292.955334,
          "midi": 76,
          "name": "E5",
          "velocity": 0.8267716535433071,
          "duration": 0.18437499999998863,
          "ticks": 90300,
          "durationTicks": 59
        },
        {
          "time": 293.142834,
          "midi": 74,
          "name": "D5",
          "velocity": 0.8818897637795275,
          "duration": 0.37187499999998863,
          "ticks": 90360,
          "durationTicks": 119
        },
        {
          "time": 293.517834,
          "midi": 76,
          "name": "E5",
          "velocity": 0.8503937007874016,
          "duration": 0.18437499999998863,
          "ticks": 90480,
          "durationTicks": 59
        },
        {
          "time": 293.705334,
          "midi": 74,
          "name": "D5",
          "velocity": 0.8818897637795275,
          "duration": 0.18437499999998863,
          "ticks": 90540,
          "durationTicks": 59
        },
        {
          "time": 293.892834,
          "midi": 73,
          "name": "C#5",
          "velocity": 1,
          "duration": 0.37187499999998863,
          "ticks": 90600,
          "durationTicks": 119
        },
        {
          "time": 294.267834,
          "midi": 73,
          "name": "C#5",
          "velocity": 0.9763779527559056,
          "duration": 0.37187499999998863,
          "ticks": 90720,
          "durationTicks": 119
        },
        {
          "time": 294.642834,
          "midi": 73,
          "name": "C#5",
          "velocity": 0.8267716535433071,
          "duration": 0.37187499999998863,
          "ticks": 90840,
          "durationTicks": 119
        },
        {
          "time": 295.017834,
          "midi": 70,
          "name": "A#4",
          "velocity": 0.8818897637795275,
          "duration": 0.37187499999998863,
          "ticks": 90960,
          "durationTicks": 119
        },
        {
          "time": 295.392834,
          "midi": 71,
          "name": "B4",
          "velocity": 0.8031496062992126,
          "duration": 0.37187499999998863,
          "ticks": 91080,
          "durationTicks": 119
        },
        {
          "time": 295.767834,
          "midi": 71,
          "name": "B4",
          "velocity": 0.8031496062992126,
          "duration": 0.37187499999998863,
          "ticks": 91200,
          "durationTicks": 119
        },
        {
          "time": 296.142834,
          "midi": 73,
          "name": "C#5",
          "velocity": 0.937007874015748,
          "duration": 0.37187499999998863,
          "ticks": 91320,
          "durationTicks": 119
        },
        {
          "time": 296.517834,
          "midi": 74,
          "name": "D5",
          "velocity": 0.8267716535433071,
          "duration": 0.7468749999999886,
          "ticks": 91440,
          "durationTicks": 239
        },
        {
          "time": 297.267834,
          "midi": 74,
          "name": "D5",
          "velocity": 0.8503937007874016,
          "duration": 0.37187499999998863,
          "ticks": 91680,
          "durationTicks": 119
        },
        {
          "time": 297.642834,
          "midi": 76,
          "name": "E5",
          "velocity": 0.6377952755905512,
          "duration": 0.37187499999998863,
          "ticks": 91800,
          "durationTicks": 119
        },
        {
          "time": 298.017834,
          "midi": 78,
          "name": "F#5",
          "velocity": 0.8818897637795275,
          "duration": 0.37187499999998863,
          "ticks": 91920,
          "durationTicks": 119
        },
        {
          "time": 298.392834,
          "midi": 78,
          "name": "F#5",
          "velocity": 0.8818897637795275,
          "duration": 0.37187499999998863,
          "ticks": 92040,
          "durationTicks": 119
        },
        {
          "time": 298.767834,
          "midi": 76,
          "name": "E5",
          "velocity": 0.5905511811023622,
          "duration": 0.37187499999998863,
          "ticks": 92160,
          "durationTicks": 119
        },
        {
          "time": 299.142834,
          "midi": 74,
          "name": "D5",
          "velocity": 0.5275590551181102,
          "duration": 0.37187499999998863,
          "ticks": 92280,
          "durationTicks": 119
        },
        {
          "time": 299.517834,
          "midi": 73,
          "name": "C#5",
          "velocity": 0.905511811023622,
          "duration": 0.37187499999998863,
          "ticks": 92400,
          "durationTicks": 119
        },
        {
          "time": 299.892834,
          "midi": 74,
          "name": "D5",
          "velocity": 0.5905511811023622,
          "duration": 0.37187499999998863,
          "ticks": 92520,
          "durationTicks": 119
        },
        {
          "time": 300.267834,
          "midi": 69,
          "name": "A4",
          "velocity": 0.5275590551181102,
          "duration": 0.37187499999998863,
          "ticks": 92640,
          "durationTicks": 119
        },
        {
          "time": 300.642834,
          "midi": 69,
          "name": "A4",
          "velocity": 0.6377952755905512,
          "duration": 0.37187499999998863,
          "ticks": 92760,
          "durationTicks": 119
        },
        {
          "time": 301.017834,
          "midi": 69,
          "name": "A4",
          "velocity": 0.6220472440944882,
          "duration": 0.37187499999998863,
          "ticks": 92880,
          "durationTicks": 119
        },
        {
          "time": 301.392834,
          "midi": 73,
          "name": "C#5",
          "velocity": 0.5196850393700787,
          "duration": 0.5593749999999886,
          "ticks": 93000,
          "durationTicks": 179
        },
        {
          "time": 301.955334,
          "midi": 74,
          "name": "D5",
          "velocity": 0.6535433070866141,
          "duration": 0.18437499999998863,
          "ticks": 93180,
          "durationTicks": 59
        },
        {
          "time": 302.142834,
          "midi": 74,
          "name": "D5",
          "velocity": 0.8267716535433071,
          "duration": 0.7468749999999886,
          "ticks": 93240,
          "durationTicks": 239
        },
        {
          "time": 332.892834,
          "midi": 74,
          "name": "D5",
          "velocity": 1,
          "duration": 0.18437499999998863,
          "ticks": 103080,
          "durationTicks": 59
        },
        {
          "time": 333.080334,
          "midi": 73,
          "name": "C#5",
          "velocity": 1,
          "duration": 0.18437499999998863,
          "ticks": 103140,
          "durationTicks": 59
        },
        {
          "time": 333.267834,
          "midi": 71,
          "name": "B4",
          "velocity": 1,
          "duration": 0.18437499999998863,
          "ticks": 103200,
          "durationTicks": 59
        },
        {
          "time": 333.455334,
          "midi": 73,
          "name": "C#5",
          "velocity": 1,
          "duration": 0.18437499999998863,
          "ticks": 103260,
          "durationTicks": 59
        },
        {
          "time": 333.642834,
          "midi": 76,
          "name": "E5",
          "velocity": 1,
          "duration": 0.18437499999998863,
          "ticks": 103320,
          "durationTicks": 59
        },
        {
          "time": 333.830334,
          "midi": 74,
          "name": "D5",
          "velocity": 1,
          "duration": 0.18437499999998863,
          "ticks": 103380,
          "durationTicks": 59
        },
        {
          "time": 334.017834,
          "midi": 79,
          "name": "G5",
          "velocity": 1,
          "duration": 0.18437499999998863,
          "ticks": 103440,
          "durationTicks": 59
        },
        {
          "time": 334.205334,
          "midi": 78,
          "name": "F#5",
          "velocity": 1,
          "duration": 0.18437499999998863,
          "ticks": 103500,
          "durationTicks": 59
        },
        {
          "time": 334.392834,
          "midi": 74,
          "name": "D5",
          "velocity": 1,
          "duration": 0.18437499999998863,
          "ticks": 103560,
          "durationTicks": 59
        },
        {
          "time": 334.580334,
          "midi": 73,
          "name": "C#5",
          "velocity": 1,
          "duration": 0.18437499999998863,
          "ticks": 103620,
          "durationTicks": 59
        },
        {
          "time": 334.767834,
          "midi": 71,
          "name": "B4",
          "velocity": 1,
          "duration": 0.18437499999998863,
          "ticks": 103680,
          "durationTicks": 59
        },
        {
          "time": 334.955334,
          "midi": 73,
          "name": "C#5",
          "velocity": 1,
          "duration": 0.18437499999998863,
          "ticks": 103740,
          "durationTicks": 59
        },
        {
          "time": 335.142834,
          "midi": 76,
          "name": "E5",
          "velocity": 1,
          "duration": 0.18437499999998863,
          "ticks": 103800,
          "durationTicks": 59
        },
        {
          "time": 335.330334,
          "midi": 74,
          "name": "D5",
          "velocity": 1,
          "duration": 0.18437499999998863,
          "ticks": 103860,
          "durationTicks": 59
        },
        {
          "time": 335.517834,
          "midi": 79,
          "name": "G5",
          "velocity": 1,
          "duration": 0.18437499999998863,
          "ticks": 103920,
          "durationTicks": 59
        },
        {
          "time": 335.705334,
          "midi": 78,
          "name": "F#5",
          "velocity": 1,
          "duration": 0.18437499999998863,
          "ticks": 103980,
          "durationTicks": 59
        },
        {
          "time": 335.892834,
          "midi": 74,
          "name": "D5",
          "velocity": 1,
          "duration": 0.18437499999998863,
          "ticks": 104040,
          "durationTicks": 59
        },
        {
          "time": 336.080334,
          "midi": 76,
          "name": "E5",
          "velocity": 1,
          "duration": 0.18437499999998863,
          "ticks": 104100,
          "durationTicks": 59
        },
        {
          "time": 336.267834,
          "midi": 78,
          "name": "F#5",
          "velocity": 1,
          "duration": 0.18437499999998863,
          "ticks": 104160,
          "durationTicks": 59
        },
        {
          "time": 336.455334,
          "midi": 76,
          "name": "E5",
          "velocity": 1,
          "duration": 0.18437499999998863,
          "ticks": 104220,
          "durationTicks": 59
        },
        {
          "time": 336.642834,
          "midi": 73,
          "name": "C#5",
          "velocity": 1,
          "duration": 0.18437499999998863,
          "ticks": 104280,
          "durationTicks": 59
        },
        {
          "time": 336.830334,
          "midi": 74,
          "name": "D5",
          "velocity": 1,
          "duration": 0.18437499999998863,
          "ticks": 104340,
          "durationTicks": 59
        },
        {
          "time": 337.017834,
          "midi": 74,
          "name": "D5",
          "velocity": 1,
          "duration": 0.18437499999998863,
          "ticks": 104400,
          "durationTicks": 59
        },
        {
          "time": 337.205334,
          "midi": 76,
          "name": "E5",
          "velocity": 1,
          "duration": 0.18437499999998863,
          "ticks": 104460,
          "durationTicks": 59
        },
        {
          "time": 337.392834,
          "midi": 64,
          "name": "E4",
          "velocity": 1,
          "duration": 0.18437499999998863,
          "ticks": 104520,
          "durationTicks": 59
        },
        {
          "time": 337.580334,
          "midi": 66,
          "name": "F#4",
          "velocity": 1,
          "duration": 0.18437499999998863,
          "ticks": 104580,
          "durationTicks": 59
        },
        {
          "time": 337.767834,
          "midi": 66,
          "name": "F#4",
          "velocity": 1,
          "duration": 0.18437499999998863,
          "ticks": 104640,
          "durationTicks": 59
        },
        {
          "time": 337.955334,
          "midi": 68,
          "name": "G#4",
          "velocity": 1,
          "duration": 0.18437499999998863,
          "ticks": 104700,
          "durationTicks": 59
        },
        {
          "time": 338.142834,
          "midi": 69,
          "name": "A4",
          "velocity": 1,
          "duration": 0.18437499999998863,
          "ticks": 104760,
          "durationTicks": 59
        },
        {
          "time": 338.330334,
          "midi": 76,
          "name": "E5",
          "velocity": 1,
          "duration": 0.18437499999998863,
          "ticks": 104820,
          "durationTicks": 59
        },
        {
          "time": 338.517834,
          "midi": 74,
          "name": "D5",
          "velocity": 1,
          "duration": 0.18437499999998863,
          "ticks": 104880,
          "durationTicks": 59
        },
        {
          "time": 338.705334,
          "midi": 73,
          "name": "C#5",
          "velocity": 1,
          "duration": 0.18437499999998863,
          "ticks": 104940,
          "durationTicks": 59
        },
        {
          "time": 338.892834,
          "midi": 74,
          "name": "D5",
          "velocity": 1,
          "duration": 0.18437499999998863,
          "ticks": 105000,
          "durationTicks": 59
        },
        {
          "time": 339.080334,
          "midi": 76,
          "name": "E5",
          "velocity": 1,
          "duration": 0.18437499999998863,
          "ticks": 105060,
          "durationTicks": 59
        },
        {
          "time": 339.267834,
          "midi": 73,
          "name": "C#5",
          "velocity": 1,
          "duration": 0.18437499999998863,
          "ticks": 105120,
          "durationTicks": 59
        },
        {
          "time": 339.455334,
          "midi": 74,
          "name": "D5",
          "velocity": 1,
          "duration": 0.18437499999998863,
          "ticks": 105180,
          "durationTicks": 59
        },
        {
          "time": 339.642834,
          "midi": 76,
          "name": "E5",
          "velocity": 1,
          "duration": 0.18437499999998863,
          "ticks": 105240,
          "durationTicks": 59
        },
        {
          "time": 339.830334,
          "midi": 78,
          "name": "F#5",
          "velocity": 1,
          "duration": 0.18437499999998863,
          "ticks": 105300,
          "durationTicks": 59
        },
        {
          "time": 340.017834,
          "midi": 79,
          "name": "G5",
          "velocity": 1,
          "duration": 0.18437499999998863,
          "ticks": 105360,
          "durationTicks": 59
        },
        {
          "time": 340.205334,
          "midi": 78,
          "name": "F#5",
          "velocity": 1,
          "duration": 0.18437499999998863,
          "ticks": 105420,
          "durationTicks": 59
        },
        {
          "time": 340.392834,
          "midi": 72,
          "name": "C5",
          "velocity": 1,
          "duration": 0.18437499999998863,
          "ticks": 105480,
          "durationTicks": 59
        },
        {
          "time": 340.580334,
          "midi": 71,
          "name": "B4",
          "velocity": 1,
          "duration": 0.18437499999998863,
          "ticks": 105540,
          "durationTicks": 59
        },
        {
          "time": 340.767834,
          "midi": 74,
          "name": "D5",
          "velocity": 1,
          "duration": 0.18437499999998863,
          "ticks": 105600,
          "durationTicks": 59
        },
        {
          "time": 340.955334,
          "midi": 71,
          "name": "B4",
          "velocity": 1,
          "duration": 0.18437499999998863,
          "ticks": 105660,
          "durationTicks": 59
        },
        {
          "time": 341.142834,
          "midi": 74,
          "name": "D5",
          "velocity": 1,
          "duration": 0.18437499999998863,
          "ticks": 105720,
          "durationTicks": 59
        },
        {
          "time": 341.330334,
          "midi": 73,
          "name": "C#5",
          "velocity": 1,
          "duration": 0.18437499999998863,
          "ticks": 105780,
          "durationTicks": 59
        },
        {
          "time": 341.517834,
          "midi": 76,
          "name": "E5",
          "velocity": 1,
          "duration": 0.18437499999998863,
          "ticks": 105840,
          "durationTicks": 59
        },
        {
          "time": 341.705334,
          "midi": 73,
          "name": "C#5",
          "velocity": 1,
          "duration": 0.18437499999998863,
          "ticks": 105900,
          "durationTicks": 59
        },
        {
          "time": 341.892834,
          "midi": 74,
          "name": "D5",
          "velocity": 1,
          "duration": 0.37187499999998863,
          "ticks": 105960,
          "durationTicks": 119
        },
        {
          "time": 342.267834,
          "midi": 74,
          "name": "D5",
          "velocity": 1,
          "duration": 0.37187499999998863,
          "ticks": 106080,
          "durationTicks": 119
        },
        {
          "time": 342.642834,
          "midi": 74,
          "name": "D5",
          "velocity": 1,
          "duration": 0.5593749999999886,
          "ticks": 106200,
          "durationTicks": 179
        },
        {
          "time": 343.205334,
          "midi": 74,
          "name": "D5",
          "velocity": 1,
          "duration": 0.18437499999998863,
          "ticks": 106380,
          "durationTicks": 59
        },
        {
          "time": 343.392834,
          "midi": 78,
          "name": "F#5",
          "velocity": 1,
          "duration": 0.18437499999998863,
          "ticks": 106440,
          "durationTicks": 59
        },
        {
          "time": 343.580334,
          "midi": 79,
          "name": "G5",
          "velocity": 1,
          "duration": 0.37187499999998863,
          "ticks": 106500,
          "durationTicks": 119
        },
        {
          "time": 343.955334,
          "midi": 78,
          "name": "F#5",
          "velocity": 1,
          "duration": 0.18437499999998863,
          "ticks": 106620,
          "durationTicks": 59
        },
        {
          "time": 344.142834,
          "midi": 78,
          "name": "F#5",
          "velocity": 1,
          "duration": 0.7468749999999886,
          "ticks": 106680,
          "durationTicks": 239
        },
        {
          "time": 344.892834,
          "midi": 74,
          "name": "D5",
          "velocity": 1,
          "duration": 0.37187499999998863,
          "ticks": 106920,
          "durationTicks": 119
        },
        {
          "time": 345.642834,
          "midi": 74,
          "name": "D5",
          "velocity": 1,
          "duration": 0.37187499999998863,
          "ticks": 107160,
          "durationTicks": 119
        },
        {
          "time": 346.392834,
          "midi": 71,
          "name": "B4",
          "velocity": 1,
          "duration": 0.37187499999998863,
          "ticks": 107400,
          "durationTicks": 119
        },
        {
          "time": 347.142834,
          "midi": 67,
          "name": "G4",
          "velocity": 1,
          "duration": 0.37187499999998863,
          "ticks": 107640,
          "durationTicks": 119
        },
        {
          "time": 347.892834,
          "midi": 69,
          "name": "A4",
          "velocity": 1,
          "duration": 0.37187499999998863,
          "ticks": 107880,
          "durationTicks": 119
        },
        {
          "time": 348.642834,
          "midi": 76,
          "name": "E5",
          "velocity": 1,
          "duration": 0.37187499999998863,
          "ticks": 108120,
          "durationTicks": 119
        },
        {
          "time": 349.392834,
          "midi": 78,
          "name": "F#5",
          "velocity": 1,
          "duration": 1.4968749999999886,
          "ticks": 108360,
          "durationTicks": 479
        },
        {
          "time": 350.892834,
          "midi": 71,
          "name": "B4",
          "velocity": 1,
          "duration": 0.37187499999998863,
          "ticks": 108840,
          "durationTicks": 119
        },
        {
          "time": 351.642834,
          "midi": 76,
          "name": "E5",
          "velocity": 1,
          "duration": 0.37187499999998863,
          "ticks": 109080,
          "durationTicks": 119
        },
        {
          "time": 352.392834,
          "midi": 76,
          "name": "E5",
          "velocity": 1,
          "duration": 1.4968749999999886,
          "ticks": 109320,
          "durationTicks": 479
        },
        {
          "time": 354.642834,
          "midi": 76,
          "name": "E5",
          "velocity": 1,
          "duration": 0.37187499999998863,
          "ticks": 110040,
          "durationTicks": 119
        },
        {
          "time": 355.392834,
          "midi": 76,
          "name": "E5",
          "velocity": 1,
          "duration": 1.4968749999999886,
          "ticks": 110280,
          "durationTicks": 479
        },
        {
          "time": 357.642834,
          "midi": 69,
          "name": "A4",
          "velocity": 1,
          "duration": 0.37187499999998863,
          "ticks": 111000,
          "durationTicks": 119
        },
        {
          "time": 358.392834,
          "midi": 77,
          "name": "F5",
          "velocity": 1,
          "duration": 1.5386393583333415,
          "ticks": 111240,
          "durationTicks": 479
        }
      ],
      "controlChanges": {
        "7": [
          {
            "number": 7,
            "value": 1,
            "time": 0,
            "ticks": 0
          }
        ],
        "10": [
          {
            "number": 10,
            "value": 0.5039370078740157,
            "time": 0,
            "ticks": 0
          }
        ]
      }
    },
    {
      "name": "Baritono Coro",
      "channel": 0,
      "instrument": {
        "number": 85,
        "name": "lead 6 (voice)",
        "family": "synth lead"
      },
      "notes": [
        {
          "time": 221.142834,
          "midi": 57,
          "name": "A3",
          "velocity": 1,
          "duration": 0.37187499999998863,
          "ticks": 67320,
          "durationTicks": 119
        },
        {
          "time": 221.142834,
          "midi": 57,
          "name": "A3",
          "velocity": 1,
          "duration": 0.37187499999998863,
          "ticks": 67320,
          "durationTicks": 119
        },
        {
          "time": 221.517834,
          "midi": 57,
          "name": "A3",
          "velocity": 1,
          "duration": 0.37187499999998863,
          "ticks": 67440,
          "durationTicks": 119
        },
        {
          "time": 221.517834,
          "midi": 57,
          "name": "A3",
          "velocity": 1,
          "duration": 0.37187499999998863,
          "ticks": 67440,
          "durationTicks": 119
        },
        {
          "time": 224.142834,
          "midi": 57,
          "name": "A3",
          "velocity": 1,
          "duration": 0.37187499999998863,
          "ticks": 68280,
          "durationTicks": 119
        },
        {
          "time": 224.142834,
          "midi": 57,
          "name": "A3",
          "velocity": 1,
          "duration": 0.37187499999998863,
          "ticks": 68280,
          "durationTicks": 119
        },
        {
          "time": 224.517834,
          "midi": 57,
          "name": "A3",
          "velocity": 1,
          "duration": 0.37187499999998863,
          "ticks": 68400,
          "durationTicks": 119
        },
        {
          "time": 224.517834,
          "midi": 57,
          "name": "A3",
          "velocity": 1,
          "duration": 0.37187499999998863,
          "ticks": 68400,
          "durationTicks": 119
        },
        {
          "time": 248.892834,
          "midi": 52,
          "name": "E3",
          "velocity": 1,
          "duration": 0.37187499999998863,
          "ticks": 76200,
          "durationTicks": 119
        },
        {
          "time": 248.892834,
          "midi": 52,
          "name": "E3",
          "velocity": 1,
          "duration": 0.37187499999998863,
          "ticks": 76200,
          "durationTicks": 119
        },
        {
          "time": 249.267834,
          "midi": 52,
          "name": "E3",
          "velocity": 1,
          "duration": 0.37187499999998863,
          "ticks": 76320,
          "durationTicks": 119
        },
        {
          "time": 249.267834,
          "midi": 52,
          "name": "E3",
          "velocity": 1,
          "duration": 0.37187499999998863,
          "ticks": 76320,
          "durationTicks": 119
        },
        {
          "time": 249.642834,
          "midi": 54,
          "name": "F#3",
          "velocity": 1,
          "duration": 0.37187499999998863,
          "ticks": 76440,
          "durationTicks": 119
        },
        {
          "time": 249.642834,
          "midi": 54,
          "name": "F#3",
          "velocity": 1,
          "duration": 0.37187499999998863,
          "ticks": 76440,
          "durationTicks": 119
        },
        {
          "time": 250.017834,
          "midi": 50,
          "name": "D3",
          "velocity": 1,
          "duration": 0.37187499999998863,
          "ticks": 76560,
          "durationTicks": 119
        },
        {
          "time": 250.017834,
          "midi": 50,
          "name": "D3",
          "velocity": 1,
          "duration": 0.37187499999998863,
          "ticks": 76560,
          "durationTicks": 119
        },
        {
          "time": 250.392834,
          "midi": 52,
          "name": "E3",
          "velocity": 1,
          "duration": 0.37187499999998863,
          "ticks": 76680,
          "durationTicks": 119
        },
        {
          "time": 250.392834,
          "midi": 52,
          "name": "E3",
          "velocity": 1,
          "duration": 0.37187499999998863,
          "ticks": 76680,
          "durationTicks": 119
        },
        {
          "time": 250.767834,
          "midi": 54,
          "name": "F#3",
          "velocity": 1,
          "duration": 0.18437499999998863,
          "ticks": 76800,
          "durationTicks": 59
        },
        {
          "time": 250.767834,
          "midi": 54,
          "name": "F#3",
          "velocity": 1,
          "duration": 0.18437499999998863,
          "ticks": 76800,
          "durationTicks": 59
        },
        {
          "time": 250.955334,
          "midi": 55,
          "name": "G3",
          "velocity": 1,
          "duration": 0.18437499999998863,
          "ticks": 76860,
          "durationTicks": 59
        },
        {
          "time": 250.955334,
          "midi": 55,
          "name": "G3",
          "velocity": 1,
          "duration": 0.18437499999998863,
          "ticks": 76860,
          "durationTicks": 59
        },
        {
          "time": 251.142834,
          "midi": 54,
          "name": "F#3",
          "velocity": 1,
          "duration": 0.37187499999998863,
          "ticks": 76920,
          "durationTicks": 119
        },
        {
          "time": 251.142834,
          "midi": 54,
          "name": "F#3",
          "velocity": 1,
          "duration": 0.37187499999998863,
          "ticks": 76920,
          "durationTicks": 119
        },
        {
          "time": 251.517834,
          "midi": 50,
          "name": "D3",
          "velocity": 1,
          "duration": 0.37187499999998863,
          "ticks": 77040,
          "durationTicks": 119
        },
        {
          "time": 251.517834,
          "midi": 50,
          "name": "D3",
          "velocity": 1,
          "duration": 0.37187499999998863,
          "ticks": 77040,
          "durationTicks": 119
        },
        {
          "time": 251.892834,
          "midi": 52,
          "name": "E3",
          "velocity": 1,
          "duration": 0.37187499999998863,
          "ticks": 77160,
          "durationTicks": 119
        },
        {
          "time": 251.892834,
          "midi": 52,
          "name": "E3",
          "velocity": 1,
          "duration": 0.37187499999998863,
          "ticks": 77160,
          "durationTicks": 119
        },
        {
          "time": 252.267834,
          "midi": 54,
          "name": "F#3",
          "velocity": 1,
          "duration": 0.18437499999998863,
          "ticks": 77280,
          "durationTicks": 59
        },
        {
          "time": 252.267834,
          "midi": 54,
          "name": "F#3",
          "velocity": 1,
          "duration": 0.18437499999998863,
          "ticks": 77280,
          "durationTicks": 59
        },
        {
          "time": 252.455334,
          "midi": 55,
          "name": "G3",
          "velocity": 1,
          "duration": 0.18437499999998863,
          "ticks": 77340,
          "durationTicks": 59
        },
        {
          "time": 252.455334,
          "midi": 55,
          "name": "G3",
          "velocity": 1,
          "duration": 0.18437499999998863,
          "ticks": 77340,
          "durationTicks": 59
        },
        {
          "time": 252.642834,
          "midi": 54,
          "name": "F#3",
          "velocity": 1,
          "duration": 0.37187499999998863,
          "ticks": 77400,
          "durationTicks": 119
        },
        {
          "time": 252.642834,
          "midi": 54,
          "name": "F#3",
          "velocity": 1,
          "duration": 0.37187499999998863,
          "ticks": 77400,
          "durationTicks": 119
        },
        {
          "time": 253.017834,
          "midi": 52,
          "name": "E3",
          "velocity": 1,
          "duration": 0.37187499999998863,
          "ticks": 77520,
          "durationTicks": 119
        },
        {
          "time": 253.017834,
          "midi": 52,
          "name": "E3",
          "velocity": 1,
          "duration": 0.37187499999998863,
          "ticks": 77520,
          "durationTicks": 119
        },
        {
          "time": 253.392834,
          "midi": 50,
          "name": "D3",
          "velocity": 1,
          "duration": 0.37187499999998863,
          "ticks": 77640,
          "durationTicks": 119
        },
        {
          "time": 253.392834,
          "midi": 50,
          "name": "D3",
          "velocity": 1,
          "duration": 0.37187499999998863,
          "ticks": 77640,
          "durationTicks": 119
        },
        {
          "time": 253.767834,
          "midi": 52,
          "name": "E3",
          "velocity": 1,
          "duration": 0.37187499999998863,
          "ticks": 77760,
          "durationTicks": 119
        },
        {
          "time": 253.767834,
          "midi": 52,
          "name": "E3",
          "velocity": 1,
          "duration": 0.37187499999998863,
          "ticks": 77760,
          "durationTicks": 119
        },
        {
          "time": 254.142834,
          "midi": 45,
          "name": "A2",
          "velocity": 0.937007874015748,
          "duration": 0.37187499999998863,
          "ticks": 77880,
          "durationTicks": 119
        },
        {
          "time": 254.142834,
          "midi": 45,
          "name": "A2",
          "velocity": 0.937007874015748,
          "duration": 0.37187499999998863,
          "ticks": 77880,
          "durationTicks": 119
        },
        {
          "time": 254.517834,
          "midi": 54,
          "name": "F#3",
          "velocity": 1,
          "duration": 0.7468749999999886,
          "ticks": 78000,
          "durationTicks": 239
        },
        {
          "time": 254.517834,
          "midi": 54,
          "name": "F#3",
          "velocity": 1,
          "duration": 0.7468749999999886,
          "ticks": 78000,
          "durationTicks": 239
        },
        {
          "time": 255.267834,
          "midi": 54,
          "name": "F#3",
          "velocity": 1,
          "duration": 0.37187499999998863,
          "ticks": 78240,
          "durationTicks": 119
        },
        {
          "time": 255.267834,
          "midi": 54,
          "name": "F#3",
          "velocity": 1,
          "duration": 0.37187499999998863,
          "ticks": 78240,
          "durationTicks": 119
        },
        {
          "time": 255.642834,
          "midi": 55,
          "name": "G3",
          "velocity": 0.8818897637795275,
          "duration": 0.37187499999998863,
          "ticks": 78360,
          "durationTicks": 119
        },
        {
          "time": 255.642834,
          "midi": 55,
          "name": "G3",
          "velocity": 0.8818897637795275,
          "duration": 0.37187499999998863,
          "ticks": 78360,
          "durationTicks": 119
        },
        {
          "time": 256.017834,
          "midi": 57,
          "name": "A3",
          "velocity": 1,
          "duration": 0.37187499999998863,
          "ticks": 78480,
          "durationTicks": 119
        },
        {
          "time": 256.017834,
          "midi": 57,
          "name": "A3",
          "velocity": 1,
          "duration": 0.37187499999998863,
          "ticks": 78480,
          "durationTicks": 119
        },
        {
          "time": 256.392834,
          "midi": 57,
          "name": "A3",
          "velocity": 1,
          "duration": 0.37187499999998863,
          "ticks": 78600,
          "durationTicks": 119
        },
        {
          "time": 256.392834,
          "midi": 57,
          "name": "A3",
          "velocity": 1,
          "duration": 0.37187499999998863,
          "ticks": 78600,
          "durationTicks": 119
        },
        {
          "time": 256.767834,
          "midi": 55,
          "name": "G3",
          "velocity": 0.9763779527559056,
          "duration": 0.37187499999998863,
          "ticks": 78720,
          "durationTicks": 119
        },
        {
          "time": 256.767834,
          "midi": 55,
          "name": "G3",
          "velocity": 0.9763779527559056,
          "duration": 0.37187499999998863,
          "ticks": 78720,
          "durationTicks": 119
        },
        {
          "time": 257.142834,
          "midi": 54,
          "name": "F#3",
          "velocity": 1,
          "duration": 0.37187499999998863,
          "ticks": 78840,
          "durationTicks": 119
        },
        {
          "time": 257.142834,
          "midi": 54,
          "name": "F#3",
          "velocity": 1,
          "duration": 0.37187499999998863,
          "ticks": 78840,
          "durationTicks": 119
        },
        {
          "time": 257.517834,
          "midi": 55,
          "name": "G3",
          "velocity": 1,
          "duration": 0.18437499999998863,
          "ticks": 78960,
          "durationTicks": 59
        },
        {
          "time": 257.517834,
          "midi": 55,
          "name": "G3",
          "velocity": 1,
          "duration": 0.18437499999998863,
          "ticks": 78960,
          "durationTicks": 59
        },
        {
          "time": 257.705334,
          "midi": 52,
          "name": "E3",
          "velocity": 1,
          "duration": 0.18437499999998863,
          "ticks": 79020,
          "durationTicks": 59
        },
        {
          "time": 257.705334,
          "midi": 52,
          "name": "E3",
          "velocity": 1,
          "duration": 0.18437499999998863,
          "ticks": 79020,
          "durationTicks": 59
        },
        {
          "time": 257.892834,
          "midi": 50,
          "name": "D3",
          "velocity": 1,
          "duration": 0.37187499999998863,
          "ticks": 79080,
          "durationTicks": 119
        },
        {
          "time": 257.892834,
          "midi": 50,
          "name": "D3",
          "velocity": 1,
          "duration": 0.37187499999998863,
          "ticks": 79080,
          "durationTicks": 119
        },
        {
          "time": 258.267834,
          "midi": 50,
          "name": "D3",
          "velocity": 1,
          "duration": 0.37187499999998863,
          "ticks": 79200,
          "durationTicks": 119
        },
        {
          "time": 258.267834,
          "midi": 50,
          "name": "D3",
          "velocity": 1,
          "duration": 0.37187499999998863,
          "ticks": 79200,
          "durationTicks": 119
        },
        {
          "time": 258.642834,
          "midi": 52,
          "name": "E3",
          "velocity": 1,
          "duration": 0.37187499999998863,
          "ticks": 79320,
          "durationTicks": 119
        },
        {
          "time": 258.642834,
          "midi": 52,
          "name": "E3",
          "velocity": 1,
          "duration": 0.37187499999998863,
          "ticks": 79320,
          "durationTicks": 119
        },
        {
          "time": 259.017834,
          "midi": 54,
          "name": "F#3",
          "velocity": 1,
          "duration": 0.37187499999998863,
          "ticks": 79440,
          "durationTicks": 119
        },
        {
          "time": 259.017834,
          "midi": 54,
          "name": "F#3",
          "velocity": 1,
          "duration": 0.37187499999998863,
          "ticks": 79440,
          "durationTicks": 119
        },
        {
          "time": 259.392834,
          "midi": 52,
          "name": "E3",
          "velocity": 1,
          "duration": 0.5593749999999886,
          "ticks": 79560,
          "durationTicks": 179
        },
        {
          "time": 259.392834,
          "midi": 52,
          "name": "E3",
          "velocity": 1,
          "duration": 0.5593749999999886,
          "ticks": 79560,
          "durationTicks": 179
        },
        {
          "time": 259.955334,
          "midi": 50,
          "name": "D3",
          "velocity": 1,
          "duration": 0.18437499999998863,
          "ticks": 79740,
          "durationTicks": 59
        },
        {
          "time": 259.955334,
          "midi": 50,
          "name": "D3",
          "velocity": 1,
          "duration": 0.18437499999998863,
          "ticks": 79740,
          "durationTicks": 59
        },
        {
          "time": 260.142834,
          "midi": 50,
          "name": "D3",
          "velocity": 1,
          "duration": 0.7468749999999886,
          "ticks": 79800,
          "durationTicks": 239
        },
        {
          "time": 260.142834,
          "midi": 50,
          "name": "D3",
          "velocity": 1,
          "duration": 0.7468749999999886,
          "ticks": 79800,
          "durationTicks": 239
        },
        {
          "time": 290.517834,
          "midi": 57,
          "name": "A3",
          "velocity": 0.9763779527559056,
          "duration": 0.7468749999999886,
          "ticks": 89520,
          "durationTicks": 239
        },
        {
          "time": 291.267834,
          "midi": 45,
          "name": "A2",
          "velocity": 0.7795275590551181,
          "duration": 0.37187499999998863,
          "ticks": 89760,
          "durationTicks": 119
        },
        {
          "time": 291.642834,
          "midi": 57,
          "name": "A3",
          "velocity": 0.905511811023622,
          "duration": 0.37187499999998863,
          "ticks": 89880,
          "durationTicks": 119
        },
        {
          "time": 292.017834,
          "midi": 57,
          "name": "A3",
          "velocity": 1,
          "duration": 0.37187499999998863,
          "ticks": 90000,
          "durationTicks": 119
        },
        {
          "time": 292.392834,
          "midi": 57,
          "name": "A3",
          "velocity": 1,
          "duration": 0.37187499999998863,
          "ticks": 90120,
          "durationTicks": 119
        },
        {
          "time": 292.767834,
          "midi": 45,
          "name": "A2",
          "velocity": 1,
          "duration": 0.37187499999998863,
          "ticks": 90240,
          "durationTicks": 119
        },
        {
          "time": 293.142834,
          "midi": 57,
          "name": "A3",
          "velocity": 1,
          "duration": 0.37187499999998863,
          "ticks": 90360,
          "durationTicks": 119
        },
        {
          "time": 293.517834,
          "midi": 57,
          "name": "A3",
          "velocity": 1,
          "duration": 0.37187499999998863,
          "ticks": 90480,
          "durationTicks": 119
        },
        {
          "time": 293.892834,
          "midi": 57,
          "name": "A3",
          "velocity": 1,
          "duration": 0.37187499999998863,
          "ticks": 90600,
          "durationTicks": 119
        },
        {
          "time": 294.267834,
          "midi": 57,
          "name": "A3",
          "velocity": 1,
          "duration": 0.37187499999998863,
          "ticks": 90720,
          "durationTicks": 119
        },
        {
          "time": 294.642834,
          "midi": 58,
          "name": "A#3",
          "velocity": 1,
          "duration": 0.37187499999998863,
          "ticks": 90840,
          "durationTicks": 119
        },
        {
          "time": 295.017834,
          "midi": 54,
          "name": "F#3",
          "velocity": 1,
          "duration": 0.37187499999998863,
          "ticks": 90960,
          "durationTicks": 119
        },
        {
          "time": 295.392834,
          "midi": 59,
          "name": "B3",
          "velocity": 1,
          "duration": 0.37187499999998863,
          "ticks": 91080,
          "durationTicks": 119
        },
        {
          "time": 295.767834,
          "midi": 52,
          "name": "E3",
          "velocity": 1,
          "duration": 0.37187499999998863,
          "ticks": 91200,
          "durationTicks": 119
        },
        {
          "time": 296.142834,
          "midi": 57,
          "name": "A3",
          "velocity": 1,
          "duration": 0.37187499999998863,
          "ticks": 91320,
          "durationTicks": 119
        },
        {
          "time": 296.517834,
          "midi": 45,
          "name": "A2",
          "velocity": 1,
          "duration": 0.37187499999998863,
          "ticks": 91440,
          "durationTicks": 119
        },
        {
          "time": 296.892834,
          "midi": 50,
          "name": "D3",
          "velocity": 0.9763779527559056,
          "duration": 0.37187499999998863,
          "ticks": 91560,
          "durationTicks": 119
        },
        {
          "time": 297.267834,
          "midi": 50,
          "name": "D3",
          "velocity": 0.8031496062992126,
          "duration": 0.37187499999998863,
          "ticks": 91680,
          "durationTicks": 119
        },
        {
          "time": 297.642834,
          "midi": 50,
          "name": "D3",
          "velocity": 0.937007874015748,
          "duration": 0.37187499999998863,
          "ticks": 91800,
          "durationTicks": 119
        },
        {
          "time": 298.017834,
          "midi": 49,
          "name": "C#3",
          "velocity": 0.7401574803149606,
          "duration": 0.18437499999998863,
          "ticks": 91920,
          "durationTicks": 59
        },
        {
          "time": 298.205334,
          "midi": 47,
          "name": "B2",
          "velocity": 0.7401574803149606,
          "duration": 0.18437499999998863,
          "ticks": 91980,
          "durationTicks": 59
        },
        {
          "time": 298.392834,
          "midi": 45,
          "name": "A2",
          "velocity": 0.7086614173228346,
          "duration": 0.18437499999998863,
          "ticks": 92040,
          "durationTicks": 59
        },
        {
          "time": 298.580334,
          "midi": 47,
          "name": "B2",
          "velocity": 0.5669291338582677,
          "duration": 0.18437499999998863,
          "ticks": 92100,
          "durationTicks": 59
        },
        {
          "time": 298.767834,
          "midi": 49,
          "name": "C#3",
          "velocity": 0.8031496062992126,
          "duration": 0.18437499999998863,
          "ticks": 92160,
          "durationTicks": 59
        },
        {
          "time": 298.955334,
          "midi": 50,
          "name": "D3",
          "velocity": 0.6771653543307087,
          "duration": 0.18437499999998863,
          "ticks": 92220,
          "durationTicks": 59
        },
        {
          "time": 299.142834,
          "midi": 52,
          "name": "E3",
          "velocity": 0.8031496062992126,
          "duration": 0.18437499999998863,
          "ticks": 92280,
          "durationTicks": 59
        },
        {
          "time": 299.330334,
          "midi": 54,
          "name": "F#3",
          "velocity": 0.7086614173228346,
          "duration": 0.18437499999998863,
          "ticks": 92340,
          "durationTicks": 59
        },
        {
          "time": 299.517834,
          "midi": 55,
          "name": "G3",
          "velocity": 0.5039370078740157,
          "duration": 0.18437499999998863,
          "ticks": 92400,
          "durationTicks": 59
        },
        {
          "time": 299.705334,
          "midi": 52,
          "name": "E3",
          "velocity": 0.6614173228346457,
          "duration": 0.18437499999998863,
          "ticks": 92460,
          "durationTicks": 59
        },
        {
          "time": 299.892834,
          "midi": 54,
          "name": "F#3",
          "velocity": 0.6535433070866141,
          "duration": 0.37187499999998863,
          "ticks": 92520,
          "durationTicks": 119
        },
        {
          "time": 300.267834,
          "midi": 54,
          "name": "F#3",
          "velocity": 0.7637795275590551,
          "duration": 0.37187499999998863,
          "ticks": 92640,
          "durationTicks": 119
        },
        {
          "time": 300.642834,
          "midi": 50,
          "name": "D3",
          "velocity": 0.8031496062992126,
          "duration": 0.37187499999998863,
          "ticks": 92760,
          "durationTicks": 119
        },
        {
          "time": 301.017834,
          "midi": 50,
          "name": "D3",
          "velocity": 0.6929133858267716,
          "duration": 0.37187499999998863,
          "ticks": 92880,
          "durationTicks": 119
        },
        {
          "time": 301.392834,
          "midi": 57,
          "name": "A3",
          "velocity": 0.8031496062992126,
          "duration": 0.37187499999998863,
          "ticks": 93000,
          "durationTicks": 119
        },
        {
          "time": 301.767834,
          "midi": 45,
          "name": "A2",
          "velocity": 0.7637795275590551,
          "duration": 0.37187499999998863,
          "ticks": 93120,
          "durationTicks": 119
        },
        {
          "time": 302.142834,
          "midi": 50,
          "name": "D3",
          "velocity": 0.7637795275590551,
          "duration": 0.7468749999999886,
          "ticks": 93240,
          "durationTicks": 239
        },
        {
          "time": 332.892834,
          "midi": 57,
          "name": "A3",
          "velocity": 1,
          "duration": 0.37187499999998863,
          "ticks": 103080,
          "durationTicks": 119
        },
        {
          "time": 333.267834,
          "midi": 57,
          "name": "A3",
          "velocity": 1,
          "duration": 0.37187499999998863,
          "ticks": 103200,
          "durationTicks": 119
        },
        {
          "time": 333.642834,
          "midi": 57,
          "name": "A3",
          "velocity": 1,
          "duration": 0.37187499999998863,
          "ticks": 103320,
          "durationTicks": 119
        },
        {
          "time": 334.017834,
          "midi": 57,
          "name": "A3",
          "velocity": 1,
          "duration": 0.37187499999998863,
          "ticks": 103440,
          "durationTicks": 119
        },
        {
          "time": 334.392834,
          "midi": 57,
          "name": "A3",
          "velocity": 1,
          "duration": 0.37187499999998863,
          "ticks": 103560,
          "durationTicks": 119
        },
        {
          "time": 334.767834,
          "midi": 57,
          "name": "A3",
          "velocity": 1,
          "duration": 0.37187499999998863,
          "ticks": 103680,
          "durationTicks": 119
        },
        {
          "time": 335.142834,
          "midi": 57,
          "name": "A3",
          "velocity": 1,
          "duration": 0.37187499999998863,
          "ticks": 103800,
          "durationTicks": 119
        },
        {
          "time": 335.517834,
          "midi": 57,
          "name": "A3",
          "velocity": 1,
          "duration": 0.37187499999998863,
          "ticks": 103920,
          "durationTicks": 119
        },
        {
          "time": 335.892834,
          "midi": 57,
          "name": "A3",
          "velocity": 1,
          "duration": 0.37187499999998863,
          "ticks": 104040,
          "durationTicks": 119
        },
        {
          "time": 336.267834,
          "midi": 45,
          "name": "A2",
          "velocity": 1,
          "duration": 0.37187499999998863,
          "ticks": 104160,
          "durationTicks": 119
        },
        {
          "time": 336.642834,
          "midi": 45,
          "name": "A2",
          "velocity": 1,
          "duration": 0.37187499999998863,
          "ticks": 104280,
          "durationTicks": 119
        },
        {
          "time": 337.017834,
          "midi": 45,
          "name": "A2",
          "velocity": 1,
          "duration": 0.37187499999998863,
          "ticks": 104400,
          "durationTicks": 119
        },
        {
          "time": 337.392834,
          "midi": 45,
          "name": "A2",
          "velocity": 1,
          "duration": 0.37187499999998863,
          "ticks": 104520,
          "durationTicks": 119
        },
        {
          "time": 337.767834,
          "midi": 45,
          "name": "A2",
          "velocity": 1,
          "duration": 0.37187499999998863,
          "ticks": 104640,
          "durationTicks": 119
        },
        {
          "time": 338.142834,
          "midi": 45,
          "name": "A2",
          "velocity": 1,
          "duration": 0.37187499999998863,
          "ticks": 104760,
          "durationTicks": 119
        },
        {
          "time": 338.517834,
          "midi": 45,
          "name": "A2",
          "velocity": 1,
          "duration": 0.37187499999998863,
          "ticks": 104880,
          "durationTicks": 119
        },
        {
          "time": 338.892834,
          "midi": 50,
          "name": "D3",
          "velocity": 1,
          "duration": 0.37187499999998863,
          "ticks": 105000,
          "durationTicks": 119
        },
        {
          "time": 339.267834,
          "midi": 50,
          "name": "D3",
          "velocity": 1,
          "duration": 0.37187499999998863,
          "ticks": 105120,
          "durationTicks": 119
        },
        {
          "time": 339.642834,
          "midi": 50,
          "name": "D3",
          "velocity": 1,
          "duration": 0.37187499999998863,
          "ticks": 105240,
          "durationTicks": 119
        },
        {
          "time": 340.017834,
          "midi": 50,
          "name": "D3",
          "velocity": 1,
          "duration": 0.37187499999998863,
          "ticks": 105360,
          "durationTicks": 119
        },
        {
          "time": 340.392834,
          "midi": 50,
          "name": "D3",
          "velocity": 1,
          "duration": 0.37187499999998863,
          "ticks": 105480,
          "durationTicks": 119
        },
        {
          "time": 340.767834,
          "midi": 50,
          "name": "D3",
          "velocity": 1,
          "duration": 0.37187499999998863,
          "ticks": 105600,
          "durationTicks": 119
        },
        {
          "time": 341.142834,
          "midi": 50,
          "name": "D3",
          "velocity": 1,
          "duration": 0.37187499999998863,
          "ticks": 105720,
          "durationTicks": 119
        },
        {
          "time": 341.517834,
          "midi": 50,
          "name": "D3",
          "velocity": 1,
          "duration": 0.37187499999998863,
          "ticks": 105840,
          "durationTicks": 119
        },
        {
          "time": 341.892834,
          "midi": 50,
          "name": "D3",
          "velocity": 1,
          "duration": 0.37187499999998863,
          "ticks": 105960,
          "durationTicks": 119
        },
        {
          "time": 342.267834,
          "midi": 50,
          "name": "D3",
          "velocity": 1,
          "duration": 0.37187499999998863,
          "ticks": 106080,
          "durationTicks": 119
        },
        {
          "time": 342.642834,
          "midi": 62,
          "name": "D4",
          "velocity": 1,
          "duration": 0.5593749999999886,
          "ticks": 106200,
          "durationTicks": 179
        },
        {
          "time": 343.205334,
          "midi": 62,
          "name": "D4",
          "velocity": 1,
          "duration": 0.18437499999998863,
          "ticks": 106380,
          "durationTicks": 59
        },
        {
          "time": 343.392834,
          "midi": 62,
          "name": "D4",
          "velocity": 1,
          "duration": 0.18437499999998863,
          "ticks": 106440,
          "durationTicks": 59
        },
        {
          "time": 343.580334,
          "midi": 57,
          "name": "A3",
          "velocity": 1,
          "duration": 0.37187499999998863,
          "ticks": 106500,
          "durationTicks": 119
        },
        {
          "time": 343.955334,
          "midi": 62,
          "name": "D4",
          "velocity": 1,
          "duration": 0.18437499999998863,
          "ticks": 106620,
          "durationTicks": 59
        },
        {
          "time": 344.142834,
          "midi": 62,
          "name": "D4",
          "velocity": 1,
          "duration": 0.7468749999999886,
          "ticks": 106680,
          "durationTicks": 239
        },
        {
          "time": 344.892834,
          "midi": 62,
          "name": "D4",
          "velocity": 1,
          "duration": 0.37187499999998863,
          "ticks": 106920,
          "durationTicks": 119
        },
        {
          "time": 345.642834,
          "midi": 62,
          "name": "D4",
          "velocity": 1,
          "duration": 0.37187499999998863,
          "ticks": 107160,
          "durationTicks": 119
        },
        {
          "time": 346.392834,
          "midi": 55,
          "name": "G3",
          "velocity": 1,
          "duration": 0.37187499999998863,
          "ticks": 107400,
          "durationTicks": 119
        },
        {
          "time": 347.142834,
          "midi": 55,
          "name": "G3",
          "velocity": 1,
          "duration": 0.37187499999998863,
          "ticks": 107640,
          "durationTicks": 119
        },
        {
          "time": 347.892834,
          "midi": 57,
          "name": "A3",
          "velocity": 1,
          "duration": 0.37187499999998863,
          "ticks": 107880,
          "durationTicks": 119
        },
        {
          "time": 348.642834,
          "midi": 57,
          "name": "A3",
          "velocity": 1,
          "duration": 0.37187499999998863,
          "ticks": 108120,
          "durationTicks": 119
        },
        {
          "time": 349.392834,
          "midi": 62,
          "name": "D4",
          "velocity": 1,
          "duration": 1.4968749999999886,
          "ticks": 108360,
          "durationTicks": 479
        },
        {
          "time": 350.892834,
          "midi": 52,
          "name": "E3",
          "velocity": 1,
          "duration": 0.37187499999998863,
          "ticks": 108840,
          "durationTicks": 119
        },
        {
          "time": 351.642834,
          "midi": 52,
          "name": "E3",
          "velocity": 1,
          "duration": 0.37187499999998863,
          "ticks": 109080,
          "durationTicks": 119
        },
        {
          "time": 352.392834,
          "midi": 57,
          "name": "A3",
          "velocity": 1,
          "duration": 1.4968749999999886,
          "ticks": 109320,
          "durationTicks": 479
        },
        {
          "time": 354.642834,
          "midi": 52,
          "name": "E3",
          "velocity": 1,
          "duration": 0.37187499999998863,
          "ticks": 110040,
          "durationTicks": 119
        },
        {
          "time": 355.392834,
          "midi": 57,
          "name": "A3",
          "velocity": 1,
          "duration": 1.4968749999999886,
          "ticks": 110280,
          "durationTicks": 479
        },
        {
          "time": 357.642834,
          "midi": 57,
          "name": "A3",
          "velocity": 1,
          "duration": 0.37187499999998863,
          "ticks": 111000,
          "durationTicks": 119
        },
        {
          "time": 358.392834,
          "midi": 53,
          "name": "F3",
          "velocity": 1,
          "duration": 1.5386393583333415,
          "ticks": 111240,
          "durationTicks": 479
        }
      ],
      "controlChanges": {
        "7": [
          {
            "number": 7,
            "value": 1,
            "time": 0,
            "ticks": 0
          }
        ],
        "10": [
          {
            "number": 10,
            "value": 0.5039370078740157,
            "time": 0,
            "ticks": 0
          }
        ]
      }
    }
  ]
}
