[[{"time":23.58940103333332,"midi":60,"name":"C4","velocity":0.7480314960629921,"duration":0.14563099999999807,"ticks":4811,"durationTicks":30},{"time":23.87659239166665,"midi":55,"name":"G3","velocity":0.7480314960629921,"duration":0.13452924999999993,"ticks":4871,"durationTicks":30},{"time":24.01112164166665,"midi":57,"name":"A3","velocity":0.7480314960629921,"duration":0.11210770833333328,"ticks":4901,"durationTicks":25},{"time":24.14565089166665,"midi":58,"name":"A#3","velocity":0.7480314960629921,"duration":0.13452924999999993,"ticks":4931,"durationTicks":30},{"time":24.41470939166665,"midi":59,"name":"B3","velocity":0.7480314960629921,"duration":0.13452924999999993,"ticks":4991,"durationTicks":30},{"time":24.68783853333332,"midi":60,"name":"C4","velocity":0.6692913385826772,"duration":0.28697108333333077,"ticks":5051,"durationTicks":60}],[{"time":15.568924333333333,"midi":60,"name":"C4","velocity":0.36220472440944884,"duration":0.5384831666666674,"ticks":3125,"durationTicks":115},{"time":16.130031916666667,"midi":60,"name":"C4","velocity":0.3937007874015748,"duration":0.520361583333333,"ticks":3245,"durationTicks":115},{"time":16.674665333333333,"midi":60,"name":"C4","velocity":0.5354330708661418,"duration":0.8099761666666652,"ticks":3365,"durationTicks":175},{"time":17.507265916666665,"midi":65,"name":"F4","velocity":0.6299212598425197,"duration":0.30062208333333373,"ticks":3545,"durationTicks":55},{"time":17.83462595833333,"midi":65,"name":"F4","velocity":0.6456692913385826,"duration":0.5784775416666683,"ticks":3605,"durationTicks":115},{"time":18.436800166666664,"midi":65,"name":"F4","velocity":0.6456692913385826,"duration":0.545023333333333,"ticks":3725,"durationTicks":115},{"time":19.007076041666664,"midi":60,"name":"C4","velocity":0.5039370078740157,"duration":0.5858346249999968,"ticks":3845,"durationTicks":120},{"time":20.16318654166666,"midi":60,"name":"C4","velocity":0.5039370078740157,"duration":0.5843818749999983,"ticks":4085,"durationTicks":120},{"time":21.315274041666658,"midi":60,"name":"C4","velocity":0.5039370078740157,"duration":0.5801037916666658,"ticks":4325,"durationTicks":120},{"time":22.454533833333322,"midi":60,"name":"C4","velocity":0.5039370078740157,"duration":0.5611075833333317,"ticks":4565,"durationTicks":120},{"time":23.56027483333332,"midi":60,"name":"C4","velocity":0.5039370078740157,"duration":0.5584702083333326,"ticks":4805,"durationTicks":120},{"time":24.65871233333332,"midi":60,"name":"C4","velocity":0.5039370078740157,"duration":0.5571685833333326,"ticks":5045,"durationTicks":120},{"time":25.75354533333332,"midi":60,"name":"C4","velocity":0.5039370078740157,"duration":0.5584702083333326,"ticks":5285,"durationTicks":120},{"time":26.85198283333332,"midi":60,"name":"C4","velocity":0.5039370078740157,"duration":0.5611075833333317,"ticks":5525,"durationTicks":120},{"time":27.95772383333332,"midi":60,"name":"C4","velocity":0.44881889763779526,"duration":0.5611075833333317,"ticks":5765,"durationTicks":120},{"time":29.06666554166665,"midi":60,"name":"C4","velocity":0.3858267716535433,"duration":0.32589462499999655,"ticks":6005,"durationTicks":60}],[{"time":15.583487433333334,"midi":48,"name":"C3","velocity":0.36220472440944884,"duration":0.5374947166666662,"ticks":3128,"durationTicks":115},{"time":16.143606566666666,"midi":48,"name":"C3","velocity":0.3937007874015748,"duration":0.5213500333333343,"ticks":3248,"durationTicks":115},{"time":16.689228433333334,"midi":48,"name":"C3","velocity":0.5354330708661418,"duration":0.8089877166666675,"ticks":3368,"durationTicks":175},{"time":17.520840566666667,"midi":53,"name":"F3","velocity":0.6299212598425197,"duration":0.3030902083333302,"ticks":3548,"durationTicks":55},{"time":17.850668733333332,"midi":53,"name":"F3","velocity":0.6456692913385826,"duration":0.5766527666666654,"ticks":3608,"durationTicks":115},{"time":18.451018166666664,"midi":53,"name":"F3","velocity":0.6456692913385826,"duration":0.5459568583333336,"ticks":3728,"durationTicks":115},{"time":19.022227566666665,"midi":48,"name":"C3","velocity":0.5039370078740157,"duration":0.5849010999999962,"ticks":3848,"durationTicks":120},{"time":20.17833806666666,"midi":48,"name":"C3","velocity":0.5039370078740157,"duration":0.5833812999999992,"ticks":4088,"durationTicks":120},{"time":21.33042556666666,"midi":48,"name":"C3","velocity":0.5039370078740157,"duration":0.578905766666665,"ticks":4328,"durationTicks":120},{"time":22.469096933333322,"midi":48,"name":"C3","velocity":0.5039370078740157,"duration":0.560119133333334,"ticks":4568,"durationTicks":120},{"time":23.57483793333332,"midi":48,"name":"C3","velocity":0.5039370078740157,"duration":0.5573600333333317,"ticks":4808,"durationTicks":120},{"time":24.67327543333332,"midi":48,"name":"C3","velocity":0.5039370078740157,"duration":0.5559983333333314,"ticks":5048,"durationTicks":120},{"time":25.76810843333332,"midi":48,"name":"C3","velocity":0.5039370078740157,"duration":0.5573600333333317,"ticks":5288,"durationTicks":120},{"time":26.86654593333332,"midi":48,"name":"C3","velocity":0.5039370078740157,"duration":0.560119133333334,"ticks":5528,"durationTicks":120},{"time":27.97228693333332,"midi":48,"name":"C3","velocity":0.44881889763779526,"duration":0.560119133333334,"ticks":5768,"durationTicks":120},{"time":29.08314906666665,"midi":48,"name":"C3","velocity":0.3858267716535433,"duration":0.323629099999998,"ticks":6008,"durationTicks":60}],[{"time":1.041262,"midi":69,"name":"A4","velocity":0.8582677165354331,"duration":0.2727275,"ticks":300,"durationTicks":60},{"time":1.3139895,"midi":70,"name":"A#4","velocity":0.8582677165354331,"duration":0.23636383333333333,"ticks":360,"durationTicks":52},{"time":1.586717,"midi":74,"name":"D5","velocity":0.8582677165354331,"duration":0.1363637499999999,"ticks":420,"durationTicks":30},{"time":1.8594445,"midi":72,"name":"C5","velocity":0.7716535433070866,"duration":0.29126200000000013,"ticks":480,"durationTicks":60},{"time":2.1507065,"midi":70,"name":"A#4","velocity":0.7716535433070866,"duration":0.13636375000000012,"ticks":540,"durationTicks":30},{"time":2.28707025,"midi":69,"name":"A4","velocity":0.7716535433070866,"duration":0.10000008333333321,"ticks":570,"durationTicks":22},{"time":2.4234340000000003,"midi":67,"name":"G4","velocity":0.7716535433070866,"duration":0.14705875000000024,"ticks":600,"durationTicks":30},{"time":2.7175515000000003,"midi":60,"name":"C4","velocity":0.8582677165354331,"duration":0.1470587499999998,"ticks":660,"durationTicks":30},{"time":3.0116690000000004,"midi":65,"name":"F4","velocity":0.8582677165354331,"duration":0.3508770000000001,"ticks":720,"durationTicks":60},{"time":3.3625460000000005,"midi":67,"name":"G4","velocity":0.8582677165354331,"duration":0.3125,"ticks":780,"durationTicks":60},{"time":3.6750460000000005,"midi":69,"name":"A4","velocity":0.8582677165354331,"duration":0.3448274999999996,"ticks":840,"durationTicks":60},{"time":4.0198735,"midi":70,"name":"A#4","velocity":0.7952755905511811,"duration":0.19108274999999963,"ticks":900,"durationTicks":30},{"time":4.21095625,"midi":69,"name":"A4","velocity":0.7952755905511811,"duration":0.1401273500000002,"ticks":930,"durationTicks":22},{"time":4.402039,"midi":67,"name":"G4","velocity":0.7007874015748031,"duration":1.6604912499999998,"ticks":960,"durationTicks":210},{"time":8.015032,"midi":67,"name":"G4","velocity":0.8346456692913385,"duration":0.1388890000000007,"ticks":1500,"durationTicks":30},{"time":8.153921,"midi":69,"name":"A4","velocity":0.8346456692913385,"duration":0.13888899999999893,"ticks":1530,"durationTicks":30},{"time":8.29281,"midi":70,"name":"A#4","velocity":0.8346456692913385,"duration":0.27777799999999964,"ticks":1560,"durationTicks":60},{"time":8.570587999999999,"midi":67,"name":"G4","velocity":0.8346456692913385,"duration":0.2777780000000014,"ticks":1620,"durationTicks":60},{"time":8.848366,"midi":69,"name":"A4","velocity":0.6850393700787402,"duration":0.2912619999999997,"ticks":1680,"durationTicks":60},{"time":9.682614000000001,"midi":70,"name":"A#4","velocity":0.5669291338582677,"duration":0.27149299999999954,"ticks":1860,"durationTicks":60},{"time":9.954107,"midi":67,"name":"G4","velocity":0.7165354330708661,"duration":0.2524270666666659,"ticks":1920,"durationTicks":52},{"time":10.245369,"midi":67,"name":"G4","velocity":0.8346456692913385,"duration":0.13574649999999977,"ticks":1980,"durationTicks":30},{"time":10.3811155,"midi":69,"name":"A4","velocity":0.8346456692913385,"duration":0.13574649999999977,"ticks":2010,"durationTicks":30},{"time":10.516862,"midi":70,"name":"A#4","velocity":0.8346456692913385,"duration":0.27149299999999954,"ticks":2040,"durationTicks":60},{"time":10.788355,"midi":67,"name":"G4","velocity":0.8346456692913385,"duration":0.2352939333333346,"ticks":2100,"durationTicks":52},{"time":11.059848,"midi":69,"name":"A4","velocity":0.8110236220472441,"duration":0.5627549999999992,"ticks":2160,"durationTicks":120},{"time":11.622603,"midi":72,"name":"C5","velocity":0.8110236220472441,"duration":0.5429860000000009,"ticks":2280,"durationTicks":120},{"time":12.165589,"midi":70,"name":"A#4","velocity":0.8110236220472441,"duration":0.8342479999999988,"ticks":2400,"durationTicks":180},{"time":12.999837,"midi":69,"name":"A4","velocity":0.8110236220472441,"duration":0.2579687833333342,"ticks":2580,"durationTicks":52},{"time":13.30225025,"midi":74,"name":"D5","velocity":0.8110236220472441,"duration":0.5627549999999992,"ticks":2640,"durationTicks":120},{"time":13.86500525,"midi":72,"name":"C5","velocity":0.6850393700787402,"duration":0.5067869333333341,"ticks":2760,"durationTicks":112},{"time":14.40799125,"midi":67,"name":"G4","velocity":0.6141732283464567,"duration":0.14563099999999984,"ticks":2880,"durationTicks":30},{"time":14.69925325,"midi":67,"name":"G4","velocity":0.6850393700787402,"duration":0.13574649999999977,"ticks":2940,"durationTicks":30},{"time":14.83499975,"midi":69,"name":"A4","velocity":0.6850393700787402,"duration":0.13574649999999977,"ticks":2970,"durationTicks":30},{"time":14.97074625,"midi":70,"name":"A#4","velocity":0.6850393700787402,"duration":0.2714930000000013,"ticks":3000,"durationTicks":60},{"time":15.24223925,"midi":67,"name":"G4","velocity":0.6850393700787402,"duration":0.2579687833333324,"ticks":3060,"durationTicks":52},{"time":15.5446525,"midi":69,"name":"A4","velocity":0.7322834645669292,"duration":0.562755000000001,"ticks":3120,"durationTicks":120},{"time":16.1074075,"midi":72,"name":"C5","velocity":0.8110236220472441,"duration":0.5429859999999991,"ticks":3240,"durationTicks":120},{"time":16.6503935,"midi":70,"name":"A#4","velocity":0.8110236220472441,"duration":0.8342479999999988,"ticks":3360,"durationTicks":180},{"time":17.4846415,"midi":69,"name":"A4","velocity":0.8110236220472441,"duration":0.27324649999999906,"ticks":3540,"durationTicks":52},{"time":17.807888,"midi":74,"name":"D5","velocity":0.8110236220472441,"duration":0.6052154999999999,"ticks":3600,"durationTicks":120},{"time":18.4131035,"midi":72,"name":"C5","velocity":0.8110236220472441,"duration":0.5308053333333334,"ticks":3720,"durationTicks":112},{"time":18.981823499999997,"midi":67,"name":"G4","velocity":0.8110236220472441,"duration":0.1515152499999992,"ticks":3840,"durationTicks":30},{"time":19.284853999999996,"midi":67,"name":"G4","velocity":0.8110236220472441,"duration":0.14217999999999975,"ticks":3900,"durationTicks":30},{"time":19.427033999999995,"midi":69,"name":"A4","velocity":0.8110236220472441,"duration":0.1042653333333341,"ticks":3930,"durationTicks":22},{"time":19.569213999999995,"midi":70,"name":"A#4","velocity":0.8110236220472441,"duration":0.14217999999999975,"ticks":3960,"durationTicks":30},{"time":19.853573999999995,"midi":71,"name":"B4","velocity":0.8110236220472441,"duration":0.14217999999999975,"ticks":4020,"durationTicks":30},{"time":20.137933999999994,"midi":72,"name":"C5","velocity":0.7322834645669292,"duration":0.1515152499999992,"ticks":4080,"durationTicks":30},{"time":20.440964499999993,"midi":67,"name":"G4","velocity":0.8110236220472441,"duration":0.1415095000000015,"ticks":4140,"durationTicks":30},{"time":20.582473999999994,"midi":69,"name":"A4","velocity":0.8110236220472441,"duration":0.10377363333333278,"ticks":4170,"durationTicks":22},{"time":20.723983499999992,"midi":70,"name":"A#4","velocity":0.8110236220472441,"duration":0.1415095000000015,"ticks":4200,"durationTicks":30},{"time":21.00700249999999,"midi":71,"name":"B4","velocity":0.8110236220472441,"duration":0.1415095000000015,"ticks":4260,"durationTicks":30},{"time":21.29002149999999,"midi":72,"name":"C5","velocity":0.7322834645669292,"duration":0.1515152499999992,"ticks":4320,"durationTicks":30},{"time":21.59305199999999,"midi":67,"name":"G4","velocity":0.8110236220472441,"duration":0.13953499999999863,"ticks":4380,"durationTicks":30},{"time":21.732586999999988,"midi":69,"name":"A4","velocity":0.8110236220472441,"duration":0.10232566666666898,"ticks":4410,"durationTicks":22},{"time":21.87212199999999,"midi":70,"name":"A#4","velocity":0.8110236220472441,"duration":0.13953499999999863,"ticks":4440,"durationTicks":30},{"time":22.15119199999999,"midi":71,"name":"B4","velocity":0.8110236220472441,"duration":0.13953499999999863,"ticks":4500,"durationTicks":30},{"time":22.43026199999999,"midi":72,"name":"C5","velocity":0.7322834645669292,"duration":0.14563100000000162,"ticks":4560,"durationTicks":30},{"time":22.721523999999988,"midi":67,"name":"G4","velocity":0.8110236220472441,"duration":0.13574649999999977,"ticks":4620,"durationTicks":30},{"time":22.857270499999988,"midi":69,"name":"A4","velocity":0.8110236220472441,"duration":0.09954743333333482,"ticks":4650,"durationTicks":22},{"time":22.993016999999988,"midi":70,"name":"A#4","velocity":0.8110236220472441,"duration":0.13574649999999977,"ticks":4680,"durationTicks":30},{"time":23.264509999999987,"midi":71,"name":"B4","velocity":0.8110236220472441,"duration":0.13574649999999977,"ticks":4740,"durationTicks":30},{"time":23.536002999999987,"midi":72,"name":"C5","velocity":0.7322834645669292,"duration":0.14563100000000162,"ticks":4800,"durationTicks":30},{"time":23.827264999999986,"midi":67,"name":"G4","velocity":0.8110236220472441,"duration":0.13452924999999993,"ticks":4860,"durationTicks":30},{"time":23.961794249999986,"midi":69,"name":"A4","velocity":0.8110236220472441,"duration":0.098654783333334,"ticks":4890,"durationTicks":22},{"time":24.096323499999986,"midi":70,"name":"A#4","velocity":0.8110236220472441,"duration":0.13452924999999993,"ticks":4920,"durationTicks":30},{"time":24.365381999999986,"midi":71,"name":"B4","velocity":0.8110236220472441,"duration":0.13452924999999993,"ticks":4980,"durationTicks":30},{"time":24.634440499999986,"midi":72,"name":"C5","velocity":0.7322834645669292,"duration":0.14563100000000162,"ticks":5040,"durationTicks":30},{"time":24.925702499999986,"midi":67,"name":"G4","velocity":0.8110236220472441,"duration":0.13392849999999967,"ticks":5100,"durationTicks":30},{"time":25.059630999999985,"midi":69,"name":"A4","velocity":0.8110236220472441,"duration":0.09821423333333357,"ticks":5130,"durationTicks":22},{"time":25.193559499999985,"midi":70,"name":"A#4","velocity":0.8110236220472441,"duration":0.13392849999999967,"ticks":5160,"durationTicks":30},{"time":25.461416499999984,"midi":71,"name":"B4","velocity":0.8110236220472441,"duration":0.13392849999999967,"ticks":5220,"durationTicks":30},{"time":25.729273499999987,"midi":72,"name":"C5","velocity":0.7322834645669292,"duration":0.14563100000000162,"ticks":5280,"durationTicks":30},{"time":26.020535499999987,"midi":67,"name":"G4","velocity":0.8110236220472441,"duration":0.13452924999999993,"ticks":5340,"durationTicks":30},{"time":26.155064749999987,"midi":69,"name":"A4","velocity":0.8110236220472441,"duration":0.098654783333334,"ticks":5370,"durationTicks":22},{"time":26.289593999999987,"midi":70,"name":"A#4","velocity":0.8110236220472441,"duration":0.13452924999999993,"ticks":5400,"durationTicks":30},{"time":26.558652499999987,"midi":71,"name":"B4","velocity":0.8110236220472441,"duration":0.13452924999999993,"ticks":5460,"durationTicks":30},{"time":26.827710999999987,"midi":72,"name":"C5","velocity":0.7322834645669292,"duration":0.14563100000000162,"ticks":5520,"durationTicks":30},{"time":27.118972999999986,"midi":67,"name":"G4","velocity":0.8110236220472441,"duration":0.13574649999999977,"ticks":5580,"durationTicks":30},{"time":27.254719499999986,"midi":69,"name":"A4","velocity":0.8031496062992126,"duration":0.09954743333333482,"ticks":5610,"durationTicks":22},{"time":27.390465999999986,"midi":70,"name":"A#4","velocity":0.7952755905511811,"duration":0.13574649999999977,"ticks":5640,"durationTicks":30},{"time":27.661958999999985,"midi":71,"name":"B4","velocity":0.7716535433070866,"duration":0.13574649999999977,"ticks":5700,"durationTicks":30},{"time":27.933451999999985,"midi":72,"name":"C5","velocity":0.6692913385826772,"duration":0.14563100000000162,"ticks":5760,"durationTicks":30},{"time":28.224713999999985,"midi":67,"name":"G4","velocity":0.7165354330708661,"duration":0.13574649999999977,"ticks":5820,"durationTicks":30},{"time":28.360460499999984,"midi":69,"name":"A4","velocity":0.7165354330708661,"duration":0.09954743333333482,"ticks":5850,"durationTicks":22},{"time":28.496206999999984,"midi":70,"name":"A#4","velocity":0.7007874015748031,"duration":0.13574649999999977,"ticks":5880,"durationTicks":30},{"time":28.767699999999984,"midi":71,"name":"B4","velocity":0.6692913385826772,"duration":0.13574649999999977,"ticks":5940,"durationTicks":30},{"time":29.039192999999983,"midi":72,"name":"C5","velocity":0.5905511811023622,"duration":0.16483524999999943,"ticks":6000,"durationTicks":30},{"time":29.368863499999982,"midi":67,"name":"G4","velocity":0.8110236220472441,"duration":0.14217999999999975,"ticks":6060,"durationTicks":30},{"time":29.51104349999998,"midi":69,"name":"A4","velocity":0.8110236220472441,"duration":0.1042653333333341,"ticks":6090,"durationTicks":22},{"time":29.65322349999998,"midi":70,"name":"A#4","velocity":0.8110236220472441,"duration":0.14217999999999975,"ticks":6120,"durationTicks":30},{"time":29.93758349999998,"midi":71,"name":"B4","velocity":0.8110236220472441,"duration":0.14217999999999975,"ticks":6180,"durationTicks":30}],[{"time":3.0233649000000002,"midi":65,"name":"F4","velocity":0.8582677165354331,"duration":0.34959776666666675,"ticks":722,"durationTicks":60},{"time":3.372962666666667,"midi":64,"name":"E4","velocity":0.8582677165354331,"duration":0.31357758333333363,"ticks":782,"durationTicks":60},{"time":3.6865402500000006,"midi":65,"name":"F4","velocity":0.8582677165354331,"duration":0.3460720999999993,"ticks":842,"durationTicks":60},{"time":4.03261235,"midi":67,"name":"G4","velocity":0.7874015748031497,"duration":0.19108275000000052,"ticks":902,"durationTicks":30},{"time":4.2236951000000005,"midi":65,"name":"F4","velocity":0.7874015748031497,"duration":0.14012734999999932,"ticks":932,"durationTicks":22},{"time":4.416637533333334,"midi":64,"name":"E4","velocity":0.6929133858267716,"duration":1.6740617333333327,"ticks":962,"durationTicks":210},{"time":6.863315783333333,"midi":57,"name":"A3","velocity":0.8346456692913385,"duration":0.30385018333333313,"ticks":1262,"durationTicks":60},{"time":7.1671659666666665,"midi":58,"name":"A#3","velocity":0.8346456692913385,"duration":0.28301900000000035,"ticks":1322,"durationTicks":60},{"time":7.450184966666667,"midi":62,"name":"D4","velocity":0.8346456692913385,"duration":0.2832937666666666,"ticks":1382,"durationTicks":60},{"time":7.7334787333333335,"midi":60,"name":"C4","velocity":0.8346456692913385,"duration":1.3770230666666663,"ticks":1442,"durationTicks":292},{"time":9.148677766666667,"midi":57,"name":"A3","velocity":0.8346456692913385,"duration":0.27149299999999954,"ticks":1742,"durationTicks":60},{"time":9.420170766666667,"midi":58,"name":"A#3","velocity":0.8346456692913385,"duration":0.27149299999999954,"ticks":1802,"durationTicks":60},{"time":9.691663766666666,"midi":62,"name":"D4","velocity":0.8346456692913385,"duration":0.27215196666666763,"ticks":1862,"durationTicks":60},{"time":9.963815733333334,"midi":60,"name":"C4","velocity":0.8346456692913385,"duration":1.068882966666667,"ticks":1922,"durationTicks":232},{"time":11.069556733333334,"midi":60,"name":"C4","velocity":0.8110236220472441,"duration":0.5620960333333329,"ticks":2162,"durationTicks":120},{"time":11.631652766666667,"midi":65,"name":"F4","velocity":0.8110236220472441,"duration":0.5436449666666672,"ticks":2282,"durationTicks":120},{"time":12.175297733333334,"midi":64,"name":"E4","velocity":0.8110236220472441,"duration":0.8335890333333325,"ticks":2402,"durationTicks":180},{"time":13.008886766666667,"midi":65,"name":"F4","velocity":0.8110236220472441,"duration":0.26003013333333413,"ticks":2582,"durationTicks":52},{"time":13.311958983333334,"midi":70,"name":"A#4","velocity":0.8110236220472441,"duration":0.5620960333333329,"ticks":2642,"durationTicks":120},{"time":13.874055016666667,"midi":69,"name":"A4","velocity":0.6771653543307087,"duration":0.5067869333333341,"ticks":2762,"durationTicks":112},{"time":14.417699983333334,"midi":64,"name":"E4","velocity":0.6771653543307087,"duration":1.0936191666666666,"ticks":2882,"durationTicks":232},{"time":15.554361233333333,"midi":65,"name":"F4","velocity":0.7244094488188977,"duration":0.5620960333333311,"ticks":3122,"durationTicks":120},{"time":16.116457266666664,"midi":65,"name":"F4","velocity":0.8110236220472441,"duration":0.543644966666669,"ticks":3242,"durationTicks":120},{"time":16.660102233333333,"midi":64,"name":"E4","velocity":0.8110236220472441,"duration":0.8335890333333325,"ticks":3362,"durationTicks":180},{"time":17.493691266666666,"midi":65,"name":"F4","velocity":0.8110236220472441,"duration":0.2766967333333312,"ticks":3542,"durationTicks":52},{"time":18.991924516666664,"midi":64,"name":"E4","velocity":0.8110236220472441,"duration":0.8332134833333313,"ticks":3842,"durationTicks":172},{"time":19.86305266666666,"midi":65,"name":"F4","velocity":0.8110236220472441,"duration":0.24644533333333385,"ticks":4022,"durationTicks":52},{"time":20.14803501666666,"midi":64,"name":"E4","velocity":0.8110236220472441,"duration":0.8306655833333316,"ticks":4082,"durationTicks":172},{"time":21.016436466666658,"midi":65,"name":"F4","velocity":0.8110236220472441,"duration":0.2452831333333343,"ticks":4262,"durationTicks":52},{"time":21.300122516666658,"midi":64,"name":"E4","velocity":0.8110236220472441,"duration":0.8231624833333306,"ticks":4322,"durationTicks":172},{"time":22.16049433333332,"midi":65,"name":"F4","velocity":0.8110236220472441,"duration":0.2418606666666676,"ticks":4502,"durationTicks":52},{"time":22.439970733333322,"midi":64,"name":"E4","velocity":0.8110236220472441,"duration":0.7973899666666675,"ticks":4562,"durationTicks":172},{"time":23.273559766666654,"midi":65,"name":"F4","velocity":0.8110236220472441,"duration":0.2352939333333346,"ticks":4742,"durationTicks":52},{"time":23.54571173333332,"midi":64,"name":"E4","velocity":0.8110236220472441,"duration":0.7927644166666674,"ticks":4802,"durationTicks":172},{"time":24.374350616666653,"midi":65,"name":"F4","velocity":0.8110236220472441,"duration":0.23318403333333393,"ticks":4982,"durationTicks":52},{"time":24.64414923333332,"midi":64,"name":"E4","velocity":0.8110236220472441,"duration":0.7904815666666671,"ticks":5042,"durationTicks":172},{"time":25.470345066666653,"midi":65,"name":"F4","velocity":0.8110236220472441,"duration":0.23214273333333324,"ticks":5222,"durationTicks":52},{"time":25.73898223333332,"midi":64,"name":"E4","velocity":0.8110236220472441,"duration":0.7927644166666674,"ticks":5282,"durationTicks":172},{"time":26.567621116666654,"midi":65,"name":"F4","velocity":0.8110236220472441,"duration":0.23318403333333393,"ticks":5462,"durationTicks":52},{"time":26.83741973333332,"midi":64,"name":"E4","velocity":0.8110236220472441,"duration":0.7973899666666675,"ticks":5522,"durationTicks":172},{"time":27.671008766666652,"midi":65,"name":"F4","velocity":0.7637795275590551,"duration":0.2352939333333346,"ticks":5702,"durationTicks":52},{"time":27.94316073333332,"midi":64,"name":"E4","velocity":0.7401574803149606,"duration":0.7973899666666675,"ticks":5762,"durationTicks":172},{"time":28.77674976666665,"midi":65,"name":"F4","velocity":0.6614173228346457,"duration":0.2352939333333346,"ticks":5942,"durationTicks":52}],[{"time":0.7742718333333334,"midi":48,"name":"C3","velocity":0.6141732283464567,"duration":3.608658891666667,"ticks":245,"durationTicks":712},{"time":4.438535333333333,"midi":48,"name":"C3","velocity":0.6850393700787402,"duration":1.6944174583333336,"ticks":965,"durationTicks":210},{"time":6.5157403333333335,"midi":53,"name":"F3","velocity":0.5433070866141733,"duration":0.6655765833333334,"ticks":1205,"durationTicks":120},{"time":7.181316916666667,"midi":50,"name":"D3","velocity":0.8110236220472441,"duration":0.5667249166666668,"ticks":1325,"durationTicks":120},{"time":7.748041833333334,"midi":52,"name":"E3","velocity":0.8110236220472441,"duration":0.8456943333333324,"ticks":1445,"durationTicks":180},{"time":8.593736166666666,"midi":48,"name":"C3","velocity":0.8110236220472441,"duration":0.24074093333333302,"ticks":1625,"durationTicks":52},{"time":8.872637833333334,"midi":53,"name":"F3","velocity":0.8110236220472441,"duration":0.5611075833333334,"ticks":1685,"durationTicks":120},{"time":9.433745416666667,"midi":50,"name":"D3","velocity":0.8110236220472441,"duration":0.5446334166666666,"ticks":1805,"durationTicks":120},{"time":9.978378833333334,"midi":52,"name":"E3","velocity":0.8110236220472441,"duration":0.832600583333333,"ticks":1925,"durationTicks":180},{"time":10.810979416666667,"midi":48,"name":"C3","velocity":0.8110236220472441,"duration":0.23529393333333282,"ticks":2105,"durationTicks":52},{"time":11.084119833333334,"midi":53,"name":"F3","velocity":0.7952755905511811,"duration":0.5611075833333334,"ticks":2165,"durationTicks":120},{"time":11.645227416666668,"midi":60,"name":"C4","velocity":0.7952755905511811,"duration":0.5067869333333324,"ticks":2285,"durationTicks":112},{"time":12.189860833333334,"midi":58,"name":"A#3","velocity":0.7952755905511811,"duration":0.832600583333333,"ticks":2405,"durationTicks":180},{"time":13.022461416666667,"midi":65,"name":"F4","velocity":0.7952755905511811,"duration":0.2631221583333332,"ticks":2585,"durationTicks":52},{"time":13.326522083333334,"midi":65,"name":"F4","velocity":0.7952755905511811,"duration":0.5611075833333334,"ticks":2645,"durationTicks":120},{"time":13.887629666666667,"midi":60,"name":"C4","velocity":0.6692913385826772,"duration":0.5067869333333324,"ticks":2765,"durationTicks":112},{"time":14.432263083333334,"midi":60,"name":"C4","velocity":0.6692913385826772,"duration":1.0957227416666662,"ticks":2885,"durationTicks":232},{"time":15.568924333333333,"midi":57,"name":"A3","velocity":0.7165354330708661,"duration":0.5611075833333334,"ticks":3125,"durationTicks":120},{"time":15.568924333333333,"midi":60,"name":"C4","velocity":0.7165354330708661,"duration":0.5611075833333334,"ticks":3125,"durationTicks":120},{"time":16.130031916666667,"midi":57,"name":"A3","velocity":0.7952755905511811,"duration":0.5446334166666666,"ticks":3245,"durationTicks":120},{"time":16.130031916666667,"midi":53,"name":"F3","velocity":0.7952755905511811,"duration":0.5446334166666666,"ticks":3245,"durationTicks":120},{"time":16.674665333333333,"midi":55,"name":"G3","velocity":0.7952755905511811,"duration":0.8326005833333312,"ticks":3365,"durationTicks":180},{"time":16.674665333333333,"midi":58,"name":"A#3","velocity":0.7952755905511811,"duration":0.8326005833333312,"ticks":3365,"durationTicks":180},{"time":17.507265916666665,"midi":60,"name":"C4","velocity":0.7952755905511811,"duration":0.281872083333333,"ticks":3545,"durationTicks":52},{"time":17.507265916666665,"midi":57,"name":"A3","velocity":0.7952755905511811,"duration":0.281872083333333,"ticks":3545,"durationTicks":52},{"time":17.83462595833333,"midi":62,"name":"D4","velocity":0.7952755905511811,"duration":0.31781420833333485,"ticks":3605,"durationTicks":60},{"time":18.152440166666665,"midi":64,"name":"E4","velocity":0.7952755905511811,"duration":0.2843599999999995,"ticks":3665,"durationTicks":60},{"time":18.436800166666664,"midi":65,"name":"F4","velocity":0.7952755905511811,"duration":0.24644533333333385,"ticks":3725,"durationTicks":52},{"time":18.721160166666664,"midi":48,"name":"C3","velocity":0.7952755905511811,"duration":0.1421800000000033,"ticks":3785,"durationTicks":30},{"time":19.007076041666664,"midi":55,"name":"G3","velocity":0.7952755905511811,"duration":0.8322799583333307,"ticks":3845,"durationTicks":172},{"time":19.87727066666666,"midi":62,"name":"D4","velocity":0.7952755905511811,"duration":0.24644533333333385,"ticks":4025,"durationTicks":52},{"time":20.16318654166666,"midi":55,"name":"G3","velocity":0.7952755905511811,"duration":0.8296650083333326,"ticks":4085,"durationTicks":172},{"time":21.03058741666666,"midi":62,"name":"D4","velocity":0.7952755905511811,"duration":0.2452831333333343,"ticks":4265,"durationTicks":52},{"time":21.315274041666658,"midi":55,"name":"G3","velocity":0.7952755905511811,"duration":0.8219644583333299,"ticks":4325,"durationTicks":172},{"time":22.17444783333332,"midi":62,"name":"D4","velocity":0.7952755905511811,"duration":0.2418606666666676,"ticks":4505,"durationTicks":52},{"time":22.454533833333322,"midi":55,"name":"G3","velocity":0.7952755905511811,"duration":0.7964015166666663,"ticks":4565,"durationTicks":172},{"time":23.287134416666653,"midi":62,"name":"D4","velocity":0.7952755905511811,"duration":0.2352939333333346,"ticks":4745,"durationTicks":52},{"time":23.56027483333332,"midi":55,"name":"G3","velocity":0.7952755905511811,"duration":0.7916542416666665,"ticks":4805,"durationTicks":172},{"time":24.387803541666653,"midi":62,"name":"D4","velocity":0.7952755905511811,"duration":0.23318403333333393,"ticks":4985,"durationTicks":52},{"time":24.65871233333332,"midi":55,"name":"G3","velocity":0.7952755905511811,"duration":0.7893113166666659,"ticks":5045,"durationTicks":172},{"time":25.48373791666665,"midi":62,"name":"D4","velocity":0.7952755905511811,"duration":0.23214273333333324,"ticks":5225,"durationTicks":52},{"time":25.75354533333332,"midi":55,"name":"G3","velocity":0.7952755905511811,"duration":0.7916542416666665,"ticks":5285,"durationTicks":172},{"time":26.581074041666653,"midi":62,"name":"D4","velocity":0.7952755905511811,"duration":0.23318403333333393,"ticks":5465,"durationTicks":52},{"time":26.85198283333332,"midi":55,"name":"G3","velocity":0.7952755905511811,"duration":0.7964015166666663,"ticks":5525,"durationTicks":172},{"time":27.68458341666665,"midi":62,"name":"D4","velocity":0.7559055118110236,"duration":0.2352939333333346,"ticks":5705,"durationTicks":52},{"time":27.95772383333332,"midi":55,"name":"G3","velocity":0.7322834645669292,"duration":0.7964015166666663,"ticks":5765,"durationTicks":172},{"time":28.79032441666665,"midi":62,"name":"D4","velocity":0.6614173228346457,"duration":0.2352939333333346,"ticks":5945,"durationTicks":52},{"time":29.06666554166665,"midi":55,"name":"G3","velocity":0.6299212598425197,"duration":0.32589462499999655,"ticks":6005,"durationTicks":60}],[{"time":0.7985436666666667,"midi":41,"name":"F2","velocity":0.6062992125984252,"duration":3.618093866666667,"ticks":250,"durationTicks":712},{"time":4.475031666666667,"midi":36,"name":"C2","velocity":0.6771653543307087,"duration":1.7283436666666656,"ticks":970,"durationTicks":210},{"time":6.546415166666667,"midi":41,"name":"F2","velocity":0.5433070866141733,"duration":2.311659566666667,"ticks":1210,"durationTicks":472},{"time":8.896909666666668,"midi":41,"name":"F2","velocity":0.8110236220472441,"duration":2.1726470666666664,"ticks":1690,"durationTicks":472},{"time":11.108391666666668,"midi":53,"name":"F3","velocity":0.7874015748031497,"duration":0.5594601666666659,"ticks":2170,"durationTicks":120},{"time":11.667851833333334,"midi":57,"name":"A3","velocity":0.7874015748031497,"duration":0.5462808333333342,"ticks":2290,"durationTicks":120},{"time":12.214132666666668,"midi":55,"name":"G3","velocity":0.7874015748031497,"duration":0.8309531666666654,"ticks":2410,"durationTicks":180},{"time":13.045085833333333,"midi":53,"name":"F3","velocity":0.7874015748031497,"duration":0.26687315000000034,"ticks":2590,"durationTicks":52},{"time":13.350793916666667,"midi":46,"name":"A#2","velocity":0.7874015748031497,"duration":0.5594601666666659,"ticks":2650,"durationTicks":120},{"time":13.910254083333333,"midi":53,"name":"F3","velocity":0.6692913385826772,"duration":0.5074459000000004,"ticks":2770,"durationTicks":112},{"time":14.456534916666667,"midi":48,"name":"C3","velocity":0.6692913385826772,"duration":1.0978263166666657,"ticks":2890,"durationTicks":232},{"time":15.593196166666667,"midi":41,"name":"F2","velocity":0.7086614173228346,"duration":0.5594601666666659,"ticks":3130,"durationTicks":120},{"time":16.152656333333333,"midi":45,"name":"A2","velocity":0.7874015748031497,"duration":0.5462808333333342,"ticks":3250,"durationTicks":120},{"time":16.698937166666667,"midi":43,"name":"G2","velocity":0.7874015748031497,"duration":0.8309531666666672,"ticks":3370,"durationTicks":180},{"time":17.529890333333334,"midi":41,"name":"F2","velocity":0.7874015748031497,"duration":0.2886928499999968,"ticks":3550,"durationTicks":52},{"time":17.861363916666665,"midi":46,"name":"A#2","velocity":0.7874015748031497,"duration":0.5991329166666652,"ticks":3610,"durationTicks":120},{"time":18.46049683333333,"midi":41,"name":"F2","velocity":0.7874015748031497,"duration":0.5314276833333338,"ticks":3730,"durationTicks":112},{"time":19.03232858333333,"midi":48,"name":"C3","velocity":0.7874015748031497,"duration":0.8307240833333296,"ticks":3850,"durationTicks":172},{"time":19.90096733333333,"midi":48,"name":"C3","velocity":0.7874015748031497,"duration":0.24706768333333073,"ticks":4030,"durationTicks":52},{"time":20.18843908333333,"midi":48,"name":"C3","velocity":0.7874015748031497,"duration":0.8279973833333294,"ticks":4090,"durationTicks":172},{"time":21.054172333333327,"midi":48,"name":"C3","velocity":0.7874015748031497,"duration":0.2459501833333313,"ticks":4270,"durationTicks":52},{"time":21.340526583333325,"midi":48,"name":"C3","velocity":0.7874015748031497,"duration":0.8199677499999964,"ticks":4330,"durationTicks":172},{"time":22.197703666666655,"midi":48,"name":"C3","velocity":0.7874015748031497,"duration":0.24226706666666686,"ticks":4510,"durationTicks":52},{"time":22.478805666666656,"midi":48,"name":"C3","velocity":0.7874015748031497,"duration":0.7947540999999987,"ticks":4570,"durationTicks":172},{"time":23.309758833333323,"midi":48,"name":"C3","velocity":0.7874015748031497,"duration":0.23595289999999736,"ticks":4750,"durationTicks":52},{"time":23.584546666666654,"midi":48,"name":"C3","velocity":0.7874015748031497,"duration":0.7898039499999996,"ticks":4810,"durationTicks":172},{"time":24.41022508333332,"midi":48,"name":"C3","velocity":0.7874015748031497,"duration":0.23392415,"ticks":4990,"durationTicks":52},{"time":24.682984166666653,"midi":48,"name":"C3","velocity":0.7874015748031497,"duration":0.7873608999999995,"ticks":5050,"durationTicks":172},{"time":25.50605933333332,"midi":48,"name":"C3","velocity":0.7874015748031497,"duration":0.23292290000000193,"ticks":5230,"durationTicks":52},{"time":25.777817166666654,"midi":48,"name":"C3","velocity":0.7874015748031497,"duration":0.7898039499999996,"ticks":5290,"durationTicks":172},{"time":26.60349558333332,"midi":48,"name":"C3","velocity":0.7874015748031497,"duration":0.23392415,"ticks":5470,"durationTicks":52},{"time":26.876254666666654,"midi":48,"name":"C3","velocity":0.7874015748031497,"duration":0.7947540999999987,"ticks":5530,"durationTicks":172},{"time":27.70720783333332,"midi":48,"name":"C3","velocity":0.7559055118110236,"duration":0.23595289999999736,"ticks":5710,"durationTicks":52},{"time":27.981995666666652,"midi":48,"name":"C3","velocity":0.7244094488188977,"duration":0.7947540999999987,"ticks":5770,"durationTicks":172},{"time":28.81294883333332,"midi":48,"name":"C3","velocity":0.6614173228346457,"duration":0.23723318333333054,"ticks":5950,"durationTicks":52},{"time":29.094138083333316,"midi":48,"name":"C3","velocity":0.6377952755905512,"duration":0.3221187499999978,"ticks":6010,"durationTicks":60}],[{"time":15.6029049,"midi":29,"name":"F1","velocity":0.6771653543307087,"duration":0.5588011999999996,"ticks":3132,"durationTicks":120},{"time":16.1617061,"midi":33,"name":"A1","velocity":0.7559055118110236,"duration":0.5469398000000005,"ticks":3252,"durationTicks":120},{"time":16.7086459,"midi":31,"name":"G1","velocity":0.7559055118110236,"duration":0.8302941999999973,"ticks":3372,"durationTicks":180},{"time":17.538940099999998,"midi":29,"name":"F1","velocity":0.7559055118110236,"duration":0.29033826666666585,"ticks":3552,"durationTicks":52},{"time":17.872059099999998,"midi":34,"name":"A#1","velocity":0.7559055118110236,"duration":0.5979164000000026,"ticks":3612,"durationTicks":120},{"time":18.4699755,"midi":29,"name":"F1","velocity":0.7559055118110236,"duration":0.5320500333333307,"ticks":3732,"durationTicks":112},{"time":19.0424296,"midi":36,"name":"C2","velocity":0.7559055118110236,"duration":0.8301017333333292,"ticks":3852,"durationTicks":172},{"time":19.910445999999997,"midi":36,"name":"C2","velocity":0.7559055118110236,"duration":0.24769003333333117,"ticks":4032,"durationTicks":52},{"time":20.198540099999995,"midi":36,"name":"C2","velocity":0.7559055118110236,"duration":0.8273303333333324,"ticks":4092,"durationTicks":172},{"time":21.063606299999993,"midi":36,"name":"C2","velocity":0.7559055118110236,"duration":0.24661723333333185,"ticks":4272,"durationTicks":52},{"time":21.350627599999992,"midi":36,"name":"C2","velocity":0.7559055118110236,"duration":0.8191690666666638,"ticks":4332,"durationTicks":172},{"time":22.20700599999999,"midi":36,"name":"C2","velocity":0.7559055118110236,"duration":0.24267346666666612,"ticks":4512,"durationTicks":52},{"time":22.48851439999999,"midi":36,"name":"C2","velocity":0.7559055118110236,"duration":0.7940951333333324,"ticks":4572,"durationTicks":172},{"time":23.31880859999999,"midi":36,"name":"C2","velocity":0.7559055118110236,"duration":0.23661186666666367,"ticks":4752,"durationTicks":52},{"time":23.594255399999987,"midi":36,"name":"C2","velocity":0.7559055118110236,"duration":0.7890638333333335,"ticks":4812,"durationTicks":172},{"time":24.419193699999987,"midi":36,"name":"C2","velocity":0.7559055118110236,"duration":0.23466426666666607,"ticks":4992,"durationTicks":52},{"time":24.692692899999987,"midi":36,"name":"C2","velocity":0.7559055118110236,"duration":0.7865807333333308,"ticks":5052,"durationTicks":172},{"time":25.514987899999987,"midi":36,"name":"C2","velocity":0.7559055118110236,"duration":0.23370306666666707,"ticks":5232,"durationTicks":52},{"time":25.787525899999988,"midi":36,"name":"C2","velocity":0.7559055118110236,"duration":0.7890638333333335,"ticks":5292,"durationTicks":172},{"time":26.612464199999987,"midi":36,"name":"C2","velocity":0.7559055118110236,"duration":0.23466426666666607,"ticks":5472,"durationTicks":52},{"time":26.885963399999987,"midi":36,"name":"C2","velocity":0.7559055118110236,"duration":0.7940951333333324,"ticks":5532,"durationTicks":172},{"time":27.716257599999985,"midi":36,"name":"C2","velocity":0.7244094488188977,"duration":0.23661186666666723,"ticks":5712,"durationTicks":52},{"time":27.991704399999985,"midi":36,"name":"C2","velocity":0.6929133858267716,"duration":0.7940951333333324,"ticks":5772,"durationTicks":172},{"time":28.821998599999986,"midi":36,"name":"C2","velocity":0.6220472440944882,"duration":0.23917243333333005,"ticks":5952,"durationTicks":52},{"time":29.105127099999983,"midi":36,"name":"C2","velocity":0.5984251968503937,"duration":0.3206083999999976,"ticks":6012,"durationTicks":60}]]